<svg height="210mm" style="background:white" viewBox="0 0 210 210" width="210mm" xmlns="http://www.w3.org/2000/svg" xmlns:inkscape="http://www.inkscape.org/namespaces/inkscape">
<g transform="translate(20,20)">
<path d="M80,9.599999 L90.880005,9.599999 M60.8,12.799999 L110.4,12.799999 M51.199997,16 L119.68001,16 M44.48,19.199999 L126.72,19.199999 M38.72,22.4 L132.16,22.4 M33.92,25.599998 L136.96,25.599998 M30.079998,28.800001 L141.12001,28.800001 M26.56,32 L144.64,32 M23.36,35.2 L147.52,35.2 M20.480001,38.399998 L150.4,38.399998 M18.24,41.6 L152.95999,41.6 M16,44.8 L155.20001,44.8 M14.08,48 L157.12,48 M12.16,51.199997 L158.72,51.199997 M10.880001,54.4 L160,54.4 M9.599999,57.600002 L160,57.600002 M8.32,60.8 L160,60.8 M7.6800003,64 L160,64 M6.72,67.2 L160,67.2 M6.08,70.4 L160,70.4 M5.7599998,73.6 L160,73.6 M5.4400005,76.799995 L160,76.799995 M5.4400005,80 L160,80 M5.4400005,83.2 L160,83.2 M5.7599998,86.4 L160,86.4 M6.08,89.6 L160,89.6 M6.72,92.799995 L160,92.799995 M7.6800003,96 L160,96 M8.32,99.2 L160,99.2 M9.599999,102.399994 L160,102.399994 M10.880001,105.600006 L160,105.600006 M12.16,108.8 L158.72,108.8 M14.08,112 L157.12,112 M16,115.200005 L155.20001,115.200005 M18.24,118.4 L152.95999,118.4 M20.480001,121.6 L150.4,121.6 M23.36,124.799995 L147.52,124.799995 M26.56,128 L144.64,128 M30.079998,131.2 L141.12001,131.2 M33.92,134.4 L136.96,134.4 M38.72,137.6 L132.16,137.6 M44.48,140.8 L126.72,140.8 M51.199997,144 L119.68001,144 M60.8,147.2 L110.4,147.2 M80,150.4 L90.880005,150.4 M105.92,32.533333 L106.56,32.533333 M102.399994,35.733334 L103.04,35.733334 M103.36,35.733334 L108.16,35.733334 M109.119995,35.733334 L109.44,35.733334 M100.48,38.93333 L110.71999,38.93333 M111.04,38.93333 L111.36,38.93333 M100.8,42.13333 L110.71999,42.13333 M81.920006,45.333332 L82.24,45.333332 M95.68,45.333332 L96.32,45.333332 M98.240005,45.333332 L98.88,45.333332 M99.52,45.333332 L99.840004,45.333332 M100.159996,45.333332 L100.8,45.333332 M101.12,45.333332 L102.08,45.333332 M102.399994,45.333332 L103.68,45.333332 M104.32,45.333332 L106.56,45.333332 M106.88,45.333332 L109.44,45.333332 M109.759995,45.333332 L110.08,45.333332 M110.71999,45.333332 L111.04,45.333332 M111.68,45.333332 L112,45.333332 M112.32001,45.333332 L113.28,45.333332 M114.88,45.333332 L115.200005,45.333332 M115.520004,45.333332 L115.84,45.333332 M83.520004,48.533333 L86.72,48.533333 M90.240005,48.533333 L91.2,48.533333 M91.520004,48.533333 L119.04,48.533333 M120,48.533333 L120.31999,48.533333 M121.28,48.533333 L121.6,48.533333 M83.84,51.73333 L124.16,51.73333 M124.479996,51.73333 L129.6,51.73333 M81.28,54.933334 L127.36,54.933334 M77.76,58.133335 L130.24,58.133335 M73.92,61.333332 L74.24,61.333332 M74.56,61.333332 L74.88,61.333332 M75.840004,61.333332 L76.799995,61.333332 M77.119995,61.333332 L130.88,61.333332 M131.2,61.333332 L133.44,61.333332 M134.08,61.333332 L134.4,61.333332 M58.88,64.53333 L59.2,64.53333 M73.28,64.53333 L73.92,64.53333 M74.24,64.53333 L75.2,64.53333 M75.520004,64.53333 L132.48,64.53333 M49.920002,67.73333 L52.800003,67.73333 M53.12,67.73333 L64.96,67.73333 M65.28,67.73333 L66.56,67.73333 M73.6,67.73333 L73.92,67.73333 M74.24,67.73333 L132.16,67.73333 M132.48,67.73333 L133.12,67.73333 M46.399998,70.933334 L46.72,70.933334 M48.64,70.933334 L69.439995,70.933334 M73.28,70.933334 L132.16,70.933334 M45.760002,74.13333 L71.04,74.13333 M72.32,74.13333 L131.2,74.13333 M40,77.33333 L44.48,77.33333 M45.760002,77.33333 L72,77.33333 M72.32,77.33333 L129.6,77.33333 M17.92,80.53333 L18.880001,80.53333 M38.08,80.53333 L127.36,80.53333 M45.440002,83.73333 L71.68,83.73333 M72.32,83.73333 L130.88,83.73333 M46.72,86.933334 L47.04,86.933334 M47.36,86.933334 L70.4,86.933334 M72.64,86.933334 L131.84,86.933334 M48.96,90.13333 L49.28,90.13333 M49.6,90.13333 L68.16,90.13333 M72.96,90.13333 L73.28,90.13333 M73.6,90.13333 L132.48,90.13333 M49.920002,93.33333 L52.800003,93.33333 M54.4,93.33333 L54.72,93.33333 M55.359997,93.33333 L56.96,93.33333 M57.280003,93.33333 L61.440002,93.33333 M61.760002,93.33333 L62.08,93.33333 M62.399998,93.33333 L63.68,93.33333 M65.92,93.33333 L66.24,93.33333 M73.28,93.33333 L73.6,93.33333 M73.92,93.33333 L74.24,93.33333 M74.56,93.33333 L132.16,93.33333 M58.239998,96.53334 L58.559998,96.53334 M75.520004,96.53334 L131.52,96.53334 M132.16,96.53334 L132.8,96.53334 M77.119995,99.73334 L130.56,99.73334 M77.76,102.933334 L80,102.933334 M80.31999,102.933334 L128.64,102.933334 M129.6,102.933334 L129.92,102.933334 M130.24,102.933334 L130.56,102.933334 M82.880005,106.13334 L128.31999,106.13334 M82.24,109.333336 L82.880005,109.333336 M83.2,109.333336 L87.36,109.333336 M87.67999,109.333336 L122.880005,109.333336 M125.12,109.333336 L129.28,109.333336 M83.2,112.53333 L84.16,112.53333 M86.08,112.53333 L87.04001,112.53333 M91.84,112.53333 L117.119995,112.53333 M117.44,112.53333 L120,112.53333 M101.759995,115.73334 L108.8,115.73334 M100.48,118.933334 L110.71999,118.933334 M101.12,122.13333 L111.04,122.13333 M104.96001,125.33333 L107.52,125.33333 M103.36,134.93333 L104,134.93333 M112,26.666664 L112.32001,26.666664 M104.64,33.066666 L104.96001,33.066666 M105.600006,33.066666 L106.88,33.066666 M102.08,36.266666 L108.479996,36.266666 M108.8,36.266666 L109.119995,36.266666 M100.48,39.466663 L110.71999,39.466663 M100.48,42.666664 L110.08,42.666664 M92.48,45.866665 L92.799995,45.866665 M95.68,45.866665 L96,45.866665 M96.32,45.866665 L96.96,45.866665 M98.240005,45.866665 L98.88,45.866665 M99.2,45.866665 L111.68,45.866665 M112.32001,45.866665 L113.28,45.866665 M114.24,45.866665 L114.560005,45.866665 M114.88,45.866665 L115.200005,45.866665 M83.520004,49.066666 L87.36,49.066666 M88.96,49.066666 L89.28001,49.066666 M90.240005,49.066666 L120.31999,49.066666 M120.96,49.066666 L121.28,49.066666 M121.6,49.066666 L121.920006,49.066666 M126.4,49.066666 L127.04001,49.066666 M127.67999,49.066666 L128,49.066666 M129.28,49.066666 L129.6,49.066666 M85.439995,52.266663 L124.479996,52.266663 M124.799995,52.266663 L129.28,52.266663 M81.920006,55.466667 L127.36,55.466667 M78.4,58.666668 L78.72,58.666668 M79.04,58.666668 L129.6,58.666668 M74.88,61.866665 L75.2,61.866665 M75.520004,61.866665 L130.88,61.866665 M131.2,61.866665 L134.4,61.866665 M58.239998,65.066666 L59.2,65.066666 M74.24,65.066666 L131.84,65.066666 M50.24,68.26666 L65.92,68.26666 M73.92,68.26666 L133.76001,68.26666 M47.04,71.46667 L48,71.46667 M48.64,71.46667 L69.439995,71.46667 M73.28,71.46667 L132.16,71.46667 M46.399998,74.666664 L71.04,74.666664 M72.32,74.666664 L131.52,74.666664 M40,77.86666 L44.8,77.86666 M45.440002,77.86666 L72,77.86666 M72.32,77.86666 L129.28,77.86666 M39.04,81.066666 L72,81.066666 M72.32,81.066666 L127.67999,81.066666 M46.079998,84.26666 L71.68,84.26666 M72.32,84.26666 L130.56,84.26666 M47.68,87.46667 L70.08,87.46667 M72.32,87.46667 L72.64,87.46667 M72.96,87.46667 L132.48,87.46667 M50.56,90.666664 L67.52,90.666664 M68.16,90.666664 L68.48,90.666664 M73.6,90.666664 L132.16,90.666664 M50.56,93.86666 L52.480003,93.86666 M57.92,93.86666 L59.52,93.86666 M61.12,93.86666 L61.440002,93.86666 M63.36,93.86666 L63.68,93.86666 M74.24,93.86666 L74.56,93.86666 M74.88,93.86666 L132.48,93.86666 M76.479996,97.066666 L131.2,97.066666 M131.52,97.066666 L133.44,97.066666 M77.44,100.26666 L77.76,100.26666 M78.4,100.26666 L130.56,100.26666 M77.44,103.46666 L79.68,103.46666 M80.64,103.46666 L128.95999,103.46666 M83.520004,106.66667 L128.95999,106.66667 M82.880005,109.86667 L87.36,109.86667 M88,109.86667 L121.6,109.86667 M125.12,109.86667 L130.24,109.86667 M91.84,113.066666 L93.76,113.066666 M94.399994,113.066666 L94.72,113.066666 M95.03999,113.066666 L115.200005,113.066666 M115.520004,113.066666 L115.84,113.066666 M116.16,113.066666 L116.8,113.066666 M117.44,113.066666 L119.36,113.066666 M101.44,116.26667 L109.759995,116.26667 M100.159996,119.46667 L111.36,119.46667 M100.159996,122.666664 L109.759995,122.666664 M110.08,122.666664 L110.71999,122.666664 M104.64,125.86666 L107.52,125.86666 M101.44,138.66667 L101.759995,138.66667 M104.96001,33.600002 L107.52,33.600002 M100.159996,36.8 L101.44,36.8 M101.759995,36.8 L109.119995,36.8 M99.52,40 L110.71999,40 M101.44,43.199997 L109.759995,43.199997 M92.159996,46.399998 L93.76,46.399998 M96,46.399998 L96.96,46.399998 M97.28,46.399998 L113.6,46.399998 M114.24,46.399998 L115.200005,46.399998 M119.04,46.399998 L119.36,46.399998 M83.2,49.6 L87.36,49.6 M88.96,49.6 L122.24,49.6 M126.08,49.6 L128.31999,49.6 M128.95999,49.6 L130.24,49.6 M83.84,52.799995 L84.479996,52.799995 M84.799995,52.799995 L129.28,52.799995 M129.6,52.799995 L129.92,52.799995 M79.04,56 L79.36,56 M80.64,56 L128,56 M78.72,59.2 L129.92,59.2 M75.520004,62.399998 L133.76001,62.399998 M50.24,65.6 L51.199997,65.6 M57.92,65.6 L59.52,65.6 M75.2,65.6 L131.84,65.6 M132.16,65.6 L132.48,65.6 M51.52,68.799995 L66.56,68.799995 M73.28,68.799995 L134.08,68.799995 M47.04,72 L69.439995,72 M69.759995,72 L70.08,72 M72.64,72 L132.8,72 M46.079998,75.2 L71.36,75.2 M72.32,75.2 L130.88,75.2 M39.68,78.399994 L45.120003,78.399994 M45.440002,78.399994 L72,78.399994 M72.32,78.399994 L128.31999,78.399994 M39.68,81.6 L45.120003,81.6 M45.440002,81.6 L72,81.6 M72.32,81.6 L128.31999,81.6 M46.079998,84.799995 L71.36,84.799995 M72.32,84.799995 L130.88,84.799995 M47.04,88 L69.439995,88 M69.759995,88 L70.08,88 M72.64,88 L132.8,88 M51.52,91.2 L66.56,91.2 M66.880005,91.2 L67.2,91.2 M73.28,91.2 L134.08,91.2 M50.24,94.399994 L51.199997,94.399994 M57.92,94.399994 L59.52,94.399994 M75.2,94.399994 L131.84,94.399994 M132.16,94.399994 L132.8,94.399994 M75.520004,97.600006 L133.76001,97.600006 M78.72,100.8 L129.92,100.8 M79.04,104 L79.36,104 M80.96,104 L128,104 M83.84,107.200005 L84.479996,107.200005 M84.799995,107.200005 L129.28,107.200005 M129.6,107.200005 L129.92,107.200005 M83.2,110.4 L87.36,110.4 M88.96,110.4 L122.24,110.4 M126.08,110.4 L128.31999,110.4 M128.95999,110.4 L130.24,110.4 M92.48,113.6 L93.76,113.6 M96,113.6 L96.96,113.6 M97.28,113.6 L113.6,113.6 M114.24,113.6 L115.200005,113.6 M119.04,113.6 L119.36,113.6 M101.44,116.8 L109.759995,116.8 M99.52,120 L110.71999,120 M100.159996,123.2 L101.44,123.2 M101.759995,123.2 L109.119995,123.2 M104.96001,126.399994 L107.52,126.399994 M101.44,21.333332 L101.759995,21.333332 M104.64,34.133335 L107.200005,34.133335 M100.48,37.333332 L109.759995,37.333332 M110.4,37.333332 L110.71999,37.333332 M100.159996,40.533333 L111.36,40.533333 M101.759995,43.73333 L109.44,43.73333 M91.84,46.93333 L93.76,46.93333 M94.399994,46.93333 L94.72,46.93333 M95.03999,46.93333 L115.200005,46.93333 M116.16,46.93333 L116.479996,46.93333 M117.76,46.93333 L119.36,46.93333 M82.880005,50.13333 L87.36,50.13333 M88.32,50.13333 L121.6,50.13333 M125.12,50.13333 L130.24,50.13333 M83.84,53.33333 L128.95999,53.33333 M77.44,56.533333 L79.68,56.533333 M80.64,56.533333 L128.95999,56.533333 M78.4,59.733334 L130.56,59.733334 M76.479996,62.93333 L131.2,62.93333 M131.52,62.93333 L133.44,62.93333 M50.56,66.13333 L52.480003,66.13333 M57.92,66.13333 L59.52,66.13333 M63.36,66.13333 L63.68,66.13333 M74.88,66.13333 L132.16,66.13333 M50.56,69.33333 L67.52,69.33333 M73.6,69.33333 L132.16,69.33333 M47.68,72.53333 L69.759995,72.53333 M72.96,72.53333 L132.48,72.53333 M46.079998,75.73333 L71.68,75.73333 M72.32,75.73333 L130.56,75.73333 M39.04,78.93333 L72,78.93333 M72.32,78.93333 L127.67999,78.93333 M40,82.13333 L44.8,82.13333 M45.440002,82.13333 L72,82.13333 M72.32,82.13333 L129.28,82.13333 M46.399998,85.33333 L71.04,85.33333 M72.32,85.33333 L131.52,85.33333 M47.04,88.53333 L48,88.53333 M48.64,88.53333 L69.439995,88.53333 M73.28,88.53333 L131.84,88.53333 M50.24,91.73333 L65.92,91.73333 M73.92,91.73333 L133.76001,91.73333 M58.559998,94.93333 L58.88,94.93333 M74.24,94.93333 L131.84,94.93333 M75.520004,98.13333 L130.88,98.13333 M131.2,98.13333 L134.4,98.13333 M79.04,101.33333 L129.6,101.33333 M81.920006,104.533325 L127.36,104.533325 M85.439995,107.73334 L124.479996,107.73334 M124.799995,107.73334 L129.28,107.73334 M83.520004,110.933334 L87.36,110.933334 M88.96,110.933334 L89.28001,110.933334 M90.240005,110.933334 L120.31999,110.933334 M126.4,110.933334 L127.04001,110.933334 M92.48,114.13333 L92.799995,114.13333 M96.32,114.13333 L96.64,114.13333 M98.240005,114.13333 L98.88,114.13333 M99.52,114.13333 L111.04,114.13333 M111.36,114.13333 L111.68,114.13333 M112.32001,114.13333 L113.28,114.13333 M114.88,114.13333 L115.200005,114.13333 M100.8,117.333336 L110.08,117.333336 M100.48,120.53333 L110.71999,120.53333 M102.08,123.73333 L108.479996,123.73333 M108.8,123.73333 L109.119995,123.73333 M105.600006,126.93333 L106.88,126.93333 M103.36,25.066666 L104,25.066666 M104.96001,34.666668 L107.200005,34.666668 M101.12,37.866665 L111.04,37.866665 M100.48,41.066666 L110.71999,41.066666 M102.399994,44.266663 L108.8,44.266663 M83.2,47.466667 L84.16,47.466667 M92.159996,47.466667 L93.76,47.466667 M94.08,47.466667 L116.8,47.466667 M117.76,47.466667 L119.68001,47.466667 M83.2,50.666664 L87.36,50.666664 M87.67999,50.666664 L122.56,50.666664 M125.12,50.666664 L129.28,50.666664 M83.2,53.86666 L126.08,53.86666 M126.4,53.86666 L128.31999,53.86666 M77.76,57.06667 L80,57.06667 M80.31999,57.06667 L128.64,57.06667 M77.76,60.266666 L130.56,60.266666 M58.239998,63.466663 L58.559998,63.466663 M75.840004,63.466663 L131.52,63.466663 M50.24,66.66667 L52.800003,66.66667 M55.359997,66.66667 L56,66.66667 M56.32,66.66667 L56.96,66.66667 M57.280003,66.66667 L57.92,66.66667 M58.239998,66.66667 L59.840004,66.66667 M60.159996,66.66667 L61.440002,66.66667 M62.719997,66.66667 L63.68,66.66667 M73.92,66.66667 L74.24,66.66667 M74.56,66.66667 L132.16,66.66667 M49.920002,69.86667 L67.84,69.86667 M72.96,69.86667 L73.28,69.86667 M73.6,69.86667 L132.16,69.86667 M47.36,73.066666 L70.4,73.066666 M72.64,73.066666 L131.52,73.066666 M45.760002,76.26667 L71.68,76.26667 M72.32,76.26667 L130.88,76.26667 M17.92,79.46667 L18.880001,79.46667 M38.08,79.46667 L72,79.46667 M72.32,79.46667 L127.04001,79.46667 M40.32,82.666664 L44.16,82.666664 M45.760002,82.666664 L72,82.666664 M72.32,82.666664 L129.6,82.666664 M46.399998,85.86666 L71.04,85.86666 M72.32,85.86666 L131.2,85.86666 M48.64,89.066666 L68.48,89.066666 M73.28,89.066666 L132.16,89.066666 M50.24,92.26666 L52.800003,92.26666 M53.12,92.26666 L64,92.26666 M64.32,92.26666 L64.64,92.26666 M74.24,92.26666 L132.16,92.26666 M132.8,92.26666 L133.12,92.26666 M74.88,95.46666 L75.2,95.46666 M75.520004,95.46666 L131.84,95.46666 M76.16,98.66667 L76.799995,98.66667 M77.44,98.66667 L130.88,98.66667 M131.52,98.66667 L133.44,98.66667 M78.08,101.86667 L130.24,101.86667 M81.6,105.066666 L127.04001,105.066666 M83.84,108.26667 L123.84,108.26667 M124.799995,108.26667 L129.6,108.26667 M83.84,111.46667 L86.72,111.46667 M90.240005,111.46667 L90.56,111.46667 M91.520004,111.46667 L119.04,111.46667 M104.96001,114.666664 L105.92,114.666664 M108.16,114.666664 L108.479996,114.666664 M108.8,114.666664 L109.119995,114.666664 M100.8,117.86667 L110.08,117.86667 M110.4,117.86667 L110.71999,117.86667 M100.48,121.066666 L110.71999,121.066666 M102.72,124.26666 L103.04,124.26666 M103.36,124.26666 L107.840004,124.26666 M105.92,127.46666 L106.56,127.46666" fill="none" stroke="black" stroke-width="0.1"/>
</g>
<path d="m 15.815664,12.893319 c -1.445284,-3.0999497 -5.555449,-0.3575 -5.08537,2.32203 1.697826,2.92736 4.504013,-3.54417 4.40859,-2.58178 -1.548999,2.22986 0.741131,6.08701 3.012419,3.25791 2.532153,-2.82358 0.259001,-7.8326797 -3.488671,-7.9011197 -3.217272,0.056 -5.8863857,2.4603197 -7.9308737,4.7238797 -2.354585,2.46752 0.0048,5.887 2.757763,6.62143 3.2195457,1.10867 6.8759417,1.30834 9.9459317,-0.36585 2.270396,-1.12373 5.025949,-2.62031 5.680576,-5.20027 -2.108811,-3.66096 -6.038415,1.28356 -3.842036,3.67822 1.07278,0.89979 4.586982,-2.27037 3.201668,-2.73503 0.03094,3.24357 1.226854,6.37852 1.337023,9.60311 -0.672198,3.54892 -7.469251,0.32096 -4.637082,-2.5164 2.158436,-2.4193 5.610472,-2.84094 8.202925,-4.57369 0.993877,-1.40371 0.353413,-5.25046 3.182464,-3.48957 2.142923,1.43516 -2.250898,5.7532 1.723416,5.02339 1.661189,-0.71663 6.494946,-1.40457 4.601401,-3.95236 -4.205319,-0.68052 -1.190571,5.86505 1.665411,3.46881 1.929752,-0.9247 2.778055,-4.05119 1.423645,-5.35034 0.479155,1.8589 3.849911,7.52574 4.880369,3.32696 0.21201,-1.28088 0.40468,-3.80204 1.01246,-1.23041 0.5858,2.6865 3.83412,4.91909 4.56937,1.07383 0.65272,-1.00894 -0.2696,-4.02739 0.99929,-1.35746 1.10974,2.31613 6.32001,1.46113 6.147,-1.13059 -1.98394,-2.13868 -5.3717,1.45205 -3.78252,3.73454 2.57741,0.96208 6.69797,-0.21041 7.06275,-3.33983 0.41287,-2.63769 0.26643,-5.3430297 -0.11178,-7.9756197 0.67418,3.94149 1.24889,7.9380497 2.39963,11.7713397 2.10586,1.67977 5.7434,1.65022 7.74596,-0.23639 3.03149,-1.85431 -0.26637,-4.76925 -2.71777,-4.54025 -2.11577,0.0793 -5.36257,2.40772 -5.16868,3.85604 2.08262,-2.38818 5.55759,-1.22628 8.30726,-1.6832 3.182,-0.26596 6.46546,-0.57372 9.54494,-1.18158 0.24171,0.4199 -0.27752,0.54338 -0.43067,0.17453" fill="none" stroke="black" stroke-width="1" transform="translate(180,195) scale(0.3)"/>
</svg>