<svg height="100mm" style="background:white" viewBox="0 0 100 100" width="100mm" xmlns="http://www.w3.org/2000/svg" xmlns:inkscape="http://www.inkscape.org/namespaces/inkscape">
<g inkscape:groupmode="layer" inkscape:label="#000">
<path d="M11.339264,21.357056 L11.146273,20.255722 L10.979114,16.278864 L8.744154,11.337469 L8.672918,21.308325 L8.194877,20.126646 L11.121505,19.202679 L10.2442045,22.829094 L11.454617,18.907396 L10.217481,15.689196 L10.026714,16.030502 L9.24985,14.500648 L11.735104,17.981096 L8.427476,9.709902 L9.81753,10.897288 L11.094623,15.373712 L9.803705,16.280527 L11.277245,10.891022 L11.559408,16.444138 L10.012153,15.993047 L8.751856,19.922964 L10.699794,14.400219 L9.268635,13.911441 L8.649716,23.565414 L11.267309,8.899479 L11.480691,11.346133 M13.509345,12.98131 L13.825971,12.221512 L15.784953,9.728034 L15.426848,9.146304 L12.112538,13.029963 L13.10449,11.1863165 L12.191162,11.67175 L14.2306795,10.984489 L14.531647,15.897084 L13.329652,12.3658 L14.35644,12.583057 L13.624969,11.931943 L12.452333,8.904666 L13.363335,14.802757 L13.4458475,11.093526 L15.042798,14.085597 L12.169983,10.337197 L13.825277,10.719248 M17.581745,11.619963 L16.530373,14.939255 L19.363375,12.247412 L17.953865,11.6618185 L16.21613,9.081974 L18.351803,10.451278 L19.570427,15.140853 L18.993607,13.625325 L17.878912,12.066075 L16.506002,9.012003 L19.60536,12.291325 L18.26275,11.66556 L17.100739,15.958769 L18.063868,12.058032 L19.486961,10.107331 L16.353249,12.89861 L18.616251,10.767498 L18.083698,12.613523 M21.44675,11.560873 L26.88029,11.440145 L23.383303,9.515496 L25.475945,9.798649 L23.254147,9.627073 L21.439291,10.349337 L26.636738,10.598952 L25.223686,9.388157 L23.041557,10.479221 L27.137,8.082265 L23.325367,8.7637005 L26.532427,11.989582 L22.96624,11.137717 L24.658203,9.275606 L23.272932,8.667608 L22.643976,9.69197 L24.253534,8.602885 L23.993227,10.037323 M30.112322,14.10762 L31.49114,18.473421 L28.476126,9.428375 L30.54444,12.797677 L28.191956,9.405045 L28.896315,13.816223 L28.403944,18.78817 L31.508038,9.475887 L31.936651,15.855583 L31.886692,11.32704 L29.201769,18.105734 L29.896423,14.146743 L29.541576,15.012371 L30.955,13.403014 L30.550083,14.962517 L30.784855,15.994625 L28.686365,14.821175 L30.316053,14.052627 L28.940632,12.146351 L29.66466,9.171988 L30.593092,10.949411 L30.254421,17.662983 M33.961502,9.985712 L35.21612,8.783877 L34.17074,9.829263 L33.961456,9.877412 L35.49451,11.494511 L33.503426,10.156138 L35.983864,10.736291 L35.048466,9.670331 L33.46615,11.438414 L33.514336,8.455415 L34.55341,8.508897 L34.224514,10.224514 M39.368946,10.086089 L39.432667,10.346826 L40.212185,9.766479 L39.51517,9.111522 L36.61218,9.230434 L41.411514,9.294243 L40.37173,10.681219 L39.490845,10.254578 L43.688095,11.8440485 L41.737816,11.365303 L38.834606,9.084415 L41.927464,10.437836 L37.92414,8.96207 L41.81668,8.000629 L41.878643,8.851534 L40.265133,8.5389805 L39.758854,11.328846 L41.160706,9.841655 M44.463085,9.42959 L46.366104,9.01357 L45.63815,8.849184 L46.49509,11.574563 L46.86261,10.862611 L47.489418,9.531682 L46.578316,8.44178 L47.029926,8.970076 L46.489918,9.845955 L44.671116,8.671116 L46.580875,9.419126 L44.41321,9.411079 M53.433357,10.591399 L56.506336,11.769081 L56.663338,10.887779 L53.349583,10.678833 L58.706432,10.915018 L50.736687,8.5223 L52.92372,8.278273 L51.5868,10.167614 L54.055912,10.089445 L58.721294,9.672071 L53.194576,10.460304 L53.84296,10.943112 L48.438324,8.146108 L59.984917,8.005027 L55.89574,9.254055 L53.861485,10.831871 L55.19617,9.316383 L52.44007,10.613808 L50.4783,11.173902 L49.932995,9.209298 L52.563152,8.98581 L57.73363,11.690672 M62.100506,9.729197 L61.862225,10.137776 L61.95686,9.95686 L63.885773,10.699884 L62.590584,10.219189 L62.393967,9.876125 L60.49834,10.472167 L61.912292,9.721063 L60.451256,8.451256 L62.12338,9.667565 L61.513416,8.452492 L62.74173,9.258269 M65.20559,9.205589 L64.07509,9.285588 L67.526955,10.566713 L67.37081,9.568976 L66.350105,9.056677 L67.32704,11.32704 L65.0545,10.297295 L65.86235,10.137649 L65.70103,10.805552 L64.86131,11.138686 L66.10191,10.324125 L65.44078,8.221481 M69.78419,11.658856 L79.100006,8.299996 L77.54856,11.182855 L76.64192,11.864781 L75.510704,9.136625 L72.0953,11.088544 L74.1288,10.206039 L74.160614,9.832373 L74.13002,9.864301 L76.32998,9.838166 L71.10887,8.690833 L76.45256,10.476824 L72.54668,8.974182 L71.07473,10.97509 L68.563156,8.942977 L69.97092,10.27985 L70.70365,8.901217 L77.06352,11.387231 L73.72404,11.6573105 L74.09587,10.153371 L76.64459,8.9593935 L74.32695,8.036476 M81.75784,11.956056 L80.61303,14.773938 L82.81439,10.371209 L82.408424,12.371103 L81.7437,10.121254 L82.89363,10.862544 L81.785095,11.570189 L82.32791,10.5564575 L80.6507,12.736291 L80.19553,9.048279 L82.08391,12.615072 L83.91816,10.953287 L80.456985,11.719989 L82.85758,13.7151575 L80.09129,10.2657 L83.04475,13.708982 L81.92785,12.31764 L80.14935,14.355579 M88.95764,10.478819 L88.749916,11.374255 L90.210075,11.736331 L88.08318,9.908454 L87.67458,9.403663 L87.83478,10.910448 L84.721115,8.360557 L87.902016,10.107839 L84.36907,10.4953375 L91.41889,8.290553 L89.604126,10.3643875 L88.496,10.389682 L87.80721,11.062362 L85.749794,11.375614 L84.44071,9.1914835 L90.1722,9.703665 L90.353325,8.561345 L86.192314,10.903843 M23.4917,14.559417 L24.23525,12.703638 L26.309446,12.588171 L23.323555,12.760378 L26.464853,15.232427 L23.917706,13.935347 L22.978573,15.124144 L23.55454,13.183672 L20.462841,14.482545 L24.87463,13.880682 L27.869944,14.879084 L23.7078,15.610187 L26.077738,12.961131 L21.135563,12.567781 L21.63801,15.44395 L26.328558,15.829414 L21.999077,15.000462 L23.057405,13.785883 M34.455093,16.082586 L33.60189,13.081781 L33.55595,15.1119 L34.593136,17.186274 L32.80874,16.650055 L35.4104,17.281527 L34.52096,19.818756 L33.52839,18.076155 L32.32782,18.128426 L34.427624,14.1175 L32.75528,16.679226 L35.307816,13.384367 L33.8711,15.789149 L34.38226,16.069368 L34.674843,15.14103 L33.674675,16.650648 L35.522717,18.490831 L32.364326,14.513783 M41.827362,15.036793 L45.484562,12.628879 L36.11833,12.039443 L43.252827,12.69244 L47.865173,12.044942 L44.76208,13.808153 L44.48132,14.482414 L41.791924,14.217168 L42.143456,13.138473 L39.790405,12.999446 L44.906723,15.31623 L38.82977,14.220196 L36.474506,12.925741 L41.317245,12.907798 L44.539433,14.8464775 L37.012257,15.662581 L41.07791,12.524934 L39.766167,15.276646 L44.788666,15.968361 L37.516933,15.764017 L39.60838,12.31189 L42.65677,13.624654 M63.022945,15.755736 L50.414776,15.504372 L62.322033,15.128364 L57.30486,12.857165 L63.139668,12.0769415 L57.241,14.542851 L48.67401,14.261973 L55.510235,13.1439905 L60.276436,12.930891 L50.40209,13.000878 L52.744446,12.57592 L58.700768,13.054253 L49.11903,15.7202425 L58.79095,15.952927 L55.763187,14.831465 L56.172718,14.120856 L49.689575,12.422394 L55.134686,14.757868 L62.27691,15.997084 L56.616486,15.077486 L52.11887,12.765165 L52.981647,15.51013 L59.316845,12.3405285 L56.262566,13.078109 L52.78347,15.126354 L63.983295,13.714522 M67.855835,14.7944145 L66.202805,12.588046 L67.789696,13.61461 L67.16714,12.473734 L68.229225,13.747722 L71.536705,13.517516 L67.72566,15.511771 L69.41154,13.13709 L67.54669,13.897027 L68.78415,14.178125 L71.20698,15.603488 L68.30193,14.237213 L67.755775,14.033318 L68.01214,13.99258 L68.971245,13.514379 L64.29173,12.145866 L65.330414,15.334793 L67.61556,14.423099 M73.74299,14.299718 L75.702614,23.10784 L74.89104,16.032259 L73.99949,17.999914 L72.06901,22.264345 L72.80917,17.801714 L72.31835,16.388744 L75.538025,13.385926 L72.63678,14.535512 L73.11098,15.332925 L74.22471,21.235216 L74.98825,16.599905 L75.36492,17.146765 L72.87265,19.597164 L74.92384,13.248175 L75.50982,21.83704 L75.76549,19.691582 L72.12502,14.719221 L73.9717,18.017689 L72.49806,22.505808 L74.363304,18.635702 L73.22452,21.988707 M77.301384,19.075493 L78.24293,15.514142 L78.976074,17.952147 L77.30785,16.377695 L79.02294,17.673311 L77.0717,14.481504 L79.45876,15.203974 L78.13188,15.419418 L77.810394,14.61017 L78.248375,16.045073 L77.57918,16.841644 L76.496895,15.727231 L76.747086,14.861567 L78.18495,15.764584 L79.299805,14.34555 L77.2784,14.556791 L77.60615,15.642136 L78.29318,18.149103 M86.479324,15.524413 L85.64299,13.642992 L85.20553,13.205529 L85.96154,14.103623 L86.16199,13.949067 L87.369446,14.508256 L85.67768,14.322321 L85.41675,15.571512 L86.84328,13.15672 L84.28858,13.364825 L86.100746,14.3204 L86.57499,13.819205 M88.70789,14.406278 L91.66112,12.338881 L89.85915,13.947725 L90.17974,13.820261 L91.99628,15.996279 L89.46359,12.294026 L89.686775,13.686774 L88.175026,13.322679 L91.85865,13.415584 L89.80598,14.522785 L89.77903,14.595377 L89.37881,12.02439 M14.039005,18.014477 L13.587167,17.587166 L15.062232,19.062233 L14.345427,19.098581 L12.808052,19.191948 L14.600131,16.383007 L14.214125,18.680992 L13.599937,19.077929 L13.302931,18.21918 L12.065356,18.60831 L13.722061,17.896847 L14.325131,17.674868 M22.26529,19.779707 L20.001408,17.992243 L21.123276,18.561638 L19.69891,17.448235 L20.546516,19.001522 L22.04854,18.46534 L16.709206,17.252474 L20.90086,17.44928 L21.367695,16.494768 L21.401966,17.808743 L19.965092,18.192366 L19.868574,18.144644 L22.158468,16.920765 L17.840462,19.07977 L18.504421,18.20403 L19.914736,18.052124 L19.323103,17.4682 L18.93329,17.466644 M26.816357,16.406197 L25.526382,19.914053 L24.67811,17.356222 L27.807056,16.385887 L26.50234,21.00468 L25.82103,18.688112 L24.189743,20.987833 L26.491936,19.373842 L24.910795,18.218298 L26.836226,20.759817 L27.996906,21.814444 L27.61767,20.293558 L24.234106,23.53179 L25.902515,20.429155 L24.619816,20.753149 L26.479242,23.512947 L26.67914,21.110928 L24.414883,22.017607 M36.48268,19.517319 L39.29526,16.704739 L37.74696,17.195246 L38.64123,18.641233 L38.73684,16.014654 L39.37757,17.56685 L38.5803,16.43644 L38.957943,18.957943 L38.328316,18.121851 L36.90954,17.595285 L37.808743,17.391733 L39.99555,17.37254 M42.830093,18.30808 L43.48461,17.533194 L41.534863,18.46514 L42.54272,19.726048 L42.495182,19.574858 L41.79174,17.922707 L42.05855,18.05855 L43.59542,19.595423 L42.273544,17.91399 L42.39105,16.946358 L42.584217,16.425886 L41.19235,18.807652 M56.044724,17.195433 L53.44546,17.1129 L53.679893,17.774055 L50.538147,19.362186 L57.561504,18.692423 L51.30643,16.780293 L54.642685,19.028103 L50.31467,17.283504 L56.388775,19.686102 L54.69506,17.274572 L56.29731,16.687077 L54.07875,17.527052 L48.86073,19.71309 L53.573826,18.444794 L50.031353,16.677118 L53.237076,18.436016 L59.8065,19.935501 L53.814766,19.112438 L56.572266,17.821337 L58.5169,16.494368 L50.23943,18.2612 L56.145195,18.971394 M66.72137,19.153976 L71.775055,17.598879 L66.19615,16.822014 L66.35528,18.568336 L60.70936,16.971401 L69.98443,19.804237 L66.160736,17.034676 L67.851364,19.306774 L65.7685,18.24161 L62.611855,19.129381 L61.14187,16.380623 L68.57976,17.14008 L65.50165,18.520126 L70.91691,18.955938 L65.6647,17.76333 L69.09022,19.030073 L64.587036,18.55598 L63.398853,18.18067 L64.59642,17.364426 L62.72587,19.87118 L68.00121,16.856298 L69.9339,16.45207 M85.475746,18.335226 L82.68256,18.179728 L83.30342,18.766628 L81.22848,16.614237 L83.81197,18.206938 L84.76265,19.397598 L80.21489,17.140186 L84.2825,16.443281 L86.467476,19.23374 L83.7032,19.635529 L80.52888,19.735563 L85.50068,19.178995 L83.90092,18.060574 L85.76349,17.759422 L84.249725,18.196194 L83.82049,18.109743 L84.399666,18.732414 L86.5906,16.704702 M89.77072,21.961823 L90.955536,24.428394 L90.299355,21.575895 L90.76424,21.522264 L88.94086,20.146742 L88.797066,18.942875 L89.79284,19.017387 L89.24993,24.250202 L91.752045,18.13083 L90.3498,27.036161 L89.39092,25.132807 L91.458374,24.55182 L90.05047,21.928503 L88.849556,18.548668 L90.92407,19.227787 L88.45284,25.4167 L91.94598,23.864513 L91.393875,22.232096 L91.8234,27.470215 L90.015755,21.990152 L90.62914,18.763975 L89.6429,21.657848 M18.031082,20.984459 L19.945463,21.461754 L17.582308,21.032692 L12.5968,23.701601 L16.716425,23.312887 L14.809467,23.310255 L12.831779,21.280317 L16.231876,20.72223 L15.489919,22.561377 L18.58503,23.292515 L14.523028,20.839628 L13.799316,20.899658 L19.321953,22.754604 L15.742513,23.4189 L14.280891,22.234524 L12.900758,23.894653 L16.457146,22.837744 L16.863962,22.678764 M22.657286,21.342714 L22.467974,23.488323 L21.326315,23.81518 L22.63465,21.800447 L22.322506,22.119694 L22.008593,22.008593 L22.230556,22.230556 L20.193306,23.806694 L21.839592,21.489843 L21.483324,22.162458 L20.953272,21.611517 L21.870283,22.349508 M29.14003,20.570015 L29.590296,22.328735 L32.9247,22.726486 L32.363842,22.666758 L31.748493,21.5391 L29.688587,23.155706 L35.828075,20.085962 L30.534914,23.612417 L31.782413,21.829054 L32.30103,20.34117 L32.25651,21.843187 L33.983727,22.991863 L33.28003,21.825377 L31.29958,22.428186 L32.05691,21.686384 L32.70013,21.229464 L28.835058,21.281063 L33.31579,22.298891 M40.008663,21.990467 L39.527424,21.133976 L43.693974,22.839111 L39.860676,22.08517 L39.864605,21.893627 L40.305347,20.317379 L40.950153,22.475077 L40.094288,22.172789 L38.70111,21.350555 L37.389378,23.305311 L39.967026,21.974094 L43.378334,20.310833 L39.877995,22.67231 L40.594456,21.345762 L39.780415,22.029957 L39.8692,21.970287 L40.140667,21.98081 L39.02579,22.59556 M46.020565,20.198023 L49.871475,21.909283 L46.613567,23.12881 L53.298767,20.701986 L50.41017,21.571909 L51.995903,22.90379 L47.544144,21.522535 L48.179462,23.900074 L52.123295,20.786526 L50.84408,23.350283 L50.31398,20.114367 L49.873714,22.75841 L46.813198,23.821272 L47.853962,22.844433 L52.587566,22.50307 L54.334316,23.444773 L46.750484,20.916828 L54.565342,20.47822 L52.52002,21.824966 L47.882164,22.147099 L51.281128,22.904276 L49.59132,21.346233 M57.52202,23.287872 L58.027096,21.926996 L58.796528,21.203472 L58.71367,21.7756 L58.90075,22.334305 L57.00477,22.995232 L59.717674,21.459911 L57.447723,21.447725 L56.63179,20.63179 L58.455788,23.449566 L58.462734,23.471659 L56.99808,21.628147 M60.02735,23.972649 L62.150303,22.478016 L63.704353,22.632553 L60.243656,21.34815 L62.517185,20.60649 L62.04378,21.986235 L62.58084,20.434978 L62.295795,22.940739 L61.3137,21.313704 L61.967567,22.010199 L63.634624,23.634623 L61.78693,22.21307 M68.63228,22.31614 L68.49462,22.388594 L67.70319,23.63557 L65.557106,23.221449 L68.42419,22.777338 L65.731255,20.865627 L64.976105,22.412525 L71.970085,21.458395 L65.77782,23.358482 L68.787476,21.518593 L66.38397,20.730377 L67.27015,20.662502 L68.11733,21.353437 L70.49595,22.566973 L66.760376,21.71841 L67.994865,22.00565 L70.01577,20.992117 L68.65603,21.278 M84.59147,21.820004 L85.57878,23.192928 L84.31164,21.229454 L82.75634,21.567749 L86.38284,22.852106 L77.20049,23.599836 L81.18739,20.700073 L82.66147,23.058147 L84.19074,23.54632 L78.69267,23.301382 L82.1224,21.264938 L83.2127,20.73432 L84.14315,22.970465 L81.870056,22.780392 L81.11976,22.503063 L78.38282,20.36206 L78.43737,20.812456 L79.8691,22.148006 L79.734375,20.400824 L83.919716,21.244623 L78.04086,21.230268 L81.59876,22.41877 M11.784238,25.604605 L12.91278,25.54361 L12.137632,25.981224 L8.120004,27.939999 L10.238467,24.616064 L12.631074,27.156477 L12.324414,24.212297 L13.827874,27.436056 L10.039472,25.554653 L8.748699,27.987612 L10.678289,25.339146 L12.88345,25.459923 L12.918772,24.988834 L15.0658455,26.696428 L11.75665,26.033197 L10.869141,27.244581 L12.2135,24.823498 L14.345332,27.172667 M17.62527,26.323965 L20.806314,25.112602 L21.008694,27.848486 L19.89006,25.913628 L18.787113,26.606443 L19.518324,25.621576 L19.89554,26.575632 L18.793636,26.737484 L21.531086,25.064005 L22.440845,27.220423 L20.329659,26.074884 L22.890097,24.554953 L20.1788,25.803219 L17.752853,25.489546 L19.813107,27.029888 L18.494171,25.247086 L22.936615,25.599382 L19.274836,24.671097 M26.195354,26.207571 L33.01059,25.494387 L28.170103,27.031576 L38.820496,24.294876 L27.02411,24.756027 L29.294224,24.81641 L38.348328,25.772987 L31.676716,27.135082 L30.035154,26.688044 L36.01211,24.919344 L31.660986,26.296919 L32.524513,26.36702 L31.862411,25.759525 L32.361248,26.252779 L32.968014,27.691887 L27.76078,27.059805 L32.031105,25.972755 L27.107609,24.443419 L31.896444,26.363596 L34.43929,25.145817 L30.765776,26.617502 L35.39942,27.487011 L37.83765,27.857328 L39.20811,27.802027 L37.000496,26.892494 L25.766098,24.887365 M45.401684,26.18813 L45.675724,25.675722 L46.55214,27.755999 L46.359196,25.640804 L45.413113,25.782183 L46.05399,25.854532 L45.873398,26.126604 L47.722916,26.639442 L45.48007,27.4009 L44.16598,26.57667 L46.46475,27.47806 L44.23177,24.23177 M53.34325,26.671625 L51.178165,26.50241 L51.89679,26.568756 L48.138256,27.930872 L51.214615,26.107143 L54.076508,27.631393 L49.357365,24.678682 L52.283207,26.518991 L55.839863,26.872252 L51.569794,26.473469 L51.568184,25.90191 L52.23955,24.679947 L54.256187,24.62073 L51.472164,25.585308 L54.62531,25.641851 L50.57916,27.563723 L54.650196,24.674902 L51.84576,25.717346 M61.90823,26.551123 L67.87582,27.958605 L60.796608,24.07493 L61.571274,25.314165 L60.629173,25.032412 L67.31628,25.630745 L57.863197,24.126764 L63.49078,25.148012 L62.27277,25.715313 L65.84277,24.487928 L62.256626,24.458813 L65.16125,26.614605 L65.14451,27.423903 L59.10778,27.138044 L57.53014,24.510046 L62.534092,26.376986 L59.40593,27.482523 L59.21323,26.928923 L65.28009,24.906637 L57.25804,26.329363 L62.291836,25.695415 L56.360954,24.903666 M71.07216,26.567215 L71.16239,25.341942 L75.267914,24.002232 L73.98397,25.008015 L73.07191,26.842138 L72.22303,25.75454 L72.24315,25.96683 L68.245285,27.877357 L72.002174,25.988008 L69.35708,26.360552 L73.44236,26.32764 L72.24346,26.446156 L70.913345,25.75316 L71.88508,25.789402 L71.23931,26.837181 L75.12855,27.564272 L70.885994,25.442999 L71.924324,26.417025 M84.40497,26.742132 L83.41355,26.645424 L86.82081,26.640766 L81.45872,24.729359 L83.46644,26.58722 L83.348076,24.805313 L83.50409,25.610392 L81.296684,26.368792 L82.94795,26.526024 L82.97092,25.19151 L84.82852,25.4935 L84.30597,24.313963 L84.72856,25.900608 L83.70789,27.609648 L83.737335,26.160574 L87.34971,27.674856 L80.30651,25.161 L86.965454,24.517275 M11.842039,35.68408 L10.234805,33.721172 L11.7432995,29.781054 L10.028407,31.874945 L11.098908,32.19942 L9.062483,30.124966 L10.181918,32.165295 L9.468429,33.06314 L8.850194,30.119167 L9.476779,34.303345 L11.268167,34.074448 L9.078326,31.162542 L10.039609,32.007187 L9.554041,28.731022 L11.42008,31.22508 L11.209166,29.581669 L9.606437,32.500942 L10.254276,31.861244 M13.542021,31.23398 L13.80561,29.38177 L15.3277025,30.492764 L15.5941305,30.591644 L15.972929,31.972929 L12.499163,31.500837 L13.838423,30.435354 L13.584435,30.415564 L14.84996,29.732746 L13.078484,30.289753 L14.139984,30.4452 L13.383693,29.383692 M18.308987,30.982687 L18.05155,29.861103 L17.72904,29.72904 L16.637579,31.362421 L17.720615,30.752777 L19.506752,31.506752 L17.905674,30.02966 L17.731134,29.900213 L17.39231,29.774462 L18.528618,31.68119 L19.006664,29.683475 L18.646347,29.353653 M20.379082,43.122784 L20.298557,46.507217 L22.203205,38.105408 L20.793383,38.48392 L23.715324,29.423374 L23.887133,47.435658 L23.286543,30.33815 L22.987362,35.787685 L23.918602,42.52466 L20.61212,31.060596 L21.15384,39.11765 L22.4629,37.81435 L20.427006,32.843575 L21.345312,37.05822 L23.096582,36.551586 L23.108816,41.634808 L23.378164,32.376797 L20.361126,47.76012 L22.145515,47.07079 L23.68135,45.058117 L20.065174,29.877825 L22.834549,38.432907 L21.874378,30.16929 L20.55162,34.584274 L20.207563,45.313522 L22.356094,38.51225 L23.114035,34.47918 L20.846848,40.583794 M24.952126,32.57181 L24.39549,28.790983 L27.766056,35.532112 L26.156023,33.14369 L24.704779,29.881296 L27.911142,33.736515 L25.25384,31.864594 L24.308796,31.693096 L25.35257,34.850147 L26.245184,31.687918 L27.48034,34.421513 L25.821009,31.837364 L25.534817,32.592106 L27.416481,29.167036 L26.450449,30.017014 L25.030382,33.939236 L25.873487,32.069035 L25.494106,28.291687 M29.856237,29.856237 L30.335293,31.066349 L30.031267,30.099443 L30.4293,30.4293 L29.970587,30.079252 L28.987135,29.624084 L30.751228,29.763792 L30.621153,29.378847 L30.59316,29.813492 L29.79753,30.545536 L30.330961,29.669039 L28.877085,29.58324 M34.54595,31.736326 L32.14444,31.85556 L34.38107,30.38107 L33.51817,31.298244 L33.552166,31.206648 L35.894505,29.40431 L32.78655,29.54964 L35.016403,29.680412 L32.05358,28.053581 L33.578114,28.65825 L32.48365,29.437223 L35.56497,28.435034 M39.6313,38.89391 L38.687122,35.202305 L38.66471,30.581028 L38.575417,32.729267 L36.49911,29.497332 L39.31253,35.257587 L37.85021,33.85648 L38.55778,33.209766 L38.512127,33.67986 L37.35981,37.292835 L39.042404,36.64916 L37.238308,34.476147 L37.035107,35.367004 L36.14962,29.297451 L36.4771,37.363125 L37.758846,30.52802 L38.363976,39.24029 L38.437622,34.07287 L37.778408,33.612267 L39.972023,28.083927 L39.826927,34.304207 L36.35377,38.938686 M46.959946,30.356276 L44.612206,28.612206 L45.74811,29.1989 L44.551533,31.448467 L46.495033,29.504965 L46.49757,31.582455 L44.23243,30.555777 L44.305164,29.37098 L45.530376,29.530376 L46.58512,28.423452 L44.049686,30.613237 L45.933403,30.179436 M51.993946,29.988909 L52.429886,29.785057 L54.47652,31.945662 L49.37144,30.358593 L49.561268,28.084028 L50.3155,31.029781 L53.78713,30.405958 L49.600876,28.800438 L55.723835,29.49199 L52.147705,29.186071 L48.440125,31.779938 L52.16551,29.817846 L51.31083,28.73706 L50.35872,29.627172 L52.834064,29.490112 L52.931473,30.465736 L51.908363,30.504972 L50.250908,31.924982 M59.870804,29.76324 L58.950443,29.761585 L60.263344,28.54882 L62.752728,29.624468 L57.3223,28.66115 L61.22294,30.960794 L62.56566,28.71717 L60.643852,29.606394 L63.082794,30.700277 L57.270382,30.37238 L58.566284,28.873611 L59.086575,28.3261 L56.82254,31.94247 L56.118626,31.940687 L61.858974,30.929487 L59.75703,30.267403 L60.22737,28.747068 L59.32331,30.744738 M66.057335,30.057333 L67.4004,30.519745 L67.02995,31.029951 L66.0805,29.783108 L65.84851,29.51822 L65.95143,29.981974 L66.3198,31.017076 L66.654755,29.345247 L65.56549,30.43451 L64.95302,30.329203 L67.93894,29.390339 L66.29624,29.201803 M71.112915,29.650066 L70.55495,31.764925 L70.14836,29.851639 L70.73804,28.011429 L69.52552,29.525518 L70.94599,30.351095 L69.86579,29.573166 L69.59735,31.084888 L70.17968,29.943502 L68.62538,29.489824 L70.421135,30.421133 L71.117615,28.882387 M74.11626,30.116257 L73.33885,29.754622 L75.78928,29.437395 L73.95844,30.111965 L73.29323,31.904325 L72.626526,30.431862 L74.33137,31.05387 L73.2939,29.293898 L74.34905,29.65095 L72.154976,29.315239 L73.76356,29.248032 L72.18295,31.817043 M78.14493,29.954432 L78.55024,30.55024 L77.79446,29.346304 L77.327126,30.672874 L78.384155,28.964941 L78.72408,28.049034 L76.2302,30.556477 L78.41891,30.155474 L79.01558,30.376923 L78.428986,29.571016 L78.188614,30.188614 L77.48537,28.363283 M81.73585,30.711739 L83.92331,28.076693 L80.32635,31.67365 L83.28024,30.47515 L80.98514,29.623343 L81.403534,31.607128 L81.728806,29.137514 L81.51615,28.461197 L81.88612,29.886124 L81.64736,29.64736 L83.62148,29.490156 L81.26894,30.229866 M84.664566,36.949135 L84.7168,32.77051 L84.92185,30.765564 L85.13652,33.172665 L86.23998,37.455105 L84.42318,31.240929 L87.390335,32.030247 L86.13735,34.24033 L84.83215,35.654537 L84.27098,33.712097 L84.785194,37.64442 L87.875534,38.766483 L87.59719,30.472815 L87.2728,30.181608 L84.53515,30.277225 L84.771866,33.7955 L84.61435,34.86619 L86.97684,28.975595 L87.30003,37.90009 L86.35001,33.7812 L85.78586,30.916876 L84.86539,39.83593 M91.41337,33.28423 L88.0376,28.075197 L90.58001,29.446663 L90.28176,34.065395 L89.93362,31.891407 L90.43649,31.444416 L88.766426,29.982141 L90.72046,31.606855 L90.25921,32.518414 L91.423775,29.152443 L89.38516,31.44134 L91.067245,32.193672 L89.42479,34.532223 L89.32467,33.35067 L89.975624,32.031025 L89.0683,31.830923 L89.71228,29.890932 L88.22635,32.967857 M14.099428,34.036903 L13.94982,33.84041 L14.155492,33.84451 L14.336105,33.894318 L14.467163,35.485744 L14.536436,34.536434 L14.405904,32.90633 L14.779275,33.220726 L14.607963,32.361904 L12.906782,32.90678 L12.068619,34.607285 L14.543384,34.20167 M18.31895,42.59204 L19.927237,41.372215 L18.062927,37.910847 L18.428568,37.39283 L16.830828,38.73087 L16.488272,42.535187 L16.82949,34.488472 L17.815224,37.82296 L17.20713,42.07816 L16.911737,35.234295 L17.61218,32.416428 L19.014727,34.955822 L18.85589,38.142517 L16.641462,38.849243 L19.430098,34.841812 L17.906677,37.910583 L16.27353,41.81269 L19.113932,32.270447 L17.933922,37.884377 L19.863743,42.73651 L19.8299,38.3047 L19.35225,42.056747 M31.679184,35.767876 L29.540733,33.44136 L28.99487,34.409966 L32.23153,34.424286 L31.215143,34.479805 L33.869774,33.065113 L34.226692,35.113346 L33.457394,32.39605 L28.190445,32.095222 L30.168772,32.56131 L32.91442,34.71841 L32.672157,33.589092 L32.302338,32.333954 L31.56885,34.215576 L33.971497,33.731045 L31.010235,32.186203 L35.219738,34.731384 L30.918056,35.190746 M40.662502,33.5036 L41.588707,32.691944 L40.542072,34.458416 L41.834316,33.834316 L41.900238,33.682716 L42.777878,34.777878 L40.36508,33.393215 L43.09792,33.65478 L41.647728,34.352272 L41.344795,35.765385 L41.719894,34.280106 L41.68639,34.84499 M51.401527,33.19902 L47.456383,32.204605 L50.109795,33.34061 L51.700603,35.20036 L45.74919,32.583065 L46.64437,33.347603 L47.298325,34.187653 L54.148407,32.36767 L49.63195,34.210342 L44.543427,35.81886 L48.745605,35.309196 L48.692642,33.408 L50.142986,33.141277 L53.915016,32.694996 L52.071598,33.856113 L51.351166,32.589806 L52.877613,35.303047 L52.57149,34.499947 L49.10033,32.5608 L45.755024,35.670334 L54.72607,35.575356 L50.73136,35.16996 M58.803993,35.25758 L64.1641,32.763206 L61.593502,33.713078 L63.87743,33.26126 L62.12272,34.196312 L56.5453,32.939503 L56.92272,32.307575 L61.729614,34.282196 L60.52904,35.53522 L65.04329,35.37807 L62.009857,33.9408 L58.63891,35.120365 L66.15564,34.807934 L58.97981,32.632393 L60.359795,32.84227 L65.38647,32.871178 L60.154785,35.054546 L64.44261,34.814205 L66.298004,33.701473 L61.846725,34.920494 L62.033684,34.053883 L59.352055,34.183918 M73.6274,34.8137 L72.86107,35.57796 L73.084465,33.337036 L72.56796,33.374924 L70.43448,34.21357 L71.24048,34.37976 L70.52684,33.665363 L72.78431,34.17816 L72.27892,34.21913 L71.7957,35.125816 L71.34084,34.40296 L72.360405,33.60335 L72.58872,33.70564 L71.9365,34.349922 L75.8025,33.48126 L71.165985,33.582993 L70.736725,33.00752 L71.07245,32.300205 M77.81862,34.488716 L78.057686,33.94231 L76.168846,34.575768 L79.823204,35.823204 L78.01657,34.00615 L77.518036,32.467186 L76.42396,32.42396 L78.51292,33.487083 L77.86478,33.569946 L77.357895,33.76169 L77.014,34.310028 L77.80545,34.524204 M82.33424,35.57456 L81.19551,35.854008 L81.92082,36.100784 L82.76041,32.65252 L80.44362,39.112762 L81.725624,33.988766 L82.31626,38.318275 L83.840515,39.681026 L81.93374,36.291706 L81.886665,36.061848 L82.957886,35.477295 L83.34423,37.221405 L83.06522,33.86955 L83.089424,37.78206 L81.712715,35.738968 L82.67448,36.1224 L81.66765,35.45635 L80.34036,32.680733 M11.389652,42.23139 L9.138324,42.538647 L11.434322,45.64518 L8.797384,45.60785 L8.811838,39.920994 L11.116529,45.34959 L10.746872,40.941875 L8.661971,40.717983 L11.058475,38.824577 L10.146803,44.113564 L10.991696,36.89917 L10.581863,40.715027 L11.537202,44.689747 L10.708709,41.556976 L9.354284,45.321266 L8.941564,39.310097 L9.088533,39.2656 L9.468658,43.1734 L11.921852,43.841404 L9.709802,37.821915 L8.759547,43.757404 L10.060988,42.010155 M25.394056,40.93974 L26.267761,42.256554 L26.78271,41.510715 L27.461763,42.2434 L25.408018,45.044884 L24.614412,38.478676 L26.435293,41.03871 L24.670904,43.882988 L27.110739,38.667786 L25.149143,41.18476 L26.97909,36.96401 L26.705667,41.558876 L24.087374,46.22379 L27.795118,47.385353 L27.000544,44.542778 L27.013245,43.77294 L24.740625,41.7903 L26.123503,41.825027 L25.822357,39.44241 L24.329336,47.011993 L24.66316,37.98948 L26.28369,46.084362 M29.674643,38.876644 L30.673443,37.326557 L28.76956,39.230442 L29.03912,38.302128 L30.559113,39.778175 L29.67731,36.973732 L28.534372,36.53437 L30.0771,38.028614 L31.163883,38.431965 L29.81744,38.49189 L31.918072,37.3969 L30.996374,38.996376 M33.14219,39.844334 L34.289448,42.121723 L35.35693,42.219643 L34.493134,40.986267 L35.939484,37.53134 L35.907387,36.18523 L33.795925,38.504086 L34.078857,39.956966 L33.594486,40.81103 L33.655445,39.686928 L32.73948,37.478962 L32.638115,37.77225 L32.008068,42.535416 L34.07625,39.664345 L33.836582,40.719402 L35.755077,40.318493 L34.536858,39.707043 L33.385925,39.442036 M45.09381,38.546906 L41.05125,39.474377 L44.06998,37.614376 L41.57356,37.44882 L45.810543,36.893166 L40.65301,36.326508 L43.45456,38.600292 L47.05023,36.474884 L47.84068,37.476048 L40.429935,38.487034 L43.450024,36.99214 L44.20932,36.84654 L42.178482,39.113544 L43.550156,37.175636 L42.204258,36.589188 L45.651405,38.37513 L45.80712,39.419754 L44.7217,37.205727 M50.144035,41.79594 L49.521683,43.056305 L51.81476,45.175404 L51.615448,38.43249 L49.13482,39.40446 L48.48508,39.349243 L49.78396,38.8896 L50.916973,39.249077 L48.46191,41.74389 L48.61137,41.768776 L50.411327,42.394108 L49.042587,44.872234 L49.311924,45.539143 L51.333042,45.99913 L50.237873,45.424713 L48.945095,42.65944 L50.653236,41.591652 L48.073406,37.10376 L51.355988,45.446095 L50.890102,37.421715 L50.78987,42.756805 L50.12694,41.820156 M53.439198,37.791862 L53.60691,39.059143 L52.537186,38.459953 L54.137604,37.862396 L54.185726,37.499577 L52.519043,39.480957 L53.53865,37.828773 L55.574635,37.504887 L54.154724,38.492073 L53.722828,37.722828 L53.806763,37.38544 L54.265785,38.265785 M57.252186,38.77674 L58.551613,38.896774 L59.04998,39.42704 L57.300797,43.07807 L56.47403,43.051945 L58.2307,41.69109 L58.43561,38.082336 L58.224003,40.36642 L57.799984,39.81826 L57.08446,40.499596 L59.003403,38.722824 L57.91775,39.397095 L57.020695,39.822285 L57.717922,40.35904 L58.5521,40.501656 L59.576168,43.15234 L57.428688,38.857376 L57.02753,39.823524 M61.40377,38.80754 L60.385983,39.707104 L62.396683,39.206635 L62.47799,40.955982 L62.451866,39.424843 L63.90043,43.10869 L62.917744,40.83389 L61.96586,40.150295 L63.56053,38.013687 L62.980564,39.46492 L62.629997,40.572433 L62.35691,42.616226 L61.70293,37.822403 L61.111095,38.54594 L60.018547,43.962902 L63.21741,39.335674 L62.503628,37.7829 L62.39463,40.071613 M69.26322,38.231667 L71.37895,39.37895 L69.45203,38.54797 L68.87042,39.12958 L70.507645,37.84038 L71.857315,38.689323 L69.32086,39.829872 L70.297325,38.94559 L70.43831,36.819016 L71.525856,38.566307 L70.69407,38.69407 L70.47202,39.50121 M75.94446,37.89822 L75.82786,38.948616 L76.071625,37.921177 L76.92078,37.437103 L79.014946,39.507473 L76.12793,38.02906 L74.50878,38.74561 L79.88963,37.46937 L75.68623,38.042805 L73.25543,36.627716 L75.35465,38.710247 L75.97633,37.981403 L75.50614,37.09498 L72.95924,39.8589 L73.55934,36.082516 L78.76622,36.61689 L74.52234,37.66434 L76.09459,37.47874 M88.74541,44.717815 L88.465385,38.302498 L90.045654,43.93476 L88.05132,51.794712 L89.86822,43.962467 L90.7711,39.67962 L91.95322,39.534798 L91.870705,36.51719 L89.64853,43.29751 L91.93649,46.211037 L90.07059,43.89912 L91.10272,48.410877 L88.51805,47.38784 L89.176445,48.614254 L91.19435,48.434223 L89.010765,41.175037 L90.24542,50.86314 L91.58998,47.17796 L89.77094,37.594593 L88.3192,37.276787 L89.610344,43.889023 L91.56767,48.476807 L90.454735,44.519207 L91.85527,42.938507 L88.227554,49.570858 L91.80565,38.32478 M14.192604,45.411827 L14.879241,45.438248 L15.56026,40.87948 L15.979131,44.359154 L13.7398205,44.33117 L13.136687,43.843334 L15.645893,41.905037 L14.735699,44.668476 L13.9520035,44.02619 L13.53943,43.246605 L13.222403,47.423176 L14.886953,40.09541 L13.623779,41.24222 L13.251516,45.496967 L15.086126,46.172253 L14.776644,44.70568 L12.345918,40.691837 L12.367626,44.890766 M29.075478,43.832226 L29.681688,43.363377 L31.563868,47.127735 L29.347853,46.870914 L28.682543,44.718918 L28.329521,47.340958 L28.43273,45.99489 L30.345585,46.533215 L31.121746,42.572193 L28.5823,42.711838 L31.127352,44.204582 L30.006243,44.010212 L28.045004,45.066814 L30.620096,41.27018 L29.254414,43.32254 L31.987072,47.25042 L30.901102,42.197796 L29.642883,41.38225 M38.00037,42.00037 L39.579567,40.420433 L37.095966,42.904034 L38.556103,40.501637 L38.21398,42.680542 L38.095623,41.74235 L38.069412,42.02576 L37.934887,42.020473 L36.855785,42.359776 L37.98143,41.98143 L37.54658,40.557964 L39.406826,42.52213 M43.856174,41.416363 L40.362053,40.362053 L41.24105,41.718323 L41.66,42.106907 L42.52299,43.6633 L41.882656,42.316174 L41.205505,41.205505 L41.577084,43.13951 L41.639,42.361 L42.77858,41.22142 L41.95506,41.857067 L41.392204,41.77442 M45.797997,41.35756 L44.860653,41.577145 L46.469254,41.85245 L47.267303,41.60152 L44.89955,40.89955 L46.49148,43.56309 L46.59907,41.40093 L45.786842,41.786842 L45.89122,42.293095 L46.190887,42.070847 L46.021187,41.94291 L46.81547,41.18453 M54.922054,45.84411 L54.40462,43.48498 L52.276653,41.180977 L55.363262,41.273476 L53.72942,43.754143 L53.150326,43.84581 L53.414917,45.17017 L53.19652,45.0227 L53.522873,40.50255 L54.89936,40.040794 L54.151756,45.1124 L53.496014,43.542065 L55.033905,44.187622 L52.0828,40.1656 L54.068993,43.962353 L53.383995,44.336147 L53.362053,46.808407 L55.72026,46.813976 M68.603905,41.335365 L68.31664,40.25513 L68.205444,41.773895 L66.92367,40.027557 L67.91054,42.49297 L69.63557,42.371532 L68.41089,41.943947 L68.09532,41.941727 L65.13759,40.568794 L67.518524,41.62173 L69.207565,41.261784 L68.50882,42.399754 L66.36198,41.62791 L66.51064,42.74468 L67.93081,41.8732 L70.636894,43.318447 L64.56817,42.468174 L70.450516,40.774742 M75.00895,41.504475 L79.563446,43.781723 L79.30221,40.348896 L74.54205,42.198895 L75.531425,41.141304 L76.13542,42.24817 L79.315704,42.753185 L79.39486,41.53687 L77.47427,41.098732 L76.22847,40.740986 L72.82138,41.277954 L77.03964,42.816784 L76.030235,41.83339 L76.10453,41.88496 L74.95543,42.522285 L76.66085,41.27269 L74.64545,42.82808 L73.833694,40.298058 M80.80994,42.435192 L83.65431,43.904934 L86.39838,43.19919 L80.25534,43.87233 L84.723976,41.203224 L86.99059,40.17177 L83.1384,42.526722 L84.2445,40.652664 L85.02708,42.80691 L83.34684,41.85163 L81.813225,40.281975 L81.5343,40.76715 L86.6181,42.59472 L87.09845,41.577305 L82.247284,43.928974 L87.79028,40.10486 L83.74363,41.53018 L84.78195,43.432964 M18.262993,46.83641 L17.929855,45.929855 L17.890966,46.29378 L18.259163,45.740837 L18.732159,44.027267 L19.16749,45.632908 L17.034136,45.64153 L17.950693,46.015503 L18.621958,45.37804 L18.166533,46.061806 L17.890144,45.65062 L18.873507,46.87351 M33.791862,46.560806 L32.518867,47.481133 L34.118504,45.962738 L33.32258,45.32258 L33.006607,45.631313 L34.38154,45.61846 L33.40539,44.10893 L33.45119,47.47871 L33.572998,45.572998 L33.614845,44.77507 L35.765453,45.44489 L33.648582,45.869576 M40.76185,46.70761 L38.151257,44.257202 L42.248707,45.74043 L37.24996,45.076504 L41.059616,44.495667 L41.24913,45.47 L41.708496,45.794243 L40.19223,46.71133 L37.072685,44.357563 L42.196144,44.822044 L44.89173,47.30944 L42.052097,45.687134 L42.295353,46.472477 L44.119877,45.85276 L40.46805,47.59888 L37.475994,46.314224 L44.72536,44.927612 L44.181595,46.424145 L45.117268,44.96091 L44.494274,44.57451 L47.67193,47.890644 L36.606045,47.797985 M60.45416,46.356808 L60.76281,45.895935 L60.19495,44.925713 L57.871105,47.06445 L56.25962,44.12981 L61.15674,46.908783 L61.05221,47.92823 L63.23223,46.734222 L60.144485,46.26478 L61.1386,45.430702 L56.22996,46.514317 L60.044502,45.75477 L58.673065,47.460377 L60.402786,45.753765 L59.56651,45.90153 L63.49806,47.74903 L59.206707,46.484962 L60.686207,45.244785 M69.948456,46.309536 L73.56626,44.811245 L68.4046,46.627766 L68.89542,46.63127 L73.86059,45.731853 L72.21324,47.002205 L67.151405,45.05047 L66.84639,45.38688 L70.20841,45.782486 L72.885826,46.561058 L74.46065,47.48688 L66.77967,44.541763 L70.301414,44.189854 L66.050285,47.31657 L72.104225,44.797424 L70.99359,47.589447 L70.864,47.382137 L70.04992,46.035236 L69.566216,46.45274 L69.842964,45.889156 L73.24466,44.723278 L67.97541,46.14062 M76.29669,60.94986 L77.65706,54.45297 L76.50718,46.535877 L78.741455,54.384617 L77.28802,52.9758 L79.156166,54.59974 L77.041916,51.740547 L77.05009,50.88609 L77.85684,53.79406 L79.37292,49.66101 L79.5372,44.845383 L76.41477,63.440613 L79.279076,47.60463 L78.12022,61.493576 L79.43208,60.01171 L79.12405,49.413654 L79.96345,63.817238 L78.40128,53.46997 L79.4726,58.827328 L76.71306,56.883556 L79.599014,50.417187 L78.45995,55.084705 L76.68679,48.487297 L76.47608,61.619576 L77.84456,44.31035 L79.40402,53.436905 L76.01181,54.79738 L76.71656,58.056213 M82.881294,48.751434 L83.005264,52.55477 L80.709206,49.78507 L80.36035,47.130993 L80.67087,53.987396 L81.980545,50.01216 L80.952896,50.654564 L80.94492,48.98909 L82.15413,52.219063 L82.46162,50.44229 L81.41077,53.030766 L81.30511,48.234 L80.8979,51.561386 L80.45614,45.368412 L83.78991,55.36972 L80.02621,54.358868 L81.72263,46.006664 L83.169075,47.418243 L82.421684,50.070213 L83.80523,53.158726 L83.9965,44.01051 L82.77721,46.0024 M87.5695,53.988728 L85.12035,47.36106 L84.58613,49.764572 L84.52192,49.753883 L85.535225,50.290535 L85.3514,48.351665 L84.48739,52.142982 L85.78458,49.623062 L87.03699,53.110966 L85.66463,45.171513 L85.25029,53.856155 L86.41698,49.73934 L87.09031,44.391937 L87.359184,48.07438 L84.65088,54.04737 L87.36329,46.98934 L86.13359,50.233753 L84.74703,52.76702 L86.75492,47.735245 L86.24391,53.511627 L85.58701,49.6043 L84.05094,48.132534 M12.123165,51.95883 L13.72832,51.631596 L9.387252,50.32039 L15.5824995,49.095596 L12.644287,49.386105 L14.252269,50.403557 L10.221595,51.486744 L13.698198,50.17248 L17.326534,48.69106 L11.403323,49.49516 L8.417428,51.86086 L16.047268,50.927048 L13.32238,49.521706 L13.984122,50.095352 L15.740278,51.228363 L9.81539,48.60513 L17.704052,51.234684 L17.786097,50.736088 L18.232094,49.70605 L19.884806,48.0384 L13.413947,50.611656 L14.56842,50.909306 M25.921198,51.509377 L21.545826,51.500305 L25.83409,48.87877 L26.86058,49.609756 L23.992231,50.042812 L23.33304,48.77776 L20.283443,49.155758 L20.137547,48.068775 L23.447096,50.27645 L25.670185,49.164906 L27.549227,51.774612 L24.331448,49.63522 L23.786028,51.1791 L24.37643,50.29574 L25.759651,50.399715 L23.500362,49.08439 L23.782871,50.02962 L22.725609,51.402546 M31.866898,50.73347 L32.075775,50.059532 L31.251902,50.10206 L30.736435,50.772453 L35.55175,50.806805 L33.423534,49.288235 L31.454185,49.727093 L32.063976,49.64746 L32.156265,49.904472 L32.9107,51.66891 L34.326824,51.163414 L31.619143,50.419155 L31.56166,50.21917 L30.452488,48.784206 L31.784958,50.236668 L32.31779,49.956646 L31.862436,49.747906 L30.552734,49.671246 M37.373653,49.767536 L38.81158,49.18842 L38.482014,48.701263 L39.859207,48.140793 L37.878357,50.327755 L38.708107,50.708107 L39.360893,49.572094 L38.38694,49.878334 L37.502914,48.41909 L36.0469,49.275127 L37.831635,49.831635 L38.143307,50.45577 M43.66809,49.475502 L43.963943,50.728897 L40.246147,50.551464 L42.63773,48.281696 L42.530228,50.530228 L42.465134,51.479294 L40.095673,51.904327 L42.56477,50.56477 L43.796295,48.203705 L41.9105,50.24115 L41.20106,49.703484 L41.80498,49.37977 M47.50747,57.721188 L44.08475,48.889324 L46.68068,55.027233 L46.794506,54.1837 L45.725018,48.310204 L46.228756,55.869118 L44.216904,48.867615 L47.92671,48.293167 L47.37307,58.744404 L46.14937,60.177048 L46.791016,55.54742 L44.776638,52.50645 L44.74145,53.484493 L46.969154,58.767612 L44.31603,54.077286 L44.96752,61.784813 L44.796776,58.750664 L44.41751,58.261555 L44.923393,60.30643 L44.866085,55.677048 L47.359066,61.436268 L47.06066,52.666298 L45.09559,58.842598 L47.122635,49.71006 L47.790134,62.64616 L47.764027,56.502415 M49.497543,50.995083 L51.640644,48.71871 L51.31577,52.238773 L49.471577,48.12654 L49.909824,52.114777 L49.67796,52.64408 L51.152973,52.209232 L51.736652,54.840786 L48.089165,48.874287 L50.104786,52.768112 L49.310802,52.376087 L48.262867,50.421597 L50.182083,51.198433 L49.582207,53.839222 L51.226982,54.45396 L51.22035,53.10884 L50.064167,51.964985 L49.335133,52.84627 M59.65974,51.829872 L59.17939,48.05635 L56.622665,50.489193 L56.09907,49.890965 L58.702835,49.631275 L56.847897,49.066837 L55.469078,50.32457 L56.06977,50.127857 L54.77446,49.38723 L56.2646,50.484894 L55.2132,49.821274 L54.803883,50.163177 L55.28462,49.437965 L58.254894,48.87255 L54.35921,50.820393 L56.876087,50.19901 L55.828842,50.94318 L56.042545,49.76556 M62.85091,49.14909 L63.094944,51.094944 L63.230793,49.613003 L60.22538,48.22538 L61.62791,50.37209 L61.570854,49.840725 L62.559036,51.77793 L62.639458,50.237328 L61.724728,50.086555 L61.965412,50.093193 L62.073166,49.80286 L62.49961,51.588943 M67.71524,48.96541 L69.88737,50.67642 L67.2675,50.91083 L69.69915,50.171936 L67.15705,50.197464 L68.264084,51.811752 L73.213135,48.73568 L70.22906,50.36643 L74.80237,48.399208 L70.762665,51.220043 L69.89763,49.927742 L70.09924,49.403984 L75.53145,51.075417 L69.55444,50.465023 L68.011475,48.596413 L70.596176,49.659283 L75.862495,49.592808 L65.696976,48.56566 L65.70609,49.165184 L73.45511,51.56455 L67.64826,50.925373 L74.44716,51.482388 M9.926185,58.104576 L11.149451,59.101334 L10.759227,58.727444 L10.173942,60.5043 L8.727312,55.773094 L11.493016,58.248604 L8.8418665,63.95691 L8.695633,54.685085 L11.051806,60.673058 L8.693669,61.91899 L9.501664,58.31152 L9.835755,55.63532 L10.451095,58.78931 L9.148266,59.20669 L10.290242,57.818565 L8.145824,52.437473 L11.76791,54.0958 L9.306129,59.532322 L11.270062,54.18981 L9.855002,57.975857 L10.970099,53.010254 L11.188821,61.566463 M15.606025,53.495018 L13.206286,54.793713 L14.47657,52.71593 L13.943949,54.017624 L14.388019,55.23404 L14.691271,54.69127 L15.514743,54.562183 L14.780658,54.289734 L13.716566,53.09858 L14.683349,54.68335 L13.742939,54.692627 L15.416535,52.583466 M17.736147,53.16085 L17.625132,54.374866 L19.693352,53.46756 L18.514473,53.838234 L17.453436,53.79715 L18.722288,54.72229 L19.100761,55.10076 L16.970486,53.617905 L17.592966,54.407036 L18.009193,53.975227 L18.344553,53.071632 L18.264593,54.841503 M25.466059,53.62312 L27.839333,54.83289 L20.219122,52.87609 L25.71872,55.68926 L26.097326,53.415493 L27.397707,52.54123 L23.67155,54.91621 L21.818384,52.60613 L29.159544,52.194305 L28.693794,54.89793 L23.301933,54.899357 L22.54336,55.975487 L21.242233,54.330463 L31.7712,53.599148 L30.77964,52.119286 L25.541239,54.4788 L25.410799,53.057453 L28.399687,53.200104 L27.069185,55.71038 L28.587204,54.503002 L27.995993,55.40886 L22.36183,52.352554 M35.450546,54.538357 L33.72417,53.72417 L34.370693,55.178936 L33.373474,55.688118 L32.4726,54.48026 L32.740673,52.740673 L34.404457,55.28632 L34.48941,53.846115 L34.83317,53.16683 L35.190292,54.441765 L33.14749,54.85251 L34.49653,52.662155 M37.534065,52.51816 L38.20063,54.638073 L37.318096,55.83733 L38.76237,53.23763 L38.42832,54.158966 L37.837536,54.162464 L36.3113,52.3113 L39.05948,53.666866 L38.377136,52.98385 L38.371624,54.137924 L39.695526,55.695526 L39.698658,53.465893 M40.599834,55.74591 L40.03941,57.069866 L42.32331,55.823574 L43.484383,54.110615 L41.964863,55.942524 L41.493095,58.231518 L40.83028,54.93716 L41.616077,53.185776 L41.484962,57.030075 L41.543644,55.253498 L42.69766,54.60468 L41.59658,55.193157 L42.21705,55.72373 L42.09975,56.090637 L42.803135,52.464397 L42.960464,57.920925 L42.632957,56.114864 L42.53553,59.925556 M52.700077,54.80031 L52.858955,55.76369 L55.648262,60.469444 L54.169422,64.7378 L55.104427,64.41771 L53.754894,53.145668 L55.416862,54.33255 L55.14671,64.25735 L54.077145,60.08808 L54.755592,58.27266 L54.35144,59.497753 L53.54722,60.25906 L52.151154,54.720253 L55.964664,60.55956 L54.890476,61.779827 L55.031204,59.409996 L52.76747,62.817654 L52.453167,64.86176 L53.738808,59.70178 L54.93974,54.734806 L52.733433,67.09636 L52.5248,65.9008 L52.044453,56.091377 L54.978214,62.79348 L54.019596,59.971992 L55.56475,55.08193 M64.12218,53.571026 L63.204544,54.696682 L59.75537,55.061157 L68.28003,55.872215 L63.848797,53.73573 L65.05395,54.737484 L61.367268,55.3172 L59.022614,52.755653 L67.808365,52.666397 L65.987076,52.259663 L63.74683,54.88891 L59.714043,52.636364 L63.51546,53.15313 L68.31654,54.770424 L70.81772,55.70443 L59.744534,55.490166 L57.01175,55.882275 L59.827885,54.149193 L61.475376,52.233433 L67.910965,52.946587 L68.39152,53.84296 L69.72934,52.567665 L61.274647,52.807846 L56.557613,52.671673 L65.74824,53.125328 L69.24956,55.67022 M74.832794,53.738144 L74.56885,53.431152 L73.33501,54.20909 L74.76055,53.239452 L75.43426,55.434254 L74.03236,53.91283 L74.14469,54.053703 L74.65442,54.24288 L73.26154,53.261547 L73.84424,53.504623 L74.39763,52.92862 L73.7996,53.36265 M88.15046,53.299583 L90.916214,60.32847 L89.63165,52.696808 L91.059135,52.55228 L89.83341,58.236008 L89.71801,57.953045 L90.806015,56.220024 L88.89509,54.68526 L89.23454,60.29637 L88.13099,62.127464 L89.452095,60.818188 L91.58217,53.25349 L91.485596,59.42341 L89.2513,58.468025 L90.33275,62.790634 L90.61489,58.58915 L89.03447,59.367916 L91.13744,57.288967 L90.88706,60.661198 L88.179756,54.815 L91.831856,58.305027 L90.18156,58.317688 M15.455602,58.147247 L13.522096,60.260788 L12.964516,62.07097 L12.760573,61.577595 L14.410779,59.17844 L13.424151,59.8955 L12.8258295,59.786922 L14.535346,59.70787 L13.229439,59.299847 L13.617189,61.68523 L14.071338,60.522923 L12.300897,57.220634 L14.763575,61.52715 L13.917441,59.394833 L13.100424,58.200848 L14.234161,60.383038 L12.396552,58.543064 L14.772912,56.59745 M20.501358,57.448227 L19.268059,56.65868 L16.293037,56.14652 L20.258047,57.716003 L19.718475,59.55135 L17.367914,57.402103 L23.077873,56.461063 L17.322863,59.63661 L23.171608,56.061108 L22.966148,57.595352 L21.692738,58.384518 L23.965935,59.982967 L19.53606,57.149807 L19.982262,58.097744 L16.534351,59.732822 L20.250917,58.197132 L20.947649,58.744514 L18.329361,58.227913 M26.622849,59.882954 L38.17355,56.45661 L34.61506,59.829845 L31.615747,58.33654 L31.313208,57.51943 L28.902485,57.014484 L31.608173,57.31517 L25.659489,58.226734 L29.18467,56.768486 L25.428482,59.64288 L36.052494,56.908466 L33.404205,58.614243 L24.676819,56.169205 L26.638931,59.443996 L35.284992,59.045166 L31.717154,58.247726 L26.627823,57.04117 L32.242794,57.147533 L30.99864,56.249832 L34.261303,57.208145 L37.301983,59.325497 L31.461435,59.89095 L32.91047,57.544476 L37.248016,57.812336 L28.8164,59.592804 L38.139492,59.095783 M49.02855,58.305454 L49.702408,58.297592 L50.693596,58.693596 L49.822765,57.43633 L49.759,58.649353 L49.95145,57.84559 L51.20978,57.61961 L50.030697,57.91729 L49.176476,58.823524 L50.886288,58.886288 L50.90707,58.33665 L51.979897,58.734818 M60.891853,58.63331 L58.840435,59.05319 L58.72858,59.287254 L60.19872,59.87998 L61.79377,59.238525 L59.671017,56.356102 L61.640186,57.424408 L66.86029,59.620094 L63.484074,56.45109 L62.049137,57.704903 L62.45925,58.734665 L63.671654,59.179928 L67.30111,57.631798 L56.453064,56.921574 L56.94226,56.314087 L65.55025,56.60303 L65.5373,56.8209 L64.5125,56.5641 L63.699158,58.769417 L59.578476,58.168194 L59.864162,57.032845 L64.116234,58.411434 M71.247826,57.623913 L71.45961,57.877247 L72.61482,57.323345 L68.630684,58.45965 L73.94522,58.97261 L72.33017,58.259396 L70.82012,58.58994 L75.95482,57.460476 L75.92149,56.039253 L72.83452,57.08156 L72.322136,56.22486 L71.33786,56.7866 L71.89093,57.80013 L70.10985,56.515015 L72.10653,57.412952 L71.99595,58.002476 L72.70379,58.15987 L71.8697,58.07966 M83.50931,59.17639 L83.24737,57.505257 L80.931564,57.86313 L82.1774,60.290188 L83.210655,59.33936 L81.94982,59.632187 L81.54413,59.25429 L82.032036,59.95922 L81.82838,60.218445 L82.12926,60.023457 L81.164925,63.67622 L82.741776,56.734528 L82.66706,61.33413 L82.13701,61.00429 L80.55161,58.683956 L83.815186,61.649326 L82.358215,60.065006 L81.66636,60.667286 M84.813,61.80235 L84.89675,60.069572 L85.23227,60.04889 L84.349266,64.33866 L87.90403,66.8389 L86.853134,64.55941 L87.0267,56.719112 L86.05555,62.097195 L85.00239,62.623623 L85.84274,59.735886 L85.80286,62.279305 L86.13545,62.022552 L85.00406,61.045753 L85.32875,61.356853 L85.1944,66.14363 L87.32784,59.067627 L84.88283,58.64847 L84.86009,65.41973 L86.278725,66.012856 L87.99867,56.003975 L84.84228,62.723713 L84.23521,65.89732 M20.161388,61.11066 L20.15614,61.13959 L18.32568,62.83716 L17.62258,63.453384 L17.401323,60.70066 L21.498997,61.083622 L21.663256,63.306725 L21.324696,61.337654 L17.981628,61.54151 L17.995861,62.273407 L22.34173,62.53194 L19.961758,61.92992 L19.645895,61.721798 L21.791685,62.895844 L19.344316,60.798424 L21.581171,61.784294 L20.475409,61.476784 L19.444687,62.611156 M25.31841,64.80737 L26.391031,71.629814 L24.457327,65.743126 L25.816227,63.354156 L26.293856,65.81631 L24.565332,70.304 L24.708803,62.126408 L26.826113,68.47833 L25.98468,65.98532 L27.165386,68.96171 L24.97367,63.391685 L25.142603,67.214714 L27.209154,63.32974 L26.436495,63.754875 L25.524744,68.444496 L25.994326,65.999054 L26.941963,64.66548 L26.078814,66.075516 L27.731815,69.03027 L27.846912,60.459263 L24.555748,69.189445 L25.637436,66.22665 M30.231325,69.33045 L29.180779,64.56655 L31.645573,61.063282 L29.007252,65.834694 L30.622377,66.59632 L28.102036,60.30611 L28.206467,67.12116 L28.386946,64.45447 L31.44004,66.239784 L28.686323,62.66143 L31.052082,64.50947 L30.75865,68.27595 L31.231998,63.279285 L30.790209,67.38268 L28.762486,68.732895 L30.704523,62.376255 L28.738182,69.78545 L29.80815,66.11993 L29.7707,62.698696 L29.022532,71.02764 L29.356043,66.91232 L31.462294,69.71626 M35.22998,69.12587 L32.773594,68.70836 L32.194443,68.558014 L33.828026,63.52401 L32.88574,69.34279 L33.392708,65.89888 L34.197155,68.83849 L35.631382,67.563095 L32.836468,65.80626 L35.246872,62.259388 L35.101852,60.332584 L35.056908,67.84934 L35.996685,63.171207 L32.919594,64.96482 L32.428246,61.28474 L34.568527,65.64461 L33.497334,65.12045 L32.994785,71.17036 L34.66925,65.58164 L34.942802,68.82841 L35.142,63.47804 L32.500023,62.18797 M40.259785,61.96456 L39.82232,61.67439 L37.39393,63.593163 L41.73677,61.131615 L43.085117,60.113983 L42.89166,63.445827 L36.94603,63.526985 L38.206356,61.59256 L39.86151,62.76314 L39.9763,61.98138 L36.648056,60.324028 L37.00201,62.408993 L41.499615,60.349583 L39.82892,62.94275 L39.673122,61.74319 L39.373463,60.851833 L40.80928,61.109337 L42.227192,62.50592 M48.37722,62.525497 L50.015068,64.11044 L49.68313,61.677273 L49.59805,65.76949 L50.3948,62.262 L51.793964,61.71656 L51.040607,65.7022 L48.700787,61.401573 L51.095123,61.809753 L48.513733,65.891785 L50.725464,63.604126 L50.18531,64.03363 L49.531555,63.233727 L51.208652,65.09821 L48.940903,66.118195 L50.184418,64.03347 L50.816586,63.5544 L51.25186,66.50372 M59.514008,61.52395 L57.92565,61.763546 L58.010216,61.972473 L57.91967,62.21644 L59.20069,62.445625 L56.28673,63.71327 L58.96062,61.03938 L58.32974,62.32974 L56.042027,60.042027 L59.139454,61.64172 L56.58325,61.474186 L58.324547,63.032173 M62.470116,61.529884 L60.196392,62.56711 L63.51076,62.560703 L63.629784,63.629784 L62.010605,61.971424 L61.82066,61.42963 L62.28796,62.91581 L61.60184,62.39816 L61.9815,62.049847 L60.991486,60.991486 L62.516624,61.83756 L63.153355,62.428055 M65.33801,63.330994 L68.57905,61.64601 L66.1755,62.2489 L65.98705,60.993526 L68.20771,62.380634 L67.84025,62.880333 L71.892365,62.88418 L68.56434,63.034176 L68.219864,61.758026 L70.249306,63.767147 L69.09656,61.850407 L65.66769,60.167633 L66.70365,61.70553 L67.94881,62.2821 L67.56941,62.26323 L71.5964,60.2018 L67.56045,62.483753 L68.92475,62.462376 M72.943504,61.60789 L72.34543,63.654568 L74.10174,61.898266 L73.714745,61.092793 L73.48028,62.163418 L73.56886,63.161663 L73.16278,61.689274 L75.03073,61.675907 L74.96359,62.963596 L72.17921,60.179207 L74.3821,63.215218 L74.083084,61.776146 M15.816907,67.908455 L9.764183,64.88209 L12.281627,65.96158 L15.394585,66.7711 L13.572321,64.26956 L9.282305,67.6614 L11.803222,67.08436 L11.71348,67.57888 L11.377358,66.31132 L14.825482,64.58726 L12.481131,66.8817 L12.623004,66.489456 L12.997085,67.82721 L8.219892,65.14132 L11.679296,66.043755 L12.42551,65.739876 L9.938349,64.38028 L12.520994,65.42661 M17.786867,68.93826 L16.898815,65.79763 L19.66308,68.301796 L18.639978,69.04687 L16.68393,67.76117 L18.205288,69.5048 L18.864819,68.7858 L16.753666,70.49267 L19.962048,71.924095 L18.382149,67.791466 L17.675484,67.46916 L17.874214,68.16011 L18.583355,66.83329 L19.594664,69.44895 L16.20173,68.98129 L18.42241,66.14045 L17.647745,65.41789 L18.19591,67.75064 M20.735806,70.52839 L21.877254,67.79922 L23.492292,70.98458 L22.13722,68.0249 L23.514872,67.173355 L21.737791,67.475586 L22.413958,71.03439 L23.387184,69.26044 L23.325808,68.24059 L23.323643,70.16519 L23.778946,65.73568 L22.428099,68.388985 L22.214752,67.05461 L22.761866,67.58426 L21.1668,71.66795 L23.673498,64.653 L20.083813,70.439 L21.51119,64.41692 M37.88956,67.37015 L37.896656,64.63222 L38.13401,67.52121 L42.288406,66.461365 L46.61253,64.18504 L43.614677,64.31478 L43.819885,66.82408 L45.793545,66.73753 L40.482018,66.86753 L40.279217,65.220795 L45.536808,67.17894 L39.30107,65.47528 L45.829094,65.73404 L42.05198,65.687836 L41.531643,65.25077 L42.277023,66.19553 L41.57549,66.44306 L42.850403,66.60025 L41.79813,67.21236 L39.34287,66.184555 L42.51596,65.705124 L47.313427,64.22886 M59.47746,74.95306 L56.641754,76.26902 L56.63164,75.128174 L56.28414,65.13657 L56.53533,69.07251 L58.834686,69.37655 L58.247326,78.91642 L57.080994,69.37559 L59.04365,67.825386 L58.69025,73.971146 L58.61759,72.70515 L56.924633,78.0251 L59.2732,64.86646 L56.641335,77.43467 L59.39159,70.01126 L59.46086,72.41607 L59.29265,76.79917 L58.52475,72.599144 L59.714924,78.8597 L58.348663,71.800514 L57.8497,67.79689 L56.16895,74.616776 L56.14391,65.108955 L56.45598,71.56024 L58.227673,71.869736 L59.10111,69.48278 M63.257927,64.74207 L62.32316,67.027756 L61.07216,66.92784 L63.081985,66.401566 L60.955013,65.61216 L61.640972,65.64097 L61.485718,64.364395 L63.531387,67.53139 L62.53708,64.552895 L62.124847,65.663605 L62.58696,65.815445 L60.323532,66.52713 M68.09054,65.501076 L69.899765,67.49254 L71.59648,67.79824 L68.244316,65.73111 L68.54722,65.72639 L67.45318,66.33429 L67.061325,67.03307 L71.640114,66.82687 L70.44066,64.50796 L67.2574,64.639145 L66.28027,66.85986 L67.91627,66.461395 L65.466736,64.73337 L68.11112,65.98484 L65.95896,64.39647 L68.25252,66.46275 L66.742714,65.7144 L64.02502,66.542274 M80.9714,67.34551 L78.09159,65.44995 L73.25104,67.582985 L75.78268,64.43491 L76.95344,66.598114 L80.74067,66.91356 L73.00479,65.02884 L74.446884,64.81563 L78.66625,67.0658 L76.16787,65.17037 L80.31187,66.44947 L79.70525,65.32901 L83.56456,64.14515 L77.6183,65.73058 L78.52346,66.83739 L77.9882,66.01232 L77.81458,66.19352 L72.75092,66.364586 L77.72726,67.63798 L79.886894,64.92163 L83.1733,65.64068 L74.0329,67.56099 M88.462456,73.39547 L90.23308,73.35574 L88.7845,66.3535 L90.291954,70.048615 L89.6202,69.6361 L89.105125,69.142586 L90.65572,71.66645 L89.23258,72.30225 L88.820335,69.80357 L89.018364,68.282364 L90.19057,69.880875 L88.69129,66.67406 L89.69469,65.60433 L91.94299,75.82898 L91.01535,68.56151 L91.4742,72.579506 L88.83003,70.73137 L89.031876,74.97959 L91.47486,65.57541 L91.16304,67.43157 L90.960724,65.05847 L88.59545,71.98989 M9.632581,69.46223 L14.195008,69.700554 L11.808033,71.057846 L11.974796,69.9802 L13.349516,70.67476 L11.068086,71.02563 L14.612812,68.693596 L9.974344,70.276344 L14.474042,70.562 L9.492078,68.74604 L11.850545,70.823586 L12.5764675,71.05641 L11.748325,69.80228 L8.746644,71.98887 L11.319861,70.34007 L13.014138,68.88388 L15.027353,68.14929 L12.365292,70.66942 M38.995102,70.9951 L37.655937,68.905754 L37.908257,69.70823 L36.77849,70.38408 L38.190643,69.48633 L37.90778,70.029 L37.303455,70.69655 L38.627686,68.30877 L37.972626,70.027374 L36.504166,69.44484 L38.5251,70.5251 L39.45601,70.54038 M41.599033,70.40096 L43.174328,69.63075 L42.504932,71.605865 L40.767414,69.54254 L42.96044,70.96044 L41.432327,70.17849 L42.2858,70.285805 L42.26563,70.09859 L42.23275,70.740234 L42.364635,69.017525 L42.594513,68.39815 L41.39955,70.60045 M47.45967,69.54104 L44.23198,69.34382 L46.110737,70.35218 L46.310303,69.16392 L46.43958,70.439575 L46.046795,70.017365 L45.745197,70.2548 L45.657486,69.657486 L46.729137,69.77074 L46.209255,69.79074 L45.839943,69.49096 L45.71824,70.75917 M49.31897,73.36206 L50.421574,71.4634 L49.121666,72.479294 L51.248436,74.042175 L51.98224,75.96448 L48.65606,73.710625 L50.25435,70.880295 L50.342445,71.31511 L50.838512,71.542435 L49.456768,68.01798 L49.160915,71.23759 L48.297268,71.691 L49.154446,70.61686 L49.17025,75.65277 L50.121933,72.89381 L49.017303,70.03461 L50.57004,72.10345 L49.9647,71.967926 M52.318317,71.68168 L54.671867,69.32813 L54.079517,69.78574 L54.713123,69.77577 L54.721916,70.72192 L54.327194,70.12144 L53.560356,68.601776 L53.48714,69.48714 L54.06568,69.97935 L53.815327,69.412674 L53.357754,71.73047 L55.004852,70.37294 M62.81686,76.45058 L63.883846,77.296295 L62.36645,79.27591 L60.968315,77.095055 L61.39772,74.376495 L63.74292,68.77124 L63.388092,73.13228 L61.25776,75.05157 L60.497066,77.31904 L60.58601,70.406494 L62.748577,74.12465 L61.596672,68.19313 L62.718616,74.11966 L61.01987,72.285 L60.780563,70.3417 L60.835983,79.987175 L62.888607,76.2583 L62.516438,71.34368 L62.538815,74.51626 L62.510773,74.48939 L62.808964,72.853905 L63.357407,71.00234 M66.739456,73.47891 L66.26258,73.92476 L65.75231,70.184364 L64.489365,68.97873 L67.05174,70.66129 L65.50269,74.189285 L66.79909,72.14501 L67.71419,71.06459 L66.987686,70.02463 L65.01757,73.25048 L66.20615,72.337204 L67.80153,72.32693 L65.56502,72.869965 L64.56196,72.78472 L66.36414,72.33087 L66.19921,71.12301 L65.831764,71.7248 L66.75767,72.68844 M71.09952,69.65428 L70.055916,70.17784 L70.57018,69.82072 L69.85734,69.94705 L70.506226,71.60997 L70.324814,69.12482 L68.05434,71.94566 L71.04803,68.95197 L69.941864,69.941864 L70.60036,70.22282 L69.80591,70.522964 L69.90258,69.90258 M72.796,68.98824 L76.97156,68.354805 L80.75229,69.08257 L83.02072,68.02442 L76.15423,71.926414 L83.79642,71.93214 L78.03772,69.77346 L81.42092,69.76239 L78.95708,71.53104 L76.45787,68.9115 L78.55785,70.39376 L80.716835,68.44732 L75.570854,71.38827 L78.270546,68.3752 L75.187126,70.19537 L81.49866,71.58427 L75.597694,70.94527 L76.70031,69.41147 L75.5315,69.17717 L83.67924,71.10415 L72.861984,71.71267 L78.90838,69.05193 M85.58742,72.82516 L84.61097,69.727844 L87.845375,69.65112 L86.24325,73.783066 L84.94177,72.57746 L86.43772,70.07304 L85.73957,72.33149 L86.486374,72.088264 L87.11336,72.20204 L86.16678,72.151535 L86.639084,71.65126 L85.55107,68.709274 L85.73473,71.46947 L86.45973,72.919464 L84.45556,70.59668 L86.71459,70.570816 L85.999435,71.999084 L85.84652,72.675674 M10.405861,74.2133 L10.645076,75.17892 L10.613523,77.22704 L10.406485,78.97962 L9.505245,78.17803 L8.296335,78.168495 L10.215836,76.03917 L9.254279,76.40693 L8.295624,76.93005 L8.587109,73.17422 L11.534239,78.50968 L10.846162,76.768845 L9.725729,73.98953 L10.253748,76.23056 L8.003808,72.734665 L9.253672,77.49265 L10.248775,75.50245 L8.591107,75.74433 M13.232403,74.464806 L14.134797,76.12248 L13.216963,76.99668 L13.0597105,76.5131 L13.318182,76.372055 L13.562823,72.7954 L13.582588,77.83755 L13.983241,75.996956 L15.100077,78.20015 L14.757308,72.666145 L12.805259,75.78319 L13.292238,74.842255 L13.953578,75.924065 L13.308828,77.38234 L14.137508,77.007965 L15.982324,72.035355 L15.895159,77.72199 L14.499544,75.36416 M20.285204,73.825645 L19.623613,73.70429 L22.183296,73.70215 L17.161049,73.35511 L18.834969,75.28219 L18.262667,73.13133 L22.424353,72.78783 L21.847551,74.419685 L19.64958,74.047806 L19.140823,72.425514 L19.865612,74.740555 L19.991356,74.009514 L21.445961,74.72298 L18.966911,74.51655 L17.365234,75.6107 L20.057737,73.68183 L20.387764,74.7106 L17.748896,72.23144 M25.643347,74.112144 L27.17076,73.63188 L25.21935,74.78065 L26.703764,73.296234 L25.920311,74.214714 L26.019978,73.946175 L26.646788,74.64679 L26.138498,74.0514 L25.048437,73.646835 L26.286844,74.91226 L25.245203,73.2452 L25.910393,73.71501 M31.079601,80.74369 L30.394281,83.6766 L31.757696,78.29268 L29.525026,77.92091 L29.831535,75.57456 L29.198137,75.59441 L29.195868,82.13609 L30.947653,73.12571 L28.888227,76.05466 L28.61708,76.67497 L31.223965,76.26595 L31.41817,77.11348 L29.864685,77.870346 L29.094006,75.69751 L28.506433,80.116005 L30.838226,76.14889 L31.368717,80.394936 L31.549494,73.35152 L31.549654,82.64896 L31.053646,77.34135 L29.327093,79.48603 L28.23926,83.28222 M33.60725,73.85423 L33.449326,73.449326 L34.41414,74.41414 L35.657898,73.47871 L33.92948,74.07052 L33.466263,74.16782 L34.195812,73.472404 L33.86996,73.586426 L34.301903,73.18655 L33.677616,74.32238 L34.80402,74.2984 L33.68789,73.00738 M39.323544,74.49122 L36.616367,74.43506 L37.364216,75.71306 L38.386703,74.3867 L37.71969,73.108505 L37.119713,73.673294 L38.308525,74.981224 L39.086727,75.08673 L36.18727,74.56998 L38.17944,73.51652 L38.156128,73.84387 L38.9751,73.0249 M41.05477,73.649185 L41.85746,73.54667 L42.662373,74.66237 L42.550552,73.82689 L41.711185,73.71119 L42.79424,73.20576 L42.649143,72.25095 L42.092575,73.750565 L42.25016,74.09284 L40.813625,75.18638 L43.215363,73.61785 L41.620636,72.79349 M44.73109,85.07564 L44.687912,87.35142 L44.5826,83.24028 L47.400566,85.602264 L44.240173,77.99068 L45.03061,83.04683 L46.35426,79.49373 L46.20785,85.81254 L44.645653,74.97176 L45.070766,81.32798 L47.78428,86.62442 L45.291924,77.97794 L47.15766,81.321785 L47.45829,79.16564 L47.60817,84.59245 L47.47822,80.42101 L47.397816,72.16828 L47.825027,72.69988 L45.01352,78.02829 L44.07111,72.28445 L46.6184,79.64618 L47.686943,76.143524 L45.732456,72.518196 L47.03815,76.73705 L46.31125,80.62211 L45.883236,79.96674 M53.404488,75.02587 L54.30562,76.05546 L54.417088,75.7724 L54.137646,75.39405 L54.72068,75.08269 L52.513416,77.89219 L54.770187,77.540375 L53.546585,76.24742 L55.17447,73.65106 L53.976967,76.101395 L52.38652,79.22696 L54.599823,76.98118 L52.454376,74.595604 L55.804996,76.32755 L53.28393,74.56786 L54.49866,79.65529 L53.97912,75.981026 L53.854687,74.93482 M69.86801,72.62267 L77.51689,75.172295 L69.891174,72.139435 L71.68764,74.160614 L70.80681,75.25647 L75.2418,75.98651 L73.13052,73.386284 L77.80464,72.73179 L76.726234,72.92727 L75.98899,72.86328 L74.12647,73.24046 L77.045204,73.78849 L71.95647,75.167885 L74.53324,74.37638 L76.37661,75.07618 L73.98348,74.01724 L75.48456,72.450584 L73.56053,73.29698 L68.94123,73.01648 L69.17146,75.60951 L77.09978,74.60265 L74.00038,73.997734 M82.71288,74.71288 L83.92848,72.07152 L80.424934,73.41543 L82.61845,72.33366 L80.224556,72.224556 L81.62517,74.11786 L81.773674,73.28021 L82.47001,73.85222 L82.13767,74.43785 L81.2864,75.92272 L81.844154,73.94216 L80.58996,75.41004 M16.108852,81.685104 L19.408957,77.77313 L17.221092,84.33672 L16.90328,84.42197 L18.966145,83.69053 L16.805338,82.7468 L19.250698,80.22808 L19.882786,77.84211 L17.803432,81.65605 L19.094269,85.28281 L17.79884,79.103836 L16.783497,78.90839 L18.169336,84.43798 L18.784172,83.99289 L18.271486,81.61537 L16.895884,87.67907 L18.828054,77.74087 L16.591373,77.77412 L16.646362,82.84618 L18.011581,82.0111 L17.059195,81.09858 L18.030169,82.00502 M27.976395,79.19996 L27.473114,86.41934 L25.030596,81.071175 L24.129398,76.3882 L24.528658,85.249275 L26.769783,82.73756 L27.563536,77.309395 L24.61493,83.96229 L26.52189,81.67376 L25.336443,81.88951 L24.214304,87.357086 L27.415262,85.59674 L26.452158,79.67431 L25.721094,81.51198 L25.254269,85.83569 L27.043594,81.34763 L26.181778,84.61711 L25.773518,78.73925 L26.848003,83.48381 L27.260025,79.2174 L25.440523,80.57815 L26.808632,82.13464 M38.496025,79.96098 L34.697502,77.70413 L38.830982,76.26934 L35.589085,77.67717 L36.08149,77.55096 L36.549313,79.006645 L36.394394,78.08959 L36.859074,77.054535 L33.3976,78.35503 L38.02922,77.72317 L34.822994,78.719536 L35.992035,78.0439 L33.367706,76.68385 L36.866833,79.58852 L33.890762,79.05462 L39.245373,79.62269 L36.876938,77.034874 L37.67358,77.16321 M41.73977,77.73977 L42.369892,77.8837 L43.06267,77.66586 L41.655636,77.65563 L42.357265,79.13623 L41.8371,78.43891 L41.996174,77.99858 L42.008305,77.97762 L41.50918,76.43901 L42.16093,77.839066 L42.413918,77.58608 L40.324856,77.37829 M51.18697,79.18697 L51.762196,76.23781 L50.513756,78.513756 L51.20758,78.44818 L49.669468,78.89059 L48.361076,78.51533 L48.8937,78.347855 L49.59027,79.10397 L50.52498,79.66962 L51.27133,78.47184 L49.806274,77.38388 L50.05743,77.94257 M67.54927,77.51286 L65.2993,78.22032 L66.31586,77.68414 L65.91856,77.74099 L65.660736,77.874084 L65.731285,78.268715 L67.011055,78.375244 L65.27602,77.27602 L67.34716,79.34716 L65.93212,77.78413 L66.287766,77.22464 L65.99629,78.00998 M69.61402,83.5593 L69.75048,77.02217 L71.46929,86.93673 L68.17192,81.91274 L71.17687,79.29252 L69.70268,84.17011 L69.00381,89.58149 L68.422844,77.69139 L68.672386,88.17273 L68.193794,88.12912 L68.21485,91.140594 L69.39125,82.78327 L68.64933,80.14289 L68.73915,84.7214 L68.794044,79.5227 L71.00293,78.38075 L71.32456,88.91766 L69.75498,84.35016 L70.18545,89.18596 L68.87977,83.68095 L70.90656,81.92753 L71.570175,81.75604 L71.09439,80.560295 L71.46697,89.867874 L69.88035,83.96592 L70.98627,86.816475 M76.33453,78.655334 L77.936935,78.37872 L76.85752,79.1924 L72.93215,76.310715 L80.78453,79.96545 L82.124626,78.8019 L80.46348,79.11552 L83.094604,76.301796 L73.553734,77.13557 L76.33201,77.2447 L75.26923,79.560646 L79.08664,79.7383 L77.762375,77.832275 L75.84461,78.149704 L80.15662,77.850204 L78.255066,77.854225 L77.226006,78.80781 L78.21522,78.344284 L83.603874,79.86796 L81.80295,76.5036 L78.249664,76.5006 L73.66398,79.44534 M86.22221,79.55557 L85.9634,79.94014 L86.31917,79.59375 L84.798676,77.59735 L85.96727,79.76008 L85.60017,80.218185 L85.4347,82.4886 L85.19591,81.60818 L87.47223,82.40825 L86.8912,76.07672 L84.38382,79.70671 L84.30955,82.15168 L86.502235,83.6815 L84.62619,78.75172 L84.4983,79.727486 L86.47461,79.74101 L87.95148,81.77316 L86.32702,80.65403 M89.47547,80.66765 L88.8339,78.94045 L89.33071,80.36522 L90.513435,79.34647 L89.598206,77.05479 L90.02755,79.878716 L90.91169,79.5025 L89.60886,80.782295 L91.3118,81.19194 L90.22366,80.44733 L91.15412,77.69176 L89.38598,78.771965 L88.99811,79.818184 L90.46234,83.38904 L89.91014,80.39559 L91.01887,81.66664 L88.26721,79.685555 L89.821594,79.70817 M10.573623,81.67599 L12.12687,81.30088 L11.777501,82.24487 L8.322403,82.5017 L8.414932,83.792534 L15.071176,80.46441 L11.923822,82.419785 L12.087824,81.94631 L13.6652355,80.981995 L12.363471,82.082565 L13.023069,82.511536 L13.166523,82.91647 L9.608565,80.121185 L14.921809,81.6014 L12.211102,81.76767 L11.072231,81.53612 L12.08279,82.15172 L12.287292,82.526474 M33.12564,82.87436 L33.063156,81.6523 L34.368073,81.88427 L33.471916,83.42287 L35.41091,83.41091 L35.876663,82.6965 L33.60732,83.058044 L32.580074,82.446465 L34.54944,82.54944 L34.17852,81.82148 L34.168346,82.53541 L34.00344,82.01095 M39.773506,83.24811 L42.34671,83.173355 L42.392136,80.80393 L36.272232,80.136116 L39.263702,80.650696 L41.105984,81.32388 L40.23197,81.7447 L43.059067,82.694885 L37.713474,81.4806 L39.716026,83.56485 L40.39735,81.56269 L42.315487,81.68412 L38.353188,82.22466 L39.710175,82.17718 L40.248142,82.454735 L37.503105,80.03834 L41.71815,83.34985 L37.257126,83.37144 M50.806835,84.73311 L49.906933,83.31779 L48.531303,82.665504 L50.85533,83.53326 L50.93547,85.53023 L48.092278,80.184555 L50.383125,86.80838 L51.928555,81.54525 L49.93255,84.29694 L49.252872,82.77786 L51.567398,80.865204 L51.814587,83.0098 L49.1724,85.6552 L51.216732,84.2208 L50.183914,83.19035 L50.189884,84.03446 L48.32374,86.13361 L50.221085,84.44217 M55.6982,84.308174 L54.44406,87.25506 L53.628685,85.63462 L55.338104,83.26981 L52.60182,81.20364 L52.49146,82.6293 L55.10791,82.589806 L55.706482,85.55055 L54.353058,84.57752 L53.979492,83.84966 L52.296986,87.40603 L52.71056,83.76601 L53.348362,84.35559 L54.73666,80.75704 L54.267548,84.535095 L52.67291,85.68918 L55.655212,80.689575 L52.01089,80.74625 M57.714943,81.8942 L58.355385,83.13024 L56.317482,80.31748 L58.66998,81.78934 L57.305893,82.69411 L57.84971,82.404945 L57.32621,81.74993 L58.67142,81.32858 L59.1659,83.1659 L57.880207,81.61902 L58.230373,81.37929 L59.41272,81.5558 M63.11951,82.57504 L60.92658,83.80521 L61.519497,84.961006 L60.767315,81.9836 L60.479275,83.72404 L60.17719,86.32015 L61.657803,81.491615 L60.86745,81.7349 L63.378742,85.25276 L63.16574,81.66852 L63.97197,87.225716 L61.728733,85.19418 L60.96833,83.0626 L62.801304,80.472466 L62.5555,85.111 L62.49348,87.617325 L62.916275,83.5 L60.320908,84.91626 M66.6279,82.744194 L64.01294,86.52921 L65.18389,83.25847 L64.25429,84.952614 L65.28966,82.83803 L66.06493,83.71413 L65.404076,82.80816 L66.01742,84.02849 L64.664505,83.757645 L67.330025,82.30708 L65.70599,81.844864 L65.47629,85.047424 L66.116165,84.8515 L65.99472,83.9952 L65.91561,83.98469 L67.90009,82.96314 L66.99409,85.988174 L65.65187,85.53255 M72.83679,80.83679 L73.284294,83.9284 L74.802345,81.74772 L75.41437,80.58563 L74.59422,82.22054 L72.81356,81.55967 L74.52377,83.66577 L73.43375,83.52571 L75.50014,83.50014 L73.22324,82.24423 L73.9728,82.0272 L74.4697,83.49383 M79.34784,80.65216 L76.83892,82.36508 L79.96497,82.72928 L76.74706,82.39396 L77.2728,81.2728 L79.549286,83.549286 L78.28776,81.71224 L78.097275,82.30936 L77.8284,82.46235 L77.4053,81.77928 L78.48957,83.557014 L77.48169,83.39653 M80.90022,80.90022 L81.555885,82.444115 L83.05238,80.94762 L82.755356,81.76249 L81.82852,81.936356 L81.925156,82.20166 L80.50494,81.44512 L82.49996,83.59006 L81.73911,81.73911 L82.55639,83.76952 L82.26534,81.285065 L83.641525,81.48386 M14.967258,85.5952 L8.721973,86.4472 L11.003012,86.60949 L12.244822,84.650894 L11.443966,86.278015 L11.933989,86.36376 L10.5924635,87.54908 L12.056914,85.93736 L13.701512,87.336784 L13.430586,85.284706 L11.375205,85.50913 L10.9986515,85.77254 L13.781157,84.91113 L11.4322195,84.95951 L14.958874,86.67213 L9.427948,84.713974 L13.861842,86.93092 L11.748738,85.53955 M34.491547,86.56597 L31.007584,86.13538 L32.31842,84.24533 L33.565304,86.78265 L33.831066,85.750206 L32.156853,85.13566 L31.552727,85.648605 L31.16138,86.41931 L29.68285,87.416534 L34.317726,84.58311 L32.886753,85.02407 L32.286697,86.52538 L32.847687,85.06707 L33.26721,86.995575 L31.190447,85.8161 L32.796314,87.45929 L34.224236,84.887886 L29.210709,84.605354 M36.146736,87.853264 L38.39982,85.87428 L38.22468,86.71456 L39.10258,85.65331 L39.1571,87.157104 L38.553467,86.205414 L37.6947,85.02904 L37.422092,86.5779 L38.08852,85.76149 L39.334286,86.49521 L38.519638,84.59989 L38.468994,86.468994 M41.682354,85.671585 L41.301235,86.60247 L41.913235,87.92116 L40.499386,85.54532 L42.582775,88.9533 L41.69813,87.94522 L40.238705,87.680374 L40.28484,90.18313 L42.26343,87.85625 L42.742176,89.48435 L40.571476,90.85705 L41.262184,88.40262 L43.816227,84.367546 L41.76228,89.04651 L42.465286,91.410645 L43.522778,86.061745 L42.072823,87.67941 L40.297028,86.45264 M57.062714,86.93729 L58.315815,85.900696 L59.863514,84.13648 L57.75478,85.754776 L59.781624,85.439804 L58.245342,86.245346 L58.697273,86.25879 L58.45688,86.16956 L58.592575,84.403366 L58.357883,87.1382 L57.63471,86.984245 L58.221035,86.702965 M75.54549,86.96581 L77.11044,85.37211 L77.91386,86.51734 L77.32467,84.91967 L75.59082,86.80306 L78.15834,85.04906 L81.66035,84.779884 L72.975555,85.023155 L73.59011,84.003105 L72.71399,86.36715 L76.52459,86.8432 L81.46148,87.56744 L79.84309,85.27477 L77.011086,87.03212 L83.21369,85.63787 L79.546295,84.38615 L81.89199,86.756676 L73.85369,84.6179 L77.54343,85.26962 L79.689445,87.19248 L79.62334,85.07226 L80.61133,86.870445 M88.83469,86.65577 L87.132614,85.56631 L87.9407,85.89132 L87.26504,86.36748 L87.66259,87.85932 L88.91248,85.87552 L91.67716,84.161415 L84.45297,86.483894 L88.60293,85.33644 L86.14721,87.13266 L89.12453,84.76239 L87.65194,87.918 L89.28932,86.64466 L84.30508,85.160675 L90.07723,84.73013 L88.5108,86.116035 L88.647354,87.18631 L87.14876,85.33122 M15.104758,90.78408 L13.746972,91.12723 L16.778875,91.36131 L19.369328,91.47385 L15.978281,90.076256 L17.735405,88.48008 L15.547826,91.58762 L9.380774,91.65481 L8.661298,88.69018 L23.627752,89.727234 L11.262547,88.815636 L23.010975,88.24725 L21.337994,88.56222 L16.199158,90.34808 L13.360315,89.16015 L9.714709,90.22476 L11.626565,88.08692 L21.2563,88.15936 L15.786199,89.850395 L23.501438,91.87536 L10.58691,91.45801 L22.012894,91.913086 L22.968405,91.24373 L19.092085,88.45298 L16.025373,90.01775 L11.479723,91.58289 M28.470552,89.482124 L31.206753,90.72844 L27.882666,89.907814 L28.611277,91.1202 L28.145815,89.19648 L30.401417,91.20071 L27.579664,90.256966 L30.77871,88.3013 L24.226791,90.51475 L26.299093,89.613625 L29.615248,91.269005 L31.396545,88.30173 L25.159231,91.42039 L24.849321,88.42466 L28.00828,89.99089 L28.044071,89.75715 L31.978111,89.4573 L27.904167,89.82439 M33.749542,91.37577 L37.598934,90.79947 L34.68936,90.1788 L39.596066,90.81687 L36.886143,89.55693 L37.32774,89.18832 L35.937344,89.88518 L36.24105,89.96712 L35.992374,90.042015 L34.42199,90.78901 L34.76949,91.354256 L35.713467,90.315346 L35.900356,90.549095 L35.134914,89.80349 L34.55083,88.86147 L36.788887,91.44568 L35.19432,89.59716 L38.197346,91.726326 M47.238605,89.61054 L45.5864,90.4136 L44.217598,90.56044 L45.797783,90.54486 L46.354992,90.13175 L46.521973,91.66006 L45.3708,89.76648 L44.129406,88.1294 L47.06809,88.93191 L45.302525,89.30253 L46.7018,88.10907 L45.406338,88.11194 M56.860516,91.2953 L49.723034,88.06329 L59.005363,89.65234 L54.165718,90.2651 L51.55208,89.52408 L51.638176,90.929344 L54.09382,89.43657 L48.652946,88.21765 L51.778667,90.15429 L58.036423,88.654526 L57.761112,91.25371 L56.403572,88.62635 L56.411957,90.46893 L56.0013,89.21252 L50.713287,91.09557 L51.998604,88.587326 L54.08406,89.91227 L53.151554,90.48489 L53.99378,90.03738 L54.9716,88.985954 L55.63826,91.15636 L53.62074,89.393295 M60.590874,88.59087 L61.694798,90.09596 L61.72628,89.12948 L62.727097,90.26985 L62.56679,88.47283 L60.23214,90.55587 L62.255337,89.74466 L60.81324,89.55955 L63.688183,91.68819 L62.165253,89.83475 L61.935787,89.795784 L61.88599,90.30718 M66.27397,89.2618 L64.30048,91.69952 L66.64275,88.268166 L66.406204,89.593796 L66.581116,90.581116 L65.35921,90.201485 L66.418335,91.33045 L66.47528,90.47528 L66.606834,90.22522 L65.87676,89.60807 L66.11152,90.04139 L64.585785,90.44467 M74.91868,91.212456 L78.50125,90.80185 L77.875656,90.07107 L76.48224,91.584076 L75.28152,88.08118 L75.911476,90.145065 L78.10499,89.36948 L80.59966,90.866554 L81.160416,91.43111 L72.072296,91.9759 L80.590096,88.980835 L73.63971,88.02556 L77.821884,91.06971 L80.28732,88.69279 L77.62872,90.387505 L80.40174,91.69526 L81.019936,88.993355 L82.83848,89.66393 L81.5231,90.68496 L78.797806,91.27625 L74.59798,88.86599 L73.20171,89.06712 M88.487526,89.46345 L87.78622,91.17806 L88.71268,89.21565 L88.2708,90.496254 L91.75138,89.48823 L88.04496,90.035324 L87.369415,89.85676 L85.186325,91.40684 L89.16267,90.58133 L89.67488,90.38046 L87.99691,90.01702 L88.892555,89.55372 L87.22094,88.572334 L86.850845,90.15677 L88.08759,89.94646 L87.74509,89.79973 L90.38967,88.53912 L86.18629,89.09315" fill="none" stroke="#000" stroke-width="0.35" style="mix-blend-mode: multiply;"/>
</g>
</svg>