<?xml version="1.0" encoding="UTF-8" standalone="no"?>
<svg
   xmlns:dc="http://purl.org/dc/elements/1.1/"
   xmlns:cc="http://creativecommons.org/ns#"
   xmlns:rdf="http://www.w3.org/1999/02/22-rdf-syntax-ns#"
   xmlns:svg="http://www.w3.org/2000/svg"
   xmlns="http://www.w3.org/2000/svg"
   xmlns:sodipodi="http://sodipodi.sourceforge.net/DTD/sodipodi-0.dtd"
   xmlns:inkscape="http://www.inkscape.org/namespaces/inkscape"
   inkscape:version="1.0beta2 (2b71d25, 2019-12-03)"
   sodipodi:docname="image.svg"
   id="svg12"
   version="1.1"
   width="210mm"
   viewBox="0 0 210 297"
   style="background:black"
   height="297mm">
  <metadata
     id="metadata18">
    <rdf:RDF>
      <cc:Work
         rdf:about="">
        <dc:format>image/svg+xml</dc:format>
        <dc:type
           rdf:resource="http://purl.org/dc/dcmitype/StillImage" />
        <dc:title></dc:title>
      </cc:Work>
    </rdf:RDF>
  </metadata>
  <defs
     id="defs16" />
  <sodipodi:namedview
     inkscape:current-layer="svg12"
     inkscape:window-maximized="0"
     inkscape:window-y="23"
     inkscape:window-x="0"
     inkscape:cy="559.7892"
     inkscape:cx="396.85039"
     inkscape:zoom="0.67997314"
     showgrid="false"
     id="namedview14"
     inkscape:window-height="1510"
     inkscape:window-width="1262"
     inkscape:pageshadow="2"
     inkscape:pageopacity="0"
     guidetolerance="10"
     gridtolerance="10"
     objecttolerance="10"
     borderopacity="1"
     inkscape:document-rotation="0"
     bordercolor="#666666"
     pagecolor="#000000" />
  <path
     id="path10"
     stroke-width="0.5"
     stroke="white"
     fill="none"
     d="M103,12.8 L105,10 L107,12.8 M102.97278,16.79081 L105,14 L107.02722,16.79081 M102.89111,20.854029 L105,18 L107.10889,20.854029 M102.755,24.98585 L105,22 L107.245,24.98585 M102.564445,29.182459 L105,26 L107.435555,29.182459 M102.31944,33.44005 L105,30 L107.68056,33.44005 M102.02,37.7548 L105,34 L107.98,37.7548 M101.66611,42.12291 L105,38 L108.33389,42.12291 M101.257774,46.54056 L105,42 L108.742226,46.54056 M100.795,51.00395 L105,46 L109.205,51.00395 M100.27778,55.50926 L105,50 L109.72222,55.50926 M99.70611,60.05268 L105,54 L110.29389,60.05268 M99.08,64.6304 L105,58 L110.92,64.6304 M98.399445,69.23861 L105,62 L111.600555,69.23861 M97.664444,73.8735 L105,66 L112.335556,73.8735 M96.875,78.53125 L105,70 L113.125,78.53125 M96.03111,83.20806 L105,74 L113.96889,83.20806 M95.132774,87.900116 L105,78 L114.867226,87.900116 M94.18,92.6036 L105,82 L115.82,92.6036 M93.172775,97.31471 L105,86 L116.827225,97.31471 M92.11111,102.02963 L105,90 L117.88889,102.02963 M90.995,106.74455 L105,94 L119.005,106.74455 M89.82445,111.45566 L105,98 L120.17555,111.45566 M88.59944,116.15915 L105,102 L121.40056,116.15915 M87.32,120.851204 L105,106 L122.68,120.851204 M85.986115,125.52801 L105,110 L124.013885,125.52801 M84.59778,130.18576 L105,114 L125.40222,130.18576 M83.155,134.82065 L105,118 L126.845,134.82065 M81.657776,139.42886 L105,122 L128.34222,139.42886 M80.10611,144.00658 L105,126 L129.89389,144.00658 M78.5,148.55 L105,130 L131.5,148.55 M76.83945,153.05531 L105,134 L133.16055,153.05531 M75.124435,157.51869 L105,138 L134.87556,157.51869 M73.354996,161.93636 L105,142 L136.645,161.93636 M71.53111,166.30446 L105,146 L138.46889,166.30446 M69.65278,170.61922 L105,150 L140.34723,170.61922 M67.72,174.8768 L105,154 L142.28,174.8768 M65.73277,179.07341 L105,158 L144.26723,179.07341 M63.691113,183.20523 L105,162 L146.30888,183.20523 M61.595005,187.26845 L105,166 L148.405,187.26845 M59.44444,191.25926 L105,170 L150.55556,191.25926 M57.23944,195.17384 L105,174 L152.76056,195.17384 M54.980003,199.00839 L105,178 L155.01999,199.00839 M52.666115,202.75911 L105,182 L157.3339,202.75911 M50.29778,206.42216 L105,186 L159.70222,206.42216 M47.875004,209.99374 L105,190 L162.125,209.99374 M45.39778,213.47006 L105,194 L164.60222,213.47006 M42.866108,216.84727 L105,198 L167.1339,216.84727 M40.28,220.1216 L105,202 L169.72,220.1216 M37.639442,223.28922 L105,206 L172.36057,223.28922 M34.94445,226.3463 L105,210 L175.05554,226.3463 M32.195,229.28905 L105,214 L177.805,229.28905 M29.391106,232.11366 L105,218 L180.60889,232.11366 M26.532784,234.81631 L105,222 L183.46722,234.81631 M23.62001,237.3932 L105,226 L186.37999,237.3932 M20.652779,239.8405 L105,230 L189.34723,239.8405 M17.631111,242.15443 L105,234 L192.3689,242.15443 M14.555,244.33115 L105,238 L195.445,244.33115 M11.424454,246.36687 L105,242 L198.57555,246.36687 M8.239441,248.25775 L105,246 L201.76056,248.25775 M117,248 L117,288 M114,248 L114,288 M111,248 L111,288 M108,248 L108,288 M105,248 L105,288 M102,248 L102,288 M99,248 L99,288 M96,248 L96,288" />
</svg>
