<svg height="297mm" style="background: #FF9" viewBox="0 0 210 297" width="210mm" xmlns="http://www.w3.org/2000/svg" xmlns:inkscape="http://www.inkscape.org/namespaces/inkscape">
<path d="M109,100 L111,103.4641 L109,106.92821 L111,110.3923 L115,110.3923 L117,113.85641 L121,113.85641 L125,113.85641 L127,117.32051 L125,120.78461 L127,124.24871 L129,127.712814 L131,131.17691 L129,134.64102 L131,138.10512 L135,138.10512 L139,138.10512 L141,141.56921 L139,145.03333 L141,148.49742 L145,148.49742 L147,151.96152 L145,155.42563 L143,158.88972 L145,162.35382 L149,162.35382 L153,162.35382 L155,158.88972 L159,158.88972 L161,162.35382 L165,162.35382 L167,158.88972 L169,155.42563 L173,155.42563 L177,155.42563 L181,155.42563 L183,158.88974 L185,162.35384 L189,162.35384 L191,158.88974 L187,158.88974 L185,155.42563 L181,155.42563 L179,158.88972 L177,162.35382 L173,162.35382 L169,162.35382 L165,162.35382 L161,162.35382 L159,158.88972" fill="none" stroke="black" stroke-width="0.2"/>
<path d="M109,100.6 L111,104.0641 L109,107.528206 L111,110.9923 L115,110.9923 L117,114.456406 L121,114.456406 L125,114.456406 L127,117.92051 L125,121.384605 L127,124.84871 L129,128.31282 L131,131.77692 L129,135.24103 L131,138.70512 L135,138.70512 L139,138.70512 L141,142.16922 L139,145.63333 L141,149.09743 L145,149.09743 L147,152.56152 L145,156.02563 L143,159.48973 L145,162.95383 L149,162.95383 L153,162.95383 L155,159.48973 L159,159.48973 L161,162.95383 L165,162.95383 L167,159.48973 L169,156.02563 L173,156.02563 L177,156.02563 L181,156.02563 L183,159.48975 L185,162.95384 L189,162.95384 L191,159.48975 L187,159.48975 L185,156.02563 L181,156.02563 L179,159.48973 L177,162.95383 L173,162.95383 L169,162.95383 L165,162.95383 L161,162.95383 L159,159.48973" fill="none" stroke="black" stroke-width="0.2"/>
<path d="M109,101.37844 L111,104.842545 L109,108.30665 L111,111.770744 L115,111.770744 L117,115.23485 L121,115.23485 L125,115.23485 L127,118.69895 L125,122.16305 L127,125.62715 L129,129.09125 L131,132.55534 L129,136.01945 L131,139.48355 L135,139.48355 L139,139.48355 L141,142.94765 L139,146.41176 L141,149.87585 L145,149.87585 L147,153.33995 L145,156.80406 L143,160.26816 L145,163.73225 L149,163.73225 L153,163.73225 L155,160.26816 L159,160.26816 L161,163.73225 L165,163.73225 L167,160.26816 L169,156.80406 L173,156.80406 L177,156.80406 L181,156.80406 L183,160.26817 L185,163.73227 L189,163.73227 L191,160.26817 L187,160.26817 L185,156.80406 L181,156.80406 L179,160.26816 L177,163.73225 L173,163.73225 L169,163.73225 L165,163.73225 L161,163.73225 L159,160.26816" fill="none" stroke="black" stroke-width="0.2"/>
<path d="M109,102.24232 L111,105.70642 L109,109.170525 L111,112.63462 L115,112.63462 L117,116.098724 L121,116.098724 L125,116.098724 L127,119.56283 L125,123.026924 L127,126.49103 L129,129.95512 L131,133.41922 L129,136.88333 L131,140.34743 L135,140.34743 L139,140.34743 L141,143.81152 L139,147.27563 L141,150.73973 L145,150.73973 L147,154.20383 L145,157.66794 L143,161.13203 L145,164.59613 L149,164.59613 L153,164.59613 L155,161.13203 L159,161.13203 L161,164.59613 L165,164.59613 L167,161.13203 L169,157.66794 L173,157.66794 L177,157.66794 L181,157.66794 L183,161.13205 L185,164.59615 L189,164.59615 L191,161.13205 L187,161.13205 L185,157.66794 L181,157.66794 L179,161.13203 L177,164.59613 L173,164.59613 L169,164.59613 L165,164.59613 L161,164.59613 L159,161.13203" fill="none" stroke="black" stroke-width="0.2"/>
<path d="M109,103.16682 L111,106.63092 L109,110.095024 L111,113.55912 L115,113.55912 L117,117.023224 L121,117.023224 L125,117.023224 L127,120.48733 L125,123.95142 L127,127.41553 L129,130.87964 L131,134.34373 L129,137.80785 L131,141.27194 L135,141.27194 L139,141.27194 L141,144.73604 L139,148.20015 L141,151.66425 L145,151.66425 L147,155.12834 L145,158.59245 L143,162.05655 L145,165.52065 L149,165.52065 L153,165.52065 L155,162.05655 L159,162.05655 L161,165.52065 L165,165.52065 L167,162.05655 L169,158.59245 L173,158.59245 L177,158.59245 L181,158.59245 L183,162.05656 L185,165.52066 L189,165.52066 L191,162.05656 L187,162.05656 L185,158.59245 L181,158.59245 L179,162.05655 L177,165.52065 L173,165.52065 L169,165.52065 L165,165.52065 L161,165.52065 L159,162.05655" fill="none" stroke="black" stroke-width="0.2"/>
<path d="M109,104.13919 L111,107.603294 L109,111.0674 L111,114.531494 L115,114.531494 L117,117.9956 L121,117.9956 L125,117.9956 L127,121.4597 L125,124.9238 L127,128.3879 L129,131.852 L131,135.3161 L129,138.78021 L131,142.24431 L135,142.24431 L139,142.24431 L141,145.7084 L139,149.17252 L141,152.63661 L145,152.63661 L147,156.10071 L145,159.56482 L143,163.02892 L145,166.49301 L149,166.49301 L153,166.49301 L155,163.02892 L159,163.02892 L161,166.49301 L165,166.49301 L167,163.02892 L169,159.56482 L173,159.56482 L177,159.56482 L181,159.56482 L183,163.02893 L185,166.49303 L189,166.49303 L191,163.02893 L187,163.02893 L185,159.56482 L181,159.56482 L179,163.02892 L177,166.49301 L173,166.49301 L169,166.49301 L165,166.49301 L161,166.49301 L159,163.02892" fill="none" stroke="black" stroke-width="0.2"/>
<path d="M109,105.15149 L111,108.61559 L109,112.0797 L111,115.54379 L115,115.54379 L117,119.0079 L121,119.0079 L125,119.0079 L127,122.472 L125,125.9361 L127,129.4002 L129,132.8643 L131,136.3284 L129,139.79251 L131,143.2566 L135,143.2566 L139,143.2566 L141,146.7207 L139,150.18481 L141,153.64891 L145,153.64891 L147,157.113 L145,160.57712 L143,164.04121 L145,167.50531 L149,167.50531 L153,167.50531 L155,164.04121 L159,164.04121 L161,167.50531 L165,167.50531 L167,164.04121 L169,160.57712 L173,160.57712 L177,160.57712 L181,160.57712 L183,164.04123 L185,167.50533 L189,167.50533 L191,164.04123 L187,164.04123 L185,160.57712 L181,160.57712 L179,164.04121 L177,167.50531 L173,167.50531 L169,167.50531 L165,167.50531 L161,167.50531 L159,164.04121" fill="none" stroke="black" stroke-width="0.2"/>
<path d="M109,106.19825 L111,109.66235 L109,113.12646 L111,116.59055 L115,116.59055 L117,120.05466 L121,120.05466 L125,120.05466 L127,123.51876 L125,126.98286 L127,130.44696 L129,133.91106 L131,137.37515 L129,140.83926 L131,144.30336 L135,144.30336 L139,144.30336 L141,147.76746 L139,151.23157 L141,154.69566 L145,154.69566 L147,158.15976 L145,161.62387 L143,165.08797 L145,168.55206 L149,168.55206 L153,168.55206 L155,165.08797 L159,165.08797 L161,168.55206 L165,168.55206 L167,165.08797 L169,161.62387 L173,161.62387 L175,165.08798 L177,168.55208 L173,168.55208 L169,168.55208 L165,168.55208 L161,168.55208 L157,168.55208 L155,165.08798 L151,165.08798 L149,168.55208 L145,168.55208 L141,168.55208 L137,168.55208 L133,168.55208 L129,168.55208 L127,165.08798" fill="none" stroke="black" stroke-width="0.2"/>
<path d="M109,107.27544 L111,110.73955 L109,114.20364 L111,117.66774 L115,117.66774 L117,121.13185 L121,121.13185 L125,121.13185 L127,124.59595 L125,128.06004 L127,131.52415 L131,131.52415 L135,131.52415 L137,134.98825 L141,134.98825 L143,131.52415 L145,128.06006 L149,128.06006 L151,131.52415 L155,131.52415 L157,128.06006 L161,128.06006 L163,131.52415 L165,134.98825 L169,134.98825 L171,131.52415 L175,131.52415 L177,128.06006 L181,128.06006 L183,131.52415 L185,134.98827 L187,131.52415 L185,128.06006 L183,124.59596 L185,121.13185 L187,117.667755 L189,114.20366 L187,110.73955 L185,107.27545 L183,103.81134 L179,103.81134 L177,100.347244 L173,100.347244 L171,103.81134 L169,107.27545 L167,110.73955 L165,114.20364 L163,117.667755 L161,121.13185 L157,121.13185" fill="none" stroke="black" stroke-width="0.2"/>
<path d="M109,108.37997 L111,111.84407 L109,115.308174 L111,118.77227 L115,118.77227 L117,122.236374 L121,122.236374 L125,122.236374 L127,125.70048 L125,129.16458 L127,132.62868 L131,132.62868 L135,132.62868 L137,136.09279 L141,136.09279 L143,132.6287 L145,129.16458 L149,129.16458 L151,132.6287 L155,132.6287 L157,129.16458 L161,129.16458 L163,132.6287 L165,136.09279 L169,136.09279 L171,132.6287 L175,132.6287 L177,129.1646 L181,129.1646 L183,132.6287 L185,136.09279 L187,132.6287 L185,129.1646 L183,125.700485 L185,122.23638 L187,118.77228 L189,115.30818 L187,111.84408 L185,108.379974 L183,104.91587 L179,104.91587 L177,101.451775 L173,101.451775 L171,104.91587 L169,108.379974 L167,111.84408 L165,115.308174 L163,118.77228 L161,122.23638 L157,122.23638" fill="none" stroke="black" stroke-width="0.2"/>
<path d="M109,109.50936 L111,112.973465 L109,116.43757 L111,119.901665 L115,119.901665 L117,123.36577 L121,123.36577 L125,123.36577 L127,126.82987 L125,130.29396 L127,133.75807 L131,133.75807 L135,133.75807 L137,137.22217 L141,137.22217 L143,133.75807 L145,130.29398 L149,130.29398 L151,133.75807 L155,133.75807 L157,130.29398 L161,130.29398 L163,133.75807 L165,137.22217 L169,137.22217 L171,133.75807 L175,133.75807 L177,130.29398 L181,130.29398 L183,133.75807 L185,137.22218 L187,133.75807 L185,130.29398 L183,126.82988 L185,123.365776 L187,119.90167 L189,116.43758 L187,112.97347 L185,109.50937 L183,106.045265 L179,106.045265 L177,102.58117 L173,102.58117 L171,106.045265 L169,109.50937 L167,112.97347 L165,116.43757 L163,119.90167 L161,123.365776 L157,123.365776" fill="none" stroke="black" stroke-width="0.2"/>
<path d="M109,110.661606 L111,114.12571 L109,117.58981 L111,121.05391 L115,121.05391 L117,124.51801 L121,124.51801 L125,124.51801 L127,127.98212 L125,131.44621 L127,134.91031 L131,134.91031 L135,134.91031 L137,138.37442 L141,138.37442 L143,134.91032 L145,131.44621 L149,131.44621 L151,134.91032 L155,134.91032 L157,131.44621 L161,131.44621 L163,134.91032 L165,138.37442 L169,138.37442 L171,134.91032 L175,134.91032 L177,131.44623 L181,131.44623 L183,134.91032 L185,138.37442 L187,134.91032 L185,131.44623 L183,127.982124 L185,124.51802 L187,121.05392 L189,117.58982 L187,114.12572 L185,110.66161 L183,107.19751 L179,107.19751 L177,103.73341 L173,103.73341 L169,103.73341 L165,103.73341 L161,103.733406 L157,103.733406 L153,103.733406 L149,103.733406 L147,100.2693" fill="none" stroke="black" stroke-width="0.2"/>
<path d="M109,111.835014 L111,115.29912 L109,118.76322 L111,122.22732 L115,122.22732 L117,125.69142 L121,125.69142 L125,125.69142 L127,129.15553 L125,132.61963 L127,136.08372 L131,136.08372 L135,136.08372 L137,139.54784 L141,139.54784 L143,136.08374 L145,132.61963 L149,132.61963 L151,136.08374 L155,136.08374 L157,132.61963 L161,132.61963 L163,136.08374 L165,139.54784 L169,139.54784 L171,136.08374 L175,136.08374 L177,132.61964 L181,132.61964 L183,136.08374 L185,139.54784 L187,136.08374 L185,132.61964 L183,129.15553 L185,125.69143 L187,122.227325 L189,118.76323 L187,115.299126 L185,111.83502 L183,108.37092 L179,108.37092 L175,108.37092 L173,111.83502 L171,115.299126 L169,118.76323 L167,122.227325 L165,125.69143 L163,129.15553 L161,132.61964 L157,132.61964" fill="none" stroke="black" stroke-width="0.2"/>
<path d="M109,113.02817 L111,116.49227 L109,119.956375 L111,123.42047 L115,123.42047 L117,126.884575 L121,126.884575 L125,126.884575 L127,130.34868 L125,133.81277 L127,137.27689 L131,137.27689 L135,137.27689 L137,140.74098 L141,140.74098 L143,137.27689 L145,133.81277 L149,133.81277 L151,137.27689 L155,137.27689 L157,133.81277 L161,133.81277 L163,137.27689 L165,140.74098 L169,140.74098 L171,137.27689 L175,137.27689 L177,133.81279 L181,133.81279 L183,137.27689 L185,140.741 L187,137.27689 L185,133.81279 L183,130.3487 L185,126.88458 L187,123.42048 L189,119.95638 L187,116.49228 L185,113.028175 L183,109.56407 L179,109.56407 L175,109.56407 L173,113.028175 L171,116.49228 L169,119.95638 L167,123.42048 L165,126.88458 L163,130.3487 L161,133.81279 L157,133.81279" fill="none" stroke="black" stroke-width="0.2"/>
<path d="M109,114.23984 L111,117.70394 L109,121.168045 L111,124.63214 L115,124.63214 L117,128.09624 L121,128.09624 L125,128.09624 L127,131.56035 L125,135.02444 L127,138.48854 L131,138.48854 L135,138.48854 L137,141.95265 L141,141.95265 L143,138.48856 L145,135.02444 L149,135.02444 L151,138.48856 L155,138.48856 L157,135.02444 L161,135.02444 L163,138.48856 L165,141.95265 L169,141.95265 L171,138.48856 L173,135.02446 L171,131.56035 L173,128.09625 L177,128.09625 L181,128.09625 L183,124.63216 L185,121.16805 L187,117.70395 L189,114.239845 L191,110.77575 L193,107.311646 L191,103.84754 L187,103.84754 L183,103.84754 L181,107.311646 L179,110.77575 L181,114.239845 L183,117.70395 L185,121.16805 L183,124.63216 L181,128.09625 L179,131.56035 L177,135.02446 L173,135.02446" fill="none" stroke="black" stroke-width="0.2"/>
<path d="M109,115.46895 L111,118.93305 L109,122.397156 L111,125.86125 L115,125.86125 L117,129.32536 L121,129.32536 L125,129.32536 L127,132.78946 L125,136.25356 L127,139.71767 L131,139.71767 L135,139.71767 L137,143.18176 L141,143.18176 L143,139.71767 L145,136.25357 L149,136.25357 L151,139.71767 L155,139.71767 L157,136.25357 L161,136.25357 L163,139.71767 L165,143.18176 L169,143.18176 L171,139.71767 L173,136.25357 L171,132.78947 L173,129.32536 L177,129.32536 L181,129.32536 L183,125.86127 L185,122.39716 L187,118.93306 L189,115.468956 L191,112.00486 L193,108.54076 L191,105.07665 L187,105.07665 L183,105.07665 L181,108.54076 L179,112.00486 L181,115.468956 L183,118.93306 L185,122.39716 L183,125.86127 L181,129.32536 L179,132.78947 L177,136.25357 L173,136.25357" fill="none" stroke="black" stroke-width="0.2"/>
<path d="M109,116.71458 L111,120.17868 L109,123.642784 L111,127.10688 L115,127.10688 L117,130.57098 L121,130.57098 L125,130.57098 L127,134.03508 L125,137.49918 L127,140.96329 L131,140.96329 L135,140.96329 L137,144.42738 L141,144.42738 L143,140.96329 L145,137.49919 L149,137.49919 L151,140.96329 L155,140.96329 L157,137.49919 L161,137.49919 L163,140.96329 L165,144.42738 L169,144.42738 L171,140.96329 L173,137.49919 L171,134.0351 L173,130.57098 L177,130.57098 L181,130.57098 L183,127.106895 L185,123.64279 L187,120.17869 L189,116.714584 L191,113.25049 L193,109.786385 L191,106.32228 L187,106.32228 L183,106.32228 L181,109.786385 L179,113.25049 L181,116.714584 L183,120.17869 L185,123.64279 L183,127.106895 L181,130.57098 L179,134.0351 L177,137.49919 L173,137.49919" fill="none" stroke="black" stroke-width="0.2"/>
<path d="M109,117.975876 L111,121.43998 L109,124.90408 L111,128.36818 L115,128.36818 L117,131.83228 L121,131.83228 L125,131.83228 L127,135.29639 L125,138.76048 L127,142.22458 L131,142.22458 L135,142.22458 L137,145.68869 L141,145.68869 L143,142.2246 L145,138.76048 L149,138.76048 L151,142.2246 L155,142.2246 L157,138.76048 L161,138.76048 L163,142.2246 L165,145.68869 L169,145.68869 L171,142.2246 L173,138.7605 L171,135.29639 L173,131.83229 L177,131.83229 L181,131.83229 L183,128.3682 L185,124.90409 L187,121.43999 L189,117.97588 L191,114.51179 L193,111.04768 L191,107.58358 L187,107.58358 L183,107.58358 L181,111.04768 L179,114.51179 L181,117.97588 L183,121.43999 L185,124.90409 L183,128.3682 L181,131.83229 L179,135.29639 L177,138.7605 L173,138.7605" fill="none" stroke="black" stroke-width="0.2"/>
<path d="M109,119.252106 L111,122.71622 L109,126.18031 L111,129.64441 L115,129.64441 L117,133.10852 L121,133.10852 L125,133.10852 L127,136.57262 L125,140.03671 L127,143.50082 L131,143.50082 L135,143.50082 L137,146.96492 L141,146.96492 L143,143.50082 L145,140.03673 L149,140.03673 L151,143.50082 L155,143.50082 L157,140.03673 L161,140.03673 L163,143.50082 L165,146.96492 L169,146.96492 L171,143.50082 L173,140.03673 L171,136.57263 L173,133.10852 L177,133.10852 L181,133.10852 L183,129.64442 L185,126.18033 L187,122.71622 L189,119.25212 L191,115.788025 L193,112.32391 L191,108.85982 L187,108.85982 L183,108.85982 L181,112.32391 L179,115.788025 L181,119.25212 L183,122.71622 L185,126.18033 L183,129.64442 L181,133.10852 L179,136.57263 L177,140.03673 L173,140.03673" fill="none" stroke="black" stroke-width="0.2"/>
<path d="M109,120.54261 L111,124.006714 L109,127.47082 L111,130.9349 L115,130.9349 L117,134.39902 L121,134.39902 L125,134.39902 L127,137.86313 L125,141.32721 L127,144.79132 L131,144.79132 L135,144.79132 L137,148.25543 L141,148.25543 L143,144.79132 L145,141.32722 L149,141.32722 L151,144.79132 L155,144.79132 L157,141.32722 L161,141.32722 L163,144.79132 L165,148.25543 L169,148.25543 L171,144.79132 L173,141.32724 L171,137.86313 L173,134.39902 L177,134.39902 L181,134.39902 L183,130.93494 L185,127.470825 L187,124.00672 L189,120.54262 L191,117.07852 L193,113.61442 L191,110.150314 L187,110.150314 L183,110.150314 L181,113.61442 L179,117.07852 L181,120.54262 L183,124.00672 L185,127.470825 L183,130.93494 L181,134.39902 L179,137.86313 L177,141.32724 L173,141.32724" fill="none" stroke="black" stroke-width="0.2"/>
<path d="M109,121.84677 L111,125.31088 L109,128.77498 L111,132.23907 L115,132.23907 L117,135.70319 L121,135.70319 L125,135.70319 L127,139.16728 L125,142.63138 L127,146.09549 L131,146.09549 L135,146.09549 L137,149.55959 L141,149.55959 L143,146.09549 L145,142.6314 L149,142.6314 L151,146.09549 L155,146.09549 L157,142.6314 L161,142.6314 L163,146.09549 L165,149.55959 L169,149.55959 L171,146.09549 L173,142.6314 L171,139.1673 L173,135.70319 L177,135.70319 L179,139.1673 L183,139.1673 L185,142.6314 L183,146.09549 L179,146.09549 L177,142.6314 L179,139.1673 L181,135.70319 L183,132.23909 L185,128.775 L183,125.31088 L181,121.84679 L177,121.84679 L173,121.84679 L171,118.38269 L169,114.91858 L167,111.45448 L165,107.99037 L167,104.526276 L171,104.526276" fill="none" stroke="black" stroke-width="0.2"/>
<path d="M107,126.62815 L105,130.09225 L101,130.09225 L99,133.55635 L101,137.02046 L99,140.48456 L101,143.94865 L103,147.41277 L101,150.87686 L97,150.87686 L95,154.34096 L97,157.80507 L99,161.26917 L97,164.73326 L99,168.19737 L103,168.19737 L107,168.19737 L109,171.66147 L107,175.12556 L109,178.58968 L113,178.58968 L115,182.05377 L113,185.51787 L109,185.51787 L105,185.51787 L101,185.51787 L97,185.51787 L93,185.51787 L91,182.05377 L93,178.58968 L97,178.58968 L99,175.12556 L101,171.66147 L105,171.66147 L107,175.12556 L105,178.58968 L101,178.58968 L97,178.58968 L93,178.58968 L89,178.58968 L87,182.05377 L85,185.51787 L89,185.51787 L93,185.51787 L97,185.51787 L101,185.51787 L105,185.51787 L109,185.51787 L113,185.51787 L117,185.51787" fill="none" stroke="black" stroke-width="0.2"/>
<path d="M107,127.95804 L105,131.42215 L101,131.42213 L99,134.88623 L101,138.35034 L99,141.81445 L101,145.27853 L103,148.74265 L101,152.20676 L97,152.20676 L95,155.67084 L97,159.13495 L99,162.59906 L97,166.06314 L99,169.52725 L103,169.52725 L107,169.52725 L109,172.99136 L107,176.45544 L109,179.91956 L113,179.91956 L115,183.38367 L113,186.84775 L109,186.84775 L105,186.84775 L101,186.84775 L97,186.84775 L93,186.84775 L91,183.38367 L93,179.91956 L97,179.91956 L99,176.45544 L101,172.99136 L105,172.99136 L107,176.45544 L105,179.91956 L101,179.91956 L97,179.91956 L93,179.91956 L89,179.91956 L87,183.38367 L85,186.84775 L89,186.84775 L93,186.84775 L97,186.84775 L101,186.84775 L103,183.38367 L105.00001,179.91956 L109.00001,179.91956 L111.00001,183.38367" fill="none" stroke="black" stroke-width="0.2"/>
<path d="M107,129.30008 L105,132.76418 L101,132.76416 L99,136.22827 L101,139.69238 L99,143.15648 L101,146.62057 L103,150.08469 L101,153.54878 L97,153.54878 L95,157.01288 L97,160.47699 L99,163.94109 L97,167.40518 L99,170.8693 L103,170.8693 L107,170.8693 L109,174.33339 L107,177.79749 L109,181.2616 L113,181.2616 L115,184.7257 L113,188.18979 L109,188.18979 L105,188.18979 L101,188.18979 L97,188.18979 L93,188.18979 L91,184.7257 L93,181.2616 L97,181.2616 L99,177.79749 L101,174.33339 L105,174.33339 L107,177.79749 L105,181.2616 L101,181.2616 L97,181.2616 L93,181.2616 L89,181.2616 L87,184.7257 L85,188.18979 L89,188.18979 L93,188.18979 L97,188.18979 L101,188.18979 L103,184.7257 L105.00001,181.2616 L109.00001,181.2616 L111.00001,184.7257" fill="none" stroke="black" stroke-width="0.2"/>
<path d="M107,130.65382 L105,134.11794 L101,134.11792 L99,137.58203 L101,141.04613 L99,144.51024 L101,147.97433 L103,151.43843 L101,154.90254 L97,154.90254 L95,158.36664 L97,161.83075 L99,165.29485 L97,168.75894 L99,172.22305 L103,172.22305 L107,172.22305 L109,175.68715 L107,179.15125 L109,182.61536 L113,182.61536 L115,186.07945 L113,189.54355 L109,189.54355 L105,189.54355 L101,189.54355 L97,189.54355 L93,189.54355 L91,186.07945 L93,182.61536 L97,182.61536 L99,179.15125 L101,175.68715 L105,175.68715 L107,179.15125 L105,182.61536 L101,182.61536 L97,182.61536 L93,182.61536 L89,182.61536 L87,186.07945 L85,189.54355 L89,189.54355 L93,189.54355 L97,189.54355 L101,189.54355 L103,186.07945 L105.00001,182.61536 L109.00001,182.61536 L111.00001,186.07945" fill="none" stroke="black" stroke-width="0.2"/>
<path d="M107,132.01892 L105,135.48302 L101,135.48302 L99,138.94711 L101,142.41122 L99,145.87532 L101,149.33942 L103,152.80353 L101,156.26762 L97,156.26762 L95,159.73172 L97,163.19583 L99,166.65993 L97,170.12402 L99,173.58813 L103,173.58813 L107,173.58813 L109,177.05223 L107,180.51633 L109,183.98044 L113,183.98044 L115,187.44453 L113,190.90863 L109,190.90863 L105,190.90863 L101,190.90863 L97,190.90863 L93,190.90863 L91,187.44453 L93,183.98044 L97,183.98044 L99,180.51633 L101,177.05223 L105,177.05223 L107,180.51633 L105,183.98044 L101,183.98044 L97,183.98044 L93,183.98044 L89,183.98044 L87,187.44453 L85,190.90863 L89,190.90863 L93,190.90863 L97,190.90863 L101,190.90863 L103,187.44453 L105.00001,183.98044 L109.00001,183.98044 L111.00001,187.44453" fill="none" stroke="black" stroke-width="0.2"/>
<path d="M107,133.39497 L105,136.85907 L101,136.85907 L99,140.32318 L101,143.78728 L99,147.25137 L101,150.71548 L103,154.17958 L101,157.64368 L97,157.64368 L95,161.10779 L97,164.5719 L99,168.03598 L97,171.50009 L99,174.9642 L103,174.9642 L107,174.9642 L109,178.42828 L107,181.8924 L109,185.3565 L113,185.3565 L115,188.82059 L113,192.2847 L109,192.2847 L105,192.2847 L101,192.2847 L97,192.2847 L93,192.2847 L91,188.82059 L93,185.3565 L97,185.3565 L99,181.8924 L101,178.42828 L105,178.42828 L107,181.8924 L105,185.3565 L101,185.3565 L97,185.3565 L93,185.3565 L89,185.3565 L87,188.82059 L85,192.2847 L89,192.2847 L93,192.2847 L97,192.2847 L101,192.2847 L103,188.82059 L105.00001,185.3565 L109.00001,185.3565 L111.00001,188.82059" fill="none" stroke="black" stroke-width="0.2"/>
<path d="M107,134.78166 L105,138.24576 L101,138.24576 L99,141.70985 L101,145.17397 L99,148.63806 L101,152.10216 L103,155.56627 L101,159.03036 L97,159.03036 L95,162.49446 L97,165.95857 L99,169.42267 L97,172.88676 L99,176.35088 L103,176.35088 L107,176.35088 L109,179.81497 L107,183.27907 L109,186.74318 L113,186.74318 L115,190.20728 L113,193.67137 L109,193.67137 L105,193.67137 L101,193.67137 L97,193.67137 L93,193.67137 L91,190.20728 L93,186.74318 L97,186.74318 L99,183.27907 L101,179.81497 L105,179.81497 L107,183.27907 L105,186.74318 L101,186.74318 L97,186.74318 L93,186.74318 L89,186.74318 L87,190.20728 L85,193.67137 L89,193.67137 L93,193.67137 L97,193.67137 L101,193.67137 L103,190.20728 L105.00001,186.74318 L109.00001,186.74318 L111.00001,190.20728" fill="none" stroke="black" stroke-width="0.2"/>
<path d="M107,136.17865 L105,139.64276 L101,139.64275 L99,143.10686 L101,146.57095 L99,150.03506 L101,153.49916 L103,156.96326 L101,160.42737 L97,160.42737 L95,163.89146 L97,167.35558 L99,170.81967 L97,174.28377 L99,177.74788 L103,177.74788 L107,177.74788 L109,181.21198 L107,184.67607 L109,188.14018 L113,188.14018 L115,191.60428 L113,195.06837 L109,195.06837 L105,195.06837 L101,195.06837 L97,195.06837 L93,195.06837 L91,191.60428 L93,188.14018 L97,188.14018 L99,184.67607 L101,181.21198 L105,181.21198 L107,184.67607 L105,188.14018 L101,188.14018 L97,188.14018 L93,188.14018 L89,188.14018 L87,191.60428 L85,195.06837 L89,195.06837 L93,195.06837 L97,195.06837 L101,195.06837 L103,191.60428 L105.00001,188.14018 L109.00001,188.14018 L111.00001,191.60428" fill="none" stroke="black" stroke-width="0.2"/>
<path d="M107,137.58566 L105,141.04977 L101,141.04976 L99,144.51387 L101,147.97797 L99,151.44208 L101,154.90617 L103,158.37027 L101,161.83438 L97,161.83438 L95,165.29848 L97,168.76259 L99,172.22668 L97,175.69078 L99,179.15489 L103,179.15489 L107,179.15489 L109,182.61899 L107,186.08308 L109,189.5472 L113,189.5472 L115,193.01129 L113,196.47539 L109,196.47539 L105,196.47539 L101,196.47539 L97,196.47539 L93,196.47539 L91,193.01129 L93,189.5472 L97,189.5472 L99,186.08308 L101,182.61899 L105,182.61899 L107,186.08308 L105,189.5472 L101,189.5472 L97,189.5472 L93,189.5472 L89,189.5472 L87,193.01129 L85,196.47539 L89,196.47539 L93,196.47539 L97,196.47539 L101,196.47539 L103,193.01129 L105.00001,189.5472 L109.00001,189.5472 L111.00001,193.01129" fill="none" stroke="black" stroke-width="0.2"/>
<path d="M107,139.00243 L105,142.46652 L101,142.46652 L99,145.93062 L101,149.39473 L99,152.85883 L101,156.32292 L103,159.78703 L101,163.25113 L97,163.25113 L95,166.71523 L97,170.17934 L99,173.64343 L97,177.10753 L99,180.57164 L103,180.57164 L107,180.57164 L109,184.03574 L107,187.49983 L109,190.96394 L113,190.96394 L115,194.42804 L113,197.89214 L109,197.89214 L105,197.89214 L101,197.89214 L97,197.89214 L93,197.89214 L91,194.42804 L93,190.96394 L97,190.96394 L99,187.49983 L101,184.03574 L105,184.03574 L107,187.49983 L105,190.96394 L101,190.96394 L97,190.96394 L93,190.96394 L89,190.96394 L87,194.42804 L85,197.89214 L89,197.89214 L93,197.89214 L97,197.89214 L101,197.89214 L103,194.42804 L105.00001,190.96394 L109.00001,190.96394 L111.00001,194.42804" fill="none" stroke="black" stroke-width="0.2"/>
<path d="M107,140.42865 L105,143.89276 L101,143.89275 L99,147.35684 L101,150.82095 L99,154.28506 L101,157.74915 L105,157.74915 L107,161.21326 L105,164.67737 L107,168.14145 L111,168.14145 L115,168.14145 L117,171.60556 L121,171.60556 L123,168.14145 L125,164.67737 L129,164.67737 L131,168.14145 L135,168.14145 L137,164.67737 L141,164.67737 L143,168.14145 L141,171.60556 L143,175.06967 L147,175.06967 L151,175.06967 L153,171.60556 L157,171.60556 L159,175.06967 L157,178.53375 L155,181.99786 L153,185.46198 L149,185.46198 L147,181.99786 L149,178.53375 L153,178.53375 L157,178.53375 L161,178.53375 L165,178.53375 L167,175.06967 L169,171.60556 L167,168.14145 L165,164.67737 L167,161.21326 L169,157.74916 L167,154.28506 L165,150.82095 L167,147.35686 L171,147.35686" fill="none" stroke="black" stroke-width="0.2"/>
<path d="M107,141.8641 L105,145.32822 L101,145.3282 L99,148.79231 L101,152.25641 L99,155.72052 L101,159.18462 L105,159.18462 L107,162.64871 L105,166.11282 L107,169.57692 L111,169.57692 L115,169.57692 L117,173.04103 L121,173.04103 L123,169.57692 L125,166.11282 L129,166.11282 L131,169.57692 L135,169.57692 L137,166.11282 L141,166.11282 L143,169.57692 L141,173.04103 L143,176.50513 L147,176.50513 L151,176.50513 L153,173.04103 L157,173.04103 L159,176.50513 L157,179.96922 L155,183.43333 L153,186.89743 L149,186.89743 L147,183.43333 L149,179.96922 L153,179.96922 L157,179.96922 L161,179.96922 L165,179.96922 L167,176.50513 L169,173.04103 L167,169.57692 L165,166.11282 L167,162.64873 L169,159.18462 L167,155.72052 L165,152.25642 L167,148.79231 L171,148.79231" fill="none" stroke="black" stroke-width="0.2"/>
<path d="M107,143.30858 L105,146.77267 L101,146.77267 L99,150.23677 L101,153.70088 L99,157.16498 L101,160.62907 L105,160.62907 L107,164.09319 L105,167.55728 L107,171.02138 L111,171.02138 L115,171.02138 L117,174.48549 L121,174.48549 L123,171.02138 L125,167.55728 L129,167.55728 L131,171.02138 L135,171.02138 L137,167.55728 L141,167.55728 L143,171.02138 L141,174.48549 L143,177.94958 L147,177.94958 L151,177.94958 L153,174.48549 L157,174.48549 L159,177.94958 L157,181.41368 L155,184.87779 L153,188.34189 L149,188.34189 L147,184.87779 L149,181.41368 L153,181.41368 L157,181.41368 L161,181.41368 L165,181.41368 L167,177.94958 L169,174.48549 L167,171.02138 L165,167.55728 L167,164.09319 L169,160.62909 L167,157.16498 L165,153.70088 L167,150.23679 L171,150.23679" fill="none" stroke="black" stroke-width="0.2"/>
<path d="M107,144.76183 L105,148.22592 L101,148.22592 L99,151.69002 L101,155.15413 L99,158.61823 L101,162.08232 L105,162.08232 L107,165.54643 L105,169.01053 L107,172.47462 L111,172.47462 L115,172.47462 L117,175.93874 L121,175.93874 L123,172.47462 L125,169.01053 L129,169.01053 L131,172.47462 L135,172.47462 L137,169.01053 L141,169.01053 L143,172.47462 L141,175.93874 L143,179.40283 L147,179.40283 L151,179.40283 L153,175.93874 L157,175.93874 L159,179.40283 L157,182.86693 L155,186.33104 L153,189.79514 L149,189.79514 L147,186.33104 L149,182.86693 L153,182.86693 L157,182.86693 L161,182.86693 L165,182.86693 L167,179.40283 L169,175.93874 L167,172.47462 L165,169.01053 L167,165.54643 L169,162.08234 L167,158.61823 L165,155.15413 L167,151.69003 L171,151.69003" fill="none" stroke="black" stroke-width="0.2"/>
<path d="M107,146.22363 L105,149.68774 L101,149.68774 L99,153.15184 L101,156.61594 L99,160.08005 L101,163.54414 L105,163.54414 L107,167.00824 L105,170.47235 L107,173.93645 L111,173.93645 L115,173.93645 L117,177.40056 L121,177.40056 L123,173.93645 L125,170.47235 L129,170.47235 L131,173.93645 L135,173.93645 L137,170.47235 L141,170.47235 L143,173.93645 L141,177.40056 L143,180.86465 L147,180.86465 L151,180.86465 L153,177.40056 L157,177.40056 L159,180.86465 L157,184.32875 L155,187.79286 L153,191.25696 L149,191.25696 L147,187.79286 L149,184.32875 L153,184.32875 L157,184.32875 L161,184.32875 L165,184.32875 L167,180.86465 L169,177.40056 L167,173.93645 L165,170.47235 L167,167.00826 L169,163.54416 L167,160.08005 L165,156.61595 L167,153.15186 L171,153.15186" fill="none" stroke="black" stroke-width="0.2"/>
<path d="M107,147.69385 L105,151.15794 L101,151.15793 L99,154.62204 L101,158.08615 L99,161.55025 L101,165.01434 L105,165.01434 L107,168.47845 L105,171.94255 L107,175.40665 L111,175.40665 L115,175.40665 L117,178.87076 L119,182.33485 L123,182.33485 L127,182.33485 L129,185.79895 L127,189.26306 L129,192.72716 L133,192.72716 L135,196.19125 L133,199.65536 L129,199.65536 L127,203.11946 L129,206.58356 L133,206.58356 L135,203.11946 L139,203.11946 L141,206.58356 L137,206.58356 L133,206.58356 L129,206.58356 L127,203.11946 L129,199.65536 L133,199.65536 L135,203.11946 L137,206.58356 L141,206.58356 L145,206.58356 L147,203.11946 L149,199.65536 L147,196.19125 L145,192.72716 L147,189.26306 L149,185.79895 L147,182.33485 L145,178.87076 L147,175.40665 L151,175.40665" fill="none" stroke="black" stroke-width="0.2"/>
<path d="M107,149.17223 L105,152.63634 L101,152.63632 L99,156.10043 L101,159.56453 L99,163.02864 L101,166.49274 L105,166.49274 L107,169.95683 L105,173.42094 L107,176.88504 L111,176.88504 L115,176.88504 L117,180.34915 L119,183.81325 L123,183.81325 L127,183.81325 L129,187.27734 L127,190.74146 L129,194.20555 L133,194.20555 L135,197.66965 L133,201.13376 L129,201.13376 L127,204.59785 L129,208.06195 L133,208.06195 L135,204.59785 L139,204.59785 L141,208.06195 L137,208.06195 L133,208.06195 L129,208.06195 L127,204.59785 L129,201.13376 L133,201.13376 L135,204.59785 L137,208.06195 L141,208.06195 L145,208.06195 L147,204.59785 L149,201.13376 L147,197.66965 L145,194.20555 L147,190.74146 L149,187.27734 L147,183.81325 L145,180.34915 L147,176.88504 L151,176.88504" fill="none" stroke="black" stroke-width="0.2"/>
<path d="M107,150.65863 L105,154.12274 L101,154.12273 L99,157.58684 L101,161.05093 L99,164.51505 L101,167.97914 L105,167.97914 L107,171.44324 L105,174.90735 L107,178.37144 L111,178.37144 L115,178.37144 L117,181.83556 L119,185.29965 L123,185.29965 L127,185.29965 L129,188.76375 L127,192.22786 L129,195.69196 L133,195.69196 L135,199.15605 L133,202.62016 L129,202.62016 L127,206.08426 L129,209.54836 L133,209.54836 L135,206.08426 L139,206.08426 L141,209.54836 L137,209.54836 L133,209.54836 L129,209.54836 L127,206.08426 L129,202.62016 L133,202.62016 L135,206.08426 L137,209.54836 L141,209.54836 L145,209.54836 L147,206.08426 L149,202.62016 L147,199.15605 L145,195.69196 L147,192.22786 L149,188.76375 L147,185.29965 L145,181.83556 L147,178.37144 L151,178.37144" fill="none" stroke="black" stroke-width="0.2"/>
<path d="M107,152.15288 L105,155.61699 L101,155.61697 L99,159.08109 L101,162.54518 L99,166.0093 L101,169.47339 L105,169.47339 L107,172.93748 L105,176.4016 L107,179.86569 L111,179.86569 L115,179.86569 L117,183.3298 L119,186.7939 L123,186.7939 L127,186.7939 L129,190.258 L127,193.7221 L129,197.1862 L133,197.1862 L135,200.6503 L133,204.11441 L129,204.11441 L127,207.5785 L129,211.0426 L133,211.0426 L135,207.5785 L139,207.5785 L141,211.0426 L137,211.0426 L133,211.0426 L129,211.0426 L127,207.5785 L129,204.11441 L133,204.11441 L135,207.5785 L137,211.0426 L141,211.0426 L145,211.0426 L147,207.5785 L149,204.11441 L147,200.6503 L145,197.1862 L147,193.7221 L149,190.258 L147,186.7939 L145,183.3298 L147,179.86569 L151,179.86569" fill="none" stroke="black" stroke-width="0.2"/>
<path d="M107,153.65482 L105,157.11891 L101,157.11891 L99,160.58301 L101,164.04712 L99,167.51122 L101,170.97531 L105,170.97531 L107,174.43942 L105,177.90352 L107,181.36761 L111,181.36761 L115,181.36761 L117,184.83173 L119,188.29582 L123,188.29582 L127,188.29582 L129,191.75992 L127,195.22403 L129,198.68813 L133,198.68813 L135,202.15222 L133,205.61633 L129,205.61633 L127,209.08043 L129,212.54453 L133,212.54453 L135,209.08043 L139,209.08043 L141,212.54453 L137,212.54453 L133,212.54453 L131,209.08043 L133,205.61633 L137,205.61633 L139,209.08043 L137,212.54453 L133,212.54453 L129,212.54453 L125,212.54453 L121,212.54453 L117,212.54453 L113,212.54453 L109,212.54453 L107,209.08043 L105,205.61633 L101,205.61633 L97,205.61633 L95,202.15222 L97,198.68813" fill="none" stroke="black" stroke-width="0.2"/>
<path d="M107,155.16428 L105,158.62837 L101,158.62837 L99,162.09247 L101,165.55658 L99,169.02068 L101,172.48477 L105,172.48477 L107,175.94888 L105,179.41298 L107,182.87708 L111,182.87708 L115,182.87708 L117,186.34119 L119,189.80528 L123,189.80528 L127,189.80528 L129,193.26938 L127,196.73349 L129,200.19759 L133,200.19759 L135,203.66168 L133,207.1258 L129,207.1258 L127,210.58989 L129,214.05399 L133,214.05399 L135,210.58989 L139,210.58989 L141,214.05399 L137,214.05399 L133,214.05399 L131,210.58989 L133,207.1258 L137,207.1258 L139,210.58989 L137,214.05399 L133,214.05399 L129,214.05399 L125,214.05399 L121,214.05399 L117,214.05399 L113,214.05399 L109,214.05399 L107,210.58989 L105,207.1258 L101,207.1258 L97,207.1258 L95,203.66168 L97,200.19759" fill="none" stroke="black" stroke-width="0.2"/>
<path d="M107,156.68112 L105,160.14522 L101,160.1452 L99,163.60931 L101,167.07343 L99,170.53752 L101,174.00162 L105,174.00162 L107,177.46573 L105,180.92982 L107,184.39392 L111,184.39392 L115,184.39392 L117,187.85803 L119,191.32213 L123,191.32213 L127,191.32213 L129,194.78622 L127,198.25034 L129,201.71443 L133,201.71443 L135,205.17853 L133,208.64264 L129,208.64264 L127,212.10674 L129,215.57083 L133,215.57083 L135,212.10674 L139,212.10674 L141,215.57083 L137,215.57083 L133,215.57083 L131,212.10674 L133,208.64264 L137,208.64264 L139,212.10674 L137,215.57083 L133,215.57083 L129,215.57083 L125,215.57083 L121,215.57083 L117,215.57083 L113,215.57083 L109,215.57083 L107,212.10674 L105,208.64264 L101,208.64264 L97,208.64264 L95,205.17853 L97,201.71443" fill="none" stroke="black" stroke-width="0.2"/>
<path d="M107,158.2052 L105,161.66931 L101,161.6693 L99,165.1334 L101,168.5975 L99,172.06161 L101,175.52571 L105,175.52571 L107,178.9898 L105,182.45392 L107,185.91801 L111,185.91801 L115,185.91801 L117,189.38213 L119,192.84622 L123,192.84622 L127,192.84622 L129,196.31032 L127,199.77443 L129,203.23853 L133,203.23853 L135,206.70262 L133,210.16673 L129,210.16673 L127,213.63083 L129,217.09492 L133,217.09492 L135,213.63083 L139,213.63083 L141,217.09492 L137,217.09492 L133,217.09492 L131,213.63083 L133,210.16673 L137,210.16673 L139,213.63083 L137,217.09492 L133,217.09492 L129,217.09492 L125,217.09492 L121,217.09492 L117,217.09492 L113,217.09492 L109,217.09492 L107,213.63083 L105,210.16673 L101,210.16673 L97,210.16673 L95,206.70262 L97,203.23853" fill="none" stroke="black" stroke-width="0.2"/>
<path d="M107,159.73639 L105,163.2005 L101,163.20049 L99,166.66458 L101,170.1287 L99,173.5928 L101,177.05688 L105,177.05688 L107,180.521 L105,183.9851 L107,187.44919 L111,187.44919 L115,187.44919 L117,190.9133 L119,194.37741 L123,194.37741 L127,194.37741 L129,197.84149 L127,201.3056 L129,204.76971 L133,204.76971 L135,208.2338 L133,211.6979 L129,211.6979 L127,215.16202 L129,218.6261 L133,218.6261 L135,215.16202 L139,215.16202 L141,218.6261 L137,218.6261 L133,218.6261 L131,215.16202 L133,211.6979 L137,211.6979 L139,215.16202 L137,218.6261 L133,218.6261 L129,218.6261 L125,218.6261 L121,218.6261 L117,218.6261 L113,218.6261 L109,218.6261 L107,215.16202 L105,211.6979 L101,211.6979 L97,211.6979 L95,208.2338 L97,204.76971" fill="none" stroke="black" stroke-width="0.2"/>
<path d="M107,161.27455 L105,164.73866 L101,164.73865 L99,168.20276 L101,171.66685 L99,175.13097 L101,178.59506 L105,178.59506 L107,182.05916 L105,185.52327 L107,188.98737 L111,188.98737 L115,188.98737 L117,192.45148 L119,195.91557 L123,195.91557 L127,195.91557 L129,199.37967 L127,202.84378 L129,206.30788 L133,206.30788 L135,209.77197 L133,213.23608 L129,213.23608 L127,216.70018 L129,220.16428 L133,220.16428 L135,216.70018 L139,216.70018 L141,220.16428 L137,220.16428 L133,220.16428 L131,216.70018 L133,213.23608 L137,213.23608 L139,216.70018 L137,220.16428 L133,220.16428 L129,220.16428 L127,216.70018 L123,216.70018 L119,216.70018 L117,220.16428 L113,220.16428 L111,216.70018 L109,213.23608 L105,213.23608 L101,213.23608 L99,209.77197 L101,206.30788" fill="none" stroke="black" stroke-width="0.2"/>
<path d="M107,162.81958 L105,166.28368 L101,166.28368 L99,169.74777 L101,173.21188 L99,176.67598 L101,180.14008 L105,180.14008 L107,183.60419 L105,187.06828 L107,190.53238 L111,190.53238 L115,190.53238 L117,193.99649 L119,197.46059 L123,197.46059 L127,197.46059 L129,200.92468 L127,204.3888 L129,207.85289 L133,207.85289 L135,211.31699 L133,214.7811 L129,214.7811 L127,218.2452 L129,221.70929 L133,221.70929 L135,218.2452 L139,218.2452 L141,221.70929 L137,221.70929 L133,221.70929 L131,218.2452 L133,214.7811 L137,214.7811 L139,218.2452 L137,221.70929 L133,221.70929 L129,221.70929 L127,218.2452 L123,218.2452 L119,218.2452 L117,221.70929 L113,221.70929 L111,218.2452 L109,214.7811 L105,214.7811 L101,214.7811 L99,211.31699 L101,207.85289" fill="none" stroke="black" stroke-width="0.2"/>
<path d="M107,164.37132 L105,167.83543 L101,167.83542 L99,171.29953 L101,174.76363 L99,178.22774 L101,181.69183 L105,181.69183 L107,185.15593 L105,188.62004 L107,192.08414 L111,192.08414 L115,192.08414 L117,195.54825 L119,199.01234 L123,199.01234 L127,199.01234 L129,202.47644 L127,205.94055 L129,209.40465 L133,209.40465 L135,212.86874 L133,216.33286 L129,216.33286 L127,219.79695 L129,223.26105 L133,223.26105 L135,219.79695 L139,219.79695 L141,223.26105 L137,223.26105 L133,223.26105 L131,219.79695 L133,216.33286 L137,216.33286 L139,219.79695 L137,223.26105 L133,223.26105 L129,223.26105 L127,219.79695 L123,219.79695 L119,219.79695 L117,223.26105 L113,223.26105 L111,219.79695 L109,216.33286 L105,216.33286 L101,216.33286 L99,212.86874 L101,209.40465" fill="none" stroke="black" stroke-width="0.2"/>
<path d="M107,165.92969 L105,169.3938 L101,169.39378 L99,172.8579 L101,176.32199 L99,179.7861 L101,183.2502 L105,183.2502 L107,186.7143 L105,190.1784 L107,193.6425 L111,193.6425 L115,193.6425 L117,197.10661 L119,200.57071 L123,200.57071 L127,200.57071 L129,204.0348 L127,207.49892 L129,210.96301 L133,210.96301 L135,214.42711 L133,217.89122 L129,217.89122 L127,221.35532 L129,224.81941 L133,224.81941 L135,221.35532 L139,221.35532 L141,224.81941 L137,224.81941 L133,224.81941 L131,221.35532 L133,217.89122 L137,217.89122 L139,221.35532 L137,224.81941 L133,224.81941 L129,224.81941 L127,221.35532 L123,221.35532 L119,221.35532 L117,224.81941 L113,224.81941 L111,221.35532 L109,217.89122 L105,217.89122 L101,217.89122 L99,214.42711 L101,210.96301" fill="none" stroke="black" stroke-width="0.2"/>
<path d="M107,167.49457 L105,170.95868 L101,170.95866 L99,174.42276 L101,177.88687 L99,181.35098 L101,184.81506 L105,184.81506 L107,188.27917 L105,191.74329 L107,195.20737 L111,195.20737 L115,195.20737 L117,198.67148 L119,202.13559 L123,202.13559 L127,202.13559 L129,205.59967 L127,209.06378 L129,212.5279 L133,212.5279 L135,215.99197 L133,219.45609 L129,219.45609 L127,222.9202 L129,226.38428 L133,226.38428 L135,222.9202 L139,222.9202 L141,226.38428 L137,226.38428 L133,226.38428 L131,222.9202 L133,219.45609 L137,219.45609 L139,222.9202 L137,226.38428 L133,226.38428 L129,226.38428 L127,222.9202 L123,222.9202 L119,222.9202 L117,226.38428 L113,226.38428 L111,222.9202 L109,219.45609 L105,219.45609 L101,219.45609 L99,215.99197 L101,212.5279" fill="none" stroke="black" stroke-width="0.2"/>
<path d="M107,169.06584 L105,172.52994 L101,172.52994 L99,175.99405 L101,179.45815 L99,182.92224 L101,186.38635 L105,186.38635 L107,189.85045 L105,193.31454 L107,196.77866 L111,196.77866 L115,196.77866 L117,200.24277 L119,203.70685 L123,203.70685 L127,203.70685 L129,207.17096 L127,210.63507 L129,214.09915 L133,214.09915 L135,217.56326 L133,221.02737 L129,221.02737 L127,224.49146 L129,227.95557 L133,227.95557 L135,224.49146 L139,224.49146 L141,227.95557 L137,227.95557 L133,227.95557 L131,224.49146 L133,221.02737 L137,221.02737 L139,224.49146 L137,227.95557 L133,227.95557 L129,227.95557 L127,224.49146 L123,224.49146 L119,224.49146 L117,227.95557 L113,227.95557 L111,224.49146 L109,221.02737 L105,221.02737 L101,221.02737 L99,217.56326 L101,214.09915" fill="none" stroke="black" stroke-width="0.2"/>
<path d="M107,170.64342 L105,174.10751 L101,174.10751 L99,177.57162 L101,181.03572 L99,184.49982 L101,187.96393 L105,187.96393 L107,191.42802 L105,194.89212 L107,198.35623 L111,198.35623 L113,194.89212 L117,194.89212 L121,194.89212 L123,191.42804 L125,187.96393 L129,187.96393 L131,191.42804 L135,191.42804 L137,187.96393 L141,187.96393 L143,191.42804 L141,194.89212 L143,198.35623 L147,198.35623 L151,198.35623 L153,194.89212 L157,194.89212 L159,198.35623 L157,201.82034 L155,205.28442 L151,205.28442 L149,201.82034 L151,198.35623 L155,198.35623 L157,201.82034 L159,205.28445 L157,208.74854 L153,208.74854 L151,212.21265 L149,215.67673 L151,219.14084 L153,222.60495 L151,226.06903 L149,229.53314 L153,229.53314 L157,229.53314 L161,229.53314 L165,229.53314" fill="none" stroke="black" stroke-width="0.2"/>
<path d="M107,172.22719 L105,175.69128 L101,175.69128 L99,179.1554 L101,182.61949 L99,186.08359 L101,189.5477 L105,189.5477 L107,193.0118 L105,196.47589 L107,199.94 L111,199.94 L113,196.47589 L117,196.47589 L121,196.47589 L123,193.01181 L125,189.5477 L129,189.5477 L131,193.01181 L135,193.01181 L137,189.5477 L141,189.5477 L143,193.01181 L141,196.47589 L143,199.94 L147,199.94 L149,196.47589 L147,193.01181 L149,189.5477 L153,189.5477 L155,193.01181 L157,196.47589 L155,199.94 L151,199.94 L149,196.47589 L151,193.01181 L155,193.01181 L159,193.01181 L161,196.4759 L159,199.94 L161,203.40411 L165,203.40411 L167,199.94 L169,196.4759 L173,196.4759 L177,196.4759 L179,193.01181 L181,189.5477 L183,193.01181 L181,196.47592" fill="none" stroke="black" stroke-width="0.2"/>
<path d="M107,173.81708 L105,177.28117 L101,177.28116 L99,180.74527 L101,184.20938 L99,187.67348 L101,191.13757 L105,191.13757 L107,194.60168 L105,198.06578 L107,201.52988 L111,201.52988 L113,198.06578 L117,198.06578 L121,198.06578 L123,194.60168 L125,191.13757 L129,191.13757 L131,194.60168 L135,194.60168 L137,191.13757 L141,191.13757 L143,194.60168 L141,198.06578 L143,201.52989 L147,201.52989 L149,198.06578 L147,194.60168 L149,191.13757 L153,191.13757 L155,194.60168 L157,198.06578 L155,201.52989 L151,201.52989 L149,198.06578 L151,194.60168 L155,194.60168 L159,194.60168 L161,198.0658 L159,201.52989 L161,204.99399 L165,204.99399 L167,201.52989 L169,198.0658 L173,198.0658 L177,198.0658 L179,194.60168 L181,191.13759 L183,194.60168 L181,198.0658" fill="none" stroke="black" stroke-width="0.2"/>
<path d="M107,175.41296 L105,178.87706 L101,178.87704 L99,182.34116 L101,185.80527 L99,189.26936 L101,192.73346 L105,192.73346 L107,196.19757 L105,199.66167 L107,203.12576 L111,203.12576 L113,199.66167 L117,199.66167 L121,199.66167 L123,196.19757 L125,192.73346 L129,192.73346 L131,196.19757 L135,196.19757 L137,192.73346 L141,192.73346 L143,196.19757 L141,199.66167 L143,203.12578 L147,203.12578 L149,199.66167 L147,196.19757 L149,192.73346 L153,192.73346 L155,196.19757 L157,199.66167 L155,203.12578 L151,203.12578 L149,199.66167 L151,196.19757 L155,196.19757 L159,196.19757 L161,199.66168 L159,203.12578 L161,206.58987 L165,206.58987 L167,203.12578 L169,199.66168 L173,199.66168 L177,199.66168 L179,196.19757 L181,192.73347 L183,196.19757 L181,199.66168" fill="none" stroke="black" stroke-width="0.2"/>
<path d="M107,177.01477 L105,180.47887 L101,180.47885 L97,180.47885 L95,183.94296 L91,183.94296 L89,187.40707 L91,190.87117 L89,194.33527 L85,194.33527 L83,197.79938 L85,201.26347 L89,201.26347 L91,204.72757 L93,208.19168 L97,208.19168 L101,208.19168 L103,211.65578 L101,215.11987 L103,218.58398 L107,218.58398 L109,222.04808 L107,225.51218 L103,225.51218 L101,228.97629 L103,232.44038 L107,232.44038 L109,228.97629 L113,228.97629 L115,232.44038 L113,235.90448 L109,235.90448 L107,232.44038 L109,228.97629 L113,228.97629 L115,232.44038 L113,235.90448 L109,235.90448 L107,232.44038 L109.00001,228.97629 L107.00001,225.51218 L103.00001,225.51218 L101.00001,228.97629 L99.00001,232.44038 L95.00001,232.44038 L91.00001,232.44038 L89.00001,235.90448 L85,235.90448 L83,232.44038 L85.00001,228.97629" fill="none" stroke="black" stroke-width="0.2"/>
<path d="M107,178.6224 L105,182.08652 L101,182.08652 L97,182.08652 L95,185.55061 L91,185.55061 L89,189.01471 L91,192.47882 L89,195.94292 L85,195.94292 L83,199.40701 L85,202.87112 L89,202.87112 L91,206.33522 L93,209.79933 L97,209.79933 L101,209.79933 L103,213.26343 L101,216.72752 L103,220.19164 L107,220.19164 L109,223.65573 L107,227.11983 L103,227.11983 L101,230.58394 L103,234.04803 L107,234.04803 L109,230.58394 L113,230.58394 L115,234.04803 L113,237.51213 L109,237.51213 L107,234.04803 L109,230.58394 L113,230.58394 L115,234.04803 L113,237.51213 L109,237.51213 L107,234.04803 L109.00001,230.58394 L107.00001,227.11983 L103.00001,227.11983 L101.00001,230.58394 L97.00001,230.58394 L95.00001,227.11983 L93.00001,223.65573 L89.00001,223.65573 L85,223.65573 L83,220.19164 L85.00001,216.72752" fill="none" stroke="black" stroke-width="0.2"/>
<path d="M107,180.23581 L105,183.69992 L101,183.6999 L97,183.6999 L95,187.164 L91,187.164 L89,190.62811 L91,194.09222 L89,197.5563 L85,197.5563 L83,201.02042 L85,204.48453 L89,204.48453 L91,207.94861 L93,211.41272 L97,211.41272 L101,211.41272 L103,214.87683 L101,218.34091 L103,221.80502 L107,221.80502 L109,225.26913 L107,228.73322 L103,228.73322 L101,232.19733 L103,235.66144 L107,235.66144 L109,232.19733 L111,228.73322 L115,228.73322 L117,232.19733 L115,235.66144 L111,235.66144 L109,232.19733 L111,228.73325 L115,228.73325 L117,232.19733 L119,235.66144 L117,239.12555 L113,239.12555 L109,239.12555 L105,239.12555 L101,239.12555 L99.00001,235.66144 L101.00001,232.19733 L103.00001,228.73325 L101.00001,225.26913 L99.00001,221.80502 L101.00001,218.34094 L105.00001,218.34094" fill="none" stroke="black" stroke-width="0.2"/>
<path d="M107,181.85487 L105,185.31897 L101,185.31897 L97,185.31897 L95,188.78308 L91,188.78308 L89,192.24718 L91,195.71127 L89,199.17538 L85,199.17538 L83,202.63948 L85,206.10358 L89,206.10358 L91,209.56769 L93,213.0318 L97,213.0318 L101,213.0318 L103,216.49588 L101,219.95999 L103,223.4241 L107,223.4241 L109,226.88818 L107,230.3523 L103,230.3523 L101,233.8164 L103,237.28049 L107,237.28049 L109,233.8164 L111,230.3523 L115,230.3523 L117,233.8164 L115,237.28049 L111,237.28049 L109,233.8164 L111,230.3523 L115,230.3523 L117,233.8164 L119,237.28052 L117,240.7446 L113,240.7446 L109,240.7446 L105,240.7446 L101,240.7446 L99.00001,237.28052 L101.00001,233.8164 L103.00001,230.3523 L101.00001,226.88821 L99.00001,223.4241 L101.00001,219.95999 L105.00001,219.95999" fill="none" stroke="black" stroke-width="0.2"/>
<path d="M107,183.47954 L105,186.94363 L101,186.94363 L97,186.94363 L95,190.40775 L91,190.40775 L89,193.87184 L91,197.33594 L89,200.80005 L85,200.80005 L83,204.26414 L85,207.72824 L89,207.72824 L91,211.19235 L93,214.65646 L97,214.65646 L101,214.65646 L103,218.12054 L101,221.58466 L103,225.04877 L107,225.04877 L109,228.51285 L107,231.97696 L103,231.97696 L101,235.44107 L103,238.90515 L107,238.90515 L109,235.44107 L111,231.97696 L115,231.97696 L117,235.44107 L115,238.90515 L111,238.90515 L109,235.44107 L111,231.97696 L115,231.97696 L117,235.44107 L119,238.90518 L117,242.36926 L113,242.36926 L109,242.36926 L105,242.36926 L101,242.36926 L99.00001,238.90518 L101.00001,235.44107 L103.00001,231.97696 L101.00001,228.51288 L99.00001,225.04877 L101.00001,221.58466 L105.00001,221.58466" fill="none" stroke="black" stroke-width="0.2"/>
<path d="M107,185.10971 L105,188.57382 L101,188.57382 L97,188.57382 L95,192.03792 L91,192.03792 L89,195.50201 L91,198.96613 L89,202.43022 L85,202.43022 L83,205.89432 L85,209.35843 L89,209.35843 L91,212.82253 L93,216.28664 L97,216.28664 L101,216.28664 L103,219.75073 L101,223.21483 L103,226.67894 L107,226.67894 L109,230.14304 L107,233.60713 L103,233.60713 L101,237.07124 L103,240.53534 L107,240.53534 L109,237.07124 L111,233.60713 L115,233.60713 L117,237.07124 L115,240.53534 L111,240.53534 L109,237.07124 L111,233.60715 L115,233.60715 L117,237.07124 L119,240.53535 L117,243.99945 L113,243.99945 L109,243.99945 L105,243.99945 L101,243.99945 L99.00001,240.53535 L101.00001,237.07124 L103.00001,233.60715 L101.00001,230.14305 L99.00001,226.67894 L101.00001,223.21484 L105.00001,223.21484" fill="none" stroke="black" stroke-width="0.2"/>
<path d="M107,186.74533 L105,190.20944 L101,190.20944 L97,190.20944 L95,193.67354 L91,193.67354 L89,197.13763 L91,200.60175 L89,204.06584 L85,204.06584 L83,207.52994 L85,210.99405 L89,210.99405 L91,214.45815 L93,217.92226 L97,217.92226 L101,217.92226 L103,221.38635 L101,224.85045 L103,228.31456 L107,228.31456 L109,231.77866 L107,235.24275 L103,235.24275 L101,238.70686 L103,242.17096 L107,242.17096 L109,238.70686 L111,235.24275 L115,235.24275 L117,238.70686 L115,242.17096 L111,242.17096 L109,238.70686 L111,235.24277 L115,235.24277 L117,238.70686 L119,242.17097 L117,245.63507 L113,245.63507 L109,245.63507 L105,245.63507 L101,245.63507 L99.00001,242.17097 L101.00001,238.70686 L103.00001,235.24277 L101.00001,231.77867 L99.00001,228.31456 L101.00001,224.85046 L105.00001,224.85046" fill="none" stroke="black" stroke-width="0.2"/>
<path d="M107,188.38634 L105,191.85043 L101,191.85043 L97,191.85043 L95,195.31454 L91,195.31454 L89,198.77864 L91,202.24274 L89,205.70685 L85,205.70685 L83,209.17094 L85,212.63504 L89,212.63504 L91,216.09915 L93,219.56326 L97,219.56326 L101,219.56326 L103,223.02734 L101,226.49146 L103,229.95557 L107,229.95557 L109,233.41965 L107,236.88376 L103,236.88376 L101,240.34787 L103,243.81195 L107,243.81195 L109,240.34787 L111,236.88376 L115,236.88376 L117,240.34787 L115,243.81195 L111,243.81195 L109,240.34787 L111,236.88376 L115,236.88376 L117,240.34787 L119,243.81198 L117,247.27606 L113,247.27606 L109,247.27606 L105,247.27606 L101,247.27606 L99.00001,243.81198 L101.00001,240.34787 L103.00001,236.88376 L101.00001,233.41968 L99.00001,229.95557 L101.00001,226.49146 L105.00001,226.49146" fill="none" stroke="black" stroke-width="0.2"/>
<path d="M107,190.03262 L105,193.49673 L101,193.49673 L97,193.49673 L95,196.96083 L91,196.96083 L89,200.42493 L91,203.88904 L89,207.35313 L85,207.35313 L83,210.81723 L85,214.28134 L89,214.28134 L91,217.74544 L93,221.20955 L97,221.20955 L101,221.20955 L103,224.67365 L101,228.13774 L103,231.60185 L107,231.60185 L109,235.06595 L107,238.53004 L103,238.53004 L101,241.99416 L103,245.45825 L107,245.45825 L109,241.99416 L111,238.53004 L115,238.53004 L117,241.99416 L115,245.45825 L111,245.45825 L109,241.99416 L111,238.53006 L115,238.53006 L117,241.99416 L119,245.45827 L117,248.92236 L113,248.92236 L109,248.92236 L105,248.92236 L101,248.92236 L99.00001,245.45827 L101.00001,241.99416 L103.00001,238.53006 L101.00001,235.06596 L99.00001,231.60185 L101.00001,228.13776 L105.00001,228.13776" fill="none" stroke="black" stroke-width="0.2"/>
<path d="M107,191.68416 L105,195.14825 L101,195.14825 L97,195.14825 L95,198.61237 L91,198.61237 L89,202.07646 L91,205.54056 L89,209.00467 L85,209.00467 L83,212.46877 L85,215.93286 L89,215.93286 L91,219.39697 L93,222.86108 L97,222.86108 L101,222.86108 L103,226.32516 L101,229.78928 L103,233.25339 L107,233.25339 L109,236.71747 L107,240.18158 L103,240.18158 L101,243.64569 L103,247.10977 L107,247.10977 L109,243.64569 L111,240.18158 L115,240.18158 L117,243.64569 L115,247.10977 L111,247.10977 L109,243.64569 L111,240.18158 L115,240.18158 L117,243.64569 L119,247.1098 L117,250.57388 L113,250.57388 L109,250.57388 L105,250.57388 L101,250.57388 L99.00001,247.1098 L101.00001,243.64569 L103.00001,240.18158 L101.00001,236.7175 L99.00001,233.25339 L101.00001,229.78928 L105.00001,229.78928" fill="none" stroke="black" stroke-width="0.2"/>
<path d="M107,193.34085 L105,196.80496 L101,196.80496 L97,196.80496 L95,200.26906 L91,200.26906 L89,203.73315 L91,207.19727 L89,210.66136 L85,210.66136 L83,214.12546 L85,217.58957 L89,217.58957 L91,221.05367 L93,224.51778 L97,224.51778 L101,224.51778 L103,227.98187 L101,231.44597 L103,234.91008 L107,234.91008 L109,238.37418 L107,241.83827 L103,241.83827 L101,245.30238 L103,248.76648 L107,248.76648 L109,245.30238 L111,241.83827 L115,241.83827 L117,245.30238 L115,248.76648 L111,248.76648 L109,245.30238 L111,241.83829 L115,241.83829 L117,245.30238 L119,248.7665 L117,252.23059 L113,252.23059 L109,252.23059 L105,252.23059 L101,252.23059 L99.00001,248.7665 L101.00001,245.30238 L103.00001,241.83829 L101.00001,238.37419 L99.00001,234.91008 L101.00001,231.44598 L105.00001,231.44598" fill="none" stroke="black" stroke-width="0.2"/>
<path d="M107,195.00266 L105,198.46677 L101,198.46677 L97,198.46677 L95,201.93086 L93,205.39496 L95,208.85907 L99,208.85907 L101,212.32317 L99,215.78726 L101,219.25137 L105,219.25137 L107,215.78726 L111,215.78726 L115,215.78726 L117,212.32317 L119.00001,208.85907 L123.00001,208.85907 L125.00001,212.32318 L129,212.32318 L131,208.85907 L135,208.85907 L137,212.32318 L135,215.78728 L137,219.25137 L141,219.25137 L143,215.78728 L141,212.32318 L139,208.85907 L141,205.39496 L145,205.39496 L147,208.85907 L145,212.32318 L141,212.32318 L139,208.85907 L141,205.39496 L145,205.39496 L149,205.39496 L151,208.85907 L149,212.32318 L151,215.78728 L155,215.78728 L157,212.32318 L161,212.32318 L163,215.78728 L165,219.25137 L169,219.25137 L173,219.25137 L175,222.71548 L173,226.17958" fill="none" stroke="black" stroke-width="0.2"/>
<path d="M107,196.66953 L105,200.13362 L101,200.1336 L97,200.1336 L95,203.59772 L93,207.06183 L95,210.52592 L99,210.52592 L101,213.99002 L99,217.45413 L101,220.91823 L105,220.91823 L107,217.45413 L111,217.45413 L115,217.45413 L117,213.99002 L119.00001,210.52592 L123.00001,210.52592 L125.00001,213.99002 L129,213.99002 L131,210.52592 L135,210.52592 L137,213.99002 L135,217.45413 L137,220.91823 L141,220.91823 L143,217.45413 L141,213.99002 L139,210.52592 L141,207.06183 L145,207.06183 L147,210.52592 L145,213.99002 L141,213.99002 L139,210.52592 L141,207.06183 L145,207.06183 L149,207.06183 L151,210.52592 L149,213.99002 L151,217.45413 L155,217.45413 L157,213.99002 L161,213.99002 L163,217.45413 L165,220.91823 L169,220.91823 L173,220.91823 L175,224.38234 L173,227.84644" fill="none" stroke="black" stroke-width="0.2"/>
<path d="M107,198.34134 L105,201.80545 L101,201.80544 L97,201.80544 L95,205.26953 L93,208.73364 L95,212.19775 L99,212.19775 L101,215.66183 L99,219.12595 L101,222.59006 L105,222.59006 L107,219.12595 L111,219.12595 L115,219.12595 L117,215.66183 L119.00001,212.19775 L123.00001,212.19775 L125.00001,215.66185 L129,215.66185 L133,215.66185 L135,219.12595 L133,222.59006 L129,222.59006 L127.00001,226.05414 L129,229.51825 L133,229.51825 L135,226.05417 L137,222.59006 L141,222.59006 L143,226.05417 L141,229.51825 L137,229.51825 L135,226.05417 L137,222.59006 L141,222.59006 L143,226.05417 L145,229.51825 L143,232.98236 L139,232.98236 L137,236.44647 L139,239.91055 L143,239.91055 L145,243.37466 L143,246.83878 L141,250.30286 L143,253.76697 L145,257.23108 L141,257.23108 L139,253.76697" fill="none" stroke="black" stroke-width="0.2"/>
<path d="M107,200.0181 L105,203.48221 L101,203.48221 L97,203.48221 L95,206.9463 L93,210.4104 L95,213.87451 L99,213.87451 L101,217.33861 L99,220.8027 L101,224.26682 L105,224.26682 L107,220.8027 L111,220.8027 L115,220.8027 L117,217.33861 L119.00001,213.87451 L123.00001,213.87451 L125.00001,217.33862 L129,217.33862 L133,217.33862 L135,220.80272 L133,224.26682 L129,224.26682 L127.00001,227.73091 L129,231.19502 L133,231.19502 L135,227.73093 L137,224.26682 L141,224.26682 L143,227.73093 L141,231.19502 L137,231.19502 L135,227.73093 L137,224.26682 L141,224.26682 L143,227.73093 L145,231.19502 L143,234.65913 L139,234.65913 L137,238.12323 L139,241.58733 L143,241.58733 L145,245.05144 L143,248.51553 L139,248.51553 L137,251.97963 L135,255.44373 L131,255.44373 L129,251.97963" fill="none" stroke="black" stroke-width="0.2"/>
<path d="m 15.815664,12.893319 c -1.445284,-3.0999497 -5.555449,-0.3575 -5.08537,2.32203 1.697826,2.92736 4.504013,-3.54417 4.40859,-2.58178 -1.548999,2.22986 0.741131,6.08701 3.012419,3.25791 2.532153,-2.82358 0.259001,-7.8326797 -3.488671,-7.9011197 -3.217272,0.056 -5.8863857,2.4603197 -7.9308737,4.7238797 -2.354585,2.46752 0.0048,5.887 2.757763,6.62143 3.2195457,1.10867 6.8759417,1.30834 9.9459317,-0.36585 2.270396,-1.12373 5.025949,-2.62031 5.680576,-5.20027 -2.108811,-3.66096 -6.038415,1.28356 -3.842036,3.67822 1.07278,0.89979 4.586982,-2.27037 3.201668,-2.73503 0.03094,3.24357 1.226854,6.37852 1.337023,9.60311 -0.672198,3.54892 -7.469251,0.32096 -4.637082,-2.5164 2.158436,-2.4193 5.610472,-2.84094 8.202925,-4.57369 0.993877,-1.40371 0.353413,-5.25046 3.182464,-3.48957 2.142923,1.43516 -2.250898,5.7532 1.723416,5.02339 1.661189,-0.71663 6.494946,-1.40457 4.601401,-3.95236 -4.205319,-0.68052 -1.190571,5.86505 1.665411,3.46881 1.929752,-0.9247 2.778055,-4.05119 1.423645,-5.35034 0.479155,1.8589 3.849911,7.52574 4.880369,3.32696 0.21201,-1.28088 0.40468,-3.80204 1.01246,-1.23041 0.5858,2.6865 3.83412,4.91909 4.56937,1.07383 0.65272,-1.00894 -0.2696,-4.02739 0.99929,-1.35746 1.10974,2.31613 6.32001,1.46113 6.147,-1.13059 -1.98394,-2.13868 -5.3717,1.45205 -3.78252,3.73454 2.57741,0.96208 6.69797,-0.21041 7.06275,-3.33983 0.41287,-2.63769 0.26643,-5.3430297 -0.11178,-7.9756197 0.67418,3.94149 1.24889,7.9380497 2.39963,11.7713397 2.10586,1.67977 5.7434,1.65022 7.74596,-0.23639 3.03149,-1.85431 -0.26637,-4.76925 -2.71777,-4.54025 -2.11577,0.0793 -5.36257,2.40772 -5.16868,3.85604 2.08262,-2.38818 5.55759,-1.22628 8.30726,-1.6832 3.182,-0.26596 6.46546,-0.57372 9.54494,-1.18158 0.24171,0.4199 -0.27752,0.54338 -0.43067,0.17453" fill="none" stroke="black" stroke-width="1" transform="translate(180,285) scale(0.3)"/>
</svg>