<?xml version="1.0" encoding="UTF-8" standalone="no"?>
<svg
   xmlns:dc="http://purl.org/dc/elements/1.1/"
   xmlns:cc="http://creativecommons.org/ns#"
   xmlns:rdf="http://www.w3.org/1999/02/22-rdf-syntax-ns#"
   xmlns:svg="http://www.w3.org/2000/svg"
   xmlns="http://www.w3.org/2000/svg"
   xmlns:sodipodi="http://sodipodi.sourceforge.net/DTD/sodipodi-0.dtd"
   xmlns:inkscape="http://www.inkscape.org/namespaces/inkscape"
   inkscape:version="1.0beta2 (2b71d25, 2019-12-03)"
   sodipodi:docname="72-230-2.3-0.1-70-50.svg"
   id="svg152"
   version="1.1"
   width="210mm"
   viewBox="0 0 210 297"
   style="background: #FF9"
   height="297mm">
  <metadata
     id="metadata158">
    <rdf:RDF>
      <cc:Work
         rdf:about="">
        <dc:format>image/svg+xml</dc:format>
        <dc:type
           rdf:resource="http://purl.org/dc/dcmitype/StillImage" />
        <dc:title></dc:title>
      </cc:Work>
    </rdf:RDF>
  </metadata>
  <defs
     id="defs156" />
  <sodipodi:namedview
     inkscape:current-layer="svg152"
     inkscape:window-maximized="0"
     inkscape:window-y="23"
     inkscape:window-x="0"
     inkscape:cy="432.7005"
     inkscape:cx="661.21419"
     inkscape:zoom="0.5122607"
     showgrid="false"
     id="namedview154"
     inkscape:window-height="1590"
     inkscape:window-width="1249"
     inkscape:pageshadow="2"
     inkscape:pageopacity="0"
     guidetolerance="10"
     gridtolerance="10"
     objecttolerance="10"
     borderopacity="1"
     inkscape:document-rotation="0"
     bordercolor="#666666"
     pagecolor="#ffffff" />
  <path
     inkscape:connector-curvature="0"
     id="path10"
     stroke-width="0.2"
     stroke="black"
     fill="none"
     d="m 58.351322,34.301444 3.041072,5.267289 -3.041072,5.267304 3.041072,5.267274 h 6.082145 l 3.041072,5.267305 h 6.082144 6.082145 l 3.041072,5.267289 -3.041072,5.267289 3.041072,5.267289 3.041072,5.267295 3.041072,5.267283 -3.041072,5.267304 3.041072,5.26729 h 6.082145 6.082139 l 3.04108,5.267273 -3.04108,5.267322 3.04108,5.26727 h 6.08214 l 3.04107,5.26729 -3.04107,5.2673 -3.04107,5.26728 3.04107,5.26729 h 6.08215 6.08214 l 3.04107,-5.26729 h 6.08215 l 3.04107,5.26729 h 6.08214 l 3.04108,-5.26729 3.04107,-5.26728 h 6.08214 6.08215 6.08214 l 3.04107,5.26731 3.04107,5.26729 h 6.08215 l 3.04107,-5.26729 h -6.08214 l -3.04108,-5.26731 h -6.08214 l -3.04107,5.26728 -3.04107,5.26729 h -6.08215 -6.08214 -6.08215 -6.08214 l -3.04107,-5.26729" />
  <path
     inkscape:connector-curvature="0"
     id="path12"
     stroke-width="0.2"
     stroke="black"
     fill="none"
     d="m 58.351322,35.213766 3.041072,5.267289 -3.041072,5.267298 3.041072,5.26728 h 6.082145 l 3.041072,5.267298 h 6.082144 6.082145 l 3.041072,5.267295 -3.041072,5.267282 3.041072,5.267297 3.041072,5.267304 3.041072,5.267289 -3.041072,5.267304 3.041072,5.267274 h 6.082145 6.082139 l 3.04108,5.267289 -3.04108,5.267305 3.04108,5.26729 h 6.08214 l 3.04107,5.26727 -3.04107,5.26731 -3.04107,5.26729 3.04107,5.26728 h 6.08215 6.08214 l 3.04107,-5.26728 h 6.08215 l 3.04107,5.26728 h 6.08214 l 3.04108,-5.26728 3.04107,-5.26729 h 6.08214 6.08215 6.08214 l 3.04107,5.26732 3.04107,5.26727 h 6.08215 l 3.04107,-5.26727 h -6.08214 l -3.04108,-5.26732 h -6.08214 l -3.04107,5.26729 -3.04107,5.26728 h -6.08215 -6.08214 -6.08215 -6.08214 l -3.04107,-5.26728" />
  <path
     inkscape:connector-curvature="0"
     id="path14"
     stroke-width="0.2"
     stroke="black"
     fill="none"
     d="m 58.351322,36.397412 3.041072,5.267296 -3.041072,5.267297 3.041072,5.26728 h 6.082145 l 3.041072,5.267298 h 6.082144 6.082145 l 3.041072,5.267289 -3.041072,5.26729 3.041072,5.267289 3.041072,5.267289 3.041072,5.267274 -3.041072,5.267304 3.041072,5.267289 h 6.082145 6.082139 l 3.04108,5.267289 -3.04108,5.267304 3.04108,5.26727 h 6.08214 l 3.04107,5.26729 -3.04107,5.26731 -3.04107,5.26729 3.04107,5.26727 h 6.08215 6.08214 l 3.04107,-5.26727 h 6.08215 l 3.04107,5.26727 h 6.08214 l 3.04108,-5.26727 3.04107,-5.26729 h 6.08214 6.08215 6.08214 l 3.04107,5.2673 3.04107,5.26729 h 6.08215 l 3.04107,-5.26729 h -6.08214 l -3.04108,-5.2673 h -6.08214 l -3.04107,5.26729 -3.04107,5.26727 h -6.08215 -6.08214 -6.08215 -6.08214 l -3.04107,-5.26727" />
  <path
     inkscape:connector-curvature="0"
     id="path16"
     stroke-width="0.2"
     stroke="black"
     fill="none"
     d="m 58.351322,37.710972 3.041072,5.26729 -3.041072,5.267296 3.041072,5.267282 h 6.082145 l 3.041072,5.267295 h 6.082144 6.082145 l 3.041072,5.267298 -3.041072,5.26728 3.041072,5.267298 3.041072,5.267274 3.041072,5.267289 -3.041072,5.267305 3.041072,5.267289 h 6.082145 6.082139 l 3.04108,5.267272 -3.04108,5.26731 3.04108,5.26729 h 6.08214 l 3.04107,5.26728 -3.04107,5.26731 -3.04107,5.26727 3.04107,5.26729 h 6.08215 6.08214 l 3.04107,-5.26729 h 6.08215 l 3.04107,5.26729 h 6.08214 l 3.04108,-5.26729 3.04107,-5.26727 h 6.08214 6.08215 6.08214 l 3.04107,5.2673 3.04107,5.26729 h 6.08215 l 3.04107,-5.26729 h -6.08214 l -3.04108,-5.2673 h -6.08214 l -3.04107,5.26727 -3.04107,5.26729 h -6.08215 -6.08214 -6.08215 -6.08214 l -3.04107,-5.26729" />
  <path
     inkscape:connector-curvature="0"
     id="path18"
     stroke-width="0.2"
     stroke="black"
     fill="none"
     d="m 58.351322,39.116708 3.041072,5.267289 -3.041072,5.267295 3.041072,5.267283 h 6.082145 l 3.041072,5.267296 h 6.082144 6.082145 l 3.041072,5.267298 -3.041072,5.267274 3.041072,5.267304 3.041072,5.267304 3.041072,5.267274 -3.041072,5.26732 3.041072,5.267274 h 6.082145 6.082139 l 3.04108,5.267291 -3.04108,5.2673 3.04108,5.26729 h 6.08214 l 3.04107,5.26727 -3.04107,5.26731 -3.04107,5.26729 3.04107,5.26729 h 6.08215 6.08214 l 3.04107,-5.26729 h 6.08215 l 3.04107,5.26729 h 6.08214 l 3.04108,-5.26729 3.04107,-5.26729 h 6.08214 6.08215 6.08214 l 3.04107,5.2673 3.04107,5.26729 h 6.08215 l 3.04107,-5.26729 h -6.08214 l -3.04108,-5.2673 h -6.08214 l -3.04107,5.26729 -3.04107,5.26729 h -6.08215 -6.08214 -6.08215 -6.08214 l -3.04107,-5.26729" />
  <path
     inkscape:connector-curvature="0"
     id="path20"
     stroke-width="0.2"
     stroke="black"
     fill="none"
     d="m 58.351322,40.595232 3.041072,5.267295 -3.041072,5.267298 3.041072,5.26728 h 6.082145 l 3.041072,5.267298 h 6.082144 6.082145 l 3.041072,5.26729 -3.041072,5.267289 3.041072,5.267289 3.041072,5.267289 3.041072,5.267289 -3.041072,5.267304 3.041072,5.267289 h 6.082145 6.082139 l 3.04108,5.267278 -3.04108,5.26732 3.04108,5.26727 h 6.08214 l 3.04107,5.26729 -3.04107,5.2673 -3.04107,5.26729 3.04107,5.26728 h 6.08215 6.08214 l 3.04107,-5.26728 h 6.08215 l 3.04107,5.26728 h 6.08214 l 3.04108,-5.26728 3.04107,-5.26729 h 6.08214 6.08215 6.08214 l 3.04107,5.26731 3.04107,5.26729 h 6.08215 l 3.04107,-5.26729 h -6.08214 l -3.04108,-5.26731 h -6.08214 l -3.04107,5.26729 -3.04107,5.26728 h -6.08215 -6.08214 -6.08215 -6.08214 l -3.04107,-5.26728" />
  <path
     inkscape:connector-curvature="0"
     id="path22"
     stroke-width="0.2"
     stroke="black"
     fill="none"
     d="m 58.351322,42.13447 3.041072,5.26729 -3.041072,5.267304 3.041072,5.267274 h 6.082145 l 3.041072,5.267304 h 6.082144 6.082145 l 3.041072,5.267289 -3.041072,5.267289 3.041072,5.267289 3.041072,5.26729 3.041072,5.267289 -3.041072,5.267304 3.041072,5.267278 h 6.082145 6.082139 l 3.04108,5.26729 -3.04108,5.2673 3.04108,5.26729 h 6.08214 l 3.04107,5.26727 -3.04107,5.26732 -3.04107,5.26727 3.04107,5.26729 h 6.08215 6.08214 l 3.04107,-5.26729 h 6.08215 l 3.04107,5.26729 h 6.08214 l 3.04108,-5.26729 3.04107,-5.26727 h 6.08214 6.08215 6.08214 l 3.04107,5.26731 3.04107,5.26728 h 6.08215 l 3.04107,-5.26728 h -6.08214 l -3.04108,-5.26731 h -6.08214 l -3.04107,5.26727 -3.04107,5.26729 h -6.08215 -6.08214 -6.08215 -6.08214 l -3.04107,-5.26729" />
  <path
     inkscape:connector-curvature="0"
     id="path24"
     stroke-width="0.2"
     stroke="black"
     fill="none"
     d="m 58.351322,43.726107 3.041072,5.267289 -3.041072,5.267304 3.041072,5.267274 h 6.082145 l 3.041072,5.267304 h 6.082144 6.082145 l 3.041072,5.26729 -3.041072,5.267289 3.041072,5.267289 3.041072,5.267289 3.041072,5.267274 -3.041072,5.267304 3.041072,5.267287 h 6.082145 6.082139 l 3.04108,5.26729 -3.04108,5.26731 3.04108,5.26727 h 6.08214 l 3.04107,5.26729 -3.04107,5.2673 -3.04107,5.26729 3.04107,5.26728 h 6.08215 6.08214 l 3.04107,-5.26728 h 6.08215 l 3.04107,5.26728 h 6.08214 l 3.04108,-5.26728 3.04107,-5.26729 h 6.08214 l 3.04107,5.26731 3.04108,5.26729 h -6.08215 -6.08214 -6.08215 -6.08214 -6.08215 l -3.04107,-5.26729 h -6.08214 l -3.04107,5.26729 h -6.08215 -6.08214 -6.08215 -6.082139 -6.082147 l -3.041072,-5.26729" />
  <path
     inkscape:connector-curvature="0"
     id="path26"
     stroke-width="0.2"
     stroke="black"
     fill="none"
     d="m 58.351322,45.364013 3.041072,5.267304 -3.041072,5.267274 3.041072,5.267289 h 6.082145 l 3.041072,5.267305 h 6.082144 6.082145 l 3.041072,5.267289 -3.041072,5.267274 3.041072,5.267304 h 6.082144 6.082145 l 3.041069,5.267289 h 6.08215 l 3.04107,-5.267289 3.04107,-5.267274 h 6.08215 l 3.04107,5.267274 h 6.08214 l 3.04107,-5.267274 h 6.08215 l 3.04107,5.267274 3.04107,5.267289 h 6.08215 l 3.04107,-5.267289 h 6.08214 l 3.04108,-5.267274 h 6.08214 l 3.04107,5.267274 3.04107,5.26732 3.04108,-5.26732 -3.04108,-5.267274 -3.04107,-5.267289 3.04107,-5.267304 3.04108,-5.267282 3.04107,-5.267281 -3.04107,-5.267305 -3.04108,-5.267289 -3.04107,-5.267304 h -6.08214 l -3.04107,-5.267283 h -6.08215 l -3.04107,5.267283 -3.04107,5.267304 -3.04107,5.267289 -3.04108,5.267274 -3.04107,5.267312 -3.04107,5.267282 h -6.08215" />
  <path
     inkscape:connector-curvature="0"
     id="path28"
     stroke-width="0.2"
     stroke="black"
     fill="none"
     d="m 58.351322,47.043491 3.041072,5.267289 -3.041072,5.267295 3.041072,5.267283 h 6.082145 l 3.041072,5.267295 h 6.082144 6.082145 l 3.041072,5.267299 -3.041072,5.267289 3.041072,5.267289 h 6.082144 6.082145 l 3.041069,5.267304 h 6.08215 l 3.04107,-5.267274 3.04107,-5.267319 h 6.08215 l 3.04107,5.267319 h 6.08214 l 3.04107,-5.267319 h 6.08215 l 3.04107,5.267319 3.04107,5.267274 h 6.08215 l 3.04107,-5.267274 h 6.08214 l 3.04108,-5.267289 h 6.08214 l 3.04107,5.267289 3.04107,5.267274 3.04108,-5.267274 -3.04108,-5.267289 -3.04107,-5.267312 3.04107,-5.267297 3.04108,-5.267289 3.04107,-5.267289 -3.04107,-5.267289 -3.04108,-5.267298 -3.04107,-5.267295 h -6.08214 l -3.04107,-5.267282 h -6.08215 l -3.04107,5.267282 -3.04107,5.267295 -3.04107,5.267298 -3.04108,5.26728 -3.04107,5.267298 -3.04107,5.267289 h -6.08215" />
  <path
     inkscape:connector-curvature="0"
     id="path30"
     stroke-width="0.2"
     stroke="black"
     fill="none"
     d="m 58.351322,48.760769 3.041072,5.267297 -3.041072,5.267297 3.041072,5.267281 h 6.082145 l 3.041072,5.267297 h 6.082144 6.082145 l 3.041072,5.267289 -3.041072,5.267274 3.041072,5.267304 h 6.082144 6.082145 l 3.041069,5.267289 h 6.08215 l 3.04107,-5.267289 3.04107,-5.267274 h 6.08215 l 3.04107,5.267274 h 6.08214 l 3.04107,-5.267274 h 6.08215 l 3.04107,5.267274 3.04107,5.267289 h 6.08215 l 3.04107,-5.267289 h 6.08214 l 3.04108,-5.267274 h 6.08214 l 3.04107,5.267274 3.04107,5.267304 3.04108,-5.267304 -3.04108,-5.267274 -3.04107,-5.267289 3.04107,-5.267295 3.04108,-5.267298 3.04107,-5.267274 -3.04107,-5.267305 -3.04108,-5.267289 -3.04107,-5.267296 h -6.08214 l -3.04107,-5.267282 h -6.08215 l -3.04107,5.267282 -3.04107,5.267296 -3.04107,5.267289 -3.04108,5.26729 -3.04107,5.267289 -3.04107,5.267298 h -6.08215" />
  <path
     inkscape:connector-curvature="0"
     id="path32"
     stroke-width="0.2"
     stroke="black"
     fill="none"
     d="m 58.351322,50.512801 3.041072,5.267295 -3.041072,5.267289 3.041072,5.267289 h 6.082145 l 3.041072,5.267289 h 6.082144 6.082145 l 3.041072,5.267305 -3.041072,5.267274 3.041072,5.267289 h 6.082144 6.082145 l 3.041069,5.267304 h 6.08215 l 3.04107,-5.267289 3.04107,-5.267304 h 6.08215 l 3.04107,5.267304 h 6.08214 l 3.04107,-5.267304 h 6.08215 l 3.04107,5.267304 3.04107,5.267289 h 6.08215 l 3.04107,-5.267289 h 6.08214 l 3.04108,-5.267274 h 6.08214 l 3.04107,5.267274 3.04107,5.267289 3.04108,-5.267289 -3.04108,-5.267274 -3.04107,-5.267298 3.04107,-5.267296 3.04108,-5.267289 3.04107,-5.267289 -3.04107,-5.267289 -3.04108,-5.267304 -3.04107,-5.267289 h -6.08214 l -3.04107,-5.267289 h -6.08215 -6.08214 -6.08215 l -6.08214,-6e-6 h -6.08215 -6.08214 -6.08214 l -3.04108,-5.267299" />
  <path
     inkscape:connector-curvature="0"
     id="path34"
     stroke-width="0.2"
     stroke="black"
     fill="none"
     d="m 58.351322,52.29701 3.041072,5.267298 -3.041072,5.267289 3.041072,5.267289 h 6.082145 l 3.041072,5.26729 h 6.082144 6.082145 l 3.041072,5.267304 -3.041072,5.267289 3.041072,5.267274 h 6.082144 6.082145 l 3.041069,5.267319 h 6.08215 l 3.04107,-5.267289 3.04107,-5.267304 h 6.08215 l 3.04107,5.267304 h 6.08214 l 3.04107,-5.267304 h 6.08215 l 3.04107,5.267304 3.04107,5.267289 h 6.08215 l 3.04107,-5.267289 h 6.08214 l 3.04108,-5.267289 h 6.08214 l 3.04107,5.267289 3.04107,5.267289 3.04108,-5.267289 -3.04108,-5.267289 -3.04107,-5.267304 3.04107,-5.267289 3.04108,-5.267297 3.04107,-5.267281 -3.04107,-5.267296 -3.04108,-5.267298 -3.04107,-5.267289 h -6.08214 -6.08215 l -3.04107,5.267289 -3.04107,5.267298 -3.04107,5.267296 -3.04107,5.267281 -3.04108,5.267297 -3.04107,5.267289 -3.04107,5.267304 h -6.08215" />
  <path
     inkscape:connector-curvature="0"
     id="path36"
     stroke-width="0.2"
     stroke="black"
     fill="none"
     d="m 58.351322,54.111247 3.041072,5.267289 -3.041072,5.267297 3.041072,5.267281 h 6.082145 l 3.041072,5.267297 h 6.082144 6.082145 l 3.041072,5.267297 -3.041072,5.267273 3.041072,5.26732 h 6.082144 6.082145 l 3.041069,5.267274 h 6.08215 l 3.04107,-5.267274 3.04107,-5.26732 h 6.08215 l 3.04107,5.26732 h 6.08214 l 3.04107,-5.26732 h 6.08215 l 3.04107,5.26732 3.04107,5.267274 h 6.08215 l 3.04107,-5.267274 h 6.08214 l 3.04108,-5.267289 h 6.08214 l 3.04107,5.267289 3.04107,5.267304 3.04108,-5.267304 -3.04108,-5.267289 -3.04107,-5.267274 3.04107,-5.26732 3.04108,-5.267289 3.04107,-5.267289 -3.04107,-5.267289 -3.04108,-5.267297 -3.04107,-5.267296 h -6.08214 -6.08215 l -3.04107,5.267296 -3.04107,5.267297 -3.04107,5.267289 -3.04107,5.267289 -3.04108,5.267289 -3.04107,5.26732 -3.04107,5.267274 h -6.08215" />
  <path
     inkscape:connector-curvature="0"
     id="path38"
     stroke-width="0.2"
     stroke="black"
     fill="none"
     d="m 58.351322,55.953635 3.041072,5.267289 -3.041072,5.267297 3.041072,5.267281 h 6.082145 l 3.041072,5.267289 h 6.082144 6.082145 l 3.041072,5.267304 -3.041072,5.267274 3.041072,5.26729 h 6.082144 6.082145 l 3.041069,5.267304 h 6.08215 l 3.04107,-5.267274 3.04107,-5.26732 h 6.08215 l 3.04107,5.26732 h 6.08214 l 3.04107,-5.26732 h 6.08215 l 3.04107,5.26732 3.04107,5.267274 h 6.08215 l 3.04107,-5.267274 3.04107,-5.267289 -3.04107,-5.267305 3.04107,-5.267289 h 6.08215 6.08214 l 3.04107,-5.267274 3.04107,-5.267304 3.04108,-5.267289 3.04107,-5.267297 3.04107,-5.267281 3.04107,-5.267295 -3.04107,-5.267299 h -6.08214 -6.08215 l -3.04107,5.267299 -3.04107,5.267295 3.04107,5.267281 3.04107,5.267297 3.04107,5.267289 -3.04107,5.267304 -3.04107,5.267274 -3.04107,5.267289 -3.04107,5.267305 h -6.08215" />
  <path
     inkscape:connector-curvature="0"
     id="path40"
     stroke-width="0.2"
     stroke="black"
     fill="none"
     d="m 58.351322,57.822541 3.041072,5.267289 -3.041072,5.267298 3.041072,5.26728 h 6.082145 l 3.041072,5.267305 h 6.082144 6.082145 l 3.041072,5.267289 -3.041072,5.267289 3.041072,5.267304 h 6.082144 6.082145 l 3.041069,5.267274 h 6.08215 l 3.04107,-5.267274 3.04107,-5.267289 h 6.08215 l 3.04107,5.267289 h 6.08214 l 3.04107,-5.267289 h 6.08215 l 3.04107,5.267289 3.04107,5.267274 h 6.08215 l 3.04107,-5.267274 3.04107,-5.267289 -3.04107,-5.267289 3.04107,-5.267304 h 6.08215 6.08214 l 3.04107,-5.267274 3.04107,-5.267305 3.04108,-5.267289 3.04107,-5.267295 3.04107,-5.267283 3.04107,-5.267289 -3.04107,-5.267304 h -6.08214 -6.08215 l -3.04107,5.267304 -3.04107,5.267289 3.04107,5.267283 3.04107,5.267295 3.04107,5.267289 -3.04107,5.267305 -3.04107,5.267274 -3.04107,5.267304 -3.04107,5.267289 h -6.08215" />
  <path
     inkscape:connector-curvature="0"
     id="path42"
     stroke-width="0.2"
     stroke="black"
     fill="none"
     d="m 58.351322,59.716566 3.041072,5.267289 -3.041072,5.267296 3.041072,5.267283 h 6.082145 l 3.041072,5.267289 h 6.082144 6.082145 l 3.041072,5.267289 -3.041072,5.267289 3.041072,5.267304 h 6.082144 6.082145 l 3.041069,5.267275 h 6.08215 l 3.04107,-5.267275 3.04107,-5.267289 h 6.08215 l 3.04107,5.267289 h 6.08214 l 3.04107,-5.267289 h 6.08215 l 3.04107,5.267289 3.04107,5.267275 h 6.08215 l 3.04107,-5.267275 3.04107,-5.267289 -3.04107,-5.267274 3.04107,-5.267319 h 6.08215 6.08214 l 3.04107,-5.267267 3.04107,-5.267296 3.04108,-5.267289 3.04107,-5.267299 3.04107,-5.26728 3.04107,-5.267296 -3.04107,-5.267297 h -6.08214 -6.08215 l -3.04107,5.267297 -3.04107,5.267296 3.04107,5.26728 3.04107,5.267299 3.04107,5.267289 -3.04107,5.267296 -3.04107,5.267267 -3.04107,5.267319 -3.04107,5.267274 h -6.08215" />
  <path
     inkscape:connector-curvature="0"
     id="path44"
     stroke-width="0.2"
     stroke="black"
     fill="none"
     d="m 58.351322,61.634412 3.041072,5.267296 -3.041072,5.267289 3.041072,5.267289 h 6.082145 l 3.041072,5.267289 h 6.082144 6.082145 l 3.041072,5.267304 -3.041072,5.267274 3.041072,5.267289 h 6.082144 6.082145 l 3.041069,5.267308 h 6.08215 l 3.04107,-5.267277 3.04107,-5.26732 h 6.08215 l 3.04107,5.26732 h 6.08214 l 3.04107,-5.26732 h 6.08215 l 3.04107,5.26732 3.04107,5.267277 h 6.08215 l 3.04107,-5.267277 3.04107,-5.267289 -3.04107,-5.267305 3.04107,-5.267289 h 6.08215 6.08214 l 3.04107,-5.267274 3.04107,-5.267304 3.04108,-5.267289 3.04107,-5.267305 3.04107,-5.267273 3.04107,-5.267305 -3.04107,-5.267289 h -6.08214 -6.08215 l -3.04107,5.267289 -3.04107,5.267305 3.04107,5.267273 3.04107,5.267305 3.04107,5.267289 -3.04107,5.267304 -3.04107,5.267274 -3.04107,5.267289 -3.04107,5.267305 h -6.08215" />
  <path
     inkscape:connector-curvature="0"
     id="path46"
     stroke-width="0.2"
     stroke="black"
     fill="none"
     d="m 58.351322,63.574966 3.041072,5.267311 -3.041072,5.267273 3.041072,5.26729 h 6.082145 l 3.041072,5.267304 h 6.082144 6.082145 l 3.041072,5.267289 -3.041072,5.267274 3.041072,5.267303 h 6.082144 6.082145 l 3.041069,5.26729 h 6.08215 l 3.04107,-5.26729 3.04107,-5.267273 h 6.08215 l 3.04107,5.267273 h 6.08214 l 3.04107,-5.267273 h 6.08215 l 3.04107,5.267273 3.04107,5.26729 h 6.08215 l 3.04107,-5.26729 3.04107,-5.267273 -3.04107,-5.267289 3.04107,-5.267304 h 6.08215 6.08214 l 3.04107,-5.267289 3.04107,-5.267274 3.04108,-5.267304 3.04107,-5.26729 3.04107,-5.267281 3.04107,-5.267312 -3.04107,-5.267274 h -6.08214 -6.08215 l -3.04107,5.267274 -3.04107,5.267312 3.04107,5.267281 3.04107,5.26729 3.04107,5.267304 -3.04107,5.267274 -3.04107,5.267289 -3.04107,5.267304 -3.04107,5.267289 h -6.08215" />
  <path
     inkscape:connector-curvature="0"
     id="path48"
     stroke-width="0.2"
     stroke="black"
     fill="none"
     d="m 58.351322,65.537224 3.041072,5.267295 -3.041072,5.267298 3.041072,5.267259 h 6.082145 l 3.041072,5.26732 h 6.082144 6.082145 l 3.041072,5.267304 -3.041072,5.267259 3.041072,5.267301 h 6.082144 6.082145 l 3.041069,5.26731 h 6.08215 l 3.04107,-5.26731 3.04107,-5.267286 h 6.08215 l 3.04107,5.267286 h 6.08214 l 3.04107,-5.267286 h 6.08215 l 3.04107,5.267286 3.04107,5.26731 h 6.08215 l 3.04107,-5.26731 3.04107,-5.267256 -3.04107,-5.267304 3.04107,-5.267304 h 6.08215 6.08214 l 3.04107,-5.267259 3.04107,-5.267312 3.04108,-5.267297 3.04107,-5.267289 3.04107,-5.267289 3.04107,-5.267289 -3.04107,-5.267298 h -6.08214 -6.08215 l -3.04107,5.267298 -3.04107,5.267289 3.04107,5.267289 3.04107,5.267289 3.04107,5.267297 -3.04107,5.267312 -3.04107,5.267259 -3.04107,5.267304 -3.04107,5.267304 h -6.08215" />
  <path
     inkscape:connector-curvature="0"
     id="path50"
     stroke-width="0.2"
     stroke="black"
     fill="none"
     d="m 58.351322,67.520246 3.041072,5.267305 -3.041072,5.267289 3.041072,5.267274 h 6.082145 l 3.041072,5.267319 h 6.082144 6.082145 l 3.041072,5.267274 -3.041072,5.267289 3.041072,5.267304 h 6.082144 6.082145 l 3.041069,5.26729 h 6.08215 l 3.04107,-5.26729 3.04107,-5.267273 h 6.08215 l 3.04107,5.267273 h 6.08214 l 3.04107,-5.267273 h 6.08215 l 3.04107,5.267273 3.04107,5.26729 h 6.08215 l 3.04107,-5.26729 3.04107,-5.267273 -3.04107,-5.267289 3.04107,-5.267305 h 6.08215 l 3.04107,5.267305 h 6.08214 l 3.04107,5.267289 -3.04107,5.267273 h -6.08214 l -3.04107,-5.267273 3.04107,-5.267289 3.04107,-5.267305 3.04107,-5.267289 3.04107,-5.267274 -3.04107,-5.267319 -3.04107,-5.267274 h -6.08214 -6.08215 l -3.04107,-5.267289 -3.04107,-5.267305 -3.04107,-5.267289 -3.04108,-5.267304 3.04108,-5.26728 h 6.08214" />
  <path
     inkscape:connector-curvature="0"
     id="path52"
     stroke-width="0.2"
     stroke="black"
     fill="none"
     d="m 55.31025,74.790507 -3.041072,5.267289 h -6.082145 l -3.041072,5.26729 3.041072,5.267304 -3.041072,5.267289 3.041072,5.267271 3.041073,5.26732 -3.041073,5.26728 h -6.082144 l -3.041072,5.26728 3.041072,5.26731 3.041072,5.26729 -3.041072,5.26727 3.041072,5.26731 h 6.082145 6.082144 l 3.041072,5.26729 -3.041072,5.26727 3.041072,5.26732 h 6.082145 l 3.041072,5.26727 -3.041072,5.26729 h -6.082145 -6.082144 -6.082145 -6.082144 -6.082144 l -3.041073,-5.26729 3.041073,-5.26727 h 6.082144 l 3.041072,-5.26732 3.041072,-5.26727 h 6.082145 l 3.041072,5.26727 -3.041072,5.26732 H 46.187033 40.104889 34.022745 27.9406 l -3.041072,5.26727 -3.041072,5.26729 h 6.082144 6.082145 6.082144 6.082144 6.082145 6.082144 6.082145 6.082144" />
  <path
     inkscape:connector-curvature="0"
     id="path54"
     stroke-width="0.2"
     stroke="black"
     fill="none"
     d="m 55.31025,76.812653 -3.041072,5.267304 -6.082145,-3e-5 -3.041072,5.267289 3.041072,5.267304 -3.041072,5.267305 3.041072,5.267255 3.041073,5.26732 -3.041073,5.26731 h -6.082144 l -3.041072,5.26725 3.041072,5.26731 3.041072,5.2673 -3.041072,5.26726 3.041072,5.26731 h 6.082145 6.082144 l 3.041072,5.2673 -3.041072,5.26726 3.041072,5.26732 h 6.082145 l 3.041072,5.2673 -3.041072,5.26726 h -6.082145 -6.082144 -6.082145 -6.082144 -6.082144 l -3.041073,-5.26726 3.041073,-5.2673 h 6.082144 l 3.041072,-5.26732 3.041072,-5.26726 h 6.082145 l 3.041072,5.26726 -3.041072,5.26732 H 46.187033 40.104889 34.022745 27.9406 l -3.041072,5.2673 -3.041072,5.26726 h 6.082144 6.082145 6.082144 6.082144 l 3.041073,-5.26726 3.041087,-5.2673 h 6.082144 l 3.041073,5.2673" />
  <path
     inkscape:connector-curvature="0"
     id="path56"
     stroke-width="0.2"
     stroke="black"
     fill="none"
     d="m 55.31025,78.853273 -3.041072,5.267289 -6.082145,-3e-5 -3.041072,5.267304 3.041072,5.267305 -3.041072,5.267289 3.041072,5.26727 3.041073,5.26732 -3.041073,5.26728 h -6.082144 l -3.041072,5.26729 3.041072,5.2673 3.041072,5.26729 -3.041072,5.26727 3.041072,5.26732 h 6.082145 6.082144 l 3.041072,5.26728 -3.041072,5.26729 3.041072,5.2673 h 6.082145 l 3.041072,5.26729 -3.041072,5.26727 h -6.082145 -6.082144 -6.082145 -6.082144 -6.082144 l -3.041073,-5.26727 3.041073,-5.26729 h 6.082144 l 3.041072,-5.2673 3.041072,-5.26729 h 6.082145 l 3.041072,5.26729 -3.041072,5.2673 H 46.187033 40.104889 34.022745 27.9406 l -3.041072,5.26729 -3.041072,5.26727 h 6.082144 6.082145 6.082144 6.082144 l 3.041073,-5.26727 3.041087,-5.26729 h 6.082144 l 3.041073,5.26729" />
  <path
     inkscape:connector-curvature="0"
     id="path58"
     stroke-width="0.2"
     stroke="black"
     fill="none"
     d="m 55.31025,80.911684 -3.041072,5.267319 -6.082145,-3e-5 -3.041072,5.267304 3.041072,5.267289 -3.041072,5.267304 3.041072,5.26728 3.041073,5.26728 -3.041073,5.26731 h -6.082144 l -3.041072,5.26729 3.041072,5.2673 3.041072,5.26729 -3.041072,5.26727 3.041072,5.26731 h 6.082145 6.082144 l 3.041072,5.26729 -3.041072,5.26729 3.041072,5.2673 h 6.082145 l 3.041072,5.26727 -3.041072,5.26729 h -6.082145 -6.082144 -6.082145 -6.082144 -6.082144 l -3.041073,-5.26729 3.041073,-5.26727 h 6.082144 l 3.041072,-5.2673 3.041072,-5.26729 h 6.082145 l 3.041072,5.26729 -3.041072,5.2673 H 46.187033 40.104889 34.022745 27.9406 l -3.041072,5.26727 -3.041072,5.26729 h 6.082144 6.082145 6.082144 6.082144 l 3.041073,-5.26729 3.041087,-5.26727 h 6.082144 l 3.041073,5.26727" />
  <path
     inkscape:connector-curvature="0"
     id="path60"
     stroke-width="0.2"
     stroke="black"
     fill="none"
     d="m 55.31025,82.987368 -3.041072,5.267289 h -6.082145 l -3.041072,5.267274 3.041072,5.267304 -3.041072,5.267285 3.041072,5.26729 3.041073,5.26731 -3.041073,5.26727 h -6.082144 l -3.041072,5.26729 3.041072,5.2673 3.041072,5.26729 -3.041072,5.26728 3.041072,5.2673 h 6.082145 6.082144 l 3.041072,5.26729 -3.041072,5.26729 3.041072,5.2673 h 6.082145 l 3.041072,5.26728 -3.041072,5.26729 h -6.082145 -6.082144 -6.082145 -6.082144 -6.082144 l -3.041073,-5.26729 3.041073,-5.26728 h 6.082144 l 3.041072,-5.2673 3.041072,-5.26729 h 6.082145 l 3.041072,5.26729 -3.041072,5.2673 H 46.187033 40.104889 34.022745 27.9406 l -3.041072,5.26728 -3.041072,5.26729 h 6.082144 6.082145 6.082144 6.082144 l 3.041073,-5.26729 3.041087,-5.26728 h 6.082144 l 3.041073,5.26728" />
  <path
     inkscape:connector-curvature="0"
     id="path62"
     stroke-width="0.2"
     stroke="black"
     fill="none"
     d="m 55.31025,85.079701 -3.041072,5.26729 h -6.082145 l -3.041072,5.267304 3.041072,5.267285 -3.041072,5.26728 3.041072,5.2673 3.041073,5.26729 -3.041073,5.26729 h -6.082144 l -3.041072,5.2673 3.041072,5.26731 3.041072,5.26726 -3.041072,5.2673 3.041072,5.26731 h 6.082145 6.082144 l 3.041072,5.26725 -3.041072,5.26732 3.041072,5.26729 h 6.082145 l 3.041072,5.26728 -3.041072,5.2673 h -6.082145 -6.082144 -6.082145 -6.082144 -6.082144 l -3.041073,-5.2673 3.041073,-5.26728 h 6.082144 l 3.041072,-5.26729 3.041072,-5.26732 h 6.082145 l 3.041072,5.26732 -3.041072,5.26729 H 46.187033 40.104889 34.022745 27.9406 l -3.041072,5.26728 -3.041072,5.2673 h 6.082144 6.082145 6.082144 6.082144 l 3.041073,-5.2673 3.041087,-5.26728 h 6.082144 l 3.041073,5.26728" />
  <path
     inkscape:connector-curvature="0"
     id="path64"
     stroke-width="0.2"
     stroke="black"
     fill="none"
     d="m 55.31025,87.188214 -3.041072,5.267289 h -6.082145 l -3.041072,5.267274 3.041072,5.267323 -3.041072,5.26727 3.041072,5.26729 3.041073,5.2673 -3.041073,5.26728 h -6.082144 l -3.041072,5.26729 3.041072,5.2673 3.041072,5.26729 -3.041072,5.26727 3.041072,5.26732 h 6.082145 6.082144 l 3.041072,5.26728 -3.041072,5.26729 3.041072,5.2673 h 6.082145 l 3.041072,5.26729 -3.041072,5.26727 h -6.082145 -6.082144 -6.082145 -6.082144 -6.082144 l -3.041073,-5.26727 3.041073,-5.26729 h 6.082144 l 3.041072,-5.2673 3.041072,-5.26729 h 6.082145 l 3.041072,5.26729 -3.041072,5.2673 H 46.187033 40.104889 34.022745 27.9406 l -3.041072,5.26729 -3.041072,5.26727 h 6.082144 6.082145 6.082144 6.082144 l 3.041073,-5.26727 3.041087,-5.26729 h 6.082144 l 3.041073,5.26729" />
  <path
     inkscape:connector-curvature="0"
     id="path66"
     stroke-width="0.2"
     stroke="black"
     fill="none"
     d="m 55.31025,89.312387 -3.041072,5.267305 -6.082145,-1.6e-5 -3.041072,5.267305 3.041072,5.267279 -3.041072,5.2673 3.041072,5.26729 3.041073,5.26729 -3.041073,5.2673 h -6.082144 l -3.041072,5.26727 3.041072,5.26732 3.041072,5.26728 -3.041072,5.26729 3.041072,5.2673 h 6.082145 6.082144 l 3.041072,5.26729 -3.041072,5.26727 3.041072,5.26731 h 6.082145 l 3.041072,5.26729 -3.041072,5.26727 h -6.082145 -6.082144 -6.082145 -6.082144 -6.082144 l -3.041073,-5.26727 3.041073,-5.26729 h 6.082144 l 3.041072,-5.26731 3.041072,-5.26727 h 6.082145 l 3.041072,5.26727 -3.041072,5.26731 H 46.187033 40.104889 34.022745 27.9406 l -3.041072,5.26729 -3.041072,5.26727 h 6.082144 6.082145 6.082144 6.082144 l 3.041073,-5.26727 3.041087,-5.26729 h 6.082144 l 3.041073,5.26729" />
  <path
     inkscape:connector-curvature="0"
     id="path68"
     stroke-width="0.2"
     stroke="black"
     fill="none"
     d="m 55.31025,91.451797 -3.041072,5.267304 -6.082145,-1.5e-5 -3.041072,5.267304 3.041072,5.26729 -3.041072,5.2673 3.041072,5.26728 3.041073,5.26729 -3.041073,5.2673 h -6.082144 l -3.041072,5.26729 3.041072,5.2673 3.041072,5.26728 -3.041072,5.26729 3.041072,5.2673 h 6.082145 6.082144 l 3.041072,5.26729 -3.041072,5.26727 3.041072,5.26732 h 6.082145 l 3.041072,5.26728 -3.041072,5.26729 h -6.082145 -6.082144 -6.082145 -6.082144 -6.082144 l -3.041073,-5.26729 3.041073,-5.26728 h 6.082144 l 3.041072,-5.26732 3.041072,-5.26727 h 6.082145 l 3.041072,5.26727 -3.041072,5.26732 H 46.187033 40.104889 34.022745 27.9406 l -3.041072,5.26728 -3.041072,5.26729 h 6.082144 6.082145 6.082144 6.082144 l 3.041073,-5.26729 3.041087,-5.26728 h 6.082144 l 3.041073,5.26728" />
  <path
     inkscape:connector-curvature="0"
     id="path70"
     stroke-width="0.2"
     stroke="black"
     fill="none"
     d="m 55.31025,93.606047 -3.041072,5.267274 h -6.082145 l -3.041072,5.267289 3.041072,5.2673 -3.041072,5.26729 3.041072,5.26728 3.041073,5.2673 -3.041073,5.26729 h -6.082144 l -3.041072,5.26729 3.041072,5.2673 3.041072,5.26728 -3.041072,5.26729 3.041072,5.2673 h 6.082145 6.082144 l 3.041072,5.26729 -3.041072,5.26727 3.041072,5.26731 h 6.082145 l 3.041072,5.26729 -3.041072,5.26729 h -6.082145 -6.082144 -6.082145 -6.082144 -6.082144 l -3.041073,-5.26729 3.041073,-5.26729 h 6.082144 l 3.041072,-5.26731 3.041072,-5.26727 h 6.082145 l 3.041072,5.26727 -3.041072,5.26731 H 46.187033 40.104889 34.022745 27.9406 l -3.041072,5.26729 -3.041072,5.26729 h 6.082144 6.082145 6.082144 6.082144 l 3.041073,-5.26729 3.041087,-5.26729 h 6.082144 l 3.041073,5.26729" />
  <path
     inkscape:connector-curvature="0"
     id="path72"
     stroke-width="0.2"
     stroke="black"
     fill="none"
     d="m 55.31025,95.774666 -3.041072,5.267304 -6.082145,-1e-5 -3.041072,5.26727 3.041072,5.2673 -3.041072,5.26731 3.041072,5.26727 h 6.082145 l 3.041072,5.2673 -3.041072,5.26731 3.041072,5.26726 h 6.082144 6.082145 l 3.041072,5.2673 h 6.082144 l 3.041073,-5.2673 3.041072,-5.26726 h 6.082144 l 3.041072,5.26726 h 6.082145 l 3.041069,-5.26726 h 6.08215 l 3.04107,5.26726 -3.04107,5.2673 3.04107,5.26731 h 6.08214 6.08215 l 3.04107,-5.26731 h 6.08214 l 3.04108,5.26731 -3.04108,5.26726 -3.04107,5.2673 -3.04107,5.26732 h -6.08214 l -3.04108,-5.26732 3.04108,-5.2673 h 6.08214 6.08214 6.08215 6.08214 l 3.04108,-5.26726 3.04107,-5.26731 -3.04107,-5.2673 -3.04108,-5.26726 3.04108,-5.26731 3.04107,-5.26728 -3.04107,-5.26729 -3.04108,-5.26731 3.04108,-5.26727 h 6.08214" />
  <path
     inkscape:connector-curvature="0"
     id="path74"
     stroke-width="0.2"
     stroke="black"
     fill="none"
     d="m 55.31025,97.957319 -3.041072,5.267321 -6.082145,-3e-5 -3.041072,5.2673 3.041072,5.26729 -3.041072,5.26731 3.041072,5.26728 h 6.082145 l 3.041072,5.26728 -3.041072,5.2673 3.041072,5.26729 h 6.082144 6.082145 l 3.041072,5.26731 h 6.082144 l 3.041073,-5.26731 3.041072,-5.26729 h 6.082144 l 3.041072,5.26729 h 6.082145 l 3.041069,-5.26729 h 6.08215 l 3.04107,5.26729 -3.04107,5.26731 3.04107,5.26729 h 6.08214 6.08215 l 3.04107,-5.26729 h 6.08214 l 3.04108,5.26729 -3.04108,5.26727 -3.04107,5.2673 -3.04107,5.26729 h -6.08214 l -3.04108,-5.26729 3.04108,-5.2673 h 6.08214 6.08214 6.08215 6.08214 l 3.04108,-5.26727 3.04107,-5.26729 -3.04107,-5.26731 -3.04108,-5.26729 3.04108,-5.26727 3.04107,-5.26731 -3.04107,-5.26728 -3.04108,-5.26729 3.04108,-5.26731 h 6.08214" />
  <path
     inkscape:connector-curvature="0"
     id="path76"
     stroke-width="0.2"
     stroke="black"
     fill="none"
     d="m 55.31025,100.1537 -3.041072,5.26728 h -6.082145 l -3.041072,5.26729 3.041072,5.2673 -3.041072,5.26729 3.041072,5.26727 h 6.082145 l 3.041072,5.26732 -3.041072,5.26728 3.041072,5.26729 h 6.082144 6.082145 l 3.041072,5.2673 h 6.082144 l 3.041073,-5.2673 3.041072,-5.26729 h 6.082144 l 3.041072,5.26729 h 6.082145 l 3.041069,-5.26729 h 6.08215 l 3.04107,5.26729 -3.04107,5.2673 3.04107,5.26727 h 6.08214 6.08215 l 3.04107,-5.26727 h 6.08214 l 3.04108,5.26727 -3.04108,5.26729 -3.04107,5.26731 -3.04107,5.26729 h -6.08214 l -3.04108,-5.26729 3.04108,-5.26731 h 6.08214 6.08214 6.08215 6.08214 l 3.04108,-5.26729 3.04107,-5.26727 -3.04107,-5.2673 -3.04108,-5.26729 3.04108,-5.26728 3.04107,-5.26729 -3.04107,-5.2673 -3.04108,-5.26729 3.04108,-5.26727 h 6.08214" />
  <path
     inkscape:connector-curvature="0"
     id="path78"
     stroke-width="0.2"
     stroke="black"
     fill="none"
     d="m 55.31025,102.36342 -3.041072,5.26728 h -6.082145 l -3.041072,5.26729 3.041072,5.2673 -3.041072,5.26729 3.041072,5.26727 h 6.082145 l 3.041072,5.26731 -3.041072,5.26729 3.041072,5.26727 h 6.082144 6.082145 l 3.041072,5.26732 h 6.082144 l 3.041073,-5.26732 3.041072,-5.26727 h 6.082144 l 3.041072,5.26727 h 6.082145 l 3.041069,-5.26727 h 6.08215 l 3.04107,5.26727 -3.04107,5.26732 3.04107,5.26727 h 6.08214 6.08215 l 3.04107,-5.26727 h 6.08214 l 3.04108,5.26727 -3.04108,5.26729 -3.04107,5.26731 -3.04107,5.26729 h -6.08214 l -3.04108,-5.26729 3.04108,-5.26731 h 6.08214 6.08214 6.08215 6.08214 l 3.04108,-5.26729 3.04107,-5.26727 -3.04107,-5.26732 -3.04108,-5.26727 3.04108,-5.26729 3.04107,-5.26728 -3.04107,-5.2673 -3.04108,-5.26729 3.04108,-5.26729 h 6.08214" />
  <path
     inkscape:connector-curvature="0"
     id="path80"
     stroke-width="0.2"
     stroke="black"
     fill="none"
     d="m 55.31025,104.58614 -3.041072,5.26731 h -6.082145 l -3.041072,5.26729 3.041072,5.26728 -3.041072,5.26731 3.041072,5.26727 h 6.082145 l 3.041072,5.26729 -3.041072,5.26731 3.041072,5.26728 h 6.082144 6.082145 l 3.041072,5.26731 h 6.082144 l 3.041073,-5.26731 3.041072,-5.26728 h 6.082144 l 3.041072,5.26728 h 6.082145 l 3.041069,-5.26728 h 6.08215 l 3.04107,5.26728 -3.04107,5.26731 3.04107,5.26727 h 6.08214 6.08215 l 3.04107,-5.26727 h 6.08214 l 3.04108,5.26727 -3.04108,5.26729 -3.04107,5.26731 -3.04107,5.26729 h -6.08214 l -3.04108,-5.26729 3.04108,-5.26731 h 6.08214 6.08214 6.08215 6.08214 l 3.04108,-5.26729 3.04107,-5.26727 -3.04107,-5.26731 -3.04108,-5.26728 3.04108,-5.26728 3.04107,-5.26729 -3.04107,-5.2673 -3.04108,-5.26729 3.04108,-5.26727 h 6.08214" />
  <path
     inkscape:connector-curvature="0"
     id="path82"
     stroke-width="0.2"
     stroke="black"
     fill="none"
     d="m 55.31025,106.82167 -3.041072,5.26727 -6.082145,-2e-5 -3.041072,5.26731 3.041072,5.2673 -3.041072,5.26729 3.041072,5.26727 h 6.082145 l 3.041072,5.26731 -3.041072,5.26729 3.041072,5.26729 h 6.082144 6.082145 l 3.041072,5.2673 3.041072,5.26727 h 6.082145 6.082144 l 3.041072,5.26729 -3.041072,5.26731 3.041072,5.26729 h 6.082147 l 3.04107,5.26727 -3.04107,5.26731 h -6.082147 l -3.041072,5.26728 3.041072,5.26729 h 6.082147 l 3.04107,-5.26729 h 6.082139 l 3.04108,5.26729 h -6.08215 -6.082139 -6.082147 l -3.041072,-5.26729 3.041072,-5.26728 h 6.082147 l 3.04107,5.26728 3.041069,5.26729 h 6.08215 6.08214 l 3.04107,-5.26729 3.04108,-5.26728 -3.04108,-5.26731 -3.04107,-5.26727 3.04107,-5.26729 3.04108,-5.26731 -3.04108,-5.26729 -3.04107,-5.26727 3.04107,-5.2673 h 6.08215" />
  <path
     inkscape:connector-curvature="0"
     id="path84"
     stroke-width="0.2"
     stroke="black"
     fill="none"
     d="m 55.31025,109.0696 -3.041072,5.2673 -6.082145,-3e-5 -3.041072,5.2673 3.041072,5.26729 -3.041072,5.26731 3.041072,5.26728 h 6.082145 l 3.041072,5.26728 -3.041072,5.2673 3.041072,5.26729 h 6.082144 6.082145 l 3.041072,5.26731 3.041072,5.26729 h 6.082145 6.082144 l 3.041072,5.26727 -3.041072,5.26732 3.041072,5.26727 h 6.082147 l 3.04107,5.26729 -3.04107,5.26731 h -6.082147 l -3.041072,5.26727 3.041072,5.26729 h 6.082147 l 3.04107,-5.26729 h 6.082139 l 3.04108,5.26729 h -6.08215 -6.082139 -6.082147 l -3.041072,-5.26729 3.041072,-5.26727 h 6.082147 l 3.04107,5.26727 3.041069,5.26729 h 6.08215 6.08214 l 3.04107,-5.26729 3.04108,-5.26727 -3.04108,-5.26731 -3.04107,-5.26729 3.04107,-5.26727 3.04108,-5.26732 -3.04108,-5.26727 -3.04107,-5.26729 3.04107,-5.26731 h 6.08215" />
  <path
     inkscape:connector-curvature="0"
     id="path86"
     stroke-width="0.2"
     stroke="black"
     fill="none"
     d="m 55.31025,111.32972 -3.041072,5.2673 -6.082145,-1e-5 -3.041072,5.2673 3.041072,5.26728 -3.041072,5.26732 3.041072,5.26727 h 6.082145 l 3.041072,5.26729 -3.041072,5.2673 3.041072,5.26728 h 6.082144 6.082145 l 3.041072,5.26732 3.041072,5.26727 h 6.082145 6.082144 l 3.041072,5.26729 -3.041072,5.2673 3.041072,5.26729 h 6.082147 l 3.04107,5.26728 -3.04107,5.2673 h -6.082147 l -3.041072,5.26729 3.041072,5.26729 h 6.082147 l 3.04107,-5.26729 h 6.082139 l 3.04108,5.26729 h -6.08215 -6.082139 -6.082147 l -3.041072,-5.26729 3.041072,-5.26729 h 6.082147 l 3.04107,5.26729 3.041069,5.26729 h 6.08215 6.08214 l 3.04107,-5.26729 3.04108,-5.26729 -3.04108,-5.2673 -3.04107,-5.26728 3.04107,-5.26729 3.04108,-5.2673 -3.04108,-5.26729 -3.04107,-5.26727 3.04107,-5.26732 h 6.08215" />
  <path
     inkscape:connector-curvature="0"
     id="path88"
     stroke-width="0.2"
     stroke="black"
     fill="none"
     d="m 55.31025,113.60178 -3.041072,5.2673 -6.082145,-3e-5 -3.041072,5.26732 3.041072,5.26728 -3.041072,5.26732 3.041072,5.26727 h 6.082145 l 3.041072,5.26727 -3.041072,5.26732 3.041072,5.26728 h 6.082144 6.082145 l 3.041072,5.2673 3.041072,5.26729 h 6.082145 6.082144 l 3.041072,5.26729 -3.041072,5.26729 3.041072,5.26729 h 6.082147 l 3.04107,5.26729 -3.04107,5.2673 h -6.082147 l -3.041072,5.26728 3.041072,5.26729 h 6.082147 l 3.04107,-5.26729 h 6.082139 l 3.04108,5.26729 h -6.08215 -6.082139 -6.082147 l -3.041072,-5.26729 3.041072,-5.26728 h 6.082147 l 3.04107,5.26728 3.041069,5.26729 h 6.08215 6.08214 l 3.04107,-5.26729 3.04108,-5.26728 -3.04108,-5.2673 -3.04107,-5.26729 3.04107,-5.26729 3.04108,-5.26729 -3.04108,-5.26729 -3.04107,-5.26729 3.04107,-5.2673 h 6.08215" />
  <path
     inkscape:connector-curvature="0"
     id="path90"
     stroke-width="0.2"
     stroke="black"
     fill="none"
     d="m 55.31025,115.88554 -3.041072,5.26727 h -6.082145 l -3.041072,5.26729 3.041072,5.2673 -3.041072,5.26729 3.041072,5.26727 h 6.082145 l 3.041072,5.26731 -3.041072,5.26729 3.041072,5.26727 h 6.082144 6.082145 l 3.041072,5.26732 3.041072,5.26727 h 6.082145 6.082144 l 3.041072,5.26729 -3.041072,5.26731 3.041072,5.26729 h 6.082147 l 3.04107,5.26727 -3.04107,5.26731 h -6.082147 l -3.041072,5.26728 3.041072,5.26729 h 6.082147 l 3.04107,-5.26729 h 6.082139 l 3.04108,5.26729 h -6.08215 -6.082139 l -3.041075,-5.26729 3.041075,-5.26728 h 6.082139 l 3.04107,5.26728 -3.04107,5.26729 H 94.844191 88.762044 82.6799 76.597755 70.515611 64.433467 58.351322 l -3.041072,-5.26729 -3.041072,-5.26728 h -6.082145 -6.082144 l -3.041072,-5.26731 3.041072,-5.26727" />
  <path
     inkscape:connector-curvature="0"
     id="path92"
     stroke-width="0.2"
     stroke="black"
     fill="none"
     d="m 55.31025,118.18072 -3.041072,5.26728 h -6.082145 l -3.041072,5.26729 3.041072,5.2673 -3.041072,5.26729 3.041072,5.26727 h 6.082145 l 3.041072,5.26731 -3.041072,5.26729 3.041072,5.26729 h 6.082144 6.082145 l 3.041072,5.2673 3.041072,5.26727 h 6.082145 6.082144 l 3.041072,5.26729 -3.041072,5.26731 3.041072,5.26729 h 6.082147 l 3.04107,5.26727 -3.04107,5.26732 h -6.082147 l -3.041072,5.26727 3.041072,5.26729 h 6.082147 l 3.04107,-5.26729 h 6.082139 l 3.04108,5.26729 h -6.08215 -6.082139 l -3.041075,-5.26729 3.041075,-5.26727 h 6.082139 l 3.04107,5.26727 -3.04107,5.26729 H 94.844191 88.762044 82.6799 76.597755 70.515611 64.433467 58.351322 l -3.041072,-5.26729 -3.041072,-5.26727 h -6.082145 -6.082144 l -3.041072,-5.26732 3.041072,-5.26727" />
  <path
     inkscape:connector-curvature="0"
     id="path94"
     stroke-width="0.2"
     stroke="black"
     fill="none"
     d="m 55.31025,120.48713 -3.041072,5.26729 -6.082145,-3e-5 -3.041072,5.26731 3.041072,5.26731 -3.041072,5.26728 3.041072,5.26729 h 6.082145 l 3.041072,5.2673 -3.041072,5.26728 3.041072,5.26729 h 6.082144 6.082145 l 3.041072,5.2673 3.041072,5.26729 h 6.082145 6.082144 l 3.041072,5.26727 -3.041072,5.26732 3.041072,5.26728 h 6.082147 l 3.04107,5.26728 -3.04107,5.26731 h -6.082147 l -3.041072,5.26729 3.041072,5.26727 h 6.082147 l 3.04107,-5.26727 h 6.082139 l 3.04108,5.26727 h -6.08215 -6.082139 l -3.041075,-5.26727 3.041075,-5.26729 h 6.082139 l 3.04107,5.26729 -3.04107,5.26727 H 94.844191 88.762044 82.6799 76.597755 70.515611 64.433467 58.351322 l -3.041072,-5.26727 -3.041072,-5.26729 h -6.082145 -6.082144 l -3.041072,-5.26731 3.041072,-5.26728" />
  <path
     inkscape:connector-curvature="0"
     id="path96"
     stroke-width="0.2"
     stroke="black"
     fill="none"
     d="m 55.31025,122.80455 -3.041072,5.26731 -6.082145,-2e-5 -3.041072,5.26729 3.041072,5.26729 -3.041072,5.2673 3.041072,5.26729 h 6.082145 l 3.041072,5.26728 -3.041072,5.26732 3.041072,5.26727 h 6.082144 6.082145 l 3.041072,5.26732 3.041072,5.26727 h 6.082145 6.082144 l 3.041072,5.26729 -3.041072,5.26731 3.041072,5.26728 h 6.082147 l 3.04107,5.26728 -3.04107,5.2673 h -6.082147 l -3.041072,5.26729 3.041072,5.26728 h 6.082147 l 3.04107,-5.26728 h 6.082139 l 3.04108,5.26728 h -6.08215 -6.082139 l -3.041075,-5.26728 3.041075,-5.26729 h 6.082139 l 3.04107,5.26729 -3.04107,5.26728 H 94.844191 88.762044 82.6799 76.597755 70.515611 64.433467 58.351322 l -3.041072,-5.26728 -3.041072,-5.26729 h -6.082145 -6.082144 l -3.041072,-5.2673 3.041072,-5.26728" />
  <path
     inkscape:connector-curvature="0"
     id="path98"
     stroke-width="0.2"
     stroke="black"
     fill="none"
     d="m 55.31025,125.13278 -3.041072,5.2673 -6.082145,-1e-5 -3.041072,5.26727 3.041072,5.26732 -3.041072,5.26729 3.041072,5.26726 h 6.082145 l 3.041072,5.26732 -3.041072,5.26729 3.041072,5.26727 h 6.082144 6.082145 l 3.041072,5.26731 3.041072,5.2673 h 6.082145 6.082144 l 3.041072,5.26726 -3.041072,5.26731 3.041072,5.2673 h 6.082147 l 3.04107,5.26727 -3.04107,5.26729 h -6.082147 l -3.041072,5.26732 3.041072,5.26726 h 6.082147 l 3.04107,-5.26726 h 6.082139 l 3.04108,5.26726 h -6.08215 -6.082139 l -3.041075,-5.26726 3.041075,-5.26732 h 6.082139 l 3.04107,5.26732 -3.04107,5.26726 H 94.844191 88.762044 82.6799 76.597755 70.515611 64.433467 58.351322 l -3.041072,-5.26726 -3.041072,-5.26732 h -6.082145 -6.082144 l -3.041072,-5.26729 3.041072,-5.26727" />
  <path
     inkscape:connector-curvature="0"
     id="path100"
     stroke-width="0.2"
     stroke="black"
     fill="none"
     d="m 55.31025,127.47161 -3.041072,5.2673 -6.082145,-1e-5 -3.041072,5.2673 3.041072,5.26728 -3.041072,5.26732 3.041072,5.26727 h 6.082145 l 3.041072,5.26729 -3.041072,5.2673 3.041072,5.26729 h 6.082144 6.082145 l 3.041072,5.26731 3.041072,5.26727 h 6.082145 6.082144 l 3.041072,5.26729 -3.041072,5.2673 3.041072,5.26729 h 6.082147 l 3.04107,5.26728 -3.04107,5.2673 h -6.082147 l -3.041072,5.26729 3.041072,5.26729 h 6.082147 l 3.04107,-5.26729 h 6.082139 l 3.04108,5.26729 h -6.08215 -6.082139 l -3.041075,-5.26729 3.041075,-5.26729 h 6.082139 l 3.04107,5.26729 -3.04107,5.26729 h -6.082139 -6.082147 l -3.041072,-5.26729 h -6.082144 -6.082145 l -3.041072,5.26729 h -6.082144 l -3.041073,-5.26729 -3.041072,-5.26729 h -6.082144 -6.082145 l -3.041072,-5.2673 3.041072,-5.26728" />
  <path
     inkscape:connector-curvature="0"
     id="path102"
     stroke-width="0.2"
     stroke="black"
     fill="none"
     d="m 55.31025,129.82088 -3.041072,5.26729 h -6.082145 l -3.041072,5.26728 3.041072,5.2673 -3.041072,5.26729 3.041072,5.26729 h 6.082145 l 3.041072,5.2673 -3.041072,5.26728 3.041072,5.26729 h 6.082144 6.082145 l 3.041072,5.2673 3.041072,5.26729 h 6.082145 6.082144 l 3.041072,5.26727 -3.041072,5.26732 3.041072,5.26728 h 6.082147 l 3.04107,5.26728 -3.04107,5.26731 h -6.082147 l -3.041072,5.26729 3.041072,5.26727 h 6.082147 l 3.04107,-5.26727 h 6.082139 l 3.04108,5.26727 h -6.08215 -6.082139 l -3.041075,-5.26727 3.041075,-5.26729 h 6.082139 l 3.04107,5.26729 -3.04107,5.26727 h -6.082139 -6.082147 l -3.041072,-5.26727 h -6.082144 -6.082145 l -3.041072,5.26727 h -6.082144 l -3.041073,-5.26727 -3.041072,-5.26729 h -6.082144 -6.082145 l -3.041072,-5.26731 3.041072,-5.26728" />
  <path
     inkscape:connector-curvature="0"
     id="path104"
     stroke-width="0.2"
     stroke="black"
     fill="none"
     d="m 55.31025,132.18036 -3.041072,5.2673 -6.082145,-1e-5 -3.041072,5.2673 3.041072,5.26729 -3.041072,5.26731 3.041072,5.26727 h 6.082145 l 3.041072,5.26729 -3.041072,5.2673 3.041072,5.26729 h 6.082144 6.082145 l 3.041072,5.26731 3.041072,5.26727 h 6.082145 6.082144 l 3.041072,5.26729 -3.041072,5.2673 3.041072,5.26729 h 6.082147 l 3.04107,5.26728 -3.04107,5.26732 h -6.082147 l -3.041072,5.26727 3.041072,5.26729 h 6.082147 l 3.04107,-5.26729 h 6.082139 l 3.04108,5.26729 h -6.08215 -6.082139 l -3.041075,-5.26729 3.041075,-5.26727 h 6.082139 l 3.04107,5.26727 -3.04107,5.26729 h -6.082139 -6.082147 l -3.041072,-5.26729 h -6.082144 -6.082145 l -3.041072,5.26729 h -6.082144 l -3.041073,-5.26729 -3.041072,-5.26727 h -6.082144 -6.082145 l -3.041072,-5.26732 3.041072,-5.26728" />
  <path
     inkscape:connector-curvature="0"
     id="path106"
     stroke-width="0.2"
     stroke="black"
     fill="none"
     d="m 55.31025,134.54992 -3.041072,5.2673 -6.082145,-3e-5 -3.041072,5.26732 3.041072,5.26727 -3.041072,5.26731 3.041072,5.26729 h 6.082145 l 3.041072,5.26729 -3.041072,5.26729 3.041072,5.26728 h 6.082144 6.082145 l 3.041072,5.26731 3.041072,5.26729 h 6.082145 6.082144 l 3.041072,5.26727 -3.041072,5.26732 3.041072,5.26728 h 6.082147 l 3.04107,5.26728 -3.04107,5.26731 h -6.082147 l -3.041072,5.26729 3.041072,5.26727 h 6.082147 l 3.04107,-5.26727 h 6.082139 l 3.04108,5.26727 h -6.08215 -6.082139 l -3.041075,-5.26727 3.041075,-5.26729 h 6.082139 l 3.04107,5.26729 -3.04107,5.26727 h -6.082139 -6.082147 l -3.041072,-5.26727 h -6.082144 -6.082145 l -3.041072,5.26727 h -6.082144 l -3.041073,-5.26727 -3.041072,-5.26729 h -6.082144 -6.082145 l -3.041072,-5.26731 3.041072,-5.26728" />
  <path
     inkscape:connector-curvature="0"
     id="path108"
     stroke-width="0.2"
     stroke="black"
     fill="none"
     d="m 55.31025,136.92937 -3.041072,5.26731 -6.082145,-3e-5 -3.041072,5.26729 3.041072,5.2673 -3.041072,5.2673 3.041072,5.26726 h 6.082145 l 3.041072,5.26731 -3.041072,5.26732 3.041072,5.26726 h 6.082144 6.082145 l 3.041072,5.2673 3.041072,5.2673 h 6.082145 6.082144 l 3.041072,5.26726 -3.041072,5.26731 3.041072,5.26732 h 6.082147 l 3.04107,5.26724 -3.04107,5.26732 h -6.082147 l -3.041072,5.2673 3.041072,5.26726 h 6.082147 l 3.04107,-5.26726 h 6.082139 l 3.04108,5.26726 h -6.08215 -6.082139 l -3.041075,-5.26726 3.041075,-5.2673 h 6.082139 l 3.04107,5.2673 -3.04107,5.26726 h -6.082139 -6.082147 l -3.041072,-5.26726 h -6.082144 -6.082145 l -3.041072,5.26726 h -6.082144 l -3.041073,-5.26726 -3.041072,-5.2673 h -6.082144 -6.082145 l -3.041072,-5.26732 3.041072,-5.26724" />
  <path
     inkscape:connector-curvature="0"
     id="path110"
     stroke-width="0.2"
     stroke="black"
     fill="none"
     d="m 55.31025,139.31855 -3.041072,5.26729 h -6.082145 l -3.041072,5.2673 3.041072,5.26729 -3.041072,5.26727 3.041072,5.26731 h 6.082145 l 3.041072,5.26729 -3.041072,5.26727 3.041072,5.26732 h 6.082144 6.082145 l 3.041072,5.2673 3.041072,5.26726 h 6.082145 6.082144 l 3.041072,5.26731 -3.041072,5.2673 3.041072,5.26726 h 6.082147 l 3.04107,5.2673 -3.04107,5.26731 h -6.082147 l -3.041072,5.26727 3.041072,5.26731 h 6.082147 l 3.04107,-5.26731 h 6.082139 l 3.04108,5.26731 h -6.08215 -6.082139 l -3.041075,-5.26731 3.041075,-5.26727 h 6.082139 l 3.04107,5.26727 -3.04107,5.26731 h -6.082139 -6.082147 l -3.041072,-5.26731 h -6.082144 -6.082145 l -3.041072,5.26731 h -6.082144 l -3.041073,-5.26731 -3.041072,-5.26727 h -6.082144 -6.082145 l -3.041072,-5.26731 3.041072,-5.2673" />
  <path
     inkscape:connector-curvature="0"
     id="path112"
     stroke-width="0.2"
     stroke="black"
     fill="none"
     d="m 55.31025,141.71731 -3.041072,5.26728 h -6.082145 l -3.041072,5.2673 3.041072,5.26729 -3.041072,5.26729 3.041072,5.2673 h 6.082145 l 3.041072,5.26728 -3.041072,5.26729 3.041072,5.2673 h 6.082144 l 3.041073,-5.2673 h 6.082144 6.082144 l 3.041073,-5.26726 3.041072,-5.26731 h 6.082144 l 3.041072,5.26731 h 6.082145 l 3.041069,-5.26731 h 6.08215 l 3.04107,5.26731 -3.04107,5.26726 3.04107,5.2673 h 6.08214 6.08215 l 3.04107,-5.2673 h 6.08214 l 3.04108,5.2673 -3.04108,5.26731 -3.04107,5.26725 h -6.08214 l -3.04107,-5.26725 3.04107,-5.26731 h 6.08214 l 3.04107,5.26731 3.04108,5.2673 -3.04108,5.26727 h -6.08214 l -3.04107,5.26731 -3.04107,5.26726 3.04107,5.2673 3.04107,5.26731 -3.04107,5.26725 -3.04107,5.26731 h 6.08214 6.08214 6.08215 6.08214" />
  <path
     inkscape:connector-curvature="0"
     id="path114"
     stroke-width="0.2"
     stroke="black"
     fill="none"
     d="m 55.31025,144.12549 -3.041072,5.26728 h -6.082145 l -3.041072,5.26732 3.041072,5.26727 -3.041072,5.26729 3.041072,5.2673 h 6.082145 l 3.041072,5.26729 -3.041072,5.26728 3.041072,5.2673 h 6.082144 l 3.041073,-5.2673 h 6.082144 6.082144 l 3.041073,-5.26726 3.041072,-5.26731 h 6.082144 l 3.041072,5.26731 h 6.082145 l 3.041069,-5.26731 h 6.08215 l 3.04107,5.26731 -3.04107,5.26726 3.04107,5.2673 h 6.08214 l 3.04108,-5.2673 -3.04108,-5.26726 3.04108,-5.26731 h 6.08214 l 3.04107,5.26731 3.04107,5.26726 -3.04107,5.2673 h -6.08214 l -3.04107,-5.2673 3.04107,-5.26726 h 6.08214 6.08215 l 3.04107,5.26727 -3.04107,5.26729 3.04107,5.26731 h 6.08214 l 3.04108,-5.26731 3.04107,-5.26729 h 6.08214 6.08215 l 3.04107,-5.26727 3.04107,-5.26731 3.04107,5.26731 -3.04107,5.2673" />
  <path
     inkscape:connector-curvature="0"
     id="path116"
     stroke-width="0.2"
     stroke="black"
     fill="none"
     d="m 55.31025,146.54298 -3.041072,5.26727 -6.082145,-1e-5 -3.041072,5.2673 3.041072,5.26731 -3.041072,5.26728 3.041072,5.26728 h 6.082145 l 3.041072,5.2673 -3.041072,5.26729 3.041072,5.26729 h 6.082144 l 3.041073,-5.26729 h 6.082144 6.082144 l 3.041073,-5.26729 3.041072,-5.2673 h 6.082144 l 3.041072,5.2673 h 6.082145 l 3.041069,-5.2673 h 6.08215 l 3.04107,5.2673 -3.04107,5.26729 3.04107,5.26731 h 6.08214 l 3.04108,-5.26731 -3.04108,-5.26729 3.04108,-5.2673 h 6.08214 l 3.04107,5.2673 3.04107,5.26729 -3.04107,5.26731 h -6.08214 l -3.04107,-5.26731 3.04107,-5.26729 h 6.08214 6.08215 l 3.04107,5.26732 -3.04107,5.26728 3.04107,5.26729 h 6.08214 l 3.04108,-5.26729 3.04107,-5.26728 h 6.08214 6.08215 l 3.04107,-5.26732 3.04107,-5.26727 3.04107,5.26727 -3.04107,5.26732" />
  <path
     inkscape:connector-curvature="0"
     id="path118"
     stroke-width="0.2"
     stroke="black"
     fill="none"
     d="m 55.31025,148.96957 -3.041072,5.26729 -6.082145,-3e-5 -3.041072,5.26732 3.041072,5.2673 -3.041072,5.26728 3.041072,5.26729 h 6.082145 l 3.041072,5.2673 -3.041072,5.26729 3.041072,5.26727 h 6.082144 l 3.041073,-5.26727 h 6.082144 6.082144 l 3.041073,-5.26729 3.041072,-5.2673 h 6.082144 l 3.041072,5.2673 h 6.082145 l 3.041069,-5.2673 h 6.08215 l 3.04107,5.2673 -3.04107,5.26729 3.04107,5.2673 h 6.08214 l 3.04108,-5.2673 -3.04108,-5.26729 3.04108,-5.2673 h 6.08214 l 3.04107,5.2673 3.04107,5.26729 -3.04107,5.2673 h -6.08214 l -3.04107,-5.2673 3.04107,-5.26729 h 6.08214 6.08215 l 3.04107,5.26731 -3.04107,5.26728 3.04107,5.26728 h 6.08214 l 3.04108,-5.26728 3.04107,-5.26728 h 6.08214 6.08215 l 3.04107,-5.26731 3.04107,-5.26729 3.04107,5.26729 -3.04107,5.26731" />
  <path
     inkscape:connector-curvature="0"
     id="path120"
     stroke-width="0.2"
     stroke="black"
     fill="none"
     d="m 55.31025,151.40518 -3.041072,5.26729 -6.082145,-3e-5 h -6.082144 l -3.041072,5.2673 h -6.082145 l -3.041072,5.26731 3.041072,5.26729 -3.041072,5.26729 h -6.082144 l -3.041073,5.2673 3.041073,5.26727 H 27.9406 l 3.041072,5.26729 3.041073,5.26731 h 6.082144 6.082144 l 3.041073,5.26729 -3.041073,5.26727 3.041073,5.26731 h 6.082144 l 3.041072,5.26728 -3.041072,5.26729 h -6.082144 l -3.041073,5.26731 3.041073,5.26727 h 6.082144 l 3.041072,-5.26727 h 6.082145 l 3.041072,5.26727 -3.041072,5.26729 h -6.082145 l -3.041072,-5.26729 3.041072,-5.26727 h 6.082145 l 3.041072,5.26727 -3.041072,5.26729 h -6.082145 l -3.041072,-5.26729 3.041087,-5.26727 -3.041072,-5.26731 h -6.082144 l -3.041072,5.26731 -3.041073,5.26727 h -6.082144 -6.082144 l -3.041073,5.26729 h -6.082159 l -3.041073,-5.26729 3.041088,-5.26727" />
  <path
     inkscape:connector-curvature="0"
     id="path122"
     stroke-width="0.2"
     stroke="black"
     fill="none"
     d="m 55.31025,153.84964 -3.041072,5.26732 h -6.082145 -6.082144 l -3.041072,5.26727 h -6.082145 l -3.041072,5.26729 3.041072,5.26731 -3.041072,5.26729 h -6.082144 l -3.041073,5.26727 3.041073,5.2673 H 27.9406 l 3.041072,5.26729 3.041073,5.26731 h 6.082144 6.082144 l 3.041073,5.26729 -3.041073,5.26727 3.041073,5.26732 h 6.082144 l 3.041072,5.26727 -3.041072,5.26729 h -6.082144 l -3.041073,5.26731 3.041073,5.26727 h 6.082144 l 3.041072,-5.26727 h 6.082145 l 3.041072,5.26727 -3.041072,5.26729 h -6.082145 l -3.041072,-5.26729 3.041072,-5.26727 h 6.082145 l 3.041072,5.26727 -3.041072,5.26729 h -6.082145 l -3.041072,-5.26729 3.041087,-5.26727 -3.041072,-5.26731 h -6.082144 l -3.041072,5.26731 h -6.082145 l -3.041072,-5.26731 -3.041072,-5.26729 h -6.082145 -6.082159 l -3.041073,-5.26727 3.041088,-5.26732" />
  <path
     inkscape:connector-curvature="0"
     id="path124"
     stroke-width="0.2"
     stroke="black"
     fill="none"
     d="m 55.31025,156.30289 -3.041072,5.2673 -6.082145,-3e-5 h -6.082144 l -3.041072,5.26729 h -6.082145 l -3.041072,5.26731 3.041072,5.2673 -3.041072,5.26726 h -6.082144 l -3.041073,5.26732 3.041073,5.2673 H 27.9406 l 3.041072,5.26726 3.041073,5.26731 h 6.082144 6.082144 l 3.041073,5.2673 -3.041073,5.26726 3.041073,5.2673 h 6.082144 l 3.041072,5.26731 -3.041072,5.26727 h -6.082144 l -3.041073,5.26731 3.041073,5.2673 h 6.082144 l 3.041072,-5.2673 3.041072,-5.26731 h 6.082145 l 3.041072,5.26731 -3.041072,5.2673 h -6.082145 l -3.041072,-5.2673 3.041072,-5.26726 h 6.082145 l 3.041072,5.26726 3.041072,5.2673 -3.041072,5.2673 h -6.082144 -6.082145 -6.082144 -6.082145 l -3.041057,-5.2673 3.041073,-5.2673 3.041072,-5.26726 -3.041072,-5.26732 -3.041073,-5.26731 3.041073,-5.26726 h 6.082144" />
  <path
     inkscape:connector-curvature="0"
     id="path126"
     stroke-width="0.2"
     stroke="black"
     fill="none"
     d="m 55.31025,158.76473 -3.041072,5.26729 h -6.082145 -6.082144 l -3.041072,5.2673 h -6.082145 l -3.041072,5.26729 3.041072,5.26727 -3.041072,5.26731 h -6.082144 l -3.041073,5.26729 3.041073,5.26729 H 27.9406 l 3.041072,5.2673 3.041073,5.26731 h 6.082144 6.082144 l 3.041073,5.26725 -3.041073,5.26731 3.041073,5.2673 h 6.082144 l 3.041072,5.26726 -3.041072,5.26732 h -6.082144 l -3.041073,5.26729 3.041073,5.26727 h 6.082144 l 3.041072,-5.26727 3.041072,-5.26729 h 6.082145 l 3.041072,5.26729 -3.041072,5.26727 h -6.082145 l -3.041072,-5.26727 3.041072,-5.26729 h 6.082145 l 3.041072,5.26729 3.041072,5.26732 -3.041072,5.26726 h -6.082144 -6.082145 -6.082144 -6.082145 l -3.041057,-5.26726 3.041073,-5.26732 3.041072,-5.26729 -3.041072,-5.26727 -3.041073,-5.26731 3.041073,-5.2673 h 6.082144" />
  <path
     inkscape:connector-curvature="0"
     id="path128"
     stroke-width="0.2"
     stroke="black"
     fill="none"
     d="m 55.31025,161.2351 -3.041072,5.26727 h -6.082145 -6.082144 l -3.041072,5.26732 h -6.082145 l -3.041072,5.26727 3.041072,5.26729 -3.041072,5.26731 h -6.082144 l -3.041073,5.26727 3.041073,5.26729 H 27.9406 l 3.041072,5.26731 3.041073,5.2673 h 6.082144 6.082144 l 3.041073,5.26726 -3.041073,5.26732 3.041073,5.2673 h 6.082144 l 3.041072,5.26726 -3.041072,5.26731 h -6.082144 l -3.041073,5.2673 3.041073,5.26726 h 6.082144 l 3.041072,-5.26726 3.041072,-5.2673 h 6.082145 l 3.041072,5.2673 -3.041072,5.26726 h -6.082145 l -3.041072,-5.26726 3.041072,-5.2673 h 6.082145 l 3.041072,5.2673 3.041072,5.2673 -3.041072,5.26726 h -6.082144 -6.082145 -6.082144 -6.082145 l -3.041057,-5.26726 3.041073,-5.2673 3.041072,-5.2673 -3.041072,-5.26726 -3.041073,-5.26731 3.041073,-5.2673 h 6.082144" />
  <path
     inkscape:connector-curvature="0"
     id="path130"
     stroke-width="0.2"
     stroke="black"
     fill="none"
     d="m 55.31025,163.71383 -3.041072,5.2673 h -6.082145 -6.082144 l -3.041072,5.26729 h -6.082145 l -3.041072,5.26728 3.041072,5.26732 -3.041072,5.26727 h -6.082144 l -3.041073,5.26729 3.041073,5.2673 H 27.9406 l 3.041072,5.26729 3.041073,5.26731 h 6.082144 6.082144 l 3.041073,5.26727 -3.041073,5.26729 3.041073,5.2673 h 6.082144 l 3.041072,5.26729 -3.041072,5.26728 h -6.082144 l -3.041073,5.2673 3.041073,5.26729 h 6.082144 l 3.041072,-5.26729 3.041072,-5.2673 h 6.082145 l 3.041072,5.2673 -3.041072,5.26729 h -6.082145 l -3.041072,-5.26729 3.041072,-5.26727 h 6.082145 l 3.041072,5.26727 3.041072,5.26731 -3.041072,5.26729 h -6.082144 -6.082145 -6.082144 -6.082145 l -3.041057,-5.26729 3.041073,-5.26731 3.041072,-5.26727 -3.041072,-5.26729 -3.041073,-5.26731 3.041073,-5.26728 h 6.082144" />
  <path
     inkscape:connector-curvature="0"
     id="path132"
     stroke-width="0.2"
     stroke="black"
     fill="none"
     d="m 55.31025,166.20085 -3.041072,5.2673 h -6.082145 -6.082144 l -3.041072,5.26729 h -6.082145 l -3.041072,5.26728 3.041072,5.26732 -3.041072,5.26727 h -6.082144 l -3.041073,5.26729 3.041073,5.2673 H 27.9406 l 3.041072,5.26729 3.041073,5.26731 h 6.082144 6.082144 l 3.041073,5.26727 -3.041073,5.26729 3.041073,5.2673 h 6.082144 l 3.041072,5.26729 -3.041072,5.26728 h -6.082144 l -3.041073,5.2673 3.041073,5.26729 h 6.082144 l 3.041072,-5.26729 3.041072,-5.2673 h 6.082145 l 3.041072,5.2673 -3.041072,5.26729 h -6.082145 l -3.041072,-5.26729 3.041072,-5.26727 h 6.082145 l 3.041072,5.26727 3.041072,5.26731 -3.041072,5.26728 h -6.082144 -6.082145 -6.082144 -6.082145 l -3.041057,-5.26728 3.041073,-5.26731 3.041072,-5.26727 -3.041072,-5.26729 -3.041073,-5.26731 3.041073,-5.26729 h 6.082144" />
  <path
     inkscape:connector-curvature="0"
     id="path134"
     stroke-width="0.2"
     stroke="black"
     fill="none"
     d="m 55.31025,168.69606 -3.041072,5.26728 h -6.082145 -6.082144 l -3.041072,5.2673 h -6.082145 l -3.041072,5.26729 3.041072,5.26729 -3.041072,5.2673 h -6.082144 l -3.041073,5.26728 3.041073,5.26729 H 27.9406 l 3.041072,5.2673 3.041073,5.26731 h 6.082144 6.082144 l 3.041073,5.26725 -3.041073,5.26732 3.041073,5.26731 h 6.082144 l 3.041072,5.26726 -3.041072,5.2673 h -6.082144 l -3.041073,5.26731 3.041073,5.26725 h 6.082144 l 3.041072,-5.26725 3.041072,-5.26731 h 6.082145 l 3.041072,5.26731 -3.041072,5.26725 h -6.082145 l -3.041072,-5.26725 3.041072,-5.26731 h 6.082145 l 3.041072,5.26731 3.041072,5.2673 -3.041072,5.26726 h -6.082144 -6.082145 -6.082144 -6.082145 l -3.041057,-5.26726 3.041073,-5.2673 3.041072,-5.26731 -3.041072,-5.26726 -3.041073,-5.2673 3.041073,-5.26731 h 6.082144" />
  <path
     inkscape:connector-curvature="0"
     id="path136"
     stroke-width="0.2"
     stroke="black"
     fill="none"
     d="m 55.31025,171.19929 -3.041072,5.26731 h -6.082145 -6.082144 l -3.041072,5.26729 h -6.082145 l -3.041072,5.26728 3.041072,5.26731 -3.041072,5.26727 h -6.082144 l -3.041073,5.26729 3.041073,5.26731 H 27.9406 l 3.041072,5.26729 3.041073,5.2673 h 6.082144 6.082144 l 3.041073,5.26729 -3.041073,5.26727 3.041073,5.26731 h 6.082144 l 3.041072,5.26729 -3.041072,5.26727 h -6.082144 l -3.041073,5.26732 3.041073,5.26727 h 6.082144 l 3.041072,-5.26727 3.041072,-5.26732 h 6.082145 l 3.041072,5.26732 -3.041072,5.26727 h -6.082145 l -3.041072,-5.26727 3.041072,-5.26729 h 6.082145 l 3.041072,5.26729 3.041072,5.2673 -3.041072,5.26728 h -6.082144 -6.082145 -6.082144 -6.082145 l -3.041057,-5.26728 3.041073,-5.2673 3.041072,-5.26729 -3.041072,-5.26729 -3.041073,-5.2673 3.041073,-5.26728 h 6.082144" />
  <path
     inkscape:connector-curvature="0"
     id="path138"
     stroke-width="0.2"
     stroke="black"
     fill="none"
     d="m 55.31025,173.71052 -3.041072,5.26727 h -6.082145 -6.082144 l -3.041072,5.26732 h -6.082145 l -3.041072,5.26728 3.041072,5.26728 -3.041072,5.26731 h -6.082144 l -3.041073,5.26729 3.041073,5.26727 H 27.9406 l 3.041072,5.26731 3.041073,5.2673 h 6.082144 6.082144 l 3.041073,5.26726 -3.041073,5.26732 3.041073,5.2673 h 6.082144 l 3.041072,5.26726 -3.041072,5.26731 h -6.082144 l -3.041073,5.2673 3.041073,5.26726 h 6.082144 l 3.041072,-5.26726 3.041072,-5.2673 h 6.082145 l 3.041072,5.2673 -3.041072,5.26726 h -6.082145 l -3.041072,-5.26726 3.041072,-5.2673 h 6.082145 l 3.041072,5.2673 3.041072,5.2673 -3.041072,5.26726 h -6.082144 -6.082145 -6.082144 -6.082145 l -3.041057,-5.26726 3.041073,-5.2673 3.041072,-5.2673 -3.041072,-5.26726 -3.041073,-5.26731 3.041073,-5.2673 h 6.082144" />
  <path
     inkscape:connector-curvature="0"
     id="path140"
     stroke-width="0.2"
     stroke="black"
     fill="none"
     d="m 55.31025,176.22958 -3.041072,5.2673 h -6.082145 -6.082144 l -3.041072,5.26729 h -6.082145 l -3.041072,5.26727 3.041072,5.26732 -3.041072,5.26728 h -6.082144 l -3.041073,5.26728 3.041073,5.26731 H 27.9406 l 3.041072,5.26729 3.041073,5.2673 h 6.082144 6.082144 l 3.041073,5.26728 -3.041073,5.26729 3.041073,5.2673 h 6.082144 l 3.041072,5.26729 -3.041072,5.26727 h -6.082144 l -3.041073,5.26731 3.041073,5.26729 h 6.082144 l 3.041072,-5.26729 3.041072,-5.26731 h 6.082145 l 3.041072,5.26731 -3.041072,5.26729 h -6.082145 l -3.041072,-5.26729 3.041072,-5.26728 h 6.082145 l 3.041072,5.26728 3.041072,5.26732 -3.041072,5.26727 h -6.082144 -6.082145 -6.082144 -6.082145 l -3.041057,-5.26727 3.041073,-5.26732 3.041072,-5.26728 -3.041072,-5.26729 -3.041073,-5.2673 3.041073,-5.26729 h 6.082144" />
  <path
     inkscape:connector-curvature="0"
     id="path142"
     stroke-width="0.2"
     stroke="black"
     fill="none"
     d="m 55.31025,178.75642 -3.041072,5.2673 h -6.082145 -6.082144 l -3.041072,5.26728 -3.041072,5.26728 3.041072,5.26731 h 6.082144 l 3.041072,5.26729 -3.041072,5.26727 3.041072,5.26731 h 6.082145 l 3.041072,-5.26731 h 6.082144 6.082145 l 3.041072,-5.26727 3.041087,-5.26729 h 6.082145 l 3.041072,5.2673 h 6.082129 l 3.041072,-5.2673 h 6.082145 l 3.041069,5.2673 -3.041069,5.26729 3.041069,5.26728 h 6.08215 l 3.04107,-5.26728 -3.04107,-5.26729 -3.04108,-5.2673 3.04108,-5.26731 h 6.08214 l 3.04107,5.26731 -3.04107,5.2673 h -6.08214 l -3.04108,-5.2673 3.04108,-5.26731 h 6.08214 6.08215 l 3.04107,5.26731 -3.04107,5.2673 3.04107,5.26729 h 6.08214 l 3.04107,-5.26729 h 6.08215 l 3.04107,5.26729 3.04107,5.26728 h 6.08215 6.08214 l 3.04107,5.2673 -3.04107,5.26729" />
  <path
     inkscape:connector-curvature="0"
     id="path144"
     stroke-width="0.2"
     stroke="black"
     fill="none"
     d="m 55.31025,181.29095 -3.041072,5.26728 -6.082145,-3e-5 h -6.082144 l -3.041072,5.26732 -3.041072,5.2673 3.041072,5.26727 h 6.082144 l 3.041072,5.26729 -3.041072,5.26731 3.041072,5.26729 h 6.082145 l 3.041072,-5.26729 h 6.082144 6.082145 l 3.041072,-5.26731 3.041087,-5.26729 h 6.082145 l 3.041072,5.26729 h 6.082129 l 3.041072,-5.26729 h 6.082145 l 3.041069,5.26729 -3.041069,5.26731 3.041069,5.26729 h 6.08215 l 3.04107,-5.26729 -3.04107,-5.26731 -3.04108,-5.26729 3.04108,-5.26727 h 6.08214 l 3.04107,5.26727 -3.04107,5.26729 h -6.08214 l -3.04108,-5.26729 3.04108,-5.26727 h 6.08214 6.08215 l 3.04107,5.26727 -3.04107,5.26729 3.04107,5.26731 h 6.08214 l 3.04107,-5.26731 h 6.08215 l 3.04107,5.26731 3.04107,5.26729 h 6.08215 6.08214 l 3.04107,5.2673 -3.04107,5.26729" />
  <path
     inkscape:connector-curvature="0"
     id="path146"
     stroke-width="0.2"
     stroke="black"
     fill="none"
     d="m 55.31025,183.833 -3.041072,5.26731 -6.082145,-2e-5 h -6.082144 l -3.041072,5.26727 -3.041072,5.26731 3.041072,5.2673 h 6.082144 l 3.041072,5.26726 -3.041072,5.26732 3.041072,5.2673 h 6.082145 l 3.041072,-5.2673 h 6.082144 6.082145 l 3.041072,-5.26732 3.041087,-5.26726 h 6.082145 l 3.041072,5.26729 h 6.082129 6.082147 l 3.04107,5.26729 -3.04107,5.2673 h -6.082147 l -3.041057,5.26726 3.041057,5.26731 h 6.082147 l 3.04107,-5.26726 3.041069,-5.26731 h 6.08215 l 3.04107,5.26731 -3.04107,5.26726 h -6.08215 l -3.041069,-5.26726 3.041069,-5.26731 h 6.08215 l 3.04107,5.26731 3.04107,5.26726 -3.04107,5.2673 h -6.08215 l -3.04107,5.26731 3.04107,5.26726 h 6.08215 l 3.04107,5.2673 -3.04107,5.26732 -3.04107,5.26726 3.04107,5.2673 3.04107,5.26731 h -6.08214 l -3.04108,-5.26731" />
  <path
     inkscape:connector-curvature="0"
     id="path148"
     stroke-width="0.2"
     stroke="black"
     fill="none"
     d="m 55.31025,186.38257 -3.041072,5.26731 h -6.082145 -6.082144 l -3.041072,5.26727 -3.041072,5.26729 3.041072,5.26731 h 6.082144 l 3.041072,5.26729 -3.041072,5.26727 3.041072,5.26732 h 6.082145 l 3.041072,-5.26732 h 6.082144 6.082145 l 3.041072,-5.26727 3.041087,-5.26729 h 6.082145 l 3.041072,5.2673 h 6.082129 6.082147 l 3.04107,5.26729 -3.04107,5.26729 h -6.082147 l -3.041057,5.26727 3.041057,5.26731 h 6.082147 l 3.04107,-5.26728 3.041069,-5.2673 h 6.08215 l 3.04107,5.2673 -3.04107,5.26728 h -6.08215 l -3.041069,-5.26728 3.041069,-5.2673 h 6.08215 l 3.04107,5.2673 3.04107,5.26728 -3.04107,5.2673 h -6.08215 l -3.04107,5.26729 3.04107,5.26729 h 6.08215 l 3.04107,5.2673 -3.04107,5.26728 h -6.08215 l -3.04107,5.26729 -3.041069,5.26729 h -6.082145 l -3.041072,-5.26729" />
  <path
     id="path150"
     transform="translate(180,285) scale(0.3)"
     stroke-width="1"
     stroke="black"
     fill="none"
     d="m 15.815664,12.893319 c -1.445284,-3.0999497 -5.555449,-0.3575 -5.08537,2.32203 1.697826,2.92736 4.504013,-3.54417 4.40859,-2.58178 -1.548999,2.22986 0.741131,6.08701 3.012419,3.25791 2.532153,-2.82358 0.259001,-7.8326797 -3.488671,-7.9011197 -3.217272,0.056 -5.8863857,2.4603197 -7.9308737,4.7238797 -2.354585,2.46752 0.0048,5.887 2.757763,6.62143 3.2195457,1.10867 6.8759417,1.30834 9.9459317,-0.36585 2.270396,-1.12373 5.025949,-2.62031 5.680576,-5.20027 -2.108811,-3.66096 -6.038415,1.28356 -3.842036,3.67822 1.07278,0.89979 4.586982,-2.27037 3.201668,-2.73503 0.03094,3.24357 1.226854,6.37852 1.337023,9.60311 -0.672198,3.54892 -7.469251,0.32096 -4.637082,-2.5164 2.158436,-2.4193 5.610472,-2.84094 8.202925,-4.57369 0.993877,-1.40371 0.353413,-5.25046 3.182464,-3.48957 2.142923,1.43516 -2.250898,5.7532 1.723416,5.02339 1.661189,-0.71663 6.494946,-1.40457 4.601401,-3.95236 -4.205319,-0.68052 -1.190571,5.86505 1.665411,3.46881 1.929752,-0.9247 2.778055,-4.05119 1.423645,-5.35034 0.479155,1.8589 3.849911,7.52574 4.880369,3.32696 0.21201,-1.28088 0.40468,-3.80204 1.01246,-1.23041 0.5858,2.6865 3.83412,4.91909 4.56937,1.07383 0.65272,-1.00894 -0.2696,-4.02739 0.99929,-1.35746 1.10974,2.31613 6.32001,1.46113 6.147,-1.13059 -1.98394,-2.13868 -5.3717,1.45205 -3.78252,3.73454 2.57741,0.96208 6.69797,-0.21041 7.06275,-3.33983 0.41287,-2.63769 0.26643,-5.3430297 -0.11178,-7.9756197 0.67418,3.94149 1.24889,7.9380497 2.39963,11.7713397 2.10586,1.67977 5.7434,1.65022 7.74596,-0.23639 3.03149,-1.85431 -0.26637,-4.76925 -2.71777,-4.54025 -2.11577,0.0793 -5.36257,2.40772 -5.16868,3.85604 2.08262,-2.38818 5.55759,-1.22628 8.30726,-1.6832 3.182,-0.26596 6.46546,-0.57372 9.54494,-1.18158 0.24171,0.4199 -0.27752,0.54338 -0.43067,0.17453" />
</svg>
