<svg height="297mm" style="background: #D60" viewBox="0 0 210 297" width="210mm" xmlns="http://www.w3.org/2000/svg" xmlns:inkscape="http://www.inkscape.org/namespaces/inkscape">
<path d="M109,100 L113,100 L115,103.4641 L119,103.4641 L121,100 L123,96.535904 L125.00001,93.0718 L123.00001,89.6077 L125.00001,86.1436 L127.00001,82.6795 L129.00002,79.21539 L133.00002,79.21539 L135.00002,82.6795 L139.00002,82.6795 L143.00002,82.6795 L147.00002,82.6795 L149.00002,79.21539 L147.00002,75.7513 L149.00002,72.28719 L153.00002,72.28719 L157.00002,72.28719 L159.00002,75.7513 L157.00002,79.21539 L159.00002,82.6795 L163.00002,82.6795 L167.00002,82.6795 L171.00002,82.6795 L173.00002,79.21539 L177.00002,79.21539 L179.00002,82.6795 L181.00002,86.1436 L183.00002,89.607704 L185.00002,86.1436 L187.00002,82.6795 L189.00002,79.21539 L187.00002,75.7513 L183.00002,75.7513 L181.00002,72.28719 L177.00002,72.28719 L175.00002,75.7513 L173.00002,79.21539 L169.00002,79.21539 L165.00002,79.21539 L161.00002,79.21539 L159.00002,75.7513 L157.00002,72.28719 L153.00002,72.28719 L151.00002,75.7513 L147.00002,75.7513 L145.00002,72.28719" fill="none" stroke="black" stroke-width="0.2"/>
<path d="M109,100.6 L113,100.6 L115,104.0641 L119,104.0641 L121,100.6 L123,97.1359 L125.00001,93.6718 L123.00001,90.207695 L125.00001,86.7436 L127.00001,83.279495 L129.00002,79.81539 L133.00002,79.81539 L135.00002,83.279495 L139.00002,83.279495 L143.00002,83.279495 L147.00002,83.279495 L149.00002,79.81539 L147.00002,76.351295 L149.00002,72.88719 L153.00002,72.88719 L157.00002,72.88719 L159.00002,76.351295 L157.00002,79.81539 L159.00002,83.279495 L163.00002,83.279495 L167.00002,83.279495 L171.00002,83.279495 L173.00002,79.81539 L177.00002,79.81539 L179.00002,83.279495 L181.00002,86.7436 L183.00002,90.2077 L185.00002,86.7436 L187.00002,83.279495 L189.00002,79.81539 L187.00002,76.351295 L183.00002,76.351295 L181.00002,72.88719 L177.00002,72.88719 L175.00002,76.351295 L173.00002,79.81539 L169.00002,79.81539 L165.00002,79.81539 L161.00002,79.81539 L159.00002,76.351295 L157.00002,72.88719 L153.00002,72.88719 L151.00002,76.351295 L147.00002,76.351295 L145.00002,72.88719" fill="none" stroke="black" stroke-width="0.2"/>
<path d="M109,101.37844 L111,97.91434 L115,97.91434 L117,94.45024 L115,90.98614 L113,87.52203 L111.00001,84.05793 L107.00001,84.05793 L105.00001,80.593834 L101.00001,80.593834 L97.00001,80.593834 L95.00001,77.12973 L97.00001,73.66563 L95.00001,70.20153 L93.00001,66.73743 L91.00001,63.27332 L87.00001,63.27332 L85.00001,66.73742 L81.00001,66.73742 L79.00001,63.27332 L77.00001,59.809216 L79.00001,56.345116 L83.00001,56.345116 L85.000015,52.881016 L83.000015,49.416912 L81.000015,45.95281 L79.000015,42.488705 L75.000015,42.488705 L73.000015,39.0246 L77.000015,39.0246 L81.000015,39.0246 L85.000015,39.0246 L89.000015,39.0246 L91.000015,42.488705 L89.000015,45.952805 L87.000015,49.416904 L85.000015,52.881004 L81.000015,52.881004 L79.000015,56.345104 L81.000015,59.809208 L83.000015,63.27331 L81.000015,66.73742 L79.000015,70.201515 L77.000015,73.66562 L73.000015,73.66562 L69.000015,73.66562 L67.000015,77.12972 L69.000015,80.59382 L67.000015,84.05792 L63.00001,84.05792" fill="none" stroke="black" stroke-width="0.2"/>
<path d="M109,102.24232 L111,98.77821 L115,98.77821 L117,95.31412 L115,91.85001 L113,88.38591 L111.00001,84.92181 L107.00001,84.92181 L105.00001,81.45771 L101.00001,81.45771 L97.00001,81.45771 L95.00001,77.99361 L97.00001,74.5295 L95.00001,71.06541 L93.00001,67.6013 L91.00001,64.1372 L87.00001,64.1372 L85.00001,67.601295 L81.00001,67.601295 L79.00001,64.1372 L77.00001,60.673096 L79.00001,57.208996 L83.00001,57.208996 L85.000015,53.744896 L83.000015,50.280792 L81.000015,46.81669 L79.000015,43.352585 L75.000015,43.352585 L73.000015,39.88848 L77.000015,39.88848 L81.000015,39.88848 L85.000015,39.88848 L89.000015,39.88848 L91.000015,43.352585 L89.000015,46.816685 L87.000015,50.280785 L85.000015,53.744884 L81.000015,53.744884 L79.000015,57.208984 L81.000015,60.673088 L83.000015,64.13719 L81.000015,67.601295 L79.000015,71.06539 L77.000015,74.529495 L73.000015,74.529495 L69.000015,74.529495 L67.000015,77.9936 L69.000015,81.457695 L67.000015,84.9218 L63.00001,84.9218" fill="none" stroke="black" stroke-width="0.2"/>
<path d="M109,103.16682 L111,99.70271 L115,99.70271 L117,96.23862 L115,92.77451 L113,89.31041 L111.00001,85.846306 L107.00001,85.846306 L105.00001,82.38221 L101.00001,82.38221 L97.00001,82.38221 L95.00001,78.918106 L97.00001,75.454 L95.00001,71.98991 L93.00001,68.5258 L91.00001,65.0617 L87.00001,65.0617 L85.00001,68.525795 L81.00001,68.525795 L79.00001,65.0617 L77.00001,61.5976 L79.00001,58.1335 L83.00001,58.1335 L85.000015,54.6694 L83.000015,51.205296 L81.000015,47.74119 L79.000015,44.27709 L75.000015,44.27709 L73.000015,40.812984 L77.000015,40.812984 L81.000015,40.812984 L85.000015,40.812984 L89.000015,40.812984 L91.000015,44.27709 L89.000015,47.741188 L87.000015,51.205288 L85.000015,54.669388 L81.000015,54.669388 L79.000015,58.133488 L81.000015,61.59759 L83.000015,65.06169 L81.000015,68.525795 L79.000015,71.98989 L77.000015,75.453995 L73.000015,75.453995 L69.000015,75.453995 L67.000015,78.9181 L69.000015,82.382195 L67.000015,85.8463 L63.00001,85.8463" fill="none" stroke="black" stroke-width="0.2"/>
<path d="M109,104.13919 L111,100.67509 L115,100.67509 L117,97.21099 L115,93.74689 L113,90.28278 L111.00001,86.81868 L107.00001,86.81868 L105.00001,83.35458 L101.00001,83.35458 L97.00001,83.35458 L95.00001,79.89048 L97.00001,76.42638 L95.00001,72.96228 L93.00001,69.49818 L91.00001,66.03407 L87.00001,66.03407 L85.00001,69.49817 L81.00001,69.49817 L79.00001,66.03407 L77.00001,62.56997 L79.00001,59.10587 L83.00001,59.10587 L85.000015,55.64177 L83.000015,52.177666 L81.000015,48.713562 L83.000015,45.249462 L81.000015,41.785362 L85.000015,41.785362 L87.000015,45.249466 L89.000015,48.71357 L93.000015,48.71357 L95.000015,45.24947 L99.000015,45.24947 L101.000015,48.71357 L103.000015,52.177673 L105.000015,55.641777 L103.000015,59.105877 L105.000015,62.569977 L109.000015,62.569977 L113.000015,62.569977 L115.000015,66.03408 L117.000015,69.498184 L119.000015,72.96229 L117.000015,76.42639 L115.000015,79.89049 L117.000015,83.35459 L121.000015,83.35459 L123.000015,86.818695 L121.000015,90.28279" fill="none" stroke="black" stroke-width="0.2"/>
<path d="M109,105.15149 L111,101.687386 L115,101.687386 L117,98.22329 L115,94.759186 L113,91.29508 L111.00001,87.83098 L107.00001,87.83098 L105.00001,84.36688 L101.00001,84.36688 L97.00001,84.36688 L95.00001,80.90278 L97.00001,77.438675 L95.00001,73.97458 L93.00001,70.510475 L91.00001,67.04637 L87.00001,67.04637 L85.00001,70.51047 L81.00001,70.51047 L79.00001,67.04637 L77.00001,63.582268 L79.00001,60.118168 L83.00001,60.118168 L85.000015,56.654068 L83.000015,53.189964 L81.000015,49.72586 L83.000015,46.26176 L81.000015,42.79766 L85.000015,42.79766 L87.000015,46.261765 L89.000015,49.72587 L93.000015,49.72587 L95.000015,46.26177 L99.000015,46.26177 L101.000015,49.72587 L103.000015,53.189972 L105.000015,56.654076 L103.000015,60.118176 L105.000015,63.582275 L109.000015,63.582275 L113.000015,63.582275 L115.000015,67.04638 L117.000015,70.51048 L119.000015,73.97459 L117.000015,77.43869 L115.000015,80.90279 L117.000015,84.36689 L121.000015,84.36689 L123.000015,87.83099 L121.000015,91.29509" fill="none" stroke="black" stroke-width="0.2"/>
<path d="M109,106.19825 L111,102.734146 L115,102.734146 L117,99.27005 L115,95.80595 L113,92.34184 L111.00001,88.87774 L107.00001,88.87774 L105.00001,85.41364 L101.00001,85.41364 L97.00001,85.41364 L95.00001,81.94954 L97.00001,78.485435 L95.00001,75.02134 L93.00001,71.557236 L91.00001,68.09313 L87.00001,68.09313 L85.00001,71.55723 L81.00001,71.55723 L79.00001,68.09313 L77.00001,64.62903 L79.00001,61.164925 L83.00001,61.164925 L85.000015,57.70083 L83.000015,54.236725 L81.000015,50.77262 L83.000015,47.308517 L81.000015,43.84442 L85.000015,43.84442 L87.000015,47.308525 L89.000015,50.77263 L93.000015,50.77263 L95.000015,47.308525 L99.000015,47.308525 L101.000015,50.77263 L103.000015,54.236732 L105.000015,57.700836 L103.000015,61.164932 L105.000015,64.629036 L109.000015,64.629036 L113.000015,64.629036 L115.000015,68.09314 L117.000015,71.55724 L119.000015,75.02135 L117.000015,78.48545 L115.000015,81.94955 L117.000015,85.41365 L121.000015,85.41365 L123.000015,88.877754 L121.000015,92.34185" fill="none" stroke="black" stroke-width="0.2"/>
<path d="M109,107.27544 L111,103.81134 L115,103.81134 L117,100.347244 L115,96.88313 L113,93.41904 L111.00001,89.954926 L107.00001,89.954926 L105.00001,86.49083 L101.00001,86.49083 L97.00001,86.49083 L95.00001,83.02673 L97.00001,79.56262 L95.00001,76.098526 L93.00001,72.63443 L91.00001,69.17032 L87.00001,69.17032 L85.00001,72.634415 L81.00001,72.634415 L79.00001,69.17032 L77.00001,65.70622 L79.00001,62.24212 L83.00001,62.24212 L85.000015,58.77802 L83.000015,55.313915 L81.000015,51.84981 L83.000015,48.38571 L81.000015,44.92161 L85.000015,44.92161 L87.000015,48.385715 L89.000015,51.84982 L93.000015,51.84982 L95.000015,48.38572 L99.000015,48.38572 L101.000015,51.84982 L103.000015,55.313923 L105.000015,58.778027 L103.000015,62.242126 L105.000015,65.70622 L109.000015,65.70622 L113.000015,65.70622 L115.000015,69.170334 L117.000015,72.63443 L119.000015,76.09854 L117.000015,79.56264 L115.000015,83.02673 L117.000015,86.490845 L121.000015,86.490845 L123.000015,89.95494 L121.000015,93.41904" fill="none" stroke="black" stroke-width="0.2"/>
<path d="M109,108.37997 L111,104.91586 L115,104.91586 L117,101.45177 L115,97.98766 L113,94.52356 L111.00001,91.059456 L107.00001,91.059456 L105.00001,87.59536 L101.00001,87.59536 L97.00001,87.59536 L95.00001,84.131256 L97.00001,80.66715 L95.00001,77.20306 L93.00001,73.73895 L91.00001,70.27485 L87.00001,70.27485 L85.00001,73.738945 L81.00001,73.738945 L79.00001,70.27485 L77.00001,66.810745 L79.00001,63.346645 L83.00001,63.346645 L85.000015,59.882545 L83.000015,56.41844 L81.000015,52.954338 L83.000015,49.49024 L81.000015,46.02614 L85.000015,46.02614 L87.000015,49.490242 L89.000015,52.954346 L93.000015,52.954346 L95.000015,49.490246 L99.000015,49.490246 L101.000015,52.954346 L103.000015,56.41845 L105.000015,59.882553 L103.000015,63.346653 L105.000015,66.81075 L109.000015,66.81075 L113.000015,66.81075 L115.000015,70.27486 L117.000015,73.73896 L119.000015,77.203064 L117.000015,80.66717 L115.000015,84.13126 L117.000015,87.59537 L121.000015,87.59537 L123.000015,91.05947 L121.000015,94.52357" fill="none" stroke="black" stroke-width="0.2"/>
<path d="M109,109.50936 L111,106.04526 L115,106.04526 L117,102.58116 L115,99.11706 L113,95.652954 L111.00001,92.18885 L107.00001,92.18885 L105.00001,88.724754 L101.00001,88.724754 L97.00001,88.724754 L95.00001,85.26065 L97.00001,81.79655 L95.00001,78.33245 L93.00001,74.86835 L91.00001,71.40424 L87.00001,71.40424 L85.00001,74.86834 L81.00001,74.86834 L79.00001,71.40424 L77.00001,67.94014 L79.00001,64.476036 L83.00001,64.476036 L85.000015,61.01194 L83.000015,57.547836 L81.000015,54.083733 L83.000015,50.619633 L81.000015,47.155533 L85.000015,47.155533 L87.000015,50.619637 L89.000015,54.08374 L93.000015,54.08374 L95.000015,50.61964 L99.000015,50.61964 L101.000015,54.08374 L103.000015,57.547844 L105.000015,61.011948 L103.000015,64.47604 L105.000015,67.94015 L109.000015,67.94015 L113.000015,67.94015 L115.000015,71.40425 L117.000015,74.868355 L119.000015,78.33246 L117.000015,81.79656 L115.000015,85.26066 L117.000015,88.72476 L121.000015,88.72476 L123.000015,92.188866 L121.000015,95.65296" fill="none" stroke="black" stroke-width="0.2"/>
<path d="M109,110.661606 L111,107.1975 L115,107.1975 L117,103.733406 L115,100.2693 L113,96.8052 L111.00001,93.341095 L107.00001,93.341095 L105.00001,89.877 L101.00001,89.877 L97.00001,89.877 L95.00001,86.412895 L97.00001,82.94879 L95.00001,79.484695 L93.00001,76.02059 L91.00001,72.55649 L87.00001,72.55649 L85.00001,76.020584 L81.00001,76.020584 L79.00001,72.55649 L77.00001,69.092384 L79.00001,65.62828 L83.00001,65.62828 L85.000015,62.164185 L83.000015,58.70008 L81.000015,55.235977 L83.000015,51.771873 L81.000015,48.307777 L85.000015,48.307777 L87.000015,51.77188 L89.000015,55.235985 L93.000015,55.235985 L95.000015,51.77188 L99.000015,51.77188 L101.000015,55.235985 L103.000015,58.70009 L105.000015,62.164192 L103.000015,65.62829 L105.000015,69.09239 L109.000015,69.09239 L113.000015,69.09239 L115.000015,72.556496 L117.000015,76.0206 L119.000015,79.4847 L117.000015,82.94881 L115.000015,86.4129 L117.000015,89.87701 L121.000015,89.87701 L123.000015,93.34111 L121.000015,96.80521" fill="none" stroke="black" stroke-width="0.2"/>
<path d="M109,111.835014 L111,108.37091 L115,108.37091 L117,104.906815 L115,101.44271 L113,97.97861 L111.00001,94.5145 L107.00001,94.5145 L105.00001,91.05041 L101.00001,91.05041 L97.00001,91.05041 L95.00001,87.5863 L97.00001,84.1222 L95.00001,80.658104 L93.00001,77.194 L91.00001,73.7299 L87.00001,73.7299 L85.00001,77.19399 L81.00001,77.19399 L79.00001,73.7299 L77.00001,70.26579 L79.00001,66.8017 L83.00001,66.8017 L85.000015,63.337593 L83.000015,59.87349 L81.000015,56.409386 L83.000015,52.945286 L81.000015,49.481186 L85.000015,49.481186 L87.000015,52.94529 L89.000015,56.409393 L93.000015,56.409393 L95.000015,52.945293 L99.000015,52.945293 L101.000015,56.409393 L103.000015,59.873497 L105.000015,63.3376 L103.000015,66.801704 L105.000015,70.2658 L109.000015,70.2658 L113.000015,70.2658 L115.000015,73.729904 L117.000015,77.19401 L119.000015,80.65811 L117.000015,84.122215 L115.000015,87.58631 L117.000015,91.050415 L121.000015,91.050415 L123.000015,94.51452 L121.000015,97.978615" fill="none" stroke="black" stroke-width="0.2"/>
<path d="M109,113.02817 L111,109.564064 L115,109.564064 L117,106.09997 L115,102.635864 L113,99.17176 L111.00001,95.70766 L107.00001,95.70766 L105.00001,92.24356 L101.00001,92.24356 L97.00001,92.24356 L95.00001,88.77946 L97.00001,85.31535 L95.00001,81.85126 L93.00001,78.38715 L91.00001,74.92305 L87.00001,74.92305 L85.00001,78.387146 L81.00001,78.387146 L79.00001,74.92305 L77.00001,71.45895 L79.00001,67.99484 L83.00001,67.99484 L85.000015,64.53075 L83.000015,61.066643 L81.000015,57.60254 L83.000015,54.13844 L81.000015,50.67434 L85.000015,50.67434 L87.000015,54.138443 L89.000015,57.602547 L93.000015,57.602547 L95.000015,54.138447 L99.000015,54.138447 L101.000015,57.602547 L103.000015,61.06665 L105.000015,64.530754 L103.000015,67.99486 L105.000015,71.458954 L109.000015,71.458954 L113.000015,71.458954 L115.000015,74.92306 L117.000015,78.38716 L119.000015,81.851265 L117.000015,85.31537 L115.000015,88.779465 L117.000015,92.24357 L121.000015,92.24357 L123.000015,95.70767 L121.000015,99.17177" fill="none" stroke="black" stroke-width="0.2"/>
<path d="M109,114.23984 L111,110.775734 L115,110.775734 L117,107.31164 L115,103.847534 L113,100.38343 L111.00001,96.91933 L107.00001,96.91933 L105.00001,93.45523 L101.00001,93.45523 L97.00001,93.45523 L95.00001,89.99113 L97.00001,86.52702 L95.00001,83.06293 L93.00001,79.59882 L91.00001,76.13472 L87.00001,76.13472 L85.00001,79.598816 L81.00001,79.598816 L79.00001,76.13472 L77.00001,72.670616 L79.00001,69.20651 L83.00001,69.20651 L85.000015,65.74242 L83.000015,62.27831 L81.000015,58.814205 L83.000015,55.350105 L81.000015,51.886005 L85.000015,51.886005 L87.000015,55.35011 L89.000015,58.814213 L93.000015,58.814213 L95.000015,55.350113 L99.000015,55.350113 L101.000015,58.814213 L103.000015,62.278316 L105.000015,65.742424 L103.000015,69.20652 L105.000015,72.67062 L109.000015,72.67062 L113.000015,72.67062 L115.000015,76.13473 L117.000015,79.59883 L119.000015,83.062935 L117.000015,86.52704 L115.000015,89.991135 L117.000015,93.45524 L121.000015,93.45524 L123.000015,96.91934 L121.000015,100.38344" fill="none" stroke="black" stroke-width="0.2"/>
<path d="M109,115.46895 L111,112.004845 L115,112.004845 L117,108.54075 L115,105.076645 L113,101.61254 L111.00001,98.14844 L107.00001,98.14844 L105.00001,94.68434 L101.00001,94.68434 L97.00001,94.68434 L95.00001,91.22024 L97.00001,87.756134 L95.00001,84.29204 L93.00001,80.827934 L91.00001,77.36383 L87.00001,77.36383 L85.00001,80.82793 L81.00001,80.82793 L79.00001,77.36383 L77.00001,73.89973 L79.00001,70.43563 L83.00001,70.43563 L85.000015,66.97153 L83.000015,63.507423 L81.000015,60.04332 L83.000015,56.57922 L81.000015,53.11512 L85.000015,53.11512 L87.000015,56.579224 L89.000015,60.043327 L93.000015,60.043327 L95.000015,56.579227 L99.000015,56.579227 L101.000015,60.043327 L103.000015,63.50743 L105.000015,66.971535 L103.000015,70.43564 L105.000015,73.899734 L109.000015,73.899734 L113.000015,73.899734 L115.000015,77.36384 L117.000015,80.82794 L119.000015,84.292046 L117.000015,87.75615 L115.000015,91.220245 L117.000015,94.68435 L121.000015,94.68435 L123.000015,98.14845 L121.000015,101.61255" fill="none" stroke="black" stroke-width="0.2"/>
<path d="M109,116.71458 L111,113.25047 L115,113.25047 L117,109.78638 L115,106.32227 L113,102.85817 L111.00001,99.394066 L107.00001,99.394066 L105.00001,95.92997 L101.00001,95.92997 L97.00001,95.92997 L95.00001,92.465866 L97.00001,89.00176 L95.00001,85.53767 L93.00001,82.07356 L91.00001,78.60946 L87.00001,78.60946 L85.00001,82.073555 L81.00001,82.073555 L79.00001,78.60946 L77.00001,75.145355 L79.00001,71.68125 L83.00001,71.68125 L85.000015,68.217155 L83.000015,64.75305 L81.000015,61.288948 L83.000015,57.824844 L81.000015,54.36075 L85.000015,54.36075 L87.000015,57.824852 L89.000015,61.288956 L93.000015,61.288956 L95.000015,57.824852 L99.000015,57.824852 L101.000015,61.288956 L103.000015,64.75306 L105.000015,68.21716 L103.000015,71.68126 L105.000015,75.14536 L109.000015,75.14536 L113.000015,75.14536 L115.000015,78.60947 L117.000015,82.07357 L119.000015,85.537674 L117.000015,89.00178 L115.000015,92.46587 L117.000015,95.92998 L121.000015,95.92998 L123.000015,99.39408 L121.000015,102.85818" fill="none" stroke="black" stroke-width="0.2"/>
<path d="M109,117.975876 L111,114.51177 L115,114.51177 L117,111.047676 L115,107.58357 L113,104.11947 L111.00001,100.655365 L107.00001,100.655365 L105.00001,97.19127 L101.00001,97.19127 L97.00001,97.19127 L95.00001,93.727165 L97.00001,90.26306 L95.00001,86.798965 L93.00001,83.33486 L91.00001,79.87076 L87.00001,79.87076 L85.00001,83.334854 L81.00001,83.334854 L79.00001,79.87076 L77.00001,76.406654 L79.00001,72.94255 L83.00001,72.94255 L85.000015,69.478455 L83.000015,66.01435 L81.000015,62.550247 L83.000015,59.086143 L81.000015,55.622047 L85.000015,55.622047 L87.000015,59.08615 L89.000015,62.550255 L93.000015,62.550255 L95.000015,59.08615 L99.000015,59.08615 L101.000015,62.550255 L103.000015,66.01436 L105.000015,69.47846 L103.000015,72.94256 L105.000015,76.40666 L109.000015,76.40666 L113.000015,76.40666 L115.000015,79.870766 L117.000015,83.33487 L119.000015,86.79897 L117.000015,90.26308 L115.000015,93.72717 L117.000015,97.19128 L121.000015,97.19128 L123.000015,100.65538 L121.000015,104.11948" fill="none" stroke="black" stroke-width="0.2"/>
<path d="M109,119.252106 L111,115.78801 L115,115.78801 L117,112.32391 L115,108.8598 L113,105.395706 L111.00001,101.931595 L107.00001,101.931595 L105.00001,98.4675 L101.00001,98.4675 L97.00001,98.4675 L95.00001,95.0034 L97.00001,91.53929 L95.00001,88.075195 L93.00001,84.6111 L91.00001,81.14699 L87.00001,81.14699 L85.00001,84.611084 L81.00001,84.611084 L79.00001,81.14699 L77.00001,77.68289 L79.00001,74.21879 L83.00001,74.21879 L85.000015,70.754684 L83.000015,67.29059 L81.000015,63.82648 L83.000015,60.36238 L81.000015,56.89828 L85.000015,56.89828 L87.000015,60.362385 L89.000015,63.82649 L93.000015,63.82649 L95.000015,60.36239 L99.000015,60.36239 L101.000015,63.82649 L103.000015,67.29059 L105.000015,70.7547 L103.000015,74.218796 L105.000015,77.68289 L109.000015,77.68289 L113.000015,77.68289 L115.000015,81.147 L117.000015,84.6111 L119.000015,88.07521 L117.000015,91.53931 L115.000015,95.0034 L117.000015,98.467514 L121.000015,98.467514 L123.000015,101.93161 L121.000015,105.395706" fill="none" stroke="black" stroke-width="0.2"/>
<path d="M109,120.54261 L111,117.07851 L115,117.07851 L117,113.61441 L115,110.15031 L113,106.6862 L111.00001,103.2221 L107.00001,103.2221 L105.00001,99.758 L101.00001,99.758 L97.00001,99.758 L95.00001,96.2939 L97.00001,92.829796 L95.00001,89.3657 L93.00001,85.901596 L91.00001,82.43749 L87.00001,82.43749 L85.00001,85.90159 L81.00001,85.90159 L79.00001,82.43749 L77.00001,78.97339 L79.00001,75.50929 L83.00001,75.50929 L85.000015,72.04519 L83.000015,68.581085 L81.000015,65.11698 L83.000015,61.65288 L81.000015,58.18878 L85.000015,58.18878 L87.000015,61.652885 L89.000015,65.11699 L93.000015,65.11699 L95.000015,61.65289 L99.000015,61.65289 L101.000015,65.11699 L103.000015,68.58109 L105.000015,72.0452 L103.000015,75.50929 L105.000015,78.9734 L109.000015,78.9734 L113.000015,78.9734 L115.000015,82.4375 L117.000015,85.9016 L119.000015,89.36571 L117.000015,92.82981 L115.000015,96.29391 L117.000015,99.75801 L121.000015,99.75801 L123.000015,103.222115 L121.000015,106.68621" fill="none" stroke="black" stroke-width="0.2"/>
<path d="M109,121.84677 L111,118.382675 L115,118.382675 L117,114.91858 L115,111.45447 L113,107.99037 L111.00001,104.52626 L107.00001,104.52626 L105.00001,101.062164 L101.00001,101.062164 L97.00001,101.062164 L95.00001,97.59807 L97.00001,94.13396 L95.00001,90.66986 L93.00001,87.205765 L91.00001,83.74165 L87.00001,83.74165 L85.00001,87.20575 L81.00001,87.20575 L79.00001,83.74165 L77.00001,80.27756 L79.00001,76.81345 L83.00001,76.81345 L85.000015,73.34935 L83.000015,69.885254 L81.000015,66.42114 L83.000015,62.957047 L81.000015,59.492947 L85.000015,59.492947 L87.000015,62.95705 L89.000015,66.42116 L93.000015,66.42116 L95.000015,62.957054 L99.000015,62.957054 L101.000015,66.42116 L103.000015,69.885254 L105.000015,73.349365 L103.000015,76.81346 L105.000015,80.27756 L109.000015,80.27756 L113.000015,80.27756 L115.000015,83.74167 L117.000015,87.205765 L119.000015,90.669876 L117.000015,94.13397 L115.000015,97.59807 L117.000015,101.06218 L121.000015,101.06218 L123.000015,104.526276 L121.000015,107.99037" fill="none" stroke="black" stroke-width="0.2"/>
<path d="M109,123.16405 L111,119.69994 L115,119.69994 L117,116.23585 L115,112.77174 L113,109.30764 L111.00001,105.84354 L107.00001,105.84354 L105.00001,102.37944 L101.00001,102.37944 L97.00001,102.37944 L95.00001,98.91534 L97.00001,95.45123 L95.00001,91.98714 L93.00001,88.52303 L91.00001,85.05893 L87.00001,85.05893 L85.00001,88.523026 L81.00001,88.523026 L79.00001,85.05893 L77.00001,81.594826 L79.00001,78.13073 L83.00001,78.13073 L85.000015,74.666626 L83.000015,71.20252 L81.000015,67.73842 L83.000015,64.27432 L81.000015,60.81022 L85.000015,60.81022 L87.000015,64.27432 L89.000015,67.73843 L93.000015,67.73843 L95.000015,64.27433 L99.000015,64.27433 L101.000015,67.73843 L103.000015,71.20253 L105.000015,74.66663 L103.000015,78.13074 L105.000015,81.59483 L109.000015,81.59483 L113.000015,81.59483 L115.000015,85.05894 L117.000015,88.52304 L119.000015,91.987144 L117.000015,95.45125 L115.000015,98.915344 L117.000015,102.37945 L121.000015,102.37945 L123.000015,105.84355 L121.000015,109.30765" fill="none" stroke="black" stroke-width="0.2"/>
<path d="M109,124.493935 L111,121.02983 L115,121.02983 L117,117.565735 L115,114.10163 L113,110.63753 L111.00001,107.17342 L107.00001,107.17342 L105.00001,103.70933 L101.00001,103.70933 L97.00001,103.70933 L95.00001,100.245224 L97.00001,96.78112 L95.00001,93.317024 L93.00001,89.85292 L91.00001,86.38882 L87.00001,86.38882 L85.00001,89.85291 L81.00001,89.85291 L79.00001,86.38882 L77.00001,82.92471 L79.00001,79.46062 L83.00001,79.46062 L85.000015,75.99651 L83.000015,72.53241 L81.000015,69.068306 L83.000015,65.6042 L81.000015,62.140106 L85.000015,62.140106 L87.000015,65.60421 L89.000015,69.06831 L93.000015,69.06831 L95.000015,65.60422 L99.000015,65.60422 L101.000015,69.06831 L103.000015,72.53242 L105.000015,75.99652 L103.000015,79.46062 L105.000015,82.92472 L109.000015,82.92472 L113.000015,82.92472 L115.000015,86.388824 L117.000015,89.85293 L119.000015,93.31703 L117.000015,96.781136 L115.000015,100.24523 L117.000015,103.709335 L121.000015,103.709335 L123.000015,107.17344 L121.000015,110.637535" fill="none" stroke="black" stroke-width="0.2"/>
<path d="M109,125.83597 L111,122.371864 L113,118.90777 L111,115.443665 L107,115.443665 L103,115.443665 L99,115.443665 L97,118.90777 L95,122.371864 L97,125.83597 L99,129.30008 L97,132.76418 L93,132.76418 L91,136.22827 L89,139.69238 L87,143.15648 L89,146.62057 L93,146.62057 L95,150.08469 L93,153.54878 L91,157.01288 L87,157.01288 L85,153.54878 L81,153.54878 L79,157.01288 L77,160.47699 L73,160.47699 L71,163.94109 L67,163.94109 L65,160.47699 L63,157.01288 L59,157.01288 L57,160.47699 L53,160.47699 L51,157.01288 L49,153.54878 L47,150.08469 L49,146.62057 L47,143.15646 L43,143.15646 L39,143.15646 L37,139.69237 L35,136.22827 L33,132.76416 L35,129.30006 L37,125.83597 L35,122.371864 L31,122.371864 L29,118.90776 L31,115.443665" fill="none" stroke="black" stroke-width="0.2"/>
<path d="M109,127.18973 L111,123.725624 L113,120.26153 L111,116.797424 L107,116.797424 L103,116.797424 L99,116.797424 L97,120.26153 L95,123.725624 L97,127.18973 L99,130.65382 L97,134.11794 L93,134.11794 L91,137.58203 L89,141.04613 L87,144.51024 L89,147.97433 L93,147.97433 L95,151.43843 L93,154.90254 L91,158.36664 L87,158.36664 L85,154.90254 L81,154.90254 L79,158.36664 L77,161.83075 L73,161.83075 L71,165.29485 L67,165.29485 L65,161.83075 L63,158.36664 L59,158.36664 L57,161.83075 L53,161.83075 L51,158.36664 L49,154.90254 L47,151.43843 L49,147.97433 L47,144.51022 L43,144.51022 L39,144.51022 L37,141.04613 L35,137.58203 L33,134.11792 L35,130.65382 L37,127.18973 L35,123.725624 L31,123.725624 L29,120.26152 L31,116.797424" fill="none" stroke="black" stroke-width="0.2"/>
<path d="M109,128.55481 L111,125.09071 L113,121.62662 L111,118.162506 L107,118.162506 L103,118.162506 L99,118.162506 L97,121.62662 L95,125.09071 L97,128.55481 L99,132.01892 L97,135.48302 L93,135.48302 L91,138.94711 L89,142.41122 L87,145.87532 L89,149.33942 L93,149.33942 L95,152.80353 L93,156.26762 L91,159.73172 L87,159.73172 L85,156.26762 L81,156.26762 L79,159.73172 L77,163.19583 L73,163.19583 L71,166.65993 L67,166.65993 L65,163.19583 L63,159.73172 L59,159.73172 L57,163.19583 L53,163.19583 L51,159.73172 L49,156.26762 L47,152.80353 L49,149.33942 L47,145.87532 L43,145.87532 L39,145.87532 L37,142.41121 L35,138.94711 L33,135.48302 L35,132.0189 L37,128.55481 L35,125.09071 L31,125.09071 L29,121.6266 L31,118.162506" fill="none" stroke="black" stroke-width="0.2"/>
<path d="M109,129.93088 L111,126.46677 L113,123.00267 L111,119.53857 L107,119.53857 L103,119.53857 L99,119.53857 L97,123.00267 L95,126.46677 L97,129.93088 L99,133.39497 L97,136.85907 L93,136.85907 L91,140.32318 L89,143.78728 L87,147.25137 L89,150.71548 L93,150.71548 L95,154.17958 L93,157.64368 L91,161.10779 L87,161.10779 L85,157.64368 L81,157.64368 L79,161.10779 L77,164.5719 L73,164.5719 L71,168.03598 L67,168.03598 L65,164.5719 L63,161.10779 L59,161.10779 L57,164.5719 L53,164.5719 L51,161.10779 L49,157.64368 L47,154.17958 L49,150.71548 L47,147.25137 L43,147.25137 L39,147.25137 L37,143.78726 L35,140.32318 L33,136.85907 L35,133.39496 L37,129.93088 L35,126.46677 L31,126.46677 L29,123.00266 L31,119.53857" fill="none" stroke="black" stroke-width="0.2"/>
<path d="M109,131.31755 L111,127.853455 L113,124.38936 L111,120.92525 L107,120.92525 L103,120.92525 L99,120.92525 L97,124.38936 L95,127.853455 L97,131.31755 L99,134.78166 L97,138.24576 L93,138.24576 L91,141.70985 L89,145.17397 L87,148.63806 L89,152.10216 L93,152.10216 L95,155.56627 L93,159.03036 L91,162.49446 L87,162.49446 L85,159.03036 L81,159.03036 L79,162.49446 L77,165.95857 L73,165.95857 L71,169.42267 L67,169.42267 L65,165.95857 L63,162.49446 L59,162.49446 L57,165.95857 L53,165.95857 L51,162.49446 L49,159.03036 L47,155.56627 L49,152.10216 L47,148.63806 L43,148.63806 L39,148.63806 L37,145.17395 L35,141.70985 L33,138.24576 L35,134.78165 L37,131.31755 L35,127.853455 L31,127.853455 L29,124.38934 L31,120.92525" fill="none" stroke="black" stroke-width="0.2"/>
<path d="M109,132.71455 L111,129.25044 L113,125.78635 L111,122.32225 L107,122.32225 L103,122.32225 L99,122.32225 L97,125.78635 L95,129.25044 L97,132.71455 L99,136.17865 L97,139.64276 L93,139.64276 L91,143.10686 L89,146.57095 L87,150.03506 L89,153.49916 L93,153.49916 L95,156.96326 L93,160.42737 L91,163.89146 L87,163.89146 L85,160.42737 L81,160.42737 L79,163.89146 L77,167.35558 L73,167.35558 L71,170.81967 L67,170.81967 L65,167.35558 L63,163.89146 L59,163.89146 L57,167.35558 L53,167.35558 L51,163.89146 L49,160.42737 L47,156.96326 L49,153.49916 L47,150.03505 L43,150.03505 L39,150.03505 L37,146.57095 L35,143.10686 L33,139.64275 L35,136.17865 L37,132.71455 L35,129.25044 L31,129.25044 L29,125.78635 L31,122.32225" fill="none" stroke="black" stroke-width="0.2"/>
<path d="M109,134.12157 L111,130.65746 L113,127.19336 L111,123.72926 L107,123.72926 L103,123.72926 L99,123.72926 L97,127.19336 L95,130.65746 L97,134.12157 L99,137.58566 L97,141.04977 L93,141.04977 L91,144.51387 L89,147.97797 L87,151.44208 L89,154.90617 L93,154.90617 L95,158.37027 L93,161.83438 L91,165.29848 L87,165.29848 L85,161.83438 L81,161.83438 L79,165.29848 L77,168.76259 L73,168.76259 L71,172.22668 L67,172.22668 L65,168.76259 L63,165.29848 L59,165.29848 L57,168.76259 L53,168.76259 L51,165.29848 L49,161.83438 L47,158.37027 L49,154.90617 L47,151.44206 L43,151.44206 L39,151.44206 L37,147.97797 L35,144.51387 L33,141.04976 L35,137.58566 L37,134.12157 L35,130.65746 L31,130.65746 L29,127.19336 L31,123.72926" fill="none" stroke="black" stroke-width="0.2"/>
<path d="M109,135.53831 L111,132.07422 L113,128.61012 L111,125.14601 L107,125.14601 L103,125.14601 L99,125.14601 L97,128.61012 L95,132.07422 L97,135.53831 L99,139.00243 L97,142.46652 L93,142.46652 L91,145.93062 L89,149.39473 L87,152.85883 L89,156.32292 L93,156.32292 L95,159.78703 L93,163.25113 L91,166.71523 L87,166.71523 L85,163.25113 L81,163.25113 L79,166.71523 L77,170.17934 L73,170.17934 L71,173.64343 L67,173.64343 L65,170.17934 L63,166.71523 L59,166.71523 L57,170.17934 L53,170.17934 L51,166.71523 L49,163.25113 L47,159.78703 L49,156.32292 L47,152.85883 L43,152.85883 L39,152.85883 L37,149.39471 L35,145.93062 L33,142.46652 L35,139.00241 L37,135.53831 L35,132.07422 L31,132.07422 L29,128.6101 L31,125.14601" fill="none" stroke="black" stroke-width="0.2"/>
<path d="M109,136.96454 L111,133.50044 L113,130.03635 L111,126.57224 L107,126.57224 L103,126.57224 L99,126.57224 L97,130.03635 L95,133.50044 L97,136.96454 L99,140.42865 L97,143.89276 L93,143.89276 L91,147.35684 L89,150.82095 L87,154.28506 L89,157.74915 L93,157.74915 L95,161.21326 L93,164.67737 L91,168.14145 L87,168.14145 L85,164.67737 L81,164.67737 L79,168.14145 L77,171.60556 L73,171.60556 L71,175.06967 L67,175.06967 L65,171.60556 L63,168.14145 L59,168.14145 L57,171.60556 L53,171.60556 L51,168.14145 L49,164.67737 L47,161.21326 L49,157.74915 L47,154.28505 L43,154.28505 L39,154.28505 L37,150.82095 L35,147.35684 L33,143.89275 L35,140.42865 L37,136.96454 L35,133.50044 L31,133.50044 L29,130.03635 L31,126.57224" fill="none" stroke="black" stroke-width="0.2"/>
<path d="M109,138.40001 L111,134.9359 L113,131.4718 L111,128.0077 L107,128.0077 L103,128.0077 L99,128.0077 L97,131.4718 L95,134.9359 L97,138.40001 L99,141.8641 L97,145.32822 L93,145.32822 L91,148.79231 L89,152.25641 L87,155.72052 L89,159.18462 L93,159.18462 L95,162.64871 L93,166.11282 L91,169.57692 L87,169.57692 L85,166.11282 L81,166.11282 L79,169.57692 L77,173.04103 L73,173.04103 L71,176.50513 L67,176.50513 L65,173.04103 L63,169.57692 L59,169.57692 L57,173.04103 L53,173.04103 L51,169.57692 L49,166.11282 L47,162.64871 L49,159.18462 L47,155.7205 L43,155.7205 L39,155.7205 L37,152.25641 L35,148.79231 L33,145.3282 L35,141.8641 L37,138.40001 L35,134.9359 L31,134.9359 L29,131.4718 L31,128.0077" fill="none" stroke="black" stroke-width="0.2"/>
<path d="M107,136.38037 L105,132.91628 L103,129.45216 L99,129.45216 L97,132.91628 L95,136.38037 L93,139.84447 L95,143.30858 L97,146.77267 L101,146.77267 L105,146.77267 L107,150.23677 L105,153.70088 L107,157.16498 L109,160.62907 L111,164.09319 L115,164.09319 L117,160.62907 L121,160.62907 L123,164.09319 L125,167.55728 L123,171.02138 L119,171.02138 L117,174.48549 L119,177.94958 L117,181.41368 L113,181.41368 L111,184.87779 L107,184.87779 L105.00001,181.41368 L101.00001,181.41368 L99,184.87778 L101,188.34187 L99,191.80598 L95,191.80598 L91,191.80598 L87,191.80598 L85,188.34187 L81,188.34187 L79,191.80598 L81,195.27008 L79,198.73418 L77,202.19829 L73,202.19829 L71,198.73418 L69,195.27007 L65,195.27007 L63.000004,198.73418 L59.000004,198.73418 L57.000004,195.27007" fill="none" stroke="black" stroke-width="0.2"/>
<path d="M107,137.83362 L105,134.36952 L103,130.90541 L99,130.90541 L97,134.36952 L95,137.83362 L93,141.29771 L95,144.76183 L97,148.22592 L101,148.22592 L105,148.22592 L107,151.69002 L105,155.15413 L107,158.61823 L109,162.08232 L111,165.54643 L115,165.54643 L117,162.08232 L121,162.08232 L123,165.54643 L125,169.01053 L123,172.47462 L119,172.47462 L117,175.93874 L119,179.40283 L117,182.86693 L113,182.86693 L111,186.33104 L107,186.33104 L105.00001,182.86693 L101.00001,182.86693 L99,186.33102 L101,189.79512 L99,193.25923 L95,193.25923 L91,193.25923 L87,193.25923 L85,189.79512 L81,189.79512 L79,193.25923 L81,196.72333 L79,200.18742 L77,203.65154 L73,203.65154 L71,200.18742 L69,196.72331 L65,196.72331 L63.000004,200.18742 L59.000004,200.18742 L57.000004,196.72331" fill="none" stroke="black" stroke-width="0.2"/>
<path d="M107,139.29544 L105,135.83133 L103,132.36723 L99,132.36723 L97,135.83133 L95,139.29544 L93,142.75954 L95,146.22363 L97,149.68774 L101,149.68774 L105,149.68774 L107,153.15184 L105,156.61594 L107,160.08005 L109,163.54414 L113,163.54414 L115,160.08005 L113,156.61594 L115.00001,153.15186 L119.00001,153.15186 L121.00001,149.68774 L125.00001,149.68774 L127.00001,153.15186 L131,153.15186 L133.00002,149.68774 L137,149.68774 L139,153.15186 L143,153.15186 L145,156.61595 L143,160.08005 L145,163.54416 L149,163.54416 L151,160.08005 L155,160.08005 L157,163.54416 L159,167.00826 L161,170.47235 L159,173.93646 L161,177.40056 L165,177.40056 L167,173.93646 L171,173.93646 L175,173.93646 L179,173.93646 L181,177.40056 L183,180.86467 L185,177.40056 L183,173.93646 L181,170.47235 L183,167.00826" fill="none" stroke="black" stroke-width="0.2"/>
<path d="M107,140.76563 L105,137.30154 L103,133.83743 L99,133.83743 L97,137.30154 L95,140.76563 L93,144.22974 L95,147.69385 L97,151.15794 L101,151.15794 L105,151.15794 L107,154.62204 L105,158.08615 L107,161.55025 L109,165.01434 L113,165.01434 L115,161.55025 L113,158.08615 L115.00001,154.62204 L119.00001,154.62204 L121.00001,151.15794 L125.00001,151.15794 L127.00001,154.62204 L131,154.62204 L133.00002,151.15794 L137,151.15794 L139,154.62204 L143,154.62204 L145,158.08615 L143,161.55025 L145,165.01434 L149,165.01434 L151,161.55025 L155,161.55025 L157,165.01434 L159,168.47845 L161,171.94257 L159,175.40666 L161,178.87076 L165,178.87076 L167,175.40666 L171,175.40666 L175,175.40666 L179,175.40666 L181,178.87076 L183,182.33487 L185,178.87076 L183,175.40666 L181,171.94255 L183,168.47845" fill="none" stroke="black" stroke-width="0.2"/>
<path d="M107,142.24402 L105,138.77992 L103,135.31583 L99,135.31583 L97,138.77992 L95,142.24402 L93,145.70813 L95,149.17223 L97,152.63634 L101,152.63634 L105,152.63634 L107,156.10043 L105,159.56453 L107,163.02864 L109,166.49274 L113,166.49274 L115,163.02864 L113,159.56453 L115.00001,156.10043 L119.00001,156.10043 L121.00001,152.63634 L125.00001,152.63634 L127.00001,156.10043 L131,156.10043 L133.00002,152.63634 L137,152.63634 L139,156.10043 L143,156.10043 L145,159.56454 L143,163.02864 L145,166.49274 L149,166.49274 L151,163.02864 L155,163.02864 L157,166.49274 L159,169.95685 L161,173.42094 L159,176.88506 L161,180.34915 L165,180.34915 L167,176.88506 L171,176.88506 L175,176.88506 L179,176.88506 L181,180.34915 L183,183.81326 L185,180.34915 L183,176.88506 L181,173.42094 L183,169.95685" fill="none" stroke="black" stroke-width="0.2"/>
<path d="M107,143.73042 L105,140.26633 L103,136.80223 L99,136.80223 L97,140.26633 L95,143.73042 L93,147.19453 L95,150.65863 L97,154.12274 L101,154.12274 L103,150.65863 L107,150.65863 L109,154.12274 L113,154.12274 L117,154.12274 L119.00001,150.65863 L117.00001,147.19453 L113.00001,147.19453 L111.00001,143.73044 L113.00001,140.26633 L111.00001,136.80223 L113.00001,133.33813 L117.00001,133.33813 L119.000015,129.87402 L117.000015,126.40993 L119.000015,122.94583 L123.000015,122.94583 L125.000015,119.48172 L129.00002,119.48172 L131.00002,122.94583 L135.00002,122.94583 L137.00002,119.48172 L135.00002,116.017624 L137.00002,112.55353 L141.00002,112.55353 L145.00002,112.55353 L149.00002,112.55353 L151.00002,116.017624 L155.00002,116.017624 L157.00002,112.55353 L155.00002,109.08942 L157.00002,105.62532 L159.00002,102.161224 L161.00002,98.69712 L165.00002,98.69712 L169.00002,98.69712 L171.00002,95.23302 L169.00002,91.76892 L171.00002,88.30482 L175.00002,88.30482" fill="none" stroke="black" stroke-width="0.2"/>
<path d="M107,145.22467 L105,141.76057 L103,138.29648 L99,138.29648 L97,141.76057 L95,145.22467 L93,148.68878 L95,152.15288 L97,155.61699 L101,155.61699 L103,152.15288 L107,152.15288 L109,155.61699 L113,155.61699 L117,155.61699 L119.00001,152.15288 L117.00001,148.68878 L113.00001,148.68878 L111.00001,145.22469 L113.00001,141.76057 L111.00001,138.29648 L113.00001,134.83238 L117.00001,134.83238 L119.000015,131.36827 L117.000015,127.904175 L119.000015,124.44008 L123.000015,124.44008 L125.000015,120.97597 L129.00002,120.97597 L131.00002,124.44008 L135.00002,124.44008 L137.00002,120.97597 L135.00002,117.51187 L137.00002,114.047775 L141.00002,114.047775 L145.00002,114.047775 L149.00002,114.047775 L151.00002,117.51187 L155.00002,117.51187 L157.00002,114.047775 L155.00002,110.583664 L157.00002,107.11957 L159.00002,103.65547 L161.00002,100.19137 L165.00002,100.19137 L169.00002,100.19137 L171.00002,96.727264 L169.00002,93.26317 L171.00002,89.799065 L175.00002,89.799065" fill="none" stroke="black" stroke-width="0.2"/>
<path d="M107,146.72661 L105,143.26251 L103,139.7984 L99,139.7984 L97,143.26251 L95,146.72661 L93,150.1907 L95,153.65482 L97,157.11891 L101,157.11891 L103,153.65482 L107,153.65482 L109,157.11891 L113,157.11891 L117,157.11891 L119.00001,153.65482 L117.00001,150.1907 L113.00001,150.1907 L109.00001,150.1907 L105.00001,150.1907 L103.00001,153.65482 L99.00001,153.65482 L97.00001,150.1907 L93.00001,150.1907 L91.00001,153.65482 L87.00001,153.65482 L85.00001,150.1907 L81.00001,150.1907 L79.00001,146.72661 L81.00001,143.26251 L79.00001,139.7984 L75.00001,139.7984 L73.00001,143.26251 L69.00001,143.26251 L67.00001,139.7984 L65.00001,136.3343 L63.000008,132.8702 L65.00001,129.4061 L63.000008,125.942 L59.000008,125.942 L57.000008,129.4061 L53.000008,129.4061 L49.000008,129.4061 L45.000008,129.4061 L43.000008,125.942 L41.000008,122.47789 L37.000008,122.47789 L35.000008,125.942 L31.000008,125.942 L29.000008,122.47789" fill="none" stroke="black" stroke-width="0.2"/>
<path d="M107,148.23607 L105,144.77197 L103,141.30786 L99,141.30786 L97,144.77197 L95,148.23607 L93,151.70016 L95,155.16428 L97,158.62837 L101,158.62837 L103,155.16428 L107,155.16428 L109,158.62837 L113,158.62837 L117,158.62837 L119.00001,155.16428 L117.00001,151.70016 L113.00001,151.70016 L109.00001,151.70016 L105.00001,151.70016 L103.00001,155.16428 L99.00001,155.16428 L97.00001,151.70016 L93.00001,151.70016 L91.00001,155.16428 L87.00001,155.16428 L85.00001,151.70016 L81.00001,151.70016 L79.00001,148.23607 L77.00001,144.77196 L73.00001,144.77196 L71,148.23607 L73,151.70016 L71,155.16428 L67,155.16428 L63.000004,155.16428 L59.000004,155.16428 L57.000004,151.70016 L53.000004,151.70016 L51.000004,155.16426 L53.000004,158.62837 L51.000004,162.09247 L49.000004,165.55658 L47.000004,169.02068 L43.000004,169.02068 L39,169.02068 L37,172.48477 L39,175.94888 L37,179.41298 L33,179.41298" fill="none" stroke="black" stroke-width="0.2"/>
<path d="M107,149.7529 L105,146.28882 L103,142.8247 L99,142.8247 L97,146.28882 L95,149.7529 L93,153.21701 L95,156.68112 L97,160.14522 L101,160.14522 L103,156.68112 L107,156.68112 L109,160.14522 L113,160.14522 L117,160.14522 L119.00001,156.68112 L117.00001,153.21701 L113.00001,153.21701 L109.00001,153.21701 L105.00001,153.21701 L103.00001,156.68112 L99.00001,156.68112 L97.00001,153.21701 L93.00001,153.21701 L91.00001,156.68112 L87.00001,156.68112 L85.00001,153.21701 L81.00001,153.21701 L79.00001,149.7529 L77.00001,146.2888 L73.00001,146.2888 L71,149.7529 L73,153.21701 L71,156.68112 L67,156.68112 L63.000004,156.68112 L59.000004,156.68112 L57.000004,153.21701 L53.000004,153.21701 L51.000004,156.6811 L53.000004,160.1452 L51.000004,163.60931 L49.000004,167.07343 L47.000004,170.53752 L43.000004,170.53752 L39,170.53752 L37,174.00162 L39,177.46573 L37,180.92982 L33,180.92982" fill="none" stroke="black" stroke-width="0.2"/>
<path d="M107,151.277 L105,147.8129 L103,144.3488 L99,144.3488 L97,147.8129 L95,151.277 L93,154.7411 L95,158.2052 L97,161.66931 L101,161.66931 L103,158.2052 L107,158.2052 L109,161.66931 L113,161.66931 L117,161.66931 L119.00001,158.2052 L117.00001,154.7411 L113.00001,154.7411 L109.00001,154.7411 L105.00001,154.7411 L103.00001,158.2052 L99.00001,158.2052 L97.00001,154.7411 L93.00001,154.7411 L91.00001,158.2052 L87.00001,158.2052 L85.00001,154.7411 L81.00001,154.7411 L79.00001,151.277 L77.00001,147.8129 L73.00001,147.8129 L71,151.277 L73,154.7411 L71,158.2052 L67,158.2052 L63.000004,158.2052 L59.000004,158.2052 L57.000004,154.7411 L53.000004,154.7411 L51.000004,158.2052 L53.000004,161.6693 L51.000004,165.1334 L49.000004,168.5975 L47.000004,172.06161 L43.000004,172.06161 L39,172.06161 L37,175.52571 L39,178.9898 L37,182.45392 L33,182.45392" fill="none" stroke="black" stroke-width="0.2"/>
<path d="M107,152.80818 L105,149.34409 L103,145.87997 L99,145.87997 L97,149.34409 L95,152.80818 L93,156.27228 L95,159.73639 L97,163.2005 L101,163.2005 L103,159.73639 L107,159.73639 L109,163.2005 L113,163.2005 L117,163.2005 L119.00001,159.73639 L117.00001,156.27228 L113.00001,156.27228 L109.00001,156.27228 L105.00001,156.27228 L103.00001,159.73639 L99.00001,159.73639 L97.00001,156.27228 L93.00001,156.27228 L91.00001,159.73639 L87.00001,159.73639 L85.00001,156.27228 L81.00001,156.27228 L77.00001,156.27228 L73.00001,156.27228 L71,159.73639 L73,163.20049 L77,163.20049 L79,166.66458 L77,170.1287 L75,173.5928 L73,177.05688 L69,177.05688 L67,180.521 L69,183.9851 L73,183.9851 L75,187.44919 L77,190.9133 L79,194.37741 L77,197.84149 L75,201.3056 L77,204.76971 L81,204.76971 L83,208.2338 L81,211.6979" fill="none" stroke="black" stroke-width="0.2"/>
<path d="M107,154.34634 L105,150.88225 L103,147.41815 L99,147.41815 L97,150.88225 L95,154.34634 L93,157.81046 L95,161.27455 L97,164.73866 L101,164.73866 L103,161.27455 L107,161.27455 L109,164.73866 L113,164.73866 L117,164.73866 L119.00001,161.27455 L117.00001,157.81046 L113.00001,157.81046 L109.00001,157.81046 L105.00001,157.81046 L103.00001,161.27455 L99.00001,161.27455 L97.00001,157.81046 L93.00001,157.81046 L91.00001,161.27455 L87.00001,161.27455 L85.00001,157.81046 L81.00001,157.81046 L77.00001,157.81046 L73.00001,157.81046 L71,161.27455 L73,164.73865 L77,164.73865 L79,168.20276 L77,171.66685 L75,175.13097 L73,178.59506 L69,178.59506 L67,182.05916 L69,185.52327 L73,185.52327 L75,188.98737 L77,192.45148 L79,195.91557 L77,199.37967 L75,202.84378 L77,206.30788 L81,206.30788 L83,209.77197 L81,213.23608" fill="none" stroke="black" stroke-width="0.2"/>
<path d="M107,155.89137 L105,152.42728 L103,148.96317 L99,148.96317 L97,152.42728 L95,155.89137 L93,159.35547 L95,162.81958 L97,166.28368 L101,166.28368 L103,162.81958 L107,162.81958 L109,166.28368 L113,166.28368 L117,166.28368 L119.00001,162.81958 L117.00001,159.35547 L113.00001,159.35547 L109.00001,159.35547 L105.00001,159.35547 L103.00001,162.81958 L99.00001,162.81958 L97.00001,159.35547 L93.00001,159.35547 L91.00001,162.81958 L87.00001,162.81958 L85.00001,159.35547 L81.00001,159.35547 L77.00001,159.35547 L73.00001,159.35547 L71,162.81958 L73,166.28368 L77,166.28368 L79,169.74777 L77,173.21188 L75,176.67598 L73,180.14008 L69,180.14008 L67,183.60419 L69,187.06828 L73,187.06828 L75,190.53238 L77,193.99649 L79,197.46059 L77,200.92468 L75,204.3888 L77,207.85289 L81,207.85289 L83,211.31699 L81,214.7811" fill="none" stroke="black" stroke-width="0.2"/>
<path d="M107,157.44312 L105,153.97902 L103,150.51492 L99,150.51492 L97,153.97902 L95,157.44312 L93,160.90723 L95,164.37132 L97,167.83543 L101,167.83543 L103,164.37132 L107,164.37132 L109,167.83543 L113,167.83543 L117,167.83543 L119.00001,164.37132 L117.00001,160.90723 L113.00001,160.90723 L109.00001,160.90723 L105.00001,160.90723 L103.00001,164.37132 L99.00001,164.37132 L97.00001,160.90723 L93.00001,160.90723 L91.00001,164.37132 L87.00001,164.37132 L85.00001,160.90723 L81.00001,160.90723 L77.00001,160.90723 L73.00001,160.90723 L71,164.37132 L73,167.83542 L77,167.83542 L79,171.29953 L77,174.76363 L75,178.22774 L73,181.69183 L69,181.69183 L67,185.15593 L69,188.62004 L73,188.62004 L75,192.08414 L77,195.54825 L79,199.01234 L77,202.47644 L75,205.94055 L77,209.40465 L81,209.40465 L83,212.86874 L81,216.33286" fill="none" stroke="black" stroke-width="0.2"/>
<path d="M107,159.00148 L105,155.53738 L103,152.07329 L99,152.07329 L97,155.53738 L95,159.00148 L93,162.46559 L95,165.92969 L97,169.3938 L101,169.3938 L103,165.92969 L107,165.92969 L109,169.3938 L113,169.3938 L117,169.3938 L119.00001,165.92969 L117.00001,162.46559 L113.00001,162.46559 L109.00001,162.46559 L105.00001,162.46559 L103.00001,165.92969 L99.00001,165.92969 L97.00001,162.46559 L93.00001,162.46559 L91.00001,165.92969 L87.00001,165.92969 L85.00001,162.46559 L81.00001,162.46559 L77.00001,162.46559 L73.00001,162.46559 L71,165.92969 L73,169.39378 L77,169.39378 L79,172.8579 L77,176.32199 L75,179.7861 L73,183.2502 L69,183.2502 L67,186.7143 L69,190.1784 L73,190.1784 L75,193.6425 L77,197.10661 L79,200.57071 L77,204.0348 L75,207.49892 L77,210.96301 L81,210.96301 L83,214.42711 L81,217.89122" fill="none" stroke="black" stroke-width="0.2"/>
<path d="M107,160.56636 L105,157.10226 L103,153.63815 L99,153.63815 L97,157.10226 L95,160.56636 L93,164.03046 L95,167.49457 L97,170.95868 L101,170.95868 L103,167.49457 L107,167.49457 L109,170.95868 L113,170.95868 L117,170.95868 L119.00001,167.49457 L117.00001,164.03046 L113.00001,164.03046 L109.00001,164.03046 L105.00001,164.03046 L103.00001,167.49457 L99.00001,167.49457 L97.00001,164.03046 L93.00001,164.03046 L91.00001,167.49457 L87.00001,167.49457 L85.00001,164.03046 L81.00001,164.03046 L77.00001,164.03046 L73.00001,164.03046 L71,167.49457 L73,170.95866 L77,170.95866 L79,174.42276 L77,177.88687 L75,181.35098 L73,184.81506 L69,184.81506 L67,188.27917 L69,191.74329 L73,191.74329 L75,195.20737 L77,198.67148 L79,202.13559 L77,205.59967 L75,209.06378 L77,212.5279 L81,212.5279 L83,215.99197 L81,219.45609" fill="none" stroke="black" stroke-width="0.2"/>
<path d="M107,162.13763 L105,158.67354 L103,155.20944 L99,155.20944 L97,158.67354 L95,162.13763 L93,165.60175 L95,169.06584 L97,172.52994 L101,172.52994 L103,169.06584 L107,169.06584 L109,172.52994 L113,172.52994 L117,172.52994 L119.00001,169.06584 L117.00001,165.60175 L113.00001,165.60175 L109.00001,165.60175 L105.00001,165.60175 L103.00001,169.06584 L99.00001,169.06584 L97.00001,165.60175 L93.00001,165.60175 L91.00001,169.06584 L87.00001,169.06584 L85.00001,165.60175 L81.00001,165.60175 L77.00001,165.60175 L73.00001,165.60175 L71,169.06584 L73,172.52994 L77,172.52994 L79,175.99405 L77,179.45815 L75,182.92224 L73,186.38635 L69,186.38635 L67,189.85045 L69,193.31454 L73,193.31454 L75,196.77866 L77,200.24277 L79,203.70685 L77,207.17096 L75,210.63507 L77,214.09915 L81,214.09915 L83,217.56326 L81,221.02737" fill="none" stroke="black" stroke-width="0.2"/>
<path d="M107,163.71521 L105,160.25111 L103,156.78702 L99,156.78702 L97,160.25111 L95,163.71521 L93,167.17932 L95,170.64342 L97,174.10751 L101,174.10751 L103,170.64342 L107,170.64342 L109,174.10751 L113,174.10751 L117,174.10751 L119.00001,170.64342 L117.00001,167.17932 L113.00001,167.17932 L109.00001,167.17932 L105.00001,167.17932 L103.00001,170.64342 L99.00001,170.64342 L97.00001,167.17932 L93.00001,167.17932 L91.00001,170.64342 L87.00001,170.64342 L85.00001,167.17932 L81.00001,167.17932 L77.00001,167.17932 L73.00001,167.17932 L71,170.64342 L73,174.10751 L77,174.10751 L79,177.57162 L77,181.03572 L75,184.49982 L73,187.96393 L69,187.96393 L67,191.42802 L69,194.89212 L73,194.89212 L75,198.35623 L77,201.82034 L79,205.28442 L77,208.74854 L75,212.21265 L77,215.67673 L81,215.67673 L83,219.14084 L81,222.60495" fill="none" stroke="black" stroke-width="0.2"/>
<path d="M107,165.29898 L105,161.83488 L103,158.37079 L99,158.37079 L97,161.83488 L95,165.29898 L93,168.76309 L95,172.22719 L97,175.69128 L101,175.69128 L103,172.22719 L107,172.22719 L109,175.69128 L113,175.69128 L117,175.69128 L119.00001,172.22719 L117.00001,168.76309 L113.00001,168.76309 L109.00001,168.76309 L105.00001,168.76309 L103.00001,172.22719 L99.00001,172.22719 L97.00001,168.76309 L93.00001,168.76309 L91.00001,172.22719 L87.00001,172.22719 L85.00001,168.76309 L81.00001,168.76309 L77.00001,168.76309 L73.00001,168.76309 L71,172.22719 L73,175.69128 L77,175.69128 L79,179.1554 L77,182.61949 L75,186.08359 L73,189.5477 L69,189.5477 L67,193.0118 L69,196.47589 L73,196.47589 L75,199.94 L77,203.40411 L79,206.8682 L77,210.3323 L75,213.79642 L77,217.2605 L81,217.2605 L83,220.72461 L81,224.18872" fill="none" stroke="black" stroke-width="0.2"/>
<path d="M107,166.88885 L105,163.42477 L103,159.96066 L99,159.96066 L97,163.42477 L95,166.88885 L93,170.35297 L95,173.81708 L97,177.28117 L101,177.28117 L103,173.81708 L107,173.81708 L109,177.28117 L113,177.28117 L117,177.28117 L119.00001,173.81708 L117.00001,170.35297 L113.00001,170.35297 L109.00001,170.35297 L105.00001,170.35297 L103.00001,173.81708 L99.00001,173.81708 L97.00001,170.35297 L93.00001,170.35297 L91.00001,173.81708 L87.00001,173.81708 L85.00001,170.35297 L81.00001,170.35297 L77.00001,170.35297 L73.00001,170.35297 L71,173.81708 L73,177.28116 L77,177.28116 L79,180.74527 L77,184.20938 L75,187.67348 L73,191.13757 L69,191.13757 L67,194.60168 L69,198.06578 L73,198.06578 L75,201.52988 L77,204.99399 L79,208.45808 L77,211.92218 L75,215.38629 L77,218.85039 L81,218.85039 L83,222.31448 L81,225.7786" fill="none" stroke="black" stroke-width="0.2"/>
<path d="M107,168.48474 L105,165.02066 L103,161.55655 L99,161.55655 L97,165.02066 L95,168.48474 L93,171.94885 L95,175.41296 L97,178.87706 L101,178.87706 L103,175.41296 L107,175.41296 L109,178.87706 L113,178.87706 L117,178.87706 L119.00001,175.41296 L117.00001,171.94885 L113.00001,171.94885 L109.00001,171.94885 L105.00001,171.94885 L103.00001,175.41296 L99.00001,175.41296 L97.00001,171.94885 L93.00001,171.94885 L91.00001,175.41296 L87.00001,175.41296 L85.00001,171.94885 L81.00001,171.94885 L77.00001,171.94885 L73.00001,171.94885 L71,175.41296 L73,178.87704 L77,178.87704 L79,182.34116 L77,185.80527 L75,189.26936 L73,192.73346 L69,192.73346 L67,196.19757 L69,199.66167 L73,199.66167 L75,203.12576 L77,206.58987 L79,210.05397 L77,213.51807 L75,216.98218 L77,220.44627 L81,220.44627 L83,223.91037 L81,227.37448" fill="none" stroke="black" stroke-width="0.2"/>
<path d="M107,170.08655 L105,166.62247 L103,163.15836 L99,163.15836 L97,166.62247 L95,170.08655 L93,173.55066 L95,177.01477 L97,180.47887 L101,180.47887 L103,177.01477 L107,177.01477 L109,180.47887 L113,180.47887 L117,180.47887 L119.00001,177.01477 L117.00001,173.55066 L113.00001,173.55066 L109.00001,173.55066 L105.00001,173.55066 L103.00001,177.01477 L99.00001,177.01477 L97.00001,173.55066 L93.00001,173.55066 L91.00001,177.01477 L87.00001,177.01477 L85.00001,173.55066 L81.00001,173.55066 L77.00001,173.55066 L73.00001,173.55066 L71,177.01477 L73,180.47885 L77,180.47885 L79,183.94296 L77,187.40707 L75,190.87117 L73,194.33527 L69,194.33527 L67,197.79938 L69,201.26347 L73,201.26347 L75,204.72757 L77,208.19168 L79,211.65578 L77,215.11987 L75,218.58398 L77,222.04808 L81,222.04808 L83,225.51218 L81,228.97629" fill="none" stroke="black" stroke-width="0.2"/>
<path d="M107,171.69421 L105,168.2301 L103,164.766 L99,164.766 L97,168.2301 L95,171.69421 L93,175.15831 L95,178.6224 L97,182.08652 L101,182.08652 L103,178.6224 L107,178.6224 L109,182.08652 L113,182.08652 L117,182.08652 L119.00001,178.6224 L117.00001,175.15831 L113.00001,175.15831 L109.00001,175.15831 L105.00001,175.15831 L103.00001,178.6224 L99.00001,178.6224 L97.00001,175.15831 L93.00001,175.15831 L91.00001,178.6224 L87.00001,178.6224 L85.00001,175.15831 L81.00001,175.15831 L77.00001,175.15831 L73.00001,175.15831 L71,178.6224 L73,182.08652 L75,185.55061 L73,189.01471 L69,189.01471 L65,189.01471 L61.000004,189.01471 L59.000004,185.55061 L55.000004,185.55061 L53.000004,189.01471 L55.000004,192.47882 L53.000004,195.94292 L51.000004,199.40701 L49.000004,202.87112 L45.000004,202.87112 L41.000004,202.87112 L39,206.33522 L41,209.79933 L39,213.26343 L35,213.26343" fill="none" stroke="black" stroke-width="0.2"/>
<path d="M107,173.3076 L105,169.8435 L103,166.3794 L99,166.3794 L97,169.8435 L95,173.3076 L93,176.7717 L95,180.23581 L97,183.69992 L101,183.69992 L103,180.23581 L107,180.23581 L109,183.69992 L113,183.69992 L117,183.69992 L119.00001,180.23581 L117.00001,176.7717 L113.00001,176.7717 L109.00001,176.7717 L105.00001,176.7717 L103.00001,180.23581 L99.00001,180.23581 L97.00001,176.7717 L93.00001,176.7717 L91.00001,180.23581 L87.00001,180.23581 L85.00001,176.7717 L81.00001,176.7717 L77.00001,176.7717 L73.00001,176.7717 L71,180.23581 L73,183.6999 L75,187.164 L73,190.62811 L69,190.62811 L65,190.62811 L61.000004,190.62811 L59.000004,187.164 L55.000004,187.164 L53.000004,190.62811 L55.000004,194.09222 L53.000004,197.5563 L51.000004,201.02042 L49.000004,204.48453 L45.000004,204.48453 L41.000004,204.48453 L39,207.94861 L41,211.41272 L39,214.87683 L35,214.87683" fill="none" stroke="black" stroke-width="0.2"/>
<path d="M107,174.92667 L105,171.46257 L103,167.99847 L99,167.99847 L97,171.46257 L95,174.92667 L93,178.39078 L95,181.85487 L97,185.31897 L101,185.31897 L103,181.85487 L107,181.85487 L109,185.31897 L113,185.31897 L117,185.31897 L119.00001,181.85487 L117.00001,178.39078 L113.00001,178.39078 L109.00001,178.39078 L105.00001,178.39078 L103.00001,181.85487 L99.00001,181.85487 L97.00001,178.39078 L93.00001,178.39078 L91.00001,181.85487 L87.00001,181.85487 L85.00001,178.39078 L81.00001,178.39078 L77.00001,178.39078 L73.00001,178.39078 L71,181.85487 L73,185.31897 L75,188.78308 L73,192.24718 L69,192.24718 L65,192.24718 L61.000004,192.24718 L59.000004,188.78308 L55.000004,188.78308 L53.000004,192.24718 L55.000004,195.71127 L53.000004,199.17538 L51.000004,202.63948 L49.000004,206.10358 L45.000004,206.10358 L41.000004,206.10358 L39,209.56769 L41,213.0318 L39,216.49588 L35,216.49588" fill="none" stroke="black" stroke-width="0.2"/>
<path d="M107,176.55133 L105,173.08723 L103,169.62314 L99,169.62314 L97,173.08723 L95,176.55133 L93,180.01544 L95,183.47954 L97,186.94363 L101,186.94363 L103,183.47954 L107,183.47954 L109,186.94363 L113,186.94363 L117,186.94363 L119.00001,183.47954 L117.00001,180.01544 L113.00001,180.01544 L109.00001,180.01544 L105.00001,180.01544 L103.00001,183.47954 L99.00001,183.47954 L97.00001,180.01544 L93.00001,180.01544 L91.00001,183.47954 L87.00001,183.47954 L85.00001,180.01544 L81.00001,180.01544 L77.00001,180.01544 L73.00001,180.01544 L71,183.47954 L73,186.94363 L75,190.40775 L73,193.87184 L69,193.87184 L65,193.87184 L61.000004,193.87184 L59.000004,190.40775 L55.000004,190.40775 L53.000004,193.87184 L55.000004,197.33594 L53.000004,200.80005 L51.000004,204.26414 L49.000004,207.72824 L45.000004,207.72824 L41.000004,207.72824 L39,211.19235 L41,214.65646 L39,218.12054 L35,218.12054" fill="none" stroke="black" stroke-width="0.2"/>
<path d="M107,178.18152 L105,174.7174 L103,171.25331 L99,171.25331 L97,174.7174 L95,178.18152 L93,181.64561 L95,185.10971 L97,188.57382 L101,188.57382 L103,185.10971 L107,185.10971 L109,188.57382 L113,188.57382 L117,188.57382 L119.00001,185.10971 L117.00001,181.64561 L113.00001,181.64561 L109.00001,181.64561 L105.00001,181.64561 L103.00001,185.10971 L99.00001,185.10971 L97.00001,181.64561 L93.00001,181.64561 L91.00001,185.10971 L87.00001,185.10971 L85.00001,181.64561 L81.00001,181.64561 L77.00001,181.64561 L73.00001,181.64561 L71,185.10971 L73,188.57382 L75,192.03792 L73,195.50201 L69,195.50201 L65,195.50201 L61.000004,195.50201 L59.000004,192.03792 L55.000004,192.03792 L53.000004,195.50201 L55.000004,198.96613 L53.000004,202.43022 L51.000004,205.89432 L49.000004,209.35843 L45.000004,209.35843 L41.000004,209.35843 L39,212.82253 L41,216.28664 L39,219.75073 L35,219.75073" fill="none" stroke="black" stroke-width="0.2"/>
<path d="M107,179.81714 L105,176.35303 L103,172.88893 L99,172.88893 L97,176.35303 L95,179.81714 L93,183.28123 L95,186.74533 L97,190.20944 L101,190.20944 L103,186.74533 L107,186.74533 L109,190.20944 L113,190.20944 L117,190.20944 L119.00001,186.74533 L117.00001,183.28123 L113.00001,183.28123 L109.00001,183.28123 L105.00001,183.28123 L103.00001,186.74533 L99.00001,186.74533 L97.00001,183.28123 L93.00001,183.28123 L91.00001,186.74533 L87.00001,186.74533 L85.00001,183.28123 L81.00001,183.28123 L77.00001,183.28123 L73.00001,183.28123 L71,186.74533 L73,190.20944 L75,193.67354 L73,197.13763 L69,197.13763 L65,197.13763 L61.000004,197.13763 L59.000004,193.67354 L55.000004,193.67354 L53.000004,197.13763 L55.000004,200.60175 L53.000004,204.06584 L55.000004,207.52994 L57.000004,210.99405 L55.000004,214.45815 L53.000004,217.92226 L55.000004,221.38635 L59.000004,221.38635 L61.000004,224.85045 L59.000004,228.31456" fill="none" stroke="black" stroke-width="0.2"/>
<path d="M107,181.45813 L105,177.99403 L103,174.52994 L99,174.52994 L97,177.99403 L95,181.45813 L93,184.92224 L95,188.38634 L97,191.85043 L101,191.85043 L103,188.38634 L107,188.38634 L109,191.85043 L113,191.85043 L117,191.85043 L119.00001,188.38634 L117.00001,184.92224 L113.00001,184.92224 L109.00001,184.92224 L105.00001,184.92224 L103.00001,188.38634 L99.00001,188.38634 L97.00001,184.92224 L93.00001,184.92224 L91.00001,188.38634 L87.00001,188.38634 L85.00001,184.92224 L81.00001,184.92224 L77.00001,184.92224 L73.00001,184.92224 L71,188.38634 L73,191.85043 L75,195.31454 L73,198.77864 L69,198.77864 L65,198.77864 L61.000004,198.77864 L59.000004,195.31454 L55.000004,195.31454 L53.000004,198.77864 L55.000004,202.24274 L53.000004,205.70685 L55.000004,209.17094 L57.000004,212.63504 L55.000004,216.09915 L53.000004,219.56326 L55.000004,223.02734 L59.000004,223.02734 L61.000004,226.49146 L59.000004,229.95557" fill="none" stroke="black" stroke-width="0.2"/>
<path d="M107,183.10443 L105,179.64032 L103,176.17622 L99,176.17622 L97,179.64032 L95,183.10443 L93,186.56853 L95,190.03262 L97,193.49673 L101,193.49673 L103,190.03262 L107,190.03262 L109,193.49673 L113,193.49673 L117,193.49673 L119.00001,190.03262 L117.00001,186.56853 L113.00001,186.56853 L109.00001,186.56853 L105.00001,186.56853 L103.00001,190.03262 L99.00001,190.03262 L97.00001,186.56853 L93.00001,186.56853 L91.00001,190.03262 L87.00001,190.03262 L85.00001,186.56853 L81.00001,186.56853 L77.00001,186.56853 L73.00001,186.56853 L71,190.03262 L73,193.49673 L75,196.96083 L73,200.42493 L69,200.42493 L65,200.42493 L61.000004,200.42493 L59.000004,196.96083 L55.000004,196.96083 L53.000004,200.42493 L55.000004,203.88904 L53.000004,207.35313 L55.000004,210.81723 L57.000004,214.28134 L55.000004,217.74544 L53.000004,221.20955 L55.000004,224.67365 L59.000004,224.67365 L61.000004,228.13774 L59.000004,231.60185" fill="none" stroke="black" stroke-width="0.2"/>
<path d="M107,184.75595 L105,181.29185 L103,177.82776 L99,177.82776 L97,181.29185 L95,184.75595 L93,188.22006 L95,191.68416 L97,195.14825 L101,195.14825 L103,191.68416 L107,191.68416 L109,195.14825 L113,195.14825 L117,195.14825 L119.00001,191.68416 L117.00001,188.22006 L113.00001,188.22006 L109.00001,188.22006 L105.00001,188.22006 L103.00001,191.68416 L99.00001,191.68416 L97.00001,188.22006 L93.00001,188.22006 L91.00001,191.68416 L87.00001,191.68416 L85.00001,188.22006 L81.00001,188.22006 L77.00001,188.22006 L73.00001,188.22006 L71,191.68416 L73,195.14825 L75,198.61237 L73,202.07646 L69,202.07646 L65,202.07646 L61.000004,202.07646 L59.000004,198.61237 L55.000004,198.61237 L53.000004,202.07646 L55.000004,205.54056 L53.000004,209.00467 L55.000004,212.46877 L57.000004,215.93286 L55.000004,219.39697 L53.000004,222.86108 L55.000004,226.32516 L59.000004,226.32516 L61.000004,229.78928 L59.000004,233.25339" fill="none" stroke="black" stroke-width="0.2"/>
<path d="M107,186.41266 L105,182.94855 L103,179.48445 L99,179.48445 L97,182.94855 L95,186.41266 L93,189.87675 L95,193.34085 L97,196.80496 L101,196.80496 L103,193.34085 L107,193.34085 L109,196.80496 L113,196.80496 L117,196.80496 L119.00001,193.34085 L117.00001,189.87675 L113.00001,189.87675 L109.00001,189.87675 L105.00001,189.87675 L103.00001,193.34085 L99.00001,193.34085 L97.00001,189.87675 L93.00001,189.87675 L91.00001,193.34085 L87.00001,193.34085 L85.00001,189.87675 L81.00001,189.87675 L77.00001,189.87675 L73.00001,189.87675 L71,193.34085 L73,196.80496 L75,200.26906 L73,203.73315 L69,203.73315 L65,203.73315 L61.000004,203.73315 L59.000004,200.26906 L55.000004,200.26906 L53.000004,203.73315 L55.000004,207.19727 L53.000004,210.66136 L55.000004,214.12546 L57.000004,217.58957 L55.000004,221.05367 L53.000004,224.51778 L55.000004,227.98187 L59.000004,227.98187 L61.000004,231.44597 L59.000004,234.91008" fill="none" stroke="black" stroke-width="0.2"/>
<path d="M107,188.07446 L105,184.61035 L103,181.14626 L99,181.14626 L97,184.61035 L95,188.07446 L93,191.53856 L95,195.00266 L97,198.46677 L101,198.46677 L103,195.00266 L107,195.00266 L109,198.46677 L113,198.46677 L117,198.46677 L119.00001,195.00266 L117.00001,191.53856 L113.00001,191.53856 L109.00001,191.53856 L105.00001,191.53856 L103.00001,195.00266 L99.00001,195.00266 L97.00001,191.53856 L93.00001,191.53856 L91.00001,195.00266 L87.00001,195.00266 L85.00001,191.53856 L81.00001,191.53856 L77.00001,191.53856 L73.00001,191.53856 L71,195.00266 L73,198.46677 L75,201.93086 L73,205.39496 L69,205.39496 L65,205.39496 L61.000004,205.39496 L59.000004,201.93086 L55.000004,201.93086 L53.000004,205.39496 L55.000004,208.85907 L53.000004,212.32317 L55.000004,215.78726 L57.000004,219.25137 L55.000004,222.71547 L53.000004,226.17958 L55.000004,229.64368 L59.000004,229.64368 L61.000004,233.10777 L59.000004,236.57188" fill="none" stroke="black" stroke-width="0.2"/>
<path d="M107,189.7413 L105,186.27722 L103,182.81311 L99,182.81311 L97,186.27722 L95,189.7413 L93,193.20541 L95,196.66953 L97,200.13362 L101,200.13362 L103,196.66953 L107,196.66953 L109,200.13362 L113,200.13362 L117,200.13362 L119.00001,196.66953 L117.00001,193.20541 L113.00001,193.20541 L109.00001,193.20541 L105.00001,193.20541 L103.00001,196.66953 L101.00001,200.13362 L97.00001,200.13362 L95.00001,203.59772 L97.00001,207.06183 L95.00001,210.52592 L91.00001,210.52592 L89.00001,213.99002 L87,217.45413 L85,220.91823 L87,224.38232 L91,224.38232 L95,224.38232 L97,227.84644 L95,231.31053 L93,234.77463 L91,238.23874 L87,238.23874 L85,241.70284 L87,245.16693 L91,245.16693 L95,245.16693 L97.00001,241.70284 L99.00001,238.23874 L103.00001,238.23874 L107.00001,238.23874 L109.00001,234.77463 L107.00001,231.31053 L109.00001,227.84644 L113.00001,227.84644" fill="none" stroke="black" stroke-width="0.2"/>
<path d="M107,191.41313 L105,187.94904 L103,184.48492 L99,184.48492 L97,187.94904 L95,191.41313 L93,194.87723 L95,198.34134 L97,201.80545 L101,201.80545 L103,198.34134 L107,198.34134 L109,201.80545 L113,201.80545 L117,201.80545 L119.00001,198.34134 L117.00001,194.87723 L113.00001,194.87723 L109.00001,194.87723 L105.00001,194.87723 L103.00001,198.34134 L101.00001,201.80545 L97.00001,201.80545 L95.00001,205.26953 L97.00001,208.73364 L95.00001,212.19775 L91.00001,212.19775 L89.00001,215.66183 L87,219.12595 L85,222.59006 L87,226.05414 L91,226.05414 L95,226.05414 L97,229.51825 L95,232.98236 L93,236.44644 L91,239.91055 L87,239.91055 L85,243.37466 L87,246.83875 L91,246.83875 L95,246.83875 L97.00001,243.37466 L99.00001,239.91055 L103.00001,239.91055 L107.00001,239.91055 L109.00001,236.44644 L107.00001,232.98236 L109.00001,229.51825 L113.00001,229.51825" fill="none" stroke="black" stroke-width="0.2"/>
<path d="M107,193.0899 L105,189.6258 L103,186.1617 L99,186.1617 L97,189.6258 L95,193.0899 L93,196.554 L95,200.0181 L97,203.48221 L101,203.48221 L103,200.0181 L107,200.0181 L109,203.48221 L113,203.48221 L117,203.48221 L119.00001,200.0181 L117.00001,196.554 L113.00001,196.554 L109.00001,196.554 L105.00001,196.554 L103.00001,200.0181 L101.00001,203.48221 L97.00001,203.48221 L95.00001,206.9463 L97.00001,210.4104 L95.00001,213.87451 L91.00001,213.87451 L89.00001,217.33861 L87,220.8027 L85,224.26682 L87,227.73091 L91,227.73091 L95,227.73091 L97,231.19502 L95,234.65912 L93,238.12321 L91,241.58733 L87,241.58733 L85,245.05142 L87,248.51552 L91,248.51552 L95,248.51552 L97.00001,245.05142 L99.00001,241.58733 L103.00001,241.58733 L107.00001,241.58733 L109.00001,238.12321 L107.00001,234.65912 L109.00001,231.19502 L113.00001,231.19502" fill="none" stroke="black" stroke-width="0.2"/>
<path d="m 15.815664,12.893319 c -1.445284,-3.0999497 -5.555449,-0.3575 -5.08537,2.32203 1.697826,2.92736 4.504013,-3.54417 4.40859,-2.58178 -1.548999,2.22986 0.741131,6.08701 3.012419,3.25791 2.532153,-2.82358 0.259001,-7.8326797 -3.488671,-7.9011197 -3.217272,0.056 -5.8863857,2.4603197 -7.9308737,4.7238797 -2.354585,2.46752 0.0048,5.887 2.757763,6.62143 3.2195457,1.10867 6.8759417,1.30834 9.9459317,-0.36585 2.270396,-1.12373 5.025949,-2.62031 5.680576,-5.20027 -2.108811,-3.66096 -6.038415,1.28356 -3.842036,3.67822 1.07278,0.89979 4.586982,-2.27037 3.201668,-2.73503 0.03094,3.24357 1.226854,6.37852 1.337023,9.60311 -0.672198,3.54892 -7.469251,0.32096 -4.637082,-2.5164 2.158436,-2.4193 5.610472,-2.84094 8.202925,-4.57369 0.993877,-1.40371 0.353413,-5.25046 3.182464,-3.48957 2.142923,1.43516 -2.250898,5.7532 1.723416,5.02339 1.661189,-0.71663 6.494946,-1.40457 4.601401,-3.95236 -4.205319,-0.68052 -1.190571,5.86505 1.665411,3.46881 1.929752,-0.9247 2.778055,-4.05119 1.423645,-5.35034 0.479155,1.8589 3.849911,7.52574 4.880369,3.32696 0.21201,-1.28088 0.40468,-3.80204 1.01246,-1.23041 0.5858,2.6865 3.83412,4.91909 4.56937,1.07383 0.65272,-1.00894 -0.2696,-4.02739 0.99929,-1.35746 1.10974,2.31613 6.32001,1.46113 6.147,-1.13059 -1.98394,-2.13868 -5.3717,1.45205 -3.78252,3.73454 2.57741,0.96208 6.69797,-0.21041 7.06275,-3.33983 0.41287,-2.63769 0.26643,-5.3430297 -0.11178,-7.9756197 0.67418,3.94149 1.24889,7.9380497 2.39963,11.7713397 2.10586,1.67977 5.7434,1.65022 7.74596,-0.23639 3.03149,-1.85431 -0.26637,-4.76925 -2.71777,-4.54025 -2.11577,0.0793 -5.36257,2.40772 -5.16868,3.85604 2.08262,-2.38818 5.55759,-1.22628 8.30726,-1.6832 3.182,-0.26596 6.46546,-0.57372 9.54494,-1.18158 0.24171,0.4199 -0.27752,0.54338 -0.43067,0.17453" fill="none" stroke="black" stroke-width="1" transform="translate(180,285) scale(0.3)"/>
</svg>