<svg height="297mm" style="background:white" viewBox="0 0 210 297" width="210mm" xmlns="http://www.w3.org/2000/svg" xmlns:inkscape="http://www.inkscape.org/namespaces/inkscape">
<g inkscape:groupmode="layer" inkscape:label="#fb0">
<path d="M105,50 Q105,50,150.33357,64.95274 Q195.66716,79.90549,105,77.55274 Q14.332842,75.200005,89.94806,60.639755 Q165.56328,46.079502,105,37.300495 Q44.436718,28.521486,109.3761,32.243797 Q174.31548,35.966106,105,51.908096 Q35.68452,67.85008,95.543495,40.218643 Q155.40247,12.587203,105,38.363968 Q54.59753,64.14073,147.0579,54.72454 Q239.5183,45.308353,105,30.422424 Q-29.51829,15.536498,79.62269,29.877798 Q188.76367,44.219097,105,36.010254 Q21.23633,27.801407,108.891106,29.139563 Q196.54588,30.47772,105,24.551125 Q13.454115,18.62453,84.15134,40.28196 Q154.84856,61.93939,105,55.564438 Q55.151436,49.189487,103.82283,40.73178 Q152.49422,32.27408,105,27.28578 Q57.50578,22.297482,94.739204,33.96027 Q131.97263,45.623062,105,48.166714 Q78.027374,50.71037,114.47794,48.73234 Q150.92851,46.754314,105,47.131054 Q59.071487,47.507793,113.93253,30.253223 Q168.79358,12.998655,105,12.6196995 Q41.206425,12.240745,127.58438,18.145699 Q213.96234,24.050652,105,39.958454 Q-3.9623399,55.86626,110.18339,54.825424 Q224.32912,53.784584,105,55.13833 Q-14.329121,56.49207,117.61944,66.869606 Q249.568,77.24714,105,60.97469 Q-39.567997,44.702244,88.75769,46.251396 Q217.08337,47.800552,105,66.0693 Q-7.0833793,84.338036,48.95831,67.16902 Q105,50,105,51.5 Q105,53,150.33357,67.95274 Q195.66716,82.90549,105,80.55274 Q14.332842,78.200005,89.94806,63.639755 Q165.56328,49.079502,105,40.300495 Q44.436718,31.521486,109.3761,35.243797 Q174.31548,38.966106,105,54.908096 Q35.68452,70.85008,95.543495,43.218643 Q155.40247,15.587203,105,41.363968 Q54.59753,67.14073,147.0579,57.72454 Q239.5183,48.308353,105,33.422424 Q-29.51829,18.536499,79.62269,32.8778 Q188.76367,47.219097,105,39.010254 Q21.23633,30.801407,108.891106,32.139565 Q196.54588,33.47772,105,27.551125 Q13.454115,21.62453,84.15134,43.28196 Q154.84856,64.93939,105,58.564438 Q55.151436,52.189487,103.82283,43.73178 Q152.49422,35.27408,105,30.28578 Q57.50578,25.297482,94.739204,36.96027 Q131.97263,48.623062,105,51.166714 Q78.027374,53.71037,114.47794,51.73234 Q150.92851,49.754314,105,50.131054 Q59.071487,50.507793,113.93253,33.253223 Q168.79358,15.998655,105,15.6196995 Q41.206425,15.240745,127.58438,21.145699 Q213.96234,27.050652,105,42.958454 Q-3.9623399,58.86626,110.18339,57.825424 Q224.32912,56.784584,105,58.13833 Q-14.329121,59.49207,117.61944,69.869606 Q249.568,80.24714,105,63.97469 Q-39.567997,47.702244,88.75769,49.251396 Q217.08337,50.800552,105,69.0693 Q-7.0833793,87.338036,48.95831,70.16902 Q105,53,105,54.5 Q105,56,150.33357,70.95274 Q195.66716,85.90549,105,83.55274 Q14.332842,81.200005,89.94806,66.639755 Q165.56328,52.079502,105,43.300495 Q44.436718,34.52149,109.3761,38.243797 Q174.31548,41.966106,105,57.908096 Q35.68452,73.85008,95.543495,46.218643 Q155.40247,18.587202,105,44.363968 Q54.59753,70.14073,147.0579,60.72454 Q239.5183,51.308353,105,36.422424 Q-29.51829,21.536499,79.62269,35.8778 Q188.76367,50.219097,105,42.010254 Q21.23633,33.801407,108.891106,35.139565 Q196.54588,36.47772,105,30.551125 Q13.454115,24.62453,84.15134,46.28196 Q154.84856,67.93939,105,61.564438 Q55.151436,55.189487,103.82283,46.73178 Q152.49422,38.27408,105,33.285778 Q57.50578,28.297482,94.739204,39.96027 Q131.97263,51.623062,105,54.166714 Q78.027374,56.71037,114.47794,54.73234 Q150.92851,52.754314,105,53.131054 Q59.071487,53.507793,113.93253,36.253223 Q168.79358,18.998655,105,18.6197 Q41.206425,18.240744,127.58438,24.145699 Q213.96234,30.050652,105,45.958454 Q-3.9623399,61.86626,110.18339,60.825424 Q224.32912,59.784584,105,61.13833 Q-14.329121,62.49207,117.61944,72.869606 Q249.568,83.24714,105,66.97469 Q-39.567997,50.702244,88.75769,52.251396 Q217.08337,53.800552,105,72.0693 Q-7.0833793,90.338036,48.95831,73.16902 Q105,56,105,57.5 Q105,59,150.33357,73.95274 Q195.66716,88.90549,105,86.55274 Q14.332842,84.200005,89.94806,69.639755 Q165.56328,55.079502,105,46.300495 Q44.436718,37.52149,109.3761,41.243797 Q174.31548,44.966106,105,60.908096 Q35.68452,76.85008,95.543495,49.218643 Q155.40247,21.587202,105,47.363968 Q54.59753,73.14073,147.0579,63.72454 Q239.5183,54.308353,105,39.422424 Q-29.51829,24.536499,79.62269,38.8778 Q188.76367,53.219097,105,45.010254 Q21.23633,36.801407,108.891106,38.139565 Q196.54588,39.47772,105,33.551125 Q13.454115,27.62453,84.15134,49.28196 Q154.84856,70.93939,105,64.56444 Q55.151436,58.189487,103.82283,49.73178 Q152.49422,41.27408,105,36.285778 Q57.50578,31.297482,94.739204,42.96027 Q131.97263,54.623062,105,57.166714 Q78.027374,59.71037,114.47794,57.73234 Q150.92851,55.754314,105,56.131054 Q59.071487,56.507793,113.93253,39.253223 Q168.79358,21.998655,105,21.6197 Q41.206425,21.240744,127.58438,27.145699 Q213.96234,33.05065,105,48.958454 Q-3.9623399,64.866264,110.18339,63.825424 Q224.32912,62.784584,105,64.13833 Q-14.329121,65.49207,117.61944,75.869606 Q249.568,86.24714,105,69.97469 Q-39.567997,53.702244,88.75769,55.251396 Q217.08337,56.800552,105,75.0693 Q-7.0833793,93.338036,48.95831,76.16902 Q105,59,105,60.5 Q105,62,150.33357,76.95274 Q195.66716,91.90549,105,89.55274 Q14.332842,87.200005,89.94806,72.639755 Q165.56328,58.079502,105,49.300495 Q44.436718,40.52149,109.3761,44.243797 Q174.31548,47.966106,105,63.908096 Q35.68452,79.85008,95.543495,52.218643 Q155.40247,24.587202,105,50.363968 Q54.59753,76.14073,147.0579,66.72454 Q239.5183,57.308353,105,42.422424 Q-29.51829,27.536499,79.62269,41.8778 Q188.76367,56.219097,105,48.010254 Q21.23633,39.801407,108.891106,41.139565 Q196.54588,42.47772,105,36.551125 Q13.454115,30.62453,84.15134,52.28196 Q154.84856,73.93939,105,67.56444 Q55.151436,61.189487,103.82283,52.73178 Q152.49422,44.27408,105,39.285778 Q57.50578,34.29748,94.739204,45.96027 Q131.97263,57.623062,105,60.166714 Q78.027374,62.71037,114.47794,60.73234 Q150.92851,58.754314,105,59.131054 Q59.071487,59.507793,113.93253,42.253223 Q168.79358,24.998655,105,24.6197 Q41.206425,24.240744,127.58438,30.145699 Q213.96234,36.05065,105,51.958454 Q-3.9623399,67.866264,110.18339,66.825424 Q224.32912,65.784584,105,67.13833 Q-14.329121,68.49207,117.61944,78.869606 Q249.568,89.24714,105,72.97469 Q-39.567997,56.702244,88.75769,58.251396 Q217.08337,59.800552,105,78.0693 Q-7.0833793,96.338036,48.95831,79.16902 Q105,62,105,63.5 Q105,65,150.33357,79.95274 Q195.66716,94.90549,105,92.55274 Q14.332842,90.200005,89.94806,75.639755 Q165.56328,61.079502,105,52.300495 Q44.436718,43.52149,109.3761,47.243797 Q174.31548,50.966106,105,66.9081 Q35.68452,82.85008,95.543495,55.218643 Q155.40247,27.587202,105,53.363968 Q54.59753,79.14073,147.0579,69.72454 Q239.5183,60.308353,105,45.422424 Q-29.51829,30.536499,79.62269,44.8778 Q188.76367,59.219097,105,51.010254 Q21.23633,42.801407,108.891106,44.139565 Q196.54588,45.47772,105,39.551125 Q13.454115,33.62453,84.15134,55.28196 Q154.84856,76.93939,105,70.56444 Q55.151436,64.18948,103.82283,55.73178 Q152.49422,47.27408,105,42.285778 Q57.50578,37.29748,94.739204,48.96027 Q131.97263,60.623062,105,63.166714 Q78.027374,65.710365,114.47794,63.73234 Q150.92851,61.754314,105,62.131054 Q59.071487,62.507793,113.93253,45.253223 Q168.79358,27.998655,105,27.6197 Q41.206425,27.240744,127.58438,33.1457 Q213.96234,39.05065,105,54.958454 Q-3.9623399,70.866264,110.18339,69.825424 Q224.32912,68.784584,105,70.13833 Q-14.329121,71.49207,117.61944,81.869606 Q249.568,92.24714,105,75.97469 Q-39.567997,59.702244,88.75769,61.251396 Q217.08337,62.800552,105,81.0693 Q-7.0833793,99.338036,48.95831,82.16902 Q105,65,105,66.5 Q105,68,150.33357,82.95274 Q195.66716,97.90549,105,95.55274 Q14.332842,93.200005,89.94806,78.639755 Q165.56328,64.079506,105,55.300495 Q44.436718,46.52149,109.3761,50.243797 Q174.31548,53.966106,105,69.9081 Q35.68452,85.85008,95.543495,58.218643 Q155.40247,30.587202,105,56.363968 Q54.59753,82.14073,147.0579,72.72454 Q239.5183,63.308353,105,48.422424 Q-29.51829,33.5365,79.62269,47.8778 Q188.76367,62.219097,105,54.010254 Q21.23633,45.801407,108.891106,47.139565 Q196.54588,48.47772,105,42.551125 Q13.454115,36.62453,84.15134,58.28196 Q154.84856,79.93939,105,73.56444 Q55.151436,67.18948,103.82283,58.73178 Q152.49422,50.27408,105,45.285778 Q57.50578,40.29748,94.739204,51.96027 Q131.97263,63.623062,105,66.16672 Q78.027374,68.710365,114.47794,66.73234 Q150.92851,64.75432,105,65.13106 Q59.071487,65.50779,113.93253,48.253223 Q168.79358,30.998655,105,30.6197 Q41.206425,30.240744,127.58438,36.1457 Q213.96234,42.05065,105,57.958454 Q-3.9623399,73.866264,110.18339,72.825424 Q224.32912,71.784584,105,73.13833 Q-14.329121,74.49207,117.61944,84.869606 Q249.568,95.24714,105,78.97469 Q-39.567997,62.702244,88.75769,64.251396 Q217.08337,65.80055,105,84.0693 Q-7.0833793,102.338036,48.95831,85.16902 Q105,68,105,69.5 Q105,71,150.33357,85.95274 Q195.66716,100.90549,105,98.55274 Q14.332842,96.200005,89.94806,81.639755 Q165.56328,67.079506,105,58.300495 Q44.436718,49.52149,109.3761,53.243797 Q174.31548,56.966106,105,72.9081 Q35.68452,88.85008,95.543495,61.218643 Q155.40247,33.587204,105,59.363968 Q54.59753,85.14073,147.0579,75.72454 Q239.5183,66.30835,105,51.422424 Q-29.51829,36.5365,79.62269,50.8778 Q188.76367,65.2191,105,57.010254 Q21.23633,48.801407,108.891106,50.139565 Q196.54588,51.47772,105,45.551125 Q13.454115,39.62453,84.15134,61.28196 Q154.84856,82.93939,105,76.56444 Q55.151436,70.18948,103.82283,61.73178 Q152.49422,53.27408,105,48.285778 Q57.50578,43.29748,94.739204,54.96027 Q131.97263,66.62306,105,69.16672 Q78.027374,71.710365,114.47794,69.73234 Q150.92851,67.75432,105,68.13106 Q59.071487,68.50779,113.93253,51.253223 Q168.79358,33.998653,105,33.6197 Q41.206425,33.240746,127.58438,39.1457 Q213.96234,45.05065,105,60.958454 Q-3.9623399,76.866264,110.18339,75.825424 Q224.32912,74.784584,105,76.13833 Q-14.329121,77.49207,117.61944,87.869606 Q249.568,98.24714,105,81.97469 Q-39.567997,65.70224,88.75769,67.251396 Q217.08337,68.80055,105,87.0693 Q-7.0833793,105.338036,48.95831,88.16902 Q105,71,105,72.5 Q105,74,150.33357,88.95274 Q195.66716,103.90549,105,101.55274 Q14.332842,99.200005,89.94806,84.639755 Q165.56328,70.079506,105,61.300495 Q44.436718,52.52149,109.3761,56.243797 Q174.31548,59.966106,105,75.9081 Q35.68452,91.85008,95.543495,64.21864 Q155.40247,36.587204,105,62.363968 Q54.59753,88.14073,147.0579,78.72454 Q239.5183,69.30835,105,54.422424 Q-29.51829,39.5365,79.62269,53.8778 Q188.76367,68.2191,105,60.010254 Q21.23633,51.801407,108.891106,53.139565 Q196.54588,54.47772,105,48.551125 Q13.454115,42.62453,84.15134,64.28196 Q154.84856,85.93939,105,79.56444 Q55.151436,73.18948,103.82283,64.73178 Q152.49422,56.27408,105,51.285778 Q57.50578,46.29748,94.739204,57.96027 Q131.97263,69.62306,105,72.16672 Q78.027374,74.710365,114.47794,72.73234 Q150.92851,70.75432,105,71.13106 Q59.071487,71.50779,113.93253,54.253223 Q168.79358,36.998653,105,36.6197 Q41.206425,36.240746,127.58438,42.1457 Q213.96234,48.05065,105,63.958454 Q-3.9623399,79.866264,110.18339,78.825424 Q224.32912,77.784584,105,79.13833 Q-14.329121,80.49207,117.61944,90.869606 Q249.568,101.24714,105,84.97469 Q-39.567997,68.70224,88.75769,70.251396 Q217.08337,71.80055,105,90.0693 Q-7.0833793,108.338036,48.95831,91.16902 Q105,74,105,75.5 Q105,77,150.33357,91.95274 Q195.66716,106.90549,105,104.55274 Q14.332842,102.200005,89.94806,87.639755 Q165.56328,73.079506,105,64.3005 Q44.436718,55.52149,109.3761,59.243797 Q174.31548,62.966106,105,78.9081 Q35.68452,94.85008,95.543495,67.21864 Q155.40247,39.587204,105,65.36397 Q54.59753,91.14073,147.0579,81.72454 Q239.5183,72.30835,105,57.422424 Q-29.51829,42.5365,79.62269,56.8778 Q188.76367,71.2191,105,63.010254 Q21.23633,54.801407,108.891106,56.139565 Q196.54588,57.47772,105,51.551125 Q13.454115,45.62453,84.15134,67.28196 Q154.84856,88.93939,105,82.56444 Q55.151436,76.18948,103.82283,67.73178 Q152.49422,59.27408,105,54.285778 Q57.50578,49.29748,94.739204,60.96027 Q131.97263,72.62306,105,75.16672 Q78.027374,77.710365,114.47794,75.73234 Q150.92851,73.75432,105,74.13106 Q59.071487,74.50779,113.93253,57.253223 Q168.79358,39.998653,105,39.6197 Q41.206425,39.240746,127.58438,45.1457 Q213.96234,51.05065,105,66.95846 Q-3.9623399,82.866264,110.18339,81.825424 Q224.32912,80.784584,105,82.13833 Q-14.329121,83.49207,117.61944,93.869606 Q249.568,104.24714,105,87.97469 Q-39.567997,71.70224,88.75769,73.251396 Q217.08337,74.80055,105,93.0693 Q-7.0833793,111.338036,48.95831,94.16902 Q105,77,105,78.5 Q105,80,150.33357,94.95274 Q195.66716,109.90549,105,107.55274 Q14.332842,105.200005,89.94806,90.639755 Q165.56328,76.079506,105,67.3005 Q44.436718,58.52149,109.3761,62.243797 Q174.31548,65.9661,105,81.9081 Q35.68452,97.85008,95.543495,70.21864 Q155.40247,42.587204,105,68.36397 Q54.59753,94.14073,147.0579,84.72454 Q239.5183,75.30835,105,60.422424 Q-29.51829,45.5365,79.62269,59.8778 Q188.76367,74.2191,105,66.010254 Q21.23633,57.801407,108.891106,59.139565 Q196.54588,60.47772,105,54.551125 Q13.454115,48.62453,84.15134,70.28196 Q154.84856,91.93939,105,85.56444 Q55.151436,79.18948,103.82283,70.73178 Q152.49422,62.27408,105,57.285778 Q57.50578,52.29748,94.739204,63.96027 Q131.97263,75.62306,105,78.16672 Q78.027374,80.710365,114.47794,78.73234 Q150.92851,76.75432,105,77.13106 Q59.071487,77.50779,113.93253,60.253223 Q168.79358,42.998653,105,42.6197 Q41.206425,42.240746,127.58438,48.1457 Q213.96234,54.05065,105,69.95846 Q-3.9623399,85.866264,110.18339,84.825424 Q224.32912,83.784584,105,85.13833 Q-14.329121,86.49207,117.61944,96.869606 Q249.568,107.24714,105,90.97469 Q-39.567997,74.70224,88.75769,76.251396 Q217.08337,77.80055,105,96.0693 Q-7.0833793,114.338036,48.95831,97.16902 Q105,80,105,81.5 Q105,83,150.33357,97.95274 Q195.66716,112.90549,105,110.55274 Q14.332842,108.200005,89.94806,93.639755 Q165.56328,79.079506,105,70.3005 Q44.436718,61.52149,109.3761,65.2438 Q174.31548,68.9661,105,84.9081 Q35.68452,100.85008,95.543495,73.21864 Q155.40247,45.587204,105,71.36397 Q54.59753,97.14073,147.0579,87.72454 Q239.5183,78.30835,105,63.422424 Q-29.51829,48.5365,79.62269,62.8778 Q188.76367,77.2191,105,69.010254 Q21.23633,60.801407,108.891106,62.139565 Q196.54588,63.47772,105,57.551125 Q13.454115,51.62453,84.15134,73.28196 Q154.84856,94.93939,105,88.56444 Q55.151436,82.18948,103.82283,73.73178 Q152.49422,65.27408,105,60.285778 Q57.50578,55.29748,94.739204,66.96027 Q131.97263,78.62306,105,81.16672 Q78.027374,83.710365,114.47794,81.73234 Q150.92851,79.75432,105,80.13106 Q59.071487,80.50779,113.93253,63.253223 Q168.79358,45.998653,105,45.6197 Q41.206425,45.240746,127.58438,51.1457 Q213.96234,57.05065,105,72.95846 Q-3.9623399,88.866264,110.18339,87.825424 Q224.32912,86.784584,105,88.13833 Q-14.329121,89.49207,117.61944,99.869606 Q249.568,110.24714,105,93.97469 Q-39.567997,77.70224,88.75769,79.251396 Q217.08337,80.80055,105,99.0693 Q-7.0833793,117.338036,48.95831,100.16902 Q105,83,105,84.5 Q105,86,150.33357,100.95274 Q195.66716,115.90549,105,113.55274 Q14.332842,111.200005,89.94806,96.639755 Q165.56328,82.079506,105,73.3005 Q44.436718,64.521484,109.3761,68.2438 Q174.31548,71.9661,105,87.9081 Q35.68452,103.85008,95.543495,76.21864 Q155.40247,48.587204,105,74.36397 Q54.59753,100.14073,147.0579,90.72454 Q239.5183,81.30835,105,66.422424 Q-29.51829,51.5365,79.62269,65.8778 Q188.76367,80.2191,105,72.010254 Q21.23633,63.801407,108.891106,65.139565 Q196.54588,66.47772,105,60.551125 Q13.454115,54.62453,84.15134,76.28196 Q154.84856,97.93939,105,91.56444 Q55.151436,85.18948,103.82283,76.73178 Q152.49422,68.27408,105,63.285778 Q57.50578,58.29748,94.739204,69.96027 Q131.97263,81.62306,105,84.16672 Q78.027374,86.710365,114.47794,84.73234 Q150.92851,82.75432,105,83.13106 Q59.071487,83.50779,113.93253,66.25323 Q168.79358,48.998653,105,48.6197 Q41.206425,48.240746,127.58438,54.1457 Q213.96234,60.05065,105,75.95846 Q-3.9623399,91.866264,110.18339,90.825424 Q224.32912,89.784584,105,91.13833 Q-14.329121,92.49207,117.61944,102.869606 Q249.568,113.24714,105,96.97469 Q-39.567997,80.70224,88.75769,82.251396 Q217.08337,83.80055,105,102.0693 Q-7.0833793,120.338036,48.95831,103.16902 Q105,86,105,87.5 Q105,89,150.33357,103.95274 Q195.66716,118.90549,105,116.55274 Q14.332842,114.200005,89.94806,99.639755 Q165.56328,85.079506,105,76.3005 Q44.436718,67.521484,109.3761,71.2438 Q174.31548,74.9661,105,90.9081 Q35.68452,106.85008,95.543495,79.21864 Q155.40247,51.587204,105,77.36397 Q54.59753,103.14073,147.0579,93.72454 Q239.5183,84.30835,105,69.422424 Q-29.51829,54.5365,79.62269,68.8778 Q188.76367,83.2191,105,75.010254 Q21.23633,66.80141,108.891106,68.139565 Q196.54588,69.47772,105,63.551125 Q13.454115,57.62453,84.15134,79.28196 Q154.84856,100.93939,105,94.56444 Q55.151436,88.18948,103.82283,79.73178 Q152.49422,71.27408,105,66.28578 Q57.50578,61.29748,94.739204,72.96027 Q131.97263,84.62306,105,87.16672 Q78.027374,89.710365,114.47794,87.73234 Q150.92851,85.75432,105,86.13106 Q59.071487,86.50779,113.93253,69.25323 Q168.79358,51.998653,105,51.6197 Q41.206425,51.240746,127.58438,57.1457 Q213.96234,63.05065,105,78.95846 Q-3.9623399,94.866264,110.18339,93.825424 Q224.32912,92.784584,105,94.13833 Q-14.329121,95.49207,117.61944,105.869606 Q249.568,116.24714,105,99.97469 Q-39.567997,83.70224,88.75769,85.251396 Q217.08337,86.80055,105,105.0693 Q-7.0833793,123.338036,48.95831,106.16902 Q105,89,105,90.5 Q105,92,150.33357,106.95274 Q195.66716,121.90549,105,119.55274 Q14.332842,117.200005,89.94806,102.639755 Q165.56328,88.079506,105,79.3005 Q44.436718,70.521484,109.3761,74.2438 Q174.31548,77.9661,105,93.9081 Q35.68452,109.85008,95.543495,82.21864 Q155.40247,54.587204,105,80.36397 Q54.59753,106.14073,147.0579,96.72454 Q239.5183,87.30835,105,72.422424 Q-29.51829,57.5365,79.62269,71.8778 Q188.76367,86.2191,105,78.010254 Q21.23633,69.80141,108.891106,71.139565 Q196.54588,72.47772,105,66.551125 Q13.454115,60.62453,84.15134,82.28196 Q154.84856,103.93939,105,97.56444 Q55.151436,91.18948,103.82283,82.73178 Q152.49422,74.27408,105,69.28578 Q57.50578,64.29748,94.739204,75.96027 Q131.97263,87.62306,105,90.16672 Q78.027374,92.710365,114.47794,90.73234 Q150.92851,88.75432,105,89.13106 Q59.071487,89.50779,113.93253,72.25323 Q168.79358,54.998653,105,54.6197 Q41.206425,54.240746,127.58438,60.1457 Q213.96234,66.05065,105,81.95846 Q-3.9623399,97.866264,110.18339,96.825424 Q224.32912,95.784584,105,97.13833 Q-14.329121,98.49207,117.61944,108.869606 Q249.568,119.24714,105,102.97469 Q-39.567997,86.70224,88.75769,88.251396 Q217.08337,89.80055,105,108.0693 Q-7.0833793,126.338036,48.95831,109.16902 Q105,92,105,93.5 Q105,95,150.33357,109.95274 Q195.66716,124.90549,105,122.55274 Q14.332842,120.200005,89.94806,105.639755 Q165.56328,91.079506,105,82.3005 Q44.436718,73.521484,109.3761,77.2438 Q174.31548,80.9661,105,96.9081 Q35.68452,112.85008,95.543495,85.21864 Q155.40247,57.587204,105,83.36397 Q54.59753,109.14073,147.0579,99.72454 Q239.5183,90.30835,105,75.422424 Q-29.51829,60.5365,79.62269,74.8778 Q188.76367,89.2191,105,81.010254 Q21.23633,72.80141,108.891106,74.139565 Q196.54588,75.47772,105,69.551125 Q13.454115,63.62453,84.15134,85.28196 Q154.84856,106.93939,105,100.56444 Q55.151436,94.18948,103.82283,85.73178 Q152.49422,77.27408,105,72.28578 Q57.50578,67.29748,94.739204,78.96027 Q131.97263,90.62306,105,93.16672 Q78.027374,95.710365,114.47794,93.73234 Q150.92851,91.75432,105,92.13106 Q59.071487,92.50779,113.93253,75.25323 Q168.79358,57.998653,105,57.6197 Q41.206425,57.240746,127.58438,63.1457 Q213.96234,69.05065,105,84.95846 Q-3.9623399,100.866264,110.18339,99.825424 Q224.32912,98.784584,105,100.13833 Q-14.329121,101.49207,117.61944,111.869606 Q249.568,122.24714,105,105.97469 Q-39.567997,89.70224,88.75769,91.251396 Q217.08337,92.80055,105,111.0693 Q-7.0833793,129.33804,48.95831,112.16902 Q105,95,105,96.5 Q105,98,150.33357,112.95274 Q195.66716,127.90549,105,125.55274 Q14.332842,123.200005,89.94806,108.639755 Q165.56328,94.079506,105,85.3005 Q44.436718,76.521484,109.3761,80.2438 Q174.31548,83.9661,105,99.9081 Q35.68452,115.85008,95.543495,88.21864 Q155.40247,60.587204,105,86.36397 Q54.59753,112.14073,147.0579,102.72454 Q239.5183,93.30835,105,78.422424 Q-29.51829,63.5365,79.62269,77.8778 Q188.76367,92.2191,105,84.010254 Q21.23633,75.80141,108.891106,77.139565 Q196.54588,78.47772,105,72.551125 Q13.454115,66.62453,84.15134,88.28196 Q154.84856,109.93939,105,103.56444 Q55.151436,97.18948,103.82283,88.73178 Q152.49422,80.27408,105,75.28578 Q57.50578,70.29748,94.739204,81.96027 Q131.97263,93.62306,105,96.16672 Q78.027374,98.710365,114.47794,96.73234 Q150.92851,94.75432,105,95.13106 Q59.071487,95.50779,113.93253,78.25323 Q168.79358,60.998653,105,60.6197 Q41.206425,60.240746,127.58438,66.1457 Q213.96234,72.05065,105,87.95846 Q-3.9623399,103.866264,110.18339,102.825424 Q224.32912,101.784584,105,103.13833 Q-14.329121,104.49207,117.61944,114.869606 Q249.568,125.24714,105,108.97469 Q-39.567997,92.70224,88.75769,94.251396 Q217.08337,95.80055,105,114.0693 Q-7.0833793,132.33804,48.95831,115.16902 Q105,98,105,99.5 Q105,101,150.33357,115.95274 Q195.66716,130.90549,105,128.55275 Q14.332842,126.200005,89.94806,111.639755 Q165.56328,97.079506,105,88.3005 Q44.436718,79.521484,109.3761,83.2438 Q174.31548,86.9661,105,102.9081 Q35.68452,118.85008,95.543495,91.21864 Q155.40247,63.587204,105,89.36397 Q54.59753,115.14073,147.0579,105.72454 Q239.5183,96.30835,105,81.422424 Q-29.51829,66.5365,79.62269,80.8778 Q188.76367,95.2191,105,87.010254 Q21.23633,78.80141,108.891106,80.139565 Q196.54588,81.47772,105,75.551125 Q13.454115,69.62453,84.15134,91.28196 Q154.84856,112.93939,105,106.56444 Q55.151436,100.18948,103.82283,91.73178 Q152.49422,83.27408,105,78.28578 Q57.50578,73.29748,94.739204,84.96027 Q131.97263,96.62306,105,99.16672 Q78.027374,101.710365,114.47794,99.73234 Q150.92851,97.75432,105,98.13106 Q59.071487,98.50779,113.93253,81.25323 Q168.79358,63.998653,105,63.6197 Q41.206425,63.240746,127.58438,69.1457 Q213.96234,75.05065,105,90.95846 Q-3.9623399,106.866264,110.18339,105.825424 Q224.32912,104.784584,105,106.13833 Q-14.329121,107.49207,117.61944,117.869606 Q249.568,128.24715,105,111.97469 Q-39.567997,95.70224,88.75769,97.251396 Q217.08337,98.80055,105,117.0693 Q-7.0833793,135.33804,48.95831,118.16902 Q105,101,105,102.5 Q105,104,150.33357,118.95274 Q195.66716,133.90549,105,131.55275 Q14.332842,129.2,89.94806,114.639755 Q165.56328,100.079506,105,91.3005 Q44.436718,82.521484,109.3761,86.2438 Q174.31548,89.9661,105,105.9081 Q35.68452,121.85008,95.543495,94.21864 Q155.40247,66.587204,105,92.36397 Q54.59753,118.14073,147.0579,108.72454 Q239.5183,99.30835,105,84.422424 Q-29.51829,69.5365,79.62269,83.8778 Q188.76367,98.2191,105,90.010254 Q21.23633,81.80141,108.891106,83.139565 Q196.54588,84.47772,105,78.551125 Q13.454115,72.62453,84.15134,94.28196 Q154.84856,115.93939,105,109.56444 Q55.151436,103.18948,103.82283,94.73178 Q152.49422,86.27408,105,81.28578 Q57.50578,76.29748,94.739204,87.96027 Q131.97263,99.62306,105,102.16672 Q78.027374,104.710365,114.47794,102.73234 Q150.92851,100.75432,105,101.13106 Q59.071487,101.50779,113.93253,84.25323 Q168.79358,66.99866,105,66.6197 Q41.206425,66.240746,127.58438,72.1457 Q213.96234,78.05065,105,93.95846 Q-3.9623399,109.866264,110.18339,108.825424 Q224.32912,107.784584,105,109.13833 Q-14.329121,110.49207,117.61944,120.869606 Q249.568,131.24715,105,114.97469 Q-39.567997,98.70224,88.75769,100.251396 Q217.08337,101.80055,105,120.0693 Q-7.0833793,138.33804,48.95831,121.16902 Q105,104,105,105.5 Q105,107,150.33357,121.95274 Q195.66716,136.90549,105,134.55275 Q14.332842,132.2,89.94806,117.639755 Q165.56328,103.079506,105,94.3005 Q44.436718,85.521484,109.3761,89.2438 Q174.31548,92.9661,105,108.9081 Q35.68452,124.85008,95.543495,97.21864 Q155.40247,69.587204,105,95.36397 Q54.59753,121.14073,147.0579,111.72454 Q239.5183,102.30835,105,87.422424 Q-29.51829,72.5365,79.62269,86.8778 Q188.76367,101.2191,105,93.010254 Q21.23633,84.80141,108.891106,86.139565 Q196.54588,87.47772,105,81.551125 Q13.454115,75.62453,84.15134,97.28196 Q154.84856,118.93939,105,112.56444 Q55.151436,106.18948,103.82283,97.73178 Q152.49422,89.27408,105,84.28578 Q57.50578,79.29748,94.739204,90.96027 Q131.97263,102.62306,105,105.16672 Q78.027374,107.710365,114.47794,105.73234 Q150.92851,103.75432,105,104.13106 Q59.071487,104.50779,113.93253,87.25323 Q168.79358,69.99866,105,69.6197 Q41.206425,69.240746,127.58438,75.1457 Q213.96234,81.05065,105,96.95846 Q-3.9623399,112.866264,110.18339,111.825424 Q224.32912,110.784584,105,112.13833 Q-14.329121,113.49207,117.61944,123.869606 Q249.568,134.24715,105,117.97469 Q-39.567997,101.70224,88.75769,103.251396 Q217.08337,104.80055,105,123.0693 Q-7.0833793,141.33804,48.95831,124.16902 Q105,107,105,108.5 Q105,110,150.33357,124.95274 Q195.66716,139.90549,105,137.55275 Q14.332842,135.2,89.94806,120.639755 Q165.56328,106.079506,105,97.3005 Q44.436718,88.521484,109.3761,92.2438 Q174.31548,95.9661,105,111.9081 Q35.68452,127.85008,95.543495,100.21864 Q155.40247,72.587204,105,98.36397 Q54.59753,124.14073,147.0579,114.72454 Q239.5183,105.30835,105,90.422424 Q-29.51829,75.5365,79.62269,89.8778 Q188.76367,104.2191,105,96.010254 Q21.23633,87.80141,108.891106,89.139565 Q196.54588,90.47772,105,84.551125 Q13.454115,78.62453,84.15134,100.28196 Q154.84856,121.93939,105,115.56444 Q55.151436,109.18948,103.82283,100.73178 Q152.49422,92.27408,105,87.28578 Q57.50578,82.29748,94.739204,93.96027 Q131.97263,105.62306,105,108.16672 Q78.027374,110.710365,114.47794,108.73234 Q150.92851,106.75432,105,107.13106 Q59.071487,107.50779,113.93253,90.25323 Q168.79358,72.99866,105,72.6197 Q41.206425,72.240746,127.58438,78.1457 Q213.96234,84.05065,105,99.95846 Q-3.9623399,115.866264,110.18339,114.825424 Q224.32912,113.784584,105,115.13833 Q-14.329121,116.49207,117.61944,126.869606 Q249.568,137.24715,105,120.97469 Q-39.567997,104.70224,88.75769,106.251396 Q217.08337,107.80055,105,126.0693 Q-7.0833793,144.33804,48.95831,127.16902 Q105,110,105,111.5 Q105,113,150.33357,127.95274 Q195.66716,142.90549,105,140.55275 Q14.332842,138.2,89.94806,123.639755 Q165.56328,109.079506,105,100.3005 Q44.436718,91.521484,109.3761,95.2438 Q174.31548,98.9661,105,114.9081 Q35.68452,130.85008,95.543495,103.21864 Q155.40247,75.587204,105,101.36397 Q54.59753,127.14073,147.0579,117.72454 Q239.5183,108.30835,105,93.422424 Q-29.51829,78.5365,79.62269,92.8778 Q188.76367,107.2191,105,99.010254 Q21.23633,90.80141,108.891106,92.139565 Q196.54588,93.47772,105,87.551125 Q13.454115,81.62453,84.15134,103.28196 Q154.84856,124.93939,105,118.56444 Q55.151436,112.18948,103.82283,103.73178 Q152.49422,95.27408,105,90.28578 Q57.50578,85.29748,94.739204,96.96027 Q131.97263,108.62306,105,111.16672 Q78.027374,113.710365,114.47794,111.73234 Q150.92851,109.75432,105,110.13106 Q59.071487,110.50779,113.93253,93.25323 Q168.79358,75.99866,105,75.6197 Q41.206425,75.240746,127.58438,81.1457 Q213.96234,87.05065,105,102.95846 Q-3.9623399,118.866264,110.18339,117.825424 Q224.32912,116.784584,105,118.13833 Q-14.329121,119.49207,117.61944,129.8696 Q249.568,140.24715,105,123.97469 Q-39.567997,107.70224,88.75769,109.251396 Q217.08337,110.80055,105,129.06929 Q-7.0833793,147.33804,48.95831,130.16902 Q105,113,105,114.5 Q105,116,150.33357,130.95274 Q195.66716,145.90549,105,143.55275 Q14.332842,141.2,89.94806,126.639755 Q165.56328,112.079506,105,103.3005 Q44.436718,94.521484,109.3761,98.2438 Q174.31548,101.9661,105,117.9081 Q35.68452,133.85008,95.543495,106.21864 Q155.40247,78.587204,105,104.36397 Q54.59753,130.14073,147.0579,120.72454 Q239.5183,111.30835,105,96.422424 Q-29.51829,81.5365,79.62269,95.8778 Q188.76367,110.2191,105,102.010254 Q21.23633,93.80141,108.891106,95.139565 Q196.54588,96.47772,105,90.551125 Q13.454115,84.62453,84.15134,106.28196 Q154.84856,127.93939,105,121.56444 Q55.151436,115.18948,103.82283,106.73178 Q152.49422,98.27408,105,93.28578 Q57.50578,88.29748,94.739204,99.96027 Q131.97263,111.62306,105,114.16672 Q78.027374,116.710365,114.47794,114.73234 Q150.92851,112.75432,105,113.13106 Q59.071487,113.50779,113.93253,96.25323 Q168.79358,78.99866,105,78.6197 Q41.206425,78.240746,127.58438,84.1457 Q213.96234,90.05065,105,105.95846 Q-3.9623399,121.866264,110.18339,120.825424 Q224.32912,119.784584,105,121.13833 Q-14.329121,122.49207,117.61944,132.8696 Q249.568,143.24715,105,126.97469 Q-39.567997,110.70224,88.75769,112.251396 Q217.08337,113.80055,105,132.06929 Q-7.0833793,150.33804,48.95831,133.16902 Q105,116,105,117.5 Q105,119,150.33357,133.95274 Q195.66716,148.90549,105,146.55275 Q14.332842,144.2,89.94806,129.63976 Q165.56328,115.079506,105,106.3005 Q44.436718,97.521484,109.3761,101.2438 Q174.31548,104.9661,105,120.9081 Q35.68452,136.85008,95.543495,109.21864 Q155.40247,81.587204,105,107.36397 Q54.59753,133.14073,147.0579,123.72454 Q239.5183,114.30835,105,99.422424 Q-29.51829,84.5365,79.62269,98.8778 Q188.76367,113.2191,105,105.010254 Q21.23633,96.80141,108.891106,98.139565 Q196.54588,99.47772,105,93.551125 Q13.454115,87.62453,84.15134,109.28196 Q154.84856,130.93939,105,124.56444 Q55.151436,118.18948,103.82283,109.73178 Q152.49422,101.27408,105,96.28578 Q57.50578,91.29748,94.739204,102.96027 Q131.97263,114.62306,105,117.16672 Q78.027374,119.710365,114.47794,117.73234 Q150.92851,115.75432,105,116.13106 Q59.071487,116.50779,113.93253,99.25323 Q168.79358,81.99866,105,81.6197 Q41.206425,81.240746,127.58438,87.1457 Q213.96234,93.05065,105,108.95846 Q-3.9623399,124.866264,110.18339,123.825424 Q224.32912,122.784584,105,124.13833 Q-14.329121,125.49207,117.61944,135.8696 Q249.568,146.24715,105,129.97469 Q-39.567997,113.70224,88.75769,115.251396 Q217.08337,116.80055,105,135.06929 Q-7.0833793,153.33804,48.95831,136.16902 Q105,119,105,120.5 Q105,122,150.33357,136.95274 Q195.66716,151.90549,105,149.55275 Q14.332842,147.2,89.94806,132.63976 Q165.56328,118.079506,105,109.3005 Q44.436718,100.521484,109.3761,104.2438 Q174.31548,107.9661,105,123.9081 Q35.68452,139.85008,95.543495,112.21864 Q155.40247,84.587204,105,110.36397 Q54.59753,136.14073,147.0579,126.72454 Q239.5183,117.30835,105,102.422424 Q-29.51829,87.5365,79.62269,101.8778 Q188.76367,116.2191,105,108.010254 Q21.23633,99.80141,108.891106,101.139565 Q196.54588,102.47772,105,96.551125 Q13.454115,90.62453,84.15134,112.28196 Q154.84856,133.93939,105,127.56444 Q55.151436,121.18948,103.82283,112.73178 Q152.49422,104.27408,105,99.28578 Q57.50578,94.29748,94.739204,105.96027 Q131.97263,117.62306,105,120.16672 Q78.027374,122.710365,114.47794,120.73234 Q150.92851,118.75432,105,119.13106 Q59.071487,119.50779,113.93253,102.25323 Q168.79358,84.99866,105,84.6197 Q41.206425,84.240746,127.58438,90.1457 Q213.96234,96.05065,105,111.95846 Q-3.9623399,127.866264,110.18339,126.825424 Q224.32912,125.784584,105,127.13833 Q-14.329121,128.49207,117.61944,138.8696 Q249.568,149.24715,105,132.97469 Q-39.567997,116.70224,88.75769,118.251396 Q217.08337,119.80055,105,138.06929 Q-7.0833793,156.33804,48.95831,139.16902 Q105,122,105,123.5 Q105,125,150.33357,139.95274 Q195.66716,154.90549,105,152.55275 Q14.332842,150.2,89.94806,135.63976 Q165.56328,121.079506,105,112.3005 Q44.436718,103.521484,109.3761,107.2438 Q174.31548,110.9661,105,126.9081 Q35.68452,142.85008,95.543495,115.21864 Q155.40247,87.587204,105,113.36397 Q54.59753,139.14073,147.0579,129.72455 Q239.5183,120.30835,105,105.422424 Q-29.51829,90.5365,79.62269,104.8778 Q188.76367,119.2191,105,111.010254 Q21.23633,102.80141,108.891106,104.139565 Q196.54588,105.47772,105,99.551125 Q13.454115,93.62453,84.15134,115.28196 Q154.84856,136.93939,105,130.56444 Q55.151436,124.18948,103.82283,115.73178 Q152.49422,107.27408,105,102.28578 Q57.50578,97.29748,94.739204,108.96027 Q131.97263,120.62306,105,123.16672 Q78.027374,125.710365,114.47794,123.73234 Q150.92851,121.75432,105,122.13106 Q59.071487,122.50779,113.93253,105.25323 Q168.79358,87.99866,105,87.6197 Q41.206425,87.240746,127.58438,93.1457 Q213.96234,99.05065,105,114.95846 Q-3.9623399,130.86626,110.18339,129.82542 Q224.32912,128.78459,105,130.13832 Q-14.329121,131.49207,117.61944,141.8696 Q249.568,152.24715,105,135.97469 Q-39.567997,119.70224,88.75769,121.251396 Q217.08337,122.80055,105,141.06929 Q-7.0833793,159.33804,48.95831,142.16902 Q105,125,105,126.5 Q105,128,150.33357,142.95274 Q195.66716,157.90549,105,155.55275 Q14.332842,153.2,89.94806,138.63976 Q165.56328,124.079506,105,115.3005 Q44.436718,106.521484,109.3761,110.2438 Q174.31548,113.9661,105,129.9081 Q35.68452,145.85008,95.543495,118.21864 Q155.40247,90.587204,105,116.36397 Q54.59753,142.14073,147.0579,132.72455 Q239.5183,123.30835,105,108.422424 Q-29.51829,93.5365,79.62269,107.8778 Q188.76367,122.2191,105,114.010254 Q21.23633,105.80141,108.891106,107.139565 Q196.54588,108.47772,105,102.551125 Q13.454115,96.62453,84.15134,118.28196 Q154.84856,139.93939,105,133.56444 Q55.151436,127.18948,103.82283,118.73178 Q152.49422,110.27408,105,105.28578 Q57.50578,100.29748,94.739204,111.96027 Q131.97263,123.62306,105,126.16672 Q78.027374,128.71037,114.47794,126.73234 Q150.92851,124.75432,105,125.13106 Q59.071487,125.50779,113.93253,108.25323 Q168.79358,90.99866,105,90.6197 Q41.206425,90.240746,127.58438,96.1457 Q213.96234,102.05065,105,117.95846 Q-3.9623399,133.86626,110.18339,132.82542 Q224.32912,131.78459,105,133.13832 Q-14.329121,134.49207,117.61944,144.8696 Q249.568,155.24715,105,138.97469 Q-39.567997,122.70224,88.75769,124.251396 Q217.08337,125.80055,105,144.06929 Q-7.0833793,162.33804,48.95831,145.16902 Q105,128,105,129.5 Q105,131,150.33357,145.95274 Q195.66716,160.90549,105,158.55275 Q14.332842,156.2,89.94806,141.63976 Q165.56328,127.079506,105,118.3005 Q44.436718,109.521484,109.3761,113.2438 Q174.31548,116.9661,105,132.9081 Q35.68452,148.85008,95.543495,121.21864 Q155.40247,93.587204,105,119.36397 Q54.59753,145.14073,147.0579,135.72455 Q239.5183,126.30835,105,111.422424 Q-29.51829,96.5365,79.62269,110.8778 Q188.76367,125.2191,105,117.010254 Q21.23633,108.80141,108.891106,110.139565 Q196.54588,111.47772,105,105.551125 Q13.454115,99.62453,84.15134,121.28196 Q154.84856,142.93939,105,136.56444 Q55.151436,130.18948,103.82283,121.73178 Q152.49422,113.27408,105,108.28578 Q57.50578,103.29748,94.739204,114.96027 Q131.97263,126.62306,105,129.16672 Q78.027374,131.71037,114.47794,129.73235 Q150.92851,127.75432,105,128.13106 Q59.071487,128.5078,113.93253,111.25323 Q168.79358,93.99866,105,93.6197 Q41.206425,93.240746,127.58438,99.1457 Q213.96234,105.05065,105,120.95846 Q-3.9623399,136.86626,110.18339,135.82542 Q224.32912,134.78459,105,136.13832 Q-14.329121,137.49207,117.61944,147.8696 Q249.568,158.24715,105,141.97469 Q-39.567997,125.70224,88.75769,127.251396 Q217.08337,128.80055,105,147.06929 Q-7.0833793,165.33804,48.95831,148.16902 Q105,131,105,132.5 Q105,134,150.33357,148.95274 Q195.66716,163.90549,105,161.55275 Q14.332842,159.2,89.94806,144.63976 Q165.56328,130.0795,105,121.3005 Q44.436718,112.521484,109.3761,116.2438 Q174.31548,119.9661,105,135.9081 Q35.68452,151.85008,95.543495,124.21864 Q155.40247,96.587204,105,122.36397 Q54.59753,148.14073,147.0579,138.72455 Q239.5183,129.30835,105,114.422424 Q-29.51829,99.5365,79.62269,113.8778 Q188.76367,128.2191,105,120.010254 Q21.23633,111.80141,108.891106,113.139565 Q196.54588,114.47772,105,108.551125 Q13.454115,102.62453,84.15134,124.28196 Q154.84856,145.93939,105,139.56444 Q55.151436,133.18948,103.82283,124.73178 Q152.49422,116.27408,105,111.28578 Q57.50578,106.29748,94.739204,117.96027 Q131.97263,129.62306,105,132.16672 Q78.027374,134.71037,114.47794,132.73235 Q150.92851,130.75432,105,131.13106 Q59.071487,131.5078,113.93253,114.25323 Q168.79358,96.99866,105,96.6197 Q41.206425,96.240746,127.58438,102.1457 Q213.96234,108.05065,105,123.95846 Q-3.9623399,139.86626,110.18339,138.82542 Q224.32912,137.78459,105,139.13832 Q-14.329121,140.49207,117.61944,150.8696 Q249.568,161.24715,105,144.97469 Q-39.567997,128.70224,88.75769,130.2514 Q217.08337,131.80055,105,150.06929 Q-7.0833793,168.33804,48.95831,151.16902 Q105,134,105,135.5 Q105,137,150.33357,151.95274 Q195.66716,166.90549,105,164.55275 Q14.332842,162.2,89.94806,147.63976 Q165.56328,133.0795,105,124.3005 Q44.436718,115.521484,109.3761,119.2438 Q174.31548,122.9661,105,138.9081 Q35.68452,154.85008,95.543495,127.21864 Q155.40247,99.587204,105,125.36397 Q54.59753,151.14073,147.0579,141.72455 Q239.5183,132.30835,105,117.422424 Q-29.51829,102.5365,79.62269,116.8778 Q188.76367,131.2191,105,123.010254 Q21.23633,114.80141,108.891106,116.139565 Q196.54588,117.47772,105,111.551125 Q13.454115,105.62453,84.15134,127.28196 Q154.84856,148.93939,105,142.56444 Q55.151436,136.18948,103.82283,127.73178 Q152.49422,119.27408,105,114.28578 Q57.50578,109.29748,94.739204,120.96027 Q131.97263,132.62306,105,135.16672 Q78.027374,137.71037,114.47794,135.73235 Q150.92851,133.75432,105,134.13106 Q59.071487,134.5078,113.93253,117.25323 Q168.79358,99.99866,105,99.6197 Q41.206425,99.240746,127.58438,105.1457 Q213.96234,111.05065,105,126.95846 Q-3.9623399,142.86626,110.18339,141.82542 Q224.32912,140.78459,105,142.13832 Q-14.329121,143.49207,117.61944,153.8696 Q249.568,164.24715,105,147.97469 Q-39.567997,131.70224,88.75769,133.2514 Q217.08337,134.80055,105,153.06929 Q-7.0833793,171.33804,48.95831,154.16902 Q105,137,105,138.5 Q105,140,150.33357,154.95274 Q195.66716,169.90549,105,167.55275 Q14.332842,165.2,89.94806,150.63976 Q165.56328,136.0795,105,127.3005 Q44.436718,118.521484,109.3761,122.2438 Q174.31548,125.9661,105,141.9081 Q35.68452,157.85008,95.543495,130.21864 Q155.40247,102.587204,105,128.36397 Q54.59753,154.14073,147.0579,144.72455 Q239.5183,135.30835,105,120.422424 Q-29.51829,105.5365,79.62269,119.8778 Q188.76367,134.2191,105,126.010254 Q21.23633,117.80141,108.891106,119.139565 Q196.54588,120.47772,105,114.551125 Q13.454115,108.62453,84.15134,130.28197 Q154.84856,151.93939,105,145.56444 Q55.151436,139.18948,103.82283,130.73178 Q152.49422,122.27408,105,117.28578 Q57.50578,112.29748,94.739204,123.96027 Q131.97263,135.62306,105,138.16672 Q78.027374,140.71037,114.47794,138.73235 Q150.92851,136.75432,105,137.13106 Q59.071487,137.5078,113.93253,120.25323 Q168.79358,102.99866,105,102.6197 Q41.206425,102.240746,127.58438,108.1457 Q213.96234,114.05065,105,129.95845 Q-3.9623399,145.86626,110.18339,144.82542 Q224.32912,143.78459,105,145.13832 Q-14.329121,146.49207,117.61944,156.8696 Q249.568,167.24715,105,150.97469 Q-39.567997,134.70224,88.75769,136.2514 Q217.08337,137.80055,105,156.06929 Q-7.0833793,174.33804,48.95831,157.16902 Q105,140,105,141.5 Q105,143,150.33357,157.95274 Q195.66716,172.90549,105,170.55275 Q14.332842,168.2,89.94806,153.63976 Q165.56328,139.0795,105,130.30049 Q44.436718,121.521484,109.3761,125.2438 Q174.31548,128.96611,105,144.9081 Q35.68452,160.85008,95.543495,133.21864 Q155.40247,105.587204,105,131.36397 Q54.59753,157.14073,147.0579,147.72455 Q239.5183,138.30835,105,123.422424 Q-29.51829,108.5365,79.62269,122.8778 Q188.76367,137.2191,105,129.01025 Q21.23633,120.80141,108.891106,122.139565 Q196.54588,123.47772,105,117.551125 Q13.454115,111.62453,84.15134,133.28197 Q154.84856,154.93939,105,148.56444 Q55.151436,142.18948,103.82283,133.73178 Q152.49422,125.27408,105,120.28578 Q57.50578,115.29748,94.739204,126.96027 Q131.97263,138.62306,105,141.16672 Q78.027374,143.71037,114.47794,141.73235 Q150.92851,139.75432,105,140.13106 Q59.071487,140.5078,113.93253,123.25323 Q168.79358,105.99866,105,105.6197 Q41.206425,105.240746,127.58438,111.1457 Q213.96234,117.05065,105,132.95845 Q-3.9623399,148.86626,110.18339,147.82542 Q224.32912,146.78459,105,148.13832 Q-14.329121,149.49207,117.61944,159.8696 Q249.568,170.24715,105,153.97469 Q-39.567997,137.70224,88.75769,139.2514 Q217.08337,140.80055,105,159.06929 Q-7.0833793,177.33804,48.95831,160.16902 Q105,143,105,144.5 Q105,146,150.33357,160.95274 Q195.66716,175.90549,105,173.55275 Q14.332842,171.2,89.94806,156.63976 Q165.56328,142.0795,105,133.30049 Q44.436718,124.521484,109.3761,128.24379 Q174.31548,131.96611,105,147.9081 Q35.68452,163.85008,95.543495,136.21864 Q155.40247,108.587204,105,134.36397 Q54.59753,160.14073,147.0579,150.72455 Q239.5183,141.30835,105,126.422424 Q-29.51829,111.5365,79.62269,125.8778 Q188.76367,140.2191,105,132.01025 Q21.23633,123.80141,108.891106,125.139565 Q196.54588,126.47772,105,120.551125 Q13.454115,114.62453,84.15134,136.28197 Q154.84856,157.93939,105,151.56444 Q55.151436,145.18948,103.82283,136.73178 Q152.49422,128.27408,105,123.28578 Q57.50578,118.29748,94.739204,129.96027 Q131.97263,141.62306,105,144.16672 Q78.027374,146.71037,114.47794,144.73235 Q150.92851,142.75432,105,143.13106 Q59.071487,143.5078,113.93253,126.25323 Q168.79358,108.99866,105,108.6197 Q41.206425,108.240746,127.58438,114.1457 Q213.96234,120.05065,105,135.95845 Q-3.9623399,151.86626,110.18339,150.82542 Q224.32912,149.78459,105,151.13832 Q-14.329121,152.49207,117.61944,162.8696 Q249.568,173.24715,105,156.97469 Q-39.567997,140.70224,88.75769,142.2514 Q217.08337,143.80055,105,162.06929 Q-7.0833793,180.33804,48.95831,163.16902 Q105,146,105,147.5 Q105,149,150.33357,163.95274 Q195.66716,178.90549,105,176.55275 Q14.332842,174.2,89.94806,159.63976 Q165.56328,145.0795,105,136.30049 Q44.436718,127.521484,109.3761,131.24379 Q174.31548,134.96611,105,150.9081 Q35.68452,166.85008,95.543495,139.21864 Q155.40247,111.587204,105,137.36397 Q54.59753,163.14073,147.0579,153.72455 Q239.5183,144.30835,105,129.42242 Q-29.51829,114.5365,79.62269,128.87779 Q188.76367,143.2191,105,135.01025 Q21.23633,126.80141,108.891106,128.13956 Q196.54588,129.47772,105,123.551125 Q13.454115,117.62453,84.15134,139.28197 Q154.84856,160.93939,105,154.56444 Q55.151436,148.18948,103.82283,139.73178 Q152.49422,131.27408,105,126.28578 Q57.50578,121.29748,94.739204,132.96027 Q131.97263,144.62306,105,147.16672 Q78.027374,149.71037,114.47794,147.73235 Q150.92851,145.75432,105,146.13106 Q59.071487,146.5078,113.93253,129.25322 Q168.79358,111.99866,105,111.6197 Q41.206425,111.240746,127.58438,117.1457 Q213.96234,123.05065,105,138.95845 Q-3.9623399,154.86626,110.18339,153.82542 Q224.32912,152.78459,105,154.13832 Q-14.329121,155.49207,117.61944,165.8696 Q249.568,176.24715,105,159.97469 Q-39.567997,143.70224,88.75769,145.2514 Q217.08337,146.80055,105,165.06929 Q-7.0833793,183.33804,48.95831,166.16902 Q105,149,105,150.5 Q105,152,150.33357,166.95274 Q195.66716,181.90549,105,179.55275 Q14.332842,177.2,89.94806,162.63976 Q165.56328,148.0795,105,139.30049 Q44.436718,130.52148,109.3761,134.24379 Q174.31548,137.96611,105,153.9081 Q35.68452,169.85008,95.543495,142.21864 Q155.40247,114.587204,105,140.36397 Q54.59753,166.14073,147.0579,156.72455 Q239.5183,147.30835,105,132.42242 Q-29.51829,117.5365,79.62269,131.87779 Q188.76367,146.2191,105,138.01025 Q21.23633,129.8014,108.891106,131.13956 Q196.54588,132.47772,105,126.551125 Q13.454115,120.62453,84.15134,142.28197 Q154.84856,163.93939,105,157.56444 Q55.151436,151.18948,103.82283,142.73178 Q152.49422,134.27408,105,129.28578 Q57.50578,124.29748,94.739204,135.96027 Q131.97263,147.62306,105,150.16672 Q78.027374,152.71037,114.47794,150.73235 Q150.92851,148.75432,105,149.13106 Q59.071487,149.5078,113.93253,132.25322 Q168.79358,114.99866,105,114.6197 Q41.206425,114.240746,127.58438,120.1457 Q213.96234,126.05065,105,141.95845 Q-3.9623399,157.86626,110.18339,156.82542 Q224.32912,155.78459,105,157.13832 Q-14.329121,158.49207,117.61944,168.8696 Q249.568,179.24715,105,162.97469 Q-39.567997,146.70224,88.75769,148.2514 Q217.08337,149.80055,105,168.06929 Q-7.0833793,186.33804,48.95831,169.16902 Q105,152,105,153.5 Q105,155,150.33357,169.95274 Q195.66716,184.90549,105,182.55275 Q14.332842,180.2,89.94806,165.63976 Q165.56328,151.0795,105,142.30049 Q44.436718,133.52148,109.3761,137.24379 Q174.31548,140.96611,105,156.9081 Q35.68452,172.85008,95.543495,145.21864 Q155.40247,117.587204,105,143.36397 Q54.59753,169.14073,147.0579,159.72455 Q239.5183,150.30835,105,135.42242 Q-29.51829,120.5365,79.62269,134.87779 Q188.76367,149.2191,105,141.01025 Q21.23633,132.8014,108.891106,134.13956 Q196.54588,135.47772,105,129.55113 Q13.454115,123.62453,84.15134,145.28197 Q154.84856,166.93939,105,160.56444 Q55.151436,154.18948,103.82283,145.73178 Q152.49422,137.27408,105,132.28578 Q57.50578,127.29748,94.739204,138.96027 Q131.97263,150.62306,105,153.16672 Q78.027374,155.71037,114.47794,153.73235 Q150.92851,151.75432,105,152.13106 Q59.071487,152.5078,113.93253,135.25322 Q168.79358,117.99866,105,117.6197 Q41.206425,117.240746,127.58438,123.1457 Q213.96234,129.05064,105,144.95845 Q-3.9623399,160.86626,110.18339,159.82542 Q224.32912,158.78459,105,160.13832 Q-14.329121,161.49207,117.61944,171.8696 Q249.568,182.24715,105,165.97469 Q-39.567997,149.70224,88.75769,151.2514 Q217.08337,152.80055,105,171.06929 Q-7.0833793,189.33804,48.95831,172.16902 Q105,155,105,156.5 Q105,158,150.33357,172.95274 Q195.66716,187.90549,105,185.55275 Q14.332842,183.2,89.94806,168.63976 Q165.56328,154.0795,105,145.30049 Q44.436718,136.52148,109.3761,140.24379 Q174.31548,143.96611,105,159.9081 Q35.68452,175.85008,95.543495,148.21864 Q155.40247,120.587204,105,146.36397 Q54.59753,172.14073,147.0579,162.72455 Q239.5183,153.30835,105,138.42242 Q-29.51829,123.5365,79.62269,137.87779 Q188.76367,152.2191,105,144.01025 Q21.23633,135.8014,108.891106,137.13956 Q196.54588,138.47772,105,132.55113 Q13.454115,126.62453,84.15134,148.28197 Q154.84856,169.93939,105,163.56444 Q55.151436,157.18948,103.82283,148.73178 Q152.49422,140.27408,105,135.28578 Q57.50578,130.29749,94.739204,141.96027 Q131.97263,153.62306,105,156.16672 Q78.027374,158.71037,114.47794,156.73235 Q150.92851,154.75432,105,155.13106 Q59.071487,155.5078,113.93253,138.25322 Q168.79358,120.99866,105,120.6197 Q41.206425,120.240746,127.58438,126.1457 Q213.96234,132.05064,105,147.95845 Q-3.9623399,163.86626,110.18339,162.82542 Q224.32912,161.78459,105,163.13832 Q-14.329121,164.49207,117.61944,174.8696 Q249.568,185.24715,105,168.97469 Q-39.567997,152.70224,88.75769,154.2514 Q217.08337,155.80055,105,174.06929 Q-7.0833793,192.33804,48.95831,175.16902 Q105,158,105,159.5 Q105,161,150.33357,175.95274 Q195.66716,190.90549,105,188.55275 Q14.332842,186.2,89.94806,171.63976 Q165.56328,157.0795,105,148.30049 Q44.436718,139.52148,109.3761,143.24379 Q174.31548,146.96611,105,162.9081 Q35.68452,178.85008,95.543495,151.21864 Q155.40247,123.587204,105,149.36397 Q54.59753,175.14073,147.0579,165.72455 Q239.5183,156.30835,105,141.42242 Q-29.51829,126.5365,79.62269,140.87779 Q188.76367,155.2191,105,147.01025 Q21.23633,138.8014,108.891106,140.13956 Q196.54588,141.47772,105,135.55113 Q13.454115,129.62453,84.15134,151.28197 Q154.84856,172.93939,105,166.56444 Q55.151436,160.18948,103.82283,151.73178 Q152.49422,143.27408,105,138.28578 Q57.50578,133.29749,94.739204,144.96027 Q131.97263,156.62306,105,159.16672 Q78.027374,161.71037,114.47794,159.73235 Q150.92851,157.75432,105,158.13106 Q59.071487,158.5078,113.93253,141.25322 Q168.79358,123.99866,105,123.6197 Q41.206425,123.240746,127.58438,129.14569 Q213.96234,135.05064,105,150.95845 Q-3.9623399,166.86626,110.18339,165.82542 Q224.32912,164.78459,105,166.13832 Q-14.329121,167.49207,117.61944,177.8696 Q249.568,188.24715,105,171.97469 Q-39.567997,155.70224,88.75769,157.2514 Q217.08337,158.80055,105,177.06929 Q-7.0833793,195.33804,48.95831,178.16902 Q105,161,105,162.5 Q105,164,150.33357,178.95274 Q195.66716,193.90549,105,191.55275 Q14.332842,189.2,89.94806,174.63976 Q165.56328,160.0795,105,151.30049 Q44.436718,142.52148,109.3761,146.24379 Q174.31548,149.96611,105,165.9081 Q35.68452,181.85008,95.543495,154.21864 Q155.40247,126.587204,105,152.36397 Q54.59753,178.14073,147.0579,168.72455 Q239.5183,159.30835,105,144.42242 Q-29.51829,129.5365,79.62269,143.87779 Q188.76367,158.2191,105,150.01025 Q21.23633,141.8014,108.891106,143.13956 Q196.54588,144.47772,105,138.55113 Q13.454115,132.62453,84.15134,154.28197 Q154.84856,175.93939,105,169.56444 Q55.151436,163.18948,103.82283,154.73178 Q152.49422,146.27408,105,141.28578 Q57.50578,136.29749,94.739204,147.96027 Q131.97263,159.62306,105,162.16672 Q78.027374,164.71037,114.47794,162.73235 Q150.92851,160.75432,105,161.13106 Q59.071487,161.5078,113.93253,144.25322 Q168.79358,126.99866,105,126.6197 Q41.206425,126.240746,127.58438,132.14569 Q213.96234,138.05064,105,153.95845 Q-3.9623399,169.86626,110.18339,168.82542 Q224.32912,167.78459,105,169.13832 Q-14.329121,170.49207,117.61944,180.8696 Q249.568,191.24715,105,174.97469 Q-39.567997,158.70224,88.75769,160.2514 Q217.08337,161.80055,105,180.06929 Q-7.0833793,198.33804,48.95831,181.16902 Q105,164,105,165.5 Q105,167,150.33357,181.95274 Q195.66716,196.90549,105,194.55275 Q14.332842,192.2,89.94806,177.63976 Q165.56328,163.0795,105,154.30049 Q44.436718,145.52148,109.3761,149.24379 Q174.31548,152.96611,105,168.9081 Q35.68452,184.85008,95.543495,157.21864 Q155.40247,129.5872,105,155.36397 Q54.59753,181.14073,147.0579,171.72455 Q239.5183,162.30835,105,147.42242 Q-29.51829,132.5365,79.62269,146.87779 Q188.76367,161.2191,105,153.01025 Q21.23633,144.8014,108.891106,146.13956 Q196.54588,147.47772,105,141.55113 Q13.454115,135.62453,84.15134,157.28197 Q154.84856,178.93939,105,172.56444 Q55.151436,166.18948,103.82283,157.73178 Q152.49422,149.27408,105,144.28578 Q57.50578,139.29749,94.739204,150.96027 Q131.97263,162.62306,105,165.16672 Q78.027374,167.71037,114.47794,165.73235 Q150.92851,163.75432,105,164.13106 Q59.071487,164.5078,113.93253,147.25322 Q168.79358,129.99866,105,129.6197 Q41.206425,129.24074,127.58438,135.14569 Q213.96234,141.05064,105,156.95845 Q-3.9623399,172.86626,110.18339,171.82542 Q224.32912,170.78459,105,172.13832 Q-14.329121,173.49207,117.61944,183.8696 Q249.568,194.24715,105,177.97469 Q-39.567997,161.70224,88.75769,163.2514 Q217.08337,164.80055,105,183.06929 Q-7.0833793,201.33804,48.95831,184.16902 Q105,167,105,168.5 Q105,170,150.33357,184.95274 Q195.66716,199.90549,105,197.55275 Q14.332842,195.2,89.94806,180.63976 Q165.56328,166.0795,105,157.30049 Q44.436718,148.52148,109.3761,152.24379 Q174.31548,155.96611,105,171.9081 Q35.68452,187.85008,95.543495,160.21864 Q155.40247,132.5872,105,158.36397 Q54.59753,184.14073,147.0579,174.72455 Q239.5183,165.30835,105,150.42242 Q-29.51829,135.5365,79.62269,149.87779 Q188.76367,164.2191,105,156.01025 Q21.23633,147.8014,108.891106,149.13956 Q196.54588,150.47772,105,144.55113 Q13.454115,138.62453,84.15134,160.28197 Q154.84856,181.93939,105,175.56444 Q55.151436,169.18948,103.82283,160.73178 Q152.49422,152.27408,105,147.28578 Q57.50578,142.29749,94.739204,153.96027 Q131.97263,165.62306,105,168.16672 Q78.027374,170.71037,114.47794,168.73235 Q150.92851,166.75432,105,167.13106 Q59.071487,167.5078,113.93253,150.25322 Q168.79358,132.99866,105,132.6197 Q41.206425,132.24074,127.58438,138.14569 Q213.96234,144.05064,105,159.95845 Q-3.9623399,175.86626,110.18339,174.82542 Q224.32912,173.78459,105,175.13832 Q-14.329121,176.49207,117.61944,186.8696 Q249.568,197.24715,105,180.97469 Q-39.567997,164.70224,88.75769,166.2514 Q217.08337,167.80055,105,186.06929 Q-7.0833793,204.33804,48.95831,187.16902 Q105,170,105,171.5 Q105,173,150.33357,187.95274 Q195.66716,202.90549,105,200.55275 Q14.332842,198.2,89.94806,183.63976 Q165.56328,169.0795,105,160.30049 Q44.436718,151.52148,109.3761,155.24379 Q174.31548,158.96611,105,174.9081 Q35.68452,190.85008,95.543495,163.21864 Q155.40247,135.5872,105,161.36397 Q54.59753,187.14073,147.0579,177.72455 Q239.5183,168.30835,105,153.42242 Q-29.51829,138.5365,79.62269,152.87779 Q188.76367,167.2191,105,159.01025 Q21.23633,150.8014,108.891106,152.13956 Q196.54588,153.47772,105,147.55113 Q13.454115,141.62453,84.15134,163.28197 Q154.84856,184.93939,105,178.56444 Q55.151436,172.18948,103.82283,163.73178 Q152.49422,155.27408,105,150.28578 Q57.50578,145.29749,94.739204,156.96027 Q131.97263,168.62306,105,171.16672 Q78.027374,173.71037,114.47794,171.73235 Q150.92851,169.75432,105,170.13106 Q59.071487,170.5078,113.93253,153.25322 Q168.79358,135.99866,105,135.6197 Q41.206425,135.24074,127.58438,141.14569 Q213.96234,147.05064,105,162.95845 Q-3.9623399,178.86626,110.18339,177.82542 Q224.32912,176.78459,105,178.13832 Q-14.329121,179.49207,117.61944,189.8696 Q249.568,200.24715,105,183.97469 Q-39.567997,167.70224,88.75769,169.2514 Q217.08337,170.80055,105,189.06929 Q-7.0833793,207.33804,48.95831,190.16902 Q105,173,105,174.5 Q105,176,150.33357,190.95274 Q195.66716,205.90549,105,203.55275 Q14.332842,201.2,89.94806,186.63976 Q165.56328,172.0795,105,163.30049 Q44.436718,154.52148,109.3761,158.24379 Q174.31548,161.96611,105,177.9081 Q35.68452,193.85008,95.543495,166.21864 Q155.40247,138.5872,105,164.36397 Q54.59753,190.14073,147.0579,180.72455 Q239.5183,171.30835,105,156.42242 Q-29.51829,141.5365,79.62269,155.87779 Q188.76367,170.2191,105,162.01025 Q21.23633,153.8014,108.891106,155.13956 Q196.54588,156.47772,105,150.55113 Q13.454115,144.62453,84.15134,166.28197 Q154.84856,187.93939,105,181.56444 Q55.151436,175.18948,103.82283,166.73178 Q152.49422,158.27408,105,153.28578 Q57.50578,148.29749,94.739204,159.96027 Q131.97263,171.62306,105,174.16672 Q78.027374,176.71037,114.47794,174.73235 Q150.92851,172.75432,105,173.13106 Q59.071487,173.5078,113.93253,156.25322 Q168.79358,138.99866,105,138.6197 Q41.206425,138.24074,127.58438,144.14569 Q213.96234,150.05064,105,165.95845 Q-3.9623399,181.86626,110.18339,180.82542 Q224.32912,179.78459,105,181.13832 Q-14.329121,182.49207,117.61944,192.8696 Q249.568,203.24715,105,186.97469 Q-39.567997,170.70224,88.75769,172.2514 Q217.08337,173.80055,105,192.06929 Q-7.0833793,210.33804,48.95831,193.16902 Q105,176,105,177.5 Q105,179,150.33357,193.95274 Q195.66716,208.90549,105,206.55275 Q14.332842,204.2,89.94806,189.63976 Q165.56328,175.0795,105,166.30049 Q44.436718,157.52148,109.3761,161.24379 Q174.31548,164.96611,105,180.9081 Q35.68452,196.85008,95.543495,169.21864 Q155.40247,141.5872,105,167.36397 Q54.59753,193.14073,147.0579,183.72455 Q239.5183,174.30835,105,159.42242 Q-29.51829,144.5365,79.62269,158.87779 Q188.76367,173.2191,105,165.01025 Q21.23633,156.8014,108.891106,158.13956 Q196.54588,159.47772,105,153.55113 Q13.454115,147.62453,84.15134,169.28197 Q154.84856,190.93939,105,184.56444 Q55.151436,178.18948,103.82283,169.73178 Q152.49422,161.27408,105,156.28578 Q57.50578,151.29749,94.739204,162.96027 Q131.97263,174.62306,105,177.16672 Q78.027374,179.71037,114.47794,177.73235 Q150.92851,175.75432,105,176.13106 Q59.071487,176.5078,113.93253,159.25322 Q168.79358,141.99866,105,141.6197 Q41.206425,141.24074,127.58438,147.14569 Q213.96234,153.05064,105,168.95845 Q-3.9623399,184.86626,110.18339,183.82542 Q224.32912,182.78459,105,184.13832 Q-14.329121,185.49207,117.61944,195.8696 Q249.568,206.24715,105,189.97469 Q-39.567997,173.70224,88.75769,175.2514 Q217.08337,176.80055,105,195.06929 Q-7.0833793,213.33804,48.95831,196.16902 Q105,179,105,180.5 Q105,182,150.33357,196.95274 Q195.66716,211.90549,105,209.55275 Q14.332842,207.2,89.94806,192.63976 Q165.56328,178.0795,105,169.30049 Q44.436718,160.52148,109.3761,164.24379 Q174.31548,167.96611,105,183.9081 Q35.68452,199.85008,95.543495,172.21864 Q155.40247,144.5872,105,170.36397 Q54.59753,196.14073,147.0579,186.72455 Q239.5183,177.30835,105,162.42242 Q-29.51829,147.5365,79.62269,161.87779 Q188.76367,176.2191,105,168.01025 Q21.23633,159.8014,108.891106,161.13956 Q196.54588,162.47772,105,156.55113 Q13.454115,150.62453,84.15134,172.28197 Q154.84856,193.93939,105,187.56444 Q55.151436,181.18948,103.82283,172.73178 Q152.49422,164.27408,105,159.28578 Q57.50578,154.29749,94.739204,165.96027 Q131.97263,177.62306,105,180.16672 Q78.027374,182.71037,114.47794,180.73235 Q150.92851,178.75432,105,179.13106 Q59.071487,179.5078,113.93253,162.25322 Q168.79358,144.99866,105,144.6197 Q41.206425,144.24074,127.58438,150.14569 Q213.96234,156.05064,105,171.95845 Q-3.9623399,187.86626,110.18339,186.82542 Q224.32912,185.78459,105,187.13832 Q-14.329121,188.49207,117.61944,198.8696 Q249.568,209.24715,105,192.97469 Q-39.567997,176.70224,88.75769,178.2514 Q217.08337,179.80055,105,198.06929 Q-7.0833793,216.33804,48.95831,199.16902 Q105,182,105,183.5 Q105,185,150.33357,199.95274 Q195.66716,214.90549,105,212.55275 Q14.332842,210.2,89.94806,195.63976 Q165.56328,181.0795,105,172.30049 Q44.436718,163.52148,109.3761,167.24379 Q174.31548,170.96611,105,186.9081 Q35.68452,202.85008,95.543495,175.21864 Q155.40247,147.5872,105,173.36397 Q54.59753,199.14073,147.0579,189.72455 Q239.5183,180.30835,105,165.42242 Q-29.51829,150.5365,79.62269,164.87779 Q188.76367,179.2191,105,171.01025 Q21.23633,162.8014,108.891106,164.13956 Q196.54588,165.47772,105,159.55113 Q13.454115,153.62453,84.15134,175.28197 Q154.84856,196.93939,105,190.56444 Q55.151436,184.18948,103.82283,175.73178 Q152.49422,167.27408,105,162.28578 Q57.50578,157.29749,94.739204,168.96027 Q131.97263,180.62306,105,183.16672 Q78.027374,185.71037,114.47794,183.73235 Q150.92851,181.75432,105,182.13106 Q59.071487,182.5078,113.93253,165.25322 Q168.79358,147.99866,105,147.6197 Q41.206425,147.24074,127.58438,153.14569 Q213.96234,159.05064,105,174.95845 Q-3.9623399,190.86626,110.18339,189.82542 Q224.32912,188.78459,105,190.13832 Q-14.329121,191.49207,117.61944,201.8696 Q249.568,212.24715,105,195.97469 Q-39.567997,179.70224,88.75769,181.2514 Q217.08337,182.80055,105,201.06929 Q-7.0833793,219.33804,48.95831,202.16902 Q105,185,105,186.5 Q105,188,150.33357,202.95274 Q195.66716,217.90549,105,215.55275 Q14.332842,213.2,89.94806,198.63976 Q165.56328,184.0795,105,175.30049 Q44.436718,166.52148,109.3761,170.24379 Q174.31548,173.96611,105,189.9081 Q35.68452,205.85008,95.543495,178.21864 Q155.40247,150.5872,105,176.36397 Q54.59753,202.14073,147.0579,192.72455 Q239.5183,183.30835,105,168.42242 Q-29.51829,153.5365,79.62269,167.87779 Q188.76367,182.2191,105,174.01025 Q21.23633,165.8014,108.891106,167.13956 Q196.54588,168.47772,105,162.55113 Q13.454115,156.62453,84.15134,178.28197 Q154.84856,199.93939,105,193.56444 Q55.151436,187.18948,103.82283,178.73178 Q152.49422,170.27408,105,165.28578 Q57.50578,160.29749,94.739204,171.96027 Q131.97263,183.62306,105,186.16672 Q78.027374,188.71037,114.47794,186.73235 Q150.92851,184.75432,105,185.13106 Q59.071487,185.5078,113.93253,168.25322 Q168.79358,150.99866,105,150.6197 Q41.206425,150.24074,127.58438,156.14569 Q213.96234,162.05064,105,177.95845 Q-3.9623399,193.86626,110.18339,192.82542 Q224.32912,191.78459,105,193.13832 Q-14.329121,194.49207,117.61944,204.8696 Q249.568,215.24715,105,198.97469 Q-39.567997,182.70224,88.75769,184.2514 Q217.08337,185.80055,105,204.06929 Q-7.0833793,222.33804,48.95831,205.16902 Q105,188,105,189.5 Q105,191,150.33357,205.95274 Q195.66716,220.90549,105,218.55275 Q14.332842,216.2,89.94806,201.63976 Q165.56328,187.0795,105,178.30049 Q44.436718,169.52148,109.3761,173.24379 Q174.31548,176.96611,105,192.9081 Q35.68452,208.85008,95.543495,181.21864 Q155.40247,153.5872,105,179.36397 Q54.59753,205.14073,147.0579,195.72455 Q239.5183,186.30835,105,171.42242 Q-29.51829,156.5365,79.62269,170.87779 Q188.76367,185.2191,105,177.01025 Q21.23633,168.8014,108.891106,170.13956 Q196.54588,171.47772,105,165.55113 Q13.454115,159.62453,84.15134,181.28197 Q154.84856,202.93939,105,196.56444 Q55.151436,190.18948,103.82283,181.73178 Q152.49422,173.27408,105,168.28578 Q57.50578,163.29749,94.739204,174.96027 Q131.97263,186.62306,105,189.16672 Q78.027374,191.71037,114.47794,189.73235 Q150.92851,187.75432,105,188.13106 Q59.071487,188.5078,113.93253,171.25322 Q168.79358,153.99866,105,153.6197 Q41.206425,153.24074,127.58438,159.14569 Q213.96234,165.05064,105,180.95845 Q-3.9623399,196.86626,110.18339,195.82542 Q224.32912,194.78459,105,196.13832 Q-14.329121,197.49207,117.61944,207.8696 Q249.568,218.24715,105,201.97469 Q-39.567997,185.70224,88.75769,187.2514 Q217.08337,188.80055,105,207.06929 Q-7.0833793,225.33804,48.95831,208.16902 Q105,191,105,192.5 Q105,194,150.33357,208.95274 Q195.66716,223.90549,105,221.55275 Q14.332842,219.2,89.94806,204.63976 Q165.56328,190.0795,105,181.30049 Q44.436718,172.52148,109.3761,176.24379 Q174.31548,179.96611,105,195.9081 Q35.68452,211.85008,95.543495,184.21864 Q155.40247,156.5872,105,182.36397 Q54.59753,208.14073,147.0579,198.72455 Q239.5183,189.30835,105,174.42242 Q-29.51829,159.5365,79.62269,173.87779 Q188.76367,188.2191,105,180.01025 Q21.23633,171.8014,108.891106,173.13956 Q196.54588,174.47772,105,168.55113 Q13.454115,162.62453,84.15134,184.28197 Q154.84856,205.93939,105,199.56444 Q55.151436,193.18948,103.82283,184.73178 Q152.49422,176.27408,105,171.28578 Q57.50578,166.29749,94.739204,177.96027 Q131.97263,189.62306,105,192.16672 Q78.027374,194.71037,114.47794,192.73235 Q150.92851,190.75432,105,191.13106 Q59.071487,191.5078,113.93253,174.25322 Q168.79358,156.99866,105,156.6197 Q41.206425,156.24074,127.58438,162.14569 Q213.96234,168.05064,105,183.95845 Q-3.9623399,199.86626,110.18339,198.82542 Q224.32912,197.78459,105,199.13832 Q-14.329121,200.49207,117.61944,210.8696 Q249.568,221.24715,105,204.97469 Q-39.567997,188.70224,88.75769,190.2514 Q217.08337,191.80055,105,210.06929 Q-7.0833793,228.33804,48.95831,211.16902 Q105,194,105,195.5 Q105,197,150.33357,211.95274 Q195.66716,226.90549,105,224.55275 Q14.332842,222.2,89.94806,207.63976 Q165.56328,193.0795,105,184.30049 Q44.436718,175.52148,109.3761,179.24379 Q174.31548,182.96611,105,198.9081 Q35.68452,214.85008,95.543495,187.21864 Q155.40247,159.5872,105,185.36397 Q54.59753,211.14073,147.0579,201.72455 Q239.5183,192.30835,105,177.42242 Q-29.51829,162.5365,79.62269,176.87779 Q188.76367,191.2191,105,183.01025 Q21.23633,174.8014,108.891106,176.13956 Q196.54588,177.47772,105,171.55113 Q13.454115,165.62453,84.15134,187.28197 Q154.84856,208.93939,105,202.56444 Q55.151436,196.18948,103.82283,187.73178 Q152.49422,179.27408,105,174.28578 Q57.50578,169.29749,94.739204,180.96027 Q131.97263,192.62306,105,195.16672 Q78.027374,197.71037,114.47794,195.73235 Q150.92851,193.75432,105,194.13106 Q59.071487,194.5078,113.93253,177.25322 Q168.79358,159.99866,105,159.6197 Q41.206425,159.24074,127.58438,165.14569 Q213.96234,171.05064,105,186.95845 Q-3.9623399,202.86626,110.18339,201.82542 Q224.32912,200.78459,105,202.13832 Q-14.329121,203.49207,117.61944,213.8696 Q249.568,224.24715,105,207.97469 Q-39.567997,191.70224,88.75769,193.2514 Q217.08337,194.80055,105,213.06929 Q-7.0833793,231.33804,48.95831,214.16902 Q105,197,105,198.5 Q105,200,150.33357,214.95274 Q195.66716,229.90549,105,227.55275 Q14.332842,225.2,89.94806,210.63976 Q165.56328,196.0795,105,187.30049 Q44.436718,178.52148,109.3761,182.24379 Q174.31548,185.96611,105,201.9081 Q35.68452,217.85008,95.543495,190.21864 Q155.40247,162.5872,105,188.36397 Q54.59753,214.14073,147.0579,204.72455 Q239.5183,195.30835,105,180.42242 Q-29.51829,165.5365,79.62269,179.87779 Q188.76367,194.2191,105,186.01025 Q21.23633,177.8014,108.891106,179.13956 Q196.54588,180.47772,105,174.55113 Q13.454115,168.62453,84.15134,190.28197 Q154.84856,211.93939,105,205.56444 Q55.151436,199.18948,103.82283,190.73178 Q152.49422,182.27408,105,177.28578 Q57.50578,172.29749,94.739204,183.96027 Q131.97263,195.62306,105,198.16672 Q78.027374,200.71037,114.47794,198.73235 Q150.92851,196.75432,105,197.13106 Q59.071487,197.5078,113.93253,180.25322 Q168.79358,162.99866,105,162.6197 Q41.206425,162.24074,127.58438,168.14569 Q213.96234,174.05064,105,189.95845 Q-3.9623399,205.86626,110.18339,204.82542 Q224.32912,203.78459,105,205.13832 Q-14.329121,206.49207,117.61944,216.8696 Q249.568,227.24715,105,210.97469 Q-39.567997,194.70224,88.75769,196.2514 Q217.08337,197.80055,105,216.06929 Q-7.0833793,234.33804,48.95831,217.16902 Q105,200,105,201.5 Q105,203,150.33357,217.95274 Q195.66716,232.90549,105,230.55275 Q14.332842,228.2,89.94806,213.63976 Q165.56328,199.0795,105,190.30049 Q44.436718,181.52148,109.3761,185.24379 Q174.31548,188.96611,105,204.9081 Q35.68452,220.85008,95.543495,193.21864 Q155.40247,165.5872,105,191.36397 Q54.59753,217.14073,147.0579,207.72455 Q239.5183,198.30835,105,183.42242 Q-29.51829,168.5365,79.62269,182.87779 Q188.76367,197.2191,105,189.01025 Q21.23633,180.8014,108.891106,182.13956 Q196.54588,183.47772,105,177.55113 Q13.454115,171.62453,84.15134,193.28197 Q154.84856,214.93939,105,208.56444 Q55.151436,202.18948,103.82283,193.73178 Q152.49422,185.27408,105,180.28578 Q57.50578,175.29749,94.739204,186.96027 Q131.97263,198.62306,105,201.16672 Q78.027374,203.71037,114.47794,201.73235 Q150.92851,199.75432,105,200.13106 Q59.071487,200.5078,113.93253,183.25322 Q168.79358,165.99866,105,165.6197 Q41.206425,165.24074,127.58438,171.14569 Q213.96234,177.05064,105,192.95845 Q-3.9623399,208.86626,110.18339,207.82542 Q224.32912,206.78459,105,208.13832 Q-14.329121,209.49207,117.61944,219.8696 Q249.568,230.24715,105,213.97469 Q-39.567997,197.70224,88.75769,199.2514 Q217.08337,200.80055,105,219.06929 Q-7.0833793,237.33804,48.95831,220.16902 Q105,203,105,204.5 Q105,206,150.33357,220.95274 Q195.66716,235.90549,105,233.55275 Q14.332842,231.2,89.94806,216.63976 Q165.56328,202.0795,105,193.30049 Q44.436718,184.52148,109.3761,188.24379 Q174.31548,191.96611,105,207.9081 Q35.68452,223.85008,95.543495,196.21864 Q155.40247,168.5872,105,194.36397 Q54.59753,220.14073,147.0579,210.72455 Q239.5183,201.30835,105,186.42242 Q-29.51829,171.5365,79.62269,185.87779 Q188.76367,200.2191,105,192.01025 Q21.23633,183.8014,108.891106,185.13956 Q196.54588,186.47772,105,180.55113 Q13.454115,174.62453,84.15134,196.28197 Q154.84856,217.93939,105,211.56444 Q55.151436,205.18948,103.82283,196.73178 Q152.49422,188.27408,105,183.28578 Q57.50578,178.29749,94.739204,189.96027 Q131.97263,201.62306,105,204.16672 Q78.027374,206.71037,114.47794,204.73235 Q150.92851,202.75432,105,203.13106 Q59.071487,203.5078,113.93253,186.25322 Q168.79358,168.99866,105,168.6197 Q41.206425,168.24074,127.58438,174.14569 Q213.96234,180.05064,105,195.95845 Q-3.9623399,211.86626,110.18339,210.82542 Q224.32912,209.78459,105,211.13832 Q-14.329121,212.49207,117.61944,222.8696 Q249.568,233.24715,105,216.97469 Q-39.567997,200.70224,88.75769,202.2514 Q217.08337,203.80055,105,222.06929 Q-7.0833793,240.33804,48.95831,223.16902 Q105,206,105,207.5 Q105,209,150.33357,223.95274 Q195.66716,238.90549,105,236.55275 Q14.332842,234.2,89.94806,219.63976 Q165.56328,205.0795,105,196.30049 Q44.436718,187.52148,109.3761,191.24379 Q174.31548,194.96611,105,210.9081 Q35.68452,226.85008,95.543495,199.21864 Q155.40247,171.5872,105,197.36397 Q54.59753,223.14073,147.0579,213.72455 Q239.5183,204.30835,105,189.42242 Q-29.51829,174.5365,79.62269,188.87779 Q188.76367,203.2191,105,195.01025 Q21.23633,186.8014,108.891106,188.13956 Q196.54588,189.47772,105,183.55113 Q13.454115,177.62453,84.15134,199.28197 Q154.84856,220.93939,105,214.56444 Q55.151436,208.18948,103.82283,199.73178 Q152.49422,191.27408,105,186.28578 Q57.50578,181.29749,94.739204,192.96027 Q131.97263,204.62306,105,207.16672 Q78.027374,209.71037,114.47794,207.73235 Q150.92851,205.75432,105,206.13106 Q59.071487,206.5078,113.93253,189.25322 Q168.79358,171.99866,105,171.6197 Q41.206425,171.24074,127.58438,177.14569 Q213.96234,183.05064,105,198.95845 Q-3.9623399,214.86626,110.18339,213.82542 Q224.32912,212.78459,105,214.13832 Q-14.329121,215.49207,117.61944,225.8696 Q249.568,236.24715,105,219.97469 Q-39.567997,203.70224,88.75769,205.2514 Q217.08337,206.80055,105,225.06929 Q-7.0833793,243.33804,48.95831,226.16902 Q105,209,105,210.5 Q105,212,150.33357,226.95274 Q195.66716,241.90549,105,239.55275 Q14.332842,237.2,89.94806,222.63976 Q165.56328,208.0795,105,199.30049 Q44.436718,190.52148,109.3761,194.24379 Q174.31548,197.96611,105,213.9081 Q35.68452,229.85008,95.543495,202.21864 Q155.40247,174.5872,105,200.36397 Q54.59753,226.14073,147.0579,216.72455 Q239.5183,207.30835,105,192.42242 Q-29.51829,177.5365,79.62269,191.87779 Q188.76367,206.2191,105,198.01025 Q21.23633,189.8014,108.891106,191.13956 Q196.54588,192.47772,105,186.55113 Q13.454115,180.62453,84.15134,202.28197 Q154.84856,223.93939,105,217.56444 Q55.151436,211.18948,103.82283,202.73178 Q152.49422,194.27408,105,189.28578 Q57.50578,184.29749,94.739204,195.96027 Q131.97263,207.62306,105,210.16672 Q78.027374,212.71037,114.47794,210.73235 Q150.92851,208.75432,105,209.13106 Q59.071487,209.5078,113.93253,192.25322 Q168.79358,174.99866,105,174.6197 Q41.206425,174.24074,127.58438,180.14569 Q213.96234,186.05064,105,201.95845 Q-3.9623399,217.86626,110.18339,216.82542 Q224.32912,215.78459,105,217.13832 Q-14.329121,218.49207,117.61944,228.8696 Q249.568,239.24715,105,222.97469 Q-39.567997,206.70224,88.75769,208.2514 Q217.08337,209.80055,105,228.06929 Q-7.0833793,246.33804,48.95831,229.16902 Q105,212,105,213.5 Q105,215,150.33357,229.95274 Q195.66716,244.90549,105,242.55275 Q14.332842,240.2,89.94806,225.63976 Q165.56328,211.0795,105,202.30049 Q44.436718,193.52148,109.3761,197.24379 Q174.31548,200.96611,105,216.9081 Q35.68452,232.85008,95.543495,205.21864 Q155.40247,177.5872,105,203.36397 Q54.59753,229.14073,147.0579,219.72455 Q239.5183,210.30835,105,195.42242 Q-29.51829,180.5365,79.62269,194.87779 Q188.76367,209.2191,105,201.01025 Q21.23633,192.8014,108.891106,194.13956 Q196.54588,195.47772,105,189.55113 Q13.454115,183.62453,84.15134,205.28197 Q154.84856,226.93939,105,220.56444 Q55.151436,214.18948,103.82283,205.73178 Q152.49422,197.27408,105,192.28578 Q57.50578,187.29749,94.739204,198.96027 Q131.97263,210.62306,105,213.16672 Q78.027374,215.71037,114.47794,213.73235 Q150.92851,211.75432,105,212.13106 Q59.071487,212.5078,113.93253,195.25322 Q168.79358,177.99866,105,177.6197 Q41.206425,177.24074,127.58438,183.14569 Q213.96234,189.05064,105,204.95845 Q-3.9623399,220.86626,110.18339,219.82542 Q224.32912,218.78459,105,220.13832 Q-14.329121,221.49207,117.61944,231.8696 Q249.568,242.24715,105,225.97469 Q-39.567997,209.70224,88.75769,211.2514 Q217.08337,212.80055,105,231.06929 Q-7.0833793,249.33804,48.95831,232.16902 Q105,215,105,216.5 Q105,218,150.33357,232.95274 Q195.66716,247.90549,105,245.55275 Q14.332842,243.2,89.94806,228.63976 Q165.56328,214.0795,105,205.30049 Q44.436718,196.52148,109.3761,200.24379 Q174.31548,203.96611,105,219.9081 Q35.68452,235.85008,95.543495,208.21864 Q155.40247,180.5872,105,206.36397 Q54.59753,232.14073,147.0579,222.72455 Q239.5183,213.30835,105,198.42242 Q-29.51829,183.5365,79.62269,197.87779 Q188.76367,212.2191,105,204.01025 Q21.23633,195.8014,108.891106,197.13956 Q196.54588,198.47772,105,192.55113 Q13.454115,186.62453,84.15134,208.28197 Q154.84856,229.93939,105,223.56444 Q55.151436,217.18948,103.82283,208.73178 Q152.49422,200.27408,105,195.28578 Q57.50578,190.29749,94.739204,201.96027 Q131.97263,213.62306,105,216.16672 Q78.027374,218.71037,114.47794,216.73235 Q150.92851,214.75432,105,215.13106 Q59.071487,215.5078,113.93253,198.25322 Q168.79358,180.99866,105,180.6197 Q41.206425,180.24074,127.58438,186.14569 Q213.96234,192.05064,105,207.95845 Q-3.9623399,223.86626,110.18339,222.82542 Q224.32912,221.78459,105,223.13832 Q-14.329121,224.49207,117.61944,234.8696 Q249.568,245.24715,105,228.97469 Q-39.567997,212.70224,88.75769,214.2514 Q217.08337,215.80055,105,234.06929 Q-7.0833793,252.33804,48.95831,235.16902 Q105,218,105,219.5 Q105,221,150.33357,235.95274 Q195.66716,250.90549,105,248.55275 Q14.332842,246.2,89.94806,231.63976 Q165.56328,217.0795,105,208.30049 Q44.436718,199.52148,109.3761,203.24379 Q174.31548,206.96611,105,222.9081 Q35.68452,238.85008,95.543495,211.21864 Q155.40247,183.5872,105,209.36397 Q54.59753,235.14073,147.0579,225.72455 Q239.5183,216.30835,105,201.42242 Q-29.51829,186.5365,79.62269,200.87779 Q188.76367,215.2191,105,207.01025 Q21.23633,198.8014,108.891106,200.13956 Q196.54588,201.47772,105,195.55113 Q13.454115,189.62453,84.15134,211.28197 Q154.84856,232.93939,105,226.56444 Q55.151436,220.18948,103.82283,211.73178 Q152.49422,203.27408,105,198.28578 Q57.50578,193.29749,94.739204,204.96027 Q131.97263,216.62306,105,219.16672 Q78.027374,221.71037,114.47794,219.73235 Q150.92851,217.75432,105,218.13106 Q59.071487,218.5078,113.93253,201.25322 Q168.79358,183.99866,105,183.6197 Q41.206425,183.24074,127.58438,189.14569 Q213.96234,195.05064,105,210.95845 Q-3.9623399,226.86626,110.18339,225.82542 Q224.32912,224.78459,105,226.13832 Q-14.329121,227.49207,117.61944,237.8696 Q249.568,248.24715,105,231.97469 Q-39.567997,215.70224,88.75769,217.2514 Q217.08337,218.80055,105,237.06929 Q-7.0833793,255.33804,48.95831,238.16902 Q105,221,105,222.5 Q105,224,150.33357,238.95274 Q195.66716,253.90549,105,251.55275 Q14.332842,249.2,89.94806,234.63976 Q165.56328,220.0795,105,211.30049 Q44.436718,202.52148,109.3761,206.24379 Q174.31548,209.96611,105,225.9081 Q35.68452,241.85008,95.543495,214.21864 Q155.40247,186.5872,105,212.36397 Q54.59753,238.14073,147.0579,228.72455 Q239.5183,219.30835,105,204.42242 Q-29.51829,189.5365,79.62269,203.87779 Q188.76367,218.2191,105,210.01025 Q21.23633,201.8014,108.891106,203.13956 Q196.54588,204.47772,105,198.55113 Q13.454115,192.62453,84.15134,214.28197 Q154.84856,235.93939,105,229.56444 Q55.151436,223.18948,103.82283,214.73178 Q152.49422,206.27408,105,201.28578 Q57.50578,196.29749,94.739204,207.96027 Q131.97263,219.62306,105,222.16672 Q78.027374,224.71037,114.47794,222.73235 Q150.92851,220.75432,105,221.13106 Q59.071487,221.5078,113.93253,204.25322 Q168.79358,186.99866,105,186.6197 Q41.206425,186.24074,127.58438,192.14569 Q213.96234,198.05064,105,213.95845 Q-3.9623399,229.86626,110.18339,228.82542 Q224.32912,227.78459,105,229.13832 Q-14.329121,230.49207,117.61944,240.8696 Q249.568,251.24715,105,234.97469 Q-39.567997,218.70224,88.75769,220.2514 Q217.08337,221.80055,105,240.06929 Q-7.0833793,258.33804,48.95831,241.16902 Q105,224,105,225.5 Q105,227,150.33357,241.95274 Q195.66716,256.9055,105,254.55275 Q14.332842,252.2,89.94806,237.63976 Q165.56328,223.0795,105,214.30049 Q44.436718,205.52148,109.3761,209.24379 Q174.31548,212.96611,105,228.9081 Q35.68452,244.85008,95.543495,217.21864 Q155.40247,189.5872,105,215.36397 Q54.59753,241.14073,147.0579,231.72455 Q239.5183,222.30835,105,207.42242 Q-29.51829,192.5365,79.62269,206.87779 Q188.76367,221.2191,105,213.01025 Q21.23633,204.8014,108.891106,206.13956 Q196.54588,207.47772,105,201.55113 Q13.454115,195.62453,84.15134,217.28197 Q154.84856,238.93939,105,232.56444 Q55.151436,226.18948,103.82283,217.73178 Q152.49422,209.27408,105,204.28578 Q57.50578,199.29749,94.739204,210.96027 Q131.97263,222.62306,105,225.16672 Q78.027374,227.71037,114.47794,225.73235 Q150.92851,223.75432,105,224.13106 Q59.071487,224.5078,113.93253,207.25322 Q168.79358,189.99866,105,189.6197 Q41.206425,189.24074,127.58438,195.14569 Q213.96234,201.05064,105,216.95845 Q-3.9623399,232.86626,110.18339,231.82542 Q224.32912,230.78459,105,232.13832 Q-14.329121,233.49207,117.61944,243.8696 Q249.568,254.24715,105,237.97469 Q-39.567997,221.70224,88.75769,223.2514 Q217.08337,224.80055,105,243.06929 Q-7.0833793,261.33804,48.95831,244.16902 Q105,227,105,228.5 Q105,230,150.33357,244.95274 Q195.66716,259.9055,105,257.55273 Q14.332842,255.2,89.94806,240.63976 Q165.56328,226.0795,105,217.30049 Q44.436718,208.52148,109.3761,212.24379 Q174.31548,215.96611,105,231.9081 Q35.68452,247.85008,95.543495,220.21864 Q155.40247,192.5872,105,218.36397 Q54.59753,244.14073,147.0579,234.72455 Q239.5183,225.30835,105,210.42242 Q-29.51829,195.5365,79.62269,209.87779 Q188.76367,224.2191,105,216.01025 Q21.23633,207.8014,108.891106,209.13956 Q196.54588,210.47772,105,204.55113 Q13.454115,198.62453,84.15134,220.28197 Q154.84856,241.93939,105,235.56444 Q55.151436,229.18948,103.82283,220.73178 Q152.49422,212.27408,105,207.28578 Q57.50578,202.29749,94.739204,213.96027 Q131.97263,225.62306,105,228.16672 Q78.027374,230.71037,114.47794,228.73235 Q150.92851,226.75432,105,227.13106 Q59.071487,227.5078,113.93253,210.25322 Q168.79358,192.99866,105,192.6197 Q41.206425,192.24074,127.58438,198.14569 Q213.96234,204.05064,105,219.95845 Q-3.9623399,235.86626,110.18339,234.82542 Q224.32912,233.78459,105,235.13832 Q-14.329121,236.49207,117.61944,246.8696 Q249.568,257.24713,105,240.97469 Q-39.567997,224.70224,88.75769,226.2514 Q217.08337,227.80055,105,246.06929 Q-7.0833793,264.33804,48.95831,247.16902 Q105,230,105,231.5 Q105,233,150.33357,247.95274 Q195.66716,262.9055,105,260.55273 Q14.332842,258.2,89.94806,243.63976 Q165.56328,229.0795,105,220.30049 Q44.436718,211.52148,109.3761,215.24379 Q174.31548,218.96611,105,234.9081 Q35.68452,250.85008,95.543495,223.21864 Q155.40247,195.5872,105,221.36397 Q54.59753,247.14073,147.0579,237.72455 Q239.5183,228.30835,105,213.42242 Q-29.51829,198.5365,79.62269,212.87779 Q188.76367,227.2191,105,219.01025 Q21.23633,210.8014,108.891106,212.13956 Q196.54588,213.47772,105,207.55113 Q13.454115,201.62453,84.15134,223.28197 Q154.84856,244.93939,105,238.56444 Q55.151436,232.18948,103.82283,223.73178 Q152.49422,215.27408,105,210.28578 Q57.50578,205.29749,94.739204,216.96027 Q131.97263,228.62306,105,231.16672 Q78.027374,233.71037,114.47794,231.73235 Q150.92851,229.75432,105,230.13106 Q59.071487,230.5078,113.93253,213.25322 Q168.79358,195.99866,105,195.6197 Q41.206425,195.24074,127.58438,201.14569 Q213.96234,207.05064,105,222.95845 Q-3.9623399,238.86626,110.18339,237.82542 Q224.32912,236.78459,105,238.13832 Q-14.329121,239.49207,117.61944,249.8696 Q249.568,260.24713,105,243.97469 Q-39.567997,227.70224,88.75769,229.2514 Q217.08337,230.80055,105,249.06929 Q-7.0833793,267.33804,48.95831,250.16902 Q105,233,105,234.5 Q105,236,150.33357,250.95274 Q195.66716,265.9055,105,263.55273 Q14.332842,261.2,89.94806,246.63976 Q165.56328,232.0795,105,223.30049 Q44.436718,214.52148,109.3761,218.24379 Q174.31548,221.96611,105,237.9081 Q35.68452,253.85008,95.543495,226.21864 Q155.40247,198.5872,105,224.36397 Q54.59753,250.14073,147.0579,240.72455 Q239.5183,231.30835,105,216.42242 Q-29.51829,201.5365,79.62269,215.87779 Q188.76367,230.2191,105,222.01025 Q21.23633,213.8014,108.891106,215.13956 Q196.54588,216.47772,105,210.55113 Q13.454115,204.62453,84.15134,226.28197 Q154.84856,247.93939,105,241.56444 Q55.151436,235.18948,103.82283,226.73178 Q152.49422,218.27408,105,213.28578 Q57.50578,208.29749,94.739204,219.96027 Q131.97263,231.62306,105,234.16672 Q78.027374,236.71037,114.47794,234.73235 Q150.92851,232.75432,105,233.13106 Q59.071487,233.5078,113.93253,216.25322 Q168.79358,198.99866,105,198.6197 Q41.206425,198.24074,127.58438,204.14569 Q213.96234,210.05064,105,225.95845 Q-3.9623399,241.86626,110.18339,240.82542 Q224.32912,239.78459,105,241.13832 Q-14.329121,242.49207,117.61944,252.8696 Q249.568,263.24713,105,246.97469 Q-39.567997,230.70224,88.75769,232.2514 Q217.08337,233.80055,105,252.06929 Q-7.0833793,270.33804,48.95831,253.16902 Q105,236,105,237.5 Q105,239,150.33357,253.95274 Q195.66716,268.9055,105,266.55273 Q14.332842,264.2,89.94806,249.63976 Q165.56328,235.0795,105,226.30049 Q44.436718,217.52148,109.3761,221.24379 Q174.31548,224.96611,105,240.9081 Q35.68452,256.8501,95.543495,229.21864 Q155.40247,201.5872,105,227.36397 Q54.59753,253.14073,147.0579,243.72455 Q239.5183,234.30835,105,219.42242 Q-29.51829,204.5365,79.62269,218.87779 Q188.76367,233.2191,105,225.01025 Q21.23633,216.8014,108.891106,218.13956 Q196.54588,219.47772,105,213.55113 Q13.454115,207.62453,84.15134,229.28197 Q154.84856,250.93939,105,244.56444 Q55.151436,238.18948,103.82283,229.73178 Q152.49422,221.27408,105,216.28578 Q57.50578,211.29749,94.739204,222.96027 Q131.97263,234.62306,105,237.16672 Q78.027374,239.71037,114.47794,237.73235 Q150.92851,235.75432,105,236.13106 Q59.071487,236.5078,113.93253,219.25322 Q168.79358,201.99866,105,201.6197 Q41.206425,201.24074,127.58438,207.14569 Q213.96234,213.05064,105,228.95845 Q-3.9623399,244.86626,110.18339,243.82542 Q224.32912,242.78459,105,244.13832 Q-14.329121,245.49207,117.61944,255.8696 Q249.568,266.24713,105,249.97469 Q-39.567997,233.70224,88.75769,235.2514 Q217.08337,236.80055,105,255.06929 Q-7.0833793,273.33804,48.95831,256.169 Q105,239,105,240.5 Q105,242,150.33357,256.95276 Q195.66716,271.9055,105,269.55273 Q14.332842,267.2,89.94806,252.63976 Q165.56328,238.0795,105,229.30049 Q44.436718,220.52148,109.3761,224.24379 Q174.31548,227.96611,105,243.9081 Q35.68452,259.8501,95.543495,232.21864 Q155.40247,204.5872,105,230.36397 Q54.59753,256.14075,147.0579,246.72455 Q239.5183,237.30835,105,222.42242 Q-29.51829,207.5365,79.62269,221.87779 Q188.76367,236.2191,105,228.01025 Q21.23633,219.8014,108.891106,221.13956 Q196.54588,222.47772,105,216.55113 Q13.454115,210.62453,84.15134,232.28197 Q154.84856,253.93939,105,247.56444 Q55.151436,241.18948,103.82283,232.73178 Q152.49422,224.27408,105,219.28578 Q57.50578,214.29749,94.739204,225.96027 Q131.97263,237.62306,105,240.16672 Q78.027374,242.71037,114.47794,240.73235 Q150.92851,238.75432,105,239.13106 Q59.071487,239.5078,113.93253,222.25322 Q168.79358,204.99866,105,204.6197 Q41.206425,204.24074,127.58438,210.14569 Q213.96234,216.05064,105,231.95845 Q-3.9623399,247.86626,110.18339,246.82542 Q224.32912,245.78459,105,247.13832 Q-14.329121,248.49207,117.61944,258.8696 Q249.568,269.24713,105,252.97469 Q-39.567997,236.70224,88.75769,238.2514 Q217.08337,239.80055,105,258.0693 Q-7.0833793,276.33804,48.95831,259.169 Q105,242,105,243.5 Q105,245,150.33357,259.95276 Q195.66716,274.9055,105,272.55273 Q14.332842,270.2,89.94806,255.63976 Q165.56328,241.0795,105,232.30049 Q44.436718,223.52148,109.3761,227.24379 Q174.31548,230.96611,105,246.9081 Q35.68452,262.8501,95.543495,235.21864 Q155.40247,207.5872,105,233.36397 Q54.59753,259.14075,147.0579,249.72455 Q239.5183,240.30835,105,225.42242 Q-29.51829,210.5365,79.62269,224.87779 Q188.76367,239.2191,105,231.01025 Q21.23633,222.8014,108.891106,224.13956 Q196.54588,225.47772,105,219.55113 Q13.454115,213.62453,84.15134,235.28197 Q154.84856,256.9394,105,250.56444 Q55.151436,244.18948,103.82283,235.73178 Q152.49422,227.27408,105,222.28578 Q57.50578,217.29749,94.739204,228.96027 Q131.97263,240.62306,105,243.16672 Q78.027374,245.71037,114.47794,243.73235 Q150.92851,241.75432,105,242.13106 Q59.071487,242.5078,113.93253,225.25322 Q168.79358,207.99866,105,207.6197 Q41.206425,207.24074,127.58438,213.14569 Q213.96234,219.05064,105,234.95845 Q-3.9623399,250.86626,110.18339,249.82542 Q224.32912,248.78459,105,250.13832 Q-14.329121,251.49207,117.61944,261.8696 Q249.568,272.24713,105,255.97469 Q-39.567997,239.70224,88.75769,241.2514 Q217.08337,242.80055,105,261.0693 Q-7.0833793,279.33804,48.95831,262.169 Q105,245,105,246.5 Q105,248,150.33357,262.95276 Q195.66716,277.9055,105,275.55273 Q14.332842,273.2,89.94806,258.63974 Q165.56328,244.0795,105,235.30049 Q44.436718,226.52148,109.3761,230.24379 Q174.31548,233.96611,105,249.9081 Q35.68452,265.8501,95.543495,238.21864 Q155.40247,210.5872,105,236.36397 Q54.59753,262.14075,147.0579,252.72455 Q239.5183,243.30835,105,228.42242 Q-29.51829,213.5365,79.62269,227.87779 Q188.76367,242.2191,105,234.01025 Q21.23633,225.8014,108.891106,227.13956 Q196.54588,228.47772,105,222.55113 Q13.454115,216.62453,84.15134,238.28197 Q154.84856,259.9394,105,253.56444 Q55.151436,247.18948,103.82283,238.73178 Q152.49422,230.27408,105,225.28578 Q57.50578,220.29749,94.739204,231.96027 Q131.97263,243.62306,105,246.16672 Q78.027374,248.71037,114.47794,246.73235 Q150.92851,244.75432,105,245.13106 Q59.071487,245.5078,113.93253,228.25322 Q168.79358,210.99866,105,210.6197 Q41.206425,210.24074,127.58438,216.14569 Q213.96234,222.05064,105,237.95845 Q-3.9623399,253.86626,110.18339,252.82542 Q224.32912,251.78459,105,253.13832 Q-14.329121,254.49207,117.61944,264.8696 Q249.568,275.24713,105,258.9747 Q-39.567997,242.70224,88.75769,244.2514 Q217.08337,245.80055,105,264.0693 Q-7.0833793,282.33804,48.95831,265.169 Q105,248,105,249.5 Q105,251,150.33357,265.95276 Q195.66716,280.9055,105,278.55273 Q14.332842,276.2,89.94806,261.63974 Q165.56328,247.0795,105,238.30049 Q44.436718,229.52148,109.3761,233.24379 Q174.31548,236.96611,105,252.9081 Q35.68452,268.8501,95.543495,241.21864 Q155.40247,213.5872,105,239.36397 Q54.59753,265.14075,147.0579,255.72455 Q239.5183,246.30835,105,231.42242 Q-29.51829,216.5365,79.62269,230.87779 Q188.76367,245.2191,105,237.01025 Q21.23633,228.8014,108.891106,230.13956 Q196.54588,231.47772,105,225.55113 Q13.454115,219.62453,84.15134,241.28197 Q154.84856,262.9394,105,256.56442 Q55.151436,250.18948,103.82283,241.73178 Q152.49422,233.27408,105,228.28578 Q57.50578,223.29749,94.739204,234.96027 Q131.97263,246.62306,105,249.16672 Q78.027374,251.71037,114.47794,249.73235 Q150.92851,247.75432,105,248.13106 Q59.071487,248.5078,113.93253,231.25322 Q168.79358,213.99866,105,213.6197 Q41.206425,213.24074,127.58438,219.14569 Q213.96234,225.05064,105,240.95845 Q-3.9623399,256.86627,110.18339,255.82542 Q224.32912,254.78459,105,256.13834 Q-14.329121,257.49207,117.61944,267.8696 Q249.568,278.24713,105,261.9747 Q-39.567997,245.70224,88.75769,247.2514 Q217.08337,248.80055,105,267.0693 Q-7.0833793,285.33804,48.95831,268.169 Q105,251,105,252.5 Q105,254,150.33357,268.95276 Q195.66716,283.9055,105,281.55273 Q14.332842,279.2,89.94806,264.63974 Q165.56328,250.0795,105,241.30049 Q44.436718,232.52148,109.3761,236.24379 Q174.31548,239.96611,105,255.9081 Q35.68452,271.8501,95.543495,244.21864 Q155.40247,216.5872,105,242.36397 Q54.59753,268.14075,147.0579,258.72455 Q239.5183,249.30835,105,234.42242 Q-29.51829,219.5365,79.62269,233.87779 Q188.76367,248.2191,105,240.01025 Q21.23633,231.8014,108.891106,233.13956 Q196.54588,234.47772,105,228.55113 Q13.454115,222.62453,84.15134,244.28197 Q154.84856,265.9394,105,259.56442 Q55.151436,253.18948,103.82283,244.73178 Q152.49422,236.27408,105,231.28578 Q57.50578,226.29749,94.739204,237.96027 Q131.97263,249.62306,105,252.16672 Q78.027374,254.71037,114.47794,252.73235 Q150.92851,250.75432,105,251.13106 Q59.071487,251.5078,113.93253,234.25322 Q168.79358,216.99866,105,216.6197 Q41.206425,216.24074,127.58438,222.14569 Q213.96234,228.05064,105,243.95845 Q-3.9623399,259.86627,110.18339,258.8254 Q224.32912,257.78458,105,259.13834 Q-14.329121,260.49207,117.61944,270.8696 Q249.568,281.24713,105,264.9747 Q-39.567997,248.70224,88.75769,250.2514 Q217.08337,251.80055,105,270.0693 Q-7.0833793,288.33804,48.95831,271.169 Q105,254,105,255.5 Q105,257,150.33357,271.95276 Q195.66716,286.9055,105,284.55273 Q14.332842,282.2,89.94806,267.63974 Q165.56328,253.0795,105,244.30049 Q44.436718,235.52148,109.3761,239.24379 Q174.31548,242.96611,105,258.90808 Q35.68452,274.8501,95.543495,247.21864 Q155.40247,219.5872,105,245.36397 Q54.59753,271.14075,147.0579,261.72455 Q239.5183,252.30835,105,237.42242 Q-29.51829,222.5365,79.62269,236.87779 Q188.76367,251.2191,105,243.01025 Q21.23633,234.8014,108.891106,236.13956 Q196.54588,237.47772,105,231.55113 Q13.454115,225.62453,84.15134,247.28197 Q154.84856,268.9394,105,262.56442 Q55.151436,256.18948,103.82283,247.73178 Q152.49422,239.27408,105,234.28578 Q57.50578,229.29749,94.739204,240.96027 Q131.97263,252.62306,105,255.16672 Q78.027374,257.71036,114.47794,255.73235 Q150.92851,253.75432,105,254.13106 Q59.071487,254.5078,113.93253,237.25322 Q168.79358,219.99866,105,219.6197 Q41.206425,219.24074,127.58438,225.14569 Q213.96234,231.05064,105,246.95845 Q-3.9623399,262.86627,110.18339,261.8254 Q224.32912,260.78458,105,262.13834 Q-14.329121,263.49207,117.61944,273.8696 Q249.568,284.24713,105,267.9747 Q-39.567997,251.70224,88.75769,253.2514 Q217.08337,254.80055,105,273.0693 Q-7.0833793,291.33804,48.95831,274.169 Q105,257,105,258.5 Q105,260,150.33357,274.95276 Q195.66716,289.9055,105,287.55273 Q14.332842,285.2,89.94806,270.63974 Q165.56328,256.0795,105,247.30049 Q44.436718,238.52148,109.3761,242.24379 Q174.31548,245.96611,105,261.90808 Q35.68452,277.8501,95.543495,250.21864 Q155.40247,222.5872,105,248.36397 Q54.59753,274.14075,147.0579,264.72455 Q239.5183,255.30835,105,240.42242 Q-29.51829,225.5365,79.62269,239.87779 Q188.76367,254.2191,105,246.01025 Q21.23633,237.8014,108.891106,239.13956 Q196.54588,240.47772,105,234.55113 Q13.454115,228.62453,84.15134,250.28197 Q154.84856,271.9394,105,265.56442 Q55.151436,259.18948,103.82283,250.73178 Q152.49422,242.27408,105,237.28578 Q57.50578,232.29749,94.739204,243.96027 Q131.97263,255.62306,105,258.16672 Q78.027374,260.71036,114.47794,258.73233 Q150.92851,256.7543,105,257.13104 Q59.071487,257.50778,113.93253,240.25322 Q168.79358,222.99866,105,222.6197 Q41.206425,222.24074,127.58438,228.14569 Q213.96234,234.05064,105,249.95845 Q-3.9623399,265.86627,110.18339,264.8254 Q224.32912,263.78458,105,265.13834 Q-14.329121,266.49207,117.61944,276.8696 Q249.568,287.24713,105,270.9747 Q-39.567997,254.70224,88.75769,256.2514 Q217.08337,257.80054,105,276.0693 Q-7.0833793,294.33804,48.95831,277.169 Q105,260,105,261.5 Q105,263,150.33357,277.95276 Q195.66716,292.9055,105,290.55273 Q14.332842,288.2,89.94806,273.63974 Q165.56328,259.0795,105,250.30049 Q44.436718,241.52148,109.3761,245.24379 Q174.31548,248.96611,105,264.90808 Q35.68452,280.8501,95.543495,253.21864 Q155.40247,225.5872,105,251.36397 Q54.59753,277.14075,147.0579,267.72455 Q239.5183,258.30835,105,243.42242 Q-29.51829,228.5365,79.62269,242.87779 Q188.76367,257.2191,105,249.01025 Q21.23633,240.8014,108.891106,242.13956 Q196.54588,243.47772,105,237.55113 Q13.454115,231.62453,84.15134,253.28197 Q154.84856,274.9394,105,268.56442 Q55.151436,262.18948,103.82283,253.73178 Q152.49422,245.27408,105,240.28578 Q57.50578,235.29749,94.739204,246.96027 Q131.97263,258.62308,105,261.16672 Q78.027374,263.71036,114.47794,261.73233 Q150.92851,259.7543,105,260.13104 Q59.071487,260.50778,113.93253,243.25322 Q168.79358,225.99866,105,225.6197 Q41.206425,225.24074,127.58438,231.14569 Q213.96234,237.05064,105,252.95845 Q-3.9623399,268.86627,110.18339,267.8254 Q224.32912,266.78458,105,268.13834 Q-14.329121,269.49207,117.61944,279.8696 Q249.568,290.24713,105,273.9747 Q-39.567997,257.70224,88.75769,259.2514 Q217.08337,260.80054,105,279.0693 Q-7.0833793,297.33804,48.95831,280.169" fill="none" stroke="#fb0" stroke-width="0.25" style="mix-blend-mode: multiply;"/>
</g>
</svg>