
        <svg xmlns:inkscape="http://www.inkscape.org/namespaces/inkscape" xmlns="http://www.w3.org/2000/svg" width="210mm" height="210mm" style="background:white" viewBox="0 0 210 210">
        <g transform="translate(5,5)"><g>
<g fill="none" inkscape:groupmode="layer" inkscape:label="rgb(255,199,71)" stroke="rgb(255,199,71)" stroke-linecap="round" stroke-linejoin="round" stroke-width="0.3">
<path d="" />
<path d="" />
<path d="M25.28,184.28 Q25.28,184.28,22.72,178.66 Q20.16,173.04,22.46,167.42 Q24.76,161.8,23.15,156.19 Q21.54,150.57,20.55,144.95 Q19.56,139.33,22.06,133.71 Q24.55,128.09,21.76,122.47 Q18.98,116.85,20.52,111.23 Q22.07,105.61,22.46,100 Q22.85,94.38,20.74,88.76 Q18.63,83.14,21.5,77.52 Q24.37,71.9,22.18,66.28 Q20,60.66,20.68,55.04 Q21.36,49.42,23.3,43.8 Q25.24,38.19,22.71,32.57 Q20.19,26.95,22.51,21.33" />
<path d="M41.69,184.28 Q41.69,184.28,41.69,184.28 Q41.69,184.28,39.48,178.66 Q37.27,173.04,38.76,167.42 Q40.24,161.8,38.76,156.19 Q37.28,150.57,37.2,144.95 Q37.11,139.33,38.66,133.71 Q40.2,128.09,37.41,122.47 Q34.62,116.85,36.24,111.23 Q37.87,105.61,38.22,100 Q38.58,94.38,36.4,88.76 Q34.21,83.14,37.1,77.52 Q39.99,71.9,38.91,66.28 Q37.83,60.66,37.36,55.04 Q36.89,49.42,38.81,43.8 Q40.72,38.19,39.04,32.57 Q37.35,26.95,39.15,21.33 Q40.96,15.71,40.96,15.71" />
<path d="M58.28,161.8 Q58.28,161.8,58.28,161.8 Q58.28,161.8,56.41,156.19 Q54.54,150.57,53.06,144.95 Q51.58,139.33,54.27,133.71 Q56.96,128.09,53.57,122.47 Q50.17,116.85,51.86,111.23 Q53.54,105.61,53.93,100 Q54.31,94.38,52.06,88.76 Q49.8,83.14,53.24,77.52 Q56.67,71.9,54.53,66.28 Q52.39,60.66,53.16,55.04 Q53.93,49.42,56.41,43.8 Q58.89,38.19,58.89,38.19" />
<path d="M67.36,173.04 Q67.36,173.04,67.36,173.04 Q67.36,173.04,70.76,167.42 Q74.17,161.8,72.09,156.19 Q70.02,150.57,68.3,144.95 Q66.57,139.33,69.12,133.71 Q71.67,128.09,68.79,122.47 Q65.91,116.85,67.59,111.23 Q69.27,105.61,69.66,100 Q70.05,94.38,67.79,88.76 Q65.53,83.14,68.49,77.52 Q71.45,71.9,69.43,66.28 Q67.41,60.66,68.32,55.04 Q69.23,49.42,72.09,43.8 Q74.95,38.19,71.17,32.57 Q67.39,26.95,67.39,26.95" />
<path d="M88.32,161.8 Q88.32,161.8,88.32,161.8 Q88.32,161.8,87.15,156.19 Q85.98,150.57,84.58,144.95 Q83.18,139.33,85.45,133.71 Q87.72,128.09,84.75,122.47 Q81.79,116.85,83.4,111.23 Q85.01,105.61,85.39,100 Q85.78,94.38,83.6,88.76 Q81.43,83.14,84.44,77.52 Q87.45,71.9,85.72,66.28 Q84,60.66,85.22,55.04 Q86.44,49.42,87.53,43.8 Q88.61,38.19,88.61,38.19" />
<path d="M102.49,150.57 Q102.49,150.57,102.49,150.57 Q102.49,150.57,101.77,144.95 Q101.05,139.33,102.43,133.71 Q103.81,128.09,100.59,122.47 Q97.37,116.85,99.06,111.23 Q100.74,105.61,101.13,100 Q101.53,94.38,99.26,88.76 Q97,83.14,100.4,77.52 Q103.8,71.9,102.7,66.28 Q101.6,60.66,101.75,55.04 Q101.9,49.42,101.9,49.42" />
<path d="M98.85,26.95 Q98.85,26.95,98.85,26.95 Q98.85,26.95,102.2,21.33 Q105.55,15.71,105.55,15.71" />
<path d="M115.89,173.04 Q115.89,173.04,115.89,173.04 Q115.89,173.04,117.92,167.42 Q119.95,161.8,118.8,156.19 Q117.65,150.57,116.11,144.95 Q114.56,139.33,116.72,133.71 Q118.87,128.09,116.23,122.47 Q113.58,116.85,115.5,111.23 Q117.41,105.61,117.63,100 Q117.85,94.38,115.69,88.76 Q113.54,83.14,116.09,77.52 Q118.65,71.9,116.99,66.28 Q115.33,60.66,115.74,55.04 Q116.15,49.42,118.15,43.8 Q120.16,38.19,118.07,32.57 Q115.97,26.95,115.97,26.95" />
<path d="" />
<path d="M136.84,184.28 Q136.84,184.28,133.15,178.66 Q129.47,173.04,132.18,167.42 Q134.89,161.8,134.78,156.19 Q134.67,150.57,132.16,144.95 Q129.64,139.33,132.4,133.71 Q135.17,128.09,132,122.47 Q128.84,116.85,130.52,111.23 Q132.21,105.61,132.59,100 Q132.98,94.38,130.72,88.76 Q128.47,83.14,131.72,77.52 Q134.98,71.9,132.74,66.28 Q130.5,60.66,132.21,55.04 Q133.91,49.42,134.93,43.8 Q135.95,38.19,132.74,32.57 Q129.54,26.95,132.89,21.33" />
<path d="M151.64,184.28 Q151.64,184.28,151.64,184.28 Q151.64,184.28,148.4,178.66 Q145.15,173.04,148.23,167.42 Q151.3,161.8,149.55,156.19 Q147.8,150.57,146.48,144.95 Q145.16,139.33,148.52,133.71 Q151.89,128.09,148.33,122.47 Q144.78,116.85,146.36,111.23 Q147.94,105.61,148.33,100 Q148.71,94.38,146.54,88.76 Q144.37,83.14,148.11,77.52 Q151.84,71.9,148.85,66.28 Q145.85,60.66,146.44,55.04 Q147.02,49.42,149.4,43.8 Q151.78,38.19,148.49,32.57 Q145.2,26.95,148.01,21.33 Q150.82,15.71,150.82,15.71" />
<path d="M166.83,184.28 Q166.83,184.28,163.69,178.66 Q160.55,173.04,163.68,167.42 Q166.8,161.8,164.82,156.19 Q162.84,150.57,161.87,144.95 Q160.89,139.33,163.49,133.71 Q166.09,128.09,163.2,122.47 Q160.31,116.85,161.99,111.23 Q163.67,105.61,164.06,100 Q164.45,94.38,162.19,88.76 Q159.93,83.14,162.9,77.52 Q165.86,71.9,163.76,66.28 Q161.66,60.66,161.86,55.04 Q162.06,49.42,164.63,43.8 Q167.2,38.19,163.91,32.57 Q160.62,26.95,163.49,21.33" />
<path d="M184.3,184.28 Q184.3,184.28,184.3,184.28 Q184.3,184.28,181.64,178.66 Q178.98,173.04,180.4,167.42 Q181.81,161.8,180.29,156.19 Q178.77,150.57,177.73,144.95 Q176.68,139.33,179.24,133.71 Q181.8,128.09,178.92,122.47 Q176.04,116.85,177.72,111.23 Q179.41,105.61,179.79,100 Q180.18,94.38,177.92,88.76 Q175.67,83.14,178.63,77.52 Q181.59,71.9,179.46,66.28 Q177.33,60.66,177.59,55.04 Q177.85,49.42,179.71,43.8 Q181.56,38.19,180.31,32.57 Q179.06,26.95,181.22,21.33 Q183.38,15.71,183.38,15.71" />
<path d="" />
<path d="" />
<path d="" />
<path d="" />
<path d="M26.57,184.28 Q26.57,184.28,23.16,178.66 Q19.74,173.04,22.55,167.42 Q25.36,161.8,23.96,156.19 Q22.56,150.57,21.41,144.95 Q20.27,139.33,22.87,133.71 Q25.47,128.09,22.64,122.47 Q19.81,116.85,21.43,111.23 Q23.06,105.61,23.44,100 Q23.83,94.38,21.65,88.76 Q19.47,83.14,22.36,77.52 Q25.25,71.9,23.12,66.28 Q20.98,60.66,21.29,55.04 Q21.61,49.42,23.82,43.8 Q26.03,38.19,22.89,32.57 Q19.75,26.95,22.67,21.33" />
<path d="M42.35,184.28 Q42.35,184.28,42.35,184.28 Q42.35,184.28,39.94,178.66 Q37.52,173.04,39.22,167.42 Q40.91,161.8,39.52,156.19 Q38.13,150.57,37.85,144.95 Q37.57,139.33,39.45,133.71 Q41.33,128.09,38.5,122.47 Q35.68,116.85,37.23,111.23 Q38.79,105.61,39.18,100 Q39.56,94.38,37.41,88.76 Q35.25,83.14,38.11,77.52 Q40.97,71.9,39.61,66.28 Q38.26,60.66,37.8,55.04 Q37.34,49.42,39.35,43.8 Q41.35,38.19,39.47,32.57 Q37.58,26.95,39.57,21.33 Q41.57,15.71,41.57,15.71" />
<path d="M58.53,161.8 Q58.53,161.8,58.53,161.8 Q58.53,161.8,56.69,156.19 Q54.86,150.57,53.66,144.95 Q52.46,139.33,55.13,133.71 Q57.79,128.09,54.47,122.47 Q51.16,116.85,52.84,111.23 Q54.52,105.61,54.91,100 Q55.3,94.38,53.04,88.76 Q50.78,83.14,54.17,77.52 Q57.55,71.9,55.39,66.28 Q53.22,60.66,53.71,55.04 Q54.19,49.42,56.61,43.8 Q59.04,38.19,59.04,38.19" />
<path d="M70.53,150.57 Q70.53,150.57,70.53,150.57 Q70.53,150.57,69.12,144.95 Q67.72,139.33,70.19,133.71 Q72.65,128.09,69.77,122.47 Q66.89,116.85,68.57,111.23 Q70.26,105.61,70.64,100 Q71.03,94.38,68.77,88.76 Q66.52,83.14,69.48,77.52 Q72.44,71.9,70.57,66.28 Q68.7,60.66,69.24,55.04 Q69.78,49.42,69.78,49.42" />
<path d="M88.5,161.8 Q88.5,161.8,88.5,161.8 Q88.5,161.8,87.44,156.19 Q86.37,150.57,85.2,144.95 Q84.03,139.33,86.41,133.71 Q88.8,128.09,85.75,122.47 Q82.7,116.85,84.35,111.23 Q85.99,105.61,86.38,100 Q86.76,94.38,84.55,88.76 Q82.34,83.14,85.44,77.52 Q88.54,71.9,86.66,66.28 Q84.77,60.66,85.67,55.04 Q86.56,49.42,87.81,43.8 Q89.05,38.19,89.05,38.19" />
<path d="M89.39,15.71 Q89.39,15.71,89.39,15.71" />
<path d="M102.83,150.57 Q102.83,150.57,102.83,150.57 Q102.83,150.57,101.93,144.95 Q101.02,139.33,102.8,133.71 Q104.58,128.09,101.47,122.47 Q98.36,116.85,100.04,111.23 Q101.73,105.61,102.12,100 Q102.51,94.38,100.25,88.76 Q97.98,83.14,101.13,77.52 Q104.29,71.9,102.82,66.28 Q101.36,60.66,101.67,55.04 Q101.98,49.42,101.98,49.42" />
<path d="M120.26,161.8 Q120.26,161.8,120.26,161.8 Q120.26,161.8,119.44,156.19 Q118.61,150.57,116.99,144.95 Q115.38,139.33,117.62,133.71 Q119.85,128.09,117.03,122.47 Q114.2,116.85,116.03,111.23 Q117.86,105.61,118.19,100 Q118.53,94.38,116.2,88.76 Q113.87,83.14,116.75,77.52 Q119.64,71.9,117.87,66.28 Q116.1,60.66,116.76,55.04 Q117.42,49.42,119.28,43.8 Q121.15,38.19,121.15,38.19" />
<path d="M137.17,184.28 Q137.17,184.28,133.77,178.66 Q130.37,173.04,133.34,167.42 Q136.31,161.8,135.02,156.19 Q133.72,150.57,132.23,144.95 Q130.73,139.33,133.33,133.71 Q135.93,128.09,132.87,122.47 Q129.82,116.85,131.51,111.23 Q133.19,105.61,133.58,100 Q133.96,94.38,131.71,88.76 Q129.45,83.14,132.59,77.52 Q135.72,71.9,133.59,66.28 Q131.46,60.66,132.64,55.04 Q133.81,49.42,135.45,43.8 Q137.1,38.19,133.77,32.57 Q130.44,26.95,133.47,21.33" />
<path d="M153.05,184.28 Q153.05,184.28,153.05,184.28 Q153.05,184.28,149.36,178.66 Q145.67,173.04,148.71,167.42 Q151.75,161.8,150.17,156.19 Q148.58,150.57,147.36,144.95 Q146.14,139.33,148.91,133.71 Q151.67,128.09,148.68,122.47 Q145.69,116.85,147.31,111.23 Q148.92,105.61,149.31,100 Q149.7,94.38,147.52,88.76 Q145.34,83.14,148.49,77.52 Q151.64,71.9,149.24,66.28 Q146.84,60.66,147.31,55.04 Q147.78,49.42,150.01,43.8 Q152.25,38.19,148.99,32.57 Q145.72,26.95,148.75,21.33 Q151.77,15.71,151.77,15.71" />
<path d="M167.53,184.28 Q167.53,184.28,164.49,178.66 Q161.46,173.04,164.24,167.42 Q167.02,161.8,165.42,156.19 Q163.82,150.57,162.88,144.95 Q161.94,139.33,164.56,133.71 Q167.19,128.09,164.24,122.47 Q161.29,116.85,162.97,111.23 Q164.66,105.61,165.06,100 Q165.47,94.38,163.19,88.76 Q160.92,83.14,163.92,77.52 Q166.93,71.9,164.79,66.28 Q162.66,60.66,162.83,55.04 Q163,49.42,165.2,43.8 Q167.4,38.19,164.47,32.57 Q161.53,26.95,164.19,21.33" />
<path d="M184.29,184.28 Q184.29,184.28,184.29,184.28 Q184.29,184.28,181.62,178.66 Q178.94,173.04,180.47,167.42 Q182,161.8,181.2,156.19 Q180.4,150.57,179,144.95 Q177.61,139.33,180.2,133.71 Q182.79,128.09,179.91,122.47 Q177.02,116.85,178.71,111.23 Q180.39,105.61,180.78,100 Q181.16,94.38,178.91,88.76 Q176.65,83.14,179.61,77.52 Q182.57,71.9,180.44,66.28 Q178.3,60.66,178.63,55.04 Q178.95,49.42,180.81,43.8 Q182.67,38.19,180.81,32.57 Q178.96,26.95,181.43,21.33 Q183.9,15.71,183.9,15.71" />
<path d="" />
<path d="" />
<path d="" />
<path d="" />
<path d="M27.06,184.28 Q27.06,184.28,23.87,178.66 Q20.68,173.04,23.48,167.42 Q26.27,161.8,25.05,156.19 Q23.82,150.57,22.56,144.95 Q21.29,139.33,23.87,133.71 Q26.45,128.09,23.57,122.47 Q20.69,116.85,22.36,111.23 Q24.04,105.61,24.43,100 Q24.81,94.38,22.57,88.76 Q20.33,83.14,23.28,77.52 Q26.23,71.9,24.18,66.28 Q22.13,60.66,22.41,55.04 Q22.68,49.42,24.72,43.8 Q26.76,38.19,23.78,32.57 Q20.8,26.95,23.62,21.33" />
<path d="M42.92,184.28 Q42.92,184.28,42.92,184.28 Q42.92,184.28,40.17,178.66 Q37.41,173.04,39.48,167.42 Q41.54,161.8,40.31,156.19 Q39.08,150.57,38.54,144.95 Q37.99,139.33,40.1,133.71 Q42.2,128.09,39.44,122.47 Q36.67,116.85,38.22,111.23 Q39.77,105.61,40.16,100 Q40.55,94.38,38.41,88.76 Q36.26,83.14,39.13,77.52 Q41.99,71.9,40.34,66.28 Q38.69,60.66,38.46,55.04 Q38.23,49.42,40.13,43.8 Q42.02,38.19,39.74,32.57 Q37.45,26.95,39.82,21.33 Q42.18,15.71,42.18,15.71" />
<path d="M58.62,161.8 Q58.62,161.8,58.62,161.8 Q58.62,161.8,56.97,156.19 Q55.33,150.57,54.28,144.95 Q53.24,139.33,55.85,133.71 Q58.45,128.09,55.29,122.47 Q52.14,116.85,53.82,111.23 Q55.51,105.61,55.89,100 Q56.28,94.38,54.02,88.76 Q51.77,83.14,55,77.52 Q58.24,71.9,56.08,66.28 Q53.93,60.66,54.26,55.04 Q54.59,49.42,56.86,43.8 Q59.12,38.19,59.12,38.19" />
<path d="M71.34,150.57 Q71.34,150.57,71.34,150.57 Q71.34,150.57,70.11,144.95 Q68.89,139.33,71.26,133.71 Q73.64,128.09,70.76,122.47 Q67.87,116.85,69.56,111.23 Q71.24,105.61,71.63,100 Q72.01,94.38,69.76,88.76 Q67.5,83.14,70.46,77.52 Q73.42,71.9,71.57,66.28 Q69.73,60.66,70.01,55.04 Q70.29,49.42,72.65,43.8 Q75.01,38.19,71.46,32.57 Q67.92,26.95,67.92,26.95" />
<path d="M90.36,184.28 Q90.36,184.28,90.36,184.28" />
<path d="M89.33,161.8 Q89.33,161.8,89.33,161.8 Q89.33,161.8,87.85,156.19 Q86.38,150.57,85.57,144.95 Q84.76,139.33,87.22,133.71 Q89.68,128.09,86.66,122.47 Q83.64,116.85,85.3,111.23 Q86.97,105.61,87.36,100 Q87.75,94.38,85.51,88.76 Q83.27,83.14,86.36,77.52 Q89.46,71.9,87.45,66.28 Q85.44,60.66,85.7,55.04 Q85.95,49.42,88.07,43.8 Q90.19,38.19,90.19,38.19" />
<path d="M89.66,15.71 Q89.66,15.71,89.66,15.71" />
<path d="M103.17,150.57 Q103.17,150.57,103.17,150.57 Q103.17,150.57,102.06,144.95 Q100.94,139.33,103.41,133.71 Q105.89,128.09,102.62,122.47 Q99.34,116.85,101.03,111.23 Q102.72,105.61,103.1,100 Q103.48,94.38,101.22,88.76 Q98.97,83.14,102.26,77.52 Q105.55,71.9,103.51,66.28 Q101.47,60.66,101.89,55.04 Q102.31,49.42,102.31,49.42" />
<path d="M121.36,161.8 Q121.36,161.8,121.36,161.8 Q121.36,161.8,120.02,156.19 Q118.69,150.57,117.4,144.95 Q116.12,139.33,118.48,133.71 Q120.84,128.09,118.03,122.47 Q115.21,116.85,116.9,111.23 Q118.59,105.61,118.95,100 Q119.31,94.38,117.05,88.76 Q114.79,83.14,117.71,77.52 Q120.62,71.9,118.71,66.28 Q116.8,60.66,117.43,55.04 Q118.05,49.42,120.09,43.8 Q122.13,38.19,122.13,38.19" />
<path d="M137.42,184.28 Q137.42,184.28,134.28,178.66 Q131.14,173.04,134.05,167.42 Q136.97,161.8,135.55,156.19 Q134.14,150.57,132.88,144.95 Q131.62,139.33,134.2,133.71 Q136.77,128.09,133.79,122.47 Q130.81,116.85,132.49,111.23 Q134.17,105.61,134.56,100 Q134.95,94.38,132.69,88.76 Q130.43,83.14,133.49,77.52 Q136.55,71.9,134.42,66.28 Q132.29,60.66,132.81,55.04 Q133.34,49.42,135.4,43.8 Q137.46,38.19,134.33,32.57 Q131.21,26.95,134,21.33 Q136.8,15.71,136.8,15.71" />
<path d="M146.34,173.04 Q146.34,173.04,146.34,173.04 Q146.34,173.04,149.29,167.42 Q152.24,161.8,150.81,156.19 Q149.37,150.57,148.25,144.95 Q147.12,139.33,149.71,133.71 Q152.3,128.09,149.43,122.47 Q146.56,116.85,148.23,111.23 Q149.91,105.61,150.3,100 Q150.68,94.38,148.45,88.76 Q146.22,83.14,149.15,77.52 Q152.09,71.9,149.95,66.28 Q147.82,60.66,148.19,55.04 Q148.56,49.42,150.66,43.8 Q152.75,38.19,149.57,32.57 Q146.39,26.95,149.61,21.33 Q152.84,15.71,152.84,15.71" />
<path d="M168.26,184.28 Q168.26,184.28,165.28,178.66 Q162.31,173.04,164.92,167.42 Q167.53,161.8,166.17,156.19 Q164.8,150.57,163.86,144.95 Q162.91,139.33,165.58,133.71 Q168.25,128.09,165.31,122.47 Q162.37,116.85,164.02,111.23 Q165.68,105.61,166.08,100 Q166.48,94.38,164.22,88.76 Q161.95,83.14,164.98,77.52 Q168,71.9,165.8,66.28 Q163.59,60.66,163.79,55.04 Q163.98,49.42,165.97,43.8 Q167.95,38.19,165.16,32.57 Q162.37,26.95,164.97,21.33" />
<path d="M184.38,184.28 Q184.38,184.28,184.38,184.28 Q184.38,184.28,181.4,178.66 Q178.41,173.04,180.74,167.42 Q183.08,161.8,182.25,156.19 Q181.42,150.57,180,144.95 Q178.59,139.33,181.18,133.71 Q183.77,128.09,180.89,122.47 Q178.01,116.85,179.69,111.23 Q181.37,105.61,181.76,100 Q182.15,94.38,179.89,88.76 Q177.63,83.14,180.59,77.52 Q183.55,71.9,181.42,66.28 Q179.29,60.66,179.81,55.04 Q180.34,49.42,181.99,43.8 Q183.63,38.19,181.04,32.57 Q178.44,26.95,181.11,21.33" />
<path d="" />
<path d="" />
<path d="" />
<path d="" />
<path d="M27.26,184.28 Q27.26,184.28,24.49,178.66 Q21.71,173.04,24.23,167.42 Q26.76,161.8,25.5,156.19 Q24.24,150.57,23.28,144.95 Q22.33,139.33,24.88,133.71 Q27.43,128.09,24.54,122.47 Q21.66,116.85,23.34,111.23 Q25.02,105.61,25.41,100 Q25.8,94.38,23.54,88.76 Q21.28,83.14,24.25,77.52 Q27.21,71.9,25.12,66.28 Q23.04,60.66,23.33,55.04 Q23.62,49.42,25.42,43.8 Q27.21,38.19,24.49,32.57 Q21.77,26.95,24.25,21.33" />
<path d="M43.25,184.28 Q43.25,184.28,43.25,184.28 Q43.25,184.28,40.33,178.66 Q37.4,173.04,39.87,167.42 Q42.34,161.8,41.18,156.19 Q40.01,150.57,39.22,144.95 Q38.43,139.33,40.79,133.71 Q43.16,128.09,40.34,122.47 Q37.51,116.85,39.14,111.23 Q40.76,105.61,41.14,100 Q41.53,94.38,39.34,88.76 Q37.15,83.14,40.04,77.52 Q42.94,71.9,41.03,66.28 Q39.11,60.66,39.14,55.04 Q39.16,49.42,41,43.8 Q42.85,38.19,40.15,32.57 Q37.44,26.95,40.02,21.33 Q42.59,15.71,42.59,15.71" />
<path d="M58.7,161.8 Q58.7,161.8,58.7,161.8 Q58.7,161.8,57.3,156.19 Q55.9,150.57,54.92,144.95 Q53.94,139.33,56.49,133.71 Q59.03,128.09,56.08,122.47 Q53.12,116.85,54.81,111.23 Q56.49,105.61,56.88,100 Q57.26,94.38,55.01,88.76 Q52.75,83.14,55.8,77.52 Q58.85,71.9,56.74,66.28 Q54.64,60.66,54.87,55.04 Q55.11,49.42,57.16,43.8 Q59.22,38.19,59.22,38.19" />
<path d="M68.59,173.04 Q68.59,173.04,68.59,173.04 Q68.59,173.04,71.51,167.42 Q74.43,161.8,73.2,156.19 Q71.97,150.57,70.85,144.95 Q69.73,139.33,72.25,133.71 Q74.77,128.09,71.81,122.47 Q68.86,116.85,70.54,111.23 Q72.22,105.61,72.61,100 Q73,94.38,70.74,88.76 Q68.48,83.14,71.48,77.52 Q74.48,71.9,72.48,66.28 Q70.47,60.66,70.75,55.04 Q71.03,49.42,72.93,43.8 Q74.82,38.19,71.74,32.57 Q68.65,26.95,68.65,26.95" />
<path d="M90.5,184.28 Q90.5,184.28,90.5,184.28" />
<path d="M90.13,161.8 Q90.13,161.8,90.13,161.8 Q90.13,161.8,88.76,156.19 Q87.39,150.57,86.41,144.95 Q85.42,139.33,87.95,133.71 Q90.49,128.09,87.54,122.47 Q84.59,116.85,86.28,111.23 Q87.97,105.61,88.37,100 Q88.78,94.38,86.5,88.76 Q84.22,83.14,87.25,77.52 Q90.27,71.9,88.17,66.28 Q86.08,60.66,86.24,55.04 Q86.4,49.42,88.56,43.8 Q90.72,38.19,90.72,38.19" />
<path d="M103.44,150.57 Q103.44,150.57,103.44,150.57 Q103.44,150.57,102.37,144.95 Q101.3,139.33,103.9,133.71 Q106.51,128.09,103.42,122.47 Q100.33,116.85,102.01,111.23 Q103.69,105.61,104.08,100 Q104.46,94.38,102.21,88.76 Q99.95,83.14,103.13,77.52 Q106.31,71.9,104.13,66.28 Q101.95,60.66,102.29,55.04 Q102.62,49.42,102.62,49.42" />
<path d="M119.04,150.57 Q119.04,150.57,119.04,150.57 Q119.04,150.57,117.94,144.95 Q116.84,139.33,119.33,133.71 Q121.82,128.09,119.03,122.47 Q116.24,116.85,117.85,111.23 Q119.46,105.61,119.83,100 Q120.2,94.38,118.01,88.76 Q115.81,83.14,118.71,77.52 Q121.6,71.9,119.56,66.28 Q117.52,60.66,117.88,55.04 Q118.23,49.42,118.23,49.42" />
<path d="M137.56,184.28 Q137.56,184.28,137.56,184.28 Q137.56,184.28,134.64,178.66 Q131.72,173.04,134.46,167.42 Q137.19,161.8,135.95,156.19 Q134.71,150.57,133.58,144.95 Q132.46,139.33,135.05,133.71 Q137.65,128.09,134.72,122.47 Q131.79,116.85,133.47,111.23 Q135.16,105.61,135.54,100 Q135.93,94.38,133.67,88.76 Q131.42,83.14,134.42,77.52 Q137.43,71.9,135.28,66.28 Q133.13,60.66,133.5,55.04 Q133.87,49.42,135.76,43.8 Q137.65,38.19,134.72,32.57 Q131.78,26.95,134.38,21.33 Q136.98,15.71,136.98,15.71" />
<path d="M147.1,173.04 Q147.1,173.04,147.1,173.04 Q147.1,173.04,149.93,167.42 Q152.75,161.8,151.47,156.19 Q150.18,150.57,149.14,144.95 Q148.11,139.33,150.7,133.71 Q153.29,128.09,150.41,122.47 Q147.52,116.85,149.21,111.23 Q150.89,105.61,151.28,100 Q151.66,94.38,149.41,88.76 Q147.15,83.14,150.11,77.52 Q153.07,71.9,150.94,66.28 Q148.8,60.66,149.08,55.04 Q149.36,49.42,151.31,43.8 Q153.26,38.19,150.21,32.57 Q147.16,26.95,147.16,26.95" />
<path d="M168.84,184.28 Q168.84,184.28,165.93,178.66 Q163.01,173.04,165.61,167.42 Q168.21,161.8,166.99,156.19 Q165.78,150.57,164.82,144.95 Q163.85,139.33,166.48,133.71 Q169.12,128.09,166.21,122.47 Q163.31,116.85,164.98,111.23 Q166.66,105.61,167.05,100 Q167.44,94.38,165.19,88.76 Q162.94,83.14,165.92,77.52 Q168.9,71.9,166.73,66.28 Q164.55,60.66,164.75,55.04 Q164.96,49.42,166.83,43.8 Q168.69,38.19,165.88,32.57 Q163.07,26.95,165.64,21.33 Q168.2,15.71,168.2,15.71" />
<path d="M184.67,184.28 Q184.67,184.28,181.79,178.66 Q178.91,173.04,181.46,167.42 Q184,161.8,182.97,156.19 Q181.94,150.57,180.75,144.95 Q179.57,139.33,182.16,133.71 Q184.75,128.09,181.87,122.47 Q178.99,116.85,180.68,111.23 Q182.37,105.61,182.8,100 Q183.23,94.38,180.92,88.76 Q178.62,83.14,181.58,77.52 Q184.54,71.9,182.4,66.28 Q180.27,60.66,180.69,55.04 Q181.1,49.42,182.82,43.8 Q184.53,38.19,181.76,32.57 Q178.98,26.95,181.54,21.33" />
<path d="" />
<path d="" />
<path d="" />
<path d="" />
<path d="M27.66,184.28 Q27.66,184.28,24.83,178.66 Q22,173.04,24.72,167.42 Q27.44,161.8,26.29,156.19 Q25.14,150.57,24.17,144.95 Q23.2,139.33,25.8,133.71 Q28.4,128.09,25.52,122.47 Q22.64,116.85,24.32,111.23 Q26.01,105.61,26.39,100 Q26.78,94.38,24.52,88.76 Q22.27,83.14,25.23,77.52 Q28.18,71.9,26.04,66.28 Q23.9,60.66,24.11,55.04 Q24.32,49.42,26.14,43.8 Q27.96,38.19,25.01,32.57 Q22.06,26.95,24.56,21.33" />
<path d="M37.75,173.04 Q37.75,173.04,37.75,173.04 Q37.75,173.04,40.47,167.42 Q43.19,161.8,42.01,156.19 Q40.84,150.57,39.86,144.95 Q38.87,139.33,41.51,133.71 Q44.14,128.09,41.25,122.47 Q38.36,116.85,40.05,111.23 Q41.74,105.61,42.13,100 Q42.51,94.38,40.25,88.76 Q37.98,83.14,40.95,77.52 Q43.92,71.9,41.75,66.28 Q39.57,60.66,39.8,55.04 Q40.04,49.42,41.87,43.8 Q43.7,38.19,40.75,32.57 Q37.8,26.95,40.26,21.33 Q42.73,15.71,42.73,15.71" />
<path d="M58.8,161.8 Q58.8,161.8,58.8,161.8 Q58.8,161.8,57.68,156.19 Q56.56,150.57,55.6,144.95 Q54.65,139.33,57.26,133.71 Q59.87,128.09,56.98,122.47 Q54.1,116.85,55.78,111.23 Q57.47,105.61,57.86,100 Q58.25,94.38,55.99,88.76 Q53.73,83.14,56.69,77.52 Q59.64,71.9,57.49,66.28 Q55.34,60.66,55.54,55.04 Q55.74,49.42,57.53,43.8 Q59.31,38.19,59.31,38.19" />
<path d="M69.22,173.04 Q69.22,173.04,69.22,173.04 Q69.22,173.04,71.9,167.42 Q74.57,161.8,73.41,156.19 Q72.25,150.57,71.31,144.95 Q70.36,139.33,72.95,133.71 Q75.55,128.09,72.69,122.47 Q69.84,116.85,71.52,111.23 Q73.21,105.61,73.59,100 Q73.98,94.38,71.72,88.76 Q69.47,83.14,72.4,77.52 Q75.33,71.9,73.19,66.28 Q71.05,60.66,71.23,55.04 Q71.41,49.42,73.25,43.8 Q75.08,38.19,72.18,32.57 Q69.28,26.95,69.28,26.95" />
<path d="M90.27,161.8 Q90.27,161.8,90.27,161.8 Q90.27,161.8,89.11,156.19 Q87.95,150.57,87.04,144.95 Q86.12,139.33,88.72,133.71 Q91.31,128.09,88.44,122.47 Q85.57,116.85,87.25,111.23 Q88.93,105.61,89.32,100 Q89.71,94.38,87.45,88.76 Q85.2,83.14,88.15,77.52 Q91.09,71.9,88.96,66.28 Q86.83,60.66,87.01,55.04 Q87.19,49.42,88.99,43.8 Q90.8,38.19,90.8,38.19" />
<path d="M103.7,150.57 Q103.7,150.57,103.7,150.57 Q103.7,150.57,102.76,144.95 Q101.83,139.33,104.41,133.71 Q107,128.09,104.12,122.47 Q101.24,116.85,102.96,111.23 Q104.67,105.61,105.05,100 Q105.43,94.38,103.16,88.76 Q100.89,83.14,103.84,77.52 Q106.78,71.9,104.66,66.28 Q102.54,60.66,102.71,55.04 Q102.88,49.42,102.88,49.42" />
<path d="M116.38,173.04 Q116.38,173.04,116.38,173.04 Q116.38,173.04,119.05,167.42 Q121.72,161.8,120.58,156.19 Q119.43,150.57,118.51,144.95 Q117.59,139.33,120.2,133.71 Q122.8,128.09,119.9,122.47 Q116.99,116.85,118.7,111.23 Q120.41,105.61,120.79,100 Q121.18,94.38,118.9,88.76 Q116.62,83.14,119.6,77.52 Q122.59,71.9,120.44,66.28 Q118.29,60.66,118.46,55.04 Q118.63,49.42,120.44,43.8 Q122.25,38.19,119.34,32.57 Q116.44,26.95,116.44,26.95" />
<path d="M137.75,184.28 Q137.75,184.28,137.75,184.28 Q137.75,184.28,134.94,178.66 Q132.12,173.04,134.82,167.42 Q137.52,161.8,136.37,156.19 Q135.22,150.57,134.28,144.95 Q133.34,139.33,135.93,133.71 Q138.52,128.09,135.65,122.47 Q132.77,116.85,134.46,111.23 Q136.14,105.61,136.53,100 Q136.91,94.38,134.66,88.76 Q132.4,83.14,135.35,77.52 Q138.3,71.9,136.17,66.28 Q134.03,60.66,134.21,55.04 Q134.38,49.42,136.21,43.8 Q138.04,38.19,135.11,32.57 Q132.18,26.95,134.67,21.33 Q137.15,15.71,137.15,15.71" />
<path d="M147.94,173.04 Q147.94,173.04,147.94,173.04 Q147.94,173.04,150.6,167.42 Q153.27,161.8,152.12,156.19 Q150.98,150.57,150.03,144.95 Q149.09,139.33,151.68,133.71 Q154.27,128.09,151.39,122.47 Q148.51,116.85,150.19,111.23 Q151.87,105.61,152.26,100 Q152.65,94.38,150.39,88.76 Q148.13,83.14,151.09,77.52 Q154.05,71.9,151.92,66.28 Q149.79,60.66,149.98,55.04 Q150.16,49.42,151.97,43.8 Q153.78,38.19,150.89,32.57 Q147.99,26.95,147.99,26.95" />
<path d="M169.24,184.28 Q169.24,184.28,169.24,184.28 Q169.24,184.28,166.44,178.66 Q163.63,173.04,166.35,167.42 Q169.06,161.8,167.9,156.19 Q166.74,150.57,165.78,144.95 Q164.82,139.33,167.41,133.71 Q169.99,128.09,167.11,122.47 Q164.24,116.85,165.92,111.23 Q167.6,105.61,167.98,100 Q168.37,94.38,166.11,88.76 Q163.86,83.14,166.82,77.52 Q169.77,71.9,167.64,66.28 Q165.51,60.66,165.72,55.04 Q165.92,49.42,167.75,43.8 Q169.58,38.19,166.63,32.57 Q163.69,26.95,166.17,21.33 Q168.65,15.71,168.65,15.71" />
<path d="M185,184.28 Q185,184.28,182.17,178.66 Q179.33,173.04,182.06,167.42 Q184.79,161.8,183.6,156.19 Q182.41,150.57,181.48,144.95 Q180.56,139.33,183.15,133.71 Q185.74,128.09,182.85,122.47 Q179.97,116.85,181.64,111.23 Q183.32,105.61,183.71,100 Q184.09,94.38,181.85,88.76 Q179.6,83.14,182.56,77.52 Q185.52,71.9,183.39,66.28 Q181.25,60.66,181.41,55.04 Q181.58,49.42,183.44,43.8 Q185.31,38.19,182.35,32.57 Q179.39,26.95,181.89,21.33" />
<path d="" />
<path d="" />
<path d="" />
<path d="" />
<path d="M28.18,184.28 Q28.18,184.28,25.52,178.66 Q22.86,173.04,25.55,167.42 Q28.23,161.8,27.16,156.19 Q26.09,150.57,25.06,144.95 Q24.04,139.33,26.71,133.71 Q29.38,128.09,26.5,122.47 Q23.62,116.85,25.31,111.23 Q26.99,105.61,27.38,100 Q27.76,94.38,25.51,88.76 Q23.25,83.14,26.21,77.52 Q29.16,71.9,26.95,66.28 Q24.74,60.66,25,55.04 Q25.26,49.42,26.99,43.8 Q28.72,38.19,25.83,32.57 Q22.93,26.95,25.26,21.33" />
<path d="M38.29,173.04 Q38.29,173.04,38.29,173.04 Q38.29,173.04,41.14,167.42 Q43.99,161.8,42.74,156.19 Q41.49,150.57,40.43,144.95 Q39.37,139.33,42.24,133.71 Q45.12,128.09,42.17,122.47 Q39.22,116.85,40.97,111.23 Q42.72,105.61,43.11,100 Q43.5,94.38,41.14,88.76 Q38.79,83.14,41.85,77.52 Q44.9,71.9,42.5,66.28 Q40.1,60.66,40.43,55.04 Q40.77,49.42,42.6,43.8 Q44.44,38.19,41.4,32.57 Q38.35,26.95,38.35,26.95" />
<path d="M58.9,161.8 Q58.9,161.8,58.9,161.8 Q58.9,161.8,58.16,156.19 Q57.43,150.57,56.39,144.95 Q55.36,139.33,58.1,133.71 Q60.84,128.09,57.9,122.47 Q54.97,116.85,56.71,111.23 Q58.46,105.61,58.84,100 Q59.23,94.38,56.9,88.76 Q54.58,83.14,57.6,77.52 Q60.62,71.9,58.34,66.28 Q56.07,60.66,56.26,55.04 Q56.45,49.42,57.93,43.8 Q59.41,38.19,59.41,38.19" />
<path d="M69.6,173.04 Q69.6,173.04,69.6,173.04 Q69.6,173.04,72.17,167.42 Q74.74,161.8,73.63,156.19 Q72.52,150.57,71.73,144.95 Q70.93,139.33,73.61,133.71 Q76.28,128.09,73.54,122.47 Q70.79,116.85,72.49,111.23 Q74.19,105.61,74.58,100 Q74.96,94.38,72.69,88.76 Q70.42,83.14,73.23,77.52 Q76.04,71.9,73.85,66.28 Q71.66,60.66,71.76,55.04 Q71.86,49.42,73.58,43.8 Q75.3,38.19,72.48,32.57 Q69.66,26.95,69.66,26.95" />
<path d="M90.6,161.8 Q90.6,161.8,90.6,161.8 Q90.6,161.8,89.58,156.19 Q88.56,150.57,87.79,144.95 Q87.03,139.33,89.56,133.71 Q92.1,128.09,89.33,122.47 Q86.56,116.85,88.23,111.23 Q89.89,105.61,90.29,100 Q90.69,94.38,88.44,88.76 Q86.18,83.14,89.03,77.52 Q91.89,71.9,89.85,66.28 Q87.8,60.66,87.57,55.04 Q87.34,49.42,89.26,43.8 Q91.18,38.19,91.18,38.19" />
<path d="" />
<path d="M104.01,150.57 Q104.01,150.57,104.01,150.57 Q104.01,150.57,103.31,144.95 Q102.62,139.33,105.14,133.71 Q107.66,128.09,104.64,122.47 Q101.63,116.85,103.57,111.23 Q105.52,105.61,105.88,100 Q106.25,94.38,103.76,88.76 Q101.28,83.14,104.33,77.52 Q107.38,71.9,105.41,66.28 Q103.43,60.66,103.29,55.04 Q103.15,49.42,104.84,43.8 Q106.52,38.19,106.52,38.19" />
<path d="M122.29,184.28 Q122.29,184.28,122.29,184.28 Q122.29,184.28,119.5,178.66 Q116.71,173.04,119.3,167.42 Q121.88,161.8,121.02,156.19 Q120.16,150.57,119.26,144.95 Q118.36,139.33,121.07,133.71 Q123.79,128.09,120.81,122.47 Q117.83,116.85,119.61,111.23 Q121.39,105.61,121.78,100 Q122.16,94.38,119.77,88.76 Q117.39,83.14,120.48,77.52 Q123.57,71.9,121.3,66.28 Q119.03,60.66,118.97,55.04 Q118.91,49.42,120.69,43.8 Q122.47,38.19,119.61,32.57 Q116.76,26.95,119.21,21.33 Q121.66,15.71,121.66,15.71" />
<path d="M137.83,184.28 Q137.83,184.28,137.83,184.28 Q137.83,184.28,135.2,178.66 Q132.57,173.04,135.3,167.42 Q138.02,161.8,136.97,156.19 Q135.93,150.57,135.04,144.95 Q134.15,139.33,136.75,133.71 Q139.35,128.09,136.55,122.47 Q133.76,116.85,135.44,111.23 Q137.12,105.61,137.51,100 Q137.89,94.38,135.64,88.76 Q133.38,83.14,136.26,77.52 Q139.14,71.9,136.89,66.28 Q134.65,60.66,134.85,55.04 Q135.04,49.42,136.79,43.8 Q138.55,38.19,135.59,32.57 Q132.63,26.95,134.97,21.33 Q137.31,15.71,137.31,15.71" />
<path d="M148.73,173.04 Q148.73,173.04,148.73,173.04 Q148.73,173.04,151.26,167.42 Q153.78,161.8,152.77,156.19 Q151.75,150.57,150.91,144.95 Q150.07,139.33,152.66,133.71 Q155.25,128.09,152.37,122.47 Q149.49,116.85,151.17,111.23 Q152.86,105.61,153.24,100 Q153.63,94.38,151.37,88.76 Q149.12,83.14,152.08,77.52 Q155.04,71.9,152.9,66.28 Q150.77,60.66,150.86,55.04 Q150.94,49.42,152.62,43.8 Q154.3,38.19,151.54,32.57 Q148.78,26.95,148.78,26.95" />
<path d="M169.58,184.28 Q169.58,184.28,169.58,184.28 Q169.58,184.28,166.88,178.66 Q164.19,173.04,167.08,167.42 Q169.96,161.8,168.83,156.19 Q167.7,150.57,166.71,144.95 Q165.72,139.33,168.33,133.71 Q170.95,128.09,168.09,122.47 Q165.22,116.85,166.87,111.23 Q168.52,105.61,168.91,100 Q169.29,94.38,167.07,88.76 Q164.85,83.14,167.78,77.52 Q170.72,71.9,168.5,66.28 Q166.28,60.66,166.58,55.04 Q166.88,49.42,168.68,43.8 Q170.47,38.19,167.36,32.57 Q164.24,26.95,166.61,21.33 Q168.98,15.71,168.98,15.71" />
<path d="M185.57,184.28 Q185.57,184.28,182.76,178.66 Q179.95,173.04,182.83,167.42 Q185.71,161.8,184.56,156.19 Q183.4,150.57,182.47,144.95 Q181.54,139.33,184.13,133.71 Q186.72,128.09,183.83,122.47 Q180.93,116.85,182.57,111.23 Q184.22,105.61,184.65,100 Q185.09,94.38,182.82,88.76 Q180.55,83.14,183.53,77.52 Q186.5,71.9,184.34,66.28 Q182.19,60.66,182.19,55.04 Q182.19,49.42,184.2,43.8 Q186.21,38.19,183.12,32.57 Q180.02,26.95,182.51,21.33" />
<path d="" />
<path d="" />
<path d="" />
<path d="" />
<path d="" />
<path d="M12.24,105.61 Q12.24,105.61,12.63,100" />
<path d="M28.64,184.28 Q28.64,184.28,25.99,178.66 Q23.33,173.04,26.14,167.42 Q28.95,161.8,27.86,156.19 Q26.77,150.57,25.85,144.95 Q24.94,139.33,27.65,133.71 Q30.37,128.09,27.49,122.47 Q24.6,116.85,26.29,111.23 Q27.97,105.61,28.36,100 Q28.75,94.38,26.49,88.76 Q24.23,83.14,27.19,77.52 Q30.15,71.9,27.99,66.28 Q25.83,60.66,26.02,55.04 Q26.21,49.42,27.86,43.8 Q29.5,38.19,26.4,32.57 Q23.31,26.95,25.7,21.33" />
<path d="M38.95,173.04 Q38.95,173.04,38.95,173.04 Q38.95,173.04,41.74,167.42 Q44.52,161.8,43.22,156.19 Q41.93,150.57,40.94,144.95 Q39.94,139.33,43.02,133.71 Q46.1,128.09,43.22,122.47 Q40.33,116.85,42.02,111.23 Q43.71,105.61,44.09,100 Q44.48,94.38,42.19,88.76 Q39.9,83.14,42.89,77.52 Q45.89,71.9,43.3,66.28 Q40.72,60.66,41.01,55.04 Q41.29,49.42,43.08,43.8 Q44.88,38.19,41.94,32.57 Q39,26.95,39,26.95" />
<path d="M53.46,173.04 Q53.46,173.04,53.46,173.04 Q53.46,173.04,56.25,167.42 Q59.04,161.8,58.7,156.19 Q58.36,150.57,57.22,144.95 Q56.09,139.33,58.96,133.71 Q61.82,128.09,58.86,122.47 Q55.9,116.85,57.67,111.23 Q59.44,105.61,59.83,100 Q60.21,94.38,57.87,88.76 Q55.52,83.14,58.56,77.52 Q61.6,71.9,59.19,66.28 Q56.78,60.66,57.12,55.04 Q57.46,49.42,58.49,43.8 Q59.52,38.19,56.52,32.57 Q53.52,26.95,53.52,26.95" />
<path d="M75.14,184.28 Q75.14,184.28,75.14,184.28 Q75.14,184.28,72.65,178.66 Q70.16,173.04,72.83,167.42 Q75.5,161.8,74.22,156.19 Q72.94,150.57,72.26,144.95 Q71.59,139.33,74.33,133.71 Q77.08,128.09,74.44,122.47 Q71.79,116.85,73.48,111.23 Q75.17,105.61,75.56,100 Q75.95,94.38,73.67,88.76 Q71.39,83.14,74.13,77.52 Q76.86,71.9,74.62,66.28 Q72.38,60.66,72.16,55.04 Q71.94,49.42,74.15,43.8 Q76.35,38.19,73.3,32.57 Q70.24,26.95,72.27,21.33 Q74.29,15.71,74.29,15.71" />
<path d="M85.16,173.04 Q85.16,173.04,85.16,173.04 Q85.16,173.04,88.11,167.42 Q91.05,161.8,90.41,156.19 Q89.76,150.57,88.93,144.95 Q88.09,139.33,90.41,133.71 Q92.74,128.09,90.14,122.47 Q87.54,116.85,89.22,111.23 Q90.89,105.61,91.25,100 Q91.61,94.38,89.39,88.76 Q87.17,83.14,89.87,77.52 Q92.57,71.9,90.69,66.28 Q88.82,60.66,88.65,55.04 Q88.49,49.42,90.05,43.8 Q91.61,38.19,88.43,32.57 Q85.25,26.95,85.25,26.95" />
<path d="M106.18,161.8 Q106.18,161.8,106.18,161.8 Q106.18,161.8,105.29,156.19 Q104.4,150.57,104.03,144.95 Q103.66,139.33,106.32,133.71 Q108.98,128.09,105.55,122.47 Q102.11,116.85,104.23,111.23 Q106.35,105.61,106.82,100 Q107.29,94.38,104.49,88.76 Q101.69,83.14,105.18,77.52 Q108.66,71.9,106.57,66.28 Q104.48,60.66,104,55.04 Q103.52,49.42,105.21,43.8 Q106.9,38.19,106.9,38.19" />
<path d="M122.62,184.28 Q122.62,184.28,122.62,184.28 Q122.62,184.28,119.57,178.66 Q116.53,173.04,119.39,167.42 Q122.25,161.8,121.83,156.19 Q121.41,150.57,120.23,144.95 Q119.05,139.33,121.91,133.71 Q124.77,128.09,121.87,122.47 Q118.96,116.85,120.67,111.23 Q122.37,105.61,122.76,100 Q123.15,94.38,120.81,88.76 Q118.48,83.14,121.52,77.52 Q124.55,71.9,122.07,66.28 Q119.59,60.66,119.89,55.04 Q120.19,49.42,121.49,43.8 Q122.78,38.19,119.67,32.57 Q116.55,26.95,119.28,21.33 Q122,15.71,122,15.71" />
<path d="M137.86,184.28 Q137.86,184.28,137.86,184.28 Q137.86,184.28,135.31,178.66 Q132.77,173.04,135.66,167.42 Q138.54,161.8,137.57,156.19 Q136.6,150.57,135.5,144.95 Q134.39,139.33,137.26,133.71 Q140.12,128.09,137.43,122.47 Q134.74,116.85,136.42,111.23 Q138.1,105.61,138.49,100 Q138.87,94.38,136.62,88.76 Q134.37,83.14,137.14,77.52 Q139.91,71.9,137.38,66.28 Q134.85,60.66,135.33,55.04 Q135.82,49.42,137.43,43.8 Q139.05,38.19,135.94,32.57 Q132.82,26.95,135.04,21.33 Q137.26,15.71,137.26,15.71" />
<path d="M149.21,173.04 Q149.21,173.04,149.21,173.04 Q149.21,173.04,151.75,167.42 Q154.3,161.8,153.41,156.19 Q152.52,150.57,151.79,144.95 Q151.06,139.33,153.65,133.71 Q156.24,128.09,153.35,122.47 Q150.47,116.85,152.15,111.23 Q153.84,105.61,154.23,100 Q154.61,94.38,152.35,88.76 Q150.09,83.14,153.05,77.52 Q156.02,71.9,153.89,66.28 Q151.75,60.66,151.73,55.04 Q151.71,49.42,153.26,43.8 Q154.81,38.19,152.03,32.57 Q149.25,26.95,149.25,26.95" />
<path d="M170.54,184.28 Q170.54,184.28,170.54,184.28 Q170.54,184.28,167.64,178.66 Q164.73,173.04,167.79,167.42 Q170.84,161.8,169.77,156.19 Q168.69,150.57,167.47,144.95 Q166.24,139.33,169.1,133.71 Q171.96,128.09,169.08,122.47 Q166.21,116.85,167.83,111.23 Q169.45,105.61,169.85,100 Q170.26,94.38,168.04,88.76 Q165.83,83.14,168.79,77.52 Q171.74,71.9,169.21,66.28 Q166.67,60.66,167.26,55.04 Q167.85,49.42,169.6,43.8 Q171.34,38.19,168.07,32.57 Q164.79,26.95,167.27,21.33 Q169.74,15.71,169.74,15.71" />
<path d="M186.03,184.28 Q186.03,184.28,183.47,178.66 Q180.91,173.04,183.71,167.42 Q186.52,161.8,185.47,156.19 Q184.41,150.57,183.4,144.95 Q182.38,139.33,185.04,133.71 Q187.7,128.09,184.82,122.47 Q181.94,116.85,183.62,111.23 Q185.31,105.61,185.69,100 Q186.08,94.38,183.82,88.76 Q181.55,83.14,184.52,77.52 Q187.49,71.9,185.24,66.28 Q183,60.66,183.28,55.04 Q183.56,49.42,185.14,43.8 Q186.72,38.19,183.85,32.57 Q180.98,26.95,183.22,21.33 Q185.47,15.71,185.47,15.71" />
<path d="" />
<path d="" />
<path d="" />
<path d="" />
<path d="M14.19,161.8 Q14.19,161.8,13.21,156.19 M10.23,139.33 Q10.23,139.33,12.93,133.71 Q15.62,128.09,12.74,122.47 M13.22,105.61 Q13.22,105.61,13.61,100 M9.48,83.14 Q9.48,83.14,12.44,77.52 Q15.4,71.9,13.16,66.28 M11.54,49.42 Q11.54,49.42,12.99,43.8" />
<path d="M28.52,184.28 Q28.52,184.28,25.45,178.66 Q22.39,173.04,26.1,167.42 Q29.82,161.8,28.79,156.19 Q27.76,150.57,26.96,144.95 Q26.15,139.33,28.75,133.71 Q31.35,128.09,28.42,122.47 Q25.48,116.85,27.22,111.23 Q28.96,105.61,29.34,100 Q29.73,94.38,27.44,88.76 Q25.16,83.14,28.15,77.52 Q31.14,71.9,28.99,66.28 Q26.85,60.66,26.79,55.04 Q26.72,49.42,28.45,43.8 Q30.17,38.19,26.3,32.57 Q22.42,26.95,25.39,21.33" />
<path d="M39.44,173.04 Q39.44,173.04,39.44,173.04 Q39.44,173.04,42.14,167.42 Q44.84,161.8,43.54,156.19 Q42.24,150.57,41.44,144.95 Q40.65,139.33,43.87,133.71 Q47.09,128.09,44.21,122.47 Q41.32,116.85,43.01,111.23 Q44.69,105.61,45.07,100 Q45.45,94.38,43.2,88.76 Q40.95,83.14,43.91,77.52 Q46.87,71.9,44.18,66.28 Q41.49,60.66,41.56,55.04 Q41.62,49.42,43.48,43.8 Q45.33,38.19,42.4,32.57 Q39.47,26.95,39.47,26.95" />
<path d="M53.64,173.04 Q53.64,173.04,53.64,173.04 Q53.64,173.04,56.38,167.42 Q59.12,161.8,59.21,156.19 Q59.31,150.57,58.05,144.95 Q56.8,139.33,59.81,133.71 Q62.81,128.09,59.68,122.47 Q56.55,116.85,58.49,111.23 Q60.42,105.61,60.81,100 Q61.2,94.38,58.75,88.76 Q56.31,83.14,59.45,77.52 Q62.59,71.9,60.04,66.28 Q57.48,60.66,57.96,55.04 Q58.44,49.42,59.05,43.8 Q59.67,38.19,56.69,32.57 Q53.71,26.95,53.71,26.95" />
<path d="M75.75,184.28 Q75.75,184.28,75.75,184.28 Q75.75,184.28,73.46,178.66 Q71.16,173.04,73.86,167.42 Q76.56,161.8,75.27,156.19 Q73.98,150.57,73.19,144.95 Q72.4,139.33,75.14,133.71 Q77.89,128.09,75.34,122.47 Q72.79,116.85,74.47,111.23 Q76.16,105.61,76.54,100 Q76.93,94.38,74.67,88.76 Q72.42,83.14,75.03,77.52 Q77.65,71.9,75.44,66.28 Q73.24,60.66,72.93,55.04 Q72.63,49.42,74.8,43.8 Q76.98,38.19,74.11,32.57 Q71.24,26.95,73.08,21.33 Q74.91,15.71,74.91,15.71" />
<path d="M91.42,184.28 Q91.42,184.28,88.64,178.66 Q85.86,173.04,88.73,167.42 Q91.59,161.8,91.02,156.19 Q90.44,150.57,89.77,144.95 Q89.11,139.33,91.1,133.71 Q93.1,128.09,90.81,122.47 Q88.52,116.85,90.13,111.23 Q91.74,105.61,92.06,100 Q92.39,94.38,90.27,88.76 Q88.15,83.14,90.55,77.52 Q92.94,71.9,91.37,66.28 Q89.8,60.66,89.81,55.04 Q89.82,49.42,90.99,43.8 Q92.16,38.19,89.04,32.57 Q85.93,26.95,88.03,21.33" />
<path d="M100.63,173.04 Q100.63,173.04,100.63,173.04 Q100.63,173.04,103.73,167.42 Q106.83,161.8,105.84,156.19 Q104.86,150.57,104.81,144.95 Q104.76,139.33,107.39,133.71 Q110.02,128.09,106.26,122.47 Q102.5,116.85,105,111.23 Q107.49,105.61,107.93,100 Q108.36,94.38,105.31,88.76 Q102.27,83.14,106.04,77.52 Q109.8,71.9,107.65,66.28 Q105.5,60.66,104.73,55.04 Q103.95,49.42,105.74,43.8 Q107.52,38.19,104.11,32.57 Q100.69,26.95,100.69,26.95" />
<path d="M122.39,161.8 Q122.39,161.8,122.39,161.8 Q122.39,161.8,122.4,156.19 Q122.42,150.57,120.92,144.95 Q119.42,139.33,122.59,133.71 Q125.75,128.09,122.87,122.47 Q119.99,116.85,121.67,111.23 Q123.36,105.61,123.74,100 Q124.13,94.38,121.87,88.76 Q119.62,83.14,122.58,77.52 Q125.54,71.9,122.62,66.28 Q119.7,60.66,120.63,55.04 Q121.56,49.42,122.18,43.8 Q122.81,38.19,122.81,38.19" />
<path d="M138.88,184.28 Q138.88,184.28,138.88,184.28 Q138.88,184.28,135.94,178.66 Q133,173.04,136.03,167.42 Q139.06,161.8,138.2,156.19 Q137.33,150.57,135.92,144.95 Q134.5,139.33,137.66,133.71 Q140.82,128.09,138.27,122.47 Q135.72,116.85,137.4,111.23 Q139.08,105.61,139.46,100 Q139.84,94.38,137.6,88.76 Q135.35,83.14,137.99,77.52 Q140.63,71.9,137.84,66.28 Q135.06,60.66,135.76,55.04 Q136.46,49.42,138,43.8 Q139.54,38.19,136.3,32.57 Q133.05,26.95,135.3,21.33" />
<path d="M149.38,173.04 Q149.38,173.04,149.38,173.04 Q149.38,173.04,152.09,167.42 Q154.8,161.8,154.07,156.19 Q153.33,150.57,152.68,144.95 Q152.04,139.33,154.63,133.71 Q157.22,128.09,154.34,122.47 Q151.46,116.85,153.14,111.23 Q154.82,105.61,155.21,100 Q155.6,94.38,153.34,88.76 Q151.08,83.14,154.04,77.52 Q157,71.9,154.87,66.28 Q152.74,60.66,152.61,55.04 Q152.48,49.42,153.9,43.8 Q155.31,38.19,152.36,32.57 Q149.41,26.95,149.41,26.95" />
<path d="M171.32,184.28 Q171.32,184.28,171.32,184.28 Q171.32,184.28,168.32,178.66 Q165.32,173.04,168.52,167.42 Q171.72,161.8,170.7,156.19 Q169.68,150.57,168.04,144.95 Q166.39,139.33,169.67,133.71 Q172.95,128.09,170.07,122.47 Q167.19,116.85,168.82,111.23 Q170.44,105.61,170.86,100 Q171.28,94.38,169.05,88.76 Q166.82,83.14,169.77,77.52 Q172.73,71.9,169.71,66.28 Q166.7,60.66,167.78,55.04 Q168.85,49.42,170.58,43.8 Q172.31,38.19,168.85,32.57 Q165.38,26.95,168.05,21.33 Q170.72,15.71,170.72,15.71" />
<path d="M186.69,184.28 Q186.69,184.28,186.69,184.28 Q186.69,184.28,184.3,178.66 Q181.91,173.04,184.23,167.42 Q186.56,161.8,185.99,156.19 Q185.43,150.57,184.28,144.95 Q183.14,139.33,185.92,133.71 Q188.69,128.09,185.81,122.47 Q182.92,116.85,184.61,111.23 Q186.29,105.61,186.68,100 Q187.06,94.38,184.81,88.76 Q182.55,83.14,185.51,77.52 Q188.47,71.9,186.13,66.28 Q183.79,60.66,184.2,55.04 Q184.6,49.42,185.72,43.8 Q186.84,38.19,184.4,32.57 Q181.96,26.95,183.98,21.33" />
<path d="" />
<path d="" />
</g>
<g fill="none" inkscape:groupmode="layer" inkscape:label="rgb(64,128,77)" stroke="rgb(64,128,77)" stroke-linecap="round" stroke-linejoin="round" stroke-width="0.3">
<path d="" />
<path d="" />
<path d="M18.66,15.71 Q18.66,15.71,15.09,21.33 Q11.52,26.95,15.23,32.57 Q18.94,38.19,15.8,43.8 Q12.65,49.42,12.6,55.04 Q12.55,60.66,14.53,66.28 Q16.51,71.9,13.49,77.52 Q10.47,83.14,12.72,88.76 Q14.98,94.38,14.59,100 Q14.21,105.61,12.52,111.23 Q10.84,116.85,13.78,122.47 Q16.71,128.09,14.21,133.71 Q11.71,139.33,12.53,144.95 Q13.34,150.57,15.57,156.19 Q17.79,161.8,14.63,167.42 Q11.47,173.04,15.3,178.66" />
<path d="M34.07,15.71 Q34.07,15.71,31.46,21.33 Q28.84,26.95,31.29,32.57 Q33.74,38.19,31.17,43.8 Q28.59,49.42,28.46,55.04 Q28.33,60.66,30.22,66.28 Q32.12,71.9,29.29,77.52 Q26.45,83.14,28.58,88.76 Q30.71,94.38,30.33,100 Q29.94,105.61,28.41,111.23 Q26.89,116.85,29.61,122.47 Q32.34,128.09,29.79,133.71 Q27.25,139.33,28.24,144.95 Q29.24,150.57,31.02,156.19 Q32.8,161.8,30.82,167.42 Q28.84,173.04,31.82,178.66" />
<path d="M44.07,26.95 Q44.07,26.95,44.07,26.95 Q44.07,26.95,46.52,32.57 Q48.98,38.19,47.47,43.8 Q45.96,49.42,45.31,55.04 Q44.67,60.66,46.26,66.28 Q47.85,71.9,44.89,77.52 Q41.93,83.14,44.21,88.76 Q46.5,94.38,46.12,100 Q45.73,105.61,44.02,111.23 Q42.31,116.85,45.19,122.47 Q48.07,128.09,46.11,133.71 Q44.15,139.33,45.54,144.95 Q46.92,150.57,47.79,156.19 Q48.67,161.8,46.32,167.42 Q43.97,173.04,43.97,173.04" />
<path d="M60.75,26.95 Q60.75,26.95,60.75,26.95 Q60.75,26.95,63.64,32.57 Q66.54,38.19,63.28,43.8 Q60.02,49.42,60.21,55.04 Q60.39,60.66,62.02,66.28 Q63.64,71.9,60.95,77.52 Q58.26,83.14,60.22,88.76 Q62.18,94.38,61.79,100 Q61.41,105.61,59.84,111.23 Q58.27,116.85,61.09,122.47 Q63.91,128.09,61.79,133.71 Q59.67,139.33,60.23,144.95 Q60.8,150.57,63.47,156.19 Q66.13,161.8,63.42,167.42 Q60.71,173.04,60.71,173.04" />
<path d="M80.74,15.71 Q80.74,15.71,80.74,15.71 Q80.74,15.71,77.67,21.33 Q74.61,26.95,77.44,32.57 Q80.28,38.19,78.65,43.8 Q77.02,49.42,76.47,55.04 Q75.91,60.66,77.95,66.28 Q80,71.9,76.7,77.52 Q73.4,83.14,75.66,88.76 Q77.91,94.38,77.53,100 Q77.14,105.61,75.46,111.23 Q73.77,116.85,76.97,122.47 Q80.18,128.09,77.74,133.71 Q75.31,139.33,76.75,144.95 Q78.19,150.57,79.11,156.19 Q80.03,161.8,77.28,167.42 Q74.53,173.04,77.84,178.66 Q81.16,184.28,81.16,184.28" />
<path d="M96.34,15.71 Q96.34,15.71,94.06,21.33 Q91.78,26.95,94.41,32.57 Q97.05,38.19,94.55,43.8 Q92.05,49.42,91.42,55.04 Q90.79,60.66,93.43,66.28 Q96.07,71.9,92.6,77.52 Q89.13,83.14,91.39,88.76 Q93.65,94.38,93.37,100 Q93.09,105.61,91.3,111.23 Q89.51,116.85,92.74,122.47 Q95.97,128.09,93.03,133.71 Q90.09,139.33,92.07,144.95 Q94.05,150.57,95.29,156.19 Q96.53,161.8,94.11,167.42 Q91.69,173.04,94.35,178.66" />
<path d="M113.27,38.19 Q113.27,38.19,113.27,38.19 Q113.27,38.19,111.24,43.8 Q109.22,49.42,107.88,55.04 Q106.54,60.66,108.66,66.28 Q110.79,71.9,109,77.52 Q107.22,83.14,108.37,88.76 Q109.52,94.38,109.09,100 Q108.65,105.61,108.08,111.23 Q107.51,116.85,109.26,122.47 Q111,128.09,108.43,133.71 Q105.85,139.33,107.9,144.95 Q109.94,150.57,111.26,156.19 Q112.57,161.8,112.57,161.8" />
<path d="M128.7,38.19 Q128.7,38.19,128.7,38.19 Q128.7,38.19,125.73,43.8 Q122.75,49.42,123.78,55.04 Q124.81,60.66,125.67,66.28 Q126.52,71.9,123.56,77.52 Q120.6,83.14,122.86,88.76 Q125.11,94.38,124.73,100 Q124.34,105.61,122.66,111.23 Q120.97,116.85,123.86,122.47 Q126.74,128.09,125.22,133.71 Q123.7,139.33,123.63,144.95 Q123.57,150.57,126.16,156.19 Q128.76,161.8,128.76,161.8" />
<path d="M142.91,15.71 Q142.91,15.71,140.93,21.33 Q138.94,26.95,141.49,32.57 Q144.04,38.19,141.74,43.8 Q139.44,49.42,139.88,55.04 Q140.32,60.66,141.74,66.28 Q143.16,71.9,139.75,77.52 Q136.33,83.14,138.61,88.76 Q140.88,94.38,140.5,100 Q140.11,105.61,138.41,111.23 Q136.71,116.85,140.06,122.47 Q143.41,128.09,141.56,133.71 Q139.71,139.33,139.86,144.95 Q140.02,150.57,141.74,156.19 Q143.46,161.8,141.17,167.42 Q138.88,173.04,140.95,178.66" />
<path d="M154.01,26.95 Q154.01,26.95,154.01,26.95 Q154.01,26.95,156.81,32.57 Q159.61,38.19,157.24,43.8 Q154.88,49.42,154.3,55.04 Q153.72,60.66,155.85,66.28 Q157.99,71.9,155.1,77.52 Q152.21,83.14,154.39,88.76 Q156.58,94.38,156.19,100 Q155.81,105.61,154.39,111.23 Q152.98,116.85,155.59,122.47 Q158.2,128.09,155.61,133.71 Q153.02,139.33,154.32,144.95 Q155.62,150.57,157.36,156.19 Q159.1,161.8,156.53,167.42 Q153.96,173.04,153.96,173.04" />
<path d="M173.91,15.71 Q173.91,15.71,173.91,15.71 Q173.91,15.71,171.55,21.33 Q169.19,26.95,171.46,32.57 Q173.73,38.19,171.8,43.8 Q169.87,49.42,170.77,55.04 Q171.67,60.66,172.7,66.28 Q173.72,71.9,170.76,77.52 Q167.8,83.14,170.06,88.76 Q172.31,94.38,171.94,100 Q171.57,105.61,169.87,111.23 Q168.17,116.85,171.06,122.47 Q173.94,128.09,172.46,133.71 Q170.98,139.33,170.84,144.95 Q170.69,150.57,171.97,156.19 Q173.25,161.8,171.19,167.42 Q169.14,173.04,171.92,178.66 Q174.71,184.28,174.71,184.28" />
<path d="M189.93,15.71 Q189.93,15.71,186.99,21.33 M185.59,49.42 Q185.59,49.42,185.62,55.04 Q185.64,60.66,187.55,66.28 Q189.45,71.9,186.49,77.52 Q183.53,83.14,185.79,88.76 M187.27,105.61 Q187.27,105.61,185.59,111.23 Q183.91,116.85,186.79,122.47 Q189.67,128.09,187.33,133.71 Q185,139.33,185.7,144.95 M190.67,161.8 Q190.67,161.8,187.33,167.42 Q184,173.04,187.19,178.66" />
<path d="" />
<path d="" />
<path d="" />
<path d="M18.76,15.71 Q18.76,15.71,15.61,21.33 Q12.46,26.95,15.82,32.57 Q19.19,38.19,16.35,43.8 Q13.51,49.42,13.57,55.04 Q13.64,60.66,15.52,66.28 Q17.4,71.9,14.43,77.52 Q11.45,83.14,13.71,88.76 Q15.96,94.38,15.58,100 Q15.19,105.61,13.51,111.23 Q11.82,116.85,14.72,122.47 Q17.61,128.09,15.2,133.71 Q12.78,139.33,13.75,144.95 Q14.71,150.57,16.75,156.19 Q18.78,161.8,15.57,167.42 Q12.37,173.04,15.97,178.66" />
<path d="M34.2,15.71 Q34.2,15.71,31.24,21.33 Q28.27,26.95,31.43,32.57 Q34.59,38.19,31.97,43.8 Q29.36,49.42,29.47,55.04 Q29.59,60.66,31.35,66.28 Q33.1,71.9,30.28,77.52 Q27.46,83.14,29.58,88.76 Q31.7,94.38,31.31,100 Q30.92,105.61,29.35,111.23 Q27.77,116.85,30.55,122.47 Q33.32,128.09,31.03,133.71 Q28.73,139.33,29.48,144.95 Q30.24,150.57,32.09,156.19 Q33.93,161.8,31.1,167.42 Q28.27,173.04,31.37,178.66" />
<path d="M44.88,26.95 Q44.88,26.95,44.88,26.95 Q44.88,26.95,47.12,32.57 Q49.36,38.19,47.96,43.8 Q46.55,49.42,45.85,55.04 Q45.14,60.66,46.99,66.28 Q48.84,71.9,45.88,77.52 Q42.92,83.14,45.17,88.76 Q47.43,94.38,47.04,100 Q46.66,105.61,44.97,111.23 Q43.29,116.85,46.17,122.47 Q49.05,128.09,46.83,133.71 Q44.61,139.33,46.17,144.95 Q47.73,150.57,48.37,156.19 Q49,161.8,46.9,167.42 Q44.81,173.04,44.81,173.04" />
<path d="M60.61,26.95 Q60.61,26.95,60.61,26.95 Q60.61,26.95,63.55,32.57 Q66.48,38.19,63.69,43.8 Q60.89,49.42,61,55.04 Q61.12,60.66,62.99,66.28 Q64.87,71.9,61.76,77.52 Q58.65,83.14,60.91,88.76 Q63.17,94.38,62.78,100 Q62.39,105.61,60.71,111.23 Q59.02,116.85,62.1,122.47 Q65.18,128.09,62.79,133.71 Q60.41,139.33,61.04,144.95 Q61.67,150.57,63.88,156.19 Q66.09,161.8,63.34,167.42 Q60.59,173.04,60.59,173.04" />
<path d="M80.93,15.71 Q80.93,15.71,80.93,15.71 Q80.93,15.71,78.29,21.33 Q75.66,26.95,78.76,32.57 Q81.86,38.19,79.92,43.8 Q77.99,49.42,77.31,55.04 Q76.64,60.66,78.69,66.28 Q80.74,71.9,77.56,77.52 Q74.38,83.14,76.64,88.76 Q78.9,94.38,78.51,100 Q78.12,105.61,76.44,111.23 Q74.76,116.85,77.81,122.47 Q80.86,128.09,78.41,133.71 Q75.95,139.33,77.6,144.95 Q79.24,150.57,79.89,156.19 Q80.54,161.8,78.06,167.42 Q75.58,173.04,78.59,178.66 Q81.6,184.28,81.6,184.28" />
<path d="M96.94,15.71 Q96.94,15.71,94.77,21.33 Q92.6,26.95,94.95,32.57 Q97.31,38.19,95.61,43.8 Q93.9,49.42,93.03,55.04 Q92.15,60.66,94.09,66.28 Q96.04,71.9,93.08,77.52 Q90.12,83.14,92.37,88.76 Q94.63,94.38,94.24,100 Q93.86,105.61,92.17,111.23 Q90.49,116.85,93.37,122.47 Q96.25,128.09,93.68,133.71 Q91.11,139.33,93.33,144.95 Q95.56,150.57,96.22,156.19 Q96.88,161.8,94.69,167.42 Q92.5,173.04,95.14,178.66" />
<path d="M114.17,38.19 Q114.17,38.19,114.17,38.19 Q114.17,38.19,111.85,43.8 Q109.52,49.42,108.52,55.04 Q107.51,60.66,109.64,66.28 Q111.77,71.9,109.4,77.52 Q107.02,83.14,108.99,88.76 Q110.96,94.38,110.36,100 Q109.76,105.61,108.38,111.23 Q107.01,116.85,109.5,122.47 Q111.99,128.09,109.4,133.71 Q106.82,139.33,108.55,144.95 Q110.28,150.57,111.8,156.19 Q113.31,161.8,113.31,161.8" />
<path d="M128.39,38.19 Q128.39,38.19,128.39,38.19 Q128.39,38.19,126.05,43.8 Q123.71,49.42,124.39,55.04 Q125.07,60.66,126.29,66.28 Q127.5,71.9,124.54,77.52 Q121.58,83.14,123.84,88.76 Q126.1,94.38,125.71,100 Q125.32,105.61,123.64,111.23 Q121.96,116.85,124.84,122.47 Q127.72,128.09,126.11,133.71 Q124.5,139.33,124.52,144.95 Q124.54,150.57,126.35,156.19 Q128.16,161.8,128.16,161.8" />
<path d="M143.03,15.71 Q143.03,15.71,141.12,21.33 Q139.22,26.95,141.9,32.57 Q144.58,38.19,142.26,43.8 Q139.94,49.42,139.94,55.04 Q139.94,60.66,141.98,66.28 Q144.01,71.9,140.66,77.52 Q137.32,83.14,139.57,88.76 Q141.83,94.38,141.45,100 Q141.08,105.61,139.38,111.23 Q137.69,116.85,140.97,122.47 Q144.26,128.09,142.07,133.71 Q139.89,139.33,140.28,144.95 Q140.66,150.57,142.35,156.19 Q144.03,161.8,141.6,167.42 Q139.17,173.04,141.46,178.66" />
<path d="" />
<path d="M154.29,26.95 Q154.29,26.95,154.29,26.95 Q154.29,26.95,157.21,32.57 Q160.12,38.19,157.86,43.8 Q155.6,49.42,155.15,55.04 Q154.7,60.66,156.84,66.28 Q158.97,71.9,156.52,77.52 Q154.07,83.14,155.82,88.76 Q157.56,94.38,157.18,100 Q156.79,105.61,155.74,111.23 Q154.68,116.85,156.94,122.47 Q159.19,128.09,156.6,133.71 Q154.01,139.33,155.17,144.95 Q156.34,150.57,157.97,156.19 Q159.61,161.8,156.93,167.42 Q154.25,173.04,157.63,178.66 Q161.01,184.28,161.01,184.28" />
<path d="" />
<path d="M174.86,15.71 Q174.86,15.71,174.86,15.71 Q174.86,15.71,172.24,21.33 Q169.62,26.95,172.15,32.57 Q174.67,38.19,172.76,43.8 Q170.85,49.42,171.27,55.04 Q171.68,60.66,173.19,66.28 Q174.7,71.9,171.78,77.52 Q168.85,83.14,171.08,88.76 Q173.3,94.38,172.91,100 Q172.52,105.61,170.91,111.23 Q169.29,116.85,172.11,122.47 Q174.92,128.09,173.12,133.71 Q171.31,139.33,171.5,144.95 Q171.68,150.57,172.91,156.19 Q174.14,161.8,171.86,167.42 Q169.57,173.04,172.61,178.66 Q175.65,184.28,175.65,184.28" />
<path d="M186.58,49.42 Q186.58,49.42,186.47,55.04 M190.44,71.9 Q190.44,71.9,187.48,77.52 Q184.52,83.14,186.77,88.76 M188.26,105.61 Q188.26,105.61,186.57,111.23 M185.77,139.33 Q185.77,139.33,186.6,144.95" />
<path d="" />
<path d="" />
<path d="" />
<path d="M13.38,26.95 Q13.38,26.95,13.38,26.95 Q13.38,26.95,16.06,32.57 Q18.75,38.19,16.79,43.8 Q14.83,49.42,14.68,55.04 Q14.52,60.66,16.44,66.28 Q18.35,71.9,15.39,77.52 Q12.43,83.14,14.69,88.76 Q16.95,94.38,16.56,100 Q16.17,105.61,14.49,111.23 Q12.81,116.85,15.69,122.47 Q18.57,128.09,16.17,133.71 Q13.77,139.33,14.84,144.95 Q15.91,150.57,17.29,156.19 Q18.67,161.8,15.99,167.42 Q13.31,173.04,13.31,173.04" />
<path d="" />
<path d="M34.23,15.71 Q34.23,15.71,31.53,21.33 Q28.83,26.95,31.88,32.57 Q34.92,38.19,32.65,43.8 Q30.37,49.42,30.31,55.04 Q30.25,60.66,32.17,66.28 Q34.09,71.9,31.19,77.52 Q28.29,83.14,30.48,88.76 Q32.68,94.38,32.29,100 Q31.91,105.61,30.28,111.23 Q28.65,116.85,31.48,122.47 Q34.3,128.09,31.96,133.71 Q29.62,139.33,30.63,144.95 Q31.63,150.57,33.07,156.19 Q34.52,161.8,31.63,167.42 Q28.75,173.04,31.95,178.66" />
<path d="M45.32,26.95 Q45.32,26.95,45.32,26.95 Q45.32,26.95,47.65,32.57 Q49.99,38.19,48.61,43.8 Q47.22,49.42,46.51,55.04 Q45.81,60.66,47.81,66.28 Q49.82,71.9,46.86,77.52 Q43.9,83.14,46.16,88.76 Q48.41,94.38,48.03,100 Q47.64,105.61,45.96,111.23 Q44.27,116.85,47.16,122.47 Q50.04,128.09,47.61,133.71 Q45.19,139.33,46.63,144.95 Q48.07,150.57,48.79,156.19 Q49.51,161.8,47.38,167.42 Q45.25,173.04,45.25,173.04" />
<path d="M60.65,26.95 Q60.65,26.95,60.65,26.95 Q60.65,26.95,63.6,32.57 Q66.55,38.19,64.17,43.8 Q61.79,49.42,61.8,55.04 Q61.81,60.66,63.89,66.28 Q65.96,71.9,62.8,77.52 Q59.63,83.14,61.89,88.76 Q64.15,94.38,63.76,100 Q63.38,105.61,61.69,111.23 Q60.01,116.85,63.09,122.47 Q66.18,128.09,63.65,133.71 Q61.12,139.33,61.87,144.95 Q62.62,150.57,64.37,156.19 Q66.13,161.8,63.37,167.42 Q60.6,173.04,60.6,173.04" />
<path d="M81.54,15.71 Q81.54,15.71,81.54,15.71 Q81.54,15.71,78.99,21.33 Q76.44,26.95,79.17,32.57 Q81.89,38.19,80.28,43.8 Q78.67,49.42,78.06,55.04 Q77.45,60.66,79.4,66.28 Q81.34,71.9,78.38,77.52 Q75.41,83.14,77.64,88.76 Q79.88,94.38,79.49,100 Q79.11,105.61,77.46,111.23 Q75.82,116.85,78.68,122.47 Q81.54,128.09,79.13,133.71 Q76.72,139.33,77.86,144.95 Q79.01,150.57,80.41,156.19 Q81.8,161.8,79.09,167.42 Q76.37,173.04,79.49,178.66 Q82.61,184.28,82.61,184.28" />
<path d="M97.87,38.19 Q97.87,38.19,97.87,38.19 Q97.87,38.19,96.37,43.8 Q94.87,49.42,94.28,55.04 Q93.69,60.66,95.37,66.28 Q97.05,71.9,94.08,77.52 Q91.1,83.14,93.36,88.76 Q95.62,94.38,95.23,100 Q94.84,105.61,93.16,111.23 Q91.47,116.85,94.42,122.47 Q97.37,128.09,94.92,133.71 Q92.47,139.33,94.02,144.95 Q95.57,150.57,96.41,156.19 Q97.26,161.8,97.26,161.8" />
<path d="M97.86,184.28 Q97.86,184.28,97.86,184.28" />
<path d="M109.89,49.42 Q109.89,49.42,109.89,49.42 Q109.89,49.42,109.2,55.04 Q108.5,60.66,110.65,66.28 Q112.8,71.9,109.93,77.52 Q107.07,83.14,109.57,88.76 Q112.08,94.38,111.57,100 Q111.05,105.61,109.23,111.23 Q107.4,116.85,110.23,122.47 Q113.06,128.09,110.43,133.71 Q107.8,139.33,109.23,144.95 Q110.67,150.57,110.67,150.57" />
<path d="M128.71,15.71 Q128.71,15.71,128.71,15.71" />
<path d="M128.79,38.19 Q128.79,38.19,128.79,38.19 Q128.79,38.19,126.75,43.8 Q124.7,49.42,124.79,55.04 Q124.88,60.66,126.68,66.28 Q128.49,71.9,125.53,77.52 Q122.57,83.14,124.82,88.76 Q127.08,94.38,126.69,100 Q126.31,105.61,124.62,111.23 Q122.94,116.85,125.82,122.47 Q128.71,128.09,126.65,133.71 Q124.6,139.33,125.56,144.95 Q126.53,150.57,127.46,156.19 Q128.39,161.8,128.39,161.8" />
<path d="M129.34,184.28 Q129.34,184.28,129.34,184.28" />
<path d="M143.99,15.71 Q143.99,15.71,141.73,21.33 Q139.47,26.95,142.26,32.57 Q145.06,38.19,142.86,43.8 Q140.67,49.42,140.32,55.04 Q139.98,60.66,142.39,66.28 Q144.8,71.9,141.55,77.52 Q138.3,83.14,140.56,88.76 Q142.81,94.38,142.43,100 Q142.04,105.61,140.36,111.23 Q138.67,116.85,141.86,122.47 Q145.04,128.09,142.35,133.71 Q139.65,139.33,140.61,144.95 Q141.56,150.57,143.04,156.19 Q144.53,161.8,141.97,167.42 Q139.42,173.04,142.3,178.66" />
<path d="M160.32,15.71 Q160.32,15.71,160.32,15.71 Q160.32,15.71,157.45,21.33 Q154.58,26.95,157.6,32.57 Q160.63,38.19,158.59,43.8 Q156.55,49.42,156.12,55.04 Q155.69,60.66,157.82,66.28 Q159.95,71.9,157.43,77.52 Q154.91,83.14,156.73,88.76 Q158.55,94.38,158.16,100 Q157.77,105.61,156.51,111.23 Q155.24,116.85,157.71,122.47 Q160.17,128.09,157.58,133.71 Q154.99,139.33,156.15,144.95 Q157.31,150.57,158.71,156.19 Q160.12,161.8,157.32,167.42 Q154.53,173.04,157.65,178.66 Q160.76,184.28,160.76,184.28" />
<path d="M175.61,15.71 Q175.61,15.71,175.61,15.71 Q175.61,15.71,173.02,21.33 Q170.43,26.95,173.14,32.57 Q175.84,38.19,173.84,43.8 Q171.84,49.42,171.82,55.04 Q171.8,60.66,173.74,66.28 Q175.69,71.9,172.79,77.52 Q169.9,83.14,172.09,88.76 Q174.28,94.38,173.89,100 Q173.51,105.61,171.9,111.23 Q170.29,116.85,173.1,122.47 Q175.9,128.09,173.65,133.71 Q171.4,139.33,172.04,144.95 Q172.67,150.57,173.9,156.19 Q175.13,161.8,172.75,167.42 Q170.37,173.04,173.31,178.66 Q176.26,184.28,176.26,184.28" />
<path d="M187.58,49.42 Q187.58,49.42,187.37,55.04 M189.24,105.61 Q189.24,105.61,187.56,111.23 M186.54,139.33 Q186.54,139.33,187.46,144.95" />
<path d="" />
<path d="" />
<path d="" />
<path d="" />
<path d="M13.8,26.95 Q13.8,26.95,13.8,26.95 Q13.8,26.95,16.63,32.57 Q19.47,38.19,17.62,43.8 Q15.77,49.42,15.48,55.04 Q15.19,60.66,17.27,66.28 Q19.36,71.9,16.39,77.52 Q13.43,83.14,15.68,88.76 Q17.93,94.38,17.54,100 Q17.16,105.61,15.5,111.23 Q13.84,116.85,16.71,122.47 Q19.59,128.09,17.08,133.71 Q14.56,139.33,15.63,144.95 Q16.69,150.57,17.78,156.19 Q18.87,161.8,16.31,167.42 Q13.74,173.04,13.74,173.04" />
<path d="" />
<path d="M34.83,15.71 Q34.83,15.71,34.83,15.71 Q34.83,15.71,32.18,21.33 Q29.53,26.95,32.33,32.57 Q35.14,38.19,33.34,43.8 Q31.55,49.42,31.23,55.04 Q30.92,60.66,33,66.28 Q35.07,71.9,32.13,77.52 Q29.19,83.14,31.43,88.76 Q33.66,94.38,33.28,100 Q32.89,105.61,31.23,111.23 Q29.56,116.85,32.43,122.47 Q35.29,128.09,32.78,133.71 Q30.28,139.33,31.44,144.95 Q32.6,150.57,33.66,156.19 Q34.72,161.8,32.1,167.42 Q29.48,173.04,29.48,173.04" />
<path d="M45.53,26.95 Q45.53,26.95,45.53,26.95 Q45.53,26.95,48.16,32.57 Q50.78,38.19,49.16,43.8 Q47.53,49.42,47.08,55.04 Q46.62,60.66,48.71,66.28 Q50.8,71.9,47.84,77.52 Q44.88,83.14,47.14,88.76 Q49.4,94.38,49.01,100 Q48.62,105.61,46.94,111.23 Q45.26,116.85,48.14,122.47 Q51.02,128.09,48.48,133.71 Q45.94,139.33,47.15,144.95 Q48.36,150.57,49.31,156.19 Q50.26,161.8,47.86,167.42 Q45.47,173.04,45.47,173.04" />
<path d="M60.92,26.95 Q60.92,26.95,60.92,26.95 Q60.92,26.95,63.87,32.57 Q66.82,38.19,64.77,43.8 Q62.73,49.42,62.6,55.04 Q62.48,60.66,64.58,66.28 Q66.67,71.9,63.64,77.52 Q60.62,83.14,62.87,88.76 Q65.13,94.38,64.74,100 Q64.36,105.61,62.67,111.23 Q60.99,116.85,63.94,122.47 Q66.89,128.09,64.35,133.71 Q61.82,139.33,62.71,144.95 Q63.6,150.57,64.97,156.19 Q66.34,161.8,63.6,167.42 Q60.87,173.04,60.87,173.04" />
<path d="M77.01,26.95 Q77.01,26.95,77.01,26.95 Q77.01,26.95,79.61,32.57 Q82.22,38.19,80.47,43.8 Q78.72,49.42,78.48,55.04 Q78.24,60.66,80.26,66.28 Q82.27,71.9,79.34,77.52 Q76.41,83.14,78.64,88.76 Q80.86,94.38,80.48,100 Q80.09,105.61,78.44,111.23 Q76.79,116.85,79.64,122.47 Q82.49,128.09,80,133.71 Q77.51,139.33,78.46,144.95 Q79.41,150.57,80.59,156.19 Q81.78,161.8,79.36,167.42 Q76.93,173.04,76.93,173.04" />
<path d="M98.49,38.19 Q98.49,38.19,98.49,38.19 Q98.49,38.19,96.67,43.8 Q94.84,49.42,94.57,55.04 Q94.3,60.66,96.31,66.28 Q98.32,71.9,95.2,77.52 Q92.08,83.14,94.34,88.76 Q96.6,94.38,96.21,100 Q95.82,105.61,94.14,111.23 Q92.46,116.85,95.52,122.47 Q98.57,128.09,96.06,133.71 Q93.55,139.33,94.52,144.95 Q95.5,150.57,96.68,156.19 Q97.86,161.8,97.86,161.8" />
<path d="" />
<path d="M108.4,26.95 Q108.4,26.95,108.4,26.95 Q108.4,26.95,111.37,32.57 Q114.34,38.19,112.33,43.8 Q110.31,49.42,109.9,55.04 Q109.49,60.66,111.69,66.28 Q113.89,71.9,110.92,77.52 Q107.96,83.14,110.32,88.76 Q112.69,94.38,112.3,100 Q111.9,105.61,110.15,111.23 Q108.4,116.85,111.26,122.47 Q114.13,128.09,111.45,133.71 Q108.78,139.33,109.94,144.95 Q111.1,150.57,111.1,150.57" />
<path d="" />
<path d="M129.04,15.71 Q129.04,15.71,126.64,21.33 Q124.25,26.95,126.82,32.57 Q129.39,38.19,127.81,43.8 Q126.22,49.42,125.76,55.04 Q125.3,60.66,127.4,66.28 Q129.49,71.9,126.52,77.52 Q123.55,83.14,125.81,88.76 Q128.06,94.38,127.68,100 Q127.29,105.61,125.61,111.23 Q123.92,116.85,126.82,122.47 Q129.72,128.09,127.23,133.71 Q124.73,139.33,125.88,144.95 Q127.03,150.57,127.98,156.19 Q128.93,161.8,126.57,167.42 Q124.2,173.04,126.93,178.66" />
<path d="M144.95,15.71 Q144.95,15.71,142.34,21.33 Q139.73,26.95,142.62,32.57 Q145.51,38.19,143.52,43.8 Q141.53,49.42,141.23,55.04 Q140.94,60.66,143.22,66.28 Q145.51,71.9,142.4,77.52 Q139.28,83.14,141.54,88.76 Q143.8,94.38,143.41,100 Q143.02,105.61,141.34,111.23 Q139.66,116.85,142.7,122.47 Q145.74,128.09,142.99,133.71 Q140.24,139.33,141.34,144.95 Q142.44,150.57,143.7,156.19 Q144.97,161.8,142.32,167.42 Q139.68,173.04,139.68,173.04" />
<path d="" />
<path d="M160.46,15.71 Q160.46,15.71,160.46,15.71 Q160.46,15.71,157.78,21.33 Q155.1,26.95,158.12,32.57 Q161.14,38.19,159.19,43.8 Q157.25,49.42,156.96,55.04 Q156.67,60.66,158.8,66.28 Q160.94,71.9,158.12,77.52 Q155.3,83.14,157.41,88.76 Q159.53,94.38,159.14,100 Q158.76,105.61,157.15,111.23 Q155.55,116.85,158.35,122.47 Q161.15,128.09,158.56,133.71 Q155.97,139.33,157,144.95 Q158.04,150.57,159.33,156.19 Q160.62,161.8,157.84,167.42 Q155.05,173.04,158.05,178.66 Q161.06,184.28,161.06,184.28" />
<path d="M176.09,15.71 Q176.09,15.71,176.09,15.71 Q176.09,15.71,173.59,21.33 Q171.1,26.95,174.04,32.57 Q176.99,38.19,174.91,43.8 Q172.82,49.42,172.66,55.04 Q172.5,60.66,174.59,66.28 Q176.67,71.9,173.74,77.52 Q170.81,83.14,173.04,88.76 Q175.26,94.38,174.88,100 Q174.49,105.61,172.83,111.23 Q171.18,116.85,174.03,122.47 Q176.89,128.09,174.36,133.71 Q171.84,139.33,172.74,144.95 Q173.64,150.57,174.96,156.19 Q176.28,161.8,173.66,167.42 Q171.03,173.04,173.85,178.66 Q176.67,184.28,176.67,184.28" />
<path d="" />
<path d="" />
<path d="" />
<path d="" />
<path d="" />
<path d="M14.21,26.95 Q14.21,26.95,14.21,26.95 Q14.21,26.95,17.13,32.57 Q20.05,38.19,18.21,43.8 Q16.38,49.42,16.21,55.04 Q16.04,60.66,18.17,66.28 Q20.29,71.9,17.34,77.52 Q14.38,83.14,16.65,88.76 Q18.91,94.38,18.53,100 Q18.14,105.61,16.45,111.23 Q14.75,116.85,17.63,122.47 Q20.51,128.09,17.92,133.71 Q15.34,139.33,16.28,144.95 Q17.23,150.57,18.38,156.19 Q19.53,161.8,16.84,167.42 Q14.15,173.04,14.15,173.04" />
<path d="M29.94,26.95 Q29.94,26.95,29.94,26.95 Q29.94,26.95,32.88,32.57 Q35.81,38.19,33.95,43.8 Q32.08,49.42,31.93,55.04 Q31.77,60.66,33.91,66.28 Q36.05,71.9,33.09,77.52 Q30.13,83.14,32.39,88.76 Q34.65,94.38,34.26,100 Q33.87,105.61,32.19,111.23 Q30.5,116.85,33.39,122.47 Q36.27,128.09,33.67,133.71 Q31.07,139.33,31.99,144.95 Q32.9,150.57,34.1,156.19 Q35.3,161.8,32.59,167.42 Q29.88,173.04,32.67,178.66 Q35.45,184.28,35.45,184.28" />
<path d="M45.6,26.95 Q45.6,26.95,45.6,26.95 Q45.6,26.95,48.57,32.57 Q51.54,38.19,49.68,43.8 Q47.81,49.42,47.66,55.04 Q47.51,60.66,49.64,66.28 Q51.78,71.9,48.83,77.52 Q45.87,83.14,48.12,88.76 Q50.38,94.38,49.99,100 Q49.61,105.61,47.92,111.23 Q46.24,116.85,49.12,122.47 Q52,128.09,49.4,133.71 Q46.81,139.33,47.72,144.95 Q48.63,150.57,49.83,156.19 Q51.04,161.8,48.29,167.42 Q45.54,173.04,45.54,173.04" />
<path d="M61.41,26.95 Q61.41,26.95,61.41,26.95 Q61.41,26.95,64.33,32.57 Q67.24,38.19,65.44,43.8 Q63.64,49.42,63.43,55.04 Q63.23,60.66,65.35,66.28 Q67.47,71.9,64.54,77.52 Q61.6,83.14,63.85,88.76 Q66.11,94.38,65.72,100 Q65.34,105.61,63.66,111.23 Q61.97,116.85,64.83,122.47 Q67.68,128.09,65.1,133.71 Q62.52,139.33,63.47,144.95 Q64.43,150.57,65.57,156.19 Q66.72,161.8,64.04,167.42 Q61.36,173.04,61.36,173.04" />
<path d="M82.94,38.19 Q82.94,38.19,82.94,38.19 Q82.94,38.19,81.15,43.8 Q79.36,49.42,79.15,55.04 Q78.94,60.66,81.09,66.28 Q83.25,71.9,80.29,77.52 Q77.32,83.14,79.58,88.76 Q81.85,94.38,81.46,100 Q81.07,105.61,79.38,111.23 Q77.69,116.85,80.58,122.47 Q83.47,128.09,80.86,133.71 Q78.24,139.33,79.21,144.95 Q80.18,150.57,81.33,156.19 Q82.49,161.8,82.49,161.8" />
<path d="M95.03,49.42 Q95.03,49.42,95.03,49.42 Q95.03,49.42,94.83,55.04 Q94.64,60.66,96.78,66.28 Q98.92,71.9,95.99,77.52 Q93.07,83.14,95.32,88.76 Q97.58,94.38,97.19,100 Q96.81,105.61,95.12,111.23 Q93.44,116.85,96.29,122.47 Q99.14,128.09,96.53,133.71 Q93.92,139.33,94.88,144.95 Q95.83,150.57,96.98,156.19 Q98.13,161.8,98.13,161.8" />
<path d="" />
<path d="M108.55,26.95 Q108.55,26.95,108.55,26.95 Q108.55,26.95,111.47,32.57 Q114.39,38.19,112.58,43.8 Q110.78,49.42,110.62,55.04 Q110.45,60.66,112.57,66.28 Q114.69,71.9,111.71,77.52 Q108.73,83.14,110.99,88.76 Q113.25,94.38,112.86,100 Q112.47,105.61,110.78,111.23 Q109.09,116.85,112,122.47 Q114.91,128.09,112.33,133.71 Q109.75,139.33,110.68,144.95 Q111.61,150.57,112.74,156.19 Q113.87,161.8,111.18,167.42 Q108.5,173.04,108.5,173.04" />
<path d="M129.29,15.71 Q129.29,15.71,126.81,21.33 Q124.32,26.95,127.28,32.57 Q130.23,38.19,128.36,43.8 Q126.48,49.42,126.33,55.04 Q126.18,60.66,128.31,66.28 Q130.43,71.9,127.48,77.52 Q124.53,83.14,126.79,88.76 Q129.05,94.38,128.66,100 Q128.27,105.61,126.59,111.23 Q124.91,116.85,127.78,122.47 Q130.65,128.09,128.06,133.71 Q125.48,139.33,126.38,144.95 Q127.28,150.57,128.5,156.19 Q129.72,161.8,126.99,167.42 Q124.26,173.04,127.07,178.66" />
<path d="M140.05,26.95 Q140.05,26.95,140.05,26.95 Q140.05,26.95,142.97,32.57 Q145.9,38.19,144.08,43.8 Q142.27,49.42,142.1,55.04 Q141.92,60.66,144.02,66.28 Q146.12,71.9,143.19,77.52 Q140.27,83.14,142.52,88.76 Q144.78,94.38,144.39,100 Q144.01,105.61,142.32,111.23 Q140.64,116.85,143.49,122.47 Q146.33,128.09,143.78,133.71 Q141.22,139.33,142.15,144.95 Q143.08,150.57,144.23,156.19 Q145.38,161.8,142.69,167.42 Q139.99,173.04,142.8,178.66 Q145.6,184.28,145.6,184.28" />
<path d="M160.77,15.71 Q160.77,15.71,158.31,21.33 Q155.86,26.95,158.75,32.57 Q161.65,38.19,159.84,43.8 Q158.03,49.42,157.84,55.04 Q157.65,60.66,159.79,66.28 Q161.92,71.9,158.96,77.52 Q156,83.14,158.26,88.76 Q160.51,94.38,160.13,100 Q159.74,105.61,158.06,111.23 Q156.37,116.85,159.26,122.47 Q162.14,128.09,159.55,133.71 Q156.96,139.33,157.91,144.95 Q158.86,150.57,160,156.19 Q161.13,161.8,158.47,167.42 Q155.8,173.04,158.58,178.66 Q161.37,184.28,161.37,184.28" />
<path d="M176.53,15.71 Q176.53,15.71,176.53,15.71 Q176.53,15.71,174.02,21.33 Q171.51,26.95,174.41,32.57 Q177.31,38.19,175.55,43.8 Q173.79,49.42,173.57,55.04 Q173.36,60.66,175.5,66.28 Q177.65,71.9,174.69,77.52 Q171.73,83.14,173.99,88.76 Q176.25,94.38,175.86,100 Q175.47,105.61,173.79,111.23 Q172.1,116.85,174.99,122.47 Q177.87,128.09,175.27,133.71 Q172.67,139.33,173.64,144.95 Q174.61,150.57,175.71,156.19 Q176.82,161.8,174.14,167.42 Q171.46,173.04,174.29,178.66 Q177.13,184.28,177.13,184.28" />
<path d="" />
<path d="" />
<path d="" />
<path d="" />
<path d="M14.47,26.95 Q14.47,26.95,14.47,26.95 Q14.47,26.95,17.61,32.57 Q20.74,38.19,18.96,43.8 Q17.18,49.42,17.02,55.04 Q16.85,60.66,18.91,66.28 Q20.96,71.9,18.1,77.52 Q15.23,83.14,17.56,88.76 Q19.9,94.38,19.51,100 Q19.12,105.61,17.36,111.23 Q15.6,116.85,18.39,122.47 Q21.17,128.09,18.71,133.71 Q16.25,139.33,17.15,144.95 Q18.05,150.57,19.09,156.19 Q20.13,161.8,17.27,167.42 Q14.41,173.04,14.41,173.04" />
<path d="M34.97,15.71 Q34.97,15.71,34.97,15.71 Q34.97,15.71,32.56,21.33 Q30.14,26.95,33.34,32.57 Q36.54,38.19,34.48,43.8 Q32.41,49.42,32.45,55.04 Q32.5,60.66,34.77,66.28 Q37.04,71.9,34.06,77.52 Q31.08,83.14,33.35,88.76 Q35.63,94.38,35.24,100 Q34.86,105.61,33.16,111.23 Q31.45,116.85,34.35,122.47 Q37.25,128.09,34.58,133.71 Q31.91,139.33,32.54,144.95 Q33.17,150.57,34.6,156.19 Q36.02,161.8,33.06,167.42 Q30.1,173.04,32.93,178.66 Q35.76,184.28,35.76,184.28" />
<path d="M51.99,38.19 Q51.99,38.19,51.99,38.19 Q51.99,38.19,50.05,43.8 Q48.1,49.42,48.24,55.04 Q48.37,60.66,50.56,66.28 Q52.74,71.9,49.8,77.52 Q46.85,83.14,49.11,88.76 Q51.36,94.38,50.98,100 Q50.59,105.61,48.91,111.23 Q47.22,116.85,50.09,122.47 Q52.96,128.09,50.32,133.71 Q47.69,139.33,48.32,144.95 Q48.95,150.57,50.28,156.19 Q51.6,161.8,51.6,161.8" />
<path d="M61.89,26.95 Q61.89,26.95,61.89,26.95 Q61.89,26.95,64.78,32.57 Q67.67,38.19,65.94,43.8 Q64.22,49.42,64.19,55.04 Q64.16,60.66,66.2,66.28 Q68.24,71.9,65.41,77.52 Q62.58,83.14,64.84,88.76 Q67.1,94.38,66.68,100 Q66.26,105.61,64.61,111.23 Q62.96,116.85,65.75,122.47 Q68.54,128.09,65.96,133.71 Q63.38,139.33,64.06,144.95 Q64.73,150.57,65.95,156.19 Q67.18,161.8,64.51,167.42 Q61.84,173.04,61.84,173.04" />
<path d="M83.12,38.19 Q83.12,38.19,83.12,38.19 Q83.12,38.19,81.65,43.8 Q80.18,49.42,79.89,55.04 Q79.6,60.66,81.91,66.28 Q84.23,71.9,81.23,77.52 Q78.23,83.14,80.53,88.76 Q82.83,94.38,82.44,100 Q82.06,105.61,80.33,111.23 Q78.61,116.85,81.53,122.47 Q84.44,128.09,81.67,133.71 Q78.89,139.33,79.92,144.95 Q80.94,150.57,81.76,156.19 Q82.57,161.8,82.57,161.8" />
<path d="M98.07,15.71 Q98.07,15.71,98.07,15.71 Q98.07,15.71,95.53,21.33 Q92.99,26.95,92.99,26.95" />
<path d="M95.24,49.42 Q95.24,49.42,95.24,49.42 Q95.24,49.42,95.08,55.04 Q94.92,60.66,97.22,66.28 Q99.53,71.9,96.79,77.52 Q94.05,83.14,96.31,88.76 Q98.56,94.38,98.18,100 Q97.79,105.61,96.11,111.23 Q94.42,116.85,97.08,122.47 Q99.73,128.09,97.07,133.71 Q94.41,139.33,95.14,144.95 Q95.86,150.57,95.86,150.57" />
<path d="M108.72,26.95 Q108.72,26.95,108.72,26.95 Q108.72,26.95,111.59,32.57 Q114.47,38.19,112.92,43.8 Q111.37,49.42,111.34,55.04 Q111.31,60.66,113.46,66.28 Q115.61,71.9,112.39,77.52 Q109.18,83.14,111.49,88.76 Q113.8,94.38,113.42,100 Q113.04,105.61,111.31,111.23 Q109.59,116.85,112.72,122.47 Q115.85,128.09,113.26,133.71 Q110.66,139.33,111.46,144.95 Q112.25,150.57,113.12,156.19 Q113.99,161.8,111.33,167.42 Q108.66,173.04,108.66,173.04" />
<path d="M129.45,15.71 Q129.45,15.71,127.23,21.33 Q125.01,26.95,128.03,32.57 Q131.05,38.19,128.83,43.8 Q126.61,49.42,126.87,55.04 Q127.13,60.66,129.18,66.28 Q131.23,71.9,128.37,77.52 Q125.52,83.14,127.77,88.76 Q130.03,94.38,129.64,100 Q129.26,105.61,127.57,111.23 Q125.89,116.85,128.66,122.47 Q131.44,128.09,128.93,133.71 Q126.42,139.33,127.03,144.95 Q127.64,150.57,129.08,156.19 Q130.53,161.8,127.74,167.42 Q124.94,173.04,127.49,178.66" />
<path d="M145.36,15.71 Q145.36,15.71,145.36,15.71 Q145.36,15.71,142.93,21.33 Q140.49,26.95,143.41,32.57 Q146.33,38.19,144.6,43.8 Q142.87,49.42,142.89,55.04 Q142.9,60.66,144.75,66.28 Q146.6,71.9,143.93,77.52 Q141.25,83.14,143.51,88.76 Q145.76,94.38,145.38,100 Q144.99,105.61,143.31,111.23 Q141.62,116.85,144.22,122.47 Q146.81,128.09,144.51,133.71 Q142.21,139.33,142.99,144.95 Q143.77,150.57,144.79,156.19 Q145.8,161.8,143.12,167.42 Q140.43,173.04,143.39,178.66 Q146.35,184.28,146.35,184.28" />
<path d="M161.09,15.71 Q161.09,15.71,158.89,21.33 Q156.68,26.95,159.42,32.57 Q162.16,38.19,160.53,43.8 Q158.91,49.42,158.77,55.04 Q158.64,60.66,160.77,66.28 Q162.9,71.9,159.94,77.52 Q156.98,83.14,159.24,88.76 Q161.5,94.38,161.11,100 Q160.72,105.61,159.03,111.23 Q157.35,116.85,160.23,122.47 Q163.12,128.09,160.53,133.71 Q157.94,139.33,158.86,144.95 Q159.77,150.57,160.71,156.19 Q161.64,161.8,159.13,167.42 Q156.63,173.04,159.17,178.66" />
<path d="M176.92,15.71 Q176.92,15.71,176.92,15.71 Q176.92,15.71,174.36,21.33 Q171.8,26.95,174.56,32.57 Q177.31,38.19,176.03,43.8 Q174.75,49.42,174.38,55.04 Q174.01,60.66,176.32,66.28 Q178.64,71.9,175.66,77.52 Q172.69,83.14,174.96,88.76 Q177.23,94.38,176.84,100 Q176.46,105.61,174.77,111.23 Q173.08,116.85,175.97,122.47 Q178.85,128.09,176.12,133.71 Q173.39,139.33,174.46,144.95 Q175.54,150.57,176.18,156.19 Q176.82,161.8,174.28,167.42 Q171.75,173.04,174.55,178.66 Q177.36,184.28,177.36,184.28" />
<path d="" />
<path d="" />
<path d="" />
<path d="" />
<path d="M15.08,26.95 Q15.08,26.95,15.08,26.95 Q15.08,26.95,18.11,32.57 Q21.13,38.19,19.54,43.8 Q17.95,49.42,17.74,55.04 Q17.54,60.66,19.65,66.28 Q21.77,71.9,18.93,77.52 Q16.09,83.14,18.49,88.76 Q20.88,94.38,20.49,100 Q20.11,105.61,18.29,111.23 Q16.47,116.85,19.26,122.47 Q22.05,128.09,19.47,133.71 Q16.89,139.33,17.6,144.95 Q18.31,150.57,19.53,156.19 Q20.74,161.8,17.86,167.42 Q14.99,173.04,14.99,173.04" />
<path d="M35.63,15.71 Q35.63,15.71,35.63,15.71 Q35.63,15.71,33.02,21.33 Q30.4,26.95,33.85,32.57 Q37.3,38.19,34.96,43.8 Q32.62,49.42,32.72,55.04 Q32.83,60.66,35.42,66.28 Q38.02,71.9,35.03,77.52 Q32.04,83.14,34.22,88.76 Q36.41,94.38,36.12,100 Q35.83,105.61,34.12,111.23 Q32.41,116.85,35.32,122.47 Q38.24,128.09,35.33,133.71 Q32.42,139.33,33.05,144.95 Q33.67,150.57,35.23,156.19 Q36.78,161.8,33.56,167.42 Q30.34,173.04,33.38,178.66 Q36.42,184.28,36.42,184.28" />
<path d="M52.07,38.19 Q52.07,38.19,52.07,38.19 Q52.07,38.19,50.27,43.8 Q48.47,49.42,48.81,55.04 Q49.15,60.66,51.39,66.28 Q53.63,71.9,50.73,77.52 Q47.83,83.14,50.09,88.76 Q52.35,94.38,51.96,100 Q51.57,105.61,49.89,111.23 Q48.21,116.85,51.02,122.47 Q53.82,128.09,51.17,133.71 Q48.52,139.33,48.95,144.95 Q49.38,150.57,50.57,156.19 Q51.76,161.8,51.76,161.8" />
<path d="M62.23,26.95 Q62.23,26.95,62.23,26.95 Q62.23,26.95,65.06,32.57 Q67.89,38.19,66.03,43.8 Q64.18,49.42,64.68,55.04 Q65.18,60.66,67.27,66.28 Q69.36,71.9,66.46,77.52 Q63.57,83.14,65.82,88.76 Q68.08,94.38,67.69,100 Q67.31,105.61,65.62,111.23 Q63.94,116.85,66.76,122.47 Q69.58,128.09,67,133.71 Q64.42,139.33,64.69,144.95 Q64.97,150.57,66.24,156.19 Q67.51,161.8,64.84,167.42 Q62.18,173.04,62.18,173.04" />
<path d="M84.48,38.19 Q84.48,38.19,84.48,38.19 Q84.48,38.19,82.66,43.8 Q80.84,49.42,80.61,55.04 Q80.38,60.66,82.78,66.28 Q85.18,71.9,82.17,77.52 Q79.17,83.14,81.49,88.76 Q83.81,94.38,83.43,100 Q83.04,105.61,81.29,111.23 Q79.54,116.85,82.47,122.47 Q85.4,128.09,82.5,133.71 Q79.59,139.33,80.28,144.95 Q80.96,150.57,82.1,156.19 Q83.25,161.8,83.25,161.8" />
<path d="M95.04,49.42 Q95.04,49.42,95.04,49.42 Q95.04,49.42,94.96,55.04 Q94.87,60.66,97.31,66.28 Q99.76,71.9,97.39,77.52 Q95.03,83.14,97.29,88.76 Q99.55,94.38,99.16,100 Q98.77,105.61,97.09,111.23 Q95.41,116.85,97.63,122.47 Q99.85,128.09,97.1,133.71 Q94.36,139.33,95.12,144.95 Q95.88,150.57,95.88,150.57" />
<path d="M93.65,173.04 Q93.65,173.04,93.65,173.04 Q93.65,173.04,96.04,178.66 Q98.44,184.28,98.44,184.28" />
<path d="M108.84,26.95 Q108.84,26.95,108.84,26.95 Q108.84,26.95,111.62,32.57 Q114.41,38.19,113.25,43.8 Q112.09,49.42,112.07,55.04 Q112.06,60.66,114.36,66.28 Q116.67,71.9,113.23,77.52 Q109.8,83.14,112.12,88.76 Q114.44,94.38,114.02,100 Q113.59,105.61,111.75,111.23 Q109.9,116.85,113.4,122.47 Q116.9,128.09,114.18,133.71 Q111.46,139.33,112.22,144.95 Q112.99,150.57,113.47,156.19 Q113.94,161.8,111.36,167.42 Q108.78,173.04,108.78,173.04" />
<path d="M129.6,15.71 Q129.6,15.71,127.72,21.33 Q125.84,26.95,128.91,32.57 Q131.97,38.19,129.77,43.8 Q127.56,49.42,127.83,55.04 Q128.11,60.66,130.04,66.28 Q131.98,71.9,129.24,77.52 Q126.5,83.14,128.76,88.76 Q131.01,94.38,130.63,100 Q130.24,105.61,128.56,111.23 Q126.87,116.85,129.54,122.47 Q132.2,128.09,129.79,133.71 Q127.39,139.33,128.28,144.95 Q129.18,150.57,130.3,156.19 Q131.42,161.8,128.6,167.42 Q125.78,173.04,128,178.66" />
<path d="M146.5,15.71 Q146.5,15.71,146.5,15.71 Q146.5,15.71,143.8,21.33 Q141.11,26.95,143.97,32.57 Q146.82,38.19,145.25,43.8 Q143.67,49.42,143.78,55.04 Q143.89,60.66,145.44,66.28 Q146.99,71.9,144.61,77.52 Q142.23,83.14,144.49,88.76 Q146.75,94.38,146.36,100 Q145.97,105.61,144.29,111.23 Q142.61,116.85,144.9,122.47 Q147.19,128.09,145.19,133.71 Q143.19,139.33,143.9,144.95 Q144.62,150.57,145.45,156.19 Q146.28,161.8,143.66,167.42 Q141.05,173.04,144.03,178.66 Q147.02,184.28,147.02,184.28" />
<path d="M161.58,15.71 Q161.58,15.71,159.54,21.33 Q157.51,26.95,160.09,32.57 Q162.67,38.19,161.28,43.8 Q159.88,49.42,159.75,55.04 Q159.62,60.66,161.75,66.28 Q163.89,71.9,160.93,77.52 Q157.97,83.14,160.22,88.76 Q162.48,94.38,162.09,100 Q161.71,105.61,160.02,111.23 Q158.34,116.85,161.22,122.47 Q164.1,128.09,161.51,133.71 Q158.92,139.33,159.84,144.95 Q160.75,150.57,161.45,156.19 Q162.15,161.8,159.8,167.42 Q157.45,173.04,159.88,178.66" />
<path d="M176.89,15.71 Q176.89,15.71,176.89,15.71 Q176.89,15.71,174.49,21.33 Q172.09,26.95,174.71,32.57 Q177.33,38.19,176.49,43.8 Q175.64,49.42,175.35,55.04 Q175.07,60.66,177.34,66.28 Q179.62,71.9,176.66,77.52 Q173.7,83.14,175.96,88.76 Q178.21,94.38,177.83,100 Q177.44,105.61,175.76,111.23 Q174.07,116.85,176.96,122.47 Q179.84,128.09,177.02,133.71 Q174.2,139.33,175.28,144.95 Q176.35,150.57,176.35,150.57" />
<path d="M172.03,173.04 Q172.03,173.04,172.03,173.04 Q172.03,173.04,174.72,178.66 Q177.41,184.28,177.41,184.28" />
<path d="" />
<path d="" />
<path d="" />
<path d="" />
<path d="M19.33,15.71 Q19.33,15.71,17.7,21.33 Q16.06,26.95,19.08,32.57 Q22.11,38.19,20.05,43.8 Q18,49.42,18.32,55.04 Q18.64,60.66,20.78,66.28 Q22.93,71.9,19.99,77.52 Q17.04,83.14,19.45,88.76 Q21.86,94.38,21.48,100 Q21.09,105.61,19.26,111.23 Q17.44,116.85,20.33,122.47 Q23.22,128.09,20.44,133.71 Q17.66,139.33,18.44,144.95 Q19.22,150.57,20.31,156.19 Q21.4,161.8,18.71,167.42 Q16.03,173.04,18.5,178.66" />
<path d="M36.34,15.71 Q36.34,15.71,36.34,15.71 Q36.34,15.71,33.48,21.33 Q30.61,26.95,34.31,32.57 Q38.02,38.19,35.71,43.8 Q33.41,49.42,33.23,55.04 Q33.05,60.66,36.02,66.28 Q39,71.9,36,77.52 Q33,83.14,35.23,88.76 Q37.45,94.38,37.02,100 Q36.59,105.61,34.98,111.23 Q33.37,116.85,36.29,122.47 Q39.22,128.09,35.88,133.71 Q32.54,139.33,33.86,144.95 Q35.18,150.57,36.35,156.19 Q37.52,161.8,34.05,167.42 Q30.57,173.04,33.76,178.66 Q36.95,184.28,36.95,184.28" />
<path d="M51.96,38.19 Q51.96,38.19,51.96,38.19 Q51.96,38.19,50.46,43.8 Q48.97,49.42,49.4,55.04 Q49.83,60.66,52.07,66.28 Q54.3,71.9,51.56,77.52 Q48.82,83.14,51.07,88.76 Q53.33,94.38,52.94,100 Q52.56,105.61,50.87,111.23 Q49.19,116.85,51.81,122.47 Q54.43,128.09,51.84,133.71 Q49.24,139.33,49.6,144.95 Q49.95,150.57,50.79,156.19 Q51.63,161.8,51.63,161.8" />
<path d="M62.6,26.95 Q62.6,26.95,62.6,26.95 Q62.6,26.95,65.16,32.57 Q67.71,38.19,66.14,43.8 Q64.56,49.42,65.36,55.04 Q66.16,60.66,68.3,66.28 Q70.44,71.9,67.49,77.52 Q64.55,83.14,66.81,88.76 Q69.06,94.38,68.68,100 Q68.29,105.61,66.61,111.23 Q64.92,116.85,67.81,122.47 Q70.69,128.09,68.07,133.71 Q65.46,139.33,65.74,144.95 Q66.02,150.57,66.75,156.19 Q67.48,161.8,65.01,167.42 Q62.54,173.04,62.54,173.04" />
<path d="M77.22,26.95 Q77.22,26.95,77.22,26.95 Q77.22,26.95,80.95,32.57 Q84.68,38.19,82.45,43.8 Q80.23,49.42,80.7,55.04 Q81.16,60.66,83.63,66.28 Q86.11,71.9,83.11,77.52 Q80.12,83.14,82.46,88.76 Q84.8,94.38,84.41,100 Q84.02,105.61,82.27,111.23 Q80.51,116.85,83.41,122.47 Q86.31,128.09,83.37,133.71 Q80.43,139.33,80.48,144.95 Q80.53,150.57,82.62,156.19 Q84.71,161.8,80.94,167.42 Q77.17,173.04,79.93,178.66 Q82.68,184.28,82.68,184.28" />
<path d="M98.05,15.71 Q98.05,15.71,98.05,15.71 Q98.05,15.71,96.19,21.33 Q94.33,26.95,94.33,26.95" />
<path d="M95.18,49.42 Q95.18,49.42,95.18,49.42 Q95.18,49.42,95.14,55.04 Q95.09,60.66,97.51,66.28 Q99.92,71.9,97.97,77.52 Q96.02,83.14,98.27,88.76 Q100.53,94.38,100.14,100 Q99.76,105.61,98.07,111.23 Q96.39,116.85,98.39,122.47 Q100.4,128.09,97.36,133.71 Q94.32,139.33,95.4,144.95 Q96.48,150.57,96.48,150.57" />
<path d="M94.28,173.04 Q94.28,173.04,94.28,173.04 Q94.28,173.04,96.47,178.66 Q98.67,184.28,98.67,184.28" />
<path d="M109.03,26.95 Q109.03,26.95,109.03,26.95 Q109.03,26.95,112.16,32.57 Q115.29,38.19,114.08,43.8 Q112.87,49.42,112.79,55.04 Q112.72,60.66,115.19,66.28 Q117.67,71.9,113.93,77.52 Q110.19,83.14,112.8,88.76 Q115.41,94.38,114.86,100 Q114.32,105.61,112.6,111.23 Q110.88,116.85,114.38,122.47 Q117.89,128.09,115.01,133.71 Q112.13,139.33,112.85,144.95 Q113.57,150.57,113.88,156.19 Q114.19,161.8,111.58,167.42 Q108.97,173.04,108.97,173.04" />
<path d="" />
<path d="M129.86,15.71 Q129.86,15.71,128.21,21.33 Q126.56,26.95,129.54,32.57 Q132.52,38.19,130.85,43.8 Q129.19,49.42,129.1,55.04 Q129,60.66,130.91,66.28 Q132.81,71.9,130.14,77.52 Q127.48,83.14,129.74,88.76 Q132,94.38,131.61,100 Q131.22,105.61,129.54,111.23 Q127.86,116.85,130.45,122.47 Q133.05,128.09,130.71,133.71 Q128.37,139.33,128.18,144.95 Q127.99,150.57,130.1,156.19 Q132.2,161.8,129.36,167.42 Q126.51,173.04,128.52,178.66" />
<path d="M146.94,15.71 Q146.94,15.71,146.94,15.71 Q146.94,15.71,144.44,21.33 Q141.94,26.95,144.65,32.57 Q147.35,38.19,145.97,43.8 Q144.58,49.42,144.72,55.04 Q144.87,60.66,146.14,66.28 Q147.42,71.9,145.3,77.52 Q143.19,83.14,145.46,88.76 Q147.73,94.38,147.34,100 Q146.96,105.61,145.24,111.23 Q143.52,116.85,145.59,122.47 Q147.66,128.09,145.92,133.71 Q144.17,139.33,144.82,144.95 Q145.46,150.57,146.13,156.19 Q146.81,161.8,144.34,167.42 Q141.87,173.04,144.6,178.66 Q147.33,184.28,147.33,184.28" />
<path d="M162.3,15.71 Q162.3,15.71,160.29,21.33 Q158.28,26.95,160.76,32.57 Q163.25,38.19,162.07,43.8 Q160.89,49.42,160.75,55.04 Q160.6,60.66,162.74,66.28 Q164.87,71.9,161.91,77.52 Q158.95,83.14,161.21,88.76 Q163.46,94.38,163.08,100 Q162.69,105.61,161.01,111.23 Q159.32,116.85,162.21,122.47 Q165.09,128.09,162.5,133.71 Q159.91,139.33,160.83,144.95 Q161.76,150.57,162.23,156.19 Q162.7,161.8,160.46,167.42 Q158.22,173.04,160.65,178.66" />
<path d="M177.12,15.71 Q177.12,15.71,177.12,15.71 Q177.12,15.71,174.62,21.33 Q172.12,26.95,175.24,32.57 Q178.36,38.19,177.49,43.8 Q176.62,49.42,176.43,55.04 Q176.23,60.66,178.42,66.28 Q180.6,71.9,177.64,77.52 Q174.68,83.14,176.94,88.76 Q179.2,94.38,178.81,100 Q178.42,105.61,176.74,111.23 Q175.06,116.85,177.94,122.47 Q180.82,128.09,178.07,133.71 Q175.32,139.33,176.39,144.95 Q177.45,150.57,177.24,156.19 Q177.02,161.8,174.55,167.42 Q172.09,173.04,175,178.66 Q177.92,184.28,177.92,184.28" />
<path d="M187.55,173.04 Q187.55,173.04,187.55,173.04" />
<path d="" />
</g>
</g></g></svg>