<?xml version="1.0" encoding="UTF-8" standalone="no"?>
<!-- Created with Inkscape (http://www.inkscape.org/) -->

<svg
   width="210mm"
   height="297mm"
   viewBox="0 0 210 297"
   version="1.1"
   id="svg5"
   inkscape:version="1.1.1 (c3084ef, 2021-09-22)"
   sodipodi:docname="logo.svg"
   xmlns:inkscape="http://www.inkscape.org/namespaces/inkscape"
   xmlns:sodipodi="http://sodipodi.sourceforge.net/DTD/sodipodi-0.dtd"
   xmlns="http://www.w3.org/2000/svg"
   xmlns:svg="http://www.w3.org/2000/svg">
  <sodipodi:namedview
     id="namedview7"
     pagecolor="#ffffff"
     bordercolor="#666666"
     borderopacity="1.0"
     inkscape:pageshadow="2"
     inkscape:pageopacity="0.0"
     inkscape:pagecheckerboard="0"
     inkscape:document-units="mm"
     showgrid="false"
     inkscape:zoom="0.38582278"
     inkscape:cx="403.03478"
     inkscape:cy="584.46523"
     inkscape:window-width="1312"
     inkscape:window-height="969"
     inkscape:window-x="59"
     inkscape:window-y="372"
     inkscape:window-maximized="0"
     inkscape:current-layer="layer1" />
  <defs
     id="defs2" />
  <g
     inkscape:label="Layer 1"
     inkscape:groupmode="layer"
     id="layer1">
    <path
       style="fill:#000000;stroke-width:0.189217"
       d="M 94.209501,111.82929 C 68.165103,111.07243 44.741474,107.65338 32.335358,102.79776 26.219534,99.504031 21.153914,94.643135 27.31657,88.831757 c 2.891587,-2.70386 5.313253,-3.852753 13.722781,-6.028517 2.586529,-0.669159 9.502863,-2.196636 9.946437,-2.196636 0.04514,0 0.08224,0.309303 0.08224,0.687217 0,3.613936 8.895833,7.20758 23.095061,9.329617 15.795195,2.360587 37.033581,2.732108 54.294891,0.949768 18.48117,-1.908341 30.19639,-5.778034 30.78533,-10.168894 0.12064,-0.901182 -0.37411,-0.900155 4.03073,-0.0089 13.37569,2.70815 15.52411,4.174794 17.52586,8.191809 4.17601,8.38017 -11.82332,18.721589 -49.31441,21.481139 -9.71547,0.71511 -26.82376,1.06406 -37.27586,0.7603 z M 95.929046,80.419278 C 71.288133,79.364829 53.716957,74.88292 53.716957,69.652203 c 0,-0.32182 1.700321,-7.376088 3.778556,-15.676467 2.078189,-8.300379 3.909339,-15.634497 4.069176,-16.298024 1.110588,-4.609563 5.325592,-12.422297 11.502297,-13.677078 17.293108,-3.513055 40.765334,-5.85898 58.180384,-3.764431 6.43234,1.225459 12.73003,6.336568 16.2615,13.197523 0.91369,1.775188 1.45121,3.477654 2.40792,7.626525 0.37188,1.613117 1.6165,6.849691 2.76562,11.636881 3.89844,16.240588 4.01086,16.746649 3.87761,17.45675 -0.0808,0.431774 -0.45836,1.01726 -1.0785,1.672966 -3.79732,4.015137 -18.24302,7.275029 -37.24141,8.404032 -4.51664,0.26863 -17.81759,0.380819 -22.311064,0.188622 z"
       id="path836"
       sodipodi:nodetypes="cccsssssccssccssscscssssscss" />
    <path
       style="fill:none;stroke:#000000;stroke-width:2.23485;stroke-linecap:butt;stroke-linejoin:miter;stroke-miterlimit:4;stroke-dasharray:none;stroke-opacity:1"
       d="m 59.792276,118.2169 c 4.970188,-4.65556 31.897252,-3.44596 35.795875,2.21957 3.679019,5.34644 1.173329,15.91742 -3.89623,20.98697 -4.439207,4.43922 -22.130213,6.32294 -29.397245,-0.25119 -5.708038,-5.16381 -6.032896,-19.64853 -2.5024,-22.95553 z"
       id="path1912"
       sodipodi:nodetypes="sssass" />
    <path
       style="fill:none;stroke:#000000;stroke-width:2.23485;stroke-linecap:butt;stroke-linejoin:miter;stroke-miterlimit:4;stroke-dasharray:none;stroke-opacity:1"
       d="m 150.31406,118.2169 c -4.97019,-4.65556 -31.89726,-3.44596 -35.79587,2.21957 -3.67902,5.34644 -1.17332,15.91742 3.89623,20.98697 4.43921,4.43922 22.1302,6.32294 29.39725,-0.25119 5.70802,-5.16381 6.03289,-19.64853 2.50239,-22.95553 z"
       id="path3575"
       sodipodi:nodetypes="sssass" />
    <path
       style="fill:none;stroke:#000000;stroke-width:2.23485;stroke-linecap:butt;stroke-linejoin:miter;stroke-miterlimit:4;stroke-dasharray:none;stroke-opacity:1"
       d="m 96.190711,120.54379 c 0,0 3.246259,-2.21336 9.001029,-2.21336 5.75475,0 8.70591,2.50849 8.70591,2.50849"
       id="path3918" />
    <path
       style="fill:#000000;stroke-width:0.189217"
       d="m 105.32633,238.46748 c 0,-35.82761 0.0313,-30.85116 0.28874,-30.85116 0.64399,0 2.41445,-0.77053 3.46733,-1.5091 2.63333,-1.8472 3.94859,-4.621 3.76698,-7.94465 -0.26863,-4.91724 -4.14198,-8.52193 -9.15713,-8.52193 -5.03632,0 -8.966851,3.91954 -8.959658,8.93459 0.0042,2.73519 0.80481,4.73122 2.645968,6.59456 0.91352,0.92446 2.52641,1.90391 3.83247,2.32732 0.31422,0.10186 0.3312,-7.08784 0.3312,30.86461 v 40.02546 h -2.52931 -2.529318 l -0.61436,-1.62778 c -0.3379,-0.89529 -2.127624,-6.19572 -3.977188,-11.7788 -5.838911,-17.62533 -8.658765,-24.8549 -13.36912,-34.27624 -8.152967,-16.3071 -17.572954,-26.98311 -28.305621,-32.08008 l -1.440631,-0.68416 0.341486,-0.78936 c 0.862206,-1.9942 20.28661,-45.61906 20.439564,-45.90486 0.159568,-0.29813 0.338356,-0.30395 2.313252,-0.077 10.45795,1.2041 22.028943,11.87966 31.775536,11.21658 15.45897,-1.05168 19.15814,-10.03734 33.00685,-11.28256 l 1.33564,-0.10867 2.86321,6.22142 c 2.98845,6.49354 7.37314,16.04665 9.8902,21.5481 0.80943,1.7692 2.21296,4.83453 3.11892,6.81183 4.09091,8.92842 4.65132,10.21248 4.48201,10.26893 -16.1108,10.18466 -26.19528,28.34646 -32.81328,43.09043 -3.3049,7.4361 -6.48411,15.74283 -11.0076,28.76108 -1.5188,4.37092 -2.99876,8.58572 -3.28885,9.36626 l -0.52742,1.41913 -2.68973,0.0523 -2.68969,0.0523 z"
       id="path5339"
       sodipodi:nodetypes="csssssssscccssssccscsccsssccsscccc" />
  </g>
</svg>
