<svg height="210mm" style="background:white" viewBox="0 0 297 210" width="297mm" xmlns="http://www.w3.org/2000/svg" xmlns:inkscape="http://www.inkscape.org/namespaces/inkscape">
<g inkscape:groupmode="layer" inkscape:label="brush">
<path d="M192,10 L192,200 M200,143 L10,143 M10,28 L200,28 M10,148 L200,148 M10,120 L200,120 M98,10 L98,200 M39,200 L39,10 M19,200 L19,10 M10,118 L200,118 M40,10 L40,200 M59,200 L59,10 M163,200 L163,10 M200,123 L10,123 M143,200 L143,10 M10,14 L200,14 M10,172 L200,172 M37,200 L37,10 M200,191 L10,191 M184,10 L184,200 M10,40 L200,40 M200,145 L10,145 M115,200 L115,10 M198,10 L198,200 M10,60 L200,60 M200,75 L10,75 M117,200 L117,10 M89,200 L89,10 M161,200 L161,10 M145,200 L145,10 M23,200 L23,10 M200,167 L10,167 M200,85 L10,85 M200,31 L10,31 M200,95 L10,95 M67,200 L67,10 M10,112 L200,112 M81,200 L81,10 M10,94 L200,94 M10,194 L200,194 M28,10 L28,200 M10,98 L200,98 M10,22 L200,22 M156,10 L156,200 M74,10 L74,200 M10,102 L200,102 M10,90 L200,90 M193,200 L193,10 M10,52 L200,52 M153,200 L153,10 M10,144 L200,144 M17,200 L17,10 M119,200 L119,10 M149,200 L149,10 M129,200 L129,10 M48,10 L48,200 M200,175 L10,175 M73,200 L73,10 M103,200 L103,10 M126,10 L126,200 M10,162 L200,162 M200,153 L10,153 M116,10 L116,200 M177,200 L177,10 M44,10 L44,200 M33,200 L33,10 M10,108 L200,108 M10,160 L200,160 M200,33 L10,33 M96,10 L96,200 M60,10 L60,200 M84,10 L84,200 M43,200 L43,10 M66,10 L66,200 M10,100 L200,100 M20,10 L20,200 M183,200 L183,10 M22,10 L22,200 M29,200 L29,10 M10,178 L200,178 M10,158 L200,158 M49,200 L49,10 M195,200 L195,10 M10,82 L200,82 M10,154 L200,154 M10,150 L200,150 M10,128 L200,128 M200,189 L10,189 M200,35 L10,35 M14,10 L14,200 M35,200 L35,10 M200,113 L10,113 M10,24 L200,24 M10,106 L200,106 M16,10 L16,200 M137,200 L137,10 M86,10 L86,200 M200,79 L10,79 M109,200 L109,10 M200,139 L10,139 M142,10 L142,200 M27,200 L27,10 M127,200 L127,10 M200,10 L200,200 M61,200 L61,10 M200,29 L10,29 M200,43 L10,43 M72,10 L72,200 M10,74 L200,74 M168,10 L168,200 M123,200 L123,10 M34,10 L34,200 M200,67 L10,67 M200,141 L10,141 M10,130 L200,130 M185,200 L185,10 M197,200 L197,10 M200,69 L10,69 M200,149 L10,149 M200,23 L10,23 M10,134 L200,134 M10,116 L200,116 M57,200 L57,10 M200,185 L10,185 M162,10 L162,200 M10,54 L200,54 M200,187 L10,187 M200,157 L10,157 M200,101 L10,101 M200,169 L10,169 M166,10 L166,200 M10,142 L200,142 M10,16 L200,16 M139,200 L139,10 M10,184 L200,184 M53,200 L53,10 M200,133 L10,133 M10,168 L200,168 M200,55 L10,55 M200,119 L10,119 M200,147 L10,147 M10,62 L200,62 M111,200 L111,10 M10,96 L200,96 M95,200 L95,10 M176,10 L176,200 M10,44 L200,44 M10,126 L200,126 M121,200 L121,10 M11,200 L11,10 M93,200 L93,10 M51,200 L51,10 M63,200 L63,10 M10,92 L200,92 M154,10 L154,200 M112,10 L112,200 M200,27 L10,27 M160,10 L160,200 M10,88 L200,88 M200,97 L10,97 M164,10 L164,200 M10,68 L200,68 M10,164 L200,164 M190,10 L190,200 M10,86 L200,86 M200,63 L10,63 M200,65 L10,65 M140,10 L140,200 M200,109 L10,109 M200,179 L10,179 M200,13 L10,13 M101,200 L101,10 M10,72 L200,72 M200,117 L10,117 M78,10 L78,200 M152,10 L152,200 M10,138 L200,138 M104,10 L104,200 M10,38 L200,38 M124,10 L124,200 M110,10 L110,200 M180,10 L180,200 M200,61 L10,61 M200,83 L10,83 M148,10 L148,200 M10,48 L200,48 M10,166 L200,166 M24,10 L24,200 M200,53 L10,53 M200,155 L10,155 M10,56 L200,56 M13,200 L13,10 M200,165 L10,165 M130,10 L130,200 M105,200 L105,10 M200,151 L10,151 M25,200 L25,10 M200,73 L10,73 M200,107 L10,107 M187,200 L187,10 M10,26 L200,26 M76,10 L76,200 M70,10 L70,200 M10,18 L200,18 M200,131 L10,131 M10,70 L200,70 M200,137 L10,137 M10,140 L200,140 M186,10 L186,200 M155,200 L155,10 M58,10 L58,200 M200,11 L10,11 M171,200 L171,10 M10,110 L200,110 M75,200 L75,10 M71,200 L71,10 M10,66 L200,66 M85,200 L85,10 M191,200 L191,10 M157,200 L157,10 M200,111 L10,111" fill="none" stroke="black" stroke-width="0.5" style="mix-blend-mode: multiply;"/>
</g>
<g inkscape:groupmode="layer" inkscape:label="signature">
<g inkscape:groupmode="layer" inkscape:label="signature">
<path d="m 15.815664,12.893319 c -1.445284,-3.0999497 -5.555449,-0.3575 -5.08537,2.32203 1.697826,2.92736 4.504013,-3.54417 4.40859,-2.58178 -1.548999,2.22986 0.741131,6.08701 3.012419,3.25791 2.532153,-2.82358 0.259001,-7.8326797 -3.488671,-7.9011197 -3.217272,0.056 -5.8863857,2.4603197 -7.9308737,4.7238797 -2.354585,2.46752 0.0048,5.887 2.757763,6.62143 3.2195457,1.10867 6.8759417,1.30834 9.9459317,-0.36585 2.270396,-1.12373 5.025949,-2.62031 5.680576,-5.20027 -2.108811,-3.66096 -6.038415,1.28356 -3.842036,3.67822 1.07278,0.89979 4.586982,-2.27037 3.201668,-2.73503 0.03094,3.24357 1.226854,6.37852 1.337023,9.60311 -0.672198,3.54892 -7.469251,0.32096 -4.637082,-2.5164 2.158436,-2.4193 5.610472,-2.84094 8.202925,-4.57369 0.993877,-1.40371 0.353413,-5.25046 3.182464,-3.48957 2.142923,1.43516 -2.250898,5.7532 1.723416,5.02339 1.661189,-0.71663 6.494946,-1.40457 4.601401,-3.95236 -4.205319,-0.68052 -1.190571,5.86505 1.665411,3.46881 1.929752,-0.9247 2.778055,-4.05119 1.423645,-5.35034 0.479155,1.8589 3.849911,7.52574 4.880369,3.32696 0.21201,-1.28088 0.40468,-3.80204 1.01246,-1.23041 0.5858,2.6865 3.83412,4.91909 4.56937,1.07383 0.65272,-1.00894 -0.2696,-4.02739 0.99929,-1.35746 1.10974,2.31613 6.32001,1.46113 6.147,-1.13059 -1.98394,-2.13868 -5.3717,1.45205 -3.78252,3.73454 2.57741,0.96208 6.69797,-0.21041 7.06275,-3.33983 0.41287,-2.63769 0.26643,-5.3430297 -0.11178,-7.9756197 0.67418,3.94149 1.24889,7.9380497 2.39963,11.7713397 2.10586,1.67977 5.7434,1.65022 7.74596,-0.23639 3.03149,-1.85431 -0.26637,-4.76925 -2.71777,-4.54025 -2.11577,0.0793 -5.36257,2.40772 -5.16868,3.85604 2.08262,-2.38818 5.55759,-1.22628 8.30726,-1.6832 3.182,-0.26596 6.46546,-0.57372 9.54494,-1.18158 0.24171,0.4199 -0.27752,0.54338 -0.43067,0.17453" fill="none" stroke="black" stroke-width="1" transform="translate(150,192) scale(0.6)"/>
</g>
</g>
</svg>