<svg height="210mm" style="background:white" viewBox="0 0 297 210" width="297mm" xmlns="http://www.w3.org/2000/svg" xmlns:inkscape="http://www.inkscape.org/namespaces/inkscape">
<g inkscape:groupmode="layer" inkscape:label="hotpink">
<path d="M13.8,13.8 L46.2,46.2 M46.2,13.8 L13.8,46.2 M15.752324,14.059467 L47.63339,45.940533 M47.63339,14.059467 L15.752324,45.940533 M18.204884,14.819169 L48.566547,45.180832 M48.566547,14.819169 L18.204884,45.180832 M21.10292,16.02435 L49.054222,43.97565 M49.054222,16.02435 L21.10292,43.97565 M24.359573,17.588146 L49.183285,42.411854 M49.183285,17.588146 L24.359573,42.411854 M27.862135,19.39785 L49.066437,40.60215 M49.066437,19.39785 L27.862135,40.60215 M31.48017,21.323027 L48.834118,38.67697 M48.834118,21.323027 L31.48017,38.67697 M35.07492,23.224922 L48.625076,36.775078 M48.625076,23.224922 L35.07492,36.775078 M38.509315,24.966457 L48.5764,35.033543 M48.5764,24.966457 L38.509315,35.033543 M41.65783,26.422115 L48.8136,33.577885 M48.8136,26.422115 L41.65783,33.577885 M44.415546,27.486977 L49.441597,32.513023 M49.441597,27.486977 L44.415546,32.513023 M46.705723,28.084293 L50.537136,31.915707 M50.537136,28.084293 L46.705723,31.915707 M48.485302,28.171015 L52.143272,31.828985 M52.143272,28.171015 L48.485302,31.828985 M49.748035,27.74089 L54.26625,32.25911 M54.26625,27.74089 L49.748035,32.25911 M50.52492,26.824923 L56.875076,33.17508 M56.875076,26.824923 L50.52492,33.17508 M50.881985,25.489126 L59.903732,34.51087 M59.903732,25.489126 L50.881985,34.51087 M50.915493,23.82978 L63.255936,36.17022 M63.255936,23.82978 L50.915493,36.17022 M50.745052,21.96648 L66.812096,38.03352 M66.812096,21.96648 L50.745052,38.03352 M50.504948,20.03352 L70.437904,39.96648 M70.437904,20.03352 L50.504948,39.96648 M50.334507,18.17022 L73.994064,41.82978 M73.994064,18.17022 L50.334507,41.82978 M50.368015,16.510874 L77.34627,43.48913 M77.34627,16.510874 L50.368015,43.48913 M50.72508,15.175077 L80.37492,44.82492 M80.37492,15.175077 L50.72508,44.82492 M51.501965,14.259109 L82.98375,45.74089 M82.98375,14.259109 L51.501965,45.74089 M52.764698,13.828985 L85.10673,46.171017 M85.10673,13.828985 L52.764698,46.171017 M54.544277,13.915707 L86.71287,46.084293 M86.71287,13.915707 L54.544277,46.084293 M56.834454,14.513024 L87.8084,45.486977 M87.8084,14.513024 L56.834454,45.486977 M59.59217,15.577886 L88.4364,44.422115 M88.4364,15.577886 L59.59217,44.422115 M62.740685,17.033543 L88.6736,42.966457 M88.6736,17.033543 L62.740685,42.966457 M66.17508,18.775078 L88.62492,41.224922 M88.62492,18.775078 L66.17508,41.224922 M69.76983,20.676973 L88.415886,39.32303 M88.415886,20.676973 L69.76983,39.32303 M73.38786,22.60215 L88.18356,37.39785 M88.18356,22.60215 L73.38786,37.39785 M76.89043,24.411854 L88.06672,35.588146 M88.06672,24.411854 L76.89043,35.588146 M80.14708,25.97565 L88.19578,34.02435 M88.19578,25.97565 L80.14708,34.02435 M83.04512,27.180832 L88.68346,32.819168 M88.68346,27.180832 L83.04512,32.819168 M85.49767,27.940533 L89.61661,32.059467 M89.61661,27.940533 L85.49767,32.059467 M87.45,28.2 L91.05,31.8 M91.05,28.2 L87.45,31.8 M88.88339,27.940533 L93.00233,32.059467 M93.00233,27.940533 L88.88339,32.059467 M89.81654,27.180832 L95.45488,32.819168 M95.45488,27.180832 L89.81654,32.819168 M90.30422,25.97565 L98.35292,34.02435 M98.35292,25.97565 L90.30422,34.02435 M90.43328,24.411854 L101.60957,35.588146 M101.60957,24.411854 L90.43328,35.588146 M90.31644,22.60215 L105.11214,37.39785 M105.11214,22.60215 L90.31644,37.39785 M90.084114,20.676973 L108.73017,39.32303 M108.73017,20.676973 L90.084114,39.32303 M89.87508,18.775078 L112.32492,41.224922 M112.32492,18.775078 L89.87508,41.224922 M89.8264,17.033543 L115.759315,42.966457 M115.759315,17.033543 L89.8264,42.966457 M90.0636,15.577886 L118.90783,44.422115 M118.90783,15.577886 L90.0636,44.422115 M90.6916,14.513024 L121.66555,45.486977 M121.66555,14.513024 L90.6916,45.486977 M91.78713,13.915707 L123.95572,46.084293 M123.95572,13.915707 L91.78713,46.084293 M93.39327,13.828985 L125.7353,46.171017 M125.7353,13.828985 L93.39327,46.171017 M95.51625,14.259109 L126.99803,45.74089 M126.99803,14.259109 L95.51625,45.74089 M98.12508,15.175077 L127.774925,44.82492 M127.774925,15.175077 L98.12508,44.82492 M101.15373,16.510874 L128.13199,43.48913 M128.13199,16.510874 L101.15373,43.48913 M104.505936,18.17022 L128.1655,41.82978 M128.1655,18.17022 L104.505936,41.82978 M108.062096,20.03352 L127.99505,39.96648 M127.99505,20.03352 L108.062096,39.96648 M111.687904,21.96648 L127.75495,38.03352 M127.75495,21.96648 L111.687904,38.03352 M115.244064,23.82978 L127.5845,36.17022 M127.5845,23.82978 L115.244064,36.17022 M118.59627,25.489126 L127.61802,34.51087 M127.61802,25.489126 L118.59627,34.51087 M121.62492,26.824923 L127.975075,33.17508 M127.975075,26.824923 L121.62492,33.17508 M124.23375,27.74089 L128.75197,32.25911 M128.75197,27.74089 L124.23375,32.25911 M126.35673,28.171015 L130.0147,31.828985 M130.0147,28.171015 L126.35673,31.828985 M127.96287,28.084293 L131.79428,31.915707 M131.79428,28.084293 L127.96287,31.915707 M129.05841,27.486977 L134.08446,32.513023 M134.08446,27.486977 L129.05841,32.513023 M129.6864,26.422115 L136.84218,33.577885 M136.84218,26.422115 L129.6864,33.577885 M129.9236,24.966457 L139.99069,35.033543 M139.99069,24.966457 L129.9236,35.033543 M129.87492,23.224922 L143.42508,36.775078 M143.42508,23.224922 L129.87492,36.775078 M129.66588,21.323027 L147.01984,38.67697 M147.01984,21.323027 L129.66588,38.67697 M129.43356,19.39785 L150.63786,40.60215 M150.63786,19.39785 L129.43356,40.60215 M129.31671,17.588146 L154.14043,42.411854 M154.14043,17.588146 L129.31671,42.411854 M129.44577,16.02435 L157.39708,43.97565 M157.39708,16.02435 L129.44577,43.97565 M129.93346,14.819169 L160.29512,45.180832 M160.29512,14.819169 L129.93346,45.180832 M130.86661,14.059467 L162.74768,45.940533 M162.74768,14.059467 L130.86661,45.940533 M132.3,13.8 L164.7,46.2 M164.7,13.8 L132.3,46.2 M134.25232,14.059467 L166.13339,45.940533 M166.13339,14.059467 L134.25232,45.940533 M136.70488,14.819169 L167.06654,45.180832 M167.06654,14.819169 L136.70488,45.180832 M139.60292,16.02435 L167.55423,43.97565 M167.55423,16.02435 L139.60292,43.97565 M142.85957,17.588146 L167.68329,42.411854 M167.68329,17.588146 L142.85957,42.411854 M146.36214,19.39785 L167.56644,40.60215 M167.56644,19.39785 L146.36214,40.60215 M149.98016,21.323027 L167.33412,38.67697 M167.33412,21.323027 L149.98016,38.67697 M153.57492,23.224922 L167.12508,36.775078 M167.12508,23.224922 L153.57492,36.775078 M157.00931,24.966457 L167.0764,35.033543 M167.0764,24.966457 L157.00931,35.033543 M160.15782,26.422115 L167.3136,33.577885 M167.3136,26.422115 L160.15782,33.577885 M162.91554,27.486977 L167.94159,32.513023 M167.94159,27.486977 L162.91554,32.513023 M165.20572,28.084293 L169.03714,31.915707 M169.03714,28.084293 L165.20572,31.915707 M166.9853,28.171015 L170.64326,31.828985 M170.64326,28.171015 L166.9853,31.828985 M168.24803,27.74089 L172.76625,32.25911 M172.76625,27.74089 L168.24803,32.25911 M169.02492,26.824923 L175.37508,33.17508 M175.37508,26.824923 L169.02492,33.17508 M169.38199,25.489126 L178.40373,34.51087 M178.40373,25.489126 L169.38199,34.51087 M169.4155,23.82978 L181.75594,36.17022 M181.75594,23.82978 L169.4155,36.17022 M169.24506,21.96648 L185.31209,38.03352 M185.31209,21.96648 L169.24506,38.03352 M169.00494,20.03352 L188.93791,39.96648 M188.93791,20.03352 L169.00494,39.96648 M168.8345,18.17022 L192.49406,41.82978 M192.49406,18.17022 L168.8345,41.82978 M168.86801,16.510874 L195.84627,43.48913 M195.84627,16.510874 L168.86801,43.48913 M169.22508,15.175077 L198.87492,44.82492 M198.87492,15.175077 L169.22508,44.82492 M170.00197,14.259109 L201.48375,45.74089 M201.48375,14.259109 L170.00197,45.74089 M171.2647,13.828985 L203.60674,46.171017 M203.60674,13.828985 L171.2647,46.171017 M173.04428,13.915707 L205.21286,46.084293 M205.21286,13.915707 L173.04428,46.084293 M175.33446,14.513024 L206.30841,45.486977 M206.30841,14.513024 L175.33446,45.486977 M178.09218,15.577886 L206.9364,44.422115 M206.9364,15.577886 L178.09218,44.422115 M181.24069,17.033543 L207.1736,42.966457 M207.1736,17.033543 L181.24069,42.966457 M184.67508,18.775078 L207.12492,41.224922 M207.12492,18.775078 L184.67508,41.224922 M188.26984,20.676973 L206.91588,39.32303 M206.91588,20.676973 L188.26984,39.32303 M191.88786,22.60215 L206.68356,37.39785 M206.68356,22.60215 L191.88786,37.39785 M195.39043,24.411854 L206.56671,35.588146 M206.56671,24.411854 L195.39043,35.588146 M198.64708,25.97565 L206.69577,34.02435 M206.69577,25.97565 L198.64708,34.02435 M201.54512,27.180832 L207.18346,32.819168 M207.18346,27.180832 L201.54512,32.819168 M203.99768,27.940533 L208.11661,32.059467 M208.11661,27.940533 L203.99768,32.059467 M205.95,28.2 L209.55,31.8 M209.55,28.2 L205.95,31.8 M207.38339,27.940533 L211.50232,32.059467 M211.50232,27.940533 L207.38339,32.059467 M208.31654,27.180832 L213.95488,32.819168 M213.95488,27.180832 L208.31654,32.819168 M208.80423,25.97565 L216.85292,34.02435 M216.85292,25.97565 L208.80423,34.02435 M208.93329,24.411854 L220.10957,35.588146 M220.10957,24.411854 L208.93329,35.588146 M208.81644,22.60215 L223.61214,37.39785 M223.61214,22.60215 L208.81644,37.39785 M208.58412,20.676973 L227.23016,39.32303 M227.23016,20.676973 L208.58412,39.32303 M208.37508,18.775078 L230.82492,41.224922 M230.82492,18.775078 L208.37508,41.224922 M208.3264,17.033543 L234.25931,42.966457 M234.25931,17.033543 L208.3264,42.966457 M208.5636,15.577886 L237.40782,44.422115 M237.40782,15.577886 L208.5636,44.422115 M209.19159,14.513024 L240.16554,45.486977 M240.16554,14.513024 L209.19159,45.486977 M210.28714,13.915707 L242.45572,46.084293 M242.45572,13.915707 L210.28714,46.084293 M211.89326,13.828985 L244.2353,46.171017 M244.2353,13.828985 L211.89326,46.171017 M214.01625,14.259109 L245.49803,45.74089 M245.49803,14.259109 L214.01625,45.74089 M216.62508,15.175077 L246.27492,44.82492 M246.27492,15.175077 L216.62508,44.82492 M219.65373,16.510874 L246.63199,43.48913 M246.63199,16.510874 L219.65373,43.48913 M223.00594,18.17022 L246.6655,41.82978 M246.6655,18.17022 L223.00594,41.82978 M226.56209,20.03352 L246.49506,39.96648 M246.49506,20.03352 L226.56209,39.96648 M230.18791,21.96648 L246.25494,38.03352 M246.25494,21.96648 L230.18791,38.03352 M233.74406,23.82978 L246.0845,36.17022 M246.0845,23.82978 L233.74406,36.17022 M237.09627,25.489126 L246.11801,34.51087 M246.11801,25.489126 L237.09627,34.51087 M240.12492,26.824923 L246.47508,33.17508 M246.47508,26.824923 L240.12492,33.17508 M242.73375,27.74089 L247.25197,32.25911 M247.25197,27.74089 L242.73375,32.25911 M244.85674,28.171015 L248.5147,31.828985 M248.5147,28.171015 L244.85674,31.828985 M246.46286,28.084293 L250.29428,31.915707 M250.29428,28.084293 L246.46286,31.915707 M247.55841,27.486977 L252.58446,32.513023 M252.58446,27.486977 L247.55841,32.513023 M248.1864,26.422115 L255.34218,33.577885 M255.34218,26.422115 L248.1864,33.577885 M248.4236,24.966457 L258.4907,35.033543 M258.4907,24.966457 L248.4236,35.033543 M248.37492,23.224922 L261.92508,36.775078 M261.92508,23.224922 L248.37492,36.775078 M248.16588,21.323027 L265.51984,38.67697 M265.51984,21.323027 L248.16588,38.67697 M247.93356,19.39785 L269.13788,40.60215 M269.13788,19.39785 L247.93356,40.60215 M247.81671,17.588146 L272.6404,42.411854 M272.6404,17.588146 L247.81671,42.411854 M247.94577,16.02435 L275.8971,43.97565 M275.8971,16.02435 L247.94577,43.97565 M248.43346,14.819169 L278.7951,45.180832 M278.7951,14.819169 L248.43346,45.180832 M249.36661,14.059467 L281.24768,45.940533 M281.24768,14.059467 L249.36661,45.940533 M13.8,63.8 L46.2,96.2 M46.2,63.8 L13.8,96.2 M15.752324,64.05947 L47.63339,95.94053 M47.63339,64.05947 L15.752324,95.94053 M18.204884,64.81917 L48.566547,95.18083 M48.566547,64.81917 L18.204884,95.18083 M21.10292,66.024345 L49.054222,93.975655 M49.054222,66.024345 L21.10292,93.975655 M24.359573,67.58814 L49.183285,92.41186 M49.183285,67.58814 L24.359573,92.41186 M27.862135,69.39785 L49.066437,90.60215 M49.066437,69.39785 L27.862135,90.60215 M31.48017,71.32303 L48.834118,88.67697 M48.834118,71.32303 L31.48017,88.67697 M35.07492,73.22492 L48.625076,86.77508 M48.625076,73.22492 L35.07492,86.77508 M38.509315,74.96646 L48.5764,85.03354 M48.5764,74.96646 L38.509315,85.03354 M41.65783,76.42211 L48.8136,83.57789 M48.8136,76.42211 L41.65783,83.57789 M44.415546,77.48698 L49.441597,82.51302 M49.441597,77.48698 L44.415546,82.51302 M46.705723,78.08429 L50.537136,81.91571 M50.537136,78.08429 L46.705723,81.91571 M48.485302,78.17101 L52.143272,81.82899 M52.143272,78.17101 L48.485302,81.82899 M49.748035,77.74089 L54.26625,82.25911 M54.26625,77.74089 L49.748035,82.25911 M50.52492,76.82492 L56.875076,83.17508 M56.875076,76.82492 L50.52492,83.17508 M50.881985,75.48913 L59.903732,84.51087 M59.903732,75.48913 L50.881985,84.51087 M50.915493,73.82978 L63.255936,86.17022 M63.255936,73.82978 L50.915493,86.17022 M50.745052,71.96648 L66.812096,88.03352 M66.812096,71.96648 L50.745052,88.03352 M50.504948,70.03352 L70.437904,89.96648 M70.437904,70.03352 L50.504948,89.96648 M50.334507,68.17022 L73.994064,91.82978 M73.994064,68.17022 L50.334507,91.82978 M50.368015,66.51087 L77.34627,93.48913 M77.34627,66.51087 L50.368015,93.48913 M50.72508,65.17508 L80.37492,94.82492 M80.37492,65.17508 L50.72508,94.82492 M51.501965,64.25911 L82.98375,95.74089 M82.98375,64.25911 L51.501965,95.74089 M52.764698,63.828983 L85.10673,96.17101 M85.10673,63.828983 L52.764698,96.17101 M54.544277,63.915707 L86.71287,96.08429 M86.71287,63.915707 L54.544277,96.08429 M56.834454,64.51302 L87.8084,95.48698 M87.8084,64.51302 L56.834454,95.48698 M59.59217,65.57789 L88.4364,94.42211 M88.4364,65.57789 L59.59217,94.42211 M62.740685,67.03354 L88.6736,92.96646 M88.6736,67.03354 L62.740685,92.96646 M66.17508,68.77508 L88.62492,91.22492 M88.62492,68.77508 L66.17508,91.22492 M69.76983,70.67697 L88.415886,89.32303 M88.415886,70.67697 L69.76983,89.32303 M73.38786,72.60215 L88.18356,87.39785 M88.18356,72.60215 L73.38786,87.39785 M76.89043,74.41186 L88.06672,85.58814 M88.06672,74.41186 L76.89043,85.58814 M80.14708,75.975655 L88.19578,84.024345 M88.19578,75.975655 L80.14708,84.024345 M83.04512,77.18083 L88.68346,82.81917 M88.68346,77.18083 L83.04512,82.81917 M85.49767,77.94053 L89.61661,82.05947 M89.61661,77.94053 L85.49767,82.05947 M87.45,78.2 L91.05,81.8 M91.05,78.2 L87.45,81.8 M88.88339,77.94053 L93.00233,82.05947 M93.00233,77.94053 L88.88339,82.05947 M89.81654,77.18083 L95.45488,82.81917 M95.45488,77.18083 L89.81654,82.81917 M90.30422,75.975655 L98.35292,84.024345 M98.35292,75.975655 L90.30422,84.024345 M90.43328,74.41186 L101.60957,85.58814 M101.60957,74.41186 L90.43328,85.58814 M90.31644,72.60215 L105.11214,87.39785 M105.11214,72.60215 L90.31644,87.39785 M90.084114,70.67697 L108.73017,89.32303 M108.73017,70.67697 L90.084114,89.32303 M89.87508,68.77508 L112.32492,91.22492 M112.32492,68.77508 L89.87508,91.22492 M89.8264,67.03354 L115.759315,92.96646 M115.759315,67.03354 L89.8264,92.96646 M90.0636,65.57789 L118.90783,94.42211 M118.90783,65.57789 L90.0636,94.42211 M90.6916,64.51302 L121.66555,95.48698 M121.66555,64.51302 L90.6916,95.48698 M91.78713,63.915707 L123.95572,96.08429 M123.95572,63.915707 L91.78713,96.08429 M93.39327,63.828983 L125.7353,96.17101 M125.7353,63.828983 L93.39327,96.17101 M95.51625,64.25911 L126.99803,95.74089 M126.99803,64.25911 L95.51625,95.74089 M98.12508,65.17508 L127.774925,94.82492 M127.774925,65.17508 L98.12508,94.82492 M101.15373,66.51087 L128.13199,93.48913 M128.13199,66.51087 L101.15373,93.48913 M104.505936,68.17022 L128.1655,91.82978 M128.1655,68.17022 L104.505936,91.82978 M108.062096,70.03352 L127.99505,89.96648 M127.99505,70.03352 L108.062096,89.96648 M111.687904,71.96648 L127.75495,88.03352 M127.75495,71.96648 L111.687904,88.03352 M115.244064,73.82978 L127.5845,86.17022 M127.5845,73.82978 L115.244064,86.17022 M118.59627,75.48913 L127.61802,84.51087 M127.61802,75.48913 L118.59627,84.51087 M121.62492,76.82492 L127.975075,83.17508 M127.975075,76.82492 L121.62492,83.17508 M124.23375,77.74089 L128.75197,82.25911 M128.75197,77.74089 L124.23375,82.25911 M126.35673,78.17101 L130.0147,81.82899 M130.0147,78.17101 L126.35673,81.82899 M127.96287,78.08429 L131.79428,81.91571 M131.79428,78.08429 L127.96287,81.91571 M129.05841,77.48698 L134.08446,82.51302 M134.08446,77.48698 L129.05841,82.51302 M129.6864,76.42211 L136.84218,83.57789 M136.84218,76.42211 L129.6864,83.57789 M129.9236,74.96646 L139.99069,85.03354 M139.99069,74.96646 L129.9236,85.03354 M129.87492,73.22492 L143.42508,86.77508 M143.42508,73.22492 L129.87492,86.77508 M129.66588,71.32303 L147.01984,88.67697 M147.01984,71.32303 L129.66588,88.67697 M129.43356,69.39785 L150.63786,90.60215 M150.63786,69.39785 L129.43356,90.60215 M129.31671,67.58814 L154.14043,92.41186 M154.14043,67.58814 L129.31671,92.41186 M129.44577,66.024345 L157.39708,93.975655 M157.39708,66.024345 L129.44577,93.975655 M129.93346,64.81917 L160.29512,95.18083 M160.29512,64.81917 L129.93346,95.18083 M130.86661,64.05947 L162.74768,95.94053 M162.74768,64.05947 L130.86661,95.94053 M132.3,63.8 L164.7,96.2 M164.7,63.8 L132.3,96.2 M134.25232,64.05947 L166.13339,95.94053 M166.13339,64.05947 L134.25232,95.94053 M136.70488,64.81917 L167.06654,95.18083 M167.06654,64.81917 L136.70488,95.18083 M139.60292,66.024345 L167.55423,93.975655 M167.55423,66.024345 L139.60292,93.975655 M142.85957,67.58814 L167.68329,92.41186 M167.68329,67.58814 L142.85957,92.41186 M146.36214,69.39785 L167.56644,90.60215 M167.56644,69.39785 L146.36214,90.60215 M149.98016,71.32303 L167.33412,88.67697 M167.33412,71.32303 L149.98016,88.67697 M153.57492,73.22492 L167.12508,86.77508 M167.12508,73.22492 L153.57492,86.77508 M157.00931,74.96646 L167.0764,85.03354 M167.0764,74.96646 L157.00931,85.03354 M160.15782,76.42211 L167.3136,83.57789 M167.3136,76.42211 L160.15782,83.57789 M162.91554,77.48698 L167.94159,82.51302 M167.94159,77.48698 L162.91554,82.51302 M165.20572,78.08429 L169.03714,81.91571 M169.03714,78.08429 L165.20572,81.91571 M166.9853,78.17101 L170.64326,81.82899 M170.64326,78.17101 L166.9853,81.82899 M168.24803,77.74089 L172.76625,82.25911 M172.76625,77.74089 L168.24803,82.25911 M169.02492,76.82492 L175.37508,83.17508 M175.37508,76.82492 L169.02492,83.17508 M169.38199,75.48913 L178.40373,84.51087 M178.40373,75.48913 L169.38199,84.51087 M169.4155,73.82978 L181.75594,86.17022 M181.75594,73.82978 L169.4155,86.17022 M169.24506,71.96648 L185.31209,88.03352 M185.31209,71.96648 L169.24506,88.03352 M169.00494,70.03352 L188.93791,89.96648 M188.93791,70.03352 L169.00494,89.96648 M168.8345,68.17022 L192.49406,91.82978 M192.49406,68.17022 L168.8345,91.82978 M168.86801,66.51087 L195.84627,93.48913 M195.84627,66.51087 L168.86801,93.48913 M169.22508,65.17508 L198.87492,94.82492 M198.87492,65.17508 L169.22508,94.82492 M170.00197,64.25911 L201.48375,95.74089 M201.48375,64.25911 L170.00197,95.74089 M171.2647,63.828983 L203.60674,96.17101 M203.60674,63.828983 L171.2647,96.17101 M173.04428,63.915707 L205.21286,96.08429 M205.21286,63.915707 L173.04428,96.08429 M175.33446,64.51302 L206.30841,95.48698 M206.30841,64.51302 L175.33446,95.48698 M178.09218,65.57789 L206.9364,94.42211 M206.9364,65.57789 L178.09218,94.42211 M181.24069,67.03354 L207.1736,92.96646 M207.1736,67.03354 L181.24069,92.96646 M184.67508,68.77508 L207.12492,91.22492 M207.12492,68.77508 L184.67508,91.22492 M188.26984,70.67697 L206.91588,89.32303 M206.91588,70.67697 L188.26984,89.32303 M191.88786,72.60215 L206.68356,87.39785 M206.68356,72.60215 L191.88786,87.39785 M195.39043,74.41186 L206.56671,85.58814 M206.56671,74.41186 L195.39043,85.58814 M198.64708,75.975655 L206.69577,84.024345 M206.69577,75.975655 L198.64708,84.024345 M201.54512,77.18083 L207.18346,82.81917 M207.18346,77.18083 L201.54512,82.81917 M203.99768,77.94053 L208.11661,82.05947 M208.11661,77.94053 L203.99768,82.05947 M205.95,78.2 L209.55,81.8 M209.55,78.2 L205.95,81.8 M207.38339,77.94053 L211.50232,82.05947 M211.50232,77.94053 L207.38339,82.05947 M208.31654,77.18083 L213.95488,82.81917 M213.95488,77.18083 L208.31654,82.81917 M208.80423,75.975655 L216.85292,84.024345 M216.85292,75.975655 L208.80423,84.024345 M208.93329,74.41186 L220.10957,85.58814 M220.10957,74.41186 L208.93329,85.58814 M208.81644,72.60215 L223.61214,87.39785 M223.61214,72.60215 L208.81644,87.39785 M208.58412,70.67697 L227.23016,89.32303 M227.23016,70.67697 L208.58412,89.32303 M208.37508,68.77508 L230.82492,91.22492 M230.82492,68.77508 L208.37508,91.22492 M208.3264,67.03354 L234.25931,92.96646 M234.25931,67.03354 L208.3264,92.96646 M208.5636,65.57789 L237.40782,94.42211 M237.40782,65.57789 L208.5636,94.42211 M209.19159,64.51302 L240.16554,95.48698 M240.16554,64.51302 L209.19159,95.48698 M210.28714,63.915707 L242.45572,96.08429 M242.45572,63.915707 L210.28714,96.08429 M211.89326,63.828983 L244.2353,96.17101 M244.2353,63.828983 L211.89326,96.17101 M214.01625,64.25911 L245.49803,95.74089 M245.49803,64.25911 L214.01625,95.74089 M216.62508,65.17508 L246.27492,94.82492 M246.27492,65.17508 L216.62508,94.82492 M219.65373,66.51087 L246.63199,93.48913 M246.63199,66.51087 L219.65373,93.48913 M223.00594,68.17022 L246.6655,91.82978 M246.6655,68.17022 L223.00594,91.82978 M226.56209,70.03352 L246.49506,89.96648 M246.49506,70.03352 L226.56209,89.96648 M230.18791,71.96648 L246.25494,88.03352 M246.25494,71.96648 L230.18791,88.03352 M233.74406,73.82978 L246.0845,86.17022 M246.0845,73.82978 L233.74406,86.17022 M237.09627,75.48913 L246.11801,84.51087 M246.11801,75.48913 L237.09627,84.51087 M240.12492,76.82492 L246.47508,83.17508 M246.47508,76.82492 L240.12492,83.17508 M242.73375,77.74089 L247.25197,82.25911 M247.25197,77.74089 L242.73375,82.25911 M244.85674,78.17101 L248.5147,81.82899 M248.5147,78.17101 L244.85674,81.82899 M246.46286,78.08429 L250.29428,81.91571 M250.29428,78.08429 L246.46286,81.91571 M247.55841,77.48698 L252.58446,82.51302 M252.58446,77.48698 L247.55841,82.51302 M248.1864,76.42211 L255.34218,83.57789 M255.34218,76.42211 L248.1864,83.57789 M248.4236,74.96646 L258.4907,85.03354 M258.4907,74.96646 L248.4236,85.03354 M248.37492,73.22492 L261.92508,86.77508 M261.92508,73.22492 L248.37492,86.77508 M248.16588,71.32303 L265.51984,88.67697 M265.51984,71.32303 L248.16588,88.67697 M247.93356,69.39785 L269.13788,90.60215 M269.13788,69.39785 L247.93356,90.60215 M247.81671,67.58814 L272.6404,92.41186 M272.6404,67.58814 L247.81671,92.41186 M247.94577,66.024345 L275.8971,93.975655 M275.8971,66.024345 L247.94577,93.975655 M248.43346,64.81917 L278.7951,95.18083 M278.7951,64.81917 L248.43346,95.18083 M249.36661,64.05947 L281.24768,95.94053 M281.24768,64.05947 L249.36661,95.94053 M13.8,113.8 L46.2,146.2 M46.2,113.8 L13.8,146.2 M15.752324,114.05947 L47.63339,145.94054 M47.63339,114.05947 L15.752324,145.94054 M18.204884,114.81917 L48.566547,145.18083 M48.566547,114.81917 L18.204884,145.18083 M21.10292,116.024345 L49.054222,143.97565 M49.054222,116.024345 L21.10292,143.97565 M24.359573,117.58814 L49.183285,142.41185 M49.183285,117.58814 L24.359573,142.41185 M27.862135,119.39785 L49.066437,140.60216 M49.066437,119.39785 L27.862135,140.60216 M31.48017,121.32303 L48.834118,138.67697 M48.834118,121.32303 L31.48017,138.67697 M35.07492,123.22492 L48.625076,136.77507 M48.625076,123.22492 L35.07492,136.77507 M38.509315,124.96646 L48.5764,135.03354 M48.5764,124.96646 L38.509315,135.03354 M41.65783,126.42211 L48.8136,133.57788 M48.8136,126.42211 L41.65783,133.57788 M44.415546,127.48698 L49.441597,132.51303 M49.441597,127.48698 L44.415546,132.51303 M46.705723,128.08429 L50.537136,131.91571 M50.537136,128.08429 L46.705723,131.91571 M48.485302,128.17102 L52.143272,131.82898 M52.143272,128.17102 L48.485302,131.82898 M49.748035,127.74089 L54.26625,132.25911 M54.26625,127.74089 L49.748035,132.25911 M50.52492,126.82492 L56.875076,133.17508 M56.875076,126.82492 L50.52492,133.17508 M50.881985,125.48913 L59.903732,134.51088 M59.903732,125.48913 L50.881985,134.51088 M50.915493,123.82978 L63.255936,136.17023 M63.255936,123.82978 L50.915493,136.17023 M50.745052,121.96648 L66.812096,138.03352 M66.812096,121.96648 L50.745052,138.03352 M50.504948,120.03352 L70.437904,139.96648 M70.437904,120.03352 L50.504948,139.96648 M50.334507,118.17022 L73.994064,141.82977 M73.994064,118.17022 L50.334507,141.82977 M50.368015,116.51087 L77.34627,143.48912 M77.34627,116.51087 L50.368015,143.48912 M50.72508,115.17508 L80.37492,144.82492 M80.37492,115.17508 L50.72508,144.82492 M51.501965,114.25911 L82.98375,145.74089 M82.98375,114.25911 L51.501965,145.74089 M52.764698,113.82899 L85.10673,146.17102 M85.10673,113.82899 L52.764698,146.17102 M54.544277,113.91571 L86.71287,146.08429 M86.71287,113.91571 L54.544277,146.08429 M56.834454,114.51302 L87.8084,145.48697 M87.8084,114.51302 L56.834454,145.48697 M59.59217,115.57789 L88.4364,144.42212 M88.4364,115.57789 L59.59217,144.42212 M62.740685,117.03354 L88.6736,142.96646 M88.6736,117.03354 L62.740685,142.96646 M66.17508,118.77508 L88.62492,141.22493 M88.62492,118.77508 L66.17508,141.22493 M69.76983,120.67697 L88.415886,139.32303 M88.415886,120.67697 L69.76983,139.32303 M73.38786,122.60215 L88.18356,137.39784 M88.18356,122.60215 L73.38786,137.39784 M76.89043,124.41186 L88.06672,135.58815 M88.06672,124.41186 L76.89043,135.58815 M80.14708,125.975655 L88.19578,134.02435 M88.19578,125.975655 L80.14708,134.02435 M83.04512,127.18083 L88.68346,132.81917 M88.68346,127.18083 L83.04512,132.81917 M85.49767,127.94053 L89.61661,132.05946 M89.61661,127.94053 L85.49767,132.05946 M87.45,128.2 L91.05,131.8 M91.05,128.2 L87.45,131.8 M88.88339,127.94053 L93.00233,132.05946 M93.00233,127.94053 L88.88339,132.05946 M89.81654,127.18083 L95.45488,132.81917 M95.45488,127.18083 L89.81654,132.81917 M90.30422,125.975655 L98.35292,134.02435 M98.35292,125.975655 L90.30422,134.02435 M90.43328,124.41186 L101.60957,135.58815 M101.60957,124.41186 L90.43328,135.58815 M90.31644,122.60215 L105.11214,137.39784 M105.11214,122.60215 L90.31644,137.39784 M90.084114,120.67697 L108.73017,139.32303 M108.73017,120.67697 L90.084114,139.32303 M89.87508,118.77508 L112.32492,141.22493 M112.32492,118.77508 L89.87508,141.22493 M89.8264,117.03354 L115.759315,142.96646 M115.759315,117.03354 L89.8264,142.96646 M90.0636,115.57789 L118.90783,144.42212 M118.90783,115.57789 L90.0636,144.42212 M90.6916,114.51302 L121.66555,145.48697 M121.66555,114.51302 L90.6916,145.48697 M91.78713,113.91571 L123.95572,146.08429 M123.95572,113.91571 L91.78713,146.08429 M93.39327,113.82899 L125.7353,146.17102 M125.7353,113.82899 L93.39327,146.17102 M95.51625,114.25911 L126.99803,145.74089 M126.99803,114.25911 L95.51625,145.74089 M98.12508,115.17508 L127.774925,144.82492 M127.774925,115.17508 L98.12508,144.82492 M101.15373,116.51087 L128.13199,143.48912 M128.13199,116.51087 L101.15373,143.48912 M104.505936,118.17022 L128.1655,141.82977 M128.1655,118.17022 L104.505936,141.82977 M108.062096,120.03352 L127.99505,139.96648 M127.99505,120.03352 L108.062096,139.96648 M111.687904,121.96648 L127.75495,138.03352 M127.75495,121.96648 L111.687904,138.03352 M115.244064,123.82978 L127.5845,136.17023 M127.5845,123.82978 L115.244064,136.17023 M118.59627,125.48913 L127.61802,134.51088 M127.61802,125.48913 L118.59627,134.51088 M121.62492,126.82492 L127.975075,133.17508 M127.975075,126.82492 L121.62492,133.17508 M124.23375,127.74089 L128.75197,132.25911 M128.75197,127.74089 L124.23375,132.25911 M126.35673,128.17102 L130.0147,131.82898 M130.0147,128.17102 L126.35673,131.82898 M127.96287,128.08429 L131.79428,131.91571 M131.79428,128.08429 L127.96287,131.91571 M129.05841,127.48698 L134.08446,132.51303 M134.08446,127.48698 L129.05841,132.51303 M129.6864,126.42211 L136.84218,133.57788 M136.84218,126.42211 L129.6864,133.57788 M129.9236,124.96646 L139.99069,135.03354 M139.99069,124.96646 L129.9236,135.03354 M129.87492,123.22492 L143.42508,136.77507 M143.42508,123.22492 L129.87492,136.77507 M129.66588,121.32303 L147.01984,138.67697 M147.01984,121.32303 L129.66588,138.67697 M129.43356,119.39785 L150.63786,140.60216 M150.63786,119.39785 L129.43356,140.60216 M129.31671,117.58814 L154.14043,142.41185 M154.14043,117.58814 L129.31671,142.41185 M129.44577,116.024345 L157.39708,143.97565 M157.39708,116.024345 L129.44577,143.97565 M129.93346,114.81917 L160.29512,145.18083 M160.29512,114.81917 L129.93346,145.18083 M130.86661,114.05947 L162.74768,145.94054 M162.74768,114.05947 L130.86661,145.94054 M132.3,113.8 L164.7,146.2 M164.7,113.8 L132.3,146.2 M134.25232,114.05947 L166.13339,145.94054 M166.13339,114.05947 L134.25232,145.94054 M136.70488,114.81917 L167.06654,145.18083 M167.06654,114.81917 L136.70488,145.18083 M139.60292,116.024345 L167.55423,143.97565 M167.55423,116.024345 L139.60292,143.97565 M142.85957,117.58814 L167.68329,142.41185 M167.68329,117.58814 L142.85957,142.41185 M146.36214,119.39785 L167.56644,140.60216 M167.56644,119.39785 L146.36214,140.60216 M149.98016,121.32303 L167.33412,138.67697 M167.33412,121.32303 L149.98016,138.67697 M153.57492,123.22492 L167.12508,136.77507 M167.12508,123.22492 L153.57492,136.77507 M157.00931,124.96646 L167.0764,135.03354 M167.0764,124.96646 L157.00931,135.03354 M160.15782,126.42211 L167.3136,133.57788 M167.3136,126.42211 L160.15782,133.57788 M162.91554,127.48698 L167.94159,132.51303 M167.94159,127.48698 L162.91554,132.51303 M165.20572,128.08429 L169.03714,131.91571 M169.03714,128.08429 L165.20572,131.91571 M166.9853,128.17102 L170.64326,131.82898 M170.64326,128.17102 L166.9853,131.82898 M168.24803,127.74089 L172.76625,132.25911 M172.76625,127.74089 L168.24803,132.25911 M169.02492,126.82492 L175.37508,133.17508 M175.37508,126.82492 L169.02492,133.17508 M169.38199,125.48913 L178.40373,134.51088 M178.40373,125.48913 L169.38199,134.51088 M169.4155,123.82978 L181.75594,136.17023 M181.75594,123.82978 L169.4155,136.17023 M169.24506,121.96648 L185.31209,138.03352 M185.31209,121.96648 L169.24506,138.03352 M169.00494,120.03352 L188.93791,139.96648 M188.93791,120.03352 L169.00494,139.96648 M168.8345,118.17022 L192.49406,141.82977 M192.49406,118.17022 L168.8345,141.82977 M168.86801,116.51087 L195.84627,143.48912 M195.84627,116.51087 L168.86801,143.48912 M169.22508,115.17508 L198.87492,144.82492 M198.87492,115.17508 L169.22508,144.82492 M170.00197,114.25911 L201.48375,145.74089 M201.48375,114.25911 L170.00197,145.74089 M171.2647,113.82899 L203.60674,146.17102 M203.60674,113.82899 L171.2647,146.17102 M173.04428,113.91571 L205.21286,146.08429 M205.21286,113.91571 L173.04428,146.08429 M175.33446,114.51302 L206.30841,145.48697 M206.30841,114.51302 L175.33446,145.48697 M178.09218,115.57789 L206.9364,144.42212 M206.9364,115.57789 L178.09218,144.42212 M181.24069,117.03354 L207.1736,142.96646 M207.1736,117.03354 L181.24069,142.96646 M184.67508,118.77508 L207.12492,141.22493 M207.12492,118.77508 L184.67508,141.22493 M188.26984,120.67697 L206.91588,139.32303 M206.91588,120.67697 L188.26984,139.32303 M191.88786,122.60215 L206.68356,137.39784 M206.68356,122.60215 L191.88786,137.39784 M195.39043,124.41186 L206.56671,135.58815 M206.56671,124.41186 L195.39043,135.58815 M198.64708,125.975655 L206.69577,134.02435 M206.69577,125.975655 L198.64708,134.02435 M201.54512,127.18083 L207.18346,132.81917 M207.18346,127.18083 L201.54512,132.81917 M203.99768,127.94053 L208.11661,132.05946 M208.11661,127.94053 L203.99768,132.05946 M205.95,128.2 L209.55,131.8 M209.55,128.2 L205.95,131.8 M207.38339,127.94053 L211.50232,132.05946 M211.50232,127.94053 L207.38339,132.05946 M208.31654,127.18083 L213.95488,132.81917 M213.95488,127.18083 L208.31654,132.81917 M208.80423,125.975655 L216.85292,134.02435 M216.85292,125.975655 L208.80423,134.02435 M208.93329,124.41186 L220.10957,135.58815 M220.10957,124.41186 L208.93329,135.58815 M208.81644,122.60215 L223.61214,137.39784 M223.61214,122.60215 L208.81644,137.39784 M208.58412,120.67697 L227.23016,139.32303 M227.23016,120.67697 L208.58412,139.32303 M208.37508,118.77508 L230.82492,141.22493 M230.82492,118.77508 L208.37508,141.22493 M208.3264,117.03354 L234.25931,142.96646 M234.25931,117.03354 L208.3264,142.96646 M208.5636,115.57789 L237.40782,144.42212 M237.40782,115.57789 L208.5636,144.42212 M209.19159,114.51302 L240.16554,145.48697 M240.16554,114.51302 L209.19159,145.48697 M210.28714,113.91571 L242.45572,146.08429 M242.45572,113.91571 L210.28714,146.08429 M211.89326,113.82899 L244.2353,146.17102 M244.2353,113.82899 L211.89326,146.17102 M214.01625,114.25911 L245.49803,145.74089 M245.49803,114.25911 L214.01625,145.74089 M216.62508,115.17508 L246.27492,144.82492 M246.27492,115.17508 L216.62508,144.82492 M219.65373,116.51087 L246.63199,143.48912 M246.63199,116.51087 L219.65373,143.48912 M223.00594,118.17022 L246.6655,141.82977 M246.6655,118.17022 L223.00594,141.82977 M226.56209,120.03352 L246.49506,139.96648 M246.49506,120.03352 L226.56209,139.96648 M230.18791,121.96648 L246.25494,138.03352 M246.25494,121.96648 L230.18791,138.03352 M233.74406,123.82978 L246.0845,136.17023 M246.0845,123.82978 L233.74406,136.17023 M237.09627,125.48913 L246.11801,134.51088 M246.11801,125.48913 L237.09627,134.51088 M240.12492,126.82492 L246.47508,133.17508 M246.47508,126.82492 L240.12492,133.17508 M242.73375,127.74089 L247.25197,132.25911 M247.25197,127.74089 L242.73375,132.25911 M244.85674,128.17102 L248.5147,131.82898 M248.5147,128.17102 L244.85674,131.82898 M246.46286,128.08429 L250.29428,131.91571 M250.29428,128.08429 L246.46286,131.91571 M247.55841,127.48698 L252.58446,132.51303 M252.58446,127.48698 L247.55841,132.51303 M248.1864,126.42211 L255.34218,133.57788 M255.34218,126.42211 L248.1864,133.57788 M248.4236,124.96646 L258.4907,135.03354 M258.4907,124.96646 L248.4236,135.03354 M248.37492,123.22492 L261.92508,136.77507 M261.92508,123.22492 L248.37492,136.77507 M248.16588,121.32303 L265.51984,138.67697 M265.51984,121.32303 L248.16588,138.67697 M247.93356,119.39785 L269.13788,140.60216 M269.13788,119.39785 L247.93356,140.60216 M247.81671,117.58814 L272.6404,142.41185 M272.6404,117.58814 L247.81671,142.41185 M247.94577,116.024345 L275.8971,143.97565 M275.8971,116.024345 L247.94577,143.97565 M248.43346,114.81917 L278.7951,145.18083 M278.7951,114.81917 L248.43346,145.18083 M249.36661,114.05947 L281.24768,145.94054 M281.24768,114.05947 L249.36661,145.94054" fill="none" stroke="hotpink" stroke-width="0.5" style="mix-blend-mode: multiply;"/>
</g>
<g inkscape:groupmode="layer" inkscape:label="deepskyblue">
<path d="M28.2,53.2 L31.8,56.8 M31.8,53.2 L28.2,56.8 M29.63339,52.940533 L33.752323,57.059467 M33.752323,52.940533 L29.63339,57.059467 M30.566545,52.180832 L36.204884,57.819168 M36.204884,52.180832 L30.566545,57.819168 M31.054222,50.97565 L39.10292,59.02435 M39.10292,50.97565 L31.054222,59.02435 M31.183283,49.411854 L42.359573,60.588146 M42.359573,49.411854 L31.183283,60.588146 M31.066437,47.60215 L45.862137,62.39785 M45.862137,47.60215 L31.066437,62.39785 M30.834116,45.67697 L49.48017,64.32303 M49.48017,45.67697 L30.834116,64.32303 M30.625078,43.775078 L53.07492,66.22492 M53.07492,43.775078 L30.625078,66.22492 M30.576399,42.033543 L56.509315,67.96646 M56.509315,42.033543 L30.576399,67.96646 M30.8136,40.577885 L59.65783,69.42211 M59.65783,40.577885 L30.8136,69.42211 M31.441595,39.513023 L62.415546,70.48698 M62.415546,39.513023 L31.441595,70.48698 M32.537136,38.915707 L64.70572,71.08429 M64.70572,38.915707 L32.537136,71.08429 M34.143272,38.828983 L66.4853,71.17101 M66.4853,38.828983 L34.143272,71.17101 M36.26625,39.25911 L67.74803,70.74089 M67.74803,39.25911 L36.26625,70.74089 M38.875076,40.17508 L68.524925,69.82492 M68.524925,40.17508 L38.875076,69.82492 M41.903732,41.51087 L68.88198,68.48913 M68.88198,41.51087 L41.903732,68.48913 M45.255936,43.17022 L68.9155,66.82978 M68.9155,43.17022 L45.255936,66.82978 M48.81209,45.03352 L68.74505,64.96648 M68.74505,45.03352 L48.81209,64.96648 M52.43791,46.96648 L68.50495,63.03352 M68.50495,46.96648 L52.43791,63.03352 M55.994064,48.82978 L68.3345,61.17022 M68.3345,48.82978 L55.994064,61.17022 M59.346268,50.48913 L68.36802,59.51087 M68.36802,50.48913 L59.346268,59.51087 M62.374924,51.82492 L68.725075,58.17508 M68.725075,51.82492 L62.374924,58.17508 M64.98375,52.74089 L69.50197,57.25911 M69.50197,52.74089 L64.98375,57.25911 M67.10673,53.171017 L70.7647,56.828983 M70.7647,53.171017 L67.10673,56.828983 M68.71287,53.084293 L72.54428,56.915707 M72.54428,53.084293 L68.71287,56.915707 M69.8084,52.486977 L74.83445,57.513023 M74.83445,52.486977 L69.8084,57.513023 M70.4364,51.422115 L77.59217,58.577885 M77.59217,51.422115 L70.4364,58.577885 M70.6736,49.966457 L80.740685,60.033543 M80.740685,49.966457 L70.6736,60.033543 M70.62492,48.224922 L84.17508,61.775078 M84.17508,48.224922 L70.62492,61.775078 M70.415886,46.32303 L87.76983,63.67697 M87.76983,46.32303 L70.415886,63.67697 M70.18356,44.39785 L91.38786,65.60215 M91.38786,44.39785 L70.18356,65.60215 M70.06672,42.588146 L94.89043,67.41186 M94.89043,42.588146 L70.06672,67.41186 M70.19578,41.02435 L98.14708,68.975655 M98.14708,41.02435 L70.19578,68.975655 M70.68346,39.819168 L101.04512,70.18083 M101.04512,39.819168 L70.68346,70.18083 M71.61661,39.059467 L103.49767,70.94053 M103.49767,39.059467 L71.61661,70.94053 M73.05,38.8 L105.45,71.2 M105.45,38.8 L73.05,71.2 M75.00233,39.059467 L106.88339,70.94053 M106.88339,39.059467 L75.00233,70.94053 M77.45488,39.819168 L107.81654,70.18083 M107.81654,39.819168 L77.45488,70.18083 M80.35292,41.02435 L108.30422,68.975655 M108.30422,41.02435 L80.35292,68.975655 M83.60957,42.588146 L108.43328,67.41186 M108.43328,42.588146 L83.60957,67.41186 M87.11214,44.39785 L108.31644,65.60215 M108.31644,44.39785 L87.11214,65.60215 M90.73017,46.32303 L108.084114,63.67697 M108.084114,46.32303 L90.73017,63.67697 M94.32492,48.224922 L107.87508,61.775078 M107.87508,48.224922 L94.32492,61.775078 M97.759315,49.966457 L107.8264,60.033543 M107.8264,49.966457 L97.759315,60.033543 M100.90783,51.422115 L108.0636,58.577885 M108.0636,51.422115 L100.90783,58.577885 M103.66555,52.486977 L108.6916,57.513023 M108.6916,52.486977 L103.66555,57.513023 M105.95572,53.084293 L109.78713,56.915707 M109.78713,53.084293 L105.95572,56.915707 M107.7353,53.171017 L111.39327,56.828983 M111.39327,53.171017 L107.7353,56.828983 M108.99803,52.74089 L113.51625,57.25911 M113.51625,52.74089 L108.99803,57.25911 M109.774925,51.82492 L116.12508,58.17508 M116.12508,51.82492 L109.774925,58.17508 M110.13198,50.48913 L119.15373,59.51087 M119.15373,50.48913 L110.13198,59.51087 M110.1655,48.82978 L122.505936,61.17022 M122.505936,48.82978 L110.1655,61.17022 M109.99505,46.96648 L126.062096,63.03352 M126.062096,46.96648 L109.99505,63.03352 M109.75495,45.03352 L129.68791,64.96648 M129.68791,45.03352 L109.75495,64.96648 M109.5845,43.17022 L133.24406,66.82978 M133.24406,43.17022 L109.5845,66.82978 M109.61802,41.51087 L136.59627,68.48913 M136.59627,41.51087 L109.61802,68.48913 M109.975075,40.17508 L139.62492,69.82492 M139.62492,40.17508 L109.975075,69.82492 M110.75197,39.25911 L142.23375,70.74089 M142.23375,39.25911 L110.75197,70.74089 M112.0147,38.828983 L144.35674,71.17101 M144.35674,38.828983 L112.0147,71.17101 M113.79428,38.915707 L145.96286,71.08429 M145.96286,38.915707 L113.79428,71.08429 M116.08445,39.513023 L147.05841,70.48698 M147.05841,39.513023 L116.08445,70.48698 M118.84217,40.577885 L147.6864,69.42211 M147.6864,40.577885 L118.84217,69.42211 M121.990685,42.033543 L147.9236,67.96646 M147.9236,42.033543 L121.990685,67.96646 M125.42508,43.775078 L147.87492,66.22492 M147.87492,43.775078 L125.42508,66.22492 M129.01984,45.67697 L147.66588,64.32303 M147.66588,45.67697 L129.01984,64.32303 M132.63786,47.60215 L147.43356,62.39785 M147.43356,47.60215 L132.63786,62.39785 M136.14043,49.411854 L147.31671,60.588146 M147.31671,49.411854 L136.14043,60.588146 M139.39708,50.97565 L147.44577,59.02435 M147.44577,50.97565 L139.39708,59.02435 M142.29512,52.180832 L147.93346,57.819168 M147.93346,52.180832 L142.29512,57.819168 M144.74768,52.940533 L148.86661,57.059467 M148.86661,52.940533 L144.74768,57.059467 M146.7,53.2 L150.3,56.8 M150.3,53.2 L146.7,56.8 M148.13339,52.940533 L152.25232,57.059467 M152.25232,52.940533 L148.13339,57.059467 M149.06654,52.180832 L154.70488,57.819168 M154.70488,52.180832 L149.06654,57.819168 M149.55423,50.97565 L157.60292,59.02435 M157.60292,50.97565 L149.55423,59.02435 M149.68329,49.411854 L160.85957,60.588146 M160.85957,49.411854 L149.68329,60.588146 M149.56644,47.60215 L164.36214,62.39785 M164.36214,47.60215 L149.56644,62.39785 M149.33412,45.67697 L167.98016,64.32303 M167.98016,45.67697 L149.33412,64.32303 M149.12508,43.775078 L171.57492,66.22492 M171.57492,43.775078 L149.12508,66.22492 M149.0764,42.033543 L175.00931,67.96646 M175.00931,42.033543 L149.0764,67.96646 M149.3136,40.577885 L178.15782,69.42211 M178.15782,40.577885 L149.3136,69.42211 M149.94159,39.513023 L180.91554,70.48698 M180.91554,39.513023 L149.94159,70.48698 M151.03714,38.915707 L183.20572,71.08429 M183.20572,38.915707 L151.03714,71.08429 M152.64326,38.828983 L184.9853,71.17101 M184.9853,38.828983 L152.64326,71.17101 M154.76625,39.25911 L186.24803,70.74089 M186.24803,39.25911 L154.76625,70.74089 M157.37508,40.17508 L187.02492,69.82492 M187.02492,40.17508 L157.37508,69.82492 M160.40373,41.51087 L187.38199,68.48913 M187.38199,41.51087 L160.40373,68.48913 M163.75594,43.17022 L187.4155,66.82978 M187.4155,43.17022 L163.75594,66.82978 M167.31209,45.03352 L187.24506,64.96648 M187.24506,45.03352 L167.31209,64.96648 M170.93791,46.96648 L187.00494,63.03352 M187.00494,46.96648 L170.93791,63.03352 M174.49406,48.82978 L186.8345,61.17022 M186.8345,48.82978 L174.49406,61.17022 M177.84627,50.48913 L186.86801,59.51087 M186.86801,50.48913 L177.84627,59.51087 M180.87492,51.82492 L187.22508,58.17508 M187.22508,51.82492 L180.87492,58.17508 M183.48375,52.74089 L188.00197,57.25911 M188.00197,52.74089 L183.48375,57.25911 M185.60674,53.171017 L189.2647,56.828983 M189.2647,53.171017 L185.60674,56.828983 M187.21286,53.084293 L191.04428,56.915707 M191.04428,53.084293 L187.21286,56.915707 M188.30841,52.486977 L193.33446,57.513023 M193.33446,52.486977 L188.30841,57.513023 M188.9364,51.422115 L196.09218,58.577885 M196.09218,51.422115 L188.9364,58.577885 M189.1736,49.966457 L199.24069,60.033543 M199.24069,49.966457 L189.1736,60.033543 M189.12492,48.224922 L202.67508,61.775078 M202.67508,48.224922 L189.12492,61.775078 M188.91588,46.32303 L206.26984,63.67697 M206.26984,46.32303 L188.91588,63.67697 M188.68356,44.39785 L209.88786,65.60215 M209.88786,44.39785 L188.68356,65.60215 M188.56671,42.588146 L213.39043,67.41186 M213.39043,42.588146 L188.56671,67.41186 M188.69577,41.02435 L216.64708,68.975655 M216.64708,41.02435 L188.69577,68.975655 M189.18346,39.819168 L219.54512,70.18083 M219.54512,39.819168 L189.18346,70.18083 M190.11661,39.059467 L221.99768,70.94053 M221.99768,39.059467 L190.11661,70.94053 M191.55,38.8 L223.95,71.2 M223.95,38.8 L191.55,71.2 M193.50232,39.059467 L225.38339,70.94053 M225.38339,39.059467 L193.50232,70.94053 M195.95488,39.819168 L226.31654,70.18083 M226.31654,39.819168 L195.95488,70.18083 M198.85292,41.02435 L226.80423,68.975655 M226.80423,41.02435 L198.85292,68.975655 M202.10957,42.588146 L226.93329,67.41186 M226.93329,42.588146 L202.10957,67.41186 M205.61214,44.39785 L226.81644,65.60215 M226.81644,44.39785 L205.61214,65.60215 M209.23016,46.32303 L226.58412,63.67697 M226.58412,46.32303 L209.23016,63.67697 M212.82492,48.224922 L226.37508,61.775078 M226.37508,48.224922 L212.82492,61.775078 M216.25931,49.966457 L226.3264,60.033543 M226.3264,49.966457 L216.25931,60.033543 M219.40782,51.422115 L226.5636,58.577885 M226.5636,51.422115 L219.40782,58.577885 M222.16554,52.486977 L227.19159,57.513023 M227.19159,52.486977 L222.16554,57.513023 M224.45572,53.084293 L228.28714,56.915707 M228.28714,53.084293 L224.45572,56.915707 M226.2353,53.171017 L229.89326,56.828983 M229.89326,53.171017 L226.2353,56.828983 M227.49803,52.74089 L232.01625,57.25911 M232.01625,52.74089 L227.49803,57.25911 M228.27492,51.82492 L234.62508,58.17508 M234.62508,51.82492 L228.27492,58.17508 M228.63199,50.48913 L237.65373,59.51087 M237.65373,50.48913 L228.63199,59.51087 M228.6655,48.82978 L241.00594,61.17022 M241.00594,48.82978 L228.6655,61.17022 M228.49506,46.96648 L244.56209,63.03352 M244.56209,46.96648 L228.49506,63.03352 M228.25494,45.03352 L248.18791,64.96648 M248.18791,45.03352 L228.25494,64.96648 M228.0845,43.17022 L251.74406,66.82978 M251.74406,43.17022 L228.0845,66.82978 M228.11801,41.51087 L255.09627,68.48913 M255.09627,41.51087 L228.11801,68.48913 M228.47508,40.17508 L258.1249,69.82492 M258.1249,40.17508 L228.47508,69.82492 M229.25197,39.25911 L260.73373,70.74089 M260.73373,39.25911 L229.25197,70.74089 M230.5147,38.828983 L262.85672,71.17101 M262.85672,38.828983 L230.5147,71.17101 M232.29428,38.915707 L264.46286,71.08429 M264.46286,38.915707 L232.29428,71.08429 M234.58446,39.513023 L265.5584,70.48698 M265.5584,39.513023 L234.58446,70.48698 M237.34218,40.577885 L266.1864,69.42211 M266.1864,40.577885 L237.34218,69.42211 M240.49069,42.033543 L266.4236,67.96646 M266.4236,42.033543 L240.49069,67.96646 M243.92508,43.775078 L266.3749,66.22492 M266.3749,43.775078 L243.92508,66.22492 M247.51984,45.67697 L266.1659,64.32303 M266.1659,45.67697 L247.51984,64.32303 M251.13786,47.60215 L265.93356,62.39785 M265.93356,47.60215 L251.13786,62.39785 M254.64043,49.411854 L265.8167,60.588146 M265.8167,49.411854 L254.64043,60.588146 M257.8971,50.97565 L265.94577,59.02435 M265.94577,50.97565 L257.8971,59.02435 M260.7951,52.180832 L266.43344,57.819168 M266.43344,52.180832 L260.7951,57.819168 M263.24768,52.940533 L267.3666,57.059467 M267.3666,52.940533 L263.24768,57.059467 M28.2,103.2 L31.8,106.8 M31.8,103.2 L28.2,106.8 M29.63339,102.94053 L33.752323,107.05947 M33.752323,102.94053 L29.63339,107.05947 M30.566545,102.18083 L36.204884,107.81917 M36.204884,102.18083 L30.566545,107.81917 M31.054222,100.975655 L39.10292,109.024345 M39.10292,100.975655 L31.054222,109.024345 M31.183283,99.41186 L42.359573,110.58814 M42.359573,99.41186 L31.183283,110.58814 M31.066437,97.60215 L45.862137,112.39785 M45.862137,97.60215 L31.066437,112.39785 M30.834116,95.67697 L49.48017,114.32303 M49.48017,95.67697 L30.834116,114.32303 M30.625078,93.77508 L53.07492,116.22492 M53.07492,93.77508 L30.625078,116.22492 M30.576399,92.03354 L56.509315,117.96646 M56.509315,92.03354 L30.576399,117.96646 M30.8136,90.57789 L59.65783,119.42211 M59.65783,90.57789 L30.8136,119.42211 M31.441595,89.51302 L62.415546,120.48698 M62.415546,89.51302 L31.441595,120.48698 M32.537136,88.91571 L64.70572,121.08429 M64.70572,88.91571 L32.537136,121.08429 M34.143272,88.82899 L66.4853,121.17101 M66.4853,88.82899 L34.143272,121.17101 M36.26625,89.25911 L67.74803,120.74089 M67.74803,89.25911 L36.26625,120.74089 M38.875076,90.17508 L68.524925,119.82492 M68.524925,90.17508 L38.875076,119.82492 M41.903732,91.51087 L68.88198,118.48913 M68.88198,91.51087 L41.903732,118.48913 M45.255936,93.17022 L68.9155,116.82978 M68.9155,93.17022 L45.255936,116.82978 M48.81209,95.03352 L68.74505,114.96648 M68.74505,95.03352 L48.81209,114.96648 M52.43791,96.96648 L68.50495,113.03352 M68.50495,96.96648 L52.43791,113.03352 M55.994064,98.82978 L68.3345,111.17022 M68.3345,98.82978 L55.994064,111.17022 M59.346268,100.48913 L68.36802,109.51087 M68.36802,100.48913 L59.346268,109.51087 M62.374924,101.82492 L68.725075,108.17508 M68.725075,101.82492 L62.374924,108.17508 M64.98375,102.74089 L69.50197,107.25911 M69.50197,102.74089 L64.98375,107.25911 M67.10673,103.17101 L70.7647,106.82899 M70.7647,103.17101 L67.10673,106.82899 M68.71287,103.08429 L72.54428,106.91571 M72.54428,103.08429 L68.71287,106.91571 M69.8084,102.48698 L74.83445,107.51302 M74.83445,102.48698 L69.8084,107.51302 M70.4364,101.42211 L77.59217,108.57789 M77.59217,101.42211 L70.4364,108.57789 M70.6736,99.96646 L80.740685,110.03354 M80.740685,99.96646 L70.6736,110.03354 M70.62492,98.22492 L84.17508,111.77508 M84.17508,98.22492 L70.62492,111.77508 M70.415886,96.32303 L87.76983,113.67697 M87.76983,96.32303 L70.415886,113.67697 M70.18356,94.39785 L91.38786,115.60215 M91.38786,94.39785 L70.18356,115.60215 M70.06672,92.58814 L94.89043,117.41186 M94.89043,92.58814 L70.06672,117.41186 M70.19578,91.024345 L98.14708,118.975655 M98.14708,91.024345 L70.19578,118.975655 M70.68346,89.81917 L101.04512,120.18083 M101.04512,89.81917 L70.68346,120.18083 M71.61661,89.05947 L103.49767,120.94053 M103.49767,89.05947 L71.61661,120.94053 M73.05,88.8 L105.45,121.2 M105.45,88.8 L73.05,121.2 M75.00233,89.05947 L106.88339,120.94053 M106.88339,89.05947 L75.00233,120.94053 M77.45488,89.81917 L107.81654,120.18083 M107.81654,89.81917 L77.45488,120.18083 M80.35292,91.024345 L108.30422,118.975655 M108.30422,91.024345 L80.35292,118.975655 M83.60957,92.58814 L108.43328,117.41186 M108.43328,92.58814 L83.60957,117.41186 M87.11214,94.39785 L108.31644,115.60215 M108.31644,94.39785 L87.11214,115.60215 M90.73017,96.32303 L108.084114,113.67697 M108.084114,96.32303 L90.73017,113.67697 M94.32492,98.22492 L107.87508,111.77508 M107.87508,98.22492 L94.32492,111.77508 M97.759315,99.96646 L107.8264,110.03354 M107.8264,99.96646 L97.759315,110.03354 M100.90783,101.42211 L108.0636,108.57789 M108.0636,101.42211 L100.90783,108.57789 M103.66555,102.48698 L108.6916,107.51302 M108.6916,102.48698 L103.66555,107.51302 M105.95572,103.08429 L109.78713,106.91571 M109.78713,103.08429 L105.95572,106.91571 M107.7353,103.17101 L111.39327,106.82899 M111.39327,103.17101 L107.7353,106.82899 M108.99803,102.74089 L113.51625,107.25911 M113.51625,102.74089 L108.99803,107.25911 M109.774925,101.82492 L116.12508,108.17508 M116.12508,101.82492 L109.774925,108.17508 M110.13198,100.48913 L119.15373,109.51087 M119.15373,100.48913 L110.13198,109.51087 M110.1655,98.82978 L122.505936,111.17022 M122.505936,98.82978 L110.1655,111.17022 M109.99505,96.96648 L126.062096,113.03352 M126.062096,96.96648 L109.99505,113.03352 M109.75495,95.03352 L129.68791,114.96648 M129.68791,95.03352 L109.75495,114.96648 M109.5845,93.17022 L133.24406,116.82978 M133.24406,93.17022 L109.5845,116.82978 M109.61802,91.51087 L136.59627,118.48913 M136.59627,91.51087 L109.61802,118.48913 M109.975075,90.17508 L139.62492,119.82492 M139.62492,90.17508 L109.975075,119.82492 M110.75197,89.25911 L142.23375,120.74089 M142.23375,89.25911 L110.75197,120.74089 M112.0147,88.82899 L144.35674,121.17101 M144.35674,88.82899 L112.0147,121.17101 M113.79428,88.91571 L145.96286,121.08429 M145.96286,88.91571 L113.79428,121.08429 M116.08445,89.51302 L147.05841,120.48698 M147.05841,89.51302 L116.08445,120.48698 M118.84217,90.57789 L147.6864,119.42211 M147.6864,90.57789 L118.84217,119.42211 M121.990685,92.03354 L147.9236,117.96646 M147.9236,92.03354 L121.990685,117.96646 M125.42508,93.77508 L147.87492,116.22492 M147.87492,93.77508 L125.42508,116.22492 M129.01984,95.67697 L147.66588,114.32303 M147.66588,95.67697 L129.01984,114.32303 M132.63786,97.60215 L147.43356,112.39785 M147.43356,97.60215 L132.63786,112.39785 M136.14043,99.41186 L147.31671,110.58814 M147.31671,99.41186 L136.14043,110.58814 M139.39708,100.975655 L147.44577,109.024345 M147.44577,100.975655 L139.39708,109.024345 M142.29512,102.18083 L147.93346,107.81917 M147.93346,102.18083 L142.29512,107.81917 M144.74768,102.94053 L148.86661,107.05947 M148.86661,102.94053 L144.74768,107.05947 M146.7,103.2 L150.3,106.8 M150.3,103.2 L146.7,106.8 M148.13339,102.94053 L152.25232,107.05947 M152.25232,102.94053 L148.13339,107.05947 M149.06654,102.18083 L154.70488,107.81917 M154.70488,102.18083 L149.06654,107.81917 M149.55423,100.975655 L157.60292,109.024345 M157.60292,100.975655 L149.55423,109.024345 M149.68329,99.41186 L160.85957,110.58814 M160.85957,99.41186 L149.68329,110.58814 M149.56644,97.60215 L164.36214,112.39785 M164.36214,97.60215 L149.56644,112.39785 M149.33412,95.67697 L167.98016,114.32303 M167.98016,95.67697 L149.33412,114.32303 M149.12508,93.77508 L171.57492,116.22492 M171.57492,93.77508 L149.12508,116.22492 M149.0764,92.03354 L175.00931,117.96646 M175.00931,92.03354 L149.0764,117.96646 M149.3136,90.57789 L178.15782,119.42211 M178.15782,90.57789 L149.3136,119.42211 M149.94159,89.51302 L180.91554,120.48698 M180.91554,89.51302 L149.94159,120.48698 M151.03714,88.91571 L183.20572,121.08429 M183.20572,88.91571 L151.03714,121.08429 M152.64326,88.82899 L184.9853,121.17101 M184.9853,88.82899 L152.64326,121.17101 M154.76625,89.25911 L186.24803,120.74089 M186.24803,89.25911 L154.76625,120.74089 M157.37508,90.17508 L187.02492,119.82492 M187.02492,90.17508 L157.37508,119.82492 M160.40373,91.51087 L187.38199,118.48913 M187.38199,91.51087 L160.40373,118.48913 M163.75594,93.17022 L187.4155,116.82978 M187.4155,93.17022 L163.75594,116.82978 M167.31209,95.03352 L187.24506,114.96648 M187.24506,95.03352 L167.31209,114.96648 M170.93791,96.96648 L187.00494,113.03352 M187.00494,96.96648 L170.93791,113.03352 M174.49406,98.82978 L186.8345,111.17022 M186.8345,98.82978 L174.49406,111.17022 M177.84627,100.48913 L186.86801,109.51087 M186.86801,100.48913 L177.84627,109.51087 M180.87492,101.82492 L187.22508,108.17508 M187.22508,101.82492 L180.87492,108.17508 M183.48375,102.74089 L188.00197,107.25911 M188.00197,102.74089 L183.48375,107.25911 M185.60674,103.17101 L189.2647,106.82899 M189.2647,103.17101 L185.60674,106.82899 M187.21286,103.08429 L191.04428,106.91571 M191.04428,103.08429 L187.21286,106.91571 M188.30841,102.48698 L193.33446,107.51302 M193.33446,102.48698 L188.30841,107.51302 M188.9364,101.42211 L196.09218,108.57789 M196.09218,101.42211 L188.9364,108.57789 M189.1736,99.96646 L199.24069,110.03354 M199.24069,99.96646 L189.1736,110.03354 M189.12492,98.22492 L202.67508,111.77508 M202.67508,98.22492 L189.12492,111.77508 M188.91588,96.32303 L206.26984,113.67697 M206.26984,96.32303 L188.91588,113.67697 M188.68356,94.39785 L209.88786,115.60215 M209.88786,94.39785 L188.68356,115.60215 M188.56671,92.58814 L213.39043,117.41186 M213.39043,92.58814 L188.56671,117.41186 M188.69577,91.024345 L216.64708,118.975655 M216.64708,91.024345 L188.69577,118.975655 M189.18346,89.81917 L219.54512,120.18083 M219.54512,89.81917 L189.18346,120.18083 M190.11661,89.05947 L221.99768,120.94053 M221.99768,89.05947 L190.11661,120.94053 M191.55,88.8 L223.95,121.2 M223.95,88.8 L191.55,121.2 M193.50232,89.05947 L225.38339,120.94053 M225.38339,89.05947 L193.50232,120.94053 M195.95488,89.81917 L226.31654,120.18083 M226.31654,89.81917 L195.95488,120.18083 M198.85292,91.024345 L226.80423,118.975655 M226.80423,91.024345 L198.85292,118.975655 M202.10957,92.58814 L226.93329,117.41186 M226.93329,92.58814 L202.10957,117.41186 M205.61214,94.39785 L226.81644,115.60215 M226.81644,94.39785 L205.61214,115.60215 M209.23016,96.32303 L226.58412,113.67697 M226.58412,96.32303 L209.23016,113.67697 M212.82492,98.22492 L226.37508,111.77508 M226.37508,98.22492 L212.82492,111.77508 M216.25931,99.96646 L226.3264,110.03354 M226.3264,99.96646 L216.25931,110.03354 M219.40782,101.42211 L226.5636,108.57789 M226.5636,101.42211 L219.40782,108.57789 M222.16554,102.48698 L227.19159,107.51302 M227.19159,102.48698 L222.16554,107.51302 M224.45572,103.08429 L228.28714,106.91571 M228.28714,103.08429 L224.45572,106.91571 M226.2353,103.17101 L229.89326,106.82899 M229.89326,103.17101 L226.2353,106.82899 M227.49803,102.74089 L232.01625,107.25911 M232.01625,102.74089 L227.49803,107.25911 M228.27492,101.82492 L234.62508,108.17508 M234.62508,101.82492 L228.27492,108.17508 M228.63199,100.48913 L237.65373,109.51087 M237.65373,100.48913 L228.63199,109.51087 M228.6655,98.82978 L241.00594,111.17022 M241.00594,98.82978 L228.6655,111.17022 M228.49506,96.96648 L244.56209,113.03352 M244.56209,96.96648 L228.49506,113.03352 M228.25494,95.03352 L248.18791,114.96648 M248.18791,95.03352 L228.25494,114.96648 M228.0845,93.17022 L251.74406,116.82978 M251.74406,93.17022 L228.0845,116.82978 M228.11801,91.51087 L255.09627,118.48913 M255.09627,91.51087 L228.11801,118.48913 M228.47508,90.17508 L258.1249,119.82492 M258.1249,90.17508 L228.47508,119.82492 M229.25197,89.25911 L260.73373,120.74089 M260.73373,89.25911 L229.25197,120.74089 M230.5147,88.82899 L262.85672,121.17101 M262.85672,88.82899 L230.5147,121.17101 M232.29428,88.91571 L264.46286,121.08429 M264.46286,88.91571 L232.29428,121.08429 M234.58446,89.51302 L265.5584,120.48698 M265.5584,89.51302 L234.58446,120.48698 M237.34218,90.57789 L266.1864,119.42211 M266.1864,90.57789 L237.34218,119.42211 M240.49069,92.03354 L266.4236,117.96646 M266.4236,92.03354 L240.49069,117.96646 M243.92508,93.77508 L266.3749,116.22492 M266.3749,93.77508 L243.92508,116.22492 M247.51984,95.67697 L266.1659,114.32303 M266.1659,95.67697 L247.51984,114.32303 M251.13786,97.60215 L265.93356,112.39785 M265.93356,97.60215 L251.13786,112.39785 M254.64043,99.41186 L265.8167,110.58814 M265.8167,99.41186 L254.64043,110.58814 M257.8971,100.975655 L265.94577,109.024345 M265.94577,100.975655 L257.8971,109.024345 M260.7951,102.18083 L266.43344,107.81917 M266.43344,102.18083 L260.7951,107.81917 M263.24768,102.94053 L267.3666,107.05947 M267.3666,102.94053 L263.24768,107.05947 M28.2,153.2 L31.8,156.8 M31.8,153.2 L28.2,156.8 M29.63339,152.94054 L33.752323,157.05946 M33.752323,152.94054 L29.63339,157.05946 M30.566545,152.18083 L36.204884,157.81917 M36.204884,152.18083 L30.566545,157.81917 M31.054222,150.97565 L39.10292,159.02435 M39.10292,150.97565 L31.054222,159.02435 M31.183283,149.41185 L42.359573,160.58815 M42.359573,149.41185 L31.183283,160.58815 M31.066437,147.60216 L45.862137,162.39784 M45.862137,147.60216 L31.066437,162.39784 M30.834116,145.67697 L49.48017,164.32303 M49.48017,145.67697 L30.834116,164.32303 M30.625078,143.77507 L53.07492,166.22493 M53.07492,143.77507 L30.625078,166.22493 M30.576399,142.03354 L56.509315,167.96646 M56.509315,142.03354 L30.576399,167.96646 M30.8136,140.57788 L59.65783,169.42212 M59.65783,140.57788 L30.8136,169.42212 M31.441595,139.51303 L62.415546,170.48697 M62.415546,139.51303 L31.441595,170.48697 M32.537136,138.91571 L64.70572,171.08429 M64.70572,138.91571 L32.537136,171.08429 M34.143272,138.82898 L66.4853,171.17102 M66.4853,138.82898 L34.143272,171.17102 M36.26625,139.25911 L67.74803,170.74089 M67.74803,139.25911 L36.26625,170.74089 M38.875076,140.17508 L68.524925,169.82492 M68.524925,140.17508 L38.875076,169.82492 M41.903732,141.51088 L68.88198,168.48912 M68.88198,141.51088 L41.903732,168.48912 M45.255936,143.17023 L68.9155,166.82977 M68.9155,143.17023 L45.255936,166.82977 M48.81209,145.03352 L68.74505,164.96648 M68.74505,145.03352 L48.81209,164.96648 M52.43791,146.96648 L68.50495,163.03352 M68.50495,146.96648 L52.43791,163.03352 M55.994064,148.82977 L68.3345,161.17023 M68.3345,148.82977 L55.994064,161.17023 M59.346268,150.48912 L68.36802,159.51088 M68.36802,150.48912 L59.346268,159.51088 M62.374924,151.82492 L68.725075,158.17508 M68.725075,151.82492 L62.374924,158.17508 M64.98375,152.74089 L69.50197,157.25911 M69.50197,152.74089 L64.98375,157.25911 M67.10673,153.17102 L70.7647,156.82898 M70.7647,153.17102 L67.10673,156.82898 M68.71287,153.08429 L72.54428,156.91571 M72.54428,153.08429 L68.71287,156.91571 M69.8084,152.48697 L74.83445,157.51303 M74.83445,152.48697 L69.8084,157.51303 M70.4364,151.42212 L77.59217,158.57788 M77.59217,151.42212 L70.4364,158.57788 M70.6736,149.96646 L80.740685,160.03354 M80.740685,149.96646 L70.6736,160.03354 M70.62492,148.22493 L84.17508,161.77507 M84.17508,148.22493 L70.62492,161.77507 M70.415886,146.32303 L87.76983,163.67697 M87.76983,146.32303 L70.415886,163.67697 M70.18356,144.39784 L91.38786,165.60216 M91.38786,144.39784 L70.18356,165.60216 M70.06672,142.58815 L94.89043,167.41185 M94.89043,142.58815 L70.06672,167.41185 M70.19578,141.02435 L98.14708,168.97565 M98.14708,141.02435 L70.19578,168.97565 M70.68346,139.81917 L101.04512,170.18083 M101.04512,139.81917 L70.68346,170.18083 M71.61661,139.05946 L103.49767,170.94054 M103.49767,139.05946 L71.61661,170.94054 M73.05,138.8 L105.45,171.2 M105.45,138.8 L73.05,171.2 M75.00233,139.05946 L106.88339,170.94054 M106.88339,139.05946 L75.00233,170.94054 M77.45488,139.81917 L107.81654,170.18083 M107.81654,139.81917 L77.45488,170.18083 M80.35292,141.02435 L108.30422,168.97565 M108.30422,141.02435 L80.35292,168.97565 M83.60957,142.58815 L108.43328,167.41185 M108.43328,142.58815 L83.60957,167.41185 M87.11214,144.39784 L108.31644,165.60216 M108.31644,144.39784 L87.11214,165.60216 M90.73017,146.32303 L108.084114,163.67697 M108.084114,146.32303 L90.73017,163.67697 M94.32492,148.22493 L107.87508,161.77507 M107.87508,148.22493 L94.32492,161.77507 M97.759315,149.96646 L107.8264,160.03354 M107.8264,149.96646 L97.759315,160.03354 M100.90783,151.42212 L108.0636,158.57788 M108.0636,151.42212 L100.90783,158.57788 M103.66555,152.48697 L108.6916,157.51303 M108.6916,152.48697 L103.66555,157.51303 M105.95572,153.08429 L109.78713,156.91571 M109.78713,153.08429 L105.95572,156.91571 M107.7353,153.17102 L111.39327,156.82898 M111.39327,153.17102 L107.7353,156.82898 M108.99803,152.74089 L113.51625,157.25911 M113.51625,152.74089 L108.99803,157.25911 M109.774925,151.82492 L116.12508,158.17508 M116.12508,151.82492 L109.774925,158.17508 M110.13198,150.48912 L119.15373,159.51088 M119.15373,150.48912 L110.13198,159.51088 M110.1655,148.82977 L122.505936,161.17023 M122.505936,148.82977 L110.1655,161.17023 M109.99505,146.96648 L126.062096,163.03352 M126.062096,146.96648 L109.99505,163.03352 M109.75495,145.03352 L129.68791,164.96648 M129.68791,145.03352 L109.75495,164.96648 M109.5845,143.17023 L133.24406,166.82977 M133.24406,143.17023 L109.5845,166.82977 M109.61802,141.51088 L136.59627,168.48912 M136.59627,141.51088 L109.61802,168.48912 M109.975075,140.17508 L139.62492,169.82492 M139.62492,140.17508 L109.975075,169.82492 M110.75197,139.25911 L142.23375,170.74089 M142.23375,139.25911 L110.75197,170.74089 M112.0147,138.82898 L144.35674,171.17102 M144.35674,138.82898 L112.0147,171.17102 M113.79428,138.91571 L145.96286,171.08429 M145.96286,138.91571 L113.79428,171.08429 M116.08445,139.51303 L147.05841,170.48697 M147.05841,139.51303 L116.08445,170.48697 M118.84217,140.57788 L147.6864,169.42212 M147.6864,140.57788 L118.84217,169.42212 M121.990685,142.03354 L147.9236,167.96646 M147.9236,142.03354 L121.990685,167.96646 M125.42508,143.77507 L147.87492,166.22493 M147.87492,143.77507 L125.42508,166.22493 M129.01984,145.67697 L147.66588,164.32303 M147.66588,145.67697 L129.01984,164.32303 M132.63786,147.60216 L147.43356,162.39784 M147.43356,147.60216 L132.63786,162.39784 M136.14043,149.41185 L147.31671,160.58815 M147.31671,149.41185 L136.14043,160.58815 M139.39708,150.97565 L147.44577,159.02435 M147.44577,150.97565 L139.39708,159.02435 M142.29512,152.18083 L147.93346,157.81917 M147.93346,152.18083 L142.29512,157.81917 M144.74768,152.94054 L148.86661,157.05946 M148.86661,152.94054 L144.74768,157.05946 M146.7,153.2 L150.3,156.8 M150.3,153.2 L146.7,156.8 M148.13339,152.94054 L152.25232,157.05946 M152.25232,152.94054 L148.13339,157.05946 M149.06654,152.18083 L154.70488,157.81917 M154.70488,152.18083 L149.06654,157.81917 M149.55423,150.97565 L157.60292,159.02435 M157.60292,150.97565 L149.55423,159.02435 M149.68329,149.41185 L160.85957,160.58815 M160.85957,149.41185 L149.68329,160.58815 M149.56644,147.60216 L164.36214,162.39784 M164.36214,147.60216 L149.56644,162.39784 M149.33412,145.67697 L167.98016,164.32303 M167.98016,145.67697 L149.33412,164.32303 M149.12508,143.77507 L171.57492,166.22493 M171.57492,143.77507 L149.12508,166.22493 M149.0764,142.03354 L175.00931,167.96646 M175.00931,142.03354 L149.0764,167.96646 M149.3136,140.57788 L178.15782,169.42212 M178.15782,140.57788 L149.3136,169.42212 M149.94159,139.51303 L180.91554,170.48697 M180.91554,139.51303 L149.94159,170.48697 M151.03714,138.91571 L183.20572,171.08429 M183.20572,138.91571 L151.03714,171.08429 M152.64326,138.82898 L184.9853,171.17102 M184.9853,138.82898 L152.64326,171.17102 M154.76625,139.25911 L186.24803,170.74089 M186.24803,139.25911 L154.76625,170.74089 M157.37508,140.17508 L187.02492,169.82492 M187.02492,140.17508 L157.37508,169.82492 M160.40373,141.51088 L187.38199,168.48912 M187.38199,141.51088 L160.40373,168.48912 M163.75594,143.17023 L187.4155,166.82977 M187.4155,143.17023 L163.75594,166.82977 M167.31209,145.03352 L187.24506,164.96648 M187.24506,145.03352 L167.31209,164.96648 M170.93791,146.96648 L187.00494,163.03352 M187.00494,146.96648 L170.93791,163.03352 M174.49406,148.82977 L186.8345,161.17023 M186.8345,148.82977 L174.49406,161.17023 M177.84627,150.48912 L186.86801,159.51088 M186.86801,150.48912 L177.84627,159.51088 M180.87492,151.82492 L187.22508,158.17508 M187.22508,151.82492 L180.87492,158.17508 M183.48375,152.74089 L188.00197,157.25911 M188.00197,152.74089 L183.48375,157.25911 M185.60674,153.17102 L189.2647,156.82898 M189.2647,153.17102 L185.60674,156.82898 M187.21286,153.08429 L191.04428,156.91571 M191.04428,153.08429 L187.21286,156.91571 M188.30841,152.48697 L193.33446,157.51303 M193.33446,152.48697 L188.30841,157.51303 M188.9364,151.42212 L196.09218,158.57788 M196.09218,151.42212 L188.9364,158.57788 M189.1736,149.96646 L199.24069,160.03354 M199.24069,149.96646 L189.1736,160.03354 M189.12492,148.22493 L202.67508,161.77507 M202.67508,148.22493 L189.12492,161.77507 M188.91588,146.32303 L206.26984,163.67697 M206.26984,146.32303 L188.91588,163.67697 M188.68356,144.39784 L209.88786,165.60216 M209.88786,144.39784 L188.68356,165.60216 M188.56671,142.58815 L213.39043,167.41185 M213.39043,142.58815 L188.56671,167.41185 M188.69577,141.02435 L216.64708,168.97565 M216.64708,141.02435 L188.69577,168.97565 M189.18346,139.81917 L219.54512,170.18083 M219.54512,139.81917 L189.18346,170.18083 M190.11661,139.05946 L221.99768,170.94054 M221.99768,139.05946 L190.11661,170.94054 M191.55,138.8 L223.95,171.2 M223.95,138.8 L191.55,171.2 M193.50232,139.05946 L225.38339,170.94054 M225.38339,139.05946 L193.50232,170.94054 M195.95488,139.81917 L226.31654,170.18083 M226.31654,139.81917 L195.95488,170.18083 M198.85292,141.02435 L226.80423,168.97565 M226.80423,141.02435 L198.85292,168.97565 M202.10957,142.58815 L226.93329,167.41185 M226.93329,142.58815 L202.10957,167.41185 M205.61214,144.39784 L226.81644,165.60216 M226.81644,144.39784 L205.61214,165.60216 M209.23016,146.32303 L226.58412,163.67697 M226.58412,146.32303 L209.23016,163.67697 M212.82492,148.22493 L226.37508,161.77507 M226.37508,148.22493 L212.82492,161.77507 M216.25931,149.96646 L226.3264,160.03354 M226.3264,149.96646 L216.25931,160.03354 M219.40782,151.42212 L226.5636,158.57788 M226.5636,151.42212 L219.40782,158.57788 M222.16554,152.48697 L227.19159,157.51303 M227.19159,152.48697 L222.16554,157.51303 M224.45572,153.08429 L228.28714,156.91571 M228.28714,153.08429 L224.45572,156.91571 M226.2353,153.17102 L229.89326,156.82898 M229.89326,153.17102 L226.2353,156.82898 M227.49803,152.74089 L232.01625,157.25911 M232.01625,152.74089 L227.49803,157.25911 M228.27492,151.82492 L234.62508,158.17508 M234.62508,151.82492 L228.27492,158.17508 M228.63199,150.48912 L237.65373,159.51088 M237.65373,150.48912 L228.63199,159.51088 M228.6655,148.82977 L241.00594,161.17023 M241.00594,148.82977 L228.6655,161.17023 M228.49506,146.96648 L244.56209,163.03352 M244.56209,146.96648 L228.49506,163.03352 M228.25494,145.03352 L248.18791,164.96648 M248.18791,145.03352 L228.25494,164.96648 M228.0845,143.17023 L251.74406,166.82977 M251.74406,143.17023 L228.0845,166.82977 M228.11801,141.51088 L255.09627,168.48912 M255.09627,141.51088 L228.11801,168.48912 M228.47508,140.17508 L258.1249,169.82492 M258.1249,140.17508 L228.47508,169.82492 M229.25197,139.25911 L260.73373,170.74089 M260.73373,139.25911 L229.25197,170.74089 M230.5147,138.82898 L262.85672,171.17102 M262.85672,138.82898 L230.5147,171.17102 M232.29428,138.91571 L264.46286,171.08429 M264.46286,138.91571 L232.29428,171.08429 M234.58446,139.51303 L265.5584,170.48697 M265.5584,139.51303 L234.58446,170.48697 M237.34218,140.57788 L266.1864,169.42212 M266.1864,140.57788 L237.34218,169.42212 M240.49069,142.03354 L266.4236,167.96646 M266.4236,142.03354 L240.49069,167.96646 M243.92508,143.77507 L266.3749,166.22493 M266.3749,143.77507 L243.92508,166.22493 M247.51984,145.67697 L266.1659,164.32303 M266.1659,145.67697 L247.51984,164.32303 M251.13786,147.60216 L265.93356,162.39784 M265.93356,147.60216 L251.13786,162.39784 M254.64043,149.41185 L265.8167,160.58815 M265.8167,149.41185 L254.64043,160.58815 M257.8971,150.97565 L265.94577,159.02435 M265.94577,150.97565 L257.8971,159.02435 M260.7951,152.18083 L266.43344,157.81917 M266.43344,152.18083 L260.7951,157.81917 M263.24768,152.94054 L267.3666,157.05946 M267.3666,152.94054 L263.24768,157.05946" fill="none" stroke="deepskyblue" stroke-width="0.5" style="mix-blend-mode: multiply;"/>
<g inkscape:groupmode="layer" inkscape:label="signature">
<path d="m 15.815664,12.893319 c -1.445284,-3.0999497 -5.555449,-0.3575 -5.08537,2.32203 1.697826,2.92736 4.504013,-3.54417 4.40859,-2.58178 -1.548999,2.22986 0.741131,6.08701 3.012419,3.25791 2.532153,-2.82358 0.259001,-7.8326797 -3.488671,-7.9011197 -3.217272,0.056 -5.8863857,2.4603197 -7.9308737,4.7238797 -2.354585,2.46752 0.0048,5.887 2.757763,6.62143 3.2195457,1.10867 6.8759417,1.30834 9.9459317,-0.36585 2.270396,-1.12373 5.025949,-2.62031 5.680576,-5.20027 -2.108811,-3.66096 -6.038415,1.28356 -3.842036,3.67822 1.07278,0.89979 4.586982,-2.27037 3.201668,-2.73503 0.03094,3.24357 1.226854,6.37852 1.337023,9.60311 -0.672198,3.54892 -7.469251,0.32096 -4.637082,-2.5164 2.158436,-2.4193 5.610472,-2.84094 8.202925,-4.57369 0.993877,-1.40371 0.353413,-5.25046 3.182464,-3.48957 2.142923,1.43516 -2.250898,5.7532 1.723416,5.02339 1.661189,-0.71663 6.494946,-1.40457 4.601401,-3.95236 -4.205319,-0.68052 -1.190571,5.86505 1.665411,3.46881 1.929752,-0.9247 2.778055,-4.05119 1.423645,-5.35034 0.479155,1.8589 3.849911,7.52574 4.880369,3.32696 0.21201,-1.28088 0.40468,-3.80204 1.01246,-1.23041 0.5858,2.6865 3.83412,4.91909 4.56937,1.07383 0.65272,-1.00894 -0.2696,-4.02739 0.99929,-1.35746 1.10974,2.31613 6.32001,1.46113 6.147,-1.13059 -1.98394,-2.13868 -5.3717,1.45205 -3.78252,3.73454 2.57741,0.96208 6.69797,-0.21041 7.06275,-3.33983 0.41287,-2.63769 0.26643,-5.3430297 -0.11178,-7.9756197 0.67418,3.94149 1.24889,7.9380497 2.39963,11.7713397 2.10586,1.67977 5.7434,1.65022 7.74596,-0.23639 3.03149,-1.85431 -0.26637,-4.76925 -2.71777,-4.54025 -2.11577,0.0793 -5.36257,2.40772 -5.16868,3.85604 2.08262,-2.38818 5.55759,-1.22628 8.30726,-1.6832 3.182,-0.26596 6.46546,-0.57372 9.54494,-1.18158 0.24171,0.4199 -0.27752,0.54338 -0.43067,0.17453" fill="none" stroke="deepskyblue" stroke-width="1" transform="translate(223,176) scale(0.44999999999999996)"/>
</g>
</g>
</svg>