<svg height="210mm" style="background:white" viewBox="0 0 297 210" width="297mm" xmlns="http://www.w3.org/2000/svg" xmlns:inkscape="http://www.inkscape.org/namespaces/inkscape">
<g inkscape:groupmode="layer" inkscape:label="black">
<path d="M145.77812,132.4375 L154.22188,132.4375 L150,125.125 L146.77812,130.70544 L151.22188,130.70544 L150,128.5891 L149.77812,128.9734 M148.26794,124.125 L139.8242,124.125 L144.04608,131.4375 L147.26794,125.85705 L142.8242,125.85705 L144.04608,127.9734 L144.26794,127.5891 M155.95392,131.4375 L160.1758,124.125 L151.73206,124.125 L154.95392,129.70544 L157.1758,125.85705 L154.73206,125.85705 L154.95392,126.24135 M145.77812,134.4375 L150,141.75 L154.22188,134.4375 L147.77812,134.4375 L150,138.2859 L151.22188,136.16956 L150.77812,136.16956 M151.73206,142.75 L172.08365,142.75 L161.90785,125.125 L152.73206,141.01794 L169.08365,141.01794 L161.90785,128.5891 L155.73206,139.2859 L166.08365,139.2859 L161.90785,132.0532 L158.73206,137.55385 L163.08365,137.55385 L161.90785,135.5173 L161.73206,135.8218 M138.09215,141.75 L142.31403,134.4375 L133.87027,134.4375 L137.09215,140.01794 L139.31403,136.16956 L136.87027,136.16956 L137.09215,136.55385 M132.13823,135.4375 L127.91635,142.75 L136.3601,142.75 L133.13823,137.16956 L130.91635,141.01794 L133.3601,141.01794 L133.13823,140.63365 M142.31403,132.4375 L138.09215,125.125 L133.87027,132.4375 L140.31403,132.4375 L138.09215,128.5891 L136.87027,130.70544 L137.31403,130.70544 M139.8242,142.75 L148.26794,142.75 L144.04608,135.4375 L140.8242,141.01794 L145.26794,141.01794 L144.04608,138.9016 L143.8242,139.2859 M145.77812,113.8125 L150,121.125 L154.22188,113.8125 L147.77812,113.8125 L150,117.6609 L151.22188,115.54455 L150.77812,115.54455 M154.22188,111.8125 L150,104.5 L145.77812,111.8125 L152.22188,111.8125 L150,107.9641 L148.77812,110.08045 L149.22188,110.08045 M151.73206,122.125 L160.1758,122.125 L155.95392,114.8125 L152.73206,120.39295 L157.1758,120.39295 L155.95392,118.2766 L155.73206,118.6609 M144.04608,114.8125 L139.8242,122.125 L148.26794,122.125 L145.04608,116.54455 L142.8242,120.39295 L145.26794,120.39295 L145.04608,120.00865 M148.26794,103.5 L104.100655,103.5 L126.1843,141.75 L147.26794,105.23205 L107.100655,105.23205 L126.1843,138.2859 L144.26794,106.9641 L110.100655,106.9641 L126.1843,134.8218 L141.26794,108.69615 L113.100655,108.69615 L126.1843,131.3577 L138.26794,110.4282 L116.100655,110.4282 L126.1843,127.89359 L135.26794,112.160255 L119.100655,112.160255 L126.1843,124.42949 L132.26794,113.8923 L122.100655,113.8923 L126.1843,120.96539 L129.26794,115.62436 L125.100655,115.62436 L126.1843,117.50129 L126.26795,117.35641 M173.8157,121.125 L178.03757,113.8125 L169.59383,113.8125 L172.8157,119.39295 L175.03757,115.54455 L172.59383,115.54455 L172.8157,115.92885 M167.86177,114.8125 L163.6399,122.125 L172.08365,122.125 L168.86177,116.54455 L166.6399,120.39295 L169.08365,120.39295 L168.86177,120.00865 M178.03757,111.8125 L173.8157,104.5 L169.59383,111.8125 L176.03757,111.8125 L173.8157,107.9641 L172.59383,110.08045 L173.03757,110.08045 M175.54774,122.125 L183.9915,122.125 L179.76962,114.8125 L176.54774,120.39295 L180.9915,120.39295 L179.76962,118.2766 L179.54774,118.6609 M185.72354,121.125 L195.89935,103.5 L175.54774,103.5 L184.72354,119.39295 L192.89935,105.23205 L178.54774,105.23205 L184.72354,115.92885 L189.89935,106.9641 L181.54774,106.9641 L184.72354,112.464745 L186.89935,108.69615 L184.54774,108.69615 L184.72354,109.00064 M163.6399,124.125 L173.8157,141.75 L183.9915,124.125 L165.6399,124.125 L173.8157,138.2859 L180.9915,125.85705 L168.6399,125.85705 L173.8157,134.8218 L177.9915,127.5891 L171.6399,127.5891 L173.8157,131.3577 L174.9915,129.32115 L174.6399,129.32115 M157.68597,111.8125 L166.12973,111.8125 L161.90785,104.5 L158.68597,110.08045 L163.12973,110.08045 L161.90785,107.9641 L161.68597,108.3484 M160.1758,103.5 L151.73206,103.5 L155.95392,110.8125 L159.1758,105.23205 L154.73206,105.23205 L155.95392,107.3484 L156.1758,106.9641 M167.86177,110.8125 L172.08365,103.5 L163.6399,103.5 L166.86177,109.08045 L169.08365,105.23205 L166.6399,105.23205 L166.86177,105.61635 M157.68597,113.8125 L161.90785,121.125 L166.12973,113.8125 L159.68597,113.8125 L161.90785,117.6609 L163.12973,115.54455 L162.68597,115.54455 M145.77812,155.0625 L150,162.375 L154.22188,155.0625 L147.77812,155.0625 L150,158.9109 L151.22188,156.79456 L150.77812,156.79456 M154.22188,153.0625 L150,145.75 L145.77812,153.0625 L152.22188,153.0625 L150,149.2141 L148.77812,151.33044 L149.22188,151.33044 M151.73206,163.375 L160.1758,163.375 L155.95392,156.0625 L152.73206,161.64294 L157.1758,161.64294 L155.95392,159.5266 L155.73206,159.9109 M144.04608,156.0625 L139.8242,163.375 L148.26794,163.375 L145.04608,157.79456 L142.8242,161.64294 L145.26794,161.64294 L145.04608,161.25865 M139.8242,165.375 L150,183 L160.1758,165.375 L141.8242,165.375 L150,179.5359 L157.1758,167.10706 L144.8242,167.10706 L150,176.0718 L154.1758,168.8391 L147.8242,168.8391 L150,172.6077 L151.1758,170.57115 L150.8242,170.57115 M148.26794,144.75 L127.91635,144.75 L138.09215,162.375 L147.26794,146.48206 L130.91635,146.48206 L138.09215,158.9109 L144.26794,148.2141 L133.91635,148.2141 L138.09215,155.4468 L141.26794,149.94615 L136.91635,149.94615 L138.09215,151.9827 L138.26794,151.6782 M161.90785,145.75 L157.68597,153.0625 L166.12973,153.0625 L162.90785,147.48206 L160.68597,151.33044 L163.12973,151.33044 L162.90785,150.94615 M167.86177,152.0625 L172.08365,144.75 L163.6399,144.75 L166.86177,150.33044 L169.08365,146.48206 L166.6399,146.48206 L166.86177,146.86635 M157.68597,155.0625 L161.90785,162.375 L166.12973,155.0625 L159.68597,155.0625 L161.90785,158.9109 L163.12973,156.79456 L162.68597,156.79456 M160.1758,144.75 L151.73206,144.75 L155.95392,152.0625 L159.1758,146.48206 L154.73206,146.48206 L155.95392,148.5984 L156.1758,148.2141 M201.85327,155.0625 L193.40953,155.0625 L197.6314,162.375 L200.85327,156.79456 L196.40953,156.79456 L197.6314,158.9109 L197.85327,158.5266 M199.36345,163.375 L207.80719,163.375 L203.58533,156.0625 L200.36345,161.64294 L204.80719,161.64294 L203.58533,159.5266 L203.36345,159.9109 M191.67747,156.0625 L187.4556,163.375 L195.89935,163.375 L192.67747,157.79456 L190.4556,161.64294 L192.89935,161.64294 L192.67747,161.25865 M201.85327,153.0625 L197.6314,145.75 L193.40953,153.0625 L199.85327,153.0625 L197.6314,149.2141 L196.40953,151.33044 L196.85327,151.33044 M181.50168,153.0625 L189.94542,153.0625 L185.72354,145.75 L182.50168,151.33044 L186.94542,151.33044 L185.72354,149.2141 L185.50168,149.5984 M183.9915,144.75 L175.54774,144.75 L179.76962,152.0625 L182.9915,146.48206 L178.54774,146.48206 L179.76962,148.5984 L179.9915,148.2141 M191.67747,152.0625 L195.89935,144.75 L187.4556,144.75 L190.67747,150.33044 L192.89935,146.48206 L190.4556,146.48206 L190.67747,146.86635 M181.50168,155.0625 L185.72354,162.375 L189.94542,155.0625 L183.50168,155.0625 L185.72354,158.9109 L186.94542,156.79456 L186.50168,156.79456 M209.53925,145.75 L205.31737,153.0625 L213.76112,153.0625 L210.53925,147.48206 L208.31737,151.33044 L210.76112,151.33044 L210.53925,150.94615 M215.49316,152.0625 L219.71504,144.75 L211.2713,144.75 L214.49316,150.33044 L216.71504,146.48206 L214.2713,146.48206 L214.49316,146.86635 M205.31737,155.0625 L209.53925,162.375 L213.76112,155.0625 L207.31737,155.0625 L209.53925,158.9109 L210.76112,156.79456 L210.31737,156.79456 M207.80719,144.75 L199.36345,144.75 L203.58533,152.0625 L206.80719,146.48206 L202.36345,146.48206 L203.58533,148.5984 L203.80719,148.2141 M187.4556,165.375 L197.6314,183 L207.80719,165.375 L189.4556,165.375 L197.6314,179.5359 L204.80719,167.10706 L192.4556,167.10706 L197.6314,176.0718 L201.80719,168.8391 L195.4556,168.8391 L197.6314,172.6077 L198.80719,170.57115 L198.4556,170.57115 M199.36345,184 L243.53075,184 L221.4471,145.75 L200.36345,182.26794 L240.53075,182.26794 L221.4471,149.2141 L203.36345,180.5359 L237.53075,180.5359 L221.4471,152.6782 L206.36345,178.80385 L234.53075,178.80385 L221.4471,156.1423 L209.36345,177.0718 L231.53075,177.0718 L221.4471,159.6064 L212.36345,175.33975 L228.53075,175.33975 L221.4471,163.07051 L215.36345,173.6077 L225.53075,173.6077 L221.4471,166.5346 L218.36345,171.87564 L222.53075,171.87564 L221.4471,169.99872 L221.36345,170.1436 M219.71504,142.75 L197.6314,104.5 L175.54774,142.75 L217.71504,142.75 L197.6314,107.9641 L178.54774,141.01794 L214.71504,141.01794 L197.6314,111.4282 L181.54774,139.2859 L211.71504,139.2859 L197.6314,114.8923 L184.54774,137.55385 L208.71504,137.55385 L197.6314,118.35641 L187.54774,135.8218 L205.71504,135.8218 L197.6314,121.82051 L190.54774,134.08975 L202.71504,134.08975 L197.6314,125.28461 L193.54774,132.3577 L199.71504,132.3577 L197.6314,128.74872 L196.54774,130.62564 L196.71504,130.62564 M102.36861,104.5 L56.469257,184 L148.26794,184 L103.36861,106.23205 L59.469257,182.26794 L145.26794,182.26794 L103.36861,109.69615 L62.469257,180.5359 L142.26794,180.5359 L103.36861,113.160255 L65.46925,178.80385 L139.26794,178.80385 L103.36861,116.62436 L68.46925,177.0718 L136.26794,177.0718 L103.36861,120.088455 L71.46925,175.33975 L133.26794,175.33975 L103.36861,123.55256 L74.46925,173.6077 L130.26794,173.6077 L103.36861,127.01666 L77.46925,171.87564 L127.26795,171.87564 L103.36861,130.48076 L80.46925,170.1436 L124.26795,170.1436 L103.36861,133.94487 L83.46925,168.41154 L121.26795,168.41154 L103.36861,137.40897 L86.46925,166.67949 L118.26795,166.67949 L103.36861,140.87306 L89.46925,164.94745 L115.26795,164.94745 L103.36861,144.33717 L92.46925,163.2154 L112.26795,163.2154 L103.36861,147.80127 L95.46925,161.48334 L109.26795,161.48334 L103.36861,151.26537 L98.46925,159.75128 L106.26795,159.75128 L103.36861,154.72948 L101.46925,158.01924 L103.26795,158.01924 M195.89935,101.5 L150,22 L104.100655,101.5 L193.89935,101.5 L150,25.464102 L107.100655,99.76795 L190.89935,99.76795 L150,28.928204 L110.100655,98.0359 L187.89935,98.0359 L150,32.392303 L113.100655,96.30385 L184.89935,96.30385 L150,35.856407 L116.100655,94.5718 L181.89935,94.5718 L150,39.320507 L119.100655,92.839745 L178.89935,92.839745 L150,42.78461 L122.100655,91.1077 L175.89935,91.1077 L150,46.24871 L125.100655,89.37564 L172.89935,89.37564 L150,49.712814 L128.10065,87.64359 L169.89935,87.64359 L150,53.176914 L131.10065,85.911545 L166.89935,85.911545 L150,56.641018 L134.10065,84.17949 L163.89935,84.17949 L150,60.105118 L137.10065,82.44744 L160.89935,82.44744 L150,63.569218 L140.10065,80.71539 L157.89935,80.71539 L150,67.03332 L143.10065,78.98334 L154.89935,78.98334 L150,70.49742 L146.10065,77.25129 L151.89935,77.25129 L150,73.961525 L149.10065,75.51924 M253.92305,190 L46.07695,190 L150,10 L253.92305,190" fill="none" stroke="black" stroke-width="0.2"/>
</g>
<g inkscape:groupmode="layer" inkscape:label="signature">
<path d="m 15.815664,12.893319 c -1.445284,-3.0999497 -5.555449,-0.3575 -5.08537,2.32203 1.697826,2.92736 4.504013,-3.54417 4.40859,-2.58178 -1.548999,2.22986 0.741131,6.08701 3.012419,3.25791 2.532153,-2.82358 0.259001,-7.8326797 -3.488671,-7.9011197 -3.217272,0.056 -5.8863857,2.4603197 -7.9308737,4.7238797 -2.354585,2.46752 0.0048,5.887 2.757763,6.62143 3.2195457,1.10867 6.8759417,1.30834 9.9459317,-0.36585 2.270396,-1.12373 5.025949,-2.62031 5.680576,-5.20027 -2.108811,-3.66096 -6.038415,1.28356 -3.842036,3.67822 1.07278,0.89979 4.586982,-2.27037 3.201668,-2.73503 0.03094,3.24357 1.226854,6.37852 1.337023,9.60311 -0.672198,3.54892 -7.469251,0.32096 -4.637082,-2.5164 2.158436,-2.4193 5.610472,-2.84094 8.202925,-4.57369 0.993877,-1.40371 0.353413,-5.25046 3.182464,-3.48957 2.142923,1.43516 -2.250898,5.7532 1.723416,5.02339 1.661189,-0.71663 6.494946,-1.40457 4.601401,-3.95236 -4.205319,-0.68052 -1.190571,5.86505 1.665411,3.46881 1.929752,-0.9247 2.778055,-4.05119 1.423645,-5.35034 0.479155,1.8589 3.849911,7.52574 4.880369,3.32696 0.21201,-1.28088 0.40468,-3.80204 1.01246,-1.23041 0.5858,2.6865 3.83412,4.91909 4.56937,1.07383 0.65272,-1.00894 -0.2696,-4.02739 0.99929,-1.35746 1.10974,2.31613 6.32001,1.46113 6.147,-1.13059 -1.98394,-2.13868 -5.3717,1.45205 -3.78252,3.73454 2.57741,0.96208 6.69797,-0.21041 7.06275,-3.33983 0.41287,-2.63769 0.26643,-5.3430297 -0.11178,-7.9756197 0.67418,3.94149 1.24889,7.9380497 2.39963,11.7713397 2.10586,1.67977 5.7434,1.65022 7.74596,-0.23639 3.03149,-1.85431 -0.26637,-4.76925 -2.71777,-4.54025 -2.11577,0.0793 -5.36257,2.40772 -5.16868,3.85604 2.08262,-2.38818 5.55759,-1.22628 8.30726,-1.6832 3.182,-0.26596 6.46546,-0.57372 9.54494,-1.18158 0.24171,0.4199 -0.27752,0.54338 -0.43067,0.17453" fill="none" stroke="black" stroke-width="1" transform="translate(260,190) scale(0.3)"/>
</g>
</svg>