<svg height="240mm" style="background:white" viewBox="0 0 300 240" width="300mm" xmlns="http://www.w3.org/2000/svg" xmlns:inkscape="http://www.inkscape.org/namespaces/inkscape">
<g inkscape:groupmode="layer" inkscape:label="black">
<g inkscape:groupmode="layer" inkscape:label="signature">
<path d="m 15.815664,12.893319 c -1.445284,-3.0999497 -5.555449,-0.3575 -5.08537,2.32203 1.697826,2.92736 4.504013,-3.54417 4.40859,-2.58178 -1.548999,2.22986 0.741131,6.08701 3.012419,3.25791 2.532153,-2.82358 0.259001,-7.8326797 -3.488671,-7.9011197 -3.217272,0.056 -5.8863857,2.4603197 -7.9308737,4.7238797 -2.354585,2.46752 0.0048,5.887 2.757763,6.62143 3.2195457,1.10867 6.8759417,1.30834 9.9459317,-0.36585 2.270396,-1.12373 5.025949,-2.62031 5.680576,-5.20027 -2.108811,-3.66096 -6.038415,1.28356 -3.842036,3.67822 1.07278,0.89979 4.586982,-2.27037 3.201668,-2.73503 0.03094,3.24357 1.226854,6.37852 1.337023,9.60311 -0.672198,3.54892 -7.469251,0.32096 -4.637082,-2.5164 2.158436,-2.4193 5.610472,-2.84094 8.202925,-4.57369 0.993877,-1.40371 0.353413,-5.25046 3.182464,-3.48957 2.142923,1.43516 -2.250898,5.7532 1.723416,5.02339 1.661189,-0.71663 6.494946,-1.40457 4.601401,-3.95236 -4.205319,-0.68052 -1.190571,5.86505 1.665411,3.46881 1.929752,-0.9247 2.778055,-4.05119 1.423645,-5.35034 0.479155,1.8589 3.849911,7.52574 4.880369,3.32696 0.21201,-1.28088 0.40468,-3.80204 1.01246,-1.23041 0.5858,2.6865 3.83412,4.91909 4.56937,1.07383 0.65272,-1.00894 -0.2696,-4.02739 0.99929,-1.35746 1.10974,2.31613 6.32001,1.46113 6.147,-1.13059 -1.98394,-2.13868 -5.3717,1.45205 -3.78252,3.73454 2.57741,0.96208 6.69797,-0.21041 7.06275,-3.33983 0.41287,-2.63769 0.26643,-5.3430297 -0.11178,-7.9756197 0.67418,3.94149 1.24889,7.9380497 2.39963,11.7713397 2.10586,1.67977 5.7434,1.65022 7.74596,-0.23639 3.03149,-1.85431 -0.26637,-4.76925 -2.71777,-4.54025 -2.11577,0.0793 -5.36257,2.40772 -5.16868,3.85604 2.08262,-2.38818 5.55759,-1.22628 8.30726,-1.6832 3.182,-0.26596 6.46546,-0.57372 9.54494,-1.18158 0.24171,0.4199 -0.27752,0.54338 -0.43067,0.17453" fill="none" stroke="black" stroke-width="1" transform="translate(172,210) scale(0.6)"/>
</g>
<path d="M103.36667,34.52222 L134.47778,34.677776 L165.5,229.5 L72.611115,156.43333 L165.45555,83.63333 L165.43333,204.7 L288.7,180.38889 L288.5,83.833336 L73.166664,83.9 L257.4111,107.98889 L195.96666,60.055557 L195.9,108.03333 L104.166664,84.166664 L256.78888,84.23333 L73.833336,179.5 L286.9,131.87778 L13.3,60.72222 L256.16666,202.83333 L134.85556,37.322224 L286.1,178.94444 L44.3,155.3 L285.7,84.76667 L285.5,225.5 L104.9,178.5 L165.01111,38.255554 L15.1,131.65555 L254.76666,61.833332 L15.5,224.5 L224.61111,108.41111 L284.1,108.433334 L135.12222,131.54445 L283.7,62.38889 L105.5,16.5 L224.05556,200.34445 L46.47778,154.36667 L135.23334,17.1 L194.23334,62.944443 L253.05556,154.16667 L76.5,17.7 L252.74445,222.1 L281.9,199.25555 L193.9,63.5 L252.27777,18.5 L106.23333,108.744446 L251.96666,63.833332 L164.54445,86.36667 L135.47778,64.05556 L48.5,41.833332 L222.38889,19.7 L193.36667,175.61111 L279.9,197.7 L77.94444,42.455555 L135.61111,197.38889 L20.7,197.23334 L193.03334,131.01111 L49.744446,87.03333 L78.5,196.76666 L78.611115,87.166664 L21.7,152.76666 L192.7,109.1 L221.05556,22.1 L277.7,87.433334 L249.16667,109.166664 L135.85556,152.43333 L22.9,217.1 L164.1,130.76666 L23.3,130.74445 L248.38889,66.388885 L79.833336,87.9 L51.922222,173.38889 L80.05556,130.65555 L108.1,130.63333 L275.5,109.388885 L24.7,194.12222 L52.7,67.166664 L247.14444,109.45556 L246.98889,46.344444 L53.166668,46.5 L219.05556,109.522224 L163.7889,25.9 L81.166664,193.03334 L136.25555,47.122223 L26.5,68.05556 L218.5,26.7 L54.255554,213.1 L109.03333,192.25555 L163.63333,68.5 L54.72222,48.055557 L27.7,130.25555 L163.56667,130.23334 L271.9,150.63333 L136.47778,109.81111 L190.5,69.166664 L82.611115,211.3 L136.54445,190.85556 L270.9,130.1 L136.58888,210.7 L109.833336,29.5 L109.9,190.23334 L56.58889,210.1 L189.96666,110.01111 L136.7,70.166664 L242.94444,189.61111 L57.211113,30.7 L269.1,169.5 L163.2111,149.63333 L189.56667,129.85556 L268.5,90.5 L110.566666,110.18889 L136.87778,149.36667 L58.3,71.166664 L241.54445,110.255554 L215.27777,129.72223 L189.1,110.3 L241.07777,71.611115 L111.03333,91.03333 L214.83333,187.43333 L188.83333,168.05556 L240.45555,91.23333 L59.7,148.7 L162.87778,72.27778 L214.27777,53.344444 L85.833336,34.5 L60.322224,205.3 L34.9,205.1 L60.633335,110.566666 L162.74445,148.23334 L137.27777,185.72223 L162.7,148.1 L188.03334,204.1 L86.72222,92.03333 L137.36667,147.9 L36.5,92.166664 L137.41112,184.7889 L187.7,55.366665 L37.1,110.78889 L162.52222,110.81111 L112.5,74.166664 L187.43333,147.43333 L137.54445,183.85556 L87.833336,56.3 L112.76667,92.76667 L261.5,92.833336 L187.1,38.7 L211.72223,74.94444 L186.96666,39.1 L88.5,111.03333 L260.5,57.38889 L137.74445,57.544445 L88.833336,164.5 L113.36667,164.38889 L89.05556,111.14445 L162.16667,181.83333 L210.72223,40.7 L40.9,146.36667 L186.3,41.1 L186.23334,93.76667 L65.611115,128.72223 L162.03334,180.9 L234.07777,59.255554 L209.94444,111.344444 L233.76666,180.43333 L66.388885,128.61111 L90.388885,42.7 L257.1,77.166664 L43.1,196.9 L185.56667,77.388885 L232.83333,77.5 L256.3,77.611115 L161.7889,111.54444 L44.1,195.9 L67.78889,162.05556 L67.94444,128.38889 L114.9,145.1 L138.32222,94.96667 L184.96666,161.61111 L231.43333,194.7 L91.94444,128.27777 L254.3,45.7 L115.3,144.7 L46.1,46.1 L69.344444,62.677776 L115.5,95.5 L46.7,128.14444 L115.63333,46.9 L161.43333,111.9 L229.87778,176.54445 L93.05556,47.5 L138.63333,144.1 L184.03334,128.01111 L93.388885,64.077774 L116.1,175.76666 L138.72223,64.388885 L138.74445,143.76666 L251.1,127.9 L71.522224,190.9 L138.81111,65.01111 L161.16667,65.166664 L71.98889,143.43333 L49.9,190.1 L138.9,96.7 L116.76667,50.3 L161.05556,158.61111 L94.833336,158.5 L50.9,96.96667 L182.96666,127.655556 L204.83333,127.63333 L248.5,127.611115 L248.3,66.87778 L248.1,127.566666 L117.36667,52.1 L247.7,82.388885 L74.166664,172.5 L182.43333,67.655556 L74.477776,157.27777 L117.7,172.03334 L74.78889,186.7 L117.833336,83.05556 L182.1,68.433334 L75.255554,156.72223 L245.9,98.03333 L75.566666,54.3 L160.61111,69.05556 L75.87778,170.7889 L160.56667,112.76667 L223.81111,55.1 L202.61111,112.81111 L139.5,141.5 L97.611115,98.566666 L202.27777,184.1 L243.9,141.3 L97.94444,155.38889 L139.61111,183.5 L160.36667,141.1 L201.72223,98.96667 L160.32222,71.077774 L222.1,168.76666 L160.27777,154.72223 L160.25555,85.388885 L201.16667,85.5 L139.7889,168.14444 L241.7,72.01111 L99.166664,85.833336 L200.72223,181.3 L119.63333,167.52222 L79.3,167.36667 L119.76667,59.3 L79.611115,72.94444 L240.3,113.3 L240.1,73.255554 L100.05556,179.9 L219.76666,100.1 L120.166664,139.83333 L199.61111,100.23333 L120.3,139.7 L100.611115,113.45556 L140.14444,61.3 L179.5,126.5 L179.43333,139.43333 L140.2111,100.63333 L62.1,165.03334 L179.23334,62.3 L101.388885,75.27778 L120.9,177.3 L140.32222,177.1 L140.34445,138.96666 L121.1,176.7 L159.61111,88.611115 L102.05556,113.744446 L197.83333,101.3 L197.72223,76.522224 L235.7,64.3 L197.5,64.5 L102.611115,76.98889 L197.27777,175.1 L216.03334,138.3 L65.3,174.7 L140.61111,101.833336 L196.83333,65.7 L103.27778,150.05556 L196.61111,66.1 L159.3,102.1 L233.5,90.27778 L85.21111,149.61111 L85.36667,149.5 L177.63333,90.611115 L232.7,102.433334 L85.833336,149.16667 L177.43333,149.05556 L159.12222,91.05556 L122.7,160.36667 L140.92223,137.23334 L195.27777,114.27778 L213.23334,80.1 L213.07777,114.32222 L176.96666,148.27777 L176.9,136.9 L230.5,114.388885 L69.7,125.58889 L87.7,103.3 L105.611115,70.1 L70.3,70.3 L158.83333,136.5 L211.67778,81.655556 L106.05556,147.27777 L88.63333,114.566666 L158.74445,92.94444 L176.16667,103.833336 L158.7,136.1 L71.9,157.41112 L106.72222,146.61111 L193.16667,157.1 L158.61111,146.38889 L192.94444,83.21111 L124.3,114.76667 L107.27778,146.05556 L158.52222,145.94444 L192.5,156.16667 L226.3,135.43333 L73.9,166.1 L90.96667,145.5 L124.76667,135.23334 L124.833336,145.27777 L91.433334,145.16667 L208.41112,145.05556 L108.388885,85.077774 L141.7,134.9 L207.94444,115.05556 L141.74445,75.7 L224.1,75.9 L92.522224,95.611115 L109.05556,115.14445 L223.5,124.833336 L125.566666,115.18889 L125.63333,76.9 L93.3,115.23333 L174.23334,124.744446 L141.94444,162.5 L158.03334,152.9 L158.01111,105.96667 L189.94444,87.41111 L78.3,124.63333 L78.5,143.05556 L221.3,97.05556 L110.5,142.83333 L220.9,133.63333 L204.98889,160.7 L110.833336,124.5 L204.67778,160.3 L111.05556,106.63333 L157.76666,115.566666 L111.27778,80.3 L95.94444,159.5 L219.3,124.36667 L173.03334,89.58889 L96.41111,98.388885 L96.566666,98.5 L218.5,81.5 L112.05556,90.21111 L218.1,132.7 L82.1,149.47778 L172.56667,115.81111 L82.5,107.5 L142.52222,115.85555 L97.81111,148.85556 L97.96667,124.1 L216.7,148.54445 L98.27778,107.833336 L172.1,99.833336 L216.1,140.05556 L186.61111,116.01111 L186.5,139.83333 L99.05556,108.166664 L84.7,155.3 L215.1,131.7 L85.1,123.87778 L99.67778,146.98889 L185.83333,85.5 L185.72223,100.94444 L100.14445,93.477776 L128.7,116.23333 L213.7,153.7 L213.5,153.5 L213.3,153.3 L199.07777,108.96667 L184.94444,101.72222 L212.7,138.16667 L198.61111,87.5 L143.07777,152.3 L212.1,123.566666 L101.85555,88.1 L156.85556,151.7 L184.16667,109.5 L102.32222,137.38889 L129.63333,102.72222 L197.36667,95.96667 L170.23334,89.3 L210.5,130.16667 L129.9,96.433334 L196.74445,123.344444 L209.9,123.32222 L90.3,103.5 L143.38889,116.72222 L156.58888,149.3 L143.43333,123.23333 L156.54445,110.36667 L143.47778,129.56667 L208.5,91.5 L195.34445,110.566666 L91.9,104.388885 L169.3,116.9 L117.94444,123.077774 L118.05556,104.72222 L130.9,92.7 L194.41112,104.94444 L156.32222,111.03333 L131.1,117.03333 L143.72223,128.83333 L193.7889,122.922226 L93.9,111.3 L156.2111,105.611115 L168.56667,100.01111 L205.5,111.5 L106.98889,100.32222 L192.85556,139.52222 L107.3,133.83333 L107.45556,95.3 L107.611115,95.5 L95.7,95.7 L131.96666,101.255554 L132.03334,133.27777 L191.76666,112.1 L191.61111,133.05556 L155.92223,107.05556 L191.3,137.96666 L167.63333,122.54444 L190.98889,132.61111 L155.83333,112.5 L132.56667,107.611115 L97.9,137.18889 L132.7,137.03334 L109.78889,117.58889 L121.388885,98.5 L167.1,103.433334 L178.38889,103.58889 L178.27777,131.61111 L166.9,126.9 L200.5,104.05556 L144.41112,131.27777 L133.3,99.9 L133.36667,122.21111 L199.7,135.32222 L122.5,122.166664 L133.56667,117.85555 L199.1,100.9 L144.56667,109.5 L187.87778,130.38889 L155.38889,122.05556 L144.63333,126.1 L187.41112,130.05556 L134.03334,106.077774 L112.9,121.96667 L197.5,121.94444 L165.76666,110.388885 L186.63333,125.7 L134.36667,133.14444 L186.32222,110.72222 L134.5,121.833336 L134.56667,129.05556 L185.85556,128.94444 L155.1,135.9 L134.76666,128.72223 L155.05556,107.94444 L195.3,121.7 L175.05556,128.38889 L184.92223,108.41111 L184.76666,121.63333 L174.72223,128.05556 L184.45555,105.7 L154.9,115.3 L125.611115,109.18889 L174.27777,109.344444 L125.833336,112.5 L164.43333,130.34445 L106.9,124.36667 L164.3,109.96667 L135.76666,107.3 L107.5,110.27778 L192.3,113.166664 L173.38889,129.41112 L173.27777,123.96667 L163.9,110.9 L117.72222,111.05556 L191.3,121.255554 L191.1,108.9 L190.9,113.94444 L118.344444,123.566666 L145.5,114.166664 L109.7,111.98889 L190.1,127.85555" fill="none" stroke="black" stroke-width="0.35" style="mix-blend-mode: multiply;"/>
</g>
</svg>