<svg height="210mm" style="background:white" viewBox="0 0 297 210" width="297mm" xmlns="http://www.w3.org/2000/svg" xmlns:inkscape="http://www.inkscape.org/namespaces/inkscape">
<g inkscape:groupmode="layer" inkscape:label="black">
<path d="M182.29727,20.493181 Q182.29727,20.493181,90.854485,20.571209 Q-0.58829874,20.649239,31.668531,20.623291 Q63.92536,20.597343,135.4112,20.557419 Q206.89702,20.517494,165.70541,20.653076 Q124.51382,20.788658,77.84231,21.002882 Q31.170801,21.217108,127.23246,20.982847 Q223.29411,20.748587,136.59985,20.609776 Q49.905594,20.470964,137.09853,20.712372 Q224.29144,20.95378,218.22327,21.13708 Q212.15509,21.32038,160.21187,20.827957 Q108.26866,20.335535,107.17234,20.919453 Q106.07602,21.503368,180.33043,20.815506 Q254.58484,20.127642,196.37862,20.146526 Q138.17238,20.16541,188.57382,20.560184 Q238.97525,20.954958,211.99217,20.887405 Q185.0091,20.819855,168.92781,20.804493 Q152.84653,20.789133,99.222534,21.200333 Q45.598537,21.61153,144.10239,21.243958 Q242.60625,20.876387,159.57574,20.488241 Q76.54525,20.100096,170.26999,20.213402 Q263.99472,20.32671,158.9982,20.9553 Q54.001667,21.58389,105.76413,21.580221 Q157.5266,21.576551,117.900795,21.042715 M182.86293,22.540485 Q182.86293,22.540485,91.49599,22.62696 Q0.12904492,22.713438,32.15277,22.685467 Q64.1765,22.657497,135.37886,22.613415 Q206.58122,22.569332,165.24733,22.72018 Q123.91342,22.871027,78.362236,23.101488 Q32.811047,23.331947,127.419266,23.07466 Q222.02748,22.817371,136.53198,22.670963 Q51.03648,22.524553,137.92339,22.789045 Q224.81027,23.053535,218.59724,23.247446 Q212.38423,23.441357,160.00844,22.907925 Q107.632645,22.37449,107.19773,23.013456 Q106.76282,23.652424,179.93619,22.896614 Q253.10956,22.140804,195.78343,22.16614 Q138.4573,22.191473,188.57835,22.622517 Q238.6994,23.05356,211.59055,22.97617 Q184.4817,22.898779,168.33006,22.886326 Q152.17844,22.873873,99.02939,23.319351 Q45.88033,23.764832,143.33713,23.362368 Q240.79395,22.959906,158.88159,22.537695 Q76.96923,22.115484,170.02597,22.2429 Q263.0827,22.370317,159.43057,23.052294 Q55.778435,23.73427,106.693695,23.728697 Q157.60895,23.723124,117.94159,23.143572 M183.42859,24.587421 Q183.42859,24.587421,92.13749,24.682465 Q0.8463886,24.777508,32.637012,24.747618 Q64.427635,24.717728,135.34654,24.669456 Q206.26544,24.621185,164.78923,24.78761 Q123.31303,24.954033,78.88216,25.199785 Q34.45129,25.445538,127.60607,25.165295 Q220.76085,24.885054,136.46411,24.732187 Q52.167362,24.579323,138.74823,24.866705 Q225.3291,25.154089,218.97124,25.357206 Q212.61337,25.560324,159.80501,24.987375 Q106.996635,24.414427,107.22312,25.107836 Q107.449615,25.801245,179.54195,24.977642 Q251.6343,24.15404,195.18825,24.186653 Q138.74222,24.219269,188.58289,24.685999 Q238.42355,25.152727,211.18892,25.064938 Q183.9543,24.977148,167.73233,24.968409 Q151.51036,24.95967,98.83624,25.438187 Q46.162125,25.916704,142.57187,25.479689 Q238.98163,25.042675,158.18742,24.587261 Q77.39321,24.13185,169.78195,24.273882 Q262.1707,24.415916,159.86295,25.149553 Q57.555202,25.883192,107.62325,25.875437 Q157.69131,25.86768,117.98239,25.243807 M183.99425,26.633993 Q183.99425,26.633993,92.77899,26.737719 Q1.5637323,26.841444,33.121254,26.809738 Q64.67877,26.778032,135.31421,26.725544 Q205.94965,26.673054,164.33115,26.855366 Q122.71263,27.037678,79.402084,27.29778 Q36.091534,27.55788,127.79288,27.254755 Q219.49422,26.95163,136.39622,26.793451 Q53.29825,26.635275,139.57309,26.945356 Q225.84793,27.255436,219.34521,27.466358 Q212.84251,27.67728,159.60156,27.066313 Q106.36062,26.455347,107.24851,27.202589 Q108.13641,27.949831,179.1477,27.058588 Q250.15901,26.167345,194.59308,26.20807 Q139.02715,26.248796,188.58742,26.750628 Q238.1477,27.25246,210.7873,27.15371 Q183.4269,27.05496,167.13458,27.050743 Q150.84227,27.046526,98.64309,27.556837 Q46.443916,28.067148,141.80661,27.595922 Q237.16931,27.124695,157.49326,26.636944 Q77.8172,26.14919,169.53793,26.306347 Q261.25867,26.463503,160.29532,27.24708 Q59.33197,28.030659,108.55282,28.020441 Q157.77367,28.010221,118.023186,27.34342 M184.5599,28.680199 Q184.5599,28.680199,93.420494,28.792725 Q2.281076,28.90525,33.60549,28.871832 Q64.92991,28.838415,135.28188,28.781677 Q205.63385,28.72494,163.87305,28.923449 Q122.11224,29.121958,79.92201,29.395464 Q37.73178,29.668972,127.979675,29.343037 Q218.22758,29.017101,136.32835,28.854753 Q54.42913,28.692406,140.39795,29.024994 Q226.36676,29.35758,219.71921,29.574903 Q213.07166,29.792225,159.39813,29.144737 Q105.7246,28.49725,107.2739,29.297718 Q108.82321,30.098186,178.75348,29.139456 Q248.68373,28.180725,193.9979,28.230389 Q139.31206,28.280054,188.59195,28.816406 Q237.87184,29.352757,210.38567,29.242487 Q182.89949,29.132215,166.53683,29.13333 Q150.17418,29.134441,98.44994,29.675304 Q46.725708,30.216166,141.04135,29.711065 Q235.35701,29.205965,156.79909,28.686739 Q78.24118,28.167513,169.29391,28.340296 Q260.34665,28.513077,160.72769,29.344873 Q61.108738,30.17667,109.482376,30.16371 Q157.85602,30.15075,118.06398,29.442411 M185.12556,30.726036 Q185.12556,30.726036,94.06199,30.84748 Q2.9984195,30.968924,34.089733,30.933899 Q65.181046,30.898874,135.24956,30.837856 Q205.31807,30.77684,163.41496,30.991858 Q121.51185,31.206875,80.44193,31.492846 Q39.372025,31.778814,128.16649,31.430141 Q216.96094,31.081469,136.26048,30.916094 Q55.560017,30.750717,141.22281,31.10562 Q226.88559,31.460522,220.09319,31.68284 Q213.3008,31.905157,159.19469,31.222645 Q105.088585,30.540134,107.2993,31.39322 Q109.51001,32.246307,178.35924,31.220242 Q247.20847,30.194176,193.40273,30.25361 Q139.59698,30.313044,188.59648,30.883331 Q237.596,31.453619,209.98404,31.331266 Q182.37209,31.208914,165.93909,31.216166 Q149.50609,31.223417,98.2568,31.793587 Q47.0075,32.363754,140.2761,31.82512 Q233.5447,31.286488,156.10493,30.736649 Q78.66516,30.186811,169.0499,30.375727 Q259.43463,30.564642,161.16006,31.442932 Q62.885506,32.321224,110.41194,32.30524 Q157.93837,32.28926,118.104774,31.540783 M185.69122,32.77151 Q185.69122,32.77151,94.70349,32.90199 Q3.7157633,33.032467,34.573975,32.995937 Q65.43218,32.959408,135.21722,32.894085 Q205.00227,32.82876,162.95686,33.060593 Q120.91145,33.292427,80.96186,33.58992 Q41.012268,33.88741,128.35329,33.51607 Q215.6943,33.14473,136.19261,32.97747 Q56.6909,32.81021,142.04765,33.187233 Q227.40442,33.56426,220.46718,33.79017 Q213.52994,34.01608,158.99126,33.30004 Q104.452576,32.584,107.32469,33.489098 Q110.19681,34.394196,177.965,33.300945 Q245.73318,32.2077,192.80754,32.277733 Q139.8819,32.347767,188.60103,32.951405 Q237.32014,33.555046,209.58241,33.42005 Q181.84468,33.285057,165.34134,33.299255 Q148.83801,33.31345,98.06365,33.911682 Q47.289295,34.50992,139.51083,33.938087 Q231.73238,33.36626,155.41077,32.786674 Q79.08914,32.20709,168.80588,32.41264 Q258.5226,32.618195,161.59244,33.541256 Q64.66227,34.46432,111.3415,34.445038 Q158.02072,34.42576,118.14557,33.638535 M186.25688,34.816616 Q186.25688,34.816616,95.34499,34.956245 Q4.433107,35.095875,35.058212,35.05795 Q65.68332,35.02002,135.1849,34.950356 Q204.68648,34.88069,162.49876,35.129654 Q120.31106,35.37862,81.48178,35.686687 Q42.652515,35.994755,128.5401,35.600822 Q214.42767,35.20689,136.12473,35.038887 Q57.821785,34.870884,142.87251,35.269836 Q227.92325,35.66879,220.84116,35.896893 Q213.75908,36.124992,158.78781,35.37692 Q103.81656,34.62885,107.35008,35.58535 Q110.883606,36.54185,177.57076,35.381573 Q244.25792,34.221294,192.21237,34.302757 Q140.16682,34.38422,188.60556,35.020626 Q237.0443,35.657036,209.18079,35.50884 Q181.31728,35.360645,164.74359,35.382595 Q148.16992,35.404545,97.87051,36.0296 Q47.571087,36.65465,138.74557,36.04997 Q229.92007,35.445286,154.7166,34.836815 Q79.51313,34.22834,168.56186,34.45104 Q257.6106,34.673737,162.02481,35.63985 Q66.43904,36.60596,112.271065,36.5831 Q158.10309,36.560238,118.18637,35.735664 M186.82254,36.861355 Q186.82254,36.861355,95.986496,37.010254 Q5.1504507,37.159157,35.542454,37.11993 Q65.934456,37.080708,135.15257,37.00667 Q204.3707,36.93264,162.04068,37.199043 Q119.71066,37.465446,82.00171,37.78315 Q44.29276,38.10085,128.7269,37.6844 Q213.16104,37.267944,136.05685,37.10034 Q58.952667,36.93274,143.69737,37.353428 Q228.44206,37.77412,221.21515,38.003006 Q213.98822,38.23189,158.58438,37.453285 Q103.18054,36.67468,107.37547,37.681976 Q111.570404,38.68927,177.17651,37.462116 Q242.78264,36.234962,191.61719,36.328682 Q140.45174,36.4224,188.61009,37.091 Q236.76845,37.759594,208.77916,37.597633 Q180.78987,37.435673,164.14586,37.466187 Q147.50183,37.496696,97.67735,38.147327 Q47.85288,38.79796,137.98032,38.16076 Q228.10776,37.52356,154.02243,36.887066 Q79.93711,36.250572,168.31784,36.49092 Q256.69858,36.731266,162.45718,37.738705 Q68.215805,38.746147,113.20062,38.719425 Q158.18544,38.692707,118.227165,37.832172 M187.3882,38.905727 Q187.3882,38.905727,96.628,39.064014 Q5.8677945,39.2223,36.026695,39.18189 Q66.18559,39.14147,135.12025,39.063038 Q204.0549,38.984604,161.58258,39.268757 Q119.11027,39.552914,82.52164,39.879303 Q45.933002,40.205696,128.91371,39.766796 Q211.89441,39.327896,135.98898,39.161835 Q60.08355,38.995773,144.52222,39.438007 Q228.96089,39.88024,221.58913,40.108513 Q214.21736,40.33678,158.38095,39.529137 Q102.544525,38.721493,107.40086,39.778976 Q112.2572,40.83646,176.78229,39.54258 Q241.30736,38.248703,191.02202,38.35551 Q140.73666,38.46232,188.61462,39.162518 Q236.49258,39.862713,208.37753,39.68643 Q180.26247,39.510147,163.54811,39.550026 Q146.83374,39.58991,97.48421,40.264874 Q48.134674,40.939835,137.21506,40.270462 Q226.29544,39.601086,153.32828,38.937435 Q80.36109,38.273785,168.07382,38.532284 Q255.78654,38.790787,162.88956,39.83783 Q69.99258,40.884876,114.13019,40.854015 Q158.26779,40.82316,118.26796,39.92806 M187.95386,40.949738 Q187.95386,40.949738,97.26949,41.117527 Q6.585138,41.28532,36.510933,41.243816 Q66.43673,41.202312,135.08792,41.11945 Q203.73912,41.036583,161.1245,41.3388 Q118.50987,41.641014,83.04156,41.975155 Q47.573246,42.30929,129.10051,41.84802 Q210.62778,41.38674,135.9211,41.223366 Q61.214436,41.059986,145.34708,41.523575 Q229.47972,41.987164,221.96312,42.213413 Q214.4465,42.43966,158.1775,41.604473 Q101.908516,40.769287,107.426254,41.87635 Q112.944,42.983414,176.38805,41.622967 Q239.83209,40.262516,190.42683,40.38324 Q141.02158,40.503967,188.61916,41.235184 Q236.21674,41.9664,207.9759,41.77523 Q179.73508,41.584064,162.95036,41.63412 Q146.16565,41.684177,97.29106,42.382233 Q48.416466,43.080288,136.4498,42.379074 Q224.48314,41.67786,152.63411,40.987915 Q80.78508,40.29797,167.8298,40.57513 Q254.87453,40.85229,163.32193,41.93722 Q71.76934,43.02215,115.059746,42.98687 Q158.35014,42.95159,118.308754,42.023327 M188.51952,42.993378 Q188.51952,42.993378,97.910995,43.17079 Q7.3024817,43.3482,36.995174,43.305717 Q66.68787,43.26323,135.0556,43.175903 Q203.42332,43.08858,160.6664,43.40917 Q117.90948,43.729755,83.561485,44.070698 Q49.213493,44.41164,129.28731,43.928062 Q209.36113,43.44448,135.85323,43.28493 Q62.345318,43.12538,146.17194,43.61013 Q229.99855,44.09488,222.3371,44.317703 Q214.67564,44.540527,157.97408,43.679295 Q101.2725,42.818066,107.451645,43.9741 Q113.6308,45.130135,175.9938,43.70327 Q238.35681,42.2764,189.83165,42.411873 Q141.3065,42.547344,188.62369,43.309 Q235.94089,44.070652,207.57428,43.864037 Q179.20767,43.657425,162.35262,43.718464 Q145.49757,43.779507,97.097916,44.49941 Q48.698257,45.21931,135.68454,44.4866 Q222.67082,43.75389,151.93994,43.038513 Q81.20906,42.323135,167.58578,42.61946 Q253.96251,42.91579,163.75432,44.036877 Q73.54611,45.157963,115.9893,45.11799 Q158.43251,45.078014,118.34955,44.11797 M189.08517,45.03665 Q189.08517,45.03665,98.5525,45.223804 Q8.019825,45.410957,37.479416,45.367588 Q66.939,45.32422,135.02327,45.232407 Q203.10753,45.140594,160.20831,45.479862 Q117.30908,45.81913,84.08141,46.165936 Q50.853737,46.51274,129.47412,46.00693 Q208.0945,45.501118,135.78535,45.34654 Q63.476204,45.19196,146.9968,45.697678 Q230.51738,46.203392,222.71109,46.42139 Q214.90479,46.639385,157.77063,45.753605 Q100.63648,44.867825,107.47704,46.072224 Q114.3176,47.276623,175.59956,45.783493 Q236.88153,44.29036,189.23648,44.441406 Q141.59142,44.592457,188.62823,45.38396 Q235.66504,46.175465,207.17265,45.952847 Q178.68027,45.73023,161.75487,45.803062 Q144.82948,45.875896,96.90477,46.6164 Q48.980053,47.356907,134.91928,46.593037 Q220.85852,45.829166,151.24577,45.089222 Q81.63304,44.349277,167.34177,44.665276 Q253.05049,44.981274,164.18669,46.1368 Q75.322876,47.292324,116.91887,47.24737 Q158.51486,47.20242,118.39035,46.211994 M189.65083,47.07956 Q189.65083,47.07956,99.194,47.27657 Q8.737169,47.47358,37.963654,47.429432 Q67.19014,47.38529,134.99094,47.288956 Q202.79175,47.192623,159.75021,47.550884 Q116.70869,47.90914,84.60133,48.260864 Q52.49398,48.61259,129.66092,48.08462 Q206.82787,47.556652,135.71748,47.408184 Q64.607086,47.259716,147.82164,47.78621 Q231.03621,48.312702,223.08507,48.524467 Q215.13393,48.736233,157.5672,47.827396 Q100.000465,46.918564,107.50243,48.170723 Q115.004395,49.42288,175.20532,47.863632 Q235.40627,46.30439,188.6413,46.471844 Q141.87634,46.639297,188.63277,47.46007 Q235.38919,48.280846,206.77103,48.04166 Q178.15286,47.802475,161.15714,47.88791 Q144.16139,47.973343,96.71162,48.733208 Q49.261845,49.493073,134.15402,48.698383 Q219.0462,47.903698,150.55162,47.14005 Q82.05702,46.3764,167.09775,46.712574 Q252.13847,47.048748,164.61906,48.236988 Q77.09965,49.42523,117.84843,49.37502 Q158.59721,49.324814,118.431145,48.305397 M190.21649,49.122105 Q190.21649,49.122105,99.8355,49.329086 Q9.454513,49.536068,38.447895,49.49125 Q67.44128,49.446434,134.95862,49.34555 Q202.47595,49.244667,159.29213,49.62223 Q116.10829,49.999794,85.12126,50.35549 Q54.134228,50.71119,129.84773,50.161137 Q205.56123,49.61108,135.6496,49.469868 Q65.73797,49.328655,148.6465,49.87573 Q231.55504,50.422806,223.45906,50.626938 Q215.36307,50.831066,157.36377,49.900677 Q99.364456,48.970287,107.527824,50.269596 Q115.69119,51.5689,174.8111,49.943695 Q233.93098,48.31849,188.04613,48.50318 Q142.16125,48.68787,188.6373,49.53733 Q235.11333,50.38679,206.3694,50.130478 Q177.62546,49.87417,160.55939,49.973007 Q143.4933,50.07185,96.51847,50.84983 Q49.543636,51.62781,133.38876,50.802647 Q217.23389,49.977478,149.85745,49.190987 Q82.48101,48.4045,166.85373,48.761356 Q251.22646,49.11821,165.05144,50.337444 Q78.87641,51.556675,118.77799,51.50093 Q158.67957,51.445187,118.47194,50.39818 M190.78215,51.16428 Q190.78215,51.16428,100.477,51.38135 Q10.171856,51.598427,38.932137,51.55304 Q67.69241,51.507656,134.92628,51.40219 Q202.16017,51.296726,158.83403,51.693905 Q115.5079,52.09108,85.64118,52.44981 Q55.77447,52.80854,130.03453,52.236473 Q204.2946,51.664406,135.58173,51.53159 Q66.86886,51.398773,149.47136,51.96624 Q232.07387,52.533707,223.83304,52.728798 Q215.59221,52.92389,157.16032,51.973442 Q98.72844,51.022995,107.553215,52.368843 Q116.37799,53.714687,174.41685,52.023678 Q232.45572,50.332664,187.45094,50.53542 Q142.44618,50.738174,188.64183,51.615738 Q234.83748,52.4933,205.96777,52.219303 Q177.09805,51.9453,159.96164,52.058357 Q142.82523,52.171417,96.325325,52.96627 Q49.82543,53.761124,132.6235,52.905815 Q215.42159,52.050507,149.16328,51.242043 Q82.90499,50.433575,166.60971,50.81162 Q250.31444,51.189663,165.48381,52.438164 Q80.65318,53.686665,119.70755,53.625107 Q158.76192,53.56355,118.51273,52.49034 M191.34781,53.20609 Q191.34781,53.20609,101.1185,53.433372 Q10.8892,53.660652,39.416374,53.614803 Q67.94355,53.56895,134.89397,53.458878 Q201.84438,53.348804,158.37595,53.765903 Q114.9075,54.183002,86.16111,54.543823 Q57.414715,54.90464,130.22134,54.310635 Q203.02797,53.716625,135.51385,53.59335 Q67.99974,53.47007,150.29622,54.05774 Q232.59268,54.645405,224.20702,54.83005 Q215.82135,55.0147,156.9569,54.045692 Q98.09242,53.076683,107.578606,54.468464 Q117.06479,55.860245,174.02261,54.103577 Q230.98044,52.346912,186.85577,52.56856 Q142.7311,52.79021,188.64636,53.695293 Q234.56163,54.600376,205.56615,54.30813 Q176.57065,54.01588,159.36389,54.14396 Q142.15714,54.27204,96.13218,55.082527 Q50.107224,55.89301,131.85825,55.0079 Q213.60927,54.12279,148.46912,53.29321 Q83.32897,52.46363,166.36569,52.863365 Q249.40242,53.263103,165.91618,54.53915 Q82.42995,55.8152,120.637115,55.747547 Q158.84428,55.679893,118.55353,54.58188 M191.91347,55.24753 Q191.91347,55.24753,101.76,55.48514 Q11.606544,55.722748,39.900616,55.676537 Q68.19469,55.630325,134.86163,55.51561 Q201.52858,55.400898,157.91785,55.83823 Q114.307106,56.275566,86.68104,56.63753 Q59.054962,56.999496,130.40814,56.383617 Q201.76134,55.76774,135.44598,55.655144 Q69.13062,55.54255,151.12106,56.150223 Q233.11151,56.757896,224.58101,56.930702 Q216.05049,57.103504,156.75345,56.117428 Q97.45641,55.13135,107.604,56.56846 Q117.75159,58.005566,173.62837,56.1834 Q229.50516,54.361233,186.26059,54.602604 Q143.01602,54.84398,188.6509,55.775997 Q234.28578,56.708015,205.16452,56.396957 Q176.04324,56.085903,158.76614,56.229813 Q141.48904,56.373726,95.93903,57.198597 Q50.389015,58.023468,131.09299,57.108894 Q211.79695,56.194324,147.77496,55.344494 Q83.75296,54.494663,166.12167,54.916595 Q248.49039,55.33853,166.34856,56.640404 Q84.20672,57.942276,121.56667,57.86825 Q158.92664,57.794228,118.59433,56.6728 M192.47913,57.28861 Q192.47913,57.28861,102.401505,57.53666 Q12.323887,57.78471,40.384857,57.738243 Q68.44582,57.691776,134.82932,57.57239 Q201.2128,57.453003,157.45975,57.910885 Q113.70671,58.368763,87.20096,58.73093 Q60.695206,59.093098,130.59496,58.455425 Q200.49469,57.817753,135.3781,57.71698 Q70.261505,57.61621,151.94592,58.2437 Q233.63034,58.871185,224.95499,59.03074 Q216.27965,59.190296,156.55002,58.18865 Q96.8204,57.187004,107.62939,58.66883 Q118.438385,60.150654,173.23413,58.263138 Q228.02989,56.37562,185.66542,56.63755 Q143.30095,56.89948,188.65544,57.85785 Q234.00993,58.81622,204.7629,58.485794 Q175.51585,58.15537,158.1684,58.315918 Q140.82095,58.476467,95.74588,59.314484 Q50.67081,60.152496,130.32773,59.2088 Q209.98465,58.265106,147.0808,57.39589 Q84.17694,56.526672,165.87766,56.97131 Q247.57837,57.41595,166.78093,58.741924 Q85.98348,60.067898,122.49624,59.98722 Q159.00899,59.90654,118.635124,58.763096 M193.04478,59.329323 Q193.04478,59.329323,103.04301,59.587933 Q13.041231,59.846542,40.869095,59.799923 Q68.69696,59.753304,134.79698,59.629215 Q200.897,59.50513,157.00166,59.983864 Q113.106316,60.462597,87.72089,60.824024 Q62.33545,61.18545,130.78175,60.526054 Q199.22806,59.866657,135.31023,59.778854 Q71.392395,59.69105,152.77078,60.33816 Q234.14917,60.98527,225.32898,61.130173 Q216.50879,61.275074,156.34659,60.259357 Q96.18438,59.24364,107.65478,60.769577 Q119.12518,62.29551,172.8399,60.3428 Q226.55461,58.390087,185.07024,58.673397 Q143.58586,58.95671,188.65997,59.94085 Q233.73407,60.92499,204.36127,60.574635 Q174.98845,60.224277,157.57066,60.402275 Q140.15286,60.580273,95.552734,61.430183 Q50.952602,62.280098,129.56247,61.307617 Q208.17233,60.33514,146.38663,59.4474 Q84.60092,58.559658,165.63364,59.027508 Q246.66635,59.495358,167.2133,60.84371 Q87.760254,62.192062,123.4258,62.104454 Q159.09134,62.01684,118.67592,60.85277 M193.61044,61.369667 Q193.61044,61.369667,103.6845,61.638954 Q13.7585745,61.90824,41.353336,61.861572 Q68.9481,61.814903,134.76466,61.68609 Q200.58122,61.55727,156.54356,62.05717 Q112.50592,62.557068,88.24081,62.916813 Q63.975697,63.276558,130.96857,62.59551 Q197.96143,61.91446,135.24236,61.840767 Q72.52328,61.76707,153.59564,62.433613 Q234.668,63.10015,225.70296,63.228996 Q216.73793,63.35784,156.14314,62.32955 Q95.54836,61.301258,107.680176,62.870697 Q119.81198,64.44013,172.44566,62.42238 Q225.07933,60.40462,184.47507,60.710148 Q143.87079,61.01567,188.6645,62.024998 Q233.45822,63.034325,203.95963,62.663475 Q174.46104,62.29263,156.97292,62.48888 Q139.48479,62.68513,95.35959,63.5457 Q51.234394,64.40627,128.79721,63.40535 Q206.36003,62.404427,145.69246,61.499027 Q85.0249,60.593624,165.38962,61.08519 Q245.75433,61.57675,167.64568,62.945763 Q89.53702,64.31477,124.35536,64.21995 Q159.1737,64.12513,118.71671,62.94183 M194.1761,63.409645 Q194.1761,63.409645,104.326004,63.689728 Q14.475919,63.96981,41.837578,63.9232 Q69.199234,63.876583,134.73233,63.743004 Q200.26543,63.609425,156.08548,64.1308 Q111.90553,64.652176,88.760735,65.00929 Q65.61594,65.36641,131.15536,64.66379 Q196.6948,63.96116,135.17447,63.902718 Q73.65416,63.844273,154.42049,64.53005 Q235.18683,65.21583,226.07695,65.32722 Q216.96707,65.4386,155.93971,64.39923 Q94.91235,63.359856,107.70557,64.97219 Q120.49878,66.584526,172.05142,64.50188 Q223.60406,62.41923,183.87988,62.7478 Q144.1557,63.076366,188.66904,64.11029 Q233.18237,65.144226,203.558,64.75233 Q173.93364,64.36043,156.37517,64.57574 Q138.8167,64.79105,95.16644,65.66103 Q51.516186,66.53101,128.03195,65.50199 Q204.54771,64.47296,144.9983,63.550766 Q85.44889,62.628567,165.1456,63.144352 Q244.84232,63.660137,168.07805,65.04808 Q91.31378,66.43603,125.28492,66.33371 Q159.25606,66.2314,118.75751,65.030266 M194.74174,65.44926 Q194.74174,65.44926,104.96751,65.74025 Q15.193262,66.03125,42.321815,65.984795 Q69.45037,65.93834,134.7,65.799965 Q199.94963,65.6616,155.62738,66.20476 Q111.30514,66.747925,89.28066,67.10147 Q67.25619,67.45502,131.34218,66.73089 Q195.42816,66.00675,135.1066,65.96471 Q74.78504,65.92265,155.24535,66.62748 Q235.70566,67.332306,226.45093,67.42483 Q217.19621,67.51735,155.73627,66.46839 Q94.27634,65.41943,107.73096,67.07406 Q121.18558,68.728676,171.65718,66.58129 Q222.12878,64.433914,183.2847,64.786354 Q144.44063,65.13879,188.67357,66.19674 Q232.90652,67.254684,203.15637,66.84118 Q173.40623,66.427666,155.77742,66.66285 Q138.1486,66.89803,94.9733,67.776184 Q51.79798,68.654335,127.26669,67.59754 Q202.7354,66.54075,144.30414,65.60262 Q85.87287,64.66449,164.90158,65.205 Q243.9303,65.74551,168.51042,67.150665 Q93.09055,68.555824,126.214485,68.44574 Q159.33841,68.335655,118.7983,67.11807 M195.3074,67.4885 Q195.3074,67.4885,105.60901,67.79053 Q15.910605,68.09255,42.806057,68.046364 Q69.70151,68.00017,134.66768,67.85698 Q199.63385,67.71378,155.1693,68.279045 Q110.70474,68.84431,89.80058,69.193344 Q68.89643,69.54237,131.52898,68.79681 Q194.16153,68.05124,135.03873,68.02673 Q75.915924,68.00222,156.0702,68.7259 Q236.22449,69.44957,226.82492,69.52183 Q217.42535,69.594086,155.53284,68.53704 Q93.64032,67.48,107.75635,69.1763 Q121.872375,70.872604,171.26294,68.66063 Q220.65352,66.44866,182.68953,66.825806 Q144.72554,67.20295,188.6781,68.28433 Q232.63068,69.365715,202.75475,68.93003 Q172.87883,68.49435,155.17967,68.750206 Q137.48051,69.00607,94.78014,69.89115 Q52.079773,70.77622,126.501434,69.69201 Q200.9231,68.60779,143.60997,67.65459 Q86.29685,66.701385,164.65756,67.26713 Q243.01828,67.83287,168.9428,69.25352 Q94.86732,70.674164,127.14404,70.55603 Q159.42076,70.4379,118.8391,69.20527 M195.87306,69.52738 Q195.87306,69.52738,106.25051,69.84055 Q16.627949,70.153725,43.2903,70.1079 Q69.952644,70.06208,134.63535,69.91403 Q199.31805,69.76599,154.7112,70.35366 Q110.10435,70.94132,90.32051,71.284904 Q70.536674,71.62849,131.71577,70.86156 Q192.89488,70.09463,134.97086,70.0888 Q77.046814,70.08296,156.89507,70.8253 Q236.7433,71.567635,227.1989,71.618225 Q217.6545,71.66881,155.32939,70.60518 Q93.0043,69.54155,107.78174,71.278915 Q122.55917,73.01629,170.8687,70.73989 Q219.17824,68.463486,182.09435,68.866165 Q145.01047,69.26884,188.68265,70.37307 Q232.35481,71.47731,202.35312,71.01889 Q172.35143,70.56047,154.58192,70.83782 Q136.81244,71.115166,94.587,72.00593 Q52.361565,72.89669,125.736176,71.785385 Q199.11078,70.67408,142.9158,69.70667 Q86.72084,68.739265,164.41354,69.33074 Q242.10626,69.92222,169.37517,71.356636 Q96.64409,72.791046,128.07361,72.66458 Q159.50313,72.53812,118.8799,71.29184 M196.43872,71.565895 Q196.43872,71.565895,106.892006,71.890335 Q17.345293,72.21477,43.77454,72.16942 Q70.20378,72.12406,134.60303,71.97114 Q199.00226,71.81821,154.25311,72.4286 Q109.50395,73.03899,90.84043,73.37616 Q72.17692,73.71334,131.90259,72.925125 Q191.62825,72.13691,134.90297,72.150894 Q78.1777,72.16489,157.71991,72.92569 Q237.26213,73.6865,227.57289,73.71401 Q217.88364,73.74152,155.12596,72.6728 Q92.36829,71.60407,107.80713,73.38191 Q123.24597,75.159744,170.47447,72.81907 Q217.70296,70.478386,181.49918,70.90742 Q145.29538,71.33646,188.68718,72.46296 Q232.07896,73.58947,201.95149,73.10776 Q171.82402,72.626045,153.98419,72.92568 Q136.14435,73.22533,94.39385,74.12052 Q52.64336,75.015724,124.97092,73.87767 Q197.29846,72.73962,142.22165,71.758865 Q87.14482,70.77812,164.16953,71.395836 Q241.19423,72.01356,169.80754,73.460014 Q98.42085,74.90647,129.00316,74.7714 Q159.58548,74.63633,118.92069,73.37779 M197.00438,73.60404 Q197.00438,73.60404,107.53351,73.939865 Q18.062637,74.27568,44.258778,74.2309 Q70.45492,74.18612,134.5707,74.02828 Q198.68648,73.870445,153.79501,74.50386 Q108.90356,75.137276,91.36036,75.46712 Q73.81716,75.79695,132.08939,74.98752 Q190.36162,74.178085,134.8351,74.213036 Q79.30858,74.24799,158.54477,75.02708 Q237.78096,75.80615,227.94687,75.80919 Q218.11278,75.812225,154.92253,74.73991 Q91.73228,73.66759,107.83252,75.485275 Q123.93277,77.30297,170.08023,74.89816 Q216.22769,72.493355,180.90399,72.94958 Q145.5803,73.40581,188.69171,74.554 Q231.80312,75.702194,201.54987,75.196625 Q171.29662,74.691055,153.38644,75.0138 Q135.47626,75.33654,94.20071,76.23493 Q52.92515,77.13333,124.20566,75.96887 Q195.48616,74.804405,141.52748,73.81118 Q87.5688,72.81795,163.9255,73.46242 Q240.28221,74.10689,170.23991,75.56367 Q100.197624,77.02045,129.93272,76.87649 Q159.66783,76.73252,118.96149,75.46312 M197.57004,75.64182 Q197.57004,75.64182,108.17501,75.98914 Q18.77998,76.33646,44.74302,76.29236 Q70.706055,76.24826,134.53838,76.08548 Q198.37068,75.9227,153.33693,76.57945 Q108.30316,77.236206,91.88029,77.55776 Q75.457405,77.87931,132.2762,77.04874 Q189.09499,76.218155,134.76723,76.275215 Q80.43946,76.332275,159.36963,77.12944 Q238.29979,77.926605,228.32086,77.90376 Q218.34192,77.88091,154.71909,76.806496 Q91.09626,75.73208,107.85792,77.58902 Q124.61957,79.44596,169.68599,76.97718 Q214.75241,74.5084,180.30882,74.992645 Q145.86522,75.47689,188.69624,76.64619 Q231.52727,77.815475,201.14824,77.2855 Q170.76923,76.755516,152.7887,77.102165 Q134.80817,77.448814,94.00756,78.34916 Q53.206944,79.24951,123.44039,78.058975 Q193.67384,76.86845,140.83331,75.8636 Q87.99278,74.858765,163.68149,75.53048 Q239.3702,76.2022,170.67229,77.66758 Q101.97439,79.13296,130.86229,78.979836 Q159.75018,78.826706,119.00228,77.54783 M198.1357,77.67924 Q198.1357,77.67924,108.81651,78.03817 Q19.497324,78.39711,45.22726,78.35379 Q70.95719,78.31047,134.50604,78.142715 Q198.0549,77.97497,152.87883,78.65537 Q107.70277,79.33578,92.40021,79.6481 Q77.09766,79.96043,132.463,79.10877 Q187.82835,78.257126,134.69936,78.33743 Q81.57035,78.41775,160.19449,79.2328 Q238.81862,80.04786,228.69484,79.99773 Q218.57106,79.94759,154.51566,78.872574 Q90.46024,77.79755,107.88331,79.69313 Q125.306366,81.588715,169.29175,79.056114 Q213.27713,76.52351,179.71364,77.036606 Q146.15015,77.5497,188.70078,78.73952 Q231.25142,79.92933,200.74661,79.374374 Q170.24182,78.81942,152.19095,79.19078 Q134.14008,79.56215,93.81441,80.4632 Q53.48874,81.36426,122.67513,80.148 Q191.86153,78.93174,140.13914,77.916145 Q88.41677,76.90055,163.43747,77.60003 Q238.45818,78.29951,171.10466,79.77177 Q103.75116,81.24402,131.79185,81.08144 Q159.83253,80.91887,119.04308,79.63191 M198.70135,79.716286 Q198.70135,79.716286,109.458015,80.08695 Q20.214668,80.45763,45.7115,80.41519 Q71.20833,80.37276,134.47372,80.200005 Q197.7391,80.02725,152.42075,80.73161 Q107.10237,81.43598,92.920135,81.73814 Q78.7379,82.04029,132.64981,81.16763 Q186.56172,80.29498,134.63147,80.39969 Q82.70123,80.50439,161.01933,81.33715 Q239.33745,82.16991,229.06882,82.09109 Q218.8002,82.01227,154.31221,80.93813 Q89.824234,79.864006,107.9087,81.79762 Q125.993164,83.73124,168.8975,81.13497 Q211.80186,78.5387,179.11847,79.081474 Q146.43506,79.624245,188.7053,80.834 Q230.97556,82.04375,200.34499,81.46326 Q169.71442,80.88276,151.5932,81.279655 Q133.472,81.676544,93.62126,82.577065 Q53.77053,83.477585,121.909874,82.23593 Q190.04922,80.994286,139.44499,79.9688 Q88.84075,78.94331,163.19345,79.67106 Q237.54616,80.3988,171.53705,81.87621 Q105.52792,83.35362,132.7214,83.18132 Q159.9149,83.00902,119.08388,81.71538 M199.26701,81.75297 Q199.26701,81.75297,110.09952,82.13549 Q20.93201,82.518005,46.19574,82.47656 Q71.459465,82.43512,134.44139,82.25734 Q197.42331,82.07955,151.96265,82.80818 Q106.501976,83.53682,93.440056,83.82786 Q80.37814,84.1189,132.83661,83.22532 Q185.29507,82.33175,134.5636,82.46198 Q83.832115,82.59222,161.8442,83.44248 Q239.85628,84.29275,229.44281,84.18384 Q219.02934,84.07493,154.10878,83.00318 Q89.18822,81.93144,107.93409,83.90249 Q126.67996,85.87353,168.50328,83.213745 Q210.32658,80.55396,178.52328,81.12724 Q146.71999,81.70052,188.70985,82.92963 Q230.6997,84.15873,199.94336,83.55214 Q169.18701,82.94555,150.99545,83.368774 Q132.80391,83.792,93.428116,84.690735 Q54.052322,85.58948,121.144615,84.32278 Q188.23691,83.05608,138.75082,82.02157 Q89.26473,80.98706,162.94943,81.74357 Q236.63414,82.500084,171.96942,83.98093 Q107.304695,85.46177,133.65097,85.27946 Q159.99725,85.09715,119.12467,83.798225 M199.83267,83.78928 Q199.83267,83.78928,110.74101,84.18378 Q21.649355,84.57826,46.67998,84.53791 Q71.7106,84.49757,134.40906,84.31471 Q197.10753,84.13187,151.50455,84.88508 Q105.90158,85.6383,93.959984,85.91728 Q82.01839,86.196266,133.02342,85.28183 Q184.02844,84.3674,134.49573,84.524315 Q84.963,84.68123,162.66905,85.548805 Q240.3751,86.41638,229.81679,86.27598 Q219.25848,86.135574,153.90535,85.06772 Q88.5522,83.99986,107.95948,86.00773 Q127.36676,88.01559,168.10904,85.292435 Q208.85132,82.56929,177.9281,83.17391 Q147.0049,83.778534,188.71439,85.026405 Q230.42386,86.27428,199.54173,85.64103 Q168.6596,85.00778,150.39772,85.458145 Q132.13582,85.90851,93.23497,86.80423 Q54.334118,87.69995,120.37936,86.40854 Q186.4246,85.11713,138.05666,84.074455 Q89.68871,83.03178,162.70541,83.817566 Q235.72212,84.603355,172.4018,86.08591 Q109.08146,87.56846,134.58054,87.37586 Q160.0796,87.18327,119.16547,85.88045 M200.39833,85.82523 Q200.39833,85.82523,111.382515,86.23181 Q22.3667,86.63838,47.16422,86.599236 Q71.96174,86.56008,134.37674,86.37214 Q196.79173,86.1842,151.04646,86.9623 Q105.301186,87.74042,94.47991,88.00639 Q83.65863,88.27238,133.21022,87.337166 Q182.76181,86.40195,134.42784,86.586685 Q86.09389,86.771416,163.49391,87.65611 Q240.89392,88.54082,230.19078,88.367516 Q219.48763,88.19421,153.7019,87.13174 Q87.91618,86.06927,107.98487,88.11334 Q128.05356,90.15741,167.7148,87.37105 Q207.37604,84.584694,177.33293,85.22148 Q147.28983,85.85827,188.71892,87.12433 Q230.14801,88.39039,199.1401,87.72993 Q168.1322,87.06946,149.79997,87.54777 Q131.46773,88.02608,93.041824,88.917534 Q54.61591,89.80899,119.6141,88.4932 Q184.61229,87.17742,137.36249,86.12745 Q90.1127,85.07748,162.4614,85.89304 Q234.8101,86.70862,172.83417,88.191154 Q110.85823,89.67369,135.5101,89.470535 Q160.16196,89.26738,119.20626,87.96205 M200.96399,87.86082 Q200.96399,87.86082,112.02402,88.279594 Q23.084042,88.69837,47.64846,88.66052 Q72.212875,88.62267,134.3444,88.42961 Q196.47595,88.23654,150.58836,89.039856 Q104.70079,89.84317,94.99983,90.09521 Q85.298874,90.347244,133.39703,89.39132 Q181.49518,88.435394,134.35997,88.64909 Q87.22477,88.862785,164.31876,89.76441 Q241.41275,90.666046,230.56476,90.45844 Q219.71677,90.25084,153.49847,89.195244 Q87.280174,88.139656,108.01026,90.21933 Q128.74036,92.298996,167.32056,89.449585 Q205.90076,86.60017,176.73775,87.26996 Q147.57474,87.93974,188.72345,89.223404 Q229.87216,90.50707,198.73848,89.818825 Q167.6048,89.13058,149.20222,89.63764 Q130.79965,90.14471,92.84867,91.030655 Q54.8977,91.9166,118.84884,90.57678 Q182.79997,89.23697,136.66833,88.180565 Q90.53668,87.12415,162.21738,87.97001 Q233.89807,88.815865,173.26654,90.29667 Q112.634995,91.777466,136.43965,91.56347 Q160.24432,91.349464,119.24706,90.04303 M201.52965,89.896034 Q201.52965,89.896034,112.66552,90.32713 Q23.801386,90.75823,48.1327,90.72179 Q72.46401,90.68535,134.31209,90.48713 Q196.16016,90.28891,150.13028,91.11773 Q104.100395,91.946556,95.51976,92.18371 Q86.939125,92.42086,133.58383,91.4443 Q180.22855,90.467735,134.2921,90.71153 Q88.35565,90.95533,165.14362,91.8737 Q241.93158,92.79207,230.93875,92.54876 Q219.9459,92.30545,153.29503,91.25824 Q86.64416,90.21102,108.03566,92.32569 Q129.42715,94.44035,166.92632,91.52804 Q204.42549,88.615715,176.14258,89.319336 Q147.85966,90.02295,188.72798,91.32363 Q229.59631,92.62431,198.33685,91.90772 Q167.0774,91.19114,148.60448,91.72777 Q130.13156,92.2644,92.655525,93.14359 Q55.179497,94.02279,118.08358,92.65928 Q180.98767,91.29577,135.97417,90.23379 Q90.96066,89.17181,161.97336,90.048454 Q232.98605,90.9251,173.69891,92.40244 Q114.411766,93.87978,137.36922,93.65466 Q160.32668,93.42954,119.28786,92.12339 M202.0953,91.930885 Q202.0953,91.930885,113.30702,92.37442 Q24.51873,92.817955,48.61694,92.78303 Q72.71515,92.74809,134.27975,92.54469 Q195.84436,92.341286,149.67218,93.19594 Q103.5,94.05058,96.03969,94.271904 Q88.57937,94.493225,133.77063,93.4961 Q178.96191,92.49898,134.22423,92.77402 Q89.486534,93.049065,165.96848,93.98398 Q242.45041,94.91889,231.31273,94.63847 Q220.17505,94.358055,153.0916,93.32071 Q86.00814,92.28337,108.06105,94.43243 Q130.11395,96.58148,166.53209,93.60641 Q202.95021,90.63134,175.5474,91.369606 Q148.14458,92.10788,188.73251,93.424995 Q229.32045,94.74212,197.93523,93.99663 Q166.55,93.251144,148.00673,93.818146 Q129.46347,94.38515,92.46238,95.25635 Q55.46129,96.12754,117.31832,94.74068 Q179.17535,93.35381,135.28,92.287125 Q91.38465,91.22044,161.72934,92.12839 Q232.07404,93.03633,174.13129,94.50849 Q116.18853,95.98065,138.29878,95.744125 Q160.40903,95.5076,119.32865,94.20313 M202.66096,93.96537 Q202.66096,93.96537,113.94852,94.42146 Q25.236073,94.87755,49.10118,94.84423 Q72.966286,94.81091,134.24744,94.602295 Q195.52858,94.393684,149.2141,95.27447 Q102.899605,96.15525,96.55961,96.359795 Q90.21961,96.56435,133.95744,95.54672 Q177.69528,94.529106,134.15634,94.83654 Q90.617424,95.143974,166.79333,96.095245 Q242.96924,97.04651,231.68672,96.72758 Q220.40419,96.408646,152.88817,95.382675 Q85.37212,94.356705,108.08644,96.539536 Q130.80075,98.72237,166.13785,95.6847 Q201.47493,92.64703,174.95222,93.42079 Q148.4295,94.19455,188.73705,95.52752 Q229.0446,96.86049,197.5336,96.08554 Q166.0226,95.31059,147.40898,95.908775 Q128.79538,96.50695,92.26923,97.36891 Q55.74308,98.23087,116.55306,96.82099 Q177.36304,95.41112,134.58583,94.34058 Q91.80863,93.27005,161.48532,94.2098 Q231.16202,95.14954,174.56366,96.6148 Q117.965294,98.080055,139.22833,97.83185 Q160.49138,97.58365,119.369446,96.28225 M203.22662,95.99949 Q203.22662,95.99949,114.59002,96.468254 Q25.953417,96.93701,49.585423,96.90541 Q73.21742,96.87381,134.2151,96.65995 Q195.21278,96.44609,148.756,97.35332 Q102.29922,98.260544,97.07954,98.44738 Q91.859856,98.63421,134.14424,97.596176 Q176.42863,96.558136,134.08847,96.8991 Q91.74831,97.24007,167.61818,98.2075 Q243.48807,99.17493,232.0607,98.81608 Q220.63333,98.45723,152.68472,97.44412 Q84.736115,96.431015,108.11183,98.64702 Q131.48755,100.86303,165.7436,97.76291 Q199.99966,94.662796,174.35704,95.47287 Q148.71442,96.28294,188.7416,97.63119 Q228.76875,98.97942,197.13197,98.17445 Q165.4952,97.369484,146.81125,97.99965 Q128.1273,98.62982,92.07609,99.4813 Q56.02487,100.33278,115.7878,98.90022 Q175.55074,97.46767,133.89168,96.39415 Q92.23261,95.32064,161.2413,96.292694 Q230.25,97.26475,174.99603,98.72138 Q119.742065,100.17801,140.1579,99.91784 Q160.57373,99.65768,119.41024,98.36075 M203.79228,98.03324 Q203.79228,98.03324,115.23152,98.51479 Q26.670761,98.996346,50.06966,98.96657 Q73.46856,98.93679,134.18279,98.71765 Q194.89699,98.49852,148.29791,99.4325 Q101.69882,100.366486,97.59946,100.53466 Q93.5001,100.70283,134.33105,99.64445 Q175.162,98.58606,134.0206,98.9617 Q92.87919,99.33734,168.44304,100.32073 Q244.0069,101.30413,232.4347,100.90397 Q220.86249,100.5038,152.4813,99.50506 Q84.1001,98.50631,108.13722,100.75488 Q132.17435,103.00345,165.34937,99.84104 Q198.52438,96.678635,173.76187,97.525856 Q148.99934,98.37307,188.74612,99.736 Q228.4929,101.09892,196.73035,100.263374 Q164.96779,99.42782,146.2135,100.09078 Q127.459206,100.753746,91.882935,101.5935 Q56.306667,102.43325,115.022545,100.978355 Q173.73842,99.52347,133.19751,98.44784 Q92.65659,97.37221,160.99728,98.377075 Q229.33798,99.38194,175.4284,100.828224 Q121.51883,102.274506,141.08746,102.0021 Q160.6561,101.72969,119.45104,100.43863 M204.35794,100.06663 Q204.35794,100.06663,115.873024,100.56109 Q27.388103,101.05555,50.5539,101.027695 Q73.719696,100.99984,134.15045,100.7754 Q194.5812,100.550964,147.83981,101.51201 Q101.09843,102.47306,98.119385,102.62163 Q95.14034,102.7702,134.51785,101.69154 Q173.89537,100.612885,133.95273,101.02434 Q94.01007,101.43579,169.2679,102.43497 Q244.52573,103.43414,232.80867,102.99125 Q221.09163,102.54836,152.27785,101.565475 Q83.46408,100.58259,108.16261,102.86311 Q132.86115,105.14364,164.95512,101.91909 Q197.04912,98.69454,173.16669,99.57974 Q149.28426,100.464935,188.75066,101.841965 Q228.21706,103.218994,196.32872,102.352295 Q164.44038,101.4856,145.61575,102.18217 Q126.79112,102.87873,91.68979,103.70551 Q56.58846,104.532295,114.257286,103.055405 Q171.92612,101.57852,132.50334,100.50163 Q93.08058,99.42475,160.75327,100.46294 Q228.42596,101.50112,175.86078,102.93533 Q123.2956,104.369545,142.01703,104.08462 Q160.73845,103.79969,119.49184,102.515884 M204.9236,102.09965 Q204.9236,102.09965,116.51453,102.60713 Q28.105448,103.11462,51.038143,103.08879 Q73.97083,103.062965,134.11812,102.8332 Q194.26541,102.603424,147.38173,103.59185 Q100.49803,104.58027,98.63931,104.7083 Q96.78059,104.83632,134.70467,103.73746 Q172.62874,102.638596,133.88484,103.08701 Q95.14095,103.53542,170.09276,104.550186 Q245.04454,105.56494,233.18266,105.07793 Q221.32077,104.59091,152.07442,103.62538 Q82.828064,102.65985,108.188,104.971725 Q133.54794,107.2836,164.5609,103.99706 Q195.57384,100.710526,172.5715,101.63453 Q149.56918,102.558525,188.75519,103.94907 Q227.9412,105.33962,195.9271,104.44122 Q163.91298,103.54282,145.018,104.273796 Q126.12303,105.004776,91.49664,105.817345 Q56.87025,106.62991,113.49203,105.13137 Q170.1138,103.63282,131.80917,102.55555 Q93.50456,101.47827,160.50925,102.55028 Q227.51395,103.62229,176.29315,105.04271 Q125.072365,106.46313,142.94658,106.1654 Q160.8208,105.867676,119.53263,104.592514 M205.48926,104.1323 Q205.48926,104.1323,117.15602,104.65292 Q28.822792,105.17355,51.52238,105.149864 Q74.22197,105.12617,134.0858,104.89104 Q193.94963,104.6559,146.92363,105.67201 Q99.89764,106.68812,99.15923,106.794655 Q98.42084,106.90119,134.89146,105.7822 Q171.3621,104.66321,133.81697,105.14972 Q96.27184,105.63624,170.9176,106.66639 Q245.56337,107.69654,233.55664,107.163994 Q221.54991,106.63145,151.87099,105.68477 Q82.192055,104.73809,108.2134,107.08071 Q134.23474,109.423325,164.16666,106.07495 Q194.09856,102.726585,171.97633,103.690216 Q149.8541,104.65385,188.75972,106.057335 Q227.66534,107.460815,195.52547,106.53016 Q163.38557,105.599495,144.42026,106.365685 Q125.45495,107.131874,91.3035,107.92899 Q57.152046,108.726105,112.72677,107.206245 Q168.30148,105.68638,131.11502,104.60957 Q93.92854,103.53277,160.26523,104.63911 Q226.60191,105.74545,176.72552,107.15035 Q126.84914,108.55525,143.87614,108.244446 Q160.90315,107.93364,119.573425,106.668526 M206.05492,106.16459 Q206.05492,106.16459,117.79752,106.69847 Q29.540134,107.23236,52.006622,107.21091 Q74.47311,107.18945,134.05347,106.94892 Q193.63383,106.70839,146.46553,107.752495 Q99.29724,108.79661,99.67916,108.88071 Q100.06108,108.96481,135.07828,107.82577 Q170.09547,106.686714,133.7491,107.21247 Q97.402725,107.738235,171.74246,108.783585 Q246.0822,109.82893,233.93062,109.24945 Q221.77905,108.669975,151.66754,107.743645 Q81.55604,106.817314,108.23879,109.19006 Q134.92154,111.56281,163.77242,108.15276 Q192.62329,104.74271,171.38115,105.7468 Q150.13902,106.7509,188.76425,108.16674 Q227.3895,109.58258,195.12384,108.619095 Q162.85817,107.6556,143.82251,108.45782 Q124.78686,109.26004,91.11035,110.04045 Q57.433838,110.82087,111.96151,109.28003 Q166.48918,107.73918,130.42085,106.66371 Q94.35253,105.58825,160.02121,106.72942 Q225.6899,107.8706,177.1579,109.25826 Q128.6259,110.64592,144.80571,110.32176 Q160.98552,109.9976,119.61422,108.74392 M206.62057,108.15507 Q206.62057,108.15507,118.439026,108.692 Q30.257479,109.228935,52.490864,109.21018 Q74.72424,109.19144,134.02115,108.95012 Q193.31804,108.7088,146.00745,109.76099 Q98.696846,110.81316,100.19908,110.87275 Q101.701324,110.932335,135.26508,109.795166 Q168.82883,108.658005,133.68121,109.21346 Q98.53361,109.76893,172.56732,110.80928 Q246.60103,111.84963,234.30461,111.23366 Q222.0082,110.61769,151.46411,109.73027 Q80.92002,108.84286,108.26418,111.1998 Q135.60834,113.55675,163.37817,110.150665 Q191.14801,106.74459,170.78598,107.770256 Q150.42393,108.79592,188.7688,110.196594 Q227.11365,111.59727,194.72221,110.6192 Q162.33076,109.641136,143.22478,110.464355 Q124.118774,111.287575,90.9172,112.03566 Q57.71563,112.78375,111.19625,111.251724 Q164.67686,109.7197,129.72668,108.66669 Q94.77651,107.61367,159.77719,108.76799 Q224.77788,109.92231,177.59027,111.26518 Q130.40266,112.608055,145.73528,112.27663 Q161.06787,111.945206,119.655014,110.727776 M207.18623,110.10429 Q207.18623,110.10429,119.08053,110.63389 Q30.974823,111.16349,52.9751,111.14774 Q74.97538,111.132,133.98882,110.89456 Q193.00226,110.65712,145.54935,111.69698 Q98.09645,112.73685,100.71901,112.77124 Q103.34157,112.805626,135.45189,111.69218 Q167.5622,110.57873,133.61334,111.15264 Q99.66449,111.726555,173.39218,112.742 Q247.11986,113.75744,234.67859,113.11752 Q222.23734,112.47761,151.26067,111.64542 Q80.284004,110.81323,108.28957,113.10935 Q136.29514,115.40548,162.98393,112.068794 Q189.67274,108.73212,170.1908,109.75921 Q150.70886,110.78631,188.77333,112.145164 Q226.8378,113.50403,194.32059,112.53048 Q161.80338,111.55692,142.62703,112.38491 Q123.45068,113.2129,90.72405,113.914894 Q57.997425,114.61688,110.43099,113.12298 Q162.86455,111.629074,129.03252,110.61832 Q95.20049,109.60757,159.53317,110.75258 Q223.86586,111.89759,178.02264,113.170715 Q132.17944,114.44384,146.66483,114.111664 Q161.15022,113.77949,119.695816,112.62102 M207.75189,112.05386 Q207.75189,112.05386,119.72203,112.57602 Q31.692167,113.09817,53.459343,113.085335 Q75.22652,113.072495,133.9565,112.83896 Q192.68646,112.605415,145.09126,113.63265 Q97.496056,114.6599,101.23894,114.67003 Q104.98181,114.68017,135.63869,113.59036 Q166.29556,112.50056,133.54547,113.091774 Q100.79538,113.683,174.21703,114.67372 Q247.63869,115.664444,235.05258,115.00199 Q222.46648,114.33954,151.05724,113.56108 Q79.647995,112.78262,108.314964,115.01853 Q136.98193,117.25444,162.5897,113.98701 Q188.19746,110.71957,169.59563,111.74726 Q150.99379,112.774956,188.77786,114.09259 Q226.56194,115.410225,193.91896,114.44175 Q161.27597,113.47327,142.02928,114.305214 Q122.7826,115.13716,90.53091,115.794304 Q58.279217,116.45145,109.665726,114.995316 Q161.05225,113.539185,128.33836,112.56984 Q95.62447,111.600494,159.28915,112.73569 Q222.95384,113.87089,178.45502,115.07599 Q133.9562,116.28108,147.59439,115.94843 Q161.23257,115.61579,119.73661,114.514885 M208.31755,114.003815 Q208.31755,114.003815,120.363525,114.5184 Q32.40951,115.03298,53.943584,115.02295 Q75.47766,115.01292,133.92416,114.78331 Q192.37068,114.5537,144.63316,115.568 Q96.89566,116.5823,101.75886,116.56913 Q106.622055,116.55596,135.8255,115.48972 Q165.02893,114.423485,133.4776,115.030876 Q101.92626,115.63827,175.04189,116.60446 Q248.15752,117.57066,235.42656,116.88707 Q222.69562,116.203476,150.85379,115.47726 Q79.01198,114.75103,108.340355,116.92734 Q137.66873,119.10364,162.19547,115.9053 Q186.72218,112.70695,169.00044,113.73441 Q151.2787,114.76188,188.7824,116.03887 Q226.28609,117.315865,193.51732,116.35302 Q160.74857,115.39017,141.43153,116.225266 Q122.11451,117.06036,90.33776,117.673904 Q58.56101,118.28744,108.90047,116.868744 Q159.23993,115.45005,127.644196,114.52124 Q96.04846,113.59244,159.04514,114.717316 Q222.04182,115.84219,178.88739,116.98099 Q135.73297,118.11978,148.52396,117.78694 Q161.31494,117.4541,119.777405,116.40937 M208.88321,115.95413 Q208.88321,115.95413,121.00503,116.46103 Q33.126854,116.967926,54.427822,116.960594 Q75.7288,116.953255,133.89185,116.727615 Q192.05489,116.50197,144.17508,117.50302 Q96.295265,118.504074,102.278786,118.46854 Q108.26231,118.433,136.0123,117.39026 Q163.7623,116.34753,133.40971,116.96993 Q103.057144,117.59235,175.86674,118.53421 Q248.67635,119.47608,235.80055,118.77275 Q222.92476,118.06943,150.65036,117.39394 Q78.37596,116.71846,108.365746,118.83576 Q138.35553,120.95307,161.80122,117.82366 Q185.24692,114.69425,168.40527,115.720665 Q151.56363,116.74707,188.78693,117.984 Q226.01024,119.22093,193.11569,118.26428 Q160.22116,117.30763,140.83379,118.14507 Q121.44642,118.98251,90.144615,119.55369 Q58.842804,120.12486,108.13521,118.74326 Q157.42761,117.361664,126.95003,116.472534 Q96.47244,115.583405,158.80112,116.69746 Q221.1298,117.81151,179.31978,118.88573 Q137.50974,119.95994,149.45352,119.62718 Q161.3973,119.29443,119.8182,118.304474 M209.44887,117.904816 Q209.44887,117.904816,121.64653,118.40391 Q33.844196,118.903,54.912064,118.89826 Q75.979935,118.893524,133.85951,118.67187 Q191.73909,118.45022,143.71698,119.43771 Q95.69487,120.42521,102.798706,120.36825 Q109.90255,120.31129,136.1991,119.29198 Q162.49567,118.27267,133.34184,118.90896 Q104.18803,119.54525,176.6916,120.462975 Q249.19516,121.3807,236.17453,120.65904 Q223.1539,119.937386,150.44693,119.31115 Q77.739944,118.684906,108.391136,120.74382 Q139.04233,122.802734,161.40698,119.74211 Q183.77164,116.68149,167.81009,117.70601 Q151.84854,118.73053,188.79146,119.927986 Q225.73439,121.125435,192.71407,120.17554 Q159.69376,119.22565,140.23605,120.06462 Q120.778336,120.9036,89.95146,121.433655 Q59.124596,121.96371,107.36995,120.618866 Q155.61531,119.274025,126.25587,118.423706 Q96.89642,117.573395,158.5571,118.67612 Q220.21779,119.77884,179.75215,120.79019 Q139.28651,121.80155,150.38307,121.46916 Q161.47964,121.13678,119.85899,120.2002 M210.01453,119.85586 Q210.01453,119.85586,122.28803,120.34704 Q34.561543,120.83821,55.396305,120.83596 Q76.23107,120.83371,133.8272,120.61608 Q191.42331,120.39845,143.2589,121.37208 Q95.094475,122.3457,103.318634,122.268265 Q111.54279,122.19083,136.38591,121.19487 Q161.22902,120.19891,133.27397,120.847946 Q105.31892,121.49698,177.51645,122.390755 Q249.71399,123.28452,236.54852,122.545944 Q223.38304,121.80736,150.24348,121.22887 Q77.103935,120.650375,108.416534,122.651505 Q139.72913,124.652626,161.01274,121.660645 Q182.29636,118.668655,167.21492,119.69045 Q152.13347,120.71226,188.796,121.87082 Q225.45854,123.02937,192.31244,122.08679 Q159.16635,121.14421,139.6383,121.98392 Q120.110245,122.82362,89.758316,123.313805 Q59.406387,123.80398,106.60469,122.49556 Q153.803,121.18713,125.5617,120.37477 Q97.320404,119.56241,158.31308,120.6533 Q219.30576,121.74418,180.18452,122.6944 Q141.06328,123.644615,151.31264,123.312874 Q161.562,122.98114,119.899796,122.09655 M210.58018,121.807274 Q210.58018,121.807274,122.929535,122.29041 Q35.278885,122.77355,55.880547,122.77369 Q76.48221,122.77383,133.79486,122.56025 Q191.10751,122.34667,142.8008,123.306114 Q94.49408,124.265564,103.83856,124.16859 Q113.18304,124.07162,136.57271,123.09894 Q159.96239,122.12626,133.2061,122.78689 Q106.4498,123.44752,178.34131,124.317535 Q250.23282,125.18755,236.9225,124.43345 Q223.61218,123.679344,150.04005,123.1471 Q76.46792,122.61485,108.441925,124.55881 Q140.41592,126.50276,160.61852,123.579254 Q180.82109,120.65575,166.61974,121.673996 Q152.41838,122.69225,188.80054,123.8125 Q225.18268,124.93275,191.91081,123.99805 Q158.63895,123.06334,139.04056,123.90297 Q119.44216,124.74259,89.56517,125.19414 Q59.688183,125.64568,105.83943,124.37334 Q151.99069,123.10099,124.86754,122.32572 Q97.74439,121.550446,158.06906,122.62899 Q218.39374,123.707535,180.6169,124.598335 Q142.84004,125.48914,152.2422,125.158325 Q161.64435,124.827515,119.94059,123.99352 M211.14584,123.759056 Q211.14584,123.759056,123.57103,124.23404 Q35.996227,124.70902,56.364784,124.71144 Q76.733345,124.71387,133.76253,124.50437 Q190.79173,124.294876,142.34271,125.23983 Q93.893684,126.184784,104.35848,126.06922 Q114.82328,125.95365,136.75952,125.00418 Q158.69576,124.05472,133.13821,124.7258 Q107.58068,125.39688,179.16617,126.24333 Q250.75165,127.08979,237.2965,126.32156 Q223.84132,125.55334,149.83661,125.06585 Q75.8319,124.578354,108.467316,126.46574 Q141.10272,128.35312,160.22427,125.49794 Q179.34581,122.64276,166.02455,123.65664 Q152.70331,124.67052,188.80507,125.75304 Q224.90683,126.835556,191.50919,125.909294 Q158.11154,124.983025,138.44281,125.82176 Q118.77407,126.66051,89.372025,127.07466 Q59.969975,127.488815,105.07417,126.252205 Q150.17838,125.0156,124.17337,124.27655 Q98.16837,123.537506,157.82504,124.603195 Q217.48172,125.66889,181.04927,126.50201 Q144.6168,127.33512,153.17175,127.00551 Q161.72672,126.6759,119.981384,125.89111 M211.71149,125.711205 Q211.71149,125.711205,124.21253,126.17791 Q36.713573,126.64462,56.849026,126.64922 Q76.98448,126.653824,133.73021,126.44844 Q190.47594,126.24306,141.88461,127.17322 Q93.29329,128.10338,104.87841,127.97015 Q116.463524,127.83694,136.94632,126.91061 Q157.42912,125.984276,133.07034,126.664665 Q108.71156,127.34506,179.99103,128.16815 Q251.27048,128.99123,237.67047,128.21028 Q224.07047,127.429344,149.63318,126.98511 Q75.195885,126.54087,108.49271,128.3723 Q141.78952,130.20372,159.83003,127.41672 Q177.87054,124.62971,165.42938,125.63838 Q152.98822,126.64705,188.8096,127.69243 Q224.63098,128.73781,191.10756,127.82053 Q157.58415,126.90327,137.84506,127.74031 Q118.10599,128.57736,89.17888,128.95537 Q60.251766,129.33337,104.308914,128.13217 Q148.36606,126.93096,123.47921,126.22727 Q98.592354,125.52358,157.58102,126.57593 Q216.5697,127.628265,181.48164,128.40541 Q146.39357,129.18256,154.10132,128.85443 Q161.80907,128.5263,120.02218,127.78933 M212.27715,127.66372 Q212.27715,127.66372,124.854034,128.12204 Q37.430916,128.58035,57.333267,128.58704 Q77.23562,128.5937,133.69788,128.39247 Q190.16014,128.19122,141.42653,129.10628 Q92.692894,130.02132,105.39833,129.8714 Q118.103775,129.72148,137.13313,128.8182 Q156.16249,127.91494,133.00247,128.6035 Q109.842445,129.29207,180.81587,130.09196 Q251.7893,130.89188,238.04446,130.09961 Q224.2996,129.30736,149.42975,128.90489 Q74.559875,128.50241,108.5181,130.27847 Q142.47632,132.05455,159.43579,129.33557 Q176.39526,126.616585,164.8342,127.61922 Q153.27315,128.62186,188.81413,129.63066 Q224.35513,130.63948,190.70593,129.73177 Q157.05675,128.82407,137.24731,129.6586 Q117.4379,130.49315,88.985725,130.83626 Q60.53356,131.17935,103.543655,130.01321 Q146.55376,128.84706,122.78504,128.17787 Q99.01634,127.50868,157.337,128.54716 Q215.65768,129.58565,181.91402,130.30855 Q148.17035,131.03145,155.03088,130.7051 Q161.89142,130.37872,120.06297,129.68816 M212.8428,129.6166 Q212.8428,129.6166,125.49554,130.0664 Q38.14826,130.51622,57.817505,130.52487 Q77.486755,130.53352,133.66556,130.33646 Q189.84436,130.13939,140.96843,131.03902 Q92.09251,131.93863,105.91826,131.77295 Q119.74402,131.60725,137.31993,130.72697 Q154.89586,129.84671,132.93459,130.5423 Q110.973335,131.23788,181.64073,132.0148 Q252.30814,132.79172,238.41844,131.98955 Q224.52875,131.1874,149.2263,130.82518 Q73.92386,130.46297,108.54349,132.18428 Q143.16312,133.90561,159.04155,131.2545 Q174.91998,128.6034,164.23903,129.59915 Q153.55806,130.59492,188.81866,131.56776 Q224.07928,132.5406,190.3043,131.643 Q156.52934,130.74542,136.64958,131.57664 Q116.76981,132.40788,88.79258,132.71733 Q60.815353,133.02676,102.7784,131.89534 Q144.74144,130.76392,122.09088,130.12836 Q99.44032,129.49281,157.09299,130.51692 Q214.74567,131.54105,182.34639,132.21143 Q149.94711,132.88179,155.96045,132.55748 Q161.97377,132.23317,120.103775,131.58762 M213.40846,131.56984 Q213.40846,131.56984,126.13704,132.01103 Q38.865604,132.45222,58.301746,132.46274 Q77.73789,132.47325,133.63322,132.28038 Q189.52856,132.08752,140.51033,132.97142 Q91.49211,133.85532,106.43819,133.6748 Q121.38426,133.4943,137.50674,132.63693 Q153.62921,131.77957,132.86671,132.48105 Q112.10422,133.18253,182.46559,133.93665 Q252.82697,134.69077,238.79242,133.8801 Q224.75789,133.06943,149.02287,132.74599 Q73.28784,132.42253,108.56888,134.08972 Q143.84991,135.75691,158.64732,133.17351 Q173.44472,130.59012,163.64384,131.57819 Q153.84299,132.56627,188.82321,133.50371 Q223.80342,134.44115,189.90268,133.55423 Q156.00194,132.66733,136.05183,133.49445 Q116.10172,134.32155,88.599434,134.59859 Q61.097145,134.87561,102.01314,133.77856 Q142.92912,132.68152,121.39671,132.07874 Q99.8643,131.47595,156.84897,132.4852 Q213.83365,133.49446,182.77876,134.11403 Q151.72388,134.7336,156.89,134.4116 Q162.05614,134.08961,120.14457,133.48769 M213.97412,133.52345 Q213.97412,133.52345,126.778534,133.9559 Q39.582947,134.38835,58.785988,134.40062 Q77.98903,134.4129,133.6009,134.22427 Q189.21277,134.03564,140.05225,134.9035 Q90.891716,135.77135,106.95811,135.57697 Q123.024506,135.38257,137.69354,134.54807 Q152.36258,133.71355,132.79884,134.41977 Q113.2351,135.12598,183.29044,135.8575 Q253.34578,136.58902,239.16641,135.77126 Q224.98703,134.95348,148.81943,134.6673 Q72.651825,134.38112,108.59428,135.99478 Q144.53671,137.60843,158.25308,135.0926 Q171.96944,132.57677,163.04868,133.55632 Q154.1279,134.53587,188.82774,135.4385 Q223.52757,136.34114,189.50105,135.46547 Q155.47453,134.5898,135.45409,135.41197 Q115.43364,136.23416,88.40629,136.48003 Q61.378937,136.72588,101.24788,135.66289 Q141.11682,134.59988,120.70255,134.029 Q100.288284,133.45811,156.60495,134.452 Q212.92163,135.44588,183.21114,136.01637 Q153.50064,136.58687,157.81956,136.26747 Q162.13849,135.94807,120.18536,135.3884 M214.53978,135.47743 Q214.53978,135.47743,127.42004,135.90102 Q40.30029,136.32462,59.270226,136.33855 Q78.240166,136.35248,133.56857,136.16812 Q188.89699,135.98375,139.59415,136.83525 Q90.29132,137.68675,107.478035,137.47943 Q124.66475,137.27211,137.88036,136.46037 Q151.09595,135.64864,132.73097,136.35844 Q114.36598,137.06825,184.1153,137.77737 Q253.86461,138.48648,239.54039,137.66301 Q225.21619,136.83954,148.616,136.58914 Q72.015816,136.33873,108.61967,137.89946 Q145.22351,139.46019,157.85884,137.01178 Q170.49416,134.56335,162.45349,135.53355 Q154.41283,136.50374,188.83228,137.37215 Q223.25172,138.24055,189.09943,137.37668 Q154.94713,136.51282,134.85634,137.32927 Q114.76555,138.14572,88.21314,138.36165 Q61.660732,138.57758,100.48262,137.54828 Q139.3045,136.51898,120.008385,135.97914 Q100.71227,135.43932,156.36093,136.41731 Q212.0096,137.39531,183.64351,137.91844 Q155.27742,138.44159,158.74913,138.12508 Q162.22084,137.80856,120.22616,137.2897 M215.10544,137.43178 Q215.10544,137.43178,128.06154,137.84639 Q41.017635,138.261,59.754467,138.27649 Q78.4913,138.29199,133.53625,138.11192 Q188.58119,137.93184,139.13606,138.76668 Q89.690926,139.60152,107.99796,139.3822 Q126.30499,139.16289,138.06715,138.37386 Q149.82932,137.58482,132.66309,138.29709 Q115.49687,139.00935,184.94016,139.69624 Q254.38344,140.38313,239.91438,139.55537 Q225.44533,138.72762,148.41257,138.51149 Q71.3798,138.29535,108.64506,139.80377 Q145.91031,141.3122,157.4646,138.93103 Q169.01889,136.54987,161.85832,137.50989 Q154.69774,138.4699,188.8368,139.30466 Q222.97588,140.1394,188.6978,139.2879 Q154.41972,138.4364,134.25859,139.2463 Q114.09746,140.05621,88.01999,140.24345 Q61.942524,140.4307,99.71736,139.43477 Q137.4922,138.43884,119.314224,137.92918 Q101.13625,137.41953,156.11691,138.38113 Q211.09758,139.34274,184.07588,139.82025 Q157.05418,140.29776,159.6787,139.9844 Q162.30319,139.67105,120.26695,139.19165 M215.6711,139.38649 Q215.6711,139.38649,128.70303,139.792 Q41.734978,140.19753,60.23871,140.21446 Q78.74244,140.23141,133.50392,140.05566 Q188.26541,139.87991,138.67796,140.69778 Q89.09053,141.51564,108.51788,141.28528 Q127.94524,141.05492,138.25397,140.28851 Q148.56268,139.52211,132.59521,140.23569 Q116.627754,140.94928,185.76501,141.61414 Q254.90227,142.279,240.28836,141.44835 Q225.67447,140.61769,148.20912,140.43434 Q70.74378,140.25099,108.67045,141.7077 Q146.5971,143.16441,157.07036,140.85037 Q167.54361,138.53632,161.26314,139.4853 Q154.98267,140.4343,188.84134,141.23601 Q222.70003,142.0377,188.29617,141.19911 Q153.89232,140.36053,133.66084,141.16309 Q113.429375,141.96565,87.82684,142.12546 Q62.224316,142.28525,98.9521,141.32234 Q135.67989,140.35944,118.62006,139.8791 Q101.560234,139.39876,155.8729,140.34348 Q210.18556,141.28821,184.50826,141.7218 Q158.83095,142.15538,160.60825,141.84547 Q162.38554,141.53557,120.307755,141.09421 M216.23676,141.34157 Q216.23676,141.34157,129.34454,141.73787 Q42.45232,142.13419,60.722946,142.15247 Q78.993576,142.17076,133.47159,141.99937 Q187.94962,141.82797,138.21988,142.62856 Q88.490135,143.42914,109.03781,143.18866 Q129.58548,142.9482,138.44077,142.20435 Q147.29605,141.4605,132.52734,142.17426 Q117.75864,142.88802,186.58986,143.53104 Q255.4211,144.17407,240.66235,143.34193 Q225.90361,142.5098,148.00569,142.35773 Q70.107765,142.20566,108.69584,143.61127 Q147.2839,145.01688,156.67612,142.76978 Q166.06834,140.52267,160.66795,141.45984 Q155.26758,142.39699,188.84587,143.1662 Q222.42416,143.93542,187.89455,143.11032 Q153.36491,142.28522,133.06311,143.07962 Q112.761284,143.87402,87.6337,144.00763 Q62.50611,144.14124,98.186844,143.21101 Q133.86757,142.28079,117.925896,141.8289 Q101.98422,141.37701,155.62888,142.30434 Q209.27354,143.23167,184.94063,143.62308 Q160.60771,144.01448,161.53781,143.70828 Q162.46791,143.4021,120.34855,142.99739 M216.80241,143.29701 Q216.80241,143.29701,129.98604,143.68399 Q43.169666,144.07097,61.207188,144.0905 Q79.24471,144.11005,133.43927,143.94302 Q187.63382,143.77602,137.76178,144.559 Q87.88974,145.34198,109.55773,145.09236 Q131.22572,144.84273,138.62756,144.12137 Q146.02942,143.4,132.45947,144.11278 Q118.88952,144.82556,187.41472,145.44696 Q255.93993,146.06834,241.03633,145.23611 Q226.13275,144.4039,147.80225,144.28162 Q69.471756,144.15933,108.72123,145.51445 Q147.9707,146.86958,156.28189,144.68927 Q164.59306,142.50897,160.07278,143.43346 Q155.5525,144.35794,188.85042,145.09526 Q222.14832,145.8326,187.49292,145.02153 Q152.83752,144.21046,132.46536,144.99591 Q112.0932,145.78134,87.44055,145.89 Q62.787903,145.99864,97.421585,145.10077 Q132.05527,144.20288,117.231735,143.7786 Q102.4082,143.3543,155.38486,144.26372 Q208.36153,145.17314,185.373,145.52408 Q162.38449,145.87502,162.46738,145.57283 Q162.55026,145.27063,120.38934,144.90118 M217.36807,145.25282 Q217.36807,145.25282,130.62755,145.63036 Q43.88701,146.00789,61.69143,146.02856 Q79.49585,146.04924,133.40694,145.88664 Q187.31804,145.72404,137.3037,146.48912 Q87.289345,147.2542,110.07766,146.99635 Q132.86597,146.73851,138.81438,146.03955 Q144.76277,145.34059,132.39159,146.05127 Q120.02041,146.76195,188.23958,147.36188 Q256.45874,147.96182,241.41032,147.13092 Q226.3619,146.3,147.59882,146.20602 Q68.83574,146.11203,108.74662,147.41727 Q148.6575,148.7225,155.88765,146.60886 Q163.11778,144.4952,159.4776,145.40617 Q155.83742,146.31715,188.85495,147.02316 Q221.87247,147.72919,187.0913,146.93272 Q152.31012,146.13628,131.86761,146.91194 Q111.42511,147.6876,87.247406,147.77254 Q63.069695,147.85748,96.65633,146.99161 Q130.24295,146.12573,116.53757,145.72816 Q102.832184,145.3306,155.14084,146.22162 Q207.44951,147.11263,185.80537,147.42482 Q164.16125,147.73701,163.39693,147.4391 Q162.63261,147.14119,120.43014,146.80562 M217.93373,147.20898 Q217.93373,147.20898,131.26904,147.57697 Q44.60435,147.94493,62.175667,147.96664 Q79.74699,147.98836,133.37462,147.83022 Q187.00224,147.67206,136.8456,148.41891 Q86.68895,149.16579,110.59759,148.90067 Q134.50623,148.63553,139.00117,147.95892 Q143.49614,147.2823,132.32372,147.98972 Q121.15129,148.69713,189.06444,149.27582 Q256.97757,149.8545,241.7843,149.02632 Q226.59103,148.19814,147.39537,148.13094 Q68.19972,148.06375,108.77202,149.3197 Q149.3443,150.57567,155.49341,148.5285 Q161.64252,146.48135,158.88243,147.37799 Q156.12234,148.27464,188.85948,148.94992 Q221.59662,149.62521,186.68967,148.84393 Q151.78271,148.06264,131.26987,148.82773 Q110.75703,149.5928,87.05425,149.65527 Q63.35149,149.71774,95.89107,148.88353 Q128.43063,148.04933,115.84341,147.67763 Q103.256165,147.30592,154.89682,148.17802 Q206.53749,149.05013,186.23775,149.3253 Q165.93802,149.60048,164.32649,149.30711 Q162.71497,149.01376,120.47093,148.71066 M218.49939,149.16553 Q218.49939,149.16553,131.91054,149.52382 Q45.321697,149.88211,62.65991,149.90475 Q79.99812,149.9274,133.34229,149.77373 Q186.68646,149.62006,136.38751,150.34839 Q86.088554,151.07672,111.11751,150.80527 Q136.14647,150.53381,139.18799,149.87947 Q142.2295,149.22511,132.25584,149.92813 Q122.28217,150.63115,189.88928,151.18877 Q257.4964,151.7464,242.1583,150.92233 Q226.82018,150.09828,147.19194,150.05638 Q67.563705,150.01448,108.79741,151.22177 Q150.0311,152.42906,155.09917,150.44824 Q160.16724,148.46742,158.28725,149.3489 Q156.40726,150.2304,188.86401,150.87553 Q221.32077,151.52069,186.28804,150.75511 Q151.25531,149.98955,130.67212,150.74326 Q110.088936,151.49695,86.86111,151.5382 Q63.63328,151.57944,95.1258,150.77655 Q126.618324,149.97368,115.14924,149.62697 Q103.68015,149.28026,154.6528,150.13295 Q205.62547,150.98564,186.67012,151.22551 Q167.71478,151.46538,165.25606,151.17686 Q162.79733,150.88835,120.511734,150.61632 M219.06505,151.12244 Q219.06505,151.12244,132.55205,151.47093 Q46.03904,151.81943,63.14415,151.8429 Q80.24926,151.86638,133.30997,151.71721 Q186.37067,151.56804,135.92941,152.27753 Q85.48816,152.98703,111.637436,152.71019 Q137.78671,152.43333,139.37479,151.80118 Q140.96288,151.16904,132.18797,151.8665 Q123.413055,152.56398,190.71414,153.10074 Q258.01523,153.63748,242.53227,152.81895 Q227.04932,152.00043,146.98851,151.98233 Q66.9277,151.96423,108.8228,153.12346 Q150.7179,154.28268,154.70493,152.36806 Q158.69196,150.45343,157.69208,151.31892 Q156.69218,152.18442,188.86855,152.8 Q221.0449,153.41559,185.88641,152.6663 Q150.7279,151.91702,130.07437,152.65852 Q109.42085,153.40002,86.66796,153.4213 Q63.915073,153.44255,94.36054,152.67067 Q124.806015,151.89877,114.45508,151.5762 Q104.10413,151.25363,154.40878,152.0864 Q204.71344,152.91916,187.1025,153.12546 Q169.49156,153.33176,166.18562,153.04836 Q162.87968,152.76495,120.55253,152.52261 M219.6307,153.07971 Q219.6307,153.07971,133.19354,153.41829 Q46.756382,153.75687,63.628387,153.78107 Q80.5004,153.80527,133.27763,153.66063 Q186.05487,153.516,135.47131,154.20634 Q84.887764,154.8967,112.15736,154.6154 Q139.42696,154.3341,139.5616,153.72408 Q139.69624,153.11404,132.12009,153.80484 Q124.54394,154.49564,191.539,155.0117 Q258.53406,155.52777,242.90627,154.71617 Q227.27846,153.90459,146.78506,153.90878 Q66.29168,153.913,108.84819,155.02478 Q151.4047,156.13655,154.3107,154.28796 Q157.21669,152.43936,157.0969,153.28804 Q156.9771,154.1367,188.87308,154.72331 Q220.76906,155.30992,185.48479,154.57748 Q150.2005,153.84506,129.47664,154.57355 Q108.75276,155.30205,86.474815,155.30458 Q64.19687,155.3071,93.59528,154.56586 Q122.993706,153.82463,113.76091,153.52533 Q104.528114,153.22603,154.16476,154.03836 Q203.80142,154.8507,187.53488,155.02513 Q171.26833,155.19958,167.11517,154.92157 Q162.96204,154.64357,120.59332,154.42952 M220.19637,155.03735 Q220.19637,155.03735,133.83505,155.3659 Q47.47373,155.69444,64.11263,155.71927 Q80.75153,155.74408,133.24532,155.60402 Q185.73909,155.46394,135.01323,156.13484 Q84.28737,156.80573,112.677284,156.52094 Q141.0672,156.23613,139.7484,155.64816 Q138.42961,155.06018,132.05222,155.74313 Q125.67483,156.4261,192.36386,156.92169 Q259.0529,157.41727,243.28024,156.61401 Q227.5076,155.81076,146.58163,155.83577 Q65.65566,155.86078,108.87358,156.92572 Q152.09149,157.99065,153.91646,156.20793 Q155.74141,154.42523,156.50172,155.25626 Q157.26202,156.08727,188.87762,156.64548 Q220.49321,157.20369,185.08316,156.48868 Q149.6731,155.77365,128.87889,156.48833 Q108.08467,157.20302,86.28167,157.18805 Q64.47866,157.17307,92.830025,156.46214 Q121.1814,155.75122,113.06675,155.47432 Q104.952095,155.19743,153.92075,155.98883 Q202.8894,156.78023,187.96725,156.92455 Q173.04509,157.06886,168.04474,156.79652 Q163.04439,156.5242,120.63412,156.33705 M220.76202,156.99536 Q220.76202,156.99536,134.47655,157.31377 Q48.19107,157.63216,64.59687,157.65749 Q81.00267,157.68283,133.21298,157.54735 Q185.4233,157.41188,134.55513,158.063 Q83.68697,158.71413,113.19721,158.42677 Q142.70744,158.1394,139.93521,157.57341 Q137.16296,157.0074,131.98434,157.6814 Q126.80571,158.3554,193.1887,158.83069 Q259.57172,159.30597,243.65422,158.51245 Q227.73674,157.71893,146.37819,157.76326 Q65.019646,157.80759,108.89897,158.82628 Q152.7783,159.84497,153.52222,158.12799 Q154.26614,156.41103,155.90654,157.22356 Q157.54694,158.0361,188.88216,158.5665 Q220.21736,159.09691,184.68153,158.39984 Q149.14569,157.70279,128.28114,158.40285 Q107.41659,159.10292,86.088524,159.0717 Q64.76045,159.04047,92.064766,158.35951 Q119.36908,157.67856,112.37258,157.42322 Q105.37608,157.16788,153.67673,157.93782 Q201.97739,158.70778,188.39963,158.82368 Q174.82185,158.93959,168.9743,158.67322 Q163.12675,158.40685,120.67491,158.2452 M221.32768,158.95374 Q221.32768,158.95374,135.11804,159.26187 Q48.908413,159.56999,65.08111,159.59575 Q81.25381,159.62149,133.18065,159.49065 Q185.1075,159.35979,134.09705,159.99084 Q83.08658,160.62189,113.71713,160.3329 Q144.34769,160.04393,140.12201,159.49983 Q135.89633,158.95573,131.91646,159.61963 Q127.93659,160.28351,194.01357,160.7387 Q260.09055,161.19388,244.02821,160.4115 Q227.96588,159.62914,146.17476,159.69127 Q64.38364,159.7534,108.92436,160.72647 Q153.4651,161.69954,153.12798,160.04814 Q152.79086,158.39674,155.31136,159.18997 Q157.83186,159.9832,188.88669,160.48637 Q219.94151,160.98955,184.2799,160.31102 Q148.61829,159.63249,127.683395,160.31712 Q106.7485,161.00177,85.89537,160.95554 Q65.042244,160.9093,91.29951,160.25798 Q117.55677,159.60666,111.67842,159.372 Q105.800064,159.13733,153.43271,159.88535 Q201.06537,160.63335,188.832,160.72256 Q176.59862,160.8118,169.90387,160.55165 Q163.2091,160.2915,120.715706,160.15396 M221.89334,160.91248 Q221.89334,160.91248,135.75955,161.21022 Q49.62576,161.50797,65.56535,161.53403 Q81.504944,161.56007,133.14833,161.43388 Q184.79172,161.3077,133.63895,161.91835 Q82.48618,162.529,114.23706,162.23935 Q145.98793,161.9497,140.30882,161.42744 Q134.6297,160.90517,131.84859,161.5578 Q129.06747,162.21043,194.83842,162.6457 Q260.60938,163.081,244.40219,162.31116 Q228.19502,161.54134,145.97133,161.61978 Q63.74762,161.69824,108.94976,162.62628 Q154.1519,163.55434,152.73373,161.96835 Q151.31558,160.38239,154.71619,161.15547 Q158.11679,161.92857,188.89122,162.40509 Q219.66565,162.88162,183.87828,162.22218 Q148.0909,161.56274,127.085655,162.23116 Q106.080414,162.89955,85.702225,162.83955 Q65.324036,162.77956,90.53425,162.15753 Q115.74446,161.53549,110.98425,161.32065 Q106.224045,161.1058,153.1887,161.83136 Q200.15335,162.55693,189.26437,162.62119 Q178.3754,162.68544,170.83342,162.43181 Q163.29146,162.17818,120.75651,162.06335 M222.459,162.87158 Q222.459,162.87158,136.40105,163.15883 Q50.3431,163.44608,66.04959,163.47234 Q81.75608,163.4986,133.116,163.37709 Q184.47592,163.25557,133.18086,163.84554 Q81.885796,164.43549,114.75698,164.1461 Q147.62817,163.85672,140.49562,163.35622 Q133.36307,162.85571,131.78072,163.49596 Q130.19836,164.13618,195.66328,164.55174 Q261.1282,164.9673,244.77618,164.21143 Q228.42416,163.45555,145.76788,163.54883 Q63.111603,163.6421,108.97515,164.52573 Q154.8387,165.40936,152.33951,163.88866 Q149.84032,162.36795,154.121,163.12007 Q158.4017,163.87221,188.89575,164.32266 Q219.3898,164.77313,183.47665,164.13335 Q147.56349,163.49356,126.48791,164.14491 Q105.41232,164.79628,85.50908,164.72375 Q65.605835,164.65125,89.76899,164.05817 Q113.93215,163.46509,110.29009,163.2692 Q106.64803,163.0733,152.94469,163.77591 Q199.24133,164.47852,189.69675,164.51953 Q180.15216,164.56055,171.76299,164.3137 Q163.37381,164.06688,120.7973,163.97337 M223.02466,164.83105 Q223.02466,164.83105,137.04256,165.10768 Q51.060444,165.38431,66.53383,165.41066 Q82.00722,165.43703,133.08368,165.32024 Q184.16014,165.20345,132.72276,165.77238 Q81.2854,166.34134,115.27691,166.05316 Q149.26842,165.765,140.68243,165.28618 Q132.09644,164.80736,131.71284,165.43405 Q131.32924,166.06076,196.48813,166.45679 Q261.64703,166.85281,245.15016,166.11229 Q228.6533,165.37178,145.56445,165.47838 Q62.47559,165.58498,109.00054,166.42479 Q155.5255,167.26462,151.94527,165.80904 Q148.36504,164.35345,153.52583,165.08379 Q158.68663,165.8141,188.90028,166.23909 Q219.11395,166.66408,183.07501,166.04451 Q147.03609,165.42493,125.89016,166.05844 Q104.74424,166.69194,85.31593,166.60815 Q65.88763,166.52435,89.00373,165.95988 Q112.119835,165.39543,109.595924,165.21764 Q107.072014,165.03983,152.70067,165.71898 Q198.32932,166.39812,190.12912,166.41762 Q181.92892,166.4371,172.69255,166.19734 Q163.45616,165.95758,120.8381,165.884 M223.59032,166.7909 Q223.59032,166.7909,137.68405,167.05678 Q51.77779,167.32266,67.018074,167.34903 Q82.258354,167.37538,133.05135,167.26334 Q183.84435,167.15129,132.26468,167.69891 Q80.685005,168.24654,115.79684,167.96053 Q150.90866,167.67451,140.86923,167.21732 Q130.8298,166.7601,131.64496,167.37213 Q132.46013,167.98415,197.31299,168.36084 Q262.16586,168.73753,245.52415,168.01378 Q228.88245,167.29001,145.36101,167.40843 Q61.839573,167.52687,109.02593,168.32349 Q156.2123,169.12012,151.55103,167.72949 Q146.88976,166.33888,152.93065,167.04659 Q158.97154,167.75427,188.90482,168.15437 Q218.8381,168.55447,182.67339,167.95566 Q146.50868,167.35686,125.29242,167.97171 Q104.07615,168.58656,85.12279,168.49272 Q66.16942,168.3989,88.23847,167.8627 Q110.307526,167.32652,108.901764,167.16594 Q107.495995,167.00537,152.45665,167.66055 Q197.41728,168.31572,190.5615,168.31543 Q183.70569,168.31512,173.62212,168.08272 Q163.53853,167.8503,120.87889,167.79526 M224.15598,168.7511 Q224.15598,168.7511,138.32555,169.00613 Q52.495132,169.26117,67.50231,169.28741 Q82.50949,169.31367,133.01903,169.2064 Q183.52855,169.09914,131.80658,169.62512 Q80.08461,170.15111,116.31676,169.8682 Q152.5489,169.58528,141.05603,169.14963 Q129.56316,168.71396,131.57709,169.31017 Q133.59102,169.90636,198.13785,170.26392 Q262.6847,170.62146,245.89813,169.91586 Q229.11159,169.21025,145.15758,169.33902 Q61.20356,169.46777,109.05132,170.2218 Q156.8991,170.97585,151.15678,169.65004 Q145.41449,168.32423,152.33548,169.00848 Q159.25647,169.69272,188.90936,170.0685 Q218.56226,170.44429,182.27176,169.8668 Q145.98128,169.28934,124.69467,169.88472 Q103.408066,170.4801,84.929634,170.37749 Q66.45121,170.27486,87.47321,169.7666 Q108.49522,169.25835,108.207596,169.11415 Q107.919975,168.96994,152.21263,169.60065 Q196.50526,170.23135,190.99387,170.21298 Q185.48247,170.19461,174.55167,169.96982 Q163.62088,169.74504,120.919685,169.70714 M224.72163,170.71167 Q224.72163,170.71167,138.96706,170.95573 Q53.212475,171.1998,67.98655,171.22583 Q82.76063,171.25188,132.9867,171.14941 Q183.21277,171.04695,131.3485,171.551 Q79.484215,172.05505,116.836685,171.77618 Q154.18916,171.4973,141.24284,171.08311 Q128.29652,170.66891,131.50922,171.24815 Q134.7219,171.82738,198.9627,172.16599 Q263.2035,172.5046,246.27213,171.81856 Q229.34073,171.13252,144.95415,171.27011 Q60.567547,171.4077,109.07671,172.11975 Q157.58589,172.8318,150.76254,171.57066 Q143.93921,170.30952,151.7403,170.96947 Q159.54138,171.62943,188.9139,171.98149 Q218.2864,172.33354,181.87013,171.77795 Q145.45387,171.22237,124.096924,171.79749 Q102.739975,172.37259,84.73649,172.26242 Q66.733,172.15225,86.707954,171.6716 Q106.68291,171.19095,107.513435,171.06224 Q108.34396,170.93353,151.96861,171.53926 Q195.59325,172.14497,191.42624,172.11026 Q187.25923,172.07553,175.48123,171.85866 Q163.70323,171.64178,120.96049,171.61963 M225.2873,172.6726 Q225.2873,172.6726,139.60855,172.90558 Q53.92982,173.13855,68.470795,173.16428 Q83.011765,173.19,132.95438,173.09238 Q182.89697,172.99475,130.8904,173.47655 Q78.88382,173.95834,117.356606,173.68446 Q155.8294,173.41057,141.42964,173.01778 Q127.02989,172.62498,131.44135,173.18611 Q135.85278,173.74722,199.78755,174.06708 Q263.72232,174.38692,246.6461,173.72186 Q229.56989,173.0568,144.7507,173.20172 Q59.93153,173.34665,109.102104,174.01732 Q158.27269,174.688,150.36832,173.49136 Q142.46394,172.29474,151.14513,172.92957 Q159.82631,173.5644,188.91843,173.89331 Q218.01054,174.22223,181.4685,173.6891 Q144.92647,173.15598,123.49918,173.70999 Q102.07189,174.26402,84.54334,174.14755 Q67.01479,174.03108,85.942696,173.57768 Q104.87059,173.12428,106.81927,173.01021 Q108.767944,172.89615,151.7246,173.47638 Q194.68123,174.05663,191.85861,174.00728 Q189.036,173.95793,176.4108,173.74924 Q163.78558,173.54056,121.00128,173.53275 M225.85295,174.63391 Q225.85295,174.63391,140.25006,174.85568 Q54.647163,175.07745,68.95503,175.10275 Q83.2629,175.12807,132.92204,175.03531 Q182.58119,174.94255,130.43231,175.40178 Q78.283424,175.86101,117.87653,175.59305 Q157.46965,175.32509,141.61646,174.95361 Q125.76326,174.58215,131.37346,175.12402 Q136.98367,175.6659,200.61241,175.96718 Q264.24115,176.26846,247.0201,175.62576 Q229.79903,174.98306,144.54727,175.13383 Q59.295517,175.2846,109.127495,175.91452 Q158.95949,176.54442,149.97408,175.41214 Q140.98866,174.27988,150.54994,174.88876 Q160.11122,175.49765,188.92296,175.804 Q217.7347,176.11035,181.06688,175.60023 Q144.39906,175.09012,122.901436,175.62225 Q101.4038,176.1544,84.3502,176.03287 Q67.29659,175.91133,85.17744,175.48485 Q103.05828,175.05836,106.12511,174.95807 Q109.191925,174.85779,151.48058,175.41203 Q193.76921,175.96628,192.29099,175.90402 Q190.81276,175.84177,177.34035,175.64156 Q163.86795,175.44135,121.042076,175.44649 M226.41861,176.59558 Q226.41861,176.59558,140.89156,176.80603 Q55.364506,177.01646,69.43927,177.04126 Q83.51404,177.06604,132.88971,176.97818 Q182.2654,176.89032,129.97421,177.32668 Q77.68303,177.76303,118.39646,177.50194 Q159.1099,177.24086,141.80325,176.89064 Q124.49663,176.54042,131.30559,177.0619 Q138.11455,177.58337,201.43727,177.86629 Q264.75998,178.1492,247.39407,177.53027 Q230.02817,176.91136,144.34383,177.06648 Q58.6595,177.22159,109.15289,177.81134 Q159.64629,178.40108,149.57983,177.33301 Q139.51338,176.26494,149.95477,176.84705 Q160.39615,177.42917,188.92749,177.71355 Q217.45885,177.99791,180.66525,177.51137 Q143.87167,177.02483,122.30369,177.53427 Q100.73571,178.04372,84.15705,177.91837 Q67.578384,177.79301,84.41218,177.39311 Q101.24597,176.9932,105.43094,176.90582 Q109.61591,176.81844,151.23656,177.34619 Q192.8572,177.87395,192.72336,177.8005 Q192.58954,177.72707,178.26991,177.5356 Q163.9503,177.34413,121.08287,177.36086 M226.98427,178.55762 Q226.98427,178.55762,141.53305,178.75662 Q56.081852,178.95563,69.923515,178.97978 Q83.765175,179.00394,132.85739,178.921 Q181.9496,178.83807,129.51611,179.25125 Q77.082634,179.66443,118.91638,179.41115 Q160.75014,179.15787,141.99007,178.82883 Q123.22999,178.4998,131.23772,178.99974 Q139.24544,179.49968,202.26213,179.76442 Q265.2788,180.02914,247.76807,179.43541 Q230.25731,178.84166,144.1404,178.99963 Q58.023487,179.1576,109.17828,179.70778 Q160.33308,180.25798,149.1856,179.25395 Q138.03812,178.24992,149.35959,178.80444 Q160.68106,179.35895,188.93202,179.62193 Q217.183,179.8849,180.26363,179.4225 Q143.34427,178.9601,121.70595,179.44603 Q100.06763,179.93196,83.9639,179.80405 Q67.860176,179.67612,83.64692,179.30244 Q99.433655,178.92879,104.73678,178.85345 Q110.039894,178.77812,150.99254,179.27887 Q191.94518,179.77962,193.15573,179.69673 Q194.3663,179.61383,179.19948,179.43138 Q164.03265,179.24895,121.123665,179.27583 M227.54993,180.52002 Q227.54993,180.52002,142.17456,180.70746 Q56.799194,180.89491,70.40775,180.91833 Q84.01631,180.94177,132.82506,180.86378 Q181.63382,180.78581,129.05803,181.17549 Q76.48224,181.56517,119.43631,181.32065 Q162.39038,181.07613,142.17686,180.7682 Q121.963356,180.46028,131.16983,180.93755 Q140.37631,181.41481,203.08698,181.66154 Q265.79764,181.9083,248.14204,181.34114 Q230.48645,180.77397,143.93695,180.93329 Q57.38747,181.0926,109.203674,181.60385 Q161.01988,182.11511,148.79135,181.17497 Q136.56284,180.23485,148.7644,180.76093 Q160.96599,181.287,188.93657,181.52917 Q216.90715,181.77133,179.862,181.33362 Q142.81686,180.89592,121.1082,181.35754 Q99.399536,181.81917,83.77075,181.68991 Q68.14197,181.56065,82.88166,181.21289 Q97.621346,180.86511,104.04261,180.80096 Q110.463875,180.73682,150.74852,181.21007 Q191.03316,181.68332,193.5881,181.59268 Q196.14307,181.50204,180.12904,181.3289 Q164.115,181.15578,121.16447,181.19144 M228.11559,182.48279 Q228.11559,182.48279,142.81606,182.65855 Q57.516537,182.83434,70.89199,182.85692 Q84.26745,182.87952,132.79274,182.80652 Q181.31802,182.73354,128.59993,183.09941 Q75.88184,183.46529,119.95624,183.23047 Q164.03062,182.99565,142.36368,182.70876 Q120.696724,182.42186,131.10196,182.8753 Q141.5072,183.32875,203.91183,183.5577 Q266.31647,183.78665,248.51602,183.24747 Q230.71559,182.7083,143.73352,182.86748 Q56.751457,183.02664,109.229065,183.49956 Q161.70668,183.97247,148.39713,183.09608 Q135.08755,182.2197,148.16924,182.7165 Q161.2509,183.21332,188.9411,183.43526 Q216.63129,183.6572,179.46037,183.24475 Q142.28946,182.83229,120.51045,183.2688 Q98.73145,183.7053,83.57761,183.57596 Q68.42376,183.44661,82.1164,183.1244 Q95.80904,182.8022,103.34845,182.74837 Q110.887856,182.69453,150.5045,183.13977 Q190.12112,183.585,194.02048,183.48836 Q197.91983,183.39171,181.0586,183.22816 Q164.19736,183.06462,121.20526,183.10767 M228.68124,184.44592 Q228.68124,184.44592,143.45757,184.6099 Q58.233883,184.77388,71.376236,184.79553 Q84.518585,184.81718,132.7604,184.74922 Q181.00224,184.68124,128.14185,185.02301 Q75.28145,185.36476,120.47616,185.14058 Q165.67087,184.91641,142.55048,184.65048 Q119.430084,184.38455,131.03409,184.81303 Q142.63809,185.24152,204.7367,185.45287 Q266.8353,185.6642,248.89001,185.15442 Q230.94473,184.64464,143.53009,184.80217 Q56.11544,184.9597,109.254456,185.39488 Q162.39348,185.83006,148.00288,185.01727 Q133.61229,184.20448,147.57405,184.67119 Q161.53583,185.13791,188.94563,185.34021 Q216.35544,185.5425,179.05875,185.15587 Q141.76205,184.76923,119.91271,185.1798 Q98.06336,185.59038,83.38446,185.46219 Q68.70555,185.334,81.351135,185.03702 Q93.99673,184.74002,102.65428,184.69566 Q111.311844,184.65129,150.26048,185.06801 Q189.2091,185.48473,194.45285,185.38377 Q199.6966,185.28284,181.98816,185.12915 Q164.27972,184.97548,121.246056,185.0245 M229.24689,186.40942 Q229.24689,186.40942,144.09906,186.5615 Q58.951225,186.71356,71.86047,186.73418 Q84.76972,186.75479,132.72809,186.69186 Q180.68645,186.62894,127.683754,186.94627 Q74.68105,187.26361,120.996086,187.05101 Q167.31111,186.83842,142.73729,186.59338 Q118.16345,186.34834,130.96622,186.75072 Q143.76897,187.15309,205.56155,187.34703 Q267.35413,187.54097,249.26399,187.06198 Q231.17387,186.58298,143.32664,186.73738 Q55.479427,186.89177,109.27985,187.28983 Q163.08028,187.68788,147.60864,186.93854 Q132.13701,186.18918,146.97888,186.62497 Q161.82074,187.06076,188.95016,187.244 Q216.07959,187.42723,178.65712,187.06697 Q141.23465,186.70671,119.314964,187.09056 Q97.39528,187.4744,83.191315,187.3486 Q68.98734,187.22282,80.58588,186.95071 Q92.18441,186.6786,101.96012,186.64284 Q111.735825,186.60706,150.01646,186.99475 Q188.29709,187.38245,194.88522,187.27893 Q201.47337,187.17542,182.91772,187.03189 Q164.36208,186.88835,121.28685,186.94197 M229.81255,188.37329 Q229.81255,188.37329,144.74055,188.51334 Q59.668568,188.65338,72.34471,188.67284 Q85.02086,188.6923,132.69576,188.63446 Q180.37065,188.57661,127.225655,188.86922 Q74.08066,189.1618,121.51601,188.96175 Q168.95135,188.76169,142.92409,188.53746 Q116.89682,188.31325,130.89833,188.68837 Q144.89986,189.0635,206.3864,189.24022 Q267.87296,189.41693,249.63799,188.97014 Q231.40302,188.52335,143.12321,188.6731 Q54.84341,188.82286,109.30524,189.1844 Q163.76707,189.54594,147.2144,188.85988 Q130.66174,188.17381,146.3837,188.57785 Q162.10567,188.98189,188.9547,189.14665 Q215.80374,189.3114,178.2555,188.97809 Q140.70724,188.64476,118.71722,189.00105 Q96.72719,189.35736,82.99816,189.23521 Q69.26914,189.11307,79.82062,188.86551 Q90.3721,188.61794,101.26595,188.58989 Q112.159805,188.56184,149.77245,188.92001 Q187.38507,189.27818,195.31761,189.17381 Q203.25014,189.06946,183.84729,188.93634 Q164.44443,188.80324,121.327644,188.86006 M230.3782,190.33752 Q230.3782,190.33752,145.38206,190.46542 Q60.385914,190.59332,72.82896,190.61154 Q85.271996,190.62975,132.66344,190.57701 Q180.05487,190.52428,126.76756,190.79182 Q73.48026,191.05937,122.035934,190.87279 Q170.5916,190.68619,143.1109,190.48271 Q115.63018,190.27924,130.83046,190.62598 Q146.03073,190.97272,207.21126,191.13242 Q268.39178,191.2921,250.01196,190.8789 Q231.63216,190.46571,142.91977,190.60933 Q54.207397,190.75296,109.330635,191.0786 Q164.45387,191.40424,146.82016,190.78131 Q129.18646,190.15837,145.78853,190.52983 Q162.39058,190.90129,188.95923,191.04816 Q215.5279,191.195,177.85387,190.88919 Q140.17984,190.58336,118.11948,190.91132 Q96.059105,191.23926,82.805016,191.122 Q69.550934,191.00475,79.05536,190.78137 Q88.55979,190.55801,100.57179,190.53683 Q112.58379,190.51566,149.52843,190.8438 Q186.47305,191.17192,195.74998,191.06844 Q205.0269,190.96495,184.77684,190.84254 Q164.52678,190.72014,121.36845,190.77876" fill="none" stroke="black" stroke-width="0.35" style="mix-blend-mode: multiply;"/>
</g>
</svg>