<svg xmlns="http://www.w3.org/2000/svg" width="24" height="24" viewBox="0 0 24 24"><path d="M6 2l1.171.203c-.355 2.245.791 2.519 2.699 2.874 1.468.273 3.13.622 3.13 3.284v.639h-1.183v-.639c0-1.556-.48-1.809-2.164-2.122-2.583-.48-4.096-1.391-3.653-4.239zm18 14c0 3.312-2.607 6-5.825 6-1.511 0-2.886-.595-3.921-1.565-1.311-1.229-3.278-1.132-4.55.038-1.03.948-2.389 1.527-3.879 1.527-3.217 0-5.825-2.688-5.825-6s2.608-6 5.825-6l12.563.007c3.118.116 5.612 2.755 5.612 5.993zm-15-1h-2v-2h-2v2h-2v2h2v2h2v-2h2v-2zm4 1h-2v1h2v-1zm4-2c0 .552.447 1 1 1s1-.448 1-1-.447-1-1-1-1 .448-1 1zm0 2c0-.552-.447-1-1-1s-1 .448-1 1 .447 1 1 1 1-.448 1-1zm2 2c0-.552-.447-1-1-1s-1 .448-1 1 .447 1 1 1 1-.448 1-1zm2-2c0-.552-.447-1-1-1s-1 .448-1 1 .447 1 1 1 1-.448 1-1z"/></svg>