<?xml version="1.0" encoding="UTF-8" standalone="no"?>
<svg
   width="32"
   height="32"
   viewBox="0 0 32 32"
   version="1.1"
   xmlns="http://www.w3.org/2000/svg"
   xmlns:svg="http://www.w3.org/2000/svg">
    <path
       style="fill:#472a91;stroke-width:1.57193"
       d="M 3.831293,17.428325 C 2.122051,11.595212 0.72693597,6.7291053 0.73103697,6.6147313 0.73513697,6.5002943 2.23095,6.4067803 4.055064,6.4067803 h 3.316571 l 0.307897,1.178399 c 1.021883,3.9109847 2.249578,8.3819087 2.321368,8.4536987 0.04606,0.04606 0.558854,-1.696729 1.139416,-3.872991 0.580546,-2.1762627 1.166107,-4.3623497 1.30123,-4.8579807 l 0.245693,-0.901126 h 3.002361 3.002376 l 0.879858,3.257941 c 0.48392,1.7918617 1.096251,4.0065737 1.360713,4.9215647 l 0.480854,1.663624 1.202105,-4.611659 c 0.661139,-2.5364077 1.290761,-4.7551277 1.39913,-4.9304767 0.135343,-0.218861 1.236781,-0.294298 3.513286,-0.2406 l 3.316244,0.07828 -2.690866,9.1499697 c -1.479975,5.032465 -2.895014,9.867401 -3.144511,10.744273 l -0.453644,1.594301 h -2.992049 -2.992064 l -1.346691,-4.852243 c -0.740679,-2.668749 -1.415337,-4.850718 -1.499247,-4.848831 -0.08394,0.0016 -0.759715,2.185411 -1.501762,4.852258 l -1.349205,4.848816 H 9.906569 6.939007 Z" />
</svg>
