<svg height="100mm" style="background:white" viewBox="0 0 100 100" width="100mm" xmlns="http://www.w3.org/2000/svg" xmlns:inkscape="http://www.inkscape.org/namespaces/inkscape">
<g inkscape:groupmode="layer" inkscape:label="black">
<path d="M37.76611,51.157795 L39.526558,49.777203 L40.90715,51.53765 L39.146706,52.918243 L37.76611,51.157795 M39.1485,55.270332 L35.344753,50.977707 L39.63738,47.173958 L43.441128,51.466587 L39.1485,55.270332 M43.965813,55.35496 L42.46917,54.845192 L42.978943,53.34855 L44.475586,53.858322 L43.965813,55.35496 M32.817852,52.883705 L34.092754,51.324825 L35.651634,52.599728 L34.376728,54.158607 L32.817852,52.883705 M40.368683,44.759262 L41.709522,45.750793 L40.71799,47.09163 L39.377155,46.1001 L40.368683,44.759262 M41.963356,48.400455 L41.49964,47.745937 L42.154156,47.282223 L42.617874,47.93674 L41.963356,48.400455 M41.28974,55.79774 L40.68437,55.416176 L41.065933,54.810806 L41.671303,55.192368 L41.28974,55.79774 M35.73721,54.10733 L36.008217,53.539665 L36.575882,53.810673 L36.304874,54.378338 L35.73721,54.10733 M37.68533,47.14063 L38.104267,46.795975 L38.44892,47.214912 L38.029984,47.559566 L37.68533,47.14063 M44.700504,55.783844 L45.152973,56.08312 L44.8537,56.535587 L44.40123,56.236313 L44.700504,55.783844 M42.946045,55.79395 L42.793743,56.31462 L42.27307,56.16232 L42.425373,55.641647 L42.946045,55.79395 M29.993734,54.381252 L41.53987,41.571033 L46.860775,57.975388 L29.993734,54.381252 M47.82597,60.30959 L47.454872,60.115486 L47.64897,59.74439 L48.02007,59.93849 L47.82597,60.30959 M47.93576,57.603214 L50.114662,61.28298 L45.83844,61.330086 L47.93576,57.603214 M35.32221,60.19923 L37.798607,57.739395 L38.69069,61.11394 L35.32221,60.19923 M33.51352,56.44786 L31.64442,59.395714 L30.026056,56.303097 L33.51352,56.44786 M48.31371,49.21723 L48.917305,51.752575 L46.419838,51.007633 L48.31371,49.21723 M53.057587,62.77718 L50.163506,62.577538 L51.783443,60.171013 L53.057587,62.77718 M41.11797,60.874084 L40.1022,57.8441 L43.234127,58.479412 L41.11797,60.874084 M50.123535,58.332542 L48.158993,56.773575 L50.49137,55.851715 L50.123535,58.332542 M46.182877,45.726093 L44.389328,47.75026 L43.53312,45.184917 L46.182877,45.726093 M27.064472,59.37699 L28.680836,57.087337 L29.855555,59.631977 L27.064472,59.37699 M49.241558,53.15163 L47.156857,55.02491 L46.5769,52.282867 L49.241558,53.15163 M34.316288,56.629364 L36.600525,57.664776 L34.561718,59.12528 L34.316288,56.629364 M43.245476,39.533863 L43.58924,39.76915 L43.353954,40.11291 L43.010193,39.87763 L43.245476,39.533863 M45.39481,41.39852 L41.168877,40.742935 L43.849598,37.41096 L45.39481,41.39852 M43.80127,59.196564 L45.060574,61.478325 L42.454857,61.428032 L43.80127,59.196564 M46.987698,49.26288 L45.496086,50.897907 L44.825912,48.78862 L46.987698,49.26288 M45.444225,47.814472 L47.0615,46.02812 L47.799892,48.3219 L45.444225,47.814472 M45.609272,42.60302 L45.864517,44.603493 L44.004433,43.824303 L45.609272,42.60302 M52.354008,59.223503 L50.747665,58.986824 L51.755806,57.71403 L52.354008,59.223503 M33.099026,58.572243 L33.929234,60.19207 L32.111317,60.101135 L33.099026,58.572243 M55.27265,64.592514 L24.529087,59.830544 L44.024853,35.58682 L55.27265,64.592514 M46.02245,71.26523 L45.503994,70.80679 L45.96243,70.28834 L46.480885,70.74677 L46.02245,71.26523 M48.607162,72.147064 L43.70327,72.71528 L45.66313,68.18427 L48.607162,72.147064 M48.736813,73.681274 L49.11288,72.87146 L49.626163,73.60205 L48.736813,73.681274 M45.61311,66.207985 L51.083115,74.33918 L41.30629,75.01075 L45.61311,66.207985 M60.336933,54.712124 L60.686928,54.47944 L60.919613,54.82943 L60.569622,55.06212 L60.336933,54.712124 M59.585938,56.83995 L58.983433,52.53003 L63.017185,54.163208 L59.585938,56.83995 M59.40399,59.839596 L57.293434,51.09188 L65.92445,53.63794 L59.40399,59.839596 M55.287693,45.12217 L55.840263,44.884293 L56.078136,45.436863 L55.52557,45.674736 L55.287693,45.12217 M56.793682,42.9991 L57.19689,47.805378 L52.832928,45.751427 L56.793682,42.9991 M58.161545,49.375996 L50.86299,45.643517 L57.744694,41.189022 L58.161545,49.375996 M29.132626,46.389362 L28.979885,45.906208 L29.463037,45.753464 L29.61578,46.236618 L29.132626,46.389362 M28.036222,43.535988 L31.901731,45.995148 L27.839281,48.113197 L28.036222,43.535988 M26.313358,48.04653 L27.028585,48.506897 L26.272284,48.896122 L26.313358,48.04653 M25.777174,41.116005 L33.521015,46.006733 L25.4136,50.267735 L25.777174,41.116005 M51.203243,40.269703 L49.366222,37.686337 L52.52199,37.38711 L51.203243,40.269703 M51.144638,43.23991 L46.569775,37.225437 L54.06589,36.270725 L51.144638,43.23991 M33.519447,68.741234 L32.27506,66.59243 L34.75817,66.589165 L33.519447,68.741234 M35.583393,66.649 L36.22631,66.75534 L35.812756,67.25896 L35.583393,66.649 M33.496487,71.84637 L30.620495,65.031975 L37.95993,65.94849 L33.496487,71.84637 M53.595127,48.64298 L56.51434,50.36789 L53.560917,52.033546 L53.595127,48.64298 M61.064026,62.298717 L60.368618,61.818665 L61.132057,61.45645 L61.064026,62.298717 M62.012543,60.15574 L61.76517,63.698082 L58.8211,61.712677 L62.012543,60.15574 M34.473404,42.42907 L33.314537,40.799377 L35.305325,40.610615 L34.473404,42.42907 M30.756155,40.3044 L36.819763,39.516235 L34.47053,45.161556 L30.756155,40.3044 M26.594051,67.44794 L26.621065,66.77582 L27.189625,67.13527 L26.594051,67.44794 M25.75453,68.968575 L25.877697,65.25942 L29.028334,67.220665 L25.75453,68.968575 M58.444607,66.84434 L57.836548,67.71658 L57.385193,66.75386 L58.444607,66.84434 M57.75383,69.476 L55.725475,65.62546 L60.074318,65.79412 L57.75383,69.476 M39.607613,70.624535 L39.604977,67.71448 L42.126476,69.16723 L39.607613,70.624535 M53.86094,71.582855 L53.838234,70.8014 L54.526344,71.17246 L53.86094,71.582855 M52.96294,73.02266 L53.009743,69.31176 L56.200077,71.20774 L52.96294,73.02266 M26.919918,54.170208 L24.179197,55.55408 L24.351088,52.488613 L26.919918,54.170208 M38.459526,39.766575 L36.071323,37.138676 L39.541252,36.38438 L38.459526,39.766575 M54.165283,55.8053 L52.391796,53.29903 L55.449036,53.01628 L54.165283,55.8053 M41.28379,66.549255 L39.920338,63.798317 L42.984444,63.993004 L41.28379,66.549255 M64.52617,59.83232 L64.363594,57.890423 L66.12661,58.72058 L64.52617,59.83232 M60.00071,48.819725 L61.278152,45.67882 L63.35953,48.35557 L60.00071,48.819725 M50.58726,66.90467 L50.01128,67.365005 L49.90061,66.63602 L50.58726,66.90467 M48.844055,65.40534 L52.16288,66.66819 L49.409813,68.91096 L48.844055,65.40534 M38.33336,72.92394 L40.664406,72.239784 L40.09138,74.60061 L38.33336,72.92394 M50.96919,78.289536 L49.326748,75.887276 L52.228382,75.666016 L50.96919,78.289536 M49.667137,32.92 L51.585102,32.575325 L50.924618,34.40867 L49.667137,32.92 M30.302103,69.375145 L31.161871,70.56503 L29.701511,70.71467 L30.302103,69.375145 M57.199364,62.09436 L55.65519,60.658024 L57.67118,60.0389 L57.199364,62.09436 M56.602608,57.630646 L55.087578,59.730816 L54.02629,57.36868 L56.602608,57.630646 M28.75928,61.753212 L31.082026,62.46504 L29.30419,64.12068 L28.75928,61.753212 M26.147963,62.01583 L24.29097,63.01539 L24.353825,60.907406 L26.147963,62.01583 M50.60478,71.47293 L49.857002,70.20965 L51.32492,70.193695 L50.60478,71.47293 M38.531242,71.55032 L36.33392,72.1167 L36.942085,69.930565 L38.531242,71.55032 M54.7328,39.274487 L55.90675,37.92525 L56.488247,39.61654 L54.7328,39.274487 M27.837523,50.27568 L27.671957,52.05646 L26.212538,51.022686 L27.837523,50.27568 M26.61234,63.60416 L27.525991,62.455128 L28.06426,63.82089 L26.61234,63.60416 M55.035236,67.59457 L53.173798,68.17114 L53.60519,66.270805 L55.035236,67.59457 M66.551865,57.282944 L65.6228,56.362553 L66.884415,56.01815 L66.551865,57.282944 M27.274017,40.12191 L29.712214,39.249424 L29.248713,41.797207 L27.274017,40.12191 M47.750145,76.30697 L47.838585,77.77231 L46.525345,77.116234 L47.750145,76.30697 M28.252504,70.02836 L27.252056,69.46624 L28.239088,68.88089 L28.252504,70.02836 M46.160744,64.90844 L47.947548,64.83147 L47.120804,66.41737 L46.160744,64.90844 M46.19878,35.62116 L46.52309,34.68862 L47.168537,35.43575 L46.19878,35.62116 M52.964664,33.80075 L54.00349,35.25658 L52.223293,35.428318 L52.964664,33.80075 M62.868687,51.587563 L64.070885,50.48944 L64.420784,52.07963 L62.868687,51.587563 M48.979473,43.861687 L50.731693,44.219894 L49.545364,45.558258 L48.979473,43.861687 M55.826115,40.811317 L54.94028,41.54082 L54.75143,40.408916 L55.826115,40.811317 M56.789894,55.07741 L57.270264,56.29377 L55.97668,56.101604 L56.789894,55.07741 M49.12607,35.429882 L49.50396,34.34634 L50.25339,35.215374 L49.12607,35.429882 M36.180656,64.34488 L36.664696,63.88617 L36.81993,64.53471 L36.180656,64.34488 M51.656265,47.865242 L50.770798,48.302 L50.835293,47.316784 L51.656265,47.865242 M59.67308,44.442398 L60.11551,43.559753 L60.658688,44.384228 L59.67308,44.442398 M39.99862,66.62103 L39.02274,66.7709 L39.38089,65.85083 L39.99862,66.62103 M34.277966,72.8763 L34.94955,72.15257 L35.240524,73.09604 L34.277966,72.8763 M44.79266,64.58545 L44.133076,65.08448 L44.03069,64.26375 L44.79266,64.58545 M53.967186,74.322815 L53.489223,75.18674 L52.98003,74.34084 L53.967186,74.322815 M58.865784,64.019066 L58.95181,63.035496 L59.76059,63.60178 L58.865784,64.019066 M63.24031,61.493835 L63.225674,60.346382 L64.226715,60.907433 L63.24031,61.493835 M47.235134,33.94967 L48.041183,33.764282 L47.798706,34.555035 L47.235134,33.94967 M52.30362,49.934082 L51.353703,49.29025 L52.38624,48.78951 L52.30362,49.934082 M40.727184,36.472557 L41.710415,36.56237 L41.141018,37.368965 L40.727184,36.472557 M32.706017,63.95612 L33.152782,63.260067 L33.532196,63.995003 L32.706017,63.95612 M43.191525,68.53497 L42.474827,67.63875 L43.609325,67.46618 L43.191525,68.53497 M22.316349,69.86056 L23.37638,39.228374 L52.836887,30.77066 L69.98445,56.17569 L51.12172,80.33458 L22.316349,69.86056 M66.46412,39.18299 L65.76195,39.46175 L65.87163,38.71427 L66.46412,39.18299 M65.21711,37.11019 L68.05866,39.367306 L64.683174,40.699608 L65.21711,37.11019 M66.30924,41.62566 L65.90134,42.51864 L65.33195,41.71889 L66.30924,41.62566 M62.951817,40.54337 L63.53625,40.042095 L63.678146,40.798866 L62.951817,40.54337 M68.10786,37.736797 L67.64739,37.421295 L68.150856,37.18027 L68.10786,37.736797 M67.49868,41.61874 L67.9289,41.758324 L67.59291,42.061115 L67.49868,41.61874 M60.870777,40.915684 L63.09625,35.12405 L69.29212,35.450886 L70.89592,41.44451 L65.69124,44.821945 L60.870777,40.915684 M75.67454,52.486122 L73.989555,52.29465 L74.99786,50.93115 L75.67454,52.486122 M76.99512,53.65049 L72.17877,52.904472 L75.23302,49.106403 L76.99512,53.65049 M79.86159,54.215767 L79.31475,56.30267 L77.78086,54.78564 L79.86159,54.215767 M78.14136,51.029102 L78.48023,49.05148 L80.02347,50.333763 L78.14136,51.029102 M73.78291,56.655476 L74.42247,55.239502 L75.32896,56.50136 L73.78291,56.655476 M76.62477,54.80178 L76.192314,55.64771 L75.67595,54.850227 L76.62477,54.80178 M73.57691,54.667854 L73.10614,55.6631 L72.47962,54.75778 L73.57691,54.667854 M80.20026,51.786728 L80.223045,53.038403 L79.12766,52.432304 L80.20026,51.786728 M77.54256,56.39696 L78.074585,57.184074 L77.12691,57.251274 L77.54256,56.39696 M76.34796,48.783485 L76.99517,48.81991 L76.64002,49.362198 L76.34796,48.783485 M71.38925,52.01955 L71.16241,51.4123 L71.80172,51.519474 L71.38925,52.01955 M79.55286,59.016644 L71.30053,58.23737 L69.491554,50.148136 L76.62587,45.927986 L82.8441,51.409027 L79.55286,59.016644 M57.39135,24.028303 L59.05332,25.348444 L57.07906,26.127684 L57.39135,24.028303 M57.432514,27.547804 L57.15227,27.140484 L57.64514,27.101444 L57.432514,27.547804 M57.26228,29.725323 L53.955193,26.26956 L56.21987,22.056444 L60.92661,22.908358 L61.57085,27.647984 L57.26228,29.725323 M70.63244,65.47604 L69.20821,68.03954 L67.70027,65.524376 L70.63244,65.47604 M71.34938,64.09826 L70.290504,64.255806 L70.6835,63.260017 L71.34938,64.09826 M72.583786,66.59401 L72.05406,65.784904 L73.01963,65.730705 L72.583786,66.59401 M71.569466,67.62018 L70.81306,67.54445 L71.25684,66.92724 L71.569466,67.62018 M69.35792,62.8813 L69.29428,63.63883 L68.67006,63.204956 L69.35792,62.8813 M70.120735,68.483826 L70.40363,69.076515 L69.74889,69.02517 L70.120735,68.483826 M66.587524,69.81574 L65.23606,63.857346 L70.48521,60.73078 L75.080826,64.75685 L72.67192,70.371666 L66.587524,69.81574 M62.19541,79.096855 L60.75216,78.93285 L61.615818,77.76496 L62.19541,79.096855 M63.542755,80.27333 L58.923325,79.557816 L61.852695,75.91503 L63.542755,80.27333 M63.457306,82.63577 L63.331467,81.660965 L64.238594,82.03939 L63.457306,82.63577 M65.46211,80.251915 L64.92373,79.42958 L65.90508,79.3745 L65.46211,80.251915 M66.319565,78.39511 L64.9629,78.2464 L65.77002,77.14585 L66.319565,78.39511 M64.53548,76.750626 L64.06374,77.46443 L63.68144,76.69899 L64.53548,76.750626 M62.29671,81.15956 L61.674385,81.92035 L61.326687,81.00101 L62.29671,81.15956 M59.41942,76.02365 L60.259464,76.186035 L59.69881,76.832344 L59.41942,76.02365 M62.346252,74.86743 L63.321053,74.74152 L62.942688,75.64868 L62.346252,74.86743 M56.844852,81.712036 L57.870937,74.538284 L65.010666,73.29733 L68.39717,79.70414 L63.35042,84.90472 L56.844852,81.712036 M79.37548,41.7051 L81.02736,42.890297 L79.17501,43.728268 L79.37548,41.7051 M77.96341,41.120686 L78.4626,41.097286 L78.23327,41.5413 L77.96341,41.120686 M79.14859,40.33063 L79.58296,40.083523 L79.57978,40.583256 L79.14859,40.33063 M83.823616,42.013298 L81.29235,46.183098 L76.544426,45.064262 L76.14132,40.20298 L80.6401,38.317383 L83.823616,42.013298 M66.88114,31.318312 L64.10498,31.485392 L65.348366,28.997625 L66.88114,31.318312 M69.58505,29.586395 L67.92394,34.373875 L62.857468,34.27348 L61.387325,29.423952 L65.5452,26.527176 L69.58505,29.586395 M37.48008,31.958538 L37.712772,32.41593 L37.20031,32.388752 L37.48008,31.958538 M39.573685,30.474209 L39.428215,33.738148 L36.279068,34.608414 L34.47826,31.882324 L36.514446,29.327248 L39.573685,30.474209 M16.198706,63.433853 L14.468665,63.165882 L15.565755,61.80161 L16.198706,63.433853 M17.202934,63.21339 L17.748377,63.52315 L17.207396,63.840637 L17.202934,63.21339 M17.975403,59.48746 L19.861073,63.676308 L16.45995,66.76411 L12.472271,64.483635 L13.408873,59.986416 L17.975403,59.48746 M41.88628,19.739002 L41.607178,17.742502 L43.47575,18.499044 L41.88628,19.739002 M45.884296,18.146488 L41.513268,22.200832 L40.187614,16.388239 L45.884296,18.146488 M39.84548,20.77757 L40.440586,23.61471 L37.685997,22.711517 L39.84548,20.77757 M37.11906,18.282526 L38.76182,17.815975 L38.344486,19.471924 L37.11906,18.282526 M43.874054,23.014744 L43.64968,24.535849 L42.444553,23.580984 L43.874054,23.014744 M45.631474,22.40408 L45.24725,21.451584 L46.264244,21.595085 L45.631474,22.40408 M38.527008,20.598661 L37.501812,21.503511 L37.23079,20.163242 L38.527008,20.598661 M46.70272,19.761614 L46.64225,20.61638 L45.932236,20.13663 L46.70272,19.761614 M42.136436,25.116877 L40.770092,25.170553 L41.406776,23.960426 L42.136436,25.116877 M39.008553,24.342102 L38.484623,24.78607 L38.3621,24.110348 L39.008553,24.342102 M40.969128,15.534012 L41.572662,14.925713 L41.7977,15.752542 L40.969128,15.534012 M39.21669,16.87831 L38.448147,16.499329 L39.160625,16.023241 L39.21669,16.87831 M34.28518,17.872307 L41.926105,12.853456 L49.06049,18.569498 L45.82886,27.121058 L36.697212,26.69017 L34.28518,17.872307 M74.169014,39.65722 L72.20379,40.18706 L71.09259,38.481743 L72.37106,36.89796 L74.2724,37.624443 L74.169014,39.65722 M30.379349,29.50685 L31.35427,30.281252 L30.196157,30.738358 L30.379349,29.50685 M33.65209,32.538624 L29.983536,33.949333 L27.508224,30.896267 L29.64695,27.598656 L33.44407,28.613688 L33.65209,32.538624 M19.119644,54.84637 L18.444147,54.57024 L19.021032,54.123306 L19.119644,54.84637 M21.849775,55.438038 L18.890982,57.402275 L16.108562,55.19528 L17.347727,51.86704 L20.895992,52.017075 L21.849775,55.438038 M55.343643,83.067566 L55.571247,85.661514 L53.174587,86.67955 L51.465767,84.71478 L52.806316,82.48245 L55.343643,83.067566 M83.548515,47.484848 L82.55543,47.475155 L82.25777,46.52768 L83.06689,45.9518 L83.86461,46.543365 L83.548515,47.484848 M85.26085,36.67594 L87.06609,38.27921 L86.09915,40.491535 L83.6963,40.25556 L83.1782,37.897396 L85.26085,36.67594 M32.065468,24.646698 L33.164402,23.163567 L34.914536,23.750404 L34.89724,25.596222 L33.136417,26.150162 L32.065468,24.646698 M53.560978,29.177902 L51.712204,30.029316 L50.33116,28.53413 L51.3264,26.758642 L53.322536,27.156515 L53.560978,29.177902 M73.23859,32.29959 L73.98718,32.8367 L73.147736,33.216454 L73.23859,32.29959 M70.679535,31.858555 L73.45744,29.645885 L76.42024,31.604082 L75.473434,35.026985 L71.92548,35.184258 L70.679535,31.858555 M48.9591,26.07287 L48.973675,27.350174 L47.76339,27.758741 L47.00082,26.733946 L47.73981,25.69202 L48.9591,26.07287 M44.344875,28.894787 L46.356693,29.594887 L46.312546,31.724583 L44.27344,32.34071 L43.057354,30.591799 L44.344875,28.894787 M61.901207,72.28345 L61.485744,70.2909 L63.252384,69.28004 L64.7597,70.647835 L63.92462,72.50405 L61.901207,72.28345 M52.856712,81.08868 L53.164677,79.94684 L54.34579,79.88689 L54.767796,80.99167 L53.847492,81.73441 L52.856712,81.08868 M52.336792,23.654613 L50.836323,25.54617 L48.57368,24.703661 L48.675755,22.291409 L51.001488,21.643063 L52.336792,23.654613 M45.88164,80.42677 L46.94894,81.128624 L46.611256,82.360565 L45.33526,82.420105 L44.88433,81.22495 L45.88164,80.42677 M78.59387,37.037422 L77.508865,38.530773 L75.75332,37.96034 L75.75334,36.114437 L77.5089,35.54405 L78.59387,37.037422 M58.093876,36.78293 L57.64137,34.122467 L60.031784,32.869984 L61.96165,34.756363 L60.763954,37.174698 L58.093876,36.78293 M82.95769,36.64018 L81.44025,37.84993 L79.82079,36.780594 L80.33735,34.909954 L82.27606,34.823174 L82.95769,36.64018 M59.37786,87.53981 L57.406227,88.57077 L55.81646,87.01422 L56.80556,85.02126 L59.006626,85.34609 L59.37786,87.53981 M28.80253,34.439915 L29.991655,35.124565 L29.707973,36.467056 L28.343523,36.612114 L27.78393,35.35927 L28.80253,34.439915 M13.981476,57.069077 L13.856913,55.79778 L15.027496,55.28646 L15.875522,56.241745 L15.229045,57.343464 L13.981476,57.069077 M74.938675,43.930595 L74.48854,46.012646 L72.36929,46.22793 L71.50966,44.27893 L73.097626,42.8591 L74.938675,43.930595 M54.63298,19.944029 L54.89593,21.866783 L53.148537,22.711027 L51.80564,21.310045 L52.723076,19.599945 L54.63298,19.944029 M26.72492,36.21656 L26.132864,37.348454 L24.873413,37.13515 L24.687086,35.871426 L25.83138,35.303707 L26.72492,36.21656 M21.474941,50.241207 L18.973372,50.964066 L17.512865,48.808308 L19.111792,46.753117 L21.56049,47.6387 L21.474941,50.241207 M67.896706,71.715965 L70.44646,71.18763 L71.736855,73.449326 L69.98461,75.375465 L67.611275,74.30419 L67.896706,71.715965 M66.086,48.602463 L66.60854,46.14831 L69.10405,45.8869 L70.12382,48.179493 L68.25856,49.8578 L66.086,48.602463 M62.10538,88.29647 L61.715076,89.808556 L60.15639,89.90461 L59.583378,88.45189 L60.787918,87.45801 L62.10538,88.29647 M74.22124,59.354664 L74.47118,60.413445 L73.54146,60.978336 L72.71692,60.26868 L73.13704,59.265194 L74.22124,59.354664 M86.789734,43.031487 L85.511955,43.75193 L84.431915,42.75932 L85.04219,41.425404 L86.499405,41.593613 L86.789734,43.031487 M21.821152,58.64087 L21.629349,60.09517 L20.18696,60.362156 L19.487318,59.07287 L20.497303,58.009052 L21.821152,58.64087 M19.983263,43.807213 L21.538649,43.667557 L22.15211,45.10366 L20.975863,46.130875 L19.635443,45.329628 L19.983263,43.807213 M19.76496,67.222206 L18.794075,67.01318 L18.69285,66.02522 L19.601173,65.62366 L20.263773,66.363434 L19.76496,67.222206 M48.08915,83.003784 L49.012676,82.42881 L49.84489,83.12946 L49.435703,84.13746 L48.350597,84.059784 L48.08915,83.003784 M42.02725,78.1135 L42.41347,79.02845 L41.66265,79.67851 L40.812393,79.16531 L41.037724,78.19809 L42.02725,78.1135 M88.536224,42.56455 L87.73265,42.57317 L87.47613,41.81158 L88.12117,41.332275 L88.77635,41.797634 L88.536224,42.56455 M64.792656,66.18203 L65.08522,67.42546 L63.993053,68.087944 L63.025494,67.25395 L63.519676,66.07603 L64.792656,66.18203 M38.255295,12.641185 L38.81759,11.822568 L39.769897,12.104376 L39.796165,13.097158 L38.86009,13.4289255 L38.255295,12.641185 M76.71204,59.80245 L77.42851,60.62108 L76.87135,61.555454 L75.81054,61.3143 L75.712074,60.230885 L76.71204,59.80245 M49.615295,29.11106 L49.375694,29.778214 L48.667152,29.7565 L48.46885,29.075928 L49.054832,28.677023 L49.615295,29.11106 M62.36677,87.17075 L62.257122,86.27909 L63.07126,85.89927 L63.68407,86.55618 L63.248676,87.34201 L62.36677,87.17075 M82.39927,48.30384 L83.578384,48.39501 L83.85605,49.54459 L82.84853,50.1639 L81.9482,49.39707 L82.39927,48.30384 M34.291283,34.622303 L33.736652,35.20385 L33.012177,34.856075 L33.119057,34.059586 L33.909588,33.915108 L34.291283,34.622303 M55.461655,30.61382 L56.643967,30.586246 L57.035545,31.702171 L56.09524,32.419426 L55.12252,31.746786 L55.461655,30.61382 M89.26153,40.377617 L88.791794,40.773212 L88.27041,40.44871 L88.41791,39.852566 L89.03046,39.808628 L89.26153,40.377617 M69.69799,76.98472 L69.36342,77.81847 L68.46709,77.75791 L68.24769,76.886734 L69.00844,76.408875 L69.69799,76.98472 M41.44624,28.017113 L41.87565,29.419744 L40.67436,30.261574 L39.502514,29.37922 L39.97956,27.992067 L41.44624,28.017113 M33.17945,21.365742 L33.85385,21.147377 L34.26993,21.721296 L33.852676,22.29436 L33.178722,22.074615 L33.17945,21.365742 M16.852116,58.74437 L16.501818,58.128094 L16.97968,57.6045 L17.625315,57.897175 L17.546476,58.601654 L16.852116,58.74437 M10.261777,61.48396 L10.776585,60.866875 L11.522548,61.1658 L11.468771,61.967625 L10.689571,62.164257 L10.261777,61.48396 M58.842506,32.10575 L57.941563,31.49601 L58.243053,30.450739 L59.33033,30.414467 L59.700813,31.437323 L58.842506,32.10575 M36.41032,76.89881 L35.749954,77.15653 L35.300785,76.60812 L35.683544,76.011475 L36.369278,76.191124 L36.41032,76.89881 M66.80678,72.11603 L66.07107,72.6316 L65.353386,72.091225 L65.64554,71.24168 L66.543785,71.257 L66.80678,72.11603 M86.50844,45.545322 L86.62528,46.43607 L85.81423,46.82245 L85.196144,46.170494 L85.62518,45.381187 L86.50844,45.545322 M51.222534,82.347626 L50.757206,81.81286 L51.122005,81.205055 L51.81279,81.364174 L51.87492,82.07032 L51.222534,82.347626 M78.09796,34.489254 L77.9231,33.31962 L78.98146,32.791878 L79.81042,33.635353 L79.26439,34.684387 L78.09796,34.489254 M38.90771,78.03092 L38.102795,78.42992 L37.474598,77.7877 L37.891262,76.99178 L38.776978,77.142105 L38.90771,78.03092 M52.252014,18.74139 L51.80838,19.522589 L50.928326,19.34207 L50.828056,18.449305 L51.64614,18.078064 L52.252014,18.74139 M42.513508,80.18114 L43.228798,79.49218 L44.105076,79.959564 L43.93135,80.93738 L42.94771,81.074326 L42.513508,80.18114 M64.29979,25.552372 L64.217926,26.256504 L63.522957,26.39623 L63.175312,25.778458 L63.655422,25.256924 L64.29979,25.552372 M60.50377,39.123547 L59.891968,39.070198 L59.753647,38.47186 L60.279957,38.155407 L60.74356,38.55817 L60.50377,39.123547 M70.29484,29.146145 L70.93015,28.654018 L71.59452,29.106165 L71.369804,29.877733 L70.56656,29.902443 L70.29484,29.146145 M13.342587,59.032887 L12.571172,59.493324 L11.89489,58.901947 L12.24834,58.07602 L13.143065,58.156944 L13.342587,59.032887 M59.314877,71.52278 L60.149982,71.1916 L60.723022,71.883484 L60.242073,72.64228 L59.371796,72.41936 L59.314877,71.52278 M26.676977,34.690395 L25.743156,34.352325 L25.776112,33.359745 L26.730297,33.08436 L27.287064,33.906746 L26.676977,34.690395 M37.253498,14.671548 L36.749035,14.547999 L36.71065,14.030049 L37.191387,13.8334875 L37.526886,14.229956 L37.253498,14.671548 M48.774,80.55872 L49.06051,81.10191 L48.632435,81.54226 L48.081364,81.27121 L48.168854,80.66335 L48.774,80.55872 M68.84268,44.07016 L69.32586,44.44922 L69.11466,45.025883 L68.50096,45.003223 L68.33286,44.412556 L68.84268,44.07016 M35.849213,28.435698 L35.624493,27.763384 L36.194458,27.34191 L36.771435,27.753735 L36.558064,28.429733 L35.849213,28.435698 M76.30651,62.982178 L76.23298,63.68723 L75.53971,63.835167 L75.184784,63.221546 L75.65869,62.69437 L76.30651,62.982178 M56.223568,76.7204 L56.419304,77.20148 L56.02226,77.53629 L55.58114,77.26214 L55.705555,76.7579 L56.223568,76.7204 M60.897724,84.91796 L60.68726,85.39278 L60.170647,85.33934 L60.061825,84.8315 L60.511185,84.57107 L60.897724,84.91796 M65.17284,45.719803 L65.74806,46.134068 L65.53184,46.80916 L64.82297,46.812122 L64.60109,46.138866 L65.17284,45.719803 M70.27799,59.15651 L69.940216,59.77973 L69.24312,59.651073 L69.15006,58.948334 L69.78965,58.642673 L70.27799,59.15651 M31.422075,26.636501 L30.787954,26.31965 L30.893343,25.618654 L31.592598,25.502266 L31.919373,26.13133 L31.422075,26.636501 M84.3142,44.495316 L84.146255,44.986786 L83.626945,44.97893 L83.47394,44.482613 L83.89869,44.18372 L84.3142,44.495316 M56.69169,83.50215 L56.294468,83.352104 L56.314423,82.927956 L56.72398,82.815865 L56.957146,83.17074 L56.69169,83.50215 M69.30499,33.1141 L69.918655,33.137962 L70.085594,33.728962 L69.5751,34.070354 L69.092674,33.690353 L69.30499,33.1141 M74.259384,41.60696 L74.69065,41.04437 L75.35898,41.280678 L75.34076,41.989315 L74.66117,42.19097 L74.259384,41.60696 M38.721386,28.4157 L38.430397,28.956507 L37.82614,28.846878 L37.74368,28.238317 L38.29697,27.971834 L38.721386,28.4157 M15.74131,53.51761 L15.227967,53.596504 L14.994304,53.132664 L15.3632345,52.7671 L15.82491,53.005013 L15.74131,53.51761 M63.35724,88.20704 L63.58907,88.4417 L63.437534,88.7347 L63.11205,88.68112 L63.062424,88.35501 L63.35724,88.20704 M71.70139,59.58466 L71.346695,59.81808 L71.01508,59.552868 L71.16485,59.155537 L71.58901,59.175182 L71.70139,59.58466 M71.30762,36.363174 L70.78867,36.3843 L70.60822,35.89729 L71.01563,35.575172 L71.44788,35.863106 L71.30762,36.363174 M41.336487,30.89528 L41.907154,30.668383 L42.299294,31.141006 L41.97098,31.660002 L41.37593,31.508135 L41.336487,30.89528 M31.949455,35.83322 L31.348719,35.960743 L31.0418,35.428814 L31.45285,34.97254 L32.013813,35.22248 L31.949455,35.83322 M20.93454,64.62527 L21.609554,64.841736 L21.61227,65.550606 L20.938934,65.77224 L20.520075,65.20035 L20.93454,64.62527 M32.571598,74.77166 L32.979942,74.888084 L32.9954,75.31242 L32.596607,75.45825 L32.334682,75.12404 L32.571598,74.77166 M48.069813,30.879177 L47.650814,30.948029 L47.455856,30.570812 L47.754364,30.26883 L48.133812,30.45941 L48.069813,30.879177 M46.94306,28.295458 L46.603943,28.688833 L46.12503,28.487873 L46.16816,27.970297 L46.673733,27.851377 L46.94306,28.295458 M42.931515,28.042652 L43.347492,27.957428 L43.55709,28.32671 L43.270653,28.640163 L42.884026,28.464607 L42.931515,28.042652 M41.232582,33.174335 L40.914753,32.76357 L41.207203,32.334362 L41.705772,32.479866 L41.72146,32.998997 L41.232582,33.174335 M20.40599,62.298992 L20.635859,61.72951 L21.248499,61.772152 L21.397263,62.36798 L20.876564,62.69359 L20.40599,62.298992 M54.632774,29.31728 L54.476807,28.922342 L54.80422,28.651966 L55.162537,28.8798 L55.056576,29.290987 L54.632774,29.31728 M55.96646,78.651794 L55.766197,79.331795 L55.0576,79.35146 L54.81992,78.683624 L55.38163,78.251205 L55.96646,78.651794 M70.59788,42.704617 L71.08107,43.083656 L70.869896,43.66033 L70.25619,43.637695 L70.08807,43.04703 L70.59788,42.704617 M21.288488,41.911278 L21.884842,41.764626 L22.208601,42.286476 L21.81234,42.755646 L21.24368,42.52376 L21.288488,41.911278 M69.86079,45.44979 L70.03773,45.063797 L70.45951,45.112797 L70.54324,45.52908 L70.17322,45.737354 L69.86079,45.44979 M52.570194,25.788769 L52.41333,25.195017 L52.929546,24.862352 L53.40545,25.250504 L53.183357,25.823061 L52.570194,25.788769 M89.92459,39.459145 L89.77383,39.06219 L90.10477,38.796146 L90.46006,39.02867 L90.3487,39.438427 L89.92459,39.459145 M49.576576,20.251656 L50.027664,19.834923 L50.563393,20.135155 L50.443405,20.73744 L49.83352,20.809443 L49.576576,20.251656 M85.72027,48.311485 L85.26556,48.855305 L84.60784,48.590897 L84.65606,47.883663 L85.343575,47.71098 L85.72027,48.311485 M16.978748,50.49464 L16.863676,50.803783 L16.534101,50.789875 L16.445488,50.472134 L16.720293,50.28967 L16.978748,50.49464 M71.20959,47.452065 L71.463104,47.11144 L71.8654,47.24729 L71.86052,47.671883 L71.4552,47.79844 L71.20959,47.452065 M72.682945,41.050526 L72.869736,41.734344 L72.27711,42.123306 L71.72405,41.679874 L71.97488,41.01686 L72.682945,41.050526 M21.023306,67.79949 L21.497997,68.01023 L21.444258,68.52682 L20.936354,68.63534 L20.67619,68.18583 L21.023306,67.79949 M50.389397,17.756506 L50.162167,17.517385 L50.319366,17.227386 L50.64375,17.287277 L50.68703,17.61429 L50.389397,17.756506 M33.834118,26.837343 L34.22251,27.31305 L33.89011,27.829435 L33.296276,27.672873 L33.261673,27.059727 L33.834118,26.837343 M88.077034,38.51293 L87.895966,38.128853 L88.2053,37.837967 L88.57754,38.042267 L88.49827,38.45942 L88.077034,38.51293 M48.989082,16.678846 L48.714252,16.86128 L48.455822,16.65628 L48.57093,16.347149 L48.9005,16.361095 L48.989082,16.678846 M62.30608,92.874954 L8.241131,63.204575 L37.911507,9.139625 L91.976456,38.81 L62.30608,92.874954 M17.548521,18.54685 L15.005055,18.257826 L16.527092,16.199633 L17.548521,18.54685 M18.893845,19.767452 L13.104497,18.870724 L16.77576,14.3053665 L18.893845,19.767452 M20.835794,20.039991 L20.45149,18.358957 L22.09946,18.866657 L20.835794,20.039991 M14.623933,14.968874 L14.01013,15.896077 L13.51405,14.9009075 L14.623933,14.968874 M16.772959,21.824505 L18.000954,21.520468 L17.650259,22.735962 L16.772959,21.824505 M18.837856,15.979741 L20.23825,16.203663 L19.344131,17.304478 L18.837856,15.979741 M14.424598,20.875546 L14.320547,21.67454 L13.680623,21.18493 L14.424598,20.875546 M21.351997,16.396507 L21.834688,17.041664 L21.034618,17.137108 L21.351997,16.396507 M18.230246,14.860387 L17.90796,13.95732 L18.851183,14.129747 L18.230246,14.860387 M12.440515,20.488247 L12.468894,19.836233 L13.019364,20.186815 L12.440515,20.488247 M16.304531,20.851027 L15.5952215,21.496222 L15.391121,20.559343 L16.304531,20.851027 M19.755327,21.959784 L19.437674,21.389675 L20.090229,21.399633 L19.755327,21.959784 M19.925535,14.288426 L20.290293,14.829609 L19.639236,14.8749075 L19.925535,14.288426 M11.088284,22.15356 L11.377331,13.800839 L19.41056,11.494607 L24.086323,18.421997 L18.942873,25.009594 L11.088284,22.15356 M23.470375,14.560495 L22.622568,12.176103 L24.628275,10.632973 L26.715675,12.063658 L26.000055,14.491001 L23.470375,14.560495 M23.223003,22.552898 L24.916695,23.776056 L24.276781,25.764828 L22.187603,25.7708 L21.536333,23.785717 L23.223003,22.552898 M24.859934,17.989754 L24.29663,17.235449 L24.839947,16.466621 L25.739038,16.745766 L25.75139,17.687113 L24.859934,17.989754 M13.383968,10.896389 L14.284852,9.73332 L15.669384,10.230704 L15.624188,11.701173 L14.211723,12.112589 L13.383968,10.896389 M22.35038,10.726495 L21.891457,11.445685 L21.06565,11.231466 L21.014196,10.379881 L21.808203,10.067791 L22.35038,10.726495 M25.1489,21.613894 L24.467642,22.263643 L23.639174,21.816513 L23.808409,20.890423 L24.74147,20.765196 L25.1489,21.613894 M12.519019,8.66115 L12.892868,8.206948 L13.440366,8.422144 L13.404888,9.009344 L12.8354645,9.157058 L12.519019,8.66115 M19.11177,10.422708 L18.287909,10.644286 L17.822588,9.929219 L18.358866,9.265704 L19.155624,9.570697 L19.11177,10.422708 M11.8287115,11.901616 L12.209676,11.74555 L12.475828,12.059642 L12.259356,12.409827 L11.859415,12.312162 L11.8287115,11.901616 M25.320896,18.967808 L25.724644,19.048298 L25.772858,19.457157 L25.398907,19.629356 L25.11958,19.326921 L25.320896,18.967808 M9.901856,22.443272 L10.261485,22.643665 L10.182032,23.047619 L9.773296,23.096882 L9.600139,22.723375 L9.901856,22.443272 M16.392153,8.844258 L16.881596,8.946374 L16.935722,9.443418 L16.479734,9.648491 L16.143787,9.278191 L16.392153,8.844258 M21.07054,25.241585 L20.840923,25.469328 L20.553373,25.32133 L20.60527,25.002117 L20.924896,24.952833 L21.07054,25.241585 M26.428198,15.663619 L26.194336,16.00244 L25.799831,15.884726 L25.789875,15.473154 L26.178228,15.336502 L26.428198,15.663619 M23.71669,15.689912 L24.020899,15.5801525 L24.219292,15.835554 L24.037697,16.10316 L23.727074,16.01315 L23.71669,15.689912 M17.038334,11.087306 L16.770016,10.906765 L16.858807,10.595789 L17.182,10.584136 L17.292953,10.887911 L17.038334,11.087306 M12.39314,10.251627 L12.666093,10.42508 L12.585477,10.738275 L12.262699,10.758386 L12.143828,10.457622 L12.39314,10.251627 M14.69503,8.900967 L14.460459,8.885009 L14.403148,8.656986 L14.602301,8.532019 L14.782694,8.682806 L14.69503,8.900967 M8.275805,23.76736 L11.856968,6.9220824 L28.702246,10.503243 L25.121084,27.348522 L8.275805,23.76736 M81.804115,80.83803 L82.80215,81.63079 L81.61658,82.09873 L81.804115,80.83803 M78.82405,82.3691 L80.85684,78.890366 L84.79349,79.74868 L85.19367,83.75788 L81.50436,85.37739 L78.82405,82.3691 M83.298706,77.45409 L84.34068,74.74242 L87.24162,74.89544 L87.99252,77.70168 L85.55567,79.28302 L83.298706,77.45409 M80.15262,75.34535 L81.71186,74.48506 L83.01187,75.70215 L82.25608,77.31464 L80.48896,77.09412 L80.15262,75.34535 M76.57773,76.3491 L78.20988,75.63677 L79.3917,76.968925 L78.48995,78.50456 L76.750824,78.12149 L76.57773,76.3491 M89.01526,81.31361 L88.222855,83.14078 L86.24024,82.95179 L85.80732,81.00781 L87.52238,79.99535 L89.01526,81.31361 M83.217804,74.21801 L82.42698,73.86154 L82.52163,72.999275 L83.37094,72.82283 L83.8012,73.57606 L83.217804,74.21801 M84.740715,72.61044 L85.60074,72.236725 L86.221924,72.93917 L85.74581,73.74702 L84.83038,73.54385 L84.740715,72.61044 M78.00338,81.07336 L77.36846,80.591286 L77.63074,79.83848 L78.42775,79.855286 L78.65806,80.618484 L78.00338,81.07336 M79.64943,85.85247 L78.92576,85.921196 L78.636765,85.25418 L79.18183,84.77321 L79.80769,85.142975 L79.64943,85.85247 M79.05155,74.14325 L79.56764,74.15124 L79.71952,74.64454 L79.297295,74.94142 L78.88447,74.63161 L79.05155,74.14325 M77.82038,83.31086 L78.36804,83.101234 L78.73665,83.55731 L78.416794,84.04881 L77.85051,83.89649 L77.82038,83.31086 M75.706085,75.19672 L75.78304,74.829056 L76.156494,74.78863 L76.31034,75.13131 L76.031975,75.38352 L75.706085,75.19672 M79.55085,78.92748 L79.70718,79.1031 L79.58846,79.306046 L79.358765,79.25585 L79.33552,79.02189 L79.55085,78.92748 M77.659836,74.42888 L77.945366,74.537155 L77.93063,74.84217 L77.63599,74.92241 L77.46863,74.666985 L77.659836,74.42888 M87.96548,79.25812 L87.986305,78.95346 L88.28249,78.87912 L88.44472,79.13784 L88.248795,79.37208 L87.96548,79.25812 M89.72975,83.04564 L89.477974,83.21844 L89.235825,83.03238 L89.33795,82.74459 L89.64321,82.752785 L89.72975,83.04564 M74.310425,74.273926 L87.35931,70.82264 L90.81059,83.87152 L77.76172,87.32281 L74.310425,74.273926 M20.0463,85.15451 L17.946592,84.829285 L19.278105,83.17349 L20.0463,85.15451 M21.15317,85.6433 L21.057507,84.98042 L21.679407,85.22901 L21.15317,85.6433 M19.900803,86.44958 L19.848888,86.954994 L19.437141,86.657326 L19.900803,86.44958 M15.963745,87.11075 L16.138557,82.05915 L20.996933,80.664375 L23.824764,84.85396 L20.714083,88.838036 L15.963745,87.11075 M22.892645,81.67793 L23.506739,80.079796 L25.216423,80.169975 L25.658972,81.82385 L24.2228,82.75582 L22.892645,81.67793 M25.11089,84.48367 L25.339277,83.25913 L26.57446,83.09794 L27.109457,84.222855 L26.20492,85.079285 L25.11089,84.48367 M22.293863,79.580574 L21.60923,80.09604 L20.90743,79.6042 L21.158329,78.78477 L22.01519,78.770164 L22.293863,79.580574 M19.022406,79.04749 L18.963484,80.36957 L17.687904,80.72208 L16.958475,79.61786 L17.783243,78.58291 L19.022406,79.04749 M22.435587,90.054375 L22.84611,90.71673 L22.343039,91.31183 L21.6216,91.01728 L21.678799,90.24013 L22.435587,90.054375 M22.996222,88.165924 L23.16017,87.32477 L24.01082,87.22076 L24.372604,87.997635 L23.745548,88.58178 L22.996222,88.165924 M14.444196,84.80469 L14.809964,85.30998 L14.4424305,85.813995 L13.849515,85.62019 L13.850606,84.996414 L14.444196,84.80469 M20.402998,77.191505 L20.799086,77.95147 L20.198719,78.56301 L19.431583,78.18101 L19.557835,77.33337 L20.402998,77.191505 M27.447409,82.00937 L27.83568,81.96696 L27.995998,82.32312 L27.706808,82.585655 L27.36776,82.39175 L27.447409,82.00937 M24.50282,85.37217 L25.093716,85.57204 L25.086226,86.19578 L24.4907,86.3814 L24.130135,85.87238 L24.50282,85.37217 M15.069702,83.80259 L14.815603,83.98509 L14.56351,83.79983 L14.661806,83.50282 L14.97465,83.50453 L15.069702,83.80259 M22.074064,88.74539 L22.34101,88.90853 L22.268345,89.21282 L21.956491,89.23775 L21.836418,88.94886 L22.074064,88.74539 M23.093782,79.24872 L22.95218,78.884705 L23.254618,78.63755 L23.583136,78.84881 L23.483734,79.22653 L23.093782,79.24872 M20.683832,90.14568 L20.405828,90.28916 L20.183458,90.06911 L20.32403,89.78962 L20.633278,89.836945 L20.683832,90.14568 M29.92982,82.17945 L22.467987,92.8455 L11.801942,85.38367 L19.263773,74.71762 L29.92982,82.17945 M75.86565,19.415508 L74.97209,19.050241 L75.7352,18.459036 L75.86565,19.415508 M72.64164,19.669556 L73.97291,16.195583 L77.68824,16.388178 L78.653175,19.981182 L75.5342,22.009186 L72.64164,19.669556 M73.5696,24.639835 L74.23354,23.111265 L75.89247,23.270359 L76.2538,24.897255 L74.81819,25.743637 L73.5696,24.639835 M77.491745,21.760267 L78.54131,21.117243 L79.4772,21.916737 L79.00604,23.053879 L77.77896,22.957176 L77.491745,21.760267 M72.070076,22.458883 L71.754135,21.729101 L72.35056,21.203108 L73.035126,21.607805 L72.86177,22.383919 L72.070076,22.458883 M70.651855,18.636862 L71.38988,18.340668 L71.899635,18.951036 L71.47666,19.624458 L70.7055,19.430288 L70.651855,18.636862 M80.7997,20.878407 L80.28591,21.309624 L79.717026,20.954237 L79.87923,20.30338 L80.548355,20.256512 L80.7997,20.878407 M76.76095,15.411024 L76.56452,14.968615 L76.924576,14.645084 L77.34354,14.887542 L77.24241,15.360918 L76.76095,15.411024 M80.199356,19.045614 L80.09263,19.45371 L79.671524,19.478317 L79.518,19.085428 L79.844215,18.818003 L80.199356,19.045614 M77.09901,23.992357 L77.28553,23.760784 L77.56341,23.866621 L77.548615,24.163603 L77.261604,24.241312 L77.09901,23.992357 M72.57508,17.381208 L72.44969,17.650827 L72.154526,17.614893 L72.09749,17.323065 L72.35741,17.17864 L72.57508,17.381208 M77.16459,12.758059 L83.155205,21.520327 L74.39294,27.510937 L68.40232,18.748669 L77.16459,12.758059 M57.027542,12.360185 L56.548626,12.1644125 L56.95763,11.847544 L57.027542,12.360185 M54.373207,13.788498 L54.48782,10.476563 L57.673073,9.56212 L59.527058,12.308898 L57.48763,14.920943 L54.373207,13.788498 M59.4883,10.54482 L59.233967,9.829525 L59.83566,9.366601 L60.46186,9.795793 L60.24718,10.5239725 L59.4883,10.54482 M60.163532,13.861966 L60.184372,14.489773 L59.59373,14.703596 L59.207855,14.207939 L59.56001,13.687783 L60.163532,13.861966 M54.57522,8.84142 L54.408463,9.091551 L54.119045,9.010251 L54.10693,8.709875 L54.388863,8.605532 L54.57522,8.84142 M55.623764,8.880491 L55.804558,8.640311 L56.088852,8.738036 L56.08376,9.038614 L55.79632,9.126656 L55.623764,8.880491 M58.95821,8.967994 L58.596436,9.203424 L58.260735,8.93211 L58.415035,8.528997 L58.846096,8.551175 L58.95821,8.967994 M61.491177,7.742321 L61.3694,15.953103 L53.158615,15.831327 L53.28039,7.620545 L61.491177,7.742321 M11.9651165,40.975643 L11.396501,40.743206 L11.882108,40.36699 L11.9651165,40.975643 M9.211675,42.4034 L9.329292,39.00457 L12.598119,38.066135 L14.500747,40.88498 L12.40781,43.56556 L9.211675,42.4034 M15.649032,38.61592 L15.875246,39.344345 L15.25238,39.78458 L14.641212,39.32824 L14.886356,38.60597 L15.649032,38.61592 M14.128434,43.964622 L13.795859,43.37747 L14.251506,42.87973 L14.865686,43.159267 L14.789623,43.82977 L14.128434,43.964622 M10.629744,37.052284 L10.225482,36.978226 L10.170995,36.57086 L10.54158,36.39316 L10.825103,36.690697 L10.629744,37.052284 M13.858065,37.370323 L14.35283,37.43463 L14.444558,37.925056 L14.006485,38.16384 L13.644012,37.821 L13.858065,37.370323 M12.266785,36.630806 L12.5794525,36.712055 L12.598801,37.034527 L12.29809,37.152576 L12.092894,36.903065 L12.266785,36.630806 M15.036507,41.60127 L15.3367,41.720623 L15.315952,42.043007 L15.002935,42.1229 L14.830228,41.849888 L15.036507,41.60127 M7.017506,43.013588 L9.627283,34.848434 L17.792437,37.45821 L15.18266,45.623363 L7.017506,43.013588 M41.427696,85.27513 L43.271187,87.42842 L41.792957,89.84709 L39.035866,89.188614 L38.810123,86.36299 L41.427696,85.27513 M40.128872,84.348694 L40.390423,84.049255 L40.75603,84.205475 L40.72044,84.601456 L40.332832,84.68997 L40.128872,84.348694 M38.101658,87.79932 L37.733883,87.95036 L37.476578,87.64727 L37.68533,87.3089 L38.071648,87.40287 L38.101658,87.79932 M44.137768,87.01576 L44.328182,86.87784 L44.518192,87.01631 L44.44521,87.239815 L44.2101,87.23947 L44.137768,87.01576 M45.95065,86.97578 L41.370552,92.4408 L35.90553,87.8607 L40.485626,82.39568 L45.95065,86.97578 M87.1196,22.581127 L89.028786,24.811153 L87.49787,27.316011 L84.64253,26.634073 L84.408745,23.707754 L87.1196,22.581127 M86.24664,21.502232 L86.554375,21.58818 L86.567726,21.907408 L86.26825,22.018751 L86.06981,21.768337 L86.24664,21.502232 M83.087585,24.872032 L83.49098,24.89224 L83.59641,25.282133 L83.25819,25.502893 L82.94371,25.249435 L83.087585,24.872032 M89.8427,24.360254 L90.103645,24.175894 L90.35963,24.367102 L90.256874,24.669636 L89.9374,24.665403 L89.8427,24.360254 M86.80238,28.572798 L86.57235,28.35106 L86.71214,28.063763 L87.02858,28.10794 L87.08435,28.42254 L86.80238,28.572798 M91.79652,24.374273 L87.028725,29.995314 L81.407684,25.227524 L86.175476,19.606483 L91.79652,24.374273 M11.318096,69.69561 L12.517492,71.096565 L11.5557375,72.67017 L9.761945,72.24177 L9.615074,70.40338 L11.318096,69.69561 M10.749269,74.91129 L7.1554193,70.81599 L11.250725,67.22214 L14.844574,71.317444 L10.749269,74.91129 M83.91837,11.391123 L83.72008,11.675167 L83.573235,11.36142 L83.91837,11.391123 M81.82398,13.129991 L81.93068,10.0467205 L84.89602,9.195413 L86.621994,11.752545 L84.72337,14.184249 L81.82398,13.129991 M86.86528,9.940838 L86.604645,9.207824 L87.22124,8.733433 L87.86295,9.173256 L87.64295,9.919474 L86.86528,9.940838 M86.83145,13.310018 L87.40472,13.599602 L87.30646,14.234298 L86.67246,14.336977 L86.37889,13.76574 L86.83145,13.310018 M82.512764,8.517895 L82.81432,8.110901 L83.294586,8.271938 L83.28984,8.778459 L82.80665,8.930469 L82.512764,8.517895 M88.927505,7.8411613 L88.01624,15.518418 L80.33899,14.607161 L81.250244,6.929903 L88.927505,7.8411613 M85.708954,66.55031 L86.899734,64.51251 L89.205765,65.015305 L89.440186,67.36384 L87.27904,68.31252 L85.708954,66.55031 M88.5829,63.398163 L89.15507,61.909138 L90.748024,61.993168 L91.160355,63.534126 L89.822235,64.40246 L88.5829,63.398163 M83.84227,62.58755 L85.226364,61.98349 L86.22857,63.113174 L85.463875,64.41542 L83.98906,64.09057 L83.84227,62.58755 M91.78601,65.9462 L91.388084,66.86377 L90.39245,66.76887 L90.17505,65.79263 L91.036316,65.284195 L91.78601,65.9462 M87.67547,61.398403 L88.20575,61.921875 L87.871765,62.587967 L87.13506,62.476162 L87.01375,61.74097 L87.67547,61.398403 M85.04753,67.407394 L85.43737,67.70446 L85.275314,68.167015 L84.78532,68.15582 L84.64454,67.68635 L85.04753,67.407394 M84.90578,66.36964 L84.58619,66.38798 L84.469986,66.0897 L84.71776,65.88701 L84.9871,66.06002 L84.90578,66.36964 M91.09973,60.77565 L90.92755,61.14236 L90.52558,61.091934 L90.449326,60.694057 L90.80417,60.49858 L91.09973,60.77565 M88.9807,60.98191 L88.69457,61.12547 L88.46962,60.897717 L88.616714,60.613396 L88.93258,60.66543 L88.9807,60.98191 M86.41592,60.763733 L86.54391,61.057148 L86.304405,61.269547 L86.02839,61.1074 L86.097305,60.79479 L86.41592,60.763733 M92.033195,59.250095 L93.14106,68.597694 L83.79346,69.70557 L82.68559,60.35796 L92.033195,59.250095 M73.37251,89.94433 L74.26367,90.985245 L73.54909,92.15445 L72.216286,91.836136 L72.10716,90.47021 L73.37251,89.94433 M70.98835,93.21477 L70.902245,88.84822 L75.26879,88.762115 L75.3549,93.12866 L70.98835,93.21477 M9.850843,29.122341 L11.471723,28.897938 L12.186022,30.370142 L11.006604,31.504416 L9.563384,30.733232 L9.850843,29.122341 M11.008312,26.795883 L13.980667,30.472458 L10.304092,33.444813 L7.3317375,29.768236 L11.008312,26.795883 M89.9916,87.80902 L91.0968,89.09995 L90.21058,90.54998 L88.55766,90.15521 L88.422325,88.46121 L89.9916,87.80902 M91.41363,85.82667 L92.95232,90.80253 L87.976456,92.34122 L86.43777,87.36536 L91.41363,85.82667 M88.437065,51.98743 L90.107925,51.756107 L90.84425,53.273712 L89.62846,54.442963 L88.14074,53.648 L88.437065,51.98743 M89.07462,56.4388 L85.844894,52.82337 L89.46032,49.593643 L92.69005,53.20907 L89.07462,56.4388 M10.682386,89.18424 L11.847379,90.54501 L10.913212,92.07349 L9.170871,91.657364 L9.0282135,89.87171 L10.682386,89.18424 M12.703231,93.17822 L7.7427216,92.904274 L8.01667,87.94376 L12.97718,88.21771 L12.703231,93.17822 M65.60387,13.236779 L65.68502,10.891454 L67.94064,10.2438965 L69.253525,12.18901 L67.80932,14.0387125 L65.60387,13.236779 M70.82787,10.571999 L70.5759,11.272895 L69.831436,11.249838 L69.623314,10.534692 L70.23914,10.115765 L70.82787,10.571999 M67.02972,9.414466 L66.68555,9.016197 L66.95797,8.565805 L67.470505,8.685717 L67.51484,9.210217 L67.02972,9.414466 M69.14737,14.067481 L69.35629,13.959637 L69.523415,14.125008 L69.417786,14.335056 L69.18537,14.299502 L69.14737,14.067481 M69.03318,9.739532 L68.72779,9.779004 L68.59588,9.50076 L68.81975,9.289324 L69.09001,9.436894 L69.03318,9.739532 M66.48817,7.0907135 L72.49649,10.210657 L69.37654,16.218977 L63.368225,13.099033 L66.48817,7.0907135 M30.354862,87.70337 L32.19602,87.44847 L33.00739,89.12074 L31.66769,90.40917 L30.028337,89.53318 L30.354862,87.70337 M30.983519,85.08019 L35.027443,88.54996 L31.557682,92.59388 L27.513756,89.124115 L30.983519,85.08019 M33.79547,8.070646 L34.35808,8.727802 L33.906944,9.465947 L33.065517,9.26499 L32.996624,8.402647 L33.79547,8.070646 M35.471413,10.41227 L31.947187,10.537828 L31.821627,7.0136046 L35.34585,6.888045 L35.471413,10.41227 M8.836777,81.22819 L9.414089,81.90251 L8.951162,82.65995 L8.087746,82.45374 L8.017052,81.56886 L8.836777,81.22819 M6.8150344,80.23654 L10.334751,80.01856 L10.552735,83.53828 L7.033019,83.75626 L6.8150344,80.23654 M82.1051,89.68851 L82.62505,90.29584 L82.20812,90.978004 L81.430504,90.79229 L81.36683,89.99533 L82.1051,89.68851 M84.28191,89.56478 L82.66726,92.5641 L79.66793,90.949455 L81.282585,87.95013 L84.28191,89.56478 M17.203869,34.162724 L17.287954,31.732838 L19.624899,31.061934 L20.985123,33.07718 L19.488844,34.993572 L17.203869,34.162724 M22.503674,31.450592 L22.250765,32.15408 L21.503555,32.130936 L21.294664,31.413147 L21.912771,30.992672 L22.503674,31.450592 M18.738033,30.089483 L18.656445,29.71678 L18.985695,29.524014 L19.270771,29.77758 L19.117708,30.12706 L18.738033,30.089483 M20.872526,35.012657 L21.095549,35.225548 L20.961992,35.50344 L20.65643,35.4623 L20.601135,35.158974 L20.872526,35.012657 M20.341925,30.594227 L20.18996,30.414824 L20.313622,30.214859 L20.542013,30.270674 L20.559507,30.505136 L20.341925,30.594227 M24.180721,30.892038 L21.241484,37.123882 L15.009638,34.184647 L17.948875,27.9528 L24.180721,30.892038 M90.49152,32.837814 L91.04898,33.48895 L90.601974,34.22033 L89.768265,34.021214 L89.7,33.166775 L90.49152,32.837814 M88.62822,35.283646 L88.53448,31.75843 L92.05969,31.66469 L92.15343,35.189903 L88.62822,35.283646 M13.272766,77.15893 L13.899956,77.89152 L13.397034,78.71439 L12.45902,78.49037 L12.382218,77.52904 L13.272766,77.15893 M13.754491,80.437935 L10.528189,78.49391 L12.47221,75.26761 L15.698512,77.21163 L13.754491,80.437935 M89.874825,19.074068 L90.24647,18.8817 L90.544266,19.175716 L90.35667,19.549795 L89.942924,19.486973 L89.874825,19.074068 M89.694016,17.458445 L91.97938,18.86881 L90.569016,21.154177 L88.283646,19.743809 L89.694016,17.458445 M12.971118,47.47172 L13.416534,47.99199 L13.05937,48.576374 L12.393215,48.41728 L12.338673,47.734562 L12.971118,47.47172 M11.933615,45.822205 L14.991863,47.024776 L13.789293,50.083023 L10.731045,48.880455 L11.933615,45.822205 M33.78452,80.4627 L34.37103,81.14777 L33.900726,81.917274 L33.023556,81.70778 L32.951736,80.8088 L33.78452,80.4627 M35.744175,79.79879 L34.956795,83.23623 L31.519361,82.44885 L32.30674,79.01141 L35.744175,79.79879 M47.627163,90.14306 L47.936184,90.50401 L47.68839,90.90945 L47.226223,90.79907 L47.18838,90.32541 L47.627163,90.14306 M46.161625,91.89596 L46.13354,89.09045 L48.939056,89.062355 L48.967144,91.867874 L46.161625,91.89596 M75.98528,8.871141 L76.66861,8.776538 L76.96974,9.397187 L76.47253,9.875373 L75.8641,9.550259 L75.98528,8.871141 M78.436295,9.924095 L75.655624,11.437968 L74.141754,8.657301 L76.92242,7.1434274 L78.436295,9.924095 M70.62486,84.46781 L71.38537,84.36252 L71.72051,85.05327 L71.16714,85.58546 L70.48999,85.223625 L70.62486,84.46781 M73.18249,85.64989 L70.25664,87.146034 L68.76049,84.22018 L71.68634,82.72404 L73.18249,85.64989 M16.816097,72.8469 L17.19928,73.29448 L16.89202,73.79721 L16.31894,73.66035 L16.272018,73.07302 L16.816097,72.8469 M18.932663,72.86643 L17.10539,75.451965 L14.519854,73.624695 L16.347128,71.039154 L18.932663,72.86643 M53.58084,91.53652 L53.887497,91.894714 L53.6416,92.29705 L53.182972,92.187515 L53.14542,91.71748 L53.58084,91.53652 M54.90582,93.274536 L52.100166,93.27134 L52.10336,90.46569 L54.909016,90.46889 L54.90582,93.274536 M79.70053,68.48805 L80.06088,68.90897 L79.77193,69.38176 L79.23299,69.253044 L79.18886,68.70071 L79.70053,68.48805 M78.27034,70.56404 L77.92596,67.53765 L80.952354,67.19327 L81.29673,70.219666 L78.27034,70.56404 M47.957104,9.161208 L48.79985,10.145579 L48.12408,11.251267 L46.86368,10.950248 L46.760487,9.65852 L47.957104,9.161208 M50.134636,8.637953 L49.22862,12.541176 L45.325394,11.635158 L46.231415,7.7319345 L50.134636,8.637953 M66.52327,21.409319 L66.79302,21.724407 L66.57671,22.07833 L66.17327,21.981976 L66.140236,21.568504 L66.52327,21.409319 M65.93064,19.856401 L68.28599,21.146498 L66.995895,23.501848 L64.64054,22.211752 L65.93064,19.856401 M9.877169,53.775463 L9.41473,53.86936 L9.182526,53.458576 L9.501454,53.110794 L9.930767,53.306644 L9.877169,53.775463 M11.293946,54.436783 L8.55533,55.046448 L7.9456654,52.307835 L10.68428,51.698166 L11.293946,54.436783 M90.973595,13.780345 L91.40433,14.28346 L91.05894,14.84858 L90.41475,14.694729 L90.362,14.034523 L90.973595,13.780345 M92.62682,13.019959 L92.10136,16.020216 L89.101105,15.49475 L89.62657,12.4944935 L92.62682,13.019959 M31.553452,13.277956 L32.17157,13.999949 L31.675922,14.810923 L30.751478,14.590138 L30.675787,13.642713 L31.553452,13.277956 M33.764374,12.953473 L32.409645,16.339083 L29.024033,14.984353 L30.378763,11.598743 L33.764374,12.953473 M43.830193,10.483088 L42.162643,9.694566 L42.951164,8.027015 L44.618713,8.8155365 L43.830193,10.483088 M64.017845,18.486042 L63.945827,18.709852 L63.710716,18.71052 L63.63743,18.48712 L63.827248,18.348385 L64.017845,18.486042 M62.227665,19.222458 L63.008057,17.032213 L65.1983,17.812603 L64.417915,20.002848 L62.227665,19.222458 M74.06534,78.611465 L73.93156,80.812386 L71.73063,80.678604 L71.86441,78.477684 L74.06534,78.611465 M90.319756,71.916016 L90.19936,70.07536 L92.04001,69.95497 L92.16041,71.795616 L90.319756,71.916016 M91.18289,49.207153 L89.20076,48.241173 L90.16673,46.25904 L92.148865,47.225018 L91.18289,49.207153 M79.44604,27.61406 L79.95847,27.543116 L80.184296,28.008547 L79.811424,28.367144 L79.355156,28.123337 L79.44604,27.61406 M77.78053,27.065416 L80.523705,26.047937 L81.541176,28.79111 L78.79801,29.808586 L77.78053,27.065416 M68.007744,88.403496 L68.35986,88.81479 L68.077515,89.27677 L67.550896,89.15099 L67.507774,88.61128 L68.007744,88.403496 M69.914444,88.20463 L68.49147,90.76107 L65.93503,89.3381 L67.357994,86.781654 L69.914444,88.20463 M9.074347,78.10516 L6.8713245,78.19822 L6.7782707,75.99519 L8.981293,75.90214 L9.074347,78.10516 M30.946268,78.71586 L30.030693,80.4542 L28.292349,79.53863 L29.207926,77.80028 L30.946268,78.71586 M10.573394,45.35403 L10.035236,47.36823 L8.021037,46.830074 L8.559195,44.815876 L10.573394,45.35403 M87.06075,56.418472 L87.452484,58.22098 L85.64997,58.61271 L85.25825,56.8102 L87.06075,56.418472 M8.810687,65.22569 L9.490861,66.67869 L8.037867,67.358864 L7.357692,65.90587 L8.810687,65.22569 M24.398674,76.87977 L22.987265,75.692154 L24.174873,74.28075 L25.586283,75.46835 L24.398674,76.87977 M91.86618,7.823985 L91.98736,8.025464 L91.83319,8.202974 L91.61672,8.111203 L91.637115,7.876975 L91.86618,7.823985 M90.60866,9.13799 L90.7204,6.8155565 L93.04283,6.9272957 L92.93109,9.249729 L90.60866,9.13799 M84.40223,31.026339 L84.572945,31.406874 L84.26379,31.686821 L83.90201,31.479305 L83.98757,31.071104 L84.40223,31.026339 M83.820694,29.37489 L86.13521,30.7369 L84.77319,33.05141 L82.45869,31.689398 L83.820694,29.37489 M30.187311,6.9138603 L30.443565,8.619164 L28.738262,8.875419 L28.482008,7.170115 L30.187311,6.9138603 M8.663146,9.586047 L7.562725,8.258342 L8.89043,7.1579204 L9.990852,8.485626 L8.663146,9.586047 M17.613325,92.421684 L16.530031,91.81029 L17.141422,90.727 L18.224716,91.33839 L17.613325,92.421684 M91.95933,26.779697 L93.05182,27.04302 L92.7885,28.135515 L91.69601,27.87219 L91.95933,26.779697 M91.89684,74.372314 L92.01803,74.57379 L91.86385,74.751305 L91.64739,74.65953 L91.66778,74.42531 L91.89684,74.372314 M93.14615,75.60479 L90.8362,75.86995 L90.57104,73.56 L92.88099,73.29484 L93.14615,75.60479 M6.975191,59.671555 L6.8405757,58.072895 L8.439235,57.938282 L8.57385,59.536938 L6.975191,59.671555 M9.540902,48.93266 L9.038998,50.58245 L7.3892035,50.080547 L7.891108,48.430756 L9.540902,48.93266 M30.136255,19.994118 L29.598661,21.63263 L27.960148,21.095036 L28.497744,19.456524 L30.136255,19.994118 M8.356227,13.610953 L8.373106,15.215181 L6.768878,15.23206 L6.751999,13.627832 L8.356227,13.610953 M74.213745,81.86285 L74.63281,82.90557 L73.590096,83.32463 L73.17103,82.28191 L74.213745,81.86285 M35.252777,86.39606 L34.213215,85.71295 L34.896324,84.673386 L35.935886,85.3565 L35.252777,86.39606 M85.78491,17.10396 L85.25165,18.093159 L84.26245,17.559896 L84.79571,16.570698 L85.78491,17.10396 M26.44404,92.44228 L25.018621,91.27152 L26.189379,89.84611 L27.614798,91.01686 L26.44404,92.44228 M91.69664,44.63495 L90.81807,43.754364 L91.698654,42.87579 L92.577225,43.756374 L91.69664,44.63495 M28.202436,77.263794 L27.135593,78.295616 L26.103779,77.22877 L27.170622,76.19695 L28.202436,77.263794 M78.44658,88.66484 L78.499146,90.74903 L76.414955,90.80159 L76.36239,88.7174 L78.44658,88.66484 M22.780323,72.49044 L22.19756,73.72373 L20.964266,73.140976 L21.547028,71.90768 L22.780323,72.49044 M38.27767,81.31706 L38.12759,82.67284 L36.771824,82.52275 L36.9219,81.166985 L38.27767,81.31706 M65.54039,92.490105 L64.32719,91.635155 L65.18214,90.42195 L66.39534,91.27689 L65.54039,92.490105 M31.00179,19.225203 L29.369293,18.366457 L30.228039,16.73396 L31.860537,17.592705 L31.00179,19.225203 M35.815742,91.82087 L36.78971,90.54603 L38.06455,91.52 L37.090584,92.79484 L35.815742,91.82087 M80.75903,63.6726 L81.758446,63.764668 L81.66638,64.764084 L80.66696,64.67201 L80.75903,63.6726 M58.95742,18.951336 L58.85631,18.194683 L59.612965,18.093573 L59.714073,18.850225 L58.95742,18.951336 M10.838151,86.586365 L9.363476,86.75408 L9.195759,85.27941 L10.670434,85.111694 L10.838151,86.586365 M91.7905,78.52139 L92.998344,78.81877 L92.700966,80.02662 L91.49312,79.72924 L91.7905,78.52139 M75.480865,84.6693 L76.036,85.78246 L74.92284,86.3376 L74.36769,85.224434 L75.480865,84.6693 M40.536415,7.023582 L40.37359,8.256794 L39.140377,8.0939665 L39.303204,6.860755 L40.536415,7.023582 M8.6651125,11.672781 L7.6718135,11.816526 L7.5280676,10.823227 L8.521367,10.6794815 L8.6651125,11.672781 M13.461498,27.391933 L14.50057,26.708082 L15.184422,27.747156 L14.145349,28.431005 L13.461498,27.391933 M73.7912,11.494414 L74.79039,12.235321 L74.049484,13.234511 L73.05029,12.493605 L73.7912,11.494414 M50.406235,12.808625 L51.7771,13.377419 L51.208305,14.748284 L49.83744,14.179489 L50.406235,12.808625 M76.62635,72.092766 L75.856804,71.27381 L76.67576,70.50427 L77.445305,71.32323 L76.62635,72.092766 M89.597824,29.290829 L90.54486,28.685846 L91.14984,29.632885 L90.202805,30.237865 L89.597824,29.290829 M7.1763105,25.916342 L8.293566,25.795412 L8.414495,26.912666 L7.2972403,27.033596 L7.1763105,25.916342 M91.51899,56.759323 L91.807365,57.72065 L90.84604,58.009026 L90.55766,57.047703 L91.51899,56.759323 M62.680073,8.420567 L62.90766,6.953937 L64.37429,7.1815248 L64.146706,8.648154 L62.680073,8.420567 M86.12094,91.28409 L86.4,92.49629 L85.1878,92.77535 L84.90874,91.56315 L86.12094,91.28409 M91.28933,11.206689 L90.40642,11.239341 L90.373764,10.356432 L91.256676,10.32378 L91.28933,11.206689 M92.77782,81.923355 L93.05789,83.13533 L91.84592,83.415405 L91.56584,82.20343 L92.77782,81.923355 M57.32579,91.95355 L57.53832,92.81112 L56.680748,93.02365 L56.46822,92.166084 L57.32579,91.95355 M92.98735,21.309406 L93.02615,22.071798 L92.26376,22.110603 L92.22495,21.348211 L92.98735,21.309406 M64.354774,15.32238 L65.17524,15.650146 L64.84747,16.470612 L64.02701,16.142845 L64.354774,15.32238 M8.2612505,18.19917 L8.05157,19.303215 L6.947524,19.093534 L7.157205,17.989489 L8.2612505,18.19917 M68.85359,92.364685 L69.61225,92.279915 L69.69702,93.038574 L68.93836,93.123344 L68.85359,92.364685 M25.178715,8.517981 L25.465351,6.939478 L27.043854,7.226114 L26.757217,8.804616 L25.178715,8.517981 M15.667625,90.56771 L15.050833,91.200294 L14.41825,90.5835 L15.035042,89.95092 L15.667625,90.56771 M8.225622,34.694088 L6.981735,34.702446 L6.9733777,33.45856 L8.217264,33.450203 L8.225622,34.694088 M48.18113,87.70347 L47.216698,87.425674 L47.494495,86.461235 L48.458927,86.73904 L48.18113,87.70347 M69.5194,24.946682 L68.579475,24.59476 L68.9314,23.654837 L69.87132,24.006758 L69.5194,24.946682 M25.261965,28.443913 L25.149458,29.441233 L24.152138,29.328726 L24.264645,28.331406 L25.261965,28.443913 M18.45843,39.854694 L18.688972,38.877884 L19.665783,39.10843 L19.43524,40.085236 L18.45843,39.854694 M81.915306,17.417875 L82.59545,17.071249 L82.94208,17.751394 L82.26193,18.09802 L81.915306,17.417875 M94.34315,94.34315 L5.656854,94.34315 L5.656854,5.656854 L94.34315,5.656854 L94.34315,94.34315" fill="none" stroke="black" stroke-width="0.35" style="mix-blend-mode: multiply;"/>
</g>
</svg>