<svg height="100mm" style="background:white" viewBox="0 0 100 100" width="100mm" xmlns="http://www.w3.org/2000/svg" xmlns:inkscape="http://www.inkscape.org/namespaces/inkscape">
<g inkscape:groupmode="layer" inkscape:label="black">
<path d="M36.167103,61.242466 L19.016537,47.675056 L32.583942,30.524494 L49.73451,44.0919 L36.167103,61.242466 M59.9223,70.925934 L76.26323,56.39354 L90.79562,72.73447 L74.45469,87.26686 L59.9223,70.925934 M67.810905,23.243744 L88.7711,29.479645 L82.5352,50.439842 L61.575005,44.203945 L67.810905,23.243744 M60.009308,88.233185 L38.248528,90.39763 L36.084084,68.63684 L57.844864,66.472404 L60.009308,88.233185 M30.499321,88.54731 L8.723474,86.540115 L10.730673,64.76427 L32.50652,66.77146 L30.499321,88.54731 M33.866898,22.93411 L51.06244,9.423756 L64.57279,26.619299 L47.37725,40.129654 L33.866898,22.93411 M28.3064,8.085228 L35.36543,27.16872 L16.281935,34.22775 L9.222907,15.144256 L28.3064,8.085228 M53.783398,61.232 L50.314686,48.269558 L63.277122,44.800846 L66.745834,57.763283 L53.783398,61.232 M83.075485,10.898907 L80.2301,25.1343 L65.994705,22.288916 L68.840096,8.053522 L83.075485,10.898907 M18.659693,46.893787 L11.668155,40.794323 L17.767618,33.802784 L24.759157,39.90225 L18.659693,46.893787 M15.553474,51.27524 L26.659565,53.805225 L24.12958,64.911316 L13.023489,62.381332 L15.553474,51.27524 M91.935745,50.958416 L91.886444,61.250458 L81.594406,61.20116 L81.6437,50.90912 L91.935745,50.958416 M40.01431,14.887841 L33.202477,15.354666 L32.73565,8.542832 L39.547485,8.076009 L40.01431,14.887841 M84.29288,91.91046 L79.01237,84.28149 L86.64134,79.00098 L91.92186,86.62995 L84.29288,91.91046 M44.078995,60.62468 L50.729965,56.47042 L54.884228,63.12139 L48.233257,67.27565 L44.078995,60.62468 M91.499054,13.2921915 L91.91372,22.1382 L83.06771,22.552872 L82.653046,13.706863 L91.499054,13.2921915 M55.923397,11.145187 L63.789227,8.104083 L66.83033,15.96991 L58.9645,19.011015 L55.923397,11.145187 M71.21378,60.266163 L65.807846,53.358902 L72.71511,47.952965 L78.12105,54.860226 L71.21378,60.266163 M65.284386,88.99332 L65.0086,83.355194 L70.64671,83.07941 L70.92251,88.71752 L65.284386,88.99332 M42.805946,61.595333 L43.527424,67.70472 L37.418037,68.4262 L36.69656,62.31681 L42.805946,61.595333 M56.064465,33.38513 L60.95839,37.385433 L56.958088,42.279358 L52.064163,38.279057 L56.064465,33.38513 M26.462358,65.49668 L25.189383,60.60626 L30.07981,59.333282 L31.352783,64.22371 L26.462358,65.49668 M8.080295,30.65778 L12.506887,28.220158 L14.9445095,32.64675 L10.517917,35.084373 L8.080295,30.65778 M64.10817,77.18233 L65.36621,82.16381 L60.384724,83.421844 L59.126686,78.44036 L64.10817,77.18233 M9.370035,50.570786 L14.332898,50.32611 L14.577575,55.288975 L9.614712,55.53365 L9.370035,50.570786 M91.93699,46.183388 L88.445305,49.718647 L84.91005,46.226967 L88.401726,42.69171 L91.93699,46.183388 M50.048386,54.334045 L45.906563,58.767776 L41.472836,54.625954 L45.614655,50.192223 L50.048386,54.334045 M31.088146,83.181046 L35.84139,82.51342 L36.50901,87.26666 L31.755768,87.93428 L31.088146,83.181046 M83.97246,22.58957 L89.27878,22.666403 L89.20194,27.972723 L83.89562,27.89589 L83.97246,22.58957 M15.968157,44.667698 L15.527171,49.70181 L10.493062,49.260822 L10.934048,44.226715 L15.968157,44.667698 M58.350323,65.50776 L61.15174,61.10034 L65.55916,63.901764 L62.757736,68.30917 L58.350323,65.50776 M67.768234,63.828484 L64.814255,60.95085 L67.69188,57.99687 L70.64587,60.8745 L67.768234,63.828484 M55.1882,46.895042 L50.21958,46.843502 L50.271122,41.874878 L55.239746,41.92642 L55.1882,46.895042 M61.642365,22.756302 L60.386166,18.917166 L64.2253,17.660969 L65.4815,21.500107 L61.642365,22.756302 M44.76281,14.266085 L40.8819,12.43095 L42.717037,8.550042 L46.597942,10.385177 L44.76281,14.266085 M86.83214,61.301163 L90.39445,64.260086 L87.43552,67.822395 L83.87321,64.86347 L86.83214,61.301163 M63.344517,35.406574 L59.40883,33.49029 L61.32511,29.554604 L65.2608,31.470888 L63.344517,35.406574 M60.502792,86.421036 L64.772255,87.38718 L63.806118,91.65665 L59.53665,90.690506 L60.502792,86.421036 M85.5123,40.802544 L87.932785,36.954025 L91.7813,39.374516 L89.36082,43.22303 L85.5123,40.802544 M79.22348,90.43722 L75.35451,90.54385 L75.24786,86.67489 L79.11684,86.568245 L79.22348,90.43722 M66.532616,50.96653 L64.67181,47.96393 L67.67441,46.103123 L69.53522,49.105724 L66.532616,50.96653 M11.296274,8.7020035 L15.139367,9.161276 L14.680095,13.004368 L10.837002,12.545096 L11.296274,8.7020035 M8.053116,63.58445 L8.561649,59.32176 L12.824343,59.83029 L12.31581,64.09299 L8.053116,63.58445 M89.69627,8.435756 L91.01778,12.073603 L87.37993,13.3951025 L86.058426,9.757255 L89.69627,8.435756 M35.029926,67.15523 L31.462372,65.448166 L33.169434,61.88061 L36.736988,63.587677 L35.029926,67.15523 M20.148438,87.78227 L21.162485,90.9005 L18.044264,91.91454 L17.030214,88.79632 L20.148438,87.78227 M62.238316,41.412224 L60.64358,44.564217 L57.49159,42.969482 L59.086323,39.81749 L62.238316,41.412224 M75.073135,87.49308 L74.67307,91.42773 L70.73843,91.027664 L71.13849,87.09302 L75.073135,87.49308 M38.277702,58.865147 L41.17984,56.433903 L43.611084,59.336044 L40.708946,61.76729 L38.277702,58.865147 M34.339287,31.801886 L36.422253,28.64046 L39.58368,30.723423 L37.500713,33.88485 L34.339287,31.801886 M23.30489,35.54003 L24.25269,31.353046 L28.439674,32.300846 L27.491875,36.48783 L23.30489,35.54003 M9.584293,27.077623 L9.522465,24.137295 L12.462793,24.075466 L12.524622,27.015795 L9.584293,27.077623 M12.645657,87.10215 L13.546111,91.03994 L9.608321,91.94039 L8.707867,88.0026 L12.645657,87.10215 M78.28056,55.22937 L77.33742,52.00085 L80.56593,51.057705 L81.50908,54.286224 L78.28056,55.22937 M54.78159,65.28373 L55.02651,61.9292 L58.38104,62.174118 L58.13612,65.52865 L54.78159,65.28373 M35.70633,87.994995 L35.86291,91.7777 L32.08021,91.93429 L31.923626,88.15158 L35.70633,87.994995 M36.994194,78.531 L37.11799,82.14583 L33.50316,82.26962 L33.379364,78.65479 L36.994194,78.531 M16.407837,87.42464 L17.44348,90.26734 L14.600779,91.30298 L13.565137,88.46028 L16.407837,87.42464 M12.198089,43.14115 L8.954577,44.03138 L8.064352,40.78787 L11.307863,39.89764 L12.198089,43.14115 M67.05075,25.432146 L64.464226,26.161882 L63.734493,23.575363 L66.321014,22.845627 L67.05075,25.432146 M36.66755,18.654549 L36.24927,15.658127 L39.245693,15.239848 L39.66397,18.23627 L36.66755,18.654549 M32.982174,17.234077 L35.75959,16.266954 L36.72671,19.044369 L33.9493,20.011492 L32.982174,17.234077 M91.03404,74.776825 L91.91182,77.76035 L88.92829,78.63812 L88.050514,75.654594 L91.03404,74.776825 M33.67453,73.66074 L36.511383,75.6205 L34.55162,78.45736 L31.714767,76.4976 L33.67453,73.66074 M91.397385,36.264412 L88.0736,35.74931 L88.5887,32.425526 L91.91248,32.940628 L91.397385,36.264412 M88.7996,81.882675 L88.25323,78.821075 L91.314835,78.274704 L91.8612,81.3363 L88.7996,81.882675 M15.742275,48.078163 L18.76729,47.35622 L19.489233,50.381233 L16.464218,51.103176 L15.742275,48.078163 M61.196033,73.91029 L63.324764,75.55076 L61.684303,77.67949 L59.555573,76.039024 L61.196033,73.91029 M13.862235,38.153843 L10.969912,38.686592 L10.437163,35.79427 L13.329487,35.26152 L13.862235,38.153843 M25.801231,88.469185 L26.062082,91.652985 L22.878283,91.91384 L22.617432,88.73004 L25.801231,88.469185 M57.398697,90.99339 L54.99199,91.356895 L54.62849,88.95019 L57.0352,88.58669 L57.398697,90.99339 M35.388412,72.21478 L32.792362,71.51972 L33.487423,68.92367 L36.083477,69.61873 L35.388412,72.21478 M47.315647,47.505035 L49.950207,49.157616 L48.297623,51.792175 L45.663067,50.13959 L47.315647,47.505035 M62.18147,59.0724 L64.52891,58.973866 L64.62744,61.321304 L62.280003,61.419838 L62.18147,59.0724 M49.6597,40.12072 L51.308968,38.21737 L53.21232,39.866634 L51.56305,41.769985 L49.6597,40.12072 M18.678534,11.24579 L15.505562,11.615753 L15.135598,8.442781 L18.30857,8.072818 L18.678534,11.24579 M88.50484,67.57774 L91.33888,67.22047 L91.69616,70.05452 L88.86211,70.41179 L88.50484,67.57774 M13.777882,56.366787 L12.968019,59.281857 L10.052951,58.471992 L10.862814,55.556923 L13.777882,56.366787 M55.772907,45.228165 L56.590168,42.935467 L58.882862,43.752728 L58.065605,46.04542 L55.772907,45.228165 M29.670614,59.368828 L27.351086,58.631165 L28.088749,56.311634 L30.408278,57.049297 L29.670614,59.368828 M70.18474,89.604805 L70.61565,91.48303 L68.73742,91.91394 L68.30651,90.03571 L70.18474,89.604805 M80.62834,23.573284 L83.3147,23.49507 L83.39291,26.181421 L80.70656,26.259636 L80.62834,23.573284 M30.845497,31.479055 L28.634295,32.496376 L27.616974,30.285175 L29.828176,29.267855 L30.845497,31.479055 M38.41349,32.744995 L41.059235,32.273148 L41.531082,34.91889 L38.88534,35.39074 L38.41349,32.744995 M65.89948,11.8502 L64.62353,9.484924 L66.9888,8.208964 L68.26476,10.574241 L65.89948,11.8502 M79.86646,58.93639 L77.5333,57.439632 L79.03006,55.106472 L81.36322,56.60323 L79.86646,58.93639 M55.32428,8.807507 L57.382465,8.087429 L58.102543,10.145612 L56.04436,10.86569 L55.32428,8.807507 M83.07398,10.407722 L86.06824,9.974201 L86.501755,12.968455 L83.5075,13.401977 L83.07398,10.407722 M85.49804,50.855526 L83.61718,49.44751 L85.02519,47.566643 L86.90606,48.974663 L85.49804,50.855526 M60.84488,86.42898 L61.10322,84.34894 L63.183254,84.607285 L62.92491,86.68732 L60.84488,86.42898 M53.25122,91.43304 L50.853977,91.85445 L50.43257,89.45721 L52.82981,89.0358 L53.25122,91.43304 M26.211727,36.790424 L25.488554,39.11451 L23.164467,38.391335 L23.88764,36.06725 L26.211727,36.790424 M48.416515,9.53948 L46.94686,10.650795 L45.835545,9.181141 L47.3052,8.069826 L48.416515,9.53948 M63.744423,27.374708 L66.22705,28.157085 L65.44468,30.639717 L62.962044,29.85734 L63.744423,27.374708 M90.03325,91.546165 L88.28304,89.73519 L90.09402,87.98499 L91.84422,89.79596 L90.03325,91.546165 M53.95513,8.738646 L55.807346,10.445139 L54.100857,12.297356 L52.24864,10.590863 L53.95513,8.738646 M66.467354,89.49823 L68.29097,89.76152 L68.02769,91.58514 L66.20407,91.32185 L66.467354,89.49823 M75.24835,50.617947 L75.634125,48.643764 L77.60831,49.02954 L77.222534,51.003723 L75.24835,50.617947 M16.450533,35.218582 L14.510516,36.68851 L13.040586,34.748493 L14.980604,33.278564 L16.450533,35.218582 M23.237104,35.45133 L21.570547,36.7225 L20.29938,35.055943 L21.965935,33.784775 L23.237104,35.45133 M9.033078,23.500158 L8.089082,21.441244 L10.147997,20.497248 L11.091993,22.556164 L9.033078,23.500158 M8.078368,12.881356 L9.83221,11.448072 L11.265493,13.201913 L9.511652,14.635197 L8.078368,12.881356 M29.14276,91.6092 L26.538849,90.94418 L27.203865,88.34027 L29.807775,89.00529 L29.14276,91.6092 M79.54926,91.39995 L80.08095,89.198235 L82.28267,89.72992 L81.750984,91.93163 L79.54926,91.39995 M91.14616,28.201448 L91.93215,30.41558 L89.71802,31.201574 L88.93202,28.98744 L91.14616,28.201448 M10.188429,37.239693 L10.78998,39.335587 L8.694087,39.937138 L8.092536,37.841248 L10.188429,37.239693 M8.073181,10.114896 L9.5407915,8.618434 L11.037253,10.086045 L9.569643,11.582507 L8.073181,10.114896 M33.031796,60.748478 L30.781443,61.423813 L30.10611,59.17346 L32.356464,58.498123 L33.031796,60.748478 M31.061726,12.44156 L32.864136,12.823945 L32.48175,14.626355 L30.67934,14.24397 L31.061726,12.44156 M29.550465,11.242967 L30.430178,8.973503 L32.699642,9.853215 L31.81993,12.12268 L29.550465,11.242967 M8.318351,18.936129 L10.169814,18.40181 L10.704134,20.253273 L8.852671,20.787594 L8.318351,18.936129 M10.031625,67.270645 L8.066314,66.84197 L8.494987,64.87666 L10.460298,65.305336 L10.031625,67.270645 M33.15024,28.403442 L35.07873,29.224548 L34.257626,31.153036 L32.329136,30.33193 L33.15024,28.403442 M47.928207,91.7509 L45.753063,91.90376 L45.600204,89.728615 L47.77535,89.57575 L47.928207,91.7509 M43.324604,65.29148 L44.7766,63.444355 L46.623726,64.89635 L45.17173,66.74348 L43.324604,65.29148 M62.523758,39.83463 L60.450016,38.923664 L61.360977,36.849922 L63.43472,37.760887 L62.523758,39.83463 M91.911385,25.751963 L91.26133,27.56603 L89.447266,26.915977 L90.09732,25.101908 L91.911385,25.751963 M22.091335,50.895943 L21.6893,52.607384 L19.977858,52.20535 L20.379892,50.493908 L22.091335,50.895943 M58.99336,35.400566 L60.33017,34.01263 L61.7181,35.349438 L60.381294,36.737373 L58.99336,35.400566 M60.3369,70.26298 L58.425377,68.623184 L60.06517,66.71166 L61.976692,68.351456 L60.3369,70.26298 M22.2592,9.955945 L20.876513,10.739025 L20.093431,9.3563385 L21.476118,8.573257 L22.2592,9.955945 M40.977856,14.373436 L42.043545,15.978964 L40.43802,17.044655 L39.372326,15.439127 L40.977856,14.373436 M67.153114,79.226585 L67.39068,80.96849 L65.64877,81.20605 L65.41121,79.46414 L67.153114,79.226585 M43.112152,35.83346 L44.60198,36.76678 L43.66866,38.256607 L42.178833,37.323288 L43.112152,35.83346 M50.879272,51.28498 L51.19247,53.186382 L49.291073,53.49958 L48.97787,51.59818 L50.879272,51.28498 M82.22017,8.469795 L84.199936,8.113825 L84.55591,10.0935955 L82.57613,10.449567 L82.22017,8.469795 M47.200882,41.788105 L47.343597,40.20549 L48.926212,40.34821 L48.783497,41.930824 L47.200882,41.788105 M12.899078,62.43125 L14.772904,62.88091 L14.323248,64.75474 L12.449422,64.30508 L12.899078,62.43125 M52.54592,10.052775 L51.329647,9.319835 L52.062584,8.10356 L53.278862,8.8365 L52.54592,10.052775 M48.695374,48.270798 L47.710835,46.814312 L49.16732,45.829773 L50.15186,47.28626 L48.695374,48.270798 M8.084089,48.106556 L8.197557,46.43687 L9.86724,46.55034 L9.753772,48.220024 L8.084089,48.106556 M31.841322,89.71223 L31.72375,91.80494 L29.631033,91.68737 L29.748606,89.59465 L31.841322,89.71223 M60.22138,73.59007 L58.639088,73.44377 L58.785385,71.86149 L60.367672,72.00778 L60.22138,73.59007 M91.63332,49.20503 L91.059616,50.866814 L89.39783,50.293102 L89.97154,48.631317 L91.63332,49.20503 M33.556515,67.17664 L35.229366,67.22443 L35.181583,68.89728 L33.50873,68.849495 L33.556515,67.17664 M71.18711,47.16588 L70.964935,48.824596 L69.30621,48.60242 L69.52839,46.9437 L71.18711,47.16588 M10.254459,46.371735 L8.496787,46.407177 L8.461343,44.649506 L10.219015,44.61406 L10.254459,46.371735 M21.0705,89.91014 L20.852722,88.3361 L22.426765,88.11832 L22.644543,89.69236 L21.0705,89.91014 M82.685104,63.497112 L82.52648,61.57663 L84.44697,61.41801 L84.60558,63.338493 L82.685104,63.497112 M66.01118,91.046715 L64.42236,91.07336 L64.39572,89.48454 L65.984535,89.4579 L66.01118,91.046715 M35.9415,89.69197 L37.292923,88.856094 L38.128803,90.20751 L36.77738,91.043396 L35.9415,89.69197 M10.124749,70.520035 L8.369172,70.61287 L8.276337,68.85729 L10.031914,68.76446 L10.124749,70.520035 M49.712803,54.78258 L51.272686,54.176388 L51.878883,55.73627 L50.318996,56.342464 L49.712803,54.78258 M86.19046,76.92176 L87.78817,77.41979 L87.29014,79.0175 L85.69243,78.51947 L86.19046,76.92176 M37.662525,62.136116 L36.50246,60.9299 L37.708675,59.769833 L38.868744,60.97605 L37.662525,62.136116 M87.042885,43.933743 L85.20386,44.047142 L85.090454,42.20811 L86.92949,42.094707 L87.042885,43.933743 M91.66076,44.16088 L89.90861,44.01722 L90.05227,42.265068 L91.80442,42.40873 L91.66076,44.16088 M8.064079,74.8773 L8.203254,73.20956 L9.87099,73.34873 L9.731816,75.01647 L8.064079,74.8773 M91.24641,22.23798 L91.34007,24.078123 L89.49992,24.171785 L89.406265,22.331642 L91.24641,22.23798 M59.006256,61.90974 L58.6136,60.10954 L60.413803,59.716885 L60.806458,61.517086 L59.006256,61.90974 M67.67369,13.1901045 L66.1388,13.857051 L65.471855,12.322157 L67.00675,11.655211 L67.67369,13.1901045 M8.848238,29.355835 L8.689473,27.68985 L10.355459,27.531086 L10.514224,29.197071 L8.848238,29.355835 M59.23742,90.46915 L57.39519,90.43586 L57.42848,88.593636 L59.270702,88.62692 L59.23742,90.46915 M45.417274,89.80961 L45.528378,91.64879 L43.689205,91.75989 L43.578102,89.920715 L45.417274,89.80961 M36.681705,61.732986 L35.906597,63.120163 L34.519424,62.345055 L35.29453,60.957882 L36.681705,61.732986 M33.93546,73.46862 L32.69612,73.966354 L32.19839,72.72702 L33.437725,72.22929 L33.93546,73.46862 M52.73416,66.459175 L51.432148,67.026 L50.865322,65.72399 L52.16733,65.157166 L52.73416,66.459175 M57.878193,34.510693 L56.881496,33.062496 L58.329693,32.065804 L59.326385,33.513996 L57.878193,34.510693 M8.155147,58.455097 L8.834222,57.112526 L10.176794,57.7916 L9.497719,59.134174 L8.155147,58.455097 M31.565567,77.88209 L33.23572,77.775764 L33.342045,79.445915 L31.67189,79.55224 L31.565567,77.88209 M78.73402,9.73099 L78.44907,8.339828 L79.84024,8.054885 L80.12518,9.446048 L78.73402,9.73099 M81.52548,59.374588 L80.75195,60.66505 L79.461494,59.891525 L80.235016,58.60106 L81.52548,59.374588 M48.444714,89.57811 L50.370846,89.63667 L50.312283,91.562805 L48.38615,91.50424 L48.444714,89.57811 M37.0607,66.33549 L36.370796,67.37911 L35.327168,66.68921 L36.01707,65.645584 L37.0607,66.33549 M45.709766,38.161873 L45.28116,39.604073 L43.83896,39.175465 L44.267567,37.733265 L45.709766,38.161873 M90.38348,63.347137 L89.71262,62.00044 L91.05932,61.329586 L91.73017,62.676285 L90.38348,63.347137 M16.536732,65.1595 L15.194292,64.48016 L15.873627,63.137722 L17.216068,63.81706 L16.536732,65.1595 M54.828995,12.675452 L56.313335,12.42973 L56.559055,13.91407 L55.074715,14.159792 L54.828995,12.675452 M91.014496,38.019974 L89.43743,37.8253 L89.63211,36.24823 L91.209175,36.44291 L91.014496,38.019974 M88.32623,90.154945 L88.87348,91.37323 L87.6552,91.92048 L87.10795,90.702194 L88.32623,90.154945 M20.788118,33.81667 L20.125755,35.072777 L18.86965,34.41041 L19.532013,33.154305 L20.788118,33.81667 M91.91027,81.91422 L91.849174,83.24837 L90.51502,83.18728 L90.57612,81.85313 L91.91027,81.91422 M8.348612,18.230751 L8.295716,16.811691 L9.714775,16.758797 L9.767671,18.177856 L8.348612,18.230751 M35.889442,29.188795 L34.63493,28.52342 L35.300304,27.268908 L36.554817,27.934284 L35.889442,29.188795 M33.29056,15.428571 L32.93725,16.80396 L31.561857,16.450647 L31.91517,15.075258 L33.29056,15.428571 M25.681955,63.46198 L26.041275,64.660324 L24.842934,65.01964 L24.483614,63.8213 L25.681955,63.46198 M41.76507,10.341439 L39.863567,10.028875 L40.176132,8.127371 L42.077637,8.439935 L41.76507,10.341439 M30.474354,29.220842 L31.943216,28.895134 L32.268925,30.363997 L30.80006,30.689705 L30.474354,29.220842 M8.176898,35.85513 L9.68066,35.80676 L9.729033,37.31052 L8.22527,37.358894 L8.176898,35.85513 M57.43835,62.02172 L57.015804,60.577736 L58.45979,60.15519 L58.882336,61.599174 L57.43835,62.02172 M64.85181,17.884592 L65.601814,16.580315 L66.90609,17.330318 L66.15609,18.634596 L64.85181,17.884592 M89.13067,66.114685 L90.25526,64.7634 L91.606544,65.887985 L90.48196,67.23927 L89.13067,66.114685 M54.71788,64.80969 L54.063835,66.164635 L52.708893,65.51059 L53.362938,64.15565 L54.71788,64.80969 M82.90604,20.702087 L81.57733,20.837133 L81.44229,19.50843 L82.77099,19.373384 L82.90604,20.702087 M59.828766,8.138434 L60.092804,9.447622 L58.783615,9.71166 L58.519577,8.4024725 L59.828766,8.138434 M9.394137,55.070293 L9.663798,56.378334 L8.355758,56.647995 L8.086097,55.339954 L9.394137,55.070293 M63.534317,35.522026 L63.652817,36.93712 L62.237724,37.05562 L62.119225,35.640526 L63.534317,35.522026 M31.079721,65.581406 L30.467804,66.47382 L29.575386,65.8619 L30.187304,64.96948 L31.079721,65.581406 M42.224895,91.934814 L41.626595,90.740776 L42.820633,90.14248 L43.418934,91.33652 L42.224895,91.934814 M68.371376,82.937225 L66.45084,83.095184 L66.292885,81.174644 L68.213425,81.016685 L68.371376,82.937225 M31.636183,79.620865 L33.201473,79.89456 L32.927776,81.45985 L31.362488,81.18615 L31.636183,79.620865 M31.349392,82.847725 L31.38966,81.51279 L32.7246,81.553055 L32.684334,82.88799 L31.349392,82.847725 M78.1745,51.024326 L78.35906,49.53115 L79.85224,49.71571 L79.66768,51.20889 L78.1745,51.024326 M42.951122,61.674854 L44.417397,61.337677 L44.754574,62.803947 L43.288303,63.141125 L42.951122,61.674854 M28.332054,55.841362 L27.162197,56.485664 L26.517897,55.315804 L27.687756,54.671505 L28.332054,55.841362 M58.807953,71.61165 L58.61273,70.46155 L59.762833,70.26633 L59.958057,71.41643 L58.807953,71.61165 M31.561728,8.101836 L32.717026,8.263499 L32.555363,9.418798 L31.400064,9.257135 L31.561728,8.101836 M49.774147,8.102431 L50.44504,9.449109 L49.098362,10.120005 L48.427467,8.773326 L49.774147,8.102431 M81.70064,20.925854 L82.83474,21.453997 L82.306595,22.588102 L81.17249,22.059961 L81.70064,20.925854 M80.24338,9.514063 L81.199844,8.464438 L82.249466,9.420898 L81.29301,10.470523 L80.24338,9.514063 M91.7934,71.79891 L90.30576,72.02378 L90.080894,70.53614 L91.56854,70.31127 L91.7934,71.79891 M78.79444,85.44603 L78.08586,86.477066 L77.054825,85.76848 L77.763405,84.73744 L78.79444,85.44603 M20.050163,9.548952 L18.73846,9.800197 L18.487215,8.488493 L19.79892,8.237248 L20.050163,9.548952 M65.23186,47.15325 L63.83545,46.59318 L64.39552,45.196774 L65.79193,45.756844 L65.23186,47.15325 M79.45747,89.022995 L79.616035,87.44189 L81.19714,87.60046 L81.03858,89.181564 L79.45747,89.022995 M70.934044,86.89588 L70.853294,85.64744 L72.10174,85.56669 L72.18249,86.81513 L70.934044,86.89588 M65.83244,62.059746 L66.55063,62.97902 L65.631355,63.697205 L64.91317,62.777927 L65.83244,62.059746 M62.730095,83.47333 L64.066154,82.613106 L64.92638,83.949165 L63.590317,84.80939 L62.730095,83.47333 M9.9385,70.7602 L9.965837,72.264496 L8.461544,72.29183 L8.434208,70.78754 L9.9385,70.7602 M30.954237,62.24142 L31.857738,61.37608 L32.72308,62.279583 L31.819576,63.14492 L30.954237,62.24142 M9.065282,48.286343 L10.110647,49.11755 L9.279443,50.162914 L8.234077,49.33171 L9.065282,48.286343 M43.042587,13.874506 L42.663982,15.155267 L41.38322,14.776664 L41.761826,13.495903 L43.042587,13.874506 M40.937744,35.82454 L41.780827,34.68185 L42.923515,35.52493 L42.080437,36.66762 L40.937744,35.82454 M47.130917,40.219524 L46.594433,41.255398 L45.558556,40.71891 L46.095043,39.683037 L47.130917,40.219524 M64.51729,78.44676 L65.48647,77.79751 L66.13573,78.76669 L65.16654,79.41595 L64.51729,78.44676 M41.44202,91.49442 L40.174274,91.91455 L39.75415,90.6468 L41.021896,90.22668 L41.44202,91.49442 M21.750792,33.747192 L21.65438,32.330425 L23.071148,32.234013 L23.167559,33.65078 L21.750792,33.747192 M52.41314,41.192814 L53.041775,40.21013 L54.02446,40.838764 L53.395824,41.82145 L52.41314,41.192814 M63.824516,87.070656 L63.795277,85.81995 L65.04598,85.7907 L65.075226,87.04141 L63.824516,87.070656 M13.463328,42.722244 L13.71843,43.947014 L12.493663,44.202114 L12.238562,42.97735 L13.463328,42.722244 M89.97251,31.451372 L91.15672,31.047928 L91.56017,32.232143 L90.37595,32.635586 L89.97251,31.451372 M27.590004,59.28119 L26.35186,59.976547 L25.656502,58.738403 L26.894648,58.043045 L27.590004,59.28119 M50.04011,42.38118 L49.46682,43.493145 L48.354855,42.919857 L48.928143,41.80789 L50.04011,42.38118 M43.937286,60.037407 L43.684574,58.725986 L44.995995,58.473274 L45.248707,59.784695 L43.937286,60.037407 M84.53387,78.53028 L85.49056,79.19781 L84.82303,80.1545 L83.86634,79.48697 L84.53387,78.53028 M9.297584,67.22076 L9.500433,68.45525 L8.265936,68.658104 L8.0630865,67.42361 L9.297584,67.22076 M54.79559,90.41995 L54.78356,91.67095 L53.532566,91.65892 L53.544594,90.40793 L54.79559,90.41995 M28.326082,66.289 L28.263563,65.12412 L29.428442,65.0616 L29.490961,66.22648 L28.326082,66.289 M38.634357,90.68453 L38.702557,91.84909 L37.537994,91.91729 L37.469795,90.75273 L38.634357,90.68453 M26.191498,57.911724 L26.335957,56.66904 L27.57864,56.8135 L27.434181,58.056183 L26.191498,57.911724 M90.89665,9.829678 L90.18936,8.797755 L91.22128,8.09046 L91.92857,9.122382 L90.89665,9.829678 M78.805916,24.948826 L79.90257,25.346561 L79.50484,26.44322 L78.40818,26.045485 L78.805916,24.948826 M8.911667,35.765064 L8.479969,34.681324 L9.563707,34.249626 L9.995405,35.333366 L8.911667,35.765064 M22.093607,52.163197 L22.897003,50.992264 L24.067936,51.79566 L23.26454,52.96659 L22.093607,52.163197 M33.569862,61.685642 L33.542725,60.434887 L34.79348,60.40775 L34.820618,61.65851 L33.569862,61.685642 M76.01247,9.412694 L76.27985,8.104185 L77.588356,8.371567 L77.32097,9.680076 L76.01247,9.412694 M34.468723,74.09599 L34.07811,72.73073 L35.443375,72.34011 L35.83399,73.705376 L34.468723,74.09599 M33.56839,22.121517 L33.03388,20.625076 L34.53032,20.090565 L35.06483,21.587004 L33.56839,22.121517 M19.786472,65.42398 L19.673023,64.347885 L20.749119,64.234436 L20.862568,65.31053 L19.786472,65.42398 M42.155815,57.478127 L43.017532,56.45777 L44.03789,57.319492 L43.17617,58.339848 L42.155815,57.478127 M37.596935,84.47035 L37.699474,85.71719 L36.452633,85.81974 L36.35009,84.5729 L37.596935,84.47035 M58.751926,74.83889 L58.852135,73.67664 L60.014378,73.776855 L59.914173,74.939095 L58.751926,74.83889 M91.569595,74.10619 L90.557755,74.84193 L89.82202,73.83008 L90.83387,73.094345 L91.569595,74.10619 M66.03248,50.67528 L66.59223,51.60131 L65.66621,52.161064 L65.10645,51.235035 L66.03248,50.67528 M37.40106,88.65772 L36.420937,88.199234 L36.879425,87.21911 L37.859547,87.677605 L37.40106,88.65772 M58.888306,91.3165 L58.13126,91.826965 L57.620796,91.069916 L58.377842,90.559456 L58.888306,91.3165 M65.274635,26.047262 L66.42918,26.214264 L66.26218,27.368803 L65.107635,27.201801 L65.274635,26.047262 M41.41875,14.266163 L40.023903,13.999841 L40.290226,12.604993 L41.685074,12.871315 L41.41875,14.266163 M76.15143,25.583496 L76.28377,24.509562 L77.357704,24.641903 L77.22536,25.71584 L76.15143,25.583496 M34.82312,20.710016 L35.219593,19.703209 L36.2264,20.09968 L35.82993,21.106487 L34.82312,20.710016 M47.533195,66.31037 L46.634922,67.2987 L45.64659,66.40043 L46.544865,65.412094 L47.533195,66.31037 M23.942444,9.473553 L22.548935,9.74679 L22.275698,8.353281 L23.669207,8.080044 L23.942444,9.473553 M67.63838,57.60469 L66.63061,57.017113 L67.218185,56.00934 L68.22596,56.59692 L67.63838,57.60469 M63.073765,22.483946 L63.996845,23.048546 L63.432243,23.971626 L62.509163,23.407026 L63.073765,22.483946 M28.92007,32.45134 L29.986818,32.269955 L30.168203,33.336704 L29.101456,33.51809 L28.92007,32.45134 M87.01716,35.97222 L87.96963,36.268776 L87.67307,37.22124 L86.720604,36.924686 L87.01716,35.97222 M43.793617,61.16925 L42.8093,61.007217 L42.971333,60.0229 L43.95565,60.184933 L43.793617,61.16925 M85.82012,9.14048 L84.740776,9.217056 L84.6642,8.13771 L85.743546,8.061134 L85.82012,9.14048 M61.77529,39.932842 L61.08998,40.770218 L60.252605,40.084908 L60.937916,39.24753 L61.77529,39.932842 M60.748196,77.83546 L59.723454,78.18295 L59.375957,77.15821 L60.4007,76.810715 L60.748196,77.83546 M9.382367,23.784798 L9.4729185,24.947834 L8.309882,25.038385 L8.219332,23.875349 L9.382367,23.784798 M90.32052,64.03122 L90.891045,63.212906 L91.70936,63.783436 L91.13883,64.601746 L90.32052,64.03122 M48.527195,9.857108 L49.100628,10.872996 L48.08474,11.446426 L47.511307,10.430538 L48.527195,9.857108 M49.365936,41.817986 L49.31115,40.82193 L50.30721,40.767143 L50.36199,41.763203 L49.365936,41.817986 M66.21633,19.664858 L65.225815,20.10043 L64.790245,19.109911 L65.78076,18.67434 L66.21633,19.664858 M40.037766,11.273413 L40.51665,10.209684 L41.58038,10.688571 L41.101494,11.7523 L40.037766,11.273413 M17.634773,63.996315 L18.867388,64.210304 L18.653399,65.44292 L17.420784,65.22893 L17.634773,63.996315 M59.015755,32.666996 L58.219414,31.814533 L59.07188,31.018194 L59.868217,31.870659 L59.015755,32.666996 M17.404373,45.913754 L17.763102,47.3749 L16.301952,47.73363 L15.943224,46.27248 L17.404373,45.913754 M83.03115,81.39971 L82.205315,80.45997 L83.145065,79.63413 L83.9709,80.57388 L83.03115,81.39971 M49.08637,55.55946 L49.963463,56.451557 L49.071365,57.32865 L48.19427,56.43655 L49.08637,55.55946 M58.79148,44.99608 L59.45334,44.140045 L60.309372,44.801903 L59.647514,45.657936 L58.79148,44.99608 M19.668503,50.737495 L19.9403,51.697315 L18.980478,51.969112 L18.708681,51.009293 L19.668503,50.737495 M36.297695,78.461845 L35.288418,78.0717 L35.678562,77.06242 L36.68784,77.45257 L36.297695,78.461845 M65.04374,62.111256 L64.42877,63.10255 L63.437477,62.487583 L64.052444,61.49629 L65.04374,62.111256 M8.389406,53.959873 L9.378587,53.83083 L9.507632,54.820007 L8.518451,54.949055 L8.389406,53.959873 M58.823826,65.87651 L59.494747,66.725464 L58.645798,67.396385 L57.974876,66.54743 L58.823826,65.87651" fill="none" stroke="black" stroke-width="0.35" style="mix-blend-mode: multiply;"/>
</g>
</svg>