<svg width="420" height="594" xmlns="http://www.w3.org/2000/svg"><path d="M14,12L15,12M13,16L15,16L15,24L17,24M42,16L47,16L47,24L42,24L42,16M53,16L53,24M54,18L55,16L58,16M83,16L88,16M88,12L84,12L84,24M113,16L118,16M118,12L114,12L114,24M123,16L123,24M124,18L125,16L128,16M132,16L137,16L137,24L132,24L132,16M173,16L178,16M178,12L174,12L174,24M12,32L15,32L15,42L16,44L18,44M54,32L55,32M53,36L55,36L55,44L57,44M152,34L157,34L157,38L153,38L157,38L157,44L152,44M177,34L172,34L172,44L177,44L177,38L172,38M197,34L192,34L192,44L197,44L197,38L192,38M202,34L207,34L207,38L203,38L207,38L207,44L202,44M247,34L242,34L242,44L247,44L247,34L242,44M252,34L257,34L257,38L253,38L257,38L257,44L252,44M292,34L297,34L297,38L293,38L297,38L297,44L292,44M327,34L322,34L322,44L327,44L327,34L322,44M332,34L337,34L337,38L333,38L337,38L337,44L332,44M357,34L352,34L352,44L357,44L357,34L352,44M367,34L362,34L362,44L367,44L367,38L362,38M377,40L372,40L372,34L377,34L377,44L372,44M382,34L387,34L387,38L383,38L387,38L387,44L382,44M27,60L22,60L22,54L27,54L27,64L22,64M37,54L32,54L32,64L37,64L37,58L32,58M77,54L72,54L72,64L77,64L77,58L72,58M167,54L162,54L162,64L167,64L167,58L162,58M172,54L177,54L177,58L173,58L177,58L177,64L172,64M237,54L232,54L232,64L237,64L237,58L232,58M277,54L272,54L272,64L277,64L277,58L272,58M302,54L307,54L307,58L303,58L307,58L307,64L302,64M327,54L322,54L322,64L327,64L327,58L322,58M337,54L332,54L332,64L337,64L337,58L332,58M362,54L367,54L367,58L363,58L367,58L367,64L362,64M392,54L397,54L397,58L393,58L397,58L397,64L392,64M17,74L12,74L12,84L17,84L17,78L12,78M22,74L27,74L27,78L23,78L27,78L27,84L22,84M122,74L127,74L127,78L123,78L127,78L127,84L122,84M177,74L172,74L172,84L177,84L177,78L172,78M202,74L207,74L207,78L203,78L207,78L207,84L202,84M282,74L287,74L287,78L283,78L287,78L287,84L282,84M297,74L292,74L292,84L297,84L297,78L292,78M317,74L312,74L312,84L317,84L317,78L312,78M342,74L347,74L347,78L343,78L347,78L347,84L342,84M362,74L367,74L367,78L363,78L367,78L367,84L362,84M377,74L372,74L372,84L377,84L377,78L372,78M182,94L187,94L187,98L183,98L187,98L187,104L182,104M12,114L17,114L17,118L13,118L17,118L17,124L12,124M147,114L142,114L142,124L147,124L147,118L142,118M167,114L162,114L162,124L167,124L167,118L162,118M92,134L97,134L97,138L93,138L97,138L97,144L92,144M12,154L17,154L17,158L13,158L17,158L17,164L12,164M67,154L62,154L62,164L67,164L67,158L62,158M122,154L127,154L127,158L123,158L127,158L127,164L122,164M247,154L242,154L242,164L247,164L247,158L242,158M267,154L262,154L262,164L267,164L267,158L262,158M292,154L297,154L297,158L293,158L297,158L297,164L292,164M92,174L97,174L97,178L93,178L97,178L97,184L92,184M32,214L37,214L37,218L33,218L37,218L37,224L32,224M172,214L177,214L177,218L173,218L177,218L177,224L172,224M192,214L197,214L197,218L193,218L197,218L197,224L192,224M232,214L237,214L237,218L233,218L237,218L237,224L232,224M242,214L247,214L247,218L243,218L247,218L247,224L242,224M252,214L257,214L257,218L253,218L257,218L257,224L252,224M282,214L287,214L287,218L283,218L287,218L287,224L282,224M342,214L347,214L347,218L343,218L347,218L347,224L342,224M362,214L367,214L367,218L363,218L367,218L367,224L362,224M92,234L97,234L97,238L93,238L97,238L97,244L92,244M112,234L117,234L117,238L113,238L117,238L117,244L112,244M172,234L177,234L177,238L173,238L177,238L177,244L172,244M182,234L187,234L187,238L183,238L187,238L187,244L182,244M202,234L207,234L207,238L203,238L207,238L207,244L202,244M342,234L347,234L347,238L343,238L347,238L347,244L342,244M362,234L367,234L367,238L363,238L367,238L367,244L362,244M387,240L382,240L382,234L387,234L387,244L382,244M407,240L402,240L402,234L407,234L407,244L402,244M192,254L197,254L197,258L193,258L197,258L197,264L192,264M202,254L207,254L207,258L203,258L207,258L207,264L202,264M222,254L227,254L227,258L223,258L227,258L227,264L222,264M332,254L337,254L337,258L333,258L337,258L337,264L332,264M342,254L347,254L347,258L343,258L347,258L347,264L342,264M362,254L367,254L367,258L363,258L367,258L367,264L362,264M387,260L382,260L382,254L387,254L387,264L382,264M407,260L402,260L402,254L407,254L407,264L402,264M87,274L82,274L82,284L87,284L87,278L82,278M97,274L92,274L92,284L97,284L97,278L92,278M172,274L177,274L177,278L173,278L177,278L177,284L172,284M192,274L197,274L197,278L193,278L197,278L197,284L192,284M242,274L247,274L247,278L243,278L247,278L247,284L242,284M312,274L317,274L317,278L313,278L317,278L317,284L312,284M332,274L337,274L337,278L333,278L337,278L337,284L332,284M382,274L387,274L387,278L383,278L387,278L387,284L382,284M402,274L407,274L407,278L403,278L407,278L407,284L402,284M62,294L67,294L67,298L63,298L67,298L67,304L62,304M132,294L137,294L137,298L133,298L137,298L137,304L132,304M152,294L157,294L157,298L153,298L157,298L157,304L152,304M177,300L172,300L172,294L177,294L177,304L172,304M202,294L207,294L207,298L203,298L207,298L207,304L202,304M212,294L217,294L217,298L213,298L217,298L217,304L212,304M222,294L227,294L227,298L223,298L227,298L227,304L222,304M282,294L287,294L287,298L283,298L287,298L287,304L282,304M302,294L307,294L307,298L303,298L307,298L307,304L302,304M332,294L337,294L337,298L333,298L337,298L337,304L332,304M352,294L357,294L357,298L353,298L357,298L357,304L352,304M397,294L392,294L392,304L397,304L397,298L392,298M62,314L67,314L67,318L63,318L67,318L67,324L62,324M82,314L87,314L87,318L83,318L87,318L87,324L82,324M192,314L197,314L197,318L193,318L197,318L197,324L192,324M252,314L257,314L257,318L253,318L257,318L257,324L252,324M282,314L287,314L287,318L283,318L287,318L287,324L282,324M292,314L297,314L297,318L293,318L297,318L297,324L292,324M357,320L352,320L352,314L357,314L357,324L352,324M362,314L367,314L367,318L363,318L367,318L367,324L362,324M392,314L397,314L397,318L393,318L397,318L397,324L392,324M62,334L67,334L67,338L63,338L67,338L67,344L62,344M92,334L97,334L97,338L93,338L97,338L97,344L92,344M122,334L127,334L127,338L123,338L127,338L127,344L122,344M137,340L132,340L132,334L137,334L137,344L132,344M152,334L157,334L157,338L153,338L157,338L157,344L152,344M227,340L222,340L222,334L227,334L227,344L222,344M272,332L275,332L275,342L276,344L278,344M284,332L285,332M283,336L285,336L285,344L287,344M72,352L75,352L75,362L76,364L78,364M84,352L85,352M83,356L85,356L85,364L87,364M202,352L205,352L205,362L206,364L208,364M244,352L245,352M243,356L245,356L245,364L247,364M267,354L262,354L262,364L267,364L267,354L262,364M342,352L345,352L345,362L346,364L348,364M352,352L355,352L355,366L352,366M392,352L395,352L395,362L396,364L398,364M212,372L215,372L215,382L216,384L218,384M234,372L235,372M233,376L235,376L235,384L237,384M262,372L265,372L265,386L262,386M292,372L295,372L295,382L296,384L298,384M314,372L315,372M313,376L315,376L315,384L317,384M342,372L345,372L345,386L342,386M352,372L355,372L355,386L352,386M47,394L42,394L42,404L47,404L47,394L42,404M172,392L175,392L175,406L172,406M191,396L198,404M191,404L198,396M13,416L18,416M18,412L14,412L14,424M43,416L43,424M44,418L45,416L48,416M94,412L95,412M93,416L95,416L95,424L97,424M102,412L105,412L105,422L106,424L108,424M158,416L153,416L151,420L153,424L158,424M308,416L303,416L301,420L303,424L308,424M344,412L345,412M343,416L345,416L345,424L347,424M388,416L383,416L381,420L383,424L388,424M391,420L398,420M402,414L407,414L407,418L403,418L407,418L407,424L402,424M22,432L25,432L25,446L22,446M44,432L45,432M43,436L45,436L45,444L47,444M74,432L75,432M73,436L75,436L75,444L77,444M132,432L135,432L135,442L136,444L138,444M188,436L183,436L181,440L183,444L188,444M202,434L207,434L207,438L203,438L207,438L207,444L202,444M212,432L215,432L215,446L212,446M282,432L285,432L285,442L286,444L288,444M361,436L368,444M361,444L368,436M377,434L372,434L372,444L377,444L377,434L372,444M407,434L402,434L402,444L407,444L407,434L402,444M12,452L15,452L15,466L12,466M61,456L68,464M61,464L68,456M81,456L88,464M81,464L88,456M97,454L92,454L92,464L97,464L97,454L92,464M147,454L142,454L142,464L147,464L147,454L142,464M182,452L185,452L185,466L182,466M222,456L227,456L227,464L222,464L222,456M234,452L235,452M233,456L235,456L235,464L237,464M341,456L348,464M341,464L348,456M387,454L382,454L382,464L387,464L387,454L382,464M27,474L22,474L22,484L27,484L27,474L22,484M37,474L32,474L32,484L37,484L37,474L32,484M68,476L63,476L61,480L63,484L68,484M107,474L102,474L102,484L107,484L107,474L102,484M151,476L158,484M151,484L158,476M237,474L232,474L232,484L237,484L237,474L232,484M283,476L288,476M288,472L284,472L284,484M323,476L323,484M324,478L325,476L328,476M334,472L335,472M333,476L335,476L335,484L337,484M374,472L375,472M373,476L375,476L375,484L377,484M382,472L385,472L385,482L386,484L388,484M38,496L33,496L31,500L33,504L38,504M67,494L62,494L62,504L67,504L67,494L62,504M133,492L135,494M148,496L141,500L148,504M204,492L205,492M203,496L205,496L205,504L207,504M287,494L282,494L282,504L287,504L287,494L282,504M334,492L335,492M333,496L335,496L335,504L337,504M407,500L402,500L402,494L407,494L407,504L402,504M41,516L48,524M41,524L48,516M62,512L65,512L65,522L66,524L68,524M232,514L237,514L237,518L233,518L237,518L237,524L232,524M252,516L257,516L257,524L252,524L252,516M263,516L263,524M264,518L265,516L268,516M307,514L302,514L302,524L307,524L307,514L302,524M317,514L312,514L312,524L317,524L317,514L312,524M327,514L322,514L322,524L327,524L327,514L322,524M393,512L395,514M103,532L105,534M118,536L111,540L118,544M203,532L205,534M243,532L245,534M283,532L285,534M322,536L327,536L327,544L322,544L322,536M334,532L335,532M333,536L335,536L335,544L337,544M403,532L405,534M18,556L11,560L18,564M73,552L75,554"/><path d="M21,24L21,16L27,16L27,24M24,16L24,24M32,24L37,24L37,16L32,16L32,28M97,16L92,16L92,18L97,22L97,24L92,24M141,24L141,16L147,16L147,24M144,16L144,24M162,12L162,16M166,12L166,16M187,16L182,16L182,18L187,22L187,24L182,24M192,12L192,16M196,12L196,16M97,40L92,40L92,44L97,44L97,36L92,36M101,38L108,38M101,42L108,42M112,32L112,36M116,32L116,36M131,36L135,34L135,44M161,40L167,40M164,36L164,44M181,36L185,34L185,44M288,40L281,40L286,34L286,44M318,40L311,40L316,34L316,44M341,40L347,40M344,36L344,44M391,40L397,40M394,36L394,44M401,34L408,34L403,44M41,54L48,54L43,64M51,54L58,54L53,64M81,54L88,54L83,64M128,60L121,60L126,54L126,64M131,54L138,54L133,64M141,54L148,54L143,64M151,56L155,54L155,64M188,60L181,60L186,54L186,64M201,54L208,54L203,64M281,56L285,54L285,64M298,60L291,60L296,54L296,64M318,60L311,60L316,54L316,64M371,56L375,54L375,64M61,76L65,74L65,84M81,74L88,74L83,84M101,80L107,80M104,76L104,84M118,80L111,80L116,74L116,84M138,80L131,80L136,74L136,84M141,74L148,74L143,84M168,80L161,80L166,74L166,84M188,80L181,80L186,74L186,84M191,74L198,74L193,84M231,76L235,74L235,84M331,74L338,74L333,84M351,74L358,74L353,84M391,76L395,74L395,84M11,94L18,94L13,104M21,96L25,94L25,104M41,94L48,94L43,104M91,94L98,94L93,104M101,94L108,94L103,104M111,94L118,94L113,104M121,94L128,94L123,104M151,94L158,94L153,104M171,96L175,94L175,104M221,94L228,94L223,104M241,96L245,94L245,104M261,94L268,94L263,104M281,94L288,94L283,104M298,100L291,100L296,94L296,104M301,96L305,94L305,104M311,94L318,94L313,104M321,94L328,94L323,104M331,94L338,94L333,104M371,94L378,94L373,104M391,94L398,94L393,104M408,100L401,100L406,94L406,104M28,120L21,120L26,114L26,124M31,114L38,114L33,124M48,120L41,120L46,114L46,124M51,114L58,114L53,124M61,114L68,114L63,124M81,114L88,114L83,124M121,116L125,114L125,124M171,114L178,114L173,124M191,114L198,114L193,124M248,120L241,120L246,114L246,124M251,114L258,114L253,124M268,120L261,120L266,114L266,124M271,114L278,114L273,124M281,114L288,114L283,124M301,114L308,114L303,124M321,114L328,114L323,124M371,114L378,114L373,124M381,114L388,114L383,124M391,114L398,114L393,124M401,114L408,114L403,124M18,140L11,140L16,134L16,144M38,140L31,140L36,134L36,144M51,136L55,134L55,144M101,134L108,134L103,144M121,134L128,134L123,144M138,140L131,140L136,134L136,144M158,140L151,140L156,134L156,144M181,134L188,134L183,144M201,134L208,134L203,144M211,134L218,134L213,144M231,134L238,134L233,144M258,140L251,140L256,134L256,144M271,134L278,134L273,144M331,134L338,134L333,144M351,134L358,134L353,144M361,134L368,134L363,144M381,134L388,134L383,144M408,140L401,140L406,134L406,144M28,160L21,160L26,154L26,164M38,160L31,160L36,154L36,164M41,160L47,160M44,156L44,164M58,160L51,160L56,154L56,164M78,160L71,160L76,154L76,164M81,154L88,154L83,164M131,156L135,154L135,164M161,154L168,154L163,164M181,156L185,154L185,164M198,160L191,160L196,154L196,164M218,160L211,160L216,154L216,164M221,160L227,160M224,156L224,164M231,156L235,154L235,164M281,156L285,154L285,164M321,156L325,154L325,164M331,154L338,154L333,164M71,174L78,174L73,184M81,180L87,180M84,176L84,184M108,180L101,180L106,174L106,184M128,180L121,180L126,174L126,184M201,176L205,174L205,184M221,174L228,174L223,184M241,174L248,174L243,184M261,176L265,174L265,184M271,174L278,174L273,184M281,176L285,174L285,184M291,176L295,174L295,184M308,180L301,180L306,174L306,184M321,174L328,174L323,184M331,176L335,174L335,184M341,174L348,174L343,184M351,174L358,174L353,184M21,194L28,194L23,204M78,200L71,200L76,194L76,204M81,194L88,194L83,204M101,194L108,194L103,204M111,194L118,194L113,204M131,194L138,194L133,204M221,194L228,194L223,204M231,196L235,194L235,204M248,200L241,200L246,194L246,204M251,196L255,194L255,204M268,200L261,200L266,194L266,204M281,194L288,194L283,204M331,196L335,194L335,204M351,196L355,194L355,204M41,216L45,214L45,224M81,214L88,214L83,224M131,214L138,214L133,224M141,214L148,214L143,224M151,214L158,214L153,224M161,214L168,214L163,224M261,216L265,214L265,224M291,214L298,214L293,224M311,214L318,214L313,224M331,214L338,214L333,224M381,214L388,214L383,224M391,214L398,214L393,224M401,214L408,214L403,224M11,234L18,234L13,244M21,236L25,234L25,244M51,234L58,234L53,244M61,236L65,234L65,244M71,234L78,234L73,244M81,236L85,234L85,244M141,236L145,234L145,244M211,240L217,240M214,236L214,244M231,236L235,234L235,244M248,240L241,240L246,234L246,244M251,236L255,234L255,244M268,240L261,240L266,234L266,244M271,234L278,234L273,244M291,234L298,234L293,244M301,234L308,234L303,244M321,234L328,234L323,244M351,234L358,234L353,244M371,234L378,234L373,244M31,256L35,254L35,264M51,254L58,254L53,264M61,260L67,260M64,256L64,264M88,260L81,260L86,254L86,264M91,254L98,254L93,264M108,260L101,260L106,254L106,264M111,254L118,254L113,264M121,254L128,254L123,264M148,260L141,260L146,254L146,264M151,256L155,254L155,264M171,256L175,254L175,264M181,260L187,260M184,256L184,264M241,254L248,254L243,264M251,254L258,254L253,264M261,254L268,254L263,264M288,260L281,260L286,254L286,264M291,256L295,254L295,264M311,256L315,254L315,264M321,260L327,260M324,256L324,264M41,276L45,274L45,284M61,276L65,274L65,284M101,274L108,274L103,284M121,274L128,274L123,284M141,276L145,274L145,284M151,274L158,274L153,284M161,276L165,274L165,284M181,274L188,274L183,284M201,274L208,274L203,284M211,274L218,274L213,284M221,280L227,280M224,276L224,284M238,280L231,280L236,274L236,284M258,280L251,280L256,274L256,284M261,274L268,274L263,284M291,274L298,274L293,284M321,274L328,274L323,284M341,274L348,274L343,284M351,274L358,274L353,284M391,274L398,274L393,284M11,294L18,294L13,304M21,294L28,294L23,304M41,294L48,294L43,304M91,294L98,294L93,304M101,294L108,294L103,304M111,294L118,294L113,304M121,294L128,294L123,304M231,294L238,294L233,304M241,300L247,300M244,296L244,304M258,300L251,300L256,294L256,304M268,300L261,300L266,294L266,304M321,294L328,294L323,304M378,300L371,300L376,294L376,304M381,294L388,294L383,304M401,294L408,294L403,304M11,314L18,314L13,324M31,314L38,314L33,324M71,314L78,314L73,324M91,320L97,320M94,316L94,324M108,320L101,320L106,314L106,324M128,320L121,320L126,314L126,324M131,314L138,314L133,324M141,314L148,314L143,324M151,314L158,314L153,324M181,316L185,314L185,324M208,320L201,320L206,314L206,324M211,314L218,314L213,324M231,314L238,314L233,324M271,316L275,314L275,324M301,314L308,314L303,324M328,320L321,320L326,314L326,324M331,314L338,314L333,324M341,314L348,314L343,324M381,316L385,314L385,324M11,334L18,334L13,344M21,340L27,340M24,336L24,344M31,336L35,334L35,344M41,334L48,334L43,344M81,336L85,334L85,344M111,334L118,334L113,344M201,336L205,334L205,344M232,332L232,336M236,332L236,336M243,342L245,342L245,344L243,344L243,342M257,336L252,336L252,338L257,342L257,344L252,344M262,344L267,344L267,336L262,336L262,348M306,332L304,336L304,342L306,346M312,332L312,336M316,332L316,336M332,332L332,336M336,332L336,336M353,342L355,342L355,344L353,344L353,342M361,344L361,336L367,336L367,344M364,336L364,344M377,340L372,340L372,344L377,344L377,336L372,336M382,344L387,344L387,336L382,336L382,348M396,332L394,336L394,342L396,346M407,344L402,344L402,336L407,336L407,348L402,348M11,358L18,358M11,362L18,362M37,364L32,364L32,356L37,356L37,368L32,368M43,362L45,362L45,364L43,364L43,362M57,356L52,356L52,358L57,362L57,364L52,364M62,364L67,364L67,356L62,356L62,368M106,352L104,356L104,362L106,366M112,352L112,356M116,352L116,356M121,360L127,360M124,356L124,364M132,352L132,356M136,352L136,356M153,362L155,362L155,364L153,364L153,362M161,364L161,356L167,356L167,364M164,356L164,364M177,360L172,360L172,364L177,364L177,356L172,356M182,364L187,364L187,356L182,356L182,368M196,352L194,356L194,362L196,366M211,358L218,358M211,362L218,362M236,352L234,356L234,362L236,366M251,358L258,358M251,362L258,362M291,358L298,358M291,362L298,362M307,352L304,352L304,366L307,366M313,362L315,362L315,364L313,364L313,362M323,362L325,362L325,364L323,364L323,362M333,362L335,362L335,364L333,364L333,362M383,362L385,362L385,364L383,364L383,362M27,384L22,384L22,376L27,376L27,388L22,388M61,378L68,378M61,382L68,382M103,382L105,382L105,384L103,384L103,382M111,384L111,376L117,376L117,384M114,376L114,384M127,380L122,380L122,384L127,384L127,376L122,376M132,384L137,384L137,376L132,376L132,388M146,372L144,376L144,382L146,386M156,372L154,376L154,382L156,386M171,378L178,378M171,382L178,382M197,372L194,372L194,386L197,386M201,380L207,380M204,376L204,384M227,372L224,372L224,386L227,386M241,380L247,380M244,376L244,384M251,380L257,380M254,376L254,384M281,380L287,380M284,376L284,384M307,372L304,372L304,386L307,386M321,380L327,380M324,376L324,384M331,380L337,380M334,376L334,384M12,404L17,404L17,396L12,396L12,408M21,398L28,398M21,402L28,402M31,396L35,394L35,404M67,396L62,396L62,404L67,404L67,392M71,398L78,398M71,402L78,402M87,392L84,392L84,406L87,406M92,392L92,396M96,392L96,396M102,392L102,396M106,392L106,396M122,392L122,396M126,392L126,396M132,392L132,396M136,392L136,396M152,392L152,396M156,392L156,396M162,392L162,396M166,392L166,396M201,398L208,398M201,402L208,402M212,404L217,404L217,396L212,396L212,408M231,396L235,404L233,408L238,396M241,398L248,398M241,402L248,402M252,404L257,404L257,396L252,396L252,408M27,416L22,416L22,418L27,422L27,424L22,424M33,422L35,422L35,424L33,424L33,422M67,420L62,420L62,424L67,424L67,416L62,416M77,416L72,416L72,424L77,424L77,412M88,414L82,414L82,424M83,418L88,418M131,416L135,424L133,428L138,416M166,412L164,416L164,422L166,426M172,412L172,416M176,412L176,416M181,424L181,416L187,416L187,424M184,416L184,424M193,422L195,422L195,424L193,424L193,422M201,424L201,416L207,416L207,424M204,416L204,424M214,412L215,412M213,416L215,416L215,428L212,428M227,416L222,416L222,418L227,422L227,424L222,424M232,412L232,416M236,412L236,416M253,422L255,422L255,424L253,424L253,422M261,424L261,416L267,416L267,424M264,416L264,424M277,420L272,420L272,424L277,424L277,416L272,416M282,424L287,424L287,416L282,416L282,428M296,412L294,416L294,422L296,426M311,418L318,418M311,422L318,422M336,412L334,416L334,422L336,426M351,418L358,418M351,422L358,422M367,420L362,420L362,424L367,424L367,416L362,416M377,412L374,412L374,426L377,426M18,440L11,440L16,434L16,444M83,442L85,442L85,444L83,444L83,442M91,444L91,436L97,436L97,444M94,436L94,444M107,440L102,440L102,444L107,444L107,436L102,436M112,444L117,444L117,436L112,436L112,448M126,432L124,436L124,442L126,446M141,438L148,438M141,442L148,442M167,436L162,436L162,444L167,444L167,432M177,432L174,432L174,446L177,446M190,436L192,434L194,436L192,438L190,436M190,442L199,436M197,440L199,442L197,444L195,442L197,440M221,440L227,440M224,436L224,444M231,438L238,438M231,442L238,442M242,432L242,436M246,432L246,436M262,432L262,436M266,432L266,436M271,440L277,440M274,436L274,444M293,442L295,442L295,444L293,444L293,442M301,444L301,436L307,436L307,444M304,436L304,444M317,440L312,440L312,444L317,444L317,436L312,436M322,444L327,444L327,436L322,436L322,448M336,432L334,436L334,442L336,446M346,432L344,436L344,442L346,446M357,432L354,432L354,446L357,446M391,436L395,444L393,448L398,436M31,458L38,458M31,462L38,462M57,452L54,452L54,466L57,466M71,460L77,460M74,456L74,464M111,456L115,464L113,468L118,456M121,460L127,460M124,456L124,464M131,456L135,464L133,468L138,456M163,462L165,462L165,464L163,464L163,462M203,462L205,462L205,464L203,464L203,462M214,452L215,452M213,456L215,456L215,468L212,468M256,452L254,456L254,462L256,466M262,452L262,456M266,452L266,456M272,452L272,464L278,464M282,452L282,456M286,452L286,456M326,452L324,456L324,462L326,466M336,452L334,456L334,462L336,466M351,460L357,460M354,456L354,464M361,458L368,458M361,462L368,462M371,456L375,454L375,464M18,480L11,480L16,474L16,484M45,472L45,488M55,472L55,488M71,478L78,478M71,482L78,482M81,478L88,478M81,482L88,482M91,476L95,474L95,484M146,472L144,476L144,482L146,486M161,478L168,478M161,482L168,482M172,484L177,484L177,476L172,476L172,488M191,476L195,484L193,488L198,476M201,480L207,480M204,476L204,484M211,478L218,478M211,482L218,482M297,476L292,476L292,478L297,482L297,484L292,484M303,482L305,482L305,484L303,484L303,482M368,474L362,474L362,484M363,478L368,478M11,496L15,504L13,508L18,496M46,492L44,496L44,502L46,506M52,492L52,496M56,492L56,496M73,502L75,502L75,504L73,504L73,502M87,496L82,496L82,498L87,502L87,504L82,504M91,496L94,504L95,504L98,496M107,504L102,504L102,496L107,496L107,508L102,508M112,492L112,496M116,492L116,496M157,496L152,496L152,498L157,502L157,504L152,504M161,496L164,504L165,504L168,496M177,504L172,504L172,496L177,496L177,508L172,508M217,496L212,496L212,504L217,504L217,492M241,498L248,498M241,502L248,502M252,492L252,496M256,492L256,496M268,500L261,500L266,494L266,504M292,492L292,496M296,492L296,496M347,504L342,504L342,496L347,496L347,508L342,508M371,498L378,498M371,502L378,502M382,492L382,496M386,492L386,496M18,520L11,520L16,514L16,524M22,512L22,516M26,512L26,516M51,524L51,516L57,516L57,524M54,516L54,524M87,516L82,516L82,518L87,522L87,524L82,524M91,518L98,518M91,522L98,522M102,512L102,516M106,512L106,516M142,524L147,524L147,516L142,516L142,528M154,516L154,518M154,522L154,524M213,522L215,522L215,524L213,524L213,522M243,522L245,522L245,524L243,524L243,522M277,524L272,524L272,516L277,516L277,528L272,528M347,516L342,516L342,518L347,522L347,524L342,524M351,516L354,524L355,524L358,516M367,524L362,524L362,516L367,516L367,528L362,528M372,512L372,516M376,512L376,516M401,520L407,520M404,516L404,524M17,536L12,536L12,544L17,544L17,532M23,542L25,542L25,544L23,544L23,542M31,544L31,536L37,536L37,544M34,536L34,544M47,540L42,540L42,544L47,544L47,536L42,536M52,544L57,544L57,536L52,536L52,548M66,532L64,536L64,542L66,546M77,536L72,536L72,544L77,544L77,532M81,538L88,538M81,542L88,542M122,544L127,544L127,536L122,536L122,548M137,540L132,540L132,544L137,544L137,536L132,536M177,536L172,536L172,544L177,544L177,532M181,538L188,538M181,542L188,542M192,532L192,536M196,532L196,536M211,540L217,540M214,536L214,544M227,536L222,536L222,544L227,544L227,532M231,540L237,540M234,536L234,544M252,532L252,536M256,532L256,536M303,542L305,542L305,544L303,544L303,542M314,532L315,532M313,536L315,536L315,548L312,548M356,532L354,536L354,542L356,546M362,532L362,536M366,532L366,536M372,532L372,536M376,532L376,536M391,540L397,540M394,536L394,544M37,556L32,556L32,558L37,562L37,564L32,564M41,556L44,564L45,564L48,556M57,564L52,564L52,556L57,556L57,568L52,568"/><path d="M62,16L67,16M64,14L64,24L67,24M28,44L21,44L21,36L28,36L28,40L21,40M32,36L37,36M34,34L34,44L37,44M64,42L64,44L63,46M72,36L77,36M74,34L74,44L77,44M84,42L84,44L83,46M121,34L127,34L127,38L121,44L127,44M141,34L147,34L147,38L141,44L147,44M214,42L214,44L213,46M224,42L224,44L223,46M234,42L234,44L233,46M261,34L267,34L267,38L261,44L267,44M271,34L277,34L277,38L271,44L277,44M301,34L307,34L307,38L301,44L307,44M17,54L12,54L12,58L17,58L17,64L12,64M67,54L62,54L62,58L67,58L67,64L62,64M97,54L92,54L92,58L97,58L97,64L92,64M104,62L104,64L103,66M117,58L112,58L112,54L117,54L117,64L112,64L112,58M197,58L192,58L192,54L197,54L197,64L192,64L192,58M211,54L217,54L217,58L211,64L217,64M221,54L227,54L227,58L221,64L227,64M241,54L247,54L247,58L241,64L247,64M254,62L254,64L253,66M264,62L264,64L263,66M347,58L342,58L342,54L347,54L347,64L342,64L342,58M354,62L354,64L353,66M387,54L382,54L382,58L387,58L387,64L382,64M407,54L402,54L402,58L407,58L407,64L402,64M37,78L32,78L32,74L37,74L37,84L32,84L32,78M44,82L44,84L43,86M54,82L54,84L53,86M77,74L72,74L72,78L77,78L77,84L72,84M97,74L92,74L92,78L97,78L97,84L92,84M154,82L154,84L153,86M217,78L212,78L212,74L217,74L217,84L212,84L212,78M224,82L224,84L223,86M247,74L242,74L242,78L247,78L247,84L242,84M257,78L252,78L252,74L257,74L257,84L252,84L252,78M267,74L262,74L262,78L267,78L267,84L262,84M274,82L274,84L273,86M307,74L302,74L302,78L307,78L307,84L302,84M327,74L322,74L322,78L327,78L327,84L322,84M384,82L384,84L383,86M407,78L402,78L402,74L407,74L407,84L402,84L402,78M34,102L34,104L33,106M51,94L57,94L57,98L51,104L57,104M61,94L67,94L67,98L61,104L67,104M71,94L77,94L77,98L71,104L77,104M81,94L87,94L87,98L81,104L87,104M131,94L137,94L137,98L131,104L137,104M141,94L147,94L147,98L141,104L147,104M164,102L164,104L163,106M197,94L192,94L192,98L197,98L197,104L192,104M201,94L207,94L207,98L201,104L207,104M217,94L212,94L212,98L217,98L217,104L212,104M234,102L234,104L233,106M251,94L257,94L257,98L251,104L257,104M271,94L277,94L277,98L271,104L277,104M344,102L344,104L343,106M351,94L357,94L357,98L351,104L357,104M361,94L367,94L367,98L361,104L367,104M381,94L387,94L387,98L381,104L387,104M71,114L77,114L77,118L71,124L77,124M94,122L94,124L93,126M107,118L102,118L102,114L107,114L107,124L102,124L102,118M117,114L112,114L112,118L117,118L117,124L112,124M137,114L132,114L132,118L137,118L137,124L132,124M151,114L157,114L157,118L151,124L157,124M184,122L184,124L183,126M201,114L207,114L207,118L201,124L207,124M211,114L217,114L217,118L211,124L217,124M221,114L227,114L227,118L221,124L227,124M231,114L237,114L237,118L231,124L237,124M291,114L297,114L297,118L291,124L297,124M314,122L314,124L313,126M331,114L337,114L337,118L331,124L337,124M341,114L347,114L347,118L341,124L347,124M351,114L357,114L357,118L351,124L357,124M361,114L367,114L367,118L361,124L367,124M21,134L27,134L27,138L21,144L27,144M44,142L44,144L43,146M61,134L67,134L67,138L61,144L67,144M77,138L72,138L72,134L77,134L77,144L72,144L72,138M81,134L87,134L87,138L81,144L87,144M114,142L114,144L113,146M141,134L147,134L147,138L141,144L147,144M161,134L167,134L167,138L161,144L167,144M171,134L177,134L177,138L171,144L177,144M191,134L197,134L197,138L191,144L197,144M221,134L227,134L227,138L221,144L227,144M241,134L247,134L247,138L241,144L247,144M264,142L264,144L263,146M287,134L282,134L282,138L287,138L287,144L282,144M291,134L297,134L297,138L291,144L297,144M307,134L302,134L302,138L307,138L307,144L302,144M311,134L317,134L317,138L311,144L317,144M321,134L327,134L327,138L321,144L327,144M341,134L347,134L347,138L341,144L347,144M371,134L377,134L377,138L371,144L377,144M394,142L394,144L393,146M94,162L94,164L93,166M104,162L104,164L103,166M117,158L112,158L112,154L117,154L117,164L112,164L112,158M147,154L142,154L142,158L147,158L147,164L142,164M157,158L152,158L152,154L157,154L157,164L152,164L152,158M174,162L174,164L173,166M207,158L202,158L202,154L207,154L207,164L202,164L202,158M257,158L252,158L252,154L257,154L257,164L252,164L252,158M274,162L274,164L273,166M307,158L302,158L302,154L307,154L307,164L302,164L302,158M317,154L312,154L312,158L317,158L317,164L312,164M344,162L344,164L343,166M354,162L354,164L353,166M364,162L364,164L363,166M374,162L374,164L373,166M384,162L384,164L383,166M394,162L394,164L393,166M404,162L404,164L403,166M14,182L14,184L13,186M27,178L22,178L22,174L27,174L27,184L22,184L22,178M31,174L37,174L37,178L31,184L37,184M41,174L47,174L47,178L41,184L47,184M51,174L57,174L57,178L51,184L57,184M61,174L67,174L67,178L61,184L67,184M117,178L112,178L112,174L117,174L117,184L112,184L112,178M134,182L134,184L133,186M144,182L144,184L143,186M154,182L154,184L153,186M164,182L164,184L163,186M174,182L174,184L173,186M184,182L184,184L183,186M191,174L197,174L197,178L191,184L197,184M211,174L217,174L217,178L211,184L217,184M237,178L232,178L232,174L237,174L237,184L232,184L232,178M254,182L254,184L253,186M317,174L312,174L312,178L317,178L317,184L312,184M364,182L364,184L363,186M374,182L374,184L373,186M384,182L384,184L383,186M394,182L394,184L393,186M404,182L404,184L403,186M14,202L14,204L13,206M31,194L37,194L37,198L31,204L37,204M41,194L47,194L47,198L41,204L47,204M51,194L57,194L57,198L51,204L57,204M61,194L67,194L67,198L61,204L67,204M97,194L92,194L92,198L97,198L97,204L92,204M121,194L127,194L127,198L121,204L127,204M144,202L144,204L143,206M154,202L154,204L153,206M164,202L164,204L163,206M174,202L174,204L173,206M184,202L184,204L183,206M194,202L194,204L193,206M204,202L204,204L203,206M214,202L214,204L213,206M277,198L272,198L272,194L277,194L277,204L272,204L272,198M297,198L292,198L292,194L297,194L297,204L292,204L292,198M304,202L304,204L303,206M314,202L314,204L313,206M321,194L327,194L327,198L321,204L327,204M347,194L342,194L342,198L347,198L347,204L342,204M367,194L362,194L362,198L367,198L367,204L362,204M377,198L372,198L372,194L377,194L377,204L372,204L372,198M381,194L387,194L387,198L381,204L387,204M397,198L392,198L392,194L397,194L397,204L392,204L392,198M404,202L404,204L403,206M14,222L14,224L13,226M24,222L24,224L23,226M57,214L52,214L52,218L57,218L57,224L52,224M61,214L67,214L67,218L61,224L67,224M74,222L74,224L73,226M97,214L92,214L92,218L97,218L97,224L92,224M101,214L107,214L107,218L101,224L107,224M117,214L112,214L112,218L117,218L117,224L112,224M121,214L127,214L127,218L121,224L127,224M181,214L187,214L187,218L181,224L187,224M204,222L204,224L203,226M214,222L214,224L213,226M227,218L222,218L222,214L227,214L227,224L222,224L222,218M277,214L272,214L272,218L277,218L277,224L272,224M307,218L302,218L302,214L307,214L307,224L302,224L302,218M324,222L324,224L323,226M351,214L357,214L357,218L351,224L357,224M371,214L377,214L377,218L371,224L377,224M34,242L34,244L33,246M47,238L42,238L42,234L47,234L47,244L42,244L42,238M107,238L102,238L102,234L107,234L107,244L102,244L102,238M127,238L122,238L122,234L127,234L127,244L122,244L122,238M137,234L132,234L132,238L137,238L137,244L132,244M157,234L152,234L152,238L157,238L157,244L152,244M164,242L164,244L163,246M197,238L192,238L192,234L197,234L197,244L192,244L192,238M227,238L222,238L222,234L227,234L227,244L222,244L222,238M284,242L284,244L283,246M311,234L317,234L317,238L311,244L317,244M331,234L337,234L337,238L331,244L337,244M391,234L397,234L397,238L391,244L397,244M14,262L14,264L13,266M21,254L27,254L27,258L21,264L27,264M41,254L47,254L47,258L41,264L47,264M71,254L77,254L77,258L71,264L77,264M134,262L134,264L133,266M167,254L162,254L162,258L167,258L167,264L162,264M217,254L212,254L212,258L217,258L217,264L212,264M237,254L232,254L232,258L237,258L237,264L232,264M274,262L274,264L273,266M307,254L302,254L302,258L307,258L307,264L302,264M357,254L352,254L352,258L357,258L357,264L352,264M377,254L372,254L372,258L377,258L377,264L372,264M391,254L397,254L397,258L391,264L397,264M14,282L14,284L13,286M24,282L24,284L23,286M31,274L37,274L37,278L31,284L37,284M57,274L52,274L52,278L57,278L57,284L52,284M77,274L72,274L72,278L77,278L77,284L72,284M117,278L112,278L112,274L117,274L117,284L112,284L112,278M134,282L134,284L133,286M274,282L274,284L273,286M281,274L287,274L287,278L281,284L287,284M301,274L307,274L307,278L301,284L307,284M364,282L364,284L363,286M371,274L377,274L377,278L371,284L377,284M31,294L37,294L37,298L31,304L37,304M51,294L57,294L57,298L51,304L57,304M74,302L74,304L73,306M81,294L87,294L87,298L81,304L87,304M141,294L147,294L147,298L141,304L147,304M161,294L167,294L167,298L161,304L167,304M184,302L184,304L183,306M194,302L194,304L193,306M277,294L272,294L272,298L277,298L277,304L272,304M297,298L292,298L292,294L297,294L297,304L292,304L292,298M314,302L314,304L313,306M341,294L347,294L347,298L341,304L347,304M361,294L367,294L367,298L361,304L367,304M21,314L27,314L27,318L21,324L27,324M44,322L44,324L43,326M51,314L57,314L57,318L51,324L57,324M111,314L117,314L117,318L111,324L117,324M164,322L164,324L163,326M174,322L174,324L173,326M227,314L222,314L222,318L227,318L227,324L222,324M247,318L242,318L242,314L247,314L247,324L242,324L242,318M264,322L264,324L263,326M317,314L312,314L312,318L317,318L317,324L312,324M374,322L374,324L373,326M407,318L402,318L402,314L407,314L407,324L402,324L402,318M57,338L52,338L52,334L57,334L57,344L52,344L52,338M74,342L74,344L73,346M107,334L102,334L102,338L107,338L107,344L102,344M147,338L142,338L142,334L147,334L147,344L142,344L142,338M164,342L164,344L163,346M174,342L174,344L173,346M184,342L184,344L183,346M197,334L192,334L192,338L197,338L197,344L192,344M217,334L212,334L212,338L217,338L217,344L212,344M292,336L297,336M294,334L294,344L297,344M324,342L324,344L323,346M343,332L345,336L345,342L343,346M21,356L28,360L21,364M92,356L97,356M94,354L94,364L97,364M143,352L145,356L145,362L143,366M221,356L228,360L221,364M274,362L274,364L273,366M282,356L287,356M284,354L284,364L287,364M364,362L364,364L363,366M372,356L377,356M374,354L374,364L377,364M408,364L401,364L401,356L408,356L408,360L401,360M12,384L12,376L17,376L17,384M32,376L37,376M34,374L34,384L37,384M42,372L42,384M42,378L47,378L47,384M51,386L57,372M71,374L77,374L77,378L71,384L77,384M84,382L84,384L83,386M92,376L97,376M94,374L94,384L97,384M163,372L165,376L165,382L163,386M181,376L188,380L181,384M274,382L274,384L273,386M363,372L365,376L365,382L363,386M373,372L375,376L375,382L373,386M383,372L385,376L385,382L383,386M393,372L395,376L395,382L393,386M404,382L404,384L403,386M54,402L54,404L53,406M114,402L114,404L113,406M144,402L144,404L143,406M184,402L184,404L183,406M224,402L224,404L223,406M58,424L51,424L51,416L58,416L58,420L51,420M118,424L111,424L111,416L118,416L118,420L111,420M127,414L122,414L122,418L127,420L127,424L122,424M142,424L142,416L147,416L147,424M243,412L245,416L245,422L243,426M321,416L328,420L321,424M34,442L34,444L33,446M58,438L57,444L51,442L53,438L58,444L52,434L56,434M68,438L67,444L61,442L63,438L68,444L62,434L66,434M151,436L158,440L151,444M251,444L251,432L254,440L257,432L257,444M384,442L384,444L383,446M23,452L25,456L25,462L23,466M41,456L48,460L41,464M104,462L104,464L103,466M151,466L157,452M177,454L172,454L172,458L177,458L177,464L172,464M193,452L195,456L195,462L193,466M242,464L242,456L247,456L247,464M293,452L295,456L295,462L293,466M303,452L305,456L305,462L303,466M314,462L314,464L313,466M393,452L395,456L395,462L393,466M401,456L408,460L401,464M113,472L115,476L115,482L113,486M128,478L127,484L121,482L123,478L128,484L122,474L126,474M138,478L137,484L131,482L133,478L138,484L132,474L136,474M184,482L184,484L183,486M221,474L227,474L227,478L221,484L227,484M243,472L245,476L245,482L243,486M253,472L255,476L255,482L253,486M263,472L265,476L265,482L263,486M274,482L274,484L273,486M311,476L313,484L315,478L317,484L319,476M342,476L347,476M344,474L344,484L347,484M358,484L351,484L351,476L358,476L358,480L351,480M398,484L391,484L391,476L398,476L398,480L391,480M407,474L402,474L402,478L407,480L407,484L402,484M22,504L22,496L27,496L27,504M124,502L124,504L123,506M191,496L193,504L195,498L197,504L199,496M222,496L227,496M224,494L224,504L227,504M232,492L232,504M232,498L237,498L237,504M271,494L277,494L277,498L271,504L277,504M312,492L312,504M312,498L317,498L317,504M328,504L321,504L321,496L328,496L328,500L321,500M352,492L352,504M352,498L357,498L357,504M362,496L367,496M364,494L364,504L367,504M397,494L392,494L392,498L397,498L397,504L392,504M72,524L72,516L77,516L77,524M112,512L112,524M112,518L117,518L117,524M122,516L127,516M124,514L124,524L127,524M132,516L137,516M134,514L134,524L137,524M161,526L167,512M171,526L177,512M181,516L183,524L185,518L187,524L189,516M191,516L193,524L195,518L197,524L199,516M201,516L203,524L205,518L207,524L209,516M221,516L223,524L225,518L227,524L229,516M281,526L287,512M291,514L297,514L297,518L291,524L297,524M331,526L337,512M381,516L388,520L381,524M91,536L98,540L91,544M142,536L147,536M144,534L144,544L147,544M152,532L152,544M152,538L157,538L157,544M261,546L267,532M271,536L278,540L271,544M293,532L295,536L295,542L293,546M342,544L342,536L347,536L347,544M383,532L385,536L385,542L383,546M21,566L27,552M61,556L68,560L61,564M83,552L85,556L85,562L83,566"/></svg>