<svg height="210mm" style="background:white" viewBox="0 0 297 210" width="297mm" xmlns="http://www.w3.org/2000/svg" xmlns:inkscape="http://www.inkscape.org/namespaces/inkscape">
<g inkscape:groupmode="layer" inkscape:label="black">
<path d="M10,105 L10.056,124.858986 L10.112,143.90701 L10.168,161.38661 L10.224,176.60419 L10.28,188.9573 L10.336,197.95865 L10.392,203.25497 L10.448,204.64095 L10.504,202.06699 L10.56,195.64085 L10.616,185.623 L10.672,172.41599 L10.728,156.54814 L10.784,138.65231 L10.84,119.440636 L10.896,99.67607 L10.952,80.142105 L11.008,61.611687 L11.064,44.816673 L11.12,30.418947 L11.176,18.98442 L11.232,10.960865 L11.288,6.660489 L11.344,6.247903 L11.4,9.733944 L11.456,16.97559 L11.512,27.681936 L11.568,41.425995 L11.624,57.661827 L11.68,75.7463 L11.736,94.96464 L11.792,114.55874 L11.848,133.75706 L11.904,151.80502 L11.96,167.99466 L12.016,181.69229 L12.072,192.3633 L12.128,199.59288 L12.184,203.10208 L12.24,202.75845 L12.296,198.58087 L12.352,190.73853 L12.408,179.54393 L12.464,165.44034 L12.52,148.98415 L12.576,130.82281 L12.632,111.66938 L12.688,92.27436 L12.744,73.39639 L12.8,55.772507 L12.856,40.08942 L12.912,26.956812 L12.968,16.883703 L13.024,10.258814 L13.08,7.335665 L13.136,8.223002 L13.192,12.880868 L13.248,21.122496 L13.304,32.621902 L13.36,46.926888 L13.416,63.476917 L13.472,81.625145 L13.528,100.66378 L13.584,119.8517 L13.64,138.44333 L13.696,155.71762 L13.752,171.00594 L13.808,183.71794 L13.864,193.36427 L13.92,199.5753 L13.976,202.1152 L14.032,200.8908 L14.088,195.9548 L14.144,187.50354 L14.2,175.86894 L14.256,161.50545 L14.312,144.9722 L14.368,126.911125 L14.424,108.02201 L14.48,89.035355 L14.536,70.684074 L14.592,53.675243 L14.648,38.662872 L14.704,26.222818 L14.76,16.830778 L14.816,10.8441725 L14.872,8.488657 L14.928,9.8497305 L14.984,14.869755 L15.04,23.350494 L15.096,34.961044 L15.152,49.250854 L15.208,65.66728 L15.264,83.57706 L15.32,102.29074 L15.376,121.08934 L15.432,139.25189 L15.488,156.08316 L15.544,170.94017 L15.6,183.25673 L15.656,192.56496 L15.712,198.51292 L15.768,200.8779 L15.824,199.57458 L15.88,194.65799 L15.936,186.32112 L15.992,174.8872 L16.048,160.79715 L16.104,144.59239 L16.16,126.89401 L16.216,108.378944 L16.272,89.75398 L16.328,71.72881 L16.384,54.988976 L16.44,40.169838 L16.496,27.832514 L16.552,18.44269 L16.608,12.353139 L16.664,9.7905655 L16.72,10.847273 L16.776,15.477963 L16.832,23.501766 L16.888,34.6094 L16.944,48.375202 L17,64.27351 L17.056,81.69883 L17.112,99.98893 L17.168,118.45004 L17.224,136.38324 L17.28,153.1108 L17.336,168.00189 L17.392,180.49623 L17.448,190.12517 L17.504,196.5291 L17.56,199.47089 L17.616,198.84448 L17.672,194.6786 L17.728,187.13542 L17.784,176.50414 L17.84,163.1897 L17.896,147.69742 L17.952,130.61366 L18.008,112.58359 L18.064,94.28676 L18.12,76.411514 L18.176,59.629105 L18.232,44.568443 L18.288,31.792648 L18.344,21.778015 L18.4,14.896352 L18.456,11.401268 L18.512,11.418928 L18.568,14.943618 L18.624,21.838251 L18.68,31.839802 L18.736,44.569435 L18.792,59.54694 L18.848,76.20893 L18.904,93.93008 L18.96,112.046646 L19.016,129.88135 L19.072,146.76866 L19.128,162.07968 L19.184,175.24548 L19.24,185.77815 L19.296,193.2889 L19.352,197.5022 L19.408,198.2659 L19.464,195.55653 L19.52,189.47995 L19.576,180.26706 L19.632,168.26498 L19.688,153.92383 L19.744,137.77982 L19.8,120.43512 L19.856,102.535355 L19.912,84.74554 L19.968,67.72538 L20.024,52.10482 L20.08,38.460766 L20.136,27.29581 L20.192,19.01982 L20.248,13.934947 L20.304,12.224719 L20.36,13.947498 L20.416,19.03462 L20.472,27.29322 L20.528,38.413635 L20.584,51.98111 L20.64,67.49134 L20.696,84.369286 L20.752,101.99055 L20.808,119.70447 L20.864,136.8582 L20.92,152.82077 L20.976,167.0062 L21.032,178.89502 L21.088,188.05324 L21.144,194.14806 L21.2,196.9599 L21.256,196.39024 L21.312,192.46492 L21.368,185.33289 L21.424,175.26054 L21.48,162.6216 L21.536,147.88318 L21.592,131.58849 L21.648,114.33674 L21.704,96.76104 L21.76,79.505196 L21.816,63.200096 L21.872,48.440678 L21.928,35.764256 L21.984,25.631023 L22.04,18.407408 L22.096,14.352916 L22.152,13.610901 L22.208,16.203604 L22.264,22.031612 L22.32,30.87777 L22.376,42.415356 L22.432,56.220238 L22.488,71.78653 L22.544,88.5452 L22.6,105.88491 L22.656,123.17435 L22.712,139.7852 L22.768,155.11499 L22.824,168.60892 L22.88,179.77985 L22.936,188.22583 L22.992,193.64455 L23.048,195.84396 L23.104,194.7491 L23.16,190.40443 L23.216,182.97203 L23.272,172.7254 L23.328,160.0394 L23.384,145.37634 L23.44,129.26915 L23.496,112.30195 L23.552,95.08879 L23.608,78.25148 L23.664,62.397076 L23.72,48.096024 L23.776,35.861706 L23.832,26.132025 L23.888,19.25384 L23.944,15.470654 L24,14.914104 L24.056,17.599478 L24.112,23.42543 L24.168,32.1779 L24.224,43.538055 L24.28,57.094 L24.336,72.355774 L24.392,88.7731 L24.448,105.75532 L24.504,122.6926 L24.56,138.97787 L24.616,154.02861 L24.672,167.30757 L24.728,178.342 L24.784,186.7403 L24.84,192.20595 L24.896,194.54787 L24.952,193.68695 L25.008,189.65868 L25.064,182.61154 L25.12,172.80157 L25.176,160.58284 L25.232,146.39468 L25.288,130.74582 L25.344,114.19602 L25.4,97.33613 L25.456,80.7669 L25.512,65.077576 L25.568,50.82501 L25.624,38.513885 L25.68,28.57893 L25.736,21.369617 L25.792,17.137949 L25.848,16.029745 L25.904,18.07971 L25.96,23.21046 L26.016,31.235535 L26.072,41.86624 L26.128,54.722137 L26.184,69.34471 L26.24,85.21378 L26.296,101.766075 L26.352,118.4152 L26.408,134.5725 L26.464,149.66776 L26.52,163.1694 L26.576,174.60315 L26.632,183.56854 L26.688,189.75302 L26.744,192.94261 L26.8,193.02937 L26.856,190.01483 L26.912,184.00977 L26.968,175.22998 L27.024,163.98853 L27.08,150.6844 L27.136,135.7884 L27.192,119.82634 L27.248,103.360466 L27.304,86.96964 L27.36,71.22902 L27.416,56.6898 L27.472,43.860035 L27.528,33.18687 L27.584,25.041039 L27.64,19.70405 L27.696,17.358547 L27.752,18.08215 L27.808,21.844975 L27.864,28.510942 L27.92,37.842773 L27.976,49.510517 L28.032,63.1033 L28.088,78.14383 L28.144,94.10524 L28.2,110.42954 L28.256,126.54719 L28.312,141.8969 L28.368,155.94524 L28.424,168.2051 L28.48,178.2525 L28.536,185.74133 L28.592,190.415 L28.648,192.1153 L28.704,190.78761 L28.76,186.48256 L28.816,179.35403 L28.872,169.65355 L28.928,157.72137 L28.984,143.97446 L29.04,128.89185 L29.096,112.997894 L29.152,96.84408 L29.208,80.98978 L29.264,65.98295 L29.32,52.341183 L29.376,40.533897 L29.432,30.966228 L29.488,23.9652 L29.544,19.76861 L29.6,18.517038 L29.656,20.24923 L29.712,24.900991 L29.768,32.307663 L29.824,42.210003 L29.88,54.263355 L29.936,68.049706 L29.992,83.09223 L30.048,98.87184 L30.104,114.845116 L30.16,130.46303 L30.216,145.1898 L30.272,158.52132 L30.328,170.00227 L30.384,179.24171 L30.44,185.9263 L30.496,189.83083 L30.552,190.82576 L30.608,188.88141 L30.664,184.06873 L30.72,176.55667 L30.776,166.60616 L30.832,154.56091 L30.888,140.83562 L30.944,125.90144 L31,110.269966 L31.056,94.47555 L31.112,79.05707 L31.168,64.53954 L31.224,51.41628 L31.28,40.132126 L31.336,31.068464 L31.392,24.530375 L31.448,20.73643 L31.504,19.811478 L31.56,21.782616 L31.616,26.578508 L31.672,34.032032 L31.728,43.88619 L31.784,55.80303 L31.84,69.375305 L31.896,84.14046 L31.952,99.5964 L32.008,115.21862 L32.064,130.47801 L32.12,144.85875 L32.176,157.87578 L32.232,169.09106 L32.288,178.12831 L32.344,184.68555 L32.4,188.54512 L32.456,189.58087 L32.512,187.76213 L32.568,183.15456 L32.624,175.91771 L32.68,166.29938 L32.736,154.62712 L32.792,141.29698 L32.848,126.759995 L32.904,111.506935 L32.96,96.0517 L33.016,80.91394 L33.072,66.60166 L33.128,53.594143 L33.184,42.325947 L33.24,33.172424 L33.296,26.437296 L33.352,22.342617 L33.408,21.021553 L33.464,22.514116 L33.52,26.766064 L33.576,33.630928 L33.632,42.875137 L33.688,54.186035 L33.744,67.18252 L33.8,81.42794 L33.856,96.444786 L33.912,111.73075 L33.968,126.77554 L34.024,141.0779 L34.08,154.1623 L34.136,165.5947 L34.192,174.99695 L34.248,182.05922 L34.304,186.55011 L34.36,188.32422 L34.416,187.3267 L34.472,183.59497 L34.528,177.25713 L34.584,168.52754 L34.64,157.69955 L34.696,145.13553 L34.752,131.25464 L34.808,116.5189 L34.864,101.41774 L34.92,86.451706 L34.976,72.11591 L35.032,58.88362 L35.088,47.190685 L35.144,37.421223 L35.2,29.895042 L35.256,24.857239 L35.312,22.470285 L35.368,22.808872 L35.424,25.857647 L35.48,31.511951 L35.536,39.581474 L35.592,49.796722 L35.648,61.818104 L35.704,75.24725 L35.76,89.64028 L35.816,104.52249 L35.872,119.40405 L35.928,133.7961 L35.984,147.22684 L36.04,159.25693 L36.096,169.49388 L36.152,177.60477 L36.208,183.32698 L36.264,186.47676 L36.32,186.95488 L36.376,184.74983 L36.432,179.9379 L36.488,172.68045 L36.544,163.21852 L36.6,151.86469 L36.656,138.9927 L36.712,125.025154 L36.768,110.41953 L36.824,95.653244 L36.88,81.20798 L36.936,67.554016 L36.992,55.134914 L37.048,44.353153 L37.104,35.557117 L37.16,29.029892 L37.216,24.980227 L37.272,23.535921 L37.328,24.739872 L37.384,28.548883 L37.44,34.835285 L37.496,43.391277 L37.552,53.935852 L37.608,66.12411 L37.664,79.55856 L37.72,93.80215 L37.776,108.39249 L37.832,122.856895 L37.888,136.7277 L37.944,149.55736 L38,160.93286 L38.056,170.489 L38.112,177.92004 L38.168,182.98946 L38.224,185.53737 L38.28,185.48552 L38.336,182.83963 L38.392,177.68895 L38.448,170.20326 L38.504,160.62714 L38.56,149.27191 L38.616,136.50555 L38.672,122.74063 L38.728,108.42098 L38.784,94.007385 L38.84,79.96269 L38.896,66.737 L38.952,54.75325 L39.008,44.393703 L39.064,35.987812 L39.12,29.801786 L39.176,26.030228 L39.232,24.790077 L39.288,26.117064 L39.344,29.964752 L39.4,36.20624 L39.456,44.638412 L39.512,54.988586 L39.568,66.92343 L39.624,80.0597 L39.68,93.97663 L39.736,108.22939 L39.792,122.363365 L39.848,135.9286 L39.904,148.49422 L39.96,159.66193 L40.016,169.07875 L40.072,176.44807 L40.128,181.53893 L40.184,184.19319 L40.24,184.3304 L40.296,181.95015 L40.352,177.13188 L40.408,170.03215 L40.464,160.87953 L40.52,149.96716 L40.576,137.6433 L40.632,124.30016 L40.688,110.361465 L40.744,96.26885 L40.8,82.46797 L40.856,69.39435 L40.912,57.459667 L40.968,47.038822 L41.024,38.45821 L41.08,31.985518 L41.136,27.821465 L41.192,26.093615 L41.248,26.852556 L41.304,30.070494 L41.36,35.642315 L41.416,43.389088 L41.472,53.063877 L41.528,64.35965 L41.584,76.9191 L41.64,90.34595 L41.696,104.217514 L41.752,118.09802 L41.808,131.55229 L41.864,144.1594 L41.92,155.52577 L41.976,165.29752 L42.032,173.17133 L42.088,178.90393 L42.144,182.31943 L42.2,183.31476 L42.256,181.86266 L42.312,178.01228 L42.368,171.88762 L42.424,163.68332 L42.48,153.65846 L42.536,142.1284 L42.592,129.4547 L42.648,116.03382 L42.704,102.28467 L42.76,88.63551 L42.816,75.51066 L42.872,63.317223 L42.928,52.432587 L42.984,43.192696 L43.04,35.881767 L43.096,30.723581 L43.152,27.874704 L43.208,27.419794 L43.264,29.369152 L43.32,33.6586 L43.376,40.15164 L43.432,48.643875 L43.488,58.869473 L43.544,70.50957 L43.6,83.20223 L43.656,96.55376 L43.712,110.150894 L43.768,123.57368 L43.824,136.40834 L43.88,148.26013 L43.936,158.76537 L43.992,167.6026 L44.048,174.50238 L44.104,179.25546 L44.16,181.71902 L44.216,181.821 L44.272,179.56197 L44.328,175.0151 L44.384,168.32364 L44.44,159.69637 L44.496,149.40103 L44.552,137.75595 L44.608,125.12022 L44.664,111.88249 L44.72,98.44908 L44.776,85.23147 L44.832,72.63368 L44.888,61.03996 L44.944,50.803078 L45,42.23362 L45.056,35.59062 L45.112,31.07377 L45.168,28.817492 L45.224,28.886982 L45.28,31.27641 L45.336,35.909267 L45.392,42.640884 L45.448,51.262997 L45.504,61.510242 L45.56,73.068375 L45.616,85.58396 L45.672,98.67517 L45.728,111.94351 L45.784,124.9859 L45.84,137.40695 L45.896,148.83096 L45.952,158.91318 L46.008,167.35027 L46.064,173.8893 L46.12,178.33539 L46.176,180.55731 L46.232,180.49146 L46.288,178.14348 L46.344,173.58798 L46.4,166.9661 L46.456,158.48108 L46.512,148.39194 L46.568,137.00558 L46.624,124.66739 L46.68,111.75069 L46.736,98.64547 L46.792,85.74661 L46.848,73.44196 L46.904,62.100674 L46.96,52.06219 L47.016,43.6261 L47.072,37.04323 L47.128,32.508244 L47.184,30.15395 L47.24,30.047457 L47.296,32.18834 L47.352,36.508823 L47.408,42.87597 L47.464,51.09584 L47.52,60.919445 L47.576,72.05033 L47.632,84.15359 L47.688,96.8659 L47.744,109.80655 L47.8,122.58876 L47.856,134.83131 L47.912,146.16985 L47.968,156.26775 L48.024,164.82605 L48.08,171.59229 L48.136,176.36787 L48.192,179.0139 L48.248,179.4551 L48.304,177.6819 L48.36,173.7506 L48.416,167.78145 L48.472,159.95502 L48.528,150.5066 L48.584,139.71913 L48.64,127.91464 L48.696,115.44466 L48.752,102.67969 L48.808,89.9982 L48.864,77.775406 L48.92,66.37217 L48.976,56.12436 L49.032,47.332993 L49.088,40.25544 L49.144,35.097908 L49.2,32.009518 L49.256,31.078022 L49.312,32.32739 L49.368,35.717255 L49.424,41.144268 L49.48,48.445316 L49.536,57.402454 L49.592,67.74947 L49.648,79.17984 L49.704,91.35583 L49.76,103.91851 L49.816,116.49834 L49.872,128.72606 L49.928,140.2435 L49.984,150.71408 L50.04,159.8326 L50.096,167.3341 L50.152,173.00157 L50.208,176.6721 L50.264,178.24156 L50.32,177.66748 L50.376,174.97014 L50.432,170.2318 L50.488,163.59415 L50.544,155.25404 L50.6,145.45757 L50.656,134.49277 L50.712,122.68117 L50.768,110.36825 L50.824,97.913376 L50.88,85.67931 L50.936,74.02162 L50.992,63.278347 L51.048,53.76026 L51.104,45.741875 L51.16,39.453583 L51.216,35.07507 L51.272,32.730232 L51.328,32.48374 L51.384,34.339302 L51.44,38.23972 L51.496,44.068695 L51.552,51.654358 L51.608,60.77438 L51.664,71.16252 L51.72,82.516464 L51.776,94.506615 L51.832,106.7857 L51.888,118.99885 L51.944,130.79384 L52,141.83124 L52.056,151.79419 L52.112,160.39743 L52.168,167.39548 L52.224,172.58955 L52.28,175.8332 L52.336,177.03636 L52.392,176.16782 L52.448,173.25592 L52.504,168.38763 L52.56,161.70592 L52.616,153.40541 L52.672,143.72678 L52.728,132.94969 L52.784,121.38466 L52.84,109.36413 L52.896,97.232864 L52.952,85.338066 L53.008,74.01943 L53.064,63.5995 L53.12,54.374416 L53.176,46.60561 L53.232,40.51238 L53.288,36.265774 L53.344,33.98381 L53.4,33.728283 L53.456,35.50312 L53.512,39.254436 L53.568,44.872215 L53.624,52.193577 L53.68,61.007553 L53.736,71.06121 L53.792,82.06695 L53.848,93.71072 L53.904,105.661064 L53.96,117.57852 L54.016,129.12529 L54.072,139.97478 L54.128,149.82088 L54.184,158.38647 L54.24,165.43134 L54.296,170.75874 L54.352,174.22093 L54.408,175.72316 L54.464,175.22626 L54.52,172.74757 L54.576,168.36034 L54.632,162.19144 L54.688,154.41772 L54.744,145.26091 L54.8,134.98116 L54.856,123.8697 L54.912,112.24055 L54.968,100.42159 L55.024,88.745384 L55.08,77.53971 L55.136,67.118484 L55.192,57.772907 L55.248,49.76338 L55.304,43.31228 L55.36,38.59783 L55.416,35.74922 L55.472,34.843105 L55.528,35.901608 L55.584,38.89184 L55.64,43.72697 L55.696,50.26879 L55.752,58.3317 L55.808,67.68803 L55.864,78.07449 L55.92,89.199646 L55.976,100.75206 L56.032,112.409065 L56.088,123.84578 L56.144,134.74414 L56.2,144.80177 L56.256,153.74031 L56.312,161.31311 L56.368,167.31204 L56.424,171.57307 L56.48,173.98085 L56.536,174.47163 L56.592,173.03505 L56.648,169.71413 L56.704,164.60405 L56.76,157.84935 L56.816,149.63977 L56.872,140.2049 L56.928,129.80772 L56.984,118.73726 L57.04,107.30053 L57.096,95.81398 L57.152,84.594765 L57.208,73.951965 L57.264,64.178116 L57.32,55.541157 L57.376,48.27713 L57.432,42.583755 L57.488,38.6151 L57.544,36.477448 L57.6,36.226494 L57.656,37.865967 L57.712,41.34765 L57.768,46.57284 L57.824,53.395203 L57.88,61.624905 L57.936,71.03393 L57.992,81.362434 L58.048,92.325966 L58.104,103.623276 L58.16,114.94466 L58.216,125.98039 L58.272,136.42928 L58.328,146.00674 L58.384,154.45271 L58.44,161.5385 L58.496,167.07306 L58.552,170.90808 L58.608,172.94186 L58.664,173.12207 L58.72,171.44688 L58.776,167.96509 L58.832,162.77441 L58.888,156.01895 L58.944,147.88495 L59,138.5957 L59.056,128.40546 L59.112,117.592285 L59.168,106.45059 L59.224,95.28306 L59.28,84.39237 L59.336,74.073105 L59.392,64.603676 L59.448,56.238926 L59.504,49.203243 L59.56,43.684593 L59.616,39.82954 L59.672,37.739388 L59.728,37.467567 L59.784,39.018333 L59.84,42.34676 L59.896,47.3601 L59.952,53.920414 L60.008,61.848385 L60.064,70.928276 L60.12,80.91384 L60.176,91.53498 L60.232,102.50514 L60.288,113.52899 L60.344,124.31042 L60.4,134.56044 L60.456,144.00499 L60.512,152.3922 L60.568,159.49907 L60.624,165.1374 L60.68,169.15874 L60.736,171.45822 L60.792,171.97725 L60.848,170.70502 L60.904,167.67856 L60.96,162.9817 L61.016,156.74269 L61.072,149.13065 L61.128,140.35092 L61.184,130.63957 L61.24,120.256935 L61.296,109.48067 L61.352,98.59829 L61.408,87.89953 L61.464,77.66858 L61.52,68.17657 L61.576,59.67441 L61.632,52.386173 L61.688,46.50322 L61.744,42.179203 L61.8,39.526104 L61.856,38.611374 L61.912,39.456264 L61.968,42.035393 L62.024,46.277534 L62.08,52.06763 L62.136,59.249954 L62.192,67.63234 L62.248,76.991325 L62.304,87.07819 L62.36,97.625534 L62.416,108.35441 L62.472,118.9817 L62.528,129.22758 L62.584,138.82292 L62.64,147.51627 L62.696,155.08047 L62.752,161.31859 L62.808,166.06892 L62.864,169.20929 L62.92,170.65997 L62.976,170.38582 L63.032,168.397 L63.088,164.7486 L63.144,159.5391 L63.2,152.90758 L63.256,145.03015 L63.312,136.11505 L63.368,126.397224 L63.424,116.13209 L63.48,105.58876 L63.536,95.04306 L63.592,84.77025 L63.648,75.03785 L63.704,66.0987 L63.76,58.184418 L63.816,51.499382 L63.872,46.21553 L63.928,42.46795 L63.984,40.351456 L64.04,39.91826 L64.096,41.176697 L64.152,44.091167 L64.208,48.583138 L64.264,54.53333 L64.32,61.784904 L64.376,70.147644 L64.432,79.40296 L64.488,89.30963 L64.544,99.61012 L64.6,110.037285 L64.656,120.32128 L64.712,130.19658 L64.768,139.4088 L64.824,147.72124 L64.88,154.92096 L64.936,160.8242 L64.992,165.28102 L65.048,168.1791 L65.104,169.44647 L65.16,169.05339 L65.216,167.01285 L65.272,163.38017 L65.328,158.25151 L65.384,151.76122 L65.44,144.07831 L65.496,135.40207 L65.552,125.95677 L65.608,115.98592 L65.664,105.74598 L65.72,95.49967 L65.776,85.50934 L65.832,76.03016 L65.888,67.30369 L65.944,59.551685 L66,52.97051 L66.056,47.72618 L66.112,43.950233 L66.168,41.73643 L66.224,41.138493 L66.28,42.168842 L66.336,44.79838 L66.392,48.957367 L66.448,54.53729 L66.504,61.39373 L66.56,69.35016 L66.616,78.20246 L66.672,87.72426 L66.728,97.672676 L66.784,107.79454 L66.84,117.83287 L66.896,127.53338 L66.952,136.65091 L67.008,144.95561 L67.064,152.23874 L67.12,158.31784 L67.176,163.04134 L67.232,166.29224 L67.288,167.99101 L67.344,168.0975 L67.4,166.61183 L67.456,163.57423 L67.512,159.06403 L67.568,153.19742 L67.624,146.12453 L67.68,138.0255 L67.736,129.10588 L67.792,119.59137 L67.848,109.72214 L67.904,99.746704 L67.96,89.91571 L68.016,80.47558 L68.072,71.66239 L68.128,63.695972 L68.184,56.774433 L68.24,51.069263 L68.296,46.721127 L68.352,43.836403 L68.408,42.484646 L68.464,42.696938 L68.52,44.465214 L68.576,47.74258 L68.632,52.444584 L68.688,58.45144 L68.744,65.61109 L68.8,73.7431 L68.856,82.64324 L68.912,92.088615 L68.968,101.84326 L69.024,111.66408 L69.08,121.306854 L69.136,130.53236 L69.192,139.1123 L69.248,146.83488 L69.304,153.51007 L69.36,158.97426 L69.416,163.09416 L69.472,165.77017 L69.528,166.93857 L69.584,166.57314 L69.64,164.68564 L69.696,161.32541 L69.752,156.57808 L69.808,150.56332 L69.864,143.43182 L69.92,135.36148 L69.976,126.552895 L70.032,117.224434 L70.088,107.60677 L70.144,97.93717 L70.2,88.45361 L70.256,79.38897 L70.312,70.9653 L70.368,63.388386 L70.424,56.84276 L70.48,51.487213 L70.536,47.450996 L70.592,44.830708 L70.648,43.688026 L70.704,44.048306 L70.76,45.900047 L70.816,49.19529 L70.872,53.850876 L70.928,59.7506 L70.984,66.748116 L71.04,74.670616 L71.096,83.32312 L71.152,92.49327 L71.208,101.956604 L71.264,111.482 L71.32,120.83739 L71.376,129.79533 L71.432,138.13863 L71.488,145.66548 L71.544,152.19443 L71.6,157.56866 L71.656,161.65976 L71.712,164.37076 L71.768,165.63835 L71.824,165.43443 L71.88,163.76654 L71.936,160.6777 L71.992,156.24525 L72.048,150.5788 L72.104,143.81758 L72.16,136.12695 L72.216,127.69436 L72.272,118.7247 L72.328,109.4354 L72.384,100.05105 L72.44,90.798035 L72.496,81.899055 L72.552,73.567764 L72.608,66.003654 L72.664,59.387318 L72.72,53.876118 L72.776,49.60051 L72.832,46.660965 L72.888,45.125645 L72.944,45.02886 L73,46.37034 L73.056,49.11534 L73.112,53.19557 L73.168,58.510925 L73.224,64.93197 L73.28,72.30312 L73.336,80.44644 L73.392,89.16594 L73.448,98.25235 L73.504,107.48809 L73.56,116.65256 L73.616,125.52734 L73.672,133.90146 L73.728,141.57631 L73.784,148.37044 L73.84,154.12378 L73.896,158.70134 L73.952,161.99644 L74.008,163.93314 L74.064,164.46786 L74.12,163.59047 L74.176,161.32436 L74.232,157.72574 L74.288,152.88231 L74.344,146.91107 L74.4,139.95541 L74.456,132.18172 L74.512,123.77528 L74.568,114.93598 L74.624,105.87342 L74.68,96.80199 L74.736,87.93579 L74.792,79.4836 L74.848,71.64391 L74.904,64.60036 L74.96,58.517376 L75.016,53.5364 L75.072,49.772617 L75.128,47.312313 L75.184,46.210945 L75.24,46.491905 L75.296,48.146084 L75.352,51.132168 L75.408,55.377693 L75.464,60.780846 L75.52,67.21293 L75.576,74.52144 L75.632,82.533745 L75.688,91.06112 L75.744,99.90325 L75.8,108.85296 L75.856,117.701004 L75.912,126.241035 L75.968,134.27435 L76.024,141.61456 L76.08,148.09186 L76.136,153.5569 L76.192,157.88434 L76.248,160.97551 L76.304,162.76082 L76.36,163.20111 L76.416,162.28865 L76.472,160.04709 L76.528,156.5309 L76.584,151.82396 L76.64,146.0376 L76.696,139.30788 L76.752,131.79239 L76.808,123.666565 L76.864,115.11952 L76.92,106.34968 L76.976,97.56014 L77.032,88.953995 L77.088,80.72959 L77.144,73.07603 L77.2,66.16877 L77.256,60.165684 L77.312,55.203415 L77.368,51.39432 L77.424,48.823948 L77.48,47.549152 L77.536,47.59685 L77.592,48.963524 L77.648,51.61535 L77.704,55.489086 L77.76,60.493618 L77.816,66.51209 L77.872,73.40471 L77.928,81.01196 L77.984,89.15838 L78.04,97.65654 L78.096,106.31145 L78.152,114.924965 L78.208,123.300385 L78.264,131.24689 L78.32,138.58392 L78.376,145.14523 L78.432,150.78268 L78.488,155.3695 L78.544,158.80319 L78.6,161.00772 L78.656,161.9352 L78.712,161.5669 L78.768,159.91359 L78.824,157.01521 L78.88,152.93987 L78.936,147.7822 L78.992,141.66118 L79.048,134.71735 L79.104,127.109505 L79.16,119.01117 L79.216,110.6065 L79.272,102.08617 L79.328,93.643 L79.384,85.46762 L79.44,77.74415 L79.496,70.646065 L79.552,64.33232 L79.608,58.94383 L79.664,54.60028 L79.72,51.397564 L79.776,49.405655 L79.832,48.66711 L79.888,49.196213 L79.944,50.97871 L80,53.97223 L80.056,58.10731 L80.112,63.289043 L80.168,69.39927 L80.224,76.2993 L80.28,83.833084 L80.336,91.83076 L80.392,100.112465 L80.448,108.492455 L80.504,116.783195 L80.56,124.79962 L80.616,132.36322 L80.672,139.30605 L80.728,145.47435 L80.784,150.73209 L80.84,154.96376 L80.896,158.07709 L80.952,160.0048 L81.008,160.7063 L81.064,160.16821 L81.12,158.40486 L81.176,155.45769 L81.232,151.39433 L81.288,146.30707 L81.344,140.31061 L81.4,133.53957 L81.456,126.14539 L81.512,118.292984 L81.568,110.156944 L81.624,101.91776 L81.68,93.75775 L81.736,85.857056 L81.792,78.38965 L81.848,71.51951 L81.904,65.397064 L81.96,60.155876 L82.016,55.909782 L82.072,52.75042 L82.128,50.74528 L82.184,49.93631 L82.24,50.33904 L82.296,51.942337 L82.352,54.708736 L82.408,58.575317 L82.464,63.45518 L82.52,69.23941 L82.576,75.79954 L82.632,82.9904 L82.688,90.6534 L82.744,98.61996 L82.8,106.715294 L82.856,114.76222 L82.912,122.58506 L82.968,130.01341 L83.024,136.88594 L83.08,143.05382 L83.136,148.3839 L83.192,152.76166 L83.248,156.09358 L83.304,158.30913 L83.36,159.36221 L83.416,159.23215 L83.472,157.92401 L83.528,155.46841 L83.584,151.92084 L83.64,147.3603 L83.696,141.88762 L83.752,135.62308 L83.808,128.70386 L83.864,121.28097 L83.92,113.51594 L83.976,105.577324 L84.032,97.637 L84.088,89.86646 L84.144,82.433136 L84.2,75.49674 L84.256,69.20592 L84.312,63.695004 L84.368,59.081223 L84.424,55.462193 L84.48,52.913895 L84.536,51.489082 L84.592,51.21625 L84.648,52.099064 L84.704,54.11637 L84.76,57.22272 L84.816,61.349422 L84.872,66.406075 L84.928,72.282585 L84.984,78.85156 L85.04,85.97112 L85.096,93.48793 L85.152,101.24056 L85.208,109.062935 L85.264,116.78789 L85.32,124.25074 L85.376,131.29283 L85.432,137.76482 L85.488,143.52992 L85.544,148.46672 L85.6,152.47173 L85.656,155.46153 L85.712,157.37451 L85.768,158.1721 L85.824,157.83948 L85.88,156.38586 L85.936,153.84425 L85.992,150.27061 L86.048,145.74263 L86.104,140.35806 L86.16,134.2325 L86.216,127.49694 L86.272,120.29499 L86.328,112.779724 L86.384,105.11047 L86.44,97.44941 L86.496,89.958145 L86.552,82.79431 L86.608,76.10825 L86.664,70.03987 L86.72,64.71572 L86.776,60.246387 L86.832,56.724205 L86.888,54.221375 L86.944,52.788498 L87,52.453606 L87.056,53.2216 L87.112,55.074257 L87.168,57.970657 L87.224,61.848118 L87.28,66.62357 L87.336,72.19537 L87.392,78.445465 L87.448,85.24191 L87.504,92.44168 L87.56,99.89369 L87.616,107.44195 L87.672,114.92887 L87.728,122.19852 L87.784,129.09987 L87.84,135.48996 L87.896,141.23682 L87.952,146.22217 L88.008,150.34384 L88.064,153.51791 L88.12,155.6803 L88.176,156.7881 L88.232,156.82039 L88.288,155.77856 L88.344,153.6863 L88.4,150.58893 L88.456,146.55254 L88.512,141.6624 L88.568,136.02126 L88.624,129.7471 L88.68,122.97073 L88.736,115.83293 L88.792,108.481636 L88.848,101.06879 L88.904,93.747215 L88.96,86.667496 L89.016,79.97486 L89.072,73.8062 L89.128,68.28729 L89.184,63.530266 L89.24,59.631306 L89.296,56.668755 L89.352,54.70155 L89.408,53.76808 L89.464,53.885452 L89.52,55.049217 L89.576,57.233517 L89.632,60.39168 L89.688,64.45726 L89.744,69.34541 L89.8,74.954735 L89.856,81.169334 L89.912,87.86128 L89.968,94.893234 L90.024,102.121254 L90.08,109.39779 L90.136,116.57466 L90.192,123.506096 L90.248,130.05168 L90.304,136.07916 L90.36,141.46721 L90.416,146.1077 L90.472,149.90797 L90.528,152.79266 L90.584,154.70511 L90.64,155.6085 L90.696,155.48653 L90.752,154.34367 L90.808,152.20505 L90.864,149.1158 L90.92,145.14017 L90.976,140.36015 L91.032,134.8737 L91.088,128.79282 L91.144,122.24117 L91.2,115.35161 L91.256,108.26343 L91.312,101.11958 L91.368,94.06378 L91.424,87.237595 L91.48,80.777626 L91.536,74.8128 L91.592,69.46175 L91.648,64.83053 L91.704,61.010506 L91.76,58.076557 L91.816,56.085648 L91.872,55.07573 L91.928,55.06506 L91.984,56.051872 L92.04,58.0145 L92.096,60.911854 L92.152,64.6843 L92.208,69.25493 L92.264,74.531105 L92.32,80.40639 L92.376,86.7627 L92.432,93.47268 L92.488,100.40226 L92.544,107.41336 L92.6,114.36664 L92.656,121.12423 L92.712,127.55252 L92.768,133.52478 L92.824,138.92358 L92.88,143.64322 L92.936,147.59163 L92.992,150.69229 L93.048,152.88559 L93.104,154.13002 L93.16,154.4029 L93.216,153.70076 L93.272,152.0394 L93.328,149.45345 L93.384,145.9957 L93.44,141.73592 L93.496,136.75954 L93.552,131.1658 L93.608,125.06587 L93.664,118.58057 L93.72,111.83794 L93.776,104.97077 L93.832,98.11396 L93.888,91.40184 L93.944,84.965576 L94,78.93058 L94.056,73.414116 L94.112,68.522995 L94.168,64.35153 L94.224,60.979763 L94.28,58.471886 L94.336,56.875103 L94.392,56.21871 L94.448,56.51363 L94.504,57.75221 L94.56,59.90846 L94.616,62.938602 L94.672,66.78199 L94.728,71.36233 L94.784,76.589195 L94.84,82.35988 L94.896,88.56136 L94.952,95.07258 L95.008,101.76678 L95.064,108.51398 L95.12,115.18351 L95.176,121.64655 L95.232,127.77861 L95.288,133.46188 L95.344,138.58757 L95.4,143.05786 L95.456,146.78792 L95.512,149.7073 L95.568,151.76143 L95.624,152.91249 L95.68,153.14015 L95.736,152.44191 L95.792,150.83302 L95.848,148.34625 L95.904,145.03108 L95.96,140.95279 L96.016,136.19109 L96.072,130.83861 L96.128,124.99905 L96.184,118.78515 L96.24,112.316536 L96.296,105.717384 L96.352,99.11405 L96.408,92.63263 L96.464,86.39658 L96.52,80.52434 L96.576,75.12712 L96.632,70.30678 L96.688,66.15394 L96.744,62.746273 L96.8,60.14708 L96.856,58.404133 L96.912,57.548805 L96.968,57.59554 L97.024,58.54162 L97.08,60.367283 L97.136,63.036148 L97.192,66.49596 L97.248,70.679596 L97.304,75.50646 L97.36,80.883965 L97.416,86.70938 L97.472,92.871765 L97.528,99.25411 L97.584,105.73559 L97.64,112.19379 L97.696,118.50705 L97.752,124.5568 L97.808,130.2297 L97.864,135.41983 L97.92,140.03058 L97.976,143.9765 L98.032,147.18488 L98.088,149.59697 L98.144,151.16919 L98.2,151.87376 L98.256,151.69926 L98.312,150.65076 L98.368,148.74963 L98.424,146.0332 L98.48,142.55388 L98.536,138.3782 L98.592,133.58557 L98.648,128.26666 L98.704,122.521706 L98.76,116.45864 L98.816,110.19104 L98.872,103.83599 L98.928,97.51188 L98.984,91.33623 L99.04,85.42347 L99.096,79.88288 L99.152,74.81652 L99.208,70.31738 L99.264,66.46772 L99.32,63.33751 L99.376,60.98324 L99.432,59.446884 L99.488,58.755177 L99.544,58.91917 L99.6,59.93408 L99.656,61.779415 L99.712,64.41943 L99.768,67.80381 L99.824,71.86865 L99.88,76.53769 L99.936,81.72374 L99.992,87.33033 L100.048,93.25352 L100.104,99.38382 L100.16,105.60822 L100.216,111.81231 L100.272,117.88231 L100.328,123.70724 L100.384,129.18088 L100.44,134.20374 L100.496,138.68483 L100.552,142.54332 L100.608,145.70996 L100.664,148.12836 L100.72,149.75589 L100.776,150.5645 L100.832,150.54114 L100.888,149.68796 L100.944,148.02219 L101,145.57585 L101.056,142.39507 L101.112,138.53915 L101.168,134.0796 L101.224,129.09863 L101.28,123.68773 L101.336,117.94591 L101.392,111.977936 L101.448,105.8924 L101.504,99.799736 L101.56,93.810196 L101.616,88.03187 L101.672,82.56876 L101.728,77.51889 L101.784,72.97256 L101.84,69.010735 L101.896,65.70364 L101.952,63.10951 L102.008,61.27357 L102.064,60.22729 L102.12,59.987854 L102.176,60.557877 L102.232,61.925438 L102.288,64.064316 L102.344,66.93453 L102.4,70.483086 L102.456,74.64496 L102.512,79.34432 L102.568,84.49593 L102.624,90.006676 L102.68,95.77727 L102.736,101.70404 L102.792,107.68084 L102.848,113.60086 L102.904,119.35864 L102.96,124.85186 L103.016,129.98322 L103.072,134.66208 L103.128,138.80615 L103.184,142.34285 L103.24,145.21057 L103.296,147.35979 L103.352,148.75385 L103.408,149.3696 L103.464,149.19775 L103.52,148.24301 L103.576,146.52391 L103.632,144.07251 L103.688,140.93367 L103.744,137.16434 L103.8,132.83244 L103.856,128.01566 L103.912,122.79998 L103.968,117.278244 L104.024,111.54841 L104.08,105.711845 L104.136,99.87153 L104.192,94.13021 L104.248,88.58863 L104.304,83.34376 L104.36,78.48707 L104.416,74.10298 L104.472,70.26741 L104.528,67.04643 L104.584,64.495186 L104.64,62.656918 L104.696,61.562298 L104.752,61.228897 L104.808,61.66094 L104.864,62.84926 L104.92,64.771515 L104.976,67.392624 L105.032,70.66541 L105.088,74.53147 L105.144,78.92222 L105.2,83.76014 L105.256,88.96014 L105.312,94.43106 L105.368,100.07729 L105.424,105.80044 L105.48,111.50103 L105.536,117.08027 L105.592,122.44172 L105.648,127.493 L105.704,132.14731 L105.76,136.32501 L105.816,139.95488 L105.872,142.97534 L105.928,145.33559 L105.984,146.99623 L106.04,147.93018 L106.096,148.12282 L106.152,147.57246 L106.208,146.29013 L106.264,144.29945 L106.32,141.63615 L106.376,138.34746 L106.432,134.49113 L106.488,130.1346 L106.544,125.35363 L106.6,120.23109 L106.656,114.855446 L106.712,109.31929 L106.768,103.717674 L106.824,98.14653 L106.88,92.701 L106.936,87.4738 L106.992,82.5537 L107.048,78.02397 L107.104,73.96099 L107.16,70.432976 L107.216,67.49886 L107.272,65.207306 L107.328,63.595894 L107.384,62.690563 L107.44,62.505177 L107.496,63.04134 L107.552,64.288414 L107.608,66.223724 L107.664,68.81302 L107.72,72.01103 L107.776,75.76236 L107.832,80.00236 L107.888,84.658325 L107.944,89.65071 L108,94.89452 L108.056,100.30076 L108.112,105.777916 L108.168,111.23354 L108.224,116.57583 L108.28,121.7151 L108.336,126.56538 L108.392,131.04573 L108.448,135.08171 L108.504,138.60652 L108.56,141.56212 L108.616,143.90018 L108.672,145.58284 L108.728,146.58336 L108.784,146.88644 L108.84,146.48854 L108.896,145.39781 L108.952,143.63397 L109.008,141.22792 L109.064,138.22119 L109.12,134.66522 L109.176,130.62045 L109.232,126.1553 L109.288,121.34497 L109.344,116.27025 L109.4,111.01605 L109.456,105.67005 L109.512,100.321205 L109.568,95.058266 L109.624,89.96831 L109.68,85.13531 L109.736,80.638756 L109.792,76.55233 L109.848,72.94274 L109.904,69.86862 L109.96,67.379585 L110.016,65.515465 L110.072,64.30565 L110.128,63.768673 L110.184,63.911922 L110.24,64.73155 L110.296,66.212616 L110.352,68.32929 L110.408,71.045425 L110.464,74.31507 L110.52,78.08336 L110.576,82.28737 L110.632,86.857216 L110.688,91.71722 L110.744,96.787155 L110.8,101.9836 L110.856,107.22126 L110.912,112.41445 L110.968,117.478424 L111.024,122.330795 L111.08,126.89285 L111.136,131.09085 L111.192,134.85718 L111.248,138.13144 L111.304,140.86143 L111.36,143.00394 L111.416,144.52542 L111.472,145.40253 L111.528,145.62244 L111.584,145.183 L111.64,144.09279 L111.696,142.37093 L111.752,140.04665 L111.808,137.1589 L111.864,133.75563 L111.92,129.89296 L111.976,125.63431 L112.032,121.04928 L112.088,116.21256 L112.144,111.20268 L112.2,106.10075 L112.256,100.98911 L112.312,95.95005 L112.368,91.06444 L112.424,86.41046 L112.48,82.062355 L112.536,78.08924 L112.592,74.55403 L112.648,71.51243 L112.704,69.01207 L112.76,67.091805 L112.816,65.781075 L112.872,65.099495 L112.928,65.05657 L112.984,65.65157 L113.04,66.8736 L113.096,68.70177 L113.152,71.1056 L113.208,74.04553 L113.264,77.47357 L113.32,81.3341 L113.376,85.56477 L113.432,90.09755 L113.488,94.85977 L113.544,99.775375 L113.6,104.76604 L113.656,109.7525 L113.712,114.6558 L113.768,119.39848 L113.824,123.90589 L113.88,128.10728 L113.936,131.93697 L113.992,135.33528 L114.048,138.24956 L114.104,140.63495 L114.16,142.455 L114.216,143.68233 L114.272,144.29892 L114.328,144.29645 L114.384,143.67633 L114.44,142.44966 L114.496,140.63707 L114.552,138.26831 L114.608,135.38173 L114.664,132.02374 L114.72,128.24796 L114.776,124.114426 L114.832,119.68857 L114.888,115.04023 L114.944,110.24249 L115,105.3706 L115.056,100.500694 L115.112,95.70872 L115.168,91.06913 L115.224,86.65384 L115.28,82.53104 L115.336,78.76418 L115.392,75.41102 L115.448,72.52268 L115.504,70.14297 L115.56,68.30764 L115.616,67.04393 L115.672,66.370125 L115.728,66.295334 L115.784,66.819374 L115.84,67.93279 L115.896,69.61707 L115.952,71.84492 L116.008,74.58074 L116.064,77.7812 L116.12,81.395935 L116.176,85.36834 L116.232,89.63648 L116.288,94.13404 L116.344,98.79137 L116.4,103.53656 L116.456,108.29657 L116.512,112.99835 L116.568,117.56995 L116.624,121.941605 L116.68,126.04683 L116.736,129.82341 L116.792,133.21436 L116.848,136.16869 L116.904,138.64227 L116.96,140.59846 L117.016,142.00859 L117.072,142.85239 L117.128,143.11827 L117.184,142.80353 L117.24,141.91423 L117.296,140.46521 L117.352,138.47977 L117.408,135.98924 L117.464,133.03256 L117.52,129.65565 L117.576,125.91061 L117.632,121.854996 L117.688,117.55089 L117.744,113.06396 L117.8,108.46243 L117.856,103.816086 L117.912,99.19515 L117.968,94.66928 L118.024,90.30649 L118.08,86.17213 L118.136,82.327934 L118.192,78.83108 L118.248,75.73336 L118.304,73.080414 L118.36,70.91107 L118.416,69.256775 L118.472,68.14117 L118.528,67.57974 L118.584,67.579636 L118.64,68.13959 L118.696,69.24992 L118.752,70.8928 L118.808,73.04246 L118.864,75.66564 L118.92,78.722145 L118.976,82.1654 L119.032,85.943214 L119.088,89.99858 L119.144,94.270515 L119.2,98.69499 L119.256,103.20592 L119.312,107.73611 L119.368,112.21827 L119.424,116.586044 L119.48,120.774956 L119.536,124.723366 L119.592,128.37338 L119.648,131.67169 L119.704,134.57036 L119.76,137.02745 L119.816,139.00774 L119.872,140.48308 L119.928,141.43288 L119.984,141.84436 L120.04,141.71269 L120.096,141.04108 L120.152,139.84064 L120.208,138.1302 L120.264,135.9361 L120.32,133.29163 L120.376,130.2366 L120.432,126.816765 L120.488,123.08304 L120.544,119.090805 L120.6,114.89906 L120.656,110.56954 L120.712,106.16581 L120.768,101.75233 L120.824,97.39351 L120.88,93.15279 L120.936,89.09167 L120.992,85.26887 L121.048,81.73946 L121.104,78.5541 L121.16,75.75827 L121.216,73.39166 L121.272,71.48764 L121.328,70.07274 L121.384,69.16633 L121.44,68.780365 L121.496,68.91923 L121.552,69.57968 L121.608,70.75097 L121.664,72.41499 L121.72,74.54659 L121.776,77.113914 L121.832,80.07894 L121.888,83.39803 L121.944,87.02258 L122,90.89972 L122.056,94.97313 L122.112,99.18381 L122.168,103.47098 L122.224,107.77296 L122.28,112.028 L122.336,116.17526 L122.392,120.15559 L122.448,123.9124 L122.504,127.39251 L122.56,130.5468 L122.616,133.33101 L122.672,135.70625 L122.728,137.63959 L122.784,139.1045 L122.84,140.08125 L122.896,140.55704 L122.952,140.52628 L123.008,139.99059 L123.064,138.95877 L123.12,137.44664 L123.176,135.47676 L123.232,133.07814 L123.288,130.28577 L123.344,127.14011 L123.4,123.68649 L123.456,119.97448 L123.512,116.05713 L123.568,111.99024 L123.624,107.83155 L123.68,103.639915 L123.736,99.474495 L123.792,95.39388 L123.848,91.45531 L123.904,87.71382 L123.96,84.22155 L124.016,81.026955 L124.072,78.17418 L124.128,75.702415 L124.184,73.645424 L124.24,72.03104 L124.296,70.8808 L124.352,70.20972 L124.408,70.02603 L124.464,70.33117 L124.52,71.1197 L124.576,72.37949 L124.632,74.091866 L124.688,76.231895 L124.744,78.76877 L124.8,81.66626 L124.856,84.88323 L124.912,88.37422 L124.968,92.09012 L125.024,95.97883 L125.08,99.98602 L125.136,104.055885 L125.192,108.13192 L125.248,112.157715 L125.304,116.07771 L125.36,119.838 L125.416,123.38702 L125.472,126.6763 L125.528,129.6611 L125.584,132.30101 L125.64,134.5605 L125.696,136.40936 L125.752,137.82315 L125.808,138.78348 L125.864,139.27823 L125.92,139.30173 L125.976,138.85477 L126.032,137.94461 L126.088,136.58481 L126.144,134.79506 L126.2,132.60086 L126.256,130.03317 L126.312,127.127975 L126.368,123.92572 L126.424,120.470795 L126.48,116.81091 L126.536,112.99641 L126.592,109.07959 L126.648,105.113976 L126.704,101.153595 L126.76,97.25224 L126.816,93.46274 L126.872,89.83623 L126.928,86.42148 L126.984,83.26426 L127.04,80.406685 L127.096,77.886696 L127.152,75.737564 L127.208,73.98743 L127.264,72.65896 L127.32,71.769066 L127.376,71.3287 L127.432,71.342705 L127.488,71.809814 L127.544,72.72263 L127.6,74.067825 L127.656,75.82628 L127.712,77.97337 L127.768,80.47938 L127.824,83.309814 L127.88,86.42597 L127.936,89.785446 L127.992,93.34268 L128.048,97.04965 L128.104,100.85644 L128.16,104.71198 L128.216,108.564705 L128.272,112.36325 L128.328,116.05711 L128.384,119.597374 L128.44,122.93728 L128.496,126.032906 L128.552,128.8437 L128.608,131.33305 L128.664,133.46867 L128.72,135.2231 L128.776,136.57402 L128.832,137.50453 L128.888,138.00331 L128.944,138.06485 L129,137.68935 L129.056,136.88287 L129.112,135.65707 L129.168,134.02916 L129.224,132.02156 L129.28,129.66165 L129.336,126.98131 L129.392,124.016594 L129.448,120.80716 L129.504,117.39574 L129.56,113.8276 L129.616,110.149925 L129.672,106.41118 L129.728,102.66047 L129.784,98.94691 L129.84,95.318985 L129.896,91.8239 L129.952,88.50696 L130.008,85.41104 L130.064,82.57596 L130.12,80.03804 L130.176,77.8296 L130.232,75.97858 L130.288,74.50816 L130.344,73.43655 L130.4,72.776665 L130.456,72.53607 L130.512,72.71686 L130.568,73.31565 L130.624,74.32367 L130.68,75.72686 L130.736,77.50611 L130.792,79.637505 L130.848,82.09265 L130.904,84.839066 L130.96,87.840614 L131.016,91.058 L131.072,94.44924 L131.128,97.970276 L131.184,101.57551 L131.24,105.2184 L131.296,108.85207 L131.352,112.42992 L131.408,115.90619 L131.464,119.2366 L131.52,122.37886 L131.576,125.29321 L131.632,127.94296 L131.688,130.2949 L131.744,132.31973 L131.8,133.99242 L131.856,135.29251 L131.912,136.20436 L131.968,136.7173 L132.024,136.82582 L132.08,136.52953 L132.136,135.83319 L132.192,134.74663 L132.248,133.28462 L132.304,131.46661 L132.36,129.31654 L132.416,126.862434 L132.472,124.13611 L132.528,121.17271 L132.584,118.01026 L132.64,114.6892 L132.696,111.2518 L132.752,107.74171 L132.808,104.20331 L132.864,100.68124 L132.92,97.21976 L132.976,93.86223 L133.032,90.65057 L133.088,87.62476 L133.144,84.82227 L133.2,82.27769 L133.256,80.02225 L133.312,78.08345 L133.368,76.484764 L133.424,75.24533 L133.48,74.37973 L133.536,73.897835 L133.592,73.80469 L133.648,74.10049 L133.704,74.78058 L133.76,75.83553 L133.816,77.25128 L133.872,79.00934 L133.928,81.087 L133.984,83.45769 L134.04,86.091255 L134.096,88.954414 L134.152,92.01112 L134.208,95.223076 L134.264,98.550156 L134.32,101.95095 L134.376,105.38329 L134.432,108.80474 L134.488,112.173134 L134.544,115.44709 L134.6,118.58654 L134.656,121.5532 L134.712,124.31101 L134.768,126.82662 L134.824,129.06976 L134.88,131.01358 L134.936,132.63503 L134.992,133.91501 L135.048,134.83875 L135.104,135.39584 L135.16,135.58038 L135.216,135.39108 L135.272,134.83119 L135.328,133.90846 L135.384,132.63507 L135.44,131.0274 L135.496,129.1059 L135.552,126.8947 L135.608,124.421425 L135.664,121.71678 L135.72,118.81418 L135.776,115.74932 L135.832,112.55976 L135.888,109.28445 L135.944,105.963234 L136,102.63639 L136.056,99.344154 L136.112,96.126175 L136.168,93.0211 L136.224,90.06609 L136.28,87.296364 L136.336,84.74479 L136.392,82.44153 L136.448,80.41363 L136.504,78.68475 L136.56,77.274895 L136.616,76.20016 L136.672,75.47258 L136.728,75.099976 L136.784,75.08591 L136.84,75.42963 L136.896,76.126114 L136.952,77.166145 L137.008,78.53644 L137.064,80.219795 L137.12,82.19536 L137.176,84.43885 L137.232,86.92289 L137.288,89.61732 L137.344,92.48958 L137.4,95.50511 L137.456,98.62777 L137.512,101.820244 L137.568,105.04454 L137.624,108.26239 L137.68,111.43575 L137.736,114.527214 L137.792,117.50047 L137.848,120.320724 L137.904,122.9551 L137.96,125.373024 L138.016,127.54657 L138.072,129.45079 L138.128,131.06396 L138.184,132.3679 L138.24,133.34807 L138.296,133.9938 L138.352,134.2984 L138.408,134.25917 L138.464,133.87744 L138.52,133.15858 L138.576,132.11188 L138.632,130.75037 L138.688,129.0908 L138.744,127.15328 L138.8,124.96113 L138.856,122.540535 L138.912,119.92027 L138.968,117.13133 L139.024,114.206566 L139.08,111.180305 L139.136,108.08793 L139.192,104.96548 L139.248,101.84921 L139.304,98.7752 L139.36,95.778915 L139.416,92.8948 L139.472,90.15588 L139.528,87.593414 L139.584,85.236496 L139.64,83.11177 L139.696,81.24312 L139.752,79.65137 L139.808,78.354126 L139.864,77.365524 L139.92,76.69612 L139.976,76.35277 L140.032,76.338554 L140.088,76.65278 L140.144,77.29099 L140.2,78.24504 L140.256,79.50319 L140.312,81.05028 L140.368,82.867874 L140.424,84.93455 L140.48,87.226074 L140.536,89.71577 L140.592,92.374756 L140.648,95.17236 L140.704,98.07642 L140.76,101.053665 L140.816,104.070114 L140.872,107.09146 L140.928,110.08344 L140.984,113.01226 L141.04,115.84493 L141.096,118.5497 L141.152,121.09631 L141.208,123.45645 L141.264,125.60397 L141.32,127.515236 L141.376,129.16931 L141.432,130.5483 L141.488,131.63736 L141.544,132.42505 L141.6,132.9033 L141.656,133.06758 L141.712,132.91685 L141.768,132.45364 L141.824,131.68398 L141.88,130.61726 L141.936,129.2662 L141.992,127.64666 L142.048,125.77741 L142.104,123.67997 L142.16,121.37832 L142.216,118.89863 L142.272,116.268974 L142.328,113.519 L142.384,110.67958 L142.44,107.78248 L142.496,104.86 L142.552,101.9446 L142.608,99.06859 L142.664,96.26367 L142.72,93.56071 L142.776,90.98929 L142.832,88.577484 L142.888,86.35148 L142.944,84.33533 L143,82.5507 L143.056,81.01662 L143.112,79.74931 L143.168,78.76199 L143.224,78.06477 L143.28,77.66453 L143.336,77.56485 L143.392,77.766045 L143.448,78.2651 L143.504,79.055756 L143.56,80.128586 L143.616,81.47112 L143.672,83.06797 L143.728,84.90104 L143.784,86.9497 L143.84,89.19106 L143.896,91.60021 L143.952,94.15049 L144.008,96.81379 L144.064,99.56089 L144.12,102.361755 L144.176,105.18585 L144.232,108.002525 L144.288,110.78129 L144.344,113.49219 L144.4,116.10608 L144.456,118.595 L144.512,120.93241 L144.568,123.0935 L144.624,125.05546 L144.68,126.79769 L144.736,128.30203 L144.792,129.55295 L144.848,130.53767 L144.904,131.24637 L144.96,131.67215 L145.016,131.81125 L145.072,131.66292 L145.128,131.22952 L145.184,130.5165 L145.24,129.53218 L145.296,128.28784 L145.352,126.79744 L145.408,125.07756 L145.464,123.147125 L145.52,121.027275 L145.576,118.74105 L145.632,116.313225 L145.688,113.76996 L145.744,111.138565 L145.8,108.447174 L145.856,105.72449 L145.912,102.999405 L145.968,100.30077 L146.024,97.65705 L146.08,95.09601 L146.136,92.64447 L146.192,90.32799 L146.248,88.17061 L146.304,86.194626 L146.36,84.42033 L146.416,82.86583 L146.472,81.54687 L146.528,80.47664 L146.584,79.665695 L146.64,79.12183 L146.696,78.85003 L146.752,78.85236 L146.808,79.12808 L146.864,79.67355 L146.92,80.48234 L146.976,81.54528 L147.032,82.85061 L147.088,84.38406 L147.144,86.12906 L147.2,88.06686 L147.256,90.1768 L147.312,92.43651 L147.368,94.82212 L147.424,97.30856 L147.48,99.86979 L147.536,102.47909 L147.592,105.10934 L147.648,107.73329 L147.704,110.323875 L147.76,112.85445 L147.816,115.29907 L147.872,117.632805 L147.928,119.83192 L147.984,121.87417 L148.04,123.73899 L148.096,125.40773 L148.152,126.86379 L148.208,128.09283 L148.264,129.08289 L148.32,129.82448 L148.376,130.3107 L148.432,130.5373 L148.488,130.50266 L148.544,130.20787 L148.6,129.65666 L148.656,128.85535 L148.712,127.81278 L148.768,126.540245 L148.824,125.05131 L148.88,123.36169 L148.936,121.48909 L148.992,119.45302 L149.048,117.27456 L149.104,114.976166 L149.16,112.58141 L149.216,110.11479 L149.272,107.60142 L149.328,105.06678 L149.384,102.53651 L149.44,100.03609 L149.496,97.59061 L149.552,95.22452 L149.608,92.961395 L149.664,90.823685 L149.72,88.83249 L149.776,87.00737 L149.832,85.36615 L149.888,83.92476 L149.944,82.69706 L150,81.69473 L150.056,80.92715 L150.112,80.40132 L150.168,80.12182 L150.224,80.09074 L150.28,80.307686 L150.336,80.76982 L150.392,81.471855 L150.448,82.40615 L150.504,83.562775 L150.56,84.929634 L150.616,86.4926 L150.672,88.23564 L150.728,90.14101 L150.784,92.18941 L150.84,94.36021 L150.896,96.63163 L150.952,98.981 L151.008,101.38495 L151.064,103.81965 L151.12,106.261055 L151.176,108.68516 L151.232,111.06819 L151.288,113.38688 L151.344,115.618675 L151.4,117.74194 L151.456,119.736206 L151.512,121.58232 L151.568,123.26266 L151.624,124.76127 L151.68,126.06405 L151.736,127.158844 L151.792,128.03558 L151.848,128.68633 L151.904,129.10541 L151.96,129.2894 L152.016,129.23718 L152.072,128.94992 L152.128,128.43109 L152.184,127.686356 L152.24,126.72357 L152.296,125.55267 L152.352,124.18556 L152.408,122.636 L152.464,120.91946 L152.52,119.05296 L152.576,117.05492 L152.632,114.94493 L152.688,112.743614 L152.744,110.47239 L152.8,108.153244 L152.856,105.808586 L152.912,103.46096 L152.968,101.13286 L153.024,98.846504 L153.08,96.62365 L153.136,94.485344 L153.192,92.451775 L153.248,90.54202 L153.304,88.77396 L153.36,87.164 L153.416,85.72703 L153.472,84.4762 L153.528,83.42287 L153.584,82.57647 L153.64,81.944435 L153.696,81.53215 L153.752,81.34287 L153.808,81.37776 L153.864,81.63585 L153.92,82.11405 L153.976,82.80721 L154.032,83.7082 L154.088,84.8079 L154.144,86.095406 L154.2,87.55806 L154.256,89.1816 L154.312,90.95033 L154.368,92.84723 L154.424,94.85413 L154.48,96.95193 L154.536,99.12071 L154.592,101.340004 L154.648,103.588905 L154.704,105.84634 L154.76,108.09121 L154.816,110.30263 L154.872,112.4601 L154.928,114.54369 L154.984,116.53425 L155.04,118.41354 L155.096,120.16445 L155.152,121.7711 L155.208,123.21902 L155.264,124.495255 L155.32,125.5885 L155.376,126.48918 L155.432,127.18954 L155.488,127.68368 L155.544,127.96765 L155.6,128.03944 L155.656,127.89903 L155.712,127.54831 L155.768,126.99111 L155.824,126.23316 L155.88,125.282005 L155.936,124.14691 L155.992,122.83883 L156.048,121.37023 L156.104,119.75502 L156.16,118.008385 L156.216,116.14666 L156.272,114.18716 L156.328,112.148026 L156.384,110.04808 L156.44,107.9066 L156.496,105.74318 L156.552,103.577545 L156.608,101.42935 L156.664,99.31803 L156.72,97.26262 L156.776,95.28155 L156.832,93.39254 L156.888,91.61238 L156.944,89.95684 L157,88.4405 L157.056,87.0766 L157.112,85.877 L157.168,84.852005 L157.224,84.010315 L157.28,83.35897 L157.336,82.903244 L157.392,82.64665 L157.448,82.59091 L157.504,82.735916 L157.56,83.079796 L157.616,83.618866 L157.672,84.347755 L157.728,85.259384 L157.784,86.34509 L157.84,87.59468 L157.896,88.99654 L157.952,90.53775 L158.008,92.2042 L158.064,93.98073 L158.12,95.851234 L158.176,97.79886 L158.232,99.80613 L158.288,101.85509 L158.344,103.927505 L158.4,106.00499 L158.456,108.0692 L158.512,110.10195 L158.568,112.085434 L158.624,114.002335 L158.68,115.83597 L158.736,117.57048 L158.792,119.190926 L158.848,120.68342 L158.904,122.03526 L158.96,123.23503 L159.016,124.27268 L159.072,125.13961 L159.128,125.828766 L159.184,126.33465 L159.24,126.653404 L159.296,126.782814 L159.352,126.722305 L159.408,126.472984 L159.464,126.03759 L159.52,125.42044 L159.576,124.62746 L159.632,123.66603 L159.688,122.545 L159.744,121.27455 L159.8,119.86611 L159.856,118.332275 L159.912,116.68666 L159.968,114.943794 L160.024,113.118996 L160.08,111.228226 L160.136,109.28796 L160.192,107.31501 L160.248,105.32643 L160.304,103.33933 L160.36,101.37076 L160.416,99.43751 L160.472,97.55602 L160.528,95.74225 L160.584,94.011475 L160.64,92.37822 L160.696,90.85613 L160.752,89.45785 L160.808,88.19489 L160.864,87.07761 L160.92,86.11505 L160.976,85.31492 L161.032,84.683525 L161.088,84.2257 L161.144,83.9448 L161.2,83.84267 L161.256,83.91962 L161.312,84.17446 L161.368,84.60451 L161.424,85.2056 L161.48,85.97213 L161.536,86.89717 L161.592,87.972435 L161.648,89.188446 L161.704,90.534546 L161.76,91.99905 L161.816,93.56932 L161.872,95.23188 L161.928,96.972534 L161.984,98.77649 L162.04,100.62848 L162.096,102.5129 L162.152,104.41394 L162.208,106.315704 L162.264,108.202354 L162.32,110.05826 L162.376,111.868065 L162.432,113.616905 L162.488,115.29046 L162.544,116.87507 L162.6,118.357895 L162.656,119.72698 L162.712,120.97136 L162.768,122.08112 L162.824,123.04755 L162.88,123.86308 L162.936,124.52149 L162.992,125.01784 L163.048,125.348526 L163.104,125.51136 L163.16,125.50551 L163.216,125.33156 L163.272,124.99144 L163.328,124.48845 L163.384,123.82721 L163.44,123.01362 L163.496,122.05478 L163.552,120.95896 L163.608,119.735535 L163.664,118.39485 L163.72,116.94818 L163.776,115.40761 L163.832,113.78595 L163.888,112.0966 L163.944,110.35349 L164,108.570885 L164.056,106.76334 L164.112,104.945564 L164.168,103.132256 L164.224,101.33805 L164.28,99.577354 L164.336,97.86425 L164.392,96.21238 L164.448,94.63485 L164.504,93.14409 L164.56,91.751816 L164.616,90.46887 L164.672,89.30522 L164.728,88.26979 L164.784,87.370476 L164.84,86.61403 L164.896,86.00606 L164.952,85.55094 L165.008,85.25183 L165.064,85.11063 L165.12,85.127945 L165.176,85.30317 L165.232,85.6344 L165.288,86.11852 L165.344,86.75122 L165.4,87.527016 L165.456,88.439316 L165.512,89.48048 L165.568,90.64188 L165.624,91.91396 L165.68,93.286354 L165.736,94.747925 L165.792,96.28688 L165.848,97.890884 L165.904,99.54712 L165.96,101.24242 L166.016,102.96336 L166.072,104.69638 L166.128,106.42787 L166.184,108.14428 L166.24,109.83225 L166.296,111.47869 L166.352,113.070885 L166.408,114.596596 L166.464,116.04415 L166.52,117.40253 L166.576,118.66146 L166.632,119.81148 L166.688,120.844 L166.744,121.75141 L166.8,122.52706 L166.856,123.165375 L166.912,123.66185 L166.968,124.0131 L167.024,124.21688 L167.08,124.272095 L167.136,124.17877 L167.192,123.93812 L167.248,123.55245 L167.304,123.02519 L167.36,122.36084 L167.416,121.564926 L167.472,120.643974 L167.528,119.605415 L167.584,118.45759 L167.64,117.209595 L167.696,115.8713 L167.752,114.45318 L167.808,112.9663 L167.864,111.42221 L167.92,109.832825 L167.976,108.21037 L168.032,106.567276 L168.088,104.91606 L168.144,103.26927 L168.2,101.63935 L168.256,100.03859 L168.312,98.47897 L168.368,96.97215 L168.424,95.52933 L168.48,94.161156 L168.536,92.87771 L168.592,91.68836 L168.648,90.60175 L168.704,89.62571 L168.76,88.7672 L168.816,88.032265 L168.872,87.426025 L168.928,86.9526 L168.984,86.61509 L169.04,86.41558 L169.096,86.35511 L169.152,86.43369 L169.208,86.650276 L169.264,87.00281 L169.32,87.488235 L169.376,88.102516 L169.432,88.840675 L169.488,89.69684 L169.544,90.66429 L169.6,91.735504 L169.656,92.90224 L169.712,94.15555 L169.768,95.48592 L169.824,96.88329 L169.88,98.33716 L169.936,99.83664 L169.992,101.37056 L170.048,102.92755 L170.104,104.49611 L170.16,106.064705 L170.216,107.62185 L170.272,109.15619 L170.328,110.65658 L170.384,112.112175 L170.44,113.512505 L170.496,114.84755 L170.552,116.107796 L170.608,117.28432 L170.664,118.368835 L170.72,119.35379 L170.776,120.232346 L170.832,120.9985 L170.888,121.64706 L170.944,122.17371 L171,122.57508 L171.056,122.848656 L171.112,122.99288 L171.168,123.007164 L171.224,122.89181 L171.28,122.64808 L171.336,122.27815 L171.392,121.785095 L171.448,121.17286 L171.504,120.44621 L171.56,119.61074 L171.616,118.67278 L171.672,117.63937 L171.728,116.51821 L171.784,115.31758 L171.84,114.0463 L171.896,112.71366 L171.952,111.32933 L172.008,109.90333 L172.064,108.445915 L172.12,106.96752 L172.176,105.47871 L172.232,103.99003 L172.288,102.51203 L172.344,101.05511 L172.4,99.62948 L172.456,98.245094 L172.512,96.91157 L172.568,95.63812 L172.624,94.4335 L172.68,93.305954 L172.736,92.26312 L172.792,91.31204 L172.848,90.45907 L172.904,89.70985 L172.96,89.06927 L173.016,88.54144 L173.072,88.12968 L173.128,87.83646 L173.184,87.66342 L173.24,87.611374 L173.296,87.68028 L173.352,87.86925 L173.408,88.17656 L173.464,88.5997 L173.52,89.135345 L173.576,89.77941 L173.632,90.52708 L173.688,91.37284 L173.744,92.31053 L173.8,93.33338 L173.856,94.43406 L173.912,95.60473 L173.968,96.83711 L174.024,98.12254 L174.08,99.45203 L174.136,100.8163 L174.192,102.20591 L174.248,103.61126 L174.304,105.022705 L174.36,106.43058 L174.416,107.8253 L174.472,109.19742 L174.528,110.53766 L174.584,111.83702 L174.64,113.086815 L174.696,114.27873 L174.752,115.40488 L174.808,116.45786 L174.864,117.43079 L174.92,118.317375 L174.976,119.111916 L175.032,119.80936 L175.088,120.40534 L175.144,120.89619 L175.2,121.27895 L175.256,121.551445 L175.312,121.7122 L175.368,121.76052 L175.424,121.696465 L175.48,121.52086 L175.536,121.23524 L175.592,120.841896 L175.648,120.343834 L175.704,119.74472 L175.76,119.04889 L175.816,118.261314 L175.872,117.38754 L175.928,116.43367 L175.984,115.4063 L176.04,114.3125 L176.096,113.159744 L176.152,111.95586 L176.208,110.70897 L176.264,109.42747 L176.32,108.11992 L176.376,106.79504 L176.432,105.46161 L176.488,104.12842 L176.544,102.804245 L176.6,101.497734 L176.656,100.2174 L176.712,98.971535 L176.768,97.76819 L176.824,96.61507 L176.88,95.51954 L176.936,94.48855 L176.992,93.5286 L177.048,92.6457 L177.104,91.845314 L177.16,91.13237 L177.216,90.5112 L177.272,89.985504 L177.328,89.55836 L177.384,89.23219 L177.44,89.008766 L177.496,88.88916 L177.552,88.873795 L177.608,88.962395 L177.664,89.15404 L177.72,89.44713 L177.776,89.839424 L177.832,90.328064 L177.888,90.909584 L177.944,91.57992 L178,92.33447 L178.056,93.16813 L178.112,94.07527 L178.168,95.049866 L178.224,96.08545 L178.28,97.17521 L178.336,98.31203 L178.392,99.48851 L178.448,100.69703 L178.504,101.929825 L178.56,103.17898 L178.616,104.43652 L178.672,105.69447 L178.728,106.944885 L178.784,108.17988 L178.84,109.391716 L178.896,110.57285 L178.952,111.71595 L179.008,112.81396 L179.064,113.86013 L179.12,114.84809 L179.176,115.77185 L179.232,116.62584 L179.288,117.40496 L179.344,118.10462 L179.4,118.72072 L179.456,119.24971 L179.512,119.68861 L179.568,120.034996 L179.624,120.28705 L179.68,120.44353 L179.736,120.50381 L179.792,120.46786 L179.848,120.336235 L179.904,120.11009 L179.96,119.79117 L180.016,119.38177 L180.072,118.88473 L180.128,118.30343 L180.184,117.64175 L180.24,116.90404 L180.296,116.09511 L180.352,115.22018 L180.408,114.28484 L180.464,113.29505 L180.52,112.25706 L180.576,111.177376 L180.632,110.06275 L180.688,108.92011 L180.744,107.75651 L180.8,106.57912 L180.856,105.395134 L180.912,104.21179 L180.968,103.036255 L181.024,101.87563 L181.08,100.73691 L181.136,99.62688 L181.192,98.552155 L181.248,97.51911 L181.304,96.53382 L181.36,95.60205 L181.416,94.72922 L181.472,93.92036 L181.528,93.1801 L181.584,92.51264 L181.64,91.92172 L181.696,91.41061 L181.752,90.982056 L181.808,90.63834 L181.864,90.38121 L181.92,90.21188 L181.976,90.13104 L182.032,90.138855 L182.088,90.234955 L182.144,90.41845 L182.2,90.687935 L182.256,91.0415 L182.312,91.476746 L182.368,91.9908 L182.424,92.580345 L182.48,93.24162 L182.536,93.97047 L182.592,94.76235 L182.648,95.61237 L182.704,96.515335 L182.76,97.46573 L182.816,98.45782 L182.872,99.485634 L182.928,100.54302 L182.984,101.623695 L183.04,102.72126 L183.096,103.82925 L183.152,104.941154 L183.208,106.0505 L183.264,107.15083 L183.32,108.235794 L183.376,109.29913 L183.432,110.33478 L183.488,111.33682 L183.544,112.29959 L183.6,113.21767 L183.656,114.0859 L183.712,114.899475 L183.768,115.6539 L183.824,116.345055 L183.88,116.9692 L183.936,117.52298 L183.992,118.003494 L184.048,118.40825 L184.104,118.73521 L184.16,118.98279 L184.216,119.14987 L184.272,119.235794 L184.328,119.24037 L184.384,119.16388 L184.44,119.00705 L184.496,118.77107 L184.552,118.45758 L184.608,118.068634 L184.664,117.60673 L184.72,117.074745 L184.776,116.475945 L184.832,115.81397 L184.888,115.09278 L184.944,114.316666 L185,113.4902 L185.056,112.61821 L185.112,111.70578 L185.168,110.75818 L185.224,109.78084 L185.28,108.77935 L185.336,107.759415 L185.392,106.72678 L185.448,105.68729 L185.504,104.646736 L185.56,103.61094 L185.616,102.58563 L185.672,101.576485 L185.728,100.589035 L185.784,99.628685 L185.84,98.70064 L185.896,97.80993 L185.952,96.961334 L186.008,96.159386 L186.064,95.408325 L186.12,94.712105 L186.176,94.07435 L186.232,93.49835 L186.288,92.98704 L186.344,92.54298 L186.4,92.168335 L186.456,91.864914 L186.512,91.63411 L186.568,91.47689 L186.624,91.39385 L186.68,91.38516 L186.736,91.450584 L186.792,91.589485 L186.848,91.80083 L186.904,92.0832 L186.96,92.434784 L187.016,92.85343 L187.072,93.33661 L187.128,93.88147 L187.184,94.484825 L187.24,95.14321 L187.296,95.85287 L187.352,96.60978 L187.408,97.4097 L187.464,98.24816 L187.52,99.12053 L187.576,100.02199 L187.632,100.94762 L187.688,101.892365 L187.744,102.85111 L187.8,103.8187 L187.856,104.789925 L187.912,105.75961 L187.968,106.72261 L188.024,107.67383 L188.08,108.60826 L188.136,109.52103 L188.192,110.40737 L188.248,111.26271 L188.304,112.08265 L188.36,112.86299 L188.416,113.59977 L188.472,114.28928 L188.528,114.928085 L188.584,115.513016 L188.64,116.04121 L188.696,116.51012 L188.752,116.91751 L188.808,117.2615 L188.864,117.540535 L188.92,117.7534 L188.976,117.899254 L189.032,117.977585 L189.088,117.98826 L189.144,117.931465 L189.2,117.80778 L189.256,117.618095 L189.312,117.36364 L189.368,117.046 L189.424,116.667046 L189.48,116.22898 L189.536,115.73429 L189.592,115.185745 L189.648,114.58638 L189.704,113.93946 L189.76,113.2485 L189.816,112.51721 L189.872,111.749504 L189.928,110.94944 L189.984,110.12123 L190.04,109.269226 L190.096,108.39785 L190.152,107.51163 L190.208,106.61512 L190.264,105.71292 L190.32,104.80963 L190.376,103.90984 L190.432,103.0181 L190.488,102.13887 L190.544,101.27656 L190.6,100.43545 L190.656,99.61969 L190.712,98.8333 L190.768,98.08012 L190.824,97.36379 L190.88,96.687775 L190.936,96.055305 L190.992,95.46937 L191.048,94.93272 L191.104,94.44784 L191.16,94.016945 L191.216,93.64197 L191.272,93.32456 L191.328,93.06607 L191.384,92.86755 L191.44,92.72975 L191.496,92.65311 L191.552,92.63776 L191.608,92.68353 L191.664,92.78997 L191.72,92.95631 L191.776,93.18147 L191.832,93.46413 L191.888,93.802666 L191.944,94.19518 L192,94.63955 L192.056,95.13338 L192.112,95.67405 L192.168,96.25874 L192.224,96.884415 L192.28,97.54785 L192.336,98.24568 L192.392,98.97435 L192.448,99.73021 L192.504,100.50947 L192.56,101.30825 L192.616,102.12262 L192.672,102.94856 L192.728,103.782036 L192.784,104.618996 L192.84,105.45538 L192.896,106.28717 L192.952,107.110374 L193.008,107.92108 L193.064,108.71544 L193.12,109.4897 L193.176,110.24025 L193.232,110.963585 L193.288,111.65636 L193.344,112.31539 L193.4,112.93767 L193.456,113.520386 L193.512,114.06092 L193.568,114.556885 L193.624,115.006096 L193.68,115.406624 L193.736,115.75677 L193.792,116.05507 L193.848,116.30033 L193.904,116.491615 L193.96,116.62824 L194.016,116.709785 L194.072,116.736084 L194.128,116.707245 L194.184,116.62363 L194.24,116.48584 L194.296,116.29476 L194.352,116.05149 L194.408,115.757385 L194.464,115.414024 L194.52,115.0232 L194.576,114.58693 L194.632,114.10743 L194.688,113.587105 L194.744,113.028534 L194.8,112.434456 L194.856,111.80776 L194.912,111.1515 L194.968,110.4688 L195.024,109.762924 L195.08,109.037224 L195.136,108.29512 L195.192,107.54008 L195.248,106.77562 L195.304,106.00529 L195.36,105.232635 L195.416,104.4612 L195.472,103.6945 L195.528,102.93602 L195.584,102.18917 L195.64,101.45731 L195.696,100.743706 L195.752,100.051506 L195.808,99.38378 L195.864,98.74344 L195.92,98.13326 L195.976,97.55589 L196.032,97.013794 L196.088,96.50926 L196.144,96.04441 L196.2,95.62117 L196.256,95.24127 L196.312,94.90623 L196.368,94.617355 L196.424,94.375755 L196.48,94.18232 L196.536,94.0377 L196.592,93.94233 L196.648,93.89645 L196.704,93.90004 L196.76,93.95289 L196.816,94.05454 L196.872,94.20435 L196.928,94.40145 L196.984,94.644775 L197.04,94.93305 L197.096,95.26482 L197.152,95.63843 L197.208,96.05206 L197.264,96.50374 L197.32,96.99131 L197.376,97.51249 L197.432,98.06485 L197.488,98.645836 L197.544,99.25281 L197.6,99.88299 L197.656,100.53354 L197.712,101.201546 L197.768,101.88402 L197.824,102.57794 L197.88,103.28026 L197.936,103.987885 L197.992,104.69774 L198.048,105.40674 L198.104,106.111824 L198.16,106.80998 L198.216,107.49824 L198.272,108.17366 L198.328,108.833405 L198.384,109.47472 L198.44,110.09492 L198.496,110.69145 L198.552,111.26186 L198.608,111.803825 L198.664,112.315155 L198.72,112.7938 L198.776,113.23787 L198.832,113.645615 L198.888,114.01548 L198.944,114.34604 L199,114.63607 L199.056,114.88452 L199.112,115.09053 L199.168,115.253395 L199.224,115.37262 L199.28,115.44789 L199.336,115.47909 L199.392,115.46626 L199.448,115.40967 L199.504,115.309715 L199.56,115.16702 L199.616,114.98236 L199.672,114.75668 L199.728,114.49112 L199.784,114.18693 L199.84,113.84556 L199.896,113.46858 L199.952,113.05771 L200.008,112.61479 L200.064,112.14181 L200.12,111.64084 L200.176,111.11407 L200.232,110.56378 L200.288,109.99234 L200.344,109.40219 L200.4,108.795845 L200.456,108.17584 L200.512,107.54479 L200.568,106.90532 L200.624,106.26008 L200.68,105.61172 L200.736,104.9629 L200.792,104.31626 L200.848,103.67442 L200.904,103.03997 L200.96,102.41544 L201.016,101.80332 L201.072,101.20604 L201.128,100.62592 L201.184,100.065254 L201.24,99.5262 L201.296,99.01083 L201.352,98.521126 L201.408,98.05892 L201.464,97.62596 L201.52,97.22384 L201.576,96.854034 L201.632,96.51788 L201.688,96.21657 L201.744,95.95113 L201.8,95.722496 L201.856,95.53138 L201.912,95.37839 L201.968,95.263954 L202.024,95.188354 L202.08,95.15173 L202.136,95.154045 L202.192,95.195114 L202.248,95.2746 L202.304,95.39203 L202.36,95.54677 L202.416,95.73804 L202.472,95.96493 L202.528,96.2264 L202.584,96.52127 L202.64,96.848236 L202.696,97.20589 L202.752,97.59269 L202.808,98.007 L202.864,98.447105 L202.92,98.91117 L202.976,99.397285 L203.032,99.90349 L203.088,100.42772 L203.144,100.96788 L203.2,101.52181 L203.256,102.087326 L203.312,102.66219 L203.368,103.24417 L203.424,103.83099 L203.48,104.42039 L203.536,105.010086 L203.592,105.59785 L203.648,106.18143 L203.704,106.75863 L203.76,107.32728 L203.816,107.88526 L203.872,108.430504 L203.928,108.961 L203.984,109.4748 L204.04,109.970055 L204.096,110.44497 L204.152,110.89784 L204.208,111.32707 L204.264,111.731155 L204.32,112.10869 L204.376,112.458374 L204.432,112.77904 L204.488,113.069595 L204.544,113.32911 L204.6,113.556755 L204.656,113.75183 L204.712,113.91376 L204.768,114.04208 L204.824,114.13648 L204.88,114.19677 L204.936,114.22287 L204.992,114.21485 L205.048,114.1729 L205.104,114.09732 L205.16,113.98855 L205.216,113.84714 L205.272,113.67375 L205.328,113.469185 L205.384,113.23432 L205.44,112.97017 L205.496,112.67782 L205.552,112.358475 L205.608,112.01342 L205.664,111.644035 L205.72,111.25177 L205.776,110.83816 L205.832,110.40479 L205.888,109.95334 L205.944,109.485504 L206,109.00307 L206.056,108.50783 L206.112,108.00163 L206.168,107.48635 L206.224,106.96387 L206.28,106.4361 L206.336,105.90496 L206.392,105.37236 L206.448,104.84022 L206.504,104.310425 L206.56,103.78485 L206.616,103.26536 L206.672,102.75375 L206.728,102.25182 L206.784,101.7613 L206.84,101.28386 L206.896,100.82113 L206.952,100.37468 L207.008,99.94601 L207.064,99.53652 L207.12,99.1476 L207.176,98.78048 L207.232,98.43637 L207.288,98.11635 L207.344,97.821434 L207.4,97.552536 L207.456,97.31046 L207.512,97.09593 L207.568,96.90956 L207.624,96.75187 L207.68,96.62325 L207.736,96.52403 L207.792,96.45441 L207.848,96.414474 L207.904,96.404236 L207.96,96.423584 L208.016,96.47231 L208.072,96.55011 L208.128,96.65657 L208.184,96.7912 L208.24,96.9534 L208.296,97.14248 L208.352,97.357666 L208.408,97.59811 L208.464,97.86286 L208.52,98.15091 L208.576,98.46117 L208.632,98.792465 L208.688,99.1436 L208.744,99.513275 L208.8,99.90016 L208.856,100.30287 L208.912,100.71996 L208.968,101.14998 L209.024,101.59141 L209.08,102.04271 L209.136,102.502335 L209.192,102.968704 L209.248,103.44022 L209.304,103.9153 L209.36,104.39234 L209.416,104.869736 L209.472,105.34591 L209.528,105.81929 L209.584,106.28832 L209.64,106.751465 L209.696,107.20724 L209.752,107.65416 L209.808,108.090805 L209.864,108.515785 L209.92,108.92777 L209.976,109.32547 L210.032,109.70765 L210.088,110.073135 L210.144,110.420815 L210.2,110.74964 L210.256,111.05864 L210.312,111.3469 L210.368,111.613594 L210.424,111.85795 L210.48,112.0793 L210.536,112.27703 L210.592,112.45062 L210.648,112.59964 L210.704,112.72372 L210.76,112.82258 L210.816,112.89604 L210.872,112.94398 L210.928,112.96638 L210.984,112.96328 L211.04,112.93484 L211.096,112.88125 L211.152,112.80282 L211.208,112.69992 L211.264,112.573 L211.32,112.42258 L211.376,112.249245 L211.432,112.053665 L211.488,111.83657 L211.544,111.59875 L211.6,111.34104 L211.656,111.06438 L211.712,110.76971 L211.768,110.458046 L211.824,110.13046 L211.88,109.78805 L211.936,109.431946 L211.992,109.06334 L212.048,108.68344 L212.104,108.29349 L212.16,107.89474 L212.216,107.488464 L212.272,107.07597 L212.328,106.65856 L212.384,106.23755 L212.44,105.81425 L212.496,105.38997 L212.552,104.966034 L212.608,104.543724 L212.664,104.12434 L212.72,103.70914 L212.776,103.29937 L212.832,102.89626 L212.888,102.501 L212.944,102.11476 L213,101.738655 L213.056,101.37379 L213.112,101.021194 L213.168,100.681885 L213.224,100.35682 L213.28,100.0469 L213.336,99.752975 L213.392,99.47587 L213.448,99.21631 L213.504,98.975 L213.56,98.75255 L213.616,98.549545 L213.672,98.366486 L213.728,98.20381 L213.784,98.06191 L213.84,97.9411 L213.896,97.84162 L213.952,97.76366 L214.008,97.70734 L214.064,97.672714 L214.12,97.65978 L214.176,97.66846 L214.232,97.698616 L214.288,97.750046 L214.344,97.822495 L214.4,97.91564 L214.456,98.0291 L214.512,98.16244 L214.568,98.31517 L214.624,98.48675 L214.68,98.67657 L214.736,98.88399 L214.792,99.10832 L214.848,99.34883 L214.904,99.60473 L214.96,99.8752 L215.016,100.159386 L215.072,100.456406 L215.128,100.76534 L215.184,101.08523 L215.24,101.41511 L215.296,101.75398 L215.352,102.10083 L215.408,102.45462 L215.464,102.814316 L215.52,103.17886 L215.576,103.547195 L215.632,103.91825 L215.688,104.29096 L215.744,104.664276 L215.8,105.03713 L215.856,105.40847 L215.912,105.777275 L215.968,106.1425 L216.024,106.50316 L216.08,106.85825 L216.136,107.206825 L216.192,107.547935 L216.248,107.88067 L216.304,108.20415 L216.36,108.51752 L216.416,108.81996 L216.472,109.1107 L216.528,109.38899 L216.584,109.65414 L216.64,109.90547 L216.696,110.14237 L216.752,110.364265 L216.808,110.570625 L216.864,110.76097 L216.92,110.93485 L216.976,111.0919 L217.032,111.231766 L217.088,111.35416 L217.144,111.45885 L217.2,111.54563 L217.256,111.61438 L217.312,111.66499 L217.368,111.69745 L217.424,111.71174 L217.48,111.70793 L217.536,111.686134 L217.592,111.6465 L217.648,111.58923 L217.704,111.51458 L217.76,111.42284 L217.816,111.31434 L217.872,111.18947 L217.928,111.048645 L217.984,110.892334 L218.04,110.72103 L218.096,110.53526 L218.152,110.33562 L218.208,110.12269 L218.264,109.89711 L218.32,109.659546 L218.376,109.41069 L218.432,109.15125 L218.488,108.88197 L218.544,108.603615 L218.6,108.31695 L218.656,108.02277 L218.712,107.7219 L218.768,107.415146 L218.824,107.10333 L218.88,106.78731 L218.936,106.46791 L218.992,106.14598 L219.048,105.82237 L219.104,105.497925 L219.16,105.17348 L219.216,104.84986 L219.272,104.527916 L219.328,104.20844 L219.384,103.89224 L219.44,103.580124 L219.496,103.27284 L219.552,102.97117 L219.608,102.67583 L219.664,102.38754 L219.72,102.106995 L219.776,101.834854 L219.832,101.57177 L219.888,101.31835 L219.944,101.07518 L220,100.84281 L220.056,100.62177 L220.112,100.41255 L220.168,100.2156 L220.224,100.03136 L220.28,99.8602 L220.336,99.70248 L220.392,99.55852 L220.448,99.4286 L220.504,99.31296 L220.56,99.21181 L220.616,99.12531 L220.672,99.053604 L220.728,98.99678 L220.784,98.95489 L220.84,98.927956 L220.896,98.91596 L220.952,98.91885 L221.008,98.93653 L221.064,98.96887 L221.12,99.01572 L221.176,99.07687 L221.232,99.15211 L221.288,99.24115 L221.344,99.34371 L221.4,99.45948 L221.456,99.58808 L221.512,99.72915 L221.568,99.882256 L221.624,100.04698 L221.68,100.22286 L221.736,100.4094 L221.792,100.6061 L221.848,100.81244 L221.904,101.02786 L221.96,101.25181 L222.016,101.48369 L222.072,101.72292 L222.128,101.96889 L222.184,102.22098 L222.24,102.478546 L222.296,102.740974 L222.352,103.0076 L222.408,103.27779 L222.464,103.55087 L222.52,103.8262 L222.576,104.10313 L222.632,104.38098 L222.688,104.65912 L222.744,104.93689 L222.8,105.21366 L222.856,105.48878 L222.912,105.761635 L222.968,106.0316 L223.024,106.29807 L223.08,106.560455 L223.136,106.818184 L223.192,107.07068 L223.248,107.3174 L223.304,107.55781 L223.36,107.791405 L223.416,108.017685 L223.472,108.23619 L223.528,108.44646 L223.584,108.64806 L223.64,108.84061 L223.696,109.0237 L223.752,109.19698 L223.808,109.36013 L223.864,109.51283 L223.92,109.65481 L223.976,109.7858 L224.032,109.90558 L224.088,110.013954 L224.144,110.11074 L224.2,110.19579 L224.256,110.26899 L224.312,110.330246 L224.368,110.3795 L224.424,110.4167 L224.48,110.44184 L224.536,110.45495 L224.592,110.456055 L224.648,110.44524 L224.704,110.422585 L224.76,110.388214 L224.816,110.34228 L224.872,110.28494 L224.928,110.2164 L224.984,110.13687 L225.04,110.04659 L225.096,109.945816 L225.152,109.83484 L225.208,109.71394 L225.264,109.583466 L225.32,109.44374 L225.376,109.29511 L225.432,109.13797 L225.488,108.972694 L225.544,108.79968 L225.6,108.61936 L225.656,108.432144 L225.712,108.23849 L225.768,108.03883 L225.824,107.83364 L225.88,107.623375 L225.936,107.408516 L225.992,107.189545 L226.048,106.96695 L226.104,106.74121 L226.16,106.512825 L226.216,106.282295 L226.272,106.0501 L226.328,105.81675 L226.384,105.58273 L226.44,105.34853 L226.496,105.11465 L226.552,104.88155 L226.608,104.64973 L226.664,104.41965 L226.72,104.191765 L226.776,103.966545 L226.832,103.74443 L226.888,103.52586 L226.944,103.31126 L227,103.101036 L227.056,102.8956 L227.112,102.69533 L227.168,102.50061 L227.224,102.3118 L227.28,102.12924 L227.336,101.95327 L227.392,101.7842 L227.448,101.62232 L227.504,101.46792 L227.56,101.32126 L227.616,101.18259 L227.672,101.05213 L227.728,100.93009 L227.784,100.81667 L227.84,100.71203 L227.896,100.61633 L227.952,100.52971 L228.008,100.45226 L228.064,100.38411 L228.12,100.3253 L228.176,100.27592 L228.232,100.235985 L228.288,100.20552 L228.344,100.18453 L228.4,100.17299 L228.456,100.17087 L228.512,100.1781 L228.568,100.194626 L228.624,100.220345 L228.68,100.25514 L228.736,100.29891 L228.792,100.351494 L228.848,100.41274 L228.904,100.48248 L228.96,100.560524 L229.016,100.64666 L229.072,100.740685 L229.128,100.842354 L229.184,100.95144 L229.24,101.06768 L229.296,101.1908 L229.352,101.32054 L229.408,101.4566 L229.464,101.59868 L229.52,101.746475 L229.576,101.89968 L229.632,102.05796 L229.688,102.22099 L229.744,102.388435 L229.8,102.55995 L229.856,102.73519 L229.912,102.91381 L229.968,103.09545 L230.024,103.27975 L230.08,103.46636 L230.136,103.654915 L230.192,103.845055 L230.248,104.03642 L230.304,104.22865 L230.36,104.42139 L230.416,104.61427 L230.472,104.80695 L230.528,104.999084 L230.584,105.19031 L230.64,105.380295 L230.696,105.5687 L230.752,105.755196 L230.808,105.93946 L230.864,106.12116 L230.92,106.30001 L230.976,106.475685 L231.032,106.6479 L231.088,106.816376 L231.144,106.98083 L231.2,107.14098 L231.256,107.29659 L231.312,107.44741 L231.368,107.5932 L231.424,107.733734 L231.48,107.868805 L231.536,107.9982 L231.592,108.121735 L231.648,108.23923 L231.704,108.350525 L231.76,108.45546 L231.816,108.553894 L231.872,108.6457 L231.928,108.73077 L231.984,108.80898 L232.04,108.880264 L232.096,108.94454 L232.152,109.00173 L232.208,109.0518 L232.264,109.0947 L232.32,109.13042 L232.376,109.15892 L232.432,109.18022 L232.488,109.194336 L232.544,109.20128 L232.6,109.201096 L232.656,109.193825 L232.712,109.179535 L232.768,109.158295 L232.824,109.13019 L232.88,109.095314 L232.936,109.05377 L232.992,109.00568 L233.048,108.95115 L233.104,108.890335 L233.16,108.82338 L233.216,108.75043 L233.272,108.67164 L233.328,108.5872 L233.384,108.49728 L233.44,108.40206 L233.496,108.30174 L233.552,108.196526 L233.608,108.08662 L233.664,107.97223 L233.72,107.85358 L233.776,107.73089 L233.832,107.604385 L233.888,107.47431 L233.944,107.3409 L234,107.204384 L234.056,107.065 L234.112,106.92302 L234.168,106.77866 L234.224,106.632195 L234.28,106.48386 L234.336,106.33391 L234.392,106.182594 L234.448,106.03017 L234.504,105.87688 L234.56,105.72298 L234.616,105.56872 L234.672,105.41434 L234.728,105.260086 L234.784,105.10622 L234.84,104.95295 L234.896,104.80054 L234.952,104.6492 L235.008,104.49918 L235.064,104.3507 L235.12,104.20397 L235.176,104.05923 L235.232,103.91666 L235.288,103.77649 L235.344,103.6389 L235.4,103.504105 L235.456,103.372284 L235.512,103.243614 L235.568,103.11828 L235.624,102.99644 L235.68,102.87826 L235.736,102.76389 L235.792,102.65349 L235.848,102.54718 L235.904,102.445114 L235.96,102.3474 L236.016,102.25416 L236.072,102.1655 L236.128,102.08152 L236.184,102.00232 L236.24,101.92797 L236.296,101.85857 L236.352,101.79416 L236.408,101.73482 L236.464,101.68059 L236.52,101.631516 L236.576,101.58764 L236.632,101.54898 L236.688,101.51556 L236.744,101.48739 L236.8,101.46447 L236.856,101.4468 L236.912,101.43437 L236.968,101.427155 L237.024,101.42512 L237.08,101.428246 L237.136,101.43648 L237.192,101.44977 L237.248,101.46807 L237.304,101.4913 L237.36,101.51942 L237.416,101.55232 L237.472,101.589935 L237.528,101.63217 L237.584,101.67894 L237.64,101.73014 L237.696,101.78566 L237.752,101.84539 L237.808,101.90922 L237.864,101.97702 L237.92,102.04867 L237.976,102.12404 L238.032,102.202995 L238.088,102.28541 L238.144,102.371124 L238.2,102.46 L238.256,102.551895 L238.312,102.64665 L238.368,102.744125 L238.424,102.844154 L238.48,102.94659 L238.536,103.051254 L238.592,103.158005 L238.648,103.26667 L238.704,103.37709 L238.76,103.4891 L238.816,103.60253 L238.872,103.717224 L238.928,103.83301 L238.984,103.94972 L239.04,104.06721 L239.096,104.18528 L239.152,104.303795 L239.208,104.422585 L239.264,104.54148 L239.32,104.660324 L239.376,104.77897 L239.432,104.89725 L239.488,105.01501 L239.544,105.132095 L239.6,105.24837 L239.656,105.36367 L239.712,105.47786 L239.768,105.59079 L239.824,105.70233 L239.88,105.81235 L239.936,105.9207 L239.992,106.02727 L240.048,106.13192 L240.104,106.234535 L240.16,106.335 L240.216,106.4332 L240.272,106.52902 L240.328,106.622375 L240.384,106.71314 L240.44,106.80123 L240.496,106.88655 L240.552,106.969025 L240.608,107.04855 L240.664,107.12507 L240.72,107.198494 L240.776,107.26876 L240.832,107.33581 L240.888,107.399574 L240.944,107.46001 L241,107.51706 L241.056,107.57067 L241.112,107.62083 L241.168,107.66747 L241.224,107.71058 L241.28,107.75013 L241.336,107.7861 L241.392,107.81848 L241.448,107.84725 L241.504,107.872406 L241.56,107.89394 L241.616,107.91187 L241.672,107.92619 L241.728,107.93692 L241.784,107.94406 L241.84,107.947655 L241.896,107.94771 L241.952,107.94425 L242.008,107.93733 L242.064,107.92697 L242.12,107.91321 L242.176,107.896095 L242.232,107.87568 L242.288,107.85201 L242.344,107.82514 L242.4,107.79513 L242.456,107.76204 L242.512,107.72594 L242.568,107.68688 L242.624,107.64494 L242.68,107.600204 L242.736,107.552734 L242.792,107.50262 L242.848,107.44992 L242.904,107.39474 L242.96,107.33715 L243.016,107.277245 L243.072,107.21511 L243.128,107.15083 L243.184,107.08451 L243.24,107.016235 L243.296,106.94609 L243.352,106.87419 L243.408,106.80062 L243.464,106.72547 L243.52,106.64886 L243.576,106.57087 L243.632,106.49161 L243.688,106.41118 L243.744,106.329666 L243.8,106.24719 L243.856,106.16383 L243.912,106.07971 L243.968,105.99492 L244.024,105.90955 L244.08,105.823715 L244.136,105.7375 L244.192,105.651024 L244.248,105.56436 L244.304,105.47762 L244.36,105.3909 L244.416,105.30428 L244.472,105.21787 L244.528,105.13177 L244.584,105.04604 L244.64,104.96079 L244.696,104.876114 L244.752,104.79209 L244.808,104.7088 L244.864,104.626335 L244.92,104.54477 L244.976,104.46418 L245.032,104.38466 L245.088,104.30627 L245.144,104.22909 L245.2,104.15318 L245.256,104.07863 L245.312,104.00549 L245.368,103.93383 L245.424,103.863716 L245.48,103.795204 L245.536,103.728355 L245.592,103.66322 L245.648,103.59985 L245.704,103.53831 L245.76,103.47862 L245.816,103.42085 L245.872,103.36504 L245.928,103.311226 L245.984,103.25944 L246.04,103.20972 L246.096,103.1621 L246.152,103.116615 L246.208,103.07328 L246.264,103.032135 L246.32,102.993195 L246.376,102.956474 L246.432,102.922 L246.488,102.88978 L246.544,102.85983 L246.6,102.83216 L246.656,102.80677 L246.712,102.783676 L246.768,102.76288 L246.824,102.74436 L246.88,102.72815 L246.936,102.71422 L246.992,102.70256 L247.048,102.693184 L247.104,102.68606 L247.16,102.68118 L247.216,102.678535 L247.272,102.6781 L247.328,102.679855 L247.384,102.683784 L247.44,102.689865 L247.496,102.69807 L247.552,102.70836 L247.608,102.720726 L247.664,102.73512 L247.72,102.751526 L247.776,102.7699 L247.832,102.7902 L247.888,102.8124 L247.944,102.836464 L248,102.86235 L248.056,102.89001 L248.112,102.9194 L248.168,102.95049 L248.224,102.98322 L248.28,103.01756 L248.336,103.05346 L248.392,103.09086 L248.448,103.12972 L248.504,103.16999 L248.56,103.211624 L248.616,103.25457 L248.672,103.29877 L248.728,103.34417 L248.784,103.39073 L248.84,103.438385 L248.896,103.48709 L248.952,103.53679 L249.008,103.58743 L249.064,103.638954 L249.12,103.69131 L249.176,103.74444 L249.232,103.79829 L249.288,103.8528 L249.344,103.90793 L249.4,103.963615 L249.456,104.019806 L249.512,104.07644 L249.568,104.13347 L249.624,104.19084 L249.68,104.248505 L249.736,104.3064 L249.792,104.36447 L249.848,104.42268 L249.904,104.480965 L249.96,104.539276 L250.016,104.597565 L250.072,104.655785 L250.128,104.713875 L250.184,104.771805 L250.24,104.829506 L250.296,104.88695 L250.352,104.94408 L250.408,105.000854 L250.464,105.05723 L250.52,105.11315 L250.576,105.168594 L250.632,105.22351 L250.688,105.277855 L250.744,105.33159 L250.8,105.384674 L250.856,105.43708 L250.912,105.48876 L250.968,105.53969 L251.024,105.58982 L251.08,105.63913 L251.136,105.687584 L251.192,105.735146 L251.248,105.78179 L251.304,105.82749 L251.36,105.872215 L251.416,105.91595 L251.472,105.95864 L251.528,106.0003 L251.584,106.04087 L251.64,106.08035 L251.696,106.11873 L251.752,106.15596 L251.808,106.19204 L251.864,106.22696 L251.92,106.26069 L251.976,106.29321 L252.032,106.32453 L252.088,106.35462 L252.144,106.383484 L252.2,106.41109 L252.256,106.43745 L252.312,106.46254 L252.368,106.48636 L252.424,106.50891 L252.48,106.53018 L252.536,106.55017 L252.592,106.56888 L252.648,106.586296 L252.704,106.60243 L252.76,106.61729 L252.816,106.63085 L252.872,106.64314 L252.928,106.65416 L252.984,106.6639 L253.04,106.672386 L253.096,106.6796 L253.152,106.68558 L253.208,106.690315 L253.264,106.69381 L253.32,106.69609 L253.376,106.69716 L253.432,106.69703 L253.488,106.69572 L253.544,106.69323 L253.6,106.68958 L253.656,106.68479 L253.712,106.67887 L253.768,106.671844 L253.824,106.66372 L253.88,106.65452 L253.936,106.64426 L253.992,106.63296 L254.048,106.620636 L254.104,106.60731 L254.16,106.593 L254.216,106.577736 L254.272,106.56153 L254.328,106.5444 L254.384,106.52638 L254.44,106.507484 L254.496,106.48773 L254.552,106.467155 L254.608,106.44577 L254.664,106.42361 L254.72,106.40068 L254.776,106.37702 L254.832,106.35265 L254.888,106.3276 L254.944,106.30188 L255,106.275536 L255.056,106.24857 L255.112,106.22102 L255.168,106.19291 L255.224,106.16426 L255.28,106.13511 L255.336,106.10546 L255.392,106.07536 L255.448,106.04482 L255.504,106.01387 L255.56,105.98254 L255.616,105.95084 L255.672,105.918816 L255.728,105.886475 L255.784,105.85384 L255.84,105.82096 L255.896,105.787834 L255.952,105.7545 L256.008,105.72097 L256.064,105.68729 L256.12,105.65346 L256.176,105.61951 L256.232,105.585464 L256.288,105.55135 L256.344,105.51719 L256.4,105.483 L256.456,105.44881 L256.512,105.41463 L256.568,105.38049 L256.624,105.34641 L256.68,105.312416 L256.736,105.27852 L256.792,105.24474 L256.848,105.211105 L256.904,105.177635 L256.96,105.14433 L257.016,105.11124 L257.072,105.078354 L257.128,105.04571 L257.184,105.013306 L257.24,104.98117 L257.296,104.949326 L257.352,104.91778 L257.408,104.88655 L257.464,104.855644 L257.52,104.825096 L257.576,104.7949 L257.632,104.765076 L257.688,104.73565 L257.744,104.70661 L257.8,104.67799 L257.856,104.6498 L257.912,104.62205 L257.968,104.59474 L258.024,104.567894 L258.08,104.54151 L258.136,104.51561 L258.192,104.490204 L258.248,104.46529 L258.304,104.44088 L258.36,104.416985 L258.416,104.393616 L258.472,104.37077 L258.528,104.348465 L258.584,104.326706 L258.64,104.30549 L258.696,104.28483 L258.752,104.264725 L258.808,104.245186 L258.864,104.22621 L258.92,104.20781 L258.976,104.18999 L259.032,104.17274 L259.088,104.156075 L259.144,104.139984 L259.2,104.12449 L259.256,104.10957 L259.312,104.095245 L259.368,104.081505 L259.424,104.06835 L259.48,104.055786 L259.536,104.04381 L259.592,104.032425 L259.648,104.021614 L259.704,104.0114 L259.76,104.00176 L259.816,103.99271 L259.872,103.98422 L259.928,103.97632 L259.984,103.96899 L260.04,103.96223 L260.096,103.95603 L260.152,103.9504 L260.208,103.94532 L260.264,103.940796 L260.32,103.93682 L260.376,103.933395 L260.432,103.930504 L260.488,103.92815 L260.544,103.926315 L260.6,103.925 L260.656,103.92422 L260.712,103.923935 L260.768,103.92416 L260.824,103.92487 L260.88,103.92608 L260.936,103.92777 L260.992,103.92994 L261.048,103.93258 L261.104,103.93568 L261.16,103.93923 L261.216,103.94323 L261.272,103.94767 L261.328,103.95254 L261.384,103.957825 L261.44,103.96353 L261.496,103.96964 L261.552,103.97615 L261.608,103.98305 L261.664,103.990326 L261.72,103.99798 L261.776,104.006 L261.832,104.014366 L261.888,104.02308 L261.944,104.032135 L262,104.04152 L262.056,104.051216 L262.112,104.061226 L262.168,104.07154 L262.224,104.082146 L262.28,104.09303 L262.336,104.104195 L262.392,104.11562 L262.448,104.12731 L262.504,104.139244 L262.56,104.15141 L262.616,104.16382 L262.672,104.17644 L262.728,104.18927 L262.784,104.20231 L262.84,104.21554 L262.896,104.22895 L262.952,104.242546 L263.008,104.2563 L263.064,104.270226 L263.12,104.284294 L263.176,104.2985 L263.232,104.31285 L263.288,104.32732 L263.344,104.3419 L263.4,104.3566 L263.456,104.37139 L263.512,104.386284 L263.568,104.40125 L263.624,104.416306 L263.68,104.43142 L263.736,104.446594 L263.792,104.46183 L263.848,104.477104 L263.904,104.49242 L263.96,104.50777 L264.016,104.52313 L264.072,104.53852 L264.128,104.55392 L264.184,104.56931 L264.24,104.58471 L264.296,104.6001 L264.352,104.61546 L264.408,104.630806 L264.464,104.64612 L264.52,104.6614 L264.576,104.676636 L264.632,104.69182 L264.688,104.706955 L264.744,104.72202 L264.8,104.73704 L264.856,104.751976 L264.912,104.76684 L264.968,104.78162 L265.024,104.79631 L265.08,104.81091 L265.136,104.825424 L265.192,104.83983 L265.248,104.85413 L265.304,104.86833 L265.36,104.88241 L265.416,104.89637 L265.472,104.91021 L265.528,104.92392 L265.584,104.93751 L265.64,104.95096 L265.696,104.96427 L265.752,104.97745 L265.808,104.99048 L265.864,105.00336 L265.92,105.01609 L265.976,105.02867 L266.032,105.0411 L266.088,105.05337 L266.144,105.065475 L266.2,105.077415 L266.256,105.089195 L266.312,105.10081 L266.368,105.11225 L266.424,105.12352 L266.48,105.13462 L266.536,105.14554 L266.592,105.15628 L266.648,105.16685 L266.704,105.17724 L266.76,105.18744 L266.816,105.197464 L266.872,105.207306 L266.928,105.21696 L266.984,105.226425 L267.04,105.23571 L267.096,105.24481 L267.152,105.253716 L267.208,105.262436 L267.264,105.27097 L267.32,105.27932 L267.376,105.287476 L267.432,105.29544 L267.488,105.303215 L267.544,105.31081 L267.6,105.31821 L267.656,105.32542 L267.712,105.332436 L267.768,105.33927 L267.824,105.34592 L267.88,105.35237 L267.936,105.35864 L267.992,105.36473 L268.048,105.37063 L268.104,105.37634 L268.16,105.381874 L268.216,105.38722 L268.272,105.39239 L268.328,105.39738 L268.384,105.40218 L268.44,105.40681 L268.496,105.411255 L268.552,105.41553 L268.608,105.419624 L268.664,105.42355 L268.72,105.42731 L268.776,105.430885 L268.832,105.434296 L268.888,105.43754 L268.944,105.44062 L269,105.44353 L269.056,105.44628 L269.112,105.44887 L269.168,105.451294 L269.224,105.45357 L269.28,105.45568 L269.336,105.45764 L269.392,105.45945 L269.448,105.461105 L269.504,105.462616 L269.56,105.46398 L269.616,105.465195 L269.672,105.46627 L269.728,105.46721 L269.784,105.468 L269.84,105.46866 L269.896,105.469185 L269.952,105.46958 L270.008,105.46984 L270.064,105.46997 L270.12,105.46998 L270.176,105.469864 L270.232,105.46963 L270.288,105.46926 L270.344,105.46879 L270.4,105.46819 L270.456,105.46749 L270.512,105.466675 L270.568,105.46575 L270.624,105.464714 L270.68,105.46358 L270.736,105.46234 L270.792,105.461 L270.848,105.459564 L270.904,105.45803 L270.96,105.456406 L271.016,105.45468 L271.072,105.45287 L271.128,105.45098 L271.184,105.449 L271.24,105.44693 L271.296,105.444786 L271.352,105.442566 L271.408,105.44026 L271.464,105.43789 L271.52,105.43544 L271.576,105.43292 L271.632,105.430336 L271.688,105.42768 L271.744,105.424965 L271.8,105.42219 L271.856,105.41935 L271.912,105.41645 L271.968,105.41349 L272.024,105.410484 L272.08,105.407425 L272.136,105.40431 L272.192,105.401146 L272.248,105.39794 L272.304,105.39469 L272.36,105.391396 L272.416,105.388054 L272.472,105.38468 L272.528,105.38126 L272.584,105.377815 L272.64,105.37434 L272.696,105.37082 L272.752,105.36727 L272.808,105.36369 L272.864,105.36009 L272.92,105.35646 L272.976,105.352806 L273.032,105.34913 L273.088,105.345436 L273.144,105.34171 L273.2,105.33798 L273.256,105.33423 L273.312,105.33046 L273.368,105.32668 L273.424,105.32289 L273.48,105.319084 L273.536,105.31528 L273.592,105.311455 L273.648,105.307625 L273.704,105.303795 L273.76,105.29996 L273.816,105.29612 L273.872,105.29228 L273.928,105.28844 L273.984,105.2846 L274.04,105.28076 L274.096,105.276924 L274.152,105.273094 L274.208,105.269264 L274.264,105.26544 L274.32,105.261635 L274.376,105.25783 L274.432,105.25403 L274.488,105.250244 L274.544,105.246475 L274.6,105.242714 L274.656,105.23897 L274.712,105.23523 L274.768,105.231514 L274.824,105.227806 L274.88,105.22412 L274.936,105.22045 L274.992,105.2168 L275.048,105.213165 L275.104,105.20955 L275.16,105.205956 L275.216,105.202385 L275.272,105.19884 L275.328,105.195305 L275.384,105.1918 L275.44,105.18832 L275.496,105.18486 L275.552,105.18143 L275.608,105.17802 L275.664,105.17464 L275.72,105.17128 L275.776,105.167946 L275.832,105.16464 L275.888,105.16137 L275.944,105.15812 L276,105.1549 L276.056,105.15171 L276.112,105.148544 L276.168,105.14542 L276.224,105.14231 L276.28,105.13924 L276.336,105.1362 L276.392,105.13319 L276.448,105.1302 L276.504,105.12726 L276.56,105.12434 L276.616,105.12145 L276.672,105.1186 L276.728,105.115776 L276.784,105.11298 L276.84,105.11023 L276.896,105.1075 L276.952,105.10481 L277.008,105.10215 L277.064,105.099525 L277.12,105.09693 L277.176,105.09437 L277.232,105.09184 L277.288,105.08935 L277.344,105.08688 L277.4,105.08446 L277.456,105.08206 L277.512,105.079704 L277.568,105.07738 L277.624,105.07508 L277.68,105.07282 L277.736,105.070595 L277.792,105.0684 L277.848,105.06624 L277.904,105.06411 L277.96,105.06202 L278.016,105.05995 L278.072,105.05792 L278.128,105.05593 L278.184,105.05396 L278.24,105.05203 L278.296,105.05013 L278.352,105.04827 L278.408,105.04643 L278.464,105.04463 L278.52,105.04286 L278.576,105.04112 L278.632,105.03942 L278.688,105.03774 L278.744,105.036095 L278.8,105.034485 L278.856,105.032906 L278.912,105.03135 L278.968,105.02983 L279.024,105.028336 L279.08,105.02688 L279.136,105.025444 L279.192,105.02404 L279.248,105.02267 L279.304,105.021324 L279.36,105.02001 L279.416,105.01872 L279.472,105.01747 L279.528,105.016235 L279.584,105.01504 L279.64,105.01386 L279.696,105.01272 L279.752,105.0116 L279.808,105.010506 L279.864,105.00944 L279.92,105.0084 L279.976,105.007385 L280.032,105.00639 L280.088,105.00543 L280.144,105.00449 L280.2,105.00358 L280.256,105.00269 L280.312,105.00183 L280.368,105.00099 L280.424,105.000175 L280.48,104.99938 L280.536,104.99861 L280.592,104.99786 L280.648,104.99714 L280.704,104.99644 L280.76,104.99576 L280.816,104.9951 L280.872,104.99446 L280.928,104.99384 L280.984,104.993256 L281.04,104.992676 L281.096,104.99213 L281.152,104.99159 L281.208,104.99107 L281.264,104.99058 L281.32,104.990105 L281.376,104.98965 L281.432,104.989204 L281.488,104.988785 L281.544,104.98838 L281.6,104.988 L281.656,104.987625 L281.712,104.987274 L281.768,104.986946 L281.824,104.986626 L281.88,104.98632 L281.936,104.98604 L281.992,104.98576 L282.048,104.98551 L282.104,104.98527 L282.16,104.98504 L282.216,104.98483 L282.272,104.984634 L282.328,104.98445 L282.384,104.984276 L282.44,104.98412 L282.496,104.98398 L282.552,104.98385 L282.608,104.98373 L282.664,104.98362 L282.72,104.98353 L282.776,104.983444 L282.832,104.983376 L282.888,104.983315 L282.944,104.98326 L283,104.98322 L283.056,104.98319 L283.112,104.98318 L283.168,104.98317 L283.224,104.98317 L283.28,104.98318 L283.336,104.9832 L283.392,104.98322 L283.448,104.98326 L283.504,104.98331 L283.56,104.98336 L283.616,104.98342 L283.672,104.98349 L283.728,104.98357 L283.784,104.98365 L283.84,104.98374 L283.896,104.98384 L283.952,104.98394 L284.008,104.984055 L284.064,104.98417 L284.12,104.98429 L284.176,104.98442 L284.232,104.98456 L284.288,104.984695 L284.344,104.98484 L284.4,104.984985 L284.456,104.98514 L284.512,104.9853 L284.568,104.98546 L284.624,104.98563 L284.68,104.985794 L284.736,104.98597 L284.792,104.986145 L284.848,104.98633 L284.904,104.98651 L284.96,104.9867 L285.016,104.98689 L285.072,104.98708 L285.128,104.98728 L285.184,104.98747 L285.24,104.98768 L285.296,104.98788 L285.352,104.98808 L285.408,104.98829 L285.464,104.988495 L285.52,104.9887 L285.576,104.98891 L285.632,104.98912 L285.688,104.98933 L285.744,104.98954 L285.8,104.98975 L285.856,104.98997 L285.912,104.99018 L285.968,104.990395 L286.024,104.99061 L286.08,104.99082 L286.136,104.991035 L286.192,104.99125 L286.248,104.99146 L286.304,104.99167 L286.36,104.99188 L286.416,104.992096 L286.472,104.9923 L286.528,104.992516 L286.584,104.99272 L286.64,104.99293 L286.696,104.99313 L286.752,104.99333 L286.808,104.99354 L286.864,104.99374 L286.92,104.993935 L286.976,104.99413 L287.032,104.99432 L287.088,104.994514 L287.144,104.994705 L287.2,104.994896 L287.256,104.99508 L287.312,104.99526 L287.368,104.995445 L287.424,104.99562 L287.48,104.9958 L287.536,104.99597 L287.592,104.99614 L287.648,104.99631 L287.704,104.996475 L287.76,104.996635 L287.816,104.99679 L287.872,104.99695 L287.928,104.9971 L287.984,104.997246 L288.04,104.99739 L288.096,104.997536 L288.152,104.99767 L288.208,104.9978 L288.264,104.99793 L288.32,104.99806 L288.376,104.998184 L288.432,104.99831 L288.488,104.99842 L288.544,104.998535 L288.6,104.99864 L288.656,104.99875 L288.712,104.99885 L288.768,104.99895 L288.824,104.99904 L288.88,104.99912 L288.936,104.99921 L288.992,104.99929 L289.048,104.99937 L289.104,104.999435 L289.16,104.999504 L289.216,104.999565 L289.272,104.999626 L289.328,104.99968 L289.384,104.99973 L289.44,104.99978 L289.496,104.999825 L289.552,104.999855 L289.608,104.99989 L289.664,104.99992 L289.72,104.99995 L289.776,104.99996 L289.832,104.99998 L289.888,104.99999 L289.944,105" fill="none" stroke="black" stroke-width="1"/>
</g>
<g inkscape:groupmode="layer" inkscape:label="signature">
<path d="m 15.815664,12.893319 c -1.445284,-3.0999497 -5.555449,-0.3575 -5.08537,2.32203 1.697826,2.92736 4.504013,-3.54417 4.40859,-2.58178 -1.548999,2.22986 0.741131,6.08701 3.012419,3.25791 2.532153,-2.82358 0.259001,-7.8326797 -3.488671,-7.9011197 -3.217272,0.056 -5.8863857,2.4603197 -7.9308737,4.7238797 -2.354585,2.46752 0.0048,5.887 2.757763,6.62143 3.2195457,1.10867 6.8759417,1.30834 9.9459317,-0.36585 2.270396,-1.12373 5.025949,-2.62031 5.680576,-5.20027 -2.108811,-3.66096 -6.038415,1.28356 -3.842036,3.67822 1.07278,0.89979 4.586982,-2.27037 3.201668,-2.73503 0.03094,3.24357 1.226854,6.37852 1.337023,9.60311 -0.672198,3.54892 -7.469251,0.32096 -4.637082,-2.5164 2.158436,-2.4193 5.610472,-2.84094 8.202925,-4.57369 0.993877,-1.40371 0.353413,-5.25046 3.182464,-3.48957 2.142923,1.43516 -2.250898,5.7532 1.723416,5.02339 1.661189,-0.71663 6.494946,-1.40457 4.601401,-3.95236 -4.205319,-0.68052 -1.190571,5.86505 1.665411,3.46881 1.929752,-0.9247 2.778055,-4.05119 1.423645,-5.35034 0.479155,1.8589 3.849911,7.52574 4.880369,3.32696 0.21201,-1.28088 0.40468,-3.80204 1.01246,-1.23041 0.5858,2.6865 3.83412,4.91909 4.56937,1.07383 0.65272,-1.00894 -0.2696,-4.02739 0.99929,-1.35746 1.10974,2.31613 6.32001,1.46113 6.147,-1.13059 -1.98394,-2.13868 -5.3717,1.45205 -3.78252,3.73454 2.57741,0.96208 6.69797,-0.21041 7.06275,-3.33983 0.41287,-2.63769 0.26643,-5.3430297 -0.11178,-7.9756197 0.67418,3.94149 1.24889,7.9380497 2.39963,11.7713397 2.10586,1.67977 5.7434,1.65022 7.74596,-0.23639 3.03149,-1.85431 -0.26637,-4.76925 -2.71777,-4.54025 -2.11577,0.0793 -5.36257,2.40772 -5.16868,3.85604 2.08262,-2.38818 5.55759,-1.22628 8.30726,-1.6832 3.182,-0.26596 6.46546,-0.57372 9.54494,-1.18158 0.24171,0.4199 -0.27752,0.54338 -0.43067,0.17453" fill="none" stroke="black" stroke-width="1" transform="translate(240,95) scale(0.6)"/>
</g>
</svg>