<svg height="210mm" style="background:white" viewBox="0 0 297 210" width="297mm" xmlns="http://www.w3.org/2000/svg" xmlns:inkscape="http://www.inkscape.org/namespaces/inkscape">
<g inkscape:groupmode="layer" inkscape:label="brush">
<path d="M61,20 L180,20 L216.83482,133.36594 L121.04721,202.95972 L25.906815,133.83617 L62,22.752764 L178,22.752764 L213.59875,132.31447 L121.04721,199.55711 L29.142883,132.7847 L64,25.505527 L176,25.505527 L210.36269,131.26302 L121.04721,196.15451 L32.378952,131.73325 L66,28.258291 L174,28.258291 L207.12662,130.21155 L121.04721,192.7519 L35.61502,130.68178 L68,31.011055 L172,31.011055 L203.89055,129.1601 L121.04721,189.3493 L38.851086,129.63031 L70,33.76382 L170,33.76382 L200.65448,128.10863 L121.04721,185.9467 L42.087154,128.57886 L72,36.516582 L168,36.516582 L197.41841,127.05717 L121.04721,182.5441 L45.323223,127.52739 L74,39.26935 L166,39.26935 L194.18234,126.0057 L121.04721,179.1415 L48.55929,126.47593 L76,42.02211 L164,42.02211 L190.94629,124.95424 L121.04721,175.73889 L51.79536,125.42447 L78,44.774876 L162,44.774876 L187.71022,123.90278 L121.04721,172.33629 L55.031425,124.37301 L80,47.527637 L160,47.527637 L184.47415,122.85131 L121.04721,168.93369 L58.267494,123.32154 L82,50.280403 L158,50.280403 L181.23808,121.79985 L121.04721,165.53108 L61.503563,122.27008 L84,53.033165 L156,53.033165 L178.00201,120.74839 L121.04721,162.12848 L64.73963,121.21862 L86,55.78593 L154,55.78593 L174.76595,119.69693 L121.04721,158.72588 L67.9757,120.16715 L88,58.538692 L152,58.538692 L171.52988,118.64546 L121.04721,155.32327 L71.21177,119.11569 L90,61.29146 L150,61.29146 L168.29381,117.594 L121.04721,151.92067 L74.44784,118.06423 L92,64.04422 L148,64.04422 L165.05774,116.54254 L121.04721,148.51807 L77.6839,117.01277 L94,66.79698 L146,66.79698 L161.82167,115.49108 L121.04721,145.11546 L80.91997,115.9613 L96,69.54975 L144,69.54975 L158.5856,114.43961 L121.04721,141.71284 L84.15604,114.90984 L98,72.30251 L142,72.30251 L155.34953,113.38815 L121.04721,138.31024 L87.392105,113.85838 L100,75.055275 L140,75.055275 L152.11346,112.33669 L121.04721,134.90764 L90.628174,112.80692 L102,77.808044 L138,77.808044 L148.8774,111.28523 L121.04721,131.50504 L93.86424,111.755455 L104,80.56081 L136,80.56081 L145.64133,110.233765 L121.04721,128.10243 L97.10031,110.703995 L106,83.31357 L134,83.31357 L142.40526,109.182304 L121.04721,124.69984 L100.33638,109.652534 L108,86.06633 L132,86.06633 L139.16919,108.130844 L121.04721,121.29723 L103.57245,108.601074 L110,88.8191 L130,88.8191 L135.93312,107.079384 L121.04721,117.89463 L106.80852,107.54961 L112,91.57186 L128,91.57186 L132.69705,106.027916 L121.04721,114.49203 L110.044586,106.498146 L114,94.32462 L126,94.32462 L129.46098,104.976456 L121.04721,111.089424 L113.28065,105.446686 L116,97.077385 L124,97.077385 L126.22492,103.924995 L121.04721,107.68682 L116.516716,104.395226 L118,99.830154 L122,99.830154 L122.98885,102.873535 L121.04721,104.28422 L119.752785,103.34376 L120,102.58292 L120,102.58292" fill="none" stroke="red" stroke-width="0.5" style="mix-blend-mode: multiply;"/>
</g>
<g inkscape:groupmode="layer" inkscape:label="signature">
<g inkscape:groupmode="layer" inkscape:label="signature">
<path d="m 15.815664,12.893319 c -1.445284,-3.0999497 -5.555449,-0.3575 -5.08537,2.32203 1.697826,2.92736 4.504013,-3.54417 4.40859,-2.58178 -1.548999,2.22986 0.741131,6.08701 3.012419,3.25791 2.532153,-2.82358 0.259001,-7.8326797 -3.488671,-7.9011197 -3.217272,0.056 -5.8863857,2.4603197 -7.9308737,4.7238797 -2.354585,2.46752 0.0048,5.887 2.757763,6.62143 3.2195457,1.10867 6.8759417,1.30834 9.9459317,-0.36585 2.270396,-1.12373 5.025949,-2.62031 5.680576,-5.20027 -2.108811,-3.66096 -6.038415,1.28356 -3.842036,3.67822 1.07278,0.89979 4.586982,-2.27037 3.201668,-2.73503 0.03094,3.24357 1.226854,6.37852 1.337023,9.60311 -0.672198,3.54892 -7.469251,0.32096 -4.637082,-2.5164 2.158436,-2.4193 5.610472,-2.84094 8.202925,-4.57369 0.993877,-1.40371 0.353413,-5.25046 3.182464,-3.48957 2.142923,1.43516 -2.250898,5.7532 1.723416,5.02339 1.661189,-0.71663 6.494946,-1.40457 4.601401,-3.95236 -4.205319,-0.68052 -1.190571,5.86505 1.665411,3.46881 1.929752,-0.9247 2.778055,-4.05119 1.423645,-5.35034 0.479155,1.8589 3.849911,7.52574 4.880369,3.32696 0.21201,-1.28088 0.40468,-3.80204 1.01246,-1.23041 0.5858,2.6865 3.83412,4.91909 4.56937,1.07383 0.65272,-1.00894 -0.2696,-4.02739 0.99929,-1.35746 1.10974,2.31613 6.32001,1.46113 6.147,-1.13059 -1.98394,-2.13868 -5.3717,1.45205 -3.78252,3.73454 2.57741,0.96208 6.69797,-0.21041 7.06275,-3.33983 0.41287,-2.63769 0.26643,-5.3430297 -0.11178,-7.9756197 0.67418,3.94149 1.24889,7.9380497 2.39963,11.7713397 2.10586,1.67977 5.7434,1.65022 7.74596,-0.23639 3.03149,-1.85431 -0.26637,-4.76925 -2.71777,-4.54025 -2.11577,0.0793 -5.36257,2.40772 -5.16868,3.85604 2.08262,-2.38818 5.55759,-1.22628 8.30726,-1.6832 3.182,-0.26596 6.46546,-0.57372 9.54494,-1.18158 0.24171,0.4199 -0.27752,0.54338 -0.43067,0.17453" fill="none" stroke="black" stroke-width="1" transform="translate(200,190) scale(0.3)"/>
</g>
</g>
</svg>