<svg height="210mm" style="background:white" viewBox="0 0 297 210" width="297mm" xmlns="http://www.w3.org/2000/svg" xmlns:inkscape="http://www.inkscape.org/namespaces/inkscape">
<g inkscape:groupmode="layer" inkscape:label="brush">
<path d="M61,20 L230,20 L230,189.2 L61.6,189.2 L61.6,21.6 L228.4,21.6 L228.4,187.6 L63.2,187.6 L63.2,23.2 L226.8,23.2 L226.8,186 L64.8,186 L64.8,24.8 L225.2,24.8 L225.2,184.4 L66.4,184.4 L66.4,26.4 L223.6,26.4 L223.6,182.8 L68,182.8 L68,28 L222,28 L222,181.2 L69.6,181.2 L69.6,29.6 L220.4,29.6 L220.4,179.6 L71.2,179.6 L71.2,31.2 L218.8,31.2 L218.8,178 L72.8,178 L72.8,32.8 L217.2,32.8 L217.2,176.4 L74.4,176.4 L74.4,34.4 L215.6,34.4 L215.6,174.8 L76,174.8 L76,36 L214,36 L214,173.2 L77.6,173.2 L77.6,37.6 L212.4,37.6 L212.4,171.6 L79.2,171.6 L79.2,39.2 L210.8,39.2 L210.8,170 L80.8,170 L80.8,40.8 L209.2,40.8 L209.2,168.4 L82.4,168.4 L82.4,42.4 L207.6,42.4 L207.6,166.8 L84,166.8 L84,44 L206,44 L206,165.2 L85.6,165.2 L85.6,45.6 L204.4,45.6 L204.4,163.6 L87.2,163.6 L87.2,47.2 L202.8,47.2 L202.8,162 L88.8,162 L88.8,48.8 L201.2,48.8 L201.2,160.4 L90.4,160.4 L90.4,50.4 L199.6,50.4 L199.6,158.8 L92,158.8 L92,52 L198,52 L198,157.2 L93.6,157.2 L93.6,53.6 L196.4,53.6 L196.4,155.6 L95.2,155.6 L95.2,55.2 L194.8,55.2 L194.8,154 L96.8,154 L96.8,56.8 L193.2,56.8 L193.2,152.4 L98.4,152.4 L98.4,58.4 L191.6,58.4 L191.6,150.8 L100,150.8 L100,60 L190,60 L190,149.2 L101.6,149.2 L101.6,61.6 L188.4,61.6 L188.4,147.6 L103.2,147.6 L103.2,63.2 L186.8,63.2 L186.8,146 L104.8,146 L104.8,64.8 L185.2,64.8 L185.2,144.4 L106.4,144.4 L106.4,66.4 L183.6,66.4 L183.6,142.8 L108,142.8 L108,68 L182,68 L182,141.2 L109.6,141.2 L109.6,69.6 L180.4,69.6 L180.4,139.6 L111.2,139.6 L111.2,71.2 L178.8,71.2 L178.8,138 L112.8,138 L112.8,72.8 L177.2,72.8 L177.2,136.4 L114.4,136.4 L114.4,74.4 L175.6,74.4 L175.6,134.8 L116,134.8 L116,76 L174,76 L174,133.2 L117.6,133.2 L117.6,77.6 L172.4,77.6 L172.4,131.6 L119.2,131.6 L119.2,79.2 L170.8,79.2 L170.8,130 L120.8,130 L120.8,80.8 L169.2,80.8 L169.2,128.4 L122.4,128.4 L122.4,82.4 L167.6,82.4 L167.6,126.8 L124,126.8 L124,84 L166,84 L166,125.2 L125.6,125.2 L125.6,85.6 L164.4,85.6 L164.4,123.6 L127.2,123.6 L127.2,87.2 L162.8,87.2 L162.8,122 L128.8,122 L128.8,88.8 L161.2,88.8 L161.2,120.4 L130.4,120.4 L130.4,90.4 L159.6,90.4 L159.6,118.8 L132,118.8 L132,92 L158,92 L158,117.2 L133.6,117.2 L133.6,93.6 L156.4,93.6 L156.4,115.6 L135.2,115.6 L135.2,95.2 L154.8,95.2 L154.8,114 L136.8,114 L136.8,96.8 L153.2,96.8 L153.2,112.4 L138.4,112.4 L138.4,98.4 L151.6,98.4 L151.6,110.8 L140,110.8 L140,100 L150,100 L150,109.2 L141.6,109.2 L141.6,101.6 L148.4,101.6 L148.4,107.6 L143.2,107.6 L143.2,103.2 L146.8,103.2 L146.8,106 L144.8,106 L144.8,104.8 L145.2,104.8" fill="none" stroke="black" stroke-width="0.5" style="mix-blend-mode: multiply;"/>
</g>
<g inkscape:groupmode="layer" inkscape:label="signature">
<g inkscape:groupmode="layer" inkscape:label="signature">
<path d="m 15.815664,12.893319 c -1.445284,-3.0999497 -5.555449,-0.3575 -5.08537,2.32203 1.697826,2.92736 4.504013,-3.54417 4.40859,-2.58178 -1.548999,2.22986 0.741131,6.08701 3.012419,3.25791 2.532153,-2.82358 0.259001,-7.8326797 -3.488671,-7.9011197 -3.217272,0.056 -5.8863857,2.4603197 -7.9308737,4.7238797 -2.354585,2.46752 0.0048,5.887 2.757763,6.62143 3.2195457,1.10867 6.8759417,1.30834 9.9459317,-0.36585 2.270396,-1.12373 5.025949,-2.62031 5.680576,-5.20027 -2.108811,-3.66096 -6.038415,1.28356 -3.842036,3.67822 1.07278,0.89979 4.586982,-2.27037 3.201668,-2.73503 0.03094,3.24357 1.226854,6.37852 1.337023,9.60311 -0.672198,3.54892 -7.469251,0.32096 -4.637082,-2.5164 2.158436,-2.4193 5.610472,-2.84094 8.202925,-4.57369 0.993877,-1.40371 0.353413,-5.25046 3.182464,-3.48957 2.142923,1.43516 -2.250898,5.7532 1.723416,5.02339 1.661189,-0.71663 6.494946,-1.40457 4.601401,-3.95236 -4.205319,-0.68052 -1.190571,5.86505 1.665411,3.46881 1.929752,-0.9247 2.778055,-4.05119 1.423645,-5.35034 0.479155,1.8589 3.849911,7.52574 4.880369,3.32696 0.21201,-1.28088 0.40468,-3.80204 1.01246,-1.23041 0.5858,2.6865 3.83412,4.91909 4.56937,1.07383 0.65272,-1.00894 -0.2696,-4.02739 0.99929,-1.35746 1.10974,2.31613 6.32001,1.46113 6.147,-1.13059 -1.98394,-2.13868 -5.3717,1.45205 -3.78252,3.73454 2.57741,0.96208 6.69797,-0.21041 7.06275,-3.33983 0.41287,-2.63769 0.26643,-5.3430297 -0.11178,-7.9756197 0.67418,3.94149 1.24889,7.9380497 2.39963,11.7713397 2.10586,1.67977 5.7434,1.65022 7.74596,-0.23639 3.03149,-1.85431 -0.26637,-4.76925 -2.71777,-4.54025 -2.11577,0.0793 -5.36257,2.40772 -5.16868,3.85604 2.08262,-2.38818 5.55759,-1.22628 8.30726,-1.6832 3.182,-0.26596 6.46546,-0.57372 9.54494,-1.18158 0.24171,0.4199 -0.27752,0.54338 -0.43067,0.17453" fill="none" stroke="black" stroke-width="1" transform="translate(120,185) scale(0.6)"/>
</g>
</g>
</svg>