<svg height="210mm" style="background:white" viewBox="0 0 297 210" width="297mm" xmlns="http://www.w3.org/2000/svg" xmlns:inkscape="http://www.inkscape.org/namespaces/inkscape">
<g inkscape:groupmode="layer" inkscape:label="brush">
<path d="M61,20 L230,20 L230,189.5 L61,189.5 L61,21 L229,21 L229,188.5 L62,188.5 L62,22 L228,22 L228,187.5 L63,187.5 L63,23 L227,23 L227,186.5 L64,186.5 L64,24 L226,24 L226,185.5 L65,185.5 L65,25 L225,25 L225,184.5 L66,184.5 L66,26 L224,26 L224,183.5 L67,183.5 L67,27 L223,27 L223,182.5 L68,182.5 L68,28 L222,28 L222,181.5 L69,181.5 L69,29 L221,29 L221,180.5 L70,180.5 L70,30 L220,30 L220,179.5 L71,179.5 L71,31 L219,31 L219,178.5 L72,178.5 L72,32 L218,32 L218,177.5 L73,177.5 L73,33 L217,33 L217,176.5 L74,176.5 L74,34 L216,34 L216,175.5 L75,175.5 L75,35 L215,35 L215,174.5 L76,174.5 L76,36 L214,36 L214,173.5 L77,173.5 L77,37 L213,37 L213,172.5 L78,172.5 L78,38 L212,38 L212,171.5 L79,171.5 L79,39 L211,39 L211,170.5 L80,170.5 L80,40 L210,40 L210,169.5 L81,169.5 L81,41 L209,41 L209,168.5 L82,168.5 L82,42 L208,42 L208,167.5 L83,167.5 L83,43 L207,43 L207,166.5 L84,166.5 L84,44 L206,44 L206,165.5 L85,165.5 L85,45 L205,45 L205,164.5 L86,164.5 L86,46 L204,46 L204,163.5 L87,163.5 L87,47 L203,47 L203,162.5 L88,162.5 L88,48 L202,48 L202,161.5 L89,161.5 L89,49 L201,49 L201,160.5 L90,160.5 L90,50 L200,50 L200,159.5 L91,159.5 L91,51 L199,51 L199,158.5 L92,158.5 L92,52 L198,52 L198,157.5 L93,157.5 L93,53 L197,53 L197,156.5 L94,156.5 L94,54 L196,54 L196,155.5 L95,155.5 L95,55 L195,55 L195,154.5 L96,154.5 L96,56 L194,56 L194,153.5 L97,153.5 L97,57 L193,57 L193,152.5 L98,152.5 L98,58 L192,58 L192,151.5 L99,151.5 L99,59 L191,59 L191,150.5 L100,150.5 L100,60 L190,60 L190,149.5 L101,149.5 L101,61 L189,61 L189,148.5 L102,148.5 L102,62 L188,62 L188,147.5 L103,147.5 L103,63 L187,63 L187,146.5 L104,146.5 L104,64 L186,64 L186,145.5 L105,145.5 L105,65 L185,65 L185,144.5 L106,144.5 L106,66 L184,66 L184,143.5 L107,143.5 L107,67 L183,67 L183,142.5 L108,142.5 L108,68 L182,68 L182,141.5 L109,141.5 L109,69 L181,69 L181,140.5 L110,140.5 L110,70 L180,70 L180,139.5 L111,139.5 L111,71 L179,71 L179,138.5 L112,138.5 L112,72 L178,72 L178,137.5 L113,137.5 L113,73 L177,73 L177,136.5 L114,136.5 L114,74 L176,74 L176,135.5 L115,135.5 L115,75 L175,75 L175,134.5 L116,134.5 L116,76 L174,76 L174,133.5 L117,133.5 L117,77 L173,77 L173,132.5 L118,132.5 L118,78 L172,78 L172,131.5 L119,131.5 L119,79 L171,79 L171,130.5 L120,130.5 L120,80 L170,80 L170,129.5 L121,129.5 L121,81 L169,81 L169,128.5 L122,128.5 L122,82 L168,82 L168,127.5 L123,127.5 L123,83 L167,83 L167,126.5 L124,126.5 L124,84 L166,84 L166,125.5 L125,125.5 L125,85 L165,85 L165,124.5 L126,124.5 L126,86 L164,86 L164,123.5 L127,123.5 L127,87 L163,87 L163,122.5 L128,122.5 L128,88 L162,88 L162,121.5 L129,121.5 L129,89 L161,89 L161,120.5 L130,120.5 L130,90 L160,90 L160,119.5 L131,119.5 L131,91 L159,91 L159,118.5 L132,118.5 L132,92 L158,92 L158,117.5 L133,117.5 L133,93 L157,93 L157,116.5 L134,116.5 L134,94 L156,94 L156,115.5 L135,115.5 L135,95 L155,95 L155,114.5 L136,114.5 L136,96 L154,96 L154,113.5 L137,113.5 L137,97 L153,97 L153,112.5 L138,112.5 L138,98 L152,98 L152,111.5 L139,111.5 L139,99 L151,99 L151,110.5 L140,110.5 L140,100 L150,100 L150,109.5 L141,109.5 L141,101 L149,101 L149,108.5 L142,108.5 L142,102 L148,102 L148,107.5 L143,107.5 L143,103 L147,103 L147,106.5 L144,106.5 L144,104 L146,104 L146,105.5 L145,105.5 L145,105 L145,105" fill="none" stroke="black" stroke-width="0.5" style="mix-blend-mode: multiply;"/>
</g>
<g inkscape:groupmode="layer" inkscape:label="signature">
<g inkscape:groupmode="layer" inkscape:label="signature">
<path d="m 15.815664,12.893319 c -1.445284,-3.0999497 -5.555449,-0.3575 -5.08537,2.32203 1.697826,2.92736 4.504013,-3.54417 4.40859,-2.58178 -1.548999,2.22986 0.741131,6.08701 3.012419,3.25791 2.532153,-2.82358 0.259001,-7.8326797 -3.488671,-7.9011197 -3.217272,0.056 -5.8863857,2.4603197 -7.9308737,4.7238797 -2.354585,2.46752 0.0048,5.887 2.757763,6.62143 3.2195457,1.10867 6.8759417,1.30834 9.9459317,-0.36585 2.270396,-1.12373 5.025949,-2.62031 5.680576,-5.20027 -2.108811,-3.66096 -6.038415,1.28356 -3.842036,3.67822 1.07278,0.89979 4.586982,-2.27037 3.201668,-2.73503 0.03094,3.24357 1.226854,6.37852 1.337023,9.60311 -0.672198,3.54892 -7.469251,0.32096 -4.637082,-2.5164 2.158436,-2.4193 5.610472,-2.84094 8.202925,-4.57369 0.993877,-1.40371 0.353413,-5.25046 3.182464,-3.48957 2.142923,1.43516 -2.250898,5.7532 1.723416,5.02339 1.661189,-0.71663 6.494946,-1.40457 4.601401,-3.95236 -4.205319,-0.68052 -1.190571,5.86505 1.665411,3.46881 1.929752,-0.9247 2.778055,-4.05119 1.423645,-5.35034 0.479155,1.8589 3.849911,7.52574 4.880369,3.32696 0.21201,-1.28088 0.40468,-3.80204 1.01246,-1.23041 0.5858,2.6865 3.83412,4.91909 4.56937,1.07383 0.65272,-1.00894 -0.2696,-4.02739 0.99929,-1.35746 1.10974,2.31613 6.32001,1.46113 6.147,-1.13059 -1.98394,-2.13868 -5.3717,1.45205 -3.78252,3.73454 2.57741,0.96208 6.69797,-0.21041 7.06275,-3.33983 0.41287,-2.63769 0.26643,-5.3430297 -0.11178,-7.9756197 0.67418,3.94149 1.24889,7.9380497 2.39963,11.7713397 2.10586,1.67977 5.7434,1.65022 7.74596,-0.23639 3.03149,-1.85431 -0.26637,-4.76925 -2.71777,-4.54025 -2.11577,0.0793 -5.36257,2.40772 -5.16868,3.85604 2.08262,-2.38818 5.55759,-1.22628 8.30726,-1.6832 3.182,-0.26596 6.46546,-0.57372 9.54494,-1.18158 0.24171,0.4199 -0.27752,0.54338 -0.43067,0.17453" fill="none" stroke="black" stroke-width="1" transform="translate(120,185) scale(0.6)"/>
</g>
</g>
</svg>