<svg height="210mm" style="background:white" viewBox="0 0 297 210" width="297mm" xmlns="http://www.w3.org/2000/svg" xmlns:inkscape="http://www.inkscape.org/namespaces/inkscape">
<g inkscape:groupmode="layer" inkscape:label="brush">
<path d="M61,20 L230,20 L230,189 L62,189 L62,22 L228,22 L228,187 L64,187 L64,24 L226,24 L226,185 L66,185 L66,26 L224,26 L224,183 L68,183 L68,28 L222,28 L222,181 L70,181 L70,30 L220,30 L220,179 L72,179 L72,32 L218,32 L218,177 L74,177 L74,34 L216,34 L216,175 L76,175 L76,36 L214,36 L214,173 L78,173 L78,38 L212,38 L212,171 L80,171 L80,40 L210,40 L210,169 L82,169 L82,42 L208,42 L208,167 L84,167 L84,44 L206,44 L206,165 L86,165 L86,46 L204,46 L204,163 L88,163 L88,48 L202,48 L202,161 L90,161 L90,50 L200,50 L200,159 L92,159 L92,52 L198,52 L198,157 L94,157 L94,54 L196,54 L196,155 L96,155 L96,56 L194,56 L194,153 L98,153 L98,58 L192,58 L192,151 L100,151 L100,60 L190,60 L190,149 L102,149 L102,62 L188,62 L188,147 L104,147 L104,64 L186,64 L186,145 L106,145 L106,66 L184,66 L184,143 L108,143 L108,68 L182,68 L182,141 L110,141 L110,70 L180,70 L180,139 L112,139 L112,72 L178,72 L178,137 L114,137 L114,74 L176,74 L176,135 L116,135 L116,76 L174,76 L174,133 L118,133 L118,78 L172,78 L172,131 L120,131 L120,80 L170,80 L170,129 L122,129 L122,82 L168,82 L168,127 L124,127 L124,84 L166,84 L166,125 L126,125 L126,86 L164,86 L164,123 L128,123 L128,88 L162,88 L162,121 L130,121 L130,90 L160,90 L160,119 L132,119 L132,92 L158,92 L158,117 L134,117 L134,94 L156,94 L156,115 L136,115 L136,96 L154,96 L154,113 L138,113 L138,98 L152,98 L152,111 L140,111 L140,100 L150,100 L150,109 L142,109 L142,102 L148,102 L148,107 L144,107 L144,104 L146,104 L146,105 L146,105" fill="none" stroke="black" stroke-width="0.5" style="mix-blend-mode: multiply;"/>
</g>
<g inkscape:groupmode="layer" inkscape:label="signature">
<g inkscape:groupmode="layer" inkscape:label="signature">
<path d="m 15.815664,12.893319 c -1.445284,-3.0999497 -5.555449,-0.3575 -5.08537,2.32203 1.697826,2.92736 4.504013,-3.54417 4.40859,-2.58178 -1.548999,2.22986 0.741131,6.08701 3.012419,3.25791 2.532153,-2.82358 0.259001,-7.8326797 -3.488671,-7.9011197 -3.217272,0.056 -5.8863857,2.4603197 -7.9308737,4.7238797 -2.354585,2.46752 0.0048,5.887 2.757763,6.62143 3.2195457,1.10867 6.8759417,1.30834 9.9459317,-0.36585 2.270396,-1.12373 5.025949,-2.62031 5.680576,-5.20027 -2.108811,-3.66096 -6.038415,1.28356 -3.842036,3.67822 1.07278,0.89979 4.586982,-2.27037 3.201668,-2.73503 0.03094,3.24357 1.226854,6.37852 1.337023,9.60311 -0.672198,3.54892 -7.469251,0.32096 -4.637082,-2.5164 2.158436,-2.4193 5.610472,-2.84094 8.202925,-4.57369 0.993877,-1.40371 0.353413,-5.25046 3.182464,-3.48957 2.142923,1.43516 -2.250898,5.7532 1.723416,5.02339 1.661189,-0.71663 6.494946,-1.40457 4.601401,-3.95236 -4.205319,-0.68052 -1.190571,5.86505 1.665411,3.46881 1.929752,-0.9247 2.778055,-4.05119 1.423645,-5.35034 0.479155,1.8589 3.849911,7.52574 4.880369,3.32696 0.21201,-1.28088 0.40468,-3.80204 1.01246,-1.23041 0.5858,2.6865 3.83412,4.91909 4.56937,1.07383 0.65272,-1.00894 -0.2696,-4.02739 0.99929,-1.35746 1.10974,2.31613 6.32001,1.46113 6.147,-1.13059 -1.98394,-2.13868 -5.3717,1.45205 -3.78252,3.73454 2.57741,0.96208 6.69797,-0.21041 7.06275,-3.33983 0.41287,-2.63769 0.26643,-5.3430297 -0.11178,-7.9756197 0.67418,3.94149 1.24889,7.9380497 2.39963,11.7713397 2.10586,1.67977 5.7434,1.65022 7.74596,-0.23639 3.03149,-1.85431 -0.26637,-4.76925 -2.71777,-4.54025 -2.11577,0.0793 -5.36257,2.40772 -5.16868,3.85604 2.08262,-2.38818 5.55759,-1.22628 8.30726,-1.6832 3.182,-0.26596 6.46546,-0.57372 9.54494,-1.18158 0.24171,0.4199 -0.27752,0.54338 -0.43067,0.17453" fill="none" stroke="black" stroke-width="1" transform="translate(120,185) scale(0.6)"/>
</g>
</g>
</svg>