<svg height="210mm" style="background:white" viewBox="0 0 297 210" width="297mm" xmlns="http://www.w3.org/2000/svg" xmlns:inkscape="http://www.inkscape.org/namespaces/inkscape">
<g inkscape:groupmode="layer" inkscape:label="black">
<g inkscape:groupmode="layer" inkscape:label="signature">
<path d="m 15.815664,12.893319 c -1.445284,-3.0999497 -5.555449,-0.3575 -5.08537,2.32203 1.697826,2.92736 4.504013,-3.54417 4.40859,-2.58178 -1.548999,2.22986 0.741131,6.08701 3.012419,3.25791 2.532153,-2.82358 0.259001,-7.8326797 -3.488671,-7.9011197 -3.217272,0.056 -5.8863857,2.4603197 -7.9308737,4.7238797 -2.354585,2.46752 0.0048,5.887 2.757763,6.62143 3.2195457,1.10867 6.8759417,1.30834 9.9459317,-0.36585 2.270396,-1.12373 5.025949,-2.62031 5.680576,-5.20027 -2.108811,-3.66096 -6.038415,1.28356 -3.842036,3.67822 1.07278,0.89979 4.586982,-2.27037 3.201668,-2.73503 0.03094,3.24357 1.226854,6.37852 1.337023,9.60311 -0.672198,3.54892 -7.469251,0.32096 -4.637082,-2.5164 2.158436,-2.4193 5.610472,-2.84094 8.202925,-4.57369 0.993877,-1.40371 0.353413,-5.25046 3.182464,-3.48957 2.142923,1.43516 -2.250898,5.7532 1.723416,5.02339 1.661189,-0.71663 6.494946,-1.40457 4.601401,-3.95236 -4.205319,-0.68052 -1.190571,5.86505 1.665411,3.46881 1.929752,-0.9247 2.778055,-4.05119 1.423645,-5.35034 0.479155,1.8589 3.849911,7.52574 4.880369,3.32696 0.21201,-1.28088 0.40468,-3.80204 1.01246,-1.23041 0.5858,2.6865 3.83412,4.91909 4.56937,1.07383 0.65272,-1.00894 -0.2696,-4.02739 0.99929,-1.35746 1.10974,2.31613 6.32001,1.46113 6.147,-1.13059 -1.98394,-2.13868 -5.3717,1.45205 -3.78252,3.73454 2.57741,0.96208 6.69797,-0.21041 7.06275,-3.33983 0.41287,-2.63769 0.26643,-5.3430297 -0.11178,-7.9756197 0.67418,3.94149 1.24889,7.9380497 2.39963,11.7713397 2.10586,1.67977 5.7434,1.65022 7.74596,-0.23639 3.03149,-1.85431 -0.26637,-4.76925 -2.71777,-4.54025 -2.11577,0.0793 -5.36257,2.40772 -5.16868,3.85604 2.08262,-2.38818 5.55759,-1.22628 8.30726,-1.6832 3.182,-0.26596 6.46546,-0.57372 9.54494,-1.18158 0.24171,0.4199 -0.27752,0.54338 -0.43067,0.17453" fill="none" stroke="black" stroke-width="1" transform="translate(245,165) scale(0.24)"/>
</g>
<path d="M30,80 Q30,80,30.237,63.333332 Q30.474,46.666668,30.5925,71.666664 Q30.711,96.666664,30.8295,71.666664 Q30.948,46.666668,31.0665,80 Q31.185,113.333336,31.3035,146.66667 Q31.422,180,31.5405,121.666664 Q31.659,63.333332,31.7775,96.666664 Q31.896,130,32.0145,121.666664 Q32.133,113.333336,32.2515,96.666664 Q32.37,80,32.4885,96.666664 Q32.607,113.333336,32.7255,138.33333 Q32.844,163.33333,32.9625,171.66667 Q33.081,180,33.1995,163.33333 Q33.318,146.66667,33.4365,163.33333 Q33.555,180,33.6735,130 Q33.792,80,33.9105,71.666664 Q34.029,63.333332,34.1475,71.666664 Q34.266,80,34.3845,121.666664 Q34.503,163.33333,34.6215,130 Q34.74,96.666664,34.8585,113.333336 Q34.977,130,35.0955,96.666664 Q35.214,63.333332,35.3325,96.666664 Q35.451,130,35.5695,113.333336 Q35.688,96.666664,35.8065,88.333336 Q35.925,80,36.0435,80 Q36.162,80,36.2805,121.666664 Q36.399,163.33333,36.5175,121.666664 Q36.636,80,36.7545,71.666664 Q36.873,63.333332,36.9915,105 Q37.11,146.66667,37.2285,163.33333 Q37.347,180,37.4655,146.66667 Q37.584,113.333336,37.7025,71.666664 Q37.821,30,37.9395,46.666668 Q38.058,63.333332,38.1765,113.333336 Q38.295,163.33333,38.4135,163.33333 Q38.532,163.33333,38.6505,130 Q38.769,96.666664,38.8875,71.666664 Q39.006,46.666668,39.1245,113.333336 Q39.243,180,39.3615,163.33333 Q39.48,146.66667,39.5985,96.666664 Q39.717,46.666668,39.8355,88.333336 Q39.954,130,40.0725,155 Q40.191,180,40.3095,130 Q40.428,80,40.5465,130 Q40.665,180,40.7835,180 Q40.902,180,41.0205,130 Q41.139,80,41.2575,113.333336 Q41.376,146.66667,41.4945,130 Q41.613,113.333336,41.7315,80 Q41.85,46.666668,41.9685,38.333332 Q42.087,30,42.2055,71.666664 Q42.324,113.333336,42.4425,138.33333 Q42.561,163.33333,42.6795,113.333336 Q42.798,63.333332,42.9165,46.666668 Q43.035,30,43.1535,105 Q43.272,180,43.3905,163.33333 Q43.509,146.66667,43.6275,121.666664 Q43.746,96.666664,43.8645,138.33333 Q43.983,180,44.1015,138.33333 Q44.22,96.666664,44.3385,96.666664 Q44.457,96.666664,44.5755,105 Q44.694,113.333336,44.8125,146.66667 Q44.931,180,45.0495,121.666664 Q45.168,63.333332,45.2865,71.666664 Q45.405,80,45.5235,55 Q45.642,30,45.7605,88.333336 Q45.879,146.66667,45.9975,155 Q46.116,163.33333,46.2345,105 Q46.353,46.666668,46.4715,88.333336 Q46.59,130,46.7085,113.333336 Q46.827,96.666664,46.9455,63.333332 Q47.064,30,47.1825,80 Q47.301,130,47.4195,96.666664 Q47.538,63.333332,47.6565,113.333336 Q47.775,163.33333,47.8935,146.66667 Q48.012,130,48.1305,96.666664 Q48.249,63.333332,48.3675,46.666668 Q48.486,30,48.6045,96.666664 Q48.723,163.33333,48.8415,171.66667 Q48.96,180,49.0785,180 Q49.197,180,49.3155,171.66667 Q49.434,163.33333,49.5525,146.66667 Q49.671,130,49.7895,96.666664 Q49.908,63.333332,50.0265,113.333336 Q50.145,163.33333,50.2635,96.666664 Q50.382,30,50.5005,55 Q50.619,80,50.7375,88.333336 Q50.856,96.666664,50.9745,130 Q51.093,163.33333,51.2115,113.333336 Q51.33,63.333332,51.4485,88.333336 Q51.567,113.333336,51.6855,96.666664 Q51.804,80,51.9225,88.333336 Q52.041,96.666664,52.1595,80 Q52.278,63.333332,52.3965,55 Q52.515,46.666668,52.6335,46.666668 Q52.752,46.666668,52.8705,96.666664 Q52.989,146.66667,53.1075,88.333336 Q53.226,30,53.3445,80 Q53.463,130,53.5815,138.33333 Q53.7,146.66667,53.8185,163.33333 Q53.937,180,54.0555,171.66667 Q54.174,163.33333,54.2925,113.333336 Q54.411,63.333332,54.5295,55 Q54.648,46.666668,54.7665,71.666664 Q54.885,96.666664,55.0035,130 Q55.122,163.33333,55.2405,96.666664 Q55.359,30,55.4775,96.666664 Q55.596,163.33333,55.7145,146.66667 Q55.833,130,55.9515,121.666664 Q56.07,113.333336,56.1885,80 Q56.307,46.666668,56.4255,63.333332 Q56.544,80,56.6625,71.666664 Q56.781,63.333332,56.8995,113.333336 Q57.018,163.33333,57.1365,113.333336 Q57.255,63.333332,57.3735,71.666664 Q57.492,80,57.6105,55 Q57.729,30,57.8475,80 Q57.966,130,58.0845,130 Q58.203,130,58.3215,113.333336 Q58.44,96.666664,58.5585,121.666664 Q58.677,146.66667,58.7955,88.333336 Q58.914,30,59.0325,105 Q59.151,180,59.2695,130 Q59.388,80,59.5065,121.666664 Q59.625,163.33333,59.7435,130 Q59.862,96.666664,59.9805,96.666664 Q60.099,96.666664,60.2175,113.333336 Q60.336,130,60.4545,80 Q60.573,30,60.6915,105 Q60.81,180,60.9285,146.66667 Q61.047,113.333336,61.1655,113.333336 Q61.284,113.333336,61.4025,71.666664 Q61.521,30,61.6395,71.666664 Q61.758,113.333336,61.8765,138.33333 Q61.995,163.33333,62.1135,113.333336 Q62.232,63.333332,62.3505,63.333332 Q62.469,63.333332,62.5875,71.666664 Q62.706,80,62.8245,63.333332 Q62.943,46.666668,63.0615,96.666664 Q63.18,146.66667,63.2985,105 Q63.417,63.333332,63.5355,88.333336 Q63.654,113.333336,63.7725,96.666664 Q63.891,80,64.0095,96.666664 Q64.128,113.333336,64.2465,146.66667 Q64.365,180,64.4835,138.33333 Q64.602,96.666664,64.7205,63.333332 Q64.839,30,64.9575,96.666664 Q65.076,163.33333,65.1945,105 Q65.313,46.666668,65.4315,55 Q65.55,63.333332,65.6685,113.333336 Q65.787,163.33333,65.9055,130 Q66.024,96.666664,66.1425,130 Q66.261,163.33333,66.3795,105 Q66.498,46.666668,66.6165,46.666668 Q66.735,46.666668,66.8535,46.666668 Q66.972,46.666668,67.0905,96.666664 Q67.209,146.66667,67.3275,121.666664 Q67.446,96.666664,67.5645,105 Q67.683,113.333336,67.8015,71.666664 Q67.92,30,68.0385,46.666668 Q68.157,63.333332,68.2755,113.333336 Q68.394,163.33333,68.5125,130 Q68.631,96.666664,68.7495,71.666664 Q68.868,46.666668,68.9865,38.333332 Q69.105,30,69.2235,46.666668 Q69.342,63.333332,69.4605,105 Q69.579,146.66667,69.6975,88.333336 Q69.816,30,69.9345,38.333332 Q70.053,46.666668,70.1715,113.333336 Q70.29,180,70.4085,130 Q70.527,80,70.6455,121.666664 Q70.764,163.33333,70.8825,138.33333 Q71.001,113.333336,71.1195,88.333336 Q71.238,63.333332,71.3565,55 Q71.475,46.666668,71.5935,46.666668 Q71.712,46.666668,71.8305,38.333332 Q71.949,30,72.0675,71.666664 Q72.186,113.333336,72.3045,113.333336 Q72.423,113.333336,72.5415,113.333336 Q72.66,113.333336,72.7785,146.66667 Q72.897,180,73.0155,155 Q73.134,130,73.2525,113.333336 Q73.371,96.666664,73.4895,96.666664 Q73.608,96.666664,73.7265,113.333336 Q73.845,130,73.9635,96.666664 Q74.082,63.333332,74.2005,63.333332 Q74.319,63.333332,74.4375,121.666664 Q74.556,180,74.6745,138.33333 Q74.793,96.666664,74.9115,130 Q75.03,163.33333,75.1485,171.66667 Q75.267,180,75.3855,146.66667 Q75.504,113.333336,75.6225,105 Q75.741,96.666664,75.8595,138.33333 Q75.978,180,76.0965,130 Q76.215,80,76.3335,55 Q76.452,30,76.5705,55 Q76.689,80,76.8075,121.666664 Q76.926,163.33333,77.0445,105 Q77.163,46.666668,77.2815,113.333336 Q77.4,180,77.5185,155 Q77.637,130,77.7555,113.333336 Q77.874,96.666664,77.9925,96.666664 Q78.111,96.666664,78.2295,80 Q78.348,63.333332,78.4665,113.333336 Q78.585,163.33333,78.7035,163.33333 Q78.822,163.33333,78.9405,105 Q79.059,46.666668,79.1775,38.333332 Q79.296,30,79.4145,105 Q79.533,180,79.6515,163.33333 Q79.77,146.66667,79.8885,130 Q80.007,113.333336,80.1255,121.666664 Q80.244,130,80.3625,130 Q80.481,130,80.5995,121.666664 Q80.718,113.333336,80.8365,146.66667 Q80.955,180,81.0735,130 Q81.192,80,81.3105,80 Q81.429,80,81.5475,88.333336 Q81.666,96.666664,81.7845,96.666664 Q81.903,96.666664,82.0215,113.333336 Q82.14,130,82.2585,88.333336 Q82.377,46.666668,82.4955,55 Q82.614,63.333332,82.7325,113.333336 Q82.851,163.33333,82.9695,130 Q83.088,96.666664,83.2065,121.666664 Q83.325,146.66667,83.4435,130 Q83.562,113.333336,83.6805,121.666664 Q83.799,130,83.9175,113.333336 Q84.036,96.666664,84.1545,130 Q84.273,163.33333,84.3915,113.333336 Q84.51,63.333332,84.6285,71.666664 Q84.747,80,84.8655,80 Q84.984,80,85.1025,113.333336 Q85.221,146.66667,85.3395,155 Q85.458,163.33333,85.5765,146.66667 Q85.695,130,85.8135,138.33333 Q85.932,146.66667,86.0505,155 Q86.169,163.33333,86.2875,121.666664 Q86.406,80,86.5245,63.333332 Q86.643,46.666668,86.7615,88.333336 Q86.88,130,86.9985,121.666664 Q87.117,113.333336,87.2355,88.333336 Q87.354,63.333332,87.4725,105 Q87.591,146.66667,87.7095,96.666664 Q87.828,46.666668,87.9465,55 Q88.065,63.333332,88.1835,46.666668 Q88.302,30,88.4205,38.333332 Q88.539,46.666668,88.6575,113.333336 Q88.776,180,88.8945,105 Q89.013,30,89.1315,105 Q89.25,180,89.3685,113.333336 Q89.487,46.666668,89.6055,71.666664 Q89.724,96.666664,89.8425,105 Q89.961,113.333336,90.0795,121.666664 Q90.198,130,90.3165,113.333336 Q90.435,96.666664,90.5535,130 Q90.672,163.33333,90.7905,138.33333 Q90.909,113.333336,91.0275,121.666664 Q91.146,130,91.2645,130 Q91.383,130,91.5015,155 Q91.62,180,91.7385,121.666664 Q91.857,63.333332,91.9755,71.666664 Q92.094,80,92.2125,88.333336 Q92.331,96.666664,92.4495,113.333336 Q92.568,130,92.6865,80 Q92.805,30,92.9235,55 Q93.042,80,93.1605,88.333336 Q93.279,96.666664,93.3975,130 Q93.516,163.33333,93.6345,146.66667 Q93.753,130,93.8715,88.333336 Q93.99,46.666668,94.1085,38.333332 Q94.227,30,94.3455,63.333332 Q94.464,96.666664,94.5825,105 Q94.701,113.333336,94.8195,105 Q94.938,96.666664,95.0565,88.333336 Q95.175,80,95.2935,71.666664 Q95.412,63.333332,95.5305,96.666664 Q95.649,130,95.7675,130 Q95.886,130,96.0045,113.333336 Q96.123,96.666664,96.2415,130 Q96.36,163.33333,96.4785,113.333336 Q96.597,63.333332,96.7155,55 Q96.834,46.666668,96.9525,63.333332 Q97.071,80,97.1895,80 Q97.308,80,97.4265,130 Q97.545,180,97.6635,130 Q97.782,80,97.9005,105 Q98.019,130,98.1375,80 Q98.256,30,98.3745,88.333336 Q98.493,146.66667,98.6115,105 Q98.73,63.333332,98.8485,96.666664 Q98.967,130,99.0855,80 Q99.204,30,99.3225,46.666668 Q99.441,63.333332,99.5595,80 Q99.678,96.666664,99.7965,138.33333 Q99.915,180,100.0335,113.333336 Q100.152,46.666668,100.2705,71.666664 Q100.389,96.666664,100.5075,71.666664 Q100.626,46.666668,100.7445,55 Q100.863,63.333332,100.9815,105 Q101.1,146.66667,101.2185,113.333336 Q101.337,80,101.4555,113.333336 Q101.574,146.66667,101.6925,105 Q101.811,63.333332,101.9295,80 Q102.048,96.666664,102.1665,105 Q102.285,113.333336,102.4035,138.33333 Q102.522,163.33333,102.6405,155 Q102.759,146.66667,102.8775,88.333336 Q102.996,30,103.1145,30 Q103.233,30,103.3515,80 Q103.47,130,103.5885,130 Q103.707,130,103.8255,80 Q103.944,30,104.0625,80 Q104.181,130,104.2995,105 Q104.418,80,104.5365,63.333332 Q104.655,46.666668,104.7735,80 Q104.892,113.333336,105.0105,113.333336 Q105.129,113.333336,105.2475,138.33333 Q105.366,163.33333,105.4845,163.33333 Q105.603,163.33333,105.7215,105 Q105.84,46.666668,105.9585,96.666664 Q106.077,146.66667,106.1955,121.666664 Q106.314,96.666664,106.4325,130 Q106.551,163.33333,106.6695,163.33333 Q106.788,163.33333,106.9065,105 Q107.025,46.666668,107.1435,80 Q107.262,113.333336,107.3805,88.333336 Q107.499,63.333332,107.6175,46.666668 Q107.736,30,107.8545,105 Q107.973,180,108.0915,121.666664 Q108.21,63.333332,108.3285,46.666668 Q108.447,30,108.5655,105 Q108.684,180,108.8025,155 Q108.921,130,109.0395,96.666664 Q109.158,63.333332,109.2765,113.333336 Q109.395,163.33333,109.5135,113.333336 Q109.632,63.333332,109.7505,121.666664 Q109.869,180,109.9875,121.666664 Q110.106,63.333332,110.2245,88.333336 Q110.343,113.333336,110.4615,105 Q110.58,96.666664,110.6985,63.333332 Q110.817,30,110.9355,105 Q111.054,180,111.1725,113.333336 Q111.291,46.666668,111.4095,96.666664 Q111.528,146.66667,111.6465,96.666664 Q111.765,46.666668,111.8835,80 Q112.002,113.333336,112.1205,96.666664 Q112.239,80,112.3575,105 Q112.476,130,112.5945,113.333336 Q112.713,96.666664,112.8315,88.333336 Q112.95,80,113.0685,105 Q113.187,130,113.3055,138.33333 Q113.424,146.66667,113.5425,155 Q113.661,163.33333,113.7795,171.66667 Q113.898,180,114.0165,121.666664 Q114.135,63.333332,114.2535,88.333336 Q114.372,113.333336,114.4905,146.66667 Q114.609,180,114.7275,105 Q114.846,30,114.9645,55 Q115.083,80,115.2015,105 Q115.32,130,115.4385,80 Q115.557,30,115.6755,30 Q115.794,30,115.9125,38.333332 Q116.031,46.666668,116.1495,46.666668 Q116.268,46.666668,116.3865,63.333332 Q116.505,80,116.6235,80 Q116.742,80,116.8605,55 Q116.979,30,117.0975,71.666664 Q117.216,113.333336,117.3345,96.666664 Q117.453,80,117.5715,55 Q117.69,30,117.8085,71.666664 Q117.927,113.333336,118.0455,105 Q118.164,96.666664,118.2825,130 Q118.401,163.33333,118.5195,163.33333 Q118.638,163.33333,118.7565,113.333336 Q118.875,63.333332,118.9935,46.666668 Q119.112,30,119.2305,63.333332 Q119.349,96.666664,119.4675,113.333336 Q119.586,130,119.7045,130 Q119.823,130,119.9415,121.666664 Q120.06,113.333336,120.1785,88.333336 Q120.297,63.333332,120.4155,55 Q120.534,46.666668,120.6525,63.333332 Q120.771,80,120.8895,121.666664 Q121.008,163.33333,121.1265,130 Q121.245,96.666664,121.3635,71.666664 Q121.482,46.666668,121.6005,71.666664 Q121.719,96.666664,121.8375,113.333336 Q121.956,130,122.0745,155 Q122.193,180,122.3115,146.66667 Q122.43,113.333336,122.5485,80 Q122.667,46.666668,122.7855,113.333336 Q122.904,180,123.0225,138.33333 Q123.141,96.666664,123.2595,71.666664 Q123.378,46.666668,123.4965,80 Q123.615,113.333336,123.7335,80 Q123.852,46.666668,123.9705,46.666668 Q124.089,46.666668,124.2075,88.333336 Q124.326,130,124.4445,80 Q124.563,30,124.6815,105 Q124.8,180,124.9185,138.33333 Q125.037,96.666664,125.1555,88.333336 Q125.274,80,125.3925,80 Q125.511,80,125.6295,55 Q125.748,30,125.8665,71.666664 Q125.985,113.333336,126.1035,130 Q126.222,146.66667,126.3405,105 Q126.459,63.333332,126.5775,105 Q126.696,146.66667,126.8145,88.333336 Q126.933,30,127.0515,55 Q127.17,80,127.2885,105 Q127.407,130,127.5255,121.666664 Q127.644,113.333336,127.7625,130 Q127.881,146.66667,127.9995,130 Q128.118,113.333336,128.2365,146.66667 Q128.355,180,128.4735,146.66667 Q128.592,113.333336,128.7105,146.66667 Q128.829,180,128.9475,113.333336 Q129.066,46.666668,129.1845,113.333336 Q129.303,180,129.4215,146.66667 Q129.54,113.333336,129.6585,96.666664 Q129.777,80,129.8955,55 Q130.014,30,130.1325,105 Q130.251,180,130.3695,121.666664 Q130.488,63.333332,130.6065,55 Q130.725,46.666668,130.8435,105 Q130.962,163.33333,131.0805,146.66667 Q131.199,130,131.3175,88.333336 Q131.436,46.666668,131.5545,46.666668 Q131.673,46.666668,131.7915,96.666664 Q131.91,146.66667,132.0285,113.333336 Q132.147,80,132.2655,121.666664 Q132.384,163.33333,132.5025,105 Q132.621,46.666668,132.7395,113.333336 Q132.858,180,132.9765,130 Q133.095,80,133.2135,71.666664 Q133.332,63.333332,133.4505,96.666664 Q133.569,130,133.6875,88.333336 Q133.806,46.666668,133.9245,46.666668 Q134.043,46.666668,134.1615,96.666664 Q134.28,146.66667,134.3985,163.33333 Q134.517,180,134.6355,130 Q134.754,80,134.8725,63.333332 Q134.991,46.666668,135.1095,38.333332 Q135.228,30,135.3465,71.666664 Q135.465,113.333336,135.5835,80 Q135.702,46.666668,135.8205,46.666668 Q135.939,46.666668,136.0575,105 Q136.176,163.33333,136.2945,138.33333 Q136.413,113.333336,136.5315,105 Q136.65,96.666664,136.7685,130 Q136.887,163.33333,137.0055,96.666664 Q137.124,30,137.2425,88.333336 Q137.361,146.66667,137.4795,121.666664 Q137.598,96.666664,137.7165,96.666664 Q137.835,96.666664,137.9535,113.333336 Q138.072,130,138.1905,96.666664 Q138.309,63.333332,138.4275,71.666664 Q138.546,80,138.6645,113.333336 Q138.783,146.66667,138.9015,163.33333 Q139.02,180,139.1385,180 Q139.257,180,139.3755,155 Q139.494,130,139.6125,96.666664 Q139.731,63.333332,139.8495,105 Q139.968,146.66667,140.0865,121.666664 Q140.205,96.666664,140.3235,138.33333 Q140.442,180,140.5605,146.66667 Q140.679,113.333336,140.7975,121.666664 Q140.916,130,141.0345,138.33333 Q141.153,146.66667,141.2715,113.333336 Q141.39,80,141.5085,96.666664 Q141.627,113.333336,141.7455,80 Q141.864,46.666668,141.9825,105 Q142.101,163.33333,142.2195,163.33333 Q142.338,163.33333,142.4565,138.33333 Q142.575,113.333336,142.6935,130 Q142.812,146.66667,142.9305,130 Q143.049,113.333336,143.1675,88.333336 Q143.286,63.333332,143.4045,105 Q143.523,146.66667,143.6415,105 Q143.76,63.333332,143.8785,80 Q143.997,96.666664,144.1155,130 Q144.234,163.33333,144.3525,171.66667 Q144.471,180,144.5895,113.333336 Q144.708,46.666668,144.8265,55 Q144.945,63.333332,145.0635,63.333332 Q145.182,63.333332,145.3005,105 Q145.419,146.66667,145.5375,163.33333 Q145.656,180,145.7745,130 Q145.893,80,146.0115,121.666664 Q146.13,163.33333,146.2485,105 Q146.367,46.666668,146.4855,105 Q146.604,163.33333,146.7225,121.666664 Q146.841,80,146.9595,55 Q147.078,30,147.1965,38.333332 Q147.315,46.666668,147.4335,46.666668 Q147.552,46.666668,147.6705,113.333336 Q147.789,180,147.9075,138.33333 Q148.026,96.666664,148.1445,138.33333 Q148.263,180,148.3815,113.333336 Q148.5,46.666668,148.6185,55 Q148.737,63.333332,148.8555,121.666664 Q148.974,180,149.0925,171.66667 Q149.211,163.33333,149.3295,121.666664 Q149.448,80,149.5665,80 Q149.685,80,149.8035,105 Q149.922,130,150.0405,138.33333 Q150.159,146.66667,150.2775,113.333336 Q150.396,80,150.5145,80 Q150.633,80,150.7515,105 Q150.87,130,150.9885,96.666664 Q151.107,63.333332,151.2255,80 Q151.344,96.666664,151.4625,96.666664 Q151.581,96.666664,151.6995,63.333332 Q151.818,30,151.9365,80 Q152.055,130,152.1735,121.666664 Q152.292,113.333336,152.4105,121.666664 Q152.529,130,152.6475,130 Q152.766,130,152.8845,113.333336 Q153.003,96.666664,153.1215,88.333336 Q153.24,80,153.3585,55 Q153.477,30,153.5955,96.666664 Q153.714,163.33333,153.8325,146.66667 Q153.951,130,154.0695,80 Q154.188,30,154.3065,46.666668 Q154.425,63.333332,154.5435,55 Q154.662,46.666668,154.7805,63.333332 Q154.899,80,155.0175,130 Q155.136,180,155.2545,138.33333 Q155.373,96.666664,155.4915,138.33333 Q155.61,180,155.7285,138.33333 Q155.847,96.666664,155.9655,113.333336 Q156.084,130,156.2025,105 Q156.321,80,156.4395,130 Q156.558,180,156.6765,146.66667 Q156.795,113.333336,156.9135,88.333336 Q157.032,63.333332,157.1505,63.333332 Q157.269,63.333332,157.3875,80 Q157.506,96.666664,157.6245,121.666664 Q157.743,146.66667,157.8615,113.333336 Q157.98,80,158.0985,113.333336 Q158.217,146.66667,158.3355,96.666664 Q158.454,46.666668,158.5725,113.333336 Q158.691,180,158.8095,105 Q158.928,30,159.0465,88.333336 Q159.165,146.66667,159.2835,88.333336 Q159.402,30,159.5205,46.666668 Q159.639,63.333332,159.7575,55 Q159.876,46.666668,159.9945,96.666664 Q160.113,146.66667,160.2315,163.33333 Q160.35,180,160.4685,171.66667 Q160.587,163.33333,160.7055,146.66667 Q160.824,130,160.9425,80 Q161.061,30,161.1795,105 Q161.298,180,161.4165,138.33333 Q161.535,96.666664,161.6535,88.333336 Q161.772,80,161.8905,113.333336 Q162.009,146.66667,162.1275,88.333336 Q162.246,30,162.3645,46.666668 Q162.483,63.333332,162.6015,105 Q162.72,146.66667,162.8385,146.66667 Q162.957,146.66667,163.0755,88.333336 Q163.194,30,163.3125,71.666664 Q163.431,113.333336,163.5495,96.666664 Q163.668,80,163.7865,130 Q163.905,180,164.0235,121.666664 Q164.142,63.333332,164.2605,55 Q164.379,46.666668,164.4975,96.666664 Q164.616,146.66667,164.7345,96.666664 Q164.853,46.666668,164.9715,96.666664 Q165.09,146.66667,165.2085,138.33333 Q165.327,130,165.4455,96.666664 Q165.564,63.333332,165.6825,121.666664 Q165.801,180,165.9195,130 Q166.038,80,166.1565,63.333332 Q166.275,46.666668,166.3935,96.666664 Q166.512,146.66667,166.6305,138.33333 Q166.749,130,166.8675,138.33333 Q166.986,146.66667,167.1045,130 Q167.223,113.333336,167.3415,88.333336 Q167.46,63.333332,167.5785,71.666664 Q167.697,80,167.8155,121.666664 Q167.934,163.33333,168.0525,130 Q168.171,96.666664,168.2895,113.333336 Q168.408,130,168.5265,138.33333 Q168.645,146.66667,168.7635,121.666664 Q168.882,96.666664,169.0005,130 Q169.119,163.33333,169.2375,105 Q169.356,46.666668,169.4745,105 Q169.593,163.33333,169.7115,130 Q169.83,96.666664,169.9485,113.333336 Q170.067,130,170.1855,138.33333 Q170.304,146.66667,170.4225,138.33333 Q170.541,130,170.6595,130 Q170.778,130,170.8965,155 Q171.015,180,171.1335,138.33333 Q171.252,96.666664,171.3705,63.333332 Q171.489,30,171.6075,71.666664 Q171.726,113.333336,171.8445,80 Q171.963,46.666668,172.0815,63.333332 Q172.2,80,172.3185,71.666664 Q172.437,63.333332,172.5555,46.666668 Q172.674,30,172.7925,30 Q172.911,30,173.0295,30 Q173.148,30,173.2665,71.666664 Q173.385,113.333336,173.5035,121.666664 Q173.622,130,173.7405,146.66667 Q173.859,163.33333,173.9775,105 Q174.096,46.666668,174.2145,55 Q174.333,63.333332,174.4515,105 Q174.57,146.66667,174.6885,96.666664 Q174.807,46.666668,174.9255,71.666664 Q175.044,96.666664,175.1625,105 Q175.281,113.333336,175.3995,88.333336 Q175.518,63.333332,175.6365,96.666664 Q175.755,130,175.8735,105 Q175.992,80,176.1105,96.666664 Q176.229,113.333336,176.3475,121.666664 Q176.466,130,176.5845,80 Q176.703,30,176.8215,96.666664 Q176.94,163.33333,177.0585,113.333336 Q177.177,63.333332,177.2955,105 Q177.414,146.66667,177.5325,146.66667 Q177.651,146.66667,177.7695,155 Q177.888,163.33333,178.0065,138.33333 Q178.125,113.333336,178.2435,130 Q178.362,146.66667,178.4805,146.66667 Q178.599,146.66667,178.7175,96.666664 Q178.836,46.666668,178.9545,63.333332 Q179.073,80,179.1915,88.333336 Q179.31,96.666664,179.4285,80 Q179.547,63.333332,179.6655,105 Q179.784,146.66667,179.9025,130 Q180.021,113.333336,180.1395,130 Q180.258,146.66667,180.3765,146.66667 Q180.495,146.66667,180.6135,155 Q180.732,163.33333,180.8505,171.66667 Q180.969,180,181.0875,155 Q181.206,130,181.3245,80 Q181.443,30,181.5615,105 Q181.68,180,181.7985,113.333336 Q181.917,46.666668,182.0355,96.666664 Q182.154,146.66667,182.2725,113.333336 Q182.391,80,182.5095,105 Q182.628,130,182.7465,105 Q182.865,80,182.9835,113.333336 Q183.102,146.66667,183.2205,96.666664 Q183.339,46.666668,183.4575,96.666664 Q183.576,146.66667,183.6945,155 Q183.813,163.33333,183.9315,155 Q184.05,146.66667,184.1685,105 Q184.287,63.333332,184.4055,55 Q184.524,46.666668,184.6425,71.666664 Q184.761,96.666664,184.8795,113.333336 Q184.998,130,185.1165,146.66667 Q185.235,163.33333,185.3535,130 Q185.472,96.666664,185.5905,96.666664 Q185.709,96.666664,185.8275,63.333332 Q185.946,30,186.0645,105 Q186.183,180,186.3015,105 Q186.42,30,186.5385,38.333332 Q186.657,46.666668,186.7755,55 Q186.894,63.333332,187.0125,63.333332 Q187.131,63.333332,187.2495,80 Q187.368,96.666664,187.4865,138.33333 Q187.605,180,187.7235,146.66667 Q187.842,113.333336,187.9605,96.666664 Q188.079,80,188.1975,88.333336 Q188.316,96.666664,188.4345,88.333336 Q188.553,80,188.6715,55 Q188.79,30,188.9085,38.333332 Q189.027,46.666668,189.1455,71.666664 Q189.264,96.666664,189.3825,113.333336 Q189.501,130,189.6195,121.666664 Q189.738,113.333336,189.8565,105 Q189.975,96.666664,190.0935,138.33333 Q190.212,180,190.3305,146.66667 Q190.449,113.333336,190.5675,138.33333 Q190.686,163.33333,190.8045,138.33333 Q190.923,113.333336,191.0415,96.666664 Q191.16,80,191.2785,113.333336 Q191.397,146.66667,191.5155,96.666664 Q191.634,46.666668,191.7525,38.333332 Q191.871,30,191.9895,71.666664 Q192.108,113.333336,192.2265,71.666664 Q192.345,30,192.4635,88.333336 Q192.582,146.66667,192.7005,163.33333 Q192.819,180,192.9375,121.666664 Q193.056,63.333332,193.1745,63.333332 Q193.293,63.333332,193.4115,105 Q193.53,146.66667,193.6485,163.33333 Q193.767,180,193.8855,155 Q194.004,130,194.1225,146.66667 Q194.241,163.33333,194.3595,171.66667 Q194.478,180,194.5965,121.666664 Q194.715,63.333332,194.8335,88.333336 Q194.952,113.333336,195.0705,138.33333 Q195.189,163.33333,195.3075,171.66667 Q195.426,180,195.5445,121.666664 Q195.663,63.333332,195.7815,71.666664 Q195.9,80,196.0185,96.666664 Q196.137,113.333336,196.2555,105 Q196.374,96.666664,196.4925,80 Q196.611,63.333332,196.7295,46.666668 Q196.848,30,196.9665,38.333332 Q197.085,46.666668,197.2035,113.333336 Q197.322,180,197.4405,180 Q197.559,180,197.6775,146.66667 Q197.796,113.333336,197.9145,121.666664 Q198.033,130,198.1515,88.333336 Q198.27,46.666668,198.3885,46.666668 Q198.507,46.666668,198.6255,55 Q198.744,63.333332,198.8625,55 Q198.981,46.666668,199.0995,55 Q199.218,63.333332,199.3365,121.666664 Q199.455,180,199.5735,105 Q199.692,30,199.8105,46.666668 Q199.929,63.333332,200.0475,55 Q200.166,46.666668,200.2845,113.333336 Q200.403,180,200.5215,155 Q200.64,130,200.7585,80 Q200.877,30,200.9955,96.666664 Q201.114,163.33333,201.2325,146.66667 Q201.351,130,201.4695,113.333336 Q201.588,96.666664,201.7065,63.333332 Q201.825,30,201.9435,55 Q202.062,80,202.1805,88.333336 Q202.299,96.666664,202.4175,96.666664 Q202.536,96.666664,202.6545,71.666664 Q202.773,46.666668,202.8915,105 Q203.01,163.33333,203.1285,105 Q203.247,46.666668,203.3655,80 Q203.484,113.333336,203.6025,146.66667 Q203.721,180,203.8395,171.66667 Q203.958,163.33333,204.0765,105 Q204.195,46.666668,204.3135,63.333332 Q204.432,80,204.5505,105 Q204.669,130,204.7875,96.666664 Q204.906,63.333332,205.0245,121.666664 Q205.143,180,205.2615,163.33333 Q205.38,146.66667,205.4985,146.66667 Q205.617,146.66667,205.7355,121.666664 Q205.854,96.666664,205.9725,121.666664 Q206.091,146.66667,206.2095,146.66667 Q206.328,146.66667,206.4465,96.666664 Q206.565,46.666668,206.6835,63.333332 Q206.802,80,206.9205,55 Q207.039,30,207.1575,105 Q207.276,180,207.3945,180 Q207.513,180,207.6315,155 Q207.75,130,207.8685,80 Q207.987,30,208.1055,71.666664 Q208.224,113.333336,208.3425,80 Q208.461,46.666668,208.5795,105 Q208.698,163.33333,208.8165,155 Q208.935,146.66667,209.0535,88.333336 Q209.172,30,209.2905,88.333336 Q209.409,146.66667,209.5275,105 Q209.646,63.333332,209.7645,55 Q209.883,46.666668,210.0015,46.666668 Q210.12,46.666668,210.2385,63.333332 Q210.357,80,210.4755,88.333336 Q210.594,96.666664,210.7125,138.33333 Q210.831,180,210.9495,180 Q211.068,180,211.1865,180 Q211.305,180,211.4235,180 Q211.542,180,211.6605,180 Q211.779,180,211.8975,180 Q212.016,180,212.1345,171.66667 Q212.253,163.33333,212.3715,121.666664 Q212.49,80,212.6085,113.333336 Q212.727,146.66667,212.8455,105 Q212.964,63.333332,213.0825,121.666664 Q213.201,180,213.3195,163.33333 Q213.438,146.66667,213.5565,155 Q213.675,163.33333,213.7935,96.666664 Q213.912,30,214.0305,63.333332 Q214.149,96.666664,214.2675,138.33333 Q214.386,180,214.5045,180 Q214.623,180,214.7415,146.66667 Q214.86,113.333336,214.9785,80 Q215.097,46.666668,215.2155,38.333332 Q215.334,30,215.4525,71.666664 Q215.571,113.333336,215.6895,146.66667 Q215.808,180,215.9265,163.33333 Q216.045,146.66667,216.1635,113.333336 Q216.282,80,216.4005,63.333332 Q216.519,46.666668,216.6375,96.666664 Q216.756,146.66667,216.8745,113.333336 Q216.993,80,217.1115,71.666664 Q217.23,63.333332,217.3485,113.333336 Q217.467,163.33333,217.5855,105 Q217.704,46.666668,217.8225,88.333336 Q217.941,130,218.0595,80 Q218.178,30,218.2965,105 Q218.415,180,218.5335,155 Q218.652,130,218.7705,105 Q218.889,80,219.0075,63.333332 Q219.126,46.666668,219.2445,105 Q219.363,163.33333,219.4815,138.33333 Q219.6,113.333336,219.7185,146.66667 Q219.837,180,219.9555,146.66667 Q220.074,113.333336,220.1925,71.666664 Q220.311,30,220.4295,46.666668 Q220.548,63.333332,220.6665,80 Q220.785,96.666664,220.9035,96.666664 Q221.022,96.666664,221.1405,105 Q221.259,113.333336,221.3775,146.66667 Q221.496,180,221.6145,138.33333 Q221.733,96.666664,221.8515,105 Q221.97,113.333336,222.0885,113.333336 Q222.207,113.333336,222.3255,96.666664 Q222.444,80,222.5625,88.333336 Q222.681,96.666664,222.7995,113.333336 Q222.918,130,223.0365,155 Q223.155,180,223.2735,105 Q223.392,30,223.5105,96.666664 Q223.629,163.33333,223.7475,121.666664 Q223.866,80,223.9845,55 Q224.103,30,224.2215,46.666668 Q224.34,63.333332,224.4585,96.666664 Q224.577,130,224.6955,113.333336 Q224.814,96.666664,224.9325,80 Q225.051,63.333332,225.1695,88.333336 Q225.288,113.333336,225.4065,88.333336 Q225.525,63.333332,225.6435,63.333332 Q225.762,63.333332,225.8805,71.666664 Q225.999,80,226.1175,55 Q226.236,30,226.3545,96.666664 Q226.473,163.33333,226.5915,113.333336 Q226.71,63.333332,226.8285,88.333336 Q226.947,113.333336,227.0655,96.666664 Q227.184,80,227.3025,80 Q227.421,80,227.5395,88.333336 Q227.658,96.666664,227.7765,96.666664 Q227.895,96.666664,228.0135,113.333336 Q228.132,130,228.2505,146.66667 Q228.369,163.33333,228.4875,138.33333 Q228.606,113.333336,228.7245,71.666664 Q228.843,30,228.9615,55 Q229.08,80,229.1985,96.666664 Q229.317,113.333336,229.4355,88.333336 Q229.554,63.333332,229.6725,96.666664 Q229.791,130,229.9095,88.333336 Q230.028,46.666668,230.1465,113.333336 Q230.265,180,230.3835,130 Q230.502,80,230.6205,63.333332 Q230.739,46.666668,230.8575,46.666668 Q230.976,46.666668,231.0945,105 Q231.213,163.33333,231.3315,163.33333 Q231.45,163.33333,231.5685,105 Q231.687,46.666668,231.8055,96.666664 Q231.924,146.66667,232.0425,96.666664 Q232.161,46.666668,232.2795,38.333332 Q232.398,30,232.5165,38.333332 Q232.635,46.666668,232.7535,38.333332 Q232.872,30,232.9905,30 Q233.109,30,233.2275,30 Q233.346,30,233.4645,55 Q233.583,80,233.7015,63.333332 Q233.82,46.666668,233.9385,63.333332 Q234.057,80,234.1755,113.333336 Q234.294,146.66667,234.4125,155 Q234.531,163.33333,234.6495,121.666664 Q234.768,80,234.8865,121.666664 Q235.005,163.33333,235.1235,155 Q235.242,146.66667,235.3605,130 Q235.479,113.333336,235.5975,88.333336 Q235.716,63.333332,235.8345,113.333336 Q235.953,163.33333,236.0715,163.33333 Q236.19,163.33333,236.3085,146.66667 Q236.427,130,236.5455,121.666664 Q236.664,113.333336,236.7825,138.33333 Q236.901,163.33333,237.0195,155 Q237.138,146.66667,237.2565,130 Q237.375,113.333336,237.4935,96.666664 Q237.612,80,237.7305,80 Q237.849,80,237.9675,71.666664 Q238.086,63.333332,238.2045,46.666668 Q238.323,30,238.4415,96.666664 Q238.56,163.33333,238.6785,121.666664 Q238.797,80,238.9155,121.666664 Q239.034,163.33333,239.1525,105 Q239.271,46.666668,239.3895,71.666664 Q239.508,96.666664,239.6265,80 Q239.745,63.333332,239.8635,46.666668 Q239.982,30,240.1005,80 Q240.219,130,240.3375,88.333336 Q240.456,46.666668,240.5745,96.666664 Q240.693,146.66667,240.8115,96.666664 Q240.93,46.666668,241.0485,96.666664 Q241.167,146.66667,241.2855,146.66667 Q241.404,146.66667,241.5225,138.33333 Q241.641,130,241.7595,130 Q241.878,130,241.9965,155 Q242.115,180,242.2335,113.333336 Q242.352,46.666668,242.4705,71.666664 Q242.589,96.666664,242.7075,121.666664 Q242.826,146.66667,242.9445,113.333336 Q243.063,80,243.1815,55 Q243.3,30,243.4185,55 Q243.537,80,243.6555,96.666664 Q243.774,113.333336,243.8925,146.66667 Q244.011,180,244.1295,171.66667 Q244.248,163.33333,244.3665,113.333336 Q244.485,63.333332,244.6035,88.333336 Q244.722,113.333336,244.8405,96.666664 Q244.959,80,245.0775,88.333336 Q245.196,96.666664,245.3145,138.33333 Q245.433,180,245.5515,105 Q245.67,30,245.7885,63.333332 Q245.907,96.666664,246.0255,80 Q246.144,63.333332,246.2625,113.333336 Q246.381,163.33333,246.4995,155 Q246.618,146.66667,246.7365,130 Q246.855,113.333336,246.9735,113.333336 Q247.092,113.333336,247.2105,105 Q247.329,96.666664,247.4475,113.333336 Q247.566,130,247.6845,146.66667 Q247.803,163.33333,247.9215,155 Q248.04,146.66667,248.1585,113.333336 Q248.277,80,248.3955,63.333332 Q248.514,46.666668,248.6325,46.666668 Q248.751,46.666668,248.8695,80 Q248.988,113.333336,249.1065,146.66667 Q249.225,180,249.3435,146.66667 Q249.462,113.333336,249.5805,121.666664 Q249.699,130,249.8175,96.666664 Q249.936,63.333332,250.0545,113.333336 Q250.173,163.33333,250.2915,146.66667 Q250.41,130,250.5285,105 Q250.647,80,250.7655,121.666664 Q250.884,163.33333,251.0025,163.33333 Q251.121,163.33333,251.2395,113.333336 Q251.358,63.333332,251.4765,71.666664 Q251.595,80,251.7135,96.666664 Q251.832,113.333336,251.9505,96.666664 Q252.069,80,252.1875,113.333336 Q252.306,146.66667,252.4245,155 Q252.543,163.33333,252.6615,155 Q252.78,146.66667,252.8985,130 Q253.017,113.333336,253.1355,146.66667 Q253.254,180,253.3725,130 Q253.491,80,253.6095,113.333336 Q253.728,146.66667,253.8465,130 Q253.965,113.333336,254.0835,80 Q254.202,46.666668,254.3205,113.333336 Q254.439,180,254.5575,146.66667 Q254.676,113.333336,254.7945,130 Q254.913,146.66667,255.0315,146.66667 Q255.15,146.66667,255.2685,155 Q255.387,163.33333,255.5055,105 Q255.624,46.666668,255.7425,105 Q255.861,163.33333,255.9795,138.33333 Q256.098,113.333336,256.2165,130 Q256.335,146.66667,256.4535,146.66667 Q256.572,146.66667,256.6905,155 Q256.809,163.33333,256.9275,96.666664 Q257.046,30,257.1645,71.666664 Q257.283,113.333336,257.4015,96.666664 Q257.52,80,257.6385,71.666664 Q257.757,63.333332,257.8755,55 Q257.994,46.666668,258.1125,96.666664 Q258.231,146.66667,258.3495,96.666664 Q258.468,46.666668,258.5865,55 Q258.705,63.333332,258.8235,63.333332 Q258.942,63.333332,259.0605,96.666664 Q259.179,130,259.2975,146.66667 Q259.416,163.33333,259.5345,96.666664 Q259.653,30,259.7715,80 Q259.89,130,260.0085,130 Q260.127,130,260.2455,88.333336 Q260.364,46.666668,260.4825,63.333332 Q260.601,80,260.7195,55 Q260.838,30,260.9565,30 Q261.075,30,261.1935,38.333332 Q261.312,46.666668,261.4305,113.333336 Q261.549,180,261.6675,121.666664 Q261.786,63.333332,261.9045,105 Q262.023,146.66667,262.1415,155 Q262.26,163.33333,262.3785,155 Q262.497,146.66667,262.6155,138.33333 Q262.734,130,262.8525,130 Q262.971,130,263.0895,88.333336 Q263.208,46.666668,263.3265,46.666668 Q263.445,46.666668,263.5635,46.666668 Q263.682,46.666668,263.8005,113.333336 Q263.919,180,264.0375,146.66667 Q264.156,113.333336,264.2745,146.66667 Q264.393,180,264.5115,105 Q264.63,30,264.7485,105 Q264.867,180,264.9855,121.666664 Q265.104,63.333332,265.2225,55 Q265.341,46.666668,265.4595,88.333336 Q265.578,130,265.6965,113.333336 Q265.815,96.666664,265.9335,80 Q266.052,63.333332,266.1705,46.666668 Q266.289,30,266.4075,38.333332 Q266.526,46.666668,266.6445,113.333336 Q266.763,180,266.8815,171.66667 Q267,163.33333,267.1185,171.66667" fill="none" stroke="black" stroke-width="0.35" style="mix-blend-mode: multiply;"/>
</g>
</svg>