<svg height="210mm" style="background: white" viewBox="0 0 297 210" width="297mm" xmlns="http://www.w3.org/2000/svg" xmlns:inkscape="http://www.inkscape.org/namespaces/inkscape">
<path d="M185,135 L184.5,124.5 L194,124 L203.5,123.5 L203,113 L202.5,102.5 L212,102 L211.5,91.5 L211,81 L220.5,80.5 L220,70 L219.5,59.5 L229,59 L238.5,58.5 L238,48 L227.5,47.5 L217,47 L216.5,56.5 L226,56 L225.5,45.5 L235,45 L244.5,44.5 L254,44 L253.5,53.5 L253,63 L262.5,62.5 L262,72 L251.5,71.5 L251,61 L250.5,50.5 L240,50 L239.5,59.5 L239,69 L228.5,68.5 L218,68 L217.5,77.5 L207,77 L206.5,66.5 L206,56 L205.5,45.5 L215,45 L214.5,54.5 L214,64 L223.5,63.5 L223,73 L222.5,82.5 L232,82 L231.5,91.5 L231,101 L240.5,100.5 L240,90 L239.5,79.5 L239,69 L228.5,68.5 L228,78 L217.5,77.5 L207,77 L206.5,86.5 L206,96 L195.5,95.5 L195,85 L194.5,74.5 L204,74 L203.5,83.5 L203,93 L212.5,92.5 L222,92 L221.5,101.5 L231,101 L230.5,90.5 L220,90 L219.5,79.5 L229,79 L238.5,78.5 L248,78 L257.5,77.5 L257,87 L256.5,96.5 L256,106 L255.5,115.5 L255,125 L244.5,124.5 L234,124 L233.5,133.5 L223,133 L212.5,132.5 L212,142 L201.5,141.5 L201,131 L200.5,120.5 L200,110 L189.5,109.5 L189,119 L188.5,128.5 L178,128 L167.5,127.5 L157,127 L156.5,116.5 L156,106 L145.5,105.5" fill="none" stroke="black" stroke-width="0.2"/>
<path d="M186,136 L185.5,125.5 L195,125 L204.5,124.5 L204,114 L203.5,103.5 L213,103 L212.5,92.5 L212,82 L221.5,81.5 L221,71 L220.5,60.5 L230,60 L239.5,59.5 L239,49 L228.5,48.5 L218,48 L217.5,57.5 L227,57 L226.5,46.5 L236,46 L245.5,45.5 L255,45 L254.5,54.5 L254,64 L263.5,63.5 L263,73 L252.5,72.5 L252,62 L251.5,51.5 L241,51 L240.5,60.5 L240,70 L229.5,69.5 L219,69 L208.5,68.5 L208,58 L217.5,57.5 L227,57 L236.5,56.5 L236,66 L225.5,65.5 L225,75 L234.5,74.5 L234,84 L233.5,93.5 L243,93 L242.5,102.5 L242,112 L251.5,111.5 L251,101 L250.5,90.5 L250,80 L239.5,79.5 L239,89 L228.5,88.5 L218,88 L217.5,97.5 L217,107 L206.5,106.5 L206,96 L205.5,85.5 L215,85 L214.5,94.5 L214,104 L223.5,103.5 L233,103 L232.5,112.5 L242,112 L241.5,101.5 L231,101 L230.5,90.5 L240,90 L239.5,99.5 L239,109 L238.5,118.5 L238,128 L237.5,137.5 L247,137 L246.5,126.5 L236,126 L235.5,115.5 L235,105 L224.5,104.5 L224,94 L223.5,83.5 L213,83 L202.5,82.5 L202,72 L211.5,71.5 L221,71 L220.5,60.5 L210,60 L199.5,59.5 L199,49 L198.5,38.5 L188,38 L187.5,27.5 L187,17 L176.5,16.5" fill="none" stroke="black" stroke-width="0.2"/>
<path d="M187,137 L186.5,126.5 L196,126 L205.5,125.5 L205,115 L204.5,104.5 L214,104 L213.5,93.5 L213,83 L222.5,82.5 L222,72 L221.5,61.5 L231,61 L240.5,60.5 L240,50 L229.5,49.5 L219,49 L218.5,58.5 L228,58 L227.5,47.5 L237,47 L246.5,46.5 L256,46 L255.5,55.5 L255,65 L264.5,64.5 L264,74 L253.5,73.5 L253,63 L252.5,52.5 L242,52 L241.5,61.5 L241,71 L230.5,70.5 L220,70 L209.5,69.5 L209,59 L218.5,58.5 L228,58 L237.5,57.5 L237,67 L226.5,66.5 L226,76 L235.5,75.5 L235,85 L234.5,94.5 L244,94 L243.5,103.5 L243,113 L252.5,112.5 L252,102 L251.5,91.5 L251,81 L240.5,80.5 L240,90 L239.5,99.5 L239,109 L248.5,108.5 L258,108 L257.5,117.5 L247,117 L236.5,116.5 L236,106 L245.5,105.5 L255,105 L254.5,94.5 L254,84 L263.5,83.5 L263,73 L252.5,72.5 L252,82 L241.5,81.5 L241,71 L250.5,70.5 L260,70 L259.5,79.5 L259,89 L258.5,98.5 L258,108 L257.5,117.5 L257,127 L246.5,126.5 L236,126 L235.5,135.5 L225,135 L214.5,134.5 L214,144 L213.5,153.5 L203,153 L202.5,142.5 L202,132 L191.5,131.5 L191,141 L190.5,150.5 L180,150 L179.5,159.5 L189,159 L188.5,168.5 L178,168 L167.5,167.5" fill="none" stroke="black" stroke-width="0.2"/>
<path d="M188,138 L187.5,127.5 L197,127 L206.5,126.5 L206,116 L205.5,105.5 L215,105 L214.5,94.5 L214,84 L223.5,83.5 L223,73 L222.5,62.5 L232,62 L241.5,61.5 L241,51 L230.5,50.5 L220,50 L219.5,59.5 L229,59 L228.5,48.5 L238,48 L247.5,47.5 L257,47 L256.5,56.5 L256,66 L265.5,65.5 L265,75 L254.5,74.5 L254,64 L253.5,53.5 L243,53 L242.5,62.5 L242,72 L231.5,71.5 L221,71 L210.5,70.5 L210,60 L219.5,59.5 L229,59 L238.5,58.5 L238,68 L227.5,67.5 L227,77 L236.5,76.5 L236,86 L235.5,95.5 L245,95 L244.5,104.5 L244,114 L253.5,113.5 L253,103 L252.5,92.5 L252,82 L241.5,81.5 L241,91 L240.5,100.5 L240,110 L249.5,109.5 L259,109 L258.5,118.5 L248,118 L237.5,117.5 L237,107 L246.5,106.5 L256,106 L255.5,95.5 L255,85 L264.5,84.5 L264,74 L253.5,73.5 L253,83 L242.5,82.5 L242,72 L251.5,71.5 L261,71 L260.5,80.5 L260,90 L259.5,99.5 L259,109 L258.5,118.5 L258,128 L247.5,127.5 L237,127 L226.5,126.5 L226,116 L225.5,105.5 L215,105 L204.5,104.5 L204,94 L213.5,93.5 L223,93 L222.5,82.5 L212,82 L201.5,81.5 L201,71 L190.5,70.5 L190,80 L179.5,79.5 L169,79 L168.5,88.5" fill="none" stroke="black" stroke-width="0.2"/>
<path d="M189,139 L188.5,128.5 L198,128 L207.5,127.5 L207,117 L206.5,106.5 L216,106 L215.5,95.5 L215,85 L224.5,84.5 L224,74 L223.5,63.5 L233,63 L242.5,62.5 L242,52 L231.5,51.5 L221,51 L220.5,60.5 L230,60 L229.5,49.5 L239,49 L248.5,48.5 L258,48 L257.5,57.5 L257,67 L256.5,76.5 L246,76 L245.5,65.5 L255,65 L264.5,64.5 L264,54 L253.5,53.5 L243,53 L242.5,42.5 L252,42 L261.5,41.5 L261,51 L250.5,50.5 L240,50 L229.5,49.5 L229,39 L238.5,38.5 L248,38 L257.5,37.5 L257,47 L256.5,56.5 L266,56 L265.5,65.5 L265,75 L274.5,74.5 L274,64 L273.5,53.5 L273,43 L262.5,42.5 L262,52 L261.5,61.5 L261,71 L270.5,70.5 L270,80 L259.5,79.5 L259,69 L258.5,58.5 L268,58 L267.5,67.5 L267,77 L266.5,86.5 L266,96 L255.5,95.5 L255,105 L264.5,104.5 L264,94 L263.5,103.5 L253,103 L252.5,92.5 L252,82 L251.5,71.5 L251,61 L250.5,50.5 L240,50 L239.5,59.5 L249,59 L248.5,68.5 L248,78 L247.5,87.5 L237,87 L226.5,86.5 L226,96 L225.5,105.5 L215,105 L214.5,94.5 L214,84 L203.5,83.5 L203,93 L202.5,102.5 L192,102 L191.5,111.5 L201,111 L210.5,110.5 L220,110 L219.5,99.5" fill="none" stroke="black" stroke-width="0.2"/>
<path d="M190,140 L189.5,129.5 L199,129 L208.5,128.5 L208,118 L207.5,107.5 L217,107 L216.5,96.5 L216,86 L225.5,85.5 L225,75 L224.5,64.5 L234,64 L243.5,63.5 L243,53 L232.5,52.5 L222,52 L221.5,61.5 L231,61 L240.5,60.5 L240,70 L239.5,79.5 L249,79 L248.5,88.5 L248,98 L247.5,107.5 L237,107 L236.5,96.5 L246,96 L255.5,95.5 L255,85 L244.5,84.5 L234,84 L233.5,73.5 L233,63 L232.5,52.5 L242,52 L241.5,61.5 L241,71 L240.5,80.5 L230,80 L229.5,69.5 L219,69 L218.5,78.5 L208,78 L197.5,77.5 L197,87 L186.5,86.5 L176,86 L175.5,95.5 L185,95 L194.5,94.5 L204,94 L203.5,83.5 L193,83 L182.5,82.5 L172,82 L171.5,91.5 L171,101 L160.5,100.5 L160,90 L169.5,89.5 L169,99 L158.5,98.5 L148,98 L147.5,107.5 L147,117 L136.5,116.5 L136,126 L145.5,125.5 L145,115 L154.5,114.5 L154,124 L143.5,123.5 L133,123 L122.5,122.5 L112,122 L111.5,131.5 L121,131 L120.5,120.5 L110,120 L99.5,119.5 L89,119 L78.5,118.5 L78,108 L77.5,97.5 L67,97 L56.5,96.5 L56,86 L65.5,85.5 L75,85 L84.5,84.5 L84,74 L83.5,63.5 L93,63 L92.5,52.5 L82,52 L71.5,51.5 L61,51 L60.5,60.5" fill="none" stroke="black" stroke-width="0.2"/>
<path d="M191,141 L190.5,130.5 L200,130 L209.5,129.5 L209,119 L208.5,108.5 L218,108 L217.5,97.5 L217,87 L226.5,86.5 L226,76 L225.5,65.5 L235,65 L244.5,64.5 L244,54 L233.5,53.5 L233,63 L242.5,62.5 L242,52 L251.5,51.5 L251,61 L250.5,70.5 L260,70 L259.5,79.5 L259,89 L258.5,98.5 L248,98 L247.5,87.5 L257,87 L266.5,86.5 L266,76 L255.5,75.5 L245,75 L244.5,64.5 L244,54 L243.5,43.5 L253,43 L252.5,52.5 L252,62 L251.5,71.5 L241,71 L240.5,60.5 L230,60 L229.5,69.5 L219,69 L208.5,68.5 L208,78 L197.5,77.5 L187,77 L186.5,86.5 L196,86 L195.5,95.5 L195,105 L204.5,104.5 L204,94 L203.5,83.5 L203,73 L192.5,72.5 L182,72 L181.5,61.5 L191,61 L190.5,70.5 L180,70 L179.5,59.5 L179,49 L168.5,48.5 L158,48 L157.5,37.5 L147,37 L146.5,46.5 L156,46 L155.5,55.5 L145,55 L144.5,44.5 L154,44 L163.5,43.5 L173,43 L172.5,32.5 L162,32 L161.5,41.5 L171,41 L180.5,40.5 L190,40 L199.5,39.5 L199,49 L198.5,58.5 L208,58 L217.5,57.5 L217,67 L206.5,66.5 L196,66 L185.5,65.5 L185,75 L184.5,84.5 L174,84 L173.5,93.5 L183,93 L192.5,92.5 L202,92 L201.5,81.5" fill="none" stroke="black" stroke-width="0.2"/>
<path d="M192,142 L191.5,131.5 L201,131 L210.5,130.5 L210,120 L209.5,109.5 L219,109 L218.5,98.5 L218,88 L227.5,87.5 L227,77 L226.5,66.5 L236,66 L245.5,65.5 L245,55 L234.5,54.5 L234,64 L243.5,63.5 L243,53 L252.5,52.5 L252,62 L251.5,71.5 L261,71 L260.5,80.5 L260,90 L259.5,99.5 L249,99 L248.5,88.5 L258,88 L267.5,87.5 L267,77 L256.5,76.5 L246,76 L245.5,65.5 L245,55 L244.5,44.5 L254,44 L253.5,53.5 L253,63 L252.5,72.5 L242,72 L241.5,61.5 L231,61 L230.5,70.5 L220,70 L209.5,69.5 L209,79 L198.5,78.5 L188,78 L187.5,87.5 L197,87 L196.5,96.5 L196,106 L205.5,105.5 L205,95 L204.5,84.5 L204,74 L193.5,73.5 L183,73 L182.5,62.5 L192,62 L191.5,71.5 L181,71 L180.5,60.5 L180,50 L169.5,49.5 L159,49 L148.5,48.5 L148,58 L157.5,57.5 L157,47 L166.5,46.5 L166,56 L155.5,55.5 L155,45 L154.5,34.5 L144,34 L143.5,43.5 L153,43 L152.5,32.5 L142,32 L131.5,31.5 L121,31 L110.5,30.5 L110,20 L119.5,19.5 L129,19 L138.5,18.5 L138,28 L127.5,27.5 L127,17 L136.5,16.5 L146,16 L155.5,15.5 L155,25 L164.5,24.5 L164,14 L173.5,13.5 L183,13 L192.5,12.5" fill="none" stroke="black" stroke-width="0.2"/>
<path d="M193,143 L192.5,132.5 L202,132 L211.5,131.5 L211,121 L210.5,110.5 L210,100 L199.5,99.5 L189,99 L188.5,88.5 L178,88 L167.5,87.5 L167,77 L166.5,66.5 L156,66 L155.5,75.5 L165,75 L164.5,64.5 L154,64 L143.5,63.5 L143,53 L152.5,52.5 L162,52 L161.5,61.5 L151,61 L140.5,60.5 L140,50 L149.5,49.5 L149,59 L138.5,58.5 L138,68 L147.5,67.5 L157,67 L156.5,76.5 L156,86 L155.5,95.5 L145,95 L144.5,84.5 L144,74 L133.5,73.5 L133,63 L132.5,52.5 L122,52 L121.5,61.5 L111,61 L100.5,60.5 L100,70 L89.5,69.5 L79,69 L78.5,78.5 L88,78 L87.5,87.5 L77,87 L76.5,96.5 L86,96 L95.5,95.5 L105,95 L104.5,84.5 L104,74 L113.5,73.5 L113,83 L102.5,82.5 L102,72 L111.5,71.5 L121,71 L120.5,60.5 L120,50 L119.5,39.5 L109,39 L108.5,48.5 L118,48 L117.5,57.5 L107,57 L106.5,46.5 L116,46 L125.5,45.5 L125,35 L114.5,34.5 L114,44 L123.5,43.5 L123,33 L122.5,22.5 L132,22 L141.5,21.5 L141,31 L140.5,40.5 L150,40 L159.5,39.5 L159,49 L148.5,48.5 L148,38 L147.5,27.5 L137,27 L126.5,26.5 L126,16 L115.5,15.5 L115,25 L114.5,34.5 L124,34 L123.5,23.5" fill="none" stroke="black" stroke-width="0.2"/>
<path d="M194,144 L193.5,133.5 L193,123 L192.5,112.5 L182,112 L171.5,111.5 L161,111 L160.5,120.5 L160,130 L149.5,129.5 L149,139 L148.5,148.5 L138,148 L127.5,147.5 L127,157 L136.5,156.5 L136,146 L125.5,145.5 L125,155 L124.5,164.5 L114,164 L103.5,163.5 L103,173 L92.5,172.5 L92,162 L91.5,151.5 L101,151 L100.5,160.5 L90,160 L89.5,149.5 L79,149 L78.5,158.5 L68,158 L67.5,147.5 L67,137 L66.5,126.5 L76,126 L75.5,135.5 L85,135 L84.5,124.5 L84,114 L83.5,103.5 L73,103 L72.5,112.5 L62,112 L51.5,111.5 L51,121 L40.5,120.5 L40,110 L39.5,99.5 L39,89 L48.5,88.5 L48,98 L57.5,97.5 L57,87 L56.5,76.5 L56,66 L45.5,65.5 L35,65 L34.5,54.5 L44,54 L43.5,63.5 L33,63 L32.5,52.5 L32,42 L31.5,31.5 L41,31 L50.5,30.5 L60,30 L69.5,29.5 L79,29 L78.5,38.5 L68,38 L67.5,27.5 L77,27 L86.5,26.5 L96,26 L105.5,25.5 L115,25 L124.5,24.5 L134,24 L143.5,23.5 L153,23 L162.5,22.5 L162,32 L161.5,41.5 L171,41 L180.5,40.5 L180,50 L169.5,49.5 L169,39 L168.5,28.5 L158,28 L157.5,17.5 L167,17 L176.5,16.5 L186,16 L195.5,15.5 L205,15 L214.5,14.5" fill="none" stroke="black" stroke-width="0.2"/>
<path d="M195,145 L194.5,134.5 L194,124 L193.5,113.5 L183,113 L172.5,112.5 L162,112 L161.5,121.5 L161,131 L150.5,130.5 L150,140 L149.5,149.5 L139,149 L128.5,148.5 L128,158 L137.5,157.5 L137,147 L126.5,146.5 L126,156 L125.5,165.5 L115,165 L104.5,164.5 L94,164 L93.5,153.5 L103,153 L112.5,152.5 L112,162 L101.5,161.5 L101,151 L110.5,150.5 L110,140 L99.5,139.5 L99,129 L108.5,128.5 L118,128 L127.5,127.5 L127,137 L116.5,136.5 L116,146 L125.5,145.5 L135,145 L144.5,144.5 L144,134 L133.5,133.5 L133,123 L132.5,112.5 L122,112 L121.5,101.5 L121,91 L110.5,90.5 L100,90 L99.5,79.5 L109,79 L108.5,68.5 L98,68 L87.5,67.5 L77,67 L76.5,76.5 L76,86 L65.5,85.5 L65,75 L74.5,74.5 L74,84 L63.5,83.5 L53,83 L52.5,92.5 L52,102 L51.5,111.5 L61,111 L60.5,100.5 L60,90 L69.5,89.5 L69,99 L58.5,98.5 L58,88 L57.5,77.5 L47,77 L46.5,86.5 L56,86 L55.5,75.5 L45,75 L34.5,74.5 L24,74 L23.5,63.5 L33,63 L42.5,62.5 L42,52 L31.5,51.5 L31,41 L40.5,40.5 L40,50 L39.5,59.5 L49,59 L48.5,68.5 L38,68 L37.5,77.5 L47,77 L56.5,76.5 L56,66 L45.5,65.5" fill="none" stroke="black" stroke-width="0.2"/>
<path d="M196,146 L195.5,135.5 L195,125 L194.5,114.5 L184,114 L173.5,113.5 L163,113 L162.5,122.5 L162,132 L151.5,131.5 L151,141 L150.5,150.5 L140,150 L129.5,149.5 L129,159 L138.5,158.5 L138,148 L127.5,147.5 L127,157 L126.5,166.5 L116,166 L105.5,165.5 L95,165 L94.5,154.5 L104,154 L113.5,153.5 L113,163 L102.5,162.5 L102,152 L111.5,151.5 L111,141 L100.5,140.5 L100,130 L109.5,129.5 L119,129 L128.5,128.5 L128,138 L117.5,137.5 L117,147 L126.5,146.5 L136,146 L145.5,145.5 L145,135 L134.5,134.5 L134,124 L133.5,113.5 L123,113 L122.5,102.5 L122,92 L111.5,91.5 L101,91 L100.5,80.5 L110,80 L109.5,69.5 L99,69 L88.5,68.5 L78,68 L77.5,77.5 L77,87 L66.5,86.5 L66,76 L75.5,75.5 L75,85 L64.5,84.5 L54,84 L53.5,93.5 L53,103 L52.5,112.5 L62,112 L61.5,101.5 L61,91 L70.5,90.5 L70,100 L59.5,99.5 L59,89 L58.5,78.5 L48,78 L47.5,87.5 L57,87 L56.5,76.5 L46,76 L35.5,75.5 L25,75 L24.5,64.5 L34,64 L43.5,63.5 L43,53 L32.5,52.5 L32,42 L41.5,41.5 L41,51 L40.5,60.5 L50,60 L49.5,69.5 L39,69 L38.5,78.5 L48,78 L57.5,77.5 L57,67 L46.5,66.5" fill="none" stroke="black" stroke-width="0.2"/>
<path d="M197,147 L196.5,136.5 L196,126 L195.5,115.5 L185,115 L174.5,114.5 L164,114 L163.5,123.5 L163,133 L152.5,132.5 L152,142 L151.5,151.5 L141,151 L130.5,150.5 L130,160 L139.5,159.5 L139,149 L128.5,148.5 L128,158 L127.5,167.5 L117,167 L106.5,166.5 L96,166 L95.5,155.5 L105,155 L114.5,154.5 L114,164 L103.5,163.5 L103,153 L112.5,152.5 L112,142 L101.5,141.5 L101,131 L110.5,130.5 L120,130 L129.5,129.5 L129,139 L118.5,138.5 L118,148 L127.5,147.5 L137,147 L146.5,146.5 L146,136 L135.5,135.5 L135,125 L134.5,114.5 L124,114 L123.5,103.5 L123,93 L112.5,92.5 L102,92 L101.5,81.5 L111,81 L110.5,70.5 L100,70 L89.5,69.5 L79,69 L78.5,78.5 L78,88 L67.5,87.5 L67,77 L76.5,76.5 L76,86 L65.5,85.5 L55,85 L54.5,94.5 L54,104 L53.5,113.5 L63,113 L62.5,102.5 L62,92 L71.5,91.5 L71,101 L60.5,100.5 L60,90 L69.5,89.5 L69,79 L58.5,78.5 L58,88 L67.5,87.5 L67,77 L66.5,66.5 L66,56 L75.5,55.5 L75,65 L74.5,74.5 L84,74 L83.5,63.5 L93,63 L92.5,72.5 L82,72 L71.5,71.5 L71,81 L60.5,80.5 L60,70 L49.5,69.5 L49,79 L48.5,88.5 L58,88 L57.5,77.5" fill="none" stroke="black" stroke-width="0.2"/>
<path d="M198,148 L197.5,137.5 L197,127 L196.5,116.5 L186,116 L175.5,115.5 L165,115 L164.5,124.5 L164,134 L163.5,143.5 L173,143 L182.5,142.5 L182,152 L181.5,161.5 L191,161 L190.5,150.5 L180,150 L179.5,159.5 L189,159 L198.5,158.5 L198,168 L197.5,177.5 L197,187 L186.5,186.5 L186,176 L185.5,165.5 L195,165 L194.5,174.5 L184,174 L183.5,163.5 L173,163 L172.5,172.5 L162,172 L161.5,161.5 L171,161 L180.5,160.5 L180,170 L169.5,169.5 L169,179 L178.5,178.5 L188,178 L197.5,177.5 L197,167 L186.5,166.5 L186,156 L185.5,145.5 L175,145 L174.5,134.5 L174,124 L163.5,123.5 L153,123 L152.5,112.5 L162,112 L161.5,101.5 L151,101 L140.5,100.5 L130,100 L129.5,109.5 L129,119 L118.5,118.5 L118,108 L127.5,107.5 L127,117 L116.5,116.5 L106,116 L105.5,125.5 L105,135 L104.5,144.5 L114,144 L113.5,133.5 L113,123 L122.5,122.5 L122,132 L111.5,131.5 L111,121 L120.5,120.5 L120,110 L109.5,109.5 L109,119 L118.5,118.5 L118,108 L117.5,97.5 L117,87 L126.5,86.5 L126,96 L125.5,105.5 L135,105 L134.5,94.5 L144,94 L143.5,103.5 L133,103 L122.5,102.5 L122,112 L111.5,111.5 L111,101 L100.5,100.5 L100,110 L99.5,119.5 L109,119 L108.5,108.5" fill="none" stroke="black" stroke-width="0.2"/>
</svg>