<?xml version="1.0" encoding="UTF-8" standalone="no"?>
<!-- Created with Inkscape (http://www.inkscape.org/) -->

<svg
   width="250mm"
   height="250mm"
   viewBox="0 0 250 250"
   version="1.1"
   id="svg5"
   inkscape:version="1.1.2 (b8e25be8, 2022-02-05)"
   sodipodi:docname="logo.svg"
   xmlns:inkscape="http://www.inkscape.org/namespaces/inkscape"
   xmlns:sodipodi="http://sodipodi.sourceforge.net/DTD/sodipodi-0.dtd"
   xmlns="http://www.w3.org/2000/svg"
   xmlns:svg="http://www.w3.org/2000/svg">
  <sodipodi:namedview
     id="namedview7"
     pagecolor="#ffffff"
     bordercolor="#666666"
     borderopacity="1.0"
     inkscape:pageshadow="2"
     inkscape:pageopacity="0.0"
     inkscape:pagecheckerboard="0"
     inkscape:document-units="mm"
     showgrid="false"
     inkscape:zoom="0.32672906"
     inkscape:cx="153.032"
     inkscape:cy="948.79838"
     inkscape:window-width="1371"
     inkscape:window-height="1384"
     inkscape:window-x="45"
     inkscape:window-y="750"
     inkscape:window-maximized="0"
     inkscape:current-layer="layer1"
     width="250mm" />
  <defs
     id="defs2" />
  <g
     inkscape:label="Layer 1"
     inkscape:groupmode="layer"
     id="layer1">
    <path
       style="fill:#000000;stroke-width:0.166406"
       d="M 120.92787,88.579305 C 98.023246,87.913688 77.423448,84.90682 66.512949,80.636568 61.134417,77.739918 56.679482,73.465026 62.0992,68.354238 c 2.542993,-2.377897 4.672715,-3.388285 12.068434,-5.30175 2.27471,-0.588489 8.357247,-1.931821 8.747346,-1.931821 0.0397,0 0.07233,0.272015 0.07233,0.604369 0,3.178259 7.823398,6.338672 20.31084,8.204887 13.891,2.076007 32.56899,2.402739 47.74937,0.835269 16.25318,-1.678281 26.55607,-5.081464 27.07401,-8.942985 0.1061,-0.79254 -0.32901,-0.791637 3.54482,-0.0078 11.76318,2.38167 13.6526,3.671503 15.41302,7.204247 3.67258,7.3699 -10.39796,16.464608 -43.36931,18.891481 -8.54422,0.6289 -23.59003,0.935783 -32.78207,0.668643 z m 1.51224,-27.623381 C 100.76978,60.028594 85.316893,56.087 85.316893,51.486872 c 0,-0.283023 1.495339,-6.486865 3.323033,-13.786594 1.827653,-7.299728 3.438049,-13.749683 3.578617,-14.333218 0.976702,-4.053858 4.683567,-10.924729 10.115637,-12.028241 15.20834,-3.0895393 35.85087,-5.1526519 51.16645,-3.3106103 5.6569,1.077724 11.19537,5.5726643 14.3011,11.6064983 0.80354,1.56118 1.27626,3.058406 2.11764,6.70711 0.32704,1.418648 1.42162,6.023928 2.43221,10.233999 3.42846,14.282707 3.52733,14.72776 3.41014,15.352255 -0.0711,0.379721 -0.4031,0.894624 -0.94848,1.471282 -3.33953,3.531093 -16.04373,6.397989 -32.75178,7.390885 -3.97213,0.236245 -15.66959,0.33491 -19.62135,0.165883 z"
       id="path836"
       sodipodi:nodetypes="cccsssssccssccssscscssssscss" />
    <g
       id="g1033"
       transform="matrix(0.87944518,0,0,0.87944518,34.105697,-6.126675)">
      <path
         style="fill:none;stroke:#000000;stroke-width:4;stroke-linecap:butt;stroke-linejoin:miter;stroke-miterlimit:4;stroke-dasharray:none;stroke-opacity:1"
         d="m 63.045888,119.9916 c 4.970188,-4.65556 31.897252,-3.44596 35.795875,2.21957 3.679017,5.34644 1.173327,15.91742 -3.89623,20.98697 -4.439207,4.43922 -22.130213,6.32294 -29.397245,-0.25119 -5.708038,-5.16381 -6.032896,-19.64853 -2.5024,-22.95553 z"
         id="path1912"
         sodipodi:nodetypes="sssass" />
      <path
         style="fill:none;stroke:#000000;stroke-width:4;stroke-linecap:butt;stroke-linejoin:miter;stroke-miterlimit:4;stroke-dasharray:none;stroke-opacity:1"
         d="m 153.56767,119.9916 c -4.97019,-4.65556 -31.89726,-3.44596 -35.79587,2.21957 -3.67902,5.34644 -1.17332,15.91742 3.89623,20.98697 4.43921,4.43922 22.1302,6.32294 29.39725,-0.25119 5.70802,-5.16381 6.03289,-19.64853 2.50239,-22.95553 z"
         id="path3575"
         sodipodi:nodetypes="sssass" />
      <path
         style="fill:none;stroke:#000000;stroke-width:4;stroke-linecap:butt;stroke-linejoin:miter;stroke-miterlimit:4;stroke-dasharray:none;stroke-opacity:1"
         d="m 99.444323,122.31849 c 0,0 3.246257,-2.21336 9.001027,-2.21336 5.75475,0 8.70591,2.50849 8.70591,2.50849"
         id="path3918" />
    </g>
    <path
       style="fill:#000000;stroke-width:0.166406"
       d="m 130.76886,208.34808 c 0,-31.50842 0.0275,-27.1319 0.25393,-27.1319 0.56635,0 2.12338,-0.67764 3.04933,-1.32717 2.31587,-1.62451 3.47257,-4.06392 3.31285,-6.98689 -0.23625,-4.32444 -3.64265,-7.49457 -8.05319,-7.49457 -4.42917,0 -7.88584,3.44702 -7.87952,7.85749 0.004,2.40544 0.70779,4.16084 2.32697,5.79955 0.80339,0.81301 2.22184,1.67438 3.37045,2.04675 0.27634,0.0896 0.29127,-6.23337 0.29127,27.14373 v 35.2002 h -2.22439 -2.22439 l -0.54028,-1.43154 c -0.29717,-0.78736 -1.87113,-5.4488 -3.49773,-10.35881 -5.135,-15.50051 -7.6149,-21.85852 -11.7574,-30.14408 -7.17009,-14.3412 -15.454454,-23.73016 -24.893246,-28.21267 l -1.266956,-0.60168 0.300318,-0.6942 c 0.758263,-1.75379 17.840961,-40.11946 17.975476,-40.37081 0.140331,-0.26218 0.297566,-0.2673 2.034378,-0.0677 9.19719,1.05894 19.37325,10.44751 27.94483,9.86436 13.59531,-0.92489 16.84853,-8.82729 29.02771,-9.92239 l 1.17463,-0.0956 2.51803,5.4714 c 2.62818,5.71071 6.48427,14.11215 8.69789,18.95037 0.71185,1.55592 1.94618,4.25171 2.74292,5.99063 3.59773,7.85206 4.09058,8.98132 3.94168,9.03096 -14.16856,8.95685 -23.03731,24.92916 -28.85748,37.89568 -2.90648,6.53964 -5.70242,13.84495 -9.68058,25.29379 -1.3357,3.84398 -2.63724,7.55067 -2.89236,8.23711 l -0.46384,1.24805 -2.36547,0.046 -2.36544,0.046 z"
       id="path5339"
       sodipodi:nodetypes="csssssssscccssssccscsccsssccsscccc" />
  </g>
</svg>
