<svg height="297mm" style="background: white" viewBox="0 0 420 297" width="420mm" xmlns="http://www.w3.org/2000/svg" xmlns:inkscape="http://www.inkscape.org/namespaces/inkscape">
<path d="M316.86868,172.05 L319.34344,173.1 L341.61615,197.6 L362.899,227.35 L361.41415,254.65 L359.9293,255.35 L321.32324,263.05 L308.45456,265.5 L304,266.2 L303.50504,266.2 L288.65656,265.5 L285.68686,263.4 L280.73737,259.55 L278.26263,256.4 L263.41415,227.35 L264.40405,225.25 L314.8889,175.2 L321.32324,175.9 L340.13132,196.9 L342.60605,200.4 L361.9091,229.1 L361.9091,234.35 L359.9293,243.1 L357.45456,250.1 L355.9697,250.8 L321.81818,262.35 L314.39395,264.1 L289.64645,265.5 L278.26263,256.05 L269.84848,237.15 L265.39395,226.65 L321.32324,180.8 L323.79797,179.05 L333.69696,190.95 L361.41415,228.4 L357.9495,247.3 L316.86868,263.05 L306.47476,264.45 L292.61615,264.1 L283.70706,259.9 L280.24243,257.45 L273.31314,243.8 L270.34344,237.85 L268.36365,233.65 L265.8889,227 L266.38385,226.65 L329.24243,188.5 L333.69696,192 L343.101,203.9 L359.9293,229.8 L360.42426,231.55 L357.9495,243.8 L355.9697,248 L315.87878,263.05 L303.0101,264.1 L297.0707,264.1 L288.65656,261.3 L281.72726,257.1 L278.26263,252.55 L272.32324,241.7 L267.37375,229.45 L267.37375,226.65 L330.23233,191.65 L333.20203,192.35 L336.17172,195.5 L358.9394,228.75 L359.43436,231.2 L359.43436,232.25 L356.9596,245.55 L355.9697,247.3 L323.79797,259.9 L309.9394,263.4 L306.47476,263.75 L289.15152,260.95 L287.66666,260.6 L283.21213,257.45 L277.76767,251.5 L273.80807,243.8 L272.81818,241.7 L268.36365,227.35 L327.75757,193.05 L330.23233,193.4 L339.63635,200.75 L357.9495,227.35 L357.9495,233.3 L357.9495,236.8 L325.28284,258.15 L314.8889,261.3 L308.45456,263.05 L303.50504,262.7 L292.61615,261.3 L286.67676,259.55 L282.71716,255.35 L278.26263,250.45 L277.27274,249.05 L274.30304,244.15 L271.33334,231.55 L271.33334,227 L324.78787,197.95 L328.25253,196.55 L331.71716,197.25 L335.67676,198.65 L339.14142,201.8 L341.12122,204.95 L355.9697,228.75 L356.46466,236.8 L325.28284,257.45 L317.36365,259.2 L303.50504,261.65 L291.62625,259.9 L288.16162,259.2 L284.20203,256.75 L276.28284,246.95 L274.30304,242.05 L272.32324,228.75 L274.30304,227 L302.0202,210.9 L327.75757,200.05 L334.19193,199 L335.18182,199.35 L340.62625,206.7 L355.9697,229.1 L355.9697,236.8 L324.29294,255 L321.81818,256.4 L303.50504,261.3 L301.52524,261.3 L289.15152,259.2 L285.68686,257.1 L283.70706,255.7 L278.26263,249.05 L275.29294,243.45 L274.79797,236.45 L274.79797,233.3 L275.29294,229.1 L276.28284,227 L310.9293,207.4 L323.30304,202.85 L330.23233,200.4 L333.69696,200.4 L338.15152,203.9 L353.9899,229.1 L351.0202,239.25 L315.38385,257.8 L307.9596,259.9 L296.0808,259.2 L290.63635,258.15 L281.23233,252.2 L276.28284,240.3 L276.77777,229.45 L280.73737,226.65 L298.0606,215.1 L306.47476,210.2 L318.35355,206.35 L323.79797,204.6 L331.71716,202.15 L337.16162,205.65 L352.0101,233.3 L348.0505,238.55 L321.32324,254.3 L317.85858,256.05 L308.45456,259.55 L304.9899,259.55 L285.19193,254.65 L282.71716,251.5 L278.75757,245.9 L277.27274,240.3 L276.77777,237.15 L276.77777,236.8 L277.76767,229.45 L278.75757,228.75 L294.59595,217.9 L302.0202,213 L327.26263,203.55 L331.71716,204.6 L338.64645,210.2 L346.0707,226.65 L348.54544,232.6 L346.56564,236.8 L315.87878,256.75 L304.9899,259.2 L287.17172,254.65 L282.22223,250.45 L279.74747,245.2 L277.76767,237.5 L277.76767,230.5 L280.24243,228.05 L296.0808,216.5 L297.0707,215.8 L303.0101,213.35 L321.32324,206.35 L329.73737,204.95 L337.16162,209.15 L345.0808,229.45 L344.58585,231.9 L343.59595,234.7 L339.14142,240.65 L329.73737,247.3 L326.27274,249.4 L317.85858,253.95 L309.9394,257.45 L307.46466,258.15 L291.62625,255.35 L286.67676,252.9 L283.21213,251.15 L279.74747,243.45 L278.75757,236.1 L278.75757,235.4 L282.22223,228.75 L303.0101,214.05 L321.32324,207.05 L327.75757,206.35 L336.66666,209.15 L343.101,230.15 L343.59595,234.35 L339.14142,239.95 L337.16162,241.7 L330.23233,246.25 L319.83838,252.55 L313.899,255.7 L308.45456,256.75 L296.57574,256.05 L293.1111,255.35 L290.63635,253.95 L285.68686,250.45 L281.72726,246.95 L279.25253,235.4 L282.71716,230.85 L295.58585,220 L299.54544,217.55 L312.41415,211.6 L317.85858,209.15 L324.29294,207.4 L328.25253,207.05 L336.66666,209.5 L343.101,230.85 L336.66666,240.65 L336.17172,241.35 L329.73737,245.9 L318.84848,251.5 L314.39395,253.6 L305.9798,256.05 L303.50504,256.4 L293.60605,254.3 L288.65656,252.2 L282.22223,245.55 L280.24243,238.9 L280.73737,234.7 L285.68686,229.45 L294.101,222.1 L299.0505,218.25 L314.8889,210.55 L317.85858,209.5 L324.78787,208.1 L333.69696,208.8 L335.67676,209.85 L341.12122,225.25 L340.62625,231.55 L337.16162,237.15 L333.69696,242.05 L333.20203,242.4 L326.76767,246.6 L321.81818,249.05 L308.45456,253.6 L302.51514,255 L294.59595,253.95 L290.63635,252.2 L287.17172,250.45 L281.23233,239.6 L283.21213,233.65 L286.18182,229.1 L295.0909,223.15 L316.37375,211.25 L324.78787,208.8 L333.69696,210.2 L336.17172,211.6 L340.62625,227.7 L339.14142,233.65 L334.19193,241 L332.70706,242.4 L324.78787,246.95 L314.39395,251.5 L303.50504,253.95 L296.57574,253.6 L289.15152,251.15 L281.72726,238.2 L282.71716,235.75 L289.15152,228.75 L296.57574,222.8 L303.50504,218.6 L320.33334,210.55 L324.29294,209.5 L327.75757,209.5 L334.68686,210.9 L335.67676,211.6 L340.13132,225.95 L336.66666,236.1 L334.68686,239.25 L328.74747,244.5 L310.43436,252.2 L301.0303,253.6 L288.65656,249.75 L282.22223,237.15 L293.60605,225.25 L302.51514,219.3 L322.80807,210.55 L331.22223,213.7 L339.14142,228.75 L337.65656,231.2 L330.23233,243.1 L323.79797,246.25 L313.40405,250.8 L299.54544,252.9 L295.0909,251.15 L288.16162,246.95 L286.18182,244.15 L282.71716,237.5 L287.66666,232.95 L292.12122,229.1 L303.50504,220.35 L318.35355,212.65 L320.33334,212.65 L325.77777,213.7 L327.26263,214.4 L327.75757,214.75 L338.15152,229.1 L328.25253,243.1 L312.9091,250.45 L309.44446,251.15 L299.0505,252.2 L294.101,249.05 L285.68686,243.1 L284.69696,236.8 L288.16162,233.65 L297.56564,225.95 L323.79797,213.7 L335.67676,227.7 L334.19193,234.35 L328.74747,240.65 L323.30304,244.5 L318.35355,246.95 L310.9293,250.45 L303.50504,251.15 L293.1111,247.3 L290.63635,244.5 L286.18182,238.55 L285.68686,237.15 L295.0909,228.05 L333.69696,227.7 L334.68686,231.2 L330.23233,238.2 L319.83838,245.9 L312.9091,248.35 L308.45456,249.4 L302.0202,250.45 L292.12122,244.5 L287.66666,239.6 L328.25253,230.15 L331.71716,229.45 L331.22223,231.2 L328.25253,237.15 L324.78787,242.05 L312.41415,248.35 L302.51514,248 L297.0707,247.3 L288.65656,239.6 L330.72726,229.8 L330.72726,231.55 L325.28284,240.3 L316.37375,244.85 L310.43436,246.25 L300.53534,247.65 L295.58585,244.85 L311.42426,236.45 L316.37375,234.35 L328.25253,230.5 L326.76767,235.75 L325.77777,238.9 L317.85858,243.8 L316.37375,244.5 L304,246.25 L301.0303,246.25 L299.54544,244.5 L312.41415,236.8 L317.36365,234.35 L318.84848,234 L324.29294,234.7 L326.27274,235.05 L318.84848,241.35 L315.87878,243.8 L300.0404,244.5 L312.41415,237.85 L314.8889,236.8 L319.83838,236.45 L316.37375,241.35 L312.41415,242.4 L310.9293,241 L314.8889,237.15 L317.36365,237.85 L314.8889,239.25 M189.17172,62.85 L190.16162,67.05 L192.63637,99.25 L193.13132,109.75 L189.66667,158.4 L138.19193,231.55 L136.21213,234 L132.74748,234 L87.21212,230.5 L83.252525,229.8 L82.26263,228.75 L81.76768,228.05 L81.27273,225.95 L81.27273,224.2 L158.9798,95.75 L178.77777,68.1 L187.68687,63.2 L190.16162,94.35 L187.19193,161.9 L139.67677,228.75 L137.69698,230.85 L135.22223,231.9 L131.26262,232.6 L93.64646,230.85 L83.747475,229.45 L82.757576,225.6 L82.26263,223.5 L169.37373,89.8 L186.20203,73 L187.19193,84.9 L188.18182,107.3 L186.69698,154.2 L183.23233,166.8 L137.69698,229.8 L127.30303,231.55 L96.121216,230.15 L88.69697,229.8 L83.747475,228.05 L83.252525,222.45 L173.33333,89.45 L182.73738,80 L184.22223,79.65 L185.70708,80.7 L184.71718,149.65 L184.22223,159.1 L180.26262,166.45 L137.69698,227.35 L136.21213,228.05 L130.27272,229.45 L126.31313,229.45 L93.15151,229.1 L86.22222,228.75 L84.242424,224.2 L92.16161,211.6 L175.80807,90.15 L184.22223,92.95 L185.21213,106.95 L183.72728,132.5 L180.75757,161.2 L178.28282,168.2 L136.70708,227 L99.58586,229.1 L88.20202,228.4 L85.23232,223.5 L94.63636,208.1 L168.38383,101.35 L177.29292,100.65 L181.25252,106.95 L183.72728,113.25 L181.25252,156.3 L180.26262,159.8 L177.29292,166.8 L135.71718,225.6 L133.73738,226.3 L128.78787,227.35 L97.111115,228.75 L95.62626,228.75 L91.666664,228.4 L88.20202,225.6 L85.72727,223.15 L97.111115,205.3 L117.89899,174.5 L118.888885,173.1 L159.47475,118.5 L169.86868,106.25 L177.29292,105.55 L181.74748,136 L181.74748,147.55 L179.76767,158.4 L173.33333,172.4 L135.71718,224.55 L128.78787,227 L92.16161,228.4 L88.20202,223.15 L88.20202,221.05 L97.606064,205.3 L119.878784,172.05 L168.87878,107.65 L176.79797,109.4 L180.75757,129.35 L181.74748,139.85 L181.25252,143 L179.27272,153.5 L175.80807,163.65 L137.20203,222.45 L136.70708,223.15 L128.78787,226.65 L97.606064,228.05 L93.15151,227.35 L90.676765,225.95 L89.19192,222.8 L89.19192,221.4 L91.171715,216.15 L96.616165,207.05 L119.383835,173.45 L168.38383,108.35 L173.33333,109.05 L175.80807,113.6 L180.26262,127.95 L180.26262,142.3 L179.76767,148.6 L176.79797,158.4 L170.85858,170.3 L136.21213,223.15 L126.80808,225.6 L101.56566,227.7 L98.59596,227.7 L92.65656,227 L91.171715,225.25 L91.666664,215.8 L93.64646,212.3 L98.10101,205.3 L166.89899,116.75 L174.32323,112.9 L179.76767,127.25 L180.26262,129 L180.26262,135.65 L179.76767,144.4 L178.28282,152.1 L171.35353,168.55 L168.38383,173.45 L167.39394,174.85 L134.72728,218.95 L130.27272,223.85 L126.80808,225.25 L124.333336,225.6 L101.07071,227.35 L95.62626,227.35 L94.63636,227 L91.666664,225.6 L91.666664,221.05 L91.666664,220.7 L92.16161,218.6 L94.14141,212.65 L97.606064,207.05 L166.40404,124.1 L171.35353,118.85 L175.31313,123.75 L178.77777,130.05 L179.76767,135.3 L178.77777,148.6 L175.31313,158.05 L172.34343,165.05 L167.39394,173.45 L162.93939,180.45 L131.26262,221.05 L128.78787,223.85 L123.83839,225.6 L101.56566,226.65 L93.64646,226.3 L91.666664,223.85 L92.65656,218.25 L94.14141,214.4 L98.10101,207.05 L170.85858,121.3 L174.32323,124.8 L177.29292,131.1 L178.28282,136 L178.28282,145.8 L165.41414,174.5 L162.44444,179.4 L159.9697,182.9 L133.24243,218.25 L128.29292,223.85 L100.08081,225.6 L94.14141,225.6 L92.16161,223.15 L93.15151,218.6 L95.62626,212.65 L98.59596,207.05 L168.87878,127.95 L175.31313,129 L176.30302,138.45 L175.80807,146.5 L168.87878,162.95 L161.45454,179.4 L132.74748,217.2 L127.79798,222.8 L106.51515,224.9 L100.08081,224.55 L94.63636,223.85 L93.15151,222.45 L93.64646,220 L95.13131,214.05 L97.606064,209.15 L101.07071,205.3 L161.45454,142.65 L172.83838,131.1 L174.81818,130.4 L174.32323,140.2 L173.82828,146.15 L173.33333,150.35 L169.86868,160.5 L167.39394,166.1 L158.9798,181.85 L133.73738,215.45 L127.79798,222.1 L126.31313,222.45 L104.535355,224.55 L101.07071,224.2 L98.59596,223.15 L97.111115,222.45 L95.13131,220.35 L95.13131,215.45 L96.616165,211.6 L98.10101,209.15 L163.43434,142.3 L170.36363,146.5 L172.83838,149.3 L171.84848,153.5 L167.39394,162.6 L157,183.6 L129.28282,219.65 L122.35354,221.75 L108.9899,223.85 L104.535355,224.2 L93.64646,221.05 L95.13131,215.8 L97.606064,210.55 L101.07071,206.35 L162.44444,143.7 L170.85858,153.85 L159.47475,178.35 L154.52525,186.4 L129.28282,218.6 L128.29292,219.65 L124.333336,220.7 L106.0202,223.85 L104.040405,223.85 L100.08081,222.8 L98.10101,220.7 L96.121216,217.9 L95.62626,215.45 L120.37374,187.1 L159.9697,148.25 L164.42424,147.2 L164.91919,148.6 L166.89899,154.55 L167.39394,159.1 L157.49495,179.05 L153.53535,186.05 L145.12122,198.3 L132.25252,214.75 L124.828285,220.35 L109.9798,222.45 L104.535355,223.15 L101.56566,222.8 L100.08081,222.1 L99.58586,221.75 L98.59596,220.35 L98.10101,218.6 L97.111115,214.4 L99.58586,211.25 L102.55556,207.75 L120.86869,187.45 L163.92929,152.1 L165.90909,153.15 L166.40404,154.2 L166.40404,156.3 L152.54546,185.7 L133.24243,213.35 L127.30303,217.9 L123.83839,220 L122.84849,220.35 L104.040405,222.45 L101.56566,222.1 L97.606064,215.1 L100.08081,211.25 L123.34344,187.45 L165.41414,158.05 L153.0404,183.25 L132.74748,213.35 L127.79798,217.2 L124.333336,218.6 L104.535355,222.1 L99.09091,217.55 L98.59596,216.5 L101.56566,210.55 L102.06061,209.85 L103.545456,208.1 L123.34344,189.55 L142.15152,195.5 L142.64647,197.95 L129.77777,214.75 L127.30303,217.2 L111.959595,220.35 L105.030304,221.4 L101.56566,218.6 L100.08081,216.15 L100.08081,215.8 L104.040405,208.1 L119.383835,194.1 L123.83839,190.25 L139.18182,195.15 L141.16162,199 L140.66667,200.4 L133.24243,210.2 L126.80808,217.2 L105.52525,221.05 L103.05051,219.65 L101.56566,216.5 L101.07071,214.4 L103.545456,209.5 L122.35354,193.05 L123.34344,192.7 L132.74748,194.1 L138.19193,195.15 L139.18182,198.65 L137.69698,202.5 L135.22223,207.4 L132.25252,211.25 L127.79798,215.8 L112.94949,218.6 L108.9899,219.3 L107.0101,219.65 L104.040405,219.65 L103.05051,219.3 L102.55556,217.9 L102.55556,217.55 L103.05051,211.95 L104.040405,209.85 L120.37374,194.8 L121.85859,193.75 L123.34344,193.05 L133.73738,194.45 L135.22223,195.85 L136.21213,196.9 L137.20203,199.35 L134.72728,206 L133.24243,209.85 L127.30303,214.75 L111.959595,218.6 L108.9899,218.95 L106.51515,218.6 L104.535355,218.25 L104.040405,216.5 L104.535355,210.55 L119.878784,196.2 L120.86869,195.5 L125.323235,195.85 L134.23233,197.6 L134.72728,199.7 L133.73738,207.05 L132.25252,209.85 L128.29292,213 L111.464645,216.85 L106.51515,217.2 L104.535355,216.85 L106.0202,210.2 L121.85859,195.85 L126.80808,196.2 L133.24243,197.6 L133.73738,200.75 L133.73738,206 L126.80808,213 L109.48485,216.85 L106.0202,215.45 L107.50505,210.9 L121.85859,197.25 L123.34344,196.55 L124.333336,196.2 L133.24243,198.3 L133.24243,198.65 L132.74748,202.85 L132.25252,206 L110.47475,216.15 L108.49495,215.8 L127.30303,198.3 L130.27272,197.95 L132.25252,199.35 L132.74748,200.75 L132.25252,204.6 L131.26262,204.6 L125.818184,203.55 L126.31313,200.75 L128.29292,199 L129.77777,198.3 L131.26262,201.45 L129.77777,203.9 L126.31313,202.85 M379.72726,32.4 L382.69696,33.45 L386.65656,36.25 L389.62625,41.15 L390.12122,43.6 L390.61615,66.7 L390.61615,67.4 L390.61615,67.75 L387.15152,71.6 L386.65656,71.95 L366.36365,80.35 L358.44446,83.5 L356.46466,83.85 L336.17172,75.45 L333.20203,74.05 L332.70706,73.7 L330.23233,71.6 L330.23233,68.1 L331.22223,67.05 L372.30304,36.95 L376.26263,34.5 L379.23233,33.8 L381.70706,33.45 L388.14142,40.45 L389.62625,42.9 L390.12122,67.4 L386.16162,71.25 L366.85858,80 L363.39395,81.4 L357.9495,83.15 L354.48486,82.8 L338.15152,76.15 L334.19193,74.4 L330.23233,70.2 L330.23233,69.5 L332.21213,66.7 L375.76767,34.85 L381.21213,33.8 L381.70706,33.8 L388.14142,41.5 L389.13132,43.25 L389.13132,65.3 L388.14142,69.15 L386.65656,70.2 L385.66666,70.9 L383.19193,72.3 L369.82828,78.6 L368.34344,79.3 L360.42426,82.1 L352.0101,81.4 L339.14142,76.5 L334.19193,74.05 L333.69696,73.7 L331.71716,70.55 L331.71716,70.2 L331.71716,67.75 L376.26263,34.85 L378.24243,34.5 L381.70706,34.5 L388.63635,43.6 L388.63635,44.3 L387.64645,68.8 L383.68686,71.95 L362.899,81.05 L359.9293,81.4 L353.9899,81.4 L349.0404,79.65 L339.63635,76.15 L336.66666,74.75 L335.67676,74.05 L332.21213,71.25 L333.69696,68.1 L334.68686,67.05 L372.30304,38.7 L373.78787,38 L381.70706,35.9 L382.69696,36.25 L386.65656,41.5 L388.14142,43.6 L388.14142,46.05 L388.14142,46.75 L387.64645,67.05 L386.16162,69.85 L382.69696,72.3 L376.26263,75.1 L371.31314,77.2 L361.9091,80.7 L360.42426,81.05 L353,81.05 L339.63635,75.8 L336.66666,74.4 L335.18182,73.35 L333.69696,70.2 L334.19193,69.15 L335.67676,67.4 L373.29294,39.05 L376.75757,37.65 L381.21213,36.6 L384.18182,38.35 L385.66666,42.2 L387.15152,64.95 L385.17172,70.2 L382.20203,72.3 L368.83838,77.9 L363.39395,80 L361.9091,80.35 L355.9697,80.7 L354.48486,80.7 L353.49496,80.7 L338.64645,75.1 L336.66666,73.7 L334.68686,71.95 L334.19193,71.25 L335.18182,69.5 L336.66666,67.75 L371.31314,40.8 L373.78787,39.05 L377.74747,37.65 L381.70706,36.95 L384.18182,40.45 L385.17172,43.25 L386.65656,66 L384.67676,69.15 L382.69696,70.9 L380.71716,71.95 L376.75757,74.05 L369.82828,77.2 L363.8889,79.65 L362.899,80 L359.43436,80 L357.45456,80 L351.0202,79.65 L340.13132,74.75 L338.15152,73.7 L335.67676,72.3 L334.68686,71.6 L335.18182,69.85 L336.66666,68.1 L374.28284,39.4 L377.25253,38 L381.70706,37.65 L385.17172,44.65 L386.16162,64.25 L386.16162,66.35 L383.68686,69.85 L375.76767,74.4 L364.38385,78.95 L362.40405,79.65 L354.48486,79.3 L346.56564,77.55 L342.60605,75.8 L341.12122,75.1 L335.18182,71.6 L336.17172,69.85 L376.26263,40.1 L379.23233,38 L380.22223,38.35 L383.68686,42.2 L385.17172,47.8 L385.66666,60.05 L385.17172,64.6 L384.67676,68.45 L378.24243,72.65 L371.80807,75.8 L363.39395,79.3 L361.9091,79.3 L359.9293,79.3 L353.9899,78.95 L350.0303,78.25 L344.58585,76.5 L342.1111,75.1 L336.17172,71.6 L378.73737,38.7 L381.21213,40.1 L383.68686,45.35 L385.17172,63.9 L384.67676,68.1 L378.73737,72.3 L364.87878,78.6 L358.9394,78.6 L358.44446,78.6 L353,78.25 L345.57574,76.5 L341.61615,74.75 L338.15152,72.65 L337.16162,70.9 L377.25253,40.1 L378.24243,40.1 L381.21213,42.9 L383.68686,46.4 L384.67676,66.7 L382.69696,69.15 L378.73737,71.95 L378.24243,72.3 L368.34344,76.85 L364.38385,78.25 L362.40405,78.6 L356.9596,77.9 L349.53534,76.85 L344.58585,75.45 L343.59595,75.1 L339.14142,73 L338.15152,72.3 L372.79797,43.6 L374.28284,42.55 L377.74747,40.45 L382.69696,45.7 L383.19193,49.2 L383.68686,60.05 L383.68686,66 L383.19193,68.1 L379.23233,71.6 L368.83838,76.5 L363.39395,78.25 L361.41415,78.25 L355.47476,77.55 L348.54544,76.5 L341.12122,73.7 L340.62625,73.35 L339.63635,72.3 L376.26263,41.85 L380.71716,44.3 L381.70706,45 L382.20203,48.5 L383.19193,66 L382.69696,67.4 L382.20203,68.1 L376.75757,72.65 L367.84848,76.5 L357.9495,77.55 L350.0303,76.5 L349.0404,76.15 L340.13132,72.65 L375.27274,42.9 L376.26263,42.2 L378.73737,43.6 L381.70706,46.4 L382.20203,50.25 L382.69696,64.25 L382.69696,64.6 L382.20203,68.8 L380.71716,70.2 L374.77777,73.35 L366.85858,76.15 L360.42426,76.5 L353,76.5 L348.0505,75.45 L340.62625,72.3 L376.26263,42.55 L379.72726,44.65 L382.20203,62.85 L382.20203,66.35 L381.70706,67.75 L378.73737,70.9 L374.77777,73 L370.32324,74.4 L364.87878,75.8 L352.0101,76.15 L348.0505,75.1 L347.0606,74.75 L343.59595,72.65 L344.0909,71.95 L376.26263,42.9 L377.74747,43.95 L378.73737,45.7 L382.20203,64.6 L380.22223,68.45 L379.23233,69.85 L377.25253,71.6 L372.30304,73.7 L363.8889,75.8 L360.42426,75.8 L351.0202,75.45 L347.0606,74.4 L344.58585,71.6 L374.28284,45.35 L376.75757,46.05 L377.74747,46.4 L378.24243,47.1 L381.70706,64.25 L380.71716,67.05 L378.24243,70.2 L374.28284,71.95 L368.83838,74.05 L360.9192,75.1 L352.0101,75.45 L346.0707,73 L353.9899,65.65 L379.23233,48.5 L381.21213,62.85 L381.21213,64.95 L378.73737,69.15 L376.26263,70.9 L367.84848,73.35 L358.44446,74.75 L357.9495,74.75 L350.52524,74.4 L347.55554,72.65 L355.47476,64.95 L360.9192,61.8 L381.21213,63.2 L379.23233,68.1 L378.73737,68.45 L371.31314,72.3 L367.84848,73 L360.42426,74.4 L357.9495,74.4 L351.51514,74.4 L350.0303,73.35 L349.0404,71.95 L353.49496,67.75 L354.9798,66.35 L357.45456,64.6 L359.9293,62.85 L362.899,62.85 L380.71716,63.2 L378.73737,67.75 L371.80807,71.6 L369.33334,72.3 L363.8889,73.7 L353,74.05 L352.50504,73.7 L350.0303,71.6 L352.50504,68.8 L356.9596,64.95 L357.9495,64.25 L360.9192,63.9 L378.73737,63.9 L379.72726,64.6 L378.73737,67.05 L375.76767,69.15 L370.32324,71.6 L364.87878,73.35 L360.9192,73.7 L353.49496,73.7 L351.51514,72.3 L351.51514,71.95 L355.47476,66.35 L356.46466,66 L361.9091,64.95 L364.38385,64.6 L378.73737,64.25 L377.25253,67.4 L376.26263,68.8 L367.35355,71.95 L360.42426,73.7 L357.9495,73.7 L354.48486,73 L352.50504,71.95 L353.49496,69.5 L356.46466,66.7 L366.85858,64.6 L374.28284,66 L375.27274,66.7 L372.79797,69.85 L365.86868,71.95 L363.39395,72.3 L357.45456,73 L356.9596,73 L355.47476,73 L354.48486,72.65 L354.48486,72.3 L354.48486,70.2 L354.9798,68.45 L358.44446,67.05 L364.87878,65.3 L368.34344,64.95 L372.30304,66.7 L373.29294,67.4 L373.29294,68.45 L368.83838,70.9 L364.38385,71.95 L356.9596,71.95 L355.47476,71.95 L355.47476,70.55 L355.9697,69.85 L358.44446,68.1 L361.9091,66.7 L366.36365,66.35 L368.34344,66.35 L372.79797,67.75 L371.80807,68.45 L365.37375,71.25 L360.42426,70.55 L357.9495,69.5 L359.43436,68.45 L365.37375,66.7 L369.82828,67.05 L369.82828,68.45 L366.85858,69.85 L361.41415,68.1 L366.85858,67.05 L369.82828,67.75 L369.33334,68.45 L364.87878,68.8 L363.8889,68.8 L363.39395,68.45 L365.86868,68.1 L366.36365,68.45 L365.86868,68.45 M255.49495,135.3 L254.50505,135.3 L253.51515,135.3 L258.9596,135.65 L280.73737,139.5 L284.69696,140.55 L289.64645,143 L293.60605,146.85 L295.0909,149.3 L295.58585,151.4 L295.58585,152.1 L272.32324,178.7 L267.86868,178 L235.20203,158.4 L231.73738,153.5 L231.73738,149.65 L232.72728,147.55 L236.19193,144.05 L236.68687,143.7 L252.52525,136 L256.9798,135.65 L257.47476,135.65 L259.45456,136 L279.25253,139.85 L280.73737,140.2 L287.66666,142.65 L290.14142,144.05 L292.12122,145.45 L294.59595,150 L294.101,152.45 L272.81818,177.3 L271.82828,177.65 L269.84848,178 L268.36365,178 L263.41415,175.2 L238.17172,160.15 L236.19193,158.4 L234.21213,156.65 L232.72728,153.85 L232.72728,150.35 L233.22223,147.55 L237.67677,143.7 L251.53535,137.05 L255.9899,136.7 L258.46466,136.7 L260.44446,137.05 L281.72726,141.6 L285.68686,142.65 L287.17172,143.35 L293.1111,147.55 L293.1111,152.1 L291.62625,154.9 L274.30304,174.85 L267.37375,176.6 L266.87878,176.6 L261.9293,173.8 L256.48486,170.65 L238.66667,159.8 L234.70708,155.25 L233.22223,150 L234.70708,146.85 L236.19193,145.45 L252.52525,137.05 L255.49495,137.4 L263.41415,138.8 L277.76767,141.95 L288.16162,145.45 L293.1111,150 L292.61615,152.45 L292.12122,153.85 L273.31314,171.7 L267.37375,176.25 L263.41415,174.5 L255.9899,170.3 L239.65657,159.45 L235.69698,155.95 L235.20203,152.45 L236.19193,146.5 L244.60606,141.6 L253.51515,137.4 L277.27274,141.25 L289.64645,147.55 L291.13132,149.65 L292.12122,152.45 L290.14142,155.6 L272.32324,172.4 L270.83838,173.45 L268.36365,175.2 L264.40405,174.15 L261.9293,173.45 L258.46466,171.7 L240.15152,159.1 L237.18182,155.6 L235.69698,152.1 L236.19193,150.7 L238.17172,146.15 L244.11111,141.95 L253.51515,137.75 L262.9192,139.15 L281.23233,143.7 L283.70706,144.75 L287.66666,146.85 L288.65656,147.55 L291.62625,151.4 L291.62625,152.45 L291.13132,153.15 L288.16162,156.3 L271.82828,172.05 L267.86868,174.15 L263.9091,173.8 L260.9394,172.75 L258.46466,171.35 L254.0101,168.2 L237.67677,155.6 L236.19193,152.8 L236.19193,152.45 L238.17172,146.5 L240.15152,144.75 L250.0505,139.5 L251.53535,138.8 L257.47476,139.15 L261.43436,139.85 L278.75757,143.35 L290.14142,148.6 L289.64645,153.15 L289.15152,154.55 L288.65656,155.6 L272.32324,169.95 L266.38385,173.45 L264.899,173.45 L261.9293,173.1 L240.64647,158.75 L237.67677,154.9 L237.18182,154.2 L236.68687,151.4 L238.17172,147.55 L238.66667,146.5 L243.12122,143.35 L252.0303,139.15 L258.9596,139.85 L264.40405,140.55 L276.28284,143.35 L280.73737,144.75 L285.68686,147.2 L289.15152,148.95 L289.15152,153.85 L288.65656,154.55 L286.18182,156.65 L271.82828,168.55 L266.38385,172.4 L264.40405,173.1 L259.9495,171.7 L243.61617,159.8 L240.64647,157.35 L238.17172,149.65 L239.16162,146.5 L244.60606,143 L247.57576,141.6 L251.53535,140.2 L258.46466,140.2 L264.40405,140.9 L276.28284,144.05 L282.22223,146.15 L288.65656,150 L288.65656,150.7 L288.65656,152.45 L287.66666,154.55 L285.19193,157 L271.33334,168.2 L268.36365,170.3 L266.87878,171 L261.43436,171 L256.9798,168.9 L241.14142,157.35 L239.65657,153.85 L238.66667,151.05 L238.66667,150.7 L240.15152,148.6 L244.60606,144.05 L245.59596,143.35 L249.06061,141.6 L252.0303,140.55 L254.50505,140.2 L261.43436,140.9 L275.29294,144.05 L286.67676,148.95 L288.16162,151.4 L287.17172,155.6 L270.34344,168.9 L267.86868,169.95 L257.9697,169.25 L242.13132,158.05 L239.65657,153.15 L239.16162,150.7 L246.58586,142.65 L248.07071,141.6 L252.52525,140.55 L261.9293,141.25 L274.79797,144.4 L285.68686,149.65 L286.18182,151.4 L285.68686,155.25 L269.35355,168.55 L265.39395,169.6 L257.47476,168.9 L246.09091,160.85 L242.62627,158.05 L241.63637,155.95 L239.65657,151.4 L245.10101,144.4 L246.09091,143.35 L252.0303,140.9 L259.9495,141.6 L263.9091,141.95 L280.24243,147.2 L280.73737,147.55 L285.19193,152.45 L285.19193,155.25 L268.36365,167.15 L264.899,168.55 L261.43436,169.25 L256.48486,167.5 L246.09091,160.15 L241.14142,154.9 L243.61617,146.5 L244.60606,145.45 L248.07071,142.65 L253.0202,141.25 L255.49495,141.25 L260.9394,141.95 L278.75757,147.2 L283.21213,150.35 L283.70706,154.9 L267.86868,167.15 L264.899,168.2 L262.42426,168.55 L255.49495,167.15 L247.08081,160.5 L243.61617,155.95 L243.12122,155.25 L243.12122,148.95 L243.12122,148.25 L245.10101,145.8 L248.56566,143 L250.0505,142.3 L255.9899,141.6 L260.44446,141.95 L266.38385,143.7 L281.72726,149.3 L283.21213,153.5 L282.22223,155.6 L268.36365,166.45 L267.37375,167.15 L262.9192,167.85 L258.46466,167.15 L256.9798,166.8 L255,166.1 L248.07071,160.5 L245.59596,158.4 L245.10101,157.35 L244.11111,153.85 L244.60606,151.05 L245.59596,146.15 L246.58586,144.75 L250.54546,142.3 L252.52525,142.3 L260.44446,142.3 L265.39395,143.7 L278.75757,148.25 L281.72726,150.35 L282.22223,151.05 L282.22223,154.9 L266.87878,167.5 L262.9192,167.5 L257.9697,166.8 L245.59596,158.05 L245.10101,152.45 L247.08081,146.15 L248.56566,144.4 L257.47476,142.65 L258.9596,142.65 L264.899,144.05 L279.25253,149.3 L280.73737,150.35 L282.22223,151.75 L282.22223,152.45 L279.74747,155.95 L266.38385,167.15 L263.41415,167.5 L257.9697,166.45 L255.9899,165.4 L246.09091,158.05 L246.09091,151.4 L247.57576,146.5 L253.0202,143.7 L256.48486,143 L258.46466,143 L259.45456,143.35 L281.72726,151.4 L279.74747,153.5 L264.899,166.8 L263.41415,167.15 L259.9495,166.8 L257.47476,166.1 L247.08081,158.75 L246.58586,150 L248.56566,146.15 L249.06061,145.8 L254.50505,144.05 L261.43436,145.8 L278.75757,150.35 L280.24243,151.4 L279.74747,153.15 L279.25253,153.85 L264.40405,166.1 L261.9293,166.45 L260.44446,166.45 L257.9697,165.4 L249.06061,159.8 L247.57576,158.75 L247.08081,158.05 L249.06061,148.6 L250.54546,145.8 L253.51515,144.4 L256.9798,144.75 L259.9495,145.45 L278.26263,150.35 L278.26263,152.1 L277.27274,153.5 L262.42426,166.1 L260.44446,165.75 L258.9596,165.4 L257.9697,165.05 L249.55556,159.8 L247.57576,158.4 L248.07071,154.2 L251.0404,145.8 L254.0101,144.75 L255,144.75 L260.9394,146.15 L274.79797,149.65 L276.77777,151.4 L261.9293,164.35 L260.9394,164 L249.06061,159.1 L248.07071,157.35 L249.55556,150.35 L250.54546,147.2 L252.0303,146.85 L257.47476,145.8 L262.42426,146.5 L262.9192,147.2 L257.9697,152.45 L253.0202,155.95 L250.0505,157.7 L248.56566,158.05 L248.56566,156.3 L249.06061,152.8 L250.0505,148.95 L250.54546,148.25 L255,146.5 L256.48486,146.15 L257.9697,146.15 L258.46466,146.15 L260.44446,146.5 L260.44446,148.95 L258.9596,151.4 L254.0101,155.25 L251.0404,157.35 L249.55556,157 L249.55556,151.75 L250.54546,149.3 L251.0404,148.6 L258.46466,147.2 L259.9495,147.55 L259.45456,149.65 L255.9899,153.5 L252.0303,156.3 L250.54546,154.55 L250.54546,149.65 L257.47476,147.55 L259.45456,148.95 L256.9798,151.75 L251.53535,153.15 L251.0404,152.8 L251.0404,151.4 L251.53535,150 L252.52525,149.3 L257.47476,147.9 L257.9697,148.25 L258.9596,149.3 L257.9697,150.35 L253.51515,151.4 L252.0303,149.65 L256.9798,148.25 L257.9697,150 L257.47476,150 L254.50505,149.3 L255.49495,148.95 L256.9798,148.95 M272.81818,10 L274.79797,10 L283.21213,10.35 L285.68686,11.4 L292.12122,18.4 L294.101,22.25 L294.101,22.95 L293.60605,25.05 L293.1111,25.75 L292.61615,26.45 L291.13132,27.15 L287.66666,28.55 L272.81818,34.15 L272.32324,34.15 L266.87878,29.95 L266.87878,27.15 L266.87878,25.4 L267.37375,10.7 L269.35355,10.35 L278.26263,10.35 L280.73737,10.35 L283.70706,11.05 L285.19193,11.75 L291.13132,17.35 L292.61615,20.5 L293.1111,21.9 L293.60605,23.3 L293.1111,25.4 L288.16162,28.2 L281.72726,30.65 L280.73737,31 L273.31314,33.45 L270.34344,31.35 L269.35355,30.65 L268.36365,29.6 L266.87878,27.5 L266.87878,26.45 L268.36365,12.45 L269.84848,11.05 L270.83838,10.35 L272.32324,10.35 L275.78787,10.35 L282.22223,11.05 L285.19193,12.1 L289.15152,15.6 L292.12122,20.5 L292.61615,23.3 L289.15152,27.5 L288.65656,27.85 L287.17172,28.55 L281.23233,30.65 L278.26263,31.35 L274.79797,32.05 L272.81818,32.4 L271.33334,31.7 L269.84848,30.65 L268.36365,27.5 L267.86868,24.35 L269.84848,11.4 L274.30304,10.7 L276.28284,10.7 L282.22223,11.4 L283.70706,11.75 L288.65656,15.25 L290.14142,17.35 L292.12122,22.25 L291.62625,23.3 L289.64645,26.8 L288.65656,27.5 L284.69696,29.25 L281.72726,30.3 L279.25253,31 L273.31314,32.05 L271.33334,31.35 L270.83838,31 L270.34344,30.3 L268.36365,26.1 L268.36365,25.05 L268.85858,21.55 L270.34344,12.8 L271.33334,12.1 L273.80807,11.05 L275.29294,10.7 L281.23233,11.4 L286.67676,14.2 L288.16162,15.25 L291.13132,20.85 L291.62625,21.9 L291.62625,22.25 L291.62625,22.6 L290.63635,24.35 L289.64645,26.1 L286.67676,28.2 L283.70706,29.25 L281.72726,29.95 L275.29294,31.35 L272.81818,31.7 L271.82828,30.65 L268.85858,26.1 L268.85858,21.9 L270.34344,15.25 L271.33334,13.85 L273.31314,11.4 L274.30304,11.05 L275.29294,11.05 L279.74747,12.1 L284.69696,13.5 L288.65656,16.65 L290.14142,19.45 L290.63635,21.55 L290.63635,24 L288.65656,25.75 L285.68686,28.2 L283.70706,28.9 L279.25253,30.3 L276.28284,31 L274.30304,31 L271.82828,30.3 L269.84848,26.45 L269.35355,20.5 L271.33334,14.9 L273.31314,12.1 L276.77777,11.75 L283.21213,13.15 L289.15152,17.7 L290.14142,23.3 L288.16162,25.75 L286.67676,27.15 L285.68686,27.85 L279.74747,29.95 L275.78787,30.65 L274.30304,30.65 L270.34344,26.8 L269.84848,25.75 L269.84848,19.8 L272.81818,13.5 L274.30304,13.15 L277.76767,12.8 L280.73737,12.8 L283.70706,13.85 L288.16162,17 L289.15152,18.75 L289.64645,20.85 L289.64645,23.65 L288.16162,25.4 L287.17172,26.45 L286.18182,27.5 L281.23233,29.25 L277.27274,30.3 L275.29294,30.3 L271.82828,26.8 L270.83838,25.4 L269.84848,22.25 L270.34344,20.15 L271.33334,17.35 L273.31314,13.85 L274.79797,13.15 L275.29294,13.15 L284.20203,14.55 L286.67676,15.95 L288.65656,17.35 L289.15152,20.5 L289.15152,21.2 L289.15152,22.25 L288.16162,25.05 L286.67676,26.8 L278.26263,29.95 L274.30304,28.55 L272.32324,26.8 L271.33334,22.6 L271.33334,22.25 L271.33334,20.85 L271.82828,16.65 L273.31314,14.9 L276.28284,14.2 L279.74747,13.85 L283.21213,14.9 L287.17172,17 L287.66666,17.7 L288.16162,18.75 L287.66666,22.95 L286.67676,26.1 L285.19193,27.15 L277.27274,29.25 L274.79797,28.2 L273.31314,27.5 L272.32324,25.75 L271.82828,24.35 L271.82828,22.95 L273.80807,15.6 L278.26263,14.9 L282.22223,14.9 L285.19193,16.65 L286.67676,18.4 L287.66666,22.25 L287.66666,22.6 L287.17172,24 L286.18182,26.45 L285.68686,26.8 L282.22223,27.85 L278.26263,28.9 L277.27274,28.9 L275.78787,28.55 L273.31314,26.8 L273.31314,26.1 L273.80807,20.15 L274.30304,16.65 L280.73737,15.25 L283.21213,15.95 L284.69696,17 L285.19193,17.7 L286.18182,19.8 L286.67676,21.9 L286.18182,25.4 L278.75757,28.55 L277.76767,28.55 L274.30304,26.45 L273.80807,25.4 L274.30304,18.75 L275.78787,16.65 L280.73737,15.95 L282.71716,15.95 L284.20203,16.65 L285.68686,18.4 L286.18182,21.9 L286.18182,22.95 L286.18182,23.3 L285.68686,25.4 L279.74747,27.5 L277.27274,28.2 L276.77777,27.85 L275.78787,27.15 L274.79797,25.75 L274.30304,24.7 L274.30304,22.6 L274.30304,20.85 L275.78787,17.7 L276.77777,17 L277.76767,16.65 L279.25253,16.3 L283.70706,16.65 L284.20203,17.7 L284.69696,18.75 L285.68686,22.6 L285.68686,25.05 L279.74747,26.8 L276.77777,27.15 L275.29294,25.4 L274.30304,22.95 L274.79797,20.5 L276.77777,18.4 L278.75757,16.65 L280.73737,17.7 L282.71716,18.75 L283.70706,20.15 L285.19193,24 L283.70706,25.4 L278.75757,26.45 L276.28284,25.75 L275.29294,24.7 L274.79797,23.65 L274.79797,21.55 L275.29294,20.5 L276.28284,19.1 L278.26263,17.35 L280.73737,18.05 L283.70706,22.25 L284.69696,24 L284.20203,24.35 L282.22223,25.4 L281.72726,25.4 L276.77777,25.4 L275.78787,24.7 L275.78787,22.95 L277.27274,20.15 L277.76767,19.8 L280.73737,18.75 L282.71716,22.6 L282.71716,25.05 L276.77777,24.35 L277.27274,22.25 L277.76767,20.85 L278.26263,19.8 L280.73737,19.45 L282.22223,21.9 L282.22223,24.35 L277.27274,24.35 L277.27274,23.3 L277.76767,21.55 L278.75757,20.15 L280.73737,20.5 L281.23233,21.2 L281.23233,22.95 L278.75757,24 L277.76767,24.35 L277.76767,22.25 L281.23233,21.9 L282.22223,22.6 L280.24243,22.95 M116.41414,268.3 L120.37374,268.65 L121.36364,269.35 L121.85859,270.75 L122.35354,279.15 L122.35354,282.3 L121.85859,283.35 L120.37374,283.7 L115.91919,283.7 L109.48485,283.35 L106.51515,282.3 L105.52525,280.9 L104.040405,277.75 L104.535355,274.95 L105.030304,273.9 L111.959595,270.4 L112.94949,270.05 L117.89899,268.65 L119.878784,268.65 L121.85859,271.1 L122.35354,279.5 L122.35354,280.55 L122.35354,281.95 L120.86869,283 L108.9899,283 L104.535355,279.5 L104.535355,277.4 L104.535355,275.65 L105.52525,274.6 L107.50505,273.2 L108,272.85 L113.93939,270.05 L116.41414,269.35 L118.393936,269 L119.878784,269 L121.85859,272.15 L121.85859,273.2 L121.36364,281.95 L119.878784,282.65 L116.41414,283 L109.9798,283 L106.51515,280.9 L104.535355,278.1 L108,273.2 L111.959595,271.1 L116.41414,269.7 L119.878784,270.4 L121.36364,273.55 L121.36364,278.45 L119.878784,281.25 L115.91919,282.65 L109.9798,282.3 L107.50505,280.2 L106.0202,278.8 L106.51515,277.05 L107.50505,273.9 L108.9899,272.85 L110.969696,272.15 L115.91919,270.75 L119.878784,271.1 L121.36364,274.95 L120.86869,278.1 L119.878784,280.9 L117.40404,281.95 L112.454544,282.3 L110.47475,282.3 L106.51515,279.15 L108,275.3 L108.9899,273.2 L111.959595,272.15 L117.40404,271.1 L118.888885,271.45 L120.37374,272.85 L120.86869,277.4 L120.86869,277.75 L118.888885,280.9 L113.93939,281.95 L110.47475,281.95 L108.49495,280.55 L107.0101,279.15 L107.0101,278.1 L108.9899,274.25 L109.48485,273.9 L110.969696,273.2 L112.454544,272.5 L115.91919,271.45 L117.40404,271.45 L118.393936,272.15 L119.878784,276.7 L119.383835,279.85 L118.888885,280.2 L115.91919,281.25 L110.47475,281.6 L109.48485,280.9 L107.50505,278.8 L107.50505,277.75 L110.47475,273.55 L111.464645,273.2 L114.92929,272.15 L117.89899,272.5 L119.383835,278.1 L119.383835,278.8 L117.89899,280.2 L115.91919,280.9 L110.969696,279.5 L108.9899,278.8 L108,277.75 L108.49495,276.7 L110.47475,274.6 L111.959595,274.25 L114.43434,273.9 L117.89899,274.25 L118.888885,278.1 L117.40404,279.5 L111.464645,279.5 L108,278.45 L109.9798,275.65 L111.464645,274.95 L114.43434,274.25 L117.40404,274.25 L117.89899,277.05 L117.40404,279.15 L114.43434,279.5 L112.94949,279.5 L109.9798,277.4 L112.454544,274.95 L114.43434,274.6 L116.90909,274.6 L117.40404,274.95 L116.41414,277.75 L115.91919,278.45 L114.43434,278.45 L112.94949,278.45 L111.464645,278.45 L111.464645,276 L113.44444,274.95 L114.92929,275.3 L115.42424,277.4 L113.44444,278.45 L111.959595,276.35 L114.92929,276.7 L114.43434,277.4 L113.44444,277.75 L112.454544,277.05 M190.16162,62.5 L192.14142,62.85 L238.66667,182.2 L240.64647,203.9 L239.16162,207.05 L197.09091,199.35 L156.0101,185.35 L154.52525,182.9 L129.77777,100.3 L133.24243,97.15 L184.71718,63.55 L191.15152,64.25 L194.61617,69.5 L235.69698,183.25 L238.66667,193.05 L237.67677,203.9 L235.69698,206 L195.11111,197.6 L156.0101,184.3 L132.74748,102.75 L133.73738,98.9 L179.27272,68.8 L184.22223,66 L188.67677,64.25 L193.62627,69.85 L233.71718,185.7 L234.21213,188.85 L234.21213,204.6 L205.0101,199 L195.60606,196.55 L156.0101,182.55 L134.72728,106.25 L135.22223,99.25 L181.74748,67.75 L187.68687,66.35 L189.17172,66.7 L202.53535,100.65 L229.75757,179.75 L232.72728,189.2 L232.72728,195.5 L197.09091,194.45 L161.9495,180.8 L158.9798,178 L137.69698,101 L154.52525,88.05 L182.24243,69.15 L185.70708,67.4 L191.15152,73 L202.53535,103.45 L228.76767,179.75 L229.75757,183.95 L231.24243,190.6 L213.42424,194.45 L197.58586,194.45 L162.44444,180.1 L160.46465,179.05 L138.68687,102.05 L153.53535,89.1 L187.68687,71.95 L188.67677,71.6 L190.65657,73 L202.0404,102.4 L228.27272,178.35 L225.79797,190.6 L211.44444,194.1 L200.55556,192.35 L192.63637,190.95 L191.64647,190.6 L163.92929,179.05 L162.93939,176.6 L139.18182,101.7 L154.52525,89.45 L159.47475,86.65 L183.72728,74.75 L198.08081,96.8 L201.54546,103.8 L227.77777,178.7 L225.79797,190.25 L205.0101,193.05 L197.09091,190.95 L165.41414,178.35 L163.92929,176.6 L141.16162,102.75 L152.0505,93.65 L159.9697,88.05 L183.23233,76.85 L190.65657,86.3 L199.56566,100.3 L202.0404,105.55 L222.82828,176.6 L222.82828,178.35 L215.89899,189.55 L197.09091,189.9 L163.92929,175.55 L158.9798,143.7 L154.0303,92.6 L156.50505,90.85 L181.74748,77.9 L189.66667,86.65 L194.61617,93.65 L196.10101,95.75 L200.55556,103.45 L222.82828,178 L218.37373,184.3 L208.47475,189.2 L192.14142,186.4 L166.89899,175.2 L165.41414,173.8 L154.52525,95.75 L157.49495,92.25 L161.45454,89.45 L181.25252,81.75 L185.21213,82.1 L195.11111,94.35 L199.07071,99.95 L222.33333,178 L215.40404,185.35 L198.57576,186.75 L166.89899,173.45 L165.41414,168.55 L162.93939,154.2 L161.9495,146.15 L156.0101,97.15 L158.48485,92.6 L159.9697,91.2 L177.29292,84.9 L178.28282,84.55 L180.75757,84.55 L187.68687,87.35 L190.65657,89.1 L194.61617,94.7 L196.10101,97.85 L213.91919,168.2 L215.89899,176.6 L215.40404,179.05 L206.9899,185.7 L197.09091,185.35 L167.88889,168.9 L166.89899,167.15 L163.43434,152.45 L158.9798,118.5 L158.48485,95.4 L158.48485,95.05 L158.9798,93.3 L167.39394,89.1 L169.37373,88.4 L182.24243,86.3 L185.21213,87 L190.16162,89.45 L191.64647,91.2 L195.11111,98.2 L214.90909,172.75 L212.92929,175.9 L208.47475,181.85 L204.51515,183.6 L198.57576,184.3 L191.15152,181.85 L168.38383,166.45 L164.91919,158.05 L163.43434,148.95 L159.47475,115.35 L158.9798,97.85 L159.9697,94.7 L166.40404,91.55 L182.73738,87 L188.18182,89.1 L193.13132,94.7 L195.60606,101.35 L196.10101,102.75 L197.09091,106.6 L212.92929,169.95 L212.43434,176.25 L207.9798,179.75 L203.52525,181.5 L200.06061,180.8 L197.09091,179.75 L176.79797,172.05 L174.32323,170.3 L169.86868,166.45 L165.41414,158.4 L164.91919,156.3 L160.46465,121.3 L160.9596,112.2 L161.9495,98.9 L162.44444,94.7 L166.89899,92.6 L178.77777,89.1 L185.70708,88.4 L187.19193,89.45 L191.15152,92.6 L197.09091,108.35 L210.9495,166.1 L210.9495,168.55 L209.46465,178 L203.0303,179.4 L196.59596,179.05 L174.81818,168.55 L167.39394,161.9 L165.90909,157.35 L165.41414,155.6 L163.43434,141.95 L160.9596,116.05 L163.43434,102.4 L164.91919,97.5 L165.90909,96.45 L176.30302,90.15 L186.20203,90.5 L188.67677,92.25 L195.11111,105.9 L207.9798,164.35 L207.9798,169.6 L207.48485,176.6 L206.9899,178 L195.60606,178.35 L173.33333,165.4 L166.89899,159.1 L164.42424,144.75 L162.44444,119.55 L162.44444,116.05 L164.42424,103.1 L169.37373,96.1 L177.78787,91.2 L185.21213,91.2 L188.18182,91.9 L193.62627,102.75 L206.9899,170.65 L204.0202,178 L196.10101,177.3 L176.30302,166.45 L173.82828,164.7 L168.38383,159.45 L163.92929,119.9 L163.43434,113.95 L165.41414,105.2 L168.38383,98.55 L179.27272,92.6 L183.72728,91.2 L189.66667,95.75 L193.13132,102.4 L206,165.75 L206,170.65 L203.52525,174.5 L182.24243,167.85 L168.87878,158.05 L166.89899,144.05 L163.92929,116.75 L165.90909,108.35 L167.88889,101 L170.36363,97.5 L176.30302,94.7 L182.73738,92.25 L186.20203,93.65 L189.17172,96.45 L191.15152,101.7 L204.0202,162.6 L205.50505,171 L201.0505,171.35 L179.27272,164.7 L174.81818,161.2 L171.35353,156.65 L168.87878,150.35 L167.39394,145.45 L166.89899,143 L164.42424,115.7 L167.88889,105.55 L173.33333,97.5 L184.71718,93.3 L187.19193,95.4 L189.17172,97.85 L204.51515,169.6 L200.55556,170.3 L179.76767,164.7 L175.80807,161.55 L169.86868,150.7 L167.39394,143 L165.41414,124.45 L165.90909,112.9 L169.86868,103.45 L177.78787,98.2 L185.21213,94 L185.70708,94.35 L189.17172,102.75 L190.65657,106.95 L202.53535,164 L202.0404,166.1 L181.25252,164.35 L175.31313,159.45 L174.32323,158.05 L168.38383,144.4 L167.39394,140.2 L167.39394,109.75 L169.37373,106.95 L171.35353,104.85 L179.27272,99.25 L185.21213,98.2 L186.69698,98.2 L187.68687,99.25 L190.16162,107.65 L190.16162,108 L188.67677,160.15 L180.75757,163.65 L171.35353,151.05 L169.37373,146.5 L167.88889,126.55 L168.38383,109.75 L168.87878,108 L175.31313,100.65 L186.69698,99.6 L189.17172,105.2 L188.67677,155.95 L186.69698,159.45 L183.72728,161.55 L181.25252,162.25 L175.31313,154.9 L171.84848,146.5 L171.35353,144.05 L168.87878,117.1 L170.85858,109.75 L176.30302,102.05 L180.75757,101 L185.70708,103.1 L188.67677,108 L184.71718,157.35 L184.22223,160.85 L179.76767,159.8 L175.80807,154.9 L173.33333,145.45 L171.84848,136.7 L169.86868,117.8 L172.34343,111.5 L174.32323,106.6 L181.25252,103.45 L182.24243,103.1 L186.20203,105.9 L186.20203,107.3 L185.70708,128.3 L184.22223,155.25 L179.27272,159.1 L174.81818,150.35 L172.34343,133.9 L171.35353,117.1 L174.32323,106.95 L178.77777,106.25 L179.76767,106.25 L185.21213,106.6 L185.21213,134.95 L184.22223,151.4 L183.72728,154.55 L182.73738,156.3 L178.77777,158.05 L174.32323,141.25 L172.34343,130.05 L173.82828,114.3 L175.31313,107.65 L182.24243,107.3 L184.22223,131.1 L183.72728,151.05 L181.25252,155.95 L178.28282,155.6 L175.31313,141.6 L174.81818,136.35 L173.82828,124.8 L174.81818,112.55 L176.30302,107.65 L181.74748,113.25 L183.23233,136 L183.23233,147.55 L182.73738,152.45 L180.26262,155.6 L178.28282,150 L176.79797,143.35 L175.80807,138.1 L175.31313,130.05 L174.81818,118.15 L175.31313,111.85 L176.30302,108 L181.74748,120.25 L181.74748,144.05 L178.28282,148.25 L177.29292,140.2 L175.31313,115.35 L177.29292,111.5 L177.78787,112.9 L181.74748,124.8 L181.74748,135.3 L180.26262,137.05 L177.29292,139.85 L175.80807,120.6 L175.80807,116.05 L178.28282,114.65 L181.74748,125.15 L181.74748,133.2 L177.78787,139.15 L177.29292,121.3 L179.27272,120.25 L181.74748,126.55 L180.26262,134.6 L178.28282,128.3 L178.77777,120.6 L180.75757,131.8 M377.25253,33.45 L383.19193,34.15 L383.68686,34.5 L388.63635,39.4 L389.62625,43.6 L387.15152,66.7 L383.68686,71.6 L371.80807,77.9 L359.9293,82.45 L357.9495,67.75 L374.77777,37.65 L377.74747,33.8 L383.19193,34.5 L389.13132,43.95 L389.13132,44.65 L382.20203,71.6 L365.37375,79.3 L360.42426,80 L359.43436,74.4 L371.80807,43.6 L375.76767,36.6 L380.22223,34.15 L384.67676,40.45 L387.15152,44.65 L380.71716,64.25 L366.85858,78.6 L364.87878,79.3 L362.899,75.1 L363.8889,68.45 L371.80807,45.35 L376.26263,36.95 L377.74747,36.6 L380.22223,38.7 L382.69696,41.15 L384.18182,43.95 L384.67676,45 L384.67676,47.45 L369.33334,75.8 L365.86868,67.4 L366.36365,64.95 L375.27274,40.45 L380.22223,40.45 L382.20203,43.95 L384.18182,47.8 L382.69696,48.85 L376.75757,48.15 L374.77777,46.4 L376.26263,40.8 L380.71716,43.6 L377.25253,46.05 L377.74747,43.25 M210.9495,164.35 L218.86868,169.25 L235.69698,182.55 L239.16162,189.55 L239.65657,198.3 L237.18182,207.75 L230.25252,206.35 L197.09091,198.3 L193.13132,191.65 L194.12122,180.8 L196.10101,178 L199.07071,174.15 L206.49495,166.1 L213.42424,167.15 L231.24243,181.5 L239.16162,191.3 L238.66667,200.75 L234.21213,202.85 L197.58586,196.2 L195.60606,194.8 L194.12122,190.25 L194.61617,184.65 L201.0505,177.65 L205.50505,173.1 L207.48485,171.7 L210.9495,170.65 L219.36363,173.1 L226.29292,179.4 L234.21213,187.8 L238.17172,192.7 L238.17172,195.15 L234.21213,202.5 L205.50505,197.6 L196.59596,190.25 L199.56566,180.8 L209.9596,172.75 L225.79797,182.55 L230.74748,187.45 L235.69698,194.45 L236.19193,196.55 L230.74748,201.45 L206.49495,196.55 L205.50505,195.85 L198.08081,189.9 L198.57576,185.35 L204.51515,180.8 L208.47475,178.7 L215.89899,177.3 L227.28282,185.35 L233.71718,191.65 L234.21213,194.1 L232.72728,199.35 L227.28282,199 L202.0404,192.7 L200.06061,189.2 L201.54546,187.45 L204.51515,184.3 L213.42424,178 L217.87878,181.15 L230.25252,190.95 L233.71718,194.1 L228.27272,199 L207.9798,194.1 L201.54546,189.9 L201.54546,188.85 L203.0303,186.05 L207.48485,182.2 L213.91919,179.75 L217.87878,181.5 L224.31313,187.8 L231.24243,195.5 L230.74748,195.85 L211.44444,194.45 L206.9899,192.7 L203.0303,187.45 L209.9596,182.9 L211.93939,182.2 L214.90909,183.25 L225.30302,192 L209.46465,190.95 L206.49495,187.8 L206,185.7 L214.41414,184.65 L214.90909,184.65 L214.90909,188.5 L209.9596,187.1 L214.90909,188.15 M298.0606,84.9 L300.53534,85.25 L321.81818,95.75 L323.30304,97.5 L324.78787,99.6 L326.76767,102.4 L325.77777,105.9 L322.80807,106.95 L289.64645,109.05 L261.43436,109.05 L259.9495,108.7 L257.9697,107.65 L254.0101,101.35 L256.9798,96.8 L257.47476,96.45 L266.87878,91.9 L270.34344,90.5 L271.33334,90.15 L298.0606,85.25 L299.54544,85.25 L300.53534,85.6 L320.82828,95.4 L323.79797,98.55 L325.77777,101.35 L325.77777,103.1 L325.28284,104.15 L323.79797,106.25 L321.32324,106.95 L294.59595,108.7 L284.20203,109.05 L260.9394,108.7 L259.45456,108.35 L256.9798,104.85 L255.49495,100.65 L258.46466,96.1 L264.899,93.3 L267.37375,92.25 L271.82828,90.5 L298.0606,85.95 L301.0303,86.3 L319.34344,94.7 L321.81818,96.8 L324.29294,99.25 L325.77777,102.4 L323.79797,105.2 L322.31314,106.6 L286.67676,108.7 L262.42426,108.35 L259.45456,107.3 L258.46466,105.2 L256.9798,101 L256.9798,99.6 L258.46466,96.8 L260.44446,95.75 L265.8889,92.95 L268.36365,91.9 L298.0606,86.3 L302.0202,87 L304.49496,88.05 L319.34344,95.05 L320.33334,96.1 L324.78787,101 L324.78787,103.1 L324.78787,103.45 L324.29294,104.15 L321.32324,105.9 L292.61615,108.35 L261.43436,108 L259.9495,107.3 L258.46466,104.85 L256.48486,101 L257.9697,98.55 L262.9192,95.75 L269.84848,91.9 L299.0505,87 L301.52524,87 L318.35355,95.05 L321.32324,98.2 L323.30304,100.65 L323.79797,102.05 L321.81818,105.2 L293.60605,107.65 L284.69696,107.65 L283.70706,107.65 L262.9192,107.65 L259.9495,105.55 L257.9697,101.7 L260.44446,98.55 L262.42426,96.45 L268.36365,93.3 L273.80807,91.9 L300.53534,87 L316.37375,94.35 L319.83838,97.15 L323.30304,101.7 L322.31314,103.8 L316.37375,105.55 L292.61615,107.65 L287.17172,107.65 L262.42426,106.6 L259.9495,104.85 L259.45456,101.35 L259.9495,99.25 L265.8889,94.7 L295.58585,88.05 L301.0303,87.7 L303.50504,88.4 L315.38385,94 L317.36365,95.75 L320.82828,98.9 L321.32324,99.6 L321.81818,100.65 L321.81818,101.35 L319.83838,103.1 L314.8889,104.15 L297.0707,106.95 L292.12122,107.3 L263.41415,106.25 L260.44446,100.3 L260.44446,99.25 L261.43436,98.2 L261.9293,97.85 L266.38385,95.4 L273.31314,93.3 L296.0808,88.75 L301.52524,88.05 L314.8889,94 L321.32324,99.95 L321.32324,101.7 L317.85858,103.45 L313.899,104.15 L295.58585,106.6 L292.61615,106.95 L290.63635,106.95 L264.899,106.25 L261.43436,101.35 L260.9394,99.6 L265.39395,96.8 L274.30304,94 L298.0606,88.75 L302.0202,88.4 L312.9091,93.3 L317.36365,96.45 L320.82828,99.6 L317.36365,103.45 L294.59595,106.6 L283.70706,106.6 L283.21213,106.6 L265.39395,105.55 L262.9192,101.7 L262.9192,99.95 L264.899,97.15 L269.84848,95.4 L273.31314,94.35 L298.0606,89.1 L303.50504,89.45 L306.47476,90.5 L311.9192,92.95 L313.899,94 L320.33334,99.25 L319.83838,100.3 L317.36365,102.05 L313.899,103.45 L294.59595,105.9 L287.17172,106.25 L267.86868,105.55 L264.899,103.8 L262.9192,100.3 L265.39395,97.85 L269.35355,95.75 L294.101,90.15 L296.57574,89.8 L301.0303,89.45 L303.50504,89.8 L304.9899,90.15 L307.46466,91.2 L314.8889,96.1 L317.85858,99.25 L316.86868,100.65 L314.39395,102.75 L311.42426,103.45 L292.12122,105.9 L281.23233,105.9 L269.84848,105.2 L267.86868,104.85 L265.39395,103.45 L264.40405,100.3 L264.40405,98.9 L264.899,98.55 L267.86868,97.15 L271.33334,95.75 L296.0808,90.15 L302.0202,89.8 L305.48486,90.5 L309.44446,92.6 L311.42426,94.35 L316.37375,99.25 L315.87878,99.6 L311.42426,102.75 L289.15152,105.9 L268.36365,104.85 L266.87878,104.15 L265.8889,102.75 L264.899,99.25 L268.85858,96.8 L297.56564,90.15 L307.46466,92.25 L309.44446,93.65 L314.8889,97.85 L314.39395,99.95 L305.48486,103.45 L294.59595,104.85 L283.70706,105.2 L278.26263,104.85 L273.80807,104.5 L267.86868,102.75 L265.8889,102.05 L268.36365,97.85 L270.83838,96.45 L273.80807,95.75 L293.60605,92.6 L300.53534,91.55 L304.49496,92.6 L310.43436,95.05 L312.41415,96.8 L312.41415,100.65 L308.45456,102.05 L300.0404,103.8 L281.72726,104.85 L274.79797,104.5 L271.82828,103.8 L268.36365,102.75 L266.87878,101.7 L267.37375,99.95 L269.84848,97.15 L292.12122,92.95 L295.58585,92.6 L303.0101,92.25 L308.9495,95.05 L312.41415,97.15 L311.9192,99.95 L310.9293,101 L305.48486,102.05 L293.60605,103.8 L287.17172,104.5 L277.76767,104.5 L272.81818,103.8 L267.37375,102.05 L267.37375,101.7 L269.84848,98.2 L270.83838,97.5 L273.80807,96.8 L292.61615,93.3 L295.0909,92.95 L299.0505,92.95 L300.53534,92.95 L303.0101,92.95 L306.9697,94.35 L311.42426,96.8 L311.9192,97.15 L311.42426,98.2 L310.43436,99.6 L306.9697,101.7 L289.64645,103.8 L274.79797,103.8 L271.33334,103.1 L270.34344,102.75 L269.84848,100.3 L270.34344,98.9 L272.32324,97.5 L273.80807,97.15 L278.75757,96.1 L295.58585,92.95 L297.0707,92.95 L304,93.3 L307.9596,95.4 L310.9293,97.15 L310.9293,98.55 L309.44446,99.95 L306.47476,101.7 L288.65656,103.1 L281.72726,103.45 L272.81818,103.1 L272.32324,101.35 L273.31314,97.5 L292.12122,93.65 L296.57574,92.95 L301.0303,93.3 L306.47476,94.7 L309.9394,96.8 L310.9293,97.5 L306.9697,100.65 L301.52524,101.7 L292.61615,102.75 L287.66666,103.1 L273.31314,103.1 L272.81818,101.7 L273.80807,98.55 L274.79797,97.85 L297.0707,93.3 L300.53534,93.65 L306.9697,95.05 L309.44446,98.2 L304.49496,101 L294.59595,102.4 L291.13132,102.75 L273.31314,102.75 L273.31314,102.05 L274.30304,98.2 L279.25253,97.15 L298.55554,93.65 L302.0202,94.35 L306.47476,95.4 L307.9596,96.45 L308.45456,97.5 L304,101 L296.57574,102.05 L278.26263,102.4 L274.79797,102.4 L274.30304,100.3 L276.77777,97.85 L294.101,94 L299.0505,94.35 L303.0101,95.05 L305.48486,95.75 L307.9596,97.15 L304.49496,100.3 L301.0303,101 L293.1111,102.05 L274.79797,102.05 L276.77777,99.25 L283.21213,97.5 L288.65656,96.1 L298.0606,94.7 L304.49496,96.1 L305.9798,97.15 L305.48486,98.9 L303.50504,99.95 L296.0808,101 L290.14142,101.7 L286.67676,102.05 L281.23233,102.05 L276.28284,101.7 L277.27274,100.3 L277.76767,99.95 L279.25253,99.25 L282.71716,97.85 L289.64645,96.45 L300.0404,95.75 L304,96.1 L304.9899,98.9 L297.56564,100.65 L293.60605,101 L281.72726,101.7 L278.26263,101 L278.26263,100.3 L278.75757,99.95 L283.21213,98.2 L287.17172,97.15 L291.62625,96.45 L300.53534,96.1 L301.0303,96.1 L302.51514,99.25 L296.0808,100.65 L291.62625,101 L280.24243,100.65 L289.64645,97.15 L293.1111,96.45 L299.54544,96.45 L302.0202,98.9 L301.0303,99.25 L295.0909,100.65 L281.72726,100.65 L281.72726,100.3 L291.62625,96.8 L294.101,96.45 L296.0808,96.45 L300.53534,97.5 L301.0303,98.9 L295.0909,100.3 L286.18182,100.65 L282.71716,100.3 L287.17172,98.55 L291.62625,97.85 L298.55554,97.15 L300.53534,98.2 L300.0404,98.55 L292.12122,100.3 L287.66666,98.55 L290.14142,98.2 L293.1111,97.85 L296.57574,97.5 L297.56564,97.5 L292.61615,99.95 L291.13132,99.6 L288.65656,98.9 L292.61615,98.55 L292.12122,98.9 L291.13132,99.25 L289.64645,98.9 M83.252525,46.75 L88.69697,47.1 L89.68687,47.45 L90.676765,48.15 L91.171715,48.5 L106.51515,64.25 L109.48485,67.75 L110.969696,70.2 L110.969696,70.9 L109.48485,76.85 L108.9899,77.55 L107.50505,78.95 L104.040405,79.3 L103.05051,78.95 L80.28283,48.15 L81.27273,47.45 L88.20202,47.1 L90.676765,48.85 L108.9899,67.4 L109.48485,69.5 L109.48485,76.5 L108.49495,77.55 L107.50505,78.25 L106.51515,78.6 L102.55556,78.25 L101.56566,76.85 L83.747475,51.3 L81.76768,47.8 L85.23232,47.45 L86.71717,47.45 L87.70707,47.45 L89.68687,48.5 L105.52525,63.9 L108,68.45 L108.49495,71.25 L108.9899,75.8 L105.030304,77.9 L101.07071,75.8 L82.26263,48.5 L86.22222,47.8 L86.71717,47.8 L88.69697,48.85 L104.040405,62.85 L108,68.8 L108.49495,75.8 L104.040405,77.2 L102.06061,75.45 L83.252525,49.55 L86.22222,48.15 L87.70707,48.5 L105.030304,64.6 L107.0101,68.8 L107.50505,75.1 L105.030304,76.15 L104.040405,76.15 L103.05051,75.8 L84.73737,50.6 L84.73737,49.9 L86.22222,48.85 L87.21212,48.5 L90.676765,51.65 L102.55556,62.85 L105.030304,65.3 L106.51515,71.25 L106.51515,74.05 L106.51515,75.45 L102.55556,73.7 L101.56566,72.65 L85.23232,50.25 L86.22222,49.2 L88.20202,50.25 L90.181816,51.65 L103.545456,64.25 L105.030304,67.05 L106.0202,70.9 L106.51515,73.35 L106.51515,75.1 L104.535355,74.05 L100.08081,70.55 L86.71717,51.3 L87.21212,50.6 L89.19192,50.95 L101.56566,62.85 L106.0202,72.65 L103.05051,72.65 L101.56566,71.6 L100.08081,69.85 L89.19192,52 L100.57576,63.9 L103.545456,67.75 L105.030304,71.25 L101.56566,70.55 L99.58586,67.05 L99.09091,64.95 L100.08081,64.95 L100.57576,64.95 L101.07071,64.95 L104.535355,70.2 L103.545456,70.55 L100.57576,66.35 L101.07071,66 L101.56566,66 M118.888885,188.15 L145.12122,195.15 L140.17172,228.05 L139.18182,231.9 L137.20203,232.95 L134.23233,233.65 L129.77777,233.65 L125.323235,229.8 L119.878784,194.1 L119.878784,189.2 L138.19193,195.5 L138.68687,196.9 L137.69698,231.9 L137.20203,232.25 L135.22223,232.95 L130.76767,233.3 L127.79798,230.5 L126.80808,229.45 L125.818184,223.85 L120.37374,191.3 L125.323235,192.35 L131.75757,194.45 L133.73738,196.2 L136.70708,222.45 L134.72728,230.85 L133.24243,230.5 L129.77777,227 L125.818184,214.4 L123.34344,192.35 L128.29292,194.8 L130.76767,197.95 L133.73738,205.65 L134.23233,208.8 L136.21213,223.5 L135.22223,225.95 L134.23233,227.7 L131.26262,225.6 L127.79798,219.65 L127.30303,213.35 L127.30303,208.45 L127.30303,201.45 L128.78787,196.55 L133.24243,206.7 L135.22223,223.15 L134.72728,225.95 L133.24243,224.9 L130.27272,222.45 L129.28282,220.35 L127.79798,211.25 L127.79798,209.5 L129.28282,205.65 L131.26262,204.95 L133.24243,217.2 L133.73738,223.85 L132.74748,223.5 L129.77777,210.9 L132.25252,211.95 M212.43434,18.4 L219.85858,18.4 L223.32323,18.4 L227.28282,19.1 L229.26262,20.85 L230.74748,24 L227.77777,25.75 L225.30302,26.8 L209.9596,24.7 L208.47475,21.2 L208.9697,20.15 L209.9596,19.1 L215.89899,18.75 L216.39394,18.75 L218.37373,18.75 L224.31313,18.75 L226.29292,19.45 L229.26262,22.6 L227.77777,25.05 L224.31313,26.45 L223.81818,26.45 L217.87878,25.75 L215.89899,25.4 L213.42424,24.35 L209.46465,20.15 L209.46465,19.8 L210.45454,19.1 L219.36363,19.1 L222.33333,19.1 L224.80807,19.45 L227.28282,20.85 L228.27272,22.25 L228.27272,23.65 L225.79797,25.75 L224.31313,26.1 L221.34343,26.1 L218.86868,25.75 L216.39394,25.05 L210.45454,20.5 L209.9596,19.8 L213.91919,19.1 L217.38383,19.1 L221.34343,19.45 L224.31313,19.8 L225.30302,20.15 L227.77777,22.6 L227.28282,23.3 L223.81818,25.75 L217.38383,25.05 L215.40404,24 L210.45454,19.8 L215.40404,19.45 L219.85858,19.45 L222.33333,19.8 L224.31313,20.15 L225.30302,20.5 L226.78787,22.25 L226.78787,23.65 L224.31313,25.05 L218.37373,25.05 L213.91919,22.25 L213.91919,21.9 L214.90909,20.15 L219.85858,19.8 L222.33333,21.2 L226.29292,23.65 L225.30302,24.35 L221.34343,24.7 L215.40404,22.25 L214.90909,21.55 L218.37373,20.5 L219.85858,20.85 L222.33333,22.25 L222.33333,24.35 L220.35353,24 L216.88889,22.25 L217.87878,21.55 L220.84848,21.55 L221.83838,22.6 L221.34343,23.3 L218.86868,22.95 M91.666664,113.25 L94.63636,113.25 L96.616165,113.25 L104.535355,114.3 L107.0101,114.65 L116.90909,117.1 L119.383835,118.5 L122.35354,124.45 L122.84849,126.2 L123.34344,127.95 L122.84849,129 L79.29293,152.1 L76.818184,153.15 L69.888885,155.95 L66.42424,157 L61.474747,154.2 L56.525253,151.05 L55.535355,149.3 L57.020203,146.5 L74.83839,120.6 L79.29293,115 L87.21212,114.3 L96.616165,113.95 L107.50505,115 L115.91919,117.1 L118.393936,118.5 L120.37374,120.6 L121.36364,122.7 L122.84849,127.95 L80.77778,150.7 L70.383835,155.25 L65.92929,155.95 L63.454544,154.9 L60.484848,152.45 L57.515152,148.95 L58.50505,144.4 L76.323235,119.2 L79.78788,115.7 L81.76768,115 L89.19192,114.3 L89.68687,114.3 L99.58586,114.3 L108.9899,115.7 L114.92929,118.15 L120.37374,120.95 L122.35354,127.95 L121.85859,128.3 L119.878784,129.35 L73.84849,153.15 L71.86869,153.85 L68.89899,154.2 L64.93939,153.5 L61.969696,152.8 L59.49495,146.85 L60.484848,143.7 L64.93939,136.7 L76.818184,119.2 L77.31313,118.5 L78.30303,117.45 L82.757576,115.35 L89.68687,114.65 L90.181816,114.65 L98.10101,114.65 L104.535355,115.35 L111.959595,117.45 L116.90909,119.55 L120.37374,122.7 L121.36364,124.8 L118.888885,129 L72.36364,153.15 L67.90909,153.85 L66.91919,153.5 L59.9899,146.15 L61.969696,141.95 L68.89899,131.1 L72.85859,125.5 L76.323235,120.6 L79.78788,116.75 L83.747475,115.35 L89.68687,115 L92.65656,115 L108.49495,116.75 L116.90909,120.25 L119.383835,122.7 L119.383835,123.4 L119.383835,126.2 L118.393936,128.3 L72.36364,152.8 L67.41414,153.15 L64.44444,150.35 L60.484848,145.45 L63.454544,139.85 L72.36364,126.55 L77.31313,120.95 L79.29293,119.2 L80.28283,118.5 L84.73737,115.7 L92.65656,115.35 L95.13131,115.35 L107.50505,116.75 L109.48485,117.45 L110.47475,117.8 L113.44444,119.2 L117.40404,121.3 L118.393936,125.5 L113.44444,130.4 L80.77778,147.9 L78.79798,148.95 L70.383835,152.8 L66.42424,151.75 L64.44444,150 L60.979797,145.1 L61.474747,143.7 L69.393936,131.45 L74.83839,124.1 L76.818184,122 L82.757576,117.8 L85.23232,116.75 L97.111115,115.7 L105.52525,116.75 L115.91919,120.95 L116.41414,121.3 L117.40404,122.7 L116.90909,126.2 L115.42424,128.3 L112.454544,130.4 L82.26263,146.5 L76.818184,149.3 L68.40404,151.4 L63.454544,148.6 L61.969696,146.15 L62.959595,141.6 L74.83839,124.8 L77.31313,121.65 L83.747475,118.5 L92.16161,116.4 L101.07071,117.45 L106.51515,118.15 L111.464645,119.2 L113.93939,120.95 L116.41414,126.9 L111.959595,130.05 L111.464645,130.4 L76.323235,149.3 L74.34344,149.65 L70.383835,149.3 L63.454544,148.25 L62.464645,144.05 L62.959595,142.3 L67.90909,134.95 L74.83839,125.15 L77.31313,122.35 L79.29293,121.3 L82.757576,119.55 L88.69697,117.45 L95.13131,117.1 L97.111115,117.1 L106.0202,118.85 L110.47475,120.6 L114.92929,124.1 L114.92929,124.45 L113.93939,127.25 L112.94949,128.65 L77.80808,147.9 L74.83839,149.3 L64.44444,148.25 L63.949493,146.15 L63.454544,141.6 L70.383835,131.45 L75.333336,124.45 L79.78788,121.65 L81.76768,120.6 L86.71717,118.5 L92.65656,117.8 L102.55556,118.85 L107.50505,119.55 L110.47475,120.95 L112.94949,123.05 L113.93939,125.15 L112.94949,126.9 L108.49495,130.75 L74.83839,148.95 L65.92929,148.25 L64.44444,147.2 L64.44444,146.85 L67.90909,135.3 L71.37374,130.05 L78.79798,122.35 L85.23232,119.2 L87.70707,118.5 L99.09091,118.5 L105.030304,119.9 L110.969696,122.7 L111.959595,123.4 L108,128.65 L107.50505,129 L81.27273,144.4 L75.828285,147.55 L73.84849,148.6 L72.85859,148.6 L66.42424,147.55 L65.43434,146.85 L65.43434,144.05 L68.89899,134.95 L69.888885,132.85 L70.878784,131.45 L76.323235,125.5 L80.28283,122.7 L85.23232,120.25 L88.20202,119.55 L91.666664,118.85 L97.606064,119.2 L104.535355,120.25 L109.9798,123.4 L110.47475,124.1 L106.51515,127.95 L79.78788,145.1 L74.34344,148.25 L71.86869,148.25 L65.92929,146.5 L66.42424,142.3 L70.383835,133.2 L71.37374,131.8 L75.828285,126.2 L79.29293,124.1 L83.747475,122.35 L87.70707,120.95 L95.13131,119.2 L103.05051,120.25 L108,122.7 L108.49495,123.4 L108,125.15 L106.51515,127.6 L81.76768,143.7 L79.29293,145.1 L77.31313,146.15 L74.83839,147.2 L69.393936,146.15 L66.42424,143.7 L72.36364,130.4 L80.28283,123.75 L90.676765,120.95 L99.09091,120.25 L104.040405,121.65 L107.50505,125.15 L106.0202,127.25 L80.28283,144.05 L75.333336,146.5 L72.85859,146.5 L72.36364,146.5 L71.37374,146.15 L68.40404,144.4 L67.41414,143.7 L68.89899,139.15 L71.86869,131.8 L75.333336,128.65 L77.80808,126.55 L82.757576,123.4 L91.171715,121.3 L92.65656,120.95 L95.13131,120.6 L98.10101,120.6 L103.05051,122.35 L105.030304,123.4 L104.040405,126.9 L103.545456,127.6 L76.323235,145.45 L74.34344,146.15 L69.393936,144.75 L68.89899,140.9 L68.89899,139.5 L70.383835,136.35 L75.828285,129 L76.323235,128.65 L84.73737,123.05 L93.15151,121.65 L102.06061,122.35 L104.040405,125.5 L80.77778,142.3 L75.828285,145.45 L71.37374,144.75 L70.383835,144.05 L69.393936,143.35 L69.393936,141.95 L69.393936,141.25 L69.393936,140.2 L70.383835,136.7 L73.84849,131.8 L79.78788,126.2 L82.757576,124.1 L83.252525,123.75 L85.72727,123.05 L96.121216,122 L100.08081,122.35 L102.06061,122.7 L102.06061,125.5 L101.56566,126.2 L100.57576,127.6 L78.30303,143.7 L74.83839,144.75 L69.888885,143.35 L69.393936,140.9 L70.383835,137.05 L78.79798,127.6 L84.242424,123.75 L88.20202,123.05 L96.616165,122.35 L100.57576,122.7 L101.56566,123.05 L101.07071,126.2 L100.57576,127.25 L100.08081,127.95 L76.323235,144.05 L70.878784,143 L69.888885,140.2 L71.37374,137.05 L72.36364,135.3 L74.34344,133.2 L80.77778,127.6 L83.747475,125.5 L86.71717,124.8 L97.111115,122.7 L99.58586,123.05 L101.07071,125.5 L100.08081,126.55 L76.323235,143 L73.35354,143.35 L71.37374,140.9 L70.878784,139.85 L72.36364,135.65 L74.34344,133.55 L77.31313,130.75 L85.72727,124.1 L95.62626,123.75 L98.59596,123.75 L99.58586,125.85 L82.26263,138.1 L77.31313,141.6 L73.35354,141.25 L72.85859,138.8 L73.35354,136.35 L74.83839,133.9 L78.79798,130.4 L79.29293,130.05 L81.27273,129 L86.71717,126.55 L92.16161,124.8 L95.13131,124.1 L97.111115,124.1 L98.59596,126.2 L98.10101,126.55 L81.27273,138.1 L75.828285,139.85 L73.35354,140.55 L73.35354,139.5 L73.35354,138.1 L74.83839,134.95 L76.323235,133.55 L81.76768,129 L86.22222,126.9 L92.65656,125.15 L97.606064,125.5 L81.27273,137.05 L78.79798,138.45 L75.828285,139.15 L75.333336,138.8 L75.333336,136 L76.818184,133.55 L85.23232,127.6 L90.181816,125.85 L94.63636,126.55 L82.757576,135.65 L81.76768,136.35 L77.80808,138.45 L75.333336,138.45 L75.828285,136.7 L77.80808,133.55 L84.73737,128.65 L87.21212,129.7 L81.27273,136 L75.828285,138.1 L75.828285,137.4 L78.79798,134.6 L80.77778,132.85 L84.73737,129.7 L85.23232,129.35 L85.23232,131.1 L83.747475,133.2 L80.28283,137.05 L77.80808,137.05 L80.28283,133.9 L83.747475,130.75 L82.757576,133.2 L82.26263,133.9 L79.29293,136.35 L78.79798,136.35 L79.29293,135.65 L81.27273,133.55 L82.26263,133.2 L79.78788,135.65 M175.80807,246.6 L179.76767,248 L185.70708,250.8 L187.19193,252.9 L186.69698,254.65 L183.23233,257.8 L181.25252,258.85 L178.77777,259.2 L174.81818,258.15 L171.84848,256.75 L168.38383,254.3 L166.40404,250.8 L166.40404,249.4 L171.35353,246.95 L174.81818,246.95 L176.79797,247.3 L180.26262,248.7 L185.21213,251.5 L185.70708,253.25 L185.21213,254.65 L183.23233,257.45 L180.75757,258.15 L176.79797,257.8 L172.34343,256.75 L167.39394,250.8 L166.89899,249.75 L170.85858,247.3 L173.82828,246.95 L176.30302,247.3 L179.27272,248.35 L180.75757,249.05 L184.22223,251.5 L184.22223,252.2 L184.22223,255.35 L182.24243,256.75 L177.29292,257.8 L175.31313,257.45 L172.83838,256.4 L170.36363,253.95 L167.39394,250.1 L167.88889,249.4 L168.38383,249.05 L172.83838,247.65 L176.79797,247.65 L182.24243,251.15 L183.72728,252.2 L182.73738,255 L179.76767,256.75 L178.28282,257.1 L174.32323,256.75 L173.33333,256.4 L172.34343,255.7 L169.37373,252.55 L168.38383,250.8 L171.84848,248.35 L173.33333,248 L175.31313,248 L177.29292,248.35 L179.27272,249.4 L182.73738,251.85 L183.23233,253.25 L181.25252,255.7 L178.28282,256.4 L173.82828,256.4 L171.35353,253.25 L169.86868,250.8 L171.84848,249.05 L173.33333,248.35 L179.76767,249.75 L180.26262,250.1 L181.74748,252.2 L181.25252,255.35 L180.26262,255.7 L176.30302,256.4 L173.82828,255.35 L171.84848,253.6 L170.36363,251.15 L170.36363,250.8 L172.83838,249.75 L176.30302,249.4 L176.79797,249.4 L179.76767,250.8 L180.75757,251.5 L179.76767,254.65 L179.27272,255.7 L178.28282,255.7 L176.30302,255.35 L173.33333,254.65 L172.83838,253.95 L171.35353,251.85 L172.83838,250.8 L174.32323,249.75 L176.79797,250.1 L179.76767,251.85 L179.27272,255 L177.29292,255.35 L176.79797,255.35 L174.32323,254.65 L173.33333,253.25 L172.83838,251.5 L176.30302,251.5 L179.27272,252.55 L178.77777,254.65 L174.32323,252.55 L174.32323,251.85 L175.80807,251.5 L178.28282,252.9 L176.30302,253.25 L174.81818,252.2 L176.30302,252.55 L176.79797,252.9 M368.83838,122.35 L371.31314,123.05 L374.77777,124.1 L378.24243,125.15 L379.72726,125.85 L381.70706,127.95 L382.20203,129 L381.21213,133.9 L378.73737,134.95 L376.75757,135.3 L375.76767,134.95 L374.77777,134.25 L364.38385,125.15 L365.37375,123.05 L365.86868,122.7 L366.85858,122.7 L370.81818,123.05 L377.74747,125.15 L380.22223,126.9 L381.21213,128.3 L381.21213,132.85 L380.22223,133.9 L375.27274,134.6 L366.85858,127.25 L366.36365,125.15 L366.36365,123.05 L368.34344,123.05 L375.27274,124.8 L378.73737,126.2 L380.22223,127.25 L381.21213,129.35 L380.71716,132.15 L378.24243,133.55 L376.75757,133.9 L371.80807,131.45 L368.83838,128.65 L367.35355,125.85 L366.85858,123.4 L367.35355,123.4 L376.75757,125.5 L377.25253,125.85 L380.71716,129 L380.71716,131.8 L379.72726,132.5 L378.24243,132.85 L375.76767,133.2 L373.78787,131.8 L368.34344,126.9 L367.84848,124.1 L370.32324,124.1 L376.75757,125.85 L378.24243,126.55 L380.71716,129.35 L379.72726,132.15 L375.76767,132.5 L374.77777,132.15 L368.83838,126.9 L368.34344,126.2 L368.34344,125.15 L368.83838,124.45 L370.81818,124.45 L376.75757,126.2 L379.72726,128.65 L378.24243,131.8 L374.77777,131.45 L371.80807,129.35 L371.31314,129 L368.83838,126.55 L369.82828,124.8 L376.26263,126.55 L378.24243,128.65 L378.73737,129.35 L377.74747,130.05 L372.79797,130.05 L372.30304,129.7 L370.81818,127.95 L370.32324,127.25 L370.81818,125.85 L373.29294,125.85 L376.75757,127.25 L377.25253,127.95 L377.74747,129 L377.25253,130.05 L376.26263,131.1 L371.80807,129 L371.80807,127.6 L372.79797,127.25 L375.76767,127.25 L376.75757,128.65 L374.77777,129.7 L373.29294,129.35 L374.77777,127.6 L374.77777,128.3 M25.343435,242.05 L26.828283,242.4 L29.79798,243.45 L33.262627,247.3 L31.777779,288.95 L31.282827,289.65 L18.90909,289.65 L17.424242,289.65 L16.434343,288.6 L24.353535,242.4 L27.323233,243.1 L28.313131,243.45 L30.292929,244.5 L31.777779,245.9 L32.767677,246.95 L32.767677,250.8 L31.777779,288.25 L31.282827,288.95 L30.292929,289.65 L25.838385,289.65 L19.404041,289.3 L17.919191,287.9 L24.848484,244.15 L26.828283,243.45 L29.30303,244.15 L31.282827,245.9 L32.272728,248.7 L32.272728,254.65 L31.282827,287.9 L26.828283,289.3 L25.838385,289.3 L20.39394,289.3 L18.90909,288.6 L18.41414,288.25 L18.41414,287.2 L25.343435,244.15 L27.323233,243.8 L30.787878,245.9 L31.777779,248 L31.777779,250.8 L31.777779,254.65 L29.79798,287.9 L28.80808,288.25 L25.838385,288.95 L22.373737,289.3 L19.89899,288.95 L18.90909,288.25 L24.848484,248 L25.838385,245.9 L26.828283,245.55 L27.818182,245.55 L28.80808,246.25 L30.787878,247.65 L31.282827,248.35 L31.282827,248.7 L29.30303,285.8 L27.818182,287.2 L26.333334,287.9 L23.363636,288.6 L20.39394,288.95 L19.89899,288.6 L19.404041,287.2 L21.383839,272.5 L24.848484,248.35 L27.323233,246.6 L29.79798,247.65 L30.292929,248 L30.787878,251.85 L30.787878,253.95 L27.323233,285.8 L25.343435,287.55 L24.848484,287.9 L24.353535,287.9 L20.88889,284.05 L21.878788,271.1 L25.343435,248 L28.313131,247.3 L29.30303,247.65 L29.79798,248 L30.292929,248.7 L30.787878,252.2 L30.787878,253.25 L26.828283,285.45 L25.343435,287.2 L24.848484,286.85 L23.363636,285.8 L21.383839,282.65 L22.373737,268.3 L25.343435,249.4 L27.323233,248.35 L28.80808,248.7 L29.79798,249.05 L30.292929,249.4 L30.292929,251.85 L25.838385,285.45 L24.848484,286.5 L22.868687,284.75 L21.878788,282.3 L21.878788,280.9 L22.373737,269.7 L25.343435,251.5 L25.838385,249.4 L29.79798,249.4 L30.292929,250.1 L29.79798,253.95 L25.838385,284.75 L25.343435,285.45 L24.353535,285.45 L23.363636,284.05 L22.868687,281.25 L22.373737,272.15 L22.373737,270.05 L26.333334,249.4 L28.313131,250.1 L29.30303,252.2 L29.30303,253.25 L27.818182,266.55 L24.848484,285.45 L23.363636,280.2 L22.373737,270.75 L22.868687,267.6 L26.333334,253.25 L27.323233,249.75 L28.313131,252.2 L28.313131,255.35 L28.313131,256.05 L26.828283,270.75 L25.343435,281.95 L22.868687,274.6 L22.868687,271.45 L26.828283,252.2 L27.323233,250.1 L27.818182,251.85 L26.828283,266.9 L25.343435,272.85 L23.858585,274.25 L23.363636,270.4 L23.858585,267.25 L26.828283,252.55 L26.333334,266.55 L25.343435,271.8 L23.858585,273.9 L23.858585,269.35 L24.353535,268.3 L25.838385,265.85 L25.343435,269.35 L24.848484,271.45 L24.353535,272.85 L23.858585,272.85 L25.343435,267.25 L24.353535,272.5 M328.74747,10 L332.21213,11.4 L333.69696,14.9 L334.19193,16.3 L334.19193,17.35 L333.20203,19.1 L328.74747,21.55 L326.27274,21.55 L324.29294,20.85 L322.31314,18.4 L323.79797,13.5 L324.29294,12.8 L325.77777,11.05 L329.24243,10.35 L331.22223,11.4 L333.20203,14.55 L333.69696,15.6 L332.70706,17.7 L331.71716,19.8 L331.22223,20.15 L330.23233,20.5 L326.27274,21.2 L325.28284,21.2 L323.79797,19.8 L323.30304,17 L324.78787,12.45 L327.26263,11.05 L329.73737,11.75 L332.21213,13.15 L332.21213,13.85 L331.71716,16.65 L329.24243,19.8 L326.76767,20.15 L325.77777,20.15 L324.29294,19.1 L323.79797,17.7 L323.79797,16.3 L324.78787,14.9 L327.75757,11.4 L331.71716,15.25 L329.73737,18.75 L325.77777,19.45 L324.78787,19.45 L324.29294,16.65 L325.28284,14.55 L327.26263,12.1 L329.73737,13.5 L330.23233,14.9 L330.23233,17.7 L327.26263,19.1 L326.27274,19.1 L324.78787,17.7 L325.77777,14.9 L326.76767,13.85 L328.74747,13.5 L329.24243,14.2 L330.23233,15.6 L329.73737,17.35 L329.24243,17.7 L326.76767,18.75 L326.27274,17.7 L325.77777,15.6 L328.25253,14.2 L328.74747,14.2 L329.24243,15.95 L329.24243,17 L328.25253,17.35 L326.27274,17.35 L328.74747,14.55 L328.74747,16.3 L328.74747,17 L327.26263,17.35 L326.76767,17 L328.25253,16.3 M59.49495,247.3 L59,247.3 L62.959595,247.3 L63.949493,247.3 L65.92929,248 L67.90909,254.65 L67.90909,255 L67.41414,256.05 L66.42424,257.1 L62.959595,258.15 L59.9899,258.85 L57.515152,258.15 L55.535355,257.1 L55.040405,256.4 L54.050507,253.95 L54.050507,252.55 L54.545456,250.45 L55.040405,250.1 L56.525253,249.4 L60.484848,248.35 L64.44444,247.65 L65.92929,248.35 L67.41414,253.25 L67.41414,254.65 L67.41414,255 L63.454544,257.45 L61.969696,258.15 L59.9899,258.15 L58.50505,257.45 L55.040405,255.7 L55.040405,254.3 L56.030304,251.85 L61.474747,248.35 L62.464645,248 L64.93939,249.05 L66.42424,250.45 L67.41414,253.6 L66.91919,254.65 L65.92929,255.7 L65.43434,256.05 L63.949493,257.1 L59,257.1 L58.0101,257.1 L56.030304,255.7 L56.525253,252.9 L57.020203,251.85 L58.0101,250.8 L59,250.1 L60.979797,249.4 L63.949493,249.75 L64.93939,250.1 L66.42424,253.95 L66.42424,255 L65.92929,255.35 L62.464645,257.1 L55.040405,255 L58.0101,251.15 L60.484848,249.05 L62.959595,249.75 L64.93939,251.15 L65.92929,253.6 L65.92929,255 L60.484848,256.4 L56.525253,254.3 L56.525253,253.6 L57.020203,252.55 L59.9899,250.1 L64.44444,251.15 L65.43434,252.55 L65.92929,254.3 L63.949493,255 L62.464645,255.35 L60.484848,255.7 L59,255 L57.515152,252.9 L61.969696,251.15 L62.959595,251.15 L64.93939,251.85 L65.43434,253.95 L63.949493,254.65 L59.49495,253.6 L60.484848,251.85 L61.969696,251.85 L63.454544,251.85 L64.44444,252.55 L64.44444,254.3 L61.474747,253.95 L60.979797,251.85 L62.959595,252.2 L62.464645,253.25 L61.474747,252.55 M20.39394,10 L19.404041,10 L26.333334,10.35 L27.323233,10.7 L28.80808,12.45 L34.252525,20.85 L31.282827,36.6 L23.858585,61.8 L21.878788,63.9 L17.919191,63.9 L11.979798,61.45 L10.494949,60.75 L10,52 L10,45.35 L10,41.15 L10.494949,34.85 L18.90909,11.4 L19.404041,10.35 L23.363636,10.7 L26.333334,11.75 L29.30303,13.85 L29.79798,14.55 L33.757576,20.85 L32.767677,26.45 L29.79798,41.5 L22.373737,62.85 L19.89899,63.9 L13.959596,62.15 L12.474748,61.1 L10.989899,57.95 L10.494949,55.5 L10,51.3 L10,48.15 L10.494949,37.65 L18.90909,13.15 L19.89899,11.05 L22.373737,10.7 L27.323233,13.15 L28.80808,14.55 L31.282827,17 L32.767677,20.85 L32.767677,22.6 L32.272728,26.45 L30.787878,36.25 L30.292929,38.35 L28.313131,45 L22.373737,62.15 L19.89899,62.85 L15.444445,62.5 L12.474748,60.75 L10.989899,56.2 L10.494949,50.6 L10.494949,45.35 L10.494949,44.65 L10.989899,39.4 L19.89899,12.45 L20.39394,11.4 L21.878788,11.05 L22.373737,11.05 L24.848484,12.1 L27.323233,14.2 L30.787878,17.7 L32.272728,19.8 L32.767677,21.9 L32.272728,25.75 L28.80808,42.9 L23.363636,58.65 L21.383839,61.8 L15.939394,62.5 L15.444445,62.15 L12.474748,59.7 L11.979798,58.3 L10.989899,54.8 L10.494949,47.45 L10.989899,42.9 L11.484848,39.4 L11.979798,36.6 L20.39394,11.75 L24.353535,12.1 L26.828283,14.2 L29.30303,16.65 L31.282827,18.75 L31.777779,25.4 L31.777779,27.5 L31.282827,29.95 L27.818182,45 L23.363636,57.95 L21.878788,60.4 L18.41414,61.1 L13.959596,60.4 L12.969697,59.35 L11.484848,55.85 L10.989899,49.55 L10.989899,48.85 L11.484848,40.8 L11.979798,36.95 L12.474748,35.2 L19.89899,13.5 L21.383839,12.1 L23.858585,12.8 L27.818182,15.95 L31.282827,19.1 L31.777779,26.1 L30.787878,32.05 L25.838385,50.25 L22.373737,58.3 L21.878788,59 L17.919191,60.75 L14.454545,60.4 L12.969697,58.3 L11.979798,56.55 L11.484848,53.75 L11.484848,41.85 L11.979798,37.65 L20.39394,13.85 L20.88889,13.5 L21.383839,13.5 L22.373737,13.5 L25.343435,14.9 L30.787878,19.45 L31.282827,23.3 L30.787878,31.7 L25.838385,47.8 L24.848484,50.95 L24.353535,52.35 L22.868687,56.2 L18.90909,60.05 L14.949495,60.05 L13.959596,59 L12.474748,56.9 L11.979798,52.35 L11.979798,45.7 L11.979798,43.6 L11.979798,39.4 L13.464646,33.45 L20.88889,14.55 L23.858585,14.2 L24.353535,14.55 L27.323233,17 L29.79798,20.5 L30.787878,22.6 L30.787878,25.75 L30.787878,28.2 L30.787878,28.9 L30.787878,29.25 L30.292929,31.7 L28.80808,38 L25.343435,48.85 L22.373737,56.55 L17.919191,58.65 L14.454545,59 L11.979798,52 L11.979798,47.45 L11.979798,44.3 L12.969697,35.55 L21.383839,17.35 L21.878788,16.3 L22.868687,14.55 L26.828283,17.35 L28.80808,19.45 L30.292929,22.6 L29.79798,33.8 L25.343435,48.15 L22.868687,54.8 L21.878788,56.55 L19.404041,57.6 L16.434343,57.95 L13.959596,57.6 L12.474748,51.65 L12.474748,48.15 L12.969697,37.65 L14.949495,33.1 L20.88889,20.15 L22.868687,17.7 L24.848484,15.95 L28.80808,20.15 L29.79798,22.6 L29.79798,30.65 L29.79798,32.05 L28.313131,38.35 L24.353535,50.25 L23.363636,53.05 L21.383839,55.85 L19.89899,56.9 L18.90909,57.25 L14.949495,57.25 L13.959596,57.25 L12.969697,50.6 L12.969697,39.05 L15.444445,32.05 L22.868687,20.5 L24.353535,19.1 L24.848484,18.75 L27.818182,19.45 L29.79798,26.1 L29.30303,32.4 L28.80808,35.55 L26.828283,42.2 L22.868687,52 L21.878788,53.75 L20.39394,55.85 L18.41414,56.9 L13.959596,55.85 L12.969697,48.5 L13.464646,38.35 L13.959596,36.6 L15.444445,32.75 L22.373737,21.9 L25.343435,19.1 L26.828283,20.85 L28.313131,22.6 L29.30303,31.35 L27.323233,39.4 L26.333334,42.9 L22.373737,52.7 L20.88889,54.45 L19.404041,55.85 L18.90909,56.2 L13.959596,55.5 L13.464646,47.45 L14.454545,36.25 L14.949495,34.85 L15.939394,32.4 L18.90909,27.5 L20.39394,25.05 L20.88889,24.35 L22.373737,22.95 L25.838385,20.5 L26.333334,20.85 L27.818182,22.6 L28.80808,27.5 L28.80808,29.95 L28.80808,30.3 L28.313131,35.2 L25.343435,45 L22.373737,52 L19.404041,54.1 L17.919191,55.15 L16.434343,55.15 L13.959596,54.1 L13.959596,46.05 L14.454545,40.1 L14.949495,36.6 L16.434343,32.05 L20.39394,25.75 L22.868687,24 L23.858585,23.3 L27.818182,22.95 L28.313131,25.05 L28.80808,28.9 L28.313131,34.85 L24.848484,46.05 L23.858585,48.15 L21.383839,51.3 L19.89899,52.7 L16.929293,53.75 L14.949495,54.1 L13.959596,51.65 L14.454545,47.45 L15.939394,34.85 L16.929293,32.4 L19.89899,26.8 L21.383839,25.05 L21.878788,24.7 L27.818182,24 L28.313131,27.85 L28.313131,32.75 L24.848484,45.35 L22.868687,49.2 L17.424242,53.4 L15.444445,53.4 L14.949495,53.4 L15.444445,42.55 L15.939394,35.55 L16.434343,33.8 L17.919191,30.65 L21.383839,25.4 L24.848484,25.05 L27.818182,25.05 L28.313131,28.9 L26.828283,37.3 L26.333334,39.75 L25.343435,43.25 L24.353535,45.35 L21.878788,48.85 L20.39394,50.95 L19.404041,51.65 L15.444445,52.7 L15.444445,48.15 L15.444445,47.45 L15.939394,38.35 L17.919191,31.7 L18.90909,30.3 L22.373737,26.1 L24.848484,25.4 L27.818182,27.85 L26.828283,35.55 L26.333334,38.35 L25.343435,41.15 L24.353535,43.6 L22.868687,46.4 L20.88889,49.9 L19.89899,50.95 L16.434343,52 L15.939394,50.95 L15.939394,48.15 L15.939394,47.45 L15.939394,42.2 L17.919191,35.2 L21.383839,28.55 L22.373737,27.5 L25.838385,27.15 L27.323233,28.55 L24.848484,41.85 L23.858585,43.95 L19.89899,49.9 L17.424242,51.3 L16.434343,50.95 L15.939394,49.2 L15.939394,47.1 L15.939394,42.9 L18.41414,34.85 L21.383839,30.65 L22.868687,28.55 L25.838385,27.5 L26.828283,29.6 L26.828283,29.95 L25.343435,38.35 L24.848484,41.15 L22.868687,45 L18.90909,49.55 L16.434343,48.5 L16.434343,46.4 L16.434343,45.35 L16.929293,41.85 L17.424242,38.7 L18.90909,34.5 L21.878788,30.3 L23.363636,28.55 L26.333334,29.95 L26.333334,32.4 L26.333334,32.75 L24.848484,38.7 L23.858585,42.55 L20.39394,47.1 L18.90909,48.5 L17.424242,48.15 L16.929293,42.9 L17.424242,39.75 L20.88889,33.8 L22.868687,31.35 L24.353535,30.3 L25.838385,31.35 L26.333334,32.05 L22.868687,43.6 L21.383839,45.35 L19.89899,46.75 L18.41414,47.45 L17.424242,46.4 L17.424242,42.55 L18.41414,39.75 L19.404041,37.65 L20.88889,34.5 L21.383839,33.45 L23.858585,30.65 L25.343435,31.35 L25.838385,32.05 L25.838385,33.1 L23.363636,41.5 L22.868687,42.9 L19.404041,46.4 L18.41414,46.4 L17.919191,45.35 L17.919191,41.5 L19.89899,37.65 L22.868687,32.05 L23.858585,31.35 L25.343435,32.4 L24.848484,34.85 L22.868687,42.55 L18.90909,45.7 L18.90909,43.25 L19.404041,39.05 L23.363636,31.7 L23.858585,32.05 L24.353535,34.85 L21.878788,40.45 L21.383839,41.5 L20.39394,43.6 L19.404041,43.95 L19.404041,42.55 L20.39394,37.3 L22.868687,32.75 L22.868687,34.85 L22.373737,38 L21.878788,39.05 L19.89899,42.2 L19.89899,40.1 L21.383839,38.35 L20.88889,40.1 M150.07071,10 L146.60606,10 L150.56566,10.35 L156.50505,12.1 L175.31313,45 L174.32323,50.25 L170.36363,54.45 L163.92929,53.4 L159.9697,52.7 L157,51.3 L150.56566,46.05 L141.65657,35.2 L141.16162,33.45 L141.16162,32.4 L142.64647,11.75 L151.55556,10.7 L156.0101,14.2 L157,15.95 L172.83838,43.95 L174.32323,47.8 L170.85858,52.7 L169.37373,53.75 L166.89899,53.75 L161.45454,51.65 L153.0404,47.45 L146.11111,40.45 L143.63637,37.3 L142.64647,35.55 L141.65657,32.4 L144.62627,15.25 L148.58586,12.1 L151.06061,11.4 L153.53535,12.45 L171.84848,43.25 L173.82828,47.45 L171.35353,51.65 L161.9495,51.65 L154.52525,48.15 L153.0404,47.1 L144.13132,37.65 L142.64647,33.1 L142.64647,31.35 L144.62627,16.3 L148.09091,12.8 L151.06061,13.15 L155.51515,16.65 L171.84848,45.35 L166.89899,50.6 L165.41414,50.95 L157.49495,49.2 L155.0202,48.15 L149.57576,42.9 L146.11111,39.4 L143.63637,35.9 L143.63637,33.45 L143.63637,31.7 L143.63637,30.65 L145.61617,17.35 L147.10101,14.9 L152.54546,14.55 L154.52525,15.95 L155.0202,16.65 L170.36363,42.9 L170.36363,44.65 L169.37373,47.8 L166.89899,49.2 L160.9596,49.9 L159.9697,49.55 L152.54546,45.35 L147.10101,39.75 L145.61617,34.15 L146.60606,16.65 L154.52525,16.3 L169.37373,43.25 L168.38383,47.1 L163.43434,48.5 L156.50505,47.45 L149.08081,41.15 L146.60606,35.9 L146.11111,28.2 L146.11111,26.8 L146.60606,23.65 L147.10101,21.2 L148.09091,16.65 L153.53535,17.35 L154.52525,18.05 L156.0101,20.15 L167.88889,41.85 L167.88889,46.75 L163.43434,47.8 L157.9899,47.45 L156.50505,46.75 L151.55556,42.55 L146.60606,33.45 L146.60606,26.1 L147.59596,19.8 L152.54546,17.35 L167.88889,42.2 L167.39394,46.4 L165.41414,46.75 L161.45454,47.1 L152.54546,42.55 L151.55556,41.85 L146.60606,31 L146.60606,28.2 L148.09091,19.8 L151.06061,18.4 L153.53535,20.5 L166.89899,43.6 L166.89899,45 L161.9495,46.75 L155.51515,43.95 L153.53535,42.9 L148.09091,33.8 L147.59596,29.95 L148.09091,21.55 L150.07071,20.15 L164.91919,41.85 L165.41414,44.65 L164.42424,45.35 L157.49495,43.6 L155.0202,42.55 L152.0505,39.75 L150.56566,34.85 L148.58586,26.45 L149.08081,22.95 L150.07071,23.3 L151.06061,24 L164.91919,43.95 L161.45454,44.3 L159.9697,43.95 L158.9798,43.6 L156.50505,42.55 L156.0101,42.2 L152.0505,39.4 L150.56566,33.8 L149.08081,23.65 L151.06061,25.4 L162.44444,41.85 L159.47475,43.25 L157.49495,42.2 L152.54546,38 L150.56566,26.1 M215.40404,67.75 L217.87878,68.1 L220.35353,68.8 L220.84848,69.5 L220.84848,71.6 L220.84848,73.7 L218.37373,77.2 L217.87878,77.55 L216.88889,77.2 L212.43434,71.25 L213.42424,69.15 L217.87878,70.2 L220.35353,72.65 L217.87878,77.2 L212.92929,71.6 L213.91919,70.55 L214.90909,70.55 L217.38383,70.55 L218.86868,71.6 L219.36363,74.05 L217.38383,75.45 L214.90909,73.7 L214.41414,71.25 L214.90909,70.9 L217.87878,72.3 L218.37373,72.65 L218.86868,74.05 L217.38383,74.75 L215.89899,74.05 L215.89899,73.35 L215.89899,71.95 L217.38383,73.35 L217.38383,73.7 M74.83839,10 L74.34344,10 L75.828285,10.35 L67.90909,22.25 L66.42424,22.6 L64.93939,22.95 L62.464645,21.9 L60.979797,20.85 L59.9899,19.1 L59.9899,17 L71.37374,10.7 L74.83839,10.35 L75.333336,11.05 L68.89899,20.5 L64.93939,22.6 L63.949493,22.25 L62.464645,21.55 L60.979797,19.8 L60.484848,19.1 L61.474747,16.65 L71.37374,11.05 L73.84849,11.05 L73.84849,11.4 L69.393936,19.45 L67.90909,20.15 L65.92929,20.85 L61.474747,20.15 L60.979797,19.45 L60.979797,18.75 L61.474747,17.35 L63.454544,16.3 L73.35354,11.4 L67.41414,19.8 L64.44444,20.5 L63.949493,20.5 L61.474747,19.8 L61.969696,18.05 L72.85859,11.75 L69.393936,15.95 L67.41414,18.05 L64.93939,19.8 L61.969696,19.45 L61.969696,19.1 L64.44444,16.65 L66.42424,15.6 L67.90909,14.9 L69.393936,14.9 L66.91919,17.7 L62.464645,19.45 L64.44444,17 L67.41414,15.6 L65.92929,18.05 L65.43434,17.35 L66.91919,15.95 L65.92929,17 M224.31313,239.95 L227.77777,240.3 L229.75757,241.35 L231.24243,244.15 L231.73738,245.2 L231.73738,245.55 L231.73738,248.7 L228.76767,251.15 L225.79797,250.8 L224.80807,250.1 L221.34343,245.9 L221.83838,242.4 L227.28282,240.3 L228.76767,241.35 L230.74748,243.8 L231.24243,245.2 L231.73738,246.95 L230.25252,249.05 L227.28282,250.8 L225.30302,250.1 L222.33333,244.85 L222.33333,243.8 L223.32323,243.1 L224.80807,242.4 L226.78787,242.05 L228.76767,242.4 L231.24243,247.3 L227.77777,249.4 L224.31313,248 L223.32323,245.55 L224.80807,243.8 L226.29292,242.4 L228.27272,242.75 L230.25252,245.9 L228.27272,249.05 L225.30302,248 L223.81818,246.6 L224.31313,245.2 L225.30302,243.45 L228.27272,244.85 L228.76767,246.95 L226.78787,248.35 L225.30302,247.65 L225.79797,243.8 L227.77777,247.65 M207.9798,274.6 L210.9495,274.95 L214.90909,279.15 L215.40404,281.25 L212.43434,284.4 L209.9596,284.4 L206.9899,278.45 L207.48485,275.65 L208.9697,274.95 L209.46465,274.95 L211.93939,276.7 L212.92929,277.75 L214.41414,279.85 L213.42424,283 L212.43434,284.05 L209.9596,284.05 L207.48485,278.45 L207.9798,277.05 L210.9495,276 L212.92929,277.4 L213.91919,279.85 L212.92929,283.35 L210.45454,283.7 L208.47475,279.5 L208.47475,277.4 L211.93939,277.75 L212.92929,278.1 L213.42424,278.8 L212.92929,281.95 L210.45454,282.65 L208.9697,280.2 L208.9697,278.1 L208.9697,277.75 L212.43434,278.1 L212.92929,279.85 L212.92929,281.25 L212.92929,281.6 L210.45454,282.3 L209.46465,280.2 L210.9495,278.8 L211.93939,278.1 L211.93939,281.25 L210.45454,281.25 L210.9495,279.85 M405.46466,92.95 L405.46466,97.15 L405.46466,98.9 L405.46466,102.75 L404.47476,103.8 L401.50504,103.8 L399.0303,100.65 L399.0303,97.5 L401.50504,94.35 L402.49496,94 L403.48486,94 L404.9697,97.15 L404.9697,103.1 L403.48486,103.45 L401.0101,103.1 L399.52524,98.9 L400.51514,95.75 L402.9899,94.35 L403.48486,95.05 L404.47476,98.2 L404.47476,100.3 L403.9798,102.75 L402,102.4 L401.0101,101.7 L400.0202,98.9 L401.50504,95.75 L403.9798,96.8 L404.47476,99.25 L403.9798,99.95 L401.50504,100.3 L401.50504,98.9 L401.50504,98.55 L401.50504,98.2 L402.49496,98.2 L403.48486,98.9" fill="none" stroke="#000" stroke-width="0.2"/>
<path d="m 15.815664,12.893319 c -1.445284,-3.0999497 -5.555449,-0.3575 -5.08537,2.32203 1.697826,2.92736 4.504013,-3.54417 4.40859,-2.58178 -1.548999,2.22986 0.741131,6.08701 3.012419,3.25791 2.532153,-2.82358 0.259001,-7.8326797 -3.488671,-7.9011197 -3.217272,0.056 -5.8863857,2.4603197 -7.9308737,4.7238797 -2.354585,2.46752 0.0048,5.887 2.757763,6.62143 3.2195457,1.10867 6.8759417,1.30834 9.9459317,-0.36585 2.270396,-1.12373 5.025949,-2.62031 5.680576,-5.20027 -2.108811,-3.66096 -6.038415,1.28356 -3.842036,3.67822 1.07278,0.89979 4.586982,-2.27037 3.201668,-2.73503 0.03094,3.24357 1.226854,6.37852 1.337023,9.60311 -0.672198,3.54892 -7.469251,0.32096 -4.637082,-2.5164 2.158436,-2.4193 5.610472,-2.84094 8.202925,-4.57369 0.993877,-1.40371 0.353413,-5.25046 3.182464,-3.48957 2.142923,1.43516 -2.250898,5.7532 1.723416,5.02339 1.661189,-0.71663 6.494946,-1.40457 4.601401,-3.95236 -4.205319,-0.68052 -1.190571,5.86505 1.665411,3.46881 1.929752,-0.9247 2.778055,-4.05119 1.423645,-5.35034 0.479155,1.8589 3.849911,7.52574 4.880369,3.32696 0.21201,-1.28088 0.40468,-3.80204 1.01246,-1.23041 0.5858,2.6865 3.83412,4.91909 4.56937,1.07383 0.65272,-1.00894 -0.2696,-4.02739 0.99929,-1.35746 1.10974,2.31613 6.32001,1.46113 6.147,-1.13059 -1.98394,-2.13868 -5.3717,1.45205 -3.78252,3.73454 2.57741,0.96208 6.69797,-0.21041 7.06275,-3.33983 0.41287,-2.63769 0.26643,-5.3430297 -0.11178,-7.9756197 0.67418,3.94149 1.24889,7.9380497 2.39963,11.7713397 2.10586,1.67977 5.7434,1.65022 7.74596,-0.23639 3.03149,-1.85431 -0.26637,-4.76925 -2.71777,-4.54025 -2.11577,0.0793 -5.36257,2.40772 -5.16868,3.85604 2.08262,-2.38818 5.55759,-1.22628 8.30726,-1.6832 3.182,-0.26596 6.46546,-0.57372 9.54494,-1.18158 0.24171,0.4199 -0.27752,0.54338 -0.43067,0.17453" fill="none" stroke="black" stroke-width="1" transform="translate(380,280) scale(0.3)"/>
</svg>