<svg height="210mm" style="background:white" viewBox="0 0 297 210" width="297mm" xmlns="http://www.w3.org/2000/svg" xmlns:inkscape="http://www.inkscape.org/namespaces/inkscape">
<g inkscape:groupmode="layer" inkscape:label="brush">
<path d="M127,200 L127,10 M200,11 L10,11 M195,200 L195,10 M94,10 L94,200 M200,93 L10,93 M10,142 L200,142 M105,200 L105,10 M134,10 L134,200 M86,10 L86,200 M10,192 L200,192 M200,173 L10,173 M144,10 L144,200 M10,172 L200,172 M95,200 L95,10 M200,135 L10,135 M10,16 L200,16 M110,10 L110,200 M33,200 L33,10 M10,122 L200,122 M10,90 L200,90 M66,10 L66,200 M10,146 L200,146 M170,10 L170,200 M149,200 L149,10 M10,18 L200,18 M50,10 L50,200 M154,10 L154,200 M10,154 L200,154 M175,200 L175,10 M200,45 L10,45 M142,10 L142,200 M10,194 L200,194 M200,123 L10,123 M200,95 L10,95 M10,124 L200,124 M10,60 L200,60 M130,10 L130,200 M200,193 L10,193 M87,200 L87,10 M97,200 L97,10 M10,106 L200,106 M162,10 L162,200 M49,200 L49,10 M200,165 L10,165 M200,179 L10,179 M200,105 L10,105 M10,68 L200,68 M10,36 L200,36 M200,163 L10,163 M90,10 L90,200 M179,200 L179,10 M10,176 L200,176 M10,32 L200,32 M200,121 L10,121 M107,200 L107,10 M146,10 L146,200 M10,34 L200,34 M18,10 L18,200 M180,10 L180,200 M39,200 L39,10 M200,87 L10,87 M10,56 L200,56 M167,200 L167,10 M200,101 L10,101 M82,10 L82,200 M182,10 L182,200 M122,10 L122,200 M10,12 L200,12 M83,200 L83,10 M111,200 L111,10 M200,61 L10,61 M178,10 L178,200 M200,161 L10,161 M200,71 L10,71 M10,62 L200,62 M200,29 L10,29 M10,180 L200,180 M73,200 L73,10 M165,200 L165,10 M11,200 L11,10 M10,98 L200,98 M171,200 L171,10 M10,128 L200,128 M200,83 L10,83 M200,85 L10,85 M200,35 L10,35 M93,200 L93,10 M173,200 L173,10 M200,127 L10,127 M12,10 L12,200 M10,102 L200,102 M10,54 L200,54 M155,200 L155,10 M200,51 L10,51 M55,200 L55,10 M10,184 L200,184 M10,134 L200,134 M10,74 L200,74 M200,117 L10,117 M60,10 L60,200 M10,44 L200,44 M133,200 L133,10 M70,10 L70,200 M197,200 L197,10 M10,170 L200,170 M200,13 L10,13 M10,148 L200,148 M10,168 L200,168 M10,126 L200,126 M34,10 L34,200 M22,10 L22,200 M46,10 L46,200 M200,89 L10,89 M10,162 L200,162 M10,72 L200,72 M193,200 L193,10 M89,200 L89,10 M200,141 L10,141 M69,200 L69,10 M10,110 L200,110 M160,10 L160,200 M100,10 L100,200 M10,80 L200,80 M68,10 L68,200 M152,10 L152,200 M138,10 L138,200 M131,200 L131,10 M200,77 L10,77 M72,10 L72,200 M56,10 L56,200 M140,10 L140,200 M10,158 L200,158 M10,118 L200,118 M185,200 L185,10 M200,199 L10,199 M200,125 L10,125 M61,200 L61,10 M115,200 L115,10 M36,10 L36,200 M200,63 L10,63 M51,200 L51,10 M19,200 L19,10 M10,64 L200,64 M10,140 L200,140 M58,10 L58,200 M174,10 L174,200 M114,10 L114,200 M200,189 L10,189 M10,152 L200,152 M200,139 L10,139 M10,108 L200,108 M200,10 L200,200 M186,10 L186,200 M10,58 L200,58 M84,10 L84,200 M52,10 L52,200 M62,10 L62,200 M200,147 L10,147 M200,75 L10,75 M44,10 L44,200 M10,190 L200,190 M183,200 L183,10 M200,37 L10,37 M189,200 L189,10 M153,200 L153,10 M10,50 L200,50 M126,10 L126,200 M200,151 L10,151 M10,186 L200,186 M47,200 L47,10 M77,200 L77,10 M10,200 L200,200 M200,31 L10,31 M74,10 L74,200 M10,112 L200,112 M13,200 L13,10 M200,79 L10,79 M59,200 L59,10 M92,10 L92,200 M156,10 L156,200 M200,115 L10,115 M200,57 L10,57 M139,200 L139,10 M117,200 L117,10 M10,10 L200,10 M200,67 L10,67 M10,164 L200,164 M10,166 L200,166 M40,10 L40,200 M158,10 L158,200 M200,59 L10,59 M200,69 L10,69 M200,195 L10,195 M14,10 L14,200 M200,183 L10,183 M88,10 L88,200 M23,200 L23,10 M200,39 L10,39 M150,10 L150,200 M10,38 L200,38 M10,136 L200,136 M10,104 L200,104 M10,198 L200,198 M32,10 L32,200 M108,10 L108,200 M200,49 L10,49 M124,10 L124,200 M10,94 L200,94 M200,149 L10,149 M10,130 L200,130 M200,153 L10,153 M181,200 L181,10 M200,185 L10,185 M24,10 L24,200 M176,10 L176,200 M200,97 L10,97 M200,25 L10,25 M54,10 L54,200 M10,92 L200,92 M116,10 L116,200 M159,200 L159,10 M200,47 L10,47 M10,24 L200,24 M132,10 L132,200 M29,200 L29,10 M10,150 L200,150 M63,200 L63,10 M26,10 L26,200 M10,40 L200,40 M120,10 L120,200 M200,33 L10,33 M200,65 L10,65 M200,143 L10,143 M10,138 L200,138 M200,145 L10,145 M45,200 L45,10 M135,200 L135,10 M10,28 L200,28 M161,200 L161,10 M200,55 L10,55 M53,200 L53,10 M200,53 L10,53 M106,10 L106,200 M148,10 L148,200 M191,200 L191,10 M137,200 L137,10 M10,116 L200,116 M157,200 L157,10 M200,111 L10,111 M102,10 L102,200 M200,137 L10,137 M151,200 L151,10 M21,200 L21,10 M96,10 L96,200 M10,30 L200,30 M200,43 L10,43 M10,114 L200,114 M163,200 L163,10 M187,200 L187,10 M128,10 L128,200 M196,10 L196,200 M177,200 L177,10 M10,48 L200,48 M200,103 L10,103 M200,187 L10,187 M172,10 L172,200 M10,52 L200,52 M164,10 L164,200 M38,10 L38,200 M143,200 L143,10 M10,144 L200,144 M78,10 L78,200 M10,14 L200,14 M184,10 L184,200 M67,200 L67,10 M166,10 L166,200 M16,10 L16,200 M200,159 L10,159 M31,200 L31,10 M10,46 L200,46 M15,200 L15,10 M200,171 L10,171 M76,10 L76,200 M145,200 L145,10 M10,156 L200,156 M200,109 L10,109 M200,15 L10,15 M10,120 L200,120 M198,10 L198,200 M64,10 L64,200 M200,107 L10,107 M10,76 L200,76 M28,10 L28,200 M168,10 L168,200 M80,10 L80,200 M25,200 L25,10 M85,200 L85,10 M10,42 L200,42 M188,10 L188,200 M10,100 L200,100 M10,174 L200,174 M79,200 L79,10 M119,200 L119,10 M141,200 L141,10 M101,200 L101,10 M200,91 L10,91 M200,157 L10,157 M109,200 L109,10 M42,10 L42,200 M200,191 L10,191 M43,200 L43,10 M200,99 L10,99 M10,182 L200,182 M200,21 L10,21 M112,10 L112,200 M200,17 L10,17 M10,70 L200,70 M41,200 L41,10 M136,10 L136,200 M10,66 L200,66 M17,200 L17,10 M65,200 L65,10 M199,200 L199,10 M123,200 L123,10 M35,200 L35,10 M10,160 L200,160 M103,200 L103,10 M10,84 L200,84 M10,86 L200,86 M194,10 L194,200 M192,10 L192,200 M121,200 L121,10 M10,10 L10,200 M81,200 L81,10 M10,78 L200,78 M10,96 L200,96 M125,200 L125,10 M20,10 L20,200 M37,200 L37,10 M104,10 L104,200 M98,10 L98,200 M200,19 L10,19 M200,119 L10,119 M48,10 L48,200 M200,131 L10,131 M57,200 L57,10 M200,41 L10,41 M200,81 L10,81 M10,188 L200,188 M200,167 L10,167 M113,200 L113,10 M10,26 L200,26 M147,200 L147,10 M200,177 L10,177 M75,200 L75,10 M118,10 L118,200 M169,200 L169,10 M190,10 L190,200 M99,200 L99,10 M200,73 L10,73 M71,200 L71,10 M10,20 L200,20 M200,23 L10,23 M200,133 L10,133 M200,181 L10,181 M10,178 L200,178 M10,82 L200,82 M200,197 L10,197 M200,27 L10,27 M200,113 L10,113 M10,88 L200,88 M27,200 L27,10 M200,169 L10,169 M10,196 L200,196 M200,175 L10,175 M10,22 L200,22 M91,200 L91,10 M10,132 L200,132 M200,155 L10,155 M200,129 L10,129 M129,200 L129,10 M30,10 L30,200" fill="none" stroke="black" stroke-width="0.5" style="mix-blend-mode: multiply;"/>
</g>
<g inkscape:groupmode="layer" inkscape:label="signature">
<g inkscape:groupmode="layer" inkscape:label="signature">
<path d="m 15.815664,12.893319 c -1.445284,-3.0999497 -5.555449,-0.3575 -5.08537,2.32203 1.697826,2.92736 4.504013,-3.54417 4.40859,-2.58178 -1.548999,2.22986 0.741131,6.08701 3.012419,3.25791 2.532153,-2.82358 0.259001,-7.8326797 -3.488671,-7.9011197 -3.217272,0.056 -5.8863857,2.4603197 -7.9308737,4.7238797 -2.354585,2.46752 0.0048,5.887 2.757763,6.62143 3.2195457,1.10867 6.8759417,1.30834 9.9459317,-0.36585 2.270396,-1.12373 5.025949,-2.62031 5.680576,-5.20027 -2.108811,-3.66096 -6.038415,1.28356 -3.842036,3.67822 1.07278,0.89979 4.586982,-2.27037 3.201668,-2.73503 0.03094,3.24357 1.226854,6.37852 1.337023,9.60311 -0.672198,3.54892 -7.469251,0.32096 -4.637082,-2.5164 2.158436,-2.4193 5.610472,-2.84094 8.202925,-4.57369 0.993877,-1.40371 0.353413,-5.25046 3.182464,-3.48957 2.142923,1.43516 -2.250898,5.7532 1.723416,5.02339 1.661189,-0.71663 6.494946,-1.40457 4.601401,-3.95236 -4.205319,-0.68052 -1.190571,5.86505 1.665411,3.46881 1.929752,-0.9247 2.778055,-4.05119 1.423645,-5.35034 0.479155,1.8589 3.849911,7.52574 4.880369,3.32696 0.21201,-1.28088 0.40468,-3.80204 1.01246,-1.23041 0.5858,2.6865 3.83412,4.91909 4.56937,1.07383 0.65272,-1.00894 -0.2696,-4.02739 0.99929,-1.35746 1.10974,2.31613 6.32001,1.46113 6.147,-1.13059 -1.98394,-2.13868 -5.3717,1.45205 -3.78252,3.73454 2.57741,0.96208 6.69797,-0.21041 7.06275,-3.33983 0.41287,-2.63769 0.26643,-5.3430297 -0.11178,-7.9756197 0.67418,3.94149 1.24889,7.9380497 2.39963,11.7713397 2.10586,1.67977 5.7434,1.65022 7.74596,-0.23639 3.03149,-1.85431 -0.26637,-4.76925 -2.71777,-4.54025 -2.11577,0.0793 -5.36257,2.40772 -5.16868,3.85604 2.08262,-2.38818 5.55759,-1.22628 8.30726,-1.6832 3.182,-0.26596 6.46546,-0.57372 9.54494,-1.18158 0.24171,0.4199 -0.27752,0.54338 -0.43067,0.17453" fill="none" stroke="black" stroke-width="1" transform="translate(150,192) scale(0.6)"/>
</g>
</g>
</svg>