<svg height="210mm" style="background:white" viewBox="0 0 297 210" width="297mm" xmlns="http://www.w3.org/2000/svg" xmlns:inkscape="http://www.inkscape.org/namespaces/inkscape">
<g inkscape:groupmode="layer" inkscape:label="hotpink">
<path d="M238.35217,110.156204 Q238.35217,110.156204,191.20642,152.52333 Q144.06067,194.89044,165.5556,190.60803 Q187.05055,186.3256,153.60458,102.952255 Q120.158615,19.578892,134.9567,17.29382 Q149.75479,15.008747,170.36324,99.67853 Q190.9717,184.34831,200.49861,111.83131 Q210.02551,39.3143,164.0549,114.50949 Q118.08428,189.70468,131.882,102.37444 Q145.67972,15.0442,130.03992,18.37718 Q114.400116,21.71016,151.54637,23.091717 Q188.69263,24.473276,200.28488,96.68714 Q211.87714,168.901,136.91612,149.29938 Q61.95509,129.69774,108.62898,72.47761 Q155.30289,15.257475,141.24243,16.40934 Q127.182,17.561205,124.72972,104.328186 Q122.27745,191.09517,116.32362,107.28581 Q110.369804,23.476458,171.63356,48.608986 Q232.89732,73.741516,188.19586,44.44041 Q143.49442,15.139307,169.25836,21.547981 Q195.0223,27.956657,166.16234,21.827982 Q137.3024,15.699307,121.76044,20.624748 Q106.218475,25.550188,165.8741,42.002686 Q225.52974,58.45518,227.8858,62.897663 Q230.24188,67.34014,172.10667,127.7266 Q113.971466,188.11305,100.47298,113.71368 Q86.97449,39.3143,114.3358,27.285889 Q141.69711,15.257475,145.72595,15.133111 Q149.75479,15.008747,124.140686,97.429825 Q98.52658,179.8509,138.62254,100.03783 Q178.71849,20.224754,156.02364,18.256334 Q133.32878,16.287914,151.5734,16.92456 Q169.81801,17.561205,201.35767,45.65136 Q232.89732,73.741516,219.33583,54.658905 Q205.77434,35.5763,210.98842,40.638645 Q216.20248,45.700985,214.15994,43.51959 Q212.1174,41.33819,178.20435,28.218325 Q144.29129,15.09846,146.23871,15.049504 Q148.18613,15.000547,191.12221,46.03802 Q234.05829,77.07549,197.5087,46.471024 Q160.95909,15.866554,186.53824,28.602371 Q212.1174,41.33819,224.45549,64.44781 Q236.79358,87.55742,152.33087,116.26937 Q67.86816,144.98132,149.37703,143.10533 Q230.8859,141.22934,200.67287,166.75458 Q170.45984,192.27982,159.04413,103.64201 Q147.6284,15.00422,191.36372,47.74848 Q235.09904,80.492744,195.20096,47.87511 Q155.30289,15.257475,112.55732,38.287487 Q69.81176,61.317497,104.722496,127.93983 Q139.63322,194.56216,188.26793,158.22168 Q236.90263,121.88121,192.54437,68.44088 Q148.18613,15.000547,154.9783,104.5084 Q161.77048,194.01627,184.8398,115.70519 Q207.90913,37.394123,186.51439,26.970974 Q165.11963,16.547823,159.74504,15.869741 Q154.37044,15.19166,158.32721,15.626735 Q162.28398,16.061808,161.62154,15.964182 Q160.95909,15.866554,155.8442,15.447084 Q150.7293,15.027614,104.899376,54.9596 Q59.06947,94.89159,128.11739,62.09184 Q197.16531,29.29209,133.48854,45.304794 Q69.81176,61.317497,118.21983,39.081036 Q166.6279,16.844574,198.7569,79.03696 Q230.8859,141.22934,172.42868,164.6712 Q113.971466,188.11305,90.042786,164.6712 Q66.11411,141.22934,78.66988,88.402824 Q91.22566,35.5763,120.97748,25.301956 Q150.7293,15.027614,129.51834,19.750444 Q108.30738,24.473276,121.5117,20.267542 Q134.71602,16.061808,106.76667,32.051422 Q78.81732,48.04103,123.50594,32.611164 Q168.19456,17.1813,120.700836,36.43816 Q73.20711,55.695023,147.9939,105.75608 Q222.78067,155.81714,151.7891,100.75906 Q80.79751,45.700985,78.74457,102.477776 Q76.69163,159.25456,114.81548,177.07251 Q152.93933,194.89044,113.57933,175.35379 Q74.21933,155.81714,156.07494,125.35436 Q237.93053,94.89159,164.5781,65.23394 Q91.22566,35.5763,132.2268,27.020008 Q173.22795,18.463715,151.0167,17.822506 Q128.80544,17.1813,133.05392,16.440304 Q137.3024,15.699307,100.923096,76.56195 Q64.543785,137.42459,95.86289,77.492905 Q127.182,17.561205,95.86289,77.492905 Q64.543785,137.42459,61.750095,125.73845 Q58.9564,114.0523,144.04413,129.51682 Q229.13184,144.98132,183.81569,80.269325 Q138.49954,15.557332,154.15877,16.559269 Q169.81801,17.561205,158.04436,16.29441 Q146.2707,15.027614,106.51441,41.183876 Q66.75812,67.34014,74.789795,55.40349 Q82.821465,43.46684,116.514435,29.241518 Q150.2074,15.016197,123.94513,22.867762 Q97.68286,30.719328,112.11151,111.49957 Q126.54016,192.27982,170.69604,179.04312 Q214.85193,165.80643,160.5352,95.67831 Q106.218475,25.550188,85.160576,49.64585 Q64.102684,73.741516,64.73991,72.11832 Q65.37712,70.49512,132.34714,50.60722 Q199.31714,30.719328,151.71214,28.71482 Q104.10715,26.710314,107.028305,106.51796 Q109.949455,186.3256,98.46197,112.819954 Q86.97449,39.3143,117.301445,27.159262 Q147.6284,15.00422,141.42897,104.51024 Q135.22952,194.01627,149.45038,105.152084 Q163.67122,16.287914,199.86784,71.04184 Q236.06447,125.79577,187.84799,70.61689 Q139.63152,15.43801,178.64777,89.01284 Q217.66402,162.58766,197.2527,91.083275 Q176.84138,19.578892,158.23645,17.508451 Q139.63152,15.43801,136.48015,15.862963 Q133.32878,16.287914,102.39952,37.371548 Q71.47027,58.45518,128.03418,40.505848 Q184.59808,22.556515,166.6188,18.77831 Q148.63951,15.000108,129.50465,19.238283 Q110.369804,23.476458,113.36542,22.205246 Q116.36102,20.934036,173.99196,45.714577 Q231.62288,70.49512,190.06143,42.74756 Q148.5,15,187.84412,38.15875 Q227.18823,61.317497,151.10173,57.178043 Q75.01523,53.038586,125.92831,36.30874 Q176.84138,19.578892,207.65254,61.011417 Q238.4637,102.44395,180.37057,146.76956 Q122.27745,191.09517,105.68416,114.244644 Q89.090866,37.394123,80.50681,94.83985 Q71.92276,152.28558,153.96785,118.13703 Q236.01294,83.98847,151.38553,75.66431 Q66.75812,67.34014,73.04705,114.963905 Q79.33598,162.58766,90.77681,172.3877 Q102.217636,182.18771,91.50757,113.94435 Q80.79751,45.700985,150.45496,48.093998 Q220.11238,50.48701,171.05101,34.740017 Q121.98964,18.99302,162.80832,26.426107 Q203.627,33.859196,172.1623,24.59902 Q140.69759,15.338847,145.03459,15.171534 Q149.3716,15.00422,104.789,51.28082 Q60.20642,87.55742,89.14535,138.63106 Q118.08428,189.70468,150.34209,105.70742 Q182.59988,21.71016,122.25042,51.10145 Q61.900955,80.492744,133.83765,58.034523 Q205.77434,35.5763,145.32848,38.457245 Q84.8826,41.33819,121.12554,28.3881 Q157.36848,15.43801,171.99934,19.457233 Q186.6302,23.476458,165.82501,19.271885 Q145.01982,15.067312,140.53036,15.466933 Q136.04091,15.866554,153.76868,16.927061 Q171.49644,17.987568,175.20609,103.84613 Q178.91573,189.70468,188.69456,184.7778 Q198.47342,179.8509,184.98492,98.919235 Q171.49644,17.987568,183.1394,100.08764 Q194.78236,182.18771,207.54536,170.72113 Q220.30838,159.25456,142.84274,114.87484 Q65.37712,70.49512,139.77783,56.980976 Q214.17853,43.46684,184.27449,29.329248 Q154.37044,15.19166,137.26453,17.385275 Q120.158615,19.578892,177.10846,48.327194 Q234.05829,77.07549,193.01924,46.071404 Q151.98018,15.067312,149.38638,15.041755 Q146.7926,15.016197,184.38869,34.027393 Q221.98477,53.038586,159.83382,41.878956 Q97.68286,30.719328,80.89277,52.23042 Q64.102684,73.741516,127.44211,49.64585 Q190.78152,25.550188,125.11003,71.75691 Q59.438538,117.96363,103.96927,156.48181 Q148.5,195,187.84753,171.8351 Q227.19507,148.6702,155.00827,96.06852 Q82.821465,43.46684,71.8785,84.6313 Q60.93553,125.79577,104.8747,70.398155 Q148.81387,15.000547,118.95237,26.197336 Q89.090866,37.394123,80.50681,94.83985 Q71.92276,152.28558,154.67876,121.73972 Q237.43475,91.193855,237.73918,102.62308 Q238.0436,114.0523,193.34155,64.52621 Q148.63951,15.000108,154.16856,15.349708 Q159.6976,15.699307,145.03485,16.27194 Q130.3721,16.844574,139.15709,15.923151 Q147.94208,15.001729,118.09839,93.431786 Q88.25471,171.86183,103.268105,96.0433 Q118.2815,20.224754,135.89354,17.68203 Q153.50558,15.139307,169.05183,18.847912 Q184.59808,22.556515,148.5,22.556515 Q112.40192,22.556515,143.70615,20.774767 Q175.01036,18.99302,146.64594,19.608887 Q118.2815,20.224754,132.27611,17.626184 Q146.2707,15.027614,109.738914,35.36132 Q73.20711,55.695023,111.70725,35.35561 Q150.2074,15.016197,149.51064,15.008372 Q148.81387,15.000547,153.65717,15.27894 Q158.50046,15.557332,153.50023,105.27866 Q148.5,195,122.01361,113.62046 Q95.52722,32.240913,166.99545,67.34243 Q238.4637,102.44395,149.72537,93.21621 Q60.987053,83.98847,149.27426,100.97605 Q237.56146,117.96363,192.96097,66.481865 Q148.36049,15.000108,112.62405,32.74356 Q76.88761,50.48701,112.71125,32.74351 Q148.53488,15.000007,184.42163,87.12728 Q220.30838,159.25456,176.09438,87.90119 Q131.88037,16.547823,144.09138,15.943335 Q156.30241,15.338847,153.81136,15.191524 Q151.32028,15.0442,165.97963,17.989119 Q180.63898,20.934036,125.221954,84.80212 Q69.80493,148.6702,151.13057,143.0474 Q232.4562,137.42459,145.94737,127.694115 Q59.438538,117.96363,59.767956,119.922424 Q60.09737,121.88121,106.801476,68.51026 Q153.50558,15.139307,106.801476,68.51026 Q60.09737,121.88121,113.36263,69.36289 Q166.6279,16.844574,140.514,19.277367 Q114.400116,21.71016,131.43262,18.355083 Q148.46512,15.000007,141.84732,104.50813 Q135.22952,194.01627,185.647,159.90602 Q236.06447,125.79577,231.62978,137.23299 Q227.19507,148.6702,221.0235,157.23831 Q214.85193,165.80643,179.17317,90.47286 Q143.49442,15.139307,190.88486,56.89164 Q238.27528,98.643974,158.5463,73.34251 Q78.81732,48.04103,146.49792,45.753937 Q214.17853,43.46684,226.33469,74.87541 Q238.49084,106.28399,212.56052,64.88022 Q186.6302,23.476458,202.40643,35.758743 Q218.18268,48.04103,148.75934,105.31435 Q79.33598,162.58766,135.15384,173.46799 Q190.9717,184.34831,138.04727,176.62466 Q85.122856,168.901,141.79814,174.37595 Q198.47342,179.8509,181.07231,98.06941 Q163.67122,16.287914,111.09019,61.28595 Q58.50916,106.28399,59.037205,98.73892 Q59.565247,91.193855,59.885834,89.37563 Q60.20642,87.55742,148.82059,89.37563 Q237.43475,91.193855,169.82619,136.69078 Q102.217636,182.18771,155.06339,109.79092 Q207.90913,37.394123,146.39587,39.366158 Q84.8826,41.33819,145.17264,108.00892 Q205.46268,174.67964,207.10399,173.27074 Q208.74529,171.86183,133.85085,142.95706 Q58.9564,114.0523,120.99247,151.08267 Q183.02853,188.11305,124.57133,164.6712 Q66.11411,141.22934,151.83778,129.59648 Q237.56146,117.96363,208.13998,69.09419 Q178.71849,20.224754,139.2766,24.75842 Q99.834694,29.29209,106.1183,25.924303 Q112.40192,22.556515,103.96457,27.398714 Q95.52722,32.240913,148.78172,104.79321 Q202.03621,177.34552,192.31805,99.52784 Q182.59988,21.71016,162.61473,18.450909 Q142.62956,15.19166,107.04991,36.82342 Q71.47027,58.45518,151.54657,64.47515 Q231.62288,70.49512,149.93079,67.38754 Q68.238686,64.27997,138.49199,118.0709 Q208.74529,171.86183,219.49359,119.60099 Q230.24188,67.34014,162.60283,122.34283 Q94.96378,177.34552,76.750046,139.89473 Q58.536304,102.44395,148.28995,108.24812 Q238.0436,114.0523,191.16745,64.57538 Q144.29129,15.09846,171.80421,22.908894 Q199.31714,30.719328,189.11642,110.212006 Q178.91573,189.70468,180.97212,188.90887 Q183.02853,188.11305,120.78242,145.2785 Q58.536304,102.44395,102.89076,58.726345 Q147.24521,15.008747,140.98062,15.535278 Q134.71602,16.061808,181.73866,40.170887 Q228.76132,64.27997,188.63066,39.639984 Q148.5,15,146.28033,104.94522 Q144.06067,194.89044,182.08653,122.68873 Q220.11238,50.48701,161.04504,39.221836 Q101.977715,27.956657,80.24344,67.12032 Q58.50916,106.28399,101.764496,60.67565 Q145.01982,15.067312,101.87228,56.855644 Q58.72472,98.643974,59.85589,91.31622 Q60.987053,83.98847,104.46456,49.495102 Q147.94208,15.001729,135.85707,16.732721 Q123.77206,18.463715,158.33246,22.587013 Q192.89285,26.710314,127.42397,78.204025 Q61.95509,129.69774,144.57167,95.50762 Q227.18823,61.317497,189.94847,38.207977 Q152.70871,15.09846,144.3748,15.482508 Q136.04091,15.866554,119.00931,21.911606 Q101.977715,27.956657,168.99533,55.972565 Q236.01294,83.98847,165.48837,130.66699 Q94.96378,177.34552,126.16614,96.39176 Q157.36848,15.43801,144.1149,104.34631 Q130.86131,193.25461,103.874466,121.87081 Q76.88761,50.48701,123.67372,121.383415 Q170.45984,192.27982,185.96631,112.26036 Q201.47278,32.240913,163.48816,25.11424 Q125.503555,17.987568,145.3116,17.267694 Q165.11963,16.547823,161.24321,105.55499 Q157.36678,194.56216,155.15306,194.7263 Q152.93933,194.89044,117.5437,180.34843 Q82.14806,165.80643,110.89065,180.1843 Q139.63322,194.56216,99.140526,152.35918 Q58.647823,110.156204,98.573685,62.856766 Q138.49954,15.557332,159.56926,18.245684 Q180.63898,20.934036,208.7708,71.40762 Q236.90263,121.88121,201.52066,157.56792 Q166.13869,193.25461,183.80573,112.747765 Q201.47278,32.240913,150.65373,30.766502 Q99.834694,29.29209,144.26366,26.882683 Q188.69263,24.473276,199.35907,31.89379 Q210.02551,39.3143,135.96324,59.903522 Q61.900955,80.492744,105.18304,47.746376 Q148.46512,15.000007,140.17274,15.773914 Q131.88037,16.547823,167.75368,25.203508 Q203.627,33.859196,182.95549,24.9605 Q162.28398,16.061808,200.31808,63.109005 Q238.35217,110.156204,236.09732,121.866776 Q233.84245,133.57735,191.18867,74.28868 Q148.53488,15.000007,147.66374,15.008101 Q146.7926,15.016197,190.31754,74.296776 Q233.84245,133.57735,204.4264,76.28519 Q175.01036,18.99302,134.19168,26.426107 Q93.373,33.859196,78.265274,83.71827 Q63.157543,133.57735,149.10123,131.63754 Q235.0449,129.69774,204.13643,74.08073 Q173.22795,18.463715,164.76518,16.901281 Q156.30241,15.338847,159.03644,104.67755 Q161.77048,194.01627,155.4142,104.508995 Q149.05792,15.001729,188.90962,39.64085 Q228.76132,64.27997,184.72945,39.809406 Q140.69759,15.338847,104.46813,39.809406 Q68.238686,64.27997,108.80514,39.642094 Q149.3716,15.00422,193.82344,56.824097 Q238.27528,98.643974,172.1518,141.49614 Q106.028305,184.34831,164.00653,118.69345 Q221.98477,53.038586,229.95766,73.96509 Q237.93053,94.89159,192.58788,54.95017 Q147.24521,15.008747,111.96842,87.13165 Q76.69163,159.25456,135.737,170.72113 Q194.78236,182.18771,216.6366,144.23586 Q238.49084,106.28399,171.299,66.497154 Q104.10715,26.710314,139.41486,108.90274 Q174.72255,191.09517,201.9272,168.03824 Q229.13184,144.98132,197.63527,169.11797 Q166.13869,193.25461,159.05943,104.160965 Q151.98018,15.067312,193.53961,47.78003 Q235.09904,80.492744,161.67688,126.17729 Q88.25471,171.86183,109.31341,94.3532 Q130.3721,16.844574,177.08249,36.2698 Q223.7929,55.695023,177.3271,124.474815 Q130.86131,193.25461,123.61117,107.09432 Q116.36102,20.934036,120.93229,19.460802 Q125.503555,17.987568,171.58379,90.28761 Q217.66402,162.58766,172.10208,177.43375 Q126.54016,192.27982,104.34412,179.04312 Q82.14806,165.80643,152.46437,160.81178 Q222.78067,155.81714,223.92896,154.05136 Q225.07724,152.28558,192.38742,83.99245 Q159.6976,15.699307,173.37407,101.01246 Q187.05055,186.3256,130.63493,171.07138 Q74.21933,155.81714,154.63213,142.75745 Q235.0449,129.69774,233.75056,133.56117 Q232.4562,137.42459,171.20284,161.8751 Q109.949455,186.3256,84.50946,140.6086 Q59.06947,94.89159,100.38329,55.07453 Q141.69711,15.257475,189.24535,51.407448 Q236.79358,87.55742,231.16165,73.0063 Q225.52974,58.45518,142.08878,84.305695 Q58.647823,110.156204,71.88534,139.5286 Q85.122856,168.901,72.344055,130.04742 Q59.565247,91.193855,104.311584,53.097794 Q149.05792,15.001729,172.0401,21.479193 Q195.0223,27.956657,127.97891,76.87621 Q60.93553,125.79577,125.85853,75.67298 Q190.78152,25.550188,126.86162,51.31284 Q62.941704,77.07549,107.131,46.05985 Q151.32028,15.0442,178.39148,94.86192 Q205.46268,174.67964,181.41473,184.62091 Q157.36678,194.56216,155.03773,104.83031 Q152.70871,15.09846,177.37245,96.221985 Q202.03621,177.34552,155.1718,100.90939 Q108.30738,24.473276,152.73634,26.882683 Q197.16531,29.29209,151.5968,106.8202 Q106.028305,184.34831,98.782814,179.51398 Q91.53732,174.67964,106.76348,96.836334 Q121.98964,18.99302,94.9289,81.987175 Q67.86816,144.98132,65.51285,139.27934 Q63.157543,133.57735,78.265274,83.71827 Q93.373,33.859196,92.45516,104.269424 Q91.53732,174.67964,157.6651,115.18734 Q223.7929,55.695023,183.21123,35.44334 Q142.62956,15.19166,102.78563,46.133575 Q62.941704,77.07549,105.65109,46.0378 Q148.36049,15.000108,180.1188,91.950554 Q211.87714,168.901,135.30093,133.77249 Q58.72472,98.643974,138.4537,73.34251 Q218.18268,48.04103,205.53777,37.37567 Q192.89285,26.710314,145.70972,103.28061 Q98.52658,179.8509,136.62457,185.47304 Q174.72255,191.09517,166.61151,103.32625 Q158.50046,15.557332,141.13626,17.010523 Q123.77206,18.463715,99.39365,35.751152 Q75.01523,53.038586,110.34747,34.041393 Q145.67972,15.0442,107.742325,81.8572 Q69.80493,148.6702,99.30518,82.92574 Q128.80544,17.1813,148.5,17.1813 Q168.19456,17.1813,192.19853,31.441143 Q216.20248,45.700985,220.63986,98.993286" fill="none" stroke="hotpink" stroke-width="0.5" style="mix-blend-mode: multiply;"/>
</g>
<g inkscape:groupmode="layer" inkscape:label="deepskyblue">
<path d="M67.86816,65.01868 Q67.86816,65.01868,81.41597,48.83658 Q94.96378,32.654484,138.99615,27.270714 Q183.02853,21.886944,127.47565,39.80068 Q71.92276,57.714417,137.77487,116.92761 Q203.627,176.14081,215.40762,162.41165 Q227.18823,148.6825,200.20808,170.10939 Q173.22795,191.53629,165.29736,103.48706 Q157.36678,15.437841,122.17063,93.06177 Q86.97449,170.6857,120.24003,182.7732 Q153.50558,194.86069,164.25797,192.93384 Q175.01036,191.00697,195.60643,177.653 Q216.20248,164.29901,207.33795,97.22405 Q198.47342,30.149097,133.35605,87.93456 Q68.238686,145.72003,134.85573,161.73956 Q201.47278,177.75908,183.2962,185.60564 Q165.11963,193.45218,151.21101,193.87643 Q137.3024,194.30069,141.16112,194.61668 Q145.01982,194.9327,130.69043,191.99933 Q116.36102,189.06596,132.15155,192.03212 Q147.94208,194.99828,113.3797,178.47862 Q78.81732,161.95897,155.63676,117.26718 Q232.4562,72.5754,178.97989,132.29391 Q125.503555,192.01244,137.07153,193.50616 Q148.63951,194.9999,148.55232,194.99994 Q148.46512,195,191.1538,135.71132 Q233.84245,76.42265,159.36253,122.54223 Q84.8826,168.66182,101.582054,179.21854 Q118.2815,189.77525,133.321,192.38757 Q148.36049,194.9999,192.18672,160.5057 Q236.01294,126.01153,174.9922,73.949234 Q113.971466,21.886944,116.12648,105.83109 Q118.2815,189.77525,96.64837,173.36833 Q75.01523,156.96141,155.9044,139.702 Q236.79358,122.44258,175.59685,155.36621 Q114.400116,188.28984,86.52397,144.06682 Q58.647823,99.843796,61.375256,118.05114 Q64.102684,136.25848,105.1867,165.61543 Q146.2707,194.97238,144.45013,194.89037 Q142.62956,194.80833,186.43571,168.7341 Q230.24188,142.65985,200.02994,167.54933 Q169.81801,192.4388,196.80545,173.37189 Q223.7929,154.30498,146.0158,150.0125 Q68.238686,145.72003,109.22304,170.35191 Q150.2074,194.98381,136.24242,106.94432 Q122.27745,18.904833,139.82297,106.73341 Q157.36848,194.562,115.79391,124.37242 Q74.21933,54.18286,103.774055,123.94747 Q133.32878,193.71208,149.97833,193.43376 Q166.6279,193.15543,153.1297,193.8587 Q139.63152,194.562,177.24173,119.377785 Q214.85193,44.19358,219.32242,99.249275 Q223.7929,154.30498,151.56444,100.85866 Q79.33598,47.412334,107.026,120.67526 Q134.71602,193.93819,141.67776,194.46904 Q148.63951,194.9999,178.6924,116.56903 Q208.74529,38.138165,186.20825,115.925125 Q163.67122,193.71208,112.78609,161.60966 Q61.900955,129.50726,118.31175,74.20605 Q174.72255,18.904833,188.37938,25.779657 Q202.03621,32.654484,212.0105,94.807945 Q221.98477,156.96141,213.87956,165.69255 Q205.77434,174.4237,164.7732,182.98 Q123.77206,191.53629,91.15418,149.54617 Q58.536304,107.55605,145.49626,90.06573 Q232.4562,72.5754,177.36684,45.740116 Q122.27745,18.904833,161.8751,98.33196 Q201.47278,177.75908,196.12715,181.10445 Q190.78152,184.44981,124.64534,144.08292 Q58.50916,103.71601,100.10314,149.22926 Q141.69711,194.74252,140.66518,105.09018 Q139.63322,15.437841,172.70378,94.93077 Q205.77434,174.4237,216.48471,117.876755 Q227.19507,61.329807,148.50342,105.00616 Q69.81176,148.6825,154.13773,128.11928 Q238.4637,107.55605,193.3249,151.27776 Q148.18613,194.99945,105.0706,137.65085 Q61.95509,80.30225,66.71268,115.92354 Q71.47027,151.54482,111.39527,173.2503 Q151.32028,194.9558,171.146,110.30374 Q190.9717,25.651686,178.55519,21.198536 Q166.13869,16.745386,190.49532,30.469482 Q214.85193,44.19358,175.04073,30.08866 Q135.22952,15.98374,114.30126,96.06227 Q93.373,176.14081,152.74521,172.4013 Q212.1174,168.66182,184.2099,181.66148 Q156.30241,194.66115,194.59987,165.45982 Q232.89732,136.25848,206.76814,162.66223 Q180.63898,189.06596,163.45485,192.01918 Q146.2707,194.97238,177.08992,183.78912 Q207.90913,172.60588,133.27849,136.22484 Q58.647823,99.843796,100.638695,147.32607 Q142.62956,194.80833,115.860214,183.7071 Q89.090866,172.60588,88.03268,171.64578 Q86.97449,170.6857,118.016205,182.84198 Q149.05792,194.99828,161.89024,106.95155 Q174.72255,18.904833,201.9272,41.961754 Q229.13184,65.01868,144.34854,91.912415 Q59.565247,118.806145,64.68851,133.74432 Q69.81176,148.6825,100.09193,170.91896 Q130.3721,193.15543,143.8703,193.8587 Q157.36848,194.562,193.80519,168.61092 Q230.24188,142.65985,188.93515,168.82782 Q147.6284,194.99577,193.05963,149.3559 Q238.49084,103.71601,189.59421,149.18858 Q140.69759,194.66115,187.87125,137.4817 Q235.0449,80.30225,192.20825,137.64902 Q149.3716,194.99577,137.95587,106.35799 Q126.54016,17.720188,115.323654,100.50494 Q104.10715,183.28969,132.53313,188.71156 Q160.95909,194.13344,110.94731,139.16884 Q60.93553,84.20423,144.84842,114.962135 Q228.76132,145.72003,177.97165,169.0794 Q127.182,192.4388,172.423,119.92557 Q217.66402,47.412334,214.77058,44.255665 Q211.87714,41.099,151.70723,38.209675 Q91.53732,35.32035,100.95356,110.92194 Q110.369804,186.52354,131.53926,190.71254 Q152.70871,194.90154,183.44362,180.71735 Q214.17853,166.53316,136.62401,140.82079 Q59.06947,115.10841,108.218124,65.273125 Q157.36678,15.437841,110.955284,44.006622 Q64.543785,72.5754,100.29235,133.35443 Q136.04091,194.13344,170.7518,114.7269 Q205.46268,35.32035,148.34416,104.872025 Q91.22566,174.4237,75.091034,135.1857 Q58.9564,95.9477,109.327,145.12419 Q159.6976,194.30069,197.39833,161.90398 Q235.09904,129.50726,191.79951,162.25363 Q148.5,195,192.25647,160.50577 Q236.01294,126.01153,228.06267,142.76225 Q220.11238,159.51299,157.81981,168.63603 Q95.52722,177.75908,123.12826,186.36574 Q150.7293,194.97238,164.72389,192.37381 Q178.71849,189.77525,139.2766,185.24158 Q99.834694,180.70792,79.1855,144.13199 Q58.536304,107.55605,58.98742,99.79621 Q59.438538,92.03637,97.73972,143.08492 Q136.04091,194.13344,163.41122,189.29163 Q190.78152,184.44981,210.83371,126.61023 Q230.8859,68.77065,180.8736,42.758022 Q130.86131,16.745386,94.90886,56.346542 Q58.9564,95.9477,86.463936,58.917324 Q113.971466,21.886944,97.38448,93.09298 Q80.79751,164.29901,136.84518,173.79434 Q192.89285,183.28969,171.81107,189.13104 Q150.7293,194.97238,135.44395,192.69675 Q120.158615,190.42111,113.188545,187.43546 Q106.218475,184.44981,127.3418,189.7249 Q148.46512,195,185.22495,175.9807 Q221.98477,156.96141,146.72752,154.25311 Q71.47027,151.54482,66.22866,138.77817 Q60.987053,126.01153,65.39599,93.67067 Q69.80493,61.329807,152.45198,95.41853 Q235.09904,129.50726,176.59166,74.90128 Q118.08428,20.295313,161.77348,27.807833 Q205.46268,35.32035,196.2566,29.49737 Q187.05055,23.674387,182.98314,21.98485 Q178.91573,20.295313,203.05539,40.81256 Q227.19507,61.329807,212.18019,121.01886 Q197.16531,180.70792,195.97383,104.2601 Q194.78236,27.81229,156.43332,24.053802 Q118.08428,20.295313,100.11617,32.244446 Q82.14806,44.19358,147.13274,106.4277 Q212.1174,168.66182,157.04756,175.35258 Q101.977715,182.04335,116.174904,187.59938 Q130.3721,193.15543,127.93783,192.58392 Q125.503555,192.01244,133.10057,193.33679 Q140.69759,194.66115,187.87125,137.4817 Q235.0449,80.30225,181.11345,136.37053 Q127.182,192.4388,100.70066,123.31083 Q74.21933,54.18286,101.51238,123.50078 Q128.80544,192.8187,154.72221,190.94234 Q180.63898,189.06596,176.06772,190.5392 Q171.49644,192.01244,184.98492,111.080765 Q198.47342,30.149097,195.68314,106.71939 Q192.89285,183.28969,125.808784,147.32286 Q58.72472,111.356026,84.33709,67.515205 Q109.949455,23.674387,84.69399,57.85538 Q59.438538,92.03637,80.82809,59.92433 Q102.217636,27.81229,123.94868,111.38405 Q145.67972,194.9558,102.94307,158.69919 Q60.20642,122.44258,111.2452,158.19038 Q162.28398,193.93819,158.32721,194.37326 Q154.37044,194.80833,196.20702,145.37802 Q238.0436,95.9477,167.86324,137.61418 Q97.68286,179.28067,99.95025,103.54648 Q102.217636,27.81229,165.67474,46.41548 Q229.13184,65.01868,227.10454,61.366547 Q225.07724,57.714417,231.67625,84.53522 Q238.27528,111.356026,152.5167,127.00794 Q66.75812,142.65985,100.04345,168.18597 Q133.32878,193.71208,164.17554,187.87772 Q195.0223,182.04335,176.76137,188.24301 Q158.50046,194.44267,155.7199,104.77611 Q152.93933,15.109554,192.91832,75.68402 Q232.89732,136.25848,226.50485,147.88574 Q220.11238,159.51299,202.35524,173.47824 Q184.59808,187.44348,181.6583,188.60936 Q178.71849,189.77525,182.88452,106.724815 Q187.05055,23.674387,203.67946,37.20991 Q220.30838,50.745438,227.07541,63.584045 Q233.84245,76.42265,147.41475,101.21709 Q60.987053,126.01153,102.639175,160.45653 Q144.29129,194.90154,189.17479,163.91302 Q234.05829,132.9245,191.27914,73.96225 Q148.5,15,116.81143,28.0495 Q85.122856,41.099,116.81143,118.0495 Q148.5,195,142.9012,194.65034 Q137.3024,194.30069,187.43193,143.16853 Q237.56146,92.03637,192.40334,143.51381 Q147.24521,194.99126,165.13687,108.439095 Q183.02853,21.886944,157.45445,107.66956 Q131.88037,193.45218,142.40985,104.28087 Q152.93933,15.109554,195.70152,61.332806 Q238.4637,107.55605,205.84583,149.54617 Q173.22795,191.53629,148.5,191.53629 Q123.77206,191.53629,122.880844,191.27164 Q121.98964,191.00697,145.90382,191.72289 Q169.81801,192.4388,201.93816,162.68166 Q234.05829,132.9245,235.99442,124.01646 Q237.93053,115.10841,164.73393,75.214386 Q91.53732,35.32035,129.86594,114.06953 Q168.19456,192.8187,131.86089,185.2889 Q95.52722,177.75908,97.680954,179.2335 Q99.834694,180.70792,127.56879,187.72522 Q155.30289,194.74252,196.10275,141.43065 Q236.90263,88.11879,222.82396,63.128475 Q208.74529,38.138165,215.76299,46.16051 Q222.78067,54.18286,174.66042,35.951523 Q126.54016,17.720188,182.05081,54.87828 Q237.56146,92.03637,161.34216,66.56769 Q85.122856,41.099,135.87653,113.81127 Q186.6302,186.52354,130.82271,171.74248 Q75.01523,156.96141,119.34322,175.33675 Q163.67122,193.71208,153.58282,194.28639 Q143.49442,194.86069,103.21806,163.8926 Q62.941704,132.9245,109.62206,163.79283 Q156.30241,194.66115,147.40097,194.55191 Q138.49954,194.44267,170.26788,113.54858 Q202.03621,32.654484,195.36441,109.09061 Q188.69263,185.52672,128.2804,125.2727 Q67.86816,65.01868,113.18431,129.73067 Q158.50046,194.44267,153.65717,194.72105 Q148.81387,194.99945,169.89279,110.32557 Q190.9717,25.651686,135.15384,36.53201 Q79.33598,47.412334,158.68979,71.680016 Q238.0436,95.9477,199.50134,145.04057 Q160.95909,194.13344,199.65564,146.98862 Q238.35217,99.843796,237.20833,92.02402 Q236.06447,84.20423,230.7971,117.87453 Q225.52974,151.54482,226.359,150.11366 Q227.18823,148.6825,196.90807,170.91896 Q166.6279,193.15543,196.07881,172.35013 Q225.52974,151.54482,187.64226,173.26804 Q149.75479,194.99126,104.92608,141.55502 Q60.09737,88.11879,104.01972,141.55853 Q147.94208,194.99828,159.71925,193.50536 Q171.49644,192.01244,161.73831,193.47256 Q151.98018,194.9327,112.59364,174.61884 Q73.20711,154.30498,89.61771,89.97833 Q106.028305,25.651686,94.08818,34.922634 Q82.14806,44.19358,115.34148,119.59679 Q148.53488,195,106.956,167.25244 Q65.37712,139.50488,121.10925,164.963 Q176.84138,190.42111,144.62164,188.9323 Q112.40192,187.44348,128.2313,101.27652 Q144.06067,15.109554,180.13158,89.704285 Q216.20248,164.29901,146.44705,107.522224 Q76.69163,50.745438,68.12843,84.775795 Q59.565247,118.806145,89.86193,154.61363 Q120.158615,190.42111,90.18252,156.43184 Q60.20642,122.44258,104.51015,158.72102 Q148.81387,194.99945,118.534294,116.56881 Q88.25471,38.138165,77.50642,90.39901 Q66.75812,142.65985,109.0392,168.80783 Q151.32028,194.9558,111.62152,126.335106 Q71.92276,57.714417,145.05272,109.83669 Q218.18268,161.95897,141.14268,149.10873 Q64.102684,136.25848,125.36644,161.39102 Q186.6302,186.52354,181.7358,188.47232 Q176.84138,190.42111,127.82935,176.19003 Q78.81732,161.95897,106.76667,177.94858 Q134.71602,193.93819,141.53825,194.46904 Q148.36049,194.9999,135.17506,193.00343 Q121.98964,191.00697,152.29477,189.6484 Q182.59988,188.28984,120.55453,146.00293 Q58.50916,103.71601,148.39223,107.53602 Q238.27528,111.356026,186.75241,63.669884 Q135.22952,15.98374,108.01352,90.14138 Q80.79751,164.29901,92.45233,173.79434 Q104.10715,183.28969,106.20727,184.4082 Q108.30738,185.52672,127.967896,190.26125 Q147.6284,194.99577,147.21051,194.98979 Q146.7926,194.98381,189.20773,167.24434 Q231.62288,139.50488,163.29333,86.07968 Q94.96378,32.654484,127.330696,113.477585 Q159.6976,194.30069,109.21116,152.82835 Q58.72472,111.356026,113.45964,152.08736 Q168.19456,192.8187,138.25098,189.17271 Q108.30738,185.52672,153.81226,182.4037 Q199.31714,179.28067,141.0693,172.90692 Q82.821465,166.53316,145.3653,169.56952 Q207.90913,172.60588,198.30087,179.0663 Q188.69263,185.52672,171.0991,190.19371 Q153.50558,194.86069,151.00279,104.93034 Q148.5,15,193.49542,59.358006 Q238.49084,103.71601,200.13066,59.849876 Q161.77048,15.98374,187.9745,91.25845 Q214.17853,166.53316,225.1215,125.3687 Q236.06447,84.20423,152.9347,72.76702 Q69.80493,61.329807,153.61984,90.06798 Q237.43475,118.806145,193.59477,156.8987 Q149.75479,194.99126,107.565956,167.24806 Q65.37712,139.50488,104.718895,77.30722 Q144.06067,15.109554,105.08739,41.940105 Q66.11411,68.77065,77.602486,120.68826 Q89.090866,172.60588,143.12808,176.65689 Q197.16531,180.70792,169.43121,187.72522 Q141.69711,194.74252,151.7338,105.36314 Q161.77048,15.98374,153.39516,105.45821 Q145.01982,194.9327,172.16849,187.10667 Q199.31714,179.28067,180.80055,186.60944 Q162.28398,193.93819,138.34204,191.11401 Q114.400116,188.28984,175.65137,138.20432 Q236.90263,88.11879,150.03009,82.27072 Q63.157543,76.42265,63.850666,74.49902 Q64.543785,72.5754,102.08851,44.006622 Q139.63322,15.437841,135.75679,104.44501 Q131.88037,193.45218,138.08583,194.17686 Q144.29129,194.90154,186.5263,170.31079 Q228.76132,145.72003,219.39342,158.20287 Q210.02551,170.6857,174.82852,182.62384 Q139.63152,194.562,188.99185,147.2029 Q238.35217,99.843796,192.01595,147.3998 Q145.67972,194.9558,147.1073,194.97789 Q148.53488,195,112.71125,177.25648 Q76.88761,159.51299,127.901665,89.90415 Q178.91573,20.295313,142.5671,102.37257 Q106.218475,184.44981,158.122,177.56775 Q210.02551,170.6857,213.84476,109.04902 Q217.66402,47.412334,182.2283,121.19807 Q146.7926,194.98381,188.83925,131.87723 Q230.8859,68.77065,234.4082,91.93954 Q237.93053,115.10841,155.56882,134.7067 Q73.20711,154.30498,69.660614,111.53782 Q66.11411,68.77065,64.00753,99.138954 Q61.900955,129.50726,128.46162,155.7753 Q195.0223,182.04335,129.08992,129.233 Q63.157543,76.42265,84.592926,51.037167 Q106.028305,25.651686,91.35996,38.198563 Q76.69163,50.745438,135.737,39.278866 Q194.78236,27.81229,171.0138,111.40177 Q147.24521,194.99126,142.87238,194.71696 Q138.49954,194.44267,100.22732,137.37247 Q61.95509,80.30225,72.388275,123.41771 Q82.821465,166.53316,159.80753,144.48787 Q236.79358,122.44258,183.82745,69.59399 Q130.86131,16.745386,121.631615,102.09444 Q112.40192,187.44348,148.5,187.44348 Q184.59808,187.44348,141.14047,183.36208 Q97.68286,179.28067,136.34662,185.14383 Q175.01036,191.00697,145.6857,190.03647 Q116.36102,189.06596,159.994,182.60338 Q203.627,176.14081,187.04341,96.9305 Q170.45984,17.720188,167.78973,105.58618 Q165.11963,193.45218,121.003624,176.48259 Q76.88761,159.51299,87.7071,94.83104 Q98.52658,30.149097,125.617645,112.525314 Q152.70871,194.90154,148.10156,194.88112 Q143.49442,194.86069,101.281944,154.98456 Q59.06947,115.10841,71.976036,141.88512 Q84.8826,168.66182,116.53436,181.83063 Q148.18613,194.99945,149.19676,194.99162 Q150.2074,194.98381,190.91513,167.24434 Q231.62288,139.50488,170.99634,163.01422 Q110.369804,186.52354,165.33908,118.63449 Q220.30838,50.745438,165.1289,37.20991 Q109.949455,23.674387,100.587555,99.04904 Q91.22566,174.4237,151.5514,107.76135 Q211.87714,41.099,183.1238,117.95367 Q154.37044,194.80833,108.656075,163.86642 Q62.941704,132.9245,61.938618,108.56437 Q60.93553,84.20423,81.45662,133.1238 Q101.977715,182.04335,125.67465,188.51956 Q149.3716,194.99577,123.94909,112.57244 Q98.52658,30.149097,95.94979,103.14495 Q93.373,176.14081,111.08922,184.47975 Q128.80544,192.8187,175.79306,123.50078 Q222.78067,54.18286,155.51768,46.16051 Q88.25471,38.138165,74.17604,63.128475 Q60.09737,88.11879,115.2786,52.919487 Q170.45984,17.720188,161.22,106.32644 Q151.98018,194.9327,153.64153,194.8376 Q155.30289,194.74252,196.36882,156.77434 Q237.43475,118.806145,227.80872,140.38255 Q218.18268,161.95897,221.62996,109.83669 Q225.07724,57.714417,187.06758,126.356346 Q149.05792,194.99828,165.8289,191.64406 Q182.59988,188.28984,174.3693,102.51762" fill="none" stroke="deepskyblue" stroke-width="0.5" style="mix-blend-mode: multiply;"/>
<g inkscape:groupmode="layer" inkscape:label="signature">
<path d="m 15.815664,12.893319 c -1.445284,-3.0999497 -5.555449,-0.3575 -5.08537,2.32203 1.697826,2.92736 4.504013,-3.54417 4.40859,-2.58178 -1.548999,2.22986 0.741131,6.08701 3.012419,3.25791 2.532153,-2.82358 0.259001,-7.8326797 -3.488671,-7.9011197 -3.217272,0.056 -5.8863857,2.4603197 -7.9308737,4.7238797 -2.354585,2.46752 0.0048,5.887 2.757763,6.62143 3.2195457,1.10867 6.8759417,1.30834 9.9459317,-0.36585 2.270396,-1.12373 5.025949,-2.62031 5.680576,-5.20027 -2.108811,-3.66096 -6.038415,1.28356 -3.842036,3.67822 1.07278,0.89979 4.586982,-2.27037 3.201668,-2.73503 0.03094,3.24357 1.226854,6.37852 1.337023,9.60311 -0.672198,3.54892 -7.469251,0.32096 -4.637082,-2.5164 2.158436,-2.4193 5.610472,-2.84094 8.202925,-4.57369 0.993877,-1.40371 0.353413,-5.25046 3.182464,-3.48957 2.142923,1.43516 -2.250898,5.7532 1.723416,5.02339 1.661189,-0.71663 6.494946,-1.40457 4.601401,-3.95236 -4.205319,-0.68052 -1.190571,5.86505 1.665411,3.46881 1.929752,-0.9247 2.778055,-4.05119 1.423645,-5.35034 0.479155,1.8589 3.849911,7.52574 4.880369,3.32696 0.21201,-1.28088 0.40468,-3.80204 1.01246,-1.23041 0.5858,2.6865 3.83412,4.91909 4.56937,1.07383 0.65272,-1.00894 -0.2696,-4.02739 0.99929,-1.35746 1.10974,2.31613 6.32001,1.46113 6.147,-1.13059 -1.98394,-2.13868 -5.3717,1.45205 -3.78252,3.73454 2.57741,0.96208 6.69797,-0.21041 7.06275,-3.33983 0.41287,-2.63769 0.26643,-5.3430297 -0.11178,-7.9756197 0.67418,3.94149 1.24889,7.9380497 2.39963,11.7713397 2.10586,1.67977 5.7434,1.65022 7.74596,-0.23639 3.03149,-1.85431 -0.26637,-4.76925 -2.71777,-4.54025 -2.11577,0.0793 -5.36257,2.40772 -5.16868,3.85604 2.08262,-2.38818 5.55759,-1.22628 8.30726,-1.6832 3.182,-0.26596 6.46546,-0.57372 9.54494,-1.18158 0.24171,0.4199 -0.27752,0.54338 -0.43067,0.17453" fill="none" stroke="deepskyblue" stroke-width="1" transform="translate(187,185) scale(0.3)"/>
</g>
</g>
</svg>