<svg height="297mm" style="background:white" viewBox="0 0 210 297" width="210mm" xmlns="http://www.w3.org/2000/svg" xmlns:inkscape="http://www.inkscape.org/namespaces/inkscape">
<g inkscape:groupmode="layer" inkscape:label="black">
<path d="M105,40 Q105,40,162.19275,31.747393 Q219.3855,23.494785,105,33.165985 Q-9.385491,42.83719,64.43819,35.324818 Q138.26186,27.812449,105,35.887257 Q71.73814,43.962067,100.022675,51.116894 Q128.3072,58.271717,105,48.883923 Q81.692795,39.49613,113.7382,44.713444 Q145.7836,49.930756,105,32.767532 Q64.2164,15.60431,157.65994,18.699839 Q251.10347,21.795366,105,19.992342 Q-41.10347,18.189318,70.02765,18.057337 Q181.15878,17.925356,105,30.708464 Q28.841225,43.49157,100.488945,44.937164 Q172.13667,46.382755,105,28.394392 Q37.86333,10.406027,138.59442,17.519096 Q239.32552,24.632166,105,35.74726 Q-29.325508,46.862354,54.499855,52.650425 Q138.32521,58.43849,105,37.69774 Q71.67478,16.956985,155.51357,36.4425 Q239.35236,55.92802,105,51.471252 Q-29.352356,47.014484,90.59008,50.47288 Q210.53252,53.931274,105,38.67015 Q-0.53252333,23.409023,117.69409,35.330177 Q235.9207,47.251328,105,31.533434 Q-25.920702,15.815539,102.01852,31.638252 Q229.95773,47.460968,105,45.636986 Q-19.957731,43.813004,111.608826,37.457474 Q243.17538,31.101944,105,21.773914 Q-33.17538,12.445885,48.30552,39.950146 Q129.78642,67.45441,105,54.59048 Q80.21358,41.72655,134.97702,31.530714 Q189.74046,21.334875,105,40.52445 Q20.25953,59.714024,114.555145,51.591915 Q208.85077,43.469803,105,36.316437 Q1.1492357,29.163069,74.15345,26.150764 Q147.15767,23.13846,105,29.666119 Q62.842335,36.193775,153.34996,42.09057 Q243.85759,47.987362,105,32.108402 Q-33.857582,16.229445,47.752274,28.753366 Q129.36212,41.277287,105,32.188625 Q80.63787,23.09996,92.81894,31.54998 Q105,40,105,42.5 Q105,45,162.19275,36.74739 Q219.3855,28.494785,105,38.165985 Q-9.385491,47.83719,64.43819,40.324818 Q138.26186,32.812447,105,40.887257 Q71.73814,48.962067,100.022675,56.116894 Q128.3072,63.271717,105,53.883923 Q81.692795,44.49613,113.7382,49.713444 Q145.7836,54.930756,105,37.767532 Q64.2164,20.60431,157.65994,23.699839 Q251.10347,26.795366,105,24.992342 Q-41.10347,23.189318,70.02765,23.057337 Q181.15878,22.925356,105,35.70846 Q28.841225,48.49157,100.488945,49.937164 Q172.13667,51.382755,105,33.39439 Q37.86333,15.406027,138.59442,22.519096 Q239.32552,29.632166,105,40.74726 Q-29.325508,51.862354,54.499855,57.650425 Q138.32521,63.43849,105,42.69774 Q71.67478,21.956985,155.51357,41.4425 Q239.35236,60.92802,105,56.471252 Q-29.352356,52.014484,90.59008,55.47288 Q210.53252,58.931274,105,43.67015 Q-0.53252333,28.409023,117.69409,40.330177 Q235.9207,52.251328,105,36.533432 Q-25.920702,20.815538,102.01852,36.638252 Q229.95773,52.460968,105,50.636986 Q-19.957731,48.813004,111.608826,42.457474 Q243.17538,36.101944,105,26.773914 Q-33.17538,17.445885,48.30552,44.950146 Q129.78642,72.45441,105,59.59048 Q80.21358,46.72655,134.97702,36.530712 Q189.74046,26.334875,105,45.52445 Q20.25953,64.71403,114.555145,56.591915 Q208.85077,48.469803,105,41.316437 Q1.1492357,34.163067,74.15345,31.150764 Q147.15767,28.13846,105,34.66612 Q62.842335,41.193775,153.34996,47.09057 Q243.85759,52.987362,105,37.108402 Q-33.857582,21.229445,47.752274,33.753365 Q129.36212,46.277287,105,37.188625 Q80.63787,28.09996,92.81894,36.54998 Q105,45,105,47.5 Q105,50,162.19275,41.74739 Q219.3855,33.494785,105,43.165985 Q-9.385491,52.83719,64.43819,45.324818 Q138.26186,37.812447,105,45.887257 Q71.73814,53.962067,100.022675,61.116894 Q128.3072,68.27171,105,58.883923 Q81.692795,49.49613,113.7382,54.713444 Q145.7836,59.930756,105,42.767532 Q64.2164,25.60431,157.65994,28.699839 Q251.10347,31.795366,105,29.992342 Q-41.10347,28.189318,70.02765,28.057337 Q181.15878,27.925356,105,40.70846 Q28.841225,53.49157,100.488945,54.937164 Q172.13667,56.382755,105,38.39439 Q37.86333,20.406027,138.59442,27.519096 Q239.32552,34.632168,105,45.74726 Q-29.325508,56.862354,54.499855,62.650425 Q138.32521,68.43849,105,47.69774 Q71.67478,26.956985,155.51357,46.4425 Q239.35236,65.92802,105,61.471252 Q-29.352356,57.014484,90.59008,60.47288 Q210.53252,63.931274,105,48.67015 Q-0.53252333,33.409023,117.69409,45.330177 Q235.9207,57.251328,105,41.533432 Q-25.920702,25.815538,102.01852,41.638252 Q229.95773,57.460968,105,55.636986 Q-19.957731,53.813004,111.608826,47.457474 Q243.17538,41.101944,105,31.773914 Q-33.17538,22.445885,48.30552,49.950146 Q129.78642,77.45441,105,64.590485 Q80.21358,51.72655,134.97702,41.530712 Q189.74046,31.334875,105,50.52445 Q20.25953,69.71403,114.555145,61.591915 Q208.85077,53.469803,105,46.316437 Q1.1492357,39.163067,74.15345,36.150764 Q147.15767,33.13846,105,39.66612 Q62.842335,46.193775,153.34996,52.09057 Q243.85759,57.987362,105,42.108402 Q-33.857582,26.229445,47.752274,38.753365 Q129.36212,51.277287,105,42.188625 Q80.63787,33.09996,92.81894,41.54998 Q105,50,105,52.5 Q105,55,162.19275,46.74739 Q219.3855,38.494785,105,48.165985 Q-9.385491,57.83719,64.43819,50.324818 Q138.26186,42.812447,105,50.887257 Q71.73814,58.962067,100.022675,66.11689 Q128.3072,73.27171,105,63.883923 Q81.692795,54.49613,113.7382,59.713444 Q145.7836,64.930756,105,47.767532 Q64.2164,30.60431,157.65994,33.699837 Q251.10347,36.79537,105,34.992344 Q-41.10347,33.18932,70.02765,33.05734 Q181.15878,32.925358,105,45.70846 Q28.841225,58.49157,100.488945,59.937164 Q172.13667,61.382755,105,43.39439 Q37.86333,25.406027,138.59442,32.519096 Q239.32552,39.632168,105,50.74726 Q-29.325508,61.862354,54.499855,67.65042 Q138.32521,73.43849,105,52.69774 Q71.67478,31.956985,155.51357,51.4425 Q239.35236,70.92802,105,66.47125 Q-29.352356,62.014484,90.59008,65.47288 Q210.53252,68.931274,105,53.67015 Q-0.53252333,38.409023,117.69409,50.330177 Q235.9207,62.251328,105,46.533432 Q-25.920702,30.815538,102.01852,46.638252 Q229.95773,62.460968,105,60.636986 Q-19.957731,58.813004,111.608826,52.457474 Q243.17538,46.101944,105,36.773914 Q-33.17538,27.445885,48.30552,54.950146 Q129.78642,82.45441,105,69.590485 Q80.21358,56.72655,134.97702,46.530712 Q189.74046,36.334877,105,55.52445 Q20.25953,74.71403,114.555145,66.59191 Q208.85077,58.469803,105,51.316437 Q1.1492357,44.163067,74.15345,41.150764 Q147.15767,38.13846,105,44.66612 Q62.842335,51.193775,153.34996,57.09057 Q243.85759,62.987362,105,47.108402 Q-33.857582,31.229445,47.752274,43.753365 Q129.36212,56.277287,105,47.188625 Q80.63787,38.09996,92.81894,46.54998 Q105,55,105,57.5 Q105,60,162.19275,51.74739 Q219.3855,43.494785,105,53.165985 Q-9.385491,62.83719,64.43819,55.324818 Q138.26186,47.812447,105,55.887257 Q71.73814,63.962067,100.022675,71.11689 Q128.3072,78.27171,105,68.88393 Q81.692795,59.49613,113.7382,64.71345 Q145.7836,69.930756,105,52.767532 Q64.2164,35.60431,157.65994,38.699837 Q251.10347,41.79537,105,39.992344 Q-41.10347,38.18932,70.02765,38.05734 Q181.15878,37.925358,105,50.70846 Q28.841225,63.49157,100.488945,64.937164 Q172.13667,66.38276,105,48.39439 Q37.86333,30.406027,138.59442,37.519096 Q239.32552,44.632168,105,55.74726 Q-29.325508,66.86236,54.499855,72.65042 Q138.32521,78.43849,105,57.69774 Q71.67478,36.956985,155.51357,56.4425 Q239.35236,75.92802,105,71.47125 Q-29.352356,67.01448,90.59008,70.47288 Q210.53252,73.931274,105,58.67015 Q-0.53252333,43.409023,117.69409,55.330177 Q235.9207,67.25133,105,51.533432 Q-25.920702,35.81554,102.01852,51.638252 Q229.95773,67.46097,105,65.636986 Q-19.957731,63.813004,111.608826,57.457474 Q243.17538,51.101944,105,41.773914 Q-33.17538,32.445885,48.30552,59.950146 Q129.78642,87.45441,105,74.590485 Q80.21358,61.72655,134.97702,51.530712 Q189.74046,41.334877,105,60.52445 Q20.25953,79.71403,114.555145,71.59191 Q208.85077,63.469803,105,56.316437 Q1.1492357,49.163067,74.15345,46.150764 Q147.15767,43.13846,105,49.66612 Q62.842335,56.193775,153.34996,62.09057 Q243.85759,67.987366,105,52.108402 Q-33.857582,36.229443,47.752274,48.753365 Q129.36212,61.277287,105,52.188625 Q80.63787,43.09996,92.81894,51.54998 Q105,60,105,62.5 Q105,65,162.19275,56.74739 Q219.3855,48.494785,105,58.165985 Q-9.385491,67.83719,64.43819,60.324818 Q138.26186,52.812447,105,60.887257 Q71.73814,68.96207,100.022675,76.11689 Q128.3072,83.27171,105,73.88393 Q81.692795,64.49613,113.7382,69.71345 Q145.7836,74.930756,105,57.767532 Q64.2164,40.60431,157.65994,43.699837 Q251.10347,46.79537,105,44.992344 Q-41.10347,43.18932,70.02765,43.05734 Q181.15878,42.925358,105,55.70846 Q28.841225,68.49157,100.488945,69.937164 Q172.13667,71.38276,105,53.39439 Q37.86333,35.40603,138.59442,42.519096 Q239.32552,49.632168,105,60.74726 Q-29.325508,71.86236,54.499855,77.65042 Q138.32521,83.43849,105,62.69774 Q71.67478,41.956985,155.51357,61.4425 Q239.35236,80.92802,105,76.47125 Q-29.352356,72.01448,90.59008,75.47288 Q210.53252,78.931274,105,63.67015 Q-0.53252333,48.409023,117.69409,60.330177 Q235.9207,72.25133,105,56.533432 Q-25.920702,40.81554,102.01852,56.638252 Q229.95773,72.46097,105,70.636986 Q-19.957731,68.813,111.608826,62.457474 Q243.17538,56.101944,105,46.773914 Q-33.17538,37.445885,48.30552,64.95015 Q129.78642,92.45441,105,79.590485 Q80.21358,66.726555,134.97702,56.530712 Q189.74046,46.334877,105,65.52445 Q20.25953,84.71403,114.555145,76.59191 Q208.85077,68.4698,105,61.316437 Q1.1492357,54.163067,74.15345,51.150764 Q147.15767,48.13846,105,54.66612 Q62.842335,61.193775,153.34996,67.09057 Q243.85759,72.987366,105,57.108402 Q-33.857582,41.229443,47.752274,53.753365 Q129.36212,66.27729,105,57.188625 Q80.63787,48.09996,92.81894,56.54998 Q105,65,105,67.5 Q105,70,162.19275,61.74739 Q219.3855,53.494785,105,63.165985 Q-9.385491,72.83719,64.43819,65.324814 Q138.26186,57.812447,105,65.88726 Q71.73814,73.96207,100.022675,81.11689 Q128.3072,88.27171,105,78.88393 Q81.692795,69.49613,113.7382,74.71345 Q145.7836,79.930756,105,62.767532 Q64.2164,45.60431,157.65994,48.699837 Q251.10347,51.79537,105,49.992344 Q-41.10347,48.18932,70.02765,48.05734 Q181.15878,47.925358,105,60.70846 Q28.841225,73.49157,100.488945,74.937164 Q172.13667,76.38276,105,58.39439 Q37.86333,40.40603,138.59442,47.519096 Q239.32552,54.632168,105,65.74726 Q-29.325508,76.86236,54.499855,82.65042 Q138.32521,88.43849,105,67.69774 Q71.67478,46.956985,155.51357,66.442505 Q239.35236,85.92802,105,81.47125 Q-29.352356,77.01448,90.59008,80.47288 Q210.53252,83.931274,105,68.67015 Q-0.53252333,53.409023,117.69409,65.33018 Q235.9207,77.25133,105,61.533432 Q-25.920702,45.81554,102.01852,61.638252 Q229.95773,77.46097,105,75.636986 Q-19.957731,73.813,111.608826,67.45747 Q243.17538,61.101944,105,51.773914 Q-33.17538,42.445885,48.30552,69.95015 Q129.78642,97.45441,105,84.590485 Q80.21358,71.726555,134.97702,61.530712 Q189.74046,51.334877,105,70.52445 Q20.25953,89.71403,114.555145,81.59191 Q208.85077,73.4698,105,66.31644 Q1.1492357,59.163067,74.15345,56.150764 Q147.15767,53.13846,105,59.66612 Q62.842335,66.19378,153.34996,72.09057 Q243.85759,77.987366,105,62.108402 Q-33.857582,46.229443,47.752274,58.753365 Q129.36212,71.27729,105,62.188625 Q80.63787,53.09996,92.81894,61.54998 Q105,70,105,72.5 Q105,75,162.19275,66.74739 Q219.3855,58.494785,105,68.165985 Q-9.385491,77.83719,64.43819,70.324814 Q138.26186,62.812447,105,70.88726 Q71.73814,78.96207,100.022675,86.11689 Q128.3072,93.27171,105,83.88393 Q81.692795,74.49613,113.7382,79.71345 Q145.7836,84.930756,105,67.76753 Q64.2164,50.60431,157.65994,53.699837 Q251.10347,56.79537,105,54.992344 Q-41.10347,53.18932,70.02765,53.05734 Q181.15878,52.925358,105,65.708466 Q28.841225,78.49157,100.488945,79.937164 Q172.13667,81.38276,105,63.39439 Q37.86333,45.40603,138.59442,52.519096 Q239.32552,59.632168,105,70.74726 Q-29.325508,81.86236,54.499855,87.65042 Q138.32521,93.43849,105,72.69774 Q71.67478,51.956985,155.51357,71.442505 Q239.35236,90.92802,105,86.47125 Q-29.352356,82.01448,90.59008,85.47288 Q210.53252,88.931274,105,73.67015 Q-0.53252333,58.409023,117.69409,70.33018 Q235.9207,82.25133,105,66.53343 Q-25.920702,50.81554,102.01852,66.63825 Q229.95773,82.46097,105,80.636986 Q-19.957731,78.813,111.608826,72.45747 Q243.17538,66.101944,105,56.773914 Q-33.17538,47.445885,48.30552,74.95015 Q129.78642,102.45441,105,89.590485 Q80.21358,76.726555,134.97702,66.530716 Q189.74046,56.334877,105,75.52445 Q20.25953,94.71403,114.555145,86.59191 Q208.85077,78.4698,105,71.31644 Q1.1492357,64.16307,74.15345,61.150764 Q147.15767,58.13846,105,64.666115 Q62.842335,71.19378,153.34996,77.09057 Q243.85759,82.987366,105,67.108406 Q-33.857582,51.229443,47.752274,63.753365 Q129.36212,76.27729,105,67.18862 Q80.63787,58.09996,92.81894,66.54998 Q105,75,105,77.5 Q105,80,162.19275,71.74739 Q219.3855,63.494785,105,73.165985 Q-9.385491,82.83719,64.43819,75.324814 Q138.26186,67.81245,105,75.88726 Q71.73814,83.96207,100.022675,91.11689 Q128.3072,98.27171,105,88.88393 Q81.692795,79.49613,113.7382,84.71345 Q145.7836,89.930756,105,72.76753 Q64.2164,55.60431,157.65994,58.699837 Q251.10347,61.79537,105,59.992344 Q-41.10347,58.18932,70.02765,58.05734 Q181.15878,57.925358,105,70.708466 Q28.841225,83.49157,100.488945,84.937164 Q172.13667,86.38276,105,68.394394 Q37.86333,50.40603,138.59442,57.519096 Q239.32552,64.632164,105,75.74726 Q-29.325508,86.86236,54.499855,92.65042 Q138.32521,98.43849,105,77.69774 Q71.67478,56.956985,155.51357,76.442505 Q239.35236,95.92802,105,91.47125 Q-29.352356,87.01448,90.59008,90.47288 Q210.53252,93.931274,105,78.67015 Q-0.53252333,63.409023,117.69409,75.33018 Q235.9207,87.25133,105,71.53343 Q-25.920702,55.81554,102.01852,71.63825 Q229.95773,87.46097,105,85.636986 Q-19.957731,83.813,111.608826,77.45747 Q243.17538,71.101944,105,61.773914 Q-33.17538,52.445885,48.30552,79.95015 Q129.78642,107.45441,105,94.590485 Q80.21358,81.726555,134.97702,71.530716 Q189.74046,61.334877,105,80.52445 Q20.25953,99.71403,114.555145,91.59191 Q208.85077,83.4698,105,76.31644 Q1.1492357,69.16307,74.15345,66.150764 Q147.15767,63.13846,105,69.666115 Q62.842335,76.19378,153.34996,82.09057 Q243.85759,87.987366,105,72.108406 Q-33.857582,56.229443,47.752274,68.753365 Q129.36212,81.27729,105,72.18862 Q80.63787,63.09996,92.81894,71.54998 Q105,80,105,82.5 Q105,85,162.19275,76.74739 Q219.3855,68.49478,105,78.165985 Q-9.385491,87.83719,64.43819,80.324814 Q138.26186,72.81245,105,80.88726 Q71.73814,88.96207,100.022675,96.11689 Q128.3072,103.27171,105,93.88393 Q81.692795,84.49613,113.7382,89.71345 Q145.7836,94.930756,105,77.76753 Q64.2164,60.60431,157.65994,63.699837 Q251.10347,66.795364,105,64.99234 Q-41.10347,63.18932,70.02765,63.05734 Q181.15878,62.925358,105,75.708466 Q28.841225,88.49157,100.488945,89.937164 Q172.13667,91.38276,105,73.394394 Q37.86333,55.40603,138.59442,62.519096 Q239.32552,69.632164,105,80.74726 Q-29.325508,91.86236,54.499855,97.65042 Q138.32521,103.43849,105,82.69774 Q71.67478,61.956985,155.51357,81.442505 Q239.35236,100.92802,105,96.47125 Q-29.352356,92.01448,90.59008,95.47288 Q210.53252,98.931274,105,83.67015 Q-0.53252333,68.40903,117.69409,80.33018 Q235.9207,92.25133,105,76.53343 Q-25.920702,60.81554,102.01852,76.63825 Q229.95773,92.46097,105,90.636986 Q-19.957731,88.813,111.608826,82.45747 Q243.17538,76.101944,105,66.77391 Q-33.17538,57.445885,48.30552,84.95015 Q129.78642,112.45441,105,99.590485 Q80.21358,86.726555,134.97702,76.530716 Q189.74046,66.33488,105,85.52445 Q20.25953,104.71403,114.555145,96.59191 Q208.85077,88.4698,105,81.31644 Q1.1492357,74.16307,74.15345,71.150764 Q147.15767,68.13846,105,74.666115 Q62.842335,81.19378,153.34996,87.09057 Q243.85759,92.987366,105,77.108406 Q-33.857582,61.229443,47.752274,73.753365 Q129.36212,86.27729,105,77.18862 Q80.63787,68.09996,92.81894,76.54998 Q105,85,105,87.5 Q105,90,162.19275,81.74739 Q219.3855,73.49478,105,83.165985 Q-9.385491,92.83719,64.43819,85.324814 Q138.26186,77.81245,105,85.88726 Q71.73814,93.96207,100.022675,101.11689 Q128.3072,108.27171,105,98.88393 Q81.692795,89.49613,113.7382,94.71345 Q145.7836,99.930756,105,82.76753 Q64.2164,65.60431,157.65994,68.69984 Q251.10347,71.795364,105,69.99234 Q-41.10347,68.189316,70.02765,68.057335 Q181.15878,67.925354,105,80.708466 Q28.841225,93.49157,100.488945,94.937164 Q172.13667,96.38276,105,78.394394 Q37.86333,60.40603,138.59442,67.5191 Q239.32552,74.632164,105,85.74726 Q-29.325508,96.86236,54.499855,102.65042 Q138.32521,108.43849,105,87.69774 Q71.67478,66.956985,155.51357,86.442505 Q239.35236,105.92802,105,101.47125 Q-29.352356,97.01448,90.59008,100.47288 Q210.53252,103.931274,105,88.67015 Q-0.53252333,73.40903,117.69409,85.33018 Q235.9207,97.25133,105,81.53343 Q-25.920702,65.81554,102.01852,81.63825 Q229.95773,97.46097,105,95.636986 Q-19.957731,93.813,111.608826,87.45747 Q243.17538,81.101944,105,71.77391 Q-33.17538,62.445885,48.30552,89.95015 Q129.78642,117.45441,105,104.590485 Q80.21358,91.726555,134.97702,81.530716 Q189.74046,71.33488,105,90.52445 Q20.25953,109.71403,114.555145,101.59191 Q208.85077,93.4698,105,86.31644 Q1.1492357,79.16307,74.15345,76.150764 Q147.15767,73.13846,105,79.666115 Q62.842335,86.19378,153.34996,92.09057 Q243.85759,97.987366,105,82.108406 Q-33.857582,66.22945,47.752274,78.753365 Q129.36212,91.27729,105,82.18862 Q80.63787,73.09996,92.81894,81.54998 Q105,90,105,92.5 Q105,95,162.19275,86.74739 Q219.3855,78.49478,105,88.165985 Q-9.385491,97.83719,64.43819,90.324814 Q138.26186,82.81245,105,90.88726 Q71.73814,98.96207,100.022675,106.11689 Q128.3072,113.27171,105,103.88393 Q81.692795,94.49613,113.7382,99.71345 Q145.7836,104.930756,105,87.76753 Q64.2164,70.60431,157.65994,73.69984 Q251.10347,76.795364,105,74.99234 Q-41.10347,73.189316,70.02765,73.057335 Q181.15878,72.925354,105,85.708466 Q28.841225,98.49157,100.488945,99.937164 Q172.13667,101.38276,105,83.394394 Q37.86333,65.40603,138.59442,72.5191 Q239.32552,79.632164,105,90.74726 Q-29.325508,101.86236,54.499855,107.65042 Q138.32521,113.43849,105,92.69774 Q71.67478,71.956985,155.51357,91.442505 Q239.35236,110.92802,105,106.47125 Q-29.352356,102.01448,90.59008,105.47288 Q210.53252,108.931274,105,93.67015 Q-0.53252333,78.40903,117.69409,90.33018 Q235.9207,102.25133,105,86.53343 Q-25.920702,70.81554,102.01852,86.63825 Q229.95773,102.46097,105,100.636986 Q-19.957731,98.813,111.608826,92.45747 Q243.17538,86.101944,105,76.77391 Q-33.17538,67.445885,48.30552,94.95015 Q129.78642,122.45441,105,109.590485 Q80.21358,96.726555,134.97702,86.530716 Q189.74046,76.33488,105,95.52445 Q20.25953,114.71403,114.555145,106.59191 Q208.85077,98.4698,105,91.31644 Q1.1492357,84.16307,74.15345,81.150764 Q147.15767,78.13846,105,84.666115 Q62.842335,91.19378,153.34996,97.09057 Q243.85759,102.987366,105,87.108406 Q-33.857582,71.22945,47.752274,83.753365 Q129.36212,96.27729,105,87.18862 Q80.63787,78.09996,92.81894,86.54998 Q105,95,105,97.5 Q105,100,162.19275,91.74739 Q219.3855,83.49478,105,93.165985 Q-9.385491,102.83719,64.43819,95.324814 Q138.26186,87.81245,105,95.88726 Q71.73814,103.96207,100.022675,111.11689 Q128.3072,118.27171,105,108.88393 Q81.692795,99.49613,113.7382,104.71345 Q145.7836,109.930756,105,92.76753 Q64.2164,75.60431,157.65994,78.69984 Q251.10347,81.795364,105,79.99234 Q-41.10347,78.189316,70.02765,78.057335 Q181.15878,77.925354,105,90.708466 Q28.841225,103.49157,100.488945,104.937164 Q172.13667,106.38276,105,88.394394 Q37.86333,70.40603,138.59442,77.5191 Q239.32552,84.632164,105,95.74726 Q-29.325508,106.86236,54.499855,112.65042 Q138.32521,118.43849,105,97.69774 Q71.67478,76.956985,155.51357,96.442505 Q239.35236,115.92802,105,111.47125 Q-29.352356,107.01448,90.59008,110.47288 Q210.53252,113.931274,105,98.67015 Q-0.53252333,83.40903,117.69409,95.33018 Q235.9207,107.25133,105,91.53343 Q-25.920702,75.81554,102.01852,91.63825 Q229.95773,107.46097,105,105.636986 Q-19.957731,103.813,111.608826,97.45747 Q243.17538,91.101944,105,81.77391 Q-33.17538,72.445885,48.30552,99.95015 Q129.78642,127.45441,105,114.590485 Q80.21358,101.726555,134.97702,91.530716 Q189.74046,81.33488,105,100.52445 Q20.25953,119.71403,114.555145,111.59191 Q208.85077,103.4698,105,96.31644 Q1.1492357,89.16307,74.15345,86.150764 Q147.15767,83.13846,105,89.666115 Q62.842335,96.19378,153.34996,102.09057 Q243.85759,107.987366,105,92.108406 Q-33.857582,76.22945,47.752274,88.753365 Q129.36212,101.27729,105,92.18862 Q80.63787,83.09996,92.81894,91.54998 Q105,100,105,102.5 Q105,105,162.19275,96.74739 Q219.3855,88.49478,105,98.165985 Q-9.385491,107.83719,64.43819,100.324814 Q138.26186,92.81245,105,100.88726 Q71.73814,108.96207,100.022675,116.11689 Q128.3072,123.27171,105,113.88393 Q81.692795,104.49613,113.7382,109.71345 Q145.7836,114.930756,105,97.76753 Q64.2164,80.60431,157.65994,83.69984 Q251.10347,86.795364,105,84.99234 Q-41.10347,83.189316,70.02765,83.057335 Q181.15878,82.925354,105,95.708466 Q28.841225,108.49157,100.488945,109.937164 Q172.13667,111.38276,105,93.394394 Q37.86333,75.40603,138.59442,82.5191 Q239.32552,89.632164,105,100.74726 Q-29.325508,111.86236,54.499855,117.65042 Q138.32521,123.43849,105,102.69774 Q71.67478,81.956985,155.51357,101.442505 Q239.35236,120.92802,105,116.47125 Q-29.352356,112.01448,90.59008,115.47288 Q210.53252,118.931274,105,103.67015 Q-0.53252333,88.40903,117.69409,100.33018 Q235.9207,112.25133,105,96.53343 Q-25.920702,80.81554,102.01852,96.63825 Q229.95773,112.46097,105,110.636986 Q-19.957731,108.813,111.608826,102.45747 Q243.17538,96.101944,105,86.77391 Q-33.17538,77.445885,48.30552,104.95015 Q129.78642,132.4544,105,119.590485 Q80.21358,106.726555,134.97702,96.530716 Q189.74046,86.33488,105,105.52445 Q20.25953,124.71403,114.555145,116.59191 Q208.85077,108.4698,105,101.31644 Q1.1492357,94.16307,74.15345,91.150764 Q147.15767,88.13846,105,94.666115 Q62.842335,101.19378,153.34996,107.09057 Q243.85759,112.987366,105,97.108406 Q-33.857582,81.22945,47.752274,93.753365 Q129.36212,106.27729,105,97.18862 Q80.63787,88.09996,92.81894,96.54998 Q105,105,105,107.5 Q105,110,162.19275,101.74739 Q219.3855,93.49478,105,103.165985 Q-9.385491,112.83719,64.43819,105.324814 Q138.26186,97.81245,105,105.88726 Q71.73814,113.96207,100.022675,121.11689 Q128.3072,128.27171,105,118.88393 Q81.692795,109.49613,113.7382,114.71345 Q145.7836,119.930756,105,102.76753 Q64.2164,85.60431,157.65994,88.69984 Q251.10347,91.795364,105,89.99234 Q-41.10347,88.189316,70.02765,88.057335 Q181.15878,87.925354,105,100.708466 Q28.841225,113.49157,100.488945,114.937164 Q172.13667,116.38276,105,98.394394 Q37.86333,80.40603,138.59442,87.5191 Q239.32552,94.632164,105,105.74726 Q-29.325508,116.86236,54.499855,122.65042 Q138.32521,128.43849,105,107.69774 Q71.67478,86.956985,155.51357,106.442505 Q239.35236,125.92802,105,121.47125 Q-29.352356,117.01448,90.59008,120.47288 Q210.53252,123.931274,105,108.67015 Q-0.53252333,93.40903,117.69409,105.33018 Q235.9207,117.25133,105,101.53343 Q-25.920702,85.81554,102.01852,101.63825 Q229.95773,117.46097,105,115.636986 Q-19.957731,113.813,111.608826,107.45747 Q243.17538,101.101944,105,91.77391 Q-33.17538,82.445885,48.30552,109.95015 Q129.78642,137.4544,105,124.590485 Q80.21358,111.726555,134.97702,101.530716 Q189.74046,91.33488,105,110.52445 Q20.25953,129.71402,114.555145,121.59191 Q208.85077,113.4698,105,106.31644 Q1.1492357,99.16307,74.15345,96.150764 Q147.15767,93.13846,105,99.666115 Q62.842335,106.19378,153.34996,112.09057 Q243.85759,117.987366,105,102.108406 Q-33.857582,86.22945,47.752274,98.753365 Q129.36212,111.27729,105,102.18862 Q80.63787,93.09996,92.81894,101.54998 Q105,110,105,112.5 Q105,115,162.19275,106.74739 Q219.3855,98.49478,105,108.165985 Q-9.385491,117.83719,64.43819,110.324814 Q138.26186,102.81245,105,110.88726 Q71.73814,118.96207,100.022675,126.11689 Q128.3072,133.27171,105,123.88393 Q81.692795,114.49613,113.7382,119.71345 Q145.7836,124.930756,105,107.76753 Q64.2164,90.60431,157.65994,93.69984 Q251.10347,96.795364,105,94.99234 Q-41.10347,93.189316,70.02765,93.057335 Q181.15878,92.925354,105,105.708466 Q28.841225,118.49157,100.488945,119.937164 Q172.13667,121.38276,105,103.394394 Q37.86333,85.40603,138.59442,92.5191 Q239.32552,99.632164,105,110.74726 Q-29.325508,121.86236,54.499855,127.65042 Q138.32521,133.43849,105,112.69774 Q71.67478,91.956985,155.51357,111.442505 Q239.35236,130.92802,105,126.47125 Q-29.352356,122.01448,90.59008,125.47288 Q210.53252,128.93127,105,113.67015 Q-0.53252333,98.40903,117.69409,110.33018 Q235.9207,122.25133,105,106.53343 Q-25.920702,90.81554,102.01852,106.63825 Q229.95773,122.46097,105,120.636986 Q-19.957731,118.813,111.608826,112.45747 Q243.17538,106.101944,105,96.77391 Q-33.17538,87.445885,48.30552,114.95015 Q129.78642,142.4544,105,129.59048 Q80.21358,116.726555,134.97702,106.530716 Q189.74046,96.33488,105,115.52445 Q20.25953,134.71402,114.555145,126.59191 Q208.85077,118.4698,105,111.31644 Q1.1492357,104.16307,74.15345,101.150764 Q147.15767,98.13846,105,104.666115 Q62.842335,111.19378,153.34996,117.09057 Q243.85759,122.987366,105,107.108406 Q-33.857582,91.22945,47.752274,103.753365 Q129.36212,116.27729,105,107.18862 Q80.63787,98.09996,92.81894,106.54998 Q105,115,105,117.5 Q105,120,162.19275,111.74739 Q219.3855,103.49478,105,113.165985 Q-9.385491,122.83719,64.43819,115.324814 Q138.26186,107.81245,105,115.88726 Q71.73814,123.96207,100.022675,131.1169 Q128.3072,138.27171,105,128.88393 Q81.692795,119.49613,113.7382,124.71345 Q145.7836,129.93076,105,112.76753 Q64.2164,95.60431,157.65994,98.69984 Q251.10347,101.795364,105,99.99234 Q-41.10347,98.189316,70.02765,98.057335 Q181.15878,97.925354,105,110.708466 Q28.841225,123.49157,100.488945,124.937164 Q172.13667,126.38276,105,108.394394 Q37.86333,90.40603,138.59442,97.5191 Q239.32552,104.632164,105,115.74726 Q-29.325508,126.86236,54.499855,132.65042 Q138.32521,138.43849,105,117.69774 Q71.67478,96.956985,155.51357,116.442505 Q239.35236,135.92802,105,131.47125 Q-29.352356,127.01448,90.59008,130.47289 Q210.53252,133.93127,105,118.67015 Q-0.53252333,103.40903,117.69409,115.33018 Q235.9207,127.25133,105,111.53343 Q-25.920702,95.81554,102.01852,111.63825 Q229.95773,127.46097,105,125.636986 Q-19.957731,123.813,111.608826,117.45747 Q243.17538,111.101944,105,101.77391 Q-33.17538,92.445885,48.30552,119.95015 Q129.78642,147.4544,105,134.59048 Q80.21358,121.726555,134.97702,111.530716 Q189.74046,101.33488,105,120.52445 Q20.25953,139.71402,114.555145,131.59192 Q208.85077,123.4698,105,116.31644 Q1.1492357,109.16307,74.15345,106.150764 Q147.15767,103.13846,105,109.666115 Q62.842335,116.19378,153.34996,122.09057 Q243.85759,127.987366,105,112.108406 Q-33.857582,96.22945,47.752274,108.753365 Q129.36212,121.27729,105,112.18862 Q80.63787,103.09996,92.81894,111.54998 Q105,120,105,122.5 Q105,125,162.19275,116.74739 Q219.3855,108.49478,105,118.165985 Q-9.385491,127.83719,64.43819,120.324814 Q138.26186,112.81245,105,120.88726 Q71.73814,128.96207,100.022675,136.1169 Q128.3072,143.27171,105,133.88393 Q81.692795,124.49613,113.7382,129.71344 Q145.7836,134.93076,105,117.76753 Q64.2164,100.60431,157.65994,103.69984 Q251.10347,106.795364,105,104.99234 Q-41.10347,103.189316,70.02765,103.057335 Q181.15878,102.925354,105,115.708466 Q28.841225,128.49158,100.488945,129.93716 Q172.13667,131.38275,105,113.394394 Q37.86333,95.40603,138.59442,102.5191 Q239.32552,109.632164,105,120.74726 Q-29.325508,131.86235,54.499855,137.65042 Q138.32521,143.43849,105,122.69774 Q71.67478,101.956985,155.51357,121.442505 Q239.35236,140.92802,105,136.47125 Q-29.352356,132.01448,90.59008,135.47289 Q210.53252,138.93127,105,123.67015 Q-0.53252333,108.40903,117.69409,120.33018 Q235.9207,132.25133,105,116.53343 Q-25.920702,100.81554,102.01852,116.63825 Q229.95773,132.46097,105,130.63698 Q-19.957731,128.813,111.608826,122.45747 Q243.17538,116.101944,105,106.77391 Q-33.17538,97.445885,48.30552,124.95015 Q129.78642,152.4544,105,139.59048 Q80.21358,126.726555,134.97702,116.530716 Q189.74046,106.33488,105,125.52445 Q20.25953,144.71402,114.555145,136.59192 Q208.85077,128.4698,105,121.31644 Q1.1492357,114.16307,74.15345,111.150764 Q147.15767,108.13846,105,114.666115 Q62.842335,121.19378,153.34996,127.09057 Q243.85759,132.98737,105,117.108406 Q-33.857582,101.22945,47.752274,113.753365 Q129.36212,126.27729,105,117.18862 Q80.63787,108.09996,92.81894,116.54998 Q105,125,105,127.5 Q105,130,162.19275,121.74739 Q219.3855,113.49478,105,123.165985 Q-9.385491,132.83719,64.43819,125.324814 Q138.26186,117.81245,105,125.88726 Q71.73814,133.96207,100.022675,141.1169 Q128.3072,148.27171,105,138.88393 Q81.692795,129.49614,113.7382,134.71344 Q145.7836,139.93076,105,122.76753 Q64.2164,105.60431,157.65994,108.69984 Q251.10347,111.795364,105,109.99234 Q-41.10347,108.189316,70.02765,108.057335 Q181.15878,107.925354,105,120.708466 Q28.841225,133.49158,100.488945,134.93716 Q172.13667,136.38275,105,118.394394 Q37.86333,100.40603,138.59442,107.5191 Q239.32552,114.632164,105,125.74726 Q-29.325508,136.86235,54.499855,142.65042 Q138.32521,148.43849,105,127.69774 Q71.67478,106.956985,155.51357,126.442505 Q239.35236,145.92802,105,141.47125 Q-29.352356,137.01448,90.59008,140.47289 Q210.53252,143.93127,105,128.67015 Q-0.53252333,113.40903,117.69409,125.33018 Q235.9207,137.25133,105,121.53343 Q-25.920702,105.81554,102.01852,121.63825 Q229.95773,137.46097,105,135.63698 Q-19.957731,133.813,111.608826,127.45747 Q243.17538,121.101944,105,111.77391 Q-33.17538,102.445885,48.30552,129.95015 Q129.78642,157.4544,105,144.59048 Q80.21358,131.72655,134.97702,121.530716 Q189.74046,111.33488,105,130.52444 Q20.25953,149.71402,114.555145,141.59192 Q208.85077,133.4698,105,126.31644 Q1.1492357,119.16307,74.15345,116.150764 Q147.15767,113.13846,105,119.666115 Q62.842335,126.19378,153.34996,132.09058 Q243.85759,137.98737,105,122.108406 Q-33.857582,106.22945,47.752274,118.753365 Q129.36212,131.27728,105,122.18862 Q80.63787,113.09996,92.81894,121.54998 Q105,130,105,132.5 Q105,135,162.19275,126.74739 Q219.3855,118.49478,105,128.16599 Q-9.385491,137.83719,64.43819,130.32481 Q138.26186,122.81245,105,130.88725 Q71.73814,138.96207,100.022675,146.1169 Q128.3072,153.27171,105,143.88393 Q81.692795,134.49614,113.7382,139.71344 Q145.7836,144.93076,105,127.76753 Q64.2164,110.60431,157.65994,113.69984 Q251.10347,116.795364,105,114.99234 Q-41.10347,113.189316,70.02765,113.057335 Q181.15878,112.925354,105,125.708466 Q28.841225,138.49158,100.488945,139.93716 Q172.13667,141.38275,105,123.394394 Q37.86333,105.40603,138.59442,112.5191 Q239.32552,119.632164,105,130.74725 Q-29.325508,141.86235,54.499855,147.65042 Q138.32521,153.43849,105,132.69774 Q71.67478,111.956985,155.51357,131.4425 Q239.35236,150.92802,105,146.47125 Q-29.352356,142.01448,90.59008,145.47289 Q210.53252,148.93127,105,133.67015 Q-0.53252333,118.40903,117.69409,130.33017 Q235.9207,142.25133,105,126.53343 Q-25.920702,110.81554,102.01852,126.63825 Q229.95773,142.46097,105,140.63698 Q-19.957731,138.813,111.608826,132.45747 Q243.17538,126.101944,105,116.77391 Q-33.17538,107.445885,48.30552,134.95015 Q129.78642,162.4544,105,149.59048 Q80.21358,136.72655,134.97702,126.530716 Q189.74046,116.33488,105,135.52444 Q20.25953,154.71402,114.555145,146.59192 Q208.85077,138.4698,105,131.31644 Q1.1492357,124.16307,74.15345,121.150764 Q147.15767,118.13846,105,124.666115 Q62.842335,131.19377,153.34996,137.09058 Q243.85759,142.98737,105,127.108406 Q-33.857582,111.22945,47.752274,123.753365 Q129.36212,136.27728,105,127.18862 Q80.63787,118.09996,92.81894,126.54998 Q105,135,105,137.5 Q105,140,162.19275,131.74739 Q219.3855,123.49478,105,133.16599 Q-9.385491,142.83719,64.43819,135.32481 Q138.26186,127.81245,105,135.88725 Q71.73814,143.96207,100.022675,151.1169 Q128.3072,158.27171,105,148.88393 Q81.692795,139.49614,113.7382,144.71344 Q145.7836,149.93076,105,132.76753 Q64.2164,115.60431,157.65994,118.69984 Q251.10347,121.795364,105,119.99234 Q-41.10347,118.189316,70.02765,118.057335 Q181.15878,117.925354,105,130.70847 Q28.841225,143.49158,100.488945,144.93716 Q172.13667,146.38275,105,128.3944 Q37.86333,110.40603,138.59442,117.5191 Q239.32552,124.632164,105,135.74725 Q-29.325508,146.86235,54.499855,152.65042 Q138.32521,158.43849,105,137.69774 Q71.67478,116.956985,155.51357,136.4425 Q239.35236,155.92802,105,151.47125 Q-29.352356,147.01448,90.59008,150.47289 Q210.53252,153.93127,105,138.67015 Q-0.53252333,123.40903,117.69409,135.33017 Q235.9207,147.25133,105,131.53343 Q-25.920702,115.81554,102.01852,131.63826 Q229.95773,147.46097,105,145.63698 Q-19.957731,143.813,111.608826,137.45747 Q243.17538,131.10194,105,121.77391 Q-33.17538,112.445885,48.30552,139.95015 Q129.78642,167.4544,105,154.59048 Q80.21358,141.72655,134.97702,131.53072 Q189.74046,121.33488,105,140.52444 Q20.25953,159.71402,114.555145,151.59192 Q208.85077,143.4698,105,136.31644 Q1.1492357,129.16307,74.15345,126.150764 Q147.15767,123.13846,105,129.66612 Q62.842335,136.19377,153.34996,142.09058 Q243.85759,147.98737,105,132.1084 Q-33.857582,116.22945,47.752274,128.75337 Q129.36212,141.27728,105,132.18863 Q80.63787,123.09996,92.81894,131.54997 Q105,140,105,142.5 Q105,145,162.19275,136.74739 Q219.3855,128.49478,105,138.16599 Q-9.385491,147.83719,64.43819,140.32481 Q138.26186,132.81245,105,140.88725 Q71.73814,148.96207,100.022675,156.1169 Q128.3072,163.27171,105,153.88393 Q81.692795,144.49614,113.7382,149.71344 Q145.7836,154.93076,105,137.76753 Q64.2164,120.60431,157.65994,123.69984 Q251.10347,126.795364,105,124.99234 Q-41.10347,123.189316,70.02765,123.057335 Q181.15878,122.925354,105,135.70847 Q28.841225,148.49158,100.488945,149.93716 Q172.13667,151.38275,105,133.3944 Q37.86333,115.40603,138.59442,122.5191 Q239.32552,129.63217,105,140.74725 Q-29.325508,151.86235,54.499855,157.65042 Q138.32521,163.43849,105,142.69774 Q71.67478,121.956985,155.51357,141.4425 Q239.35236,160.92802,105,156.47125 Q-29.352356,152.01448,90.59008,155.47289 Q210.53252,158.93127,105,143.67015 Q-0.53252333,128.40903,117.69409,140.33017 Q235.9207,152.25133,105,136.53343 Q-25.920702,120.81554,102.01852,136.63826 Q229.95773,152.46097,105,150.63698 Q-19.957731,148.813,111.608826,142.45747 Q243.17538,136.10194,105,126.77391 Q-33.17538,117.445885,48.30552,144.95015 Q129.78642,172.4544,105,159.59048 Q80.21358,146.72655,134.97702,136.53072 Q189.74046,126.33488,105,145.52444 Q20.25953,164.71402,114.555145,156.59192 Q208.85077,148.4698,105,141.31644 Q1.1492357,134.16307,74.15345,131.15076 Q147.15767,128.13846,105,134.66612 Q62.842335,141.19377,153.34996,147.09058 Q243.85759,152.98737,105,137.1084 Q-33.857582,121.22945,47.752274,133.75337 Q129.36212,146.27728,105,137.18863 Q80.63787,128.09996,92.81894,136.54997 Q105,145,105,147.5 Q105,150,162.19275,141.74739 Q219.3855,133.49478,105,143.16599 Q-9.385491,152.83719,64.43819,145.32481 Q138.26186,137.81245,105,145.88725 Q71.73814,153.96207,100.022675,161.1169 Q128.3072,168.27171,105,158.88393 Q81.692795,149.49614,113.7382,154.71344 Q145.7836,159.93076,105,142.76753 Q64.2164,125.60431,157.65994,128.69984 Q251.10347,131.79536,105,129.99234 Q-41.10347,128.18932,70.02765,128.05734 Q181.15878,127.925354,105,140.70847 Q28.841225,153.49158,100.488945,154.93716 Q172.13667,156.38275,105,138.3944 Q37.86333,120.40603,138.59442,127.5191 Q239.32552,134.63217,105,145.74725 Q-29.325508,156.86235,54.499855,162.65042 Q138.32521,168.43849,105,147.69774 Q71.67478,126.956985,155.51357,146.4425 Q239.35236,165.92802,105,161.47125 Q-29.352356,157.01448,90.59008,160.47289 Q210.53252,163.93127,105,148.67015 Q-0.53252333,133.40903,117.69409,145.33017 Q235.9207,157.25133,105,141.53343 Q-25.920702,125.81554,102.01852,141.63826 Q229.95773,157.46097,105,155.63698 Q-19.957731,153.813,111.608826,147.45747 Q243.17538,141.10194,105,131.77391 Q-33.17538,122.445885,48.30552,149.95015 Q129.78642,177.4544,105,164.59048 Q80.21358,151.72655,134.97702,141.53072 Q189.74046,131.33487,105,150.52444 Q20.25953,169.71402,114.555145,161.59192 Q208.85077,153.4698,105,146.31644 Q1.1492357,139.16307,74.15345,136.15076 Q147.15767,133.13846,105,139.66612 Q62.842335,146.19377,153.34996,152.09058 Q243.85759,157.98737,105,142.1084 Q-33.857582,126.22945,47.752274,138.75337 Q129.36212,151.27728,105,142.18863 Q80.63787,133.09996,92.81894,141.54997 Q105,150,105,152.5 Q105,155,162.19275,146.74739 Q219.3855,138.49478,105,148.16599 Q-9.385491,157.83719,64.43819,150.32481 Q138.26186,142.81245,105,150.88725 Q71.73814,158.96207,100.022675,166.1169 Q128.3072,173.27171,105,163.88393 Q81.692795,154.49614,113.7382,159.71344 Q145.7836,164.93076,105,147.76753 Q64.2164,130.60431,157.65994,133.69984 Q251.10347,136.79536,105,134.99234 Q-41.10347,133.18932,70.02765,133.05734 Q181.15878,132.92535,105,145.70847 Q28.841225,158.49158,100.488945,159.93716 Q172.13667,161.38275,105,143.3944 Q37.86333,125.40603,138.59442,132.5191 Q239.32552,139.63217,105,150.74725 Q-29.325508,161.86235,54.499855,167.65042 Q138.32521,173.43849,105,152.69774 Q71.67478,131.95699,155.51357,151.4425 Q239.35236,170.92802,105,166.47125 Q-29.352356,162.01448,90.59008,165.47289 Q210.53252,168.93127,105,153.67015 Q-0.53252333,138.40903,117.69409,150.33017 Q235.9207,162.25133,105,146.53343 Q-25.920702,130.81554,102.01852,146.63826 Q229.95773,162.46097,105,160.63698 Q-19.957731,158.813,111.608826,152.45747 Q243.17538,146.10194,105,136.77391 Q-33.17538,127.445885,48.30552,154.95015 Q129.78642,182.4544,105,169.59048 Q80.21358,156.72655,134.97702,146.53072 Q189.74046,136.33487,105,155.52444 Q20.25953,174.71402,114.555145,166.59192 Q208.85077,158.4698,105,151.31644 Q1.1492357,144.16307,74.15345,141.15076 Q147.15767,138.13846,105,144.66612 Q62.842335,151.19377,153.34996,157.09058 Q243.85759,162.98737,105,147.1084 Q-33.857582,131.22945,47.752274,143.75337 Q129.36212,156.27728,105,147.18863 Q80.63787,138.09996,92.81894,146.54997 Q105,155,105,157.5 Q105,160,162.19275,151.74739 Q219.3855,143.49478,105,153.16599 Q-9.385491,162.83719,64.43819,155.32481 Q138.26186,147.81245,105,155.88725 Q71.73814,163.96207,100.022675,171.1169 Q128.3072,178.27171,105,168.88393 Q81.692795,159.49614,113.7382,164.71344 Q145.7836,169.93076,105,152.76753 Q64.2164,135.60431,157.65994,138.69984 Q251.10347,141.79536,105,139.99234 Q-41.10347,138.18932,70.02765,138.05734 Q181.15878,137.92535,105,150.70847 Q28.841225,163.49158,100.488945,164.93716 Q172.13667,166.38275,105,148.3944 Q37.86333,130.40602,138.59442,137.5191 Q239.32552,144.63217,105,155.74725 Q-29.325508,166.86235,54.499855,172.65042 Q138.32521,178.43849,105,157.69774 Q71.67478,136.95699,155.51357,156.4425 Q239.35236,175.92802,105,171.47125 Q-29.352356,167.01448,90.59008,170.47289 Q210.53252,173.93127,105,158.67015 Q-0.53252333,143.40903,117.69409,155.33017 Q235.9207,167.25133,105,151.53343 Q-25.920702,135.81554,102.01852,151.63826 Q229.95773,167.46097,105,165.63698 Q-19.957731,163.813,111.608826,157.45747 Q243.17538,151.10194,105,141.77391 Q-33.17538,132.44589,48.30552,159.95015 Q129.78642,187.4544,105,174.59048 Q80.21358,161.72655,134.97702,151.53072 Q189.74046,141.33487,105,160.52444 Q20.25953,179.71402,114.555145,171.59192 Q208.85077,163.4698,105,156.31644 Q1.1492357,149.16307,74.15345,146.15076 Q147.15767,143.13846,105,149.66612 Q62.842335,156.19377,153.34996,162.09058 Q243.85759,167.98737,105,152.1084 Q-33.857582,136.22945,47.752274,148.75337 Q129.36212,161.27728,105,152.18863 Q80.63787,143.09996,92.81894,151.54997 Q105,160,105,162.5 Q105,165,162.19275,156.74739 Q219.3855,148.49478,105,158.16599 Q-9.385491,167.83719,64.43819,160.32481 Q138.26186,152.81245,105,160.88725 Q71.73814,168.96207,100.022675,176.1169 Q128.3072,183.27171,105,173.88393 Q81.692795,164.49614,113.7382,169.71344 Q145.7836,174.93076,105,157.76753 Q64.2164,140.60431,157.65994,143.69984 Q251.10347,146.79536,105,144.99234 Q-41.10347,143.18932,70.02765,143.05734 Q181.15878,142.92535,105,155.70847 Q28.841225,168.49158,100.488945,169.93716 Q172.13667,171.38275,105,153.3944 Q37.86333,135.40602,138.59442,142.5191 Q239.32552,149.63217,105,160.74725 Q-29.325508,171.86235,54.499855,177.65042 Q138.32521,183.43849,105,162.69774 Q71.67478,141.95699,155.51357,161.4425 Q239.35236,180.92802,105,176.47125 Q-29.352356,172.01448,90.59008,175.47289 Q210.53252,178.93127,105,163.67015 Q-0.53252333,148.40903,117.69409,160.33017 Q235.9207,172.25133,105,156.53343 Q-25.920702,140.81554,102.01852,156.63826 Q229.95773,172.46097,105,170.63698 Q-19.957731,168.813,111.608826,162.45747 Q243.17538,156.10194,105,146.77391 Q-33.17538,137.44589,48.30552,164.95015 Q129.78642,192.4544,105,179.59048 Q80.21358,166.72655,134.97702,156.53072 Q189.74046,146.33487,105,165.52444 Q20.25953,184.71402,114.555145,176.59192 Q208.85077,168.4698,105,161.31644 Q1.1492357,154.16307,74.15345,151.15076 Q147.15767,148.13846,105,154.66612 Q62.842335,161.19377,153.34996,167.09058 Q243.85759,172.98737,105,157.1084 Q-33.857582,141.22945,47.752274,153.75337 Q129.36212,166.27728,105,157.18863 Q80.63787,148.09996,92.81894,156.54997 Q105,165,105,167.5 Q105,170,162.19275,161.74739 Q219.3855,153.49478,105,163.16599 Q-9.385491,172.83719,64.43819,165.32481 Q138.26186,157.81245,105,165.88725 Q71.73814,173.96207,100.022675,181.1169 Q128.3072,188.27171,105,178.88393 Q81.692795,169.49614,113.7382,174.71344 Q145.7836,179.93076,105,162.76753 Q64.2164,145.60431,157.65994,148.69984 Q251.10347,151.79536,105,149.99234 Q-41.10347,148.18932,70.02765,148.05734 Q181.15878,147.92535,105,160.70847 Q28.841225,173.49158,100.488945,174.93716 Q172.13667,176.38275,105,158.3944 Q37.86333,140.40602,138.59442,147.5191 Q239.32552,154.63217,105,165.74725 Q-29.325508,176.86235,54.499855,182.65042 Q138.32521,188.43849,105,167.69774 Q71.67478,146.95699,155.51357,166.4425 Q239.35236,185.92802,105,181.47125 Q-29.352356,177.01448,90.59008,180.47289 Q210.53252,183.93127,105,168.67015 Q-0.53252333,153.40903,117.69409,165.33017 Q235.9207,177.25133,105,161.53343 Q-25.920702,145.81554,102.01852,161.63826 Q229.95773,177.46097,105,175.63698 Q-19.957731,173.813,111.608826,167.45747 Q243.17538,161.10194,105,151.77391 Q-33.17538,142.44589,48.30552,169.95015 Q129.78642,197.4544,105,184.59048 Q80.21358,171.72655,134.97702,161.53072 Q189.74046,151.33487,105,170.52444 Q20.25953,189.71402,114.555145,181.59192 Q208.85077,173.4698,105,166.31644 Q1.1492357,159.16307,74.15345,156.15076 Q147.15767,153.13846,105,159.66612 Q62.842335,166.19377,153.34996,172.09058 Q243.85759,177.98737,105,162.1084 Q-33.857582,146.22945,47.752274,158.75337 Q129.36212,171.27728,105,162.18863 Q80.63787,153.09996,92.81894,161.54997 Q105,170,105,172.5 Q105,175,162.19275,166.74739 Q219.3855,158.49478,105,168.16599 Q-9.385491,177.83719,64.43819,170.32481 Q138.26186,162.81245,105,170.88725 Q71.73814,178.96207,100.022675,186.1169 Q128.3072,193.27171,105,183.88393 Q81.692795,174.49614,113.7382,179.71344 Q145.7836,184.93076,105,167.76753 Q64.2164,150.60431,157.65994,153.69984 Q251.10347,156.79536,105,154.99234 Q-41.10347,153.18932,70.02765,153.05734 Q181.15878,152.92535,105,165.70847 Q28.841225,178.49158,100.488945,179.93716 Q172.13667,181.38275,105,163.3944 Q37.86333,145.40602,138.59442,152.5191 Q239.32552,159.63217,105,170.74725 Q-29.325508,181.86235,54.499855,187.65042 Q138.32521,193.43849,105,172.69774 Q71.67478,151.95699,155.51357,171.4425 Q239.35236,190.92802,105,186.47125 Q-29.352356,182.01448,90.59008,185.47289 Q210.53252,188.93127,105,173.67015 Q-0.53252333,158.40903,117.69409,170.33017 Q235.9207,182.25133,105,166.53343 Q-25.920702,150.81554,102.01852,166.63826 Q229.95773,182.46097,105,180.63698 Q-19.957731,178.813,111.608826,172.45747 Q243.17538,166.10194,105,156.77391 Q-33.17538,147.44589,48.30552,174.95015 Q129.78642,202.4544,105,189.59048 Q80.21358,176.72655,134.97702,166.53072 Q189.74046,156.33487,105,175.52444 Q20.25953,194.71402,114.555145,186.59192 Q208.85077,178.4698,105,171.31644 Q1.1492357,164.16307,74.15345,161.15076 Q147.15767,158.13846,105,164.66612 Q62.842335,171.19377,153.34996,177.09058 Q243.85759,182.98737,105,167.1084 Q-33.857582,151.22945,47.752274,163.75337 Q129.36212,176.27728,105,167.18863 Q80.63787,158.09996,92.81894,166.54997 Q105,175,105,177.5 Q105,180,162.19275,171.74739 Q219.3855,163.49478,105,173.16599 Q-9.385491,182.83719,64.43819,175.32481 Q138.26186,167.81245,105,175.88725 Q71.73814,183.96207,100.022675,191.1169 Q128.3072,198.27171,105,188.88393 Q81.692795,179.49614,113.7382,184.71344 Q145.7836,189.93076,105,172.76753 Q64.2164,155.60431,157.65994,158.69984 Q251.10347,161.79536,105,159.99234 Q-41.10347,158.18932,70.02765,158.05734 Q181.15878,157.92535,105,170.70847 Q28.841225,183.49158,100.488945,184.93716 Q172.13667,186.38275,105,168.3944 Q37.86333,150.40602,138.59442,157.5191 Q239.32552,164.63217,105,175.74725 Q-29.325508,186.86235,54.499855,192.65042 Q138.32521,198.43849,105,177.69774 Q71.67478,156.95699,155.51357,176.4425 Q239.35236,195.92802,105,191.47125 Q-29.352356,187.01448,90.59008,190.47289 Q210.53252,193.93127,105,178.67015 Q-0.53252333,163.40903,117.69409,175.33017 Q235.9207,187.25133,105,171.53343 Q-25.920702,155.81554,102.01852,171.63826 Q229.95773,187.46097,105,185.63698 Q-19.957731,183.813,111.608826,177.45747 Q243.17538,171.10194,105,161.77391 Q-33.17538,152.44589,48.30552,179.95015 Q129.78642,207.4544,105,194.59048 Q80.21358,181.72655,134.97702,171.53072 Q189.74046,161.33487,105,180.52444 Q20.25953,199.71402,114.555145,191.59192 Q208.85077,183.4698,105,176.31644 Q1.1492357,169.16307,74.15345,166.15076 Q147.15767,163.13846,105,169.66612 Q62.842335,176.19377,153.34996,182.09058 Q243.85759,187.98737,105,172.1084 Q-33.857582,156.22945,47.752274,168.75337 Q129.36212,181.27728,105,172.18863 Q80.63787,163.09996,92.81894,171.54997 Q105,180,105,182.5 Q105,185,162.19275,176.74739 Q219.3855,168.49478,105,178.16599 Q-9.385491,187.83719,64.43819,180.32481 Q138.26186,172.81245,105,180.88725 Q71.73814,188.96207,100.022675,196.1169 Q128.3072,203.27171,105,193.88393 Q81.692795,184.49614,113.7382,189.71344 Q145.7836,194.93076,105,177.76753 Q64.2164,160.60431,157.65994,163.69984 Q251.10347,166.79536,105,164.99234 Q-41.10347,163.18932,70.02765,163.05734 Q181.15878,162.92535,105,175.70847 Q28.841225,188.49158,100.488945,189.93716 Q172.13667,191.38275,105,173.3944 Q37.86333,155.40602,138.59442,162.5191 Q239.32552,169.63217,105,180.74725 Q-29.325508,191.86235,54.499855,197.65042 Q138.32521,203.43849,105,182.69774 Q71.67478,161.95699,155.51357,181.4425 Q239.35236,200.92802,105,196.47125 Q-29.352356,192.01448,90.59008,195.47289 Q210.53252,198.93127,105,183.67015 Q-0.53252333,168.40903,117.69409,180.33017 Q235.9207,192.25133,105,176.53343 Q-25.920702,160.81554,102.01852,176.63826 Q229.95773,192.46097,105,190.63698 Q-19.957731,188.813,111.608826,182.45747 Q243.17538,176.10194,105,166.77391 Q-33.17538,157.44589,48.30552,184.95015 Q129.78642,212.4544,105,199.59048 Q80.21358,186.72655,134.97702,176.53072 Q189.74046,166.33487,105,185.52444 Q20.25953,204.71402,114.555145,196.59192 Q208.85077,188.4698,105,181.31644 Q1.1492357,174.16307,74.15345,171.15076 Q147.15767,168.13846,105,174.66612 Q62.842335,181.19377,153.34996,187.09058 Q243.85759,192.98737,105,177.1084 Q-33.857582,161.22945,47.752274,173.75337 Q129.36212,186.27728,105,177.18863 Q80.63787,168.09996,92.81894,176.54997 Q105,185,105,187.5 Q105,190,162.19275,181.74739 Q219.3855,173.49478,105,183.16599 Q-9.385491,192.83719,64.43819,185.32481 Q138.26186,177.81245,105,185.88725 Q71.73814,193.96207,100.022675,201.1169 Q128.3072,208.27171,105,198.88393 Q81.692795,189.49614,113.7382,194.71344 Q145.7836,199.93076,105,182.76753 Q64.2164,165.60431,157.65994,168.69984 Q251.10347,171.79536,105,169.99234 Q-41.10347,168.18932,70.02765,168.05734 Q181.15878,167.92535,105,180.70847 Q28.841225,193.49158,100.488945,194.93716 Q172.13667,196.38275,105,178.3944 Q37.86333,160.40602,138.59442,167.5191 Q239.32552,174.63217,105,185.74725 Q-29.325508,196.86235,54.499855,202.65042 Q138.32521,208.43849,105,187.69774 Q71.67478,166.95699,155.51357,186.4425 Q239.35236,205.92802,105,201.47125 Q-29.352356,197.01448,90.59008,200.47289 Q210.53252,203.93127,105,188.67015 Q-0.53252333,173.40903,117.69409,185.33017 Q235.9207,197.25133,105,181.53343 Q-25.920702,165.81554,102.01852,181.63826 Q229.95773,197.46097,105,195.63698 Q-19.957731,193.813,111.608826,187.45747 Q243.17538,181.10194,105,171.77391 Q-33.17538,162.44589,48.30552,189.95015 Q129.78642,217.4544,105,204.59048 Q80.21358,191.72655,134.97702,181.53072 Q189.74046,171.33487,105,190.52444 Q20.25953,209.71402,114.555145,201.59192 Q208.85077,193.4698,105,186.31644 Q1.1492357,179.16307,74.15345,176.15076 Q147.15767,173.13846,105,179.66612 Q62.842335,186.19377,153.34996,192.09058 Q243.85759,197.98737,105,182.1084 Q-33.857582,166.22945,47.752274,178.75337 Q129.36212,191.27728,105,182.18863 Q80.63787,173.09996,92.81894,181.54997 Q105,190,105,192.5 Q105,195,162.19275,186.74739 Q219.3855,178.49478,105,188.16599 Q-9.385491,197.83719,64.43819,190.32481 Q138.26186,182.81245,105,190.88725 Q71.73814,198.96207,100.022675,206.1169 Q128.3072,213.27171,105,203.88393 Q81.692795,194.49614,113.7382,199.71344 Q145.7836,204.93076,105,187.76753 Q64.2164,170.60431,157.65994,173.69984 Q251.10347,176.79536,105,174.99234 Q-41.10347,173.18932,70.02765,173.05734 Q181.15878,172.92535,105,185.70847 Q28.841225,198.49158,100.488945,199.93716 Q172.13667,201.38275,105,183.3944 Q37.86333,165.40602,138.59442,172.5191 Q239.32552,179.63217,105,190.74725 Q-29.325508,201.86235,54.499855,207.65042 Q138.32521,213.43849,105,192.69774 Q71.67478,171.95699,155.51357,191.4425 Q239.35236,210.92802,105,206.47125 Q-29.352356,202.01448,90.59008,205.47289 Q210.53252,208.93127,105,193.67015 Q-0.53252333,178.40903,117.69409,190.33017 Q235.9207,202.25133,105,186.53343 Q-25.920702,170.81554,102.01852,186.63826 Q229.95773,202.46097,105,200.63698 Q-19.957731,198.813,111.608826,192.45747 Q243.17538,186.10194,105,176.77391 Q-33.17538,167.44589,48.30552,194.95015 Q129.78642,222.4544,105,209.59048 Q80.21358,196.72655,134.97702,186.53072 Q189.74046,176.33487,105,195.52444 Q20.25953,214.71402,114.555145,206.59192 Q208.85077,198.4698,105,191.31644 Q1.1492357,184.16307,74.15345,181.15076 Q147.15767,178.13846,105,184.66612 Q62.842335,191.19377,153.34996,197.09058 Q243.85759,202.98737,105,187.1084 Q-33.857582,171.22945,47.752274,183.75337 Q129.36212,196.27728,105,187.18863 Q80.63787,178.09996,92.81894,186.54997 Q105,195,105,197.5 Q105,200,162.19275,191.74739 Q219.3855,183.49478,105,193.16599 Q-9.385491,202.83719,64.43819,195.32481 Q138.26186,187.81245,105,195.88725 Q71.73814,203.96207,100.022675,211.1169 Q128.3072,218.27171,105,208.88393 Q81.692795,199.49614,113.7382,204.71344 Q145.7836,209.93076,105,192.76753 Q64.2164,175.60431,157.65994,178.69984 Q251.10347,181.79536,105,179.99234 Q-41.10347,178.18932,70.02765,178.05734 Q181.15878,177.92535,105,190.70847 Q28.841225,203.49158,100.488945,204.93716 Q172.13667,206.38275,105,188.3944 Q37.86333,170.40602,138.59442,177.5191 Q239.32552,184.63217,105,195.74725 Q-29.325508,206.86235,54.499855,212.65042 Q138.32521,218.43849,105,197.69774 Q71.67478,176.95699,155.51357,196.4425 Q239.35236,215.92802,105,211.47125 Q-29.352356,207.01448,90.59008,210.47289 Q210.53252,213.93127,105,198.67015 Q-0.53252333,183.40903,117.69409,195.33017 Q235.9207,207.25133,105,191.53343 Q-25.920702,175.81554,102.01852,191.63826 Q229.95773,207.46097,105,205.63698 Q-19.957731,203.813,111.608826,197.45747 Q243.17538,191.10194,105,181.77391 Q-33.17538,172.44589,48.30552,199.95015 Q129.78642,227.4544,105,214.59048 Q80.21358,201.72655,134.97702,191.53072 Q189.74046,181.33487,105,200.52444 Q20.25953,219.71402,114.555145,211.59192 Q208.85077,203.4698,105,196.31644 Q1.1492357,189.16307,74.15345,186.15076 Q147.15767,183.13846,105,189.66612 Q62.842335,196.19377,153.34996,202.09058 Q243.85759,207.98737,105,192.1084 Q-33.857582,176.22945,47.752274,188.75337 Q129.36212,201.27728,105,192.18863 Q80.63787,183.09996,92.81894,191.54997 Q105,200,105,202.5 Q105,205,162.19275,196.74739 Q219.3855,188.49478,105,198.16599 Q-9.385491,207.83719,64.43819,200.32481 Q138.26186,192.81245,105,200.88725 Q71.73814,208.96207,100.022675,216.1169 Q128.3072,223.27171,105,213.88393 Q81.692795,204.49614,113.7382,209.71344 Q145.7836,214.93076,105,197.76753 Q64.2164,180.60431,157.65994,183.69984 Q251.10347,186.79536,105,184.99234 Q-41.10347,183.18932,70.02765,183.05734 Q181.15878,182.92535,105,195.70847 Q28.841225,208.49158,100.488945,209.93716 Q172.13667,211.38275,105,193.3944 Q37.86333,175.40602,138.59442,182.5191 Q239.32552,189.63217,105,200.74725 Q-29.325508,211.86235,54.499855,217.65042 Q138.32521,223.43849,105,202.69774 Q71.67478,181.95699,155.51357,201.4425 Q239.35236,220.92802,105,216.47125 Q-29.352356,212.01448,90.59008,215.47289 Q210.53252,218.93127,105,203.67015 Q-0.53252333,188.40903,117.69409,200.33017 Q235.9207,212.25133,105,196.53343 Q-25.920702,180.81554,102.01852,196.63826 Q229.95773,212.46097,105,210.63698 Q-19.957731,208.813,111.608826,202.45747 Q243.17538,196.10194,105,186.77391 Q-33.17538,177.44589,48.30552,204.95015 Q129.78642,232.4544,105,219.59048 Q80.21358,206.72655,134.97702,196.53072 Q189.74046,186.33487,105,205.52444 Q20.25953,224.71402,114.555145,216.59192 Q208.85077,208.4698,105,201.31644 Q1.1492357,194.16307,74.15345,191.15076 Q147.15767,188.13846,105,194.66612 Q62.842335,201.19377,153.34996,207.09058 Q243.85759,212.98737,105,197.1084 Q-33.857582,181.22945,47.752274,193.75337 Q129.36212,206.27728,105,197.18863 Q80.63787,188.09996,92.81894,196.54997 Q105,205,105,207.5 Q105,210,162.19275,201.74739 Q219.3855,193.49478,105,203.16599 Q-9.385491,212.83719,64.43819,205.32481 Q138.26186,197.81245,105,205.88725 Q71.73814,213.96207,100.022675,221.1169 Q128.3072,228.27171,105,218.88393 Q81.692795,209.49614,113.7382,214.71344 Q145.7836,219.93076,105,202.76753 Q64.2164,185.60431,157.65994,188.69984 Q251.10347,191.79536,105,189.99234 Q-41.10347,188.18932,70.02765,188.05734 Q181.15878,187.92535,105,200.70847 Q28.841225,213.49158,100.488945,214.93716 Q172.13667,216.38275,105,198.3944 Q37.86333,180.40602,138.59442,187.5191 Q239.32552,194.63217,105,205.74725 Q-29.325508,216.86235,54.499855,222.65042 Q138.32521,228.43849,105,207.69774 Q71.67478,186.95699,155.51357,206.4425 Q239.35236,225.92802,105,221.47125 Q-29.352356,217.01448,90.59008,220.47289 Q210.53252,223.93127,105,208.67015 Q-0.53252333,193.40903,117.69409,205.33017 Q235.9207,217.25133,105,201.53343 Q-25.920702,185.81554,102.01852,201.63826 Q229.95773,217.46097,105,215.63698 Q-19.957731,213.813,111.608826,207.45747 Q243.17538,201.10194,105,191.77391 Q-33.17538,182.44589,48.30552,209.95015 Q129.78642,237.4544,105,224.59048 Q80.21358,211.72655,134.97702,201.53072 Q189.74046,191.33487,105,210.52444 Q20.25953,229.71402,114.555145,221.59192 Q208.85077,213.4698,105,206.31644 Q1.1492357,199.16307,74.15345,196.15076 Q147.15767,193.13846,105,199.66612 Q62.842335,206.19377,153.34996,212.09058 Q243.85759,217.98737,105,202.1084 Q-33.857582,186.22945,47.752274,198.75337 Q129.36212,211.27728,105,202.18863 Q80.63787,193.09996,92.81894,201.54997 Q105,210,105,212.5 Q105,215,162.19275,206.74739 Q219.3855,198.49478,105,208.16599 Q-9.385491,217.83719,64.43819,210.32481 Q138.26186,202.81245,105,210.88725 Q71.73814,218.96207,100.022675,226.1169 Q128.3072,233.27171,105,223.88393 Q81.692795,214.49614,113.7382,219.71344 Q145.7836,224.93076,105,207.76753 Q64.2164,190.60431,157.65994,193.69984 Q251.10347,196.79536,105,194.99234 Q-41.10347,193.18932,70.02765,193.05734 Q181.15878,192.92535,105,205.70847 Q28.841225,218.49158,100.488945,219.93716 Q172.13667,221.38275,105,203.3944 Q37.86333,185.40602,138.59442,192.5191 Q239.32552,199.63217,105,210.74725 Q-29.325508,221.86235,54.499855,227.65042 Q138.32521,233.43849,105,212.69774 Q71.67478,191.95699,155.51357,211.4425 Q239.35236,230.92802,105,226.47125 Q-29.352356,222.01448,90.59008,225.47289 Q210.53252,228.93127,105,213.67015 Q-0.53252333,198.40903,117.69409,210.33017 Q235.9207,222.25133,105,206.53343 Q-25.920702,190.81554,102.01852,206.63826 Q229.95773,222.46097,105,220.63698 Q-19.957731,218.813,111.608826,212.45747 Q243.17538,206.10194,105,196.77391 Q-33.17538,187.44589,48.30552,214.95015 Q129.78642,242.4544,105,229.59048 Q80.21358,216.72655,134.97702,206.53072 Q189.74046,196.33487,105,215.52444 Q20.25953,234.71402,114.555145,226.59192 Q208.85077,218.4698,105,211.31644 Q1.1492357,204.16307,74.15345,201.15076 Q147.15767,198.13846,105,204.66612 Q62.842335,211.19377,153.34996,217.09058 Q243.85759,222.98737,105,207.1084 Q-33.857582,191.22945,47.752274,203.75337 Q129.36212,216.27728,105,207.18863 Q80.63787,198.09996,92.81894,206.54997 Q105,215,105,217.5 Q105,220,162.19275,211.74739 Q219.3855,203.49478,105,213.16599 Q-9.385491,222.83719,64.43819,215.32481 Q138.26186,207.81245,105,215.88725 Q71.73814,223.96207,100.022675,231.1169 Q128.3072,238.27171,105,228.88393 Q81.692795,219.49614,113.7382,224.71344 Q145.7836,229.93076,105,212.76753 Q64.2164,195.60431,157.65994,198.69984 Q251.10347,201.79536,105,199.99234 Q-41.10347,198.18932,70.02765,198.05734 Q181.15878,197.92535,105,210.70847 Q28.841225,223.49158,100.488945,224.93716 Q172.13667,226.38275,105,208.3944 Q37.86333,190.40602,138.59442,197.5191 Q239.32552,204.63217,105,215.74725 Q-29.325508,226.86235,54.499855,232.65042 Q138.32521,238.43849,105,217.69774 Q71.67478,196.95699,155.51357,216.4425 Q239.35236,235.92802,105,231.47125 Q-29.352356,227.01448,90.59008,230.47289 Q210.53252,233.93127,105,218.67015 Q-0.53252333,203.40903,117.69409,215.33017 Q235.9207,227.25133,105,211.53343 Q-25.920702,195.81554,102.01852,211.63826 Q229.95773,227.46097,105,225.63698 Q-19.957731,223.813,111.608826,217.45747 Q243.17538,211.10194,105,201.77391 Q-33.17538,192.44589,48.30552,219.95015 Q129.78642,247.4544,105,234.59048 Q80.21358,221.72655,134.97702,211.53072 Q189.74046,201.33487,105,220.52444 Q20.25953,239.71402,114.555145,231.59192 Q208.85077,223.4698,105,216.31644 Q1.1492357,209.16307,74.15345,206.15076 Q147.15767,203.13846,105,209.66612 Q62.842335,216.19377,153.34996,222.09058 Q243.85759,227.98737,105,212.1084 Q-33.857582,196.22945,47.752274,208.75337 Q129.36212,221.27728,105,212.18863 Q80.63787,203.09996,92.81894,211.54997 Q105,220,105,222.5 Q105,225,162.19275,216.74739 Q219.3855,208.49478,105,218.16599 Q-9.385491,227.83719,64.43819,220.32481 Q138.26186,212.81245,105,220.88725 Q71.73814,228.96207,100.022675,236.1169 Q128.3072,243.27171,105,233.88393 Q81.692795,224.49614,113.7382,229.71344 Q145.7836,234.93076,105,217.76753 Q64.2164,200.60431,157.65994,203.69984 Q251.10347,206.79536,105,204.99234 Q-41.10347,203.18932,70.02765,203.05734 Q181.15878,202.92535,105,215.70847 Q28.841225,228.49158,100.488945,229.93716 Q172.13667,231.38275,105,213.3944 Q37.86333,195.40602,138.59442,202.5191 Q239.32552,209.63217,105,220.74725 Q-29.325508,231.86235,54.499855,237.65042 Q138.32521,243.43849,105,222.69774 Q71.67478,201.95699,155.51357,221.4425 Q239.35236,240.92802,105,236.47125 Q-29.352356,232.01448,90.59008,235.47289 Q210.53252,238.93127,105,223.67015 Q-0.53252333,208.40903,117.69409,220.33017 Q235.9207,232.25133,105,216.53343 Q-25.920702,200.81554,102.01852,216.63826 Q229.95773,232.46097,105,230.63698 Q-19.957731,228.813,111.608826,222.45747 Q243.17538,216.10194,105,206.77391 Q-33.17538,197.44589,48.30552,224.95015 Q129.78642,252.4544,105,239.59048 Q80.21358,226.72655,134.97702,216.53072 Q189.74046,206.33487,105,225.52444 Q20.25953,244.71402,114.555145,236.59192 Q208.85077,228.4698,105,221.31644 Q1.1492357,214.16307,74.15345,211.15076 Q147.15767,208.13846,105,214.66612 Q62.842335,221.19377,153.34996,227.09058 Q243.85759,232.98737,105,217.1084 Q-33.857582,201.22945,47.752274,213.75337 Q129.36212,226.27728,105,217.18863 Q80.63787,208.09996,92.81894,216.54997 Q105,225,105,227.5 Q105,230,162.19275,221.74739 Q219.3855,213.49478,105,223.16599 Q-9.385491,232.83719,64.43819,225.32481 Q138.26186,217.81245,105,225.88725 Q71.73814,233.96207,100.022675,241.1169 Q128.3072,248.27171,105,238.88393 Q81.692795,229.49614,113.7382,234.71344 Q145.7836,239.93076,105,222.76753 Q64.2164,205.60431,157.65994,208.69984 Q251.10347,211.79536,105,209.99234 Q-41.10347,208.18932,70.02765,208.05734 Q181.15878,207.92535,105,220.70847 Q28.841225,233.49158,100.488945,234.93716 Q172.13667,236.38275,105,218.3944 Q37.86333,200.40602,138.59442,207.5191 Q239.32552,214.63217,105,225.74725 Q-29.325508,236.86235,54.499855,242.65042 Q138.32521,248.43849,105,227.69774 Q71.67478,206.95699,155.51357,226.4425 Q239.35236,245.92802,105,241.47125 Q-29.352356,237.01448,90.59008,240.47289 Q210.53252,243.93127,105,228.67015 Q-0.53252333,213.40903,117.69409,225.33017 Q235.9207,237.25133,105,221.53343 Q-25.920702,205.81554,102.01852,221.63826 Q229.95773,237.46097,105,235.63698 Q-19.957731,233.813,111.608826,227.45747 Q243.17538,221.10194,105,211.77391 Q-33.17538,202.44589,48.30552,229.95015 Q129.78642,257.4544,105,244.59048 Q80.21358,231.72655,134.97702,221.53072 Q189.74046,211.33487,105,230.52444 Q20.25953,249.71402,114.555145,241.59192 Q208.85077,233.4698,105,226.31644 Q1.1492357,219.16307,74.15345,216.15076 Q147.15767,213.13846,105,219.66612 Q62.842335,226.19377,153.34996,232.09058 Q243.85759,237.98737,105,222.1084 Q-33.857582,206.22945,47.752274,218.75337 Q129.36212,231.27728,105,222.18863 Q80.63787,213.09996,92.81894,221.54997 Q105,230,105,232.5 Q105,235,162.19275,226.74739 Q219.3855,218.49478,105,228.16599 Q-9.385491,237.83719,64.43819,230.32481 Q138.26186,222.81245,105,230.88725 Q71.73814,238.96207,100.022675,246.1169 Q128.3072,253.27171,105,243.88393 Q81.692795,234.49614,113.7382,239.71344 Q145.7836,244.93076,105,227.76753 Q64.2164,210.60431,157.65994,213.69984 Q251.10347,216.79536,105,214.99234 Q-41.10347,213.18932,70.02765,213.05734 Q181.15878,212.92535,105,225.70847 Q28.841225,238.49158,100.488945,239.93716 Q172.13667,241.38275,105,223.3944 Q37.86333,205.40602,138.59442,212.5191 Q239.32552,219.63217,105,230.74725 Q-29.325508,241.86235,54.499855,247.65042 Q138.32521,253.43849,105,232.69774 Q71.67478,211.95699,155.51357,231.4425 Q239.35236,250.92802,105,246.47125 Q-29.352356,242.01448,90.59008,245.47289 Q210.53252,248.93127,105,233.67015 Q-0.53252333,218.40903,117.69409,230.33017 Q235.9207,242.25133,105,226.53343 Q-25.920702,210.81554,102.01852,226.63826 Q229.95773,242.46097,105,240.63698 Q-19.957731,238.813,111.608826,232.45747 Q243.17538,226.10194,105,216.77391 Q-33.17538,207.44589,48.30552,234.95015 Q129.78642,262.4544,105,249.59048 Q80.21358,236.72655,134.97702,226.53072 Q189.74046,216.33487,105,235.52444 Q20.25953,254.71402,114.555145,246.59192 Q208.85077,238.4698,105,231.31644 Q1.1492357,224.16307,74.15345,221.15076 Q147.15767,218.13846,105,224.66612 Q62.842335,231.19377,153.34996,237.09058 Q243.85759,242.98737,105,227.1084 Q-33.857582,211.22945,47.752274,223.75337 Q129.36212,236.27728,105,227.18863 Q80.63787,218.09996,92.81894,226.54997 Q105,235,105,237.5 Q105,240,162.19275,231.74739 Q219.3855,223.49478,105,233.16599 Q-9.385491,242.83719,64.43819,235.32481 Q138.26186,227.81245,105,235.88725 Q71.73814,243.96207,100.022675,251.1169 Q128.3072,258.27173,105,248.88393 Q81.692795,239.49614,113.7382,244.71344 Q145.7836,249.93076,105,232.76753 Q64.2164,215.60431,157.65994,218.69984 Q251.10347,221.79536,105,219.99234 Q-41.10347,218.18932,70.02765,218.05734 Q181.15878,217.92535,105,230.70847 Q28.841225,243.49158,100.488945,244.93716 Q172.13667,246.38275,105,228.3944 Q37.86333,210.40602,138.59442,217.5191 Q239.32552,224.63217,105,235.74725 Q-29.325508,246.86235,54.499855,252.65042 Q138.32521,258.4385,105,237.69774 Q71.67478,216.95699,155.51357,236.4425 Q239.35236,255.92802,105,251.47125 Q-29.352356,247.01448,90.59008,250.47289 Q210.53252,253.93127,105,238.67015 Q-0.53252333,223.40903,117.69409,235.33017 Q235.9207,247.25133,105,231.53343 Q-25.920702,215.81554,102.01852,231.63826 Q229.95773,247.46097,105,245.63698 Q-19.957731,243.813,111.608826,237.45747 Q243.17538,231.10194,105,221.77391 Q-33.17538,212.44589,48.30552,239.95015 Q129.78642,267.4544,105,254.59048 Q80.21358,241.72655,134.97702,231.53072 Q189.74046,221.33487,105,240.52444 Q20.25953,259.71402,114.555145,251.59192 Q208.85077,243.4698,105,236.31644 Q1.1492357,229.16307,74.15345,226.15076 Q147.15767,223.13846,105,229.66612 Q62.842335,236.19377,153.34996,242.09058 Q243.85759,247.98737,105,232.1084 Q-33.857582,216.22945,47.752274,228.75337 Q129.36212,241.27728,105,232.18863 Q80.63787,223.09996,92.81894,231.54997 Q105,240,105,242.5 Q105,245,162.19275,236.74739 Q219.3855,228.49478,105,238.16599 Q-9.385491,247.83719,64.43819,240.32481 Q138.26186,232.81245,105,240.88725 Q71.73814,248.96207,100.022675,256.11688 Q128.3072,263.27173,105,253.88393 Q81.692795,244.49614,113.7382,249.71344 Q145.7836,254.93076,105,237.76753 Q64.2164,220.60431,157.65994,223.69984 Q251.10347,226.79536,105,224.99234 Q-41.10347,223.18932,70.02765,223.05734 Q181.15878,222.92535,105,235.70847 Q28.841225,248.49158,100.488945,249.93716 Q172.13667,251.38275,105,233.3944 Q37.86333,215.40602,138.59442,222.5191 Q239.32552,229.63217,105,240.74725 Q-29.325508,251.86235,54.499855,257.65042 Q138.32521,263.4385,105,242.69774 Q71.67478,221.95699,155.51357,241.4425 Q239.35236,260.928,105,256.47125 Q-29.352356,252.01448,90.59008,255.47289 Q210.53252,258.93127,105,243.67015 Q-0.53252333,228.40903,117.69409,240.33017 Q235.9207,252.25133,105,236.53343 Q-25.920702,220.81554,102.01852,236.63826 Q229.95773,252.46097,105,250.63698 Q-19.957731,248.813,111.608826,242.45747 Q243.17538,236.10194,105,226.77391 Q-33.17538,217.44589,48.30552,244.95015 Q129.78642,272.4544,105,259.59048 Q80.21358,246.72655,134.97702,236.53072 Q189.74046,226.33487,105,245.52444 Q20.25953,264.71402,114.555145,256.59192 Q208.85077,248.4698,105,241.31644 Q1.1492357,234.16307,74.15345,231.15076 Q147.15767,228.13846,105,234.66612 Q62.842335,241.19377,153.34996,247.09058 Q243.85759,252.98737,105,237.1084 Q-33.857582,221.22945,47.752274,233.75337 Q129.36212,246.27728,105,237.18863 Q80.63787,228.09996,92.81894,236.54997 Q105,245,105,247.5 Q105,250,162.19275,241.74739 Q219.3855,233.49478,105,243.16599 Q-9.385491,252.83719,64.43819,245.32481 Q138.26186,237.81245,105,245.88725 Q71.73814,253.96207,100.022675,261.11688 Q128.3072,268.27173,105,258.8839 Q81.692795,249.49614,113.7382,254.71344 Q145.7836,259.93076,105,242.76753 Q64.2164,225.60431,157.65994,228.69984 Q251.10347,231.79536,105,229.99234 Q-41.10347,228.18932,70.02765,228.05734 Q181.15878,227.92535,105,240.70847 Q28.841225,253.49158,100.488945,254.93716 Q172.13667,256.38275,105,238.3944 Q37.86333,220.40602,138.59442,227.5191 Q239.32552,234.63217,105,245.74725 Q-29.325508,256.86237,54.499855,262.65042 Q138.32521,268.4385,105,247.69774 Q71.67478,226.95699,155.51357,246.4425 Q239.35236,265.928,105,261.47125 Q-29.352356,257.0145,90.59008,260.47287 Q210.53252,263.93127,105,248.67015 Q-0.53252333,233.40903,117.69409,245.33017 Q235.9207,257.2513,105,241.53343 Q-25.920702,225.81554,102.01852,241.63826 Q229.95773,257.46097,105,255.63698 Q-19.957731,253.813,111.608826,247.45747 Q243.17538,241.10194,105,231.77391 Q-33.17538,222.44589,48.30552,249.95015 Q129.78642,277.4544,105,264.59048 Q80.21358,251.72655,134.97702,241.53072 Q189.74046,231.33487,105,250.52444 Q20.25953,269.71402,114.555145,261.59192 Q208.85077,253.4698,105,246.31644 Q1.1492357,239.16307,74.15345,236.15076 Q147.15767,233.13846,105,239.66612 Q62.842335,246.19377,153.34996,252.09058 Q243.85759,257.98737,105,242.1084 Q-33.857582,226.22945,47.752274,238.75337 Q129.36212,251.27728,105,242.18863 Q80.63787,233.09996,92.81894,241.54997 Q105,250,105,252.5 Q105,255,162.19275,246.74739 Q219.3855,238.49478,105,248.16599 Q-9.385491,257.8372,64.43819,250.32481 Q138.26186,242.81245,105,250.88725 Q71.73814,258.96207,100.022675,266.11688 Q128.3072,273.27173,105,263.8839 Q81.692795,254.49614,113.7382,259.71344 Q145.7836,264.93076,105,247.76753 Q64.2164,230.60431,157.65994,233.69984 Q251.10347,236.79536,105,234.99234 Q-41.10347,233.18932,70.02765,233.05734 Q181.15878,232.92535,105,245.70847 Q28.841225,258.49158,100.488945,259.93716 Q172.13667,261.38275,105,243.3944 Q37.86333,225.40602,138.59442,232.5191 Q239.32552,239.63217,105,250.74725 Q-29.325508,261.86237,54.499855,267.65042 Q138.32521,273.4385,105,252.69774 Q71.67478,231.95699,155.51357,251.4425 Q239.35236,270.928,105,266.47125 Q-29.352356,262.0145,90.59008,265.47287 Q210.53252,268.93127,105,253.67015 Q-0.53252333,238.40903,117.69409,250.33017 Q235.9207,262.2513,105,246.53343 Q-25.920702,230.81554,102.01852,246.63826 Q229.95773,262.46097,105,260.637 Q-19.957731,258.813,111.608826,252.45747 Q243.17538,246.10194,105,236.77391 Q-33.17538,227.44589,48.30552,254.95015 Q129.78642,282.4544,105,269.59048 Q80.21358,256.72656,134.97702,246.53072 Q189.74046,236.33487,105,255.52444 Q20.25953,274.71402,114.555145,266.59192 Q208.85077,258.46982,105,251.31644 Q1.1492357,244.16307,74.15345,241.15076 Q147.15767,238.13846,105,244.66612 Q62.842335,251.19377,153.34996,257.09058 Q243.85759,262.98737,105,247.1084 Q-33.857582,231.22945,47.752274,243.75337 Q129.36212,256.27728,105,247.18863 Q80.63787,238.09996,92.81894,246.54997 Q105,255,105,257.5 Q105,260,162.19275,251.74739 Q219.3855,243.49478,105,253.16599 Q-9.385491,262.8372,64.43819,255.32481 Q138.26186,247.81245,105,255.88725 Q71.73814,263.96207,100.022675,271.11688 Q128.3072,278.27173,105,268.8839 Q81.692795,259.49612,113.7382,264.71344 Q145.7836,269.93076,105,252.76753 Q64.2164,235.60431,157.65994,238.69984 Q251.10347,241.79536,105,239.99234 Q-41.10347,238.18932,70.02765,238.05734 Q181.15878,237.92535,105,250.70847 Q28.841225,263.49158,100.488945,264.93716 Q172.13667,266.38275,105,248.3944 Q37.86333,230.40602,138.59442,237.5191 Q239.32552,244.63217,105,255.74725 Q-29.325508,266.86237,54.499855,272.65042 Q138.32521,278.4385,105,257.69775 Q71.67478,236.95699,155.51357,256.4425 Q239.35236,275.928,105,271.47125 Q-29.352356,267.0145,90.59008,270.47287 Q210.53252,273.93127,105,258.67014 Q-0.53252333,243.40903,117.69409,255.33017 Q235.9207,267.2513,105,251.53343 Q-25.920702,235.81554,102.01852,251.63826 Q229.95773,267.46097,105,265.637 Q-19.957731,263.813,111.608826,257.45746 Q243.17538,251.10194,105,241.77391 Q-33.17538,232.44589,48.30552,259.95013 Q129.78642,287.4544,105,274.59048 Q80.21358,261.72656,134.97702,251.53072 Q189.74046,241.33487,105,260.52444 Q20.25953,279.71402,114.555145,271.59192 Q208.85077,263.46982,105,256.31644 Q1.1492357,249.16307,74.15345,246.15076 Q147.15767,243.13846,105,249.66612 Q62.842335,256.1938,153.34996,262.09058 Q243.85759,267.98737,105,252.1084 Q-33.857582,236.22945,47.752274,248.75337 Q129.36212,261.27728,105,252.18863 Q80.63787,243.09996,92.81894,251.54997" fill="none" stroke="black" stroke-width="0.35" style="mix-blend-mode: multiply;"/>
</g>
</svg>