<svg height="210mm" style="background:white" viewBox="0 0 297 210" width="297mm" xmlns="http://www.w3.org/2000/svg" xmlns:inkscape="http://www.inkscape.org/namespaces/inkscape">
<g inkscape:groupmode="layer" inkscape:label="darkblue">
<path d="M30.464285,37.5 L46.464287,37.5 M38.464287,29.5 L38.464287,45.5 M47.392857,37.5 L63.392857,37.5 M55.392857,29.5 L55.392857,45.5 M64.32143,37.5 L80.32143,37.5 M72.32143,29.5 L72.32143,45.5 M81.25,37.5 L97.25,37.5 M89.25,29.5 L89.25,45.5 M98.17857,37.5 L114.17857,37.5 M106.17857,29.5 L106.17857,45.5 M115.10714,37.5 L131.10715,37.5 M123.10714,29.5 L123.10714,45.5 M132.03572,37.5 L148.03572,37.5 M140.03572,29.5 L140.03572,45.5 M148.96428,37.5 L164.96428,37.5 M156.96428,29.5 L156.96428,45.5 M165.89285,37.5 L181.89285,37.5 M173.89285,29.5 L173.89285,45.5 M182.82143,37.5 L198.82143,37.5 M190.82143,29.5 L190.82143,45.5 M199.75,37.5 L215.75,37.5 M207.75,29.5 L207.75,45.5 M216.67857,37.5 L232.67857,37.5 M224.67857,29.5 L224.67857,45.5 M233.60715,37.5 L249.60715,37.5 M241.60715,29.5 L241.60715,45.5 M250.53572,37.5 L266.5357,37.5 M258.5357,29.5 L258.5357,45.5 M30.464285,67.5 L46.464287,67.5 M38.464287,59.5 L38.464287,75.5 M47.392857,67.5 L63.392857,67.5 M55.392857,59.5 L55.392857,75.5 M64.32143,67.5 L80.32143,67.5 M72.32143,59.5 L72.32143,75.5 M81.25,67.5 L97.25,67.5 M89.25,59.5 L89.25,75.5 M98.17857,67.5 L114.17857,67.5 M106.17857,59.5 L106.17857,75.5 M115.10714,67.5 L131.10715,67.5 M123.10714,59.5 L123.10714,75.5 M132.03572,67.5 L148.03572,67.5 M140.03572,59.5 L140.03572,75.5 M148.96428,67.5 L164.96428,67.5 M156.96428,59.5 L156.96428,75.5 M165.89285,67.5 L181.89285,67.5 M173.89285,59.5 L173.89285,75.5 M182.82143,67.5 L198.82143,67.5 M190.82143,59.5 L190.82143,75.5 M199.75,67.5 L215.75,67.5 M207.75,59.5 L207.75,75.5 M216.67857,67.5 L232.67857,67.5 M224.67857,59.5 L224.67857,75.5 M233.60715,67.5 L249.60715,67.5 M241.60715,59.5 L241.60715,75.5 M250.53572,67.5 L266.5357,67.5 M258.5357,59.5 L258.5357,75.5 M30.464285,97.5 L46.464287,97.5 M38.464287,89.5 L38.464287,105.5 M47.392857,97.5 L63.392857,97.5 M55.392857,89.5 L55.392857,105.5 M64.32143,97.5 L80.32143,97.5 M72.32143,89.5 L72.32143,105.5 M81.25,97.5 L97.25,97.5 M89.25,89.5 L89.25,105.5 M98.17857,97.5 L114.17857,97.5 M106.17857,89.5 L106.17857,105.5 M115.10714,97.5 L131.10715,97.5 M123.10714,89.5 L123.10714,105.5 M132.03572,97.5 L148.03572,97.5 M140.03572,89.5 L140.03572,105.5 M148.96428,97.5 L164.96428,97.5 M156.96428,89.5 L156.96428,105.5 M165.89285,97.5 L181.89285,97.5 M173.89285,89.5 L173.89285,105.5 M182.82143,97.5 L198.82143,97.5 M190.82143,89.5 L190.82143,105.5 M199.75,97.5 L215.75,97.5 M207.75,89.5 L207.75,105.5 M216.67857,97.5 L232.67857,97.5 M224.67857,89.5 L224.67857,105.5 M233.60715,97.5 L249.60715,97.5 M241.60715,89.5 L241.60715,105.5 M250.53572,97.5 L266.5357,97.5 M258.5357,89.5 L258.5357,105.5 M30.464285,127.5 L46.464287,127.5 M38.464287,119.5 L38.464287,135.5 M47.392857,127.5 L63.392857,127.5 M55.392857,119.5 L55.392857,135.5 M64.32143,127.5 L80.32143,127.5 M72.32143,119.5 L72.32143,135.5 M81.25,127.5 L97.25,127.5 M89.25,119.5 L89.25,135.5 M98.17857,127.5 L114.17857,127.5 M106.17857,119.5 L106.17857,135.5 M115.10714,127.5 L131.10715,127.5 M123.10714,119.5 L123.10714,135.5 M132.03572,127.5 L148.03572,127.5 M140.03572,119.5 L140.03572,135.5 M148.96428,127.5 L164.96428,127.5 M156.96428,119.5 L156.96428,135.5 M165.89285,127.5 L181.89285,127.5 M173.89285,119.5 L173.89285,135.5 M182.82143,127.5 L198.82143,127.5 M190.82143,119.5 L190.82143,135.5 M199.75,127.5 L215.75,127.5 M207.75,119.5 L207.75,135.5 M216.67857,127.5 L232.67857,127.5 M224.67857,119.5 L224.67857,135.5 M233.60715,127.5 L249.60715,127.5 M241.60715,119.5 L241.60715,135.5 M250.53572,127.5 L266.5357,127.5 M258.5357,119.5 L258.5357,135.5 M30.464285,157.5 L46.464287,157.5 M38.464287,149.5 L38.464287,165.5 M47.392857,157.5 L63.392857,157.5 M55.392857,149.5 L55.392857,165.5 M64.32143,157.5 L80.32143,157.5 M72.32143,149.5 L72.32143,165.5 M81.25,157.5 L97.25,157.5 M89.25,149.5 L89.25,165.5 M98.17857,157.5 L114.17857,157.5 M106.17857,149.5 L106.17857,165.5 M115.10714,157.5 L131.10715,157.5 M123.10714,149.5 L123.10714,165.5 M132.03572,157.5 L148.03572,157.5 M140.03572,149.5 L140.03572,165.5 M148.96428,157.5 L164.96428,157.5 M156.96428,149.5 L156.96428,165.5 M165.89285,157.5 L181.89285,157.5 M173.89285,149.5 L173.89285,165.5 M182.82143,157.5 L198.82143,157.5 M190.82143,149.5 L190.82143,165.5 M199.75,157.5 L215.75,157.5 M207.75,149.5 L207.75,165.5 M216.67857,157.5 L232.67857,157.5 M224.67857,149.5 L224.67857,165.5 M233.60715,157.5 L249.60715,157.5 M241.60715,149.5 L241.60715,165.5 M250.53572,157.5 L266.5357,157.5 M258.5357,149.5 L258.5357,165.5" fill="none" stroke="darkblue" stroke-width="0.5" style="mix-blend-mode: multiply;"/>
</g>
<g inkscape:groupmode="layer" inkscape:label="firebrick">
<path d="M38.92857,52.5 L54.92857,52.5 M46.92857,44.5 L46.92857,60.5 M55.857143,52.5 L71.85714,52.5 M63.857143,44.5 L63.857143,60.5 M72.78571,52.5 L88.78571,52.5 M80.78571,44.5 L80.78571,60.5 M89.71429,52.5 L105.71429,52.5 M97.71429,44.5 L97.71429,60.5 M106.64286,52.5 L122.64286,52.5 M114.64286,44.5 L114.64286,60.5 M123.57143,52.5 L139.57143,52.5 M131.57143,44.5 L131.57143,60.5 M140.5,52.5 L156.5,52.5 M148.5,44.5 L148.5,60.5 M157.42857,52.5 L173.42857,52.5 M165.42857,44.5 L165.42857,60.5 M174.35715,52.5 L190.35715,52.5 M182.35715,44.5 L182.35715,60.5 M191.28572,52.5 L207.28572,52.5 M199.28572,44.5 L199.28572,60.5 M208.21428,52.5 L224.21428,52.5 M216.21428,44.5 L216.21428,60.5 M225.14285,52.5 L241.14285,52.5 M233.14285,44.5 L233.14285,60.5 M242.07143,52.5 L258.07144,52.5 M250.07143,44.5 L250.07143,60.5 M38.92857,82.5 L54.92857,82.5 M46.92857,74.5 L46.92857,90.5 M55.857143,82.5 L71.85714,82.5 M63.857143,74.5 L63.857143,90.5 M72.78571,82.5 L88.78571,82.5 M80.78571,74.5 L80.78571,90.5 M89.71429,82.5 L105.71429,82.5 M97.71429,74.5 L97.71429,90.5 M106.64286,82.5 L122.64286,82.5 M114.64286,74.5 L114.64286,90.5 M123.57143,82.5 L139.57143,82.5 M131.57143,74.5 L131.57143,90.5 M140.5,82.5 L156.5,82.5 M148.5,74.5 L148.5,90.5 M157.42857,82.5 L173.42857,82.5 M165.42857,74.5 L165.42857,90.5 M174.35715,82.5 L190.35715,82.5 M182.35715,74.5 L182.35715,90.5 M191.28572,82.5 L207.28572,82.5 M199.28572,74.5 L199.28572,90.5 M208.21428,82.5 L224.21428,82.5 M216.21428,74.5 L216.21428,90.5 M225.14285,82.5 L241.14285,82.5 M233.14285,74.5 L233.14285,90.5 M242.07143,82.5 L258.07144,82.5 M250.07143,74.5 L250.07143,90.5 M38.92857,112.5 L54.92857,112.5 M46.92857,104.5 L46.92857,120.5 M55.857143,112.5 L71.85714,112.5 M63.857143,104.5 L63.857143,120.5 M72.78571,112.5 L88.78571,112.5 M80.78571,104.5 L80.78571,120.5 M89.71429,112.5 L105.71429,112.5 M97.71429,104.5 L97.71429,120.5 M106.64286,112.5 L122.64286,112.5 M114.64286,104.5 L114.64286,120.5 M123.57143,112.5 L139.57143,112.5 M131.57143,104.5 L131.57143,120.5 M140.5,112.5 L156.5,112.5 M148.5,104.5 L148.5,120.5 M157.42857,112.5 L173.42857,112.5 M165.42857,104.5 L165.42857,120.5 M174.35715,112.5 L190.35715,112.5 M182.35715,104.5 L182.35715,120.5 M191.28572,112.5 L207.28572,112.5 M199.28572,104.5 L199.28572,120.5 M208.21428,112.5 L224.21428,112.5 M216.21428,104.5 L216.21428,120.5 M225.14285,112.5 L241.14285,112.5 M233.14285,104.5 L233.14285,120.5 M242.07143,112.5 L258.07144,112.5 M250.07143,104.5 L250.07143,120.5 M38.92857,142.5 L54.92857,142.5 M46.92857,134.5 L46.92857,150.5 M55.857143,142.5 L71.85714,142.5 M63.857143,134.5 L63.857143,150.5 M72.78571,142.5 L88.78571,142.5 M80.78571,134.5 L80.78571,150.5 M89.71429,142.5 L105.71429,142.5 M97.71429,134.5 L97.71429,150.5 M106.64286,142.5 L122.64286,142.5 M114.64286,134.5 L114.64286,150.5 M123.57143,142.5 L139.57143,142.5 M131.57143,134.5 L131.57143,150.5 M140.5,142.5 L156.5,142.5 M148.5,134.5 L148.5,150.5 M157.42857,142.5 L173.42857,142.5 M165.42857,134.5 L165.42857,150.5 M174.35715,142.5 L190.35715,142.5 M182.35715,134.5 L182.35715,150.5 M191.28572,142.5 L207.28572,142.5 M199.28572,134.5 L199.28572,150.5 M208.21428,142.5 L224.21428,142.5 M216.21428,134.5 L216.21428,150.5 M225.14285,142.5 L241.14285,142.5 M233.14285,134.5 L233.14285,150.5 M242.07143,142.5 L258.07144,142.5 M250.07143,134.5 L250.07143,150.5 M38.92857,172.5 L54.92857,172.5 M46.92857,164.5 L46.92857,180.5 M55.857143,172.5 L71.85714,172.5 M63.857143,164.5 L63.857143,180.5 M72.78571,172.5 L88.78571,172.5 M80.78571,164.5 L80.78571,180.5 M89.71429,172.5 L105.71429,172.5 M97.71429,164.5 L97.71429,180.5 M106.64286,172.5 L122.64286,172.5 M114.64286,164.5 L114.64286,180.5 M123.57143,172.5 L139.57143,172.5 M131.57143,164.5 L131.57143,180.5 M140.5,172.5 L156.5,172.5 M148.5,164.5 L148.5,180.5 M157.42857,172.5 L173.42857,172.5 M165.42857,164.5 L165.42857,180.5 M174.35715,172.5 L190.35715,172.5 M182.35715,164.5 L182.35715,180.5 M191.28572,172.5 L207.28572,172.5 M199.28572,164.5 L199.28572,180.5 M208.21428,172.5 L224.21428,172.5 M216.21428,164.5 L216.21428,180.5 M225.14285,172.5 L241.14285,172.5 M233.14285,164.5 L233.14285,180.5 M242.07143,172.5 L258.07144,172.5 M250.07143,164.5 L250.07143,180.5" fill="none" stroke="firebrick" stroke-width="0.5" style="mix-blend-mode: multiply;"/>
<g inkscape:groupmode="layer" inkscape:label="signature">
<path d="m 15.815664,12.893319 c -1.445284,-3.0999497 -5.555449,-0.3575 -5.08537,2.32203 1.697826,2.92736 4.504013,-3.54417 4.40859,-2.58178 -1.548999,2.22986 0.741131,6.08701 3.012419,3.25791 2.532153,-2.82358 0.259001,-7.8326797 -3.488671,-7.9011197 -3.217272,0.056 -5.8863857,2.4603197 -7.9308737,4.7238797 -2.354585,2.46752 0.0048,5.887 2.757763,6.62143 3.2195457,1.10867 6.8759417,1.30834 9.9459317,-0.36585 2.270396,-1.12373 5.025949,-2.62031 5.680576,-5.20027 -2.108811,-3.66096 -6.038415,1.28356 -3.842036,3.67822 1.07278,0.89979 4.586982,-2.27037 3.201668,-2.73503 0.03094,3.24357 1.226854,6.37852 1.337023,9.60311 -0.672198,3.54892 -7.469251,0.32096 -4.637082,-2.5164 2.158436,-2.4193 5.610472,-2.84094 8.202925,-4.57369 0.993877,-1.40371 0.353413,-5.25046 3.182464,-3.48957 2.142923,1.43516 -2.250898,5.7532 1.723416,5.02339 1.661189,-0.71663 6.494946,-1.40457 4.601401,-3.95236 -4.205319,-0.68052 -1.190571,5.86505 1.665411,3.46881 1.929752,-0.9247 2.778055,-4.05119 1.423645,-5.35034 0.479155,1.8589 3.849911,7.52574 4.880369,3.32696 0.21201,-1.28088 0.40468,-3.80204 1.01246,-1.23041 0.5858,2.6865 3.83412,4.91909 4.56937,1.07383 0.65272,-1.00894 -0.2696,-4.02739 0.99929,-1.35746 1.10974,2.31613 6.32001,1.46113 6.147,-1.13059 -1.98394,-2.13868 -5.3717,1.45205 -3.78252,3.73454 2.57741,0.96208 6.69797,-0.21041 7.06275,-3.33983 0.41287,-2.63769 0.26643,-5.3430297 -0.11178,-7.9756197 0.67418,3.94149 1.24889,7.9380497 2.39963,11.7713397 2.10586,1.67977 5.7434,1.65022 7.74596,-0.23639 3.03149,-1.85431 -0.26637,-4.76925 -2.71777,-4.54025 -2.11577,0.0793 -5.36257,2.40772 -5.16868,3.85604 2.08262,-2.38818 5.55759,-1.22628 8.30726,-1.6832 3.182,-0.26596 6.46546,-0.57372 9.54494,-1.18158 0.24171,0.4199 -0.27752,0.54338 -0.43067,0.17453" fill="none" stroke="firebrick" stroke-width="1" transform="translate(195.89999999999998,180) scale(0.6)"/>
</g>
</g>
</svg>