<svg width="420" height="594" xmlns="http://www.w3.org/2000/svg"><path d="M24,22L25,22M23,26L25,26L25,34L27,34M31,34L31,26L37,26L37,34M34,26L34,34M42,34L47,34L47,26L42,26L42,38M52,26L57,26L57,34L52,34L52,26M63,26L63,34M64,28L65,26L68,26M72,26L77,26M74,24L74,34L77,34M93,26L98,26M98,22L94,22L94,34M107,26L102,26L102,28L107,32L107,34L102,34M123,26L128,26M128,22L124,22L124,34M133,26L133,34M134,28L135,26L138,26M142,26L147,26L147,34L142,34L142,26M151,34L151,26L157,26L157,34M154,26L154,34M172,22L172,26M176,22L176,26M183,26L188,26M188,22L184,22L184,34M197,26L192,26L192,28L197,32L197,34L192,34M202,22L202,26M206,22L206,26M22,42L25,42L25,52L26,54L28,54M38,54L31,54L31,46L38,46L38,50L31,50M42,46L47,46M44,44L44,54L47,54M64,42L65,42M63,46L65,46L65,54L67,54M74,52L74,54L73,56M82,46L87,46M84,44L84,54L87,54M94,52L94,54L93,56M107,50L102,50L102,54L107,54L107,46L102,46M111,48L118,48M111,52L118,52M122,42L122,46M126,42L126,46M131,44L137,44L137,48L131,54L137,54M141,46L145,44L145,54M151,44L157,44L157,48L151,54L157,54M162,44L167,44L167,48L163,48L167,48L167,54L162,54M171,50L177,50M174,46L174,54M187,44L182,44L182,54L187,54L187,48L182,48M191,46L195,44L195,54M207,44L202,44L202,54L207,54L207,48L202,48M212,44L217,44L217,48L213,48L217,48L217,54L212,54M224,52L224,54L223,56M234,52L234,54L233,56M244,52L244,54L243,56M254,52L254,54L253,56M267,48L262,48L262,44L267,44L267,54L262,54L262,48M278,50L271,50L276,44L276,54M281,44L288,44L283,54M291,44L298,44L293,54M301,46L305,44L305,54M317,44L312,44L312,54L317,54L317,48L312,48M322,44L327,44L327,48L323,48L327,48L327,54L322,54M338,50L331,50L336,44L336,54M347,48L342,48L342,44L347,44L347,54L342,54L342,48M351,44L358,44L353,54M361,44L367,44L367,48L361,54L367,54M371,44L377,44L377,48L371,54L377,54M387,44L382,44L382,54L387,54L387,48L382,48M391,44L397,44L397,48L391,54L397,54M404,52L404,54L403,56M24,72L24,74L23,76M37,64L32,64L32,74L37,74L37,68L32,68M41,66L45,64L45,74M58,70L51,70L56,64L56,74M62,64L67,64L67,68L63,68L67,68L67,74L62,74M78,70L71,70L76,64L76,74M87,64L82,64L82,74L87,74L87,68L82,68M97,64L92,64L92,74L97,74L97,68L92,68M107,68L102,68L102,64L107,64L107,74L102,74L102,68M114,72L114,74L113,76M122,64L127,64L127,68L123,68L127,68L127,74L122,74M131,66L135,64L135,74M147,64L142,64L142,68L147,68L147,74L142,74M152,64L157,64L157,68L153,68L157,68L157,74L152,74M167,64L162,64L162,68L167,68L167,74L162,74M177,64L172,64L172,74L177,74L177,68L172,68M182,64L187,64L187,68L183,68L187,68L187,74L182,74M197,68L192,68L192,64L197,64L197,74L192,74L192,68M204,72L204,74L203,76M214,72L214,74L213,76M221,66L225,64L225,74M237,64L232,64L232,68L237,68L237,74L232,74M241,64L248,64L243,74M257,64L252,64L252,68L257,68L257,74L252,74M261,70L267,70M264,66L264,74M278,70L271,70L276,64L276,74M282,64L287,64L287,68L283,68L287,68L287,74L282,74M298,70L291,70L296,64L296,74M301,64L308,64L303,74M314,72L314,74L313,76M328,70L321,70L326,64L326,74M337,64L332,64L332,74L337,74L337,68L332,68M348,70L341,70L346,64L346,74M351,64L358,64L353,74M362,64L367,64L367,68L363,68L367,68L367,74L362,74M377,68L372,68L372,64L377,64L377,74L372,74L372,68M384,72L384,74L383,76M391,66L395,64L395,74M407,64L402,64L402,68L407,68L407,74L402,74M27,88L22,88L22,84L27,84L27,94L22,94L22,88M37,84L32,84L32,88L37,88L37,94L32,94M44,92L44,94L43,96M52,84L57,84L57,88L53,88L57,88L57,94L52,94M67,84L62,84L62,94L67,94L67,88L62,88M77,84L72,84L72,88L77,88L77,94L72,94M87,84L82,84L82,94L87,94L87,88L82,88M97,84L92,84L92,88L97,88L97,94L92,94M101,84L108,84L103,94M112,84L117,84L117,88L113,88L117,88L117,94L112,94M121,84L128,84L123,94M132,84L137,84L137,88L133,88L137,88L137,94L132,94M147,84L142,84L142,94L147,94L147,88L142,88M154,92L154,94L153,96M161,86L165,84L165,94M177,88L172,88L172,84L177,84L177,94L172,94L172,88M181,84L188,84L183,94M191,86L195,84L195,94M204,92L204,94L203,96M211,84L218,84L213,94M221,84L227,84L227,88L221,94L227,94M231,84L237,84L237,88L231,94L237,94M241,84L247,84L247,88L241,94L247,94M251,84L257,84L257,88L251,94L257,94M261,84L268,84L263,94M271,84L278,84L273,94M281,84L288,84L283,94M291,84L298,84L293,94M301,84L307,84L307,88L301,94L307,94M311,84L317,84L317,88L311,94L317,94M321,84L328,84L323,94M334,92L334,94L333,96M341,86L345,84L345,94M352,84L357,84L357,88L353,88L357,88L357,94L352,94M367,84L362,84L362,88L367,88L367,94L362,94M371,84L377,84L377,88L371,94L377,94M387,84L382,84L382,88L387,88L387,94L382,94M391,84L398,84L393,94M404,92L404,94L403,96M21,106L25,104L25,114M31,104L37,104L37,108L31,114L37,114M41,104L48,104L43,114M51,104L57,104L57,108L51,114L57,114M61,104L68,104L63,114M78,110L71,110L76,104L76,114M81,106L85,104L85,114M91,104L98,104L93,114M101,104L108,104L103,114M111,104L118,104L113,114M124,112L124,114L123,116M131,104L137,104L137,108L131,114L137,114M141,104L147,104L147,108L141,114L147,114M151,104L158,104L153,114M161,104L167,104L167,108L161,114L167,114M171,104L178,104L173,114M188,110L181,110L186,104L186,114M192,104L197,104L197,108L193,108L197,108L197,114L192,114M208,110L201,110L206,104L206,114M211,104L218,104L213,114M228,110L221,110L226,104L226,114M231,104L238,104L233,114M241,104L248,104L243,114M251,104L257,104L257,108L251,114L257,114M261,104L268,104L263,114M274,112L274,114L273,116M287,108L282,108L282,104L287,104L287,114L282,114L282,108M297,104L292,104L292,108L297,108L297,114L292,114M301,106L305,104L305,114M317,104L312,104L312,108L317,108L317,114L312,114M327,104L322,104L322,114L327,114L327,108L322,108M331,104L337,104L337,108L331,114L337,114M347,104L342,104L342,114L347,114L347,108L342,108M351,104L358,104L353,114M364,112L364,114L363,116M371,104L378,104L373,114M381,104L387,104L387,108L381,114L387,114M391,104L397,104L397,108L391,114L397,114M401,104L407,104L407,108L401,114L407,114M21,124L27,124L27,128L21,134L27,134M38,130L31,130L36,124L36,134M41,124L48,124L43,134M58,130L51,130L56,124L56,134M61,124L68,124L63,134M71,124L78,124L73,134M81,124L87,124L87,128L81,134L87,134M91,124L98,124L93,134M104,132L104,134L103,136M111,124L118,124L113,134M121,124L127,124L127,128L121,134L127,134M131,124L137,124L137,128L131,134L137,134M141,124L147,124L147,128L141,134L147,134M151,124L157,124L157,128L151,134L157,134M161,124L168,124L163,134M171,124L178,124L173,134M181,124L188,124L183,134M191,124L198,124L193,134M208,130L201,130L206,124L206,134M211,124L217,124L217,128L211,134L217,134M228,130L221,130L226,124L226,134M234,132L234,134L233,136M241,126L245,124L245,134M251,124L257,124L257,128L251,134L257,134M267,128L262,128L262,124L267,124L267,134L262,134L262,128M271,124L277,124L277,128L271,134L277,134M282,124L287,124L287,128L283,128L287,128L287,134L282,134M291,124L298,124L293,134M304,132L304,134L303,136M311,124L318,124L313,134M328,130L321,130L326,124L326,134M331,124L337,124L337,128L331,134L337,134M348,130L341,130L346,124L346,134M351,124L357,124L357,128L351,134L357,134M361,124L367,124L367,128L361,134L367,134M371,124L378,124L373,134M381,124L387,124L387,128L381,134L387,134M391,124L398,124L393,134M401,124L408,124L403,134M21,144L27,144L27,148L21,154L27,154M31,144L38,144L33,154M41,144L47,144L47,148L41,154L47,154M58,150L51,150L56,144L56,154M64,152L64,154L63,156M71,144L78,144L73,154M87,144L82,144L82,148L87,148L87,154L82,154M91,144L97,144L97,148L91,154L97,154M107,144L102,144L102,148L107,148L107,154L102,154M111,144L117,144L117,148L111,154L117,154M121,144L127,144L127,148L121,154L127,154M131,144L138,144L133,154M141,144L147,144L147,148L141,154L147,154M151,144L158,144L153,154M161,144L168,144L163,154M171,144L177,144L177,148L171,154L177,154M181,144L188,144L183,154M194,152L194,154L193,156M208,150L201,150L206,144L206,154M212,144L217,144L217,148L213,148L217,148L217,154L212,154M228,150L221,150L226,144L226,154M238,150L231,150L236,144L236,154M241,150L247,150M244,146L244,154M258,150L251,150L256,144L256,154M267,144L262,144L262,154L267,154L267,148L262,148M278,150L271,150L276,144L276,154M281,144L288,144L283,154M294,152L294,154L293,156M304,152L304,154L303,156M317,148L312,148L312,144L317,144L317,154L312,154L312,148M322,144L327,144L327,148L323,148L327,148L327,154L322,154M331,146L335,144L335,154M347,144L342,144L342,148L347,148L347,154L342,154M357,148L352,148L352,144L357,144L357,154L352,154L352,148M361,144L368,144L363,154M374,152L374,154L373,156M381,146L385,144L385,154M398,150L391,150L396,144L396,154M407,148L402,148L402,144L407,144L407,154L402,154L402,148M28,170L21,170L26,164L26,174M31,170L37,170M34,166L34,174M41,166L45,164L45,174M57,164L52,164L52,174L57,174L57,168L52,168M67,168L62,168L62,164L67,164L67,174L62,174L62,168M77,164L72,164L72,174L77,174L77,168L72,168M84,172L84,174L83,176M91,166L95,164L95,174M102,164L107,164L107,168L103,168L107,168L107,174L102,174M117,168L112,168L112,164L117,164L117,174L112,174L112,168M127,164L122,164L122,168L127,168L127,174L122,174M131,166L135,164L135,174M141,164L148,164L143,174M154,172L154,174L153,176M164,172L164,174L163,176M174,172L174,174L173,176M184,172L184,174L183,176M194,172L194,174L193,176M204,172L204,174L203,176M214,172L214,174L213,176M224,172L224,174L223,176M237,168L232,168L232,164L237,164L237,174L232,174L232,168M241,164L247,164L247,168L241,174L247,174M251,164L257,164L257,168L251,174L257,174M261,164L267,164L267,168L261,174L267,174M271,164L277,164L277,168L271,174L277,174M281,164L288,164L283,174M291,170L297,170M294,166L294,174M302,164L307,164L307,168L303,168L307,168L307,174L302,174M318,170L311,170L316,164L316,174M327,168L322,168L322,164L327,164L327,174L322,174L322,168M338,170L331,170L336,164L336,174M344,172L344,174L343,176M354,172L354,174L353,176M364,172L364,174L363,176M374,172L374,174L373,176M384,172L384,174L383,176M394,172L394,174L393,176M401,164L407,164L407,168L401,174L407,174M21,186L25,184L25,194M31,184L37,184L37,188L31,194L37,194M41,184L48,184L43,194M57,188L52,188L52,184L57,184L57,194L52,194L52,188M61,184L68,184L63,194M74,192L74,194L73,196M81,186L85,184L85,194M91,184L98,184L93,194M101,186L105,184L105,194M111,186L115,184L115,194M128,190L121,190L126,184L126,194M137,184L132,184L132,188L137,188L137,194L132,194M141,184L148,184L143,194M151,186L155,184L155,194M161,184L168,184L163,194M171,184L178,184L173,194M184,192L184,194L183,196M194,192L194,194L193,196M204,192L204,194L203,196M214,192L214,194L213,196M224,192L224,194L223,196M234,192L234,194L233,196M241,184L248,184L243,194M251,184L257,184L257,188L251,194L257,194M261,184L267,184L267,188L261,194L267,194M271,184L277,184L277,188L271,194L277,194M281,184L287,184L287,188L281,194L287,194M298,190L291,190L296,184L296,194M301,184L308,184L303,194M317,184L312,184L312,188L317,188L317,194L312,194M321,184L328,184L323,194M331,184L338,184L333,194M341,184L347,184L347,188L341,194L347,194M351,184L358,184L353,194M364,192L364,194L363,196M374,192L374,194L373,196M384,192L384,194L383,196M394,192L394,194L393,196M404,192L404,194L403,196M24,212L24,214L23,216M34,212L34,214L33,216M44,212L44,214L43,216M51,204L58,204L53,214M61,206L65,204L65,214M78,210L71,210L76,204L76,214M81,206L85,204L85,214M98,210L91,210L96,204L96,214M107,208L102,208L102,204L107,204L107,214L102,214L102,208M111,204L118,204L113,214M127,208L122,208L122,204L127,204L127,214L122,214L122,208M134,212L134,214L133,216M144,212L144,214L143,216M151,204L157,204L157,208L151,214L157,214M161,206L165,204L165,214M177,204L172,204L172,208L177,208L177,214L172,214M181,206L185,204L185,214M197,204L192,204L192,208L197,208L197,214L192,214M207,208L202,208L202,204L207,204L207,214L202,214L202,208M211,204L217,204L217,208L211,214L217,214M227,208L222,208L222,204L227,204L227,214L222,214L222,208M234,212L234,214L233,216M244,212L244,214L243,216M254,212L254,214L253,216M262,204L267,204L267,208L263,208L267,208L267,214L262,214M271,206L275,204L275,214M287,204L282,204L282,208L287,208L287,214L282,214M291,204L297,204L297,208L291,214L297,214M304,212L304,214L303,216M311,204L318,204L313,214M327,204L322,204L322,208L327,208L327,214L322,214M331,204L337,204L337,208L331,214L337,214M347,204L342,204L342,208L347,208L347,214L342,214M351,204L357,204L357,208L351,214L357,214M361,204L368,204L363,214M371,204L378,204L373,214M381,204L388,204L383,214M391,204L398,204L393,214M402,204L407,204L407,208L403,208L407,208L407,214L402,214M21,224L27,224L27,228L21,234L27,234M32,224L37,224L37,228L33,228L37,228L37,234L32,234M44,232L44,234L43,236M54,232L54,234L53,236M67,228L62,228L62,224L67,224L67,234L62,234L62,228M72,224L77,224L77,228L73,228L77,228L77,234L72,234M82,224L87,224L87,228L83,228L87,228L87,234L82,234M92,224L97,224L97,228L93,228L97,228L97,234L92,234M101,226L105,224L105,234M117,224L112,224L112,228L117,228L117,234L112,234M122,224L127,224L127,228L123,228L127,228L127,234L122,234M131,224L138,224L133,234M147,228L142,228L142,224L147,224L147,234L142,234L142,228M151,224L158,224L153,234M164,232L164,234L163,236M171,224L178,224L173,234M182,224L187,224L187,228L183,228L187,228L187,234L182,234M191,224L197,224L197,228L191,234L197,234M202,224L207,224L207,228L203,228L207,228L207,234L202,234M211,224L217,224L217,228L211,234L217,234M221,224L228,224L223,234M231,224L238,224L233,234M241,224L248,224L243,234M251,224L258,224L253,234M261,226L265,224L265,234M274,232L274,234L273,236M287,228L282,228L282,224L287,224L287,234L282,234L282,228M291,224L298,224L293,234M301,226L305,224L305,234M311,224L318,224L313,234M321,226L325,224L325,234M332,224L337,224L337,228L333,228L337,228L337,234L332,234M347,228L342,228L342,224L347,224L347,234L342,234L342,228M352,224L357,224L357,228L353,228L357,228L357,234L352,234M367,228L362,228L362,224L367,224L367,234L362,234L362,228M377,224L372,224L372,228L377,228L377,234L372,234M381,226L385,224L385,234M397,224L392,224L392,228L397,228L397,234L392,234M404,232L404,234L403,236M22,244L27,244L27,248L23,248L27,248L27,254L22,254M32,244L37,244L37,248L33,248L37,248L37,254L32,254M47,248L42,248L42,244L47,244L47,254L42,254L42,248M52,244L57,244L57,248L53,248L57,248L57,254L52,254M61,250L67,250M64,246L64,254M77,248L72,248L72,244L77,244L77,254L72,254L72,248M81,246L85,244L85,254M98,250L91,250L96,244L96,254M101,246L105,244L105,254M118,250L111,250L116,244L116,254M121,244L128,244L123,254M134,252L134,254L133,256M141,244L148,244L143,254M151,244L158,244L153,254M161,244L167,244L167,248L161,254L167,254M171,244L178,244L173,254M181,244L187,244L187,248L181,254L187,254M192,244L197,244L197,248L193,248L197,248L197,254L192,254M201,244L208,244L203,254M212,244L217,244L217,248L213,248L217,248L217,254L212,254M221,244L228,244L223,254M237,250L232,250L232,244L237,244L237,254L232,254M241,244L247,244L247,248L241,254L247,254M257,250L252,250L252,244L257,244L257,254L252,254M264,252L264,254L263,256M271,244L277,244L277,248L271,254L277,254M281,246L285,244L285,254M291,244L297,244L297,248L291,254L297,254M301,244L308,244L303,254M311,250L317,250M314,246L314,254M321,244L327,244L327,248L321,254L327,254M338,250L331,250L336,244L336,254M341,244L348,244L343,254M358,250L351,250L356,244L356,254M361,244L368,244L363,254M371,244L378,244L373,254M384,252L384,254L383,256M398,250L391,250L396,244L396,254M401,246L405,244L405,254M27,264L22,264L22,268L27,268L27,274L22,274M31,266L35,264L35,274M41,270L47,270M44,266L44,274M52,264L57,264L57,268L53,268L57,268L57,274L52,274M62,264L67,264L67,268L63,268L67,268L67,274L62,274M77,264L72,264L72,268L77,268L77,274L72,274M82,264L87,264L87,268L83,268L87,268L87,274L82,274M97,264L92,264L92,268L97,268L97,274L92,274M101,264L108,264L103,274M111,264L118,264L113,274M121,264L128,264L123,274M134,272L134,274L133,276M148,270L141,270L146,264L146,274M151,266L155,264L155,274M167,264L162,264L162,268L167,268L167,274L162,274M171,266L175,264L175,274M181,270L187,270M184,266L184,274M192,264L197,264L197,268L193,268L197,268L197,274L192,274M202,264L207,264L207,268L203,268L207,268L207,274L202,274M217,264L212,264L212,268L217,268L217,274L212,274M222,264L227,264L227,268L223,268L227,268L227,274L222,274M237,264L232,264L232,268L237,268L237,274L232,274M247,270L242,270L242,264L247,264L247,274L242,274M251,264L257,264L257,268L251,274L257,274M267,270L262,270L262,264L267,264L267,274L262,274M274,272L274,274L273,276M284,272L284,274L283,276M291,264L297,264L297,268L291,274L297,274M301,266L305,264L305,274M317,264L312,264L312,268L317,268L317,274L312,274M321,266L325,264L325,274M337,264L332,264L332,268L337,268L337,274L332,274M347,264L342,264L342,274L347,274L347,268L342,268M357,264L352,264L352,274L357,274L357,268L352,268M361,264L368,264L363,274M377,268L372,268L372,264L377,264L377,274L372,274L372,268M381,264L388,264L383,274M394,272L394,274L393,276M401,266L405,264L405,274M21,284L28,284L23,294M31,286L35,284L35,294M42,284L47,284L47,288L43,288L47,288L47,294L42,294M51,284L58,284L53,294M62,284L67,284L67,288L63,288L67,288L67,294L62,294M71,284L78,284L73,294M81,284L88,284L83,294M91,290L97,290M94,286L94,294M108,290L101,290L106,284L106,294M112,284L117,284L117,288L113,288L117,288L117,294L112,294M128,290L121,290L126,284L126,294M131,284L138,284L133,294M144,292L144,294L143,296M151,284L157,284L157,288L151,294L157,294M161,284L168,284L163,294M171,284L177,284L177,288L171,294L177,294M182,284L187,284L187,288L183,288L187,288L187,294L182,294M191,284L198,284L193,294M202,284L207,284L207,288L203,288L207,288L207,294L202,294M211,284L218,284L213,294M221,284L228,284L223,294M234,292L234,294L233,296M241,284L247,284L247,288L241,294L247,294M252,284L257,284L257,288L253,288L257,288L257,294L252,294M261,284L268,284L263,294M272,284L277,284L277,288L273,288L277,288L277,294L272,294M281,284L288,284L283,294M291,284L298,284L293,294M301,284L307,284L307,288L301,294L307,294M311,284L318,284L313,294M321,284L327,284L327,288L321,294L327,294M332,284L337,284L337,288L333,288L337,288L337,294L332,294M344,292L344,294L343,296M351,284L357,284L357,288L351,294L357,294M361,284L368,284L363,294M371,284L378,284L373,294M381,284L388,284L383,294M391,284L398,284L393,294M402,284L407,284L407,288L403,288L407,288L407,294L402,294M21,304L27,304L27,308L21,314L27,314M32,304L37,304L37,308L33,308L37,308L37,314L32,314M41,304L47,304L47,308L41,314L47,314M57,310L52,310L52,304L57,304L57,314L52,314M64,312L64,314L63,316M74,312L74,314L73,316M82,304L87,304L87,308L83,308L87,308L87,314L82,314M92,304L97,304L97,308L93,308L97,308L97,314L92,314M102,304L107,304L107,308L103,308L107,308L107,314L102,314M111,304L118,304L113,314M121,310L127,310M124,306L124,314M138,310L131,310L136,304L136,314M148,310L141,310L146,304L146,314M157,304L152,304L152,308L157,308L157,314L152,314M162,304L167,304L167,308L163,308L167,308L167,314L162,314M177,308L172,308L172,304L177,304L177,314L172,314L172,308M182,304L187,304L187,308L183,308L187,308L187,314L182,314M194,312L194,314L193,316M201,304L208,304L203,314M212,304L217,304L217,308L213,308L217,308L217,314L212,314M221,304L227,304L227,308L221,314L227,314M232,304L237,304L237,308L233,308L237,308L237,314L232,314M241,304L247,304L247,308L241,314L247,314M258,310L251,310L256,304L256,314M261,304L268,304L263,314M277,304L272,304L272,314L277,314L277,308L272,308M281,304L288,304L283,314M291,304L298,304L293,314M301,304L307,304L307,308L301,314L307,314M311,304L318,304L313,314M324,312L324,314L323,316M331,304L337,304L337,308L331,314L337,314M342,304L347,304L347,308L343,308L347,308L347,314L342,314M351,304L358,304L353,314M362,304L367,304L367,308L363,308L367,308L367,314L362,314M371,310L377,310M374,306L374,314M388,310L381,310L386,304L386,314M391,304L397,304L397,308L391,314L397,314M408,310L401,310L406,304L406,314M21,324L28,324L23,334M31,324L38,324L33,334M41,324L48,324L43,334M54,332L54,334L53,336M64,332L64,334L63,336M71,326L75,324L75,334M82,324L87,324L87,328L83,328L87,328L87,334L82,334M98,330L91,330L96,324L96,334M101,324L108,324L103,334M117,324L112,324L112,328L117,328L117,334L112,334M121,324L128,324L123,334M137,328L132,328L132,324L137,324L137,334L132,334L132,328M142,324L147,324L147,328L143,328L147,328L147,334L142,334M154,332L154,334L153,336M161,326L165,324L165,334M172,324L177,324L177,328L173,328L177,328L177,334L172,334M182,324L187,324L187,328L183,328L187,328L187,334L182,334M191,324L198,324L193,334M207,324L202,324L202,328L207,328L207,334L202,334M218,330L211,330L216,324L216,334M221,324L228,324L223,334M231,324L238,324L233,334M247,330L242,330L242,324L247,324L247,334L242,334M252,324L257,324L257,328L253,328L257,328L257,334L252,334M264,332L264,334L263,336M271,326L275,324L275,334M282,324L287,324L287,328L283,328L287,328L287,334L282,334M297,328L292,328L292,324L297,324L297,334L292,334L292,328M301,324L308,324L303,334M311,330L317,330M314,326L314,334M321,326L325,324L325,334M331,324L338,324L333,334M347,328L342,328L342,324L347,324L347,334L342,334L342,328M352,324L357,324L357,328L353,328L357,328L357,334L352,334M364,332L364,334L363,336M371,326L375,324L375,334M382,324L387,324L387,328L383,328L387,328L387,334L382,334M397,324L392,324L392,328L397,328L397,334L392,334M401,324L408,324L403,334M22,344L27,344L27,348L23,348L27,348L27,354L22,354M37,350L32,350L32,344L37,344L37,354L32,354M47,348L42,348L42,344L47,344L47,354L42,354L42,348M52,344L57,344L57,348L53,348L57,348L57,354L52,354M64,352L64,354L63,356M74,352L74,354L73,356M84,352L84,354L83,356M97,344L92,344L92,348L97,348L97,354L92,354M101,346L105,344L105,354M117,344L112,344L112,348L117,348L117,354L112,354M127,350L122,350L122,344L127,344L127,354L122,354M132,342L132,346M136,342L136,346M143,352L145,352L145,354L143,354L143,352M157,346L152,346L152,348L157,352L157,354L152,354M162,354L167,354L167,346L162,346L162,358M172,342L175,342L175,352L176,354L178,354M184,342L185,342M183,346L185,346L185,354L187,354M192,346L197,346M194,344L194,354L197,354M206,342L204,346L204,352L206,356M212,342L212,346M216,342L216,346M224,352L224,354L223,356M232,342L232,346M236,342L236,346M243,342L245,346L245,352L243,356M253,352L255,352L255,354L253,354L253,352M261,354L261,346L267,346L267,354M264,346L264,354M277,350L272,350L272,354L277,354L277,346L272,346M282,354L287,354L287,346L282,346L282,358M296,342L294,346L294,352L296,356M307,354L302,354L302,346L307,346L307,358L302,358M311,348L318,348M311,352L318,352M321,346L328,350L321,354M337,354L332,354L332,346L337,346L337,358L332,358M343,352L345,352L345,354L343,354L343,352M357,346L352,346L352,348L357,352L357,354L352,354M362,354L367,354L367,346L362,346L362,358M372,342L375,342L375,352L376,354L378,354M384,342L385,342M383,346L385,346L385,354L387,354M392,346L397,346M394,344L394,354L397,354M406,342L404,346L404,352L406,356M22,362L22,366M26,362L26,366M31,370L37,370M34,366L34,374M42,362L42,366M46,362L46,366M53,362L55,366L55,372L53,376M63,372L65,372L65,374L63,374L63,372M71,374L71,366L77,366L77,374M74,366L74,374M87,370L82,370L82,374L87,374L87,366L82,366M92,374L97,374L97,366L92,366L92,378M106,362L104,366L104,372L106,376M112,362L115,362L115,372L116,374L118,374M121,368L128,368M121,372L128,372M131,366L138,370L131,374M146,362L144,366L144,372L146,376M154,362L155,362M153,366L155,366L155,374L157,374M161,368L168,368M161,372L168,372M177,364L172,364L172,374L177,374L177,364L172,374M184,372L184,374L183,376M192,366L197,366M194,364L194,374L197,374M201,368L208,368M201,372L208,372M217,362L214,362L214,376L217,376M223,372L225,372L225,374L223,374L223,372M233,372L235,372L235,374L233,374L233,372M243,372L245,372L245,374L243,374L243,372M252,362L255,362L255,372L256,374L258,374M262,362L265,362L265,376L262,376M274,372L274,374L273,376M282,366L287,366M284,364L284,374L287,374M293,372L295,372L295,374L293,374L293,372M302,362L305,362L305,372L306,374L308,374M318,374L311,374L311,366L318,366L318,370L311,370M322,374L322,366L327,366L327,374M337,374L332,374L332,366L337,366L337,378L332,378M342,366L347,366M344,364L344,374L347,374M352,362L352,374M352,368L357,368L357,374M361,376L367,362M371,368L378,368M371,372L378,372M381,364L387,364L387,368L381,374L387,374M394,372L394,374L393,376M402,366L407,366M404,364L404,374L407,374M23,392L25,392L25,394L23,394L23,392M31,394L31,386L37,386L37,394M34,386L34,394M47,390L42,390L42,394L47,394L47,386L42,386M52,394L57,394L57,386L52,386L52,398M66,382L64,386L64,392L66,396M76,382L74,386L74,392L76,396M83,382L85,386L85,392L83,396M91,388L98,388M91,392L98,392M101,386L108,390L101,394M117,382L114,382L114,396L117,396M122,382L125,382L125,392L126,394L128,394M137,382L134,382L134,396L137,396M144,382L145,382M143,386L145,386L145,394L147,394M151,390L157,390M154,386L154,394M161,390L167,390M164,386L164,394M172,382L175,382L175,396L172,396M184,392L184,394L183,396M192,382L195,382L195,392L196,394L198,394M207,382L204,382L204,396L207,396M214,382L215,382M213,386L215,386L215,394L217,394M221,390L227,390M224,386L224,394M231,390L237,390M234,386L234,394M242,382L245,382L245,396L242,396M252,382L255,382L255,396L252,396M263,382L265,386L265,392L263,396M273,382L275,386L275,392L273,396M283,382L285,386L285,392L283,396M293,382L295,386L295,392L293,396M304,392L304,394L303,396M312,394L317,394L317,386L312,386L312,398M321,388L328,388M321,392L328,392M331,384L337,384L337,388L331,394L337,394M347,384L342,384L342,394L347,394L347,384L342,394M354,392L354,394L353,396M367,386L362,386L362,394L367,394L367,382M371,386L378,394M371,394L378,386M381,388L388,388M381,392L388,392M391,386L395,384L395,394M407,384L402,384L402,394L407,394L407,384L402,394M24,412L24,414L23,416M31,414L31,406L37,406L37,414M34,406L34,414M41,408L48,408M41,412L48,412M57,404L52,404L52,414L57,414L57,404L52,414M63,412L65,412L65,414L63,414L63,412M77,404L72,404L72,408L77,408L77,414L72,414M84,412L84,414L83,416M94,402L95,402M93,406L95,406L95,418L92,418M101,408L108,408M101,412L108,412M111,406L115,404L115,414M124,412L124,414L123,416M137,406L132,406L132,414L137,414L137,402M141,408L148,408M141,412L148,412M152,402L152,406M156,402L156,406M162,402L162,406M166,402L166,406M174,412L174,414L173,416M181,406L188,414M181,414L188,406M191,408L198,408M191,412L198,412M202,414L207,414L207,406L202,406L202,418M214,412L214,414L213,416M221,406L225,414L223,418L228,406M231,408L238,408M231,412L238,412M242,414L247,414L247,406L242,406L242,418M23,426L28,426M28,422L24,422L24,434M37,426L32,426L32,428L37,432L37,434L32,434M43,432L45,432L45,434L43,434L43,432M53,426L53,434M54,428L55,426L58,426M68,434L61,434L61,426L68,426L68,430L61,430M77,430L72,430L72,434L77,434L77,426L72,426M87,426L82,426L82,434L87,434L87,422M98,424L92,424L92,434M93,428L98,428M104,422L105,422M103,426L105,426L105,434L107,434M112,422L115,422L115,432L116,434L118,434M128,434L121,434L121,426L128,426L128,430L121,430M137,424L132,424L132,428L137,430L137,434L132,434M141,426L145,434L143,438L148,426M152,434L152,426L157,426L157,434M168,426L163,426L161,430L163,434L168,434M176,422L174,426L174,432L176,436M182,422L182,426M186,422L186,426M191,434L191,426L197,426L197,434M194,426L194,434M203,432L205,432L205,434L203,434L203,432M211,434L211,426L217,426L217,434M214,426L214,434M224,422L225,422M223,426L225,426L225,438L222,438M237,426L232,426L232,428L237,432L237,434L232,434M242,422L242,426M246,422L246,426M253,422L255,426L255,432L253,436M263,432L265,432L265,434L263,434L263,432M271,434L271,426L277,426L277,434M274,426L274,434M287,430L282,430L282,434L287,434L287,426L282,426M292,434L297,434L297,426L292,426L292,438M306,422L304,426L304,432L306,436M318,426L313,426L311,430L313,434L318,434M321,428L328,428M321,432L328,432M331,426L338,430L331,434M346,422L344,426L344,432L346,436M354,422L355,422M353,426L355,426L355,434L357,434M361,428L368,428M361,432L368,432M377,430L372,430L372,434L377,434L377,426L372,426M387,422L384,422L384,436L387,436M398,426L393,426L391,430L393,434L398,434M401,430L408,430M22,444L27,444L27,448L23,448L27,448L27,454L22,454M38,450L31,450L36,444L36,454M42,442L45,442L45,456L42,456M54,452L54,454L53,456M64,442L65,442M63,446L65,446L65,454L67,454M78,448L77,454L71,452L73,448L78,454L72,444L76,444M88,448L87,454L81,452L83,448L88,454L82,444L86,444M94,442L95,442M93,446L95,446L95,454L97,454M103,452L105,452L105,454L103,454L103,452M111,454L111,446L117,446L117,454M114,446L114,454M127,450L122,450L122,454L127,454L127,446L122,446M132,454L137,454L137,446L132,446L132,458M146,442L144,446L144,452L146,456M152,442L155,442L155,452L156,454L158,454M161,448L168,448M161,452L168,452M171,446L178,450L171,454M187,446L182,446L182,454L187,454L187,442M191,450L197,450M194,446L194,454M201,448L208,448M201,452L208,452M212,442L212,446M216,442L216,446M221,454L221,442L224,450L227,442L227,454M232,442L232,446M236,442L236,446M241,450L247,450M244,446L244,454M252,442L255,442L255,452L256,454L258,454M263,452L265,452L265,454L263,454L263,452M271,454L271,446L277,446L277,454M274,446L274,454M287,450L282,450L282,454L287,454L287,446L282,446M292,454L297,454L297,446L292,446L292,458M306,442L304,446L304,452L306,456M316,442L314,446L314,452L316,456M327,442L324,442L324,456L327,456M331,446L338,454M331,454L338,446M347,444L342,444L342,454L347,454L347,444L342,454M354,452L354,454L353,456M361,446L365,454L363,458L368,446M377,444L372,444L372,454L377,454L377,444L372,454M382,442L385,442L385,456L382,456M393,442L395,446L395,452L393,456M401,448L408,448M401,452L408,452M21,466L28,470L21,474M37,462L34,462L34,476L37,476M41,466L48,474M41,474L48,466M51,470L57,470M54,466L54,474M61,466L68,474M61,474L68,466M77,464L72,464L72,474L77,474L77,464L72,474M81,476L87,462M94,462L95,462M93,466L95,466L95,478L92,478M104,472L104,474L103,476M111,466L115,474L113,478L118,466M121,470L127,470M124,466L124,474M131,466L135,474L133,478L138,466M147,464L142,464L142,474L147,474L147,464L142,474M151,476L157,462M161,474L161,466L167,466L167,474M164,466L164,474M172,462L175,462L175,476L172,476M183,462L185,466L185,472L183,476M193,472L195,472L195,474L193,474L193,472M204,462L205,462M203,466L205,466L205,478L202,478M212,466L217,466L217,474L212,474L212,466M224,462L225,462M223,466L225,466L225,474L227,474M232,474L232,466L237,466L237,474M246,462L244,466L244,472L246,476M252,462L252,466M256,462L256,466M262,462L262,474L268,474M272,462L272,466M276,462L276,466M283,462L285,466L285,472L283,476M293,462L295,466L295,472L293,476M304,472L304,474L303,476M316,462L314,466L314,472L316,476M326,462L324,466L324,472L326,476M331,466L338,474M331,474L338,466M341,470L347,470M344,466L344,474M351,468L358,468M351,472L358,472M367,466L362,466L362,474L367,474L367,462M371,466L378,474M371,474L378,466M383,462L385,466L385,472L383,476M391,466L398,470L391,474M408,470L401,470L406,464L406,474M27,484L22,484L22,494L27,494L27,484L22,494M37,484L32,484L32,494L37,494L37,484L32,494M45,482L45,498M55,482L55,498M68,486L63,486L61,490L63,494L68,494M71,488L78,488M71,492L78,492M81,488L88,488M81,492L88,492M91,486L95,484L95,494M107,484L102,484L102,494L107,494L107,484L102,494M113,482L115,486L115,492L113,496M128,488L127,494L121,492L123,488L128,494L122,484L126,484M138,488L137,494L131,492L133,488L138,494L132,484L136,484M146,482L144,486L144,492L146,496M151,486L158,494M151,494L158,486M161,488L168,488M161,492L168,492M172,494L177,494L177,486L172,486L172,498M184,492L184,494L183,496M191,486L195,494L193,498L198,486M201,490L207,490M204,486L204,494M211,488L218,488M211,492L218,492M221,484L227,484L227,488L221,494L227,494M237,484L232,484L232,494L237,494L237,484L232,494M243,482L245,486L245,492L243,496M253,482L255,486L255,492L253,496M263,482L265,486L265,492L263,496M23,506L28,506M28,502L24,502L24,514M37,506L32,506L32,508L37,512L37,514L32,514M43,512L45,512L45,514L43,514L43,512M51,506L53,514L55,508L57,514L59,506M63,506L63,514M64,508L65,506L68,506M74,502L75,502M73,506L75,506L75,514L77,514M82,506L87,506M84,504L84,514L87,514M98,514L91,514L91,506L98,506L98,510L91,510M108,504L102,504L102,514M103,508L108,508M114,502L115,502M113,506L115,506L115,514L117,514M122,502L125,502L125,512L126,514L128,514M138,514L131,514L131,506L138,506L138,510L131,510M147,504L142,504L142,508L147,510L147,514L142,514M151,506L155,514L153,518L158,506M162,514L162,506L167,506L167,514M178,506L173,506L171,510L173,514L178,514M186,502L184,506L184,512L186,516M192,502L192,506M196,502L196,506M207,504L202,504L202,514L207,514L207,504L202,514M213,512L215,512L215,514L213,514L213,512M227,506L222,506L222,508L227,512L227,514L222,514M231,506L234,514L235,514L238,506M247,514L242,514L242,506L247,506L247,518L242,518M252,502L252,506M256,502L256,506M264,512L264,514L263,516M273,502L275,504M288,506L281,510L288,514M297,506L292,506L292,508L297,512L297,514L292,514M301,506L304,514L305,514L308,506M317,514L312,514L312,506L317,506L317,518L312,518M331,506L333,514L335,508L337,514L339,506M344,502L345,502M343,506L345,506L345,514L347,514M357,506L352,506L352,514L357,514L357,502M362,506L367,506M364,504L364,514L367,514M372,502L372,514M372,508L377,508L377,514M381,508L388,508M381,512L388,512M392,502L392,506M396,502L396,506M408,510L401,510L406,504L406,514M21,524L27,524L27,528L21,534L27,534M37,524L32,524L32,534L37,534L37,524L32,534M42,522L42,526M46,522L46,526M62,522L62,534M62,528L67,528L67,534M78,534L71,534L71,526L78,526L78,530L71,530M84,522L85,522M83,526L85,526L85,534L87,534M97,534L92,534L92,526L97,526L97,538L92,538M102,522L102,534M102,528L107,528L107,534M112,526L117,526M114,524L114,534L117,534M121,528L128,528M121,532L128,532M132,522L132,526M136,522L136,526M147,524L142,524L142,528L147,528L147,534L142,534M157,530L152,530L152,524L157,524L157,534L152,534M168,530L161,530L166,524L166,534M172,522L172,526M176,522L176,526M191,526L198,534M191,534L198,526M201,534L201,526L207,526L207,534M204,526L204,534M212,522L215,522L215,532L216,534L218,534M222,534L222,526L227,526L227,534M237,526L232,526L232,528L237,532L237,534L232,534M241,528L248,528M241,532L248,532M252,522L252,526M256,522L256,526M262,522L262,534M262,528L267,528L267,534M272,526L277,526M274,524L274,534L277,534M282,526L287,526M284,524L284,534L287,534M292,534L297,534L297,526L292,526L292,538M304,526L304,528M304,532L304,534M311,536L317,522M321,536L327,522M331,526L333,534L335,528L337,534L339,526M341,526L343,534L345,528L347,534L349,526M351,526L353,534L355,528L357,534L359,526M363,532L365,532L365,534L363,534L363,532M371,526L373,534L375,528L377,534L379,526M382,524L387,524L387,528L383,528L387,528L387,534L382,534M393,532L395,532L395,534L393,534L393,532M402,526L407,526L407,534L402,534L402,526M23,546L23,554M24,548L25,546L28,546M37,554L32,554L32,546L37,546L37,558L32,558M41,556L47,542M51,544L57,544L57,548L51,554L57,554M67,544L62,544L62,554L67,554L67,544L62,554M77,544L72,544L72,554L77,554L77,544L72,554M87,544L82,544L82,554L87,554L87,544L82,554M91,556L97,542M107,546L102,546L102,548L107,552L107,554L102,554M111,546L114,554L115,554L118,546M127,554L122,554L122,546L127,546L127,558L122,558M132,542L132,546M136,542L136,546M141,546L148,550L141,554M158,546L151,550L158,554M162,554L167,554L167,546L162,546L162,558M177,550L172,550L172,554L177,554L177,546L172,546M182,546L187,546M184,544L184,554L187,554M192,542L192,554M192,548L197,548L197,554M217,546L212,546L212,554L217,554L217,542M221,548L228,548M221,552L228,552M232,542L232,546M236,542L236,546M243,542L245,544M251,550L257,550M254,546L254,554M267,546L262,546L262,554L267,554L267,542M271,550L277,550M274,546L274,554M283,542L285,544M292,542L292,546M296,542L296,546M301,556L307,542M311,546L318,550L311,554M328,546L321,550L328,554M331,556L337,542M347,546L342,546L342,548L347,552L347,554L342,554M351,546L354,554L355,554L358,546M367,554L362,554L362,546L367,546L367,558L362,558M371,546L378,550L371,554M383,542L385,544M393,542L395,546L395,552L393,556"/></svg>