<svg height="297mm" style="background:black" viewBox="0 0 210 297" width="210mm" xmlns="http://www.w3.org/2000/svg" xmlns:inkscape="http://www.inkscape.org/namespaces/inkscape">
<g>
<g inkscape:groupmode="layer" inkscape:label="hotpink">
<path d="M38.580288,166.65938 L38.580288,167.51251 L38.580288,168.36563 L39.622997,168.36563 L39.622997,169.21877 L40.665707,169.21877 L40.665707,168.36563 L40.665707,167.51251 L39.622997,167.51251 L39.622997,166.65938 L39.622997,165.80624 L39.622997,164.95313 L39.622997,164.09999 L39.622997,163.24686 L38.580288,163.24686 L38.580288,162.39372 L38.580288,161.5406 L37.537575,161.5406 L37.537575,162.39372 L36.494865,162.39372 L36.494865,161.5406 L35.452156,161.5406 L35.452156,162.39372 L35.452156,163.24686 L36.494865,163.24686 L37.537575,163.24686 L37.537575,164.09999 L38.580288,164.09999 L38.580288,164.95313 L37.537575,164.95313 L36.494865,164.95313 L37.537575,165.80624 L37.537575,166.65938 L37.537575,167.51251 L38.580288,166.65938 M121.84379,143.09901 L123.43829,143.09901 L123.83692,144.59473 L122.641045,144.59473 L122.24242,144.59473 L121.84379,144.59473 L121.84379,145.34258 L122.24242,146.83827 L121.84379,148.33398 L121.04654,149.08183 L123.039665,149.08183 L124.23554,148.33398 L124.23554,146.83827 L125.83005,147.58614 L125.43142,148.33398 L125.83005,148.33398 L126.6273,149.08183 L125.83005,149.08183 L125.43142,149.08183 L125.0328,150.57755 L124.63417,150.57755 L124.63417,151.3254 L123.43829,151.3254 L123.43829,152.07324 L123.039665,152.07324 L123.039665,152.82109 L122.24242,152.07324 L121.84379,151.3254 L120.64791,152.82109 L122.641045,153.56895 L123.039665,153.56895 L123.83692,154.3168 L124.23554,152.82109 L125.0328,152.82109 L125.83005,152.82109 L126.228676,154.3168 L126.6273,152.82109 L126.228676,151.3254 L126.228676,150.57755 L126.6273,149.82968 L127.82317,150.57755 L128.2218,151.3254 L129.01906,151.3254 L129.41768,152.07324 L130.61356,152.82109 L131.01218,152.07324 L130.21494,151.3254 L129.8163,150.57755 L131.41081,149.82968 L132.20805,149.08183 L130.61356,149.08183 L129.41768,149.08183 L127.82317,148.33398 L128.2218,148.33398 L128.62042,148.33398 L129.8163,147.58614 L130.21494,146.83827 L131.01218,146.83827 L129.8163,146.09042 L130.21494,145.34258 L129.8163,144.59473 L128.62042,144.59473 L127.82317,145.34258 L128.2218,146.09042 L128.2218,146.83827 L127.42455,146.09042 L127.025925,146.83827 L125.83005,146.83827 L126.228676,146.09042 L125.83005,145.34258 L125.0328,145.34258 L125.0328,144.59473 L127.025925,143.84686 L127.42455,143.09901 L126.228676,141.60332 L125.0328,141.60332 L125.0328,140.85545 L123.039665,141.60332 L121.84379,140.85545 L122.24242,141.60332 L121.84379,143.09901 M106.66767,119.32712 L106.66767,118.7988 L105.96092,118.7988 L105.254166,118.7988 L104.54741,119.32712 L103.84066,119.32712 L103.1339,119.32712 L102.427155,119.32712 L101.7204,119.32712 L102.427155,118.7988 L103.84066,118.7988 L103.84066,118.27048 L105.254166,118.27048 L106.66767,118.27048 L107.37443,118.7988 L108.081184,117.74216 L108.081184,117.21383 L109.49469,117.21383 L110.20145,117.74216 L110.20145,118.27048 L110.908195,117.74216 L111.61495,117.74216 L111.61495,117.21383 L113.02846,117.74216 L113.02846,118.27048 L113.735214,118.27048 L114.44196,117.74216 L115.14872,118.27048 L115.14872,118.7988 L115.85548,118.7988 L115.85548,118.27048 L116.562225,118.27048 L116.562225,118.7988 L116.562225,119.32712 L117.97573,119.32712 L117.97573,118.7988 L118.68249,118.7988 L118.68249,119.32712 L119.389244,119.32712 L120.09599,119.32712 L120.80275,119.32712 L120.80275,119.85544 L121.50951,119.85544 L122.216255,120.383766 L122.92301,120.383766 L123.62977,120.383766 L124.33652,120.383766 L125.043274,120.383766 L125.043274,120.91209 L124.33652,120.91209 L123.62977,120.91209 L122.216255,120.91209 L121.50951,120.383766 L120.80275,120.383766 L120.09599,120.383766 L120.09599,119.85544 L119.389244,119.85544 L119.389244,120.383766 L117.97573,120.383766 L117.26898,120.383766 L115.85548,119.85544 L115.85548,119.32712 L115.14872,119.85544 L115.14872,120.383766 L114.44196,119.85544 L114.44196,119.32712 L113.735214,118.7988 L113.02846,119.32712 L113.02846,119.85544 L112.3217,119.32712 L112.3217,118.7988 L111.61495,118.7988 L110.908195,119.85544 L110.908195,118.7988 L110.20145,118.7988 L109.49469,118.7988 L109.49469,118.27048 L108.78793,118.27048 L108.081184,118.7988 L107.37443,119.32712 L106.66767,119.32712 M76.2903,74.68405 L76.878204,74.68405 L76.878204,73.69308 L77.4661,73.69308 L78.05401,73.69308 L78.64191,73.69308 L78.05401,72.7021 L78.64191,72.7021 L79.22981,72.7021 L79.81771,72.7021 L79.81771,73.69308 L80.40562,73.69308 L81.58142,72.7021 L80.993515,72.7021 L80.40562,72.7021 L79.81771,71.71113 L80.40562,71.71113 L81.58142,71.71113 L81.58142,70.72015 L82.16932,70.72015 L82.757225,69.72919 L83.34512,69.72919 L83.93303,68.73821 L83.93303,69.72919 L83.34512,70.72015 L82.757225,71.71113 L82.16932,71.71113 L82.16932,72.7021 L82.757225,72.7021 L82.757225,73.69308 L82.16932,73.69308 L81.58142,73.69308 L82.16932,74.68405 L81.58142,74.68405 L80.993515,74.68405 L80.40562,74.68405 L79.81771,74.68405 L79.22981,74.68405 L78.64191,74.68405 L78.05401,74.68405 L77.4661,74.68405 L77.4661,75.67502 L78.64191,75.67502 L79.22981,75.67502 L79.81771,75.67502 L80.40562,75.67502 L80.993515,75.67502 L81.58142,75.67502 L82.16932,75.67502 L81.58142,76.66599 L80.993515,77.65697 L80.40562,77.65697 L80.993515,78.64794 L80.40562,78.64794 L79.81771,78.64794 L79.22981,78.64794 L79.22981,77.65697 L79.81771,77.65697 L80.40562,76.66599 L79.81771,76.66599 L79.22981,76.66599 L78.64191,76.66599 L78.64191,77.65697 L78.05401,77.65697 L77.4661,77.65697 L76.878204,77.65697 L77.4661,76.66599 L76.878204,76.66599 L76.2903,76.66599 L75.7024,76.66599 L74.526596,75.67502 L75.114494,75.67502 L75.7024,75.67502 L76.2903,75.67502 L75.7024,74.68405 L76.2903,74.68405 M142.13924,227.19533 L139.32213,227.19533 L139.32213,225.02345 L139.32213,223.93752 L138.3831,225.02345 L136.50504,226.10939 L135.56601,223.93752 L135.56601,222.85158 L137.44408,221.76564 L134.62698,220.6797 L132.74892,220.6797 L130.87085,218.50783 L131.80989,217.42189 L132.74892,217.42189 L134.62698,214.1641 L135.56601,214.1641 L135.56601,213.07816 L136.50504,213.07816 L135.56601,210.90628 L134.62698,211.99222 L133.68794,213.07816 L129.93182,213.07816 L122.41957,219.59377 L123.358604,220.6797 L123.358604,221.76564 L122.41957,220.6797 L120.54151,220.6797 L121.480545,222.85158 L124.29764,225.02345 L127.11473,226.10939 L128.05376,223.93752 L128.9928,221.76564 L131.80989,222.85158 L130.87085,223.93752 L130.87085,225.02345 L129.93182,227.19533 L130.87085,228.28127 L132.74892,227.19533 L134.62698,229.3672 L135.56601,229.3672 L135.56601,230.45314 L135.56601,232.62502 L144.01729,232.62502 L142.13924,234.79689 L143.07826,235.88283 L144.95633,235.88283 L146.83438,238.0547 L148.71245,236.96877 L147.77342,231.53908 L150.59052,231.53908 L149.65147,229.3672 L150.59052,228.28127 L150.59052,226.10939 L149.65147,226.10939 L149.65147,223.93752 L149.65147,222.85158 L148.71245,221.76564 L148.71245,223.93752 L148.71245,225.02345 L147.77342,226.10939 L147.77342,225.02345 L146.83438,223.93752 L145.89536,222.85158 L145.89536,220.6797 L146.83438,220.6797 L147.77342,217.42189 L148.71245,217.42189 L147.77342,216.33597 L145.89536,216.33597 L144.95633,215.25003 L144.01729,215.25003 L141.2002,215.25003 L141.2002,216.33597 L139.32213,217.42189 L138.3831,220.6797 L138.3831,221.76564 L139.32213,221.76564 L141.2002,223.93752 L142.13924,225.02345 L143.07826,225.02345 L142.13924,227.19533 M58.014923,218.05919 L59.485554,216.64728 L60.220867,218.76515 L60.956184,220.17705 L61.691498,219.4711 L61.691498,218.76515 L62.42681,216.64728 L63.89744,216.64728 L63.89744,217.35324 L63.89744,218.05919 L63.89744,218.76515 L64.63276,217.35324 L64.63276,216.64728 L64.63276,215.94133 L63.89744,215.23537 L65.36807,213.82346 L64.63276,213.82346 L63.89744,214.52942 L63.162125,214.52942 L61.691498,213.11751 L61.691498,212.41154 L62.42681,213.11751 L63.162125,213.11751 L63.89744,213.11751 L64.63276,212.41154 L66.103386,211.7056 L66.103386,210.29369 L66.103386,208.88177 L67.57401,208.17583 L66.103386,207.46986 L65.36807,206.76392 L66.8387,206.05795 L68.309326,203.9401 L68.309326,202.52818 L66.8387,202.52818 L66.103386,203.23415 L66.103386,204.64604 L64.63276,203.9401 L63.89744,204.64604 L63.162125,203.9401 L63.162125,202.52818 L62.42681,204.64604 L61.691498,205.352 L60.956184,207.46986 L63.162125,206.76392 L64.63276,206.05795 L64.63276,208.17583 L64.63276,209.58774 L62.42681,210.29369 L60.220867,210.99965 L60.220867,212.41154 L60.956184,213.11751 L60.220867,213.82346 L60.956184,214.52942 L60.220867,214.52942 L58.75024,215.23537 L58.014923,212.41154 L55.80898,213.82346 L56.544296,215.23537 L55.80898,215.23537 L55.80898,215.94133 L54.338352,217.35324 L54.338352,218.05919 L54.338352,218.76515 L53.603035,219.4711 L55.073666,220.17705 L55.80898,218.76515 L56.544296,219.4711 L56.544296,220.17705 L57.27961,220.88301 L57.27961,221.58896 L55.073666,223.00087 L57.27961,224.41278 L57.27961,223.70683 L59.485554,222.29492 L60.220867,222.29492 L59.485554,221.58896 L59.485554,220.88301 L58.75024,219.4711 L58.014923,219.4711 L58.014923,218.05919 M90.706024,215.82126 L91.42405,215.02467 L91.42405,214.22807 L92.14207,212.63487 L95.014145,209.44849 L95.73217,208.65189 L78.49968,201.48253 L77.06364,201.48253 L77.781654,199.09273 L77.781654,198.29614 L79.2177,197.49954 L79.935715,196.70294 L79.2177,196.70294 L77.781654,196.70294 L77.781654,197.49954 L75.627594,197.49954 L76.34562,198.29614 L76.34562,199.09273 L75.627594,200.68593 L74.90958,200.68593 L74.19155,200.68593 L75.627594,202.27911 L74.19155,203.87231 L72.755516,204.66891 L73.47353,205.4655 L74.19155,206.2621 L74.90958,205.4655 L75.627594,205.4655 L84.96186,218.21106 L84.96186,219.00764 L84.96186,219.80424 L86.3979,218.21106 L87.11592,218.21106 L87.11592,219.00764 L89.26998,220.60085 L89.26998,222.19403 L87.83395,222.99063 L88.55196,224.58383 L89.26998,224.58383 L90.706024,223.78723 L91.42405,222.99063 L91.42405,222.19403 L91.42405,221.39745 L90.706024,219.80424 L91.42405,219.00764 L92.860085,219.00764 L93.57811,219.00764 L95.014145,219.00764 L94.29613,217.41446 L95.014145,217.41446 L95.014145,216.61786 L95.73217,216.61786 L96.45019,217.41446 L96.45019,218.21106 L97.16821,217.41446 L98.60425,216.61786 L97.88623,216.61786 L96.45019,215.82126 L97.16821,215.02467 L97.88623,214.22807 L97.16821,214.22807 L97.16821,213.43147 L96.45019,213.43147 L95.73217,214.22807 L95.014145,214.22807 L95.014145,215.02467 L94.29613,215.82126 L93.57811,215.02467 L92.860085,215.02467 L93.57811,215.82126 L92.860085,216.61786 L92.14207,217.41446 L91.42405,216.61786 L91.42405,217.41446 L90.706024,218.21106 L90.706024,217.41446 L89.98801,216.61786 L87.83395,215.82126 L89.26998,215.02467 L89.98801,215.02467 L90.706024,215.82126 M100.92718,209.6375 L100.318436,211.01126 L101.53593,212.38503 L102.75342,211.69814 L102.14467,210.32437 L102.75342,209.6375 L102.14467,208.26372 L103.36216,208.26372 L103.36216,206.88995 L103.97091,206.88995 L103.97091,206.20308 L105.1884,208.26372 L107.01464,207.57684 L105.79715,205.51619 L104.57965,205.51619 L104.57965,204.82932 L103.36216,204.82932 L102.75342,205.51619 L101.53593,206.88995 L100.92718,206.88995 L100.318436,207.57684 L99.70969,207.57684 L99.100945,208.26372 L98.492195,207.57684 L99.100945,206.88995 L99.100945,205.51619 L99.70969,205.51619 L99.100945,203.45555 L100.92718,202.76866 L98.492195,200.70801 L99.70969,199.33424 L96.05721,195.89984 L94.23097,193.83919 L94.83972,192.46542 L94.83972,190.40477 L95.44846,191.09166 L95.44846,191.77853 L96.665955,195.21295 L97.274704,195.21295 L99.70969,195.89984 L100.318436,195.89984 L101.53593,197.96048 L102.75342,197.96048 L103.36216,200.70801 L103.36216,202.08177 L104.57965,202.08177 L105.79715,203.45555 L105.79715,204.14243 L106.40589,203.45555 L107.62338,204.82932 L108.23213,205.51619 L110.058365,206.88995 L108.23213,208.26372 L109.44962,209.6375 L110.667114,208.9506 L111.884605,211.01126 L110.667114,211.69814 L111.884605,212.38503 L111.884605,213.0719 L111.884605,214.44566 L110.667114,213.0719 L109.44962,213.75879 L108.84087,213.75879 L108.84087,211.69814 L107.01464,210.32437 L105.79715,212.38503 L104.57965,213.75879 L105.1884,214.44566 L105.79715,214.44566 L106.40589,214.44566 L104.57965,215.81943 L101.53593,215.13255 L100.92718,214.44566 L100.318436,213.75879 L99.100945,214.44566 L98.492195,212.38503 L99.100945,211.69814 L97.883446,211.69814 L97.274704,209.6375 L99.100945,209.6375 L100.92718,209.6375 M117.88382,219.10657 L116.58161,217.66881 L117.23271,216.23105 L116.58161,216.23105 L115.27941,214.79329 L113.3261,215.51218 L113.3261,214.79329 L112.675,214.07442 L113.3261,214.07442 L113.9772,212.63666 L112.675,210.48003 L113.3261,208.32338 L112.675,208.32338 L112.675,207.6045 L113.9772,204.72899 L113.9772,206.16675 L114.62831,207.6045 L115.27941,209.04227 L115.93051,209.04227 L115.27941,210.48003 L115.27941,211.91779 L116.58161,211.91779 L116.58161,212.63666 L115.93051,213.35553 L116.58161,213.35553 L117.23271,213.35553 L120.48822,213.35553 L122.44153,213.35553 L123.09263,214.79329 L124.39484,212.63666 L123.74373,211.91779 L123.74373,210.48003 L121.79043,210.48003 L121.13933,209.76114 L118.53492,211.1989 L118.53492,209.04227 L117.23271,207.6045 L119.18602,205.44786 L117.23271,204.72899 L118.53492,202.57234 L118.53492,201.13458 L119.18602,201.13458 L121.13933,198.97795 L123.09263,196.82132 L121.13933,202.57234 L120.48822,203.29123 L120.48822,204.0101 L121.13933,204.72899 L121.13933,206.16675 L121.79043,204.72899 L122.44153,204.72899 L123.09263,203.29123 L123.74373,204.72899 L128.30144,206.16675 L128.30144,206.88562 L128.30144,207.6045 L128.30144,208.32338 L128.95255,207.6045 L129.60365,207.6045 L131.55695,209.04227 L132.85916,209.04227 L132.85916,209.76114 L130.90585,210.48003 L130.90585,209.76114 L129.60365,209.76114 L128.30144,210.48003 L127.65034,210.48003 L126.99924,209.76114 L126.34814,209.76114 L126.34814,211.91779 L126.99924,213.35553 L126.34814,214.79329 L125.69704,215.51218 L123.74373,216.23105 L121.79043,216.23105 L121.79043,218.3877 L120.48822,217.66881 L119.83712,216.94994 L119.18602,216.94994 L118.53492,219.82545 L117.88382,219.10657 M97.80427,172.35966 L102.6744,173.03677 L103.64843,173.03677 L105.59648,173.71388 L102.6744,173.71388 L95.85621,178.4536 L96.83024,180.48491 L97.80427,183.87044 L97.80427,184.54753 L93.90816,185.22464 L91.9601,186.57884 L90.98608,187.93306 L90.98608,188.61015 L92.93413,189.96437 L83.193855,191.31857 L82.219826,190.64148 L79.297745,191.99568 L79.297745,195.3812 L77.34969,195.3812 L76.37566,194.027 L76.37566,193.34988 L76.37566,191.99568 L77.34969,191.99568 L77.34969,190.64148 L78.32372,190.64148 L78.32372,188.61015 L77.34969,189.28726 L75.40164,189.28726 L73.45358,186.57884 L75.40164,185.90175 L77.34969,183.87044 L78.32372,184.54753 L81.245804,185.90175 L83.193855,185.90175 L86.11594,184.54753 L87.089966,183.87044 L89.03802,184.54753 L91.9601,181.83913 L90.01205,181.16202 L90.98608,180.48491 L90.98608,178.4536 L90.01205,177.7765 L88.063995,177.7765 L89.03802,177.0994 L89.03802,176.42229 L90.01205,175.06808 L89.03802,175.06808 L87.089966,175.06808 L86.11594,175.06808 L86.11594,175.7452 L87.089966,176.42229 L87.089966,177.0994 L86.11594,177.7765 L87.089966,179.80782 L87.089966,180.48491 L86.11594,181.16202 L85.141914,179.1307 L84.167885,177.7765 L83.193855,179.80782 L82.219826,181.83913 L79.297745,180.48491 L77.34969,179.80782 L76.37566,181.16202 L75.40164,182.51622 L73.45358,182.51622 L72.47955,181.16202 L75.40164,179.1307 L75.40164,178.4536 L75.40164,175.7452 L75.40164,174.39098 L76.37566,173.71388 L77.34969,173.71388 L78.32372,175.06808 L81.245804,173.71388 L82.219826,173.71388 L82.219826,175.06808 L85.141914,173.71388 L88.063995,172.35966 L90.01205,171.68257 L91.9601,173.71388 L97.80427,172.35966 M36.27232,149.8374 L36.27232,150.44893 L36.27232,151.672 L35.29199,152.28352 L35.29199,152.89505 L36.27232,152.89505 L36.27232,153.50658 L37.252655,153.50658 L37.252655,152.89505 L37.252655,152.28352 L37.252655,151.672 L37.252655,151.06047 L37.252655,150.44893 L37.252655,149.8374 L38.232986,149.8374 L38.232986,151.06047 L38.232986,151.672 L38.232986,152.28352 L38.232986,152.89505 L38.232986,153.50658 L38.232986,154.1181 L38.232986,154.72964 L38.232986,155.34117 L38.232986,155.9527 L38.232986,156.56422 L38.232986,157.17575 L38.232986,157.78728 L38.232986,158.39882 L38.232986,159.01035 L38.232986,159.62187 L37.252655,160.84492 L36.27232,160.2334 L36.27232,160.84492 L35.29199,160.84492 L35.29199,160.2334 L35.29199,159.62187 L34.311653,158.39882 L35.29199,157.78728 L35.29199,157.17575 L34.311653,157.17575 L34.311653,156.56422 L35.29199,156.56422 L36.27232,155.9527 L36.27232,156.56422 L36.27232,157.17575 L36.27232,157.78728 L36.27232,158.39882 L36.27232,159.01035 L36.27232,159.62187 L37.252655,159.01035 L37.252655,158.39882 L37.252655,157.78728 L37.252655,157.17575 L37.252655,156.56422 L37.252655,155.9527 L37.252655,155.34117 L37.252655,154.72964 L37.252655,154.1181 L36.27232,154.1181 L36.27232,154.72964 L36.27232,155.34117 L35.29199,154.72964 L35.29199,154.1181 L35.29199,153.50658 L34.311653,153.50658 L34.311653,152.89505 L34.311653,152.28352 L34.311653,151.672 L34.311653,150.44893 L35.29199,150.44893 L35.29199,149.8374 L34.311653,149.8374 L34.311653,149.22588 L34.311653,148.61435 L34.311653,148.00282 L34.311653,147.3913 L35.29199,147.3913 L35.29199,148.00282 L36.27232,148.61435 L36.27232,149.22588 L36.27232,149.8374 M145.35704,134.56487 L144.87143,135.14905 L145.35704,135.14905 L145.84265,135.14905 L146.32826,135.73323 L145.84265,136.31741 L145.84265,136.9016 L146.32826,137.48578 L146.32826,138.06996 L145.84265,138.06996 L145.84265,137.48578 L145.35704,137.48578 L144.87143,136.9016 L143.90022,136.9016 L143.90022,137.48578 L144.38582,137.48578 L144.87143,138.65414 L144.87143,139.23833 L144.87143,139.82251 L143.90022,138.65414 L143.41461,138.65414 L143.41461,139.23833 L142.929,139.23833 L141.95778,139.23833 L141.95778,139.82251 L142.44339,139.82251 L142.44339,140.4067 L141.95778,140.4067 L141.47217,140.4067 L141.47217,140.99088 L141.47217,141.57504 L142.44339,140.99088 L142.929,141.57504 L143.41461,140.99088 L143.41461,140.4067 L143.90022,140.99088 L144.38582,140.99088 L144.87143,140.4067 L145.35704,139.82251 L145.84265,139.82251 L146.81386,139.23833 L146.81386,138.65414 L147.29947,138.65414 L147.78508,139.23833 L148.27069,138.65414 L148.7563,138.65414 L148.7563,138.06996 L149.2419,138.06996 L149.2419,137.48578 L150.21312,137.48578 L150.21312,136.9016 L151.18434,136.31741 L150.69873,136.31741 L150.21312,136.31741 L150.21312,135.73323 L149.72751,135.73323 L149.2419,135.14905 L148.7563,135.14905 L148.27069,134.56487 L147.78508,135.14905 L147.78508,135.73323 L148.27069,135.73323 L149.2419,135.73323 L149.2419,136.31741 L148.7563,136.31741 L148.7563,136.9016 L148.7563,137.48578 L148.27069,137.48578 L147.78508,137.48578 L147.29947,137.48578 L147.29947,138.06996 L146.81386,138.06996 L146.81386,137.48578 L147.29947,136.9016 L147.78508,136.31741 L147.29947,136.31741 L147.29947,135.73323 L146.81386,135.73323 L146.81386,134.56487 L146.32826,133.98068 L145.35704,134.56487 M47.115303,149.54955 L45.61002,149.54955 L44.857376,149.07236 L44.104736,149.54955 L44.104736,149.07236 L43.352093,149.07236 L43.352093,148.59517 L44.104736,148.11798 L44.857376,147.16362 L44.857376,148.11798 L44.857376,148.59517 L45.61002,148.11798 L45.61002,148.59517 L46.362663,149.07236 L46.362663,148.59517 L47.115303,148.59517 L47.867947,148.11798 L47.867947,147.6408 L47.115303,147.16362 L47.115303,146.20924 L46.362663,145.73206 L46.362663,145.25488 L45.61002,144.7777 L46.362663,144.7777 L47.115303,144.7777 L47.115303,144.3005 L46.362663,143.82332 L46.362663,143.34613 L46.362663,142.86896 L47.115303,141.91458 L47.115303,142.39177 L47.867947,143.34613 L48.62059,143.34613 L47.867947,142.39177 L47.867947,141.91458 L47.867947,141.4374 L47.867947,140.96022 L48.62059,140.96022 L48.62059,140.48303 L47.867947,139.52866 L48.62059,139.52866 L48.62059,139.05147 L48.62059,138.5743 L48.62059,138.0971 L49.37323,138.0971 L49.37323,137.14273 L50.125874,137.14273 L50.878517,136.18837 L50.878517,135.71118 L50.125874,135.71118 L50.878517,134.27963 L51.631157,133.32526 L52.3838,133.80244 L51.631157,134.27963 L50.878517,135.234 L51.631157,136.18837 L51.631157,136.66556 L50.878517,137.61992 L50.878517,138.0971 L50.125874,138.0971 L50.878517,139.52866 L50.878517,140.00584 L49.37323,140.48303 L50.125874,140.96022 L50.125874,141.4374 L50.878517,141.4374 L50.878517,141.91458 L50.125874,141.91458 L49.37323,142.86896 L49.37323,143.82332 L49.37323,144.7777 L50.125874,145.25488 L49.37323,145.25488 L48.62059,145.25488 L48.62059,146.20924 L50.125874,146.68643 L49.37323,147.16362 L49.37323,148.11798 L49.37323,149.07236 L48.62059,149.54955 L47.115303,149.54955 M38.029835,136.68689 L38.029835,136.18933 L38.029835,135.69177 L39.030617,134.1991 L39.030617,134.69666 L39.030617,135.19421 L39.030617,135.69177 L39.030617,136.18933 L38.029835,137.18445 L38.029835,137.682 L38.029835,138.17957 L38.029835,138.67712 L38.029835,139.17468 L37.02905,140.16982 L37.02905,140.66737 L37.02905,141.16493 L37.02905,141.66249 L36.028263,142.16005 L36.028263,142.65761 L36.028263,143.15517 L36.028263,143.65273 L36.028263,144.15028 L35.027477,144.64784 L35.027477,145.1454 L35.027477,145.64296 L35.027477,146.14053 L34.02669,146.63809 L34.02669,146.14053 L34.02669,145.64296 L34.02669,145.1454 L34.02669,144.64784 L35.027477,143.65273 L35.027477,142.65761 L35.027477,142.16005 L36.028263,141.16493 L36.028263,140.66737 L36.028263,140.16982 L37.02905,139.67224 L37.02905,139.17468 L37.02905,138.67712 L37.02905,138.17957 L37.02905,137.682 L38.029835,136.68689 M50.196968,124.47796 L49.393936,125.13606 L48.99242,125.46512 L50.598484,125.79417 L50.196968,126.12322 L49.795452,126.78133 L49.795452,127.11038 L50.598484,127.11038 L49.795452,128.09753 L50.598484,128.42659 L50.196968,129.0847 L49.795452,129.7428 L49.393936,129.0847 L49.795452,128.75565 L49.393936,128.75565 L49.393936,128.42659 L48.590904,127.768486 L48.18939,127.43943 L47.787876,126.45227 L47.38636,126.78133 L46.58333,128.42659 L47.787876,128.42659 L47.787876,129.0847 L47.38636,129.41376 L47.38636,130.72997 L46.58333,130.07185 L45.37878,130.40091 L44.57575,130.72997 L43.3712,131.71712 L42.969685,132.37523 L42.56817,132.04617 L42.166653,132.04617 L40.96211,132.70428 L39.75756,133.03333 L40.560593,132.37523 L40.560593,131.71712 L40.560593,131.38806 L40.96211,131.38806 L40.96211,130.40091 L42.166653,130.72997 L42.56817,131.05902 L42.56817,131.38806 L42.969685,131.05902 L43.3712,130.07185 L43.3712,129.7428 L42.56817,129.7428 L42.166653,128.75565 L42.56817,129.0847 L43.3712,129.0847 L43.3712,128.42659 L43.772717,128.42659 L43.3712,127.768486 L43.3712,127.11038 L43.772717,127.11038 L43.772717,127.768486 L44.57575,128.09753 L45.37878,128.42659 L45.37878,128.09753 L45.780296,126.78133 L45.37878,125.79417 L44.977264,125.79417 L44.977264,125.13606 L46.181812,125.46512 L46.984844,124.80701 L46.181812,123.81985 L45.780296,123.16174 L46.58333,123.16174 L46.984844,123.4908 L47.38636,122.832695 L46.984844,122.50364 L47.38636,122.17458 L47.787876,122.832695 L47.787876,123.4908 L48.590904,122.50364 L48.99242,123.16174 L48.18939,123.81985 L48.590904,123.81985 L49.393936,123.81985 L49.795452,123.4908 L49.795452,124.1489 L50.196968,124.47796 M154.44687,115.926865 L155.5061,114.78473 L156.56532,114.21366 L157.62454,114.21366 L156.56532,113.64259 L155.5061,113.64259 L154.44687,114.21366 L153.38765,115.3558 L152.32841,115.926865 L151.2692,114.21366 L150.20996,114.78473 L148.0915,114.21366 L148.0915,114.78473 L149.15074,114.78473 L150.20996,115.3558 L151.2692,117.06899 L152.32841,117.06899 L153.38765,115.926865 L153.38765,116.49793 L153.38765,117.06899 L154.44687,117.64006 L154.44687,118.21113 L155.5061,119.924324 L155.5061,118.782196 L155.5061,118.21113 L155.5061,117.64006 L156.56532,118.21113 L156.56532,118.782196 L157.62454,119.353264 L158.68378,119.924324 L159.743,119.353264 L159.743,118.782196 L160.80223,119.353264 L160.80223,119.924324 L160.80223,120.49539 L159.743,121.06646 L159.743,122.779655 L160.80223,123.35072 L161.86145,121.63753 L161.86145,120.49539 L161.86145,119.924324 L162.92068,119.924324 L163.9799,119.924324 L163.9799,120.49539 L163.9799,121.06646 L165.03914,120.49539 L165.03914,119.353264 L166.09836,119.924324 L167.15758,118.21113 L165.03914,118.21113 L165.03914,117.64006 L165.03914,117.06899 L163.9799,115.926865 L163.9799,116.49793 L163.9799,117.64006 L163.9799,118.21113 L163.9799,118.782196 L162.92068,118.782196 L162.92068,118.21113 L161.86145,117.64006 L161.86145,116.49793 L161.86145,114.78473 L161.86145,114.21366 L161.86145,113.64259 L159.743,114.78473 L159.743,114.21366 L159.743,113.64259 L158.68378,113.64259 L158.68378,114.21366 L158.68378,114.78473 L159.743,115.926865 L159.743,116.49793 L159.743,117.64006 L158.68378,117.64006 L158.68378,116.49793 L157.62454,116.49793 L156.56532,116.49793 L156.56532,115.926865 L155.5061,115.926865 L154.44687,116.49793 L154.44687,115.926865 M101.44413,61.838295 L102.81538,63.122902 L102.81538,64.40751 L103.50099,65.692116 L103.50099,68.26132 L101.44413,68.26132 L102.81538,70.830536 L101.44413,70.830536 L100.07289,70.830536 L98.70165,70.830536 L99.387276,72.11514 L98.01603,72.11514 L95.959175,72.11514 L95.27355,72.11514 L93.21669,70.830536 L93.21669,72.11514 L93.21669,73.39975 L96.64479,82.39199 L95.959175,82.39199 L93.90231,83.67659 L93.21669,84.9612 L90.47421,87.53041 L92.531075,83.67659 L91.84545,82.39199 L90.47421,82.39199 L90.47421,83.67659 L88.41735,83.67659 L83.61801,78.53817 L82.93239,78.53817 L83.61801,74.68436 L85.67487,75.968956 L86.36049,75.968956 L89.102974,75.968956 L89.78859,74.68436 L89.102974,72.11514 L87.73173,72.11514 L87.04611,72.11514 L87.04611,73.39975 L85.67487,73.39975 L84.98925,73.39975 L85.67487,72.11514 L84.98925,70.830536 L86.36049,70.830536 L87.73173,70.830536 L87.04611,69.54593 L84.98925,68.26132 L86.36049,66.97672 L88.41735,65.692116 L89.78859,65.692116 L90.47421,65.692116 L91.15983,66.97672 L89.102974,68.26132 L89.102974,69.54593 L91.15983,70.830536 L92.531075,69.54593 L93.21669,69.54593 L94.58793,69.54593 L92.531075,66.97672 L92.531075,65.692116 L93.21669,65.692116 L92.531075,63.122902 L93.90231,64.40751 L94.58793,65.692116 L94.58793,66.97672 L97.330414,66.97672 L98.01603,68.26132 L98.70165,65.692116 L96.64479,64.40751 L98.01603,61.838295 L98.70165,60.55369 L97.330414,57.984478 L98.01603,57.984478 L98.70165,57.984478 L98.70165,56.699875 L101.44413,56.699875 L100.758514,57.984478 L99.387276,59.269085 L99.387276,61.838295 L99.387276,63.122902 L100.758514,63.122902 L101.44413,61.838295 M107.53854,58.85269 L106.19927,58.85269 L104.86,58.85269 L104.86,57.80532 L104.86,55.710575 L107.53854,56.757946 L108.877815,55.710575 L108.877815,54.663204 L107.53854,54.663204 L106.19927,53.615833 L104.86,53.615833 L103.52073,52.568462 L102.18146,53.615833 L103.52073,53.615833 L103.52073,54.663204 L102.18146,55.710575 L102.18146,56.757946 L102.18146,57.80532 L103.52073,58.85269 L103.52073,59.900063 L103.52073,60.947433 L104.86,60.947433 L104.86,61.994804 L106.19927,63.04218 L104.86,63.04218 L104.86,64.08955 L106.19927,65.136925 L106.19927,66.184296 L107.53854,67.23167 L106.19927,68.27904 L106.19927,69.32641 L107.53854,68.27904 L108.877815,68.27904 L110.217094,67.23167 L110.217094,66.184296 L110.217094,65.136925 L108.877815,65.136925 L107.53854,63.04218 L107.53854,60.947433 L107.53854,59.900063 L108.877815,58.85269 L110.217094,58.85269 L110.217094,59.900063 L110.217094,60.947433 L110.217094,61.994804 L108.877815,61.994804 L110.217094,63.04218 L110.217094,64.08955 L111.556366,64.08955 L111.556366,63.04218 L112.89564,63.04218 L112.89564,64.08955 L112.89564,65.136925 L112.89564,66.184296 L111.556366,66.184296 L111.556366,67.23167 L111.556366,68.27904 L112.89564,67.23167 L114.23491,66.184296 L114.23491,65.136925 L114.23491,64.08955 L115.57418,63.04218 L115.57418,61.994804 L114.23491,61.994804 L112.89564,61.994804 L112.89564,60.947433 L112.89564,59.900063 L111.556366,59.900063 L112.89564,58.85269 L114.23491,59.900063 L115.57418,59.900063 L114.23491,58.85269 L114.23491,57.80532 L112.89564,57.80532 L111.556366,57.80532 L111.556366,56.757946 L111.556366,55.710575 L110.217094,57.80532 L108.877815,57.80532 L107.53854,57.80532 L107.53854,58.85269 M75.28903,229.82274 L75.28903,231.00964 L73.05413,231.00964 L70.81923,229.82274 L72.309166,229.82274 L73.05413,229.82274 L73.799095,228.63585 L75.28903,228.63585 L76.77897,227.44894 L77.52394,226.26205 L79.75884,225.07515 L80.50381,225.07515 L81.24878,223.88826 L79.75884,223.88826 L79.01387,223.88826 L77.52394,222.70135 L76.034004,223.88826 L75.28903,225.07515 L73.799095,226.26205 L73.05413,226.26205 L67.09439,215.57997 L66.34942,214.39308 L66.34942,213.20618 L67.09439,213.20618 L67.09439,214.39308 L67.839355,214.39308 L68.58432,213.20618 L69.32929,213.20618 L70.07426,210.83238 L68.58432,210.83238 L67.839355,209.6455 L68.58432,209.6455 L68.58432,208.45859 L70.07426,209.6455 L70.07426,208.45859 L70.81923,208.45859 L71.56419,209.6455 L71.56419,208.45859 L70.81923,207.2717 L70.07426,206.0848 L69.32929,204.8979 L70.07426,203.711 L70.81923,203.711 L71.56419,203.711 L72.309166,204.8979 L72.309166,207.2717 L73.05413,207.2717 L73.799095,207.2717 L81.24878,220.32756 L81.993744,220.32756 L82.738716,220.32756 L82.738716,221.51447 L82.738716,222.70135 L84.228645,223.88826 L84.97362,222.70135 L84.97362,221.51447 L85.71858,221.51447 L85.71858,222.70135 L86.463554,223.88826 L87.20852,223.88826 L87.95349,225.07515 L88.698456,225.07515 L88.698456,226.26205 L86.463554,225.07515 L85.71858,225.07515 L84.228645,225.07515 L83.48368,225.07515 L84.228645,226.26205 L84.97362,226.26205 L85.71858,227.44894 L84.97362,227.44894 L83.48368,228.63585 L81.24878,227.44894 L79.75884,227.44894 L80.50381,228.63585 L79.75884,228.63585 L79.01387,228.63585 L78.268906,228.63585 L78.268906,229.82274 L76.034004,228.63585 L75.28903,229.82274 M42.979378,234.5995 L41.4444,234.5995 L42.979378,233.5728 L42.979378,232.5461 L44.514355,230.4927 L46.049335,230.4927 L46.049335,231.5194 L47.584312,231.5194 L47.584312,230.4927 L47.584312,228.4393 L47.584312,227.4126 L47.584312,225.3592 L49.11929,226.3859 L50.654266,226.3859 L50.654266,225.3592 L50.654266,223.3058 L52.189243,222.2791 L52.189243,223.3058 L52.189243,224.3325 L53.724224,223.3058 L53.724224,224.3325 L55.2592,224.3325 L56.794178,224.3325 L56.794178,225.3592 L55.2592,226.3859 L53.724224,227.4126 L53.724224,226.3859 L53.724224,225.3592 L52.189243,225.3592 L52.189243,226.3859 L52.189243,227.4126 L52.189243,228.4393 L52.189243,229.466 L50.654266,229.466 L50.654266,228.4393 L50.654266,227.4126 L49.11929,227.4126 L49.11929,228.4393 L49.11929,229.466 L49.11929,230.4927 L49.11929,231.5194 L47.584312,232.5461 L46.049335,232.5461 L44.514355,232.5461 L44.514355,233.5728 L42.979378,234.5995 M97.20645,218.56891 L96.47453,219.41841 L95.74262,219.41841 L96.47453,220.2679 L95.74262,220.2679 L95.01071,220.2679 L95.74262,221.11739 L95.01071,221.11739 L94.27879,221.11739 L93.54688,221.96687 L93.54688,222.81636 L93.54688,223.66585 L92.81497,223.66585 L92.81497,222.81636 L92.08305,222.81636 L91.35114,223.66585 L91.35114,224.51534 L90.61923,224.51534 L90.61923,225.36482 L89.887314,226.21431 L91.35114,225.36482 L92.08305,224.51534 L92.81497,224.51534 L93.54688,224.51534 L94.27879,224.51534 L95.01071,223.66585 L94.27879,223.66585 L94.27879,222.81636 L95.01071,222.81636 L95.74262,222.81636 L95.01071,221.96687 L95.74262,221.96687 L96.47453,221.11739 L96.47453,221.96687 L97.20645,222.81636 L97.20645,221.96687 L97.93836,221.96687 L98.67028,221.96687 L98.67028,221.11739 L97.93836,221.11739 L97.20645,221.11739 L97.20645,220.2679 L97.93836,220.2679 L98.67028,220.2679 L99.40219,220.2679 L99.40219,221.11739 L100.1341,221.11739 L100.1341,220.2679 L99.40219,219.41841 L100.1341,219.41841 L100.1341,218.56891 L100.86602,218.56891 L100.86602,219.41841 L100.86602,220.2679 L101.59793,219.41841 L102.32984,219.41841 L102.32984,218.56891 L101.59793,218.56891 L101.59793,217.71942 L102.32984,217.71942 L103.06176,217.71942 L103.79367,218.56891 L103.79367,217.71942 L104.52558,217.71942 L105.98941,216.86993 L105.2575,216.86993 L104.52558,216.86993 L103.79367,216.86993 L102.32984,216.86993 L101.59793,216.86993 L100.86602,216.86993 L100.86602,217.71942 L100.1341,217.71942 L100.1341,216.86993 L99.40219,216.86993 L98.67028,216.86993 L97.93836,217.71942 L98.67028,218.56891 L98.67028,219.41841 L97.93836,219.41841 L97.20645,218.56891 M123.29801,174.33012 L122.37465,175.26591 L122.37465,174.33012 L121.451294,174.33012 L121.451294,175.26591 L121.451294,176.20169 L122.37465,176.20169 L123.29801,176.20169 L124.22137,175.26591 L125.14472,175.26591 L126.068085,175.26591 L125.14472,176.20169 L125.14472,177.13748 L125.14472,178.07327 L125.14472,179.00905 L125.14472,179.94484 L126.068085,179.94484 L126.99144,179.94484 L126.99144,180.88062 L126.99144,181.8164 L126.068085,181.8164 L125.14472,180.88062 L124.22137,180.88062 L124.22137,179.94484 L123.29801,179.94484 L123.29801,182.7522 L124.22137,182.7522 L125.14472,184.62376 L124.22137,184.62376 L124.22137,185.55954 L125.14472,186.49533 L126.068085,186.49533 L126.068085,187.43112 L125.14472,188.3669 L126.068085,189.30269 L126.99144,187.43112 L126.99144,186.49533 L126.99144,184.62376 L126.068085,183.68797 L126.99144,183.68797 L126.99144,182.7522 L127.9148,181.8164 L128.83815,180.88062 L128.83815,179.94484 L128.83815,179.00905 L129.76152,178.07327 L127.9148,179.00905 L127.9148,179.94484 L126.99144,179.00905 L126.068085,178.07327 L126.99144,178.07327 L126.99144,177.13748 L126.99144,176.20169 L127.9148,175.26591 L128.83815,176.20169 L129.76152,175.26591 L130.68488,175.26591 L130.68488,174.33012 L129.76152,174.33012 L129.76152,173.39435 L129.76152,172.45856 L128.83815,172.45856 L128.83815,173.39435 L127.9148,173.39435 L126.99144,173.39435 L126.99144,172.45856 L126.068085,173.39435 L126.068085,174.33012 L125.14472,174.33012 L124.22137,173.39435 L125.14472,172.45856 L124.22137,172.45856 L123.29801,172.45856 L122.37465,172.45856 L121.451294,171.52277 L121.451294,172.45856 L120.52793,173.39435 L121.451294,173.39435 L122.37465,173.39435 L123.29801,173.39435 L123.29801,174.33012 M100.29756,170.47247 L101.38961,171.11415 L101.38961,170.47247 L101.38961,169.8308 L102.48166,169.8308 L103.57371,169.8308 L103.57371,171.11415 L105.757805,171.11415 L107.9419,171.11415 L106.84985,169.8308 L105.757805,170.47247 L102.48166,167.2641 L101.38961,168.54745 L92.65322,165.33908 L92.65322,164.05574 L93.74527,162.77238 L90.469124,160.20569 L88.28503,158.92233 L89.377075,160.84737 L88.28503,162.77238 L87.19298,162.1307 L86.10093,162.1307 L85.00888,164.05574 L82.82478,164.05574 L81.73273,164.05574 L81.73273,162.77238 L82.82478,161.48903 L83.91683,159.56401 L85.00888,160.20569 L87.19298,160.20569 L86.10093,158.28067 L83.91683,155.71396 L82.82478,156.99731 L81.73273,158.28067 L80.64068,156.35564 L80.64068,155.71396 L79.54863,156.99731 L78.45658,155.71396 L78.45658,154.43062 L78.45658,152.5056 L76.272484,151.86392 L76.272484,154.43062 L75.180435,153.78894 L74.08839,155.0723 L74.08839,155.71396 L75.180435,156.35564 L74.08839,156.35564 L72.99634,155.71396 L71.90429,156.99731 L71.90429,154.43062 L71.90429,153.14726 L71.90429,152.5056 L72.99634,151.22224 L69.72019,149.9389 L69.72019,151.22224 L70.81224,152.5056 L69.72019,152.5056 L68.62814,155.71396 L69.72019,158.92233 L68.62814,159.56401 L67.536095,160.84737 L67.536095,161.48903 L67.536095,163.41406 L68.62814,164.05574 L68.62814,163.41406 L74.08839,160.84737 L74.08839,158.92233 L79.54863,160.20569 L79.54863,164.05574 L78.45658,165.98076 L78.45658,168.54745 L82.82478,167.90578 L82.82478,169.8308 L85.00888,170.47247 L86.10093,169.8308 L88.28503,168.54745 L88.28503,169.8308 L91.56117,170.47247 L98.113464,170.47247 L99.20551,169.8308 L100.29756,170.47247 M153.79034,136.00085 L152.62534,136.00085 L153.20784,136.00085 L154.95537,136.00085 L154.37286,136.00085 L153.79034,136.00085 M95.554375,149.71822 L94.445885,148.49611 L94.445885,146.0519 L92.22891,148.49611 L91.12043,149.71822 L88.90346,149.71822 L87.794975,149.71822 L86.686485,149.71822 L84.46951,153.38455 L82.25255,150.94032 L81.14406,150.94032 L73.38466,148.49611 L76.71011,148.49611 L82.25255,147.274 L85.578,146.0519 L85.578,142.38556 L86.686485,141.16345 L87.794975,139.94135 L87.794975,137.49713 L88.90346,138.71924 L88.90346,139.94135 L92.22891,141.16345 L93.3374,138.71924 L92.22891,136.27502 L92.22891,135.0529 L91.12043,131.38658 L90.01195,128.94237 L91.12043,128.94237 L92.22891,128.94237 L93.3374,127.72025 L94.445885,127.72025 L95.554375,132.60869 L95.554375,133.8308 L94.445885,135.0529 L95.554375,138.71924 L99.98832,138.71924 L101.0968,143.60767 L99.98832,144.82979 L96.66286,146.0519 L97.77135,147.274 L97.77135,150.94032 L97.77135,152.16243 L98.87983,153.38455 L101.0968,152.16243 L99.98832,150.94032 L101.0968,149.71822 L102.205284,149.71822 L103.313774,150.94032 L103.313774,149.71822 L104.42226,147.274 L105.53075,149.71822 L106.63923,150.94032 L104.42226,150.94032 L104.42226,152.16243 L103.313774,153.38455 L112.181656,165.60564 L114.39863,166.82774 L112.181656,166.82774 L109.96468,165.60564 L108.8562,166.82774 L108.8562,168.04985 L108.8562,169.27197 L107.74772,168.04985 L105.53075,168.04985 L95.554375,159.49509 L93.3374,159.49509 L92.22891,157.05087 L91.12043,157.05087 L88.90346,157.05087 L87.794975,157.05087 L87.794975,155.82877 L90.01195,153.38455 L91.12043,154.60666 L92.22891,154.60666 L93.3374,153.38455 L95.554375,154.60666 L94.445885,152.16243 L93.3374,152.16243 L93.3374,150.94032 L93.3374,149.71822 L95.554375,149.71822 M45.644352,142.56432 L45.207417,143.62514 L44.33354,143.62514 L43.896606,143.09473 L42.585796,143.62514 L43.45967,144.68596 L42.585796,145.21637 L43.02273,145.21637 L43.896606,145.7468 L43.02273,146.80762 L42.585796,146.80762 L42.585796,147.33803 L42.14886,149.45967 L40.83805,147.86844 L39.52724,146.80762 L39.090305,146.80762 L38.65337,147.33803 L39.090305,147.86844 L38.65337,147.86844 L38.216434,149.45967 L36.905624,148.39885 L35.594814,146.80762 L37.34256,145.21637 L39.090305,145.7468 L39.52724,145.7468 L39.090305,143.62514 L38.65337,143.09473 L39.96418,143.09473 L40.401115,142.56432 L42.14886,143.09473 L42.14886,142.0339 L40.83805,141.5035 L40.401115,140.97308 L39.96418,140.44266 L38.216434,139.91225 L40.83805,138.85143 L40.83805,137.7906 L39.96418,137.7906 L40.401115,137.2602 L39.96418,134.07771 L40.401115,134.60812 L42.585796,136.19936 L43.45967,136.19936 L43.896606,135.66895 L44.770477,134.60812 L43.45967,134.07771 L43.45967,133.01689 L43.896606,132.48648 L45.644352,133.5473 L46.081287,134.07771 L46.518223,134.07771 L47.829033,134.60812 L48.26597,133.01689 L48.702908,133.01689 L51.324524,131.42564 L50.88759,132.48648 L50.88759,133.5473 L49.139843,135.66895 L47.829033,135.66895 L48.26597,136.72978 L46.081287,137.7906 L46.081287,138.32101 L46.081287,138.85143 L46.518223,139.38184 L46.518223,140.97308 L46.081287,140.44266 L45.644352,140.44266 L45.644352,139.91225 L44.770477,138.32101 L43.896606,137.7906 L43.45967,137.7906 L42.585796,137.7906 L42.14886,137.7906 L41.711926,137.7906 L41.711926,138.32101 L42.585796,138.85143 L43.896606,140.44266 L44.33354,141.5035 L43.896606,142.0339 L44.770477,142.56432 L45.644352,142.56432 M128.91928,120.66862 L128.49089,120.16884 L128.49089,120.66862 L128.49089,121.168396 L128.0625,121.168396 L128.0625,120.66862 L127.63412,120.66862 L127.20573,120.66862 L125.92056,120.66862 L126.34895,121.168396 L126.34895,121.668175 L127.20573,121.168396 L127.63412,121.168396 L127.63412,121.668175 L128.0625,121.668175 L128.49089,121.668175 L128.91928,121.668175 L129.34767,121.668175 L129.77606,121.668175 L130.20445,121.668175 L130.63284,121.668175 L130.63284,122.16795 L131.06123,121.668175 L131.48962,121.668175 L131.91801,121.668175 L131.91801,122.16795 L132.3464,122.16795 L132.3464,121.668175 L132.77478,121.668175 L133.20317,122.16795 L133.63156,122.16795 L134.05995,122.16795 L134.05995,122.66773 L134.48834,122.66773 L134.48834,122.16795 L134.05995,121.668175 L134.05995,121.168396 L133.63156,121.668175 L133.20317,121.668175 L133.20317,121.168396 L133.63156,121.168396 L133.63156,120.66862 L133.20317,120.66862 L133.20317,120.16884 L132.77478,120.16884 L132.3464,120.16884 L131.91801,120.16884 L131.91801,120.66862 L132.3464,121.168396 L131.91801,121.168396 L131.48962,121.168396 L131.06123,121.168396 L130.63284,121.168396 L130.20445,121.168396 L129.77606,121.168396 L129.34767,121.168396 L129.34767,120.66862 L129.77606,120.66862 L130.20445,120.66862 L130.63284,120.66862 L131.06123,120.66862 L131.48962,120.16884 L131.06123,120.16884 L130.63284,120.16884 L130.20445,120.16884 L129.77606,120.16884 L129.34767,120.16884 L128.91928,120.66862 M152.2788,123.18102 L153.61867,123.18102 L154.95856,123.18102 L154.95856,122.49342 L155.6285,121.11823 L156.29843,121.80583 L156.96837,122.49342 L158.30826,125.931404 L158.30826,127.306595 L156.96837,127.99419 L156.29843,128.68178 L154.95856,128.68178 L156.29843,129.36938 L156.29843,130.74457 L155.6285,132.80736 L154.95856,131.43216 L154.28862,131.43216 L152.94873,131.43216 L152.2788,131.43216 L152.2788,132.11977 L154.28862,134.18256 L152.94873,135.55774 L152.2788,134.18256 L150.9389,132.80736 L150.26897,132.11977 L149.59903,132.80736 L149.59903,133.49495 L148.25914,133.49495 L147.5892,130.74457 L148.9291,129.36938 L150.26897,130.05698 L150.26897,127.99419 L151.60886,125.931404 L149.59903,124.55621 L148.9291,123.868614 L147.5892,125.243805 L145.57938,124.55621 L145.57938,123.868614 L146.91927,122.49342 L146.24933,123.18102 L145.57938,122.49342 L144.2395,123.18102 L142.89963,123.18102 L142.22968,123.18102 L142.22968,123.868614 L138.21004,123.18102 L136.87015,123.18102 L139.54991,121.11823 L139.54991,120.43064 L137.5401,119.05545 L136.20021,119.74304 L134.1904,119.05545 L135.53027,116.30507 L137.5401,116.99266 L137.5401,117.68026 L138.21004,117.68026 L138.21004,116.99266 L138.87997,116.30507 L139.54991,114.24228 L140.8898,112.86709 L140.8898,114.92988 L140.8898,116.30507 L140.8898,117.68026 L142.89963,119.05545 L142.89963,119.74304 L143.56956,120.43064 L144.2395,119.74304 L144.2395,119.05545 L145.57938,118.36785 L146.24933,116.30507 L146.91927,116.30507 L147.5892,114.92988 L148.25914,117.68026 L147.5892,118.36785 L149.59903,119.74304 L149.59903,121.80583 L150.26897,120.43064 L150.26897,119.74304 L151.60886,119.05545 L152.94873,119.05545 L152.2788,123.18102 M133.49161,115.47521 L135.00543,116.88884 L133.49161,118.30247 L131.97777,118.30247 L130.46394,119.00928 L129.70702,119.716095 L128.9501,116.88884 L128.19319,117.59565 L125.16552,119.716095 L122.89477,118.30247 L123.65169,117.59565 L124.4086,116.88884 L122.89477,116.18202 L120.624016,116.18202 L119.8671,116.88884 L118.35327,115.47521 L117.59635,115.47521 L116.08252,116.18202 L115.3256,116.88884 L114.56869,116.88884 L112.297935,116.88884 L112.297935,116.18202 L113.05485,114.768394 L113.81177,113.35477 L113.81177,112.64795 L116.83943,111.23432 L118.35327,111.94114 L119.8671,114.06158 L120.624016,113.35477 L119.8671,111.94114 L119.8671,107.70025 L119.8671,106.28662 L119.11018,104.87299 L119.8671,104.87299 L120.624016,104.87299 L119.8671,103.459366 L121.380936,103.459366 L120.624016,102.04574 L122.137856,102.04574 L122.137856,99.21848 L122.89477,99.21848 L125.16552,97.804855 L125.92244,97.09804 L126.67935,95.68441 L125.92244,94.9776 L126.67935,94.9776 L128.19319,93.563965 L128.9501,94.9776 L127.43627,97.804855 L128.19319,97.804855 L129.70702,98.511665 L131.22086,98.511665 L134.24852,98.511665 L132.73468,99.92529 L131.97777,99.92529 L129.70702,102.04574 L128.19319,99.92529 L128.19319,99.21848 L127.43627,99.21848 L125.16552,100.63211 L123.65169,102.04574 L125.16552,102.752556 L124.4086,104.16618 L122.89477,104.16618 L122.137856,106.28662 L122.89477,111.23432 L124.4086,111.23432 L123.65169,113.35477 L125.16552,115.47521 L125.16552,116.18202 L126.67935,116.88884 L126.67935,116.18202 L128.19319,115.47521 L127.43627,114.06158 L126.67935,112.64795 L131.97777,113.35477 L132.73468,113.35477 L135.76236,112.64795 L135.76236,113.35477 L135.76236,114.768394 L133.49161,115.47521 M66.25409,98.33116 L66.96221,97.32815 L68.378456,97.32815 L69.08658,97.82965 L69.7947,98.33116 L70.50282,98.33116 L71.210945,99.835686 L71.210945,100.3372 L71.91907,100.3372 L72.62719,100.83871 L73.33531,99.835686 L73.33531,99.33418 L74.04343,99.33418 L74.75155,99.33418 L74.75155,99.835686 L74.75155,100.83871 L74.75155,101.34022 L75.45967,100.83871 L76.16779,100.3372 L76.16779,99.835686 L76.875916,99.835686 L78.29216,100.3372 L79.00028,100.83871 L78.29216,100.83871 L77.58404,100.83871 L77.58404,101.84172 L76.875916,101.34022 L76.16779,101.84172 L76.16779,102.34323 L76.16779,102.84474 L75.45967,102.84474 L75.45967,103.34625 L73.33531,103.847755 L73.33531,103.34625 L72.62719,103.34625 L72.62719,102.84474 L72.62719,102.34323 L73.33531,101.84172 L71.91907,101.34022 L71.91907,102.34323 L71.210945,102.84474 L71.210945,103.34625 L72.62719,104.85078 L73.33531,105.35229 L71.91907,106.3553 L71.210945,106.85681 L71.210945,106.3553 L71.210945,105.85379 L71.210945,105.35229 L70.50282,105.35229 L70.50282,106.3553 L70.50282,107.35832 L69.7947,106.85681 L69.08658,105.35229 L69.08658,104.85078 L69.7947,104.85078 L70.50282,104.85078 L71.210945,104.349266 L70.50282,103.847755 L70.50282,103.34625 L69.7947,102.84474 L69.08658,102.84474 L69.08658,103.34625 L69.08658,103.847755 L68.378456,103.34625 L68.378456,102.84474 L67.670334,102.34323 L68.378456,101.84172 L68.378456,101.34022 L69.08658,100.83871 L69.7947,101.34022 L69.7947,100.3372 L69.08658,99.835686 L68.378456,99.33418 L67.670334,100.3372 L66.96221,100.3372 L67.670334,98.83267 L66.96221,98.33116 L66.96221,98.83267 L66.25409,98.83267 L66.25409,98.33116 M95.66342,119.11361 L96.58015,119.11361 L95.66342,117.38888 L96.58015,117.38888 L96.58015,115.66415 L99.33032,116.52651 L99.33032,115.66415 L100.24705,114.80178 L101.16378,116.52651 L102.99723,115.66415 L104.83068,117.38888 L106.66413,116.52651 L104.83068,114.80178 L105.747406,113.939415 L108.49758,112.21468 L110.33103,111.35232 L110.33103,110.48995 L111.24776,110.48995 L112.16448,113.07705 L113.08121,111.35232 L114.914665,108.76522 L113.08121,106.178116 L112.16448,106.178116 L112.16448,105.31575 L113.99793,104.453384 L115.83139,103.59102 L116.748116,103.59102 L118.581566,101.86629 L119.49829,101.00392 L119.49829,100.141556 L121.33174,98.416824 L121.33174,96.69209 L121.33174,95.82972 L122.24847,94.10499 L124.08192,94.967354 L124.99864,92.38026 L124.99864,91.51789 L124.08192,91.51789 L120.415016,90.655525 L120.415016,92.38026 L121.33174,93.24262 L120.415016,94.10499 L118.581566,94.967354 L118.581566,95.82972 L115.83139,99.27919 L113.99793,101.00392 L113.08121,101.86629 L111.24776,102.72865 L110.33103,103.59102 L110.33103,105.31575 L109.41431,104.453384 L108.49758,104.453384 L106.66413,105.31575 L107.58086,106.178116 L108.49758,107.04048 L109.41431,106.178116 L110.33103,107.04048 L109.41431,109.62759 L108.49758,108.76522 L107.58086,107.90285 L106.66413,107.90285 L106.66413,108.76522 L105.747406,108.76522 L104.83068,107.90285 L102.99723,108.76522 L104.83068,111.35232 L102.99723,110.48995 L101.16378,109.62759 L100.24705,111.35232 L97.49687,113.07705 L96.58015,110.48995 L95.66342,111.35232 L92.913246,110.48995 L91.079796,111.35232 L91.99652,112.21468 L92.913246,114.80178 L91.99652,115.66415 L93.82997,116.52651 L92.913246,119.11361 L93.82997,119.11361 L95.66342,119.11361 M100.62142,93.348915 L101.59324,94.254265 L101.59324,93.348915 L102.56505,93.348915 L102.56505,94.254265 L103.53686,94.254265 L105.48048,94.254265 L107.424095,94.254265 L107.424095,96.064964 L105.48048,97.87566 L104.50867,98.78101 L104.50867,99.68636 L103.53686,98.78101 L103.53686,97.87566 L102.56505,98.78101 L101.59324,99.68636 L100.62142,99.68636 L99.64961,98.78101 L99.64961,97.87566 L101.59324,96.970314 L100.62142,96.064964 L99.64961,96.064964 L99.64961,94.254265 L97.70599,95.159615 L97.70599,96.970314 L97.70599,97.87566 L96.734184,97.87566 L96.734184,96.970314 L95.762375,96.064964 L94.790565,96.064964 L95.762375,92.443565 L95.762375,91.538216 L95.762375,90.632866 L94.790565,89.727516 L93.818756,89.727516 L92.84695,91.538216 L92.84695,89.727516 L92.84695,88.82217 L93.818756,88.82217 L94.790565,88.82217 L95.762375,88.82217 L94.790565,87.91682 L93.818756,87.01147 L94.790565,86.10612 L95.762375,87.01147 L96.734184,87.01147 L96.734184,86.10612 L96.734184,85.20077 L98.6778,86.10612 L97.70599,87.91682 L96.734184,87.91682 L96.734184,89.727516 L96.734184,91.538216 L96.734184,92.443565 L96.734184,93.348915 L97.70599,93.348915 L97.70599,92.443565 L98.6778,91.538216 L100.62142,90.632866 L100.62142,89.727516 L99.64961,87.91682 L100.62142,87.01147 L100.62142,86.10612 L100.62142,85.20077 L101.59324,85.20077 L103.53686,86.10612 L103.53686,88.82217 L105.48048,87.91682 L106.452286,89.727516 L105.48048,90.632866 L105.48048,92.443565 L106.452286,92.443565 L106.452286,93.348915 L105.48048,93.348915 L104.50867,92.443565 L104.50867,91.538216 L103.53686,91.538216 L102.56505,91.538216 L101.59324,91.538216 L100.62142,92.443565 L100.62142,93.348915 M64.62838,84.37082 L65.04203,83.86467 L65.45568,84.37082 L65.45568,83.86467 L65.45568,83.35852 L65.45568,82.85238 L65.04203,83.35852 L64.62838,83.35852 L64.62838,83.86467 L64.62838,84.37082 M162.84193,231.76462 L162.84193,233.28423 L161.26999,231.76462 L161.26999,230.245 L159.69806,230.245 L158.12613,228.72539 L156.55418,228.72539 L156.55418,225.68616 L158.12613,225.68616 L158.12613,227.20576 L159.69806,227.20576 L161.26999,227.20576 L161.26999,228.72539 L162.84193,227.20576 L164.41386,227.20576 L165.98581,227.20576 L164.41386,225.68616 L164.41386,224.16653 L162.84193,225.68616 L161.26999,225.68616 L161.26999,224.16653 L159.69806,224.16653 L159.69806,222.64693 L159.69806,221.1273 L158.12613,221.1273 L158.12613,222.64693 L156.55418,222.64693 L154.98225,222.64693 L154.98225,221.1273 L153.41032,219.60768 L151.83838,219.60768 L151.83838,218.08807 L150.26645,219.60768 L150.26645,221.1273 L151.83838,221.1273 L150.26645,222.64693 L150.26645,224.16653 L151.83838,225.68616 L151.83838,227.20576 L151.83838,228.72539 L153.41032,225.68616 L154.98225,225.68616 L154.98225,228.72539 L154.98225,231.76462 L153.41032,231.76462 L153.41032,234.80385 L153.41032,236.32346 L153.41032,237.84308 L153.41032,239.36269 L154.98225,239.36269 L156.55418,239.36269 L158.12613,237.84308 L156.55418,237.84308 L156.55418,236.32346 L154.98225,236.32346 L156.55418,234.80385 L156.55418,233.28423 L158.12613,233.28423 L159.69806,233.28423 L159.69806,234.80385 L161.26999,236.32346 L162.84193,236.32346 L162.84193,234.80385 L164.41386,234.80385 L165.98581,234.80385 L167.55774,234.80385 L170.70161,233.28423 L172.27354,233.28423 L173.84547,230.245 L172.27354,230.245 L170.70161,228.72539 L169.12967,227.20576 L169.12967,225.68616 L167.55774,228.72539 L169.12967,230.245 L167.55774,230.245 L167.55774,231.76462 L165.98581,231.76462 L164.41386,231.76462 L162.84193,230.245 L162.84193,231.76462 M74.22069,190.94893 L74.22069,191.86505 L74.933685,192.78116 L74.22069,192.78116 L73.50769,194.6134 L74.22069,195.52951 L74.933685,195.52951 L74.933685,196.44563 L75.64668,196.44563 L75.64668,197.36174 L74.933685,197.36174 L74.22069,197.36174 L74.22069,198.27786 L73.50769,199.19397 L72.79469,199.19397 L72.79469,200.11009 L72.08169,200.11009 L72.08169,201.0262 L70.65569,201.94232 L69.942696,201.94232 L68.51669,201.94232 L67.803696,201.0262 L68.51669,201.0262 L69.2297,201.0262 L69.942696,201.0262 L69.942696,200.11009 L70.65569,200.11009 L70.65569,199.19397 L69.942696,198.27786 L70.65569,198.27786 L71.36869,198.27786 L72.08169,197.36174 L72.08169,195.52951 L70.65569,195.52951 L69.2297,195.52951 L68.51669,196.44563 L69.2297,197.36174 L68.51669,198.27786 L67.803696,198.27786 L68.51669,199.19397 L67.803696,199.19397 L67.0907,199.19397 L66.3777,199.19397 L64.9517,201.0262 L64.2387,201.0262 L64.2387,200.11009 L64.9517,199.19397 L65.6647,198.27786 L65.6647,196.44563 L67.0907,197.36174 L67.803696,196.44563 L67.803696,195.52951 L67.0907,193.69728 L67.803696,192.78116 L68.51669,192.78116 L68.51669,193.69728 L69.2297,193.69728 L69.2297,192.78116 L69.942696,192.78116 L70.65569,194.6134 L72.08169,194.6134 L72.08169,192.78116 L72.08169,190.03282 L71.36869,190.94893 L70.65569,190.94893 L69.2297,190.03282 L70.65569,190.03282 L71.36869,189.1167 L71.36869,188.20059 L70.65569,188.20059 L69.942696,188.20059 L70.65569,187.28447 L71.36869,185.45224 L71.36869,184.53613 L72.08169,183.62001 L72.08169,185.45224 L72.08169,186.36836 L72.79469,187.28447 L72.79469,189.1167 L73.50769,190.03282 L74.22069,190.94893 M39.885624,162.3126 L39.885624,163.50531 L41.386646,162.90897 L42.887672,163.50531 L42.137157,164.69801 L42.137157,168.87247 L42.137157,170.06517 L44.388695,165.29436 L44.388695,164.69801 L44.388695,164.10167 L46.64023,164.10167 L45.889717,164.69801 L45.889717,165.29436 L45.139206,165.89072 L45.889717,165.89072 L48.141254,166.48706 L48.891766,164.69801 L63.15149,159.92722 L65.40302,160.52356 L66.904045,159.33086 L65.40302,156.3491 L64.65251,155.75276 L66.904045,155.1564 L67.65456,155.1564 L67.65456,152.77101 L68.40507,150.3856 L66.153534,151.57831 L66.153534,152.17465 L65.40302,152.77101 L64.65251,153.36736 L64.65251,153.96371 L63.902,153.96371 L63.902,152.17465 L62.400978,152.77101 L62.400978,154.56006 L63.15149,155.1564 L62.400978,156.94547 L60.14944,155.75276 L48.891766,154.56006 L48.891766,156.94547 L48.141254,156.94547 L46.64023,157.54181 L46.64023,158.13815 L46.64023,158.73451 L47.39074,158.13815 L47.39074,158.73451 L48.141254,160.52356 L47.39074,161.11992 L44.388695,161.71626 L43.638184,161.71626 L42.887672,160.52356 L42.887672,157.54181 L44.388695,158.73451 L45.139206,157.54181 L45.889717,156.3491 L46.64023,156.94547 L47.39074,155.1564 L46.64023,153.96371 L46.64023,152.17465 L47.39074,150.3856 L45.139206,151.57831 L44.388695,151.57831 L43.638184,152.17465 L44.388695,152.77101 L45.139206,152.77101 L45.139206,155.75276 L44.388695,155.1564 L43.638184,153.96371 L42.887672,153.96371 L42.887672,152.77101 L42.137157,151.57831 L42.137157,150.98195 L41.386646,150.98195 L39.885624,152.17465 L41.386646,153.36736 L40.636135,154.56006 L41.386646,156.3491 L39.885624,157.54181 L39.885624,158.73451 L39.885624,159.33086 L39.885624,162.3126 M172.41612,132.63174 L171.02412,133.662 L171.02412,132.63174 L169.63213,132.63174 L169.63213,131.60149 L169.63213,130.57123 L168.24013,131.60149 L166.84813,131.60149 L166.84813,130.57123 L165.45613,131.60149 L165.45613,132.63174 L164.06415,133.662 L164.06415,134.69228 L164.06415,135.72253 L165.45613,134.69228 L166.84813,136.75279 L166.84813,137.78305 L169.63213,136.75279 L169.63213,134.69228 L171.02412,135.72253 L172.41612,134.69228 L173.8081,133.662 L173.8081,131.60149 L173.8081,130.57123 L175.2001,130.57123 L175.2001,128.5107 L173.8081,128.5107 L173.8081,127.48044 L172.41612,126.45017 L172.41612,125.419914 L171.02412,125.419914 L169.63213,125.419914 L169.63213,124.38965 L171.02412,123.35939 L172.41612,123.35939 L171.02412,121.29887 L169.63213,122.329124 L169.63213,121.29887 L168.24013,119.23834 L166.84813,120.2686 L168.24013,122.329124 L166.84813,123.35939 L166.84813,124.38965 L165.45613,124.38965 L164.06415,123.35939 L162.67215,124.38965 L162.67215,125.419914 L159.88815,125.419914 L158.49615,127.48044 L159.88815,129.54095 L158.49615,129.54095 L157.10417,131.60149 L157.10417,133.662 L155.71217,135.72253 L157.10417,134.69228 L159.88815,133.662 L161.28015,134.69228 L162.67215,133.662 L162.67215,132.63174 L162.67215,131.60149 L161.28015,131.60149 L159.88815,131.60149 L159.88815,130.57123 L161.28015,130.57123 L161.28015,128.5107 L161.28015,127.48044 L162.67215,126.45017 L164.06415,126.45017 L164.06415,127.48044 L162.67215,128.5107 L164.06415,129.54095 L165.45613,129.54095 L166.84813,128.5107 L168.24013,126.45017 L169.63213,127.48044 L169.63213,128.5107 L171.02412,129.54095 L172.41612,129.54095 L172.41612,130.57123 L172.41612,131.60149 L172.41612,132.63174 M51.66662,122.65107 L52.393932,123.32724 L51.66662,125.35577 L52.393932,125.35577 L52.393932,126.031944 L53.121243,126.031944 L53.121243,127.38429 L52.393932,126.708115 L51.66662,126.708115 L50.93931,128.06047 L50.93931,128.73663 L53.121243,129.41281 L53.121243,130.08899 L54.575867,130.08899 L53.848553,129.41281 L53.848553,128.73663 L53.848553,128.06047 L54.575867,128.06047 L53.848553,126.708115 L53.848553,126.031944 L53.848553,124.67959 L53.848553,124.00342 L53.848553,123.32724 L55.303177,124.00342 L55.303177,124.67959 L56.030487,124.67959 L56.757797,125.35577 L56.757797,126.708115 L56.757797,127.38429 L57.48511,128.06047 L57.48511,127.38429 L57.48511,126.708115 L57.48511,126.031944 L58.21242,126.031944 L58.93973,126.031944 L58.93973,126.708115 L59.667046,127.38429 L60.394356,126.031944 L61.121666,126.031944 L61.848976,125.35577 L61.848976,124.67959 L63.3036,125.35577 L63.3036,124.67959 L64.030914,124.67959 L64.030914,125.35577 L65.485535,124.67959 L65.485535,124.00342 L67.667465,124.00342 L65.485535,121.97489 L64.030914,121.97489 L64.030914,122.65107 L64.030914,123.32724 L63.3036,122.65107 L61.848976,122.65107 L61.848976,123.32724 L61.121666,123.32724 L60.394356,124.00342 L58.93973,124.00342 L58.93973,123.32724 L57.48511,124.00342 L57.48511,123.32724 L57.48511,121.97489 L58.21242,121.97489 L58.21242,121.29872 L58.93973,121.97489 L61.121666,121.29872 L61.848976,119.270195 L60.394356,119.270195 L59.667046,119.270195 L58.93973,119.270195 L58.21242,119.946365 L56.757797,119.946365 L56.030487,120.62254 L55.303177,121.97489 L54.575867,121.97489 L54.575867,122.65107 L53.848553,122.65107 L53.848553,121.97489 L53.121243,121.29872 L53.121243,122.65107 L51.66662,122.65107 M76.49204,110.23584 L78.22563,109.44227 L79.95923,107.061554 L80.82603,107.061554 L80.82603,107.855125 L81.69282,108.6487 L82.559616,108.6487 L83.426414,104.68083 L83.426414,103.88726 L82.559616,103.88726 L80.82603,103.09369 L79.09243,101.506546 L79.09243,102.30012 L79.09243,103.09369 L79.09243,103.88726 L76.49204,104.68083 L74.758446,108.6487 L72.15806,106.26798 L72.15806,107.061554 L71.29126,108.6487 L72.15806,108.6487 L72.15806,109.44227 L73.02486,110.23584 L72.15806,111.02941 L73.02486,111.82299 L74.758446,112.61656 L74.758446,113.41013 L73.891655,114.99728 L75.625244,115.79085 L76.49204,114.99728 L77.35884,116.58442 L77.35884,118.17157 L76.49204,118.17157 L75.625244,118.96514 L75.625244,118.17157 L74.758446,118.17157 L74.758446,119.75871 L73.02486,119.75871 L72.15806,117.378 L72.15806,115.79085 L69.55767,118.17157 L66.090485,118.17157 L64.35689,117.378 L64.35689,118.17157 L62.6233,118.96514 L64.35689,119.75871 L66.090485,120.552284 L66.95728,122.13943 L70.42447,122.13943 L71.29126,121.345856 L72.15806,122.13943 L73.02486,121.345856 L74.758446,121.345856 L76.49204,122.13943 L77.35884,122.13943 L78.22563,121.345856 L79.09243,118.17157 L80.82603,116.58442 L82.559616,115.79085 L83.426414,117.378 L84.29321,120.552284 L86.0268,120.552284 L86.8936,120.552284 L86.8936,118.17157 L91.22758,119.75871 L89.49399,115.79085 L88.62719,112.61656 L87.7604,114.203705 L86.0268,114.203705 L85.16,113.41013 L84.29321,114.203705 L83.426414,114.99728 L83.426414,114.203705 L82.559616,113.41013 L81.69282,112.61656 L80.82603,111.02941 L80.82603,113.41013 L79.09243,113.41013 L77.35884,111.82299 L75.625244,111.02941 L76.49204,110.23584 M73.66975,77.26102 L72.58765,77.90654 L72.04659,77.26102 L70.96449,77.90654 L72.04659,78.55206 L72.58765,79.197586 L72.04659,79.197586 L71.50555,80.48863 L70.42345,79.197586 L69.88239,79.197586 L69.34134,79.84311 L69.88239,80.48863 L69.34134,81.134155 L68.25924,81.77968 L68.25924,82.4252 L67.17714,81.77968 L66.636086,81.77968 L67.718185,92.10805 L67.17714,93.39909 L68.25924,94.69014 L68.25924,95.33566 L67.718185,94.69014 L67.17714,95.33566 L68.25924,96.62671 L69.88239,97.27223 L69.88239,96.62671 L70.96449,95.981186 L70.96449,95.33566 L72.04659,95.981186 L72.04659,96.62671 L71.50555,97.917755 L73.66975,97.27223 L73.66975,97.917755 L75.2929,98.56328 L77.99815,99.2088 L79.62131,99.854324 L78.53921,97.917755 L77.45711,97.27223 L76.375,96.62671 L76.375,97.27223 L75.833954,97.27223 L74.75185,96.62671 L74.75185,95.33566 L74.75185,94.69014 L74.2108,94.04462 L74.2108,94.69014 L73.66975,95.33566 L72.58765,95.33566 L71.50555,95.33566 L71.50555,94.69014 L72.58765,94.04462 L72.58765,93.39909 L72.04659,92.75357 L70.96449,92.10805 L70.42345,92.75357 L70.96449,93.39909 L70.42345,94.04462 L69.34134,94.04462 L68.80029,92.75357 L69.88239,92.10805 L69.34134,91.462524 L68.80029,83.71625 L69.34134,83.070724 L69.88239,83.070724 L70.42345,83.070724 L70.96449,83.070724 L73.66975,81.77968 L74.75185,81.134155 L74.75185,80.48863 L75.833954,80.48863 L77.45711,80.48863 L78.53921,80.48863 L78.53921,79.84311 L77.99815,78.55206 L76.91605,78.55206 L75.833954,77.90654 L75.833954,78.55206 L74.75185,79.197586 L74.75185,78.55206 L74.75185,77.26102 L73.66975,77.26102 M101.87875,194.78241 L101.09022,190.94028 L98.724594,189.97975 L96.35897,188.05869 L99.51314,187.09814 L105.821465,189.97975 L105.821465,191.90082 L108.975624,190.94028 L108.18708,193.82187 L107.398544,196.70348 L108.975624,196.70348 L110.552704,194.78241 L112.91833,193.82187 L114.49541,189.01921 L115.28395,189.01921 L116.072495,189.01921 L118.43812,189.97975 L117.649574,187.09814 L117.649574,185.17708 L116.072495,184.21655 L114.49541,182.29549 L113.70687,183.25601 L110.552704,184.21655 L109.76417,184.21655 L108.18708,173.6507 L107.398544,172.69016 L109.76417,171.72963 L110.552704,171.72963 L112.12979,171.72963 L112.12979,170.76909 L112.91833,169.80856 L114.49541,171.72963 L115.28395,170.76909 L116.86103,168.84802 L117.649574,169.80856 L119.226654,170.76909 L118.43812,172.69016 L118.43812,173.6507 L120.80374,175.57176 L118.43812,174.61122 L117.649574,174.61122 L115.28395,172.69016 L115.28395,174.61122 L114.49541,174.61122 L113.70687,175.57176 L112.91833,176.53229 L113.70687,177.49283 L112.91833,178.45335 L113.70687,181.33495 L114.49541,180.37442 L115.28395,179.4139 L116.86103,180.37442 L118.43812,179.4139 L120.0152,181.33495 L121.59228,182.29549 L120.0152,185.17708 L120.80374,187.09814 L123.16936,186.13762 L123.9579,186.13762 L123.9579,189.01921 L123.9579,189.97975 L122.38082,189.97975 L122.38082,191.90082 L123.16936,192.86134 L123.16936,194.78241 L117.649574,192.86134 L115.28395,192.86134 L115.28395,195.74294 L116.072495,197.664 L118.43812,197.664 L117.649574,200.54561 L115.28395,199.58507 L112.91833,200.54561 L112.91833,202.46667 L112.91833,204.38774 L109.76417,204.38774 L105.03292,198.62454 L103.45584,196.70348 L102.6673,196.70348 L103.45584,194.78241 L101.87875,194.78241 M117.987915,168.15582 L117.04603,168.15582 L117.987915,167.50885 L117.987915,166.86188 L117.987915,166.21489 L117.987915,165.56792 L117.987915,164.92094 L118.9298,164.27397 L118.9298,163.62698 L120.813576,164.27397 L120.813576,163.62698 L121.75546,162.98001 L122.69735,162.98001 L123.63924,162.98001 L124.58112,163.62698 L125.52302,163.62698 L125.52302,164.92094 L125.52302,165.56792 L125.52302,166.21489 L125.52302,166.86188 L126.464905,166.86188 L127.40679,165.56792 L127.40679,166.86188 L128.34868,167.50885 L128.34868,168.15582 L128.34868,168.8028 L128.34868,169.44977 L129.29056,170.09676 L130.23245,170.09676 L130.23245,171.3907 L131.17435,172.03767 L130.23245,172.03767 L129.29056,171.3907 L129.29056,170.74373 L128.34868,170.09676 L127.40679,171.3907 L127.40679,170.74373 L127.40679,169.44977 L126.464905,169.44977 L125.52302,168.8028 L125.52302,169.44977 L125.52302,170.09676 L125.52302,171.3907 L124.58112,170.74373 L124.58112,170.09676 L123.63924,169.44977 L123.63924,168.8028 L124.58112,168.8028 L124.58112,168.15582 L125.52302,168.15582 L125.52302,167.50885 L124.58112,166.86188 L123.63924,166.86188 L124.58112,165.56792 L124.58112,164.92094 L123.63924,165.56792 L123.63924,164.92094 L123.63924,164.27397 L122.69735,163.62698 L122.69735,164.27397 L122.69735,164.92094 L122.69735,165.56792 L121.75546,164.92094 L121.75546,165.56792 L121.75546,166.86188 L121.75546,167.50885 L121.75546,168.15582 L121.75546,168.8028 L122.69735,169.44977 L122.69735,170.09676 L121.75546,170.09676 L120.813576,170.74373 L119.87169,170.09676 L119.87169,168.15582 L119.87169,167.50885 L119.87169,166.86188 L120.813576,166.21489 L118.9298,166.21489 L118.9298,166.86188 L118.9298,167.50885 L117.987915,168.15582 M98.062996,133.09549 L98.80097,133.09549 L100.27693,136.69554 L101.75289,137.89555 L104.70481,142.69563 L103.96683,143.89565 L105.44279,143.89565 L106.18077,143.89565 L107.65673,143.89565 L108.39471,145.09566 L106.91875,145.09566 L106.18077,146.29568 L105.44279,146.29568 L105.44279,147.4957 L107.65673,151.09575 L110.60864,153.49579 L109.87067,149.89574 L109.87067,147.4957 L112.0846,146.29568 L114.29854,146.29568 L115.7745,146.29568 L114.29854,147.4957 L113.56056,147.4957 L112.82258,147.4957 L112.82258,148.69571 L113.56056,148.69571 L114.29854,149.89574 L115.03652,149.89574 L115.7745,151.09575 L115.7745,153.49579 L115.7745,164.29594 L114.29854,165.49597 L115.03652,165.49597 L116.51248,166.69598 L117.988434,164.29594 L117.988434,153.49579 L118.72642,153.49579 L120.20238,153.49579 L119.46439,151.09575 L118.72642,149.89574 L119.46439,148.69571 L120.20238,148.69571 L120.20238,147.4957 L119.46439,147.4957 L117.988434,146.29568 L118.72642,145.09566 L119.46439,143.89565 L120.20238,142.69563 L120.20238,141.4956 L119.46439,141.4956 L118.72642,141.4956 L115.7745,143.89565 L113.56056,143.89565 L111.34663,143.89565 L112.0846,142.69563 L111.34663,142.69563 L110.60864,142.69563 L109.87067,141.4956 L106.91875,141.4956 L103.22885,136.69554 L103.22885,135.49551 L102.490875,134.2955 L102.490875,133.09549 L101.014915,131.89546 L100.27693,131.89546 L99.538956,130.69545 L100.27693,129.49544 L98.80097,128.29541 L99.538956,127.0954 L98.80097,125.89538 L97.32502,124.69536 L96.587036,124.69536 L97.32502,123.49534 L95.84906,122.29533 L95.11108,122.29533 L95.84906,124.69536 L95.11108,127.0954 L97.32502,127.0954 L98.80097,129.49544 L98.062996,131.89546 L98.062996,133.09549 M138.23264,93.28469 L137.2813,93.28469 L137.2813,94.4434 L137.2813,95.60211 L135.37862,93.28469 L134.42728,93.28469 L133.47594,93.28469 L132.52458,94.4434 L129.67056,92.12598 L127.76788,92.12598 L126.81654,90.96727 L127.76788,89.808556 L131.57324,90.96727 L133.47594,90.96727 L135.37862,90.96727 L133.47594,89.808556 L131.57324,89.808556 L131.57324,88.64985 L131.57324,87.491135 L129.67056,86.33242 L127.76788,85.17371 L126.81654,84.015 L128.71922,84.015 L129.67056,84.015 L129.67056,80.53887 L129.67056,79.38016 L130.6219,79.38016 L130.6219,80.53887 L131.57324,82.85629 L132.52458,82.85629 L132.52458,84.015 L132.52458,85.17371 L134.42728,85.17371 L134.42728,86.33242 L136.32996,86.33242 L137.2813,86.33242 L138.23264,85.17371 L138.23264,84.015 L137.2813,84.015 L136.32996,82.85629 L137.2813,82.85629 L138.23264,82.85629 L138.23264,81.69758 L137.2813,80.53887 L136.32996,80.53887 L135.37862,81.69758 L134.42728,78.22145 L136.32996,78.22145 L136.32996,75.90403 L138.23264,74.745316 L138.23264,75.90403 L138.23264,77.06274 L142.038,80.53887 L142.038,81.69758 L142.98933,81.69758 L143.94067,81.69758 L144.89201,82.85629 L145.84335,82.85629 L144.89201,84.015 L144.89201,85.17371 L146.7947,85.17371 L145.84335,87.491135 L144.89201,88.64985 L143.94067,88.64985 L143.94067,89.808556 L143.94067,90.96727 L142.038,89.808556 L142.038,87.491135 L141.08665,86.33242 L140.13531,86.33242 L142.98933,86.33242 L142.038,85.17371 L142.038,84.015 L141.08665,84.015 L140.13531,85.17371 L139.18398,86.33242 L139.18398,88.64985 L141.08665,90.96727 L140.13531,92.12598 L139.18398,90.96727 L138.23264,93.28469" fill="none" stroke="hotpink" stroke-width="0.4"/>
</g>
</g>
<g inkscape:groupmode="layer" inkscape:label="signature">
<path d="m 15.815664,12.893319 c -1.445284,-3.0999497 -5.555449,-0.3575 -5.08537,2.32203 1.697826,2.92736 4.504013,-3.54417 4.40859,-2.58178 -1.548999,2.22986 0.741131,6.08701 3.012419,3.25791 2.532153,-2.82358 0.259001,-7.8326797 -3.488671,-7.9011197 -3.217272,0.056 -5.8863857,2.4603197 -7.9308737,4.7238797 -2.354585,2.46752 0.0048,5.887 2.757763,6.62143 3.2195457,1.10867 6.8759417,1.30834 9.9459317,-0.36585 2.270396,-1.12373 5.025949,-2.62031 5.680576,-5.20027 -2.108811,-3.66096 -6.038415,1.28356 -3.842036,3.67822 1.07278,0.89979 4.586982,-2.27037 3.201668,-2.73503 0.03094,3.24357 1.226854,6.37852 1.337023,9.60311 -0.672198,3.54892 -7.469251,0.32096 -4.637082,-2.5164 2.158436,-2.4193 5.610472,-2.84094 8.202925,-4.57369 0.993877,-1.40371 0.353413,-5.25046 3.182464,-3.48957 2.142923,1.43516 -2.250898,5.7532 1.723416,5.02339 1.661189,-0.71663 6.494946,-1.40457 4.601401,-3.95236 -4.205319,-0.68052 -1.190571,5.86505 1.665411,3.46881 1.929752,-0.9247 2.778055,-4.05119 1.423645,-5.35034 0.479155,1.8589 3.849911,7.52574 4.880369,3.32696 0.21201,-1.28088 0.40468,-3.80204 1.01246,-1.23041 0.5858,2.6865 3.83412,4.91909 4.56937,1.07383 0.65272,-1.00894 -0.2696,-4.02739 0.99929,-1.35746 1.10974,2.31613 6.32001,1.46113 6.147,-1.13059 -1.98394,-2.13868 -5.3717,1.45205 -3.78252,3.73454 2.57741,0.96208 6.69797,-0.21041 7.06275,-3.33983 0.41287,-2.63769 0.26643,-5.3430297 -0.11178,-7.9756197 0.67418,3.94149 1.24889,7.9380497 2.39963,11.7713397 2.10586,1.67977 5.7434,1.65022 7.74596,-0.23639 3.03149,-1.85431 -0.26637,-4.76925 -2.71777,-4.54025 -2.11577,0.0793 -5.36257,2.40772 -5.16868,3.85604 2.08262,-2.38818 5.55759,-1.22628 8.30726,-1.6832 3.182,-0.26596 6.46546,-0.57372 9.54494,-1.18158 0.24171,0.4199 -0.27752,0.54338 -0.43067,0.17453" fill="none" stroke="hotpink" stroke-width="1" transform="translate(170,260) scale(0.3)"/>
</g>
</svg>