<?xml version="1.0" encoding="UTF-8" standalone="no"?>
<svg
   data-license="All Right Reserved – @greweb – 2023 – make your own letters please :)"
   width="320mm"
   height="12mm"
   viewBox="0 0 320 12"
   version="1.1"
   id="svg5"
   sodipodi:docname="letters.svg"
   inkscape:version="1.2.2 (b0a84865, 2022-12-01)"
   xmlns:inkscape="http://www.inkscape.org/namespaces/inkscape"
   xmlns:sodipodi="http://sodipodi.sourceforge.net/DTD/sodipodi-0.dtd"
   xmlns="http://www.w3.org/2000/svg"
   xmlns:svg="http://www.w3.org/2000/svg">
  <defs
     id="defs224" />
  <sodipodi:namedview
     id="namedview7"
     pagecolor="#ffffff"
     bordercolor="#000000"
     borderopacity="0.25"
     inkscape:showpageshadow="2"
     inkscape:pageopacity="0.0"
     inkscape:pagecheckerboard="0"
     inkscape:deskcolor="#d1d1d1"
     inkscape:document-units="mm"
     showgrid="false"
     showguides="true"
     inkscape:zoom="10.011204"
     inkscape:cx="777.52887"
     inkscape:cy="32.713349"
     inkscape:window-width="1199"
     inkscape:window-height="661"
     inkscape:window-x="236"
     inkscape:window-y="113"
     inkscape:window-maximized="0"
     inkscape:current-layer="svg5">
    <sodipodi:guide
       position="34.032316,1.5097517"
       orientation="0,-1"
       id="guide2654"
       inkscape:locked="false" />
    <sodipodi:guide
       position="16.876009,8.889745"
       orientation="0,-1"
       id="guide2950"
       inkscape:locked="false" />
    <sodipodi:guide
       position="121.10824,5.5511301"
       orientation="0,-1"
       id="guide2952"
       inkscape:locked="false" />
  </sodipodi:namedview>
  <path
     id="path265"
     style="fill:none;stroke:#000000;stroke-width:0.546232;stroke-linejoin:bevel"
     inkscape:label="z"
     d="m 193.59492,9.5332533 c 1.00003,-1.2120774 0.56213,-2.5288054 1.10578,-3.7627447 7.39074,-1.4683506 -0.26153,5.4901094 1.28632,3.7942517 5.52595,0.247752 4.02276,5.4602147 1.58391,5.2114807 -0.78224,-0.07978 -2.04312,-0.674176 -2.0574,-2.087649 0.28623,-2.228669 2.76855,-1.503254 5.48154,-3.4948634"
     sodipodi:nodetypes="cccscc" />
  <path
     id="path2044"
     style="fill:none;stroke:#000000;stroke-width:0.546232;stroke-linejoin:bevel"
     inkscape:label="y"
     d="m 184.93887,9.9069053 c 2.66042,-2.5534725 1.31791,-7.9075184 1.88054,-1.4382634 1.22032,3.5536291 4.26158,0.2255536 3.02427,-3.0666738 0.50077,2.3225392 1.46358,13.5506569 -2.2069,8.9071789 -1.50129,-2.894804 3.6147,-3.504565 4.35009,-4.7940387"
     sodipodi:nodetypes="ccccc" />
  <path
     id="path2039"
     style="fill:none;stroke:#000000;stroke-width:0.546232;stroke-linejoin:bevel"
     inkscape:label="x"
     d="m 175.72356,9.3505036 c 4.05803,-7.3756943 7.41774,0.2684457 0.89121,1.2556414 4.49193,0.367325 1.30454,-5.0846626 6.92907,-4.4620549 -6.98221,0.9029464 -2.5211,7.1937669 0.77768,3.3554702"
     sodipodi:nodetypes="cccc" />
  <path
     id="path2034"
     style="fill:none;stroke:#000000;stroke-width:0.546232;stroke-linejoin:bevel"
     inkscape:label="w"
     d="m 166.31049,8.6315309 c 0.66119,-1.4706848 0.94678,-3.5225173 1.96197,1.0800638 0.59032,2.6763243 1.14091,0.089216 2.60504,-3.4592856 1.5301,9.1737509 2.80334,2.6461749 2.80488,0.1758731 1.10216,0.3649917 0.4497,-0.1320986 1.31346,-0.2347183"
     sodipodi:nodetypes="csccc" />
  <path
     id="path2029"
     style="fill:none;stroke:#000000;stroke-width:0.546232;stroke-linejoin:bevel"
     inkscape:label="v"
     d="m 160.92105,8.6266089 c 0.99601,-3.4576803 0.33295,-6.5136284 1.70377,0.2737994 1.1648,5.7673247 1.48937,-1.1515542 2.39941,-3.4726283 0.16784,-0.4280681 0.58182,1.236059 0.9132,1.176442"
     sodipodi:nodetypes="cssc" />
  <path
     id="path2024"
     style="fill:none;stroke:#000000;stroke-width:0.546232;stroke-linejoin:bevel"
     inkscape:label="u"
     d="m 153.67132,9.9499883 c 0.1769,-0.159412 0.3615,-0.339352 0.55407,-0.5411197 3.04585,-4.7140982 0.93601,-4.8198684 2.0763,0.6499844 3.78517,1.293381 2.19315,-9.22271697 2.19225,-0.7793324 0.97875,1.6752424 0.69782,0.4628457 1.80895,0.3202267"
     sodipodi:nodetypes="ccccc" />
  <path
     id="path2019"
     style="fill:none;stroke:#000000;stroke-width:0.546232;stroke-linejoin:bevel"
     inkscape:label="t"
     d="m 147.80287,9.6271203 c 1.62205,-1.0318764 2.46753,-3.3738919 2.92133,-5.5342339 0.46973,-2.2362017 0.51978,-4.00905384 0.57699,-4.201402 0.0343,-0.1154748 -0.37566,2.6822078 -0.55831,4.398374 -0.0623,0.585114 2.67272,0.08729 2.77183,0.457448 -0.11441,-0.224622 -2.73907,-0.22578 -2.86963,0.01923 -0.79063,1.483887 -1.16184,8.8234196 3.24977,4.8481639"
     sodipodi:nodetypes="cscsccc" />
  <path
     id="path2014"
     style="fill:none;stroke:#000000;stroke-width:0.546232;stroke-linejoin:bevel"
     inkscape:label="s"
     d="m 141.74726,9.3228966 c 1.58831,-1.0141922 2.41579,-2.5354959 2.34346,-3.5701678 -0.0176,-0.25234 2.95908,1.786672 1.94546,3.9610425 -1.5982,1.1563297 -5.06445,0.7112657 -0.0137,0.212958 0.38925,-0.08969 0.82092,-0.205169 1.14509,-0.411372"
     sodipodi:nodetypes="csccc" />
  <path
     id="path2004"
     style="fill:none;stroke:#000000;stroke-width:0.546232;stroke-linejoin:bevel"
     inkscape:label="q"
     d="m 128.41689,9.6960653 c 3.13172,-0.5011577 4.62201,-2.2116368 2.12,-4.7588491 -5.14104,3.5354567 3.69829,8.5233948 1.75942,0.6283754 -0.52862,0.05648 1.5284,14.5153984 0.5027,9.9281754 -0.79203,-3.49008 -1.01616,-4.70354 2.10172,-5.8599807"
     sodipodi:nodetypes="ccccc" />
  <path
     id="path1999"
     style="fill:none;stroke:#000000;stroke-width:0.546232;stroke-linejoin:bevel"
     inkscape:label="p"
     d="m 119.92504,9.5270013 c 2.81973,-0.9741184 4.14997,-6.5047031 3.28106,0.08737 0.55997,3.4098487 0.19593,12.6361037 0.60587,3.9932417 -1.20128,-4.0002877 0.91012,-11.3165989 2.5401,-4.2362614 -0.144,0.2898437 0.68204,2.1487304 2.1207,0.2688347"
     sodipodi:nodetypes="ccccc" />
  <path
     id="path1994"
     style="fill:none;stroke:#000000;stroke-width:0.546232;stroke-linejoin:bevel"
     inkscape:label="o"
     d="m 112.87631,9.5133063 c 5.79147,0.6272637 6.24297,-5.2287906 1.53919,-2.7302783 -0.10546,8.647228 6.37546,0.299116 3.34611,0.0052 1.014,0.5608487 1.16178,0.3511752 1.9714,0.071471"
     sodipodi:nodetypes="cccc" />
  <path
     id="path1989"
     style="fill:none;stroke:#000000;stroke-width:0.546232;stroke-linejoin:bevel"
     inkscape:label="n"
     d="m 105.41714,9.4295906 c 0.42566,-0.5187201 0.71193,-1.6258966 0.74404,-1.7933625 0.9416,-4.9110006 2.73892,0.1712902 3.02735,2.5658399 -0.32828,-8.1255962 2.07235,-4.1333719 2.08056,0.09775 0.65508,0.09636 0.71952,-0.189843 1.6631,-0.6188647"
     sodipodi:nodetypes="csccc" />
  <path
     id="path1984"
     style="fill:none;stroke:#000000;stroke-width:0.546232;stroke-linejoin:bevel"
     inkscape:label="m"
     d="m 96.335869,9.5114393 c 0.31139,-0.3433287 0.354147,-0.5438547 0.677567,-1.0508024 2.075561,-9.28683395 1.8822,6.8497521 2.144496,-1.5658441 2.847558,-5.4147993 1.146048,7.1719842 1.834048,0.6398367 3.13439,-6.1880388 0.50251,6.0176095 4.229,1.9004771"
     sodipodi:nodetypes="ccccc" />
  <path
     id="path1979"
     style="fill:none;stroke:#000000;stroke-width:0.546232;stroke-linejoin:bevel"
     inkscape:label="l"
     d="M 90.801724,9.6265323 C 93.923217,8.2814374 96.206919,3.2394647 93.879182,0.16213156 89.157055,3.2559746 91.741095,14.511331 96.227822,9.5643483"
     sodipodi:nodetypes="ccc" />
  <path
     id="path1974"
     style="fill:none;stroke:#000000;stroke-width:0.546232;stroke-linejoin:bevel"
     inkscape:label="k"
     d="m 84.17168,9.7599673 c 3.070841,-3.0913592 7.360601,-8.5219988 2.840015,-9.52504144 -1.356363,-0.018369 -1.054125,15.32725514 -0.56462,7.47224464 2.373442,-4.8061671 4.369602,1.7795288 0.970168,0.8413203 2.600413,2.2029412 1.644852,1.9459002 3.440363,1.0780415"
     sodipodi:nodetypes="ccccc" />
  <path
     id="path1172"
     style="fill:none;stroke:#000000;stroke-width:0.546232;stroke-linejoin:bevel"
     inkscape:label="h"
     d="M 66.786679,9.6743353 C 68.988033,7.3482038 71.657062,4.1669707 69.837208,0.79059423 66.50342,1.1479647 69.611237,15.529136 68.594751,7.4484516 c 1.714061,-0.6655307 1.299384,2.0302757 3.617596,2.2121717"
     sodipodi:nodetypes="cccc" />
  <path
     id="path1167"
     style="fill:none;stroke:#000000;stroke-width:0.546232;stroke-linejoin:bevel"
     inkscape:label="g"
     d="m 59.567542,9.3659196 c 4.514615,0.6789974 8.012755,-4.6177581 0.877153,-3.8942049 -2.129183,3.5970979 5.526796,5.0806823 3.419998,-0.170894 -0.05177,2.8651215 5.877013,13.9891233 -0.975945,9.6802393 -0.09148,-2.676029 2.015783,-3.373784 3.89793,-5.3626067"
     sodipodi:nodetypes="ccccc" />
  <path
     id="path1162"
     style="fill:none;stroke:#000000;stroke-width:0.546232;stroke-linejoin:bevel"
     inkscape:label="f"
     d="m 50.205127,9.5462123 c 2.425589,0.08478 2.880765,-1.2188946 3.476886,-2.1623726 2.4328,-3.8503815 0.640358,-11.629164 -1.491323,-3.8650261 -1.364612,3.4429502 -1.344379,15.1297364 2.427155,11.1028724 0.549032,-3.481552 -3.874899,-6.6327456 -2.027964,-5.2126284 0.07115,0.0547 -0.04139,-0.120958 2.032403,0.5120827 0.457458,-0.167464 0.706344,0.0053 1.563884,-0.436667"
     sodipodi:nodetypes="csccscc" />
  <path
     id="path1157"
     style="fill:none;stroke:#000000;stroke-width:0.546232;stroke-linejoin:bevel"
     inkscape:label="e"
     d="m 42.631543,9.4554096 c 0.920206,-0.6153062 0.997015,-1.0845486 1.97806,-1.0482171 5.457771,1.8760555 5.513874,-5.8645908 0.388447,-2.9508408 -2.609245,5.3781233 2.789343,6.6252063 5.262959,4.0339786"
     sodipodi:nodetypes="cccc" />
  <path
     id="path1152"
     style="fill:none;stroke:#000000;stroke-width:0.546232;stroke-linejoin:bevel"
     inkscape:label="d"
     d="M 33.529156,9.4060216 C 38.656771,11.383624 38.627309,6.1870428 37.669744,5.4770094 28.195766,3.3205585 39.83822,15.360055 38.423783,7.3621125 37.66695,4.4167133 38.04473,-5.7704646 37.592972,3.1486405 c 0.333184,4.5700041 0.965041,6.0368591 3.100012,6.4457588"
     sodipodi:nodetypes="ccccc" />
  <path
     id="path1147"
     style="fill:none;stroke:#000000;stroke-width:0.546232;stroke-linejoin:bevel"
     inkscape:label="c"
     d="m 23.578901,9.5119373 c 1.286301,0.228336 2.108966,-1.2525621 2.407048,-2.3982865 0.853556,-4.0216276 4.936376,-1.8233076 4.020375,-2.3558858 -1.87595,-1.0907084 -6.15045,1.4015204 -2.58613,5.0948503 1.22705,1.2714557 2.137989,0.8368317 4.35851,-0.5406807"
     sodipodi:nodetypes="ccssc" />
  <path
     id="path1142"
     style="fill:none;stroke:#000000;stroke-width:0.546232;stroke-linejoin:bevel"
     inkscape:label="b"
     d="m 12.182341,9.4746153 c 0.950162,0.18454 1.400716,-0.2273397 2.555671,-1.8597778 0.536455,-2.2129964 -0.05569,-10.5956184 0.119132,-8.839375 0.472856,2.7060406 -1.098849,14.9963065 0.747806,6.2237747 7.67457,-1.664724 4.113578,9.3133978 -1.233584,2.7700203 0.861093,-4.4481482 3.629742,0.9481304 6.788448,1.5088601"
     sodipodi:nodetypes="cccccc" />
  <path
     id="path1137"
     style="fill:none;stroke:#000000;stroke-width:0.546232;stroke-linejoin:bevel"
     inkscape:label="a"
     d="M 1.4146439,9.3630086 C 6.4027523,11.885781 11.901997,1.5660787 4.4144394,5.0661154 0.06570679,11.004377 9.5784128,12.284748 8.1023646,4.5999363 6.9190566,3.3793452 8.6755978,9.4879983 11.548771,9.5322123"
     sodipodi:nodetypes="cccc" />
  <path
     id="path1135"
     style="fill:none;stroke:#000000;stroke-width:0.546232;stroke-linejoin:bevel"
     inkscape:label="i"
     d="m 75.640185,1.5326627 c -0.09958,-0.89635757 2.178147,0.439674 0.125672,0.6283647 L 75.640185,1.5326627 v 0 m -3.539602,8.1838426 c 0.609486,0.04785 1.393605,-0.2604107 2.43319,-1.1273264 1.39563,-1.1486297 1.245897,-5.5939256 0.628292,-1.5146791 0.375891,3.0559622 1.431364,4.6801782 3.118027,2.4884745"
     sodipodi:nodetypes="cccccccc" />
  <path
     id="path1133"
     style="fill:none;stroke:#000000;stroke-width:0.546232;stroke-linejoin:bevel"
     inkscape:label="j"
     d="m 81.090071,1.8756879 c -0.09958,-0.89635747 2.178148,0.4396739 0.125672,0.6283647 L 81.090071,1.8756879 v 0 M 78.22421,9.5629743 c 2.658079,-2.1341428 4.575152,-7.7067702 3.687059,-0.1434057 0.469385,2.2652164 -0.360865,11.1680504 -1.908255,2.9206184 0.684419,-0.913575 2.834765,-1.4043 4.280429,-2.8596287"
     sodipodi:nodetypes="cccccccc" />
  <path
     style="fill:none;stroke:#000000;stroke-width:0.362551;stroke-linejoin:bevel"
     d="m 239.21536,6.8301638 c 2.18537,-0.2100907 3.83529,-2.3728645 4.72491,-3.8342686 -0.33156,3.1543908 0.01,6.3770184 -0.20538,9.5327328 1.69335,0.0094 -0.0113,-0.09405 -0.72049,-0.130954"
     id="path1821"
     inkscape:label="1" />
  <path
     style="fill:none;stroke:#000000;stroke-width:0.362551;stroke-linejoin:bevel"
     d="m 247.95584,6.4981611 c -3.58226,0.169232 -1.70412,-4.3107261 1.0958,-3.6253145 2.80639,0.5268914 1.78511,4.5475819 0.99592,6.443305 -0.20377,1.7226424 -5.37039,2.6087264 -1.87875,2.9497574 1.35713,0.228676 2.6133,0.09397 3.9135,-0.3313"
     id="path1823"
     inkscape:label="2" />
  <path
     style="fill:none;stroke:#000000;stroke-width:0.362551;stroke-linejoin:bevel"
     d="m 253.35382,4.2666698 c 0.341,-2.3734244 4.94599,-3.47444867 5.32209,-0.5395098 0.53309,2.3554815 -2.05981,3.6550905 -4.01209,3.7489845 2.85458,-0.7561814 4.96615,3.9637635 1.70591,4.7583675 -1.06831,0.452639 -1.52075,-0.575182 -2.22989,-0.828388"
     id="path1825"
     inkscape:label="3" />
  <path
     style="fill:none;stroke:#000000;stroke-width:0.362551;stroke-linejoin:bevel"
     d="m 259.95782,1.8521922 c -0.20742,2.2092226 -0.59506,7.5703044 2.87445,6.9494577 1.18906,0.1888667 4.97097,-0.9483724 2.56201,-2.8229887 -3.54885,-0.5629414 -3.59439,3.7651921 -2.29248,5.9604868 0.17055,-0.27868 0.35726,0.879551 0,0.458497"
     id="path1833"
     inkscape:label="4"
     sodipodi:nodetypes="ccccc" />
  <path
     style="fill:none;stroke:#000000;stroke-width:0.362551;stroke-linejoin:bevel"
     d="m 270.78979,1.8816749 c -0.73918,0.1503262 -4.42783,1.4472785 -3.20948,3.9954651 0.33022,1.5731405 0.0721,3.8969213 2.21913,2.2721102 3.6241,0.3100387 0.71173,5.2653748 -2.0152,3.6136978 l -0.1384,0.07468"
     id="path1835"
     inkscape:label="5" />
  <path
     style="fill:none;stroke:#000000;stroke-width:0.362551;stroke-linejoin:bevel"
     d="m 276.64176,3.5531512 c -2.88909,-1.4739139 -3.7345,2.5211732 -3.63573,4.603205 -0.18993,2.2424898 2.22961,4.9188918 4.48722,3.5842368 1.55878,-2.1694947 -1.96867,-3.9062185 -3.34047,-1.9649877"
     id="path1837"
     inkscape:label="6" />
  <path
     style="fill:none;stroke:#000000;stroke-width:0.362551;stroke-linejoin:bevel"
     d="m 278.90776,5.7326268 c -1.57663,-2.8217449 3.41879,-6.8273528 3.93723,-2.3365157 0.31757,2.3597113 -0.0747,4.6570851 0.28812,6.7236729 0.0995,2.060178 -0.35893,3.555486 -0.22983,0.939945 -0.0834,-1.9237154 0.44583,-5.1562319 -2.35799,-3.6241185 v 0.196503"
     id="path1839"
     inkscape:label="7" />
  <path
     style="fill:none;stroke:#000000;stroke-width:0.362551;stroke-linejoin:bevel"
     d="m 286.20086,6.9089838 c 2.09876,-1.0678741 4.82132,-5.621319 1.48703,-6.57455604 -2.16786,0.20854127 -3.85371,3.04564844 -2.8814,5.00239344 1.87296,1.0796869 5.04912,1.6513726 4.53836,4.5851471 0.0821,4.0442137 -6.23981,1.7266307 -4.84702,-1.5719881 0.46192,-0.8881857 1.32772,-1.5822901 2.03049,-2.1614451"
     id="path1847"
     inkscape:label="8" />
  <path
     style="fill:none;stroke:#000000;stroke-width:0.362551;stroke-linejoin:bevel"
     d="m 296.6633,6.0871438 c -2.23419,1.3084347 -6.1045,1.5452307 -6.08001,-1.9868563 -0.0472,-3.53127997 5.50325,-3.58256087 5.4892,0.01849 0.99224,2.0750582 0.3955,4.9232271 -1.64377,6.1570415 -1.00359,0.532117 -3.31319,1.365602 -3.79138,1.182259"
     id="path1857"
     inkscape:label="9" />
  <path
     id="path1910"
     style="fill:none;stroke:#000000;stroke-width:0.398374;stroke-linejoin:bevel"
     d="m 234.59351,11.988803 c 0.851,0.09227 1.66653,-0.379436 2.13018,-1.077078 0.62974,-0.9196887 0.9692,-2.0445161 0.97378,-3.1564265 -0.0767,-0.5321247 -0.0398,-1.1553104 -0.43711,-1.5710702 -0.41136,-0.6490167 -0.86207,-1.3910536 -1.65101,-1.6123112 -0.64128,-0.1688471 -1.33927,-0.014423 -1.70426,0.59032 -0.60648,0.9047339 -0.56523,2.0420217 -0.66697,3.0851411 -0.0676,1.1854994 -0.0188,2.5058168 0.77924,3.4619878 0.26304,0.532046 0.79172,0.878265 1.37433,0.955487 0.70769,0.09661 1.45136,0.06971 2.13612,-0.141359 0.52424,-0.136794 0.81703,-0.631106 0.85432,-1.147854 0.16338,-1.034364 0.17429,-2.0899544 0.10607,-3.1331778 -0.17897,-0.5856427 -0.2113,-1.2313034 -0.53481,-1.7668791 -0.0871,-0.188797 -0.3439,-0.191188 -0.2568,-0.3202608 -0.096,-0.056331 -0.36095,-0.2352561 -0.43183,-0.071946"
     inkscape:label="0"
     sodipodi:nodetypes="ccccccccccccccc" />
  <path
     id="path3828"
     style="fill:none;stroke:#000000;stroke-width:0.398374;stroke-linejoin:bevel"
     d="m 226.50763,9.8193543 c 0.5054,-0.06238 1.02161,-0.13194 1.55805,-0.04281 0.47046,-0.02342 1.2784,0.111856 1.69525,-0.118237"
     inkscape:label="_"
     sodipodi:nodetypes="ccc" />
  <path
     id="path3828-7"
     style="fill:none;stroke:#000000;stroke-width:0.398374;stroke-linejoin:bevel"
     d="m 217.36651,7.0325394 c 0.5054,-0.06238 1.02161,-0.13194 1.55805,-0.04281 0.47046,-0.02342 1.2784,0.111856 1.69525,-0.118237"
     inkscape:label="-"
     sodipodi:nodetypes="ccc" />
  <path
     id="path3828-7-4"
     style="fill:none;stroke:#000000;stroke-width:0.43636;stroke-linejoin:bevel"
     d="m 211.63489,9.5862202 c 1.18329,0.8563818 -0.79622,2.1501888 -0.9945,2.2885438"
     inkscape:label=","
     sodipodi:nodetypes="cc" />
  <path
     style="fill:none;fill-opacity:1;stroke:#000000;stroke-width:0.55;stroke-linejoin:bevel;stroke-dasharray:none;stroke-opacity:1"
     d="m 135.5902,9.4349516 c 0.60055,-0.06083 0.85239,-0.469871 1.49444,-1.1026829 0.64204,-0.632812 0.31901,-1.1721724 0.40471,-2.2367384 -0.0175,-0.2841569 0.0656,-0.3902092 -0.18281,-0.5928631 -0.27308,-0.07365 -0.42511,0.1274604 -0.37036,0.392982 0.10085,0.2368838 0.21579,0.1848363 0.42359,0.2995538 0.30146,0.2051393 0.68291,0.055522 1.0168,0.00194 0.32665,-0.07662 0.66739,-0.098567 0.98703,-0.200303 0.27182,-0.057014 0.95257,0.4107041 0.58186,1.4478991 -0.37072,1.037195 0.80922,2.486846 2.01234,1.4802063"
     id="path4271"
     sodipodi:nodetypes="czcccccczc"
     inkscape:label="r" />
  <path
     id="path515"
     style="fill:none;stroke:#000000;stroke-width:0.43636;stroke-linejoin:bevel"
     inkscape:label=";"
     d="m 206.50973,8.1528663 c 0.98437,0.7627577 -0.0424,-0.4978281 0.51849,-0.2183797 m 0.0398,1.6485623 c 1.18329,0.8563821 -0.7669,2.1795071 -0.96518,2.3178621"
     sodipodi:nodetypes="cccc" />
  <path
     id="path515-9"
     style="fill:none;stroke:#000000;stroke-width:0.43636;stroke-linejoin:bevel"
     inkscape:label="."
     d="m 203.2677,10.010911 c 0.73456,0.838775 -0.11243,-0.2180914 0.59777,0.125196"
     sodipodi:nodetypes="cc" />
  <path
     id="path515-9-6"
     style="fill:none;stroke:#000000;stroke-width:0.311049;stroke-linejoin:bevel"
     inkscape:label="'"
     d="m 204.67075,2.7633358 c 0.15859,0.5204202 -0.10139,1.1366069 -0.43453,1.67772"
     sodipodi:nodetypes="cc" />
  <path
     id="path515-9-9"
     style="fill:none;stroke:#000000;stroke-width:0.43636;stroke-linejoin:bevel"
     inkscape:label=":"
     d="m 214.28159,9.5486585 c 0.65556,0.6218345 -0.2978,-0.4298189 0.41278,-0.086234 M 214.3289,7.372903 c 0.65556,0.6218349 -0.2978,-0.4298188 0.41278,-0.086234" />
</svg>
