<?xml version="1.0" encoding="UTF-8" standalone="no"?>
<!-- Created with Inkscape (http://www.inkscape.org/) -->

<svg
   width="148mm"
   height="105mm"
   viewBox="0 0 148 105"
   version="1.1"
   id="svg689"
   inkscape:version="1.2.1 (9c6d41e, 2022-07-14)"
   sodipodi:docname="revuedeplots.svg"
   xmlns:inkscape="http://www.inkscape.org/namespaces/inkscape"
   xmlns:sodipodi="http://sodipodi.sourceforge.net/DTD/sodipodi-0.dtd"
   xmlns="http://www.w3.org/2000/svg"
   xmlns:svg="http://www.w3.org/2000/svg">
  <sodipodi:namedview
     id="namedview691"
     pagecolor="#ffffff"
     bordercolor="#000000"
     borderopacity="0.25"
     inkscape:showpageshadow="2"
     inkscape:pageopacity="0.0"
     inkscape:pagecheckerboard="0"
     inkscape:deskcolor="#d1d1d1"
     inkscape:document-units="mm"
     showgrid="false"
     inkscape:zoom="1.2385733"
     inkscape:cx="280.96844"
     inkscape:cy="158.24659"
     inkscape:window-width="1147"
     inkscape:window-height="766"
     inkscape:window-x="481"
     inkscape:window-y="323"
     inkscape:window-maximized="0"
     inkscape:current-layer="text2366" />
  <defs
     id="defs686" />
  <g
     inkscape:label="Layer 1"
     inkscape:groupmode="layer"
     id="layer1">
    <g
       aria-label="Revue de 
Plots"
       id="text2366"
       style="font-size:29.956px;direction:rtl;fill:none;stroke:#8c1a1a;stroke-width:0.35;stroke-linejoin:bevel">
      <path
         d="m 30.528343,20.23316 q 0.08776,0 0.234031,0.234032 -0.05851,0.497316 -0.05851,0.819109 0.409555,0.453436 0.409555,0.585078 h 0.117016 l 0.234031,-0.175523 h 0.05851 q 0.117015,0.01463 0.117015,0.117015 v 0.05851 l -0.117015,0.175524 v 0.05851 q 1.111648,0.292539 2.749867,0.292539 2.018519,-0.234031 3.568976,-0.292539 1.608965,0 3.627485,1.930758 1.374933,0 5.499734,-2.92539 0,-0.14627 0.468062,-0.234032 0.351047,0 0.936125,1.755235 1.097022,1.740607 1.755235,1.930757 0,0.248659 0.760601,0.936125 0.234031,0 0.292539,0.351047 -0.555824,0.936125 -0.760601,1.404188 -0.292539,0.19015 -0.526571,0.819109 h 0.05851 q 0.190151,-0.117016 0.351047,-0.117016 0.117016,0.01463 0.117016,0.117016 v 0.05851 q -0.789856,0.424182 -0.877617,0.760601 0.117015,0.190151 0.117015,0.351047 v 0.05851 q -1.287172,1.082395 -2.92539,1.813742 h -0.05851 v 0.117016 l 0.52657,0.175523 q 0.775229,-0.643586 1.053141,-0.643586 0.117015,0.01463 0.117015,0.117016 v 0.05851 l -0.760601,0.585078 0.936125,0.05851 0.292539,-0.05851 q 0.01463,0.117016 0.117015,0.117016 h 0.643586 q 0.08776,0 0.234032,0.234031 l 0.117015,-0.05851 q 0.08776,0 0.175524,0.175523 l -0.117016,0.234032 q 0.409555,0 0.409555,4.79764 0.131642,1.257918 0.292539,1.930758 h 0.05851 l 0.292539,-0.234031 H 51.1816 q 0.117016,0.01463 0.117016,0.117015 v 0.05851 q 0,0.175524 -0.234031,0.175524 v 0.05851 h 0.175523 q 0.892244,-0.263285 2.632852,-1.170156 h 0.117015 q 0.292539,0.14627 0.292539,0.468063 h -0.05851 l 0.05851,0.117015 q 0,0.380301 -1.404187,2.281805 l -4.797641,3.510469 h -0.05851 q -0.234031,-0.277912 -0.702093,-0.468063 -1.374934,-2.091654 -2.866883,-3.627484 -0.351047,-0.248658 -0.351047,-0.468063 0,-3.554349 -0.52657,-5.850781 0,-0.994633 -0.351047,-0.994633 v 6.96243 q 0,0.409555 -0.760602,0.760602 0,1.111648 -0.585078,1.111648 -3.305691,1.960012 -4.505101,2.866883 -0.102389,0.05851 -0.234031,0.05851 h -0.05851 q -0.117016,0 -0.117016,-0.117015 l 0.175524,-0.234031 q -2.954645,-2.866883 -3.627485,-2.866883 -1.769861,-0.234031 -2.047773,-0.234031 -1.755235,0 -1.755235,0.52657 -0.52657,0.643586 -0.52657,1.111648 0.05851,0.321793 0.05851,0.526571 l -0.234031,0.175523 q 0.702093,1.667473 2.047773,2.749867 1.418815,0.702094 4.914656,0.702094 2.530463,0 4.622117,-0.760602 v -0.05851 q -1.345679,-0.248659 -1.345679,-1.228664 0,-0.628959 0.936125,-0.760602 h 0.468062 q 1.140903,0 1.34568,0.994633 v 0.117015 q 0,1.579711 -2.983899,2.106282 0,0.248658 -3.920023,0.292539 -2.647478,-0.117016 -3.451961,-0.409555 -1.462695,-0.438809 -2.047773,-1.462695 -1.34568,-1.491949 -1.34568,-2.983899 v -0.292539 q 0,-2.354939 1.696727,-3.803007 1.184783,-1.565084 3.861515,-2.223297 v -0.05851 q -0.819109,0 -2.457328,-1.579711 -0.468062,-0.731348 -0.468062,-1.462695 0,-1.418815 1.638218,-3.393453 1.097022,-0.643586 2.164789,-0.643586 h 0.292539 q 0.994633,0 0.994633,0.52657 0.936125,0.789855 0.936125,2.457328 v 0.117016 q 0,0.789855 -1.462695,1.462695 -0.102389,0.05851 -0.292539,0.05851 h -0.409555 q 0,0.07314 0.292539,0.292539 0.01463,-0.117016 0.117016,-0.117016 h 0.117016 q 0.131642,0.351047 0.994632,0.351047 h 0.117016 q 0.541197,0 1.462695,-0.936125 0.33642,-0.307166 0.877617,-1.696726 v -0.05851 h -0.05851 q -0.117016,0.409554 -0.234032,0.409554 h -0.05851 q -0.117016,0 -0.117016,-0.175523 0.175523,-0.307166 0.175523,-0.585078 v -1.34568 q 0,-2.0624 -2.691359,-2.866882 -0.555824,-0.05851 -1.053141,-0.05851 h -1.755234 q -1.550457,0 -2.164789,-0.409555 -0.745975,-0.248658 -1.34568,-1.404187 -0.234031,-1.00926 -0.234031,-1.228664 0,-2.457329 1.053141,-3.978532 z m -0.292539,1.638219 q -0.117016,0.219404 -0.117016,0.468063 v 0.468062 h 0.05851 q 0.07314,0 0.468062,-0.468062 -0.365673,-0.468063 -0.409554,-0.468063 z m 12.930226,2.39882 q 0,0.08776 0.234031,0.175524 l 3.627485,-2.457328 q -2.501209,1.652845 -3.861516,2.281804 z m 1.34568,0.468063 q -0.14627,0 -0.175524,-0.234031 0.424182,-0.702094 0.643586,-0.702094 v -0.05851 h -0.117015 q 0,0.04388 -1.170157,0.877617 v 0.05851 q 0.102389,0 1.228664,0.994633 h 0.234032 q 0.19015,0 1.287172,-0.702094 v -0.05851 h -0.05851 q -0.921498,0.526571 -1.287172,0.526571 l -0.117016,-0.175524 v -0.05851 q 0.07314,-0.07313 0.877617,-0.351047 1.799116,-0.950751 2.281805,-1.404187 -0.292539,-0.263285 -0.292539,-0.409555 -2.837629,1.989266 -2.866883,1.989266 h -0.117015 q -0.117016,0 -0.117016,-0.117016 v -0.05851 q 0.658213,-0.541197 2.925391,-2.047773 -0.05851,-0.351047 -0.175524,-0.351047 -2.179416,1.214037 -2.983898,2.281805 z M 30.87939,22.573473 q -0.01463,0.07314 -0.702094,0.643586 v 0.585078 h 0.05851 q 0.08776,0 1.345679,-0.877617 0,-0.04388 -0.702093,-0.351047 z m 0.994633,2.92539 q 0.01463,0.117016 0.117015,0.117016 h 0.05851 q 0.146269,0 2.223297,-1.287172 1.287172,-0.760601 2.632851,-1.404187 v -0.05851 h -0.05851 q -0.980005,0 -1.755234,0.702094 z m 0.760601,0.234032 q 0.424182,0.05851 0.468063,0.05851 2.106281,-1.404187 5.32421,-2.808375 l 0.05851,0.117016 v 0.117016 q -0.07314,0.08776 -3.685992,1.87225 -1.111648,0.702093 -1.111648,0.760601 h 0.819109 q 1.243291,-0.804482 4.680625,-2.515836 h 0.05851 q 0.08776,0 0.175523,0.175524 -0.05851,0.19015 -3.393453,1.755234 L 35.15046,25.84991 h 0.292539 q 1.638219,0.175524 1.813742,0.351047 1.579711,-0.965379 3.510469,-1.755234 l 0.117015,0.175523 q -0.01463,0.234031 -1.170156,0.585078 l -2.047773,1.111649 v 0.117015 q 0.585078,0.263286 0.585078,0.468063 0.117016,0 2.515836,-1.462695 0.424181,-0.175524 0.52657,-0.175524 l 0.05851,0.117016 v 0.05851 q 0,0.117015 -1.87225,1.111648 -0.585078,0.453436 -0.936125,0.585078 v 0.05851 q 0.117016,0.234031 0.292539,0.234031 2.793748,-1.565084 2.866883,-1.579711 -0.234031,-0.994633 -1.34568,-1.813742 -2.120908,1.00926 -3.627484,1.87225 h -0.05851 l -0.05851,-0.117016 v -0.05851 q 1.301799,-0.965379 2.69136,-1.521203 0.760601,-0.409555 0.760601,-0.468063 -1.082394,-0.877617 -2.340312,-0.877617 h -0.117016 q -2.969271,1.53583 -4.973164,2.866883 z m -2.340312,-1.579711 q 0.175523,0.292539 0.175523,0.409554 h 0.05851 q 1.623592,-1.214037 2.164789,-1.462695 v -0.05851 l -0.702094,-0.05851 q -1.023887,0.789856 -1.696726,1.170157 z m 0.877617,1.05314 q 0,0.07314 0.292539,0.234032 l 3.861515,-2.457329 q -1.126275,0 -2.106281,0.936125 z m 1.87225,-2.164789 q 0,0.234032 -0.936125,0.760602 -1.287172,0.921498 -1.34568,1.05314 l 0.05851,0.117016 q 0.394928,0 2.92539,-1.87225 -0.394927,0 -0.702093,-0.05851 z m -3.568977,0.936125 v 0.175524 q 0.102389,1.184783 0.81911,2.106281 1.301798,0.702094 2.164789,0.702094 0.731347,-0.05851 0.877617,-0.05851 0.175523,0 1.111648,0.05851 0.511944,-0.05851 0.643586,-0.05851 0.833736,0 2.223297,0.760601 1.462695,0.862991 1.462695,2.983899 v 0.819109 h 0.05851 q 0,-0.19015 0.05851,-1.696726 0,-1.082395 -1.404188,-2.69136 -1.067767,-0.52657 -2.457328,-0.52657 h -1.170156 q -3.027779,0 -3.978531,-1.638219 Q 29.53371,24.328707 29.53371,23.97766 Z m 15.738601,1.989266 v 0.05851 q 0.789856,1.038513 0.877618,1.05314 1.989265,-1.506576 3.100914,-2.164789 v -0.05851 l -0.468063,-0.52657 q -1.097021,0.687467 -2.808375,1.930758 h -0.234031 q -0.117016,0 -0.117016,-0.117016 v -0.05851 q 2.910764,-1.945384 2.925391,-2.047773 h -0.05851 l -3.042406,1.930758 z m -3.217929,-1.287172 v 0.05851 q 0.585078,1.243291 0.585078,1.930758 h 0.05851 v -1.170157 q -0.234031,-0.263285 -0.234031,-0.292539 v -0.117015 q 0,-0.117016 0.234031,-0.117016 v -0.117016 l -0.234031,0.05851 q -0.05851,0 -0.351047,-0.234031 z m 4.27107,2.691359 q 0,0.08776 0.409555,0.409555 0.04388,0 3.100914,-2.047773 h 0.117015 q 0.117016,0.01463 0.117016,0.117015 v 0.05851 q -0.468062,0.409555 -3.276437,2.223297 l -0.05851,0.117016 q 0.05851,0.321792 0.05851,0.52657 v 0.117015 l -0.05851,0.117016 h 0.05851 q 0.628959,-0.453435 2.691359,-1.579711 0,-0.08776 0.877617,-1.462695 l -0.819109,-0.877617 q -1.082395,0.614332 -3.21793,2.281804 z m -2.92539,-2.106281 v 0.351047 q 1.901503,1.462695 2.515835,3.334945 h 0.117016 q 0,-0.131642 0.05851,-0.234031 0,-0.716721 -0.877617,-1.579711 -0.555825,-0.892244 -1.813742,-1.87225 z m 0,0.819109 v 0.81911 q 0,0.234031 -0.117016,2.808375 v 0.819109 q 1.272545,-0.204777 2.39882,-1.228664 -0.146269,-1.097021 -1.87225,-2.983898 -0.321793,-0.234032 -0.409554,-0.234032 z M 38.89496,27.72216 v 0.05851 q 0.409555,0.716721 0.409555,0.760602 0.482689,-0.204778 2.515835,-1.34568 0.01463,0.117016 0.117016,0.117016 v -0.05851 q 0,-0.994633 -0.351047,-0.994633 -2.340312,1.316426 -2.691359,1.462695 z m 0.52657,1.111649 q 0.117016,0.219404 0.117016,0.468062 v 0.117016 h 0.05851 q 2.150162,-1.243291 2.340312,-1.462696 v -0.468062 h -0.05851 q -1.331052,0.833736 -2.457328,1.34568 z m 6.201828,1.521203 q 3.320318,-1.87225 3.393453,-1.87225 0,-0.204778 0.175524,-0.526571 h -0.05851 q -1.784488,0.877618 -3.510469,2.281805 z m -6.026304,-0.468063 v 0.585078 q 2.325685,-1.506576 2.340312,-1.579711 v -0.468062 h -0.05851 q -1.740607,0.980006 -2.281804,1.462695 z m 5.733765,0.877617 h -0.117016 q -0.117015,0 -0.117015,-0.175523 -0.497317,0.307166 -1.87225,0.702094 v 0.05851 q 0.585078,0 1.404187,0.52657 h 0.05851 l 0.760602,-0.52657 -0.05851,-0.234032 q 0,-0.321793 1.34568,-0.760601 1.608964,-0.86299 2.106281,-1.34568 v -0.05851 q -2.340313,1.301799 -3.510469,1.813742 z m -5.792273,0.175524 v 0.468062 l -0.05851,0.292539 h 0.05851 q 2.281804,-1.623591 2.281804,-1.755234 0,-0.248658 0.05851,-0.468062 l -0.117015,-0.05851 q -2.20867,1.462695 -2.223297,1.521203 z m -7.371984,1.170156 v 0.351047 l 0.117015,-0.05851 h 0.05851 q 0.05851,0 0.05851,0.05851 1.565084,-0.86299 2.632851,-1.696727 h 0.117016 q 0.117016,0.01463 0.117016,0.117016 v 0.05851 q -1.477323,1.214037 -3.100914,1.989265 v 0.117016 q 0.08776,0.234031 0.175523,0.234031 l 2.808375,-1.87225 h 0.117016 q 0.117015,0.01463 0.117015,0.117016 v 0.05851 q 0,0.05851 -3.042406,2.106281 0.438809,0.994633 0.702094,0.994633 0.936125,-0.48269 0.936125,-1.111649 0.102388,-0.234031 0.409554,-0.234031 h 0.585078 q 0.804483,0 1.228665,-0.936125 0,-1.667473 -1.170157,-2.223297 -1.491949,0.965379 -2.281804,1.696727 -0.117016,0 -0.117016,-0.117016 0,-0.380301 1.87225,-1.638219 -0.848363,0 -1.813742,0.760602 -0.52657,0.819109 -0.52657,1.228664 z m 10.297374,-1.638219 v 0.292539 h 0.05851 v -0.292539 z m -3.334945,2.340313 q 0.848363,-0.614332 2.515836,-1.579711 0,-0.33642 0.117016,-0.643586 h -0.05851 q -2.515836,1.550457 -2.515836,1.989266 z m 5.61675,-0.585078 q 0.117016,0.19015 0.117016,0.292539 l -0.05851,0.117015 q 0.05851,0.102389 0.05851,0.234032 h 0.05851 q 1.360307,-0.936125 1.462696,-0.936125 v -0.117016 q -0.541198,-0.234031 -0.643586,-0.234031 -0.804483,0.424181 -0.994633,0.643586 z m -8.249601,3.042406 h -0.526571 q -0.292539,0 -0.994633,0.585078 h 0.117016 q 0.321793,0 0.819109,0.05851 2.091655,0 2.866883,-0.877617 1.608965,-0.980006 1.989266,-1.813743 0.05851,0 0.05851,-0.05851 h -0.05851 q -1.082395,0.672839 -2.457328,1.87225 h -0.117016 q -0.117016,0 -0.117016,-0.117016 v -0.05851 q 1.550457,-1.448068 3.042407,-2.281804 0.175523,-0.33642 0.351047,-0.81911 h -0.05851 q -2.515836,1.462695 -2.515836,1.638219 -1.34568,1.87225 -2.39882,1.87225 z m 5.616749,-3.159422 v 0.05851 h 0.351047 V 31.99323 h -0.234031 q -0.117016,0.01463 -0.117016,0.117016 z m 1.053141,-0.05851 0.05851,0.292539 q 0,0.05851 -0.05851,0.05851 0,0.117016 0.643586,0.585078 0.175523,1.491949 0.52657,3.568977 0,0.760601 0.05851,2.808375 0.05851,0.102388 0.05851,0.234031 -0.05851,0 -0.05851,0.05851 h 0.05851 q 0.263285,-0.234032 0.292539,-0.234032 -0.160896,-0.731347 -0.234031,-4.79764 -0.33642,-2.106281 -0.643586,-2.106281 -0.05851,0 -0.05851,-0.117016 v -0.175523 q -0.292539,-0.175524 -0.585078,-0.175524 z m 3.510469,0 q -1.638219,1.082395 -1.696727,1.228664 l 0.117016,0.526571 2.281804,-1.638219 q -0.511943,-0.117016 -0.702093,-0.117016 z m -1.521203,2.164789 q 0.05851,0.497317 0.05851,0.81911 h 0.05851 q 2.559717,-1.886877 3.7445,-2.632852 h 0.05851 v -0.05851 q -0.789855,-0.05851 -1.111648,-0.05851 -0.628959,0.14627 -2.808375,1.930758 z M 31.40596,32.344277 q -0.175523,0.585078 -0.175523,1.34568 v 0.175523 q 0,0.848364 1.755234,1.989266 l 0.760601,0.351047 h 0.05851 v -0.05851 q -2.340312,-1.214037 -2.340312,-3.276437 v -0.526571 z m 3.21793,0.05851 h 0.05851 q 0.08776,0 0.175524,0.175524 -1.711354,1.57971 -2.164789,1.57971 -0.117016,-0.146269 -0.117016,-0.234031 0.05851,-0.234031 0.234031,-0.234031 0.117016,0.05851 0.175524,0.05851 z m 7.371984,0.05851 q -0.628959,1.623592 -2.39882,3.042406 -0.585079,0.628959 -1.755235,0.877617 h -0.05851 v 0.05851 q 0.877618,0.117016 2.983899,1.228664 0.86299,1.155529 1.638219,1.638219 h 0.117015 V 34.68459 l -0.05851,-0.351047 q 0.05851,-0.102389 0.05851,-0.292539 v -0.117016 l -0.05851,-0.585078 h 0.05851 l -0.05851,-0.117016 v -0.702093 q -0.234031,0 -0.234031,-0.05851 l -0.117016,0.05851 z m 3.276437,2.92539 q 0.05851,1.725981 0.05851,2.223297 -0.05851,0 -0.05851,0.05851 h 0.05851 q 2.311059,-2.077027 4.037039,-3.276437 h 0.117016 l 0.117015,0.05851 v -0.994633 q -1.111648,0.599705 -4.037039,2.983898 h -0.05851 q -0.117016,0 -0.117016,-0.117016 v -0.05851 q 2.471955,-2.194043 4.212562,-3.21793 l -0.175523,-0.52657 h -0.05851 q -1.550457,0.994633 -3.510469,2.515836 -0.424181,0.351046 -0.585078,0.351046 z M 33.27821,34.977129 q 0.351047,0.292539 0.409555,0.292539 0.585078,-0.307166 0.702093,-0.52657 l -0.351046,-0.351047 q -0.687467,0.424181 -0.760602,0.585078 z m 12.052609,3.042406 q 0,1.462695 0.292539,1.462695 0.263285,0 2.281805,-1.930757 0.263285,-0.263286 1.462695,-1.170157 h 0.117016 q 0.117015,0.01463 0.117015,0.117016 v 0.05851 q -1.53583,1.243291 -3.7445,3.276437 0.02925,0 0.409555,0.351047 2.325686,-2.267178 3.451961,-3.159422 0,-0.146269 -0.117016,-1.521203 -1.214037,0.541197 -3.7445,2.925391 h -0.05851 q -0.117016,0 -0.117016,-0.175524 1.711353,-1.886877 3.627484,-2.983898 l 0.292539,-0.117016 v -0.52657 q -1.214037,0.804482 -4.27107,3.393453 z M 34.62389,34.977129 q -0.453436,0.468062 -0.643586,0.468062 v 0.05851 q 0.570451,0.234031 0.643586,0.234031 l 0.702093,-0.585078 q -0.146269,0 -0.702093,-0.175523 z m 0.819109,1.989265 q -0.67284,0.833737 -2.632852,2.223297 -0.848363,0.585078 -0.936124,0.585078 v 0.117016 l 0.117015,-0.05851 h 0.877617 q 0.789856,-0.438808 3.451961,-2.574344 h 0.05851 q 0.117016,0.01463 0.117016,0.117016 v 0.05851 q -1.00926,0.950752 -2.983899,2.39882 0.14627,0 0.643586,0.175524 2.720613,-2.252551 3.21793,-2.281805 h 0.05851 q 0.117015,0.01463 0.117015,0.117016 v 0.117015 l -0.760601,0.409555 q -1.667473,1.19941 -2.281805,1.755234 v 0.05851 q 0.175523,0 0.702094,0.175523 3.100914,-2.267177 3.685992,-2.457328 l 0.117015,0.175524 q -3.422706,2.39882 -3.568976,2.39882 l 0.994633,0.702094 q 0.01463,0.102388 0.936125,0.877617 2.720613,-2.486582 3.217929,-2.515836 0.117016,0.01463 0.117016,0.117016 0,0.102388 -1.989266,1.579711 l -1.170156,1.05314 v 0.05851 q 0.102389,0 0.292539,0.175523 3.057033,-2.691359 3.861516,-2.691359 l 0.05851,0.117016 v 0.05851 q -1.097022,0.614332 -1.696727,1.05314 l -0.585078,0.52657 q 1.491949,-0.965378 2.632851,-1.521203 v -0.117015 q -1.082394,-0.67284 -1.228664,-1.053141 -0.541197,0 -3.568976,2.515836 h -0.05851 q -0.117015,0 -0.117015,-0.175523 0.819109,-0.906871 2.691359,-2.164789 l 0.760601,-0.468063 q -0.07313,-0.248658 -0.292539,-0.351047 -0.277912,0 -2.808375,2.047774 -0.760601,0.702093 -0.994632,0.702093 -0.117016,0 -0.117016,-0.117015 V 40.82791 L 39.9481,37.961027 q -0.175523,0 -1.638218,-0.643586 -0.965379,-0.351047 -2.866883,-0.351047 z m -4.563609,3.042407 h 0.05851 q 0.409554,0 3.978531,-2.866883 v -0.05851 h -0.05851 q -0.892244,0 -1.930758,1.170156 z m -1.696727,1.170156 v 0.05851 h 0.05851 q 0.716721,-0.906871 3.276437,-3.100914 0.131643,0 0.81911,-0.702094 h -0.05851 q -1.155529,0.292539 -2.39882,1.638219 -1.638219,1.418814 -1.638219,1.87225 z m 17.37682,-0.81911 q 0,0.07314 0.292539,0.29254 1.6821,-1.623592 2.983899,-2.632852 -0.05851,-0.307166 -0.05851,-0.585078 -0.86299,0.570451 -3.21793,2.92539 z m 3.21793,-1.930757 q -1.711354,1.448068 -2.69136,2.457328 0,0.07314 0.585079,0.585078 0.731347,-0.67284 2.515835,-2.106281 -0.117015,0 -0.351046,-0.936125 z m 1.05314,2.106281 v 0.05851 h 0.05851 Q 52.205487,39.6285 52.585788,39.48223 v -0.05851 h -0.05851 q -0.965379,0.219405 -1.696727,1.111649 z m -0.52657,-0.877617 q -1.550457,1.257918 -2.39882,2.047773 0,0.08776 0.234031,0.234031 h 0.175523 q 0.394928,0 2.69136,-2.047773 v -0.05851 q -0.14627,0 -0.702094,-0.175523 z m -5.675258,0.292539 1.521203,1.696726 q 1.331053,2.106282 1.755235,2.106282 0.01463,0.117015 0.117015,0.117015 0.05851,0 0.351047,-0.585078 -0.102388,0 -1.696726,-1.813742 -1.755235,-1.477322 -1.755235,-1.755234 -0.292539,0.19015 -0.292539,0.234031 z m 3.978532,3.568976 q 2.705986,-1.886877 4.095546,-2.983898 0,-0.05851 0.351047,-0.52657 h -0.05851 q -1.960011,1.184783 -4.388085,3.393453 z M 30.645358,40.886418 v 0.05851 h 0.526571 q 3.086287,0 3.978531,1.170156 2.194043,1.886877 2.223297,2.047773 0.292539,-0.321793 0.292539,-0.877617 L 37.54928,43.22673 q -0.102388,0.05851 -0.234031,0.05851 l -0.117016,-0.175523 0.05851,-0.117016 q -2.106281,-2.223297 -3.217929,-2.223297 0,-0.131642 -0.702094,-0.234031 h -0.351047 q -1.755234,0 -2.340313,0.351047 z m 7.254969,2.983898 q 3.042406,-1.989265 4.212562,-2.574344 V 40.82791 q -2.998525,1.769861 -3.627484,2.281805 0,0.321793 -0.468062,0.409554 z m 10.531406,-1.579711 v 0.05851 q 0.01463,0.117016 0.117016,0.117016 l 1.170156,-0.994633 v -0.05851 q -1.140902,0.877617 -1.287172,0.877617 z m -8.425125,2.69136 q 0,0.52657 0.760602,0.52657 h 0.468062 V 45.09898 q -0.08776,0 -0.234031,-0.117015 z"
         style="font-family:'Sketch Gothic School';-inkscape-font-specification:'Sketch Gothic School'"
         id="path9116" />
      <path
         d="m 59.943144,29.579783 h 0.234031 q 1.170156,1.126276 1.638219,2.515836 0.01463,0.33642 0.175523,0.643586 0.234032,0 0.234032,0.117016 0,0.08776 -0.175524,0.175523 l 0.409555,1.111649 q -0.48269,0.511943 -3.042406,2.281804 -0.643586,0.687467 -0.643586,0.936125 v 0.117016 q 0.511943,2.047773 1.87225,2.047773 h 0.292539 q 0.05851,0 0.468062,-0.117015 h 0.05851 l 0.234031,0.175523 q -0.102388,1.638219 -0.468062,1.638219 -1.111649,0.585078 -2.39882,1.638218 -0.14627,0.292539 -0.468063,0.292539 h -0.117016 q -0.117015,0 -0.117015,-0.117015 v -0.117016 l 0.05851,-0.117015 q -0.81911,-0.48269 -2.925391,-2.457329 -0.08776,0 -0.234031,-0.117015 0.117015,-0.775229 0.117015,-2.223297 v -0.175523 q -0.117015,-2.69136 -0.117015,-2.983899 v -0.994633 q 0,-0.994632 2.749867,-2.691359 0.716721,-0.775228 2.164789,-1.579711 z m -4.037039,4.154055 q 2.252551,-1.842996 3.451961,-2.983899 0.599705,-0.409554 0.702094,-0.409554 v -0.05851 h -0.117016 q -1.813742,0.994633 -1.813742,1.521203 -1.989266,1.462695 -2.223297,1.87225 z m 2.866883,-2.047774 h 0.05851 l 1.462695,-1.111648 v -0.05851 h -0.05851 q -0.555824,0.321793 -1.462695,1.170156 z m 1.696726,-0.877617 q -1.345679,1.00926 -1.345679,1.053141 v 0.05851 q 0.117015,0 0.52657,0.409554 0,-0.248658 1.228664,-0.819109 v -0.05851 l -0.05851,-0.117015 q -0.950752,0.585078 -1.170156,0.585078 -0.117016,0 -0.117016,-0.117016 0.07314,-0.146269 1.111649,-0.702094 v -0.117015 q 0,-0.08776 -0.175524,-0.175524 z m -0.760601,1.579711 v 0.05851 q 0,0.08776 0.175523,0.175523 h 0.05851 Q 61.1133,32.183381 61.1133,31.920096 61.054792,31.80308 61.054792,31.744572 h -0.05851 q -0.980006,0.643586 -1.287172,0.643586 z m -3.7445,1.755235 v 0.234031 l 0.05851,0.292539 q 0.614332,-0.745975 2.340312,-2.281805 l 0.05851,-0.292539 h -0.05851 q -1.433441,1.053141 -2.39882,2.047774 z m 4.095547,-1.228665 q 0.351046,0.658213 0.351046,0.760602 1.053141,-0.628959 1.053141,-0.702094 h -0.05851 q -0.52657,0.351047 -0.936125,0.351047 l -0.175523,-0.234031 q 0.01463,-0.117016 0.117015,-0.117016 h 0.117016 q 0.05851,0 0.05851,0.05851 0.05851,0 0.760601,-0.351047 -0.07313,-0.351047 -0.175523,-0.351047 -0.950752,0.585078 -1.111648,0.585078 z m -1.111649,-0.409554 -0.05851,0.117015 v 1.813743 q 0,0.848363 -0.117015,1.755234 v 0.05851 h 0.05851 q 0,-0.117016 1.228664,-1.404188 0,-1.287172 -1.111649,-2.340312 z m -2.632851,2.281804 v 0.05851 q 1.565084,-1.023886 1.989265,-1.521203 v -0.409555 h -0.05851 q -1.155529,0.921498 -1.930757,1.87225 z m 4.212562,-0.936125 q 0,-0.05851 -0.05851,-0.05851 v 0.05851 q 0.175524,0.789856 0.175524,0.994633 1.111648,-0.760601 1.111648,-0.936125 -0.175523,-0.321793 -0.175523,-0.52657 -1.00926,0.468062 -1.053141,0.468062 z m -4.446594,1.521204 v 0.292539 h 0.05851 q 1.799115,-1.34568 2.106281,-1.34568 0,0.05851 0.05851,0.05851 v -0.585078 q -1.974638,1.448068 -2.223297,1.579711 z m -0.760601,-1.228664 v 0.643585 q 0,0.321793 0.117016,2.983899 h 0.05851 v -1.287172 q 0,-0.05851 -0.05851,-0.175523 0.05851,-0.102389 0.05851,-0.234032 v -0.175523 q 0,-0.48269 -0.117015,-1.755234 z m 0.760601,1.989265 v 0.468063 q 1.433442,-1.228664 1.696727,-1.228664 l 0.05851,0.117015 v 0.05851 q -1.374934,1.067768 -1.755235,1.521203 v 0.117016 h 0.05851 q 1.755235,-1.521203 1.989266,-1.521203 0.01463,0.117015 0.117015,0.117015 0.05851,-0.877617 0.05851,-1.228664 -1.579711,0.936125 -2.223297,1.579711 z m -0.05851,1.813742 q 1.755234,-1.404187 2.106281,-1.404187 h 0.05851 v -0.585078 q -2.164789,1.491949 -2.164789,1.930757 z m 0,0.468063 v 0.351047 h 0.05851 q 1.243291,-1.126276 1.930758,-1.404188 0.117016,0.05851 0.175524,0.05851 v -0.643586 h -0.05851 q -1.067768,0.643586 -2.106281,1.638219 z m 0.05851,0.819109 v 0.05851 q 0.01463,0.117016 0.117016,0.117016 0.906871,-0.906872 2.047773,-1.579711 -0.05851,-0.102389 -0.05851,-0.292539 -1.19941,0.702093 -2.106282,1.696726 z m 0.351047,0.409555 q 0,0.08776 0.175524,0.175523 1.521203,-1.287172 1.813742,-1.287172 l 0.05851,0.117016 v 0.117016 q -0.745975,0.438808 -1.638219,1.287171 l 0.175523,0.234032 q 0.570452,-0.351047 1.521204,-1.170157 h 0.05851 q 0.117016,0.01463 0.117016,0.117016 v 0.05851 l -1.404188,1.228664 0.175524,0.117016 h 0.05851 q 1.331052,-1.287172 1.462695,-1.287172 v -0.05851 q -0.585078,-0.702094 -0.643586,-1.111649 -0.555824,0.05851 -1.930758,1.462696 z m -0.994632,-0.81911 q 0,0.204778 -0.05851,0.526571 v 0.05851 h 0.05851 l 0.05851,-0.29254 v -0.292539 z m 2.340312,2.047774 v 0.05851 q 1.155529,-0.936125 1.638219,-1.170157 L 59.24105,39.526111 q -0.248658,0.04388 -1.462695,1.34568 z m -2.223297,-1.170156 -0.05851,0.409554 q 2.457328,2.398821 2.866883,2.398821 v -0.05851 l 0.117016,-0.409555 q -0.409555,0 -2.866883,-2.340312 z m 2.515836,1.345679 v 0.117016 h 0.05851 q 0.175523,0 1.755234,-1.111649 h 0.05851 v -0.05851 q -0.05851,0 -0.175523,-0.05851 -0.263286,0 -1.696727,1.111648 z m 2.106281,-0.994633 q 0,0.234032 -1.111648,0.877618 -0.424182,0.409554 -0.585078,0.409554 v 0.117016 l 0.234031,0.05851 q 0.05851,-0.14627 1.696726,-1.404188 -0.131642,0 -0.234031,-0.05851 z m -1.579711,2.632852 q 1.477323,-1.243291 2.632852,-1.755234 l 0.117015,-0.81911 q -2.545089,1.930758 -2.691359,2.340313 z"
         style="font-family:'Sketch Gothic School';-inkscape-font-specification:'Sketch Gothic School'"
         id="path9118" />
      <path
         d="m 66.510648,30.26725 q 0.643586,0.131643 0.643586,0.643586 0.585078,1.404187 0.585078,1.87225 0,1.579711 -0.05851,4.622117 0.48269,1.989266 0.994633,1.989266 0,0.08776 0.234031,0.234031 v -2.223297 q -0.117015,-4.329578 -0.52657,-4.329578 L 67.79782,32.432039 q 0,-0.497316 1.287172,-0.760602 l 1.989265,-0.877617 q 0.643586,-0.52657 0.936125,-0.52657 h 0.351047 q 0.555824,0 0.81911,3.627484 v 2.340313 q 0,1.579711 -0.468063,1.579711 -2.954644,2.457328 -4.856148,4.505101 -0.190151,0.33642 -0.409555,0.468063 h -0.117016 q -0.833736,0 -2.574343,-2.457328 0,-0.05851 -0.936125,-0.936125 v -1.170157 q 0.234031,-1.272545 0.292539,-2.691359 0,-2.281805 -0.351047,-2.281805 l -0.351047,-0.05851 -0.175523,0.117015 h -0.05851 q -0.117016,0 -0.175524,-0.702094 -0.117015,0 -0.117015,-0.117015 v -0.234031 q 0.219404,-0.248659 3.627484,-1.989266 z m 4.797641,1.053141 h 0.05851 l 0.351047,-0.234032 h 0.05851 q 0.117016,0.01463 0.117016,0.117016 -0.131643,0.219404 -1.930758,1.404187 0.05851,0.102389 0.05851,0.234032 h 0.117015 l 2.106282,-1.579711 q 0,-0.409555 -0.234032,-0.409555 -0.482689,0.234031 -0.702093,0.468063 z m -5.207196,-0.117016 q 0.05851,0.117016 0.05851,0.175523 -0.424181,0.248659 -1.404187,1.053141 l 0.175523,0.117016 1.521203,-1.287172 h 0.05851 q 0.117016,0.01463 0.117016,0.117015 -0.526571,0.599705 -1.638219,1.462696 0.05851,0.117015 0.05851,0.175523 l 1.696726,-1.404187 q -0.117015,-0.643586 -0.292539,-0.643586 -0.351047,0.19015 -0.351047,0.234031 z m -1.755234,0.819109 q 0,0.08776 0.175524,0.175524 h 0.05851 q 0.833737,-0.643586 0.936125,-0.643586 v -0.05851 h -0.05851 q -1.009259,0.52657 -1.111648,0.52657 z m 5.324211,0.05851 q 0.117016,0.190151 0.117016,0.292539 h 0.05851 l 1.228664,-0.819109 v -0.05851 h -0.175523 q -0.658213,0.234031 -1.228664,0.585078 z m 0.52657,0.994633 v 0.52657 h 0.05851 l 1.755234,-1.345679 q 0.117016,0.01463 0.117016,0.117015 v 0.05851 q 0,0.08776 -1.930758,1.579711 v 0.351047 l 0.05851,0.117015 q 1.6821,-1.404187 1.930758,-1.404187 l 0.05851,0.117016 q -1.87225,1.638218 -2.106282,1.638218 v 0.409555 h 0.05851 q 1.097022,-0.921498 1.930758,-1.521203 0.117016,0.01463 0.117016,0.117015 v 0.05851 l -1.930758,1.638219 q 0.117015,0 0.117015,0.234031 1.696727,-1.345679 1.930758,-1.345679 l 0.05851,0.117015 v 0.05851 q -0.33642,0.380301 -1.579711,1.170156 0,0.04388 -0.760601,0.585078 v 0.351047 l 0.234031,-0.175523 0.175523,0.117015 q 0.833737,-0.71672 1.813742,-1.345679 h 0.117016 q 0.117016,0.01463 0.117016,0.117015 -2.106282,1.638219 -2.398821,1.638219 0,-0.05851 -0.05851,-0.05851 v 1.34568 q 1.287171,-1.214037 2.281804,-1.930758 h 0.05851 q 0.117016,0.01463 0.117016,0.117016 v 0.05851 l -0.81911,0.643586 0.292539,-0.175524 h 0.05851 q 0.117016,0.01463 0.117016,0.117016 -1.140903,0.950752 -2.106281,1.930758 v 0.117015 q 2.018519,-1.491949 2.457328,-2.106281 0.05851,-0.380301 0.05851,-0.760602 v -0.175523 h -0.05851 q -1.053141,0.599705 -2.164789,1.638219 h -0.05851 q -0.117016,0 -0.117016,-0.117016 0.775229,-0.877617 2.39882,-1.930758 V 33.953242 Q 72.463818,31.61293 72.302921,31.61293 Z m -5.090179,0.234031 q 0.05851,0.585078 0.05851,0.877617 v 0.175524 h 0.05851 q 0.731348,-0.86299 1.87225,-1.930758 0,-0.424182 -0.292539,-0.468062 -0.380301,0.204777 -1.696726,1.345679 z m 3.217929,-0.819109 v 0.05851 q 0.702094,0.555824 0.702094,1.930757 0.175523,1.023887 0.175523,2.866883 v 2.164789 l -0.05851,0.409555 0.234031,0.117015 q 0.117015,-0.219404 0.117015,-0.468062 v -3.042406 q 0.117016,-2.574344 0.117016,-2.808375 v -0.351047 q -0.321793,-0.994633 -0.585078,-1.111648 -0.453436,0.234031 -0.702094,0.234031 z m -4.973164,0.117015 v 0.29254 h 0.117016 q 0.877617,0 0.877617,1.111648 0.05851,1.301799 0.05851,2.106281 0,0.48269 -0.292539,2.164789 v 0.994633 q 0.936125,0.833736 1.813742,2.164789 1.067768,1.053141 1.462695,1.053141 l 0.117016,-0.175524 q -0.190151,0 -0.234031,-0.351047 h -0.05851 q -0.219404,0.175524 -0.351047,0.175524 l -0.117016,-0.175524 q 0,-0.117015 0.175524,-0.117015 v -0.05851 q -0.950752,-0.511944 -1.87225,-1.813742 -0.628959,-0.526571 -0.643586,-0.81911 l 0.234031,-2.39882 q 0,-0.277912 -0.05851,-1.34568 l 0.05851,-0.702093 q 0,-2.223297 -0.877617,-2.223297 z m 1.813742,2.106282 v 0.468062 h 0.05851 q 1.638219,-1.755234 1.930758,-1.755234 v -0.643586 q -0.175523,0.02925 -1.930758,1.930758 z m 0,0.760601 q 0,0.292539 0.05851,0.877617 h 0.05851 q 0,-0.102388 1.813742,-1.930757 0.05851,-0.102389 0.05851,-0.234032 v -0.409554 q -0.175523,0 -1.87225,1.696726 z m 0,1.755235 h 0.05851 q 1.477322,-1.550457 1.87225,-1.638219 0.05851,-0.102389 0.05851,-0.234031 v -0.585079 q -1.930758,1.901504 -1.930758,2.106282 0,0.263285 -0.05851,0.351047 z m 4.914657,-1.579711 v 0.05851 q 0.08776,0 0.175523,-0.175523 h -0.05851 q -0.117015,0.01463 -0.117015,0.117016 z m -4.914657,1.87225 v 0.05851 q -0.175523,1.257918 -0.175523,1.579711 l 0.234031,0.234032 q 0,-0.248659 1.87225,-1.989266 v -0.52657 q -0.19015,0 -1.696726,1.696726 h -0.05851 q -0.117016,0 -0.117016,-0.117015 v -0.05851 q 1.53583,-1.813742 1.87225,-1.813742 V 35.884 h -0.05851 q -0.541197,0.438808 -1.755234,1.638219 z m 1.930758,0.234031 q -1.667472,1.696726 -1.755234,1.696726 0.204777,0.351047 0.292539,0.351047 0.965379,-1.097021 1.638219,-1.579711 -0.02925,-0.468062 -0.175524,-0.468062 z m -1.287172,2.223297 q 0.01463,0.117015 0.117016,0.117015 1.082394,-1.140902 1.404187,-1.287172 0.08776,0 0.175524,0.175524 -0.511943,0.365674 -1.404188,1.34568 0.117016,0.146269 0.117016,0.234031 1.082395,-1.053141 1.170156,-1.053141 h 0.05851 q 0.117016,0.01463 0.117016,0.117016 v 0.05851 q -0.614332,0.453435 -1.111649,1.05314 v 0.05851 q 0.08776,0 0.351047,0.175523 0,-0.219404 1.228664,-1.228664 v -0.05851 l -0.702094,-1.111649 h -0.05851 q -0.14627,0 -1.462696,1.404188 z m 2.457328,-0.117016 q -0.906871,0.702094 -1.287171,1.287172 0.248658,0.234031 0.468062,0.234031 0.01463,-0.131642 0.643586,-0.760601 h 0.05851 q 0.117015,0.01463 0.117015,0.117015 -0.19015,0.292539 -0.643585,0.81911 l 0.117015,0.05851 q 0.48269,-0.585078 1.111649,-1.228664 z"
         style="font-family:'Sketch Gothic School';-inkscape-font-specification:'Sketch Gothic School'"
         id="path9120" />
      <path
         d="m 83.317017,29.960084 h 0.351047 q 0.19015,0 0.292539,0.585078 0.351047,0.468063 0.351047,0.643586 -0.117016,2.866883 -0.234032,3.451961 0.277913,1.916131 0.409555,4.388086 0.175524,0 0.175524,0.117015 l -0.117016,0.175524 v 0.175523 q 0.321793,0.234031 1.111648,0.526571 v 0.234031 q -2.047773,1.916131 -3.100914,2.223297 h -0.175523 q -0.614332,0 -0.877617,-0.643586 -0.585078,-0.936125 -0.585078,-1.053141 -0.658213,0.351047 -1.813743,1.170156 -1.418814,0.702094 -1.696726,0.702094 h -0.292539 q -0.658213,-0.541197 -1.170156,-1.404187 -0.702094,-0.789856 -0.702094,-2.047774 v -2.281804 q 0,-0.862991 0.05851,-1.638219 -0.05851,-0.321793 -0.05851,-1.170156 0,-0.102389 0.05851,-0.702094 -0.277912,-0.307166 -0.702094,-0.409555 -0.234031,0.117016 -0.409555,0.117016 l -0.05851,-0.117016 v -0.292539 q 0,-0.892244 0.936125,-1.228664 2.003892,-1.111648 2.281804,-1.111648 0.321793,0 1.521203,1.228664 0.05851,0.394927 0.05851,0.643586 v 1.111648 l 0.234031,4.095547 q -0.05851,0.307166 -0.05851,0.702094 v 0.117015 q 0,0.921498 0.234032,1.111649 0.482689,0 1.05314,-0.234032 0,-0.04388 -0.05851,-0.351047 0,-0.555824 0.05851,-2.281804 0,-0.175524 -0.117015,-1.579711 h 0.05851 l -0.05851,-0.117016 v -1.228664 q 0,-0.67284 -0.292539,-0.760601 h -0.05851 l -0.292539,0.05851 -0.05851,-0.117016 q 0,-1.184783 2.457328,-2.164789 0.511943,-0.365674 1.287172,-0.643586 z m -2.106281,2.223297 0.05851,0.351047 q 2.106282,-1.550457 2.106282,-1.87225 h -0.05851 q -0.438809,0 -2.106281,1.521203 z m 2.281804,-1.228664 q 0,0.07314 -2.164789,1.87225 0,0.131642 0.05851,0.234031 -0.05851,0.117016 -0.05851,0.175523 h 0.05851 q 1.053141,-1.05314 2.223297,-1.87225 l 0.117016,0.05851 v -0.175523 q -0.14627,-0.292539 -0.234032,-0.292539 z m -8.01557,1.111648 0.292539,0.05851 q 1.243291,-0.877617 1.462696,-0.877617 h 0.117015 v 0.175523 q -0.263285,0 -1.404187,0.877617 l 0.175523,0.117016 q 1.19941,-1.053141 1.404188,-1.053141 0,-0.07313 -0.351047,-0.292539 -1.696727,0.936125 -1.696727,0.994633 z m 5.324211,-0.234031 v 0.05851 l 0.292539,0.05851 q 0.702094,-0.585079 0.819109,-0.585079 v -0.05851 h -0.05851 q -0.980006,0.52657 -1.053141,0.52657 z m -3.21793,-0.468063 q 0,0.248659 -1.111648,0.994633 0,0.04388 -0.292539,0.234032 0.05851,0.102388 0.05851,0.234031 0.394927,-0.33642 1.638218,-1.228664 -0.02925,0 -0.292539,-0.234032 z m 3.7445,2.106282 q 0.05851,0.219404 0.05851,0.468062 L 81.561783,33.8216 q 0.117015,0.05851 0.175523,0.05851 1.711353,-1.696726 1.930758,-1.696726 v -0.175524 l 0.05851,-0.409554 h -0.05851 q -0.892244,0.614332 -2.281805,1.87225 z M 76.29608,33.00249 v 0.351047 q 1.448068,-1.19941 1.872249,-1.287172 l 0.05851,0.117016 q -1.19941,0.775228 -1.930757,1.521203 v 0.234031 h 0.05851 q 0.862991,-0.804482 1.930758,-1.579711 v -0.351047 q 0,-0.08776 -0.234031,-0.234031 z m 3.803007,-0.643586 h -0.234031 l -0.05851,0.292539 h 0.351047 q 0.307166,0 0.351047,1.462696 0,0.05851 -0.05851,0.05851 l 0.05851,0.409555 v 0.05851 q 0,0.936125 0.117016,1.87225 -0.05851,1.301799 -0.05851,2.457328 v 0.05851 q 0.234031,-0.234032 0.409554,-0.234032 -0.219404,-6.435859 -0.468062,-6.435859 -0.117016,0 -0.117016,-0.05851 z m 1.34568,1.87225 q 0,-0.05851 -0.05851,-0.05851 v 0.117016 q 0,0.219404 0.05851,1.462695 2.018519,-2.091654 2.164789,-2.574343 0,0.02925 -1.930758,1.930757 h -0.05851 q -0.117015,0 -0.117015,-0.117015 2.106281,-2.01852 2.106281,-2.281805 l 0.05851,-0.351047 q -1.916131,1.87225 -2.223297,1.87225 z m -7.079445,-1.813742 v 0.468063 l 0.117015,-0.05851 h 0.117016 q 0.219404,0 0.760602,0.234031 l 0.117015,-0.175523 q -0.117015,-0.351047 -0.468062,-0.351047 h -0.468063 z m 1.930758,2.047773 v 0.05851 h 0.05851 l 1.930758,-1.521203 v -0.351047 q -1.989265,1.404188 -1.989265,1.813742 z m -0.877618,-1.287171 v 0.05851 q 0.05851,0.117016 0.05851,0.175524 h 0.05851 v -0.175524 z m 0.877618,1.755234 v 0.292539 l 1.989265,-1.462695 v -0.468063 q -1.623592,1.19941 -1.989265,1.638219 z m -0.81911,-1.287172 v 3.21793 q 0,0.614332 -0.05851,1.287172 l 0.117016,1.989265 h 0.05851 q 0,-0.08776 0.05851,-2.106281 l -0.05851,-0.234031 q 0.05851,-0.102389 0.05851,-0.292539 v -0.117016 q 0,-0.131643 -0.05851,-0.234031 0,-0.05851 0.05851,-0.05851 l -0.117016,-3.451961 z m 5.967797,2.457328 v 0.409555 q 1.111648,-1.550457 2.106281,-2.223297 l -0.05851,-0.117016 0.05851,-0.409554 z m -5.148687,-0.52657 v 0.351047 q 0.789855,-0.731348 2.047773,-1.638219 v -0.292539 h -0.05851 q -1.901504,1.418814 -1.989265,1.579711 z m 0,0.702094 v 0.234031 q 0.906871,-0.848363 2.047773,-1.696727 v -0.234031 q -0.950752,0.555824 -2.047773,1.696727 z m 5.148687,0.585078 q 0.05851,0.07313 0.05851,0.409554 0.05851,0 2.047773,-2.164789 v -0.175523 l -0.05851,-0.292539 q 0.05851,0 0.05851,-0.05851 h -0.05851 q -0.775228,0.570451 -2.047773,2.281805 z m -5.148687,0 v 0.234031 h 0.05851 q 1.696727,-1.696727 2.047774,-1.696727 v -0.292539 h -0.05851 q -0.804482,0.48269 -2.047773,1.755235 z m 5.265703,0.702093 v 0.175524 q 1.19941,-1.257918 2.047773,-1.989266 v -0.292539 h -0.05851 q -0.08776,0.02925 -1.989265,2.106281 z m -5.324211,0.29254 q 2.150162,-1.916131 2.164789,-1.989266 v -0.292539 q -0.643586,0.409555 -1.989266,1.755234 -0.102389,0 -0.175523,0.526571 z m 5.324211,0.409554 v 0.234031 q 0,0.131643 0.05851,0.234032 -0.511943,0.848363 -1.579711,1.404187 -0.07313,0 -0.585078,0.585078 h 0.05851 q 0.994633,-0.497316 1.87225,-1.287172 h 0.117016 q 0.175523,0 0.175523,0.234032 1.038514,-1.374934 1.989266,-2.223297 v -0.351047 h -0.05851 q -0.658213,0.643586 -1.930758,2.164789 -0.117015,0 -0.117015,-0.117016 v -0.05851 q 1.184783,-1.418815 2.047773,-2.340313 v -0.643586 h -0.05851 q -1.989265,1.755235 -1.989265,2.164789 z m -5.324211,0.292539 h 0.05851 q 0.3803,-0.67284 2.106281,-2.047773 V 36.22042 q -2.164789,1.842996 -2.164789,2.106281 z m -0.05851,0.760602 q 1.19941,-1.331053 2.223297,-2.164789 v -0.351047 q -2.223297,1.784488 -2.223297,2.457328 z m 0,0.409554 v 0.05851 q 1.72598,-2.106281 2.281805,-2.106281 v -0.234031 q -1.15553,0.745974 -2.281805,2.281804 z m 5.499734,0.526571 h 0.05851 q 1.989266,-1.974639 1.989266,-2.106281 l -0.05851,-0.409555 q -1.989266,1.989265 -1.989266,2.515836 z m -5.499734,-0.05851 v 0.05851 q 0,0.08776 0.175523,0.175523 0.08776,-0.02925 2.047774,-1.930758 h 0.117015 q -0.05851,-0.219404 -0.05851,-0.643585 -1.199411,0.731347 -2.281805,2.340312 z m 5.61675,0.234031 0.05851,0.409555 h 0.117015 q 0,-0.263285 0.526571,-0.468063 0,-0.117015 1.287171,-1.462695 v -0.351047 h -0.05851 q -1.82837,1.87225 -1.930758,1.87225 z m -5.324211,0.234031 q 0.160896,0.29254 0.234031,0.29254 0,-0.29254 1.87225,-2.047774 -0.05851,-0.102389 -0.05851,-0.234031 z m 0.351047,0.468063 0.117015,0.05851 q 1.506577,-1.579711 1.696727,-1.579711 v -0.351047 h -0.05851 q -1.374933,1.126275 -1.755234,1.87225 z m 5.207195,0 q 0.204777,0.52657 0.585078,0.52657 h 0.05851 l -0.05851,-0.117015 v -0.05851 q 1.126276,-1.228664 1.287172,-1.228664 l -0.05851,-0.292539 h -0.05851 q -0.731347,0.643586 -1.462695,1.521203 -0.117016,0 -0.117016,-0.117016 v -0.05851 q 0,-0.05851 1.638219,-1.755234 v -0.292539 h -0.05851 q -0.05851,0 -1.755234,1.87225 z m -4.914656,0.234031 v 0.05851 q 0,0.08776 0.175523,0.175523 0.204778,-0.351046 1.521203,-1.57971 -0.05851,-0.117016 -0.05851,-0.175524 h -0.117016 q -1.00926,0.833736 -1.521203,1.521203 z m 1.87225,-1.228664 q -1.155529,1.067768 -1.521203,1.579711 h 0.05851 q 0.52657,-0.117016 1.404187,-1.170156 0.08776,0 0.351047,-0.351047 z m 0.468062,0.175524 -0.702093,0.760601 h 0.05851 q 0.33642,-0.248658 0.702094,-0.760601 z m 4.56361,0.05851 q -1.287172,1.214037 -1.287172,1.287172 h 0.117015 q 0.511944,0 1.521203,-1.170156 z m -2.866883,0.351047 q 0,0.190151 0.585078,1.053141 0,0.409555 0.643586,0.468062 h 0.175523 l 0.292539,-0.05851 v -0.05851 q -1.082394,0 -1.462695,-1.34568 0,-0.175523 -0.117016,-0.175523 -0.117015,0.01463 -0.117015,0.117015 z m -3.627484,1.696727 h 0.05851 q 0.131643,0 2.106282,-1.053141 v -0.05851 h -0.05851 z m -0.994633,-0.702094 v 0.05851 q 0,0.07314 0.643586,0.643586 l 0.05851,-0.117016 z"
         style="font-family:'Sketch Gothic School';-inkscape-font-specification:'Sketch Gothic School'"
         id="path9122" />
      <path
         d="m 91.537363,29.579783 h 0.234031 q 1.170157,1.126276 1.638219,2.515836 0.01463,0.33642 0.175524,0.643586 0.234031,0 0.234031,0.117016 0,0.08776 -0.175524,0.175523 l 0.409555,1.111649 q -0.482689,0.511943 -3.042406,2.281804 -0.643586,0.687467 -0.643586,0.936125 v 0.117016 q 0.511943,2.047773 1.87225,2.047773 h 0.292539 q 0.05851,0 0.468062,-0.117015 h 0.05851 l 0.234032,0.175523 q -0.102389,1.638219 -0.468063,1.638219 -1.111648,0.585078 -2.39882,1.638218 -0.14627,0.292539 -0.468063,0.292539 h -0.117015 q -0.117016,0 -0.117016,-0.117015 v -0.117016 l 0.05851,-0.117015 q -0.819109,-0.48269 -2.925391,-2.457329 -0.08776,0 -0.234031,-0.117015 0.117016,-0.775229 0.117016,-2.223297 v -0.175523 q -0.117016,-2.69136 -0.117016,-2.983899 v -0.994633 q 0,-0.994632 2.749867,-2.691359 0.716721,-0.775228 2.164789,-1.579711 z m -4.037039,4.154055 q 2.252551,-1.842996 3.451961,-2.983899 0.599705,-0.409554 0.702094,-0.409554 v -0.05851 h -0.117016 q -1.813742,0.994633 -1.813742,1.521203 -1.989266,1.462695 -2.223297,1.87225 z m 2.866883,-2.047774 h 0.05851 l 1.462695,-1.111648 v -0.05851 h -0.05851 q -0.555824,0.321793 -1.462695,1.170156 z m 1.696727,-0.877617 q -1.34568,1.00926 -1.34568,1.053141 v 0.05851 q 0.117015,0 0.52657,0.409554 0,-0.248658 1.228664,-0.819109 v -0.05851 l -0.05851,-0.117015 q -0.950752,0.585078 -1.170156,0.585078 -0.117015,0 -0.117015,-0.117016 0.07313,-0.146269 1.111648,-0.702094 v -0.117015 q 0,-0.08776 -0.175523,-0.175524 z m -0.760602,1.579711 v 0.05851 q 0,0.08776 0.175523,0.175523 h 0.05851 q 1.170156,-0.438808 1.170156,-0.702093 -0.05851,-0.117016 -0.05851,-0.175524 h -0.05851 q -0.980006,0.643586 -1.287172,0.643586 z m -3.7445,1.755235 v 0.234031 l 0.05851,0.292539 q 0.614332,-0.745975 2.340312,-2.281805 l 0.05851,-0.292539 h -0.05851 q -1.433441,1.053141 -2.39882,2.047774 z m 4.095547,-1.228665 q 0.351047,0.658213 0.351047,0.760602 1.05314,-0.628959 1.05314,-0.702094 h -0.05851 q -0.52657,0.351047 -0.936124,0.351047 L 91.88841,33.090252 q 0.01463,-0.117016 0.117016,-0.117016 h 0.117015 q 0.05851,0 0.05851,0.05851 0.05851,0 0.760602,-0.351047 -0.07314,-0.351047 -0.175524,-0.351047 -0.950752,0.585078 -1.111648,0.585078 z m -1.111649,-0.409554 -0.05851,0.117015 v 1.813743 q 0,0.848363 -0.117016,1.755234 v 0.05851 h 0.05851 q 0,-0.117016 1.228664,-1.404188 0,-1.287172 -1.111649,-2.340312 z m -2.632851,2.281804 v 0.05851 q 1.565084,-1.023886 1.989265,-1.521203 v -0.409555 h -0.05851 q -1.15553,0.921498 -1.930758,1.87225 z m 4.212562,-0.936125 q 0,-0.05851 -0.05851,-0.05851 v 0.05851 q 0.175523,0.789856 0.175523,0.994633 1.111648,-0.760601 1.111648,-0.936125 -0.175523,-0.321793 -0.175523,-0.52657 -1.00926,0.468062 -1.053141,0.468062 z m -4.446593,1.521204 v 0.292539 h 0.05851 q 1.799116,-1.34568 2.106282,-1.34568 0,0.05851 0.05851,0.05851 v -0.585078 q -1.974638,1.448068 -2.223296,1.579711 z m -0.760602,-1.228664 v 0.643585 q 0,0.321793 0.117016,2.983899 h 0.05851 v -1.287172 q 0,-0.05851 -0.05851,-0.175523 0.05851,-0.102389 0.05851,-0.234032 v -0.175523 q 0,-0.48269 -0.117016,-1.755234 z m 0.760602,1.989265 v 0.468063 q 1.433441,-1.228664 1.696726,-1.228664 l 0.05851,0.117015 v 0.05851 q -1.374934,1.067768 -1.755234,1.521203 v 0.117016 h 0.05851 q 1.755235,-1.521203 1.989266,-1.521203 0.01463,0.117015 0.117016,0.117015 0.05851,-0.877617 0.05851,-1.228664 -1.57971,0.936125 -2.223296,1.579711 z M 87.61734,37.9464 q 1.755234,-1.404187 2.106281,-1.404187 h 0.05851 v -0.585078 q -2.164789,1.491949 -2.164789,1.930757 z m 0,0.468063 v 0.351047 h 0.05851 q 1.243291,-1.126276 1.930757,-1.404188 0.117016,0.05851 0.175524,0.05851 v -0.643586 h -0.05851 q -1.067768,0.643586 -2.106281,1.638219 z m 0.05851,0.819109 v 0.05851 q 0.01463,0.117016 0.117015,0.117016 0.906871,-0.906872 2.047774,-1.579711 -0.05851,-0.102389 -0.05851,-0.292539 -1.19941,0.702093 -2.106281,1.696726 z m 0.351047,0.409555 q 0,0.08776 0.175523,0.175523 1.521203,-1.287172 1.813742,-1.287172 l 0.05851,0.117016 v 0.117016 q -0.745975,0.438808 -1.638219,1.287171 l 0.175524,0.234032 q 0.570451,-0.351047 1.521203,-1.170157 h 0.05851 q 0.117015,0.01463 0.117015,0.117016 v 0.05851 l -1.404187,1.228664 0.175523,0.117016 h 0.05851 q 1.331053,-1.287172 1.462695,-1.287172 v -0.05851 q -0.585078,-0.702094 -0.643586,-1.111649 -0.555824,0.05851 -1.930757,1.462696 z m -0.994633,-0.81911 q 0,0.204778 -0.05851,0.526571 v 0.05851 h 0.05851 l 0.05851,-0.29254 v -0.292539 z m 2.340312,2.047774 v 0.05851 q 1.155529,-0.936125 1.638219,-1.170157 l -0.175524,-0.234031 q -0.248658,0.04388 -1.462695,1.34568 z m -2.223297,-1.170156 -0.05851,0.409554 q 2.457328,2.398821 2.866882,2.398821 v -0.05851 l 0.117016,-0.409555 q -0.409555,0 -2.866883,-2.340312 z m 2.515836,1.345679 v 0.117016 h 0.05851 q 0.175523,0 1.755234,-1.111649 h 0.05851 v -0.05851 q -0.05851,0 -0.175523,-0.05851 -0.263285,0 -1.696727,1.111648 z m 2.106281,-0.994633 q 0,0.234032 -1.111648,0.877618 -0.424182,0.409554 -0.585078,0.409554 v 0.117016 l 0.234031,0.05851 q 0.05851,-0.14627 1.696727,-1.404188 -0.131643,0 -0.234032,-0.05851 z m -1.57971,2.632852 q 1.477322,-1.243291 2.632851,-1.755234 l 0.117016,-0.81911 q -2.54509,1.930758 -2.69136,2.340313 z"
         style="font-family:'Sketch Gothic School';-inkscape-font-specification:'Sketch Gothic School'"
         id="path9124" />
      <path
         d="m 106.79328,24.357961 q 0.26328,0.117016 0.29254,0.234031 v 0.117016 q 0,0.08776 -0.40956,0.819109 -0.0585,0.102389 -0.0585,0.292539 0.23404,1.184784 3.97854,3.861516 0.70209,0.160896 0.70209,0.643586 0.52657,0.52657 0.52657,0.702094 -0.23403,1.945384 -0.23403,2.457328 v 1.462695 q 0,2.281805 0.58508,4.388086 0,0.146269 -0.52657,1.228664 0,0.307166 -1.05314,0.585078 -1.82837,0.789855 -2.45733,1.521203 -0.23403,0.131643 -1.81374,1.404187 h -0.23404 q -0.11701,0 -0.11701,-0.117015 0,-0.117016 0.17552,-0.117016 v -0.117015 q -0.0731,0 -1.63822,-1.755235 -1.19941,-0.950752 -2.10628,-1.287172 v -0.175523 l 0.0585,-0.117016 q -0.11702,0 -0.11702,-0.117015 0.24866,-7.137953 0.46807,-7.137953 0.27791,-0.131643 0.64358,-0.643586 0.11702,-0.05851 0.17553,-0.05851 l 0.23403,0.05851 q 1.00926,-0.541197 1.57971,-0.702094 -1.81374,-1.418814 -1.81374,-2.223297 -0.10239,0 -0.11702,-0.643586 0,-1.87225 1.17016,-3.042406 0.0731,0 1.05314,-0.994633 0.95075,-0.52657 1.05314,-0.52657 z m -1.87225,2.691359 v 0.05851 h 0.0585 q 0,-0.117015 0.99463,-0.994633 h -0.11702 q -0.9215,0.745975 -0.93612,0.936125 z m 0.11701,0.351047 q 0.68747,-0.541197 1.11165,-0.760601 v -0.05851 l -0.0585,-0.117016 q -0.14627,0.01463 -1.05314,0.936125 z m 1.22867,-0.585078 q -1.03852,0.760602 -1.57971,1.404188 v 0.351046 q 0.7606,-0.848363 1.75523,-1.521203 -0.0878,-0.234031 -0.17552,-0.234031 z m -1.52121,2.047774 q 0.17553,0.394927 0.17553,0.468062 0.42418,-0.248658 1.98926,-1.755234 0,-0.02925 -0.23403,-0.292539 -0.83373,0.394927 -1.81374,1.579711 z m -0.7606,-1.287172 q -0.17552,1.243291 -0.17552,1.462695 0,1.374934 2.04777,2.574344 0.27791,-0.175524 0.35105,-0.175524 v -0.117015 q -2.2233,-1.082395 -2.2233,-3.100914 v -0.05851 q 0,-0.204778 0.0585,-0.526571 v -0.05851 z m 3.15942,0.175523 q -1.81374,1.755234 -2.04777,1.755234 0.29254,0.585079 1.81374,1.462696 0.23403,0.263285 0.23403,0.292539 1.38957,-1.184783 2.04778,-1.638219 v -0.05851 q 0,-0.07313 -0.35105,-0.292539 h -0.0585 q -0.35104,0.160897 -1.75523,1.638219 -0.11702,0 -0.11702,-0.175524 0.1609,-0.424181 1.63822,-1.696726 l -0.40955,-0.292539 q -1.41882,1.638219 -1.87225,1.638219 -0.11702,0 -0.11702,-0.117016 1.69673,-1.418814 1.69673,-1.696727 v -0.05851 q 0,-0.08776 -0.17553,-0.175524 -1.62359,1.696727 -2.04777,1.696727 l -0.11701,-0.175524 q 1.06776,-0.687466 1.93075,-1.755234 v -0.05851 q 0,-0.07313 -0.29254,-0.292539 z m 0.29254,3.627484 v 0.05851 q 0.14627,0 0.40956,0.234031 l 1.98926,-1.696726 v -0.05851 q -0.0731,0 -0.35104,-0.175523 -0.0585,0 -2.04778,1.638218 z m 2.57435,-1.170156 q -1.6821,1.433442 -1.98927,1.638219 v 0.117016 q 0.0878,0 0.23403,0.117015 1.3018,-0.833736 2.2233,-1.696726 -0.29254,-0.175524 -0.46806,-0.175524 z m -1.4627,1.989266 v 0.05851 q 0,0.07313 0.29254,0.292539 0.59971,-0.585078 1.75524,-1.521203 h 0.0585 q 0.11702,0.01463 0.11702,0.117015 v 0.05851 q -1.60897,1.491949 -1.81374,1.579711 v 0.234031 h 0.0585 q 1.18479,-0.906871 1.75524,-1.462695 h 0.0585 q 0.11701,0.01463 0.11701,0.117015 v 0.117016 q -0.42418,0.438809 -1.93076,1.638219 v 0.351047 h 0.0585 q 0.84837,-0.687467 1.57971,-1.404188 h 0.11702 q 0.11701,0.01463 0.11701,0.117016 -1.40418,1.477322 -1.87225,1.638219 v 0.468062 q 1.36031,-1.214037 1.57972,-1.462695 h 0.0585 q 0.11702,0.01463 0.11702,0.117015 v 0.05851 q -0.52657,0.599705 -1.75524,1.696727 v 0.52657 q 1.18479,-1.00926 1.63822,-1.462695 0.11702,0.01463 0.11702,0.117015 v 0.117016 q -1.18478,1.243291 -1.75524,1.521203 v 0.52657 q 0.11702,0 0.11702,0.05851 1.75523,-1.155529 1.75523,-1.87225 v -1.228664 q 0,-0.819109 0.23404,-2.164789 -0.40956,-0.292539 -0.40956,-0.468062 h -0.11701 q -1.76987,1.477322 -2.04778,1.521203 z m -1.75523,-0.234031 v 0.05851 q 0.10239,0.365674 0.99463,0.994633 0.23403,0.204777 0.23403,3.21793 v 1.579711 q 0,0.497316 0.0585,1.579711 h 0.17552 l 0.17553,-0.117016 q -0.11702,-0.52657 -0.11702,-1.404188 v -3.568976 q 0,-1.521203 -0.35105,-1.521203 -0.65821,-0.599705 -1.17015,-0.819109 z m -0.11702,0.468062 q 0.23403,1.901504 0.23403,2.983898 v 1.111649 q 0,1.272545 -0.11701,1.87225 0.57045,0.643586 0.93612,0.877617 h 0.0585 q -0.0585,-0.585078 -0.0585,-0.877617 v -1.930758 q 0,-3.451961 -0.35104,-3.451961 -0.20478,0 -0.7021,-0.585078 z m -2.80837,1.521203 v 0.117016 q 0.87761,-0.965379 1.57971,-1.521203 h -0.0585 q -0.51194,0.219404 -1.5212,1.404187 z m -0.0585,0.760602 q 0.74597,-0.81911 2.2233,-2.106282 v -0.05851 h -0.0585 q -2.16479,1.711353 -2.16479,2.164789 z m 0,0.292539 v 0.936125 q 0.0878,0 0.17552,-0.175524 l -0.11701,-0.175523 v -0.05851 q 0.0292,-0.175523 2.16479,-2.223297 v -0.234031 h -0.0585 q -0.9215,0.760601 -2.10628,1.930758 z m 0.11701,-1.813742 v 0.234031 q 0.0731,0 0.29254,-0.292539 h -0.0585 q -0.10239,0.05851 -0.23404,0.05851 z m -1.28717,6.611382 q 0.29254,-0.146269 0.29254,-0.468062 V 38.80939 q 0.23403,-4.841521 0.23403,-5.499734 0.0585,0 0.0585,-0.05851 h -0.0585 q -0.27791,0 -0.35104,3.393453 -0.0439,0 -0.17553,3.159422 z m 2.39882,-5.148687 h 0.0585 q 0.23403,-0.219404 0.99463,-0.877617 v -0.117016 q -1.05314,0.936125 -1.05314,0.994633 z m -1.40418,3.920023 v 0.05851 h 0.0585 q 0,-0.292539 2.51584,-2.457328 v -0.877617 q -1.09702,0.994633 -2.28181,2.515836 -0.0878,0 -0.17552,-0.175524 0.71672,-1.082394 2.34031,-2.632851 h 0.0585 v -0.409555 q -1.72598,1.331053 -2.04777,2.281805 l -0.11702,0.05851 h -0.0585 q -0.11701,0 -0.11701,-0.117015 0.42418,-1.184783 2.34031,-2.574344 v -0.117015 q -0.20478,0 -2.34031,2.223296 -0.17552,1.199411 -0.17552,2.223297 z m 5.67525,-1.87225 h -0.29254 v 0.526571 q 1.06777,-0.702094 1.40419,-1.34568 h 0.0585 q 0.11702,0.01463 0.11702,0.117016 v 0.175523 q -0.76061,0.936125 -1.52121,1.34568 v 0.643586 q 1.1409,-0.862991 1.63822,-1.521204 0.0878,0 0.17552,0.175524 0,0.277912 -1.75523,1.696726 -0.0585,0.102389 -0.0585,0.234032 v 0.234031 h 0.0585 q 1.69673,-1.521203 1.87225,-1.755234 -0.0585,-0.175524 -0.17552,-1.755235 0.0585,0 0.0585,-0.05851 h -0.0585 q -0.55583,0.555825 -1.52121,1.287172 z m -5.49973,2.106281 -0.17552,-0.117015 v 0.702094 q 0.0146,0.117015 0.11701,0.117015 1.66747,-2.223297 2.28181,-2.223297 l 0.0585,0.117016 q -1.53583,1.331053 -2.04777,2.223297 v 0.05851 q 0.0585,0 0.17552,0.05851 0,-0.146269 1.69673,-1.755234 0.11702,0.01463 0.11702,0.117016 v 0.117015 q -1.3018,1.331053 -1.57971,1.696727 0.35104,0.292539 0.40955,0.292539 0.67284,-0.789856 1.34568,-1.462695 l -0.11702,-0.234032 q 0.11702,-1.097021 0.11702,-1.87225 h -0.0585 q -1.38956,1.140903 -2.34031,2.164789 z m 5.67526,0.234032 q 0.0585,0 0.0585,0.05851 0.0878,0 0.52658,-0.409555 h 0.0585 l 0.17553,0.117015 q 0.45343,-0.745974 0.52657,-0.760601 l 0.23403,0.175523 0.0585,-0.117015 v -0.468063 h -0.0585 z m 0.46806,0.52657 h 0.0585 q 0.86299,-0.292539 1.28717,-0.292539 h 0.11701 V 39.10193 q -0.17552,-0.570452 -0.17552,-0.643586 -0.58508,0.292539 -1.28717,1.111648 z m -4.85615,0.819109 q 0.0146,0.117016 0.11702,0.117016 h 0.0585 l 1.28718,-1.287172 q 0,-0.08776 -0.17553,-0.175523 -0.13164,0.01463 -1.28717,1.345679 z m 0.40956,0.409555 0.17552,0.117016 q 1.34568,-1.243291 1.34568,-1.287172 l -0.23403,-0.175524 q -1.28717,1.053141 -1.28717,1.34568 z m -2.92539,-0.351047 q 1.93075,0.731348 3.56897,2.983899 h 0.0585 q 0.13164,0 0.29254,-0.643586 -2.17942,-2.369567 -3.27644,-2.749868 0,-0.08776 -0.17552,-0.175523 -0.26329,0.19015 -0.46806,0.585078 z m 4.62211,-0.585078 q -1.27254,1.228664 -1.28717,1.287172 l 0.23403,0.175523 1.40419,-1.345679 q -0.19015,-0.117016 -0.35105,-0.117016 z m -0.64358,3.627484 h 0.0585 q 2.53047,-2.281804 4.62212,-2.866882 0.11702,0 0.35105,-0.702094 -0.90687,0 -3.10092,1.111648 -0.93612,0.745975 -1.57971,1.696727 -0.13164,0.117015 -0.35104,0.760601 z m 2.10628,-3.334945 h 0.11701 v -0.117016 q -0.11701,0.01463 -0.11701,0.117016 z m -2.28181,1.404188 q 0,0.07313 0.29254,0.292539 h 0.0585 q 0,-0.102389 0.17552,-0.292539 l -0.11701,-0.175524 q 1.1409,-1.170156 1.34568,-1.170156 v -0.117016 h -0.23403 q -0.77523,0.628959 -1.52121,1.462696 z"
         style="font-family:'Sketch Gothic School';-inkscape-font-specification:'Sketch Gothic School'"
         id="path9126" />
      <path
         d="m 117.90976,29.579783 h 0.23403 q 1.17016,1.126276 1.63822,2.515836 0.0146,0.33642 0.17552,0.643586 0.23404,0 0.23404,0.117016 0,0.08776 -0.17553,0.175523 l 0.40956,1.111649 q -0.48269,0.511943 -3.04241,2.281804 -0.64358,0.687467 -0.64358,0.936125 v 0.117016 q 0.51194,2.047773 1.87225,2.047773 h 0.29253 q 0.0585,0 0.46807,-0.117015 h 0.0585 l 0.23404,0.175523 q -0.10239,1.638219 -0.46807,1.638219 -1.11164,0.585078 -2.39882,1.638218 -0.14627,0.292539 -0.46806,0.292539 h -0.11701 q -0.11702,0 -0.11702,-0.117015 v -0.117016 l 0.0585,-0.117015 q -0.81911,-0.48269 -2.92539,-2.457329 -0.0878,0 -0.23403,-0.117015 0.11701,-0.775229 0.11701,-2.223297 v -0.175523 q -0.11701,-2.69136 -0.11701,-2.983899 v -0.994633 q 0,-0.994632 2.74986,-2.691359 0.71672,-0.775228 2.16479,-1.579711 z m -4.03704,4.154055 q 2.25255,-1.842996 3.45196,-2.983899 0.59971,-0.409554 0.7021,-0.409554 v -0.05851 h -0.11702 q -1.81374,0.994633 -1.81374,1.521203 -1.98927,1.462695 -2.2233,1.87225 z m 2.86689,-2.047774 h 0.0585 l 1.4627,-1.111648 v -0.05851 h -0.0585 q -0.55582,0.321793 -1.46269,1.170156 z m 1.69672,-0.877617 q -1.34568,1.00926 -1.34568,1.053141 v 0.05851 q 0.11702,0 0.52657,0.409554 0,-0.248658 1.22867,-0.819109 v -0.05851 l -0.0585,-0.117015 q -0.95075,0.585078 -1.17016,0.585078 -0.11701,0 -0.11701,-0.117016 0.0731,-0.146269 1.11165,-0.702094 v -0.117015 q 0,-0.08776 -0.17553,-0.175524 z m -0.7606,1.579711 v 0.05851 q 0,0.08776 0.17552,0.175523 h 0.0585 q 1.17016,-0.438808 1.17016,-0.702093 -0.0585,-0.117016 -0.0585,-0.175524 h -0.0585 q -0.98,0.643586 -1.28717,0.643586 z m -3.7445,1.755235 v 0.234031 l 0.0585,0.292539 q 0.61433,-0.745975 2.34031,-2.281805 l 0.0585,-0.292539 h -0.0585 q -1.43344,1.053141 -2.39882,2.047774 z m 4.09555,-1.228665 q 0.35104,0.658213 0.35104,0.760602 1.05314,-0.628959 1.05314,-0.702094 h -0.0585 q -0.52657,0.351047 -0.93613,0.351047 l -0.17552,-0.234031 q 0.0146,-0.117016 0.11701,-0.117016 h 0.11702 q 0.0585,0 0.0585,0.05851 0.0585,0 0.7606,-0.351047 -0.0731,-0.351047 -0.17552,-0.351047 -0.95076,0.585078 -1.11165,0.585078 z m -1.11165,-0.409554 -0.0585,0.117015 v 1.813743 q 0,0.848363 -0.11701,1.755234 v 0.05851 h 0.0585 q 0,-0.117016 1.22867,-1.404188 0,-1.287172 -1.11165,-2.340312 z m -2.63285,2.281804 v 0.05851 q 1.56508,-1.023886 1.98926,-1.521203 v -0.409555 h -0.0585 q -1.15553,0.921498 -1.93076,1.87225 z m 4.21256,-0.936125 q 0,-0.05851 -0.0585,-0.05851 v 0.05851 q 0.17553,0.789856 0.17553,0.994633 1.11164,-0.760601 1.11164,-0.936125 -0.17552,-0.321793 -0.17552,-0.52657 -1.00926,0.468062 -1.05314,0.468062 z m -4.44659,1.521204 v 0.292539 h 0.0585 q 1.79912,-1.34568 2.10629,-1.34568 0,0.05851 0.0585,0.05851 v -0.585078 q -1.97464,1.448068 -2.22329,1.579711 z m -0.76061,-1.228664 v 0.643585 q 0,0.321793 0.11702,2.983899 h 0.0585 v -1.287172 q 0,-0.05851 -0.0585,-0.175523 0.0585,-0.102389 0.0585,-0.234032 v -0.175523 q 0,-0.48269 -0.11702,-1.755234 z m 0.76061,1.989265 v 0.468063 q 1.43344,-1.228664 1.69672,-1.228664 l 0.0585,0.117015 v 0.05851 q -1.37493,1.067768 -1.75523,1.521203 v 0.117016 h 0.0585 q 1.75524,-1.521203 1.98927,-1.521203 0.0146,0.117015 0.11702,0.117015 0.0585,-0.877617 0.0585,-1.228664 -1.57971,0.936125 -2.22329,1.579711 z m -0.0585,1.813742 q 1.75523,-1.404187 2.10628,-1.404187 h 0.0585 v -0.585078 q -2.16479,1.491949 -2.16479,1.930757 z m 0,0.468063 v 0.351047 h 0.0585 q 1.24329,-1.126276 1.93075,-1.404188 0.11702,0.05851 0.17553,0.05851 v -0.643586 h -0.0585 q -1.06777,0.643586 -2.10628,1.638219 z m 0.0585,0.819109 v 0.05851 q 0.0146,0.117016 0.11701,0.117016 0.90687,-0.906872 2.04778,-1.579711 -0.0585,-0.102389 -0.0585,-0.292539 -1.19941,0.702093 -2.10628,1.696726 z m 0.35104,0.409555 q 0,0.08776 0.17553,0.175523 1.5212,-1.287172 1.81374,-1.287172 l 0.0585,0.117016 v 0.117016 q -0.74598,0.438808 -1.63822,1.287171 l 0.17552,0.234032 q 0.57045,-0.351047 1.5212,-1.170157 h 0.0585 q 0.11702,0.01463 0.11702,0.117016 v 0.05851 l -1.40419,1.228664 0.17552,0.117016 h 0.0585 q 1.33105,-1.287172 1.4627,-1.287172 v -0.05851 q -0.58508,-0.702094 -0.64359,-1.111649 -0.55582,0.05851 -1.93076,1.462696 z m -0.99463,-0.81911 q 0,0.204778 -0.0585,0.526571 v 0.05851 h 0.0585 l 0.0585,-0.29254 v -0.292539 z m 2.34031,2.047774 v 0.05851 q 1.15553,-0.936125 1.63822,-1.170157 l -0.17552,-0.234031 q -0.24866,0.04388 -1.4627,1.34568 z m -2.22329,-1.170156 -0.0585,0.409554 q 2.45733,2.398821 2.86688,2.398821 v -0.05851 l 0.11702,-0.409555 q -0.40956,0 -2.86689,-2.340312 z m 2.51583,1.345679 v 0.117016 h 0.0585 q 0.17552,0 1.75523,-1.111649 h 0.0585 v -0.05851 q -0.0585,0 -0.17552,-0.05851 -0.26329,0 -1.69673,1.111648 z m 2.10628,-0.994633 q 0,0.234032 -1.11165,0.877618 -0.42418,0.409554 -0.58507,0.409554 v 0.117016 l 0.23403,0.05851 q 0.0585,-0.14627 1.69672,-1.404188 -0.13164,0 -0.23403,-0.05851 z m -1.57971,2.632852 q 1.47732,-1.243291 2.63285,-1.755234 l 0.11702,-0.81911 q -2.54509,1.930758 -2.69136,2.340313 z"
         style="font-family:'Sketch Gothic School';-inkscape-font-specification:'Sketch Gothic School'"
         id="path9128" />
      <path
         d="m 79.528635,58.670019 q 0.468062,0 0.468062,1.053141 0.716721,1.287172 2.398821,2.92539 0.585078,0.892244 0.585078,1.638219 v 0.819109 q 0,3.378827 -1.111649,5.148688 0,1.126275 -1.989265,2.92539 -1.184783,0.81911 -2.047774,0.81911 -2.384193,-0.234031 -2.632851,-0.702094 -0.394928,0 -0.994633,-1.755234 -0.234031,-0.468063 -0.234031,-0.760602 v -0.117015 q 0,-1.842997 1.287172,-2.457329 0.541197,-0.234031 0.877617,-0.234031 0.67284,0 1.404187,0.877617 v -0.117015 q 0,-1.404188 -0.936125,-3.100914 -0.687466,-1.404188 -2.223296,-1.404188 -0.117016,0 -0.81911,0.117016 l 0.117016,4.154054 q -0.05851,0.234032 -0.05851,0.409555 0,0.02925 0.05851,0.760602 -0.05851,0.775228 -0.05851,1.287172 l 0.05851,0.117015 -0.468063,4.505102 q 0.07314,2.39882 0.585078,2.39882 0.117016,0.19015 0.117016,0.351047 0,0.52657 -1.053141,0.52657 -0.672839,0.52657 -1.462695,0.52657 -1.448068,0 -2.92539,-1.287171 0,-0.204778 -0.292539,-0.468063 h -0.05851 q -1.287172,0 -2.632852,1.462695 -0.52657,0.936125 -0.52657,1.638219 v 0.351047 q 0,1.053141 1.228664,1.930758 0.380301,0.219404 2.223297,0.409554 0,0.05851 0.351047,0.05851 2.749867,0 3.861515,-1.404187 h -0.117015 q -0.117016,0 -1.287172,0.05851 -0.760602,-0.277913 -0.760602,-1.053141 0.219404,-1.228664 1.170156,-1.228664 h 0.234032 q 1.813742,0.702094 1.813742,1.930758 0,0.497316 -1.111649,1.521203 0,0.146269 -0.292539,0.585078 v 0.05851 l 0.351047,-0.292539 h 0.05851 q 0.175523,0 0.175523,0.234031 -0.482689,0.702094 -1.404187,1.462695 h -0.175523 q -0.14627,0 -0.175524,-0.234031 -1.082394,0.468062 -2.340312,0.468062 -2.925391,-0.453435 -3.803008,-1.287171 -0.702094,-0.81911 -0.702094,-1.287172 -0.117015,-1.082395 -0.117015,-1.930758 v -0.351047 q 0,-2.515836 2.983898,-3.7445 0.555824,-0.175523 0.819109,-0.175523 -0.117015,-0.570451 -0.117015,-1.579711 v -1.989266 q 0,-0.05851 0.05851,-0.05851 -0.05851,-0.117015 -0.05851,-0.175523 0,-0.482689 0.05851,-0.936125 -0.292539,-3.057033 -0.52657,-3.627484 0.117016,-1.550457 0.234031,-1.813742 -0.117015,-0.190151 -0.117015,-0.351047 0.628959,-1.272545 2.574343,-6.201828 0,-0.33642 0.29254,-0.468063 h 0.234031 q 0.234031,0.08776 0.468062,0.81911 0.628959,1.038513 0.702094,1.05314 0.01463,-0.117015 0.117016,-0.117015 h 0.175523 q 0.117016,0.01463 0.117016,0.117015 0,0.190151 -0.175524,0.409555 1.111649,1.462695 1.579711,1.462695 2.823002,-2.0624 4.154055,-3.159422 1.594338,-1.521203 1.755234,-1.521203 z m -4.037039,4.27107 v 0.05851 h 0.175523 q 0.321793,0 3.568977,-2.515836 0.234031,0 0.234031,-0.117015 -0.117016,0 -0.234031,-0.351047 h -0.05851 q -3.013152,2.603597 -3.685992,2.92539 z m 0.819109,0.292539 q 0.33642,0.02925 1.696727,1.287172 0.702094,1.023887 0.702094,1.228664 h 0.05851 q 0,-0.117015 1.404188,-0.936125 1.184783,-0.71672 1.228664,-0.877617 0,-0.131642 0.52657,-0.234031 0.01463,0.117016 0.117016,0.117016 h 0.05851 q -0.321793,-0.526571 -0.468063,-0.585079 -1.842996,1.316426 -2.808375,1.638219 H 78.59251 q -0.08776,0 -0.175524,-0.175523 v -0.117016 l 0.175524,-0.234031 0.292539,0.05851 q 1.360307,-0.702094 2.457328,-1.521203 -0.33642,-0.468063 -0.409555,-0.468063 -2.384193,1.813742 -2.808375,1.813742 h -0.175523 q -0.117016,0 -0.117016,-0.117015 v -0.175524 q 1.140903,-0.614332 2.574344,-1.638219 0,-0.131642 0.292539,-0.175523 -0.482689,-0.585078 -0.52657,-0.585078 h -0.117016 q -1.184783,0.775228 -2.691359,2.164789 h -0.234031 q -0.117016,0 -0.117016,-0.117016 V 63.46766 q 1.097021,-1.140903 2.866883,-2.398821 -0.117016,-0.234031 -0.175524,-0.234031 -0.292539,0 -3.393453,2.39882 z m -6.903921,0.585079 q 0.936125,-0.848364 1.696726,-1.755235 -0.52657,-0.804482 -0.52657,-0.936125 -0.102389,0.102389 -1.170156,2.69136 z m 1.930757,-1.34568 q -2.457328,2.457328 -2.457328,2.632851 0,0.131643 -0.468062,1.228664 0.117015,0 0.117015,0.175524 2.896137,-3.042406 3.159422,-3.042406 l 0.175524,0.234031 q 0,0.08776 -2.574344,2.574344 -0.52657,0.643586 -0.52657,0.702093 l 0.05851,0.292539 h 0.05851 l 2.983899,-2.808374 h 0.117015 q 0.117016,0.01463 0.117016,0.117015 v 0.175524 q 0,0.08776 -3.100914,3.042406 v 0.234031 q 0.01463,0.117016 0.117015,0.117016 2.515836,-2.603598 3.159422,-2.925391 h 0.05851 q 0.08776,0 0.175524,0.175523 v 0.117016 q -2.179416,1.784488 -3.334946,3.276438 0.05851,0.511943 0.05851,0.585078 2.281805,-2.252551 2.866883,-2.69136 h 0.117015 q 0.131643,0 0.175524,0.292539 -0.804482,0.614332 -3.100914,2.983899 0.117016,0.848363 0.117016,0.994633 l 3.100914,-3.21793 h 0.05851 q 0.08776,0 0.175524,0.175523 v 0.117016 q -2.135535,2.369566 -3.276438,3.510469 v 0.585078 q 3.334946,-3.247184 3.334946,-3.334945 0,-0.307166 0.05851,-0.526571 l -0.05851,-0.117015 q 0,-0.05851 0.05851,-0.05851 l -0.05851,-0.409555 v -0.702094 q 0,-0.175523 -0.05851,-0.175523 l 0.05851,-0.234031 q -0.05851,-2.340313 -0.05851,-2.69136 -0.424182,-0.277912 -1.404188,-1.404187 z m 4.095547,1.404187 v 0.05851 q 1.053141,0.292539 1.989266,2.281805 0.585078,1.491949 0.585078,2.574344 0,0.424181 -0.409555,1.111648 0,0.321793 -0.175523,0.643586 h 0.05851 q 0.526571,-0.07314 0.994633,-0.702094 0.175524,-0.04388 0.175524,-0.468062 v -0.468063 q -0.175524,-0.234031 -0.175524,-0.351047 0.117016,0 0.117016,-0.117015 -0.204777,-1.667473 -0.643586,-2.398821 -0.511943,-1.140902 -1.696727,-1.87225 -0.365673,-0.292539 -0.760601,-0.292539 z m 3.451961,2.164789 q 0.117016,0.190151 0.117016,0.292539 0.555824,0 2.749867,-1.638218 0.117015,-0.234031 0.351047,-0.234031 v -0.351047 q -2.705987,1.769861 -3.21793,1.930757 z m 0.292539,0.702094 0.175523,1.228664 h 0.117016 q 1.287172,-0.877617 2.39882,-1.813742 h 0.234032 v -1.053141 h -0.05851 q -2.384194,1.638219 -2.866883,1.638219 z m 0.292539,1.813742 v 0.936125 h 0.05851 q 2.457328,-1.155529 2.457328,-1.989265 l 0.117016,-0.936125 z m -11.526039,-1.404187 -0.175523,1.228664 q 0.277912,0 0.52657,4.095547 v 3.393453 q 0,0.292539 0.05851,0.877617 h 0.05851 q 0.33642,0 0.643586,0.117016 v -0.05851 q -0.468063,-0.468063 -0.468063,-2.515836 v -0.292539 q 0,-1.111649 0.05851,-2.457328 -0.234031,-2.515836 -0.409555,-3.159422 -0.234031,0 -0.234031,-0.175524 v -0.175523 l 0.117016,-0.175523 -0.117016,-0.702094 z m 7.079445,2.39882 v 0.05851 q 0.980006,-0.48269 1.287172,-0.760602 h -0.292539 q -0.555824,0 -0.994633,0.702094 z m 2.223297,1.87225 q -0.541197,-0.117016 -0.643586,-0.117016 -0.819109,0.33642 -0.819109,0.409555 0.307166,0.117016 1.111648,0.234031 1.418815,-0.52657 2.574344,-1.404187 0.980006,-0.468063 1.111648,-0.468063 0,0.08776 0.175524,0.175524 0.819109,-1.140902 0.819109,-1.404188 -0.804482,0.526571 -2.281804,1.287172 0,0.86299 -2.047774,1.287172 z M 74.84801,70.13755 v 0.468063 h 0.117016 q 0.687466,-0.394928 1.521203,-0.994633 h 0.117015 l 0.175524,0.117016 v -0.409555 q 0,-0.117016 -0.117016,-0.117016 -1.521203,0.936125 -1.813742,0.936125 z m -5.441226,2.69136 v 0.643585 h 0.05851 q 0,-0.175523 0.234032,-0.292539 0.117015,0.05851 0.175523,0.05851 1.740607,-2.003892 2.983898,-3.042406 0,-0.05851 -0.05851,-0.05851 l 0.05851,-0.292539 v -0.409555 q -1.418814,1.272545 -3.45196,3.393454 z m 5.733765,-1.755235 q 0,0.08776 0.234031,0.234031 0.08776,0 0.936125,-0.351046 v -0.351047 q 0.409555,-0.424182 0.409555,-0.585078 -0.160897,0.219404 -1.34568,0.819109 z m 3.042406,0.81911 v 0.05851 h 0.117016 q 1.272545,-0.409554 2.106281,-1.287171 h 0.05851 v -0.05851 h -0.05851 q -0.365674,0.131642 -2.223297,1.287172 z m -8.776171,2.223296 v 0.05851 q 0,2.384193 0.819109,2.749867 0.234031,0.351047 0.760601,0.351047 l -0.175523,-0.234031 q 0.160896,-0.468063 0.292539,-0.468063 h 0.117016 l 0.175523,0.117016 q 0.07313,0 1.053141,-0.760601 l -0.05851,-0.234032 q 0.05851,-0.687467 0.05851,-0.994633 -1.19941,1.404188 -1.579711,1.696727 h -0.117016 q -0.08776,0 -0.175523,-0.175523 v -0.292539 q 0,-0.08776 0.234031,-0.234032 h 0.05851 l 0.117015,0.05851 q 1.579711,-1.87225 1.579711,-2.047773 0,-0.14627 0.117016,-0.702094 -0.482689,0.409555 -2.106281,2.340312 h -0.175524 l -0.117015,-0.175523 v -0.117016 q 1.331052,-1.623591 2.457328,-2.749867 0,-0.33642 0.05851,-0.409554 h -0.05851 q -0.511944,0.438808 -2.632852,2.691359 -0.117015,0.05851 -0.175523,0.05851 -0.175524,-0.190151 -0.175524,-0.292539 0.14627,-0.48269 0.760602,-0.760602 0,-0.160896 2.340312,-2.39882 -0.05851,-0.08776 -0.05851,-0.351047 -0.08776,0 -3.21793,3.276437 z m 11.526038,-2.808375 q -0.892244,1.038514 -2.632851,1.521204 -0.731348,0.05851 -0.760602,0.05851 -2.574343,-0.277912 -2.574343,-0.819109 L 74.84801,72.0098 v 0.05851 q 0,0.424182 0.936125,1.111648 1.243291,0.351047 2.047773,0.351047 1.565084,0 3.159422,-2.223297 z m -9.88782,5.967797 v 0.05851 q 0.760602,0.585078 1.638219,0.585078 -0.175523,-0.365674 -0.234031,-1.404187 h -0.05851 q -0.936125,0.760601 -1.34568,0.760601 z m -2.281804,0.351047 v 0.05851 q 1.067767,1.228664 2.632851,1.228664 h 0.234031 q 0.643586,-0.08776 0.643586,-0.234031 -0.555824,0 -2.691359,-0.936125 -0.67284,-0.117016 -0.819109,-0.117016 z m 3.217929,3.21793 q 0,0.05851 -0.468062,0.468062 0.819109,-0.04388 0.819109,-0.234031 -0.117016,-0.234031 -0.351047,-0.234031 z m -7.313476,1.930757 q 0,0.204778 0.175523,0.702094 h 0.175524 q 0.08776,0 0.175523,-0.175523 0,-0.07313 -0.52657,-0.526571 z m 0.819109,0.81911 q 0,0.102388 -0.175523,0.292539 0.277912,-0.175524 0.351047,-0.175524 v -0.117015 z m 5.733766,0.819109 h 0.05851 q 0.643585,-0.687467 0.643585,-0.760601 h -0.05851 q -0.190151,0 -0.468063,0.52657 -0.05851,0 -0.175523,0.234031 z m -5.09018,-0.52657 q -0.468062,0.292539 -0.468062,0.351047 v 0.05851 q 0.160896,0 0.351046,0.117015 0.234032,-0.351047 0.409555,-0.351047 0,-0.102388 -0.292539,-0.175523 z m 0.760602,0.175523 q 0,0.234032 -0.468063,0.468063 v 0.117015 q 0.409555,0 0.409555,0.117016 0.160896,0 0.702094,-0.643586 v -0.05851 q -0.05851,0 -0.05851,0.05851 l -0.409555,-0.05851 z m 0.877617,0.05851 0.117015,0.175524 q 0,0.08776 -0.468062,0.585078 0.102389,0 0.351047,0.117015 0,-0.263285 0.52657,-0.468062 l 0.175524,-0.234031 z m 1.930758,0.936125 v 0.05851 q 0.102388,0 0.292539,-0.292539 0.33642,0 0.877617,-0.702094 h -0.117016 q -0.409554,0 -0.643586,0.468063 -0.04388,0 -0.409554,0.468062 z m -1.34568,0 0.409555,0.05851 h 0.292539 q 0.05851,0 0.760601,-0.877617 h -0.05851 q -0.936125,0.02925 -0.936125,0.409554 -0.468062,0.321793 -0.468062,0.409555 z m 3.159422,-0.351047 -0.05851,0.117016 h 0.05851 l 0.05851,-0.117016 z"
         style="font-family:'Sketch Gothic School';-inkscape-font-specification:'Sketch Gothic School'"
         id="path9130" />
      <path
         d="m 89.021528,62.79482 0.175523,0.234031 v 0.175524 q -0.468062,0.453435 -0.468062,4.505101 0.05851,1.72598 0.05851,2.281805 -0.05851,2.501209 -0.05851,2.92539 0.160896,3.803008 0.409554,3.803008 0.585078,0.468062 1.696727,0.702094 l 0.117015,0.292539 q -0.307166,0.394927 -0.52657,0.994633 -0.438809,0.19015 -2.691359,2.574343 h -0.175524 q -0.175523,-0.380301 -0.760601,-0.585078 -0.599705,-0.482689 -2.223297,-2.047773 0.292539,-0.848364 0.292539,-3.685992 -0.117016,-2.091655 -0.117016,-2.340313 v -2.39882 q 0,-1.638219 -0.292539,-3.7445 0.394928,-1.360307 1.111649,-1.638219 3.100914,-2.047773 3.451961,-2.047773 z m -3.451961,3.451961 q 0.05851,0.102388 0.05851,0.234031 2.003892,-2.106281 2.281804,-2.106281 l 0.05851,0.117015 v 0.05851 q -1.433441,1.316426 -2.340312,2.39882 v 0.234032 h 0.05851 q 2.574344,-2.398821 2.574344,-2.457328 0.05851,-0.599705 0.05851,-0.936125 -1.19941,0.804482 -2.749867,2.457328 z m 0.585078,-1.111649 -0.585078,0.468063 v 0.234031 Q 86.110764,65.19364 86.27166,65.19364 v -0.05851 z m -0.52657,2.515836 v 0.468063 q 1.491949,-1.550457 2.39882,-2.281805 0.117015,0.01463 0.117015,0.117016 v 0.05851 q -2.442701,2.325685 -2.457328,2.515835 v 0.05851 h 0.05851 q 1.082395,-1.331052 2.164789,-2.106281 h 0.05851 l 0.05851,0.117016 v 0.05851 q -1.960012,1.799116 -2.340313,2.340313 v 0.409555 q 2.135535,-2.515836 2.515836,-2.515836 v -1.579711 l 0.05851,-0.117016 h -0.05851 q -1.784488,1.579711 -2.574343,2.457328 z m -0.702094,-1.579711 q -0.175524,0.351047 -0.175524,0.468063 0.292539,2.58897 0.292539,2.866883 -0.05851,1.813742 -0.05851,2.39882 0.175523,4.241816 0.175523,4.505101 -0.117016,0.980006 -0.117016,1.404188 v 0.05851 h 0.05851 q 0.234031,-0.877618 0.234031,-1.111649 -0.175523,-2.998525 -0.292539,-10.180359 l -0.05851,-0.409555 z m 0.760601,3.803008 v 0.117016 l 2.457328,-2.69136 h -0.05851 q -1.799116,1.565084 -2.398821,2.574344 z m 0.05851,0.52657 h 0.05851 q 0.409555,-0.497316 2.340312,-2.515836 v -0.175523 q -1.506576,1.565084 -2.39882,2.691359 z m 0,0.409555 v 3.803008 h 0.117016 q 1.170156,-1.316426 1.989265,-2.047774 h 0.05851 q 0.117016,0.01463 0.117016,0.117016 v 0.05851 q -1.374934,1.287172 -2.223297,2.39882 0.05851,0.102389 0.05851,0.292539 h 0.05851 q 0,-0.146269 2.223296,-2.515836 v -1.05314 q -0.160896,0.01463 -2.047773,1.989265 h -0.117016 l -0.05851,-0.117015 v -0.05851 q 1.491949,-1.608965 2.281804,-2.223297 v -0.936125 l -1.989265,2.340312 q -0.117016,0 -0.117016,-0.117015 v -0.05851 q 0.67284,-0.906871 2.106281,-2.632852 v -0.175523 q -0.760601,0.67284 -2.223297,2.515836 h -0.05851 q -0.117016,0 -0.117016,-0.117016 0.585078,-0.848363 2.340312,-2.808375 h -0.05851 l -1.989266,2.164789 h -0.117016 q -0.117015,0 -0.117015,-0.117015 l 2.281804,-2.515836 h -0.05851 q -2.047774,2.091654 -2.047774,2.281805 h -0.234031 v -0.175524 q 0.07314,-0.160896 2.340312,-2.574344 v -0.234031 q -1.696726,1.696727 -2.39882,2.515836 z m 0.117016,5.148687 h 0.117015 q 0,-0.102388 1.638219,-1.930757 0.117016,0.01463 0.117016,0.117015 v 0.117016 q -1.813742,2.0624 -1.813742,2.223297 l -0.05851,0.292539 q 0.994633,-1.111649 2.164789,-2.281805 0.117015,0 0.117015,0.175524 l -2.106281,2.340312 q -0.234031,0.292539 -0.351047,0.760602 1.799116,-2.091655 2.515836,-2.632852 h 0.05851 v -0.05851 q 0,-0.585078 -0.05851,-1.755234 -2.252551,2.20867 -2.340312,2.632851 z m -0.175524,2.281805 v 0.05851 h 0.05851 q 1.565084,-1.799115 2.340313,-2.574344 h 0.05851 q 0.117016,0.01463 0.117016,0.117016 v 0.05851 q -1.404187,1.462695 -2.281805,2.574343 0.01463,0.117016 0.117016,0.117016 l 2.223297,-2.39882 v -0.117016 l -0.05851,-0.702094 q -2.047773,2.106282 -2.574344,2.866883 z m 0.643586,0.52657 v 0.05851 q 0.102389,0 0.994633,0.585078 1.521203,-1.140902 1.521203,-1.579711 0.08776,0 0.351047,-0.351046 0,-0.117016 -0.117016,-0.117016 l -1.755234,1.813742 h -0.05851 q -0.117015,0 -0.117015,-0.117016 l 1.638218,-1.87225 q 0,-0.117015 -0.117015,-0.117015 h -0.117016 q 0,0.131642 -1.579711,1.813742 h -0.05851 q -0.117015,0 -0.117015,-0.117016 l 1.696726,-1.989265 q -0.05851,-0.102389 -0.05851,-0.234031 h -0.05851 q -0.921498,0.921498 -2.047774,2.223296 z m 3.100914,-1.111648 q -0.01463,0.248658 -1.755234,1.87225 h -0.05851 q 0,0.08776 0.234031,0.175523 0.117016,-0.07313 1.404188,-1.579711 h 0.05851 q 0.117015,0.01463 0.117015,0.117016 l -0.117015,0.175524 v 0.05851 q 0.702093,-0.570451 0.702093,-0.643586 v -0.05851 q -0.175523,0 -0.585078,-0.117016 z m 0.351047,1.111648 v 0.05851 h 0.117016 l 0.351047,-0.351047 h -0.05851 q -0.307166,0.292539 -0.409555,0.292539 z m -4.856148,-0.234031 v 0.05851 q 1.930758,1.989266 2.574343,2.164789 0.117016,-0.380301 0.117016,-0.52657 -1.491949,-0.804483 -2.515836,-1.638219 -0.05851,0 -0.175523,-0.05851 z m 4.212562,0.819109 q -0.921498,1.053141 -1.287172,1.053141 0,0.08776 -0.117015,0.52657 1.38956,-1.521203 1.521203,-1.521203 v -0.05851 z"
         style="font-family:'Sketch Gothic School';-inkscape-font-specification:'Sketch Gothic School'"
         id="path9132" />
      <path
         d="m 97.680683,67.256041 q 0.277913,0.117015 0.994633,1.404187 1.038514,1.287172 1.638214,1.287172 0.35105,0.263285 0.35105,0.585078 -0.19015,6.026304 -0.35105,6.026304 -0.0585,0 -0.0585,0.05851 0.11701,0.190151 0.11701,0.292539 -0.11701,0.570452 -2.983896,2.925391 -0.994632,1.170156 -1.05314,1.170156 -0.541197,-0.01463 -1.228664,-0.643586 -0.789856,-0.789855 -2.223297,-1.696726 -0.936125,-0.277912 -0.936125,-0.702094 v -0.468063 q 0,-0.658212 0.117016,-2.39882 l -0.175524,-2.866883 0.117016,-0.234031 -0.05851,-0.234031 q 0.01463,-0.160897 3.21793,-2.632852 1.857623,-1.667472 2.047773,-1.755234 0.409555,-0.117015 0.468062,-0.117015 z m -0.292539,0.819109 q -1.682099,1.579711 -4.329578,3.627484 -0.05851,0.307166 -0.05851,0.351047 0.965378,-0.848363 2.281804,-1.87225 0,-0.19015 0.292539,-0.351047 h 0.05851 l 0.292539,0.05851 q 1.769861,-1.34568 1.813742,-1.34568 v -0.05851 Q 97.490533,68.07515 97.388144,68.07515 Z m -1.170156,1.989265 0.117016,0.05851 h 0.05851 q 0.307166,0 1.638218,-1.170156 0,-0.117016 -0.117015,-0.117016 h -0.05851 q -1.491949,0.994633 -1.638219,1.228664 z m 0.468063,0.351047 q 0.702093,0.526571 1.111648,1.170157 1.097022,-0.892245 1.696727,-1.170157 v -0.05851 q -0.07314,0 -0.351047,-0.175524 -0.04388,0 -1.34568,0.877617 h -0.175523 q -0.117016,0 -0.117016,-0.117015 0.05851,-0.160897 1.404187,-0.936125 0,-0.08776 -0.351046,-0.351047 -1.067768,0.877617 -1.34568,0.877617 l -0.05851,-0.117016 v -0.05851 l 1.228664,-0.936125 q 0,-0.08776 -0.175523,-0.175524 -0.08776,0 -1.521203,1.170156 z m 2.983898,0.05851 q 0,0.117016 -1.638219,1.287172 v 0.175523 q 0.117016,0.14627 0.117016,0.292539 1.521203,-1.170156 1.638219,-1.170156 l 0.05851,0.117016 v 0.117015 q -1.57971,1.287172 -1.696726,1.287172 v 0.643586 l -0.05851,0.117016 h 0.05851 q 1.755234,-1.374934 1.755234,-1.813742 0.05851,-0.33642 0.05851,-0.936125 z m -5.967797,1.34568 q 0.05851,0.117015 0.05851,0.175523 1.097022,-1.067767 1.34568,-1.228664 h 0.117015 q 0.117016,0.01463 0.117016,0.117016 l -2.281805,2.223297 v 0.05851 q 2.033147,-1.930757 2.223297,-1.930757 h 0.05851 l 0.05851,0.117015 v 0.05851 q -0.950752,0.833736 -2.281805,2.164789 v 0.409555 h 0.05851 q 1.067768,-0.965379 2.106281,-1.989266 0.117016,0.01463 0.117016,0.117016 v 0.117015 q -0.81911,0.892245 -2.223297,2.164789 v 0.468063 q 1.594338,-1.667473 1.930758,-1.87225 0.08776,0 0.175523,0.175523 -2.106281,1.960012 -2.106281,2.340313 v 0.351047 h 0.05851 q 2.106281,-2.106281 2.281804,-2.106281 v -3.042407 q 0,-0.08776 -0.175523,-0.175523 -0.438809,0.277912 -1.638219,1.287172 z m 2.515836,-0.81911 v 0.526571 q 0,0.08776 0.81911,0.702093 h 0.05851 q 0,-0.08776 0.117016,-0.234031 -0.468063,-0.687467 -0.936125,-0.994633 z m 0,0.994633 v 2.808375 q 0,0.277912 -0.175523,0.994633 0.05851,0 0.819109,0.819109 h 0.05851 v -0.877617 q -0.117016,-2.691359 -0.117016,-2.983898 v -0.292539 q 0,-0.08776 -0.52657,-0.468063 z m -2.92539,0.175524 -0.292539,0.351047 v 0.175523 h 0.05851 q 0.08776,0 0.409555,-0.409555 z m 4.095546,0 -0.292539,0.585078 q 0,0.146269 0.117016,3.159422 v 0.05851 l -0.05851,0.292539 q 0.08776,0 0.234031,-0.292539 v -3.393453 l 0.05851,-0.351047 v -0.05851 z m 0.760602,1.579711 v 0.234031 Q 99.90398,72.755775 99.90398,72.34622 v -0.175523 q -0.585078,0.585078 -1.755234,1.579711 z m -5.967797,-1.521204 q 0.117016,1.360307 0.175524,2.983899 -0.117016,1.491949 -0.117016,2.39882 v 0.05851 h 0.05851 q 0.175523,-0.05851 0.175523,-0.351047 v -1.87225 q 0,-0.892244 -0.175523,-3.21793 z m 5.967797,2.106282 v 0.468062 l -0.05851,0.117016 h 0.117016 q 0,-0.05851 1.638218,-1.638219 v -0.234031 h -0.05851 q -1.521203,1.287172 -1.638219,1.287172 z m -0.05851,1.462695 q 1.755234,-1.301799 1.755234,-1.813742 v -0.234031 q -1.696726,1.433441 -1.696726,1.696726 z m -4.914656,0.52657 v 0.468063 q 2.077027,-1.930758 2.281805,-1.930758 0,0.05851 0.05851,0.05851 v -0.81911 q -0.08776,0 -2.340312,2.223297 z m 4.914656,-0.117015 v 0.292539 h 0.05851 q 1.214037,-1.228664 1.638219,-1.228664 V 74.74504 Z m -4.914656,1.05314 v 0.117016 q 0,0.07313 0.351047,0.292539 1.813742,-1.696727 1.813742,-1.87225 0,-0.321793 0.117016,-0.585078 h -0.05851 q -1.404188,1.155529 -2.223297,2.047773 z m 4.856148,-0.234031 q 0.05851,0.117016 0.05851,0.175523 -0.05851,0 -0.05851,0.05851 h 0.05851 q 1.418815,-1.170156 1.638219,-1.462695 V 75.56415 q -1.53583,1.228664 -1.696727,1.462695 z m -2.574343,-0.819109 q -1.53583,1.462695 -1.638219,1.638218 0,0.08776 0.234031,0.175524 0.453436,-0.585078 1.228664,-1.287172 h 0.05851 q 0.117016,0.01463 0.117016,0.117016 v 0.05851 q -0.687467,0.702094 -1.170157,1.287172 0.263286,0.234031 0.292539,0.234031 0.160897,-0.277912 1.521204,-1.57971 z m 1.696726,0.292539 q 0.05851,0.117015 0.05851,0.175523 l -0.05851,0.292539 0.175524,0.117016 V 76.61729 q 0,-0.117015 -0.117016,-0.117015 z m 2.808375,0.292539 q -2.54509,2.179416 -2.92539,2.749867 -0.234032,0.453435 -0.29254,0.52657 v 0.05851 q 0.994633,-1.082395 2.866883,-2.574344 0.05851,-0.160896 0.468059,-0.702093 z m -3.685992,0.292539 -1.462695,1.521203 0.175523,0.117016 q 0.07314,-0.07314 1.404188,-1.521204 0,-0.117015 -0.117016,-0.117015 z m -1.053141,1.813742 v 0.05851 q 0.351047,0.175523 0.409555,0.175523 l 1.170156,-1.170156 -0.05851,-0.117016 q 0.05851,-0.102388 0.05851,-0.234031 0,-0.08776 -0.175523,-0.175523 -0.08776,0.01463 -1.404188,1.462695 z m -2.92539,-0.819109 v 0.05851 q 0.19015,0 1.228664,0.526571 v -0.05851 q 0,-0.05851 -0.936125,-0.760602 -0.263285,0.117016 -0.292539,0.234032 z m 4.505101,0.351046 h 0.05851 q 0.07313,0 0.468063,-0.468062 v -0.05851 q -0.07314,0 -0.526571,0.52657 z m -0.936125,0.877618 q 0,0.08776 0.351047,0.292539 0,-0.102389 0.409555,-0.760602 -0.05851,-0.117015 -0.05851,-0.175523 0.05851,0 0.05851,-0.05851 h -0.05851 q -0.08776,0 -0.702094,0.702094 z m -2.164789,-0.409555 q 0.789856,0.453435 1.813742,1.404187 0.02925,0 0.351047,0.292539 h 0.234032 v -0.175523 l -2.223297,-1.638219 h -0.05851 q -0.117016,0.01463 -0.117016,0.117016 z"
         style="font-family:'Sketch Gothic School';-inkscape-font-specification:'Sketch Gothic School'"
         id="path9134" />
      <path
         d="m 107.65627,63.65781 h 0.87761 q 0.0878,0 0.23403,0.234031 v 0.117016 q -0.0146,0.14627 -0.87761,0.468062 -0.40956,0.219405 -0.40956,1.989266 0.11702,0.01463 0.11702,0.117016 v 0.05851 q 0,0.117016 -0.17553,0.117016 v 1.053141 l 0.7021,0.05851 h 0.93612 q 0.23403,0.08776 0.23403,0.409554 -0.23403,0.453436 -0.52657,1.579711 -0.11701,0.234031 -0.17552,0.234031 -0.5412,-0.175523 -0.64359,-0.175523 l -0.40955,0.05851 q 0,0.906871 0.0585,2.866882 0,0.160897 -0.11702,1.989266 0.0439,2.281805 0.40956,2.281805 h 0.29254 q 0.71672,0 1.11164,-0.468063 0.13165,0 0.17553,0.643586 l -1.05314,1.521203 q -1.63822,1.813742 -2.57435,1.813742 -1.09702,0 -2.57434,-1.87225 -0.0585,0 -0.0585,-0.05851 v -0.117016 q 0,-1.082395 0.0585,-1.755234 -0.17552,-2.969272 -0.17552,-3.627485 v -2.749867 h -0.52657 l -0.7021,0.05851 -0.11701,-0.175523 q 0,-1.331053 1.17015,-2.457328 h 0.52657 V 66.87574 q 0,-0.906871 0.46807,-1.579711 0.61433,-1.287172 1.63821,-1.287172 0.68747,-0.351047 2.10629,-0.351047 z m -1.17016,0.643586 q 0,0.14627 -1.34568,0.819109 -0.7606,0.585079 -0.7606,0.702094 h 0.0585 q 1.21403,-1.097021 2.63285,-1.462695 l 0.0585,0.117015 -1.98927,1.053141 -0.7606,0.702094 v 0.117015 h 0.11701 q 1.87225,-1.462695 2.28181,-1.462695 l 0.0585,0.117016 -1.98927,1.404187 q -0.30717,0.292539 -0.46806,0.292539 v 0.292539 h 0.0585 q 0.89224,-0.71672 2.51583,-1.696726 0,-0.438809 0.35105,-1.053141 h -0.11702 q -0.0878,0 -0.70209,0.05851 z m -1.87225,0.877617 h 0.0585 q 0.57045,-0.468062 0.7606,-0.468062 v -0.05851 h -0.0585 q -0.36567,0 -0.7606,0.52657 z m -0.23403,2.223297 v 0.175523 l 2.2233,-1.404187 h 0.11701 l 0.11702,0.05851 q 0,-0.307166 0.0585,-0.52657 h -0.0585 q -1.43345,0.789855 -2.45733,1.696726 z m -0.58508,-1.287172 -0.11702,0.936125 q 0.0585,0.365674 0.0585,0.81911 h 0.0585 q 0,-1.038514 0.0585,-1.696727 v -0.05851 z m 0.93613,1.579711 q 0.17552,0 0.17552,0.117016 -0.48269,0.482689 -1.11165,0.760601 0,0.175524 -0.11702,0.175524 -0.0585,0 -0.0585,-0.05851 l -0.99464,0.52657 -0.11701,0.175524 h 0.35105 q 0.39492,0 2.69135,-1.930758 1.17016,-0.643586 1.28718,-0.643586 v -0.468063 q -2.01852,1.228664 -2.10628,1.34568 z m 1.22866,-0.117016 q 0.0585,0.117016 0.0585,0.175524 -0.95075,0.541197 -2.57435,1.638219 v 0.05851 l 0.40956,0.05851 h 0.0585 q 2.25255,-1.594338 2.74986,-1.638218 0.11702,0.05851 0.17553,0.05851 v -0.819109 h -0.0585 q -0.46806,0.219404 -0.81911,0.468062 z m -1.93076,2.457329 h 0.0585 q 1.15553,-0.804483 2.69136,-1.755235 v -0.175523 h -0.0585 q -2.69136,1.345679 -2.69136,1.930758 z m 0,0.409554 v 0.117016 h 0.0585 q 0.7606,-0.585078 2.9839,-1.87225 h 0.0585 q 0.11701,0.01463 0.11701,0.117016 -0.11701,0.204777 -2.74987,1.755234 -0.46806,0.365674 -0.46806,0.409555 v 0.52657 h 0.0585 q 1.98926,-1.784488 2.86688,-1.989266 l 0.11702,0.05851 q 0.35104,-0.585078 1.28717,-0.585078 h 0.11702 v -0.117016 l 0.0585,-0.409554 h -0.35104 q -0.3803,0 -0.76061,-0.05851 -0.65821,0 -3.39345,2.047773 z m -1.11165,-1.696726 h 0.0585 q 0.33642,-0.234032 0.46806,-0.234032 v -0.05851 h -0.29254 q -0.11701,0.02925 -0.23403,0.292539 z m 4.91466,0.877617 v 0.05851 q 0.46806,0 0.64359,0.117015 l 0.0585,-0.117015 v -0.117016 h -0.11701 z m -3.80301,2.164789 v 0.468062 h 0.0585 q 2.64748,-2.047773 2.86688,-2.047773 v -0.468063 q -1.15553,0.570452 -2.86688,2.047774 z m -1.98926,-1.813742 v 0.234031 l 1.28717,-0.117016 q 0,0.05851 0.0585,0.05851 l 0.0585,-0.117015 -0.70209,-0.05851 z m 1.98926,2.632851 0.0585,0.351047 q 2.86688,-2.091654 2.86688,-2.164789 v -0.292539 q -0.9215,0.570451 -2.92539,2.106281 z m -0.70209,-1.813742 0.0585,0.117016 v 1.521203 q 0,1.170156 0.0585,3.510468 h 0.0585 v -1.462695 q 0,-0.555824 -0.0585,-3.7445 z m 0.7606,2.515836 v 0.175523 h 0.0585 q 1.75523,-1.462695 2.45733,-1.696726 l 0.0585,0.117016 q -0.0146,0.08776 -2.16479,1.57971 l -0.40955,0.468063 v 0.468062 q 1.47732,-1.418814 2.57434,-2.164789 h 0.0585 q 0.11702,0.01463 0.11702,0.117016 -1.74061,1.448068 -2.69136,2.340312 l -0.0585,0.117016 v 0.234031 q 2.31106,-2.047773 2.63285,-2.047773 l 0.0585,0.117016 q -1.66747,1.374933 -2.69136,2.340312 v 0.292539 q 1.1409,-1.082394 2.39882,-1.930758 h 0.0585 q 0.11701,0.01463 0.11701,0.117016 l -2.51583,2.047773 h -0.0585 v 1.638219 q 0.11701,0.14627 0.11701,0.234031 0.0878,0 0.17553,-0.175523 l -0.11702,-0.175524 q 1.1409,-1.448068 2.39882,-2.340312 h 0.0585 q 0.11702,0.01463 0.11702,0.117016 v 0.05851 q -1.40419,1.082395 -1.98927,1.87225 h 0.0585 q 1.66747,-1.696726 1.98926,-1.696726 v -0.81911 q -1.21403,0.760602 -2.45732,1.87225 h -0.0585 q -0.11702,0 -0.11702,-0.117015 1.05314,-1.082395 2.63285,-2.106281 0.11702,-0.760602 0.11702,-2.047774 0,-0.175523 -0.0585,-1.111648 -2.09165,1.448068 -2.86688,2.106281 z m 0.17552,4.914656 0.11702,0.05851 q 2.31106,-2.106281 2.57434,-2.106281 v -0.409555 q -0.86299,0.52657 -2.69136,2.457328 z m 0.29254,0.292539 q 0,0.08776 0.23403,0.234031 0.39493,-0.570451 2.2233,-2.047773 v -0.292539 q -0.83374,0.52657 -2.45733,2.106281 z m 0.40956,0.409555 v 0.05851 h 0.0585 q 0.81911,-0.760602 2.10629,-1.755235 v -0.175523 h -0.0585 q -0.90687,0.585078 -2.10628,1.87225 z m 2.2818,-1.462695 q -1.33105,1.009259 -1.93076,1.696726 0,0.08776 0.17553,0.175524 h 0.0585 l 1.87225,-1.755235 v -0.05851 q -0.0585,0 -0.17552,-0.05851 z m -3.7445,0.05851 -0.0585,0.702094 v 0.351047 q 0.0878,0 0.17553,-0.234031 -0.0585,-0.365674 -0.0585,-0.81911 z m 2.34031,1.930758 h 0.23403 q 1.56509,-1.404187 1.69673,-1.404187 l 0.46806,-0.292539 v -0.05851 h -0.35104 q -0.36568,0 -2.04778,1.755234 z m 2.57435,-1.170156 q -1.44807,1.594338 -1.93076,1.755234 h -0.52657 q -0.93613,0 -1.87225,-1.170156 l -0.29254,-0.292539 h -0.0585 v 0.117016 q 0,0.511943 1.34568,1.404187 0.30717,0.234031 0.7606,0.234031 0.98001,0 2.63286,-2.047773 z"
         style="font-family:'Sketch Gothic School';-inkscape-font-specification:'Sketch Gothic School'"
         id="path9136" />
      <path
         d="m 116.91513,67.621714 q 0.2194,0 0.29254,0.760602 0.46806,0.936125 1.11165,0.936125 h 0.29253 q 0.52657,0 0.52657,-0.52657 v -0.05851 q -0.35104,-0.04388 -0.35104,-0.351047 0.0878,-0.234031 0.17552,-0.234031 h 0.11702 q 0.45343,0 0.70209,0.585078 0.11702,0.02925 0.23403,0.292539 -0.19015,0.263285 -0.7606,1.755234 -0.95075,1.228664 -1.81374,1.228664 0,0.117016 -0.40956,0.117016 h -0.35104 q -0.83374,0 -1.4627,-0.643586 v 0.05851 q 0.45344,1.579711 0.99463,1.579711 0.29254,0 1.93076,-0.936125 h 0.17553 q 0.17552,0 0.17552,0.292539 0.19015,-0.117016 0.29254,-0.117016 0.0585,0.117016 0.0585,0.175523 -0.0585,0.117016 -0.0585,0.175524 h 0.0585 q 0.13164,0 0.35104,-0.175524 h 0.11702 q 0.11701,0.01463 0.11701,0.117016 l -0.11701,0.175524 v 0.05851 q 1.03851,0.453436 1.11165,0.643586 0,0.160897 -0.11702,0.351047 0,0.67284 0.11702,3.920023 -2.31106,1.140903 -5.2072,2.457329 -0.67284,0.52657 -0.81911,0.52657 -0.46806,-1.067768 -1.22866,-1.34568 -0.52657,-0.292539 -0.7606,-0.292539 -1.11165,0.07314 -1.11165,0.468063 0.10239,0.263285 0.40955,0.585078 v 0.234031 q 0,0.08776 -0.17552,0.175523 h -0.23403 q -0.64359,-0.658212 -0.64359,-1.111648 -0.0585,0 -0.11701,-0.175523 0,-1.243291 1.17015,-2.457328 0.87762,-0.702094 1.93076,-0.760602 h 0.81911 q 0.3803,0 1.69673,0.409555 v -0.05851 q -0.0585,-1.87225 -0.23404,-1.87225 -1.00925,0.234031 -1.28717,0.234031 h -0.81911 q -1.87225,-0.19015 -2.10628,-1.05314 -0.35104,-0.980006 -0.35104,-1.755235 0,-1.38956 0.8191,-1.638219 0,-0.307166 1.11165,-0.819109 0.77523,-0.658213 3.51047,-1.930758 z m -4.27107,3.334946 h 0.0585 q 1.96001,-1.550457 3.39345,-2.164789 0,-0.131643 0.52657,-0.29254 v -0.117015 q -1.78449,0.67284 -3.92002,2.281805 z m 4.03704,-2.281805 q -0.5412,0.468062 -1.4627,0.819109 v 0.05851 q 0.1609,0 0.35105,0.175524 0,-0.102389 1.22866,-0.81911 v -0.117015 q 0,-0.117016 -0.11701,-0.117016 z m -1.05314,1.34568 0.17552,0.117015 q 0.24866,-0.33642 0.93612,-0.760601 h 0.11702 q 0.11702,0.01463 0.11702,0.117015 -0.99464,0.760602 -0.99464,0.81911 v 0.05851 l 1.28717,-0.936125 -0.35104,-0.292539 q -1.11165,0.628959 -1.28717,0.877618 z m 0.58507,0.52657 0.23404,0.05851 1.22866,-0.877617 q -0.0585,0 -0.17552,-0.05851 -0.87762,0.497316 -1.28718,0.877617 z m -1.46269,-0.702094 h 0.0585 q 0.11701,0 0.11701,-0.117015 h -0.0585 q -0.11701,0.01463 -0.11701,0.117015 z m 2.04777,0.877617 h 0.35105 q 0.49732,0 1.63822,-0.760601 v -0.05851 h -0.7021 q -0.29254,0 -1.28717,0.819109 z m -4.32958,1.053141 v 0.05851 q 1.24329,-0.81911 2.28181,-1.755235 h -0.0585 z m 4.79764,-0.468063 h -0.35104 q -0.86299,0 -1.63822,-0.819109 0,0.33642 -0.0585,0.409555 0.0731,0 0.23403,0.468062 0.48269,0.438809 1.28717,0.526571 1.18479,0 2.16479,-1.053141 0.17553,-0.351047 0.17553,-0.409555 -1.22867,0.877617 -1.81375,0.877617 z m -4.79764,0.936125 v 0.292539 q 0.45344,-0.453435 2.16479,-1.872249 v -0.05851 h -0.0585 q -1.85763,1.360306 -2.10629,1.638218 z m -0.81911,-0.819109 v 0.52657 q 0,1.886877 0.87762,2.340313 0.10239,0 0.46806,0.117015 h 0.0585 v -0.05851 q -1.17015,-0.541198 -1.17015,-1.813743 v -0.292539 q 0,-0.3803 0.17552,-1.521203 -0.40956,0.365674 -0.40956,0.702094 z m 0.87762,1.462695 v 0.117016 h 0.0585 q 1.63822,-1.521203 1.93076,-1.521203 l 0.0585,0.117015 q -1.87225,1.623592 -1.87225,1.696727 v 0.117016 h 0.0585 q 0.9215,-0.906871 1.93076,-1.638219 l -0.0585,-0.292539 v -0.468063 q -1.44807,1.140903 -2.10628,1.87225 z m 0.46806,0.702094 v 0.117016 q 0.17553,0 0.17553,0.117015 0.14627,0 1.75523,-1.404187 -0.11701,-0.234031 -0.11701,-0.351047 h -0.0585 q -0.68747,0.438809 -1.75524,1.521203 z m 0.64359,0.292539 h 0.0585 q 0.35104,0 1.40419,-0.994633 -0.0585,-0.117015 -0.0585,-0.175523 h -0.0585 z m 3.33495,0.117016 q 0.0585,0.117015 0.0585,0.175523 1.28718,-0.994633 1.28718,-1.05314 0,-0.117016 -0.11702,-0.117016 -0.61433,0.438809 -1.22866,0.994633 z m -1.75524,-0.877617 q -0.64358,0.643586 -0.81911,0.643586 v 0.05851 h 0.11702 q 0,-0.04388 0.64358,-0.52657 0.11702,0.01463 0.11702,0.117016 v 0.05851 q 0,0.05851 -0.40956,0.409555 0.20478,0 0.81911,-0.292539 v -0.05851 q -0.14627,0 -0.46806,-0.409554 z m 3.39345,0.117015 -1.46269,1.228664 v 0.117016 h 0.0585 l 1.75523,-1.228664 q -0.23403,-0.117016 -0.35105,-0.117016 z m -1.98926,0.351047 q 0,0.08776 0.17552,0.175524 0.49732,-0.409555 0.58508,-0.409555 v -0.05851 h -0.0585 q -0.52657,0.292539 -0.70209,0.292539 z m 0.58508,1.34568 v 0.175523 q 2.0624,-1.404187 2.2818,-1.404187 v -0.117016 l -0.23403,-0.05851 q -1.43344,0.848364 -2.04777,1.404188 z m 0,0.52657 V 75.7543 q 1.43344,-1.082394 2.51583,-1.638219 v -0.292539 q -1.24329,0.702094 -2.51583,1.638219 z m -2.45733,-0.994633 v 0.05851 h 0.23403 l 1.17016,-0.292539 q 0.16089,0 0.29254,2.223297 -0.0585,0.117015 -0.0585,0.175523 l 0.23403,0.05851 v -1.053141 q 0,-1.57971 -0.46806,-1.57971 h -0.0585 q -0.93613,0.409554 -1.34568,0.409554 z m 3.7445,0.643586 v 0.05851 h 0.0585 q 0.78985,-0.409555 1.17015,-0.52657 0,-0.131643 0.0585,-0.234032 h -0.0585 q -1.15553,0.702094 -1.22866,0.702094 z m -0.7606,0.702094 v 0.05851 h 0.0585 q 0.39493,-0.234032 0.7021,-0.234032 l 0.0585,0.117016 q -0.0146,0.08776 -1.34568,0.643586 v 0.292539 q 0,0.19015 -0.17553,0.409555 h 0.0585 q 0.33642,-0.277912 1.57971,-1.053141 0,-0.08776 0.17553,-0.175523 l 0.11701,0.05851 q 0.52657,-0.29254 0.70209,-0.29254 l 0.0585,0.117016 q 0,0.05851 -1.57971,0.936125 0,0.08776 -0.23403,0.175524 0.0585,0.117015 0.0585,0.175523 l 0.52657,-0.409555 0.17552,0.175524 q 0.68747,-0.409555 0.87762,-0.409555 l 0.0585,0.117016 v 0.05851 q -0.0585,0.14627 -1.34568,0.81911 v 0.05851 h 0.0585 q 0.52657,-0.292539 1.46269,-0.526571 v -1.579711 l -0.0585,-0.409554 q -0.17552,0 -1.98926,0.877617 z m -6.08482,2.340312 -0.0585,-0.117015 v -0.05851 q 0.96538,-0.848363 1.46269,-1.111648 v -0.05851 h -0.0585 q -1.09702,0.3803 -1.5212,1.287172 -0.11701,0.234031 -0.11701,0.351046 0.23403,-0.117015 0.64358,-0.117015 h 0.0585 q 0,-0.307166 1.87225,-1.638219 v -0.05851 h -0.11702 q -0.68746,0.351047 -1.81374,1.34568 -0.2194,0.175523 -0.35105,0.175523 z m 0.64359,0.175524 h 0.17552 q 1.91613,-1.579711 2.10629,-1.579711 v -0.05851 h -0.23404 q -0.68746,0.394928 -2.04777,1.638219 z m 0.52657,0.05851 0.40956,0.117015 q 0.86299,-0.819109 2.04777,-1.638218 -0.29254,0 -0.29254,-0.117016 -0.84836,0.438808 -2.16479,1.638219 z m 0.64359,0.234031 q 0.0878,0 0.23403,0.117015 h 0.11701 q 1.94539,-1.301798 2.34032,-1.638218 -0.0878,0 -0.52657,-0.117016 -1.09703,0.628959 -2.16479,1.638219 z m 2.92539,-1.404188 -2.34032,1.696727 v 0.05851 l 0.29254,0.05851 q 1.81375,-1.038514 1.81375,-1.111649 -0.11702,0 -0.11702,-0.117016 l 0.70209,-0.52657 q -0.26328,0 -0.35104,-0.05851 z m 0.99463,0.175524 q -1.05314,0.819109 -2.2233,1.404187 v 0.05851 h 0.11702 q 0.89224,-0.511943 2.2233,-1.404187 v -0.05851 z m -2.63285,2.574344 v 0.292539 q 0.67284,-0.438809 3.80301,-1.813743 0.0146,-0.04388 1.63822,-0.819109 -0.0585,-0.102389 -0.0585,-0.234031 -1.98927,0.628959 -4.32958,1.930758 -0.83374,0.643586 -1.05314,0.643586 z m 3.15942,-2.515836 -0.70209,0.409554 v 0.05851 h 0.0585 q 0.76061,-0.33642 0.76061,-0.409555 z m -3.39345,1.696726 v 0.117016 l 0.29254,0.05851 q 0.14627,-0.117016 0.23403,-0.117016 l -0.0585,-0.292539 q -0.33642,0.234031 -0.46806,0.234031 z M 111.4739,78.97223 q 0,0.117015 -0.17552,0.117015 v 0.05851 h 0.11701 q 0,-0.117015 0.17553,-0.117015 v -0.05851 z m 1.63822,0.117015 q 0.0146,0.117016 0.11702,0.117016 v -0.117016 z m 0.7606,0.468063 q 0.52657,0.555824 0.52657,0.702094 h 0.0585 q 0,-0.04388 0.0585,-0.351047 -0.0585,0 -0.52657,-0.351047 z"
         style="font-family:'Sketch Gothic School';-inkscape-font-specification:'Sketch Gothic School'"
         id="path9138" />
    </g>
  </g>
</svg>
