<svg height="210mm" style="background:black" viewBox="0 0 297 210" width="297mm" xmlns="http://www.w3.org/2000/svg" xmlns:inkscape="http://www.inkscape.org/namespaces/inkscape">
<g inkscape:groupmode="layer" inkscape:label="gold">
<path d="M328.04312,160.64563 L299,166.52238 L299,163.33914 z M187.89131,225.02917 L187.59488,220 L192.97516,220 z M245.85437,163.84734 L242.11153,161.57529 L245.85437,160.4645 z M302.90164,154.98547 L299,155.1851 L299,154.52599 z M322.04254,117.54499 L299,120.75051 L299,116.7679 z M64.23312,109.38438 L58.420624,111.54063 L59.203075,109.79904 z M174.38,49.25375 L170.76334,46.570415 L172.40727,46.326477 z M146.09465,41.706875 L131.92938,41.706875 L137.32307,39.16029 z M67.0735,41.92825 L62.3863,36.71185 L65.1205,36.13225 z M139.70522,36.608543 L136.46527,35.647015 L139.05722,34.685486 z M-39.069958,77.73945 L-11,75.52391 L-11,88.1525 z M183.0775,-10.699936 L183.53468,-10 L182.7827,-10 z M86.88732,-25.600924 L90.611725,-10 L77.39938,-10 z M299,227.70192 L290.45108,220 L299,220 z M-11,241.40709 L-11,220 L15.365701,220 z M242.07283,183.39871 L237.8525,180.2675 L240.31734,180.10126 L242.34508,183.11015 z M242.71692,176.645 L240.00313,176.645 L238.97989,173.98787 L242.54956,174.78241 z M123.43021,160.37729 L122.465294,162.88297 L121.063416,161.76857 L117.7641,156.1734 z M123.43021,160.37729 L117.7641,156.1734 L112.24368,147.46985 L128.24583,153.23152 z M246.78958,158.81935 L240.57298,159.58807 L233.06314,151.04463 L247.95561,157.79695 z M135.86986,144.58931 L133.85452,144.68275 L132.19064,136.04129 L134.45934,136.21715 z M250.19438,139.31313 L247.12677,148.41699 L245.54161,148.30675 L247.93396,140.31938 z M206.79437,138.70938 L204.16533,140.98505 L200.71649,140.01025 L203.28798,137.40862 z M193.66052,141.15543 L175.26765,153.56117 L189.6498,130.57831 L200.7508,126.68898 z M167.9786,128.22664 L156.19962,142.42793 L155.11278,141.18831 L163.74992,127.30387 z M87.98688,128.44562 L82.016624,133.98256 L75.51438,128.69885 L85.658646,126.71823 z M139.30925,128.17497 L132.17334,129.68765 L132.39471,128.31897 L136.37988,126.54493 z M128.23111,126.48221 L125.78926,128.81154 L124.05357,125.20578 L124.19875,124.48771 z M151.0525,128.61333 L147.77284,126.991135 L148.74687,124.82313 L151.0525,125.16525 z M175.4055,129.1693 L168.57932,128.08401 L167.01926,122.682556 L173.45528,115.78517 z M159.42995,125.55072 L157.74062,124.76736 L157.27618,120.97701 L160.04897,125.09146 z M160.04897,125.09146 L157.27618,120.97701 L157.0949,120.10276 L162.65393,123.88351 z M102.36313,126.030624 L96.938126,124.24174 L96.938126,123.31375 L103.87269,122.67062 z M151.54979,124.10198 L147.73723,122.68764 L153.765,120.89875 L152.43823,123.195625 z M100.13888,119.131775 L96.79497,123.10132 L94.13997,121.889114 L94.119064,121.81156 z M123.15896,117.24271 L119.497086,119.95959 L118.680954,119.11186 L119.045,118.46362 z M66.82002,113.36853 L62.9652,120.232605 L61.40997,120.571976 L62.708336,114.792145 z M241.65968,117.12891 L232.41264,124.370766 L222.21458,121.467415 L237.78468,115.69141 z M258.39276,115.398445 L245.61365,118.18705 L242.54085,116.54051 L242.8993,112.41823 z M62.278404,114.81493 L57.48741,117.353935 L57.188034,116.28776 L59.091217,113.463684 z M113.09445,66.10844 L111.08188,60.135624 L113.003876,60.365623 L114.43375,62.13375 z M120.265625,64.24687 L117.89219,62.48594 L119.39375,59.14375 L120.265625,61.73125 z M61.81125,53.781876 L55.233437,52.5618 L63.031876,49.958126 L62.172916,53.781876 z M204.76,50.930832 L203.96028,51.260468 L202.32233,48.01977 L204.76,48.677444 z M208.22812,50.073124 L204.76,50.930832 L204.76,48.677444 L207.54031,49.0525 z M126.16122,55.564087 L124.57683,54.57418 L122.10541,48.549374 L127.51187,48.549374 z M250.418,46.171246 L236.4428,65.42741 L233.93233,61.61622 L248.82152,45.045982 z M222.37946,49.18375 L215.70042,47.531944 L217.72575,45.0275 L218.45813,45.0275 z M212.07275,49.017147 L209.31313,46.457813 L212.62625,45.22875 L212.70763,45.248875 z M177.84677,48.051544 L174.45808,45.896534 L175.92899,44.25957 L177.58568,46.30818 z M178.1436,45.480312 L177.58568,46.30818 L175.92899,44.25957 L176.34656,42.81375 z M246.38588,44.28233 L232.07727,56.667744 L232.25014,47.04774 L233.25484,37.97844 z M192.3074,46.290447 L187.95586,44.931046 L186.89589,40.605698 L189.9575,41.06 z M123.29614,43.754074 L118.12495,39.91738 L119.26385,36.295994 L124.002846,43.328056 z M210.5316,42.288265 L205.43813,40.39875 L210.37279,40.39875 L211.04634,41.698048 z M131.17136,41.644386 L125.73235,41.19601 L121.3372,31.413237 L129.07033,35.149277 z M255.6771,34.38052 L248.07773,28.229723 L240.52625,15.90375 L256.9957,34.232635 z M243.95563,184.42188 L241.16615,185.0132 L242.07283,183.39871 L242.34508,183.11015 L243.95563,182.31354 z M251.15514,184.59744 L246.45372,183.32903 L246.24464,182.8016 L247.96889,180.88269 L249.87737,180.48936 z M241.16615,185.0132 L233.5125,191.63812 L237.3439,180.2675 L237.8525,180.2675 L242.07283,183.39871 z M242.34508,183.11015 L240.31734,180.10126 L242.94049,179.51738 L244.1471,182.20305 L243.95563,182.31354 z M246.24464,182.8016 L244.1471,182.20305 L242.94049,179.51738 L243.86087,178.74916 L247.96889,180.88269 z M240.00313,176.645 L236.43774,178.4967 L236.09554,176.0847 L238.33687,173.59032 L238.97989,173.98787 z M246.12563,176.14188 L243.98468,177.73032 L242.71692,176.645 L242.54956,174.78241 L243.29688,174.04312 z M246.12563,176.14188 L243.29688,174.04312 L247.32875,169.18211 L247.90808,169.1274 L247.4683,175.32681 z M236.09554,176.0847 L227.73875,171.74457 L231.23312,169.02234 L237.38774,169.71721 L238.33687,173.59032 z M221.8205,176.25508 L203.0749,184.59988 L219.21407,164.92796 L222.73196,166.95801 L227.40938,171.91562 z M228.7466,160.26431 L222.73196,166.95801 L219.21407,164.92796 L219.51213,163.60112 L224.75243,152.64412 z M237.38774,169.71721 L231.23312,169.02234 L230.17574,162.61548 L239.83372,163.45848 L241.49312,168.62938 z M251.04352,168.04733 L245.85437,163.84734 L245.85437,160.4645 L245.87033,160.4562 L255.22757,167.39868 z M214.19215,152.69946 L205.16687,154.47198 L205.16687,141.72812 L209.83075,141.26675 L211.39348,143.70158 z M247.93396,140.31938 L245.54161,148.30675 L232.5912,148.74348 L234.50624,144.41919 L246.93938,140.31938 z M216.073,139.36171 L211.39348,143.70158 L209.83075,141.26675 L209.83377,141.25648 L214.05785,139.06268 z M246.93938,140.31938 L234.50624,144.41919 L236.46567,137.56572 L237.3678,136.33165 L244.3625,138.4075 z M214.05785,139.06268 L209.83377,141.25648 L208.57541,138.2689 L209.07697,137.20569 L211.1533,136.6922 z M249.245,138.4075 L244.3625,138.4075 L237.3678,136.33165 L239.08257,132.6884 L247.56754,136.22949 z M206.79437,138.70938 L203.28798,137.40862 L204.53539,134.07681 L209.07697,137.20569 L208.57541,138.2689 z M250.34402,139.22292 L249.245,138.4075 L247.56754,136.22949 L250.60297,134.82195 L252.85881,139.28511 z M189.6498,130.57831 L175.26765,153.56117 L174.74487,154.0239 L176.27419,131.33076 L187.76573,129.90977 z M88.94361,140.88014 L82.016624,133.98256 L87.98688,128.44562 L88.48417,128.44562 L92.19973,131.75368 z M187.76573,129.90977 L176.27419,131.33076 L175.93188,129.69409 L179.58441,127.92674 L187.09236,129.31935 z M92.19973,131.75368 L88.48417,128.44562 L90.309456,126.41426 L91.09118,126.31759 L93.95438,129.15 z M187.09236,129.31935 L179.58441,127.92674 L181.6573,126.631615 L182.43427,126.35712 L185.03064,126.69706 z M112.78158,139.06564 L101.953674,128.07228 L102.36313,126.99215 L109.809074,126.37833 L112.46931,129.56665 z M124.932724,136.11977 L121.350624,137.31572 L121.350624,126.70985 L124.05357,125.20578 L125.78926,128.81154 z M118.82307,126.78989 L113.68781,128.05989 L114.81644,126.29212 L115.520905,125.89007 L118.95458,126.39958 z M144.15257,127.093475 L139.96988,128.02446 L140.47008,126.04513 L142.62363,124.09227 L143.4575,124.77281 z M136.37988,126.54493 L132.39471,128.31897 L130.816,125.13973 L131.3765,121.53572 L136.32861,126.259636 z M145.22063,127.489685 L144.15257,127.093475 L143.4575,124.77281 L146.17,125.27594 L146.64803,126.87192 z M96.34907,128.32999 L93.95438,129.15 L91.09118,126.31759 L91.84346,124.55014 L96.06573,125.176674 z M118.95458,126.39958 L115.520905,125.89007 L117.12466,124.25398 L119.4204,124.140434 L119.6188,125.90678 z M147.77284,126.991135 L146.64803,126.87192 L146.17,125.27594 L147.641,124.00265 L148.74687,124.82313 z M154.03625,125.44365 L151.14182,125.08573 L151.54979,124.10198 L152.43823,123.195625 L154.03625,124.97406 z M155.3925,126.61761 L154.03625,125.44365 L154.03625,124.97406 L155.25688,123.61562 L155.88538,125.94718 z M86.50733,126.26846 L83.62314,117.70894 L84.34309,118.202 L88.057915,122.33625 L87.51376,125.96978 z M154.03625,124.97406 L152.43823,123.195625 L153.765,120.89875 L156.03363,119.00517 L155.25688,123.61562 z M115.520905,125.89007 L114.81644,126.29212 L112.99004,123.24322 L115.811874,122.862564 L117.12466,124.25398 z M109.80877,126.37708 L104.45278,121.961754 L105.018875,119.96672 L110.60864,121.15165 L111.8001,122.831215 z M100.13888,119.131775 L94.119064,121.81156 L93.65659,121.16344 L101.23692,108.790375 L103.10906,116.70772 z M115.60013,120.999374 L110.94449,120.999374 L112.9159,119.21168 L115.824104,118.623215 L116.175735,118.86404 z M115.824104,118.623215 L112.9159,119.21168 L103.40668,90.99073 L110.31468,90.85736 L110.835594,90.86457 z M123.15896,117.24271 L119.045,118.46362 L119.045,90.63559 L122.84382,90.423676 L135.58391,111.97498 z M62.708336,114.792145 L61.40997,120.571976 L57.050854,122.05046 L57.48741,117.353935 L62.278404,114.81493 z M241.65968,117.12891 L237.78468,115.69141 L241.81976,111.20077 L242.8993,112.41823 L242.54085,116.54051 z M55.83923,112.46302 L52.470078,111.3268 L52.93692,109.872055 L55.95449,109.69984 L57.808735,111.901 z M50.879875,112.50662 L47.94736,110.02007 L52.3175,108.72312 L52.93692,109.872055 L52.470078,111.3268 z M123.44935,90.144966 L116.11211,62.92617 L117.89219,62.48594 L120.265625,64.24687 L133.68817,85.82399 z M133.68817,85.82399 L120.265625,64.24687 L120.265625,61.73125 L147.42076,71.80493 L149.72878,79.926575 z M113.81687,55.450302 L110.18005,59.947445 L89.57257,60.349796 L90.028244,59.875393 L113.41343,54.918163 z M113.41343,54.918163 L90.028244,59.875393 L101.15865,47.112957 L109.02428,47.44173 L112.890396,51.425632 z M120.75549,53.97862 L114.80672,55.744064 L113.81687,55.450302 L113.41343,54.918163 L112.890396,51.425632 z M64.74454,55.212856 L62.172916,53.781876 L63.031876,49.958126 L63.743908,49.58078 L65.994156,52.585957 z M170.69685,54.4606 L149.38153,52.027588 L150.40427,48.809254 L152.28055,45.81495 L168.05637,51.277107 z M127.51187,48.549374 L122.10541,48.549374 L121.72013,47.72755 L127.108986,46.804893 L127.873695,47.296616 z M214.79625,47.845 L212.83795,51.477318 L212.07275,49.017147 L212.70763,45.248875 L213.28537,45.22939 z M174.38,49.25375 L172.40727,46.326477 L173.14,46.03375 L173.65666,46.03375 L176.0075,51.26625 z M144.89667,61.613895 L130.63298,47.18288 L132.59567,43.854443 L150.40427,48.809254 L149.38153,52.027588 z M185.08205,46.079487 L181.18216,54.181194 L180.39587,51.59768 L180.9239,45.329376 L181.16125,44.625 z M185.08205,46.079487 L181.16125,44.625 L181.16125,42.41125 L182.48503,42.270943 L185.98169,45.18952 z M180.9239,45.329376 L178.44875,45.329376 L178.44875,41.405 L181.16125,42.41125 L181.16125,44.625 z M178.44875,45.329376 L178.1436,45.480312 L176.34656,42.81375 L176.70824,40.667084 L178.44875,41.405 z M212.62625,45.22875 L209.31313,46.457813 L207.96695,46.520237 L205.53676,44.58841 L210.35938,42.799374 z M187.95586,44.931046 L185.98169,45.18952 L182.48503,42.270943 L186.4284,40.369217 L186.89589,40.605698 z M121.65514,44.993324 L117.59572,40.97755 L118.12495,39.91738 L123.29614,43.754074 L122.63723,44.35576 z M210.37279,40.39875 L205.43813,40.39875 L200.92348,39.39388 L204.30989,21.806387 L208.80559,25.282837 z M192.25237,40.20868 L189.9575,41.06 L186.89589,40.605698 L186.4284,40.369217 L184.0772,15.946875 z M67.0735,41.92825 L65.1205,36.13225 L87.36787,19.626139 L73.70817,43.87683 L68.36738,44.16819 z M146.83217,41.896286 L139.70522,36.608543 L139.05722,34.685486 L139.50351,34.307068 L147.3612,42.08028 z M253.31375,34.965 L239.07312,34.965 L239.55037,27.175262 L248.07773,28.229723 L255.6771,34.38052 z M232.00125,25.88 L229.19324,36.296803 L222.25995,34.68928 L221.83801,34.49311 L215.89143,29.864147 z M248.07773,28.229723 L239.55037,27.175262 L238.5253,18.619356 L239.28728,14.167401 L240.52625,15.90375 z M245.90224,184.21555 L243.95563,184.42188 L243.95563,182.31354 L244.1471,182.20305 L246.24464,182.8016 L246.45372,183.32903 z M247.96889,180.88269 L243.86087,178.74916 L244.05327,178.15437 L249.02591,178.15437 L250.50163,179.93356 L249.87737,180.48936 z M249.02591,178.15437 L244.05327,178.15437 L243.98468,177.73032 L246.12563,176.14188 L247.4683,175.32681 L249.18687,176.60187 z M227.40938,171.91562 L222.73196,166.95801 L228.7466,160.26431 L230.17574,162.61548 L231.23312,169.02234 L227.73875,171.74457 z M245.85437,160.4645 L242.11153,161.57529 L241.52501,161.47166 L240.57298,159.58807 L246.78958,158.81935 L245.87033,160.4562 z M132.27917,154.3695 L128.24583,153.23152 L112.24368,147.46985 L109.57249,146.16599 L113.33998,141.64767 L133.4463,144.8443 z M224.74971,152.62694 L214.19215,152.69946 L211.39348,143.70158 L216.073,139.36171 L220.76375,139.21669 L228.37074,150.26933 z M209.83075,141.26675 L205.16687,141.72812 L204.16533,140.98505 L206.79437,138.70938 L208.57541,138.2689 L209.83377,141.25648 z M246.93938,140.31938 L244.3625,138.4075 L249.245,138.4075 L250.34402,139.22292 L250.19438,139.31313 L247.93396,140.31938 z M216.073,139.36171 L214.05785,139.06268 L211.1533,136.6922 L218.46251,127.81826 L220.76375,133.03525 L220.76375,139.21669 z M203.28798,137.40862 L200.71649,140.01025 L193.66052,141.15543 L200.7508,126.68898 L201.43698,126.15867 L204.53539,134.07681 z M250.60297,134.82195 L247.56754,136.22949 L239.08257,132.6884 L239.56125,128.42662 L246.27951,127.079445 L254.70303,126.91279 z M145.22063,136.9177 L142.16504,136.13052 L139.72601,128.2889 L139.96988,128.02446 L144.15257,127.093475 L145.22063,127.489685 z M88.48417,128.44562 L87.98688,128.44562 L85.658646,126.71823 L86.50733,126.26846 L87.51376,125.96978 L90.309456,126.41426 z M120.888565,137.51712 L113.637985,141.19423 L112.78158,139.06564 L112.46931,129.56665 L113.68781,128.05989 L118.82307,126.78989 z M120.888565,137.51712 L118.82307,126.78989 L118.95458,126.39958 L119.6188,125.90678 L121.350624,126.70985 L121.350624,137.31572 z M159.58557,126.93625 L155.3925,130.33006 L155.3925,126.61761 L155.88538,125.94718 L157.74062,124.76736 L159.42995,125.55072 z M167.9786,128.22664 L163.74992,127.30387 L163.44711,126.93625 L163.65895,124.1072 L167.01926,122.682556 L168.57932,128.08401 z M109.809074,126.37833 L102.36313,126.99215 L102.36313,126.030624 L103.87269,122.67062 L104.45278,121.961754 L109.80877,126.37708 z M163.44711,126.93625 L159.58557,126.93625 L159.42995,125.55072 L160.04897,125.09146 L162.65393,123.88351 L163.65895,124.1072 z M128.23111,126.48221 L124.19875,124.48771 L124.19875,122.27091 L130.99544,119.06192 L131.3765,121.53572 L130.816,125.13973 z M138.16812,124.62187 L136.32861,126.259636 L131.3765,121.53572 L130.99544,119.06192 L135.763,112.23141 L136.70361,112.66961 z M90.309456,126.41426 L87.51376,125.96978 L88.057915,122.33625 L91.76377,124.23975 L91.84346,124.55014 L91.09118,126.31759 z M140.47008,126.04513 L138.16812,124.62187 L136.70361,112.66961 L138.1147,113.199234 L142.35289,119.67314 L142.62363,124.09227 z M181.6573,126.631615 L179.58441,127.92674 L175.93188,129.69409 L175.4055,129.1693 L173.45528,115.78517 L174.78688,111.33938 z M146.17,125.27594 L143.4575,124.77281 L142.62363,124.09227 L142.35289,119.67314 L147.4109,122.72223 L147.641,124.00265 z M119.4204,124.140434 L117.12466,124.25398 L115.811874,122.862564 L116.31062,121.75244 L120.33909,121.20901 L122.19928,122.22595 z M91.76377,124.23975 L88.057915,122.33625 L84.34309,118.202 L93.65659,121.16344 L94.119064,121.81156 L94.13997,121.889114 z M120.33909,121.20901 L116.31062,121.75244 L115.60013,120.999374 L116.175735,118.86404 L118.680954,119.11186 L119.497086,119.95959 z M246.27951,127.079445 L239.56125,128.42662 L232.41264,124.370766 L241.65968,117.12891 L242.54085,116.54051 L245.61365,118.18705 z M118.680954,119.11186 L116.175735,118.86404 L115.824104,118.623215 L110.835594,90.86457 L119.045,90.63559 L119.045,118.46362 z M55.61677,123.34451 L52.605026,114.406425 L55.23445,114.70656 L57.188034,116.28776 L57.48741,117.353935 L57.050854,122.05046 z M62.278404,114.81493 L59.091217,113.463684 L59.017376,112.58713 L71.11125,110.3439 L66.82002,113.36853 L62.708336,114.792145 z M55.23445,114.70656 L52.605026,114.406425 L50.29147,113.67078 L50.879875,112.50662 L52.470078,111.3268 L55.83923,112.46302 z M71.11125,110.3439 L59.017376,112.58713 L58.149376,111.94312 L58.420624,111.54063 L64.23312,109.38438 L76.141785,107.77793 z M57.808735,111.901 L55.95449,109.69984 L57.662045,108.274574 L59.203075,109.79904 L58.420624,111.54063 L58.149376,111.94312 z M55.95449,109.69984 L52.93692,109.872055 L52.3175,108.72312 L47.192135,80.83674 L61.86411,81.77445 L57.662045,108.274574 z M147.42076,71.80493 L120.265625,61.73125 L119.39375,59.14375 L119.40401,59.014374 L126.451836,55.839603 L144.77786,62.00062 z M117.01063,59.014374 L113.003876,60.365623 L111.08188,60.135624 L110.18005,59.947445 L113.81687,55.450302 L114.80672,55.744064 z M170.69685,54.4606 L168.05637,51.277107 L171.0061,49.40124 L176.1123,51.42176 L181.20755,54.605213 L184.54597,61.8 z M81.92364,53.324623 L65.994156,52.585957 L63.743908,49.58078 L65.92629,44.723213 L68.36738,44.16819 L73.70817,43.87683 z M120.75549,53.97862 L112.890396,51.425632 L109.02428,47.44173 L111.03864,46.84956 L114.66902,47.148838 L122.50873,54.12871 z M203.96028,51.260468 L200.51726,56.795216 L190.58994,58.043594 L194.8847,47.953213 L198.45679,45.56151 L202.32233,48.01977 z M122.50873,54.12871 L114.66902,47.148838 L120.50574,46.869453 L121.72013,47.72755 L122.10541,48.549374 L124.57683,54.57418 z M171.0061,49.40124 L168.05637,51.277107 L152.28055,45.81495 L152.91461,44.316994 L155.42188,41.717773 L168.955,46.738125 z M63.031876,49.958126 L55.233437,52.5618 L25.650757,58.04891 L48.652122,41.20501 L65.92629,44.723213 L63.743908,49.58078 z M229.80647,58.176613 L213.75348,54.526688 L212.75618,52.87273 L212.83795,51.477318 L214.79625,47.845 L215.55576,47.6035 z M229.80647,58.176613 L215.55576,47.6035 L215.70042,47.531944 L222.37946,49.18375 L231.84308,57.857243 L231.8827,58.665638 z M176.1123,51.42176 L171.0061,49.40124 L168.955,46.738125 L170.76334,46.570415 L174.38,49.25375 L176.0075,51.26625 z M215.55576,47.6035 L214.79625,47.845 L213.28537,45.22939 L215.30214,44.599365 L217.72575,45.0275 L215.70042,47.531944 z M127.108986,46.804893 L121.72013,47.72755 L120.50574,46.869453 L121.65514,44.993324 L122.63723,44.35576 L127.06537,46.546024 z M180.39587,51.59768 L177.84677,48.051544 L177.58568,46.30818 L178.1436,45.480312 L178.44875,45.329376 L180.9239,45.329376 z M127.06537,46.546024 L122.63723,44.35576 L123.29614,43.754074 L124.002846,43.328056 L124.48043,43.23947 L127.303055,44.077152 z M222.37946,49.18375 L218.45813,45.0275 L219.62224,43.300106 L232.25014,47.04774 L232.07727,56.667744 L231.84308,57.857243 z M120.50574,46.869453 L114.66902,47.148838 L111.03864,46.84956 L111.49051,46.356533 L117.59572,40.97755 L121.65514,44.993324 z M232.25014,47.04774 L219.62224,43.300106 L222.25995,34.68928 L229.19324,36.296803 L233.23283,37.853745 L233.25484,37.97844 z M127.303055,44.077152 L124.48043,43.23947 L125.73235,41.19601 L131.17136,41.644386 L131.37878,41.91113 L131.40509,42.555428 z M246.38588,44.28233 L233.25484,37.97844 L233.23283,37.853745 L239.07312,34.965 L253.31375,34.965 L247.85504,44.16957 z M124.002846,43.328056 L119.26385,36.295994 L119.88123,30.493893 L121.3372,31.413237 L125.73235,41.19601 L124.48043,43.23947 z M214.56519,41.04536 L211.04634,41.698048 L210.37279,40.39875 L208.80559,25.282837 L215.89143,29.864147 L221.83801,34.49311 z M65.92629,44.723213 L48.652122,41.20501 L50.77436,35.754593 L62.3863,36.71185 L67.0735,41.92825 L68.36738,44.16819 z M146.09465,41.706875 L137.32307,39.16029 L134.05026,35.922672 L136.46527,35.647015 L139.70522,36.608543 L146.83217,41.896286 z M140.37688,30.158958 L132.7168,35.368637 L129.07033,35.149277 L121.3372,31.413237 L119.88123,30.493893 L118.955246,29.275988 z M239.07312,34.965 L233.23283,37.853745 L229.19324,36.296803 L232.00125,25.88 L238.5253,18.619356 L239.55037,27.175262 z M140.37688,30.158958 L118.955246,29.275988 L115.96291,26.447126 L105.15277,15.271118 L142.8211,29.244856 L141.49094,29.883438 z M234.5847,178.83786 L221.8205,176.25508 L227.40938,171.91562 L227.73875,171.74457 L236.09554,176.0847 L236.43774,178.4967 L236.25514,178.93701 z M242.54956,174.78241 L238.97989,173.98787 L238.33687,173.59032 L237.38774,169.71721 L241.49312,168.62938 L247.32875,169.18211 L243.29688,174.04312 z M121.063416,161.76857 L79.10417,166.21587 L93.85585,151.5625 L95.626625,150.88808 L109.57249,146.16599 L112.24368,147.46985 L117.7641,156.1734 z M140.5716,168.00983 L123.90951,164.8474 L122.465294,162.88297 L123.43021,160.37729 L128.24583,153.23152 L132.27917,154.3695 L154.37442,163.2687 z M228.37074,150.26933 L220.76375,139.21669 L220.76375,133.03525 L236.46567,137.56572 L234.50624,144.41919 L232.5912,148.74348 L231.17793,149.60353 z M109.57249,146.16599 L95.626625,150.88808 L98.9725,128.54625 L101.953674,128.07228 L112.78158,139.06564 L113.637985,141.19423 L113.33998,141.64767 z M98.9725,128.54625 L95.626625,150.88808 L93.85585,151.5625 L88.94361,140.88014 L92.19973,131.75368 L93.95438,129.15 L96.34907,128.32999 z M142.16504,136.13052 L134.45934,136.21715 L132.19064,136.04129 L129.22758,135.58867 L132.17334,129.68765 L139.30925,128.17497 L139.72601,128.2889 z M154.35376,140.49402 L145.22063,136.9177 L145.22063,127.489685 L146.64803,126.87192 L147.77284,126.991135 L151.0525,128.61333 L154.1552,132.83368 z M163.74992,127.30387 L155.11278,141.18831 L154.35376,140.49402 L154.1552,132.83368 L155.3925,130.33006 L159.58557,126.93625 L163.44711,126.93625 z M129.22758,135.58867 L124.932724,136.11977 L125.78926,128.81154 L128.23111,126.48221 L130.816,125.13973 L132.39471,128.31897 L132.17334,129.68765 z M154.1552,132.83368 L151.0525,128.61333 L151.0525,125.16525 L151.14182,125.08573 L154.03625,125.44365 L155.3925,126.61761 L155.3925,130.33006 z M139.30925,128.17497 L136.37988,126.54493 L136.32861,126.259636 L138.16812,124.62187 L140.47008,126.04513 L139.96988,128.02446 L139.72601,128.2889 z M98.9725,128.54625 L96.34907,128.32999 L96.06573,125.176674 L96.938126,124.24174 L102.36313,126.030624 L102.36313,126.99215 L101.953674,128.07228 z M121.350624,126.70985 L119.6188,125.90678 L119.4204,124.140434 L122.19928,122.22595 L124.19875,122.27091 L124.19875,124.48771 L124.05357,125.20578 z M113.68781,128.05989 L112.46931,129.56665 L109.809074,126.37833 L109.80877,126.37708 L111.8001,122.831215 L112.99004,123.24322 L114.81644,126.29212 z M85.658646,126.71823 L75.51438,128.69885 L75.06126,128.4729 L76.05329,120.90229 L80.12989,115.02118 L83.62314,117.70894 L86.50733,126.26846 z M157.74062,124.76736 L155.88538,125.94718 L155.25688,123.61562 L156.03363,119.00517 L156.13844,118.88625 L157.0949,120.10276 L157.27618,120.97701 z M151.0525,125.16525 L148.74687,124.82313 L147.641,124.00265 L147.4109,122.72223 L147.73723,122.68764 L151.54979,124.10198 L151.14182,125.08573 z M96.06573,125.176674 L91.84346,124.55014 L91.76377,124.23975 L94.13997,121.889114 L96.79497,123.10132 L96.938126,123.31375 L96.938126,124.24174 z M75.06126,128.4729 L38.188507,140.94456 L55.61677,123.34451 L57.050854,122.05046 L61.40997,120.571976 L62.9652,120.232605 L76.05329,120.90229 z M103.87269,122.67062 L96.938126,123.31375 L96.79497,123.10132 L100.13888,119.131775 L103.10906,116.70772 L105.018875,119.96672 L104.45278,121.961754 z M115.811874,122.862564 L112.99004,123.24322 L111.8001,122.831215 L110.60864,121.15165 L110.94449,120.999374 L115.60013,120.999374 L116.31062,121.75244 z M76.05329,120.90229 L62.9652,120.232605 L66.82002,113.36853 L71.11125,110.3439 L76.141785,107.77793 L81.29037,105.64588 L80.12989,115.02118 z M57.188034,116.28776 L55.23445,114.70656 L55.83923,112.46302 L57.808735,111.901 L58.149376,111.94312 L59.017376,112.58713 L59.091217,113.463684 z M117.89219,62.48594 L116.11211,62.92617 L114.43375,62.13375 L113.003876,60.365623 L117.01063,59.014374 L119.40401,59.014374 L119.39375,59.14375 z M61.86411,81.77445 L47.192135,80.83674 L43.856586,80.42428 L61.81125,53.781876 L62.172916,53.781876 L64.74454,55.212856 L67.86926,81.87383 z M67.86926,81.87383 L64.74454,55.212856 L65.994156,52.585957 L81.92364,53.324623 L82.50291,53.808125 L89.109604,60.652065 L80.42143,82.870415 z M213.75348,54.526688 L205.80319,57.01721 L200.51726,56.795216 L203.96028,51.260468 L204.76,50.930832 L208.22812,50.073124 L212.75618,52.87273 z M144.77786,62.00062 L126.451836,55.839603 L126.16122,55.564087 L127.51187,48.549374 L127.873695,47.296616 L130.63298,47.18288 L144.89667,61.613895 z M212.75618,52.87273 L208.22812,50.073124 L207.54031,49.0525 L207.96695,46.520237 L209.31313,46.457813 L212.07275,49.017147 L212.83795,51.477318 z M207.54031,49.0525 L204.76,48.677444 L202.32233,48.01977 L198.45679,45.56151 L200.04422,43.42409 L205.53676,44.58841 L207.96695,46.520237 z M248.82152,45.045982 L233.93233,61.61622 L231.8827,58.665638 L231.84308,57.857243 L232.07727,56.667744 L246.38588,44.28233 L247.85504,44.16957 z M130.63298,47.18288 L127.873695,47.296616 L127.108986,46.804893 L127.06537,46.546024 L127.303055,44.077152 L131.40509,42.555428 L132.59567,43.854443 z M172.40727,46.326477 L170.76334,46.570415 L168.955,46.738125 L155.42188,41.717773 L163.63463,27.541441 L171.125,35.56875 L173.14,46.03375 z M174.45808,45.896534 L173.65666,46.03375 L173.14,46.03375 L171.125,35.56875 L176.70824,40.667084 L176.34656,42.81375 L175.92899,44.25957 z M217.72575,45.0275 L215.30214,44.599365 L214.56519,41.04536 L221.83801,34.49311 L222.25995,34.68928 L219.62224,43.300106 L218.45813,45.0275 z M192.3074,46.290447 L189.9575,41.06 L192.25237,40.20868 L199.99678,41.418335 L200.04422,43.42409 L198.45679,45.56151 L194.8847,47.953213 z M210.35938,42.799374 L205.53676,44.58841 L200.04422,43.42409 L199.99678,41.418335 L200.92348,39.39388 L205.43813,40.39875 L210.5316,42.288265 z M117.59572,40.97755 L111.49051,46.356533 L115.96291,26.447126 L118.955246,29.275988 L119.88123,30.493893 L119.26385,36.295994 L118.12495,39.91738 z M137.32307,39.16029 L131.92938,41.706875 L131.37878,41.91113 L131.17136,41.644386 L129.07033,35.149277 L132.7168,35.368637 L134.05026,35.922672 z M139.05722,34.685486 L136.46527,35.647015 L134.05026,35.922672 L132.7168,35.368637 L140.37688,30.158958 L141.49094,29.883438 L139.50351,34.307068 z M247.32875,169.18211 L241.49312,168.62938 L239.83372,163.45848 L241.52501,161.47166 L242.11153,161.57529 L245.85437,163.84734 L251.04352,168.04733 L247.90808,169.1274 z M154.37442,163.2687 L132.27917,154.3695 L133.4463,144.8443 L133.85452,144.68275 L135.86986,144.58931 L163.45944,153.018 L170.23796,161.15741 L170.35071,162.4696 z M163.45944,153.018 L135.86986,144.58931 L134.45934,136.21715 L142.16504,136.13052 L145.22063,136.9177 L154.35376,140.49402 L155.11278,141.18831 L156.19962,142.42793 z M211.1533,136.6922 L209.07697,137.20569 L204.53539,134.07681 L201.43698,126.15867 L204.64124,121.22109 L209.9109,114.233444 L217.4855,120.25887 L218.46251,127.81826 z M187.76573,129.90977 L187.09236,129.31935 L185.03064,126.69706 L185.08145,126.663124 L204.64124,121.22109 L201.43698,126.15867 L200.7508,126.68898 L189.6498,130.57831 z M153.765,120.89875 L147.73723,122.68764 L147.4109,122.72223 L142.35289,119.67314 L138.1147,113.199234 L156.46878,114.8013 L156.13844,118.88625 L156.03363,119.00517 z M93.65659,121.16344 L84.34309,118.202 L83.62314,117.70894 L80.12989,115.02118 L81.29037,105.64588 L90.655174,89.34461 L99.471825,90.97996 L101.23692,108.790375 z M122.19928,122.22595 L120.33909,121.20901 L119.497086,119.95959 L123.15896,117.24271 L135.58391,111.97498 L135.763,112.23141 L130.99544,119.06192 L124.19875,122.27091 z M112.9159,119.21168 L110.94449,120.999374 L110.60864,121.15165 L105.018875,119.96672 L103.10906,116.70772 L101.23692,108.790375 L99.471825,90.97996 L103.40668,90.99073 z M119.045,90.63559 L110.835594,90.86457 L110.31468,90.85736 L113.09445,66.10844 L114.43375,62.13375 L116.11211,62.92617 L123.44935,90.144966 L122.84382,90.423676 z M117.01063,59.014374 L114.80672,55.744064 L120.75549,53.97862 L122.50873,54.12871 L124.57683,54.57418 L126.16122,55.564087 L126.451836,55.839603 L119.40401,59.014374 z M176.0075,51.26625 L173.65666,46.03375 L174.45808,45.896534 L177.84677,48.051544 L180.39587,51.59768 L181.18216,54.181194 L181.20755,54.605213 L176.1123,51.42176 z M213.28537,45.22939 L212.70763,45.248875 L212.62625,45.22875 L210.35938,42.799374 L210.5316,42.288265 L211.04634,41.698048 L214.56519,41.04536 L215.30214,44.599365 z M147.3612,42.08028 L139.50351,34.307068 L141.49094,29.883438 L142.8211,29.244856 L164.26822,24.272238 L163.63463,27.541441 L155.42188,41.717773 L152.91461,44.316994 z M133.4463,144.8443 L113.33998,141.64767 L113.637985,141.19423 L120.888565,137.51712 L121.350624,137.31572 L124.932724,136.11977 L129.22758,135.58867 L132.19064,136.04129 L133.85452,144.68275 z M236.46567,137.56572 L220.76375,133.03525 L218.46251,127.81826 L217.4855,120.25887 L222.21458,121.467415 L232.41264,124.370766 L239.56125,128.42662 L239.08257,132.6884 L237.3678,136.33165 z M163.65895,124.1072 L162.65393,123.88351 L157.0949,120.10276 L156.13844,118.88625 L156.46878,114.8013 L175.98297,106.236694 L174.78688,111.33938 L173.45528,115.78517 L167.01926,122.682556 z M64.23312,109.38438 L59.203075,109.79904 L57.662045,108.274574 L61.86411,81.77445 L67.86926,81.87383 L80.42143,82.870415 L90.655174,89.34461 L81.29037,105.64588 L76.141785,107.77793 z M239.83372,163.45848 L230.17574,162.61548 L228.7466,160.26431 L224.75243,152.64412 L224.74971,152.62694 L228.37074,150.26933 L231.17793,149.60353 L233.06314,151.04463 L240.57298,159.58807 L241.52501,161.47166 z M205.16687,154.47198 L172.89941,164.79921 L170.35071,162.4696 L170.23796,161.15741 L174.74487,154.0239 L175.26765,153.56117 L193.66052,141.15543 L200.71649,140.01025 L204.16533,140.98505 L205.16687,141.72812 z M113.09445,66.10844 L110.31468,90.85736 L103.40668,90.99073 L99.471825,90.97996 L90.655174,89.34461 L80.42143,82.870415 L89.109604,60.652065 L89.57257,60.349796 L110.18005,59.947445 L111.08188,60.135624 z M190.58994,58.043594 L184.61914,61.898224 L184.54597,61.8 L181.20755,54.605213 L181.18216,54.181194 L185.08205,46.079487 L185.98169,45.18952 L187.95586,44.931046 L192.3074,46.290447 L194.8847,47.953213 z M150.40427,48.809254 L132.59567,43.854443 L131.40509,42.555428 L131.37878,41.91113 L131.92938,41.706875 L146.09465,41.706875 L146.83217,41.896286 L147.3612,42.08028 L152.91461,44.316994 L152.28055,45.81495 z M242.94049,179.51738 L240.31734,180.10126 L237.8525,180.2675 L237.3439,180.2675 L236.25514,178.93701 L236.43774,178.4967 L240.00313,176.645 L242.71692,176.645 L243.98468,177.73032 L244.05327,178.15437 L243.86087,178.74916 z" fill="none" stroke="gold" stroke-width="0.6"/>
</g>
<g inkscape:groupmode="layer" inkscape:label="white">
<path d="M329.04312,160.64563 L300,166.52238 L300,163.33914 z M50.08847,170.72954 L48.16375,172.87157 L48.16375,169.14285 z M105.57188,172.57112 L100.79804,171.15437 L103.41897,169.69595 z M188.89131,225.02917 L188.59488,220 L193.97516,220 z M246.85437,163.84734 L243.11153,161.57529 L246.85437,160.4645 z M108.788124,160.84688 L101.6,162.18016 L101.6,159.66174 z M65.23312,109.38438 L59.420624,111.54063 L60.203075,109.79904 z M68.0735,41.92825 L63.3863,36.71185 L66.1205,36.13225 z M-28.356354,76.97276 L-10,75.52391 L-10,86.63802 z M315.3885,-10 L300,1.1690625 L300,-10 z M300,227.70192 L291.45108,220 L300,220 z M138.10779,184.33214 L122.19863,180.39761 L131.08417,175.31198 L138.59888,183.1176 z M243.07283,183.39871 L238.8525,180.2675 L241.31734,180.10126 L243.34508,183.11015 z M243.71692,176.645 L241.00313,176.645 L239.97989,173.98787 L243.54956,174.78241 z M65.885414,178.18791 L48.07378,173.1052 L48.16375,172.87157 L50.08847,170.72954 z M124.43021,160.37729 L123.465294,162.88297 L122.063416,161.76857 L118.7641,156.1734 z M247.78958,158.81935 L241.57298,159.58807 L234.06314,151.04463 L248.95561,157.79695 z M49.261078,147.65585 L45.82422,150.20578 L44.66216,149.09727 L45.387375,148.098 z M41.82794,149.51775 L33.909035,151.93698 L39.50918,147.08955 L41.5383,146.93901 z M47.485626,145.55188 L44.91673,147.45782 L44.564472,147.08447 L45.899067,145.43416 z M66.085625,146.27063 L63.301586,144.20505 L65.81838,143.86554 L66.47312,144.54562 z M136.86986,144.58931 L134.85452,144.68275 L133.19064,136.04129 L135.45934,136.21715 z M52.639374,141.79521 L50.87625,142.958 L50.87625,139.615 L52.639374,139.615 z M207.79437,138.70938 L205.16533,140.98505 L201.71649,140.01025 L204.28798,137.40862 z M48.095936,138.60875 L46.575,138.60875 L41.668056,130.11394 L42.25339,129.93916 z M194.66052,141.15543 L176.26765,153.56117 L190.6498,130.57831 L201.7508,126.68898 z M168.9786,128.22664 L157.19962,142.42793 L156.11278,141.18831 L164.74992,127.30387 z M140.30925,128.17497 L133.17334,129.68765 L133.39471,128.31897 L137.37988,126.54493 z M129.23111,126.48221 L126.78926,128.81154 L125.05357,125.20578 L125.19875,124.48771 z M152.0525,128.61333 L148.77284,126.991135 L149.74687,124.82313 L152.0525,125.16525 z M176.4055,129.1693 L169.57932,128.08401 L168.01926,122.682556 L174.45528,115.78517 z M160.42995,125.55072 L158.74062,124.76736 L158.27618,120.97701 L161.04897,125.09146 z M161.04897,125.09146 L158.27618,120.97701 L158.0949,120.10276 L163.65393,123.88351 z M103.36313,126.030624 L97.938126,124.24174 L97.938126,123.31375 L104.87269,122.67062 z M152.54979,124.10198 L148.73723,122.68764 L154.765,120.89875 L153.43823,123.195625 z M101.13888,119.131775 L97.79497,123.10132 L95.13997,121.889114 L95.119064,121.81156 z M124.15896,117.24271 L120.497086,119.95959 L119.680954,119.11186 L120.045,118.46362 z M67.82002,113.36853 L63.9652,120.232605 L62.40997,120.571976 L63.708336,114.792145 z M50.261143,117.33825 L46.129375,116.57188 L49.331875,114.19582 L50.100693,114.3622 z M49.331875,114.19582 L46.129375,116.57188 L44.008694,116.57188 L35.123882,110.52925 z M63.278404,114.81493 L58.48741,117.353935 L58.188034,116.28776 L60.091217,113.463684 z M114.09445,66.10844 L112.08188,60.135624 L114.003876,60.365623 L115.43375,62.13375 z M121.265625,64.24687 L118.89219,62.48594 L120.39375,59.14375 L121.265625,61.73125 z M134.68817,85.82399 L121.265625,64.24687 L121.265625,61.73125 L160.56525,76.31014 z M114.41343,54.918163 L91.028244,59.875393 L105.73061,43.01725 L113.890396,51.425632 z M62.81125,53.781876 L56.233437,52.5618 L64.031876,49.958126 L63.172916,53.781876 z M244.95563,184.42188 L242.16615,185.0132 L243.07283,183.39871 L243.34508,183.11015 L244.95563,182.31354 z M242.16615,185.0132 L234.5125,191.63812 L238.3439,180.2675 L238.8525,180.2675 L243.07283,183.39871 z M252.15514,184.59744 L247.45372,183.32903 L247.24464,182.8016 L248.96889,180.88269 L250.87737,180.48936 z M243.34508,183.11015 L241.31734,180.10126 L243.94049,179.51738 L245.1471,182.20305 L244.95563,182.31354 z M247.24464,182.8016 L245.1471,182.20305 L243.94049,179.51738 L244.86087,178.74916 L248.96889,180.88269 z M241.00313,176.645 L237.43774,178.4967 L237.09554,176.0847 L239.33687,173.59032 L239.97989,173.98787 z M247.12563,176.14188 L244.98468,177.73032 L243.71692,176.645 L243.54956,174.78241 L244.29688,174.04312 z M247.12563,176.14188 L244.29688,174.04312 L248.32875,169.18211 L248.90808,169.1274 L248.4683,175.32681 z M237.09554,176.0847 L228.73875,171.74457 L232.23312,169.02234 L238.38774,169.71721 L239.33687,173.59032 z M101.47481,167.45717 L100.18159,171.2951 L98.74124,171.90576 L95.650764,171.28844 L96.09154,170.4527 z M101.47481,167.45717 L96.09154,170.4527 L96.29883,167.83812 L99.22299,166.59839 L101.75649,167.22495 z M222.8205,176.25508 L204.0749,184.59988 L220.21407,164.92796 L223.73196,166.95801 L228.40938,171.91562 z M91.99,166.9275 L72.054955,174.32275 L71.69049,171.69078 L90.72288,164.63037 L90.96567,164.64754 z M95.49687,166.54897 L93.055626,167.15271 L93.055626,164.32109 L94.60054,163.89879 L95.49687,164.17589 z M92.78438,167.32042 L91.99,166.9275 L90.96567,164.64754 L93.055626,164.32109 L93.055626,167.15271 z M99.22299,166.59839 L96.29883,167.83812 L95.49687,166.54897 L95.49687,164.17589 L96.98813,163.94539 z M45.91796,168.78441 L41.972866,162.9304 L45.513847,163.71855 L49.727203,166.39803 L47.50203,168.37915 z M229.7466,160.26431 L223.73196,166.95801 L220.21407,164.92796 L220.51213,163.60112 L225.75243,152.64412 z M238.38774,169.71721 L232.23312,169.02234 L231.17574,162.61548 L240.83372,163.45848 L242.49312,168.62938 z M49.727203,166.39803 L45.513847,163.71855 L49.042366,161.10063 L51.88945,161.54533 L59.04429,163.95825 z M49.042366,161.10063 L45.513847,163.71855 L41.972866,162.9304 L40.8377,162.49098 L48.261528,160.65498 z M252.04352,168.04733 L246.85437,163.84734 L246.85437,160.4645 L246.87033,160.4562 L256.22757,167.39868 z M101.6,162.18016 L100.37937,162.85938 L100.37937,159.08594 L101.17375,159.38063 L101.6,159.66174 z M124.43021,160.37729 L118.7641,156.1734 L114.38937,149.27615 L114.64317,147.97374 L129.24583,153.23152 z M51.88945,161.54533 L49.042366,161.10063 L48.261528,160.65498 L46.65631,158.61333 L49.587814,158.13 z M108.788124,160.84688 L101.6,159.66174 L101.17375,159.38063 L112.85687,153.60187 L110.92422,160.77141 z M112.85687,153.60187 L101.17375,159.38063 L100.37937,159.08594 L100.055626,158.90579 L113.78455,150.757 z M49.80632,154.80937 L44.889526,157.79405 L43.86992,157.76604 L43.688126,156.82187 L45.238125,154.80937 z M49.80632,154.80937 L45.238125,154.80937 L45.68375,152.495 L47.314926,152.04913 L54.291256,152.67024 z M45.238125,154.80937 L43.688126,156.82187 L41.55478,153.65627 L43.989513,152.495 L45.68375,152.495 z M41.5383,146.93901 L39.50918,147.08955 L33.501972,140.40411 L42.150234,145.33984 L42.215626,146.21312 z M71.09665,158.66348 L66.085625,146.27063 L66.47312,144.54562 L68.625626,144.8118 L74.36095,156.5137 z M74.36095,156.5137 L68.625626,144.8118 L68.96484,143.55342 L70.01787,143.00652 L79.60065,153.67122 z M79.60065,153.67122 L70.01787,143.00652 L70.86925,141.63791 L71.17057,141.5137 L83.38949,151.87445 z M44.111954,144.36954 L42.150234,145.33984 L33.501972,140.40411 L25.305086,134.68028 L41.232212,140.09637 z M215.19215,152.69946 L206.16687,154.47198 L206.16687,141.72812 L210.83075,141.26675 L212.39348,143.70158 z M50.542458,144.17963 L45.213905,143.61484 L45.526596,141.52687 L47.756874,141.52687 L50.447674,143.52327 z M65.81838,143.86554 L63.301586,144.20505 L63.17384,144.19241 L65.930626,141.12437 L66.47312,143.13687 z M68.96484,143.55342 L67.965,143.27524 L67.965,141.09921 L70.86925,141.63791 L70.01787,143.00652 z M67.965,143.27524 L66.47312,143.13687 L65.930626,141.12437 L65.930626,140.4703 L67.965,141.09921 z M56.178543,143.43396 L54.4025,146.86 L54.4025,141.35916 L54.766544,141.2091 L55.937202,141.64339 z M217.073,139.36171 L212.39348,143.70158 L210.83075,141.26675 L210.83377,141.25648 L215.05785,139.06268 z M54.4025,141.35916 L52.639374,141.79521 L52.639374,139.615 L54.460625,138.93938 L54.766544,141.2091 z M57.405624,141.03813 L55.937202,141.64339 L54.766544,141.2091 L54.460625,138.93938 L54.50422,138.88547 z M47.756874,141.52687 L45.526596,141.52687 L43.289227,140.45975 L46.224678,139.21523 L48.170887,140.29819 z M57.405624,141.03813 L54.50422,138.88547 L55.104557,137.80376 L56.746876,137.80376 L57.949993,140.92798 z M60.817272,141.58253 L57.949993,140.92798 L56.746876,137.80376 L58.830257,137.26274 L61.209408,141.14613 z M215.05785,139.06268 L210.83377,141.25648 L209.57541,138.2689 L210.07697,137.20569 L212.1533,136.6922 z M75.551895,139.7493 L71.923676,140.59938 L69.68136,138.1039 L70.40437,136.96397 L72.46775,136.1535 z M53.072083,136.09473 L50.436386,139.35391 L49.354893,139.16875 L49.124428,138.82677 L50.04722,131.98026 z M48.095936,138.60875 L42.25339,129.93916 L48.21591,128.02765 L50.04722,131.98026 L49.124428,138.82677 z M207.79437,138.70938 L204.28798,137.40862 L205.53539,134.07681 L210.07697,137.20569 L209.57541,138.2689 z M69.68136,138.1039 L65.31916,139.11528 L64.09704,136.79807 L68.67978,135.8266 L70.40437,136.96397 z M68.67978,135.8266 L64.09704,136.79807 L61.830837,134.59126 L61.652035,129.41757 L66.93452,129.35225 z M190.6498,130.57831 L176.26765,153.56117 L175.74487,154.0239 L177.27419,131.33076 L188.76573,129.90977 z M89.94361,140.88014 L83.016624,133.98256 L88.98688,128.44562 L89.48417,128.44562 L93.19973,131.75368 z M188.76573,129.90977 L177.27419,131.33076 L176.93188,129.69409 L180.58441,127.92674 L188.09236,129.31935 z M88.98688,128.44562 L83.016624,133.98256 L77.14577,129.21193 L76.77698,128.64758 L86.658646,126.71823 z M188.09236,129.31935 L180.58441,127.92674 L182.6573,126.631615 L183.43427,126.35712 L186.03064,126.69706 z M93.19973,131.75368 L89.48417,128.44562 L91.309456,126.41426 L92.09118,126.31759 L94.95438,129.15 z M113.78158,139.06564 L102.953674,128.07228 L103.36313,126.99215 L110.809074,126.37833 L113.46931,129.56665 z M125.932724,136.11977 L122.350624,137.31572 L122.350624,126.70985 L125.05357,125.20578 L126.78926,128.81154 z M119.82307,126.78989 L114.68781,128.05989 L115.81644,126.29212 L116.520905,125.89007 L119.95458,126.39958 z M145.15257,127.093475 L140.96988,128.02446 L141.47008,126.04513 L143.62363,124.09227 L144.4575,124.77281 z M137.37988,126.54493 L133.39471,128.31897 L131.816,125.13973 L132.3765,121.53572 L137.32861,126.259636 z M146.22063,127.489685 L145.15257,127.093475 L144.4575,124.77281 L147.17,125.27594 L147.64803,126.87192 z M97.34907,128.32999 L94.95438,129.15 L92.09118,126.31759 L92.84346,124.55014 L97.06573,125.176674 z M119.95458,126.39958 L116.520905,125.89007 L118.12466,124.25398 L120.4204,124.140434 L120.6188,125.90678 z M148.77284,126.991135 L147.64803,126.87192 L147.17,125.27594 L148.641,124.00265 L149.74687,124.82313 z M156.3925,126.61761 L155.03625,125.44365 L155.03625,124.97406 L156.25688,123.61562 L156.88538,125.94718 z M155.03625,125.44365 L152.14182,125.08573 L152.54979,124.10198 L153.43823,123.195625 L155.03625,124.97406 z M87.50733,126.26846 L84.62314,117.70894 L85.34309,118.202 L89.057915,122.33625 L88.51376,125.96978 z M155.03625,124.97406 L153.43823,123.195625 L154.765,120.89875 L157.03363,119.00517 L156.25688,123.61562 z M116.520905,125.89007 L115.81644,126.29212 L113.99004,123.24322 L116.811874,122.862564 L118.12466,124.25398 z M110.80877,126.37708 L105.45278,121.961754 L106.018875,119.96672 L111.60864,121.15165 L112.8001,122.831215 z M101.13888,119.131775 L95.119064,121.81156 L94.65659,121.16344 L102.23692,108.790375 L104.10906,116.70772 z M116.60013,120.999374 L111.94449,120.999374 L113.9159,119.21168 L116.824104,118.623215 L117.175735,118.86404 z M45.796814,124.52401 L27.74148,107.55588 L35.123882,110.52925 L44.008694,116.57188 L44.95807,117.67875 z M116.824104,118.623215 L113.9159,119.21168 L104.40668,90.99073 L111.31468,90.85736 L111.835594,90.86457 z M124.15896,117.24271 L120.045,118.46362 L120.045,90.63559 L123.84382,90.423676 L136.58391,111.97498 z M50.3494,117.67875 L44.95807,117.67875 L44.008694,116.57188 L46.129375,116.57188 L50.261143,117.33825 z M63.708336,114.792145 L62.40997,120.571976 L58.050854,122.05046 L58.48741,117.353935 L63.278404,114.81493 z M56.83923,112.46302 L53.470078,111.3268 L53.93692,109.872055 L56.95449,109.69984 L58.808735,111.901 z M51.879875,112.50662 L48.94736,110.02007 L53.3175,108.72312 L53.93692,109.872055 L53.470078,111.3268 z M124.44935,90.144966 L117.11211,62.92617 L118.89219,62.48594 L121.265625,64.24687 L134.68817,85.82399 z M114.81687,55.450302 L111.18005,59.947445 L90.57257,60.349796 L91.028244,59.875393 L114.41343,54.918163 z M121.75549,53.97862 L115.80672,55.744064 L114.81687,55.450302 L114.41343,54.918163 L113.890396,51.425632 z M65.74454,55.212856 L63.172916,53.781876 L64.031876,49.958126 L64.743904,49.58078 L66.994156,52.585957 z M121.75549,53.97862 L113.890396,51.425632 L105.73061,43.01725 L107.25409,39.656837 L123.50873,54.12871 z M68.0735,41.92825 L66.1205,36.13225 L88.36787,19.626139 L74.70817,43.87683 L69.36738,44.16819 z M246.90224,184.21555 L244.95563,184.42188 L244.95563,182.31354 L245.1471,182.20305 L247.24464,182.8016 L247.45372,183.32903 z M248.96889,180.88269 L244.86087,178.74916 L245.05327,178.15437 L250.02591,178.15437 L251.50163,179.93356 L250.87737,180.48936 z M250.02591,178.15437 L245.05327,178.15437 L244.98468,177.73032 L247.12563,176.14188 L248.4683,175.32681 L250.18687,176.60187 z M103.41897,169.69595 L100.79804,171.15437 L100.18159,171.2951 L101.47481,167.45717 L101.75649,167.22495 L104.2262,166.70142 z M92.78438,172.26062 L73.25437,182.61063 L72.69522,180.71413 L72.054955,174.32275 L91.99,166.9275 L92.78438,167.32042 z M44.353676,169.49863 L14.951501,164.82408 L37.57706,161.65678 L40.8377,162.49098 L41.972866,162.9304 L45.91796,168.78441 z M228.40938,171.91562 L223.73196,166.95801 L229.7466,160.26431 L231.17574,162.61548 L232.23312,169.02234 L228.73875,171.74457 z M124.90951,164.8474 L113.71012,167.79584 L111.47768,165.46802 L111.36243,162.90277 L122.063416,161.76857 L123.465294,162.88297 z M93.055626,164.32109 L90.96567,164.64754 L90.72288,164.63037 L86.00313,151.79062 L92.79865,159.3534 L94.60054,163.89879 z M96.98813,163.94539 L95.49687,164.17589 L94.60054,163.89879 L92.79865,159.3534 L98.04909,161.08472 L98.79708,163.02708 z M48.261528,160.65498 L40.8377,162.49098 L37.57706,161.65678 L43.86992,157.76604 L44.889526,157.79405 L46.65631,158.61333 z M98.04909,161.08472 L92.79865,159.3534 L86.00313,151.79062 L85.48509,151.06715 L88.70135,148.70833 L99.58649,158.80342 z M246.85437,160.4645 L243.11153,161.57529 L242.52501,161.47166 L241.57298,159.58807 L247.78958,158.81935 L246.87033,160.4562 z M49.587814,158.13 L46.65631,158.61333 L44.889526,157.79405 L49.80632,154.80937 L54.291256,152.67024 L55.213303,152.565 z M43.989513,152.495 L41.55478,153.65627 L33.32226,152.20198 L33.909035,151.93698 L41.82794,149.51775 L42.25929,149.60664 z M45.68375,152.495 L43.989513,152.495 L42.25929,149.60664 L44.66216,149.09727 L45.82422,150.20578 L47.314926,152.04913 z M49.261078,147.65585 L45.387375,148.098 L44.91673,147.45782 L47.485626,145.55188 L51.180237,145.55188 L52.700104,147.1091 z M133.27917,154.3695 L129.24583,153.23152 L114.64317,147.97374 L112.19825,144.21622 L114.33998,141.64767 L134.4463,144.8443 z M45.899067,145.43416 L44.564472,147.08447 L42.215626,146.21312 L42.150234,145.33984 L44.111954,144.36954 L44.20976,144.35986 z M47.485626,145.55188 L45.899067,145.43416 L44.20976,144.35986 L45.213905,143.61484 L50.542458,144.17963 L51.180237,145.55188 z M68.625626,144.8118 L66.47312,144.54562 L65.81838,143.86554 L66.47312,143.13687 L67.965,143.27524 L68.96484,143.55342 z M61.58991,144.26154 L56.962852,150.84142 L53.97492,147.8117 L54.4025,146.86 L56.178543,143.43396 L60.81009,141.7158 z M44.111954,144.36954 L41.232212,140.09637 L43.289227,140.45975 L45.526596,141.52687 L45.213905,143.61484 L44.20976,144.35986 z M60.81009,141.7158 L56.178543,143.43396 L55.937202,141.64339 L57.405624,141.03813 L57.949993,140.92798 L60.817272,141.58253 z M225.74971,152.62694 L215.19215,152.69946 L212.39348,143.70158 L217.073,139.36171 L221.76375,139.21669 L229.37074,150.26933 z M210.83075,141.26675 L206.16687,141.72812 L205.16533,140.98505 L207.79437,138.70938 L209.57541,138.2689 L210.83377,141.25648 z M48.170887,140.29819 L46.224678,139.21523 L46.575,138.60875 L48.095936,138.60875 L49.124428,138.82677 L49.354893,139.16875 z M65.15386,139.60585 L61.209408,141.14613 L58.830257,137.26274 L61.830837,134.59126 L64.09704,136.79807 L65.31916,139.11528 z M75.551895,139.7493 L72.46775,136.1535 L77.14577,129.21193 L83.016624,133.98256 L89.94361,140.88014 L90.39764,141.8675 z M217.073,139.36171 L215.05785,139.06268 L212.1533,136.6922 L219.46251,127.81826 L221.76375,133.03525 L221.76375,139.21669 z M204.28798,137.40862 L201.71649,140.01025 L194.66052,141.15543 L201.7508,126.68898 L202.43698,126.15867 L205.53539,134.07681 z M146.22063,136.9177 L143.16504,136.13052 L140.72601,128.2889 L140.96988,128.02446 L145.15257,127.093475 L146.22063,127.489685 z M89.48417,128.44562 L88.98688,128.44562 L86.658646,126.71823 L87.50733,126.26846 L88.51376,125.96978 L91.309456,126.41426 z M121.888565,137.51712 L114.637985,141.19423 L113.78158,139.06564 L113.46931,129.56665 L114.68781,128.05989 L119.82307,126.78989 z M121.888565,137.51712 L119.82307,126.78989 L119.95458,126.39958 L120.6188,125.90678 L122.350624,126.70985 L122.350624,137.31572 z M168.9786,128.22664 L164.74992,127.30387 L164.44711,126.93625 L164.65895,124.1072 L168.01926,122.682556 L169.57932,128.08401 z M160.58557,126.93625 L156.3925,130.33006 L156.3925,126.61761 L156.88538,125.94718 L158.74062,124.76736 L160.42995,125.55072 z M164.44711,126.93625 L160.58557,126.93625 L160.42995,125.55072 L161.04897,125.09146 L163.65393,123.88351 L164.65895,124.1072 z M110.809074,126.37833 L103.36313,126.99215 L103.36313,126.030624 L104.87269,122.67062 L105.45278,121.961754 L110.80877,126.37708 z M129.23111,126.48221 L125.19875,124.48771 L125.19875,122.27091 L131.99544,119.06192 L132.3765,121.53572 L131.816,125.13973 z M139.16812,124.62187 L137.32861,126.259636 L132.3765,121.53572 L131.99544,119.06192 L136.763,112.23141 L137.70361,112.66961 z M91.309456,126.41426 L88.51376,125.96978 L89.057915,122.33625 L92.76377,124.23975 L92.84346,124.55014 L92.09118,126.31759 z M141.47008,126.04513 L139.16812,124.62187 L137.70361,112.66961 L139.1147,113.199234 L143.35289,119.67314 L143.62363,124.09227 z M182.6573,126.631615 L180.58441,127.92674 L176.93188,129.69409 L176.4055,129.1693 L174.45528,115.78517 L175.78688,111.33938 z M147.17,125.27594 L144.4575,124.77281 L143.62363,124.09227 L143.35289,119.67314 L148.4109,122.72223 L148.641,124.00265 z M120.4204,124.140434 L118.12466,124.25398 L116.811874,122.862564 L117.31062,121.75244 L121.33909,121.20901 L123.19928,122.22595 z M92.76377,124.23975 L89.057915,122.33625 L85.34309,118.202 L94.65659,121.16344 L95.119064,121.81156 L95.13997,121.889114 z M121.33909,121.20901 L117.31062,121.75244 L116.60013,120.999374 L117.175735,118.86404 L119.680954,119.11186 L120.497086,119.95959 z M48.281757,127.98089 L45.796814,124.52401 L44.95807,117.67875 L50.3494,117.67875 L54.689842,125.290436 L54.351563,126.04337 z M119.680954,119.11186 L117.175735,118.86404 L116.824104,118.623215 L111.835594,90.86457 L120.045,90.63559 L120.045,118.46362 z M56.61677,123.34451 L53.605026,114.406425 L56.23445,114.70656 L58.188034,116.28776 L58.48741,117.353935 L58.050854,122.05046 z M63.278404,114.81493 L60.091217,113.463684 L60.017376,112.58713 L72.11125,110.3439 L67.82002,113.36853 L63.708336,114.792145 z M56.23445,114.70656 L53.605026,114.406425 L51.29147,113.67078 L51.879875,112.50662 L53.470078,111.3268 L56.83923,112.46302 z M72.11125,110.3439 L60.017376,112.58713 L59.149376,111.94312 L59.420624,111.54063 L65.23312,109.38438 L77.141785,107.77793 z M58.808735,111.901 L56.95449,109.69984 L58.662045,108.274574 L60.203075,109.79904 L59.420624,111.54063 L59.149376,111.94312 z M56.95449,109.69984 L53.93692,109.872055 L53.3175,108.72312 L48.192135,80.83674 L62.86411,81.77445 L58.662045,108.274574 z M118.01063,59.014374 L114.003876,60.365623 L112.08188,60.135624 L111.18005,59.947445 L114.81687,55.450302 L115.80672,55.744064 z M118.01063,59.014374 L115.80672,55.744064 L121.75549,53.97862 L123.50873,54.12871 L128.74571,55.25676 L120.40401,59.014374 z M82.92364,53.324623 L66.994156,52.585957 L64.743904,49.58078 L66.92629,44.723213 L69.36738,44.16819 L74.70817,43.87683 z M64.031876,49.958126 L56.233437,52.5618 L26.650757,58.04891 L49.652122,41.20501 L66.92629,44.723213 L64.743904,49.58078 z M66.92629,44.723213 L49.652122,41.20501 L51.77436,35.754593 L63.3863,36.71185 L68.0735,41.92825 L69.36738,44.16819 z M235.5847,178.83786 L222.8205,176.25508 L228.40938,171.91562 L228.73875,171.74457 L237.09554,176.0847 L237.43774,178.4967 L237.25514,178.93701 z M243.54956,174.78241 L239.97989,173.98787 L239.33687,173.59032 L238.38774,169.71721 L242.49312,168.62938 L248.32875,169.18211 L244.29688,174.04312 z M114.16686,186.21178 L98.74124,171.90576 L100.18159,171.2951 L100.79804,171.15437 L105.57188,172.57112 L115.34718,180.54904 L116.14767,183.29585 z M48.07378,173.1052 L44.834846,173.4256 L44.353676,169.49863 L45.91796,168.78441 L47.50203,168.37915 L48.16375,169.14285 L48.16375,172.87157 z M105.57188,172.57112 L103.41897,169.69595 L104.2262,166.70142 L104.233826,166.69647 L111.47768,165.46802 L113.71012,167.79584 L115.34718,180.54904 z M131.08417,175.31198 L122.19863,180.39761 L116.14767,183.29585 L115.34718,180.54904 L113.71012,167.79584 L124.90951,164.8474 L141.5716,168.00983 z M95.650764,171.28844 L92.78438,172.26062 L92.78438,167.32042 L93.055626,167.15271 L95.49687,166.54897 L96.29883,167.83812 L96.09154,170.4527 z M101.75649,167.22495 L99.22299,166.59839 L96.98813,163.94539 L98.79708,163.02708 L100.096825,163.06902 L104.233826,166.69647 L104.2262,166.70142 z M122.063416,161.76857 L111.36243,162.90277 L110.92422,160.77141 L112.85687,153.60187 L113.78455,150.757 L114.38937,149.27615 L118.7641,156.1734 z M100.096825,163.06902 L98.79708,163.02708 L98.04909,161.08472 L99.58649,158.80342 L100.055626,158.90579 L100.37937,159.08594 L100.37937,162.85938 z M141.5716,168.00983 L124.90951,164.8474 L123.465294,162.88297 L124.43021,160.37729 L129.24583,153.23152 L133.27917,154.3695 L155.37442,163.2687 z M51.88945,161.54533 L49.587814,158.13 L55.213303,152.565 L57.422886,152.05498 L70.03291,159.48024 L69.093605,163.69197 L59.04429,163.95825 z M50.447674,143.52327 L47.756874,141.52687 L48.170887,140.29819 L49.354893,139.16875 L50.436386,139.35391 L50.87625,139.615 L50.87625,142.958 z M52.639374,139.615 L50.87625,139.615 L50.436386,139.35391 L53.072083,136.09473 L55.104557,137.80376 L54.50422,138.88547 L54.460625,138.93938 z M46.224678,139.21523 L43.289227,140.45975 L41.232212,140.09637 L25.305086,134.68028 L24.113173,134.09793 L41.668056,130.11394 L46.575,138.60875 z M229.37074,150.26933 L221.76375,139.21669 L221.76375,133.03525 L237.46567,137.56572 L235.50624,144.41919 L233.5912,148.74348 L232.17793,149.60353 z M70.40437,136.96397 L68.67978,135.8266 L66.93452,129.35225 L76.1153,128.06041 L76.77698,128.64758 L77.14577,129.21193 L72.46775,136.1535 z M212.1533,136.6922 L210.07697,137.20569 L205.53539,134.07681 L202.43698,126.15867 L205.64124,121.22109 L216.7125,106.540474 L219.46251,127.81826 z M112.19825,144.21622 L97.60064,144.38414 L99.9725,128.54625 L102.953674,128.07228 L113.78158,139.06564 L114.637985,141.19423 L114.33998,141.64767 z M143.16504,136.13052 L135.45934,136.21715 L133.19064,136.04129 L130.22758,135.58867 L133.17334,129.68765 L140.30925,128.17497 L140.72601,128.2889 z M155.35376,140.49402 L146.22063,136.9177 L146.22063,127.489685 L147.64803,126.87192 L148.77284,126.991135 L152.0525,128.61333 L155.1552,132.83368 z M164.74992,127.30387 L156.11278,141.18831 L155.35376,140.49402 L155.1552,132.83368 L156.3925,130.33006 L160.58557,126.93625 L164.44711,126.93625 z M130.22758,135.58867 L125.932724,136.11977 L126.78926,128.81154 L129.23111,126.48221 L131.816,125.13973 L133.39471,128.31897 L133.17334,129.68765 z M155.1552,132.83368 L152.0525,128.61333 L152.0525,125.16525 L152.14182,125.08573 L155.03625,125.44365 L156.3925,126.61761 L156.3925,130.33006 z M140.30925,128.17497 L137.37988,126.54493 L137.32861,126.259636 L139.16812,124.62187 L141.47008,126.04513 L140.96988,128.02446 L140.72601,128.2889 z M99.9725,128.54625 L97.34907,128.32999 L97.06573,125.176674 L97.938126,124.24174 L103.36313,126.030624 L103.36313,126.99215 L102.953674,128.07228 z M122.350624,126.70985 L120.6188,125.90678 L120.4204,124.140434 L123.19928,122.22595 L125.19875,122.27091 L125.19875,124.48771 L125.05357,125.20578 z M114.68781,128.05989 L113.46931,129.56665 L110.809074,126.37833 L110.80877,126.37708 L112.8001,122.831215 L113.99004,123.24322 L115.81644,126.29212 z M86.658646,126.71823 L76.77698,128.64758 L76.1153,128.06041 L77.05329,120.90229 L81.12989,115.02118 L84.62314,117.70894 L87.50733,126.26846 z M158.74062,124.76736 L156.88538,125.94718 L156.25688,123.61562 L157.03363,119.00517 L157.13844,118.88625 L158.0949,120.10276 L158.27618,120.97701 z M97.06573,125.176674 L92.84346,124.55014 L92.76377,124.23975 L95.13997,121.889114 L97.79497,123.10132 L97.938126,123.31375 L97.938126,124.24174 z M152.0525,125.16525 L149.74687,124.82313 L148.641,124.00265 L148.4109,122.72223 L148.73723,122.68764 L152.54979,124.10198 L152.14182,125.08573 z M104.87269,122.67062 L97.938126,123.31375 L97.79497,123.10132 L101.13888,119.131775 L104.10906,116.70772 L106.018875,119.96672 L105.45278,121.961754 z M116.811874,122.862564 L113.99004,123.24322 L112.8001,122.831215 L111.60864,121.15165 L111.94449,120.999374 L116.60013,120.999374 L117.31062,121.75244 z M77.05329,120.90229 L63.9652,120.232605 L67.82002,113.36853 L72.11125,110.3439 L77.141785,107.77793 L82.29037,105.64588 L81.12989,115.02118 z M54.689842,125.290436 L50.3494,117.67875 L50.261143,117.33825 L50.100693,114.3622 L51.29147,113.67078 L53.605026,114.406425 L56.61677,123.34451 z M58.188034,116.28776 L56.23445,114.70656 L56.83923,112.46302 L58.808735,111.901 L59.149376,111.94312 L60.017376,112.58713 L60.091217,113.463684 z M118.89219,62.48594 L117.11211,62.92617 L115.43375,62.13375 L114.003876,60.365623 L118.01063,59.014374 L120.40401,59.014374 L120.39375,59.14375 z M62.86411,81.77445 L48.192135,80.83674 L44.856586,80.42428 L62.81125,53.781876 L63.172916,53.781876 L65.74454,55.212856 L68.86926,81.87383 z M68.86926,81.87383 L65.74454,55.212856 L66.994156,52.585957 L82.92364,53.324623 L83.50291,53.808125 L90.109604,60.652065 L81.42143,82.870415 z M248.32875,169.18211 L242.49312,168.62938 L240.83372,163.45848 L242.52501,161.47166 L243.11153,161.57529 L246.85437,163.84734 L252.04352,168.04733 L248.90808,169.1274 z M104.233826,166.69647 L100.096825,163.06902 L100.37937,162.85938 L101.6,162.18016 L108.788124,160.84688 L110.92422,160.77141 L111.36243,162.90277 L111.47768,165.46802 z M44.66216,149.09727 L42.25929,149.60664 L41.82794,149.51775 L41.5383,146.93901 L42.215626,146.21312 L44.564472,147.08447 L44.91673,147.45782 L45.387375,148.098 z M155.37442,163.2687 L133.27917,154.3695 L134.4463,144.8443 L134.85452,144.68275 L136.86986,144.58931 L164.45944,153.018 L171.23796,161.15741 L171.35071,162.4696 z M70.03291,159.48024 L57.422886,152.05498 L56.962852,150.84142 L61.58991,144.26154 L63.17384,144.19241 L63.301586,144.20505 L66.085625,146.27063 L71.09665,158.66348 z M164.45944,153.018 L136.86986,144.58931 L135.45934,136.21715 L143.16504,136.13052 L146.22063,136.9177 L155.35376,140.49402 L156.11278,141.18831 L157.19962,142.42793 z M65.930626,141.12437 L63.17384,144.19241 L61.58991,144.26154 L60.81009,141.7158 L60.817272,141.58253 L61.209408,141.14613 L65.15386,139.60585 L65.930626,140.4703 z M83.38949,151.87445 L71.17057,141.5137 L71.923676,140.59938 L75.551895,139.7493 L90.39764,141.8675 L92.72276,144.69037 L88.70135,148.70833 L85.48509,151.06715 z M70.86925,141.63791 L67.965,141.09921 L65.930626,140.4703 L65.15386,139.60585 L65.31916,139.11528 L69.68136,138.1039 L71.923676,140.59938 L71.17057,141.5137 z M99.9725,128.54625 L97.60064,144.38414 L92.72276,144.69037 L90.39764,141.8675 L89.94361,140.88014 L93.19973,131.75368 L94.95438,129.15 L97.34907,128.32999 z M188.76573,129.90977 L188.09236,129.31935 L186.03064,126.69706 L186.08145,126.663124 L205.64124,121.22109 L202.43698,126.15867 L201.7508,126.68898 L190.6498,130.57831 z M154.765,120.89875 L148.73723,122.68764 L148.4109,122.72223 L143.35289,119.67314 L139.1147,113.199234 L157.46878,114.8013 L157.13844,118.88625 L157.03363,119.00517 z M94.65659,121.16344 L85.34309,118.202 L84.62314,117.70894 L81.12989,115.02118 L82.29037,105.64588 L91.655174,89.34461 L100.471825,90.97996 L102.23692,108.790375 z M123.19928,122.22595 L121.33909,121.20901 L120.497086,119.95959 L124.15896,117.24271 L136.58391,111.97498 L136.763,112.23141 L131.99544,119.06192 L125.19875,122.27091 z M113.9159,119.21168 L111.94449,120.999374 L111.60864,121.15165 L106.018875,119.96672 L104.10906,116.70772 L102.23692,108.790375 L100.471825,90.97996 L104.40668,90.99073 z M120.045,90.63559 L111.835594,90.86457 L111.31468,90.85736 L114.09445,66.10844 L115.43375,62.13375 L117.11211,62.92617 L124.44935,90.144966 L123.84382,90.423676 z M113.78455,150.757 L100.055626,158.90579 L99.58649,158.80342 L88.70135,148.70833 L92.72276,144.69037 L97.60064,144.38414 L112.19825,144.21622 L114.64317,147.97374 L114.38937,149.27615 z M47.314926,152.04913 L45.82422,150.20578 L49.261078,147.65585 L52.700104,147.1091 L53.97492,147.8117 L56.962852,150.84142 L57.422886,152.05498 L55.213303,152.565 L54.291256,152.67024 z M134.4463,144.8443 L114.33998,141.64767 L114.637985,141.19423 L121.888565,137.51712 L122.350624,137.31572 L125.932724,136.11977 L130.22758,135.58867 L133.19064,136.04129 L134.85452,144.68275 z M54.4025,146.86 L53.97492,147.8117 L52.700104,147.1091 L51.180237,145.55188 L50.542458,144.17963 L50.447674,143.52327 L50.87625,142.958 L52.639374,141.79521 L54.4025,141.35916 z M164.65895,124.1072 L163.65393,123.88351 L158.0949,120.10276 L157.13844,118.88625 L157.46878,114.8013 L176.98297,106.236694 L175.78688,111.33938 L174.45528,115.78517 L168.01926,122.682556 z M65.23312,109.38438 L60.203075,109.79904 L58.662045,108.274574 L62.86411,81.77445 L68.86926,81.87383 L81.42143,82.870415 L91.655174,89.34461 L82.29037,105.64588 L77.141785,107.77793 z M65.885414,178.18791 L50.08847,170.72954 L48.16375,169.14285 L47.50203,168.37915 L49.727203,166.39803 L59.04429,163.95825 L69.093605,163.69197 L71.69049,171.69078 L72.054955,174.32275 L72.69522,180.71413 z M90.72288,164.63037 L71.69049,171.69078 L69.093605,163.69197 L70.03291,159.48024 L71.09665,158.66348 L74.36095,156.5137 L79.60065,153.67122 L83.38949,151.87445 L85.48509,151.06715 L86.00313,151.79062 z M240.83372,163.45848 L231.17574,162.61548 L229.7466,160.26431 L225.75243,152.64412 L225.74971,152.62694 L229.37074,150.26933 L232.17793,149.60353 L234.06314,151.04463 L241.57298,159.58807 L242.52501,161.47166 z M206.16687,154.47198 L173.89941,164.79921 L171.35071,162.4696 L171.23796,161.15741 L175.74487,154.0239 L176.26765,153.56117 L194.66052,141.15543 L201.71649,140.01025 L205.16533,140.98505 L206.16687,141.72812 z M56.746876,137.80376 L55.104557,137.80376 L53.072083,136.09473 L50.04722,131.98026 L48.21591,128.02765 L48.281757,127.98089 L54.351563,126.04337 L61.652035,129.41757 L61.830837,134.59126 L58.830257,137.26274 z M66.93452,129.35225 L61.652035,129.41757 L54.351563,126.04337 L54.689842,125.290436 L56.61677,123.34451 L58.050854,122.05046 L62.40997,120.571976 L63.9652,120.232605 L77.05329,120.90229 L76.1153,128.06041 z M114.09445,66.10844 L111.31468,90.85736 L104.40668,90.99073 L100.471825,90.97996 L91.655174,89.34461 L81.42143,82.870415 L90.109604,60.652065 L90.57257,60.349796 L111.18005,59.947445 L112.08188,60.135624 z M243.94049,179.51738 L241.31734,180.10126 L238.8525,180.2675 L238.3439,180.2675 L237.25514,178.93701 L237.43774,178.4967 L241.00313,176.645 L243.71692,176.645 L244.98468,177.73032 L245.05327,178.15437 L244.86087,178.74916 z" fill="none" stroke="white" stroke-width="0.6"/>
</g>
<path d="m 15.815664,12.893319 c -1.445284,-3.0999497 -5.555449,-0.3575 -5.08537,2.32203 1.697826,2.92736 4.504013,-3.54417 4.40859,-2.58178 -1.548999,2.22986 0.741131,6.08701 3.012419,3.25791 2.532153,-2.82358 0.259001,-7.8326797 -3.488671,-7.9011197 -3.217272,0.056 -5.8863857,2.4603197 -7.9308737,4.7238797 -2.354585,2.46752 0.0048,5.887 2.757763,6.62143 3.2195457,1.10867 6.8759417,1.30834 9.9459317,-0.36585 2.270396,-1.12373 5.025949,-2.62031 5.680576,-5.20027 -2.108811,-3.66096 -6.038415,1.28356 -3.842036,3.67822 1.07278,0.89979 4.586982,-2.27037 3.201668,-2.73503 0.03094,3.24357 1.226854,6.37852 1.337023,9.60311 -0.672198,3.54892 -7.469251,0.32096 -4.637082,-2.5164 2.158436,-2.4193 5.610472,-2.84094 8.202925,-4.57369 0.993877,-1.40371 0.353413,-5.25046 3.182464,-3.48957 2.142923,1.43516 -2.250898,5.7532 1.723416,5.02339 1.661189,-0.71663 6.494946,-1.40457 4.601401,-3.95236 -4.205319,-0.68052 -1.190571,5.86505 1.665411,3.46881 1.929752,-0.9247 2.778055,-4.05119 1.423645,-5.35034 0.479155,1.8589 3.849911,7.52574 4.880369,3.32696 0.21201,-1.28088 0.40468,-3.80204 1.01246,-1.23041 0.5858,2.6865 3.83412,4.91909 4.56937,1.07383 0.65272,-1.00894 -0.2696,-4.02739 0.99929,-1.35746 1.10974,2.31613 6.32001,1.46113 6.147,-1.13059 -1.98394,-2.13868 -5.3717,1.45205 -3.78252,3.73454 2.57741,0.96208 6.69797,-0.21041 7.06275,-3.33983 0.41287,-2.63769 0.26643,-5.3430297 -0.11178,-7.9756197 0.67418,3.94149 1.24889,7.9380497 2.39963,11.7713397 2.10586,1.67977 5.7434,1.65022 7.74596,-0.23639 3.03149,-1.85431 -0.26637,-4.76925 -2.71777,-4.54025 -2.11577,0.0793 -5.36257,2.40772 -5.16868,3.85604 2.08262,-2.38818 5.55759,-1.22628 8.30726,-1.6832 3.182,-0.26596 6.46546,-0.57372 9.54494,-1.18158 0.24171,0.4199 -0.27752,0.54338 -0.43067,0.17453" fill="none" stroke="white" stroke-width="1" transform="translate(260,190) scale(0.3)"/>
</svg>