<svg height="210mm" style="background:black" viewBox="0 0 297 210" width="297mm" xmlns="http://www.w3.org/2000/svg" xmlns:inkscape="http://www.inkscape.org/namespaces/inkscape">
<g inkscape:groupmode="layer" inkscape:label="gold">
<path d="M258.15103,159.9748 L249.38063,166.48187 L244.11838,166.48187 z M303.67136,133.43875 L299,136.16193 L299,133.88457 z M210.41104,128.64688 L203.94624,128.64688 L203.94624,126.59125 z M150.4787,121.57217 L129.69678,117.71745 L133.16043,110.008026 z M96.124374,112.34563 L93.27625,113.855 L93.27625,110.80881 z M96.273125,101.54954 L88.66968,96.61343 L100.66361,91.77716 z M209.75726,94.44985 L203.23584,99.28833 L201.47295,95.60231 z M226.7044,57.32135 L214.67726,63.88265 L221.87068,51.42954 z M166.83432,54.852158 L156.528,57.692333 L151.80812,40.183125 z M232.83438,53.24521 L227.55733,48.677444 L232.83438,48.118126 z M-37.674683,31.391224 L-11,35.281742 L-11,39.873035 z M234.86874,28.525 L232.60275,33.568687 L212.46048,11.899514 z M243.48427,26.710451 L240.83624,29.33 L240.83624,25.335188 z M185.71425,-15.70951 L191.24533,-10 L185.20923,-10 z M-11,215.02182 L-11,220 L-17.230446,220 z M196.05075,186.39478 L187.70866,183.30013 L192.62593,180.31517 L196.67094,183.69145 z M219.4075,192.0518 L209.37254,180.05663 L216.55063,175.19405 L219.4075,178.0202 z M211.4606,167.83215 L209.46312,162.64514 L210.25897,161.66103 L217.54921,163.97911 z M209.46312,162.64514 L207.41086,162.03609 L210.06876,161.37875 L210.25897,161.66103 z M189.3619,159.17139 L183.12547,155.70113 L180.53981,151.48067 L193.0564,153.27805 z M145.91109,149.04631 L132.74312,160.44438 L143.73918,144.12764 L148.06438,144.2535 z M171.62875,146.515 L168.34468,145.70282 L169.693,140.70102 L170.07391,140.74702 z M192.55376,146.25626 L182.14716,144.37816 L183.70995,138.29083 L187.37534,138.57216 z M168.7362,140.3106 L167.19188,140.23247 L167.19188,134.40994 L170.12943,135.40062 z M167.19188,140.23247 L157.83376,139.91687 L156.15332,129.94273 L167.19188,134.40994 z M214.22246,114.6213 L212.03854,115.43146 L213.19353,108.57602 L215.32307,108.90518 z M205.63739,115.481606 L190.73965,116.20247 L191.1523,115.934586 L211.58334,108.35532 z M211.58334,108.35532 L191.1523,115.934586 L207.92934,104.61868 L211.75592,108.16753 z M100.93549,109.06207 L97.48062,110.16062 L96.029434,108.6225 L98.56563,108.6225 z M181.02562,98.1575 L168.4482,102.823326 L171.74147,98.28557 L172.17274,97.85894 z M75.23813,96.648125 L71.44967,99.458916 L70.15342,93.207664 L79.48282,90.611984 z M223.61188,91.51625 L220.66203,95.34629 L214.76912,94.25325 L215.74016,92.246284 z M66.71903,92.49351 L64.52087,93.92055 L63.833294,91.36989 L63.94837,91.26012 z M64.049065,90.811874 L46.3613,90.811874 L50.047256,87.35747 L65.41526,86.757355 z M88.43584,89.52457 L85.18955,93.7395 L80.40074,90.55406 L84.57248,87.61366 z M166.16441,91.62094 L161.13396,85.40049 L166.8568,88.23114 L167.95921,91.09384 z M183.10103,90.168015 L182.72093,90.006874 L181.70375,83.969376 L190.655,87.29 z M214.3481,86.62063 L210.39775,85.155174 L210.98883,84.51422 L218.0718,83.4632 z M84.794014,87.343636 L81.90059,83.90887 L85.00121,81.19014 L88.714554,85.047226 z M173.68616,82.36667 L166.33427,85.7758 L162.42557,82.08489 L166.42786,76.44296 z M50.66534,75.88278 L45.939167,77.44124 L43.347755,75.215 L50.9225,75.215 z M108.195,80.36125 L101.46987,76.79724 L92.85651,68.05226 L108.195,69.94896 z M64.2525,68.17125 L58.8275,72.19625 L56.024582,72.19625 L53.010693,68.17125 z M145.43901,71.65901 L139.25313,75.97857 L139.25313,69.26629 L144.63756,68.09132 z M52.06258,66.15702 L41.162533,67.312325 L40.61767,65.62793 L51.97684,62.467514 z M132.86247,61.461575 L130.69368,61.921318 L127.687164,61.515747 L130.22856,58.53029 z M63.888454,51.403946 L58.65489,59.169888 L54.79066,59.64772 L57.023277,54.678352 z M50.579033,56.30665 L42.219185,53.205414 L42.070797,49.902607 L50.564808,56.204617 z M132.59126,54.673767 L123.45944,55.27158 L125.21237,50.069344 L133.10089,54.458923 z M117.068535,49.718433 L110.71763,46.577126 L110.04854,44.591457 L120.83279,45.206936 z M58.65797,42.69426 L46.115738,41.918797 L56.339302,35.59778 L58.872707,42.176456 z M123.02026,41.382336 L111.9925,40.291416 L111.9925,33.122604 L117.06792,33.21226 z M65.71906,36.569016 L61.11504,34.072792 L63.98125,31.94625 L81.08808,31.94625 z M250.6482,27.859327 L245.96858,26.867336 L245.25607,26.39743 L248.30467,20.904333 z M185.69275,-18.515676 L194.87488,-10 L191.24533,-10 L185.71425,-15.70951 z M237.63057,25.927046 L236.49336,26.433285 L235.70187,25.405624 L237.77112,25.405624 z M185.50662,-26.732674 L201.6157,-10 L194.87488,-10 L185.69275,-18.515676 z M221.7274,176.87273 L219.4075,178.0202 L216.55063,175.19405 L217.7025,174.12578 L220.31166,174.24677 z M201.95506,176.05276 L196.75812,175.9198 L196.75812,169.0277 L198.52126,168.89688 L199.19937,168.89688 z M196.75812,175.9198 L190.92262,176.81558 L177.98904,169.96138 L182.01338,168.20721 L196.75812,169.0277 z M206.55876,178.322 L203.675,176.85487 L203.675,167.27705 L204.8384,166.98232 L209.7993,168.40439 z M203.675,176.85487 L201.95506,176.05276 L199.19937,168.89688 L202.04105,167.63188 L203.675,167.27705 z M220.31166,174.24677 L217.7025,174.12578 L216.45088,172.03638 L218.65187,170.6075 L230.12187,170.6075 z M198.52126,168.89688 L196.73726,163.60245 L200.10355,165.47563 L202.04105,167.63188 L199.19937,168.89688 z M200.10355,165.47563 L196.73726,163.60245 L195.99596,162.83244 L198.34404,162.17915 L198.63992,162.2179 z M204.40555,163.66376 L199.66653,162.06555 L203.03323,157.06981 L205.16687,157.5598 L205.16687,161.82797 z M217.54921,163.97911 L210.25897,161.66103 L210.06876,161.37875 L209.93312,160.47313 L220.74037,162.47769 z M198.34404,162.17915 L195.99596,162.83244 L188.10924,162.5538 L188.50668,161.76228 L197.98083,159.75394 z M183.12547,155.70113 L171.04642,170.63759 L168.93672,170.76514 L177.64229,150.46548 L180.53981,151.48067 z M229.82336,143.81613 L199.93562,153.05562 L216.6194,140.67734 L220.14426,141.01634 L228.96176,143.37576 z M163.58424,150.28125 L154.8739,164.9688 L153.29733,157.24866 L157.44887,141.8478 L163.34917,149.40916 z M157.44887,141.8478 L153.29733,157.24866 L149.48857,144.06137 L150.48051,143.49063 L156.99606,141.1599 z M177.60158,150.06017 L171.62875,146.515 L170.07391,140.74702 L171.74132,140.80594 L179.85808,145.62363 z M192.55376,146.25626 L187.37534,138.57216 L194.15219,138.38594 L200.15588,142.8403 L195.21408,146.91418 z M179.85808,145.62363 L171.74132,140.80594 L180.81062,133.68129 L183.70995,138.29083 L182.14716,144.37816 z M210.41104,128.64688 L203.94624,126.59125 L203.52495,125.29628 L210.42363,123.59015 L212.65718,129.2718 z M220.14426,141.01634 L213.28177,130.10594 L217.50874,120.6975 L220.80095,120.55382 L228.96176,143.37576 z M210.42363,123.59015 L203.52495,125.29628 L198.39433,123.05711 L189.11296,117.74491 L211.7661,121.94671 z M129.69678,117.71745 L127.7995,118.8905 L126.12261,105.20498 L131.4773,108.6812 L133.16043,110.008026 z M107.26654,120.52598 L98.0612,117.44157 L99.13183,113.602295 L105.027756,111.232834 L109.056404,120.199814 z M224.90878,116.3832 L214.22246,114.6213 L215.32307,108.90518 L224.51443,109.32269 L225.04965,116.27202 z M93.27625,113.855 L81.88375,122.3075 L72.58375,125.7575 L90.53781,108.96177 L93.27625,110.80881 z M100.93549,109.06207 L98.56563,108.6225 L98.56563,104.33706 L107.802155,106.75573 L106.50465,108.31081 z M90.72219,108.51717 L79.46262,103.74353 L86.80604,99.767715 L93.29447,105.84856 L92.950615,106.545876 z M181.02562,98.1575 L172.17274,97.85894 L170.87015,91.81868 L182.64722,96.7337 L183.20692,98.1575 z M199.08313,93.76354 L190.32295,101.346275 L192.47238,91.77788 L196.03645,87.9316 L197.8871,88.93231 z M192.47238,91.77788 L190.32295,101.346275 L188.04683,103.746056 L187.20273,104.12182 L183.50157,98.43363 z M63.833294,91.36989 L33.5634,102.59904 L46.3613,90.811874 L64.049065,90.811874 L63.94837,91.26012 z M212.68704,88.95205 L206.95712,90.369125 L203.86139,88.400406 L207.62524,86.08934 L208.1652,86.0165 z M165.85995,91.74142 L155.19637,85.26821 L159.34666,83.85342 L161.13396,85.40049 L166.16441,91.62094 z M224.03796,85.55856 L216.14365,90.350716 L214.3481,86.62063 L218.0718,83.4632 L223.01445,81.30607 z M166.8568,88.23114 L161.13396,85.40049 L159.34666,83.85342 L162.42557,82.08489 L166.33427,85.7758 z M182.72093,90.006874 L174.9225,87.96478 L174.9225,83.042564 L179.36421,81.655 L181.70375,83.969376 z M190.655,87.29 L181.70375,83.969376 L179.36421,81.655 L193.52258,71.512634 L194.33496,86.379906 z M63.24373,81.52206 L50.151432,87.07271 L50.402008,86.0502 L53.054962,82.471436 L62.160294,80.01486 z M62.160294,80.01486 L53.054962,82.471436 L53.83276,80.582825 L57.33358,76.362076 L62.90832,76.49995 z M92.90328,81.03448 L90.955124,80.07088 L87.58751,63.830265 L92.85651,68.05226 L101.46987,76.79724 z M155.39778,78.33699 L147.23976,86.25209 L136.70956,89.45403 L134.38402,88.98903 L149.85654,75.59615 z M50.402008,86.0502 L45.939167,77.44124 L50.66534,75.88278 L53.83276,80.582825 L53.054962,82.471436 z M155.39778,78.33699 L149.85654,75.59615 L152.835,72.20775 L153.84685,71.75732 L159.91089,75.19783 z M50.9225,75.215 L43.347755,75.215 L42.99932,74.944176 L49.410408,71.85237 L50.980625,75.11437 z M49.410408,71.85237 L42.99932,74.944176 L42.11885,74.80077 L39.873817,70.57254 L51.547943,68.997734 z M166.39232,76.25577 L159.91089,75.19783 L153.84685,71.75732 L154.07417,63.82988 L174.79485,66.90456 z M51.547943,68.997734 L39.873817,70.57254 L39.72986,70.43458 L40.65877,68.57375 L52.06028,68.57375 z M52.06028,68.57375 L40.65877,68.57375 L41.162533,67.312325 L52.06258,66.15702 L52.745094,68.047516 z M110.74033,66.615074 L103.472786,55.830967 L115.79,61.220387 L115.79,61.32875 L112.79538,67.04199 z M135.36932,65.39034 L127.31867,68.177765 L126.79852,62.003067 L127.687164,61.515747 L130.69368,61.921318 z M135.36932,65.39034 L130.69368,61.921318 L132.86247,61.461575 L139.30737,61.992874 L136.3083,65.18544 z M52.14654,61.06345 L42.05312,59.71933 L42.386738,54.27382 L50.825626,57.404373 L52.34532,60.786922 z M42.05312,59.71933 L39.217045,60.5084 L38.259674,55.53625 L42.20147,53.586544 L42.386738,54.27382 z M148.3046,61.381172 L140.53378,61.082962 L133.73059,54.28822 L142.1882,41.25554 L143.49431,41.15723 z M50.825626,57.404373 L42.386738,54.27382 L42.20147,53.586544 L42.219185,53.205414 L50.579033,56.30665 z M221.87068,51.42954 L214.67726,63.88265 L209.41026,67.26235 L202.04988,65.754486 L221.73297,51.150898 z M50.564808,56.204617 L42.070797,49.902607 L40.702145,45.206142 L43.84094,46.536877 L51.950947,50.54828 z M269.0075,40.344845 L246.75731,52.726 L245.98286,52.20365 L259.63547,39.541954 L260.26428,39.53398 z M259.63547,39.541954 L245.98286,52.20365 L240.83035,50.929375 L244.95021,44.625 L254.27472,39.436363 z M235.75002,55.889133 L232.83438,53.24521 L232.83438,48.118126 L235.00438,47.658127 L237.90709,52.88836 z M116.664154,50.565563 L102.20332,55.242306 L99.32949,55.026386 L110.71763,46.577126 L117.068535,49.718433 z M237.90709,52.88836 L235.00438,47.658127 L235.00438,44.625 L244.95021,44.625 L240.83035,50.929375 z M53.71553,50.471264 L51.950947,50.54828 L43.84094,46.536877 L53.89979,46.536877 L55.37977,49.83102 z M55.37977,49.83102 L53.89979,46.536877 L59.30219,43.530704 L61.398396,45.69695 L62.76367,47.6788 z M109.60242,44.32252 L88.17998,46.489895 L89.28319,36.73596 L111.212654,40.27297 L111.60069,40.368935 z M111.212654,40.27297 L89.28319,36.73596 L88.59914,29.907452 L89.30408,27.06569 L107.54088,32.100304 z M111.212654,40.27297 L107.54088,32.100304 L111.9925,33.122604 L111.9925,40.291416 L111.60069,40.368935 z M251.05571,38.190296 L244.63374,36.056858 L244.63374,26.657148 L245.25607,26.39743 L245.96858,26.867336 z M238.60597,27.854166 L236.36302,27.400314 L236.49336,26.433285 L237.63057,25.927046 L239.20876,26.5125 z M239.20876,26.5125 L237.63057,25.927046 L237.77112,25.405624 L239.93474,21.392464 L240.81688,25.319374 z M187.70866,183.30013 L187.3394,183.42798 L171.64275,170.61748 L177.98904,169.96138 L190.92262,176.81558 L192.62593,180.31517 z M230.12187,170.6075 L218.65187,170.6075 L226.85426,159.95763 L230.533,158.17517 L234.8518,167.97649 L234.9965,169.04028 z M255.34259,169.4308 L236.43272,171.5353 L234.9965,169.04028 L234.8518,167.97649 L244.11838,166.48187 L249.38063,166.48187 z M196.75812,169.0277 L182.01338,168.20721 L188.10924,162.5538 L195.99596,162.83244 L196.73726,163.60245 L198.52126,168.89688 z M210.06876,161.37875 L207.41086,162.03609 L205.16687,161.82797 L205.16687,157.5598 L207.56938,156.96562 L209.93312,160.47313 z M199.66653,162.06555 L198.63992,162.2179 L198.34404,162.17915 L197.98083,159.75394 L200.66731,156.09975 L203.03323,157.06981 z M154.74571,165.43314 L145.91109,149.04631 L148.06438,144.2535 L149.48857,144.06137 L153.29733,157.24866 L154.8739,164.9688 z M177.55273,150.28125 L163.58424,150.28125 L163.34917,149.40916 L168.34468,145.70282 L171.62875,146.515 L177.60158,150.06017 z M200.15588,142.8403 L194.15219,138.38594 L193.28497,131.73727 L200.12675,132.05452 L203.73178,132.784 L212.99408,140.30026 z M203.73178,132.784 L200.12675,132.05452 L198.39433,123.05711 L203.52495,125.29628 L203.94624,126.59125 L203.94624,128.64688 z M217.50874,120.6975 L213.28177,130.10594 L212.65718,129.2718 L210.42363,123.59015 L211.7661,121.94671 L213.28688,120.6975 z M132.01749,134.8813 L118.007126,138.97287 L116.12742,121.77253 L126.74749,121.38817 L142.88211,126.043495 L138.82736,129.90422 z M142.88211,126.043495 L126.74749,121.38817 L127.7995,118.8905 L129.69678,117.71745 L150.4787,121.57217 L151.16917,122.00856 z M126.74749,121.38817 L116.12742,121.77253 L115.58285,121.15358 L123.42105,103.0951 L126.12261,105.20498 L127.7995,118.8905 z M98.0612,117.44157 L81.88375,122.3075 L93.27625,113.855 L96.124374,112.34563 L97.48062,112.513336 L99.13183,113.602295 z M212.03854,115.43146 L209.978,117.23821 L205.63739,115.481606 L211.58334,108.35532 L211.75592,108.16753 L213.19353,108.57602 z M105.027756,111.232834 L99.13183,113.602295 L97.48062,112.513336 L97.48062,110.16062 L100.93549,109.06207 L106.50465,108.31081 z M97.43664,104.31194 L93.29447,105.84856 L86.80604,99.767715 L88.258125,96.71521 L88.66968,96.61343 L96.273125,101.54954 z M98.4117,104.293396 L97.43664,104.31194 L96.273125,101.54954 L100.66361,91.77716 L102.33982,90.91423 L104.94502,90.72094 z M204.26852,101.74015 L188.04683,103.746056 L190.32295,101.346275 L199.08313,93.76354 L201.47295,95.60231 L203.23584,99.28833 z M228.7255,104.6709 L212.9113,99.41123 L213.84145,94.77765 L214.76912,94.25325 L220.66203,95.34629 L234.71475,101.428246 z M168.4482,102.823326 L161.80609,111.139336 L156.593,104.02264 L153.85088,99.46926 L161.86182,94.62053 L171.74147,98.28557 z M234.71475,101.428246 L220.66203,95.34629 L223.61188,91.51625 L228.2155,89.23919 L234.94307,92.642426 L245.03877,98.30181 z M182.64722,96.7337 L170.87015,91.81868 L170.3475,91.15947 L174.9225,87.96478 L182.72093,90.006874 L183.10103,90.168015 z M79.48282,90.611984 L70.15342,93.207664 L69.24561,91.91672 L69.55553,85.70845 L70.09195,85.31993 L79.48703,90.607925 z M66.71903,92.49351 L63.94837,91.26012 L64.049065,90.811874 L65.41526,86.757355 L69.55553,85.70845 L69.24561,91.91672 z M223.61188,91.51625 L215.74016,92.246284 L216.14354,90.35086 L216.14365,90.350716 L224.03796,85.55856 L228.2155,89.23919 z M161.86182,94.62053 L153.85088,99.46926 L136.70956,89.45403 L147.23976,86.25209 L155.19637,85.26821 L165.85995,91.74142 z M88.43584,89.52457 L84.57248,87.61366 L84.794014,87.343636 L88.714554,85.047226 L92.08466,85.48847 L95.696045,87.908585 z M212.68704,88.95205 L208.1652,86.0165 L210.39775,85.155174 L214.3481,86.62063 L216.14365,90.350716 L216.14354,90.35086 z M84.57248,87.61366 L80.40074,90.55406 L80.39188,90.55312 L80.39188,84.258675 L81.90059,83.90887 L84.794014,87.343636 z M234.94307,92.642426 L228.2155,89.23919 L224.03796,85.55856 L223.01445,81.30607 L223.79794,75.82524 L229.64746,76.92643 z M234.94307,92.642426 L229.64746,76.92643 L239.18729,78.320564 L260.86786,96.33641 L246.2382,98.26447 L245.03877,98.30181 z M81.90059,83.90887 L80.39188,84.258675 L77.93829,83.57602 L83.67513,79.319664 L84.9858,81.09292 L85.00121,81.19014 z M210.39775,85.155174 L208.1652,86.0165 L207.62524,86.08934 L206.55168,82.50502 L211.69357,81.55128 L210.98883,84.51422 z M83.67513,79.319664 L77.93829,83.57602 L71.66733,83.110756 L73.75713,72.64489 L76.861404,69.48367 L78.37273,68.72801 z M92.08466,85.48847 L88.714554,85.047226 L85.00121,81.19014 L84.9858,81.09292 L90.955124,80.07088 L92.90328,81.03448 z M53.83276,80.582825 L50.66534,75.88278 L50.9225,75.215 L50.980625,75.11437 L56.461597,75.11437 L57.33358,76.362076 z M149.85654,75.59615 L134.38402,88.98903 L132.08412,88.80659 L139.25313,75.97857 L145.43901,71.65901 L152.835,72.20775 z M62.90832,76.49995 L57.33358,76.362076 L56.461597,75.11437 L56.024582,72.19625 L58.8275,72.19625 L69.5948,73.793976 z M69.5948,73.793976 L58.8275,72.19625 L64.2525,68.17125 L66.893394,68.04063 L76.861404,69.48367 L73.75713,72.64489 z M239.18729,78.320564 L229.64746,76.92643 L223.79794,75.82524 L220.66862,72.61349 L240.05696,62.15175 L246.39174,63.95524 z M119.45022,88.115425 L108.195,80.36125 L108.195,69.94896 L112.81319,67.09363 L123.15485,78.10249 L123.601494,88.70694 z M138.53455,68.63907 L125.06624,73.635376 L126.449394,69.23733 L127.31867,68.177765 L135.36932,65.39034 L136.3083,65.18544 z M123.15485,78.10249 L112.81319,67.09363 L112.79538,67.04199 L115.79,61.32875 L126.449394,69.23733 L125.06624,73.635376 z M126.449394,69.23733 L115.79,61.32875 L115.79,61.220387 L120.08479,59.014374 L126.79852,62.003067 L127.31867,68.177765 z M115.79,61.220387 L103.472786,55.830967 L102.20332,55.242306 L116.664154,50.565563 L121.57433,55.698936 L120.08479,59.014374 z M63.888454,51.403946 L57.023277,54.678352 L53.71553,50.471264 L55.37977,49.83102 L62.76367,47.6788 L66.53942,49.54637 z M86.194626,53.13926 L66.53942,49.54637 L62.76367,47.6788 L61.398396,45.69695 L67.23625,40.499374 L86.350815,52.31752 z M67.23625,40.499374 L61.398396,45.69695 L59.30219,43.530704 L58.65797,42.69426 L58.872707,42.176456 L65.37878,37.349377 z M56.339302,35.59778 L46.115738,41.918797 L38.22746,42.7723 L37.04068,42.2885 L48.188152,33.699696 L57.01111,33.022514 z M123.89514,41.9146 L123.02026,41.382336 L117.06792,33.21226 L121.16114,28.242775 L132.67746,32.781967 L138.00941,40.14826 z M244.63374,36.056858 L241.04143,35.18169 L240.44875,29.905 L240.83624,29.33 L243.48427,26.710451 L244.63374,26.657148 z M251.05571,38.190296 L245.96858,26.867336 L250.6482,27.859327 L260.26428,39.53398 L259.63547,39.541954 L254.27472,39.436363 z M240.44875,29.905 L238.60597,27.854166 L239.20876,26.5125 L240.81688,25.319374 L240.83624,25.335188 L240.83624,29.33 z M234.03397,190.0615 L221.7274,176.87273 L220.31166,174.24677 L230.12187,170.6075 L234.9965,169.04028 L236.43272,171.5353 L238.32004,178.13654 z M218.65187,170.6075 L216.45088,172.03638 L211.14235,168.0978 L211.4606,167.83215 L217.54921,163.97911 L220.74037,162.47769 L226.85426,159.95763 z M202.04105,167.63188 L200.10355,165.47563 L198.63992,162.2179 L199.66653,162.06555 L204.40555,163.66376 L204.8384,166.98232 L203.675,167.27705 z M220.74037,162.47769 L209.93312,160.47313 L207.56938,156.96562 L232.45964,144.98705 L232.49226,144.99547 L230.533,158.17517 L226.85426,159.95763 z M197.98083,159.75394 L188.50668,161.76228 L189.3619,159.17139 L193.0564,153.27805 L194.4967,152.50278 L197.62898,153.84549 L200.66731,156.09975 z M177.64229,150.46548 L168.93672,170.76514 L152.48563,175.27057 L154.74571,165.43314 L154.8739,164.9688 L163.58424,150.28125 L177.55273,150.28125 z M216.6194,140.67734 L199.93562,153.05562 L197.62898,153.84549 L194.4967,152.50278 L195.21408,146.91418 L200.15588,142.8403 L212.99408,140.30026 z M148.06438,144.2535 L143.73918,144.12764 L143.47021,144.0079 L132.01749,134.8813 L138.82736,129.90422 L150.48051,143.49063 L149.48857,144.06137 z M180.81062,133.68129 L171.74132,140.80594 L170.07391,140.74702 L169.693,140.70102 L168.7362,140.3106 L170.12943,135.40062 L180.35197,128.32178 z M194.15219,138.38594 L187.37534,138.57216 L183.70995,138.29083 L180.81062,133.68129 L180.35197,128.32178 L181.3076,123.358635 L193.28497,131.73727 z M211.7661,121.94671 L189.11296,117.74491 L187.61757,116.99666 L190.73965,116.20247 L205.63739,115.481606 L209.978,117.23821 L213.28688,120.6975 z M217.50874,120.6975 L213.28688,120.6975 L209.978,117.23821 L212.03854,115.43146 L214.22246,114.6213 L224.90878,116.3832 L220.80095,120.55382 z M115.58285,121.15358 L109.056404,120.199814 L105.027756,111.232834 L106.50465,108.31081 L107.802155,106.75573 L122.629234,101.25536 L123.42105,103.0951 z M246.2382,98.26447 L234.28429,118.958885 L225.04965,116.27202 L224.51443,109.32269 L228.7255,104.6709 L234.71475,101.428246 L245.03877,98.30181 z M98.56563,108.6225 L96.029434,108.6225 L92.950615,106.545876 L93.29447,105.84856 L97.43664,104.31194 L98.4117,104.293396 L98.56563,104.33706 z M86.80604,99.767715 L79.46262,103.74353 L67.47933,107.0558 L71.44967,99.458916 L75.23813,96.648125 L88.159485,96.648125 L88.258125,96.71521 z M207.59619,103.13562 L204.26852,101.74015 L203.23584,99.28833 L209.75726,94.44985 L211.72838,94.10575 L213.84145,94.77765 L212.9113,99.41123 z M88.159485,96.648125 L75.23813,96.648125 L79.48282,90.611984 L79.48703,90.607925 L80.39188,90.55312 L80.40074,90.55406 L85.18955,93.7395 z M209.75726,94.44985 L201.47295,95.60231 L199.08313,93.76354 L197.8871,88.93231 L203.86139,88.400406 L206.95712,90.369125 L211.72838,94.10575 z M211.72838,94.10575 L206.95712,90.369125 L212.68704,88.95205 L216.14354,90.35086 L215.74016,92.246284 L214.76912,94.25325 L213.84145,94.77765 z M170.3475,91.15947 L167.95921,91.09384 L166.8568,88.23114 L166.33427,85.7758 L173.68616,82.36667 L174.9225,83.042564 L174.9225,87.96478 z M79.48703,90.607925 L70.09195,85.31993 L70.10931,85.25752 L71.66733,83.110756 L77.93829,83.57602 L80.39188,84.258675 L80.39188,90.55312 z M65.41526,86.757355 L50.047256,87.35747 L50.151432,87.07271 L63.24373,81.52206 L70.10931,85.25752 L70.09195,85.31993 L69.55553,85.70845 z M218.0718,83.4632 L210.98883,84.51422 L211.69357,81.55128 L217.06549,71.30254 L220.66862,72.61349 L223.79794,75.82524 L223.01445,81.30607 z M211.69357,81.55128 L206.55168,82.50502 L195.86603,65.65788 L197.47424,65.03218 L202.04988,65.754486 L209.41026,67.26235 L217.06549,71.30254 z M70.10931,85.25752 L63.24373,81.52206 L62.160294,80.01486 L62.90832,76.49995 L69.5948,73.793976 L73.75713,72.64489 L71.66733,83.110756 z M90.955124,80.07088 L84.9858,81.09292 L83.67513,79.319664 L78.37273,68.72801 L85.57616,62.165802 L86.59682,62.883213 L87.58751,63.830265 z M152.835,72.20775 L145.43901,71.65901 L144.63756,68.09132 L149.66422,61.964355 L152.3229,62.31841 L154.07417,63.82988 L153.84685,71.75732 z M108.195,69.94896 L92.85651,68.05226 L87.58751,63.830265 L86.59682,62.883213 L110.74033,66.615074 L112.79538,67.04199 L112.81319,67.09363 z M38.009064,70.28438 L35.025314,61.429375 L37.016533,61.429375 L40.61767,65.62793 L41.162533,67.312325 L40.65877,68.57375 L39.72986,70.43458 z M51.97684,62.467514 L40.61767,65.62793 L37.016533,61.429375 L39.217045,60.5084 L42.05312,59.71933 L52.14654,61.06345 L52.16916,61.224083 z M66.893394,68.04063 L60.90586,64.00211 L65.4711,59.485962 L85.66075,58.629993 L85.57616,62.165802 L78.37273,68.72801 L76.861404,69.48367 z M65.4711,59.485962 L60.90586,64.00211 L52.16916,61.224083 L52.14654,61.06345 L52.34532,60.786922 L54.79066,59.64772 L58.65489,59.169888 z M240.05696,62.15175 L220.66862,72.61349 L217.06549,71.30254 L209.41026,67.26235 L214.67726,63.88265 L226.7044,57.32135 L235.61037,57.046032 z M132.86247,61.461575 L130.22856,58.53029 L132.59126,54.673767 L133.10089,54.458923 L133.73059,54.28822 L140.53378,61.082962 L139.30737,61.992874 z M126.79852,62.003067 L120.08479,59.014374 L121.57433,55.698936 L123.45944,55.27158 L132.59126,54.673767 L130.22856,58.53029 L127.687164,61.515747 z M65.4711,59.485962 L58.65489,59.169888 L63.888454,51.403946 L66.53942,49.54637 L86.194626,53.13926 L86.80558,54.807755 L85.66075,58.629993 z M152.3229,62.31841 L149.66422,61.964355 L148.3046,61.381172 L143.49431,41.15723 L151.14099,39.094193 L151.80812,40.183125 L156.528,57.692333 z M125.21237,50.069344 L123.45944,55.27158 L121.57433,55.698936 L116.664154,50.565563 L117.068535,49.718433 L120.83279,45.206936 L121.915726,44.362255 z M133.10089,54.458923 L125.21237,50.069344 L121.915726,44.362255 L123.89514,41.9146 L138.00941,40.14826 L142.1882,41.25554 L133.73059,54.28822 z M232.83438,48.118126 L227.55733,48.677444 L220.78702,44.65894 L219.02849,42.09448 L226.27928,40.2323 L235.00438,44.625 L235.00438,47.658127 z M53.89979,46.536877 L43.84094,46.536877 L40.702145,45.206142 L38.22746,42.7723 L46.115738,41.918797 L58.65797,42.69426 L59.30219,43.530704 z M65.37878,37.349377 L58.872707,42.176456 L56.339302,35.59778 L57.01111,33.022514 L57.068596,32.981083 L61.11504,34.072792 L65.71906,36.569016 z M206.94514,178.9272 L196.67094,183.69145 L192.62593,180.31517 L190.92262,176.81558 L196.75812,175.9198 L201.95506,176.05276 L203.675,176.85487 L206.55876,178.322 z M216.55063,175.19405 L209.37254,180.05663 L206.94514,178.9272 L206.55876,178.322 L209.7993,168.40439 L211.14235,168.0978 L216.45088,172.03638 L217.7025,174.12578 z M209.7993,168.40439 L204.8384,166.98232 L204.40555,163.66376 L205.16687,161.82797 L207.41086,162.03609 L209.46312,162.64514 L211.4606,167.83215 L211.14235,168.0978 z M188.10924,162.5538 L182.01338,168.20721 L177.98904,169.96138 L171.64275,170.61748 L171.04642,170.63759 L183.12547,155.70113 L189.3619,159.17139 L188.50668,161.76228 z M168.34468,145.70282 L163.34917,149.40916 L157.44887,141.8478 L156.99606,141.1599 L157.83376,139.91687 L167.19188,140.23247 L168.7362,140.3106 L169.693,140.70102 z M150.48051,143.49063 L138.82736,129.90422 L142.88211,126.043495 L151.16917,122.00856 L153.34799,121.825356 L156.15332,129.94273 L157.83376,139.91687 L156.99606,141.1599 z M170.12943,135.40062 L167.19188,134.40994 L156.15332,129.94273 L153.34799,121.825356 L163.74947,116.185844 L179.70782,117.91853 L181.3076,123.358635 L180.35197,128.32178 z M212.99408,140.30026 L203.73178,132.784 L203.94624,128.64688 L210.41104,128.64688 L212.65718,129.2718 L213.28177,130.10594 L220.14426,141.01634 L216.6194,140.67734 z M200.12675,132.05452 L193.28497,131.73727 L181.3076,123.358635 L179.70782,117.91853 L182.12611,116.816376 L187.61757,116.99666 L189.11296,117.74491 L198.39433,123.05711 z M96.124374,112.34563 L93.27625,110.80881 L90.53781,108.96177 L90.72219,108.51717 L92.950615,106.545876 L96.029434,108.6225 L97.48062,110.16062 L97.48062,112.513336 z M150.4787,121.57217 L133.16043,110.008026 L131.4773,108.6812 L156.593,104.02264 L161.80609,111.139336 L163.74947,116.185844 L153.34799,121.825356 L151.16917,122.00856 z M224.51443,109.32269 L215.32307,108.90518 L213.19353,108.57602 L211.75592,108.16753 L207.92934,104.61868 L207.59619,103.13562 L212.9113,99.41123 L228.7255,104.6709 z M107.802155,106.75573 L98.56563,104.33706 L98.4117,104.293396 L104.94502,90.72094 L119.45022,88.115425 L123.601494,88.70694 L124.963264,89.52702 L122.629234,101.25536 z M171.74147,98.28557 L161.86182,94.62053 L165.85995,91.74142 L166.16441,91.62094 L167.95921,91.09384 L170.3475,91.15947 L170.87015,91.81868 L172.17274,97.85894 z M192.47238,91.77788 L183.50157,98.43363 L183.20692,98.1575 L182.64722,96.7337 L183.10103,90.168015 L190.655,87.29 L194.33496,86.379906 L196.03645,87.9316 z M100.66361,91.77716 L88.66968,96.61343 L88.258125,96.71521 L88.159485,96.648125 L85.18955,93.7395 L88.43584,89.52457 L95.696045,87.908585 L102.33982,90.91423 z M102.33982,90.91423 L95.696045,87.908585 L92.08466,85.48847 L92.90328,81.03448 L101.46987,76.79724 L108.195,80.36125 L119.45022,88.115425 L104.94502,90.72094 z M159.34666,83.85342 L155.19637,85.26821 L147.23976,86.25209 L155.39778,78.33699 L159.91089,75.19783 L166.39232,76.25577 L166.42786,76.44296 L162.42557,82.08489 z M56.461597,75.11437 L50.980625,75.11437 L49.410408,71.85237 L51.547943,68.997734 L52.06028,68.57375 L52.745094,68.047516 L53.010693,68.17125 L56.024582,72.19625 z M139.25313,75.97857 L132.08412,88.80659 L124.963264,89.52702 L123.601494,88.70694 L123.15485,78.10249 L125.06624,73.635376 L138.53455,68.63907 L139.25313,69.26629 z M144.63756,68.09132 L139.25313,69.26629 L138.53455,68.63907 L136.3083,65.18544 L139.30737,61.992874 L140.53378,61.082962 L148.3046,61.381172 L149.66422,61.964355 z M64.2525,68.17125 L53.010693,68.17125 L52.745094,68.047516 L52.06258,66.15702 L51.97684,62.467514 L52.16916,61.224083 L60.90586,64.00211 L66.893394,68.04063 z M110.74033,66.615074 L86.59682,62.883213 L85.57616,62.165802 L85.66075,58.629993 L86.80558,54.807755 L99.32949,55.026386 L102.20332,55.242306 L103.472786,55.830967 z M174.79485,66.90456 L154.07417,63.82988 L152.3229,62.31841 L156.528,57.692333 L166.83432,54.852158 L175.28653,56.245712 L176.74908,57.03931 L182.74161,63.629017 z M54.79066,59.64772 L52.34532,60.786922 L50.825626,57.404373 L50.579033,56.30665 L50.564808,56.204617 L51.950947,50.54828 L53.71553,50.471264 L57.023277,54.678352 z M235.61037,57.046032 L226.7044,57.32135 L221.87068,51.42954 L221.73297,51.150898 L220.78702,44.65894 L227.55733,48.677444 L232.83438,53.24521 L235.75002,55.889133 z M110.71763,46.577126 L99.32949,55.026386 L86.80558,54.807755 L86.194626,53.13926 L86.350815,52.31752 L88.17998,46.489895 L109.60242,44.32252 L110.04854,44.591457 z M120.83279,45.206936 L110.04854,44.591457 L109.60242,44.32252 L111.60069,40.368935 L111.9925,40.291416 L123.02026,41.382336 L123.89514,41.9146 L121.915726,44.362255 z M244.95021,44.625 L235.00438,44.625 L226.27928,40.2323 L233.4238,35.35559 L241.04143,35.18169 L244.63374,36.056858 L251.05571,38.190296 L254.27472,39.436363 z M86.350815,52.31752 L67.23625,40.499374 L65.37878,37.349377 L65.71906,36.569016 L81.08808,31.94625 L88.59914,29.907452 L89.28319,36.73596 L88.17998,46.489895 z M241.04143,35.18169 L233.4238,35.35559 L232.60275,33.568687 L234.86874,28.525 L235.57153,27.742868 L236.36302,27.400314 L238.60597,27.854166 L240.44875,29.905 z M207.92934,104.61868 L191.1523,115.934586 L190.73965,116.20247 L187.61757,116.99666 L182.12611,116.816376 L187.20273,104.12182 L188.04683,103.746056 L204.26852,101.74015 L207.59619,103.13562 z M179.70782,117.91853 L163.74947,116.185844 L161.80609,111.139336 L168.4482,102.823326 L181.02562,98.1575 L183.20692,98.1575 L183.50157,98.43363 L187.20273,104.12182 L182.12611,116.816376 z M207.62524,86.08934 L203.86139,88.400406 L197.8871,88.93231 L196.03645,87.9316 L194.33496,86.379906 L193.52258,71.512634 L195.49625,65.767944 L195.86603,65.65788 L206.55168,82.50502 z M179.36421,81.655 L174.9225,83.042564 L173.68616,82.36667 L166.42786,76.44296 L166.39232,76.25577 L174.79485,66.90456 L182.74161,63.629017 L195.49625,65.767944 L193.52258,71.512634 z M246.39174,63.95524 L240.05696,62.15175 L235.61037,57.046032 L235.75002,55.889133 L237.90709,52.88836 L240.83035,50.929375 L245.98286,52.20365 L246.75731,52.726 L254.47997,63.36691 z M193.0564,153.27805 L180.53981,151.48067 L177.64229,150.46548 L177.55273,150.28125 L177.60158,150.06017 L179.85808,145.62363 L182.14716,144.37816 L192.55376,146.25626 L195.21408,146.91418 L194.4967,152.50278 z M156.593,104.02264 L131.4773,108.6812 L126.12261,105.20498 L123.42105,103.0951 L122.629234,101.25536 L124.963264,89.52702 L132.08412,88.80659 L134.38402,88.98903 L136.70956,89.45403 L153.85088,99.46926 z" fill="none" stroke="gold" stroke-width="0.6"/>
</g>
<g inkscape:groupmode="layer" inkscape:label="white">
<path d="M168.87329,235.42131 L168.7109,220 L174.64697,220 z M85.37717,179.20706 L84.3463,177.29498 L86.73937,175.16437 z M259.15103,159.9748 L250.38063,166.48187 L245.11838,166.48187 z M85.95792,162.49042 L79.29107,160.01723 L84.76567,158.06757 z M211.41104,128.64688 L204.94624,128.64688 L204.94624,126.59125 z M-31.54994,143.8871 L-10,143.17648 L-10,150.47066 z M151.4787,121.57217 L130.69678,117.71745 L134.16043,110.008026 z M97.124374,112.34563 L94.27625,113.855 L94.27625,110.80881 z M97.273125,101.54954 L89.66968,96.61343 L101.66361,91.77716 z M-36.674683,31.391224 L-10,35.281742 L-10,39.873035 z M322.85373,-10 L300,5.1521673 L300,-10 z M292.10587,-10 L300,-15.4576 L300,-10 z M197.05075,186.39478 L188.70866,183.30013 L193.62593,180.31517 L197.67094,183.69145 z M143.83891,181.28111 L140.57863,180.87796 L142.58588,179.88513 L144.27101,181.13539 z M126.885994,191.52206 L107.72482,177.8525 L116.92563,177.8525 L127.894295,181.92152 z M159.21625,177.24536 L157.34187,179.56313 L156.23795,176.28696 L156.43411,175.9751 z M220.4075,192.0518 L210.37254,180.05663 L217.55063,175.19405 L220.4075,178.0202 z M82.409065,180.77063 L67.88369,169.01402 L73.680626,169.4 L82.970055,177.44086 z M99.29437,175.41234 L92.40711,169.02496 L96.30037,166.92935 L99.29437,167.84688 z M158.71478,167.33101 L144.34448,172.66193 L141.89743,170.63689 L159.71532,166.23032 z M107.92917,163.46312 L96.7175,163.46312 L96.7175,156.80174 L97.151695,154.74 z M212.4606,167.83215 L210.46312,162.64514 L211.25897,161.66103 L218.54921,163.97911 z M-31.54994,143.8871 L-10,150.47066 L-10,152.23073 L-34.292156,143.91231 z M210.46312,162.64514 L208.41086,162.03609 L211.06876,161.37875 L211.25897,161.66103 z M117.64896,161.92021 L112.04312,159.84062 L112.04312,155.48021 L119.19426,160.34375 z M190.3619,159.17139 L184.12547,155.70113 L181.53981,151.48067 L194.0564,153.27805 z M231.18718,143.70366 L200.93562,153.05562 L217.6194,140.67734 L221.14426,141.01634 z M147.72021,155.74286 L142.56343,152.8096 L146.91109,149.04631 L150.77039,156.20471 z M172.62875,146.515 L169.34468,145.70282 L170.693,140.70102 L171.07391,140.74702 z M132.21371,146.66818 L122.543,151.69072 L115.06926,149.55801 L131.63788,142.1823 z M193.55376,146.25626 L183.14716,144.37816 L184.70995,138.29083 L188.37534,138.57216 z M169.7362,140.3106 L168.19188,140.23247 L168.19188,134.40994 L171.12943,135.40062 z M168.19188,140.23247 L158.83376,139.91687 L157.15332,129.94273 L168.19188,134.40994 z M90.85104,135.96002 L80.25875,128.81566 L85.67195,126.80754 L91.773254,128.77571 z M85.67195,126.80754 L80.25875,128.81566 L80.24712,128.81294 L78.4821,121.828766 z M102.40527,122.18801 L99.78669,126.72126 L99.70125,126.71928 L99.70125,122.58925 z M99.143105,122.42361 L96.31062,125.225624 L97.8025,121.905 L98.366875,121.76543 z M65.17664,126.76058 L58.7425,120.39562 L63.380875,120.39562 L66.90845,124.757675 z M63.380875,120.39562 L58.7425,120.39562 L55.939583,119.355835 L61.08831,115.53581 z M41.204044,119.177536 L32.04989,108.31066 L41.603046,112.30892 L42.835625,120.539375 z M55.105286,115.01676 L50.300644,115.52601 L50.926216,114.05625 L57.047188,114.05625 z M101.93549,109.06207 L98.48062,110.16062 L97.029434,108.6225 L99.56563,108.6225 z M182.02562,98.1575 L169.4482,102.823326 L172.74147,98.28557 L173.17274,97.85894 z M67.71903,92.49351 L65.52087,93.92055 L64.8333,91.36989 L64.94837,91.26012 z M65.049065,90.811874 L57.25998,90.811874 L53.624966,87.25681 L66.41526,86.757355 z M89.43584,89.52457 L86.18955,93.7395 L81.40074,90.55406 L85.57248,87.61366 z M167.16441,91.62094 L162.13396,85.40049 L171.77237,90.16788 L171.54976,90.33304 z M85.794014,87.343636 L82.90059,83.90887 L86.00121,81.19014 L89.714554,85.047226 z M51.66534,75.88278 L46.939167,77.44124 L44.347755,75.215 L51.9225,75.215 z M109.195,80.36125 L102.46987,76.79724 L93.85651,68.05226 L109.195,69.94896 z M65.2525,68.17125 L59.8275,72.19625 L57.024582,72.19625 L54.010693,68.17125 z M53.06258,66.15702 L42.162533,67.312325 L41.61767,65.62793 L52.97684,62.467514 z M136.36932,65.39034 L128.31868,68.177765 L127.79852,62.003067 L130.1016,60.740093 z M64.88845,51.403946 L59.65489,59.169888 L55.79066,59.64772 L58.023277,54.678352 z M51.579033,56.30665 L43.219185,53.205414 L43.070797,49.902607 L51.564808,56.204617 z M59.65797,42.69426 L47.115738,41.918797 L57.339302,35.59778 L59.872707,42.176456 z M66.71906,36.569016 L62.11504,34.072792 L64.98125,31.94625 L82.08808,31.94625 z M144.74625,193.43964 L142.61499,182.3708 L143.83891,181.28111 L144.27101,181.13539 L147.8617,180.9578 z M142.61499,182.3708 L140.04216,182.05266 L140.40303,180.89244 L140.57863,180.87796 L143.83891,181.28111 z M142.58588,179.88513 L140.57863,180.87796 L140.40303,180.89244 L138.39958,177.91959 L141.99455,177.25278 z M168.43086,193.40367 L156.4212,182.63696 L157.34187,179.56313 L159.21625,177.24536 L172.89468,179.14821 z M156.4212,182.63696 L152.31587,180.29396 L152.32375,180.28008 L156.23795,176.28696 L157.34187,179.56313 z M86.52625,186.88 L82.409065,180.77063 L82.970055,177.44086 L84.3463,177.29498 L85.37717,179.20706 z M222.7274,176.87273 L220.4075,178.0202 L217.55063,175.19405 L218.7025,174.12578 L221.31166,174.24677 z M127.894295,181.92152 L116.92563,177.8525 L122.135056,173.34326 L127.91125,178.93312 L128.7226,179.77063 z M156.23795,176.28696 L152.32375,180.28008 L152.32375,174.16437 L155.32144,172.81058 L156.43411,175.9751 z M202.95506,176.05276 L197.75812,175.9198 L197.75812,169.0277 L199.52126,168.89688 L200.19937,168.89688 z M197.75812,175.9198 L191.92262,176.81558 L178.98904,169.96138 L183.01338,168.20721 L197.75812,169.0277 z M128.7226,179.77063 L127.91125,178.93312 L127.91125,171.21124 L133.50043,175.35806 L132.81062,177.09026 z M127.91125,178.93312 L122.135056,173.34326 L121.361916,172.09479 L126.961876,170.22513 L127.91125,171.21124 z M152.32375,174.16437 L145.83191,175.42087 L144.34448,172.66193 L158.71478,167.33101 L155.32144,172.81058 z M204.675,176.85487 L202.95506,176.05276 L200.19937,168.89688 L203.04105,167.63188 L204.675,167.27705 z M207.55876,178.322 L204.675,176.85487 L204.675,167.27705 L205.8384,166.98232 L210.7993,168.40439 z M221.31166,174.24677 L218.7025,174.12578 L217.45088,172.03638 L219.65187,170.6075 L231.12187,170.6075 z M58.25757,175.13055 L38.1275,165.17375 L59.21102,162.04523 L62.96962,165.91833 L63.27826,168.28456 z M199.52126,168.89688 L197.73726,163.60245 L201.10355,165.47563 L203.04105,167.63188 L200.19937,168.89688 z M201.10355,165.47563 L197.73726,163.60245 L196.99596,162.83244 L199.34404,162.17915 L199.63992,162.2179 z M116.752846,166.57423 L110.73904,165.23567 L110.657394,164.98125 L112.04312,159.84062 L117.64896,161.92021 z M205.40555,163.66376 L200.66653,162.06555 L204.03323,157.06981 L206.16687,157.5598 L206.16687,161.82797 z M218.54921,163.97911 L211.25897,161.66103 L211.06876,161.37875 L210.93312,160.47313 L221.74037,162.47769 z M199.34404,162.17915 L196.99596,162.83244 L189.10924,162.5538 L189.50668,161.76228 L198.98083,159.75394 z M184.12547,155.70113 L174.20477,167.96866 L171.81052,166.39583 L178.64229,150.46548 L181.53981,151.48067 z M84.76567,158.06757 L79.29107,160.01723 L66.72003,163.2334 L76.006966,152.1597 L89.26637,154.87352 z M138.49382,151.91872 L130.37744,159.3302 L122.543,151.69072 L132.21371,146.66818 L133.33961,147.18413 z M150.77039,156.20471 L146.91109,149.04631 L149.06438,144.2535 L150.48857,144.06137 L154.21277,156.95589 z M146.91109,149.04631 L142.56343,152.8096 L139.5565,151.81807 L144.73918,144.12764 L149.06438,144.2535 z M94.31016,153.86601 L82.593124,149.51938 L83.66181,148.52826 L98.29638,152.14755 L97.129166,153.46935 z M158.87427,159.90952 L154.35481,157.0354 L158.44887,141.8478 L164.34917,149.40916 L164.58424,150.28125 z M83.66181,148.52826 L82.593124,149.51938 L76.44762,150.43129 L76.75883,140.04097 L80.30036,139.79935 z M139.5565,151.81807 L138.49382,151.91872 L133.33961,147.18413 L144.47021,144.0079 L144.73918,144.12764 z M178.60158,150.06017 L172.62875,146.515 L171.07391,140.74702 L172.74132,140.80594 L180.85808,145.62363 z M193.55376,146.25626 L188.37534,138.57216 L195.15219,138.38594 L201.15588,142.8403 L196.21408,146.91418 z M180.85808,145.62363 L172.74132,140.80594 L181.81062,133.68129 L184.70995,138.29083 L183.14716,144.37816 z M211.41104,128.64688 L204.94624,126.59125 L204.52495,125.29628 L211.42363,123.59015 L213.65718,129.2718 z M220.97815,115.201096 L214.28177,130.10594 L213.65718,129.2718 L211.42363,123.59015 L212.7661,121.94671 z M103.1602,127.41172 L99.78669,126.72126 L102.40527,122.18801 L106.67755,119.99356 L109.76144,120.25356 z M99.70125,126.71928 L94.715034,127.29732 L96.31062,125.225624 L99.143105,122.42361 L99.70125,122.58925 z M56.13042,136.89578 L49.113125,139.79704 L49.113125,117.9605 L52.910625,119.0875 L54.65001,119.871025 z M211.42363,123.59015 L204.52495,125.29628 L199.39433,123.05711 L190.11296,117.74491 L212.7661,121.94671 z M97.8025,121.905 L92.15146,121.905 L91.97063,121.1 L98.734924,120.26356 L98.366875,121.76543 z M130.69678,117.71745 L128.7995,118.8905 L127.12261,105.20498 L132.4773,108.6812 L134.16043,110.008026 z M48.85601,117.17497 L42.11959,112.44003 L51.412952,110.62554 L50.926216,114.05625 L50.300644,115.52601 z M94.27625,113.855 L91.42812,115.968124 L89.55782,110.81402 L91.53781,108.96177 L94.27625,110.80881 z M101.93549,109.06207 L99.56563,108.6225 L99.56563,104.33706 L108.802155,106.75573 L107.50465,108.31081 z M91.72219,108.51717 L80.46262,103.74353 L87.80604,99.767715 L94.29447,105.84856 L93.950615,106.545876 z M76.23813,96.648125 L72.75953,99.22902 L72.33268,98.89473 L71.15342,93.207664 L80.48282,90.611984 z M65.52087,93.92055 L63.767014,96.151245 L60.42307,94.69688 L59.67299,93.284195 L64.8333,91.36989 z M64.8333,91.36989 L59.67299,93.284195 L57.25998,90.811874 L65.049065,90.811874 L64.94837,91.26012 z M162.86182,94.62053 L154.85088,99.46926 L137.70956,89.45403 L154.62082,84.31179 L166.85995,91.74142 z M166.85995,91.74142 L154.62082,84.31179 L158.57278,82.31796 L162.13396,85.40049 L167.16441,91.62094 z M63.160294,80.01486 L54.054962,82.471436 L54.83276,80.582825 L58.33358,76.362076 L63.90832,76.49995 z M93.90328,81.03448 L91.955124,80.07088 L88.58751,63.830265 L93.85651,68.05226 L102.46987,76.79724 z M51.402008,86.0502 L46.939167,77.44124 L51.66534,75.88278 L54.83276,80.582825 L54.054962,82.471436 z M51.9225,75.215 L44.347755,75.215 L43.99932,74.944176 L50.410408,71.85237 L51.980625,75.11437 z M50.410408,71.85237 L43.99932,74.944176 L43.11885,74.80077 L40.873817,70.57254 L52.547943,68.997734 z M52.547943,68.997734 L40.873817,70.57254 L40.72986,70.43458 L41.65877,68.57375 L53.06028,68.57375 z M53.06028,68.57375 L41.65877,68.57375 L42.162533,67.312325 L53.06258,66.15702 L53.745094,68.047516 z M111.74033,66.615074 L104.472786,55.830967 L116.79,61.220387 L116.79,61.32875 L113.79538,67.04199 z M53.14654,61.06345 L43.05312,59.71933 L43.386738,54.27382 L51.825626,57.404373 L53.34532,60.786922 z M43.05312,59.71933 L40.217045,60.5084 L39.259674,55.53625 L43.20147,53.586544 L43.386738,54.27382 z M116.79,61.220387 L104.472786,55.830967 L103.20332,55.242306 L126.10744,47.834938 L121.08479,59.014374 z M51.825626,57.404373 L43.386738,54.27382 L43.20147,53.586544 L43.219185,53.205414 L51.579033,56.30665 z M51.564808,56.204617 L43.070797,49.902607 L41.702145,45.206142 L44.84094,46.536877 L52.950947,50.54828 z M54.71553,50.471264 L52.950947,50.54828 L44.84094,46.536877 L54.89979,46.536877 L56.37977,49.83102 z M56.37977,49.83102 L54.89979,46.536877 L60.30219,43.530704 L62.398396,45.69695 L63.76367,47.6788 z M144.27101,181.13539 L142.58588,179.88513 L141.99455,177.25278 L145.71613,175.81216 L148.57927,180.21243 L147.8617,180.9578 z M86.52625,186.88 L85.37717,179.20706 L86.73937,175.16437 L89.15312,172.17963 L96.438965,185.5135 L90.99245,195.61594 z M152.31587,180.29396 L148.57927,180.21243 L145.71613,175.81216 L145.83191,175.42087 L152.32375,174.16437 L152.32375,180.28008 z M103.7046,179.91148 L96.438965,185.5135 L89.15312,172.17963 L88.6667,170.29495 L92.40711,169.02496 L99.29437,175.41234 z M103.7046,179.91148 L99.29437,175.41234 L99.29437,167.84688 L104.99062,169.50063 L108.05115,176.31274 L107.655754,177.82465 z M133.50043,175.35806 L127.91125,171.21124 L126.961876,170.22513 L134.5673,164.2062 L137.42831,166.29028 L137.96768,168.17683 z M231.12187,170.6075 L219.65187,170.6075 L227.85426,159.95763 L231.533,158.17517 L235.8518,167.97649 L235.9965,169.04028 z M119.21182,170.88759 L108.05115,176.31274 L104.99062,169.50063 L110.73904,165.23567 L116.752846,166.57423 L118.415955,167.41849 z M159.71532,166.23032 L141.89743,170.63689 L137.96768,168.17683 L137.42831,166.29028 L159.606,161.47437 L162.29915,163.76555 z M256.3426,169.4308 L237.43272,171.5353 L235.9965,169.04028 L235.8518,167.97649 L245.11838,166.48187 L250.38063,166.48187 z M197.75812,169.0277 L183.01338,168.20721 L189.10924,162.5538 L196.99596,162.83244 L197.73726,163.60245 L199.52126,168.89688 z M130.84547,160.96317 L118.415955,167.41849 L116.752846,166.57423 L117.64896,161.92021 L119.19426,160.34375 L130.53506,160.34375 z M211.06876,161.37875 L208.41086,162.03609 L206.16687,161.82797 L206.16687,157.5598 L208.56938,156.96562 L210.93312,160.47313 z M200.66653,162.06555 L199.63992,162.2179 L199.34404,162.17915 L198.98083,159.75394 L201.66731,156.09975 L204.03323,157.06981 z M221.74037,162.47769 L210.93312,160.47313 L208.56938,156.96562 L233.49612,144.9695 L231.533,158.17517 L227.85426,159.95763 z M89.26637,154.87352 L76.006966,152.1597 L75.99917,151.85292 L76.44762,150.43129 L82.593124,149.51938 L94.31016,153.86601 z M158.44887,141.8478 L154.35481,157.0354 L154.21277,156.95589 L150.48857,144.06137 L151.48051,143.49063 L157.99606,141.1599 z M98.29638,152.14755 L83.66181,148.52826 L80.30036,139.79935 L91.07524,138.3886 L104.7851,144.94377 L104.88781,145.54938 z M178.55273,150.28125 L164.58424,150.28125 L164.34917,149.40916 L169.34468,145.70282 L172.62875,146.515 L178.60158,150.06017 z M144.47021,144.0079 L133.33961,147.18413 L132.21371,146.66818 L131.63788,142.1823 L131.84631,135.22333 L133.01749,134.8813 z M201.15588,142.8403 L195.15219,138.38594 L194.28497,131.73727 L201.12675,132.05452 L204.73178,132.784 L213.99408,140.30026 z M204.73178,132.784 L201.12675,132.05452 L199.39433,123.05711 L204.52495,125.29628 L204.94624,126.59125 L204.94624,128.64688 z M80.24712,128.81294 L76.1025,130.73485 L76.1025,119.86406 L76.38641,119.658 L76.83955,119.797646 L78.4821,121.828766 z M76.1025,130.73485 L69.31077,137.66351 L58.08252,136.43842 L65.17664,126.76058 L66.90845,124.757675 L76.1025,119.86406 z M97.8025,121.905 L96.31062,125.225624 L94.715034,127.29732 L92.45053,127.85735 L91.8886,125.41543 L92.15146,121.905 z M91.8886,125.41543 L78.11306,119.737335 L88.20025,118.16175 L90.59282,118.118454 L91.97063,121.1 L92.15146,121.905 z M65.17664,126.76058 L58.08252,136.43842 L56.13042,136.89578 L54.65001,119.871025 L55.939583,119.355835 L58.7425,120.39562 z M98.734924,120.26356 L91.97063,121.1 L90.59282,118.118454 L91.42812,117.34911 L99.25449,116.74843 L100.759346,118.01057 z M143.88211,126.043495 L127.74749,121.38817 L128.7995,118.8905 L130.69678,117.71745 L151.4787,121.57217 L152.16917,122.00856 z M127.74749,121.38817 L117.12742,121.77253 L116.58285,121.15358 L124.42105,103.0951 L127.12261,105.20498 L128.7995,118.8905 z M49.010796,117.9023 L42.951874,120.711876 L42.835625,120.539375 L41.603046,112.30892 L42.11959,112.44003 L48.85601,117.17497 z M55.105286,115.01676 L52.910625,119.0875 L49.113125,117.9605 L49.010796,117.9023 L48.85601,117.17497 L50.300644,115.52601 z M88.20025,118.16175 L78.11306,119.737335 L76.83955,119.797646 L76.38641,119.658 L73.02558,110.20888 L84.18612,111.21256 z M88.20025,118.16175 L84.18612,111.21256 L89.55782,110.81402 L91.42812,115.968124 L91.42812,117.34911 L90.59282,118.118454 z M57.047188,114.05625 L50.926216,114.05625 L51.412952,110.62554 L55.443966,107.207535 L63.4381,110.7886 L62.377758,112.230896 z M106.027756,111.232834 L100.13183,113.602295 L98.48062,112.513336 L98.48062,110.16062 L101.93549,109.06207 L107.50465,108.31081 z M63.4381,110.7886 L55.443966,107.207535 L52.355045,103.19692 L61.110306,100.655075 L73.83543,106.46505 L72.58488,109.73099 z M98.43664,104.31194 L94.29447,105.84856 L87.80604,99.767715 L89.258125,96.71521 L89.66968,96.61343 L97.273125,101.54954 z M99.4117,104.293396 L98.43664,104.31194 L97.273125,101.54954 L101.66361,91.77716 L103.33982,90.91423 L105.94502,90.72094 z M73.83543,106.46505 L61.110306,100.655075 L64.28188,96.65479 L72.33268,98.89473 L72.75953,99.22902 L74.527504,105.38404 z M61.110306,100.655075 L52.355045,103.19692 L50.52788,102.03847 L60.42307,94.69688 L63.767014,96.151245 L64.28188,96.65479 z M169.4482,102.823326 L162.80609,111.139336 L157.593,104.02264 L154.85088,99.46926 L162.86182,94.62053 L172.74147,98.28557 z M172.74147,98.28557 L162.86182,94.62053 L166.85995,91.74142 L167.16441,91.62094 L171.54976,90.33304 L173.17274,97.85894 z M80.48282,90.611984 L71.15342,93.207664 L70.24561,91.91672 L70.55553,85.70845 L71.09195,85.31993 L80.48703,90.607925 z M67.71903,92.49351 L64.94837,91.26012 L65.049065,90.811874 L66.41526,86.757355 L70.55553,85.70845 L70.24561,91.91672 z M89.43584,89.52457 L85.57248,87.61366 L85.794014,87.343636 L89.714554,85.047226 L93.08466,85.48847 L96.696045,87.908585 z M85.57248,87.61366 L81.40074,90.55406 L81.39188,90.55312 L81.39188,84.258675 L82.90059,83.90887 L85.794014,87.343636 z M82.90059,83.90887 L81.39188,84.258675 L78.93829,83.57602 L84.67513,79.319664 L85.9858,81.09292 L86.00121,81.19014 z M84.67513,79.319664 L78.93829,83.57602 L72.66733,83.110756 L74.75713,72.64489 L77.861404,69.48367 L79.37273,68.72801 z M93.08466,85.48847 L89.714554,85.047226 L86.00121,81.19014 L85.9858,81.09292 L91.955124,80.07088 L93.90328,81.03448 z M64.24373,81.52206 L51.998238,86.71369 L51.283993,86.53178 L51.402008,86.0502 L54.054962,82.471436 L63.160294,80.01486 z M54.83276,80.582825 L51.66534,75.88278 L51.9225,75.215 L51.980625,75.11437 L57.461597,75.11437 L58.33358,76.362076 z M63.90832,76.49995 L58.33358,76.362076 L57.461597,75.11437 L57.024582,72.19625 L59.8275,72.19625 L70.5948,73.793976 z M70.5948,73.793976 L59.8275,72.19625 L65.2525,68.17125 L67.893394,68.04063 L77.861404,69.48367 L74.75713,72.64489 z M120.45022,88.115425 L109.195,80.36125 L109.195,69.94896 L113.81319,67.09363 L124.15485,78.10249 L124.601494,88.70694 z M140.25313,68.3725 L126.06624,73.635376 L127.449394,69.23733 L128.31868,68.177765 L136.36932,65.39034 L141.43361,64.28523 z M124.15485,78.10249 L113.81319,67.09363 L113.79538,67.04199 L116.79,61.32875 L127.449394,69.23733 L126.06624,73.635376 z M127.449394,69.23733 L116.79,61.32875 L116.79,61.220387 L121.08479,59.014374 L127.79852,62.003067 L128.31868,68.177765 z M64.88845,51.403946 L58.023277,54.678352 L54.71553,50.471264 L56.37977,49.83102 L63.76367,47.6788 L67.53942,49.54637 z M87.194626,53.13926 L67.53942,49.54637 L63.76367,47.6788 L62.398396,45.69695 L68.23625,40.499374 L87.350815,52.31752 z M68.23625,40.499374 L62.398396,45.69695 L60.30219,43.530704 L59.65797,42.69426 L59.872707,42.176456 L66.37878,37.349377 z M87.350815,52.31752 L68.23625,40.499374 L66.37878,37.349377 L66.71906,36.569016 L82.08808,31.94625 L94.830536,28.48744 z M57.339302,35.59778 L47.115738,41.918797 L39.22746,42.7723 L38.04068,42.2885 L49.188152,33.699696 L58.01111,33.022514 z M188.70866,183.30013 L188.3394,183.42798 L176.04524,173.39436 L177.23299,170.14293 L178.98904,169.96138 L191.92262,176.81558 L193.62593,180.31517 z M84.3463,177.29498 L82.970055,177.44086 L73.680626,169.4 L84.5655,169.4 L88.6667,170.29495 L89.15312,172.17963 L86.73937,175.16437 z M235.03397,190.0615 L222.7274,176.87273 L221.31166,174.24677 L231.12187,170.6075 L235.9965,169.04028 L237.43272,171.5353 L239.32004,178.13654 z M122.135056,173.34326 L116.92563,177.8525 L107.72482,177.8525 L107.655754,177.82465 L108.05115,176.31274 L119.21182,170.88759 L121.361916,172.09479 z M219.65187,170.6075 L217.45088,172.03638 L212.14235,168.0978 L212.4606,167.83215 L218.54921,163.97911 L221.74037,162.47769 L227.85426,159.95763 z M126.961876,170.22513 L121.361916,172.09479 L119.21182,170.88759 L118.415955,167.41849 L130.84547,160.96317 L133.57817,162.92192 L134.5673,164.2062 z M104.99062,169.50063 L99.29437,167.84688 L96.30037,166.92935 L96.7175,163.46312 L107.92917,163.46312 L110.657394,164.98125 L110.73904,165.23567 z M203.04105,167.63188 L201.10355,165.47563 L199.63992,162.2179 L200.66653,162.06555 L205.40555,163.66376 L205.8384,166.98232 L204.675,167.27705 z M92.40711,169.02496 L88.6667,170.29495 L84.5655,169.4 L86.29375,162.98875 L96.7175,156.80174 L96.7175,163.46312 L96.30037,166.92935 z M198.98083,159.75394 L189.50668,161.76228 L190.3619,159.17139 L194.0564,153.27805 L195.4967,152.50278 L198.62898,153.84549 L201.66731,156.09975 z M130.53506,160.34375 L119.19426,160.34375 L112.04312,155.48021 L109.3784,148.23102 L115.06926,149.55801 L122.543,151.69072 L130.37744,159.3302 z M171.81052,166.39583 L162.29915,163.76555 L159.606,161.47437 L158.87427,159.90952 L164.58424,150.28125 L178.55273,150.28125 L178.64229,150.46548 z M76.006966,152.1597 L66.72003,163.2334 L62.96962,165.91833 L59.21102,162.04523 L42.035885,142.83586 L46.654186,140.96687 L75.99917,151.85292 z M217.6194,140.67734 L200.93562,153.05562 L198.62898,153.84549 L195.4967,152.50278 L196.21408,146.91418 L201.15588,142.8403 L213.99408,140.30026 z M149.06438,144.2535 L144.73918,144.12764 L144.47021,144.0079 L133.01749,134.8813 L139.82736,129.90422 L151.48051,143.49063 L150.48857,144.06137 z M181.81062,133.68129 L172.74132,140.80594 L171.07391,140.74702 L170.693,140.70102 L169.7362,140.3106 L171.12943,135.40062 L181.35197,128.32178 z M195.15219,138.38594 L188.37534,138.57216 L184.70995,138.29083 L181.81062,133.68129 L181.35197,128.32178 L182.3076,123.358635 L194.28497,131.73727 z M201.12675,132.05452 L194.28497,131.73727 L182.3076,123.358635 L180.70782,117.91853 L185.81142,115.59253 L190.11296,117.74491 L199.39433,123.05711 z M111.75395,138.17123 L103.1602,127.41172 L109.76144,120.25356 L110.056404,120.199814 L116.58285,121.15358 L117.12742,121.77253 L118.5043,134.37181 z M131.84631,135.22333 L118.5043,134.37181 L117.12742,121.77253 L127.74749,121.38817 L143.88211,126.043495 L139.82736,129.90422 L133.01749,134.8813 z M91.773254,128.77571 L85.67195,126.80754 L78.4821,121.828766 L76.83955,119.797646 L78.11306,119.737335 L91.8886,125.41543 L92.45053,127.85735 z M49.113125,139.79704 L46.654186,140.96687 L42.035885,142.83586 L29.99699,141.85759 L42.951874,120.711876 L49.010796,117.9023 L49.113125,117.9605 z M102.40527,122.18801 L99.70125,122.58925 L99.143105,122.42361 L98.366875,121.76543 L98.734924,120.26356 L100.759346,118.01057 L106.67755,119.99356 z M55.939583,119.355835 L54.65001,119.871025 L52.910625,119.0875 L55.105286,115.01676 L57.047188,114.05625 L62.377758,112.230896 L61.08831,115.53581 z M106.67755,119.99356 L100.759346,118.01057 L99.25449,116.74843 L100.13183,113.602295 L106.027756,111.232834 L110.056404,120.199814 L109.76144,120.25356 z M99.25449,116.74843 L91.42812,117.34911 L91.42812,115.968124 L94.27625,113.855 L97.124374,112.34563 L98.48062,112.513336 L100.13183,113.602295 z M116.58285,121.15358 L110.056404,120.199814 L106.027756,111.232834 L107.50465,108.31081 L108.802155,106.75573 L123.629234,101.25536 L124.42105,103.0951 z M99.56563,108.6225 L97.029434,108.6225 L93.950615,106.545876 L94.29447,105.84856 L98.43664,104.31194 L99.4117,104.293396 L99.56563,104.33706 z M87.80604,99.767715 L80.46262,103.74353 L74.527504,105.38404 L72.75953,99.22902 L76.23813,96.648125 L89.159485,96.648125 L89.258125,96.71521 z M89.159485,96.648125 L76.23813,96.648125 L80.48282,90.611984 L80.48703,90.607925 L81.39188,90.55312 L81.40074,90.55406 L86.18955,93.7395 z M72.33268,98.89473 L64.28188,96.65479 L63.767014,96.151245 L65.52087,93.92055 L67.71903,92.49351 L70.24561,91.91672 L71.15342,93.207664 z M80.48703,90.607925 L71.09195,85.31993 L71.10931,85.25752 L72.66733,83.110756 L78.93829,83.57602 L81.39188,84.258675 L81.39188,90.55312 z M66.41526,86.757355 L53.624966,87.25681 L51.998238,86.71369 L64.24373,81.52206 L71.10931,85.25752 L71.09195,85.31993 L70.55553,85.70845 z M71.10931,85.25752 L64.24373,81.52206 L63.160294,80.01486 L63.90832,76.49995 L70.5948,73.793976 L74.75713,72.64489 L72.66733,83.110756 z M91.955124,80.07088 L85.9858,81.09292 L84.67513,79.319664 L79.37273,68.72801 L86.57616,62.165802 L87.59682,62.883213 L88.58751,63.830265 z M140.25313,75.97857 L133.08412,88.80659 L125.963264,89.52702 L124.601494,88.70694 L124.15485,78.10249 L126.06624,73.635376 L140.25313,68.3725 z M109.195,69.94896 L93.85651,68.05226 L88.58751,63.830265 L87.59682,62.883213 L111.74033,66.615074 L113.79538,67.04199 L113.81319,67.09363 z M39.009064,70.28438 L36.025314,61.429375 L38.016533,61.429375 L41.61767,65.62793 L42.162533,67.312325 L41.65877,68.57375 L40.72986,70.43458 z M52.97684,62.467514 L41.61767,65.62793 L38.016533,61.429375 L40.217045,60.5084 L43.05312,59.71933 L53.14654,61.06345 L53.16916,61.224083 z M67.893394,68.04063 L61.90586,64.00211 L66.4711,59.485962 L86.66075,58.629993 L86.57616,62.165802 L79.37273,68.72801 L77.861404,69.48367 z M66.4711,59.485962 L61.90586,64.00211 L53.16916,61.224083 L53.14654,61.06345 L53.34532,60.786922 L55.79066,59.64772 L59.65489,59.169888 z M66.4711,59.485962 L59.65489,59.169888 L64.88845,51.403946 L67.53942,49.54637 L87.194626,53.13926 L87.80558,54.807755 L86.66075,58.629993 z M54.89979,46.536877 L44.84094,46.536877 L41.702145,45.206142 L39.22746,42.7723 L47.115738,41.918797 L59.65797,42.69426 L60.30219,43.530704 z M66.37878,37.349377 L59.872707,42.176456 L57.339302,35.59778 L58.01111,33.022514 L58.068596,32.981083 L62.11504,34.072792 L66.71906,36.569016 z M140.04216,182.05266 L127.62875,194.33258 L126.885994,191.52206 L127.894295,181.92152 L128.7226,179.77063 L132.81062,177.09026 L138.39958,177.91959 L140.40303,180.89244 z M207.94514,178.9272 L197.67094,183.69145 L193.62593,180.31517 L191.92262,176.81558 L197.75812,175.9198 L202.95506,176.05276 L204.675,176.85487 L207.55876,178.322 z M217.55063,175.19405 L210.37254,180.05663 L207.94514,178.9272 L207.55876,178.322 L210.7993,168.40439 L212.14235,168.0978 L217.45088,172.03638 L218.7025,174.12578 z M210.7993,168.40439 L205.8384,166.98232 L205.40555,163.66376 L206.16687,161.82797 L208.41086,162.03609 L210.46312,162.64514 L212.4606,167.83215 L212.14235,168.0978 z M96.7175,156.80174 L86.29375,162.98875 L85.95792,162.49042 L84.76567,158.06757 L89.26637,154.87352 L94.31016,153.86601 L97.129166,153.46935 L97.151695,154.74 z M189.10924,162.5538 L183.01338,168.20721 L178.98904,169.96138 L177.23299,170.14293 L174.20477,167.96866 L184.12547,155.70113 L190.3619,159.17139 L189.50668,161.76228 z M147.72021,155.74286 L133.57817,162.92192 L130.84547,160.96317 L130.53506,160.34375 L130.37744,159.3302 L138.49382,151.91872 L139.5565,151.81807 L142.56343,152.8096 z M75.99917,151.85292 L46.654186,140.96687 L49.113125,139.79704 L56.13042,136.89578 L58.08252,136.43842 L69.31077,137.66351 L76.75883,140.04097 L76.44762,150.43129 z M169.34468,145.70282 L164.34917,149.40916 L158.44887,141.8478 L157.99606,141.1599 L158.83376,139.91687 L168.19188,140.23247 L169.7362,140.3106 L170.693,140.70102 z M131.63788,142.1823 L115.06926,149.55801 L109.3784,148.23102 L104.88781,145.54938 L104.7851,144.94377 L111.75395,138.17123 L118.5043,134.37181 L131.84631,135.22333 z M151.48051,143.49063 L139.82736,129.90422 L143.88211,126.043495 L152.16917,122.00856 L154.34799,121.825356 L157.15332,129.94273 L158.83376,139.91687 L157.99606,141.1599 z M171.12943,135.40062 L168.19188,134.40994 L157.15332,129.94273 L154.34799,121.825356 L164.74947,116.185844 L180.70782,117.91853 L182.3076,123.358635 L181.35197,128.32178 z M91.07524,138.3886 L80.30036,139.79935 L76.75883,140.04097 L69.31077,137.66351 L76.1025,130.73485 L80.24712,128.81294 L80.25875,128.81566 L90.85104,135.96002 z M213.99408,140.30026 L204.73178,132.784 L204.94624,128.64688 L211.41104,128.64688 L213.65718,129.2718 L214.28177,130.10594 L221.14426,141.01634 L217.6194,140.67734 z M97.124374,112.34563 L94.27625,110.80881 L91.53781,108.96177 L91.72219,108.51717 L93.950615,106.545876 L97.029434,108.6225 L98.48062,110.16062 L98.48062,112.513336 z M151.4787,121.57217 L134.16043,110.008026 L132.4773,108.6812 L157.593,104.02264 L162.80609,111.139336 L164.74947,116.185844 L154.34799,121.825356 L152.16917,122.00856 z M108.802155,106.75573 L99.56563,104.33706 L99.4117,104.293396 L105.94502,90.72094 L120.45022,88.115425 L124.601494,88.70694 L125.963264,89.52702 L123.629234,101.25536 z M60.42307,94.69688 L50.52788,102.03847 L29.64066,95.27219 L51.283993,86.53178 L51.998238,86.71369 L53.624966,87.25681 L57.25998,90.811874 L59.67299,93.284195 z M101.66361,91.77716 L89.66968,96.61343 L89.258125,96.71521 L89.159485,96.648125 L86.18955,93.7395 L89.43584,89.52457 L96.696045,87.908585 L103.33982,90.91423 z M103.33982,90.91423 L96.696045,87.908585 L93.08466,85.48847 L93.90328,81.03448 L102.46987,76.79724 L109.195,80.36125 L120.45022,88.115425 L105.94502,90.72094 z M57.461597,75.11437 L51.980625,75.11437 L50.410408,71.85237 L52.547943,68.997734 L53.06028,68.57375 L53.745094,68.047516 L54.010693,68.17125 L57.024582,72.19625 z M65.2525,68.17125 L54.010693,68.17125 L53.745094,68.047516 L53.06258,66.15702 L52.97684,62.467514 L53.16916,61.224083 L61.90586,64.00211 L67.893394,68.04063 z M111.74033,66.615074 L87.59682,62.883213 L86.57616,62.165802 L86.66075,58.629993 L87.80558,54.807755 L100.32949,55.026386 L103.20332,55.242306 L104.472786,55.830967 z M55.79066,59.64772 L53.34532,60.786922 L51.825626,57.404373 L51.579033,56.30665 L51.564808,56.204617 L52.950947,50.54828 L54.71553,50.471264 L58.023277,54.678352 z M141.99455,177.25278 L138.39958,177.91959 L132.81062,177.09026 L133.50043,175.35806 L137.96768,168.17683 L141.89743,170.63689 L144.34448,172.66193 L145.83191,175.42087 L145.71613,175.81216 z M84.5655,169.4 L73.680626,169.4 L67.88369,169.01402 L63.27826,168.28456 L62.96962,165.91833 L66.72003,163.2334 L79.29107,160.01723 L85.95792,162.49042 L86.29375,162.98875 z M107.92917,163.46312 L97.151695,154.74 L97.129166,153.46935 L98.29638,152.14755 L104.88781,145.54938 L109.3784,148.23102 L112.04312,155.48021 L112.04312,159.84062 L110.657394,164.98125 z M159.606,161.47437 L137.42831,166.29028 L134.5673,164.2062 L133.57817,162.92192 L147.72021,155.74286 L150.77039,156.20471 L154.21277,156.95589 L154.35481,157.0354 L158.87427,159.90952 z M66.90845,124.757675 L63.380875,120.39562 L61.08831,115.53581 L62.377758,112.230896 L63.4381,110.7886 L72.58488,109.73099 L73.02558,110.20888 L76.38641,119.658 L76.1025,119.86406 z M89.55782,110.81402 L84.18612,111.21256 L73.02558,110.20888 L72.58488,109.73099 L73.83543,106.46505 L74.527504,105.38404 L80.46262,103.74353 L91.72219,108.51717 L91.53781,108.96177 z M194.0564,153.27805 L181.53981,151.48067 L178.64229,150.46548 L178.55273,150.28125 L178.60158,150.06017 L180.85808,145.62363 L183.14716,144.37816 L193.55376,146.25626 L196.21408,146.91418 L195.4967,152.50278 z M104.7851,144.94377 L91.07524,138.3886 L90.85104,135.96002 L91.773254,128.77571 L92.45053,127.85735 L94.715034,127.29732 L99.70125,126.71928 L99.78669,126.72126 L103.1602,127.41172 L111.75395,138.17123 z M157.593,104.02264 L132.4773,108.6812 L127.12261,105.20498 L124.42105,103.0951 L123.629234,101.25536 L125.963264,89.52702 L133.08412,88.80659 L135.38402,88.98903 L137.70956,89.45403 L154.85088,99.46926 z M172.89468,179.14821 L159.21625,177.24536 L156.43411,175.9751 L155.32144,172.81058 L158.71478,167.33101 L159.71532,166.23032 L162.29915,163.76555 L171.81052,166.39583 L174.20477,167.96866 L177.23299,170.14293 L176.04524,173.39436 z" fill="none" stroke="white" stroke-width="0.6"/>
</g>
<path d="m 15.815664,12.893319 c -1.445284,-3.0999497 -5.555449,-0.3575 -5.08537,2.32203 1.697826,2.92736 4.504013,-3.54417 4.40859,-2.58178 -1.548999,2.22986 0.741131,6.08701 3.012419,3.25791 2.532153,-2.82358 0.259001,-7.8326797 -3.488671,-7.9011197 -3.217272,0.056 -5.8863857,2.4603197 -7.9308737,4.7238797 -2.354585,2.46752 0.0048,5.887 2.757763,6.62143 3.2195457,1.10867 6.8759417,1.30834 9.9459317,-0.36585 2.270396,-1.12373 5.025949,-2.62031 5.680576,-5.20027 -2.108811,-3.66096 -6.038415,1.28356 -3.842036,3.67822 1.07278,0.89979 4.586982,-2.27037 3.201668,-2.73503 0.03094,3.24357 1.226854,6.37852 1.337023,9.60311 -0.672198,3.54892 -7.469251,0.32096 -4.637082,-2.5164 2.158436,-2.4193 5.610472,-2.84094 8.202925,-4.57369 0.993877,-1.40371 0.353413,-5.25046 3.182464,-3.48957 2.142923,1.43516 -2.250898,5.7532 1.723416,5.02339 1.661189,-0.71663 6.494946,-1.40457 4.601401,-3.95236 -4.205319,-0.68052 -1.190571,5.86505 1.665411,3.46881 1.929752,-0.9247 2.778055,-4.05119 1.423645,-5.35034 0.479155,1.8589 3.849911,7.52574 4.880369,3.32696 0.21201,-1.28088 0.40468,-3.80204 1.01246,-1.23041 0.5858,2.6865 3.83412,4.91909 4.56937,1.07383 0.65272,-1.00894 -0.2696,-4.02739 0.99929,-1.35746 1.10974,2.31613 6.32001,1.46113 6.147,-1.13059 -1.98394,-2.13868 -5.3717,1.45205 -3.78252,3.73454 2.57741,0.96208 6.69797,-0.21041 7.06275,-3.33983 0.41287,-2.63769 0.26643,-5.3430297 -0.11178,-7.9756197 0.67418,3.94149 1.24889,7.9380497 2.39963,11.7713397 2.10586,1.67977 5.7434,1.65022 7.74596,-0.23639 3.03149,-1.85431 -0.26637,-4.76925 -2.71777,-4.54025 -2.11577,0.0793 -5.36257,2.40772 -5.16868,3.85604 2.08262,-2.38818 5.55759,-1.22628 8.30726,-1.6832 3.182,-0.26596 6.46546,-0.57372 9.54494,-1.18158 0.24171,0.4199 -0.27752,0.54338 -0.43067,0.17453" fill="none" stroke="white" stroke-width="1" transform="translate(260,190) scale(0.3)"/>
</svg>