<svg height="210mm" style="background:black" viewBox="0 0 297 210" width="297mm" xmlns="http://www.w3.org/2000/svg" xmlns:inkscape="http://www.inkscape.org/namespaces/inkscape">
<g inkscape:groupmode="layer" inkscape:label="gold">
<path d="M123.803665,143.1325 L116.73937,145.75313 L122.7571,141.28836 z M81.07,128.87328 L77.679375,128.24437 L82.523125,127.52563 z M233.95328,133.22531 L227.92722,124.28341 L231.66753,123.05004 z M248.96063,118.954414 L246.12166,119.70667 L242.42386,115.317024 z M83.88957,115.11016 L75.26356,119.3768 L75.705315,115.66218 z M250.49275,115.34425 L248.39995,116.89697 L244.09125,114.156876 z M148.37698,81.11529 L120.430016,93.55619 L119.03267,87.33574 z M106.770935,74.30937 L105.88937,74.30937 L105.88937,71.69312 z M104.872185,65.45438 L96.62449,65.45438 L95.21635,60.678368 z M298.56482,-10 L299,-10.327175 L299,-10 z M18.656666,-10 L-11,-10 L-11,-21.381035 z M299,215.75937 L301.85782,220 L299,220 z M-11,213.30652 L-11,220 L-19.94182,220 z M113.75562,152.79688 L111.585625,153.60187 L112.99898,152.20372 L113.94341,152.37889 z M128.92625,144.18625 L125.50042,145.88075 L125.0178,144.16199 L130.5874,140.48885 z M107.905426,146.0142 L104.399506,144.62692 L104.63,142.40375 L106.19632,142.21007 z M109.99782,140.92804 L102.13275,139.95547 L108.41778,136.36848 L112.231316,140.53813 z M115.14757,135.42053 L107.93118,134.082 L107.391,132.93692 L114.65979,133.61104 z M165.05438,147.08882 L149.56062,133.95125 L149.56062,126.95173 L156.42506,130.8694 z M249.39401,131.54637 L247.10948,132.27278 L246.40602,128.0974 L249.62492,129.49052 z M132.47188,130.45813 L127.293465,129.17744 L129.39336,128.26862 L132.47188,130.09587 z M140.38979,128.19646 L132.87875,129.311 L132.87875,129.04938 L134.3743,127.38499 z M86.82173,128.9762 L83.20609,127.18781 L81.07,124.01813 L85.986404,124.01813 z M223.5474,123.4894 L217.37312,131.68681 L217.37312,121.34268 L222.97446,121.831604 z M229.30812,120.999374 L224.10013,120.999374 L227.68062,119.79188 L229.30812,120.999374 z M229.30812,120.999374 L227.68062,119.79188 L227.95187,119.59062 L231.74937,120.999374 z M97.16387,116.07719 L87.13438,117.9375 L84.41276,114.9086 L87.28962,111.30673 z M168.22011,115.937706 L145.18631,122.1521 L144.98692,121.98264 L150.56255,114.30011 z M143.77003,112.993126 L137.1571,111.35767 L145.60974,106.87816 L146.94627,106.82979 z M67.24529,110.43375 L60.798584,110.43375 L63.409016,108.19901 L67.06004,109.40294 z M56.229935,110.63244 L46.296837,109.40415 L51.588013,102.62338 L53.536697,102.43979 z M233.84187,111.16688 L229.73128,110.22848 L229.28613,109.83816 L232.67938,108.57938 z M66.526215,106.497536 L64.96254,107.32621 L63.521873,107.80127 L62.218124,104.899376 z M66.526215,106.497536 L62.218124,104.899376 L61.28484,103.316666 L67.62004,106.13685 z M100.50403,108.92469 L93.61531,106.539566 L102.85477,102.42651 L104.068756,104.191895 z M132.48686,105.07736 L125.67555,101.57875 L133.05959,94.535 L136.53079,93.37606 z M114.45769,97.95033 L109.50604,99.17493 L108.99642,99.01739 L114.942345,96.81164 z M79.080376,100.88795 L73.55541,100.55558 L74.98774,95.77346 L78.493126,96.74875 z M82.738075,93.801384 L79.54119,94.66389 L76.151566,91.101135 L83.42141,88.224464 z M97.944695,94.38345 L93.29562,94.118126 L95.31062,92.62312 L99.921875,92.62312 z M99.921875,92.62312 L95.31062,92.62312 L94.67771,91.68396 L100.10271,92.48896 z M60.048126,93.83063 L53.67732,94.77597 L50.96196,91.184685 L58.810307,90.157104 z M60.56704,89.586876 L58.488438,88.044685 L60.024193,84.626396 L62.42678,89.379906 z M92.83364,87.149605 L88.52937,82.359375 L96.57938,81.6128 L95.00499,86.285164 z M68.99348,82.34625 L55.99117,78.05875 L68.87475,79.2536 L70.38737,81.12405 z M88.05218,79.82512 L84.3656,79.327805 L83.50082,76.92175 L89.31183,79.07745 z M95.039375,76.07687 L87.45487,75.34289 L84.42316,67.47021 L95.039375,72.043686 z M81.879486,75.643845 L75.99023,77.28239 L74.57938,76.23563 L83.156044,67.75118 z M108.43234,62.033127 L106.78086,66.934296 L105.817474,65.88597 L105.07562,62.033127 z M143.57544,67.843124 L128.05484,64.80135 L125.28119,49.984707 L129.83336,47.45165 z M138.0664,47.04 L130.16624,47.04 L128.81,46.03375 L134.33672,46.03375 z M131.15437,44.984375 L129.48813,45.396458 L129.48813,43.337 L129.90002,43.123077 z M129.48813,45.396458 L128.81,45.81573 L128.81,43.53825 L129.48813,43.337 z M143.18944,36.398018 L111.45,45.22875 L111.45,40.96225 L142.29204,36.38569 z M100.862595,34.326996 L96.51648,42.388336 L81.51971,37.15227 L77.34614,35.530285 z M142.29204,36.38569 L111.45,40.96225 L110.82119,40.68233 L111.9925,35.468124 z M128.50377,36.309036 L121.69233,34.729774 L123.08625,30.07587 L128.09085,30.79453 z M-37.53854,17.946432 L-11,25.83833 L-11,33.475227 L-11,35.011 z M299,215.75937 L299,189.80771 L329.52048,220 L301.85782,220 z M114.82313,154.3809 L110.911125,155.00287 L110.694374,154.26312 L111.585625,153.60187 L113.75562,152.79688 z M114.82313,154.3809 L113.75562,152.79688 L113.94341,152.37889 L126.616066,148.61798 L116.79871,154.28319 z M108.14241,146.13509 L103.250854,147.34483 L104.14694,144.68547 L104.399506,144.62692 L107.905426,146.0142 z M103.250854,147.34483 L101.39972,148.52205 L94.95763,148.31424 L97.7136,145.00368 L104.14694,144.68547 z M130.22885,144.66946 L128.31549,153.187 L125.22855,151.52849 L125.50042,145.88075 L128.92625,144.18625 z M106.19632,142.21007 L104.63,142.40375 L101.58813,140.14688 L102.13275,139.95547 L109.99782,140.92804 z M98.74349,140.80106 L87.47202,135.78343 L89.75086,133.22563 L99.5091,136.84563 L99.89753,140.3039 z M101.17363,140.12637 L99.89753,140.3039 L99.5091,136.84563 L103.01111,132.16875 L103.904,132.02333 z M99.5091,136.84563 L89.75086,133.22563 L90.28284,132.4841 L93.68313,132.16875 L103.01111,132.16875 z M263.06808,136.2288 L246.71614,137.1866 L243.27042,135.34023 L247.10948,132.27278 L249.39401,131.54637 z M133.95482,137.0596 L126.938705,135.8031 L122.224655,130.68173 L127.293465,129.17744 L132.47188,130.45813 z M81.07,139.04898 L73.55322,143.40599 L76.277916,128.24437 L77.679375,128.24437 L81.07,128.87328 z M132.47188,130.09587 L129.39336,128.26862 L130.75291,126.68352 L132.87875,129.04938 L132.87875,129.311 z M252.45872,128.68187 L249.62492,129.49052 L246.40602,128.0974 L245.7405,127.52766 L247.16647,126.71862 z M134.3743,127.38499 L132.87875,129.04938 L130.75291,126.68352 L130.80013,126.48502 L133.53009,126.66916 z M252.45872,128.68187 L247.16647,126.71862 L247.53404,126.46409 L256.86087,123.004135 L272.90036,124.637505 z M158.82074,127.96086 L156.42506,130.8694 L149.56062,126.95173 L147.83687,125.42687 L159.53976,125.42687 z M133.53009,126.66916 L130.80013,126.48502 L127.856186,121.57055 L135.1882,118.79274 L138.90941,119.684715 z M90.12984,131.55977 L86.82173,128.9762 L85.986404,124.01813 L91.02875,121.880356 L94.33043,121.95035 z M111.20587,125.30612 L105.76882,129.34007 L104.68503,126.5257 L109.65297,124.068436 L111.12889,124.506454 z M247.16647,126.71862 L245.7405,127.52766 L241.72852,127.329216 L246.72841,122.87771 L247.53404,126.46409 z M256.86087,123.004135 L247.53404,126.46409 L246.72841,122.87771 L246.83087,122.64963 L254.67,122.3075 z M111.12889,124.506454 L109.65297,124.068436 L106.72573,119.72479 L110.66825,120.95641 L113.53993,122.51885 z M113.53993,122.51885 L110.66825,120.95641 L113.484375,119.38937 L116.13112,119.66991 L113.762405,122.525734 z M113.484375,119.38937 L110.66825,120.95641 L106.72573,119.72479 L104.32121,118.48375 L112.56891,118.48375 z M116.13112,119.66991 L113.484375,119.38937 L112.56891,118.48375 L123.96718,111.71832 L128.64047,112.245 z M87.13438,117.9375 L85.633385,120.16478 L83.06339,119.75027 L84.27017,115.04965 L84.41276,114.9086 z M249.80022,119.09589 L249.22313,118.93278 L248.39995,116.89697 L250.49275,115.34425 L251.77667,115.185486 z M125.67547,121.770645 L113.2359,125.253426 L105.07116,124.3069 L118.568054,115.87421 L122.42183,114.52868 z M125.67547,121.770645 L122.42183,114.52868 L123.07685,114.194565 L124.96679,114.68947 L125.830025,121.73455 z M127.856186,121.57055 L125.830025,121.73455 L124.96679,114.68947 L132.08609,113.03882 L135.1882,118.79274 z M68.72813,118.2825 L56.543533,116.8917 L56.956272,116.08327 L68.73622,112.50783 L69.890045,112.67904 z M228.35875,116.82079 L222.11258,116.57688 L217.43968,111.809784 L228.81169,113.29871 L232.37033,115.41094 z M122.42183,114.52868 L118.568054,115.87421 L119.72312,112.44625 L123.03566,113.675095 L123.07685,114.194565 z M123.03566,113.675095 L119.72312,112.44625 L119.72312,112.05813 L120.700066,111.22975 L123.17145,112.06321 z M242.32346,108.72659 L234.5975,114.45875 L234.30762,111.44763 L236.94054,109.35464 L241.49437,108.06753 z M119.72312,112.05813 L81.62293,108.01986 L107.25529,106.32186 L118.822876,106.7033 L120.700066,111.22975 z M68.73622,112.50783 L56.956272,116.08327 L57.20784,112.53699 L60.798584,110.43375 L67.24529,110.43375 z M123.17145,112.06321 L120.700066,111.22975 L118.822876,106.7033 L121.2618,106.21782 L128.67438,108.320625 z M145.60974,106.87816 L137.1571,111.35767 L132.04268,112.233345 L130.3833,108.375755 L132.56664,106.02429 z M234.30762,111.44763 L233.84187,111.16688 L232.67938,108.57938 L232.32202,105.927986 L236.94054,109.35464 z M86.885895,110.69656 L75.86763,111.514046 L78.02062,107.12124 L78.69656,107.03766 L86.928085,110.091286 z M67.06004,109.40294 L63.409016,108.19901 L63.521873,107.80127 L64.96254,107.32621 L67.90502,108.41778 z M86.928085,110.091286 L78.69656,107.03766 L82.806,102.46425 L85.10861,104.17264 L87.59195,107.67335 z M93.48722,106.52055 L87.89235,107.55831 L92.41227,102.76762 L96.5289,100.546326 L96.67421,100.609215 z M122.384254,111.46439 L116.180916,110.581726 L111.337395,106.44366 L113.81273,102.08188 L116.06125,102.08188 z M92.41227,102.76762 L87.89235,107.55831 L87.59195,107.67335 L85.10861,104.17264 L89.37442,101.64067 z M121.2618,106.21782 L118.822876,106.7033 L107.25529,106.32186 L121.602776,99.54783 L123.085495,101.57875 z M111.337395,106.44366 L106.79027,104.88025 L111.54041,100.18118 L113.696815,100.44783 L113.81273,102.08188 z M133.05959,94.535 L125.67555,101.57875 L123.085495,101.57875 L121.602776,99.54783 L121.37251,96.89983 z M113.696815,100.44783 L111.54041,100.18118 L109.50604,99.17493 L114.45769,97.95033 L113.96598,100.1392 z M91.59224,98.89821 L84.85952,99.23123 L88.180626,96.274376 L90.77335,95.31255 L92.104645,98.69907 z M84.69653,99.27355 L81.97553,101.611115 L80.50196,101.27098 L81.938,95.94375 L84.39733,95.94375 z M88.180626,96.274376 L84.85952,99.23123 L84.69653,99.27355 L84.39733,95.94375 L84.53009,95.73268 z M102.47894,101.793564 L99.433624,96.145 L106.025,96.145 L105.45318,98.26628 L102.534836,101.809364 z M96.72715,96.745026 L91.587105,94.20263 L93.29562,94.118126 L97.944695,94.38345 L97.896965,94.71987 z M58.810307,90.157104 L50.96196,91.184685 L43.312,85.7927 L58.488438,88.044685 L60.56704,89.586876 z M102.39089,91.234146 L96.858345,87.29355 L103.701294,85.26274 L105.16344,86.45604 L102.44831,91.240364 z M77.293365,81.03577 L70.62688,85.98187 L68.99348,82.34625 L70.38737,81.12405 L76.03359,78.73025 z M109.4067,80.43426 L103.71142,79.45158 L107.27122,74.82959 L109.32521,75.047295 L110.4079,79.46536 z M118.73585,74.76947 L110.4079,79.46536 L109.32521,75.047295 L109.89031,74.20875 L111.69299,73.965576 z M109.32521,75.047295 L107.27122,74.82959 L107.087395,74.465904 L108.61883,72.950935 L109.89031,74.20875 z M105.88937,74.30937 L104.53313,74.51063 L105.07562,71.29063 L105.5164,70.30953 L105.88937,71.69312 z M104.53313,74.51063 L100.29124,79.23144 L98.048836,79.03064 L97.650154,78.63625 L105.07562,71.29063 z M108.43234,62.033127 L105.07562,62.033127 L99.36188,53.554657 L99.819824,53.35646 L109.42254,61.193516 z M103.65082,49.467163 L81.51971,37.15227 L96.51648,42.388336 L104.008125,47.205544 L104.200226,47.918182 z M110.82119,40.68233 L104.36322,43.07803 L103.63622,35.167046 L110.38393,35.269215 L111.9925,35.468124 z M122.82386,40.28954 L119.056,35.164436 L121.69233,34.729774 L128.50377,36.309036 L129.0148,37.172672 z M138.0045,31.274185 L131.95819,38.25236 L131.47136,38.090973 L130.33043,37.639507 L135.07135,30.604584 z M112.99898,152.20372 L111.585625,153.60187 L110.694374,154.26312 L107.84831,150.46225 L111.38769,147.12009 L111.60946,147.04904 z M107.57339,150.526 L101.39972,148.52205 L103.250854,147.34483 L108.14241,146.13509 L111.38769,147.12009 L107.84831,150.46225 z M130.22885,144.66946 L128.92625,144.18625 L130.5874,140.48885 L134.14189,137.13242 L136.45065,137.56065 L138.59422,139.70422 z M243.25221,147.65306 L240.36781,134.81284 L243.27042,135.34023 L246.71614,137.1866 L246.63957,138.0103 L246.62938,138.04813 z M119.112816,143.94188 L112.231316,140.53813 L108.41778,136.36848 L107.93118,134.082 L115.14757,135.42053 L129.91437,143.94188 z M123.79188,137.90437 L87.444374,124.42062 L105.07116,124.3069 L113.2359,125.253426 L122.224655,130.68173 L126.938705,135.8031 z M114.65979,133.61104 L107.391,132.93692 L106.37991,131.53888 L117.62312,128.48026 L122.255806,128.03958 L126.56667,128.56296 z M149.56062,133.95125 L141.10896,131.71176 L142.24097,128.2823 L145.54752,124.07674 L147.83687,125.42687 L149.56062,126.95173 z M103.01111,132.16875 L93.68313,132.16875 L98.62945,127.581436 L105.850494,130.64288 L106.044716,131.39542 L103.904,132.02333 z M98.62945,127.581436 L93.68313,132.16875 L90.28284,132.4841 L90.12984,131.55977 L94.33043,121.95035 L95.73972,121.14946 z M190.1646,131.28302 L158.82074,127.96086 L159.53976,125.42687 L171.94449,115.14061 L186.50638,109.81691 L187.78111,114.88522 z M105.850494,130.64288 L98.62945,127.581436 L95.73972,121.14946 L99.14665,118.564285 L104.68503,126.5257 L105.76882,129.34007 z M117.62312,128.48026 L106.37991,131.53888 L106.044716,131.39542 L105.850494,130.64288 L105.76882,129.34007 L111.20587,125.30612 z M117.62312,128.48026 L111.20587,125.30612 L111.12889,124.506454 L113.53993,122.51885 L113.762405,122.525734 L122.255806,128.03958 z M159.53976,125.42687 L147.83687,125.42687 L145.54752,124.07674 L145.18631,122.1521 L168.22011,115.937706 L171.94449,115.14061 z M246.72841,122.87771 L241.72852,127.329216 L239.60168,127.50956 L238.14998,121.720276 L244.65196,121.28172 L246.83087,122.64963 z M85.986404,124.01813 L81.07,124.01813 L77.665344,122.1236 L83.06339,119.75027 L85.633385,120.16478 L91.02875,121.880356 z M229.30812,120.999374 L225.59839,123.75176 L223.5474,123.4894 L222.97446,121.831604 L223.1085,121.30592 L224.10013,120.999374 z M231.74937,120.999374 L227.95187,119.59062 L228.35875,119.13781 L236.837,120.1862 L236.85953,120.4118 L234.63449,121.23721 z M236.837,120.1862 L228.35875,119.13781 L228.35875,116.82079 L232.37033,115.41094 L234.5975,115.55675 L236.98502,117.27603 z M112.56891,118.48375 L104.32121,118.48375 L101.15426,117.27102 L116.180916,110.581726 L122.384254,111.46439 L123.96718,111.71832 z M250.49275,115.34425 L244.09125,114.156876 L243.58041,113.954735 L244.93925,110.678185 L264.6869,108.79979 L251.77667,115.185486 z M150.56255,114.30011 L144.98692,121.98264 L141.89839,120.134674 L143.77003,112.993126 L146.94627,106.82979 L149.71165,105.46196 z M228.81169,113.29871 L217.43968,111.809784 L189.23247,93.43403 L188.62434,81.99039 L229.28613,109.83816 L229.73128,110.22848 z M67.90502,108.41778 L64.96254,107.32621 L66.526215,106.497536 L67.62004,106.13685 L70.68524,105.9744 L70.738106,106.08226 z M78.02062,107.12124 L75.86763,111.514046 L74.48768,111.93562 L74.48212,111.933754 L71.96596,107.08001 L76.79947,106.10197 z M76.79947,106.10197 L71.96596,107.08001 L70.738106,106.08226 L70.68524,105.9744 L70.71189,105.63829 L77.371956,104.40296 z M102.85477,102.42651 L93.61531,106.539566 L93.48722,106.52055 L96.67421,100.609215 L102.47894,101.793564 L102.534836,101.809364 z M77.371956,104.40296 L70.71189,105.63829 L70.326805,100.9241 L73.55541,100.55558 L79.080376,100.88795 L79.72668,101.15844 z M122.384254,111.46439 L116.06125,102.08188 L116.16975,102.06175 L129.895,112.245 L128.64047,112.245 L123.96718,111.71832 z M92.41227,102.76762 L89.37442,101.64067 L91.59224,98.89821 L92.104645,98.69907 L95.902695,100.007385 L96.5289,100.546326 z M120.35313,100.73155 L116.16975,102.06175 L116.06125,102.08188 L113.81273,102.08188 L113.696815,100.44783 L113.96598,100.1392 z M114.942345,96.81164 L108.99642,99.01739 L105.45318,98.26628 L106.025,96.145 L106.94666,93.40973 L118.016205,91.11012 z M81.938,95.94375 L80.50196,101.27098 L79.72668,101.15844 L79.080376,100.88795 L78.493126,96.74875 L79.54183,94.67389 z M95.902695,100.007385 L92.104645,98.69907 L90.77335,95.31255 L90.93188,94.17563 L91.587105,94.20263 L96.72715,96.745026 z M66.46788,99.038666 L59.833466,101.61169 L54.317806,101.90399 L53.67732,94.77597 L60.048126,93.83063 L66.88905,93.83063 z M88.180626,96.274376 L84.53009,95.73268 L84.685104,94.812584 L89.5404,92.110855 L90.93188,94.17563 L90.77335,95.31255 z M78.493126,96.74875 L74.98774,95.77346 L71.78704,91.02403 L76.151566,91.101135 L79.54119,94.66389 L79.54183,94.67389 z M60.048126,93.83063 L58.810307,90.157104 L60.56704,89.586876 L62.42678,89.379906 L68.3475,91.5763 L66.88905,93.83063 z M118.016205,91.11012 L106.94666,93.40973 L102.44831,91.240364 L105.16344,86.45604 L111.95551,84.21636 L120.94823,89.83491 z M81.56253,83.9376 L70.13973,88.17509 L70.12241,88.1028 L70.62688,85.98187 L77.293365,81.03577 L81.28414,83.573685 z M111.95551,84.21636 L105.16344,86.45604 L103.701294,85.26274 L100.61274,79.30483 L103.71142,79.45158 L109.4067,80.43426 z M70.12241,88.1028 L58.94641,81.58776 L55.917908,78.03993 L55.99117,78.05875 L68.99348,82.34625 L70.62688,85.98187 z M89.07319,88.93808 L84.27017,87.675995 L82.82816,84.906906 L87.1548,82.1554 L88.52937,82.359375 L92.83364,87.149605 z M87.1548,82.1554 L82.82816,84.906906 L81.56253,83.9376 L81.28414,83.573685 L84.3656,79.327805 L88.05218,79.82512 z M70.38737,81.12405 L68.87475,79.2536 L74.27045,76.05099 L74.57938,76.23563 L75.99023,77.28239 L76.03359,78.73025 z M89.31183,79.07745 L83.50082,76.92175 L82.907036,75.985596 L87.45487,75.34289 L95.039375,76.07687 L95.37721,76.70896 z M87.45487,75.34289 L82.907036,75.985596 L81.879486,75.643845 L83.156044,67.75118 L83.39547,66.89258 L84.42316,67.47021 z M111.69299,73.965576 L109.89031,74.20875 L108.61883,72.950935 L107.07721,68.37582 L107.467415,68.10979 L107.73596,68.09385 z M111.69299,73.965576 L107.73596,68.09385 L135.7075,64.635 L140.43506,64.36519 L147.5488,65.205925 L118.73585,74.76947 z M104.872185,65.45438 L95.21635,60.678368 L92.000496,55.6553 L99.36188,53.554657 L105.07562,62.033127 L105.817474,65.88597 z M135.7075,64.635 L107.73596,68.09385 L107.467415,68.10979 L106.78086,66.934296 L108.43234,62.033127 L109.42254,61.193516 z M135.7075,64.635 L109.42254,61.193516 L99.819824,53.35646 L103.13324,51.36321 L105.43815,51.923412 L140.43506,64.36519 z M128.05484,64.80135 L117.96,64.509544 L88.247696,63.078075 L123.28897,45.74583 L123.99395,46.48285 L125.28119,49.984707 z M129.83336,47.45165 L125.28119,49.984707 L123.99395,46.48285 L128.65378,45.95096 L128.81,46.03375 L130.16624,47.04 z M134.33672,46.03375 L128.81,46.03375 L128.65378,45.95096 L128.81,45.81573 L129.48813,45.396458 L131.15437,44.984375 z M134.33672,46.03375 L131.15437,44.984375 L129.90002,43.123077 L132.94537,38.926956 L168.35551,51.771065 L138.0664,47.04 z M111.45,45.22875 L104.200226,47.918182 L104.008125,47.205544 L104.36322,43.07803 L110.82119,40.68233 L111.45,40.96225 z M104.008125,47.205544 L96.51648,42.388336 L100.862595,34.326996 L102.1114,34.188015 L103.63622,35.167046 L104.36322,43.07803 z M168.35551,51.771065 L132.94537,38.926956 L131.95819,38.25236 L138.0045,31.274185 L138.25854,31.241875 L168.73029,51.88403 z M113.94341,152.37889 L112.99898,152.20372 L111.60946,147.04904 L119.112816,143.94188 L129.91437,143.94188 L135.0848,144.24702 L126.616066,148.61798 z M125.22855,151.52849 L117.4175,150.15334 L111.044495,148.71078 L116.73937,145.75313 L123.803665,143.1325 L125.0178,144.16199 L125.50042,145.88075 z M234.17883,133.63437 L204.65419,150.06342 L217.37312,131.68681 L223.5474,123.4894 L225.59839,123.75176 L227.92722,124.28341 L233.95328,133.22531 z M109.65297,124.068436 L104.68503,126.5257 L99.14665,118.564285 L99.72971,117.39011 L101.15426,117.27102 L104.32121,118.48375 L106.72573,119.72479 z M231.66753,123.05004 L227.92722,124.28341 L225.59839,123.75176 L229.30812,120.999374 L229.30812,120.999374 L231.74937,120.999374 L234.63449,121.23721 z M254.67,122.3075 L246.83087,122.64963 L244.65196,121.28172 L246.12166,119.70667 L248.96063,118.954414 L249.22313,118.93278 L249.80022,119.09589 z M227.68062,119.79188 L224.10013,120.999374 L223.1085,121.30592 L222.11258,116.57688 L228.35875,116.82079 L228.35875,119.13781 L227.95187,119.59062 z M248.96063,118.954414 L242.42386,115.317024 L242.20946,115.1226 L243.58041,113.954735 L244.09125,114.156876 L248.39995,116.89697 L249.22313,118.93278 z M83.06339,119.75027 L77.665344,122.1236 L75.0578,122.04773 L74.79334,121.47 L75.26356,119.3768 L83.88957,115.11016 L84.27017,115.04965 z M74.79334,121.47 L68.72813,118.2825 L69.890045,112.67904 L74.48212,111.933754 L74.48768,111.93562 L75.705315,115.66218 L75.26356,119.3768 z M138.90941,119.684715 L135.1882,118.79274 L132.08609,113.03882 L132.04268,112.233345 L137.1571,111.35767 L143.77003,112.993126 L141.89839,120.134674 z M232.37033,115.41094 L228.81169,113.29871 L229.73128,110.22848 L233.84187,111.16688 L234.30762,111.44763 L234.5975,114.45875 L234.5975,115.55675 z M67.62004,106.13685 L61.28484,103.316666 L59.833466,101.61169 L66.46788,99.038666 L70.326805,100.9241 L70.71189,105.63829 L70.68524,105.9744 z M128.67438,108.320625 L121.2618,106.21782 L123.085495,101.57875 L125.67555,101.57875 L132.48686,105.07736 L132.56664,106.02429 L130.3833,108.375755 z M89.37442,101.64067 L85.10861,104.17264 L82.806,102.46425 L81.97553,101.611115 L84.69653,99.27355 L84.85952,99.23123 L91.59224,98.89821 z M102.47894,101.793564 L96.67421,100.609215 L96.5289,100.546326 L95.902695,100.007385 L96.72715,96.745026 L97.896965,94.71987 L99.433624,96.145 z M84.39733,95.94375 L81.938,95.94375 L79.54183,94.67389 L79.54119,94.66389 L82.738075,93.801384 L84.685104,94.812584 L84.53009,95.73268 z M84.685104,94.812584 L82.738075,93.801384 L83.42141,88.224464 L84.27017,87.675995 L89.07319,88.93808 L89.28887,89.684875 L89.5404,92.110855 z M133.05959,94.535 L121.37251,96.89983 L120.07829,96.29626 L120.430016,93.55619 L148.37698,81.11529 L152.03767,80.260254 L136.53079,93.37606 z M95.31062,92.62312 L93.29562,94.118126 L91.587105,94.20263 L90.93188,94.17563 L89.5404,92.110855 L89.28887,89.684875 L94.67771,91.68396 z M68.3475,91.5763 L62.42678,89.379906 L60.024193,84.626396 L58.94641,81.58776 L70.12241,88.1028 L70.13973,88.17509 L70.00544,90.66604 z M103.701294,85.26274 L96.858345,87.29355 L95.00499,86.285164 L96.57938,81.6128 L98.048836,79.03064 L100.29124,79.23144 L100.61274,79.30483 z M108.61883,72.950935 L107.087395,74.465904 L106.770935,74.30937 L105.88937,71.69312 L105.5164,70.30953 L105.85801,68.87333 L107.07721,68.37582 z M128.65378,45.95096 L123.99395,46.48285 L123.28897,45.74583 L123.00326,44.919106 L126.23312,43.920624 L128.81,43.53825 L128.81,45.81573 z M128.81,43.53825 L126.23312,43.920624 L131.47136,38.090973 L131.95819,38.25236 L132.94537,38.926956 L129.90002,43.123077 L129.48813,43.337 z M131.47136,38.090973 L126.23312,43.920624 L123.00326,44.919106 L120.774216,42.363224 L122.82386,40.28954 L129.0148,37.172672 L130.33043,37.639507 z M135.07135,30.604584 L130.33043,37.639507 L129.0148,37.172672 L128.50377,36.309036 L128.09085,30.79453 L129.12656,29.999598 L133.9206,30.263067 z M107.905426,146.0142 L106.19632,142.21007 L109.99782,140.92804 L112.231316,140.53813 L119.112816,143.94188 L111.60946,147.04904 L111.38769,147.12009 L108.14241,146.13509 z M104.14694,144.68547 L97.7136,145.00368 L98.74349,140.80106 L99.89753,140.3039 L101.17363,140.12637 L101.58813,140.14688 L104.63,142.40375 L104.399506,144.62692 z M247.10948,132.27278 L243.27042,135.34023 L240.36781,134.81284 L235.04723,133.39172 L239.60168,127.50956 L241.72852,127.329216 L245.7405,127.52766 L246.40602,128.0974 z M82.523125,127.52563 L77.679375,128.24437 L76.277916,128.24437 L74.92112,122.20445 L75.0578,122.04773 L77.665344,122.1236 L81.07,124.01813 L83.20609,127.18781 z M233.95328,133.22531 L231.66753,123.05004 L234.63449,121.23721 L236.85953,120.4118 L238.14998,121.720276 L239.60168,127.50956 L235.04723,133.39172 L234.17883,133.63437 z M222.97446,121.831604 L217.37312,121.34268 L187.78111,114.88522 L186.50638,109.81691 L189.23247,93.43403 L217.43968,111.809784 L222.11258,116.57688 L223.1085,121.30592 z M244.65196,121.28172 L238.14998,121.720276 L236.85953,120.4118 L236.837,120.1862 L236.98502,117.27603 L242.20946,115.1226 L242.42386,115.317024 L246.12166,119.70667 z M83.88957,115.11016 L75.705315,115.66218 L74.48768,111.93562 L75.86763,111.514046 L86.885895,110.69656 L87.28962,111.30673 L84.41276,114.9086 L84.27017,115.04965 z M132.08609,113.03882 L124.96679,114.68947 L123.07685,114.194565 L123.03566,113.675095 L123.17145,112.06321 L128.67438,108.320625 L130.3833,108.375755 L132.04268,112.233345 z M242.20946,115.1226 L236.98502,117.27603 L234.5975,115.55675 L234.5975,114.45875 L242.32346,108.72659 L244.35942,110.13645 L244.93925,110.678185 L243.58041,113.954735 z M116.180916,110.581726 L101.15426,117.27102 L99.72971,117.39011 L99.43616,117.04568 L100.50403,108.92469 L104.068756,104.191895 L106.79027,104.88025 L111.337395,106.44366 z M69.890045,112.67904 L68.73622,112.50783 L67.24529,110.43375 L67.06004,109.40294 L67.90502,108.41778 L70.738106,106.08226 L71.96596,107.08001 L74.48212,111.933754 z M78.69656,107.03766 L78.02062,107.12124 L76.79947,106.10197 L77.371956,104.40296 L79.72668,101.15844 L80.50196,101.27098 L81.97553,101.611115 L82.806,102.46425 z M111.54041,100.18118 L106.79027,104.88025 L104.068756,104.191895 L102.85477,102.42651 L102.534836,101.809364 L105.45318,98.26628 L108.99642,99.01739 L109.50604,99.17493 z M73.55541,100.55558 L70.326805,100.9241 L66.46788,99.038666 L66.88905,93.83063 L68.3475,91.5763 L70.00544,90.66604 L71.78704,91.02403 L74.98774,95.77346 z M100.10271,92.48896 L94.67771,91.68396 L89.28887,89.684875 L89.07319,88.93808 L92.83364,87.149605 L95.00499,86.285164 L96.858345,87.29355 L102.39089,91.234146 z M83.42141,88.224464 L76.151566,91.101135 L71.78704,91.02403 L70.00544,90.66604 L70.13973,88.17509 L81.56253,83.9376 L82.82816,84.906906 L84.27017,87.675995 z M96.57938,81.6128 L88.52937,82.359375 L87.1548,82.1554 L88.05218,79.82512 L89.31183,79.07745 L95.37721,76.70896 L97.650154,78.63625 L98.048836,79.03064 z M84.3656,79.327805 L81.28414,83.573685 L77.293365,81.03577 L76.03359,78.73025 L75.99023,77.28239 L81.879486,75.643845 L82.907036,75.985596 L83.50082,76.92175 z M107.27122,74.82959 L103.71142,79.45158 L100.61274,79.30483 L100.29124,79.23144 L104.53313,74.51063 L105.88937,74.30937 L106.770935,74.30937 L107.087395,74.465904 z M105.07562,71.29063 L97.650154,78.63625 L95.37721,76.70896 L95.039375,76.07687 L95.039375,72.043686 L97.69534,69.691734 L105.85801,68.87333 L105.5164,70.30953 z M95.039375,72.043686 L84.42316,67.47021 L83.39547,66.89258 L75.4463,55.09702 L92.000496,55.6553 L95.21635,60.678368 L96.62449,65.45438 L97.69534,69.691734 z M105.85801,68.87333 L97.69534,69.691734 L96.62449,65.45438 L104.872185,65.45438 L105.817474,65.88597 L106.78086,66.934296 L107.467415,68.10979 L107.07721,68.37582 z M130.5874,140.48885 L125.0178,144.16199 L123.803665,143.1325 L122.7571,141.28836 L122.234695,139.0597 L123.79188,137.90437 L126.938705,135.8031 L133.95482,137.0596 L134.14189,137.13242 z M108.41778,136.36848 L102.13275,139.95547 L101.58813,140.14688 L101.17363,140.12637 L103.904,132.02333 L106.044716,131.39542 L106.37991,131.53888 L107.391,132.93692 L107.93118,134.082 z M136.45065,137.56065 L134.14189,137.13242 L133.95482,137.0596 L132.47188,130.45813 L132.47188,130.09587 L132.87875,129.311 L140.38979,128.19646 L142.24097,128.2823 L141.10896,131.71176 z M87.47202,135.78343 L81.07,139.04898 L81.07,128.87328 L82.523125,127.52563 L83.20609,127.18781 L86.82173,128.9762 L90.12984,131.55977 L90.28284,132.4841 L89.75086,133.22563 z M129.39336,128.26862 L127.293465,129.17744 L122.224655,130.68173 L113.2359,125.253426 L125.67547,121.770645 L125.830025,121.73455 L127.856186,121.57055 L130.80013,126.48502 L130.75291,126.68352 z M140.38979,128.19646 L134.3743,127.38499 L133.53009,126.66916 L138.90941,119.684715 L141.89839,120.134674 L144.98692,121.98264 L145.18631,122.1521 L145.54752,124.07674 L142.24097,128.2823 z M91.02875,121.880356 L85.633385,120.16478 L87.13438,117.9375 L97.16387,116.07719 L99.43616,117.04568 L99.72971,117.39011 L99.14665,118.564285 L95.73972,121.14946 L94.33043,121.95035 z M106.025,96.145 L99.433624,96.145 L97.896965,94.71987 L97.944695,94.38345 L99.921875,92.62312 L100.10271,92.48896 L102.39089,91.234146 L102.44831,91.240364 L106.94666,93.40973 z M97.16387,116.07719 L87.28962,111.30673 L86.885895,110.69656 L86.928085,110.091286 L87.59195,107.67335 L87.89235,107.55831 L93.48722,106.52055 L93.61531,106.539566 L100.50403,108.92469 L99.43616,117.04568 z M63.409016,108.19901 L60.798584,110.43375 L57.20784,112.53699 L56.229935,110.63244 L53.536697,102.43979 L54.317806,101.90399 L59.833466,101.61169 L61.28484,103.316666 L62.218124,104.899376 L63.521873,107.80127 z" fill="none" stroke="gold" stroke-width="0.6"/>
</g>
<g inkscape:groupmode="layer" inkscape:label="white">
<path d="M61.955494,181.16512 L48.65243,182.30396 L58.620907,177.86638 z M97.97203,163.63922 L95.76813,165.27437 L94.200905,163.23952 z M124.803665,143.1325 L117.73937,145.75313 L123.7571,141.28836 z M-19.902845,150.12216 L-10,148.75673 L-10,151.22424 z M82.07,128.87328 L78.679375,128.24437 L83.523125,127.52563 z M84.88957,115.11016 L76.26356,119.3768 L76.705315,115.66218 z M119.77375,103.99375 L117.16975,102.06175 L118.93375,101.50085 z M-18.684305,68.94271 L-10,73.33579 L-10,74.46545 z M315.67166,-10 L300,0.9692099 L300,-10 z M284.05676,-10 L300,-19.915367 L300,-10 z M-33.68212,-10 L-10,-10 L-10,8.704193 z M-10,223.74878 L-10,220 L-5.1702113,220 z M78.601875,179.99437 L72.72654,191.3281 L74.00031,181.8775 L74.15854,181.64272 z M72.72654,191.3281 L69.66626,200.03178 L65.348236,181.8775 L74.00031,181.8775 z M60.37,170.34755 L56.285076,167.56937 L57.965137,166.44751 L63.271053,166.93959 z M104.0025,175.0925 L91.40726,171.97755 L87.744835,165.18434 L95.76813,165.92844 z M69.093155,167.64363 L65.0775,165.6574 L66.8975,164.81345 L70.69599,166.69228 z M70.69599,166.69228 L66.8975,164.81345 L67.082054,164.68706 L72.58063,166.04692 z M43.959373,166.28062 L41.17906,162.155 L44.230625,162.155 L44.29549,162.54 z M71.33553,159.05798 L67.55813,163.26187 L65.44625,160.51984 L67.50921,157.84132 z M91.69937,160.44438 L87.92358,160.44438 L87.86273,159.31589 L91.69937,153.36403 z M86.0845,159.096 L77.29954,159.8202 L77.50719,159.40938 L80.860016,155.21977 z M-19.902845,150.12216 L-10,151.22424 L-10,155.25108 L-38.17063,151.45094 z M114.75562,152.79688 L112.585625,153.60187 L113.99898,152.20372 L114.94341,152.37889 z M82.32006,149.24356 L78.34834,149.63646 L76.82205,148.43744 L78.38671,143.40697 z M129.92625,144.18625 L126.50042,145.88075 L126.0178,144.16199 L131.5874,140.48885 z M108.905426,146.0142 L105.399506,144.62692 L105.63,142.40375 L107.19632,142.21007 z M110.99782,140.92804 L103.13275,139.95547 L109.41778,136.36848 L113.231316,140.53813 z M74.74625,136.52916 L59.653126,140.26187 L58.03518,133.65962 L61.36655,133.22021 z M116.14757,135.42053 L108.93118,134.082 L108.391,132.93692 L115.65979,133.61104 z M166.05438,147.08882 L150.56062,133.95125 L150.56062,126.95173 L157.42506,130.8694 z M76.7587,134.47409 L66.57443,130.27628 L68.815735,127.366196 L76.421616,133.00926 z M133.47188,130.45813 L128.29347,129.17744 L130.39336,128.26862 L133.47188,130.09587 z M43.284355,134.14207 L39.531616,129.369 L41.470432,127.64284 L43.738983,128.4079 z M141.38979,128.19646 L133.87875,129.311 L133.87875,129.04938 L135.3743,127.38499 z M39.709793,127.37229 L38.72425,128.1035 L30.58675,124.0785 L31.075,124.16906 z M87.82173,128.9762 L84.20609,127.18781 L82.07,124.01813 L86.986404,124.01813 z M43.59125,126.13125 L42.128437,126.13125 L41.518124,125.225624 L43.93851,124.32774 z M41.218323,125.15148 L39.619373,125.82938 L32.65729,124.42062 L40.936874,124.42062 z M98.16387,116.07719 L88.13438,117.9375 L85.41276,114.9086 L88.28962,111.30673 z M169.22011,115.937706 L146.18631,122.1521 L145.98692,121.98264 L151.56255,114.30011 z M144.77003,112.993126 L138.1571,111.35767 L146.60974,106.87816 L147.94627,106.82979 z M68.24529,110.43375 L61.798584,110.43375 L64.40901,108.19901 L68.06004,109.40294 z M57.229935,110.63244 L47.296837,109.40415 L52.588013,102.62338 L54.536697,102.43979 z M41.605312,106.60281 L36.000233,113.53383 L32.348907,114.17125 L40.20905,106.39562 z M50.908543,102.359795 L43.649376,107.74563 L42.363003,106.47308 L44.38503,100.84728 z M67.526215,106.497536 L65.96254,107.32621 L64.52187,107.80127 L63.218124,104.899376 z M101.50403,108.92469 L94.61531,106.539566 L103.85477,102.42651 L105.068756,104.191895 z M67.526215,106.497536 L63.218124,104.899376 L62.28484,103.316666 L68.62004,106.13685 z M133.48686,105.07736 L126.67555,101.57875 L134.05959,94.535 L137.53079,93.37606 z M115.45769,97.95033 L110.50604,99.17493 L109.99642,99.01739 L115.942345,96.81164 z M80.080376,100.88795 L74.55541,100.55558 L75.98774,95.77346 L79.493126,96.74875 z M98.944695,94.38345 L94.29562,94.118126 L96.31062,92.62312 L100.921875,92.62312 z M83.738075,93.801384 L80.54119,94.66389 L77.151566,91.101135 L84.42141,88.224464 z M100.921875,92.62312 L96.31062,92.62312 L95.67771,91.68396 L101.10271,92.48896 z M61.048126,93.83063 L54.67732,94.77597 L51.96196,91.184685 L59.810307,90.157104 z M61.56704,89.586876 L59.488438,88.044685 L61.024193,84.626396 L63.42678,89.379906 z M93.83364,87.149605 L89.52937,82.359375 L97.57938,81.6128 L96.00499,86.285164 z M69.99348,82.34625 L56.99117,78.05875 L69.87475,79.2536 L71.38737,81.12405 z M89.05218,79.82512 L85.3656,79.327805 L84.50082,76.92175 L90.31183,79.07745 z M96.039375,76.07687 L88.45487,75.34289 L85.42316,67.47021 L96.039375,72.043686 z M82.879486,75.643845 L76.99023,77.28239 L75.57938,76.23563 L84.156044,67.75118 z M58.620907,177.86638 L48.65243,182.30396 L42.202724,183.23013 L48.31198,174.96468 L58.12451,173.81516 z M75.86516,173.8275 L66.60875,173.8275 L67.51095,172.48875 L71.35562,172.25104 L73.25437,172.72063 z M71.35562,172.25104 L67.51095,172.48875 L66.27984,170.81418 L66.90845,169.81477 L68.19614,169.51622 z M58.12451,173.81516 L48.31198,174.96468 L48.236084,174.17633 L55.080624,169.09813 L59.039005,173.50342 z M71.35562,172.25104 L68.19614,169.51622 L68.98007,168.81827 L70.83008,169.12328 L73.25437,172.72063 z M55.080624,169.09813 L48.236084,174.17633 L46.54529,168.58829 L51.320538,165.04536 L56.11845,167.55812 z M72.58063,166.04692 L67.082054,164.68706 L67.76479,164.02855 L76.47923,162.41216 L75.40136,165.39291 z M51.565056,164.33784 L44.29549,162.54 L44.230625,162.155 L44.916286,161.13757 L51.712177,164.01878 z M102.820625,161.35 L93.450874,162.50862 L93.51938,162.20369 L98.005936,156.97281 L101.50958,159.40459 z M93.51938,162.20369 L92.40698,160.75937 L94.92761,153.2788 L95.1128,153.39528 L98.005936,156.97281 z M62.377007,162.51237 L56.972813,159.44624 L62.744957,152.30864 L67.50921,157.84132 L65.44625,160.51984 z M118.4175,175.31291 L114.68781,170.30562 L113.49801,163.24358 L117.51744,154.2971 L118.4175,153.92612 z M53.65699,160.64977 L47.488197,156.77705 L49.7728,152.70898 L53.86,152.2992 L53.86,160.568 z M56.972813,159.44624 L53.86,160.568 L53.86,152.2992 L62.61846,151.0698 L62.744957,152.30864 z M117.51744,154.2971 L113.49801,163.24358 L111.17813,156.57393 L111.911125,155.00287 L115.82313,154.3809 z M76.50074,160.83267 L71.65441,159.13472 L73.27375,153.1275 L77.50719,159.40938 L77.29954,159.8202 z M106.65511,155.58693 L101.50958,159.40459 L98.005936,156.97281 L95.1128,153.39528 L105.3725,153.04929 z M115.82313,154.3809 L111.911125,155.00287 L111.694374,154.26312 L112.585625,153.60187 L114.75562,152.79688 z M78.80732,153.0418 L73.165726,152.78018 L68.94184,150.47104 L76.82205,148.43744 L78.34834,149.63646 z M82.32006,149.24356 L78.38671,143.40697 L79.1449,139.18802 L79.72449,138.61467 L89.867,149.9023 z M109.14241,146.13509 L104.250854,147.34483 L105.14694,144.68547 L105.399506,144.62692 L108.905426,146.0142 z M131.22885,144.66946 L129.31549,153.187 L126.22855,151.52849 L126.50042,145.88075 L129.92625,144.18625 z M97.68159,146.24338 L91.52189,141.10202 L88.8139,135.93562 L99.74349,140.80106 L98.7136,145.00368 z M107.19632,142.21007 L105.63,142.40375 L102.58813,140.14688 L103.13275,139.95547 L110.99782,140.92804 z M52.12195,143.9368 L43.12363,145.75757 L30.81638,143.1289 L43.548523,135.08939 L48.25168,134.36516 z M102.17363,140.12637 L100.89753,140.3039 L100.5091,136.84563 L104.01111,132.16875 L104.904,132.02333 z M123.234695,139.0597 L116.78311,139.80762 L117.071686,135.9538 L117.841095,135.32587 L124.79188,137.90437 z M100.5091,136.84563 L90.75086,133.22563 L91.28284,132.4841 L94.68313,132.16875 L104.01111,132.16875 z M117.071686,135.9538 L116.14757,135.42053 L115.65979,133.61104 L121.6725,131.06187 L117.841095,135.32587 z M74.74625,136.52916 L61.36655,133.22021 L66.57443,130.27628 L76.7587,134.47409 L77.841774,136.78435 z M134.95482,137.0596 L127.938705,135.8031 L123.224655,130.68173 L128.29347,129.17744 L133.47188,130.45813 z M133.47188,130.09587 L130.39336,128.26862 L131.75291,126.68352 L133.87875,129.04938 L133.87875,129.311 z M76.421616,133.00926 L68.815735,127.366196 L68.9121,125.07827 L75.92112,122.20445 L77.277916,128.24437 z M135.3743,127.38499 L133.87875,129.04938 L131.75291,126.68352 L131.80013,126.48502 L134.53009,126.66916 z M39.709793,127.37229 L31.075,124.16906 L32.65729,124.42062 L39.619373,125.82938 L40.603443,127.10708 z M159.82074,127.96086 L157.42506,130.8694 L150.56062,126.95173 L148.83687,125.42687 L160.53976,125.42687 z M134.53009,126.66916 L131.80013,126.48502 L128.85619,121.57055 L136.1882,118.79274 L139.90941,119.684715 z M91.12984,131.55977 L87.82173,128.9762 L86.986404,124.01813 L92.02875,121.880356 L95.33043,121.95035 z M112.20587,125.30612 L106.76882,129.34007 L105.68503,126.5257 L110.65297,124.068436 L112.12889,124.506454 z M65.33798,124.2899 L55.46753,131.18236 L52.445896,125.88343 L51.937027,121.57937 L58.862724,117.8042 z M112.12889,124.506454 L110.65297,124.068436 L107.72573,119.72479 L111.66825,120.95641 L114.53993,122.51885 z M121.45085,126.86783 L114.762405,122.525734 L117.13112,119.66991 L119.52405,118.24959 L125.60852,122.06937 z M114.53993,122.51885 L111.66825,120.95641 L114.484375,119.38937 L117.13112,119.66991 L114.762405,122.525734 z M114.484375,119.38937 L111.66825,120.95641 L107.72573,119.72479 L105.32121,118.48375 L113.56891,118.48375 z M88.13438,117.9375 L86.633385,120.16478 L84.06339,119.75027 L85.27017,115.04965 L85.41276,114.9086 z M113.56891,118.48375 L105.32121,118.48375 L102.15426,117.27102 L112.61495,112.61432 L117.77812,115.985374 z M126.67547,121.770645 L123.42183,114.52868 L124.07685,114.194565 L125.96679,114.68947 L126.830025,121.73455 z M128.85619,121.57055 L126.830025,121.73455 L125.96679,114.68947 L133.08609,113.03882 L136.1882,118.79274 z M69.72813,118.2825 L59.304176,117.09267 L59.39138,115.64768 L69.73622,112.50783 L70.890045,112.67904 z M56.71836,112.858246 L45.655205,114.682274 L43.169796,112.75809 L45.037045,111.04022 L45.37273,110.91569 z M123.42183,114.52868 L119.568054,115.87421 L120.72312,112.44625 L124.03566,113.675095 L124.07685,114.194565 z M124.03566,113.675095 L120.72312,112.44625 L120.72312,112.05813 L121.700066,111.22975 L124.17145,112.06321 z M120.72312,112.05813 L113.20942,111.26174 L113.990715,107.85618 L119.90175,106.893486 L121.700066,111.22975 z M146.60974,106.87816 L138.1571,111.35767 L133.04268,112.233345 L131.3833,108.375755 L133.56664,106.02429 z M87.885895,110.69656 L76.86763,111.514046 L79.02062,107.12124 L79.69656,107.03766 L87.928085,110.091286 z M68.06004,109.40294 L64.40901,108.19901 L64.52187,107.80127 L65.96254,107.32621 L68.90502,108.41778 z M87.928085,110.091286 L79.69656,107.03766 L83.806,102.46425 L86.10861,104.17264 L88.59195,107.67335 z M94.48722,106.52055 L88.89235,107.55831 L93.41227,102.76762 L97.5289,100.546326 L97.67421,100.609215 z M120.21171,106.756744 L117.06125,102.08188 L117.16975,102.06175 L119.77375,103.99375 L120.89519,106.48985 z M93.41227,102.76762 L88.89235,107.55831 L88.59195,107.67335 L86.10861,104.17264 L90.37442,101.64067 z M112.337395,106.44366 L107.79027,104.88025 L112.54041,100.18118 L114.696815,100.44783 L114.81273,102.08188 z M119.12401,101.19029 L117.468124,100.37125 L121.114525,96.313156 L122.37251,96.89983 L122.602776,99.54783 z M134.05959,94.535 L126.67555,101.57875 L124.085495,101.57875 L122.602776,99.54783 L122.37251,96.89983 z M114.696815,100.44783 L112.54041,100.18118 L110.50604,99.17493 L115.45769,97.95033 L114.96598,100.1392 z M92.59224,98.89821 L85.85952,99.23123 L89.180626,96.274376 L91.77335,95.31255 L93.104645,98.69907 z M85.69653,99.27355 L82.97553,101.611115 L81.50196,101.27098 L82.938,95.94375 L85.39733,95.94375 z M89.180626,96.274376 L85.85952,99.23123 L85.69653,99.27355 L85.39733,95.94375 L85.53009,95.73268 z M103.47894,101.793564 L100.433624,96.145 L107.025,96.145 L106.45318,98.26628 L103.534836,101.809364 z M97.72715,96.745026 L92.587105,94.20263 L94.29562,94.118126 L98.944695,94.38345 L98.896965,94.71987 z M121.078705,96.29302 L116.434265,95.89921 L111.53053,92.665215 L119.1357,83.34276 L121.430016,93.55619 z M59.810307,90.157104 L51.96196,91.184685 L44.312,85.7927 L59.488438,88.044685 L61.56704,89.586876 z M103.39089,91.234146 L97.858345,87.29355 L104.701294,85.26274 L106.16344,86.45604 L103.44831,91.240364 z M119.60966,82.02216 L106.16344,86.45604 L104.701294,85.26274 L101.61274,79.30483 L104.71142,79.45158 z M78.293365,81.03577 L71.62688,85.98187 L69.99348,82.34625 L71.38737,81.12405 L77.03359,78.73025 z M108.90188,74.01074 L104.71142,79.45158 L101.61274,79.30483 L101.29124,79.23144 L105.53313,74.51063 z M105.53313,74.51063 L101.29124,79.23144 L99.048836,79.03064 L98.650154,78.63625 L106.07562,71.29063 z M74.00031,181.8775 L65.348236,181.8775 L65.23406,181.54518 L66.7287,178.86043 L69.39837,178.11096 L74.15854,181.64272 z M69.39837,178.11096 L66.7287,178.86043 L64.604256,176.0583 L66.60875,173.8275 L75.86516,173.8275 L77.59867,174.49854 z M66.60875,173.8275 L64.604256,176.0583 L59.781265,173.30573 L60.37,172.16331 L66.27984,170.81418 L67.51095,172.48875 z M66.27984,170.81418 L60.37,172.16331 L60.37,170.34755 L63.271053,166.93959 L63.35375,166.88437 L66.90845,169.81477 z M86.342186,164.77126 L78.2725,172.39131 L75.6531,166.7377 L75.40136,165.39291 L76.47923,162.41216 L76.810196,161.9424 z M63.271053,166.93959 L57.965137,166.44751 L58.466873,164.58623 L62.446518,163.90485 L63.931396,165.79346 L63.35375,166.88437 z M95.76813,165.92844 L87.744835,165.18434 L87.64134,165.05869 L93.29598,162.75124 L94.200905,163.23952 L95.76813,165.27437 z M46.54529,168.58829 L43.959373,167.47754 L43.959373,166.28062 L44.29549,162.54 L51.565056,164.33784 L51.320538,165.04536 z M97.97203,163.63922 L94.200905,163.23952 L93.29598,162.75124 L93.450874,162.50862 L102.820625,161.35 L103.81521,162.45688 z M51.712177,164.01878 L44.916286,161.13757 L45.170578,157.3642 L47.488197,156.77705 L53.65699,160.64977 L53.22462,162.11115 z M92.40698,160.75937 L91.69937,160.44438 L91.69937,153.36403 L92.59474,151.79385 L92.83621,151.79607 L94.92761,153.2788 z M77.50719,159.40938 L73.27375,153.1275 L73.165726,152.78018 L78.80732,153.0418 L81.021225,154.95813 L80.860016,155.21977 z M113.99898,152.20372 L112.585625,153.60187 L111.694374,154.26312 L108.84831,150.46225 L112.38769,147.12009 L112.60946,147.04904 z M114.94341,152.37889 L113.99898,152.20372 L112.60946,147.04904 L114.76159,146.15784 L116.04406,146.63359 L121.965744,150.29485 z M108.57339,150.526 L102.39972,148.52205 L104.250854,147.34483 L109.14241,146.13509 L112.38769,147.12009 L108.84831,150.46225 z M76.82205,148.43744 L68.94184,150.47104 L63.324028,149.8756 L62.801025,146.81015 L79.1449,139.18802 L78.38671,143.40697 z M104.250854,147.34483 L102.39972,148.52205 L96.826324,148.34225 L97.68159,146.24338 L98.7136,145.00368 L105.14694,144.68547 z M131.22885,144.66946 L129.92625,144.18625 L131.5874,140.48885 L135.14189,137.13242 L137.45065,137.56065 L139.59422,139.70422 z M52.12195,143.9368 L48.25168,134.36516 L55.557343,132.08862 L58.03518,133.65962 L59.653126,140.26187 L59.495857,143.704 z M99.74349,140.80106 L88.8139,135.93562 L88.529976,135.71838 L90.75086,133.22563 L100.5091,136.84563 L100.89753,140.3039 z M124.79188,137.90437 L117.841095,135.32587 L121.6725,131.06187 L122.61673,130.3146 L123.224655,130.68173 L127.938705,135.8031 z M150.56062,133.95125 L142.10896,131.71176 L143.24097,128.2823 L146.54752,124.07674 L148.83687,125.42687 L150.56062,126.95173 z M104.01111,132.16875 L94.68313,132.16875 L99.62945,127.581436 L106.850494,130.64288 L107.044716,131.39542 L104.904,132.02333 z M99.62945,127.581436 L94.68313,132.16875 L91.28284,132.4841 L91.12984,131.55977 L95.33043,121.95035 L96.73972,121.14946 z M106.850494,130.64288 L99.62945,127.581436 L96.73972,121.14946 L100.14665,118.564285 L105.68503,126.5257 L106.76882,129.34007 z M118.62312,128.48026 L107.37991,131.53888 L107.044716,131.39542 L106.850494,130.64288 L106.76882,129.34007 L112.20587,125.30612 z M43.738983,128.4079 L41.470432,127.64284 L41.282257,127.38687 L42.128437,126.13125 L43.59125,126.13125 L44.931355,127.52323 z M41.282257,127.38687 L40.603443,127.10708 L39.619373,125.82938 L41.218323,125.15148 L41.518124,125.225624 L42.128437,126.13125 z M43.93851,124.32774 L41.518124,125.225624 L41.218323,125.15148 L40.936874,124.42062 L41.61697,120.88852 L46.649582,121.454254 z M160.53976,125.42687 L148.83687,125.42687 L146.54752,124.07674 L146.18631,122.1521 L169.22011,115.937706 L172.94449,115.14061 z M86.986404,124.01813 L82.07,124.01813 L78.665344,122.1236 L84.06339,119.75027 L86.633385,120.16478 L92.02875,121.880356 z M117.13112,119.66991 L114.484375,119.38937 L113.56891,118.48375 L117.77812,115.985374 L118.71944,116.40441 L119.52405,118.24959 z M125.60852,122.06937 L119.52405,118.24959 L118.71944,116.40441 L119.568054,115.87421 L123.42183,114.52868 L126.67547,121.770645 z M151.56255,114.30011 L145.98692,121.98264 L142.89839,120.134674 L144.77003,112.993126 L147.94627,106.82979 L150.71165,105.46196 z M69.73622,112.50783 L59.39138,115.64768 L58.18155,112.907585 L58.20784,112.53699 L61.798584,110.43375 L68.24529,110.43375 z M56.71836,112.858246 L45.37273,110.91569 L47.296837,109.40415 L57.229935,110.63244 L58.20784,112.53699 L58.18155,112.907585 z M43.169796,112.75809 L36.000233,113.53383 L41.605312,106.60281 L42.363003,106.47308 L43.649376,107.74563 L45.037045,111.04022 z M68.90502,108.41778 L65.96254,107.32621 L67.526215,106.497536 L68.62004,106.13685 L71.68524,105.9744 L71.738106,106.08226 z M79.02062,107.12124 L76.86763,111.514046 L75.48768,111.93562 L75.48212,111.933754 L72.96596,107.08001 L77.79947,106.10197 z M47.296837,109.40415 L45.37273,110.91569 L45.037045,111.04022 L43.649376,107.74563 L50.908543,102.359795 L52.588013,102.62338 z M77.79947,106.10197 L72.96596,107.08001 L71.738106,106.08226 L71.68524,105.9744 L71.71189,105.63829 L78.371956,104.40296 z M103.85477,102.42651 L94.61531,106.539566 L94.48722,106.52055 L97.67421,100.609215 L103.47894,101.793564 L103.534836,101.809364 z M78.371956,104.40296 L71.71189,105.63829 L71.326805,100.9241 L74.55541,100.55558 L80.080376,100.88795 L80.72668,101.15844 z M119.90175,106.893486 L113.990715,107.85618 L112.337395,106.44366 L114.81273,102.08188 L117.06125,102.08188 L120.21171,106.756744 z M93.41227,102.76762 L90.37442,101.64067 L92.59224,98.89821 L93.104645,98.69907 L96.902695,100.007385 L97.5289,100.546326 z M82.938,95.94375 L81.50196,101.27098 L80.72668,101.15844 L80.080376,100.88795 L79.493126,96.74875 L80.54183,94.67389 z M96.902695,100.007385 L93.104645,98.69907 L91.77335,95.31255 L91.93188,94.17563 L92.587105,94.20263 L97.72715,96.745026 z M67.46788,99.038666 L60.833466,101.61169 L55.317806,101.90399 L54.67732,94.77597 L61.048126,93.83063 L67.88905,93.83063 z M89.180626,96.274376 L85.53009,95.73268 L85.685104,94.812584 L90.5404,92.110855 L91.93188,94.17563 L91.77335,95.31255 z M79.493126,96.74875 L75.98774,95.77346 L72.78704,91.02403 L77.151566,91.101135 L80.54119,94.66389 L80.54183,94.67389 z M61.048126,93.83063 L59.810307,90.157104 L61.56704,89.586876 L63.42678,89.379906 L69.3475,91.5763 L67.88905,93.83063 z M82.56253,83.9376 L71.13973,88.17509 L71.12241,88.1028 L71.62688,85.98187 L78.293365,81.03577 L82.28414,83.573685 z M71.12241,88.1028 L59.94641,81.58776 L56.917908,78.03993 L56.99117,78.05875 L69.99348,82.34625 L71.62688,85.98187 z M90.07319,88.93808 L85.27017,87.675995 L83.82816,84.906906 L88.1548,82.1554 L89.52937,82.359375 L93.83364,87.149605 z M88.1548,82.1554 L83.82816,84.906906 L82.56253,83.9376 L82.28414,83.573685 L85.3656,79.327805 L89.05218,79.82512 z M71.38737,81.12405 L69.87475,79.2536 L75.27045,76.05099 L75.57938,76.23563 L76.99023,77.28239 L77.03359,78.73025 z M90.31183,79.07745 L84.50082,76.92175 L83.907036,75.985596 L88.45487,75.34289 L96.039375,76.07687 L96.37721,76.70896 z M88.45487,75.34289 L83.907036,75.985596 L82.879486,75.643845 L84.156044,67.75118 L84.39547,66.89258 L85.42316,67.47021 z M106.07562,71.29063 L98.650154,78.63625 L96.37721,76.70896 L96.039375,76.07687 L96.039375,72.043686 L112.144844,57.78172 z M74.15854,181.64272 L69.39837,178.11096 L77.59867,174.49854 L78.2725,174.4349 L80.27426,175.48804 L81.09863,177.77145 L78.601875,179.99437 z M59.039005,173.50342 L55.080624,169.09813 L56.11845,167.55812 L56.285076,167.56937 L60.37,170.34755 L60.37,172.16331 L59.781265,173.30573 z M73.25437,172.72063 L70.83008,169.12328 L75.6531,166.7377 L78.2725,172.39131 L78.2725,174.4349 L77.59867,174.49854 L75.86516,173.8275 z M75.6531,166.7377 L70.83008,169.12328 L68.98007,168.81827 L69.093155,167.64363 L70.69599,166.69228 L72.58063,166.04692 L75.40136,165.39291 z M68.19614,169.51622 L66.90845,169.81477 L63.35375,166.88437 L63.931396,165.79346 L65.0775,165.6574 L69.093155,167.64363 L68.98007,168.81827 z M62.446518,163.90485 L58.466873,164.58623 L53.22462,162.11115 L53.65699,160.64977 L53.86,160.568 L56.972813,159.44624 L62.377007,162.51237 z M76.47923,162.41216 L67.76479,164.02855 L67.55813,163.26187 L71.33553,159.05798 L71.65441,159.13472 L76.50074,160.83267 L76.810196,161.9424 z M86.0845,159.096 L80.860016,155.21977 L81.021225,154.95813 L91.96691,151.61418 L92.59474,151.79385 L91.69937,153.36403 L87.86273,159.31589 z M114.68781,170.30562 L103.81521,162.45688 L102.820625,161.35 L101.50958,159.40459 L106.65511,155.58693 L111.17813,156.57393 L113.49801,163.24358 z M111.17813,156.57393 L106.65511,155.58693 L105.3725,153.04929 L108.57339,150.526 L108.84831,150.46225 L111.694374,154.26312 L111.911125,155.00287 z M115.82313,154.3809 L114.75562,152.79688 L114.94341,152.37889 L121.965744,150.29485 L123.42707,151.03528 L118.4175,153.92612 L117.51744,154.2971 z M91.96691,151.61418 L81.021225,154.95813 L78.80732,153.0418 L78.34834,149.63646 L82.32006,149.24356 L89.867,149.9023 L90.17443,150.09958 z M105.3725,153.04929 L95.1128,153.39528 L94.92761,153.2788 L92.83621,151.79607 L96.826324,148.34225 L102.39972,148.52205 L108.57339,150.526 z M92.59474,151.79385 L91.96691,151.61418 L90.17443,150.09958 L91.52189,141.10202 L97.68159,146.24338 L96.826324,148.34225 L92.83621,151.79607 z M123.7571,141.28836 L117.73937,145.75313 L116.04406,146.63359 L114.76159,146.15784 L114.32464,141.0789 L116.78311,139.80762 L123.234695,139.0597 z M116.78311,139.80762 L114.32464,141.0789 L113.231316,140.53813 L109.41778,136.36848 L108.93118,134.082 L116.14757,135.42053 L117.071686,135.9538 z M115.65979,133.61104 L108.391,132.93692 L107.37991,131.53888 L118.62312,128.48026 L121.08598,128.24599 L122.61673,130.3146 L121.6725,131.06187 z M41.470432,127.64284 L39.531616,129.369 L39.434433,129.33296 L38.72425,128.1035 L39.709793,127.37229 L40.603443,127.10708 L41.282257,127.38687 z M44.931355,127.52323 L43.59125,126.13125 L43.93851,124.32774 L46.649582,121.454254 L50.322754,121.1136 L51.937027,121.57937 L52.445896,125.88343 z M118.62312,128.48026 L112.20587,125.30612 L112.12889,124.506454 L114.53993,122.51885 L114.762405,122.525734 L121.45085,126.86783 L121.08598,128.24599 z M40.936874,124.42062 L32.65729,124.42062 L31.075,124.16906 L30.58675,124.0785 L3.2900515,116.714 L24.039337,115.99796 L41.61697,120.88852 z M110.65297,124.068436 L105.68503,126.5257 L100.14665,118.564285 L100.72971,117.39011 L102.15426,117.27102 L105.32121,118.48375 L107.72573,119.72479 z M84.06339,119.75027 L78.665344,122.1236 L76.0578,122.04773 L75.79334,121.47 L76.26356,119.3768 L84.88957,115.11016 L85.27017,115.04965 z M75.79334,121.47 L69.72813,118.2825 L70.890045,112.67904 L75.48212,111.933754 L75.48768,111.93562 L76.705315,115.66218 L76.26356,119.3768 z M119.568054,115.87421 L118.71944,116.40441 L117.77812,115.985374 L112.61495,112.61432 L113.20942,111.26174 L120.72312,112.05813 L120.72312,112.44625 z M139.90941,119.684715 L136.1882,118.79274 L133.08609,113.03882 L133.04268,112.233345 L138.1571,111.35767 L144.77003,112.993126 L142.89839,120.134674 z M124.17145,112.06321 L121.700066,111.22975 L119.90175,106.893486 L120.21171,106.756744 L120.89519,106.48985 L122.2618,106.21782 L129.67438,108.320625 z M68.62004,106.13685 L62.28484,103.316666 L60.833466,101.61169 L67.46788,99.038666 L71.326805,100.9241 L71.71189,105.63829 L71.68524,105.9744 z M129.67438,108.320625 L122.2618,106.21782 L124.085495,101.57875 L126.67555,101.57875 L133.48686,105.07736 L133.56664,106.02429 L131.3833,108.375755 z M120.89519,106.48985 L119.77375,103.99375 L118.93375,101.50085 L119.12401,101.19029 L122.602776,99.54783 L124.085495,101.57875 L122.2618,106.21782 z M90.37442,101.64067 L86.10861,104.17264 L83.806,102.46425 L82.97553,101.611115 L85.69653,99.27355 L85.85952,99.23123 L92.59224,98.89821 z M121.114525,96.313156 L117.468124,100.37125 L114.96598,100.1392 L115.45769,97.95033 L115.942345,96.81164 L116.434265,95.89921 L121.078705,96.29302 z M115.942345,96.81164 L109.99642,99.01739 L106.45318,98.26628 L107.025,96.145 L107.94666,93.40973 L111.53053,92.665215 L116.434265,95.89921 z M103.47894,101.793564 L97.67421,100.609215 L97.5289,100.546326 L96.902695,100.007385 L97.72715,96.745026 L98.896965,94.71987 L100.433624,96.145 z M85.39733,95.94375 L82.938,95.94375 L80.54183,94.67389 L80.54119,94.66389 L83.738075,93.801384 L85.685104,94.812584 L85.53009,95.73268 z M85.685104,94.812584 L83.738075,93.801384 L84.42141,88.224464 L85.27017,87.675995 L90.07319,88.93808 L90.28887,89.684875 L90.5404,92.110855 z M134.05959,94.535 L122.37251,96.89983 L121.114525,96.313156 L121.078705,96.29302 L121.430016,93.55619 L154.97095,78.62507 L137.53079,93.37606 z M96.31062,92.62312 L94.29562,94.118126 L92.587105,94.20263 L91.93188,94.17563 L90.5404,92.110855 L90.28887,89.684875 L95.67771,91.68396 z M111.53053,92.665215 L107.94666,93.40973 L103.44831,91.240364 L106.16344,86.45604 L119.60966,82.02216 L119.76951,82.026054 L119.1357,83.34276 z M69.3475,91.5763 L63.42678,89.379906 L61.024193,84.626396 L59.94641,81.58776 L71.12241,88.1028 L71.13973,88.17509 L71.00544,90.66604 z M104.701294,85.26274 L97.858345,87.29355 L96.00499,86.285164 L97.57938,81.6128 L99.048836,79.03064 L101.29124,79.23144 L101.61274,79.30483 z M61.955494,181.16512 L58.620907,177.86638 L58.12451,173.81516 L59.039005,173.50342 L59.781265,173.30573 L64.604256,176.0583 L66.7287,178.86043 L65.23406,181.54518 z M91.40726,171.97755 L80.27426,175.48804 L78.2725,174.4349 L78.2725,172.39131 L86.342186,164.77126 L86.99048,164.77126 L87.64134,165.05869 L87.744835,165.18434 z M57.965137,166.44751 L56.285076,167.56937 L56.11845,167.55812 L51.320538,165.04536 L51.565056,164.33784 L51.712177,164.01878 L53.22462,162.11115 L58.466873,164.58623 z M104.0025,175.0925 L95.76813,165.92844 L95.76813,165.27437 L97.97203,163.63922 L103.81521,162.45688 L114.68781,170.30562 L118.4175,175.31291 L123.11731,181.95474 z M93.29598,162.75124 L87.64134,165.05869 L86.99048,164.77126 L87.92358,160.44438 L91.69937,160.44438 L92.40698,160.75937 L93.51938,162.20369 L93.450874,162.50862 z M86.342186,164.77126 L76.810196,161.9424 L76.50074,160.83267 L77.29954,159.8202 L86.0845,159.096 L87.86273,159.31589 L87.92358,160.44438 L86.99048,164.77126 z M53.86,152.2992 L49.7728,152.70898 L43.12363,145.75757 L52.12195,143.9368 L59.495857,143.704 L62.801025,146.81015 L63.324028,149.8756 L62.61846,151.0698 z M123.42707,151.03528 L121.965744,150.29485 L116.04406,146.63359 L117.73937,145.75313 L124.803665,143.1325 L126.0178,144.16199 L126.50042,145.88075 L126.22855,151.52849 z M90.17443,150.09958 L89.867,149.9023 L79.72449,138.61467 L79.848915,138.21625 L82.07,137.47353 L88.529976,135.71838 L88.8139,135.93562 L91.52189,141.10202 z M105.14694,144.68547 L98.7136,145.00368 L99.74349,140.80106 L100.89753,140.3039 L102.17363,140.12637 L102.58813,140.14688 L105.63,142.40375 L105.399506,144.62692 z M79.1449,139.18802 L62.801025,146.81015 L59.495857,143.704 L59.653126,140.26187 L74.74625,136.52916 L77.841774,136.78435 L79.848915,138.21625 L79.72449,138.61467 z M82.07,137.47353 L79.848915,138.21625 L77.841774,136.78435 L76.7587,134.47409 L76.421616,133.00926 L77.277916,128.24437 L78.679375,128.24437 L82.07,128.87328 z M48.25168,134.36516 L43.548523,135.08939 L43.284355,134.14207 L43.738983,128.4079 L44.931355,127.52323 L52.445896,125.88343 L55.46753,131.18236 L55.557343,132.08862 z M66.57443,130.27628 L61.36655,133.22021 L58.03518,133.65962 L55.557343,132.08862 L55.46753,131.18236 L65.33798,124.2899 L68.9121,125.07827 L68.815735,127.366196 z M83.523125,127.52563 L78.679375,128.24437 L77.277916,128.24437 L75.92112,122.20445 L76.0578,122.04773 L78.665344,122.1236 L82.07,124.01813 L84.20609,127.18781 z M68.9121,125.07827 L65.33798,124.2899 L58.862724,117.8042 L59.304176,117.09267 L69.72813,118.2825 L75.79334,121.47 L76.0578,122.04773 L75.92112,122.20445 z M46.649582,121.454254 L41.61697,120.88852 L24.039337,115.99796 L32.348907,114.17125 L36.000233,113.53383 L43.169796,112.75809 L45.655205,114.682274 L50.322754,121.1136 z M51.937027,121.57937 L50.322754,121.1136 L45.655205,114.682274 L56.71836,112.858246 L58.18155,112.907585 L59.39138,115.64768 L59.304176,117.09267 L58.862724,117.8042 z M84.88957,115.11016 L76.705315,115.66218 L75.48768,111.93562 L76.86763,111.514046 L87.885895,110.69656 L88.28962,111.30673 L85.41276,114.9086 L85.27017,115.04965 z M133.08609,113.03882 L125.96679,114.68947 L124.07685,114.194565 L124.03566,113.675095 L124.17145,112.06321 L129.67438,108.320625 L131.3833,108.375755 L133.04268,112.233345 z M70.890045,112.67904 L69.73622,112.50783 L68.24529,110.43375 L68.06004,109.40294 L68.90502,108.41778 L71.738106,106.08226 L72.96596,107.08001 L75.48212,111.933754 z M79.69656,107.03766 L79.02062,107.12124 L77.79947,106.10197 L78.371956,104.40296 L80.72668,101.15844 L81.50196,101.27098 L82.97553,101.611115 L83.806,102.46425 z M118.93375,101.50085 L117.16975,102.06175 L117.06125,102.08188 L114.81273,102.08188 L114.696815,100.44783 L114.96598,100.1392 L117.468124,100.37125 L119.12401,101.19029 z M112.54041,100.18118 L107.79027,104.88025 L105.068756,104.191895 L103.85477,102.42651 L103.534836,101.809364 L106.45318,98.26628 L109.99642,99.01739 L110.50604,99.17493 z M74.55541,100.55558 L71.326805,100.9241 L67.46788,99.038666 L67.88905,93.83063 L69.3475,91.5763 L71.00544,90.66604 L72.78704,91.02403 L75.98774,95.77346 z M101.10271,92.48896 L95.67771,91.68396 L90.28887,89.684875 L90.07319,88.93808 L93.83364,87.149605 L96.00499,86.285164 L97.858345,87.29355 L103.39089,91.234146 z M84.42141,88.224464 L77.151566,91.101135 L72.78704,91.02403 L71.00544,90.66604 L71.13973,88.17509 L82.56253,83.9376 L83.82816,84.906906 L85.27017,87.675995 z M97.57938,81.6128 L89.52937,82.359375 L88.1548,82.1554 L89.05218,79.82512 L90.31183,79.07745 L96.37721,76.70896 L98.650154,78.63625 L99.048836,79.03064 z M85.3656,79.327805 L82.28414,83.573685 L78.293365,81.03577 L77.03359,78.73025 L76.99023,77.28239 L82.879486,75.643845 L83.907036,75.985596 L84.50082,76.92175 z M66.8975,164.81345 L65.0775,165.6574 L63.931396,165.79346 L62.446518,163.90485 L62.377007,162.51237 L65.44625,160.51984 L67.55813,163.26187 L67.76479,164.02855 L67.082054,164.68706 z M73.27375,153.1275 L71.65441,159.13472 L71.33553,159.05798 L67.50921,157.84132 L62.744957,152.30864 L62.61846,151.0698 L63.324028,149.8756 L68.94184,150.47104 L73.165726,152.78018 z M108.905426,146.0142 L107.19632,142.21007 L110.99782,140.92804 L113.231316,140.53813 L114.32464,141.0789 L114.76159,146.15784 L112.60946,147.04904 L112.38769,147.12009 L109.14241,146.13509 z M131.5874,140.48885 L126.0178,144.16199 L124.803665,143.1325 L123.7571,141.28836 L123.234695,139.0597 L124.79188,137.90437 L127.938705,135.8031 L134.95482,137.0596 L135.14189,137.13242 z M109.41778,136.36848 L103.13275,139.95547 L102.58813,140.14688 L102.17363,140.12637 L104.904,132.02333 L107.044716,131.39542 L107.37991,131.53888 L108.391,132.93692 L108.93118,134.082 z M137.45065,137.56065 L135.14189,137.13242 L134.95482,137.0596 L133.47188,130.45813 L133.47188,130.09587 L133.87875,129.311 L141.38979,128.19646 L143.24097,128.2823 L142.10896,131.71176 z M88.529976,135.71838 L82.07,137.47353 L82.07,128.87328 L83.523125,127.52563 L84.20609,127.18781 L87.82173,128.9762 L91.12984,131.55977 L91.28284,132.4841 L90.75086,133.22563 z M141.38979,128.19646 L135.3743,127.38499 L134.53009,126.66916 L139.90941,119.684715 L142.89839,120.134674 L145.98692,121.98264 L146.18631,122.1521 L146.54752,124.07674 L143.24097,128.2823 z M92.02875,121.880356 L86.633385,120.16478 L88.13438,117.9375 L98.16387,116.07719 L100.43616,117.04568 L100.72971,117.39011 L100.14665,118.564285 L96.73972,121.14946 L95.33043,121.95035 z M107.025,96.145 L100.433624,96.145 L98.896965,94.71987 L98.944695,94.38345 L100.921875,92.62312 L101.10271,92.48896 L103.39089,91.234146 L103.44831,91.240364 L107.94666,93.40973 z M112.61495,112.61432 L102.15426,117.27102 L100.72971,117.39011 L100.43616,117.04568 L101.50403,108.92469 L105.068756,104.191895 L107.79027,104.88025 L112.337395,106.44366 L113.990715,107.85618 L113.20942,111.26174 z M98.16387,116.07719 L88.28962,111.30673 L87.885895,110.69656 L87.928085,110.091286 L88.59195,107.67335 L88.89235,107.55831 L94.48722,106.52055 L94.61531,106.539566 L101.50403,108.92469 L100.43616,117.04568 z M64.40901,108.19901 L61.798584,110.43375 L58.20784,112.53699 L57.229935,110.63244 L54.536697,102.43979 L55.317806,101.90399 L60.833466,101.61169 L62.28484,103.316666 L63.218124,104.899376 L64.52187,107.80127 z M130.39336,128.26862 L128.29347,129.17744 L123.224655,130.68173 L122.61673,130.3146 L121.08598,128.24599 L121.45085,126.86783 L125.60852,122.06937 L126.67547,121.770645 L126.830025,121.73455 L128.85619,121.57055 L131.80013,126.48502 L131.75291,126.68352 z" fill="none" stroke="white" stroke-width="0.6"/>
</g>
<path d="m 15.815664,12.893319 c -1.445284,-3.0999497 -5.555449,-0.3575 -5.08537,2.32203 1.697826,2.92736 4.504013,-3.54417 4.40859,-2.58178 -1.548999,2.22986 0.741131,6.08701 3.012419,3.25791 2.532153,-2.82358 0.259001,-7.8326797 -3.488671,-7.9011197 -3.217272,0.056 -5.8863857,2.4603197 -7.9308737,4.7238797 -2.354585,2.46752 0.0048,5.887 2.757763,6.62143 3.2195457,1.10867 6.8759417,1.30834 9.9459317,-0.36585 2.270396,-1.12373 5.025949,-2.62031 5.680576,-5.20027 -2.108811,-3.66096 -6.038415,1.28356 -3.842036,3.67822 1.07278,0.89979 4.586982,-2.27037 3.201668,-2.73503 0.03094,3.24357 1.226854,6.37852 1.337023,9.60311 -0.672198,3.54892 -7.469251,0.32096 -4.637082,-2.5164 2.158436,-2.4193 5.610472,-2.84094 8.202925,-4.57369 0.993877,-1.40371 0.353413,-5.25046 3.182464,-3.48957 2.142923,1.43516 -2.250898,5.7532 1.723416,5.02339 1.661189,-0.71663 6.494946,-1.40457 4.601401,-3.95236 -4.205319,-0.68052 -1.190571,5.86505 1.665411,3.46881 1.929752,-0.9247 2.778055,-4.05119 1.423645,-5.35034 0.479155,1.8589 3.849911,7.52574 4.880369,3.32696 0.21201,-1.28088 0.40468,-3.80204 1.01246,-1.23041 0.5858,2.6865 3.83412,4.91909 4.56937,1.07383 0.65272,-1.00894 -0.2696,-4.02739 0.99929,-1.35746 1.10974,2.31613 6.32001,1.46113 6.147,-1.13059 -1.98394,-2.13868 -5.3717,1.45205 -3.78252,3.73454 2.57741,0.96208 6.69797,-0.21041 7.06275,-3.33983 0.41287,-2.63769 0.26643,-5.3430297 -0.11178,-7.9756197 0.67418,3.94149 1.24889,7.9380497 2.39963,11.7713397 2.10586,1.67977 5.7434,1.65022 7.74596,-0.23639 3.03149,-1.85431 -0.26637,-4.76925 -2.71777,-4.54025 -2.11577,0.0793 -5.36257,2.40772 -5.16868,3.85604 2.08262,-2.38818 5.55759,-1.22628 8.30726,-1.6832 3.182,-0.26596 6.46546,-0.57372 9.54494,-1.18158 0.24171,0.4199 -0.27752,0.54338 -0.43067,0.17453" fill="none" stroke="white" stroke-width="1" transform="translate(260,190) scale(0.3)"/>
</svg>