<svg height="210mm" style="background:black" viewBox="0 0 297 210" width="297mm" xmlns="http://www.w3.org/2000/svg" xmlns:inkscape="http://www.inkscape.org/namespaces/inkscape">
<g inkscape:groupmode="layer" inkscape:label="gold">
<path d="M106.862686,155.12111 L94.157814,167.68938 L102.79713,154.86975 z M84.887596,139.61873 L78.659454,141.29904 L79.03232,138.53267 z M127.63614,135.5657 L123.385,136.46687 L123.385,133.20015 z M201.07335,222.9021 L200.71042,220 L202.30476,220 z M144.85196,128.03888 L140.69823,132.14793 L141.45442,125.97644 z M-33.917923,200.82698 L-11,184.0698 L-11,187.60194 z M107.855934,119.69125 L106.20583,119.69125 L105.734375,118.64188 z M95.08869,118.73988 L94.04479,117.578125 L96.34138,117.578125 z M245.22145,111.54063 L238.55917,113.65904 L242.32813,109.930626 z M103.068375,100.190125 L100.14792,98.02333 L106.16062,98.66062 z M109.95812,94.43437 L102.60307,95.34387 L103.093414,93.70678 z M102.49875,93.3275 L100.73563,94.63563 L100.3916,93.104164 z M129.51779,92.110565 L122.3,92.5225 L157.83376,76.70425 z M106.676,70.18375 L103.279884,71.58359 L101.7076,70.18375 z M114.3721,53.25131 L113.23859,58.297268 L72.7155,49.81725 z M116.10646,29.96729 L112.21378,31.411348 L111.88013,29.183374 z M133.29042,-13.108282 L132.86293,-10 L131.44215,-10 z M-16.174591,29.630516 L-11,31.739174 L-11,34.42953 z M300.085,-10 L299,-9.195 L299,-10 z M-11,218.9075 L-11,220 L-12.262143,220 z M-11,231.22066 L-11,220 L2.8804624,220 z M104.044876,152.51512 L102.580124,154.68863 L96.8025,151.35458 L97.11074,151.11203 z M94.60759,144.80438 L82.99418,150.28754 L85.94536,144.34438 L94.75521,144.34438 z M94.75521,144.34438 L85.94536,144.34438 L87.852486,139.45631 L96.56618,140.81737 z M117.01063,147.1413 L98.22437,142.23125 L106.63236,136.54349 L117.01063,134.73174 z M78.19621,137.46924 L73.41915,138.88695 L75.79317,134.18997 L79.54609,135.21582 z M93.71703,134.98625 L87.148315,136.48581 L86.539406,135.53925 L92.27756,130.71426 z M117.01063,134.73174 L106.63236,136.54349 L111.61028,130.67767 L117.04453,134.70953 z M157.59247,136.7519 L152.32039,135.59294 L152.62088,131.13412 L156.25146,129.7873 z M238.29475,127.92062 L233.50536,130.8818 L234.55577,127.76447 L237.49083,126.13125 z M148.76366,127.453896 L146.89452,129.03879 L144.875,128.03989 L146.95029,125.88426 z M232.23763,125.225624 L227.97531,129.17857 L222.2422,127.869774 L228.65712,125.225624 z M238.4402,124.554794 L235.41125,125.67844 L235.41125,124.84828 L236.56406,124.206795 z M235.41125,124.84828 L233.73854,125.15854 L235.6825,123.71625 L236.56406,124.206795 z M141.41464,125.91742 L139.79562,125.82133 L139.79562,123.1125 L144.56511,123.1125 z M237.1388,121.46126 L234.94624,122.365 L234.32625,121.905 L231.95282,118.383125 z M148.06876,121.11677 L146.02562,121.369415 L141.42493,118.41111 L148.06876,115.594376 z M154.71437,120.194374 L150.51,120.37787 L150.51,115.163124 L151.11147,114.84812 z M70.65701,117.8241 L66.48062,117.20438 L70.08437,115.8675 L71.32007,117.70111 z M252.77126,115.0625 L249.04156,117.82969 L248.89626,116.2125 L249.51625,115.0625 z M68.27887,112.1318 L65.01588,113.74575 L64.07348,112.17255 L64.46827,111.00091 z M59.14961,110.99976 L56.793125,112.74812 L57.96854,110.131874 L58.617897,110.131874 z M68.27887,112.1318 L64.46827,111.00091 L63.93193,109.67449 L70.36834,111.58465 z M242.64458,109.22625 L230.58646,109.22625 L227.59021,106.24104 L242.75322,109.053535 z M55.979374,109.483406 L52.771477,108.954506 L51.735943,101.65565 L55.979374,101.381874 z M126.7026,105.4025 L124.47,108.47875 L124.47,103.18875 L126.93211,103.18875 z M79.42313,104.640625 L69.09482,100.80916 L71.10407,99.54202 L79.578125,102.68562 z M116.76726,97.81801 L104.46531,101.72969 L106.10412,99.54109 L117.09808,96.04532 z M109.14438,94.836876 L96.429535,88.54781 L102.00146,90.006874 L103.10906,90.35906 z M61.404373,95.9689 L58.93919,93.68265 L60.297234,90.65991 L61.404373,91.29178 z M60.297234,90.65991 L58.93919,93.68265 L55.72917,91.83027 L55.979374,87.18938 z M102.977005,91.161415 L100.373955,93.092705 L96.76859,91.75523 L98.63743,89.67541 z M93.61531,87.13906 L90.17093,94.805595 L89.88563,94.684074 L89.88563,87.53438 z M94.6325,66.7625 L92.4625,65.1525 L92.4625,54.33531 L95.84723,65.63594 z M145.97261,50.270958 L120.01033,46.41849 L127.22229,38.39228 L141.62003,46.907074 z M98.023125,37.80572 L94.47338,38.008312 L96.90161,32.003014 L106.522804,32.95479 z M139.07492,164.42531 L107.24563,156.55354 L107.24563,155.21187 L122.807045,149.43909 L133.4917,155.9726 z M107.24563,156.55354 L105.618126,156.82187 L104.66875,156.82187 L101.444374,153.77716 L107.24563,155.21187 z M106.862686,155.12111 L102.79713,154.86975 L102.580124,154.68863 L104.044876,152.51512 L112.26109,153.02312 z M128.38303,135.61609 L122.72672,142.96017 L122.51104,138.3195 L123.385,136.46687 L127.63614,135.5657 z M136.14978,147.15608 L129.6063,135.82811 L136.03313,132.36026 L139.639,134.28102 L141.54747,136.36069 z M122.51104,138.3195 L117.788994,134.37813 L122.212814,128.6343 L123.385,133.20015 L123.385,136.46687 z M136.03313,132.36026 L129.6063,135.82811 L128.57689,135.55855 L127.114685,129.04938 L134.27614,130.68425 z M108.53891,134.98625 L93.71703,134.98625 L92.27756,130.71426 L92.41729,130.55875 L94.94426,128.098 z M87.85125,130.55875 L83.61802,133.69954 L82.10075,130.01538 L81.15076,126.66743 L87.85125,126.41248 z M92.41729,130.55875 L87.85125,130.55875 L87.85125,126.41248 L93.490105,125.98339 L94.94426,128.098 z M264.20917,130.74252 L238.9209,134.87022 L238.1484,134.15381 L240.18459,129.11809 L250.58853,124.486664 z M151.27855,128.90562 L147.36285,130.15071 L146.89452,129.03879 L148.76366,127.453896 L149.70062,127.40042 z M239.61563,127.640625 L238.29475,127.92062 L237.49083,126.13125 L239.07312,124.62187 L242.51306,123.77113 z M149.70062,127.40042 L148.76366,127.453896 L146.95029,125.88426 L146.89745,125.335396 L150.78714,126.05688 z M155.78357,127.767624 L154.64656,127.69094 L153.50418,126.27832 L154.17188,125.38663 L157.86674,124.290085 z M235.41125,125.67844 L234.30792,126.906334 L233.31429,125.284454 L233.73854,125.15854 L235.41125,124.84828 z M232.23763,125.225624 L228.65712,125.225624 L229.79637,124.52125 L232.6697,124.52125 L232.78877,124.93355 z M157.86674,124.290085 L154.17188,125.38663 L154.17188,124.42062 L157.111,120.05936 L163.11726,119.52885 z M232.6697,124.52125 L229.79637,124.52125 L230.89742,122.47899 L231.24562,122.66688 L232.72902,123.90503 z M154.17188,124.42062 L152.95125,124.11875 L154.71437,120.194374 L156.9482,120.05626 L157.111,120.05936 z M139.79562,125.82133 L137.23326,125.89737 L136.81187,125.38375 L136.81187,119.79188 L139.79562,123.1125 z M234.79124,123.055 L232.72902,123.90503 L231.24562,122.66688 L234.32625,121.905 L234.94624,122.365 z M120.16699,119.06006 L113.32501,124.13636 L113.29757,124.11495 L117.993904,118.307655 L119.807304,118.67459 z M72.60421,126.004295 L69.60447,119.32745 L70.12312,118.81438 L77.55256,124.32653 L77.4654,124.57307 z M117.993904,118.307655 L113.29757,124.11495 L113.12033,124.002235 L115.344376,117.95187 L117.04938,117.60687 z M96.34138,117.578125 L94.04479,117.578125 L92.60992,116.93938 L98.511375,116.209625 L97.48062,116.97437 z M119.807304,118.67459 L117.993904,118.307655 L117.04938,117.60687 L118.00765,114.99995 L121.30165,113.13106 z M135.61688,109.88789 L100.51862,119.188126 L98.66706,116.13537 L99.7763,111.36206 L105.33485,108.80514 z M154.71437,120.194374 L151.11147,114.84812 L151.45682,114.623924 L156.9482,120.05626 L154.71437,120.194374 z M71.32007,117.70111 L70.08437,115.8675 L70.265205,115.632706 L78.9953,116.92814 L78.55009,118.08427 z M109.98864,118.13408 L108.07565,117.5258 L107.63743,116.22528 L109.59646,115.49854 L110.03347,117.768196 z M112.073875,114.7405 L110.03347,117.768196 L109.59646,115.49854 L110.0184,112.994095 L111.31717,113.52408 z M109.59646,115.49854 L107.63743,116.22528 L101.75728,108.59057 L104.0509,108.5666 L110.0184,112.994095 z M70.08437,115.8675 L66.48062,117.20438 L65.075294,117.26954 L69.93368,113.66493 L70.265205,115.632706 z M115.99344,115.21344 L113.80673,116.186874 L112.073875,114.7405 L111.31717,113.52408 L113.416565,113.30156 z M248.89626,116.2125 L245.92218,114.005936 L248.29562,111.54063 L249.51625,110.936874 L249.51625,115.0625 z M60.878998,118.08023 L58.02752,117.17997 L59.7166,111.54063 L61.645485,111.54063 L61.919197,111.90616 z M57.96854,110.131874 L56.793125,112.74812 L54.183514,115.97507 L54.943695,112.30904 L57.89408,110.12003 z M57.89408,110.12003 L54.943695,112.30904 L54.809124,111.31062 L56.188976,109.604355 L56.8094,109.681076 z M54.809124,111.31062 L52.6006,109.2624 L52.771477,108.954506 L55.979374,109.483406 L56.188976,109.604355 z M46.8925,112.0035 L43.526947,110.00588 L44.01355,108.862625 L44.186165,108.72541 L48.695515,110.39823 z M48.695515,110.39823 L44.186165,108.72541 L47.16897,104.963234 L47.554085,104.72512 L48.814335,110.335266 z M130.70876,110.52 L122.49001,110.81037 L122.40355,110.679695 L124.08824,109.16662 L130.70876,106.710625 z M44.01355,108.862625 L37.873436,106.58485 L38.551563,106.33328 L47.16897,104.963234 L44.186165,108.72541 z M130.70876,106.710625 L124.08824,109.16662 L124.47,108.47875 L126.7026,105.4025 L132.8245,105.4025 z M132.8245,105.4025 L126.7026,105.4025 L126.93211,103.18875 L132.43759,99.648674 L144.06964,100.7674 z M79.93599,105.57077 L70.87113,106.91588 L66.06307,102.113785 L69.09482,100.80916 L79.42313,104.640625 z M90.99775,105.94588 L85.60777,110.44476 L84.33176,108.152695 L85.72827,102.55761 L87.54125,100.81687 z M79.78156,102.38375 L77.68671,99.27525 L80.38483,98.92199 L81.328125,99.85514 L81.6255,101.28928 z M85.72827,102.55761 L81.6255,101.28928 L81.328125,99.85514 L89.1504,99.026054 L87.54125,100.81687 z M117.09808,96.04532 L106.10412,99.54109 L105.306984,97.76684 L111.68346,95.874466 L117.10669,96.01817 z M80.38483,98.92199 L77.68671,99.27525 L72.95019,98.74812 L74.15312,97.85562 L82.66451,95.750656 z M82.66451,95.750656 L74.15312,97.85562 L78.53133,93.163574 L82.78737,91.716286 L85.25943,93.41284 z M75.70084,92.88357 L71.524086,95.98245 L70.574684,93.02399 L71.838455,92.01938 L73.565414,92.01938 z M64.44902,94.97241 L62.38597,97.880646 L61.404373,95.9689 L61.404373,91.29178 L62.760624,91.21438 z M64.44902,94.97241 L62.760624,91.21438 L65.65084,90.49959 L66.375854,90.86764 L67.025116,92.192345 z M70.574684,93.02399 L67.025116,92.192345 L66.375854,90.86764 L71.45777,87.782715 L71.838455,92.01938 z M117.221,94.38604 L103.10906,90.35906 L102.00146,90.006874 L117.41351,90.006874 L117.54432,93.30659 z M102.977005,91.161415 L98.63743,89.67541 L98.675964,89.38948 L124.063126,86.250206 L103.659096,91.296364 z M71.45777,87.782715 L66.375854,90.86764 L65.65084,90.49959 L58.38802,77.413124 L73.27518,84.546555 z M93.61531,87.13906 L89.88563,87.53438 L89.44793,87.07046 L97.996,82.84238 L97.84507,83.430275 z M89.316,80.85 L81.381325,80.85 L82.04404,76.523125 L83.375626,76.523125 L85.863525,76.58081 z M89.316,80.85 L85.863525,76.58081 L88.05174,76.35687 L94.218636,82.07617 L93.80344,82.13053 z M88.05174,76.35687 L85.863525,76.58081 L83.375626,76.523125 L88.39375,72.8 L91.81828,74.49385 z M88.39375,72.8 L83.375626,76.523125 L82.04404,76.523125 L77.44275,71.1585 L85.335625,70.53107 z M106.676,70.18375 L101.7076,70.18375 L100.842865,69.63382 L102.70618,68.50272 L118.69625,66.13 z M95.34702,72.11105 L89.441765,69.607445 L92.59812,67.265625 L94.6325,67.265625 L96.36067,70.56269 z M102.70618,68.50272 L100.842865,69.63382 L97.29284,70.07281 L99.474,66.296814 L101.001854,66.60597 z M92.59812,67.265625 L89.441765,69.607445 L89.2075,69.531876 L89.2075,66.69283 L90.03304,66.50437 z M92.59812,67.265625 L90.03304,66.50437 L92.4625,65.1525 L94.6325,66.7625 L94.6325,67.265625 z M142.84387,68.12381 L113.23859,58.297268 L114.3721,53.25131 L115.538124,52.81875 L145.50957,67.64333 z M119.66053,49.756874 L114.90322,49.756874 L97.86962,42.61375 L110.5208,40.012714 L118.70804,46.694557 z M98.023125,51.87 L93.31908,51.87 L94.29598,38.0988 L94.47338,38.008312 L98.023125,37.80572 z M124.338875,36.540344 L111.080536,39.81929 L112.21378,31.411348 L116.10646,29.96729 L124.80332,30.88908 z M96.8025,151.35458 L73.602646,162.82977 L82.99418,150.28754 L94.60759,144.80438 L97.766045,150.27223 L97.11074,151.11203 z M97.766045,150.27223 L94.60759,144.80438 L94.75521,144.34438 L96.56618,140.81737 L113.862434,137.19073 L117.45746,137.74959 z M234.34563,144.48813 L229.66978,134.08063 L233.33844,131.11128 L233.36787,131.11365 L238.1484,134.15381 L238.9209,134.87022 z M79.54609,135.21582 L75.79317,134.18997 L74.90699,133.57358 L82.10075,130.01538 L83.61802,133.69954 L83.701126,133.95987 z M82.10075,130.01538 L74.90699,133.57358 L65.36969,128.73207 L72.60421,126.004295 L77.4654,124.57307 L81.15076,126.66743 z M92.27756,130.71426 L86.539406,135.53925 L83.701126,133.95987 L83.61802,133.69954 L87.85125,130.55875 L92.41729,130.55875 z M157.59247,136.7519 L156.25146,129.7873 L156.53438,128.10805 L190.22844,132.05522 L191.94254,137.47813 L191.13644,147.1594 z M156.25146,129.7873 L152.62088,131.13412 L152.49013,129.29088 L154.64656,127.69094 L155.78357,127.767624 L156.53438,128.10805 z M240.18459,129.11809 L238.1484,134.15381 L233.36787,131.11365 L233.50536,130.8818 L238.29475,127.92062 L239.61563,127.640625 z M250.58853,124.486664 L240.18459,129.11809 L239.61563,127.640625 L242.51306,123.77113 L245.58347,122.36926 L247.66978,122.918526 z M190.22844,132.05522 L156.53438,128.10805 L155.78357,127.767624 L157.86674,124.290085 L163.11726,119.52885 L186.53421,114.07823 z M134.27614,130.68425 L127.114685,129.04938 L123.43165,127.44982 L126.52284,123.20267 L136.81187,125.38375 L137.23326,125.89737 z M237.49083,126.13125 L234.55577,127.76447 L234.30792,126.906334 L235.41125,125.67844 L238.4402,124.554794 L239.07312,124.62187 z M153.50418,126.27832 L151.43896,125.621635 L151.14026,124.79057 L152.95125,124.11875 L154.17188,124.42062 L154.17188,125.38663 z M152.95125,124.11875 L151.14026,124.79057 L148.09274,121.11635 L150.51,120.37787 L154.71437,120.194374 L154.71437,120.194374 z M136.81187,125.38375 L126.52284,123.20267 L127.089325,121.456825 L129.42197,118.55177 L136.49019,117.16653 L136.81187,119.79188 z M234.32625,121.905 L231.24562,122.66688 L230.89742,122.47899 L228.48512,119.89377 L231.77711,118.20932 L231.95282,118.383125 z M107.87925,123.59204 L104.64363,123.1684 L106.20583,119.69125 L107.855934,119.69125 L110.69335,120.533325 L111.928185,123.51085 z M77.55256,124.32653 L70.12312,118.81438 L70.65701,117.8241 L71.32007,117.70111 L78.55009,118.08427 L78.35415,122.2275 z M99.78625,121.905 L94.36125,123.9175 L97.48062,116.97437 L98.511375,116.209625 L98.66706,116.13537 L100.51862,119.188126 z M97.48062,116.97437 L94.36125,123.9175 L94.2013,123.985825 L93.59312,123.17836 L95.08869,118.73988 L96.34138,117.578125 z M69.60447,119.32745 L63.735752,117.58577 L65.075294,117.26954 L66.48062,117.20438 L70.65701,117.8241 L70.12312,118.81438 z M95.08869,118.73988 L93.59312,123.17836 L90.58261,120.41295 L89.496864,116.51943 L92.60992,116.93938 L94.04479,117.578125 z M115.344376,117.95187 L113.12033,124.002235 L111.928185,123.51085 L110.69335,120.533325 L110.347855,118.48259 L113.707756,116.73761 z M127.089325,121.456825 L120.16699,119.06006 L119.807304,118.67459 L121.30165,113.13106 L122.65023,111.91985 L129.42197,118.55177 z M150.51,120.37787 L148.09274,121.11635 L148.06876,121.11677 L148.06876,115.594376 L148.47563,115.163124 L150.51,115.163124 z M117.04938,117.60687 L115.344376,117.95187 L113.707756,116.73761 L113.80673,116.186874 L115.99344,115.21344 L118.00765,114.99995 z M113.707756,116.73761 L110.347855,118.48259 L109.98864,118.13408 L110.03347,117.768196 L112.073875,114.7405 L113.80673,116.186874 z M98.511375,116.209625 L92.60992,116.93938 L89.496864,116.51943 L86.02017,111.815674 L99.7763,111.36206 L98.66706,116.13537 z M148.06876,115.594376 L141.42493,118.41111 L137.45651,116.660446 L139.1627,111.41604 L140.82034,109.483406 L148.47563,115.163124 z M78.9953,116.92814 L70.265205,115.632706 L69.93368,113.66493 L70.97441,111.50289 L72.38801,110.803696 L80.5141,113.976875 z M245.92218,114.005936 L240.42833,116.451584 L237.27318,114.55354 L238.55917,113.65904 L245.22145,111.54063 L248.29562,111.54063 z M65.01588,113.74575 L62.469955,117.75968 L61.33806,118.28755 L60.878998,118.08023 L61.919197,111.90616 L64.07348,112.17255 z M53.89819,116.514885 L46.8925,118.7425 L46.8925,112.0035 L48.695515,110.39823 L48.814335,110.335266 L51.02209,110.540016 z M59.7166,111.54063 L58.02752,117.17997 L53.984516,116.506584 L54.183514,115.97507 L56.793125,112.74812 L59.14961,110.99976 z M120.96924,109.93941 L113.416565,113.30156 L111.31717,113.52408 L110.0184,112.994095 L104.0509,108.5666 L115.16621,105.39474 z M64.07348,112.17255 L61.919197,111.90616 L61.645485,111.54063 L63.230793,108.89419 L63.93193,109.67449 L64.46827,111.00091 z M61.645485,111.54063 L59.7166,111.54063 L59.14961,110.99976 L58.617897,110.131874 L62.694416,106.80491 L63.230793,108.89419 z M242.32813,109.930626 L238.55917,113.65904 L237.27318,114.55354 L235.21991,114.12239 L230.58646,109.22625 L242.64458,109.22625 z M56.8094,109.681076 L56.188976,109.604355 L55.979374,109.483406 L55.979374,101.381874 L56.876358,101.27578 L59.62228,101.33317 z M47.16897,104.963234 L38.551563,106.33328 L45.66906,98.41219 L46.741875,98.90094 L50.547905,101.494255 L47.554085,104.72512 z M90.99775,105.94588 L87.54125,100.81687 L89.1504,99.026054 L91.62813,97.02788 L94.60675,98.76762 L96.3009,102.24272 z M79.578125,102.68562 L71.10407,99.54202 L71.69047,99.06857 L72.95019,98.74812 L77.68671,99.27525 L79.78156,102.38375 z M103.068375,100.190125 L101.248886,105.58989 L96.3009,102.24272 L94.60675,98.76762 L98.70125,97.755 L100.14792,98.02333 z M106.16062,98.66062 L100.14792,98.02333 L98.70125,97.755 L100.73563,96.24563 L102.2275,95.692184 L110.22938,98.66062 z M78.53133,93.163574 L74.15312,97.85562 L72.95019,98.74812 L71.69047,99.06857 L71.524086,95.98245 L75.70084,92.88357 z M127.94642,97.93987 L117.1371,95.98382 L117.221,94.38604 L117.54432,93.30659 L122.3,92.5225 L129.51779,92.110565 z M102.49875,93.3275 L100.3916,93.104164 L100.373955,93.092705 L102.977005,91.161415 L103.659096,91.296364 L102.837814,93.3275 z M75.70084,92.88357 L73.565414,92.01938 L79.62803,85.27227 L80.01608,85.54793 L82.78737,91.716286 L78.53133,93.163574 z M79.62803,85.27227 L73.565414,92.01938 L71.838455,92.01938 L71.45777,87.782715 L73.27518,84.546555 L79.42959,85.09765 z M97.996,82.84238 L89.44793,87.07046 L86.14179,85.1081 L93.80344,82.13053 L94.218636,82.07617 L98.160324,82.3547 z M92.4625,65.1525 L90.03304,66.50437 L89.2075,66.69283 L70.17933,51.489185 L92.18827,51.995518 L92.4625,54.33531 z M127.22229,38.39228 L120.01033,46.41849 L118.70804,46.694557 L110.5208,40.012714 L111.080536,39.81929 L124.338875,36.540344 z M141.62003,46.907074 L127.22229,38.39228 L124.338875,36.540344 L124.80332,30.88908 L129.07436,17.546642 L138.51688,31.558125 z M107.24563,155.21187 L101.444374,153.77716 L84.90988,142.23125 L98.22437,142.23125 L117.01063,147.1413 L122.05642,148.92804 L122.807045,149.43909 z M151.78777,135.62167 L141.12927,167.25333 L139.07492,164.42531 L133.4917,155.9726 L136.14978,147.15608 L141.54747,136.36069 L146.62766,135.33273 z M122.05642,148.92804 L117.01063,147.1413 L117.01063,134.73174 L117.04453,134.70953 L117.788994,134.37813 L122.51104,138.3195 L122.72672,142.96017 z M117.04453,134.70953 L111.61028,130.67767 L113.107796,128.29683 L115.407974,126.33742 L122.445045,127.7297 L122.212814,128.6343 L117.788994,134.37813 z M151.78777,135.62167 L146.62766,135.33273 L147.36285,130.15071 L151.27855,128.90562 L152.49013,129.29088 L152.62088,131.13412 L152.32039,135.59294 z M111.61028,130.67767 L106.63236,136.54349 L98.22437,142.23125 L84.90988,142.23125 L71.64604,141.09848 L104.89068,128.7658 L113.107796,128.29683 z M152.49013,129.29088 L151.27855,128.90562 L149.70062,127.40042 L150.78714,126.05688 L151.43896,125.621635 L153.50418,126.27832 L154.64656,127.69094 z M235.6825,123.71625 L233.73854,125.15854 L233.31429,125.284454 L232.78877,124.93355 L232.6697,124.52125 L232.72902,123.90503 L234.79124,123.055 z M122.445045,127.7297 L115.407974,126.33742 L113.32501,124.13636 L120.16699,119.06006 L127.089325,121.456825 L126.52284,123.20267 L123.43165,127.44982 z M237.1388,121.46126 L231.95282,118.383125 L231.77711,118.20932 L235.21991,114.12239 L237.27318,114.55354 L240.42833,116.451584 L243.96231,121.09965 z M72.60421,126.004295 L65.36969,128.73207 L64.479164,128.88072 L61.33806,118.28755 L62.469955,117.75968 L63.735752,117.58577 L69.60447,119.32745 z M107.855934,119.69125 L105.734375,118.64188 L104.947975,117.91255 L108.07565,117.5258 L109.98864,118.13408 L110.347855,118.48259 L110.69335,120.533325 z M228.48512,119.89377 L227.13812,120.077866 L227.13812,105.828224 L227.59021,106.24104 L230.58646,109.22625 L235.21991,114.12239 L231.77711,118.20932 z M247.66978,122.918526 L245.58347,122.36926 L243.96231,121.09965 L240.42833,116.451584 L245.92218,114.005936 L248.89626,116.2125 L249.04156,117.82969 z M136.49019,117.16653 L129.42197,118.55177 L122.65023,111.91985 L122.49001,110.81037 L130.70876,110.52 L139.1627,111.41604 L137.45651,116.660446 z M53.89819,116.514885 L51.02209,110.540016 L52.6006,109.2624 L54.809124,111.31062 L54.943695,112.30904 L54.183514,115.97507 L53.984516,116.506584 z M51.02209,110.540016 L48.814335,110.335266 L47.554085,104.72512 L50.547905,101.494255 L51.735943,101.65565 L52.771477,108.954506 L52.6006,109.2624 z M139.1627,111.41604 L130.70876,110.52 L130.70876,106.710625 L132.8245,105.4025 L144.06964,100.7674 L145.35934,100.72753 L140.82034,109.483406 z M80.5141,113.976875 L72.38801,110.803696 L70.87113,106.91588 L79.93599,105.57077 L84.33176,108.152695 L85.60777,110.44476 L85.68709,111.70008 z M124.08824,109.16662 L122.40355,110.679695 L120.96924,109.93941 L115.16621,105.39474 L116.606224,101.521774 L124.47,103.18875 L124.47,108.47875 z M84.33176,108.152695 L79.93599,105.57077 L79.42313,104.640625 L79.578125,102.68562 L79.78156,102.38375 L81.6255,101.28928 L85.72827,102.55761 z M115.16621,105.39474 L104.0509,108.5666 L101.75728,108.59057 L95.70243,108.23118 L104.46531,101.72969 L116.76726,97.81801 L116.606224,101.521774 z M55.979374,101.381874 L51.735943,101.65565 L50.547905,101.494255 L46.741875,98.90094 L52.629436,93.440704 L55.093727,92.678894 L56.876358,101.27578 z M102.2275,95.692184 L100.73563,96.24563 L100.73563,94.63563 L102.49875,93.3275 L102.837814,93.3275 L103.093414,93.70678 L102.60307,95.34387 z M109.14438,94.836876 L103.10906,90.35906 L117.221,94.38604 L117.1371,95.98382 L117.10669,96.01817 L111.68346,95.874466 L110.61232,95.65372 z M62.760624,91.21438 L61.404373,91.29178 L60.297234,90.65991 L55.979374,87.18938 L50.06154,72.02167 L58.38802,77.413124 L65.65084,90.49959 z M96.76859,91.75523 L90.61726,95.090385 L90.17093,94.805595 L93.61531,87.13906 L97.84507,83.430275 L98.675964,89.38948 L98.63743,89.67541 z M124.063126,86.250206 L98.675964,89.38948 L97.84507,83.430275 L97.996,82.84238 L98.160324,82.3547 L102.11972,80.13763 L139.49551,82.910675 z M89.88563,94.684074 L85.25943,93.41284 L82.78737,91.716286 L80.01608,85.54793 L86.14179,85.1081 L89.44793,87.07046 L89.88563,87.53438 z M93.80344,82.13053 L86.14179,85.1081 L80.01608,85.54793 L79.62803,85.27227 L79.42959,85.09765 L81.381325,80.85 L89.316,80.85 z M94.218636,82.07617 L88.05174,76.35687 L91.81828,74.49385 L95.504166,73.481 L100.27799,77.708405 L102.11972,80.13763 L98.160324,82.3547 z M91.81828,74.49385 L88.39375,72.8 L85.335625,70.53107 L89.2075,69.531876 L89.441765,69.607445 L95.34702,72.11105 L95.504166,73.481 z M97.29284,70.07281 L96.36067,70.56269 L94.6325,67.265625 L94.6325,66.7625 L95.84723,65.63594 L99.115875,65.393425 L99.474,66.296814 z M99.115875,65.393425 L95.84723,65.63594 L92.4625,54.33531 L92.18827,51.995518 L93.31908,51.87 L98.023125,51.87 L104.05923,52.189884 z M111.080536,39.81929 L110.5208,40.012714 L97.86962,42.61375 L81.04515,43.791363 L109.22418,27.364416 L111.88013,29.183374 L112.21378,31.411348 z M84.887596,139.61873 L79.03232,138.53267 L78.19621,137.46924 L79.54609,135.21582 L83.701126,133.95987 L86.539406,135.53925 L87.148315,136.48581 L87.80097,139.39119 z M133.4917,155.9726 L122.807045,149.43909 L122.05642,148.92804 L122.72672,142.96017 L128.38303,135.61609 L128.57689,135.55855 L129.6063,135.82811 L136.14978,147.15608 z M96.56618,140.81737 L87.852486,139.45631 L87.80097,139.39119 L87.148315,136.48581 L93.71703,134.98625 L108.53891,134.98625 L110.75896,135.8248 L113.862434,137.19073 z M127.63614,135.5657 L123.385,133.20015 L122.212814,128.6343 L122.445045,127.7297 L123.43165,127.44982 L127.114685,129.04938 L128.57689,135.55855 L128.38303,135.61609 z M229.66978,134.08063 L192.54884,154.73663 L191.13644,147.1594 L191.94254,137.47813 L219.77344,127.60265 L222.2422,127.869774 L227.97531,129.17857 L233.33844,131.11128 z M146.62766,135.33273 L141.54747,136.36069 L139.639,134.28102 L140.69823,132.14793 L144.85196,128.03888 L144.875,128.03989 L146.89452,129.03879 L147.36285,130.15071 z M140.69823,132.14793 L139.639,134.28102 L136.03313,132.36026 L134.27614,130.68425 L137.23326,125.89737 L139.79562,125.82133 L141.41464,125.91742 L141.45442,125.97644 z M113.107796,128.29683 L104.89068,128.7658 L107.87925,123.59204 L111.928185,123.51085 L113.12033,124.002235 L113.29757,124.11495 L113.32501,124.13636 L115.407974,126.33742 z M146.95029,125.88426 L144.875,128.03989 L144.85196,128.03888 L141.45442,125.97644 L141.41464,125.91742 L144.56511,123.1125 L145.55084,122.33813 L146.89745,125.335396 z M150.78714,126.05688 L146.89745,125.335396 L145.55084,122.33813 L146.02562,121.369415 L148.06876,121.11677 L148.09274,121.11635 L151.14026,124.79057 L151.43896,125.621635 z M108.53891,134.98625 L94.94426,128.098 L93.490105,125.98339 L94.2013,123.985825 L94.36125,123.9175 L99.78625,121.905 L100.09739,121.98195 L110.75896,135.8248 z M229.79637,124.52125 L228.65712,125.225624 L222.2422,127.869774 L219.77344,127.60265 L224.771,120.54003 L227.13812,120.077866 L228.48512,119.89377 L230.89742,122.47899 z M144.56511,123.1125 L139.79562,123.1125 L136.81187,119.79188 L136.49019,117.16653 L137.45651,116.660446 L141.42493,118.41111 L146.02562,121.369415 L145.55084,122.33813 z M90.58261,120.41295 L78.35415,122.2275 L78.55009,118.08427 L78.9953,116.92814 L80.5141,113.976875 L85.68709,111.70008 L86.02017,111.815674 L89.496864,116.51943 z M69.93368,113.66493 L65.075294,117.26954 L63.735752,117.58577 L62.469955,117.75968 L65.01588,113.74575 L68.27887,112.1318 L70.36834,111.58465 L70.97441,111.50289 z M115.99344,115.21344 L113.416565,113.30156 L120.96924,109.93941 L122.40355,110.679695 L122.49001,110.81037 L122.65023,111.91985 L121.30165,113.13106 L118.00765,114.99995 z M245.22145,111.54063 L242.32813,109.930626 L242.64458,109.22625 L242.75322,109.053535 L243.14188,108.68653 L249.60115,110.86488 L249.51625,110.936874 L248.29562,111.54063 z M57.89408,110.12003 L56.8094,109.681076 L59.62228,101.33317 L62.15682,101.28094 L63.91179,101.98777 L62.694416,106.80491 L58.617897,110.131874 L57.96854,110.131874 z M99.7763,111.36206 L86.02017,111.815674 L85.68709,111.70008 L85.60777,110.44476 L90.99775,105.94588 L96.3009,102.24272 L101.248886,105.58989 L105.33485,108.80514 z M59.62228,101.33317 L56.876358,101.27578 L55.093727,92.678894 L55.72917,91.83027 L58.93919,93.68265 L61.404373,95.9689 L62.38597,97.880646 L62.15682,101.28094 z M103.279884,71.58359 L100.27799,77.708405 L95.504166,73.481 L95.34702,72.11105 L96.36067,70.56269 L97.29284,70.07281 L100.842865,69.63382 L101.7076,70.18375 z M233.33844,131.11128 L227.97531,129.17857 L232.23763,125.225624 L232.78877,124.93355 L233.31429,125.284454 L234.30792,126.906334 L234.55577,127.76447 L233.50536,130.8818 L233.36787,131.11365 z M87.85125,126.41248 L81.15076,126.66743 L77.4654,124.57307 L77.55256,124.32653 L78.35415,122.2275 L90.58261,120.41295 L93.59312,123.17836 L94.2013,123.985825 L93.490105,125.98339 z M70.36834,111.58465 L63.93193,109.67449 L63.230793,108.89419 L62.694416,106.80491 L63.91179,101.98777 L66.06307,102.113785 L70.87113,106.91588 L72.38801,110.803696 L70.97441,111.50289 z M126.93211,103.18875 L124.47,103.18875 L116.606224,101.521774 L116.76726,97.81801 L117.09808,96.04532 L117.10669,96.01817 L117.1371,95.98382 L127.94642,97.93987 L132.43759,99.648674 z M89.1504,99.026054 L81.328125,99.85514 L80.38483,98.92199 L82.66451,95.750656 L85.25943,93.41284 L89.88563,94.684074 L90.17093,94.805595 L90.61726,95.090385 L91.62813,97.02788 z M100.73563,96.24563 L98.70125,97.755 L94.60675,98.76762 L91.62813,97.02788 L90.61726,95.090385 L96.76859,91.75523 L100.373955,93.092705 L100.3916,93.104164 L100.73563,94.63563 z M236.56406,124.206795 L235.6825,123.71625 L234.79124,123.055 L234.94624,122.365 L237.1388,121.46126 L243.96231,121.09965 L245.58347,122.36926 L242.51306,123.77113 L239.07312,124.62187 L238.4402,124.554794 z M69.09482,100.80916 L66.06307,102.113785 L63.91179,101.98777 L62.15682,101.28094 L62.38597,97.880646 L64.44902,94.97241 L67.025116,92.192345 L70.574684,93.02399 L71.524086,95.98245 L71.69047,99.06857 L71.10407,99.54202 z" fill="none" stroke="gold" stroke-width="0.6"/>
</g>
<g inkscape:groupmode="layer" inkscape:label="white">
<path d="M80.62334,177.55063 L70.40625,188.92125 L69.554825,177.55063 z M86.907295,160.57854 L85.7625,163.97598 L83.821335,162.86812 z M-10.746304,158.1046 L-10,158.01382 L-10,158.15651 z M54.911095,137.57735 L50.758316,137.235 L51.93955,132.853 z M128.63614,135.5657 L124.385,136.46687 L124.385,133.20015 z M145.85196,128.03888 L141.69823,132.14793 L142.45442,125.97644 z M108.855934,119.69125 L107.20583,119.69125 L106.734375,118.64188 z M96.08869,118.73988 L95.04479,117.578125 L97.34138,117.578125 z M147.55524,78.047935 L125.47,108.47875 L125.47,92.35668 z M-20.790892,115.09775 L-10,113.5581 L-10,116.106926 z M103.49875,93.3275 L101.73563,94.63563 L101.3916,93.104164 z M110.14438,94.836876 L106.4825,93.02563 L106.4825,92.12 z M90.316,80.85 L82.381325,80.85 L83.644806,72.60067 z M304.95096,-10 L300,-6.2029004 L300,-10 z M270.97546,-10 L300,-30.706081 L300,-10 z M-33.779884,-10 L-10,-10 L-10,12.989546 z M-10,212.19035 L-10,220 L-21.011856,220 z M-10,227.6475 L-10,220 L0.3075,220 z M87.97938,169.75937 L78.56545,166.84915 L78.68368,166.5202 L81.76485,165.14859 z M81.73847,165.07686 L79.9,164.1675 L78.48791,158.92908 L83.14175,162.64754 z M87.47301,165.45659 L85.7625,163.97598 L86.907295,160.57854 L89.80063,156.82187 z M67.88648,158.34714 L64.81432,162.90582 L60.26386,164.17188 L66.75699,157.74857 z M42.603127,160.04187 L40.2975,159.51553 L40.2975,156.41937 L42.603127,158.70021 z M66.47312,150.18062 L59.917915,155.04417 L58.878124,154.65843 L58.878124,153.40062 z M105.044876,152.51512 L103.580124,154.68863 L97.8025,151.35458 L98.11074,151.11203 z M81.12063,151.38812 L69.94844,150.63458 L69.82198,150.50444 L78.48563,149.43312 z M51.554375,151.2875 L45.33921,148.98187 L45.364063,148.77907 L45.886185,148.13342 z M55.50257,143.04742 L53.633957,141.66104 L55.080624,141.12437 L56.325184,142.97115 z M85.887596,139.61873 L80.53639,141.06245 L79.832184,140.0175 L80.03232,138.53267 z M94.71703,134.98625 L88.148315,136.48581 L87.539406,135.53925 L93.27756,130.71426 z M51.64528,132.12523 L44.41932,137.86937 L46.758087,127.4581 L52.116226,130.59656 z M118.01063,134.73174 L107.63236,136.54349 L112.61028,130.67767 L118.04453,134.70953 z M158.59247,136.7519 L153.32039,135.59294 L153.62088,131.13412 L157.25146,129.7873 z M149.76366,127.453896 L147.89452,129.03879 L145.875,128.03989 L147.95029,125.88426 z M142.41464,125.91742 L140.79562,125.82133 L140.79562,123.1125 L145.56511,123.1125 z M56.481342,124.691154 L55.713543,124.48771 L53.54354,121.67021 L60.04961,123.60104 z M71.65701,117.8241 L67.48062,117.20438 L71.08437,115.8675 L72.32007,117.70111 z M69.27887,112.1318 L66.01588,113.74575 L65.07348,112.17255 L65.46827,111.00091 z M60.14961,110.99976 L57.793125,112.74812 L58.96854,110.131874 L59.617897,110.131874 z M69.27887,112.1318 L65.46827,111.00091 L64.93193,109.67449 L71.36834,111.58465 z M56.979374,109.483406 L53.771477,108.954506 L52.735943,101.65565 L56.979374,101.381874 z M80.42313,104.640625 L70.09482,100.80916 L72.10407,99.54202 L80.578125,102.68562 z M104.068375,100.190125 L101.14792,98.02333 L104.207016,98.34757 L105.1964,99.63218 z M118.17755,96.02005 L107.10412,99.54109 L106.306984,97.76684 L112.68346,95.874466 z M106.71247,94.95937 L103.60307,95.34387 L104.093414,93.70678 L105.89479,93.897705 z M62.404373,95.9689 L59.93919,93.68265 L61.297234,90.65991 L62.404373,91.29178 z M61.297234,90.65991 L59.93919,93.68265 L56.72917,91.83027 L56.979374,87.18938 z M103.977005,91.161415 L101.373955,93.092705 L97.76859,91.75523 L99.63743,89.67541 z M94.61531,87.13906 L91.17093,94.805595 L90.88563,94.684074 L90.88563,87.53438 z M58.0915,178.8185 L56.5725,178.255 L49.402065,172.935 L59.280247,169.21043 L61.220207,170.30707 z M80.62334,177.55063 L69.554825,177.55063 L69.18699,173.62071 L69.41038,173.52562 L85.144165,173.52562 z M76.39313,168.63812 L69.47339,173.45125 L73.02436,164.66927 L74.09024,164.08656 L77.66312,167.26758 z M81.76485,165.14859 L78.68368,166.5202 L78.58394,165.63216 L79.9,164.1675 L81.73847,165.07686 z M49.83912,162.62852 L42.708515,170.03516 L42.491135,165.19669 L44.159477,163.85573 L45.823643,163.00093 z M78.58394,165.63216 L75.449036,162.84108 L78.38996,158.8128 L78.48791,158.92908 L79.9,164.1675 z M98.46192,165.1911 L93.75106,161.11342 L93.847466,160.07634 L98.7214,160.93732 L101.90316,161.99962 z M73.02436,164.66927 L66.92736,162.58145 L69.32125,161.24937 L74.83667,163.29541 L74.09024,164.08656 z M44.159477,163.85573 L42.491135,165.19669 L40.369987,163.1387 L42.772655,160.16766 L42.92268,160.18523 z M44.159477,163.85573 L42.92268,160.18523 L43.880627,160.14575 L44.307392,160.37602 L45.823643,163.00093 z M49.83912,162.62852 L45.823643,163.00093 L44.307392,160.37602 L46.346375,160.56512 L50.624374,162.37885 z M40.369987,163.1387 L33.114246,161.15538 L40.2975,159.51553 L42.603127,160.04187 L42.772655,160.16766 z M50.624374,162.37885 L46.346375,160.56512 L46.76229,159.63937 L53.86946,159.63937 L55.144314,161.78 z M69.32125,161.24937 L66.92736,162.58145 L64.81432,162.90582 L67.88648,158.34714 L73.122986,157.95862 z M53.86946,159.63937 L46.76229,159.63937 L46.082607,158.88295 L50.264885,154.53879 L52.379047,156.66756 z M101.90316,161.99962 L98.7214,160.93732 L99.56563,158.43187 L101.87125,158.43187 L103.482864,161.77986 z M125.659874,170.94963 L105.66875,162.13052 L105.66875,157.29146 L106.14344,156.82187 L106.618126,156.82187 z M101.87125,158.43187 L99.56563,158.43187 L92.98329,153.5482 L93.82869,153.32013 L101.87125,156.99216 z M42.603127,158.70021 L40.2975,156.41937 L39.52961,154.14047 L45.346363,154.26378 L44.501877,156.3523 z M105.66875,157.29146 L102.51547,156.77156 L103.79713,154.86975 L105.73179,154.98936 L106.14344,156.82187 z M65.242325,156.95268 L61.711823,157.9052 L61.658436,157.07344 L67.60095,149.72516 L67.68622,149.69986 z M140.07492,164.42531 L108.24563,156.55354 L108.24563,155.21187 L123.807045,149.43909 L134.4917,155.9726 z M67.60095,149.72516 L61.658436,157.07344 L59.917915,155.04417 L66.47312,150.18062 L67.175186,149.78996 z M66.47312,150.18062 L58.878124,153.40062 L53.939327,149.73636 L54.760056,149.4488 L67.175186,149.78996 z M44.755436,150.42563 L41.405106,149.18275 L41.899883,148.26503 L45.364063,148.77907 L45.33921,148.98187 z M45.364063,148.77907 L41.899883,148.26503 L42.04381,146.55646 L46.86175,143.42868 L45.886185,148.13342 z M39.161892,146.59117 L36.36781,152.11925 L35.242558,153.05234 L21.939476,154.12906 L37.492203,146.43631 z M39.161892,146.59117 L37.492203,146.43631 L36.51577,144.62518 L38.816193,144.81483 L39.721893,146.32677 z M79.609795,147.34798 L71.01099,145.84686 L76.22473,143.7369 L80.34353,144.88286 L80.99348,147.29395 z M89.06519,147.45525 L83.11625,146.5725 L83.48415,143.5699 L87.92865,141.82416 L88.63145,144.34438 z M95.60759,144.80438 L89.30976,147.77783 L89.06519,147.45525 L88.63145,144.34438 L95.75521,144.34438 z M95.75521,144.34438 L88.63145,144.34438 L87.92865,141.82416 L88.852486,139.45631 L97.56618,140.81737 z M57.403202,145.52672 L54.42019,144.05125 L55.50257,143.04742 L56.325184,142.97115 L60.586422,143.32242 z M80.34353,144.88286 L76.22473,143.7369 L77.66458,142.59232 L79.96012,142.06009 L82.0175,143.43388 z M79.96012,142.06009 L77.66458,142.59232 L76.9705,140.0175 L79.832184,140.0175 L80.53639,141.06245 z M79.832184,140.0175 L76.9705,140.0175 L75.42848,138.5874 L79.19621,137.46924 L80.03232,138.53267 z M53.091457,138.9777 L47.62125,138.166 L50.758316,137.235 L54.911095,137.57735 L54.945,137.6025 z M129.38303,135.61609 L123.72672,142.96017 L123.51104,138.3195 L124.385,136.46687 L128.63614,135.5657 z M79.19621,137.46924 L75.42848,138.5874 L74.62308,138.48347 L76.79317,134.18997 L80.54609,135.21582 z M137.14978,147.15608 L130.6063,135.82811 L137.03313,132.36026 L140.639,134.28102 L142.54747,136.36069 z M123.51104,138.3195 L118.788994,134.37813 L123.212814,128.6343 L124.385,133.20015 L124.385,136.46687 z M65.79704,138.811 L56.865166,134.3931 L54.476875,130.40619 L54.562782,130.38495 L67.37263,129.89755 z M137.03313,132.36026 L130.6063,135.82811 L129.57689,135.55855 L128.11469,129.04938 L135.27614,130.68425 z M43.15673,139.23407 L38.515,138.30687 L42.227074,125.454315 L43.964134,138.34218 L43.718906,138.74506 z M88.85125,130.55875 L84.61802,133.69954 L83.10075,130.01538 L82.15076,126.66743 L88.85125,126.41248 z M93.41729,130.55875 L88.85125,130.55875 L88.85125,126.41248 L94.490105,125.98339 L95.94426,128.098 z M157.25146,129.7873 L153.62088,131.13412 L153.49013,129.29088 L155.64656,127.69094 L157.58264,127.821526 z M152.27855,128.90562 L148.36285,130.15071 L147.89452,129.03879 L149.76366,127.453896 L150.70062,127.40042 z M108.48929,124.26713 L105.89068,128.7658 L100.89616,130.6186 L100.86643,130.59201 L104.19567,126.00472 z M150.70062,127.40042 L149.76366,127.453896 L147.95029,125.88426 L147.89745,125.335396 L151.78714,126.05688 z M154.50418,126.27832 L152.43896,125.621635 L152.14026,124.79057 L153.95125,124.11875 L155.78218,124.57156 z M108.48929,124.26713 L104.19567,126.00472 L101.09739,121.98195 L106.21125,122.311874 L109.48687,123.57986 z M153.95125,124.11875 L152.14026,124.79057 L147.87137,119.643814 L148.8195,111.55411 L165.31007,98.83621 z M140.79562,125.82133 L138.23326,125.89737 L137.81187,125.38375 L137.81187,119.79188 L140.79562,123.1125 z M121.16699,119.06006 L114.32501,124.13636 L114.29757,124.11495 L118.993904,118.307655 L120.807304,118.67459 z M73.60421,126.004295 L70.60447,119.32745 L71.12312,118.81438 L78.55256,124.32653 L78.4654,124.57307 z M118.993904,118.307655 L114.29757,124.11495 L114.12033,124.002235 L116.344376,117.95187 L118.04938,117.60687 z M120.807304,118.67459 L118.993904,118.307655 L118.04938,117.60687 L119.00765,114.99995 L122.30165,113.13106 z M97.34138,117.578125 L95.04479,117.578125 L93.60992,116.93938 L99.511375,116.209625 L98.48062,116.97437 z M72.32007,117.70111 L71.08437,115.8675 L71.265205,115.632706 L79.9953,116.92814 L79.55009,118.08427 z M110.98864,118.13408 L109.07565,117.5258 L108.63743,116.22528 L110.59646,115.49854 L111.03347,117.768196 z M113.073875,114.7405 L111.03347,117.768196 L110.59646,115.49854 L111.0184,112.994095 L112.31717,113.52408 z M110.59646,115.49854 L108.63743,116.22528 L103.80146,109.94632 L105.19406,108.67281 L111.0184,112.994095 z M71.08437,115.8675 L67.48062,117.20438 L66.075294,117.26954 L70.93368,113.66493 L71.265205,115.632706 z M116.99344,115.21344 L114.80673,116.186874 L113.073875,114.7405 L112.31717,113.52408 L114.416565,113.30156 z M61.878998,118.08023 L59.02752,117.17997 L60.7166,111.54063 L62.645485,111.54063 L62.919197,111.90616 z M47.8925,118.5462 L39.46122,121.9975 L25.970894,119.47097 L44.526947,110.00588 L47.8925,112.0035 z M58.96854,110.131874 L57.793125,112.74812 L55.183514,115.97507 L55.943695,112.30904 L58.89408,110.12003 z M58.89408,110.12003 L55.943695,112.30904 L55.809124,111.31062 L57.188976,109.604355 L57.8094,109.681076 z M55.809124,111.31062 L53.6006,109.2624 L53.771477,108.954506 L56.979374,109.483406 L57.188976,109.604355 z M47.8925,112.0035 L44.526947,110.00588 L45.01355,108.862625 L45.186165,108.72541 L49.695515,110.39823 z M49.695515,110.39823 L45.186165,108.72541 L48.16897,104.963234 L48.554085,104.72512 L49.814335,110.335266 z M131.70876,110.52 L123.49001,110.81037 L123.40355,110.679695 L125.08824,109.16662 L131.70876,106.710625 z M45.01355,108.862625 L38.873436,106.58485 L39.551563,106.33328 L48.16897,104.963234 L45.186165,108.72541 z M80.93599,105.57077 L71.87113,106.91588 L67.06307,102.113785 L70.09482,100.80916 L80.42313,104.640625 z M91.99775,105.94588 L86.60777,110.44476 L85.33176,108.152695 L86.72827,102.55761 L88.54125,100.81687 z M116.16621,105.39474 L105.26985,108.50412 L104.361145,107.25203 L106.7068,101.33493 L119.14639,97.379486 z M80.78156,102.38375 L78.68671,99.27525 L81.38483,98.92199 L82.328125,99.85514 L82.6255,101.28928 z M86.72827,102.55761 L82.6255,101.28928 L82.328125,99.85514 L90.1504,99.026054 L88.54125,100.81687 z M81.38483,98.92199 L78.68671,99.27525 L73.95019,98.74812 L75.15312,97.85562 L83.66451,95.750656 z M83.66451,95.750656 L75.15312,97.85562 L79.53133,93.163574 L83.78737,91.716286 L86.25943,93.41284 z M105.44271,96.51396 L103.2275,95.692184 L103.60307,95.34387 L106.71247,94.95937 L107.22844,95.189064 z M76.70084,92.88357 L72.524086,95.98245 L71.574684,93.02399 L72.838455,92.01938 L74.565414,92.01938 z M65.44902,94.97241 L63.38597,97.880646 L62.404373,95.9689 L62.404373,91.29178 L63.760624,91.21438 z M65.44902,94.97241 L63.760624,91.21438 L66.65084,90.49959 L67.375854,90.86764 L68.025116,92.192345 z M71.574684,93.02399 L68.025116,92.192345 L67.375854,90.86764 L72.45777,87.782715 L72.838455,92.01938 z M72.45777,87.782715 L67.375854,90.86764 L66.65084,90.49959 L59.38802,77.413124 L74.27518,84.546555 z M94.61531,87.13906 L90.88563,87.53438 L90.44793,87.07046 L98.996,82.84238 L98.84507,83.430275 z M98.996,82.84238 L90.44793,87.07046 L87.14179,85.1081 L94.80344,82.13053 L99.44043,81.523415 z M85.144165,173.52562 L69.41038,173.52562 L69.47339,173.45125 L76.39313,168.63812 L89.76187,170.62187 L91.15426,172.91757 z M89.76187,170.62187 L76.39313,168.63812 L77.66312,167.26758 L78.56545,166.84915 L87.97938,169.75937 L89.75997,170.61809 z M89.6887,169.40195 L87.47301,165.45659 L89.80063,156.82187 L90.418274,155.52348 L93.847466,160.07634 L93.75106,161.11342 z M46.346375,160.56512 L44.307392,160.37602 L43.880627,160.14575 L44.501877,159.55313 L46.082607,158.88295 L46.76229,159.63937 z M105.66875,162.13052 L103.482864,161.77986 L101.87125,158.43187 L101.87125,156.99216 L102.51547,156.77156 L105.66875,157.29146 z M73.122986,157.95862 L67.88648,158.34714 L66.75699,157.74857 L66.53572,157.37918 L71.78,153.48827 L74.99069,157.01381 z M108.24563,156.55354 L106.618126,156.82187 L106.14344,156.82187 L105.73179,154.98936 L106.10716,154.68301 L108.24563,155.21187 z M102.51547,156.77156 L101.87125,156.99216 L93.82869,153.32013 L97.8025,151.35458 L103.580124,154.68863 L103.79713,154.86975 z M105.73179,154.98936 L103.79713,154.86975 L103.580124,154.68863 L105.044876,152.51512 L106.957184,152.63336 L106.10716,154.68301 z M105.044876,152.51512 L98.11074,151.11203 L98.766045,150.27223 L109.43461,143.48763 L117.20526,146.9308 L106.957184,152.63336 z M50.151924,154.3748 L46.50499,154.06018 L44.755436,150.42563 L45.33921,148.98187 L51.554375,151.2875 L52.06297,151.53906 z M81.12063,151.38812 L78.48563,149.43312 L79.609795,147.34798 L80.99348,147.29395 L81.089325,147.32442 L82.871956,151.82124 z M78.48563,149.43312 L69.82198,150.50444 L68.47987,149.37411 L69.12203,146.13434 L71.01099,145.84686 L79.609795,147.34798 z M41.405106,149.18275 L36.36781,152.11925 L39.161892,146.59117 L39.721893,146.32677 L42.04381,146.55646 L41.899883,148.26503 z M98.766045,150.27223 L95.60759,144.80438 L95.75521,144.34438 L97.56618,140.81737 L105.58316,139.13638 L109.43461,143.48763 z M54.760056,149.4488 L53.939327,149.73636 L53.79324,149.76157 L49.10823,144.44536 L54.42019,144.05125 L57.403202,145.52672 z M83.11625,146.5725 L81.089325,147.32442 L80.99348,147.29395 L80.34353,144.88286 L82.0175,143.43388 L83.48415,143.5699 z M42.04381,146.55646 L39.721893,146.32677 L38.816193,144.81483 L43.313236,139.47641 L46.94974,143.33076 L46.86175,143.42868 z M38.816193,144.81483 L36.51577,144.62518 L20.903126,138.30687 L38.515,138.30687 L43.15673,139.23407 L43.313236,139.47641 z M54.42019,144.05125 L49.10823,144.44536 L47.72123,143.49252 L51.37415,141.7808 L53.633957,141.66104 L55.50257,143.04742 z M56.325184,142.97115 L55.080624,141.12437 L58.902508,138.91891 L65.74669,139.53442 L65.89928,141.18729 L60.586422,143.32242 z M58.902508,138.91891 L55.118828,137.63226 L56.865166,134.3931 L65.79704,138.811 L65.768715,139.49416 L65.74669,139.53442 z M46.758087,127.4581 L44.41932,137.86937 L43.964134,138.34218 L42.227074,125.454315 L42.30942,124.72115 L44.871876,126.09647 z M80.54609,135.21582 L76.79317,134.18997 L75.90699,133.57358 L83.10075,130.01538 L84.61802,133.69954 L84.701126,133.95987 z M93.27756,130.71426 L87.539406,135.53925 L84.701126,133.95987 L84.61802,133.69954 L88.85125,130.55875 L93.41729,130.55875 z M135.27614,130.68425 L128.11469,129.04938 L124.43165,127.44982 L127.52284,123.20267 L137.81187,125.38375 L138.23326,125.89737 z M151.78714,126.05688 L147.89745,125.335396 L146.55084,122.33813 L147.87137,119.643814 L152.14026,124.79057 L152.43896,125.621635 z M137.81187,125.38375 L127.52284,123.20267 L128.08932,121.456825 L130.42197,118.55177 L137.49019,117.16653 L137.81187,119.79188 z M106.21125,122.311874 L101.09739,121.98195 L100.78625,121.905 L101.51862,119.188126 L105.485725,118.13693 L106.21125,121.905 z M107.20583,119.69125 L106.21125,121.905 L105.485725,118.13693 L105.83608,117.89699 L105.947975,117.91255 L106.734375,118.64188 z M78.55256,124.32653 L71.12312,118.81438 L71.65701,117.8241 L72.32007,117.70111 L79.55009,118.08427 L79.35415,122.2275 z M100.78625,121.905 L95.36125,123.9175 L98.48062,116.97437 L99.511375,116.209625 L99.66706,116.13537 L101.51862,119.188126 z M98.48062,116.97437 L95.36125,123.9175 L95.2013,123.985825 L94.59312,123.17836 L96.08869,118.73988 L97.34138,117.578125 z M70.60447,119.32745 L64.73575,117.58577 L66.075294,117.26954 L67.48062,117.20438 L71.65701,117.8241 L71.12312,118.81438 z M96.08869,118.73988 L94.59312,123.17836 L91.58261,120.41295 L90.496864,116.51943 L93.60992,116.93938 L95.04479,117.578125 z M116.344376,117.95187 L114.12033,124.002235 L112.928185,123.51085 L111.69335,120.533325 L111.347855,118.48259 L114.707756,116.73761 z M128.08932,121.456825 L121.16699,119.06006 L120.807304,118.67459 L122.30165,113.13106 L123.65023,111.91985 L130.42197,118.55177 z M105.485725,118.13693 L101.51862,119.188126 L99.66706,116.13537 L100.7763,111.36206 L103.71063,110.01227 L105.83608,117.89699 z M118.04938,117.60687 L116.344376,117.95187 L114.707756,116.73761 L114.80673,116.186874 L116.99344,115.21344 L119.00765,114.99995 z M109.07565,117.5258 L105.947975,117.91255 L105.83608,117.89699 L103.71063,110.01227 L103.80146,109.94632 L108.63743,116.22528 z M114.707756,116.73761 L111.347855,118.48259 L110.98864,118.13408 L111.03347,117.768196 L113.073875,114.7405 L114.80673,116.186874 z M99.511375,116.209625 L93.60992,116.93938 L90.496864,116.51943 L87.02017,111.815674 L100.7763,111.36206 L99.66706,116.13537 z M79.9953,116.92814 L71.265205,115.632706 L70.93368,113.66493 L71.97441,111.50289 L73.38801,110.803696 L81.5141,113.976875 z M137.49019,117.16653 L130.42197,118.55177 L123.65023,111.91985 L123.49001,110.81037 L131.70876,110.52 L147.07198,112.14836 z M66.01588,113.74575 L63.469955,117.75968 L62.33806,118.28755 L61.878998,118.08023 L62.919197,111.90616 L65.07348,112.17255 z M60.7166,111.54063 L59.02752,117.17997 L54.984516,116.506584 L55.183514,115.97507 L57.793125,112.74812 L60.14961,110.99976 z M65.07348,112.17255 L62.919197,111.90616 L62.645485,111.54063 L64.23079,108.89419 L64.93193,109.67449 L65.46827,111.00091 z M62.645485,111.54063 L60.7166,111.54063 L60.14961,110.99976 L59.617897,110.131874 L63.694416,106.80491 L64.23079,108.89419 z M57.8094,109.681076 L57.188976,109.604355 L56.979374,109.483406 L56.979374,101.381874 L57.876358,101.27578 L60.62228,101.33317 z M48.16897,104.963234 L39.551563,106.33328 L46.66906,98.41219 L47.741875,98.90094 L51.547905,101.494255 L48.554085,104.72512 z M91.99775,105.94588 L88.54125,100.81687 L90.1504,99.026054 L92.62813,97.02788 L95.60675,98.76762 L97.3009,102.24272 z M80.578125,102.68562 L72.10407,99.54202 L72.69047,99.06857 L73.95019,98.74812 L78.68671,99.27525 L80.78156,102.38375 z M106.7068,101.33493 L104.361145,107.25203 L102.248886,105.58989 L104.068375,100.190125 L105.1964,99.63218 L106.51332,100.330086 z M104.068375,100.190125 L102.248886,105.58989 L97.3009,102.24272 L95.60675,98.76762 L99.70125,97.755 L101.14792,98.02333 z M119.14639,97.379486 L106.7068,101.33493 L106.51332,100.330086 L107.10412,99.54109 L118.17755,96.02005 L119.873795,95.948135 z M106.51332,100.330086 L105.1964,99.63218 L104.207016,98.34757 L105.9061,97.71726 L106.306984,97.76684 L107.10412,99.54109 z M112.68346,95.874466 L106.306984,97.76684 L105.9061,97.71726 L105.44271,96.51396 L107.22844,95.189064 L111.61232,95.65372 z M79.53133,93.163574 L75.15312,97.85562 L73.95019,98.74812 L72.69047,99.06857 L72.524086,95.98245 L76.70084,92.88357 z M107.22844,95.189064 L106.71247,94.95937 L105.89479,93.897705 L106.4825,93.02563 L110.14438,94.836876 L111.61232,95.65372 z M103.49875,93.3275 L101.3916,93.104164 L101.373955,93.092705 L103.977005,91.161415 L104.659096,91.296364 L103.837814,93.3275 z M76.70084,92.88357 L74.565414,92.01938 L80.62803,85.27227 L81.01608,85.54793 L83.78737,91.716286 L79.53133,93.163574 z M80.62803,85.27227 L74.565414,92.01938 L72.838455,92.01938 L72.45777,87.782715 L74.27518,84.546555 L80.42959,85.09765 z M103.977005,91.161415 L99.63743,89.67541 L99.675964,89.38948 L106.86131,88.50097 L106.21125,90.9125 L104.659096,91.296364 z M106.86131,88.50097 L99.675964,89.38948 L98.84507,83.430275 L98.996,82.84238 L99.44043,81.523415 L124.70959,60.69221 z M77.66312,167.26758 L74.09024,164.08656 L74.83667,163.29541 L75.449036,162.84108 L78.58394,165.63216 L78.68368,166.5202 L78.56545,166.84915 z M98.46192,165.1911 L94.85427,175.00545 L91.15426,172.91757 L89.76187,170.62187 L89.75997,170.61809 L89.6887,169.40195 L93.75106,161.11342 z M74.83667,163.29541 L69.32125,161.24937 L73.122986,157.95862 L74.99069,157.01381 L78.35454,158.18204 L78.38996,158.8128 L75.449036,162.84108 z M99.56563,158.43187 L98.7214,160.93732 L93.847466,160.07634 L90.418274,155.52348 L90.08549,154.55487 L90.81143,153.9852 L92.98329,153.5482 z M43.880627,160.14575 L42.92268,160.18523 L42.772655,160.16766 L42.603127,160.04187 L42.603127,158.70021 L44.501877,156.3523 L44.501877,159.55313 z M46.082607,158.88295 L44.501877,159.55313 L44.501877,156.3523 L45.346363,154.26378 L46.50499,154.06018 L50.151924,154.3748 L50.264885,154.53879 z M66.75699,157.74857 L60.26386,164.17188 L59.121544,164.55931 L58.528378,163.80997 L61.711823,157.9052 L65.242325,156.95268 L66.53572,157.37918 z M71.78,153.48827 L66.53572,157.37918 L65.242325,156.95268 L67.68622,149.69986 L68.47987,149.37411 L69.82198,150.50444 L69.94844,150.63458 z M108.24563,155.21187 L106.10716,154.68301 L106.957184,152.63336 L117.20526,146.9308 L118.01063,147.1413 L123.05642,148.92804 L123.807045,149.43909 z M78.35454,158.18204 L74.99069,157.01381 L71.78,153.48827 L69.94844,150.63458 L81.12063,151.38812 L82.871956,151.82124 L86.42617,154.72194 z M45.346363,154.26378 L39.52961,154.14047 L35.242558,153.05234 L36.36781,152.11925 L41.405106,149.18275 L44.755436,150.42563 L46.50499,154.06018 z M152.78777,135.62167 L142.12927,167.25333 L140.07492,164.42531 L134.4917,155.9726 L137.14978,147.15608 L142.54747,136.36069 L147.62766,135.33273 z M55.080624,141.12437 L53.633957,141.66104 L51.37415,141.7808 L53.091457,138.9777 L54.945,137.6025 L55.118828,137.63226 L58.902508,138.91891 z M123.05642,148.92804 L118.01063,147.1413 L118.01063,134.73174 L118.04453,134.70953 L118.788994,134.37813 L123.51104,138.3195 L123.72672,142.96017 z M117.20526,146.9308 L109.43461,143.48763 L105.58316,139.13638 L105.62476,137.90158 L107.63236,136.54349 L118.01063,134.73174 L118.01063,147.1413 z M50.758316,137.235 L47.62125,138.166 L43.718906,138.74506 L43.964134,138.34218 L44.41932,137.86937 L51.64528,132.12523 L51.93955,132.853 z M76.79317,134.18997 L74.62308,138.48347 L65.768715,139.49416 L65.79704,138.811 L67.37263,129.89755 L67.80957,129.46301 L75.90699,133.57358 z M103.05866,134.98625 L94.71703,134.98625 L93.27756,130.71426 L93.41729,130.55875 L95.94426,128.098 L100.86643,130.59201 L100.89616,130.6186 z M118.04453,134.70953 L112.61028,130.67767 L114.107796,128.29683 L116.407974,126.33742 L123.445045,127.7297 L123.212814,128.6343 L118.788994,134.37813 z M83.10075,130.01538 L75.90699,133.57358 L67.80957,129.46301 L68.58784,127.89571 L73.60421,126.004295 L78.4654,124.57307 L82.15076,126.66743 z M152.78777,135.62167 L147.62766,135.33273 L148.36285,130.15071 L152.27855,128.90562 L153.49013,129.29088 L153.62088,131.13412 L153.32039,135.59294 z M112.61028,130.67767 L107.63236,136.54349 L105.62476,137.90158 L103.05866,134.98625 L100.89616,130.6186 L105.89068,128.7658 L114.107796,128.29683 z M153.49013,129.29088 L152.27855,128.90562 L150.70062,127.40042 L151.78714,126.05688 L152.43896,125.621635 L154.50418,126.27832 L155.64656,127.69094 z M67.37263,129.89755 L54.562782,130.38495 L56.481342,124.691154 L60.04961,123.60104 L63.729626,122.980515 L68.58784,127.89571 L67.80957,129.46301 z M54.476875,130.40619 L52.116226,130.59656 L46.758087,127.4581 L44.871876,126.09647 L55.713543,124.48771 L56.481342,124.691154 L54.562782,130.38495 z M55.713543,124.48771 L44.871876,126.09647 L42.30942,124.72115 L39.46122,121.9975 L47.8925,118.5462 L49.086,118.363 L53.54354,121.67021 z M123.445045,127.7297 L116.407974,126.33742 L114.32501,124.13636 L121.16699,119.06006 L128.08932,121.456825 L127.52284,123.20267 L124.43165,127.44982 z M109.48687,123.57986 L106.21125,122.311874 L106.21125,121.905 L107.20583,119.69125 L108.855934,119.69125 L111.69335,120.533325 L112.928185,123.51085 z M73.60421,126.004295 L68.58784,127.89571 L63.729626,122.980515 L62.33806,118.28755 L63.469955,117.75968 L64.73575,117.58577 L70.60447,119.32745 z M108.855934,119.69125 L106.734375,118.64188 L105.947975,117.91255 L109.07565,117.5258 L110.98864,118.13408 L111.347855,118.48259 L111.69335,120.533325 z M54.89819,116.514885 L49.086,118.363 L47.8925,118.5462 L47.8925,112.0035 L49.695515,110.39823 L49.814335,110.335266 L52.02209,110.540016 z M121.96924,109.93941 L114.416565,113.30156 L112.31717,113.52408 L111.0184,112.994095 L105.19406,108.67281 L105.26985,108.50412 L116.16621,105.39474 z M54.89819,116.514885 L52.02209,110.540016 L53.6006,109.2624 L55.809124,111.31062 L55.943695,112.30904 L55.183514,115.97507 L54.984516,116.506584 z M52.02209,110.540016 L49.814335,110.335266 L48.554085,104.72512 L51.547905,101.494255 L52.735943,101.65565 L53.771477,108.954506 L53.6006,109.2624 z M81.5141,113.976875 L73.38801,110.803696 L71.87113,106.91588 L80.93599,105.57077 L85.33176,108.152695 L86.60777,110.44476 L86.68709,111.70008 z M85.33176,108.152695 L80.93599,105.57077 L80.42313,104.640625 L80.578125,102.68562 L80.78156,102.38375 L82.6255,101.28928 L86.72827,102.55761 z M105.9061,97.71726 L104.207016,98.34757 L101.14792,98.02333 L99.70125,97.755 L101.73563,96.24563 L103.2275,95.692184 L105.44271,96.51396 z M56.979374,101.381874 L52.735943,101.65565 L51.547905,101.494255 L47.741875,98.90094 L53.629436,93.440704 L56.093727,92.678894 L57.876358,101.27578 z M103.2275,95.692184 L101.73563,96.24563 L101.73563,94.63563 L103.49875,93.3275 L103.837814,93.3275 L104.093414,93.70678 L103.60307,95.34387 z M63.760624,91.21438 L62.404373,91.29178 L61.297234,90.65991 L56.979374,87.18938 L51.06154,72.02167 L59.38802,77.413124 L66.65084,90.49959 z M97.76859,91.75523 L91.61726,95.090385 L91.17093,94.805595 L94.61531,87.13906 L98.84507,83.430275 L99.675964,89.38948 L99.63743,89.67541 z M90.88563,94.684074 L86.25943,93.41284 L83.78737,91.716286 L81.01608,85.54793 L87.14179,85.1081 L90.44793,87.07046 L90.88563,87.53438 z M94.80344,82.13053 L87.14179,85.1081 L81.01608,85.54793 L80.62803,85.27227 L80.42959,85.09765 L82.381325,80.85 L90.316,80.85 z M61.711823,157.9052 L58.528378,163.80997 L55.144314,161.78 L53.86946,159.63937 L52.379047,156.66756 L58.878124,154.65843 L59.917915,155.04417 L61.658436,157.07344 z M58.878124,154.65843 L52.379047,156.66756 L50.264885,154.53879 L50.151924,154.3748 L52.06297,151.53906 L53.79324,149.76157 L53.939327,149.73636 L58.878124,153.40062 z M51.554375,151.2875 L45.886185,148.13342 L46.86175,143.42868 L46.94974,143.33076 L47.72123,143.49252 L49.10823,144.44536 L53.79324,149.76157 L52.06297,151.53906 z M86.42617,154.72194 L82.871956,151.82124 L81.089325,147.32442 L83.11625,146.5725 L89.06519,147.45525 L89.30976,147.77783 L90.81143,153.9852 L90.08549,154.55487 z M97.8025,151.35458 L93.82869,153.32013 L92.98329,153.5482 L90.81143,153.9852 L89.30976,147.77783 L95.60759,144.80438 L98.766045,150.27223 L98.11074,151.11203 z M83.48415,143.5699 L82.0175,143.43388 L79.96012,142.06009 L80.53639,141.06245 L85.887596,139.61873 L88.80097,139.39119 L88.852486,139.45631 L87.92865,141.82416 z M51.37415,141.7808 L47.72123,143.49252 L46.94974,143.33076 L43.313236,139.47641 L43.15673,139.23407 L43.718906,138.74506 L47.62125,138.166 L53.091457,138.9777 z M85.887596,139.61873 L80.03232,138.53267 L79.19621,137.46924 L80.54609,135.21582 L84.701126,133.95987 L87.539406,135.53925 L88.148315,136.48581 L88.80097,139.39119 z M134.4917,155.9726 L123.807045,149.43909 L123.05642,148.92804 L123.72672,142.96017 L129.38303,135.61609 L129.57689,135.55855 L130.6063,135.82811 L137.14978,147.15608 z M97.56618,140.81737 L88.852486,139.45631 L88.80097,139.39119 L88.148315,136.48581 L94.71703,134.98625 L103.05866,134.98625 L105.62476,137.90158 L105.58316,139.13638 z M56.865166,134.3931 L55.118828,137.63226 L54.945,137.6025 L54.911095,137.57735 L51.93955,132.853 L51.64528,132.12523 L52.116226,130.59656 L54.476875,130.40619 z M128.63614,135.5657 L124.385,133.20015 L123.212814,128.6343 L123.445045,127.7297 L124.43165,127.44982 L128.11469,129.04938 L129.57689,135.55855 L129.38303,135.61609 z M147.62766,135.33273 L142.54747,136.36069 L140.639,134.28102 L141.69823,132.14793 L145.85196,128.03888 L145.875,128.03989 L147.89452,129.03879 L148.36285,130.15071 z M141.69823,132.14793 L140.639,134.28102 L137.03313,132.36026 L135.27614,130.68425 L138.23326,125.89737 L140.79562,125.82133 L142.41464,125.91742 L142.45442,125.97644 z M147.95029,125.88426 L145.875,128.03989 L145.85196,128.03888 L142.45442,125.97644 L142.41464,125.91742 L145.56511,123.1125 L146.55084,122.33813 L147.89745,125.335396 z M104.19567,126.00472 L100.86643,130.59201 L95.94426,128.098 L94.490105,125.98339 L95.2013,123.985825 L95.36125,123.9175 L100.78625,121.905 L101.09739,121.98195 z M145.56511,123.1125 L140.79562,123.1125 L137.81187,119.79188 L137.49019,117.16653 L147.07198,112.14836 L148.8195,111.55411 L147.87137,119.643814 L146.55084,122.33813 z M91.58261,120.41295 L79.35415,122.2275 L79.55009,118.08427 L79.9953,116.92814 L81.5141,113.976875 L86.68709,111.70008 L87.02017,111.815674 L90.496864,116.51943 z M70.93368,113.66493 L66.075294,117.26954 L64.73575,117.58577 L63.469955,117.75968 L66.01588,113.74575 L69.27887,112.1318 L71.36834,111.58465 L71.97441,111.50289 z M116.99344,115.21344 L114.416565,113.30156 L121.96924,109.93941 L123.40355,110.679695 L123.49001,110.81037 L123.65023,111.91985 L122.30165,113.13106 L119.00765,114.99995 z M58.89408,110.12003 L57.8094,109.681076 L60.62228,101.33317 L63.15682,101.28094 L64.91179,101.98777 L63.694416,106.80491 L59.617897,110.131874 L58.96854,110.131874 z M60.62228,101.33317 L57.876358,101.27578 L56.093727,92.678894 L56.72917,91.83027 L59.93919,93.68265 L62.404373,95.9689 L63.38597,97.880646 L63.15682,101.28094 z M105.89479,93.897705 L104.093414,93.70678 L103.837814,93.3275 L104.659096,91.296364 L106.21125,90.9125 L106.312965,90.98797 L106.4825,92.12 L106.4825,93.02563 z M110.14438,94.836876 L106.4825,92.12 L106.312965,90.98797 L120.87306,95.14283 L119.873795,95.948135 L118.17755,96.02005 L112.68346,95.874466 L111.61232,95.65372 z M49.402065,172.935 L41.932693,175.35953 L42.708515,170.03516 L49.83912,162.62852 L50.624374,162.37885 L55.144314,161.78 L58.528378,163.80997 L59.121544,164.55931 L59.280247,169.21043 z M87.97938,169.75937 L81.76485,165.14859 L81.73847,165.07686 L83.14175,162.64754 L83.821335,162.86812 L85.7625,163.97598 L87.47301,165.45659 L89.6887,169.40195 L89.75997,170.61809 z M67.175186,149.78996 L54.760056,149.4488 L57.403202,145.52672 L60.586422,143.32242 L65.89928,141.18729 L69.12203,146.13434 L68.47987,149.37411 L67.68622,149.69986 L67.60095,149.72516 z M114.107796,128.29683 L105.89068,128.7658 L108.48929,124.26713 L109.48687,123.57986 L112.928185,123.51085 L114.12033,124.002235 L114.29757,124.11495 L114.32501,124.13636 L116.407974,126.33742 z M88.85125,126.41248 L82.15076,126.66743 L78.4654,124.57307 L78.55256,124.32653 L79.35415,122.2275 L91.58261,120.41295 L94.59312,123.17836 L95.2013,123.985825 L94.490105,125.98339 z M60.04961,123.60104 L53.54354,121.67021 L49.086,118.363 L54.89819,116.514885 L54.984516,116.506584 L59.02752,117.17997 L61.878998,118.08023 L62.33806,118.28755 L63.729626,122.980515 z M71.36834,111.58465 L64.93193,109.67449 L64.23079,108.89419 L63.694416,106.80491 L64.91179,101.98777 L67.06307,102.113785 L71.87113,106.91588 L73.38801,110.803696 L71.97441,111.50289 z M125.08824,109.16662 L123.40355,110.679695 L121.96924,109.93941 L116.16621,105.39474 L119.14639,97.379486 L119.873795,95.948135 L120.87306,95.14283 L125.47,92.35668 L125.47,108.47875 z M90.1504,99.026054 L82.328125,99.85514 L81.38483,98.92199 L83.66451,95.750656 L86.25943,93.41284 L90.88563,94.684074 L91.17093,94.805595 L91.61726,95.090385 L92.62813,97.02788 z M101.73563,96.24563 L99.70125,97.755 L95.60675,98.76762 L92.62813,97.02788 L91.61726,95.090385 L97.76859,91.75523 L101.373955,93.092705 L101.3916,93.104164 L101.73563,94.63563 z M73.02436,164.66927 L69.47339,173.45125 L69.41038,173.52562 L69.18699,173.62071 L61.220207,170.30707 L59.280247,169.21043 L59.121544,164.55931 L60.26386,164.17188 L64.81432,162.90582 L66.92736,162.58145 z M86.907295,160.57854 L83.821335,162.86812 L83.14175,162.64754 L78.48791,158.92908 L78.38996,158.8128 L78.35454,158.18204 L86.42617,154.72194 L90.08549,154.55487 L90.418274,155.52348 L89.80063,156.82187 z M76.22473,143.7369 L71.01099,145.84686 L69.12203,146.13434 L65.89928,141.18729 L65.74669,139.53442 L65.768715,139.49416 L74.62308,138.48347 L75.42848,138.5874 L76.9705,140.0175 L77.66458,142.59232 z M70.09482,100.80916 L67.06307,102.113785 L64.91179,101.98777 L63.15682,101.28094 L63.38597,97.880646 L65.44902,94.97241 L68.025116,92.192345 L71.574684,93.02399 L72.524086,95.98245 L72.69047,99.06857 L72.10407,99.54202 z M100.7763,111.36206 L87.02017,111.815674 L86.68709,111.70008 L86.60777,110.44476 L91.99775,105.94588 L97.3009,102.24272 L102.248886,105.58989 L104.361145,107.25203 L105.26985,108.50412 L105.19406,108.67281 L103.80146,109.94632 L103.71063,110.01227 z" fill="none" stroke="white" stroke-width="0.6"/>
</g>
<path d="m 15.815664,12.893319 c -1.445284,-3.0999497 -5.555449,-0.3575 -5.08537,2.32203 1.697826,2.92736 4.504013,-3.54417 4.40859,-2.58178 -1.548999,2.22986 0.741131,6.08701 3.012419,3.25791 2.532153,-2.82358 0.259001,-7.8326797 -3.488671,-7.9011197 -3.217272,0.056 -5.8863857,2.4603197 -7.9308737,4.7238797 -2.354585,2.46752 0.0048,5.887 2.757763,6.62143 3.2195457,1.10867 6.8759417,1.30834 9.9459317,-0.36585 2.270396,-1.12373 5.025949,-2.62031 5.680576,-5.20027 -2.108811,-3.66096 -6.038415,1.28356 -3.842036,3.67822 1.07278,0.89979 4.586982,-2.27037 3.201668,-2.73503 0.03094,3.24357 1.226854,6.37852 1.337023,9.60311 -0.672198,3.54892 -7.469251,0.32096 -4.637082,-2.5164 2.158436,-2.4193 5.610472,-2.84094 8.202925,-4.57369 0.993877,-1.40371 0.353413,-5.25046 3.182464,-3.48957 2.142923,1.43516 -2.250898,5.7532 1.723416,5.02339 1.661189,-0.71663 6.494946,-1.40457 4.601401,-3.95236 -4.205319,-0.68052 -1.190571,5.86505 1.665411,3.46881 1.929752,-0.9247 2.778055,-4.05119 1.423645,-5.35034 0.479155,1.8589 3.849911,7.52574 4.880369,3.32696 0.21201,-1.28088 0.40468,-3.80204 1.01246,-1.23041 0.5858,2.6865 3.83412,4.91909 4.56937,1.07383 0.65272,-1.00894 -0.2696,-4.02739 0.99929,-1.35746 1.10974,2.31613 6.32001,1.46113 6.147,-1.13059 -1.98394,-2.13868 -5.3717,1.45205 -3.78252,3.73454 2.57741,0.96208 6.69797,-0.21041 7.06275,-3.33983 0.41287,-2.63769 0.26643,-5.3430297 -0.11178,-7.9756197 0.67418,3.94149 1.24889,7.9380497 2.39963,11.7713397 2.10586,1.67977 5.7434,1.65022 7.74596,-0.23639 3.03149,-1.85431 -0.26637,-4.76925 -2.71777,-4.54025 -2.11577,0.0793 -5.36257,2.40772 -5.16868,3.85604 2.08262,-2.38818 5.55759,-1.22628 8.30726,-1.6832 3.182,-0.26596 6.46546,-0.57372 9.54494,-1.18158 0.24171,0.4199 -0.27752,0.54338 -0.43067,0.17453" fill="none" stroke="white" stroke-width="1" transform="translate(260,190) scale(0.3)"/>
</svg>