<svg height="210mm" style="background:black" viewBox="0 0 297 210" width="297mm" xmlns="http://www.w3.org/2000/svg" xmlns:inkscape="http://www.inkscape.org/namespaces/inkscape">
<g inkscape:groupmode="layer" inkscape:label="gold">
<path d="M61.946877,100.33771 L54.21625,97.15125 L61.946877,97.15125 z M-17.137148,21.335968 L-11,22.294573 L-11,23.877897 z M155.3925,-28.02625 L147.68881,-10 L143.24437,-10 z M294.79697,-10 L299,-13.347808 L299,-10 z M5.225423,-10 L-11,-10 L-11,-16.937277 z M-11,204.76393 L-11,220 L-32.607,220 z M111.31438,157.62688 L102.26319,157.62688 L104.039536,155.44942 L105.960526,153.65466 z M120.13,145.25 L119.191055,145.59831 L118.82591,143.97284 L121.07938,143.13687 z M116.73937,145.55188 L111.89078,141.95453 L111.96857,141.97673 L116.73937,143.99937 z M118.25691,143.83853 L116.73937,143.99937 L111.96857,141.97673 L117.63062,142.67688 z M136.34688,139.60063 L134.82271,141.86229 L134.09938,139.71562 L134.16719,139.06157 z M252.73744,138.35185 L245.7541,141.0788 L243.42386,133.47165 L243.73506,133.10393 z M134.09938,133.67813 L130.59778,132.37915 L133.5264,131.75833 L134.93779,133.67813 z M115.555954,136.11984 L109.1293,133.08556 L110.63625,131.9675 L115.9904,135.93994 z M110.77187,131.66562 L104.86022,131.66562 L105.87945,129.52306 L108.63578,130.08078 z M112.60281,130.4078 L108.63578,130.08078 L105.87945,129.52306 L106.025,125.5275 z M135.78113,130.25688 L135.01485,130.25688 L133.57948,128.83694 L137.62563,126.835625 z M105.79734,123.53656 L97.736595,130.71323 L97.55632,128.97449 L103.96802,122.63174 z M96.64362,127.450874 L93.063126,129.22188 L94.38911,122.82723 L96.0119,122.29523 z M251.27937,124.219376 L249.245,130.25688 L249.245,125.125 L249.65187,124.219376 z M222.3743,124.78539 L219.57167,124.09227 L222.33908,121.52572 L222.99188,122.49438 z M158.105,123.31375 L144.78185,123.31375 L148.63147,120.61625 L149.76222,120.21885 z M78.30108,126.20806 L71.254166,127.91032 L67.71682,125.390816 L72.54182,116.441216 z M236.04417,118.95333 L234.19063,119.22838 L234.19063,116.61212 L234.81969,116.68214 z M89.65547,117.57203 L84.93888,118.27191 L88.77114,114.61625 L90.66862,114.941124 z M90.541145,112.66427 L88.48417,114.190414 L86.86618,112.689865 L89.854324,111.95087 z M128.8778,113.98917 L120.78768,117.99074 L119.72021,116.877 L124.33437,111.741875 z M95.99722,111.54063 L90.0755,111.54063 L89.967,110.73563 L96.37019,110.73563 z M96.410835,107.004036 L89.906494,110.62339 L88.10149,109.45159 L93.72803,105.69452 z M240.09354,108.445206 L236.01187,109.95937 L233.32901,107.7879 L239.97105,108.4039 z M44.18,107.415 L40.744167,108.68958 L39.64625,107.875 L40.11125,107.415 z M64.15179,111.19112 L56.805454,111.48574 L58.39479,104.41062 L61.386547,103.80525 z M71.04608,114.68745 L64.16731,111.1955 L68.15301,103.80269 L73.27678,110.983315 z M114.15207,107.94909 L110.02262,108.824455 L110.07469,108.418755 L112.559456,104.99505 z M108.43177,111.8408 L105.41469,102.88687 L110.07469,108.418755 L110.02262,108.824455 z M79.25453,108.10172 L74.618126,109.98813 L74.24158,106.35625 L75.81384,103.63438 z M133.5952,106.22719 L127.96068,100.37455 L144.25871,96.7188 L139.7573,104.980316 z M56.00591,103.87891 L50.103092,107.041885 L51.50375,99.7675 L52.63172,99.28928 z M107.24563,98.016624 L105.01398,97.02318 L106.16062,95.929375 L107.24563,96.38937 z M74.28415,96.7641 L68.00981,98.09415 L67.107124,94.4106 L76.63336,93.59508 z M87.33588,92.74387 L85.13958,99.26191 L82.18454,96.50366 L85.590836,91.449165 z M119.1225,90.47406 L115.60917,89.822395 L119.64562,88.325 L123.355515,90.16 z M119.64562,88.325 L115.60917,89.822395 L113.374176,89.94084 L118.5025,86.7701 z M100.40334,90.08737 L97.97227,85.2775 L100.3675,85.2775 L100.96989,88.40602 z M104.65848,83.47997 L100.96989,88.40602 L100.3675,85.2775 L102.460365,83.10362 z M119.180626,84.975624 L112.29088,79.86388 L112.77056,79.118195 L121.270615,84.16338 z M75.52428,81.0988 L70.04155,82.11575 L71.46323,80.85 L75.53886,80.85 z M79.578125,80.61521 L75.701294,80.295616 L74.59229,75.35875 L79.578125,78.133125 z M108.34528,75.48424 L105.57573,74.940315 L105.205826,72.83623 L110.77187,70.08312 z M101.394905,62.22147 L93.1099,56.54737 L100.447716,54.40269 L106.29695,60.18903 z M134.01875,57.590847 L113.81488,49.158985 L117.14788,46.87633 L124.17073,46.22502 z M111.85687,34.059376 L107.09231,32.291874 L107.60189,31.031614 L109.719955,29.303003 z M104.82472,31.533688 L100.55003,30.627533 L104.832924,30.097927 L105.35921,31.269318 z M102.26319,157.62688 L96.32831,164.06247 L97.74365,151.4613 L98.5018,151.34077 L104.039536,155.44942 z M104.039536,155.44942 L98.5018,151.34077 L101.205795,149.93645 L106.429955,153.03723 L105.960526,153.65466 z M96.415,151.20125 L91.26448,147.3799 L94.664314,146.97305 L96.58724,147.11572 L97.0778,151.1193 z M130.16003,147.73055 L120.13,145.25 L121.07938,143.13687 L125.27135,140.87492 L125.62111,141.28821 z M118.62263,143.95912 L116.875,145.90407 L116.73937,145.55188 L116.73937,143.99937 L118.25691,143.83853 z M117.63062,142.67688 L111.96857,141.97673 L111.89078,141.95453 L110.655624,141.52687 L119.180626,141.52687 z M136.69766,151.59996 L134.82271,141.86229 L136.34688,139.60063 L142.74957,138.41302 L141.7862,154.85258 z M245.75005,141.08568 L240.565,145.41351 L240.565,134.86362 L243.42386,133.47165 L245.7541,141.0788 z M85.354645,143.83714 L83.42083,136.66333 L84.605446,133.1477 L87.20703,134.91707 L91.39178,138.79808 z M83.42083,136.66333 L50.509167,161.08167 L72.63524,140.18843 L84.12802,132.66469 L84.605446,133.1477 z M132.75491,137.41437 L129.68454,133.99734 L130.30188,134.08063 L134.85887,136.61638 L133.82813,137.30063 z M134.85887,136.61638 L130.30188,134.08063 L134.09938,133.67813 L134.93779,133.67813 L137.85294,135.26422 z M232.73174,133.85217 L192.09113,154.95908 L191.42201,150.46107 L225.64986,129.2987 L230.0304,127.83949 z M134.09938,133.67813 L130.30188,134.08063 L129.68454,133.99734 L125.489525,132.80026 L130.59778,132.37915 z M236.42746,135.73729 L232.73174,133.85217 L230.0304,127.83949 L232.46742,126.15752 L233.84079,126.141594 z M93.284225,131.5354 L87.20703,134.91707 L84.605446,133.1477 L84.12802,132.66469 L84.10461,132.50836 z M110.77187,131.66562 L108.63578,130.08078 L112.60281,130.4078 L114.29813,130.65938 L110.82273,131.69078 z M91.6011,129.43011 L83.692085,131.38611 L81.289085,128.41466 L80.71499,126.96645 L88.19358,125.81847 z M118.492065,133.30658 L114.74569,130.65938 L112.02667,123.93493 L112.1443,123.90458 L118.99568,126.954544 z M249.10938,131.06187 L244.15933,131.7964 L244.0063,131.60297 L249.245,125.125 L249.245,130.25688 z M126.48296,124.17701 L118.99568,126.954544 L112.1443,123.90458 L120.8623,118.68829 L126.697334,123.258026 z M159.1222,123.61562 L146.24022,127.09111 L144.17345,123.71762 L144.78185,123.31375 L158.105,123.31375 z M88.19358,125.81847 L80.71499,126.96645 L80.34736,126.6875 L84.974014,119.558075 L93.57287,122.915855 z M251.27937,124.219376 L249.65187,124.219376 L246.37965,123.30896 L252.83015,117.565926 L277.31937,121.45937 z M252.83015,117.565926 L246.37965,123.30896 L244.17569,123.1398 L245.05035,117.51561 L250.04796,116.72909 z M244.17569,123.1398 L238.59485,126.11587 L237.9243,125.971436 L242.30324,116.22476 L245.05035,117.51561 z M139.14108,122.89375 L130.82213,122.30593 L131.36221,119.90165 L135.49979,114.98996 L140.30525,122.91294 z M237.44562,119.993126 L236.04417,118.95333 L234.81969,116.68214 L240.13095,114.958115 L241.54994,115.93293 z M135.49979,114.98996 L131.36221,119.90165 L129.68257,113.67072 L131.31071,112.549034 L135.14174,113.13043 z M98.70311,119.63749 L89.65547,117.57203 L90.66862,114.941124 L93.70419,114.34054 L95.27624,114.393555 z M169.64378,109.40157 L149.76222,120.21885 L148.63147,120.61625 L147.39638,113.28542 L149.70995,112.461494 z M234.4877,114.23354 L232.23575,116.322044 L231.05145,116.35866 L230.47578,113.084114 L234.012,112.821754 z M90.66862,114.941124 L88.77114,114.61625 L88.48417,114.190414 L90.541145,112.66427 L93.70419,114.34054 z M124.33437,111.741875 L119.72021,116.877 L116.616684,114.032585 L118.50622,110.574524 L122.878975,106.34283 z M234.95651,112.43244 L227.02815,104.58934 L233.32901,107.7879 L236.01187,109.95937 L238.13608,112.235855 z M147.39638,113.28542 L142.00478,112.692795 L140.3984,111.65988 L147.42761,109.92148 L149.70995,112.461494 z M96.37019,110.73563 L89.967,110.73563 L89.906494,110.62339 L96.410835,107.004036 L98.167946,107.686905 z M147.42761,109.92148 L140.3984,111.65988 L139.98068,111.425095 L140.26303,110.10834 L147.16768,108.571495 z M238.13608,112.235855 L236.01187,109.95937 L240.09354,108.445206 L242.78021,109.05854 L239.26183,112.71313 z M93.72803,105.69452 L88.10149,109.45159 L84.44467,109.75305 L83.953125,109.24248 L92.805855,104.86371 z M44.18,107.415 L40.11125,107.415 L40.11125,105.6325 L43.245407,101.978386 L47.044888,106.98989 z M74.24158,106.35625 L70.329414,102.00239 L72.02187,101.62187 L75.70785,102.53346 L75.81384,103.63438 z M79.25453,108.10172 L75.81384,103.63438 L75.70785,102.53346 L84.972984,100.74021 L81.91944,107.53681 z M65.18101,93.50553 L63.075863,101.31495 L61.946877,100.33771 L61.946877,97.15125 L63.146435,92.25627 z M110.93698,101.30312 L107.24563,98.016624 L107.24563,96.38937 L108.02547,96.47203 L111.84562,101.19588 z M111.59015,91.81477 L106.16062,95.843124 L104.765625,94.63563 L108.12842,91.142654 L111.457634,91.56609 z M104.765625,94.63563 L103.913124,94.63563 L101.36706,90.22792 L104.815186,90.07743 L108.12842,91.142654 z M85.590836,91.449165 L82.18454,96.50366 L76.73,93.55051 L76.73,89.98675 L85.64459,91.30956 z M125.59532,91.09471 L116.80719,93.05078 L119.1225,90.47406 L123.355515,90.16 L125.82611,90.74323 z M118.5025,86.7701 L113.374176,89.94084 L112.377914,90.16259 L111.97063,85.47875 L118.5025,85.47875 z M118.5025,85.47875 L111.97063,85.47875 L109.77106,82.66819 L112.29088,79.86388 L119.180626,84.975624 z M89.04475,85.68 L82.16927,85.68 L81.26945,81.451775 L82.561874,79.37417 L90.74809,83.42326 z M75.53886,80.85 L71.46323,80.85 L73.18167,73.20016 L74.59229,75.35875 L75.701294,80.295616 z M81.26945,81.451775 L79.578125,80.61521 L79.578125,78.133125 L82.561874,78.87104 L82.561874,79.37417 z M92.537865,81.602646 L87.38032,77.57468 L89.73557,74.42927 L95.099655,79.73567 L94.69376,80.36664 z M89.73557,74.42927 L87.38032,77.57468 L85.127754,76.808685 L80.03716,69.254906 L89.7613,74.30518 z M89.7613,74.30518 L80.03716,69.254906 L78.840836,68.004196 L93.301765,69.104614 L94.94297,72.38295 z M104.95937,72.19625 L99.25731,72.19625 L101.71729,70.16831 L104.26363,70.27327 L104.5208,70.487915 z M110.77187,70.08312 L105.205826,72.83623 L104.95937,72.19625 L104.5208,70.487915 L111.35313,69.22063 z M97.025604,65.75572 L85.39426,56.671818 L93.1099,56.54737 L101.394905,62.22147 L98.97499,64.87186 z M116.286316,63.38697 L110.34939,60.47813 L109.9558,51.717773 L134.661,65.46501 L118.979774,64.15777 z M124.17073,46.22502 L117.14788,46.87633 L118.999794,43.853542 L121.42115,42.05705 L122.71807,43.09947 z M117.14788,46.87633 L113.81488,49.158985 L109.99342,48.78095 L113.57872,44.428123 L118.999794,43.853542 z M106.72063,49.071976 L102.15969,43.996094 L106.73929,42.297207 L107.05179,42.63888 L108.79332,48.73024 z M106.73929,42.297207 L102.15969,43.996094 L99.7276,43.09387 L104.211105,40.02328 L106.63236,42.161877 z M131.25125,40.80125 L120.80813,37.480625 L122.83375,34.775436 L126.438934,34.699013 L132.6075,40.80125 z M132.6075,40.80125 L126.438934,34.699013 L134.7481,32.78578 L135.68336,34.052917 L135.15726,41.27419 z M104.2057,40.00475 L99.89075,38.54956 L98.685936,33.18621 L99.71322,33.463364 L105.212776,38.56376 z M105.212776,38.56376 L99.71322,33.463364 L105.416626,34.168625 L105.630684,34.243855 L107.74864,36.26421 z M119.243706,30.591322 L112.07,35.91375 L111.9925,35.870625 L111.9925,34.29836 L117.27751,29.88708 z M134.7481,32.78578 L126.438934,34.699013 L122.83375,34.775436 L121.80423,31.414545 L137.90077,12.903512 z M107.29083,28.639042 L92.32687,24.198126 L111.727196,26.59709 L111.7468,27.208124 L109.80866,28.825848 z M111.31438,157.62688 L105.960526,153.65466 L106.429955,153.03723 L110.29316,150.94565 L115.60221,153.89989 L120.00406,161.65637 z M122.75131,149.25873 L115.60221,153.89989 L110.29316,150.94565 L110.58504,148.73683 L116.875,147.3757 L118.229225,147.5013 z M98.5018,151.34077 L97.74365,151.4613 L97.0778,151.1193 L96.58724,147.11572 L99.96043,146.42532 L101.205795,149.93645 z M122.75131,149.25873 L118.229225,147.5013 L119.191055,145.59831 L120.13,145.25 L130.16003,147.73055 L130.96529,148.7646 z M119.191055,145.59831 L118.229225,147.5013 L116.875,147.3757 L116.875,145.90407 L118.62263,143.95912 L118.82591,143.97284 z M96.58724,147.11572 L94.664314,146.97305 L96.16791,138.04848 L99.673225,137.11615 L105.72981,141.60974 L99.96043,146.42532 z M94.664314,146.97305 L91.26448,147.3799 L81.04158,148.06941 L85.354645,143.83714 L91.39178,138.79808 L96.16791,138.04848 z M136.69766,151.59996 L130.96529,148.7646 L130.16003,147.73055 L125.62111,141.28821 L134.09938,139.71562 L134.82271,141.86229 z M85.354645,143.83714 L81.04158,148.06941 L44.97016,166.46875 L44.30645,166.78816 L50.509167,161.08167 L83.42083,136.66333 z M132.75491,137.41437 L124.702194,139.30109 L121.59271,134.95322 L124.86629,132.71619 L125.489525,132.80026 L129.68454,133.99734 z M84.12802,132.66469 L72.63524,140.18843 L76.47625,132.77899 L81.289085,128.41466 L83.692085,131.38611 L84.10461,132.50836 z M110.63625,131.9675 L109.1293,133.08556 L104.62097,132.12987 L104.86022,131.66562 L110.77187,131.66562 L110.82273,131.69078 z M137.85294,135.26422 L134.93779,133.67813 L133.5264,131.75833 L133.53395,131.68547 L134.55841,130.7987 L140.37782,135.11633 z M140.37782,135.11633 L134.55841,130.7987 L135.01485,130.25688 L135.78113,130.25688 L144.67445,133.92259 L143.33618,135.00377 z M93.284225,131.5354 L84.10461,132.50836 L83.692085,131.38611 L91.6011,129.43011 L92.83923,129.72021 L94.23885,131.27785 z M133.53395,131.68547 L130.15305,128.67537 L131.4188,128.6232 L133.57948,128.83694 L135.01485,130.25688 L134.55841,130.7987 z M103.96802,122.63174 L97.55632,128.97449 L96.64362,127.450874 L96.0119,122.29523 L99.537155,120.42701 L100.27156,120.48073 z M137.62563,126.835625 L133.57948,128.83694 L131.4188,128.6232 L139.14108,122.89375 L140.30525,122.91294 L142.18263,123.45463 z M92.83923,129.72021 L91.6011,129.43011 L88.19358,125.81847 L93.57287,122.915855 L94.38911,122.82723 L93.063126,129.22188 z M249.245,125.125 L244.0063,131.60297 L238.59485,126.11587 L244.17569,123.1398 L246.37965,123.30896 L249.65187,124.219376 z M188.40697,142.58694 L148.00323,131.91022 L146.24022,127.09111 L159.1222,123.61562 L187.89078,123.61562 L188.238,127.668816 z M225.64986,129.2987 L191.42201,150.46107 L188.40697,142.58694 L188.238,127.668816 L219.57167,124.09227 L222.3743,124.78539 z M225.64986,129.2987 L222.3743,124.78539 L222.99188,122.49438 L231.95357,125.449486 L232.46742,126.15752 L230.0304,127.83949 z M231.95357,125.449486 L222.99188,122.49438 L222.33908,121.52572 L221.46724,117.429 L228.3606,118.640305 L229.69524,120.56249 z M67.71682,125.390816 L56.855125,123.0512 L65.33169,117.7765 L71.072044,114.770164 L72.37086,115.696014 L72.54182,116.441216 z M242.30324,116.22476 L237.9243,125.971436 L237.44562,125.88687 L237.44562,119.993126 L241.54994,115.93293 L241.99805,116.052986 z M234.19063,119.22838 L229.69524,120.56249 L228.3606,118.640305 L231.05145,116.35866 L232.23575,116.322044 L234.19063,116.61212 z M148.63147,120.61625 L144.78185,123.31375 L144.17345,123.71762 L144.02132,123.6645 L142.00478,112.692795 L147.39638,113.28542 z M65.33169,117.7765 L56.855125,123.0512 L41.85308,126.10312 L43.547085,123.246666 L49.93808,113.76325 L54.41,112.374374 z M240.13095,114.958115 L234.81969,116.68214 L234.19063,116.61212 L232.23575,116.322044 L234.4877,114.23354 L239.45383,113.496635 z M228.3606,118.640305 L221.46724,117.429 L220.07863,116.7254 L230.34315,112.917595 L230.47578,113.084114 L231.05145,116.35866 z M250.04796,116.72909 L245.05035,117.51561 L242.30324,116.22476 L241.99805,116.052986 L248.18176,110.154236 L248.4482,110.20106 z M239.45383,113.496635 L234.4877,114.23354 L234.012,112.821754 L234.95651,112.43244 L238.13608,112.235855 L239.26183,112.71313 z M93.70419,114.34054 L90.541145,112.66427 L89.854324,111.95087 L90.0755,111.54063 L95.99722,111.54063 L95.27624,114.393555 z M234.012,112.821754 L230.47578,113.084114 L230.34315,112.917595 L225.76886,103.86736 L227.02815,104.58934 L234.95651,112.43244 z M43.547085,123.246666 L40.744167,108.68958 L44.18,107.415 L47.044888,106.98989 L48.593452,108.220894 L49.93808,113.76325 z M118.50622,110.574524 L114.65284,108.07293 L117.263916,100.32392 L121.944435,101.08994 L123.20933,105.952896 L122.878975,106.34283 z M92.805855,104.86371 L83.953125,109.24248 L81.91944,107.53681 L84.972984,100.74021 L85.86155,99.9491 L88.22932,99.9742 z M114.65284,108.07293 L114.15207,107.94909 L112.559456,104.99505 L114.00741,101.127625 L117.01063,100.27062 L117.263916,100.32392 z M39.64625,107.875 L39.006874,108.00437 L38.28031,107.46531 L37.67,106.40875 L40.11125,105.6325 L40.11125,107.415 z M73.27678,110.983315 L68.15301,103.80269 L67.755196,102.20886 L70.329414,102.00239 L74.24158,106.35625 L74.618126,109.98813 z M133.5952,106.22719 L129.01622,108.82513 L123.20933,105.952896 L121.944435,101.08994 L122.29125,100.900345 L127.96068,100.37455 z M50.103092,107.041885 L48.593452,108.220894 L47.044888,106.98989 L43.245407,101.978386 L43.191875,101.82313 L51.50375,99.7675 z M84.972984,100.74021 L75.70785,102.53346 L72.02187,101.62187 L73.475,99.46562 L85.33115,99.46562 L85.86155,99.9491 z M103.25725,103.24465 L91.948555,98.21046 L96.8836,95.76947 L100.3769,96.93132 L102.058525,98.11956 L104.203896,102.71789 z M110.93698,101.30312 L105.28875,102.7 L104.203896,102.71789 L102.058525,98.11956 L105.01398,97.02318 L107.24563,98.016624 z M51.50375,99.7675 L43.191875,101.82313 L38.321625,98.59007 L53.76232,95.726074 L53.90962,97.0375 L52.63172,99.28928 z M67.34467,102.042076 L63.768616,102.101036 L63.075863,101.31495 L65.18101,93.50553 L67.107124,94.4106 L68.00981,98.09415 z M111.84562,101.19588 L108.02547,96.47203 L112.62994,93.05581 L113.83875,94.15198 L117.01063,100.27062 L114.00741,101.127625 z M108.02547,96.47203 L107.24563,96.38937 L106.16062,95.929375 L106.16062,95.843124 L111.59015,91.81477 L112.62994,93.05581 z M103.913124,94.63563 L100.3769,96.93132 L96.8836,95.76947 L98.104095,90.983086 L100.400894,90.13105 L101.36706,90.22792 z M96.8836,95.76947 L91.948555,98.21046 L90.61461,98.59773 L90.04428,91.404236 L90.564835,87.73517 L98.104095,90.983086 z M87.33588,92.74387 L85.590836,91.449165 L85.64459,91.30956 L89.72326,86.93852 L90.564835,87.73517 L90.04428,91.404236 z M104.65848,83.47997 L102.460365,83.10362 L100.766106,82.325455 L103.74823,79.00664 L108.41221,82.851494 L107.25341,83.293655 z M71.46323,80.85 L70.04155,82.11575 L69.48603,82.436325 L57.506477,55.77216 L68.12286,63.44155 L73.18167,73.20016 z M103.74823,79.00664 L100.766106,82.325455 L94.69376,80.36664 L95.099655,79.73567 L97.87517,76.30358 L101.731834,76.22828 z M95.099655,79.73567 L89.73557,74.42927 L89.7613,74.30518 L94.94297,72.38295 L96.71693,73.909706 L97.87517,76.30358 z M99.25731,72.19625 L96.71693,73.909706 L94.94297,72.38295 L93.301765,69.104614 L96.96789,65.8615 L101.71729,70.16831 z M111.35313,69.22063 L104.5208,70.487915 L104.26363,70.27327 L104.71495,67.42707 L116.286316,63.38697 L118.979774,64.15777 z M104.26363,70.27327 L101.71729,70.16831 L96.96789,65.8615 L97.025604,65.75572 L98.97499,64.87186 L104.71495,67.42707 z M104.71495,67.42707 L98.97499,64.87186 L101.394905,62.22147 L106.29695,60.18903 L110.34939,60.47813 L116.286316,63.38697 z M102.91552,49.886345 L95.09486,46.43625 L97.61625,44.01533 L99.7276,43.09387 L102.15969,43.996094 L106.72063,49.071976 z M134.01875,57.590847 L124.17073,46.22502 L122.71807,43.09947 L126.80953,42.448986 L147.9315,65.955696 L145.89955,65.70045 z M118.999794,43.853542 L113.57872,44.428123 L114.91728,40.207344 L116.80976,38.27671 L119.79365,38.2333 L121.42115,42.05705 z M147.9315,65.955696 L126.80953,42.448986 L131.25125,40.80125 L132.6075,40.80125 L135.15726,41.27419 L158.64346,67.41206 z M113.57872,44.428123 L109.99342,48.78095 L109.37611,48.879097 L108.79332,48.73024 L107.05179,42.63888 L114.91728,40.207344 z M126.80953,42.448986 L122.71807,43.09947 L121.42115,42.05705 L119.79365,38.2333 L120.80813,37.480625 L131.25125,40.80125 z M99.7276,43.09387 L97.61625,44.01533 L97.61625,39.260098 L99.89075,38.54956 L104.2057,40.00475 L104.211105,40.02328 z M114.91728,40.207344 L107.05179,42.63888 L106.73929,42.297207 L106.63236,42.161877 L113.72172,36.90203 L116.80976,38.27671 z M111.9925,35.870625 L107.74864,36.26421 L105.630684,34.243855 L107.09231,32.291874 L111.85687,34.059376 L111.9925,34.29836 z M105.416626,34.168625 L99.71322,33.463364 L98.685936,33.18621 L94.95618,30.30828 L100.55003,30.627533 L104.82472,31.533688 z M107.09231,32.291874 L105.630684,34.243855 L105.416626,34.168625 L104.82472,31.533688 L105.35921,31.269318 L107.60189,31.031614 z M107.60189,31.031614 L105.35921,31.269318 L104.832924,30.097927 L107.29083,28.639042 L109.80866,28.825848 L109.719955,29.303003 z M104.832924,30.097927 L100.55003,30.627533 L94.95618,30.30828 L75.4463,20.023357 L92.32687,24.198126 L107.29083,28.639042 z M106.429955,153.03723 L101.205795,149.93645 L99.96043,146.42532 L105.72981,141.60974 L106.53488,141.778 L110.58504,148.73683 L110.29316,150.94565 z M115.9904,135.93994 L110.63625,131.9675 L110.82273,131.69078 L114.29813,130.65938 L114.74569,130.65938 L118.492065,133.30658 L119.436806,134.60332 z M76.47625,132.77899 L69.74098,130.28043 L71.254166,127.91032 L78.30108,126.20806 L80.34736,126.6875 L80.71499,126.96645 L81.289085,128.41466 z M133.5264,131.75833 L130.59778,132.37915 L125.489525,132.80026 L124.86629,132.71619 L127.35061,128.22336 L130.15305,128.67537 L133.53395,131.68547 z M112.60281,130.4078 L106.025,125.5275 L106.025,123.622444 L106.21554,123.60328 L112.02667,123.93493 L114.74569,130.65938 L114.29813,130.65938 z M97.158424,132.75082 L94.23885,131.27785 L92.83923,129.72021 L93.063126,129.22188 L96.64362,127.450874 L97.55632,128.97449 L97.736595,130.71323 z M121.59271,134.95322 L119.436806,134.60332 L118.492065,133.30658 L118.99568,126.954544 L126.48296,124.17701 L127.35061,128.22336 L124.86629,132.71619 z M139.14108,122.89375 L131.4188,128.6232 L130.15305,128.67537 L127.35061,128.22336 L126.48296,124.17701 L126.697334,123.258026 L130.82213,122.30593 z M222.33908,121.52572 L219.57167,124.09227 L188.238,127.668816 L187.89078,123.61562 L188.58943,103.226814 L220.07863,116.7254 L221.46724,117.429 z M158.105,123.31375 L149.76222,120.21885 L169.64378,109.40157 L188.49648,102.76345 L188.58943,103.226814 L187.89078,123.61562 L159.1222,123.61562 z M80.34736,126.6875 L78.30108,126.20806 L72.54182,116.441216 L72.37086,115.696014 L81.14333,115.99873 L84.71289,118.363365 L84.974014,119.558075 z M130.82213,122.30593 L126.697334,123.258026 L120.8623,118.68829 L120.78768,117.99074 L128.8778,113.98917 L129.68257,113.67072 L131.36221,119.90165 z M65.33169,117.7765 L54.41,112.374374 L56.805454,111.48574 L64.15179,111.19112 L64.16731,111.1955 L71.04608,114.68745 L71.072044,114.770164 z M88.77114,114.61625 L84.93888,118.27191 L84.71289,118.363365 L81.14333,115.99873 L84.64766,112.0121 L86.86618,112.689865 L88.48417,114.190414 z M128.8778,113.98917 L124.33437,111.741875 L122.878975,106.34283 L123.20933,105.952896 L129.01622,108.82513 L131.31071,112.549034 L129.68257,113.67072 z M135.14174,113.13043 L131.31071,112.549034 L129.01622,108.82513 L133.5952,106.22719 L139.7573,104.980316 L140.26303,110.10834 L139.98068,111.425095 z M56.805454,111.48574 L54.41,112.374374 L49.93808,113.76325 L48.593452,108.220894 L50.103092,107.041885 L56.00591,103.87891 L58.39479,104.41062 z M68.15301,103.80269 L64.16731,111.1955 L64.15179,111.19112 L61.386547,103.80525 L63.768616,102.101036 L67.34467,102.042076 L67.755196,102.20886 z M110.07469,108.418755 L105.41469,102.88687 L105.28875,102.7 L110.93698,101.30312 L111.84562,101.19588 L114.00741,101.127625 L112.559456,104.99505 z M85.33115,99.46562 L73.475,99.46562 L74.28415,96.7641 L76.63336,93.59508 L76.73,93.55051 L82.18454,96.50366 L85.13958,99.26191 z M72.02187,101.62187 L70.329414,102.00239 L67.755196,102.20886 L67.34467,102.042076 L68.00981,98.09415 L74.28415,96.7641 L73.475,99.46562 z M61.946877,97.15125 L54.21625,97.15125 L53.90962,97.0375 L53.76232,95.726074 L54.555016,88.374466 L60.052803,89.28091 L63.146435,92.25627 z M105.01398,97.02318 L102.058525,98.11956 L100.3769,96.93132 L103.913124,94.63563 L104.765625,94.63563 L106.16062,95.843124 L106.16062,95.929375 z M121.944435,101.08994 L117.263916,100.32392 L117.01063,100.27062 L113.83875,94.15198 L116.80719,93.05078 L125.59532,91.09471 L122.29125,100.900345 z M88.22932,99.9742 L85.86155,99.9491 L85.33115,99.46562 L85.13958,99.26191 L87.33588,92.74387 L90.04428,91.404236 L90.61461,98.59773 z M85.64459,91.30956 L76.73,89.98675 L76.413734,87.59333 L76.6822,87.39889 L82.16927,85.68 L89.04475,85.68 L89.72326,86.93852 z M104.815186,90.07743 L101.36706,90.22792 L100.400894,90.13105 L100.40334,90.08737 L100.96989,88.40602 L104.65848,83.47997 L107.25341,83.293655 z M100.3675,85.2775 L97.97227,85.2775 L92.49769,81.66703 L92.537865,81.602646 L94.69376,80.36664 L100.766106,82.325455 L102.460365,83.10362 z M76.413734,87.59333 L69.11692,86.44147 L68.94852,84.62973 L69.48603,82.436325 L70.04155,82.11575 L75.52428,81.0988 L76.6822,87.39889 z M82.16927,85.68 L76.6822,87.39889 L75.52428,81.0988 L75.53886,80.85 L75.701294,80.295616 L79.578125,80.61521 L81.26945,81.451775 z M90.74809,83.42326 L82.561874,79.37417 L82.561874,78.87104 L85.127754,76.808685 L87.38032,77.57468 L92.537865,81.602646 L92.49769,81.66703 z M113.25711,78.03522 L108.34528,75.48424 L110.77187,70.08312 L111.35313,69.22063 L118.979774,64.15777 L134.661,65.46501 L140.68694,66.08997 z M105.57573,74.940315 L101.731834,76.22828 L97.87517,76.30358 L96.71693,73.909706 L99.25731,72.19625 L104.95937,72.19625 L105.205826,72.83623 z M117.27751,29.88708 L111.9925,34.29836 L111.85687,34.059376 L109.719955,29.303003 L109.80866,28.825848 L111.7468,27.208124 L116.68721,29.407404 z M116.875,147.3757 L110.58504,148.73683 L106.53488,141.778 L108.72914,141.02661 L110.655624,141.52687 L111.89078,141.95453 L116.73937,145.55188 L116.875,145.90407 z M118.62263,143.95912 L118.25691,143.83853 L117.63062,142.67688 L119.180626,141.52687 L124.76796,139.68446 L125.27135,140.87492 L121.07938,143.13687 L118.82591,143.97284 z M134.09938,139.71562 L125.62111,141.28821 L125.27135,140.87492 L124.76796,139.68446 L124.702194,139.30109 L132.75491,137.41437 L133.82813,137.30063 L134.16719,139.06157 z M136.34688,139.60063 L134.16719,139.06157 L133.82813,137.30063 L134.85887,136.61638 L137.85294,135.26422 L140.37782,135.11633 L143.33618,135.00377 L142.74957,138.41302 z M115.555954,136.11984 L108.72914,141.02661 L106.53488,141.778 L105.72981,141.60974 L99.673225,137.11615 L99.79692,136.10669 L104.62097,132.12987 L109.1293,133.08556 z M91.39178,138.79808 L87.20703,134.91707 L93.284225,131.5354 L94.23885,131.27785 L97.158424,132.75082 L99.79692,136.10669 L99.673225,137.11615 L96.16791,138.04848 z M144.67445,133.92259 L135.78113,130.25688 L137.62563,126.835625 L142.18263,123.45463 L144.02132,123.6645 L144.17345,123.71762 L146.24022,127.09111 L148.00323,131.91022 z M237.44562,125.88687 L233.84079,126.141594 L232.46742,126.15752 L231.95357,125.449486 L229.69524,120.56249 L234.19063,119.22838 L236.04417,118.95333 L237.44562,119.993126 z M120.8623,118.68829 L112.1443,123.90458 L112.02667,123.93493 L106.21554,123.60328 L113.90192,113.82706 L116.616684,114.032585 L119.72021,116.877 L120.78768,117.99074 z M113.90192,113.82706 L106.21554,123.60328 L106.025,123.622444 L105.79734,123.53656 L103.96802,122.63174 L100.27156,120.48073 L106.9089,112.35534 L108.309265,112.147545 z M140.30525,122.91294 L135.49979,114.98996 L135.14174,113.13043 L139.98068,111.425095 L140.3984,111.65988 L142.00478,112.692795 L144.02132,123.6645 L142.18263,123.45463 z M248.18176,110.154236 L241.99805,116.052986 L241.54994,115.93293 L240.13095,114.958115 L239.45383,113.496635 L239.26183,112.71313 L242.78021,109.05854 L244.17741,108.42915 z M89.854324,111.95087 L86.86618,112.689865 L84.64766,112.0121 L84.44467,109.75305 L88.10149,109.45159 L89.906494,110.62339 L89.967,110.73563 L90.0755,111.54063 z M113.90192,113.82706 L108.309265,112.147545 L108.43177,111.8408 L110.02262,108.824455 L114.15207,107.94909 L114.65284,108.07293 L118.50622,110.574524 L116.616684,114.032585 z M106.9089,112.35534 L98.600815,107.629555 L103.25725,103.24465 L104.203896,102.71789 L105.28875,102.7 L105.41469,102.88687 L108.43177,111.8408 L108.309265,112.147545 z M108.12842,91.142654 L104.815186,90.07743 L107.25341,83.293655 L108.41221,82.851494 L109.77106,82.66819 L111.97063,85.47875 L112.377914,90.16259 L111.457634,91.56609 z M123.355515,90.16 L119.64562,88.325 L118.5025,86.7701 L118.5025,85.47875 L119.180626,84.975624 L121.270615,84.16338 L145.5715,79.309235 L125.82611,90.74323 z M82.561874,78.87104 L79.578125,78.133125 L74.59229,75.35875 L73.18167,73.20016 L68.12286,63.44155 L78.840836,68.004196 L80.03716,69.254906 L85.127754,76.808685 z M106.29695,60.18903 L100.447716,54.40269 L102.91552,49.886345 L106.72063,49.071976 L108.79332,48.73024 L109.37611,48.879097 L109.9558,51.717773 L110.34939,60.47813 z M134.661,65.46501 L109.9558,51.717773 L109.37611,48.879097 L109.99342,48.78095 L113.81488,49.158985 L134.01875,57.590847 L145.89955,65.70045 L140.68694,66.08997 z M113.72172,36.90203 L106.63236,42.161877 L104.211105,40.02328 L104.2057,40.00475 L105.212776,38.56376 L107.74864,36.26421 L111.9925,35.870625 L112.07,35.91375 z M116.80976,38.27671 L113.72172,36.90203 L112.07,35.91375 L119.243706,30.591322 L121.80423,31.414545 L122.83375,34.775436 L120.80813,37.480625 L119.79365,38.2333 z M119.180626,141.52687 L110.655624,141.52687 L108.72914,141.02661 L115.555954,136.11984 L115.9904,135.93994 L119.436806,134.60332 L121.59271,134.95322 L124.702194,139.30109 L124.76796,139.68446 z M104.62097,132.12987 L99.79692,136.10669 L97.158424,132.75082 L97.736595,130.71323 L105.79734,123.53656 L106.025,123.622444 L106.025,125.5275 L105.87945,129.52306 L104.86022,131.66562 z M93.57287,122.915855 L84.974014,119.558075 L84.71289,118.363365 L84.93888,118.27191 L89.65547,117.57203 L98.70311,119.63749 L99.537155,120.42701 L96.0119,122.29523 L94.38911,122.82723 z M100.27156,120.48073 L99.537155,120.42701 L98.70311,119.63749 L95.27624,114.393555 L95.99722,111.54063 L96.37019,110.73563 L98.167946,107.686905 L98.600815,107.629555 L106.9089,112.35534 z M98.167946,107.686905 L96.410835,107.004036 L93.72803,105.69452 L92.805855,104.86371 L88.22932,99.9742 L90.61461,98.59773 L91.948555,98.21046 L103.25725,103.24465 L98.600815,107.629555 z M58.39479,104.41062 L56.00591,103.87891 L52.63172,99.28928 L53.90962,97.0375 L54.21625,97.15125 L61.946877,100.33771 L63.075863,101.31495 L63.768616,102.101036 L61.386547,103.80525 z M76.63336,93.59508 L67.107124,94.4106 L65.18101,93.50553 L63.146435,92.25627 L60.052803,89.28091 L69.11692,86.44147 L76.413734,87.59333 L76.73,89.98675 L76.73,93.55051 z M119.1225,90.47406 L116.80719,93.05078 L113.83875,94.15198 L112.62994,93.05581 L111.59015,91.81477 L111.457634,91.56609 L112.377914,90.16259 L113.374176,89.94084 L115.60917,89.822395 z M98.104095,90.983086 L90.564835,87.73517 L89.72326,86.93852 L89.04475,85.68 L90.74809,83.42326 L92.49769,81.66703 L97.97227,85.2775 L100.40334,90.08737 L100.400894,90.13105 z M108.41221,82.851494 L103.74823,79.00664 L101.731834,76.22828 L105.57573,74.940315 L108.34528,75.48424 L113.25711,78.03522 L112.77056,79.118195 L112.29088,79.86388 L109.77106,82.66819 z M236.42746,135.73729 L233.84079,126.141594 L237.44562,125.88687 L237.9243,125.971436 L238.59485,126.11587 L244.0063,131.60297 L244.15933,131.7964 L243.73506,133.10393 L243.42386,133.47165 L240.565,134.86362 L236.6179,135.87029 z M81.14333,115.99873 L72.37086,115.696014 L71.072044,114.770164 L71.04608,114.68745 L73.27678,110.983315 L74.618126,109.98813 L79.25453,108.10172 L81.91944,107.53681 L83.953125,109.24248 L84.44467,109.75305 L84.64766,112.0121 z" fill="none" stroke="gold" stroke-width="0.6"/>
</g>
<g inkscape:groupmode="layer" inkscape:label="white">
<path d="M58.087963,174.61937 L48.35034,175.42212 L49.594593,172.09875 z M93.66195,161.35593 L92.51312,163.06062 L91.01082,161.57448 z M77.45875,139.2125 L73.59344,140.16844 L70.58708,139.2125 z M85.83958,141.92642 L80.03562,139.91687 L84.42083,136.66333 z M43.178177,135.82747 L20.43568,133.95265 L37.78387,129.82414 z M62.946877,100.33771 L55.21625,97.15125 L62.946877,97.15125 z M134.01437,89.443375 L117.80719,93.05078 L120.1225,90.47406 z M-39.686024,117.435684 L-10,114.72026 L-10,119.88292 z M314.06436,-10 L300,-4.0096183 L300,-10 z M292.00006,-10 L300,-16.59493 L300,-10 z M-39.375267,-10 L-10,-10 L-10,15.426979 z M-10,211.50078 L-10,220 L-25.273958,220 z M66.57745,182.7212 L56.84375,202.5811 L55.055237,179.69101 L66.54094,182.53156 z M56.124893,203.00145 L47.223293,179.41426 L53.776043,180.93355 L58.251915,191.56013 z M58.251915,191.56013 L53.776043,180.93355 L57.549,178.13425 L64.40299,176.81586 z M66.54094,182.53156 L55.055237,179.69101 L54.749416,178.43434 L69.675224,178.8773 z M91.25288,179.17532 L76.87876,184.50766 L76.15046,181.75677 L86.279854,176.32901 z M94.457085,171.54666 L92.09446,172.42313 L87.42495,170.53342 L89.5782,167.92685 z M45.59349,167.52249 L41.97925,167.07556 L46.07891,162.51303 L46.41242,163.47188 z M70.02951,166.86201 L67.755394,168.54926 L66.00259,166.6708 L66.91229,163.97104 z M81.76576,162.93008 L75.7456,162.06158 L79.06466,156.46494 L82.72875,157.92876 z M64.08373,154.75166 L60.309723,158.95177 L55.02352,157.77516 L62.33765,154.24786 z M112.31438,157.62688 L105.73463,157.62688 L106.10072,154.45796 L106.960526,153.65466 z M100.16238,156.37912 L96.91,154.77042 L98.45231,154.05524 L102.72489,154.4779 z M56.01493,152.89377 L47.31301,150.74168 L52.88878,149.9537 L58.932377,151.99188 z M69.91625,155.24434 L67.89814,156.57527 L64.86163,154.91873 L68.00783,146.74878 z M121.13,145.25 L120.191055,145.59831 L119.82591,143.97284 L122.07938,143.13687 z M117.73937,145.55188 L112.89078,141.95453 L112.96857,141.97673 L117.73937,143.99937 z M119.25691,143.83853 L117.73937,143.99937 L112.96857,141.97673 L118.63062,142.67688 z M63.96406,140.06781 L61.399155,145.7768 L60.921543,140.8158 L62.946877,139.31313 z M137.34688,139.60063 L135.82271,141.86229 L135.09938,139.71562 L135.16719,139.06157 z M62.876724,138.6365 L57.988518,138.23354 L61.5156,135.09329 L62.879063,138.63391 z M135.09938,133.67813 L131.59778,132.37915 L134.5264,131.75833 L135.93779,133.67813 z M116.555954,136.11984 L110.1293,133.08556 L111.63625,131.9675 L116.9904,135.93994 z M111.77187,131.66562 L105.86022,131.66562 L106.87945,129.52306 L109.63578,130.08078 z M113.60281,130.4078 L109.63578,130.08078 L106.87945,129.52306 L107.025,125.5275 z M136.78113,130.25688 L136.01485,130.25688 L134.57948,128.83694 L138.62563,126.835625 z M106.79734,123.53656 L98.736595,130.71323 L98.55632,128.97449 L104.96802,122.63174 z M97.64362,127.450874 L94.063126,129.22188 L95.38911,122.82723 L97.0119,122.29523 z M159.105,123.31375 L145.78185,123.31375 L149.63147,120.61625 L150.76222,120.21885 z M79.30108,126.20806 L72.254166,127.91032 L68.71682,125.390816 L73.54182,116.441216 z M90.65547,117.57203 L85.93888,118.27191 L89.77114,114.61625 L91.66862,114.941124 z M91.541145,112.66427 L89.48417,114.190414 L87.86618,112.689865 L90.854324,111.95087 z M129.8778,113.98917 L121.78768,117.99074 L120.72021,116.877 L125.33437,111.741875 z M96.99722,111.54063 L91.0755,111.54063 L90.967,110.73563 L97.37019,110.73563 z M97.410835,107.004036 L90.906494,110.62339 L89.10149,109.45159 L94.72803,105.69452 z M40.006874,108.00437 L34.09425,115.90059 L9.739046,114.77122 L39.28031,107.46531 z M45.18,107.415 L41.744167,108.68958 L40.64625,107.875 L41.11125,107.415 z M65.15179,111.19112 L53.92781,111.64125 L23.660833,111.64125 L62.386547,103.80525 z M115.15207,107.94909 L111.02262,108.824455 L111.07469,108.418755 L113.559456,104.99505 z M72.04608,114.68745 L65.16731,111.1955 L69.15301,103.80269 L74.27678,110.983315 z M109.43177,111.8408 L106.41469,102.88687 L111.07469,108.418755 L111.02262,108.824455 z M80.25453,108.10172 L75.618126,109.98813 L75.24158,106.35625 L76.81384,103.63438 z M52.50375,99.7675 L44.191875,101.82313 L39.321625,98.59007 L67.69375,93.3275 z M108.24563,98.016624 L106.01398,97.02318 L107.16062,95.929375 L108.24563,96.38937 z M75.28415,96.7641 L69.00981,98.09415 L68.107124,94.4106 L77.63336,93.59508 z M88.33588,92.74387 L86.13958,99.26191 L83.18454,96.50366 L86.590836,91.449165 z M101.40334,90.08737 L98.97227,85.2775 L101.3675,85.2775 L101.96989,88.40602 z M105.65848,83.47997 L101.96989,88.40602 L101.3675,85.2775 L103.460365,83.10362 z M76.52428,81.0988 L71.04155,82.11575 L72.46323,80.85 L76.53886,80.85 z M80.578125,80.61521 L76.701294,80.295616 L75.59229,75.35875 L80.578125,78.133125 z M45.908287,177.72844 L40.283222,177.13223 L41.450314,170.205 L42.425117,170.1421 L46.952343,176.85992 z M40.283222,177.13223 L35.958424,177.69849 L38.466564,169.32452 L39.922165,169.44914 L41.450314,170.205 z M60.79283,170.68445 L49.68299,171.60031 L49.38316,170.98428 L51.283127,168.29312 L53.272293,168.29312 z M60.79283,170.68445 L53.272293,168.29312 L65.338806,161.57869 L91.29034,162.7113 L72.44387,171.03023 z M67.22476,171.83006 L57.44476,172.6939 L61.506508,166.39282 L66.00259,166.6708 L67.755394,168.54926 z M39.922165,169.44914 L38.466564,169.32452 L-2.0764673,154.28438 L35.707264,154.75552 L41.299038,167.20174 z M59.936,161.24937 L51.283127,167.08563 L46.41242,163.47188 L46.07891,162.51303 L45.237976,158.97751 z M93.266594,166.49306 L89.816765,167.47171 L84.9292,163.30151 L87.743645,160.58693 L89.80063,161.35 z M93.266594,166.49306 L89.80063,161.35 L91.01082,161.57448 L92.51312,163.06062 L93.99457,166.35803 z M93.99457,166.35803 L92.51312,163.06062 L93.66195,161.35593 L95.79752,160.88058 L96.15811,166.23131 z M61.32304,163.1259 L44.319077,160.4225 L55.02352,157.77516 L60.309723,158.95177 L64.757866,161.42694 z M100.16238,156.37912 L99.02059,159.34409 L96.66923,159.22778 L93.00416,155.99059 L96.91,154.77042 z M83.60974,155.04614 L79.06353,156.45155 L76.14394,152.27399 L76.24628,152.02992 L78.36206,151.1527 z M54.499374,154.20563 L38.805626,154.20563 L43.167324,150.96953 L47.31301,150.74168 L56.01493,152.89377 z M102.72489,154.4779 L98.45231,154.05524 L98.74365,151.4613 L99.5018,151.34077 L103.59899,154.38063 z M97.415,151.20125 L89.71514,153.48637 L87.39534,148.42418 L87.94739,147.67108 L92.26448,147.3799 z M97.415,151.20125 L92.26448,147.3799 L95.664314,146.97305 L97.58724,147.11572 L98.0778,151.1193 z M78.36206,151.1527 L76.24628,152.02992 L72.04496,147.97769 L78.79904,145.83008 L83.49043,148.8467 z M131.16003,147.73055 L121.13,145.25 L122.07938,143.13687 L126.27135,140.87492 L126.62111,141.28821 z M119.62263,143.95912 L117.875,145.90407 L117.73937,145.55188 L117.73937,143.99937 L119.25691,143.83853 z M118.63062,142.67688 L112.96857,141.97673 L112.89078,141.95453 L111.655624,141.52687 L120.180626,141.52687 z M76.77329,142.52768 L73.59344,140.16844 L77.45875,139.2125 L79.239334,139.02377 L79.824265,139.86461 z M137.69766,151.59996 L135.82271,141.86229 L137.34688,139.60063 L143.74957,138.41302 L142.7862,154.85258 z M58.335625,142.13063 L47.181297,144.88922 L44.47105,140.06323 L45.892033,137.95468 L49.981125,135.93213 z M62.946877,139.31313 L60.921543,140.8158 L57.913944,138.26556 L57.988518,138.23354 L62.876724,138.6365 z M133.75491,137.41437 L130.68454,133.99734 L131.30188,134.08063 L135.85887,136.61638 L134.82813,137.30063 z M135.85887,136.61638 L131.30188,134.08063 L135.09938,133.67813 L135.93779,133.67813 L138.85294,135.26422 z M43.178177,135.82747 L37.78387,129.82414 L41.365234,128.78212 L43.82375,130.46587 L43.82375,136.00165 z M135.09938,133.67813 L131.30188,134.08063 L130.68454,133.99734 L126.489525,132.80026 L131.59778,132.37915 z M75.92199,135.77722 L69.657974,135.17754 L68.31413,133.2268 L70.74098,130.28043 L77.47625,132.77899 z M94.284225,131.5354 L88.20703,134.91707 L85.605446,133.1477 L85.12802,132.66469 L85.10461,132.50836 z M111.77187,131.66562 L109.63578,130.08078 L113.60281,130.4078 L115.29813,130.65938 L111.82273,131.69078 z M49.424473,132.70337 L43.82375,130.46587 L41.365234,128.78212 L42.687984,127.05486 L52.88704,129.21687 z M92.6011,129.43011 L84.692085,131.38611 L82.289085,128.41466 L81.71499,126.96645 L89.19358,125.81847 z M119.492065,133.30658 L115.74569,130.65938 L113.02667,123.93493 L113.1443,123.90458 L119.99568,126.954544 z M52.88704,129.21687 L42.687984,127.05486 L47.452297,118.021454 L51.76471,117.17052 L68.05843,120.10471 z M127.48296,124.17701 L119.99568,126.954544 L113.1443,123.90458 L121.8623,118.68829 L127.697334,123.258026 z M160.1222,123.61562 L147.24022,127.09111 L145.17345,123.71762 L145.78185,123.31375 L159.105,123.31375 z M89.19358,125.81847 L81.71499,126.96645 L81.34736,126.6875 L85.974014,119.558075 L94.57287,122.915855 z M140.14108,122.89375 L131.82213,122.30593 L132.36221,119.90165 L136.49979,114.98996 L141.30525,122.91294 z M136.49979,114.98996 L132.36221,119.90165 L130.68257,113.67072 L132.31071,112.549034 L136.14174,113.13043 z M99.70311,119.63749 L90.65547,117.57203 L91.66862,114.941124 L94.70419,114.34054 L96.27624,114.393555 z M170.64378,109.40157 L150.76222,120.21885 L149.63147,120.61625 L148.39638,113.28542 L150.70995,112.461494 z M91.66862,114.941124 L89.77114,114.61625 L89.48417,114.190414 L91.541145,112.66427 L94.70419,114.34054 z M125.33437,111.741875 L120.72021,116.877 L117.616684,114.032585 L119.50622,110.574524 L123.878975,106.34283 z M148.39638,113.28542 L143.00478,112.692795 L141.3984,111.65988 L148.42761,109.92148 L150.70995,112.461494 z M97.37019,110.73563 L90.967,110.73563 L90.906494,110.62339 L97.410835,107.004036 L99.167946,107.686905 z M148.42761,109.92148 L141.3984,111.65988 L140.98068,111.425095 L141.26303,110.10834 L148.16768,108.571495 z M43.38025,117.18665 L34.09425,115.90059 L40.006874,108.00437 L40.64625,107.875 L41.744167,108.68958 z M94.72803,105.69452 L89.10149,109.45159 L85.44467,109.75305 L84.953125,109.24248 L93.805855,104.86371 z M45.18,107.415 L41.11125,107.415 L41.11125,105.6325 L44.245407,101.978386 L48.044888,106.98989 z M134.5952,106.22719 L130.01622,108.82513 L124.20933,105.952896 L122.944435,101.08994 L127.33735,98.688385 z M75.24158,106.35625 L71.329414,102.00239 L73.02187,101.62187 L76.70785,102.53346 L76.81384,103.63438 z M80.25453,108.10172 L76.81384,103.63438 L76.70785,102.53346 L85.972984,100.74021 L82.91944,107.53681 z M134.5952,106.22719 L127.33735,98.688385 L142.32474,88.21022 L153.10173,82.32441 L140.7573,104.980316 z M66.18101,93.50553 L64.07586,101.31495 L62.946877,100.33771 L62.946877,97.15125 L64.14644,92.25627 z M111.93698,101.30312 L108.24563,98.016624 L108.24563,96.38937 L109.02547,96.47203 L112.84562,101.19588 z M112.59015,91.81477 L107.16062,95.843124 L105.765625,94.63563 L109.12842,91.142654 L112.457634,91.56609 z M105.765625,94.63563 L104.913124,94.63563 L102.36706,90.22792 L105.815186,90.07743 L109.12842,91.142654 z M86.590836,91.449165 L83.18454,96.50366 L77.73,93.55051 L77.73,89.98675 L86.64459,91.30956 z M90.04475,85.68 L83.16927,85.68 L82.26945,81.451775 L83.561874,79.37417 L91.74809,83.42326 z M76.53886,80.85 L72.46323,80.85 L74.18167,73.20016 L75.59229,75.35875 L76.701294,80.295616 z M104.74823,79.00664 L101.766106,82.325455 L95.69376,80.36664 L96.099655,79.73567 L100.93654,73.75458 z M82.26945,81.451775 L80.578125,80.61521 L80.578125,78.133125 L83.561874,78.87104 L83.561874,79.37417 z M93.537865,81.602646 L88.38032,77.57468 L90.73557,74.42927 L96.099655,79.73567 L95.69376,80.36664 z M96.099655,79.73567 L90.73557,74.42927 L90.7613,74.30518 L102.59662,69.914665 L100.93654,73.75458 z M90.73557,74.42927 L88.38032,77.57468 L86.127754,76.808685 L81.03716,69.254906 L90.7613,74.30518 z M57.549,178.13425 L47.733322,176.3136 L48.35034,175.42212 L58.087963,174.61937 L66.33862,175.05663 L64.40299,176.81586 z M91.25288,179.17532 L86.279854,176.32901 L84.12775,172.572 L87.42495,170.53342 L92.09446,172.42313 L95.37758,180.54268 z M58.087963,174.61937 L49.594593,172.09875 L49.68299,171.60031 L60.79283,170.68445 L72.44387,171.03023 L66.33862,175.05663 z M73.170204,174.0922 L67.22476,171.83006 L67.755394,168.54926 L70.02951,166.86201 L74.55695,165.39243 L77.294205,171.68811 z M49.38316,170.98428 L45.95386,169.39407 L45.59349,167.52249 L46.41242,163.47188 L51.283127,167.08563 L51.283127,168.29312 z M65.338806,161.57869 L53.272293,168.29312 L51.283127,168.29312 L51.283127,167.08563 L59.936,161.24937 L61.280624,161.24937 z M46.07891,162.51303 L41.97925,167.07556 L41.299038,167.20174 L35.707264,154.75552 L38.078564,154.64935 L45.237976,158.97751 z M66.00259,166.6708 L61.506508,166.39282 L61.32304,163.1259 L64.757866,161.42694 L66.67198,160.94003 L66.91229,163.97104 z M70.02951,166.86201 L66.91229,163.97104 L66.67198,160.94003 L68.51411,159.77429 L75.23492,162.2067 L74.55695,165.39243 z M112.17875,171.4125 L96.15811,166.23131 L95.79752,160.88058 L96.66923,159.22778 L99.02059,159.34409 L105.00794,160.77194 z M84.9292,163.30151 L83.319176,163.3911 L81.76576,162.93008 L82.72875,157.92876 L88.39506,157.92876 L87.743645,160.58693 z M112.31438,157.62688 L106.960526,153.65466 L107.429955,153.03723 L111.29316,150.94565 L116.60221,153.89989 L121.00406,161.65637 z M59.936,161.24937 L45.237976,158.97751 L38.078564,154.64935 L38.805626,154.20563 L54.499374,154.20563 L61.280624,161.24937 z M83.60974,155.04614 L78.36206,151.1527 L83.49043,148.8467 L87.39534,148.42418 L89.71514,153.48637 L89.743034,153.64598 z M103.59899,154.38063 L99.5018,151.34077 L102.205795,149.93645 L107.429955,153.03723 L106.960526,153.65466 L106.10072,154.45796 z M123.75131,149.25873 L116.60221,153.89989 L111.29316,150.94565 L111.58504,148.73683 L117.875,147.3757 L119.229225,147.5013 z M99.5018,151.34077 L98.74365,151.4613 L98.0778,151.1193 L97.58724,147.11572 L100.96043,146.42532 L102.205795,149.93645 z M78.79904,145.83008 L72.04496,147.97769 L68.52817,145.755 L69.05,145.06133 L76.42073,143.0106 L77.92375,144.53125 z M123.75131,149.25873 L119.229225,147.5013 L120.191055,145.59831 L121.13,145.25 L131.16003,147.73055 L131.96529,148.7646 z M120.191055,145.59831 L119.229225,147.5013 L117.875,147.3757 L117.875,145.90407 L119.62263,143.95912 L119.82591,143.97284 z M97.58724,147.11572 L95.664314,146.97305 L97.16791,138.04848 L100.673225,137.11615 L106.72981,141.60974 L100.96043,146.42532 z M95.664314,146.97305 L92.26448,147.3799 L87.94739,147.67108 L87.69994,142.71425 L92.39178,138.79808 L97.16791,138.04848 z M137.69766,151.59996 L131.96529,148.7646 L131.16003,147.73055 L126.62111,141.28821 L135.09938,139.71562 L135.82271,141.86229 z M69.38357,136.22095 L62.879063,138.63391 L61.5156,135.09329 L63.020615,132.44131 L68.31413,133.2268 L69.657974,135.17754 z M44.47105,140.06323 L7.171094,136.49239 L20.43568,133.95265 L43.178177,135.82747 L43.82375,136.00165 L45.892033,137.95468 z M58.335625,142.13063 L49.981125,135.93213 L50.363632,134.61957 L51.043785,134.51865 L55.152008,134.77264 L61.28547,142.35703 z M133.75491,137.41437 L125.702194,139.30109 L122.59271,134.95322 L125.86629,132.71619 L126.489525,132.80026 L130.68454,133.99734 z M45.892033,137.95468 L43.82375,136.00165 L43.82375,130.46587 L49.424473,132.70337 L50.363632,134.61957 L49.981125,135.93213 z M80.8113,120.71516 L51.043785,134.51865 L50.363632,134.61957 L49.424473,132.70337 L52.88704,129.21687 L68.05843,120.10471 z M111.63625,131.9675 L110.1293,133.08556 L105.62097,132.12987 L105.86022,131.66562 L111.77187,131.66562 L111.82273,131.69078 z M138.85294,135.26422 L135.93779,133.67813 L134.5264,131.75833 L134.53395,131.68547 L135.55841,130.7987 L141.37782,135.11633 z M141.37782,135.11633 L135.55841,130.7987 L136.01485,130.25688 L136.78113,130.25688 L145.67445,133.92259 L144.33618,135.00377 z M94.284225,131.5354 L85.10461,132.50836 L84.692085,131.38611 L92.6011,129.43011 L93.83923,129.72021 L95.23885,131.27785 z M134.53395,131.68547 L131.15305,128.67537 L132.4188,128.6232 L134.57948,128.83694 L136.01485,130.25688 L135.55841,130.7987 z M104.96802,122.63174 L98.55632,128.97449 L97.64362,127.450874 L97.0119,122.29523 L100.537155,120.42701 L101.27156,120.48073 z M93.83923,129.72021 L92.6011,129.43011 L89.19358,125.81847 L94.57287,122.915855 L95.38911,122.82723 L94.063126,129.22188 z M138.62563,126.835625 L134.57948,128.83694 L132.4188,128.6232 L140.14108,122.89375 L141.30525,122.91294 L143.18263,123.45463 z M68.71682,125.390816 L57.855125,123.0512 L66.33169,117.7765 L72.072044,114.770164 L73.37086,115.696014 L73.54182,116.441216 z M149.63147,120.61625 L145.78185,123.31375 L145.17345,123.71762 L145.02132,123.6645 L143.00478,112.692795 L148.39638,113.28542 z M66.33169,117.7765 L53.92781,111.64125 L65.15179,111.19112 L65.16731,111.1955 L72.04608,114.68745 L72.072044,114.770164 z M94.70419,114.34054 L91.541145,112.66427 L90.854324,111.95087 L91.0755,111.54063 L96.99722,111.54063 L96.27624,114.393555 z M119.50622,110.574524 L115.65284,108.07293 L118.263916,100.32392 L122.944435,101.08994 L124.20933,105.952896 L123.878975,106.34283 z M115.65284,108.07293 L115.15207,107.94909 L113.559456,104.99505 L115.00741,101.127625 L118.01063,100.27062 L118.263916,100.32392 z M93.805855,104.86371 L84.953125,109.24248 L82.91944,107.53681 L85.972984,100.74021 L86.86155,99.9491 L89.22932,99.9742 z M40.64625,107.875 L40.006874,108.00437 L39.28031,107.46531 L38.67,106.40875 L41.11125,105.6325 L41.11125,107.415 z M74.27678,110.983315 L69.15301,103.80269 L68.755196,102.20886 L71.329414,102.00239 L75.24158,106.35625 L75.618126,109.98813 z M51.103092,107.041885 L49.593452,108.220894 L48.044888,106.98989 L44.245407,101.978386 L44.191875,101.82313 L52.50375,99.7675 z M85.972984,100.74021 L76.70785,102.53346 L73.02187,101.62187 L74.475,99.46562 L86.33115,99.46562 L86.86155,99.9491 z M104.25725,103.24465 L92.948555,98.21046 L97.8836,95.76947 L101.3769,96.93132 L103.058525,98.11956 L105.203896,102.71789 z M111.93698,101.30312 L106.28875,102.7 L105.203896,102.71789 L103.058525,98.11956 L106.01398,97.02318 L108.24563,98.016624 z M68.34467,102.042076 L64.768616,102.101036 L64.07586,101.31495 L66.18101,93.50553 L68.107124,94.4106 L69.00981,98.09415 z M112.84562,101.19588 L109.02547,96.47203 L113.62994,93.05581 L114.83875,94.15198 L118.01063,100.27062 L115.00741,101.127625 z M109.02547,96.47203 L108.24563,96.38937 L107.16062,95.929375 L107.16062,95.843124 L112.59015,91.81477 L113.62994,93.05581 z M104.913124,94.63563 L101.3769,96.93132 L97.8836,95.76947 L99.104095,90.983086 L101.400894,90.13105 L102.36706,90.22792 z M97.8836,95.76947 L92.948555,98.21046 L91.61461,98.59773 L91.04428,91.404236 L91.564835,87.73517 L99.104095,90.983086 z M88.33588,92.74387 L86.590836,91.449165 L86.64459,91.30956 L90.72326,86.93852 L91.564835,87.73517 L91.04428,91.404236 z M105.65848,83.47997 L103.460365,83.10362 L101.766106,82.325455 L104.74823,79.00664 L109.41221,82.851494 L108.25341,83.293655 z M76.83488,186.52638 L66.57745,182.7212 L66.54094,182.53156 L69.675224,178.8773 L72.8615,178.13855 L76.15046,181.75677 L76.87876,184.50766 z M53.776043,180.93355 L47.223293,179.41426 L46.293552,178.51451 L45.908287,177.72844 L46.952343,176.85992 L47.733322,176.3136 L57.549,178.13425 z M86.279854,176.32901 L76.15046,181.75677 L72.8615,178.13855 L73.170204,174.0922 L77.294205,171.68811 L80.061386,171.60915 L84.12775,172.572 z M69.675224,178.8773 L54.749416,178.43434 L52.171932,174.76067 L57.44476,172.6939 L67.22476,171.83006 L73.170204,174.0922 L72.8615,178.13855 z M45.95386,169.39407 L42.425117,170.1421 L41.450314,170.205 L39.922165,169.44914 L41.299038,167.20174 L41.97925,167.07556 L45.59349,167.52249 z M87.42495,170.53342 L84.12775,172.572 L80.061386,171.60915 L83.319176,163.3911 L84.9292,163.30151 L89.816765,167.47171 L89.5782,167.92685 z M80.061386,171.60915 L77.294205,171.68811 L74.55695,165.39243 L75.23492,162.2067 L75.7456,162.06158 L81.76576,162.93008 L83.319176,163.3911 z M64.757866,161.42694 L60.309723,158.95177 L64.08373,154.75166 L64.86163,154.91873 L67.89814,156.57527 L68.51411,159.77429 L66.67198,160.94003 z M105.00794,160.77194 L99.02059,159.34409 L100.16238,156.37912 L102.72489,154.4779 L103.59899,154.38063 L106.10072,154.45796 L105.73463,157.62688 z M88.39506,157.92876 L82.72875,157.92876 L79.06466,156.46494 L79.06353,156.45155 L83.60974,155.04614 L89.743034,153.64598 L90.59804,155.23187 z M69.91625,155.24434 L68.00783,146.74878 L68.18878,145.85374 L68.52817,145.755 L72.04496,147.97769 L76.24628,152.02992 L76.14394,152.27399 z M64.86163,154.91873 L64.08373,154.75166 L62.33765,154.24786 L56.755177,147.25851 L61.39397,145.85374 L68.18878,145.85374 L68.00783,146.74878 z M107.429955,153.03723 L102.205795,149.93645 L100.96043,146.42532 L106.72981,141.60974 L107.53488,141.778 L111.58504,148.73683 L111.29316,150.94565 z M63.768032,142.68918 L52.88878,149.9537 L47.31301,150.74168 L43.167324,150.96953 L47.181297,144.88922 L58.335625,142.13063 L61.28547,142.35703 z M83.49043,148.8467 L78.79904,145.83008 L77.92375,144.53125 L86.76139,142.3456 L87.69994,142.71425 L87.94739,147.67108 L87.39534,148.42418 z M86.76139,142.3456 L77.92375,144.53125 L76.42073,143.0106 L76.77329,142.52768 L79.824265,139.86461 L80.03562,139.91687 L85.83958,141.92642 z M68.18878,145.85374 L61.39397,145.85374 L61.399155,145.7768 L63.96406,140.06781 L69.05,140.48708 L69.05,145.06133 L68.52817,145.755 z M76.42073,143.0106 L69.05,145.06133 L69.05,140.48708 L69.5925,139.01125 L70.58708,139.2125 L73.59344,140.16844 L76.77329,142.52768 z M69.05,140.48708 L63.96406,140.06781 L62.946877,139.31313 L62.876724,138.6365 L62.879063,138.63391 L69.38357,136.22095 L69.5925,139.01125 z M85.83958,141.92642 L84.42083,136.66333 L85.605446,133.1477 L88.20703,134.91707 L92.39178,138.79808 L87.69994,142.71425 L86.76139,142.3456 z M84.42083,136.66333 L80.03562,139.91687 L79.824265,139.86461 L79.239334,139.02377 L78.478836,137.01758 L85.12802,132.66469 L85.605446,133.1477 z M85.12802,132.66469 L78.478836,137.01758 L75.92199,135.77722 L77.47625,132.77899 L82.289085,128.41466 L84.692085,131.38611 L85.10461,132.50836 z M116.9904,135.93994 L111.63625,131.9675 L111.82273,131.69078 L115.29813,130.65938 L115.74569,130.65938 L119.492065,133.30658 L120.436806,134.60332 z M77.47625,132.77899 L70.74098,130.28043 L72.254166,127.91032 L79.30108,126.20806 L81.34736,126.6875 L81.71499,126.96645 L82.289085,128.41466 z M134.5264,131.75833 L131.59778,132.37915 L126.489525,132.80026 L125.86629,132.71619 L128.3506,128.22336 L131.15305,128.67537 L134.53395,131.68547 z M113.60281,130.4078 L107.025,125.5275 L107.025,123.622444 L107.21554,123.60328 L113.02667,123.93493 L115.74569,130.65938 L115.29813,130.65938 z M98.158424,132.75082 L95.23885,131.27785 L93.83923,129.72021 L94.063126,129.22188 L97.64362,127.450874 L98.55632,128.97449 L98.736595,130.71323 z M68.31413,133.2268 L63.020615,132.44131 L49.3705,124.77726 L57.855125,123.0512 L68.71682,125.390816 L72.254166,127.91032 L70.74098,130.28043 z M122.59271,134.95322 L120.436806,134.60332 L119.492065,133.30658 L119.99568,126.954544 L127.48296,124.17701 L128.3506,128.22336 L125.86629,132.71619 z M140.14108,122.89375 L132.4188,128.6232 L131.15305,128.67537 L128.3506,128.22336 L127.48296,124.17701 L127.697334,123.258026 L131.82213,122.30593 z M81.34736,126.6875 L79.30108,126.20806 L73.54182,116.441216 L73.37086,115.696014 L82.14333,115.99873 L85.71289,118.363365 L85.974014,119.558075 z M131.82213,122.30593 L127.697334,123.258026 L121.8623,118.68829 L121.78768,117.99074 L129.8778,113.98917 L130.68257,113.67072 L132.36221,119.90165 z M89.77114,114.61625 L85.93888,118.27191 L85.71289,118.363365 L82.14333,115.99873 L85.64766,112.0121 L87.86618,112.689865 L89.48417,114.190414 z M129.8778,113.98917 L125.33437,111.741875 L123.878975,106.34283 L124.20933,105.952896 L130.01622,108.82513 L132.31071,112.549034 L130.68257,113.67072 z M43.38025,117.18665 L41.744167,108.68958 L45.18,107.415 L48.044888,106.98989 L49.593452,108.220894 L51.76471,117.17052 L47.452297,118.021454 z M136.14174,113.13043 L132.31071,112.549034 L130.01622,108.82513 L134.5952,106.22719 L140.7573,104.980316 L141.26303,110.10834 L140.98068,111.425095 z M69.15301,103.80269 L65.16731,111.1955 L65.15179,111.19112 L62.386547,103.80525 L64.768616,102.101036 L68.34467,102.042076 L68.755196,102.20886 z M111.07469,108.418755 L106.41469,102.88687 L106.28875,102.7 L111.93698,101.30312 L112.84562,101.19588 L115.00741,101.127625 L113.559456,104.99505 z M86.33115,99.46562 L74.475,99.46562 L75.28415,96.7641 L77.63336,93.59508 L77.73,93.55051 L83.18454,96.50366 L86.13958,99.26191 z M73.02187,101.62187 L71.329414,102.00239 L68.755196,102.20886 L68.34467,102.042076 L69.00981,98.09415 L75.28415,96.7641 L74.475,99.46562 z M106.01398,97.02318 L103.058525,98.11956 L101.3769,96.93132 L104.913124,94.63563 L105.765625,94.63563 L107.16062,95.843124 L107.16062,95.929375 z M89.22932,99.9742 L86.86155,99.9491 L86.33115,99.46562 L86.13958,99.26191 L88.33588,92.74387 L91.04428,91.404236 L91.61461,98.59773 z M86.64459,91.30956 L77.73,89.98675 L77.413734,87.59333 L77.6822,87.39889 L83.16927,85.68 L90.04475,85.68 L90.72326,86.93852 z M109.12842,91.142654 L105.815186,90.07743 L108.25341,83.293655 L109.41221,82.851494 L112.70356,82.4075 L113.377914,90.16259 L112.457634,91.56609 z M105.815186,90.07743 L102.36706,90.22792 L101.400894,90.13105 L101.40334,90.08737 L101.96989,88.40602 L105.65848,83.47997 L108.25341,83.293655 z M101.3675,85.2775 L98.97227,85.2775 L93.49769,81.66703 L93.537865,81.602646 L95.69376,80.36664 L101.766106,82.325455 L103.460365,83.10362 z M77.413734,87.59333 L70.11692,86.44147 L69.94852,84.62973 L70.48603,82.436325 L71.04155,82.11575 L76.52428,81.0988 L77.6822,87.39889 z M83.16927,85.68 L77.6822,87.39889 L76.52428,81.0988 L76.53886,80.85 L76.701294,80.295616 L80.578125,80.61521 L82.26945,81.451775 z M91.74809,83.42326 L83.561874,79.37417 L83.561874,78.87104 L86.127754,76.808685 L88.38032,77.57468 L93.537865,81.602646 L93.49769,81.66703 z M83.561874,78.87104 L80.578125,78.133125 L75.59229,75.35875 L74.18167,73.20016 L61.605118,48.939587 L81.03716,69.254906 L86.127754,76.808685 z M46.952343,176.85992 L42.425117,170.1421 L45.95386,169.39407 L49.38316,170.98428 L49.68299,171.60031 L49.594593,172.09875 L48.35034,175.42212 L47.733322,176.3136 z M94.457085,171.54666 L89.5782,167.92685 L89.816765,167.47171 L93.266594,166.49306 L93.99457,166.35803 L96.15811,166.23131 L112.17875,171.4125 L113.851456,172.65355 z M75.23492,162.2067 L68.51411,159.77429 L67.89814,156.57527 L69.91625,155.24434 L76.14394,152.27399 L79.06353,156.45155 L79.06466,156.46494 L75.7456,162.06158 z M117.875,147.3757 L111.58504,148.73683 L107.53488,141.778 L109.72914,141.02661 L111.655624,141.52687 L112.89078,141.95453 L117.73937,145.55188 L117.875,145.90407 z M119.62263,143.95912 L119.25691,143.83853 L118.63062,142.67688 L120.180626,141.52687 L125.76796,139.68446 L126.27135,140.87492 L122.07938,143.13687 L119.82591,143.97284 z M135.09938,139.71562 L126.62111,141.28821 L126.27135,140.87492 L125.76796,139.68446 L125.702194,139.30109 L133.75491,137.41437 L134.82813,137.30063 L135.16719,139.06157 z M137.34688,139.60063 L135.16719,139.06157 L134.82813,137.30063 L135.85887,136.61638 L138.85294,135.26422 L141.37782,135.11633 L144.33618,135.00377 L143.74957,138.41302 z M77.45875,139.2125 L70.58708,139.2125 L69.5925,139.01125 L69.38357,136.22095 L69.657974,135.17754 L75.92199,135.77722 L78.478836,137.01758 L79.239334,139.02377 z M116.555954,136.11984 L109.72914,141.02661 L107.53488,141.778 L106.72981,141.60974 L100.673225,137.11615 L100.79692,136.10669 L105.62097,132.12987 L110.1293,133.08556 z M92.39178,138.79808 L88.20703,134.91707 L94.284225,131.5354 L95.23885,131.27785 L98.158424,132.75082 L100.79692,136.10669 L100.673225,137.11615 L97.16791,138.04848 z M145.67445,133.92259 L136.78113,130.25688 L138.62563,126.835625 L143.18263,123.45463 L145.02132,123.6645 L145.17345,123.71762 L147.24022,127.09111 L149.00323,131.91022 z M121.8623,118.68829 L113.1443,123.90458 L113.02667,123.93493 L107.21554,123.60328 L114.90192,113.82706 L117.616684,114.032585 L120.72021,116.877 L121.78768,117.99074 z M114.90192,113.82706 L107.21554,123.60328 L107.025,123.622444 L106.79734,123.53656 L104.96802,122.63174 L101.27156,120.48073 L107.9089,112.35534 L109.309265,112.147545 z M141.30525,122.91294 L136.49979,114.98996 L136.14174,113.13043 L140.98068,111.425095 L141.3984,111.65988 L143.00478,112.692795 L145.02132,123.6645 L143.18263,123.45463 z M90.854324,111.95087 L87.86618,112.689865 L85.64766,112.0121 L85.44467,109.75305 L89.10149,109.45159 L90.906494,110.62339 L90.967,110.73563 L91.0755,111.54063 z M114.90192,113.82706 L109.309265,112.147545 L109.43177,111.8408 L111.02262,108.824455 L115.15207,107.94909 L115.65284,108.07293 L119.50622,110.574524 L117.616684,114.032585 z M107.9089,112.35534 L99.600815,107.629555 L104.25725,103.24465 L105.203896,102.71789 L106.28875,102.7 L106.41469,102.88687 L109.43177,111.8408 L109.309265,112.147545 z M122.944435,101.08994 L118.263916,100.32392 L118.01063,100.27062 L114.83875,94.15198 L117.80719,93.05078 L134.01437,89.443375 L142.32474,88.21022 L127.33735,98.688385 z M93.66195,161.35593 L91.01082,161.57448 L89.80063,161.35 L87.743645,160.58693 L88.39506,157.92876 L90.59804,155.23187 L93.00416,155.99059 L96.66923,159.22778 L95.79752,160.88058 z M98.45231,154.05524 L96.91,154.77042 L93.00416,155.99059 L90.59804,155.23187 L89.743034,153.64598 L89.71514,153.48637 L97.415,151.20125 L98.0778,151.1193 L98.74365,151.4613 z M120.180626,141.52687 L111.655624,141.52687 L109.72914,141.02661 L116.555954,136.11984 L116.9904,135.93994 L120.436806,134.60332 L122.59271,134.95322 L125.702194,139.30109 L125.76796,139.68446 z M105.62097,132.12987 L100.79692,136.10669 L98.158424,132.75082 L98.736595,130.71323 L106.79734,123.53656 L107.025,123.622444 L107.025,125.5275 L106.87945,129.52306 L105.86022,131.66562 z M94.57287,122.915855 L85.974014,119.558075 L85.71289,118.363365 L85.93888,118.27191 L90.65547,117.57203 L99.70311,119.63749 L100.537155,120.42701 L97.0119,122.29523 L95.38911,122.82723 z M101.27156,120.48073 L100.537155,120.42701 L99.70311,119.63749 L96.27624,114.393555 L96.99722,111.54063 L97.37019,110.73563 L99.167946,107.686905 L99.600815,107.629555 L107.9089,112.35534 z M99.167946,107.686905 L97.410835,107.004036 L94.72803,105.69452 L93.805855,104.86371 L89.22932,99.9742 L91.61461,98.59773 L92.948555,98.21046 L104.25725,103.24465 L99.600815,107.629555 z M77.63336,93.59508 L68.107124,94.4106 L66.18101,93.50553 L64.14644,92.25627 L61.052803,89.28091 L70.11692,86.44147 L77.413734,87.59333 L77.73,89.98675 L77.73,93.55051 z M120.1225,90.47406 L117.80719,93.05078 L114.83875,94.15198 L113.62994,93.05581 L112.59015,91.81477 L112.457634,91.56609 L113.377914,90.16259 L114.374176,89.94084 L116.60917,89.822395 z M99.104095,90.983086 L91.564835,87.73517 L90.72326,86.93852 L90.04475,85.68 L91.74809,83.42326 L93.49769,81.66703 L98.97227,85.2775 L101.40334,90.08737 L101.400894,90.13105 z M82.14333,115.99873 L73.37086,115.696014 L72.072044,114.770164 L72.04608,114.68745 L74.27678,110.983315 L75.618126,109.98813 L80.25453,108.10172 L82.91944,107.53681 L84.953125,109.24248 L85.44467,109.75305 L85.64766,112.0121 z" fill="none" stroke="white" stroke-width="0.6"/>
</g>
<path d="m 15.815664,12.893319 c -1.445284,-3.0999497 -5.555449,-0.3575 -5.08537,2.32203 1.697826,2.92736 4.504013,-3.54417 4.40859,-2.58178 -1.548999,2.22986 0.741131,6.08701 3.012419,3.25791 2.532153,-2.82358 0.259001,-7.8326797 -3.488671,-7.9011197 -3.217272,0.056 -5.8863857,2.4603197 -7.9308737,4.7238797 -2.354585,2.46752 0.0048,5.887 2.757763,6.62143 3.2195457,1.10867 6.8759417,1.30834 9.9459317,-0.36585 2.270396,-1.12373 5.025949,-2.62031 5.680576,-5.20027 -2.108811,-3.66096 -6.038415,1.28356 -3.842036,3.67822 1.07278,0.89979 4.586982,-2.27037 3.201668,-2.73503 0.03094,3.24357 1.226854,6.37852 1.337023,9.60311 -0.672198,3.54892 -7.469251,0.32096 -4.637082,-2.5164 2.158436,-2.4193 5.610472,-2.84094 8.202925,-4.57369 0.993877,-1.40371 0.353413,-5.25046 3.182464,-3.48957 2.142923,1.43516 -2.250898,5.7532 1.723416,5.02339 1.661189,-0.71663 6.494946,-1.40457 4.601401,-3.95236 -4.205319,-0.68052 -1.190571,5.86505 1.665411,3.46881 1.929752,-0.9247 2.778055,-4.05119 1.423645,-5.35034 0.479155,1.8589 3.849911,7.52574 4.880369,3.32696 0.21201,-1.28088 0.40468,-3.80204 1.01246,-1.23041 0.5858,2.6865 3.83412,4.91909 4.56937,1.07383 0.65272,-1.00894 -0.2696,-4.02739 0.99929,-1.35746 1.10974,2.31613 6.32001,1.46113 6.147,-1.13059 -1.98394,-2.13868 -5.3717,1.45205 -3.78252,3.73454 2.57741,0.96208 6.69797,-0.21041 7.06275,-3.33983 0.41287,-2.63769 0.26643,-5.3430297 -0.11178,-7.9756197 0.67418,3.94149 1.24889,7.9380497 2.39963,11.7713397 2.10586,1.67977 5.7434,1.65022 7.74596,-0.23639 3.03149,-1.85431 -0.26637,-4.76925 -2.71777,-4.54025 -2.11577,0.0793 -5.36257,2.40772 -5.16868,3.85604 2.08262,-2.38818 5.55759,-1.22628 8.30726,-1.6832 3.182,-0.26596 6.46546,-0.57372 9.54494,-1.18158 0.24171,0.4199 -0.27752,0.54338 -0.43067,0.17453" fill="none" stroke="white" stroke-width="1" transform="translate(260,190) scale(0.3)"/>
</svg>