<svg height="210mm" style="background:black" viewBox="0 0 297 210" width="297mm" xmlns="http://www.w3.org/2000/svg" xmlns:inkscape="http://www.inkscape.org/namespaces/inkscape">
<g inkscape:groupmode="layer" inkscape:label="gold">
<path d="M305.60684,144.89545 L299,149.38881 L299,144.93518 z M209.46167,180.60292 L206.25188,182.98438 L206.05734,180.96375 z M206.69066,176.40527 L198.62674,173.41382 L208.61319,174.08739 z M178.58438,150.78438 L173.37637,150.78438 L176.32002,148.96437 z M122.38728,150.07103 L117.10104,149.09052 L125.92601,143.3614 z M151.51521,148.09117 L149.56062,147.84947 L149.56062,143.74063 z M186.96298,111.24993 L179.37212,114.0659 L178.94865,110.40048 z M155.79938,93.226875 L152.92732,88.96511 L153.84637,88.879875 z M246.26125,79.6425 L243.2775,77.42875 L248.3925,78.06125 z M242.05687,66.86313 L237.35521,63.37479 L242.05687,62.106308 z M183.0966,64.83146 L179.66937,66.62636 L179.66937,57.203125 z M238.96028,-32.330124 L237.13622,-10 L221.79012,-10 z M-28.104357,59.218422 L-11,60.738777 L-11,71.90875 z M-11,198.48148 L-11,220 L-35.290195,220 z M-11,226.55359 L-11,220 L-1.3369464,220 z M130.83357,177.49756 L123.11375,181.8775 L127.89579,174.78157 L128.80354,175.0877 z M169.30103,202.88028 L152.717,173.34999 L162.36317,174.78136 L175.48218,186.54262 z M146.60196,167.86969 L143.32187,170.6075 L143.32187,162.32881 L144.1159,161.9673 z M172.97592,166.90912 L159.1436,168.77507 L166.2079,161.78673 L167.81935,162.79633 z M124.97593,166.25462 L113.0425,162.46011 L126.49204,161.21278 L127.39022,161.32867 z M135.18437,168.39375 L129.60031,160.10771 L130.55644,159.0282 L140.27733,163.35556 z M176.82124,156.1175 L167.81935,162.79633 L166.2079,161.78673 L164.81792,160.57034 z M117.01063,152.7298 L109.55125,145.35063 L109.55125,144.97328 L117.01063,149.12407 z M108.59401,142.07326 L90.896645,163.9571 L97.26055,151.14131 L108.46912,141.16208 z M147.86888,149.70398 L135.48128,145.10858 L134.36295,139.57703 L148.78188,147.89763 z M180.53737,149.21463 L175.98207,145.83488 L176.8807,142.23451 L181.4901,146.3872 z M108.46912,141.16208 L97.26055,151.14131 L101.54938,130.45813 L108.10478,123.591736 z M160.76938,147.97661 L152.78532,148.39973 L154.63574,142.45053 L156.95305,144.26031 z M168.14125,141.69458 L165.61133,138.56618 L166.39621,137.51797 L168.14125,137.12956 z M167.15489,130.86977 L165.50626,131.2775 L164.6721,130.03973 L165.84875,129.41617 z M191.12485,124.045074 L185.54,126.116875 L186.315,123.81687 L191.7061,121.816956 z M70.1861,109.993515 L45.943127,118.98688 L82.811714,91.63277 L88.51323,99.30972 z M173.75612,116.16937 L167.29155,122.16474 L165.52634,121.54013 L172.51138,114.63019 z M209.19946,116.27 L206.25188,116.27 L209.23563,112.94937 L209.63066,113.87053 z M166.16212,105.14907 L162.60506,106.65714 L163.10632,103.49597 L167.87,101.98125 z M241.022,100.524376 L238.80188,107.11313 L238.80188,101.343956 L240.10907,100.26634 z M245.04716,103.510025 L243.73985,104.10276 L241.1187,100.53742 L243.75696,99.681046 z M186.08926,99.472176 L179.3468,102.9739 L177.36786,98.569145 L185.23102,96.81896 z M196.43413,100.75698 L190.38374,101.98125 L194.83224,98.68075 L197.98529,98.290855 z M143.05063,94.1325 L139.64597,95.71127 L137.45506,94.763054 L137.85167,94.1325 z M241.08917,95.8812 L235.16243,93.9574 L248.09395,89.69324 L258.56842,91.55837 z M137.88786,87.53246 L130.15778,85.89383 L135.46428,78.01965 L140.22768,86.05177 z M181.34076,84.35708 L174.83904,82.28971 L178.6793,78.80731 L179.53375,79.44125 z M222.6052,84.17204 L221.26593,81.85353 L223.9486,80.360756 L227.57268,84.84214 z M223.9486,80.360756 L221.26593,81.85353 L217.55396,80.27979 L223.14215,78.20676 z M162.85187,79.743126 L150.76326,82.433815 L150.39157,79.81399 L150.91687,79.743126 z M194.654,79.079 L189.69765,81.93912 L186.81712,80.71788 L191.04855,76.6366 z M201.6135,74.893 L198.21986,75.52247 L200.14044,71.96009 L201.39743,74.19834 z M204.28531,73.12703 L202.84187,75.804375 L201.6135,74.893 L201.39743,74.19834 z M159.63286,74.30837 L154.08145,73.70563 L156.27406,68.82531 L158.6832,69.02392 z M209.36359,72.32359 L206.71924,71.6229 L205.04633,67.07183 L209.02303,69.0388 z M165.82704,71.383606 L162.71625,68.614 L162.71625,63.34125 L166.25098,71.20887 z M88.4714,34.823666 L76.17517,33.30316 L77.47594,31.694687 L85.133316,29.003555 z M63.483112,26.502155 L41.770046,47.981747 L59.39331,21.104692 L60.69611,22.554583 z M75.188805,29.028126 L72.83078,29.028126 L73.33938,27.51875 L80.12063,25.003124 z M110.259476,35.973328 L101.42404,35.36353 L98.599464,26.409365 L114.58066,25.223663 z M209.46167,180.60292 L206.05734,180.96375 L203.93912,178.40991 L206.14912,177.18015 L210.88081,180.33969 z M130.83357,177.49756 L128.80354,175.0877 L129.75937,174.73312 L135.52126,176.15811 L133.33162,177.07634 z M135.52126,176.15811 L129.75937,174.73312 L134.86012,169.68723 L138.96246,173.65321 L138.99155,174.96976 z M127.79458,174.64212 L121.25085,172.87666 L122.68382,171.06926 L124.00171,170.26006 L128.44485,173.55658 z M132.131,168.96898 L126.25751,168.52203 L124.97593,166.25462 L127.39022,161.32867 L127.89471,161.11134 z M132.131,168.96898 L127.89471,161.11134 L129.60031,160.10771 L135.18437,168.39375 L134.64174,169.37788 z M190.62486,163.64334 L187.67125,160.87802 L187.67125,149.69986 L188.4873,149.22896 L195.31242,161.88846 z M187.67125,160.87802 L181.90912,156.09395 L185.15862,150.30772 L186.5475,149.7925 L187.67125,149.69986 z M117.57618,155.54279 L107.85492,160.45346 L109.55125,145.35063 L117.01063,152.7298 L117.60496,155.5225 z M148.70166,151.18687 L142.0542,154.88586 L135.93138,151.45357 L135.48128,145.10858 L147.86888,149.70398 z M185.15862,150.30772 L181.90912,156.09395 L180.74698,155.45186 L179.85999,152.05171 L184.3546,148.717 z M184.3546,148.717 L179.85999,152.05171 L179.6952,151.60854 L180.48814,149.72595 L184.3,148.31187 z M187.67125,149.69986 L186.5475,149.7925 L185.94203,148.44484 L189.52138,147.91371 L188.4873,149.22896 z M164.08212,149.61517 L160.76938,147.97661 L156.95305,144.26031 L164.29124,142.44548 L167.08899,143.8985 z M164.29124,142.44548 L156.95305,144.26031 L154.63574,142.45053 L149.52164,134.62473 L157.53317,138.02132 z M177.36163,131.63243 L168.21608,133.1403 L167.2023,130.88385 L175.23013,126.62946 L176.5236,127.34922 z M204.78358,127.999374 L198.55162,139.55867 L198.29677,139.4311 L199.48262,127.113594 L203.19302,124.16407 z M191.575,129.81592 L184.29758,126.93625 L185.54,126.116875 L191.12485,124.045074 L191.6764,129.56969 z M185.54,126.116875 L184.29758,126.93625 L177.56424,126.93625 L181.03741,123.81687 L186.315,123.81687 z M186.315,123.81687 L181.03741,123.81687 L181.75928,122.79037 L191.75233,121.73119 L191.7061,121.816956 z M191.75233,121.73119 L181.75928,122.79037 L183.43262,117.32772 L194.92792,116.94005 L195.16756,117.3874 z M180.21187,116.16937 L170.62059,123.285484 L168.34477,122.62591 L167.29155,122.16474 L173.75612,116.16937 z M210.18707,121.76556 L203.59187,122.14195 L198.54385,119.129425 L206.25188,116.27 L209.19946,116.27 z M172.51138,114.63019 L165.52634,121.54013 L158.9028,119.94819 L168.98978,110.76341 L172.77371,113.786804 z M186.96298,111.24993 L178.94865,110.40048 L177.9964,107.85702 L183.14186,106.73419 L190.63527,110.830765 z M174.63907,106.406944 L166.16212,105.14907 L167.87,101.98125 L170.28719,99.86178 L171.62524,100.21475 z M197.61603,103.38766 L195.17032,107.69724 L189.51575,102.30325 L190.38374,101.98125 L196.43413,100.75698 z M167.87,101.98125 L163.10632,103.49597 L162.44882,102.13006 L168.52698,98.74786 L170.28719,99.86178 z M245.04716,103.510025 L243.75696,99.681046 L258.67792,91.56276 L261.81488,91.37971 L284.80264,92.643074 z M237.8525,101.57875 L234.67888,102.756065 L233.91402,101.85756 L235.48428,100.19322 L235.81813,100.069374 z M235.48428,100.19322 L233.91402,101.85756 L229.52126,100.31375 L228.26187,99.285934 L230.97964,94.62298 z M235.48428,100.19322 L230.97964,94.62298 L231.04572,94.464615 L238.27599,98.85366 L235.81813,100.069374 z M194.83224,98.68075 L185.66417,95.76556 L186.29039,93.14684 L201.48785,95.96573 L197.98529,98.290855 z M215.8487,98.66465 L203.53882,94.75044 L206.18477,89.714584 L212.28078,91.607864 L215.59918,93.29613 z M221.84875,101.268486 L217.63353,103.96155 L215.8487,98.66465 L215.59918,93.29613 L221.84875,92.61424 z M143.49788,104.284874 L139.64597,95.71127 L143.05063,94.1325 L147.11002,92.626595 L150.21104,95.92435 z M143.05063,94.1325 L137.85167,94.1325 L138.15579,93.45557 L146.6869,91.873184 L147.11002,92.626595 z M174.78688,90.20812 L165.73822,95.96257 L161.70753,94.8809 L171.931,87.29575 L175.32556,89.542015 z M160.83405,94.69943 L158.79652,95.032524 L156.60358,87.71092 L156.69582,87.20901 L165.7,83.86875 z M220.76375,88.81486 L218.86118,87.94619 L217.28593,84.67375 L218.3225,84.67375 L220.76375,86.485 z M186.68248,80.73869 L182.50108,86.01264 L181.34076,84.35708 L179.53375,79.44125 L184.64229,79.44125 z M246.26125,82.26934 L236.52055,78.84605 L236.64543,75.78856 L243.2775,77.42875 L246.26125,79.6425 z M162.85187,79.743126 L150.91687,79.743126 L162.54518,76.86731 L164.09816,79.42221 L164.15738,79.54941 z M176.86081,76.112236 L165.3449,80.89691 L164.15738,79.54941 L164.09816,79.42221 L170.93124,74.3525 z M255.11473,74.43457 L239.49312,73.192764 L240.31566,71.4001 L243.17426,67.98823 L244.46649,67.521805 z M156.27406,68.82531 L154.08145,73.70563 L152.81563,73.70563 L152.81563,67.36625 L153.62204,66.85769 z M187.26437,73.70563 L185.93073,73.70563 L179.70648,72.416885 L178.77664,70.61006 L187.26437,67.219185 z M226.19113,71.52098 L216.69342,72.89594 L215.45743,69.22781 L219.45464,65.273575 L225.94736,68.53683 z M209.02303,69.0388 L205.04633,67.07183 L202.60938,63.154373 L209.1,67.97 L209.21967,68.23636 z M158.6832,69.02392 L156.27406,68.82531 L153.62204,66.85769 L157.6061,61.400623 L159.30096,68.107216 z M219.45464,65.273575 L215.45743,69.22781 L213.6308,67.42083 L213.70221,66.97046 L217.6239,64.060814 z M212.36543,68.477 L210.60695,67.82465 L211.12872,66.276146 L213.70221,66.97046 L213.6308,67.42083 z M210.60695,67.82465 L209.21967,68.23636 L209.1,67.97 L210.495,65.9 L211.12872,66.276146 z M162.71625,68.614 L159.30096,68.107216 L157.6061,61.400623 L161.36,50.26 L162.71625,63.34125 z M236.63188,67.49563 L228.80261,65.006134 L231.21346,60.713276 L231.3766,60.508755 L236.63188,63.160126 z M150.10312,67.36625 L130.16748,69.58489 L119.36934,63.409348 L125.10778,56.475624 L150.10312,46.559235 z M217.23134,63.322956 L210.08507,65.44379 L209.4073,65.05697 L212.63339,63.26181 L216.96982,62.54684 z M212.63339,63.26181 L209.4073,65.05697 L202.41765,62.92161 L200.33495,61.54194 L200.14998,61.40943 z M150.10312,46.559235 L125.10778,56.475624 L115.81358,39.855232 L129.50607,30.034922 L155.44562,44.357132 z M85.133316,29.003555 L77.47594,31.694687 L75.188805,29.028126 L80.12063,25.003124 L84.950775,21.419462 z M72.83078,29.028126 L68.242294,30.46154 L69.51927,26.482313 L73.33938,21.380625 L73.33938,27.51875 z M68.05966,30.625269 L63.483112,26.502155 L60.69611,22.554583 L69.51927,26.482313 L68.242294,30.46154 z M212.07185,181.07956 L206.25188,184.534 L206.25188,182.98438 L209.46167,180.60292 L210.88081,180.33969 L211.64597,180.56046 z M206.02673,184.9182 L197.48653,179.15794 L203.93912,178.40991 L206.05734,180.96375 L206.25188,182.98438 L206.25188,184.534 z M137.25375,179.39108 L132.18068,183.90776 L133.33162,177.07634 L135.52126,176.15811 L138.99155,174.96976 L139.71425,175.94286 z M210.88081,180.33969 L206.14912,177.18015 L206.69066,176.40527 L208.61319,174.08739 L215.39757,169.42667 L211.64597,180.56046 z M147.56657,181.12146 L139.71425,175.94286 L138.99155,174.96976 L138.96246,173.65321 L142.17201,172.31375 L150.52356,171.7974 z M162.36317,174.78136 L152.717,173.34999 L150.90709,171.60431 L152.07945,170.05797 L154.75288,168.45834 L157.51851,169.48431 z M128.44485,173.55658 L124.00171,170.26006 L126.25751,168.52203 L132.131,168.96898 L134.64174,169.37788 L134.74313,169.55124 z M150.52356,171.7974 L142.17201,172.31375 L143.32187,170.6075 L146.60196,167.86969 L152.07945,170.05797 L150.90709,171.60431 z M122.68382,171.06926 L112.076,162.32446 L113.0425,162.46011 L124.97593,166.25462 L126.25751,168.52203 L124.00171,170.26006 z M152.07945,170.05797 L146.60196,167.86969 L144.1159,161.9673 L146.44942,160.05843 L153.47244,160.2883 L154.75288,168.45834 z M126.49204,161.21278 L113.0425,162.46011 L112.076,162.32446 L107.29881,161.01459 L107.85492,160.45346 L117.57618,155.54279 z M176.82124,156.1175 L164.81792,160.57034 L160.60422,157.37135 L164.67189,152.44731 L169.252,152.97011 L178.28374,155.27356 z M153.47244,160.2883 L146.44942,160.05843 L142.0542,154.88586 L148.70166,151.18687 L152.07585,151.18687 L159.1587,157.60968 z M195.31242,161.88846 L188.4873,149.22896 L189.52138,147.91371 L191.49135,146.33032 L201.68848,141.91705 L224.02116,152.29385 z M121.186195,154.34845 L117.60496,155.5225 L117.01063,152.7298 L117.01063,149.12407 L117.10104,149.09052 L122.38728,150.07103 z M176.32002,148.96437 L173.37637,150.78438 L169.252,152.97011 L164.67189,152.44731 L164.6523,151.45837 L175.49448,147.12688 z M186.5475,149.7925 L185.15862,150.30772 L184.3546,148.717 L184.3,148.31187 L184.38495,148.05975 L185.94203,148.44484 z M184.3,148.31187 L180.48814,149.72595 L180.53737,149.21463 L181.4901,146.3872 L184.06412,146.9489 L184.38495,148.05975 z M189.52138,147.91371 L185.94203,148.44484 L184.38495,148.05975 L184.06412,146.9489 L184.448,146.7658 L191.49135,146.33032 z M167.08899,143.8985 L164.29124,142.44548 L157.53317,138.02132 L165.61133,138.56618 L168.14125,141.69458 L168.77968,142.95772 z M176.65804,141.42682 L168.77968,142.95772 L168.14125,141.69458 L168.14125,137.12956 L169.00586,136.55223 L179.54608,137.85559 z M165.61133,138.56618 L157.53317,138.02132 L149.52164,134.62473 L149.41524,134.5368 L162.7018,134.22876 L166.39621,137.51797 z M168.14125,137.12956 L166.39621,137.51797 L162.7018,134.22876 L162.88629,134.19327 L166.77354,134.06787 L169.00586,136.55223 z M179.54608,137.85559 L169.00586,136.55223 L166.77354,134.06787 L168.21608,133.1403 L177.36163,131.63243 L180.71259,136.97314 z M166.77354,134.06787 L162.88629,134.19327 L165.50626,131.2775 L167.15489,130.86977 L167.2023,130.88385 L168.21608,133.1403 z M224.02116,152.29385 L201.68848,141.91705 L198.55162,139.55867 L204.78358,127.999374 L214.6955,130.75713 L230.73819,152.57863 z M175.23013,126.62946 L167.2023,130.88385 L167.15489,130.86977 L165.84875,129.41617 L168.34477,122.62591 L170.62059,123.285484 z M198.29677,139.4311 L192.48917,137.27667 L191.575,129.81592 L191.6764,129.56969 L196.08,127.307785 L199.48262,127.113594 z M214.6955,130.75713 L204.78358,127.999374 L203.19302,124.16407 L203.59187,122.14195 L210.18707,121.76556 L212.23181,122.074585 z M199.48262,127.113594 L196.08,127.307785 L196.08,117.93418 L198.54385,119.129425 L203.59187,122.14195 L203.19302,124.16407 z M212.23181,122.074585 L210.18707,121.76556 L209.19946,116.27 L209.63066,113.87053 L214.25795,116.54076 L216.5697,120.1855 z M180.21187,116.16937 L173.75612,116.16937 L172.51138,114.63019 L172.77371,113.786804 L179.36926,114.09264 L180.28458,116.12995 z M214.25795,116.54076 L209.63066,113.87053 L209.23563,112.94937 L207.9924,108.337395 L211.12401,106.27697 L215.68584,105.94677 z M169.04729,110.56903 L162.5548,106.715416 L162.60506,106.65714 L166.16212,105.14907 L174.63907,106.406944 L174.95299,106.79175 z M207.9924,108.337395 L196.63196,111.53449 L195.17032,107.69724 L197.61603,103.38766 L205.0177,100.18425 L211.12401,106.27697 z M231.00243,114.59992 L216.52522,105.81171 L217.63353,103.96155 L221.84875,101.268486 L228.26187,99.285934 L229.52126,100.31375 z M232.96503,116.10805 L231.00243,114.59992 L229.52126,100.31375 L233.91402,101.85756 L234.67888,102.756065 L236.40431,110.11702 z M183.14186,106.73419 L177.9964,107.85702 L176.01654,106.98902 L179.3468,102.9739 L186.08926,99.472176 L187.5162,101.541435 z M162.5548,106.715416 L154.98563,108.11938 L158.48878,100.32201 L162.44882,102.13006 L163.10632,103.49597 L162.60506,106.65714 z M242.23172,106.15416 L238.67033,108.186714 L238.80188,107.11313 L241.022,100.524376 L241.1187,100.53742 L243.73985,104.10276 z M238.67033,108.186714 L236.40431,110.11702 L234.67888,102.756065 L237.8525,101.57875 L238.80188,101.343956 L238.80188,107.11313 z M205.0177,100.18425 L197.61603,103.38766 L196.43413,100.75698 L197.98529,98.290855 L201.48785,95.96573 L202.81229,95.75665 z M237.8525,101.57875 L235.81813,100.069374 L238.27599,98.85366 L238.90234,98.92337 L240.10907,100.26634 L238.80188,101.343956 z M238.27599,98.85366 L231.04572,94.464615 L231.09169,93.59497 L235.16243,93.9574 L241.08917,95.8812 L238.90234,98.92337 z M174.78688,98.74867 L171.62524,100.21475 L170.28719,99.86178 L168.52698,98.74786 L165.73822,95.96257 L174.78688,90.20812 z M137.45506,94.763054 L97.03859,107.38891 L96.056564,106.66031 L136.64326,88.59269 L138.15579,93.45557 L137.85167,94.1325 z M248.09395,89.69324 L235.16243,93.9574 L231.09169,93.59497 L229.28267,90.44377 L229.33646,90.33567 L243.38823,88.330765 z M171.931,87.29575 L161.70753,94.8809 L160.83405,94.69943 L165.7,83.86875 L166.00732,83.577835 L168.53532,84.62818 z M221.84875,92.61424 L215.59918,93.29613 L212.28078,91.607864 L218.86118,87.94619 L220.76375,88.81486 L224.93936,91.19796 z M155.79938,93.226875 L153.84637,88.879875 L156.60358,87.71092 L158.79652,95.032524 L157.48991,95.578926 L157.0646,95.57367 z M218.86118,87.94619 L212.28078,91.607864 L206.18477,89.714584 L205.32462,87.257576 L211.61037,82.49032 L217.28593,84.67375 z M224.93936,91.19796 L220.76375,88.81486 L220.76375,86.485 L229.25784,88.585686 L229.33646,90.33567 L229.28267,90.44377 z M243.38823,88.330765 L229.33646,90.33567 L229.25784,88.585686 L229.32515,85.63905 L231.885,83.265 L235.7503,80.39719 z M229.25784,88.585686 L220.76375,86.485 L218.3225,84.67375 L222.6052,84.17204 L227.57268,84.84214 L229.32515,85.63905 z M165.7,83.86875 L156.69582,87.20901 L150.43562,83.93042 L150.48488,83.845146 L165.71371,82.90358 L166.00732,83.577835 z M165.71371,82.90358 L150.48488,83.845146 L150.76326,82.433815 L162.85187,79.743126 L164.15738,79.54941 L165.3449,80.89691 z M192.13509,87.36437 L189.69765,81.93912 L194.654,79.079 L197.28555,79.9332 L198.18921,80.603645 L200.57204,85.5759 z M227.57268,84.84214 L223.9486,80.360756 L223.14215,78.20676 L223.76784,77.24259 L231.885,83.265 L229.32515,85.63905 z M184.64229,79.44125 L179.53375,79.44125 L178.6793,78.80731 L177.20912,76.0384 L179.70648,72.416885 L185.93073,73.70563 z M223.14215,78.20676 L217.55396,80.27979 L212.18185,81.07694 L211.50426,77.12688 L223.81313,77.12688 L223.76784,77.24259 z M197.28555,79.9332 L194.654,79.079 L191.04855,76.6366 L189.63898,73.90138 L193.12755,71.55573 L198.01033,75.63129 z M200.14044,71.96009 L198.21986,75.52247 L198.01033,75.63129 L193.12755,71.55573 L195.69046,68.545 L199.94897,71.15505 z M204.28531,73.12703 L201.39743,74.19834 L200.14044,71.96009 L199.94897,71.15505 L204.81612,71.51617 L205.6072,71.65591 z M152.81563,73.70563 L147.78915,75.18001 L132.74725,71.52411 L130.16748,69.58489 L150.10312,67.36625 L152.81563,67.36625 z M161.77435,75.08432 L159.63286,74.30837 L158.6832,69.02392 L159.30096,68.107216 L162.71625,68.614 L165.82704,71.383606 z M216.69342,72.89594 L212.07816,74.69817 L210.23021,72.83354 L212.36543,68.477 L213.6308,67.42083 L215.45743,69.22781 z M212.36543,68.477 L210.23021,72.83354 L209.36359,72.32359 L209.02303,69.0388 L209.21967,68.23636 L210.60695,67.82465 z M166.25098,71.20887 L162.71625,63.34125 L161.36,50.26 L161.84433,48.143906 L172.76888,67.59666 L167.3684,70.82795 z M210.495,65.9 L209.1,67.97 L202.60938,63.154373 L202.41765,62.92161 L209.4073,65.05697 L210.08507,65.44379 z M187.26437,67.219185 L178.77664,70.61006 L177.3693,69.13595 L179.66937,66.62636 L183.0966,64.83146 L194.73099,62.105576 z M240.31566,71.4001 L236.63188,67.49563 L236.63188,63.160126 L237.35521,63.37479 L242.05687,66.86313 L243.17426,67.98823 z M213.70221,66.97046 L211.12872,66.276146 L210.495,65.9 L210.08507,65.44379 L217.23134,63.322956 L217.6239,64.060814 z M129.50607,30.034922 L115.81358,39.855232 L110.259476,35.973328 L114.58066,25.223663 L122.29677,12.925823 L127.72434,23.832039 z M155.44562,44.357132 L129.50607,30.034922 L127.72434,23.832039 L139.1175,26.905851 L164.97585,40.858746 L161.12955,43.274666 z M80.12063,25.003124 L73.33938,27.51875 L73.33938,21.380625 L86.359375,-2.769375 L87.71843,8.7256 L84.950775,21.419462 z M230.72997,181.01645 L213.02527,181.52167 L212.07185,181.07956 L211.64597,180.56046 L215.39757,169.42667 L232.28697,152.85362 L236.38892,153.0259 z M129.75937,174.73312 L128.80354,175.0877 L127.89579,174.78157 L127.79458,174.64212 L128.44485,173.55658 L134.74313,169.55124 L134.86012,169.68723 z M175.48218,186.54262 L162.36317,174.78136 L157.51851,169.48431 L159.1436,168.77507 L172.97592,166.90912 L182.80392,172.77112 L181.47302,177.77643 z M178.28374,155.27356 L169.252,152.97011 L173.37637,150.78438 L178.58438,150.78438 L179.6952,151.60854 L179.85999,152.05171 L180.74698,155.45186 z M107.29881,161.01459 L88.10313,168.58063 L90.896645,163.9571 L108.59401,142.07326 L109.55125,144.97328 L109.55125,145.35063 L107.85492,160.45346 z M152.07585,151.18687 L148.70166,151.18687 L147.86888,149.70398 L148.78188,147.89763 L149.56062,147.84947 L151.51521,148.09117 L152.56317,148.53546 z M179.6952,151.60854 L178.58438,150.78438 L176.32002,148.96437 L175.49448,147.12688 L175.98207,145.83488 L180.53737,149.21463 L180.48814,149.72595 z M191.49135,146.33032 L184.448,146.7658 L187.61496,137.36708 L192.48917,137.27667 L198.29677,139.4311 L198.55162,139.55867 L201.68848,141.91705 z M165.50626,131.2775 L162.88629,134.19327 L162.7018,134.22876 L149.41524,134.5368 L146.3776,133.11339 L143.87126,131.7545 L164.6721,130.03973 z M196.08,127.307785 L191.6764,129.56969 L191.12485,124.045074 L191.7061,121.816956 L191.75233,121.73119 L195.16756,117.3874 L196.08,117.93418 z M216.5697,120.1855 L214.25795,116.54076 L215.68584,105.94677 L216.52522,105.81171 L231.00243,114.59992 L232.96503,116.10805 L233.6522,117.83844 z M168.98978,110.76341 L158.9028,119.94819 L133.68445,120.75294 L135.42917,119.0016 L154.98563,108.11938 L162.5548,106.715416 L169.04729,110.56903 z M190.63527,110.830765 L183.14186,106.73419 L187.5162,101.541435 L189.51575,102.30325 L195.17032,107.69724 L196.63196,111.53449 L195.94258,112.30739 z M179.3468,102.9739 L176.01654,106.98902 L174.95299,106.79175 L174.63907,106.406944 L171.62524,100.21475 L174.78688,98.74867 L177.36786,98.569145 z M154.98563,108.11938 L135.42917,119.0016 L143.49788,104.284874 L150.21104,95.92435 L157.0646,95.57367 L157.48991,95.578926 L158.48878,100.32201 z M194.83224,98.68075 L190.38374,101.98125 L189.51575,102.30325 L187.5162,101.541435 L186.08926,99.472176 L185.23102,96.81896 L185.66417,95.76556 z M146.6869,91.873184 L138.15579,93.45557 L136.64326,88.59269 L137.88786,87.53246 L140.22768,86.05177 L145.00835,87.381874 L145.54947,88.3569 z M157.0646,95.57367 L150.21104,95.92435 L147.11002,92.626595 L146.6869,91.873184 L145.54947,88.3569 L152.92732,88.96511 L155.79938,93.226875 z M153.84637,88.879875 L152.92732,88.96511 L145.54947,88.3569 L145.00835,87.381874 L150.43562,83.93042 L156.69582,87.20901 L156.60358,87.71092 z M182.8224,89.35022 L175.32556,89.542015 L171.931,87.29575 L168.53532,84.62818 L174.83904,82.28971 L181.34076,84.35708 L182.50108,86.01264 z M192.13509,87.36437 L185.45494,90.63098 L182.8224,89.35022 L182.50108,86.01264 L186.68248,80.73869 L186.81712,80.71788 L189.69765,81.93912 z M222.6052,84.17204 L218.3225,84.67375 L217.28593,84.67375 L211.61037,82.49032 L212.18185,81.07694 L217.55396,80.27979 L221.26593,81.85353 z M186.68248,80.73869 L184.64229,79.44125 L185.93073,73.70563 L187.26437,73.70563 L189.63898,73.90138 L191.04855,76.6366 L186.81712,80.71788 z M223.81313,77.12688 L211.50426,77.12688 L211.41211,76.75083 L212.07816,74.69817 L216.69342,72.89594 L226.19113,71.52098 L226.55592,71.869835 z M248.3925,78.06125 L243.2775,77.42875 L236.64543,75.78856 L236.5447,75.38031 L239.49312,73.192764 L255.11473,74.43457 L268.005,77.09117 z M203.36256,76.49117 L198.18921,80.603645 L197.28555,79.9332 L198.01033,75.63129 L198.21986,75.52247 L201.6135,74.893 L202.84187,75.804375 z M170.93124,74.3525 L164.09816,79.42221 L162.54518,76.86731 L161.77435,75.08432 L165.82704,71.383606 L166.25098,71.20887 L167.3684,70.82795 z M204.81612,71.51617 L199.94897,71.15505 L195.69046,68.545 L195.8538,61.63698 L197.12428,59.49469 L200.14998,61.40943 L200.33495,61.54194 z M189.63898,73.90138 L187.26437,73.70563 L187.26437,67.219185 L194.73099,62.105576 L195.8538,61.63698 L195.69046,68.545 L193.12755,71.55573 z M204.81612,71.51617 L200.33495,61.54194 L202.41765,62.92161 L202.60938,63.154373 L205.04633,67.07183 L206.71924,71.6229 L205.6072,71.65591 z M76.17517,33.30316 L64.62451,42.34911 L68.05966,30.625269 L68.242294,30.46154 L72.83078,29.028126 L75.188805,29.028126 L77.47594,31.694687 z M101.42404,35.36353 L91.62547,39.143883 L88.4714,34.823666 L85.133316,29.003555 L84.950775,21.419462 L87.71843,8.7256 L98.599464,26.409365 z M203.93912,178.40991 L197.48653,179.15794 L181.47302,177.77643 L182.80392,172.77112 L183.86423,171.72878 L198.62674,173.41382 L206.69066,176.40527 L206.14912,177.18015 z M166.2079,161.78673 L159.1436,168.77507 L157.51851,169.48431 L154.75288,168.45834 L153.47244,160.2883 L159.1587,157.60968 L160.60422,157.37135 L164.81792,160.57034 z M140.27733,163.35556 L130.55644,159.0282 L130.87766,155.29457 L135.93138,151.45357 L142.0542,154.88586 L146.44942,160.05843 L144.1159,161.9673 L143.32187,162.32881 z M130.87766,155.29457 L121.186195,154.34845 L122.38728,150.07103 L125.92601,143.3614 L132.70609,134.48427 L134.36295,139.57703 L135.48128,145.10858 L135.93138,151.45357 z M175.49448,147.12688 L164.6523,151.45837 L164.08212,149.61517 L167.08899,143.8985 L168.77968,142.95772 L176.65804,141.42682 L176.8807,142.23451 L175.98207,145.83488 z M149.56062,147.84947 L148.78188,147.89763 L134.36295,139.57703 L132.70609,134.48427 L132.32623,126.240974 L143.87126,131.7545 L146.3776,133.11339 L149.56062,143.74063 z M152.56317,148.53546 L151.51521,148.09117 L149.56062,143.74063 L146.3776,133.11339 L149.41524,134.5368 L149.52164,134.62473 L154.63574,142.45053 L152.78532,148.39973 z M184.06412,146.9489 L181.4901,146.3872 L176.8807,142.23451 L176.65804,141.42682 L179.54608,137.85559 L180.71259,136.97314 L187.61496,137.36708 L184.448,146.7658 z M187.61496,137.36708 L180.71259,136.97314 L177.36163,131.63243 L176.5236,127.34922 L177.56424,126.93625 L184.29758,126.93625 L191.575,129.81592 L192.48917,137.27667 z M194.92792,116.94005 L183.43262,117.32772 L180.28458,116.12995 L179.36926,114.09264 L179.37212,114.0659 L186.96298,111.24993 L190.63527,110.830765 L195.94258,112.30739 z M168.52698,98.74786 L162.44882,102.13006 L158.48878,100.32201 L157.48991,95.578926 L158.79652,95.032524 L160.83405,94.69943 L161.70753,94.8809 L165.73822,95.96257 z M243.75696,99.681046 L241.1187,100.53742 L241.022,100.524376 L240.10907,100.26634 L238.90234,98.92337 L241.08917,95.8812 L258.56842,91.55837 L258.67792,91.56276 z M211.12401,106.27697 L205.0177,100.18425 L202.81229,95.75665 L203.53882,94.75044 L215.8487,98.66465 L217.63353,103.96155 L216.52522,105.81171 L215.68584,105.94677 z M228.26187,99.285934 L221.84875,101.268486 L221.84875,92.61424 L224.93936,91.19796 L229.28267,90.44377 L231.09169,93.59497 L231.04572,94.464615 L230.97964,94.62298 z M243.38823,88.330765 L235.7503,80.39719 L236.52055,78.84605 L246.26125,82.26934 L261.81488,91.37971 L258.67792,91.56276 L258.56842,91.55837 L248.09395,89.69324 z M174.83904,82.28971 L168.53532,84.62818 L166.00732,83.577835 L165.71371,82.90358 L165.3449,80.89691 L176.86081,76.112236 L177.20912,76.0384 L178.6793,78.80731 z M231.885,83.265 L223.76784,77.24259 L223.81313,77.12688 L226.55592,71.869835 L236.5447,75.38031 L236.64543,75.78856 L236.52055,78.84605 L235.7503,80.39719 z M205.32462,87.257576 L200.57204,85.5759 L198.18921,80.603645 L203.36256,76.49117 L211.41211,76.75083 L211.50426,77.12688 L212.18185,81.07694 L211.61037,82.49032 z M162.54518,76.86731 L150.91687,79.743126 L150.39157,79.81399 L147.78915,75.18001 L152.81563,73.70563 L154.08145,73.70563 L159.63286,74.30837 L161.77435,75.08432 z M176.86081,76.112236 L170.93124,74.3525 L167.3684,70.82795 L172.76888,67.59666 L177.3693,69.13595 L178.77664,70.61006 L179.70648,72.416885 L177.20912,76.0384 z M236.5447,75.38031 L226.55592,71.869835 L226.19113,71.52098 L225.94736,68.53683 L228.80261,65.006134 L236.63188,67.49563 L240.31566,71.4001 L239.49312,73.192764 z M225.94736,68.53683 L219.45464,65.273575 L217.6239,64.060814 L217.23134,63.322956 L216.96982,62.54684 L216.94872,61.889225 L231.21346,60.713276 L228.80261,65.006134 z M143.32187,170.6075 L142.17201,172.31375 L138.96246,173.65321 L134.86012,169.68723 L134.74313,169.55124 L134.64174,169.37788 L135.18437,168.39375 L140.27733,163.35556 L143.32187,162.32881 z M126.49204,161.21278 L117.57618,155.54279 L117.60496,155.5225 L121.186195,154.34845 L130.87766,155.29457 L130.55644,159.0282 L129.60031,160.10771 L127.89471,161.11134 L127.39022,161.32867 z M159.1587,157.60968 L152.07585,151.18687 L152.56317,148.53546 L152.78532,148.39973 L160.76938,147.97661 L164.08212,149.61517 L164.6523,151.45837 L164.67189,152.44731 L160.60422,157.37135 z M181.03741,123.81687 L177.56424,126.93625 L176.5236,127.34922 L175.23013,126.62946 L170.62059,123.285484 L180.21187,116.16937 L180.28458,116.12995 L183.43262,117.32772 L181.75928,122.79037 z M209.23563,112.94937 L206.25188,116.27 L198.54385,119.129425 L196.08,117.93418 L195.16756,117.3874 L194.92792,116.94005 L195.94258,112.30739 L196.63196,111.53449 L207.9924,108.337395 z M179.36926,114.09264 L172.77371,113.786804 L168.98978,110.76341 L169.04729,110.56903 L174.95299,106.79175 L176.01654,106.98902 L177.9964,107.85702 L178.94865,110.40048 L179.37212,114.0659 z M177.36786,98.569145 L174.78688,98.74867 L174.78688,90.20812 L175.32556,89.542015 L182.8224,89.35022 L185.45494,90.63098 L186.29039,93.14684 L185.66417,95.76556 L185.23102,96.81896 z M201.48785,95.96573 L186.29039,93.14684 L185.45494,90.63098 L192.13509,87.36437 L200.57204,85.5759 L205.32462,87.257576 L206.18477,89.714584 L203.53882,94.75044 L202.81229,95.75665 z M150.43562,83.93042 L145.00835,87.381874 L140.22768,86.05177 L135.46428,78.01965 L132.74725,71.52411 L147.78915,75.18001 L150.39157,79.81399 L150.76326,82.433815 L150.48488,83.845146 z M211.41211,76.75083 L203.36256,76.49117 L202.84187,75.804375 L204.28531,73.12703 L205.6072,71.65591 L206.71924,71.6229 L209.36359,72.32359 L210.23021,72.83354 L212.07816,74.69817 z M152.81563,67.36625 L150.10312,67.36625 L150.10312,46.559235 L155.44562,44.357132 L161.12955,43.274666 L161.84433,48.143906 L161.36,50.26 L157.6061,61.400623 L153.62204,66.85769 z M182.80392,172.77112 L172.97592,166.90912 L167.81935,162.79633 L176.82124,156.1175 L178.28374,155.27356 L180.74698,155.45186 L181.90912,156.09395 L187.67125,160.87802 L190.62486,163.64334 L183.86423,171.72878 z M164.6721,130.03973 L143.87126,131.7545 L132.32623,126.240974 L129.68864,122.52067 L133.68445,120.75294 L158.9028,119.94819 L165.52634,121.54013 L167.29155,122.16474 L168.34477,122.62591 L165.84875,129.41617 z M125.92601,143.3614 L117.10104,149.09052 L117.01063,149.12407 L109.55125,144.97328 L108.59401,142.07326 L108.46912,141.16208 L108.10478,123.591736 L110.74426,118.22593 L129.68864,122.52067 L132.32623,126.240974 L132.70609,134.48427 z" fill="none" stroke="gold" stroke-width="0.6"/>
</g>
<g inkscape:groupmode="layer" inkscape:label="white">
<path d="M141.2025,190.33 L135.4893,181.85234 L138.25375,179.39108 z M167.63359,236.08704 L158.34106,220 L168.66164,220 z M210.46167,180.60292 L207.25188,182.98438 L207.05734,180.96375 z M111.08199,242.97609 L105.14297,220 L114.32624,220 z M207.69066,176.40527 L199.62674,173.41382 L209.61319,174.08739 z M179.58438,150.78438 L174.37637,150.78438 L177.32002,148.96437 z M70.27062,149.57687 L66.06625,149.57687 L69.21953,148.4071 z M123.38728,150.07103 L118.10104,149.09052 L126.92601,143.3614 z M152.51521,148.09117 L150.56062,147.84947 L150.56062,143.74063 z M187.96298,111.24993 L180.37212,114.0659 L179.94865,110.40048 z M-14.651747,149.03252 L-10,148.26555 L-10,150.13693 z M156.79938,93.226875 L153.92732,88.96511 L154.84637,88.879875 z M-27.104357,59.218422 L-10,60.738777 L-10,71.90875 z M93.84928,-14.807106 L92.801186,-10 L91.25762,-10 z M276.65192,-10 L300,-27.881573 L300,-10 z M95.715996,184.44612 L84.289665,182.48975 L87.52224,176.49384 L95.36218,180.98103 z M84.289665,182.48975 L81.145744,183.45023 L86.4648,175.55743 L87.52224,176.49384 z M105.01528,180.4779 L100.76688,178.90187 L102.45184,178.55461 L105.86302,179.63927 z M105.86302,179.63927 L102.45184,178.55461 L104.7051,177.33878 L107.62915,179.50824 z M107.62915,179.50824 L104.7051,177.33878 L105.3047,176.57616 L109.70051,179.83755 z M66.97041,176.04124 L59.33925,176.04124 L59.667942,174.82191 L60.008335,174.6325 z M59.217186,176.19218 L57.6575,175.035 L59.667942,174.82191 L59.33925,176.04124 z M170.30103,202.88028 L153.717,173.34999 L163.36317,174.78136 L176.48218,186.54262 z M50.383717,171.1318 L46.764214,172.02696 L48.141876,167.68288 L49.71375,168.14937 z M147.60196,167.86969 L144.32187,170.6075 L144.32187,162.32881 L145.1159,161.9673 z M173.97592,166.90912 L160.1436,168.77507 L167.2079,161.78673 L168.81935,162.79633 z M136.18437,168.39375 L130.60031,160.10771 L131.55644,159.0282 L141.27733,163.35556 z M74.105286,158.98718 L65.722664,163.42958 L67.62271,156.38104 L72.65049,156.9441 z M64.543076,164.61644 L62.1679,160.50458 L64.71,158.77568 L64.71,164.36874 z M56.53261,160.68114 L50.297363,158.36806 L52.37781,157.03032 L56.880737,160.3712 z M127.49204,161.21278 L114.42273,162.42485 L112.15831,158.78474 L118.57618,155.54279 z M177.82124,156.1175 L168.81935,162.79633 L167.2079,161.78673 L165.81792,160.57034 z M87.63062,153.40062 L82.12585,153.40062 L81.81055,153.1355 L85.7125,151.9775 z M118.01063,152.7298 L110.55125,145.35063 L110.55125,144.97328 L118.01063,149.12407 z M148.86888,149.70398 L136.48128,145.10858 L135.36295,139.57703 L149.78188,147.89763 z M181.53737,149.21463 L176.98207,145.83488 L177.8807,142.23451 L182.4901,146.3872 z M109.46912,141.16208 L98.26055,151.14131 L102.54938,130.45813 L109.10478,123.591736 z M161.76938,147.97661 L153.78532,148.39973 L155.63574,142.45053 L157.95305,144.26031 z M51.34185,146.10376 L43.71698,144.79826 L53.218285,140.63274 L53.423756,140.69753 z M65.7927,144.89355 L64.24661,146.86 L59.480904,148.70479 L64.71,142.88531 z M169.14125,141.69458 L166.61133,138.56618 L167.39621,137.51797 L169.14125,137.12956 z M168.15489,130.86977 L166.50626,131.2775 L165.6721,130.03973 L166.84875,129.41617 z M192.12485,124.045074 L186.54,126.116875 L187.315,123.81687 L192.7061,121.816956 z M-15.137537,149.00777 L-10,146.74455 L-10,148.26555 L-14.651747,149.03252 z M71.1861,109.993515 L46.943127,118.98688 L83.811714,91.63277 L89.51323,99.30972 z M174.75612,116.16937 L168.29155,122.16474 L166.52634,121.54013 L173.51138,114.63019 z M210.19946,116.27 L207.25188,116.27 L210.23563,112.94937 L210.63066,113.87053 z M40.590164,109.46457 L33.75051,110.47949 L38.456875,107.86063 L41.695423,108.58147 z M167.16212,105.14907 L163.60506,106.65714 L164.10632,103.49597 L168.87,101.98125 z M187.08926,99.472176 L180.3468,102.9739 L178.36786,98.569145 L186.23102,96.81896 z M197.43413,100.75698 L191.38374,101.98125 L195.83224,98.68075 L198.98529,98.290855 z M144.05063,94.1325 L140.64597,95.71127 L138.45506,94.763054 L138.85167,94.1325 z M138.88786,87.53246 L131.15778,85.89383 L136.46428,78.01965 L141.22768,86.05177 z M163.85187,79.743126 L151.76326,82.433815 L151.39157,79.81399 L151.91687,79.743126 z M163.85187,79.743126 L151.91687,79.743126 L166.45506,76.14766 L166.07228,79.41364 z M166.72342,74.96966 L155.08145,73.70563 L157.27406,68.82531 L172.1301,70.05 z M89.4714,34.823666 L77.17517,33.30316 L78.47594,31.694687 L86.133316,29.003555 z M64.483116,26.502155 L42.770046,47.981747 L60.39331,21.104692 L61.69611,22.554583 z M76.188805,29.028126 L73.83078,29.028126 L74.33938,27.51875 L81.12063,25.003124 z M210.46167,180.60292 L207.05734,180.96375 L204.93912,178.40991 L207.14912,177.18015 L211.88081,180.33969 z M133.63919,181.1863 L128.01042,180.22255 L130.49165,178.25893 L131.83357,177.49756 L134.33162,177.07634 z M130.49165,178.25893 L128.01042,180.22255 L125.80688,180.98161 L126.77812,176.65799 L128.24063,175.75375 z M130.49165,178.25893 L128.24063,175.75375 L128.89578,174.78157 L129.80354,175.0877 L131.83357,177.49756 z M59.217186,176.19218 L51.56352,193.22777 L49.572872,178.88043 L52.974197,175.035 L57.6575,175.035 z M128.24063,175.75375 L126.77812,176.65799 L124.2894,173.42665 L128.79459,174.64212 L128.89578,174.78157 z M131.83357,177.49756 L129.80354,175.0877 L130.75937,174.73312 L136.52126,176.15811 L134.33162,177.07634 z M136.52126,176.15811 L130.75937,174.73312 L135.86012,169.68723 L139.96246,173.65321 L139.99155,174.96976 z M97.897255,176.9524 L94.28721,172.36081 L99.47521,170.58427 L101.87974,170.79013 L103.02924,171.80092 z M45.966343,175.44011 L41.418888,174.203 L20.673605,158.04176 L34.141785,160.5105 L46.223045,173.05942 z M53.51918,174.0397 L50.383717,171.1318 L49.71375,168.14937 L57.648064,169.1305 L57.587948,169.2452 z M99.47521,170.58427 L94.28721,172.36081 L87.242546,170.79282 L91.685814,167.02525 L94.08918,167.81776 z M116.12731,176.97415 L109.25364,172.29932 L111.55111,167.31671 L114.02534,164.08235 L119.952774,173.75746 z M46.223045,173.05942 L34.141785,160.5105 L41.644157,161.4846 L48.141876,167.68288 L46.764214,172.02696 z M119.952774,173.75746 L114.02534,164.08235 L114.345085,163.37065 L123.68382,171.06926 L122.56056,172.48602 z M99.47521,170.58427 L94.08918,167.81776 L98.24812,167.20062 L101.7737,168.5085 L101.87974,170.79013 z M101.7737,168.5085 L98.24812,167.20062 L98.11896,166.81729 L101.58767,161.67017 L102.30487,166.4592 z M98.11896,166.81729 L93.80033,163.61314 L94.82401,162.17409 L101.51152,160.85097 L101.58767,161.67017 z M133.131,168.96898 L127.25751,168.52203 L125.97593,166.25462 L128.39023,161.32867 L128.89471,161.11134 z M133.131,168.96898 L128.89471,161.11134 L130.60031,160.10771 L136.18437,168.39375 L135.64174,169.37788 z M125.97593,166.25462 L114.47103,162.59639 L114.42273,162.42485 L127.49204,161.21278 L128.39023,161.32867 z M92.17949,165.56015 L82.34803,161.58144 L89.08969,158.24686 L94.82401,162.17409 L93.80033,163.61314 z M65.722664,163.42958 L64.71,164.36874 L64.71,158.77568 L67.083435,156.28102 L67.62271,156.38104 z M59.488438,161.29968 L55.623123,162.25563 L56.53261,160.68114 L56.880737,160.3712 L57.867104,160.09676 z M55.623123,162.25563 L54.14168,163.35477 L46.207752,160.73856 L50.297363,158.36806 L56.53261,160.68114 z M59.488438,161.29968 L57.867104,160.09676 L58.313023,156.78833 L60.976322,160.74033 L59.88746,161.41356 z M89.12419,157.17177 L83.678764,155.03287 L82.12585,153.40062 L87.63062,153.40062 L90.812065,154.87589 z M56.766922,153.53265 L42.235,152.5525 L49.455135,150.76688 L57.720562,152.99684 L57.680378,153.03328 z M85.7125,151.9775 L81.81055,153.1355 L81.00217,152.82362 L83.61855,150.3278 L87.41668,149.7016 z M191.62486,163.64334 L188.67125,160.87802 L188.67125,149.69986 L189.4873,149.22896 L196.31242,161.88846 z M188.67125,160.87802 L182.90912,156.09395 L186.15862,150.30772 L187.5475,149.7925 L188.67125,149.69986 z M149.70166,151.18687 L143.0542,154.88586 L136.93138,151.45357 L136.48128,145.10858 L148.86888,149.70398 z M186.15862,150.30772 L182.90912,156.09395 L181.74698,155.45186 L180.85999,152.05171 L185.3546,148.717 z M185.3546,148.717 L180.85999,152.05171 L180.6952,151.60854 L181.48814,149.72595 L185.3,148.31187 z M92.66714,153.39368 L87.76625,149.49782 L87.76625,142.64398 L90.15058,141.53459 L96.80479,152.39597 z M188.67125,149.69986 L187.5475,149.7925 L186.94203,148.44484 L190.52138,147.91371 L189.4873,149.22896 z M109.59401,142.07326 L100.15711,153.74255 L97.58574,152.50026 L98.26055,151.14131 L109.46912,141.16208 z M97.58574,152.50026 L96.80479,152.39597 L90.15058,141.53459 L102.54938,130.45813 L98.26055,151.14131 z M54.850063,148.47 L48.570625,148.47 L40.507103,145.4787 L43.71698,144.79826 L51.34185,146.10376 z M82.389114,147.13524 L76.06218,150.65587 L74.31877,145.64359 L77.69883,141.60327 L86.70355,142.79099 z M165.08212,149.61517 L161.76938,147.97661 L157.95305,144.26031 L165.29124,142.44548 L168.08899,143.8985 z M64.71,142.88531 L59.480904,148.70479 L59.41094,148.73593 L57.762985,142.62257 L64.71,141.88625 z M165.29124,142.44548 L157.95305,144.26031 L155.63574,142.45053 L150.52164,134.62473 L158.53317,138.02132 z M64.88845,141.79167 L61.56802,136.86458 L62.714375,136.52437 L68.32949,140.69043 L67.28687,141.37297 z M77.256516,141.15355 L68.962814,140.82968 L68.486084,140.66891 L71.898125,133.07437 L77.1875,140.92313 z M68.32949,140.69043 L62.714375,136.52437 L71.213425,130.47086 L71.898125,133.07437 L68.486084,140.66891 z M59.05896,138.84354 L49.655624,131.86688 L52.15842,129.83722 L52.76767,129.8231 L61.26125,136.9125 z M178.36163,131.63243 L169.21608,133.1403 L168.2023,130.88385 L176.23013,126.62946 L177.5236,127.34922 z M205.78358,127.999374 L199.55162,139.55867 L199.29677,139.4311 L200.48262,127.113594 L204.19302,124.16407 z M46.056194,133.87141 L41.925,127.74125 L42.4675,127.33875 L49.113125,132.26938 L47.50772,133.57129 z M41.925,127.74125 L33.137928,127.74125 L44.014767,121.844 L44.892796,121.94051 L42.4675,127.33875 z M192.575,129.81592 L185.29758,126.93625 L186.54,126.116875 L192.12485,124.045074 L192.6764,129.56969 z M186.54,126.116875 L185.29758,126.93625 L178.56424,126.93625 L182.03741,123.81687 L187.315,123.81687 z M58.78125,127.964066 L52.76767,129.8231 L52.15842,129.83722 L47.76401,122.85072 L54.48766,120.000145 z M187.315,123.81687 L182.03741,123.81687 L182.75928,122.79037 L192.75233,121.73119 L192.7061,121.816956 z M192.75233,121.73119 L182.75928,122.79037 L184.43262,117.32772 L195.92792,116.94005 L196.16756,117.3874 z M181.21187,116.16937 L171.62059,123.285484 L169.34477,122.62591 L168.29155,122.16474 L174.75612,116.16937 z M211.18707,121.76556 L204.59187,122.14195 L199.54385,119.129425 L207.25188,116.27 L210.19946,116.27 z M173.51138,114.63019 L166.52634,121.54013 L159.9028,119.94819 L169.98978,110.76341 L173.77371,113.786804 z M215.25795,116.54076 L210.63066,113.87053 L210.23563,112.94937 L208.9924,108.337395 L217.0809,103.015625 z M46.320583,112.96917 L38.780968,114.83381 L40.590164,109.46457 L41.695423,108.58147 L57.31445,103.03923 z M38.780968,114.83381 L36.199394,116.252594 L18.330976,114.56531 L33.75051,110.47949 L40.590164,109.46457 z M187.96298,111.24993 L179.94865,110.40048 L178.9964,107.85702 L184.14186,106.73419 L191.63527,110.830765 z M175.63907,106.406944 L167.16212,105.14907 L168.87,101.98125 L171.28719,99.86178 L172.62524,100.21475 z M168.87,101.98125 L164.10632,103.49597 L163.44882,102.13006 L169.52698,98.74786 L171.28719,99.86178 z M198.61603,103.38766 L196.17032,107.69724 L190.51575,102.30325 L191.38374,101.98125 L197.43413,100.75698 z M144.49788,104.284874 L140.64597,95.71127 L144.05063,94.1325 L148.11002,92.626595 L151.21104,95.92435 z M144.05063,94.1325 L138.85167,94.1325 L139.15579,93.45557 L147.6869,91.873184 L148.11002,92.626595 z M175.78688,90.20812 L166.73822,95.96257 L162.70753,94.8809 L172.931,87.29575 L176.32556,89.542015 z M161.83405,94.69943 L159.79652,95.032524 L157.60358,87.71092 L157.69582,87.20901 L166.7,83.86875 z M166.71371,82.90358 L151.48488,83.845146 L151.76326,82.433815 L163.85187,79.743126 L166.07228,79.41364 z M157.27406,68.82531 L155.08145,73.70563 L153.81563,73.70563 L153.81563,67.36625 L154.62204,66.85769 z M86.133316,29.003555 L78.47594,31.694687 L76.188805,29.028126 L81.12063,25.003124 L85.950775,21.419462 z M73.83078,29.028126 L69.242294,30.46154 L70.51927,26.482313 L74.33938,21.380625 L74.33938,27.51875 z M69.05966,30.625269 L64.483116,26.502155 L61.69611,22.554583 L70.51927,26.482313 L69.242294,30.46154 z M134.33987,181.66283 L117.70651,196.06053 L118.42979,185.54271 L125.80688,180.98161 L128.01042,180.22255 L133.63919,181.1863 z M207.02673,184.9182 L198.48653,179.15794 L204.93912,178.40991 L207.05734,180.96375 L207.25188,182.98438 L207.25188,184.534 z M213.07185,181.07956 L207.25188,184.534 L207.25188,182.98438 L210.46167,180.60292 L211.88081,180.33969 L212.64597,180.56046 z M211.88081,180.33969 L207.14912,177.18015 L207.69066,176.40527 L209.61319,174.08739 L216.39757,169.42667 L212.64597,180.56046 z M109.70051,179.83755 L105.3047,176.57616 L107.29194,172.44783 L109.25364,172.29932 L116.12731,176.97415 L116.66791,181.45299 z M148.56657,181.12146 L140.71425,175.94286 L139.99155,174.96976 L139.96246,173.65321 L143.17201,172.31375 L151.52356,171.7974 z M59.667942,174.82191 L57.6575,175.035 L52.974197,175.035 L53.51918,174.0397 L57.587948,169.2452 L60.008335,174.6325 z M128.79459,174.64212 L124.2894,173.42665 L122.56056,172.48602 L123.68382,171.06926 L125.00171,170.26006 L129.44485,173.55658 z M163.36317,174.78136 L153.717,173.34999 L151.90709,171.60431 L153.07945,170.05797 L155.75288,168.45834 L158.51851,169.48431 z M129.44485,173.55658 L125.00171,170.26006 L127.25751,168.52203 L133.131,168.96898 L135.64174,169.37788 L135.74313,169.55124 z M151.52356,171.7974 L143.17201,172.31375 L144.32187,170.6075 L147.60196,167.86969 L153.07945,170.05797 L151.90709,171.60431 z M123.68382,171.06926 L114.345085,163.37065 L114.47103,162.59639 L125.97593,166.25462 L127.25751,168.52203 L125.00171,170.26006 z M153.07945,170.05797 L147.60196,167.86969 L145.1159,161.9673 L147.44942,160.05843 L154.47244,160.2883 L155.75288,168.45834 z M98.24812,167.20062 L94.08918,167.81776 L91.685814,167.02525 L92.17949,165.56015 L93.80033,163.61314 L98.11896,166.81729 z M59.486958,167.98158 L54.14168,163.35477 L55.623123,162.25563 L59.488438,161.29968 L59.88746,161.41356 L60.464825,167.83907 z M63.551735,167.99979 L60.464825,167.83907 L59.88746,161.41356 L60.976322,160.74033 L62.1679,160.50458 L64.543076,164.61644 z M56.880737,160.3712 L52.37781,157.03032 L56.766922,153.53265 L57.680378,153.03328 L58.313023,156.78833 L57.867104,160.09676 z M177.82124,156.1175 L165.81792,160.57034 L161.60422,157.37135 L165.67189,152.44731 L170.252,152.97011 L179.28374,155.27356 z M89.08969,158.24686 L82.34803,161.58144 L77.66284,162.67915 L77.466576,162.40733 L83.678764,155.03287 L89.12419,157.17177 z M154.47244,160.2883 L147.44942,160.05843 L143.0542,154.88586 L149.70166,151.18687 L153.07585,151.18687 L160.1587,157.60968 z M87.63062,153.40062 L85.7125,151.9775 L87.41668,149.7016 L87.76625,149.49782 L92.66714,153.39368 L90.812065,154.87589 z M118.57618,155.54279 L112.15831,158.78474 L109.14979,157.82813 L110.55125,145.35063 L118.01063,152.7298 L118.60496,155.5225 z M196.31242,161.88846 L189.4873,149.22896 L190.52138,147.91371 L192.49135,146.33032 L202.68848,141.91705 L225.02116,152.29385 z M70.54188,149.77812 L61.455,153.14906 L59.102173,152.12445 L59.123817,151.04854 L66.06625,149.57687 L70.27062,149.57687 z M105.64676,157.92558 L100.15711,153.74255 L109.59401,142.07326 L110.55125,144.97328 L110.55125,145.35063 L109.14979,157.82813 z M122.186195,154.34845 L118.60496,155.5225 L118.01063,152.7298 L118.01063,149.12407 L118.10104,149.09052 L123.38728,150.07103 z M83.61855,150.3278 L81.00217,152.82362 L76.07784,152.36693 L75.88468,151.36372 L76.06218,150.65587 L82.389114,147.13524 z M177.32002,148.96437 L174.37637,150.78438 L170.252,152.97011 L165.67189,152.44731 L165.6523,151.45837 L176.49448,147.12688 z M87.41668,149.7016 L83.61855,150.3278 L82.389114,147.13524 L86.70355,142.79099 L87.76625,142.64398 L87.76625,149.49782 z M187.5475,149.7925 L186.15862,150.30772 L185.3546,148.717 L185.3,148.31187 L185.38495,148.05975 L186.94203,148.44484 z M185.3,148.31187 L181.48814,149.72595 L181.53737,149.21463 L182.4901,146.3872 L185.06412,146.9489 L185.38495,148.05975 z M190.52138,147.91371 L186.94203,148.44484 L185.38495,148.05975 L185.06412,146.9489 L185.448,146.7658 L192.49135,146.33032 z M68.8404,146.86 L64.24661,146.86 L65.7927,144.89355 L67.28687,144.03133 L70.942856,145.23688 L71.2295,145.46727 z M70.942856,145.23688 L67.28687,144.03133 L67.28687,141.37297 L68.32949,140.69043 L68.486084,140.66891 L68.962814,140.82968 z M67.28687,144.03133 L65.7927,144.89355 L64.71,142.88531 L64.71,141.88625 L64.88845,141.79167 L67.28687,141.37297 z M71.2295,145.46727 L70.942856,145.23688 L68.962814,140.82968 L77.256516,141.15355 L77.69883,141.60327 L74.31877,145.64359 z M168.08899,143.8985 L165.29124,142.44548 L158.53317,138.02132 L166.61133,138.56618 L169.14125,141.69458 L169.77968,142.95772 z M177.65804,141.42682 L169.77968,142.95772 L169.14125,141.69458 L169.14125,137.12956 L170.00586,136.55223 L180.54608,137.85559 z M166.61133,138.56618 L158.53317,138.02132 L150.52164,134.62473 L150.41524,134.5368 L163.7018,134.22876 L167.39621,137.51797 z M169.14125,137.12956 L167.39621,137.51797 L163.7018,134.22876 L163.88629,134.19327 L167.77354,134.06787 L170.00586,136.55223 z M180.54608,137.85559 L170.00586,136.55223 L167.77354,134.06787 L169.21608,133.1403 L178.36163,131.63243 L181.71259,136.97314 z M167.77354,134.06787 L163.88629,134.19327 L166.50626,131.2775 L168.15489,130.86977 L168.2023,130.88385 L169.21608,133.1403 z M225.02116,152.29385 L202.68848,141.91705 L199.55162,139.55867 L205.78358,127.999374 L215.6955,130.75713 L231.73819,152.57863 z M176.23013,126.62946 L168.2023,130.88385 L168.15489,130.86977 L166.84875,129.41617 L169.34477,122.62591 L171.62059,123.285484 z M199.29677,139.4311 L193.48917,137.27667 L192.575,129.81592 L192.6764,129.56969 L197.08,127.307785 L200.48262,127.113594 z M215.6955,130.75713 L205.78358,127.999374 L204.19302,124.16407 L204.59187,122.14195 L211.18707,121.76556 L213.23181,122.074585 z M200.48262,127.113594 L197.08,127.307785 L197.08,117.93418 L199.54385,119.129425 L204.59187,122.14195 L204.19302,124.16407 z M54.48766,120.000145 L47.76401,122.85072 L45.74241,121.96303 L46.73522,119.12184 L46.943127,118.98688 L71.1861,109.993515 z M213.23181,122.074585 L211.18707,121.76556 L210.19946,116.27 L210.63066,113.87053 L215.25795,116.54076 L217.5697,120.1855 z M83.811714,91.63277 L46.943127,118.98688 L46.73522,119.12184 L46.320583,112.96917 L57.31445,103.03923 L81.25256,87.98138 z M181.21187,116.16937 L174.75612,116.16937 L173.51138,114.63019 L173.77371,113.786804 L180.36926,114.09264 L181.28458,116.12995 z M170.04729,110.56903 L163.5548,106.715416 L163.60506,106.65714 L167.16212,105.14907 L175.63907,106.406944 L175.95299,106.79175 z M208.9924,108.337395 L197.63196,111.53449 L196.17032,107.69724 L198.61603,103.38766 L238.82857,85.98385 L217.0809,103.015625 z M184.14186,106.73419 L178.9964,107.85702 L177.01654,106.98902 L180.3468,102.9739 L187.08926,99.472176 L188.5162,101.541435 z M163.5548,106.715416 L155.98563,108.11938 L159.48878,100.32201 L163.44882,102.13006 L164.10632,103.49597 L163.60506,106.65714 z M175.78688,98.74867 L172.62524,100.21475 L171.28719,99.86178 L169.52698,98.74786 L166.73822,95.96257 L175.78688,90.20812 z M138.45506,94.763054 L98.03859,107.38891 L97.056564,106.66031 L137.64326,88.59269 L139.15579,93.45557 L138.85167,94.1325 z M172.931,87.29575 L162.70753,94.8809 L161.83405,94.69943 L166.7,83.86875 L167.00732,83.577835 L169.53532,84.62818 z M156.79938,93.226875 L154.84637,88.879875 L157.60358,87.71092 L159.79652,95.032524 L158.48991,95.578926 L158.0646,95.57367 z M166.7,83.86875 L157.69582,87.20901 L151.43562,83.93042 L151.48488,83.845146 L166.71371,82.90358 L167.00732,83.577835 z M153.81563,73.70563 L148.78915,75.18001 L133.74725,71.52411 L131.16748,69.58489 L151.10312,67.36625 L153.81563,67.36625 z M117.710014,183.98337 L104.92281,180.82094 L105.01528,180.4779 L105.86302,179.63927 L107.62915,179.50824 L109.70051,179.83755 L116.66791,181.45299 z M104.92281,180.82094 L96.60993,186.98856 L95.715996,184.44612 L95.36218,180.98103 L96.9271,179.47165 L100.76688,178.90187 L105.01528,180.4779 z M86.4648,175.55743 L81.145744,183.45023 L67.80759,189.17952 L71.805725,176.86913 L74.41101,172.18318 L76.29394,171.3121 L83.39616,172.33861 z M231.72997,181.01645 L214.02527,181.52167 L213.07185,181.07956 L212.64597,180.56046 L216.39757,169.42667 L233.28697,152.85362 L237.38892,153.0259 z M130.75937,174.73312 L129.80354,175.0877 L128.89578,174.78157 L128.79459,174.64212 L129.44485,173.55658 L135.74313,169.55124 L135.86012,169.68723 z M52.974197,175.035 L49.572872,178.88043 L45.966343,175.44011 L46.223045,173.05942 L46.764214,172.02696 L50.383717,171.1318 L53.51918,174.0397 z M176.48218,186.54262 L163.36317,174.78136 L158.51851,169.48431 L160.1436,168.77507 L173.97592,166.90912 L183.80392,172.77112 L182.47302,177.77643 z M107.29194,172.44783 L103.02924,171.80092 L101.87974,170.79013 L101.7737,168.5085 L102.30487,166.4592 L111.55111,167.31671 L109.25364,172.29932 z M57.648064,169.1305 L49.71375,168.14937 L48.141876,167.68288 L41.644157,161.4846 L46.207752,160.73856 L54.14168,163.35477 L59.486958,167.98158 z M87.242546,170.79282 L83.39616,172.33861 L76.29394,171.3121 L77.66284,162.67915 L82.34803,161.58144 L92.17949,165.56015 L91.685814,167.02525 z M72.65049,156.9441 L67.62271,156.38104 L67.083435,156.28102 L61.455,153.14906 L70.54188,149.77812 L75.88468,151.36372 L76.07784,152.36693 z M179.28374,155.27356 L170.252,152.97011 L174.37637,150.78438 L179.58438,150.78438 L180.6952,151.60854 L180.85999,152.05171 L181.74698,155.45186 z M57.720562,152.99684 L49.455135,150.76688 L48.570625,148.47 L54.850063,148.47 L58.96829,149.79846 L59.123817,151.04854 L59.102173,152.12445 z M153.07585,151.18687 L149.70166,151.18687 L148.86888,149.70398 L149.78188,147.89763 L150.56062,147.84947 L152.51521,148.09117 L153.56317,148.53546 z M180.6952,151.60854 L179.58438,150.78438 L177.32002,148.96437 L176.49448,147.12688 L176.98207,145.83488 L181.53737,149.21463 L181.48814,149.72595 z M192.49135,146.33032 L185.448,146.7658 L188.61496,137.36708 L193.48917,137.27667 L199.29677,139.4311 L199.55162,139.55867 L202.68848,141.91705 z M54.850063,148.47 L51.34185,146.10376 L53.423756,140.69753 L56.71443,141.27882 L57.762985,142.62257 L59.41094,148.73593 L58.96829,149.79846 z M64.71,141.88625 L57.762985,142.62257 L56.71443,141.27882 L59.05896,138.84354 L61.26125,136.9125 L61.56802,136.86458 L64.88845,141.79167 z M56.71443,141.27882 L53.423756,140.69753 L53.218285,140.63274 L47.50772,133.57129 L49.113125,132.26938 L49.655624,131.86688 L59.05896,138.84354 z M61.26125,136.9125 L52.76767,129.8231 L58.78125,127.964066 L73.23083,124.74786 L71.213425,130.47086 L62.714375,136.52437 L61.56802,136.86458 z M166.50626,131.2775 L163.88629,134.19327 L163.7018,134.22876 L150.41524,134.5368 L147.3776,133.11339 L144.87126,131.7545 L165.6721,130.03973 z M49.113125,132.26938 L42.4675,127.33875 L44.892796,121.94051 L45.74241,121.96303 L47.76401,122.85072 L52.15842,129.83722 L49.655624,131.86688 z M197.08,127.307785 L192.6764,129.56969 L192.12485,124.045074 L192.7061,121.816956 L192.75233,121.73119 L196.16756,117.3874 L197.08,117.93418 z M58.78125,127.964066 L54.48766,120.000145 L71.1861,109.993515 L89.51323,99.30972 L91.8566,101.798706 L95.02057,105.44448 L73.23083,124.74786 z M44.014767,121.844 L36.199394,116.252594 L38.780968,114.83381 L46.320583,112.96917 L46.73522,119.12184 L45.74241,121.96303 L44.892796,121.94051 z M169.98978,110.76341 L159.9028,119.94819 L134.68445,120.75294 L136.42917,119.0016 L155.98563,108.11938 L163.5548,106.715416 L170.04729,110.56903 z M191.63527,110.830765 L184.14186,106.73419 L188.5162,101.541435 L190.51575,102.30325 L196.17032,107.69724 L197.63196,111.53449 L196.94258,112.30739 z M180.3468,102.9739 L177.01654,106.98902 L175.95299,106.79175 L175.63907,106.406944 L172.62524,100.21475 L175.78688,98.74867 L178.36786,98.569145 z M155.98563,108.11938 L136.42917,119.0016 L144.49788,104.284874 L151.21104,95.92435 L158.0646,95.57367 L158.48991,95.578926 L159.48878,100.32201 z M195.83224,98.68075 L191.38374,101.98125 L190.51575,102.30325 L188.5162,101.541435 L187.08926,99.472176 L186.23102,96.81896 L186.66417,95.76556 z M178.36786,98.569145 L175.78688,98.74867 L175.78688,90.20812 L176.32556,89.542015 L188.22522,89.23757 L186.66417,95.76556 L186.23102,96.81896 z M147.6869,91.873184 L139.15579,93.45557 L137.64326,88.59269 L138.88786,87.53246 L141.22768,86.05177 L146.00835,87.381874 L146.54947,88.3569 z M158.0646,95.57367 L151.21104,95.92435 L148.11002,92.626595 L147.6869,91.873184 L146.54947,88.3569 L153.92732,88.96511 L156.79938,93.226875 z M154.84637,88.879875 L153.92732,88.96511 L146.54947,88.3569 L146.00835,87.381874 L151.43562,83.93042 L157.69582,87.20901 L157.60358,87.71092 z M166.45506,76.14766 L151.91687,79.743126 L151.39157,79.81399 L148.78915,75.18001 L153.81563,73.70563 L155.08145,73.70563 L166.72342,74.96966 z M77.17517,33.30316 L65.62451,42.34911 L69.05966,30.625269 L69.242294,30.46154 L73.83078,29.028126 L76.188805,29.028126 L78.47594,31.694687 z M135.4893,181.85234 L134.33987,181.66283 L133.63919,181.1863 L134.33162,177.07634 L136.52126,176.15811 L139.99155,174.96976 L140.71425,175.94286 L138.25375,179.39108 z M104.7051,177.33878 L102.45184,178.55461 L100.76688,178.90187 L96.9271,179.47165 L97.897255,176.9524 L103.02924,171.80092 L107.29194,172.44783 L105.3047,176.57616 z M204.93912,178.40991 L198.48653,179.15794 L182.47302,177.77643 L183.80392,172.77112 L184.86423,171.72878 L199.62674,173.41382 L207.69066,176.40527 L207.14912,177.18015 z M95.36218,180.98103 L87.52224,176.49384 L86.4648,175.55743 L83.39616,172.33861 L87.242546,170.79282 L94.28721,172.36081 L97.897255,176.9524 L96.9271,179.47165 z M167.2079,161.78673 L160.1436,168.77507 L158.51851,169.48431 L155.75288,168.45834 L154.47244,160.2883 L160.1587,157.60968 L161.60422,157.37135 L165.81792,160.57034 z M141.27733,163.35556 L131.55644,159.0282 L131.87766,155.29457 L136.93138,151.45357 L143.0542,154.88586 L147.44942,160.05843 L145.1159,161.9673 L144.32187,162.32881 z M83.678764,155.03287 L77.466576,162.40733 L74.105286,158.98718 L72.65049,156.9441 L76.07784,152.36693 L81.00217,152.82362 L81.81055,153.1355 L82.12585,153.40062 z M131.87766,155.29457 L122.186195,154.34845 L123.38728,150.07103 L126.92601,143.3614 L133.70609,134.48427 L135.36295,139.57703 L136.48128,145.10858 L136.93138,151.45357 z M69.21953,148.4071 L66.06625,149.57687 L59.123817,151.04854 L58.96829,149.79846 L59.41094,148.73593 L59.480904,148.70479 L64.24661,146.86 L68.8404,146.86 z M75.88468,151.36372 L70.54188,149.77812 L70.27062,149.57687 L69.21953,148.4071 L68.8404,146.86 L71.2295,145.46727 L74.31877,145.64359 L76.06218,150.65587 z M176.49448,147.12688 L165.6523,151.45837 L165.08212,149.61517 L168.08899,143.8985 L169.77968,142.95772 L177.65804,141.42682 L177.8807,142.23451 L176.98207,145.83488 z M150.56062,147.84947 L149.78188,147.89763 L135.36295,139.57703 L133.70609,134.48427 L133.32623,126.240974 L144.87126,131.7545 L147.3776,133.11339 L150.56062,143.74063 z M153.56317,148.53546 L152.51521,148.09117 L150.56062,143.74063 L147.3776,133.11339 L150.41524,134.5368 L150.52164,134.62473 L155.63574,142.45053 L153.78532,148.39973 z M185.06412,146.9489 L182.4901,146.3872 L177.8807,142.23451 L177.65804,141.42682 L180.54608,137.85559 L181.71259,136.97314 L188.61496,137.36708 L185.448,146.7658 z M188.61496,137.36708 L181.71259,136.97314 L178.36163,131.63243 L177.5236,127.34922 L178.56424,126.93625 L185.29758,126.93625 L192.575,129.81592 L193.48917,137.27667 z M195.92792,116.94005 L184.43262,117.32772 L181.28458,116.12995 L180.36926,114.09264 L180.37212,114.0659 L187.96298,111.24993 L191.63527,110.830765 L196.94258,112.30739 z M169.52698,98.74786 L163.44882,102.13006 L159.48878,100.32201 L158.48991,95.578926 L159.79652,95.032524 L161.83405,94.69943 L162.70753,94.8809 L166.73822,95.96257 z M125.80688,180.98161 L118.42979,185.54271 L117.710014,183.98337 L116.66791,181.45299 L116.12731,176.97415 L119.952774,173.75746 L122.56056,172.48602 L124.2894,173.42665 L126.77812,176.65799 z M66.97041,176.04124 L60.008335,174.6325 L57.587948,169.2452 L57.648064,169.1305 L59.486958,167.98158 L60.464825,167.83907 L63.551735,167.99979 L74.41101,172.18318 L71.805725,176.86913 z M144.32187,170.6075 L143.17201,172.31375 L139.96246,173.65321 L135.86012,169.68723 L135.74313,169.55124 L135.64174,169.37788 L136.18437,168.39375 L141.27733,163.35556 L144.32187,162.32881 z M74.41101,172.18318 L63.551735,167.99979 L64.543076,164.61644 L64.71,164.36874 L65.722664,163.42958 L74.105286,158.98718 L77.466576,162.40733 L77.66284,162.67915 L76.29394,171.3121 z M60.976322,160.74033 L58.313023,156.78833 L57.680378,153.03328 L57.720562,152.99684 L59.102173,152.12445 L61.455,153.14906 L67.083435,156.28102 L64.71,158.77568 L62.1679,160.50458 z M127.49204,161.21278 L118.57618,155.54279 L118.60496,155.5225 L122.186195,154.34845 L131.87766,155.29457 L131.55644,159.0282 L130.60031,160.10771 L128.89471,161.11134 L128.39023,161.32867 z M160.1587,157.60968 L153.07585,151.18687 L153.56317,148.53546 L153.78532,148.39973 L161.76938,147.97661 L165.08212,149.61517 L165.6523,151.45837 L165.67189,152.44731 L161.60422,157.37135 z M182.03741,123.81687 L178.56424,126.93625 L177.5236,127.34922 L176.23013,126.62946 L171.62059,123.285484 L181.21187,116.16937 L181.28458,116.12995 L184.43262,117.32772 L182.75928,122.79037 z M210.23563,112.94937 L207.25188,116.27 L199.54385,119.129425 L197.08,117.93418 L196.16756,117.3874 L195.92792,116.94005 L196.94258,112.30739 L197.63196,111.53449 L208.9924,108.337395 z M180.36926,114.09264 L173.77371,113.786804 L169.98978,110.76341 L170.04729,110.56903 L175.95299,106.79175 L177.01654,106.98902 L178.9964,107.85702 L179.94865,110.40048 L180.37212,114.0659 z M151.43562,83.93042 L146.00835,87.381874 L141.22768,86.05177 L136.46428,78.01965 L133.74725,71.52411 L148.78915,75.18001 L151.39157,79.81399 L151.76326,82.433815 L151.48488,83.845146 z M183.80392,172.77112 L173.97592,166.90912 L168.81935,162.79633 L177.82124,156.1175 L179.28374,155.27356 L181.74698,155.45186 L182.90912,156.09395 L188.67125,160.87802 L191.62486,163.64334 L184.86423,171.72878 z M94.82401,162.17409 L89.08969,158.24686 L89.12419,157.17177 L90.812065,154.87589 L92.66714,153.39368 L96.80479,152.39597 L97.58574,152.50026 L100.15711,153.74255 L105.64676,157.92558 L101.51152,160.85097 z M165.6721,130.03973 L144.87126,131.7545 L133.32623,126.240974 L130.68864,122.52067 L134.68445,120.75294 L159.9028,119.94819 L166.52634,121.54013 L168.29155,122.16474 L169.34477,122.62591 L166.84875,129.41617 z M111.55111,167.31671 L102.30487,166.4592 L101.58767,161.67017 L101.51152,160.85097 L105.64676,157.92558 L109.14979,157.82813 L112.15831,158.78474 L114.42273,162.42485 L114.47103,162.59639 L114.345085,163.37065 L114.02534,164.08235 z M126.92601,143.3614 L118.10104,149.09052 L118.01063,149.12407 L110.55125,144.97328 L109.59401,142.07326 L109.46912,141.16208 L109.10478,123.591736 L111.74426,118.22593 L130.68864,122.52067 L133.32623,126.240974 L133.70609,134.48427 z" fill="none" stroke="white" stroke-width="0.6"/>
</g>
<path d="m 15.815664,12.893319 c -1.445284,-3.0999497 -5.555449,-0.3575 -5.08537,2.32203 1.697826,2.92736 4.504013,-3.54417 4.40859,-2.58178 -1.548999,2.22986 0.741131,6.08701 3.012419,3.25791 2.532153,-2.82358 0.259001,-7.8326797 -3.488671,-7.9011197 -3.217272,0.056 -5.8863857,2.4603197 -7.9308737,4.7238797 -2.354585,2.46752 0.0048,5.887 2.757763,6.62143 3.2195457,1.10867 6.8759417,1.30834 9.9459317,-0.36585 2.270396,-1.12373 5.025949,-2.62031 5.680576,-5.20027 -2.108811,-3.66096 -6.038415,1.28356 -3.842036,3.67822 1.07278,0.89979 4.586982,-2.27037 3.201668,-2.73503 0.03094,3.24357 1.226854,6.37852 1.337023,9.60311 -0.672198,3.54892 -7.469251,0.32096 -4.637082,-2.5164 2.158436,-2.4193 5.610472,-2.84094 8.202925,-4.57369 0.993877,-1.40371 0.353413,-5.25046 3.182464,-3.48957 2.142923,1.43516 -2.250898,5.7532 1.723416,5.02339 1.661189,-0.71663 6.494946,-1.40457 4.601401,-3.95236 -4.205319,-0.68052 -1.190571,5.86505 1.665411,3.46881 1.929752,-0.9247 2.778055,-4.05119 1.423645,-5.35034 0.479155,1.8589 3.849911,7.52574 4.880369,3.32696 0.21201,-1.28088 0.40468,-3.80204 1.01246,-1.23041 0.5858,2.6865 3.83412,4.91909 4.56937,1.07383 0.65272,-1.00894 -0.2696,-4.02739 0.99929,-1.35746 1.10974,2.31613 6.32001,1.46113 6.147,-1.13059 -1.98394,-2.13868 -5.3717,1.45205 -3.78252,3.73454 2.57741,0.96208 6.69797,-0.21041 7.06275,-3.33983 0.41287,-2.63769 0.26643,-5.3430297 -0.11178,-7.9756197 0.67418,3.94149 1.24889,7.9380497 2.39963,11.7713397 2.10586,1.67977 5.7434,1.65022 7.74596,-0.23639 3.03149,-1.85431 -0.26637,-4.76925 -2.71777,-4.54025 -2.11577,0.0793 -5.36257,2.40772 -5.16868,3.85604 2.08262,-2.38818 5.55759,-1.22628 8.30726,-1.6832 3.182,-0.26596 6.46546,-0.57372 9.54494,-1.18158 0.24171,0.4199 -0.27752,0.54338 -0.43067,0.17453" fill="none" stroke="white" stroke-width="1" transform="translate(260,190) scale(0.3)"/>
</svg>