<svg height="210mm" style="background:black" viewBox="0 0 297 210" width="297mm" xmlns="http://www.w3.org/2000/svg" xmlns:inkscape="http://www.inkscape.org/namespaces/inkscape">
<g inkscape:groupmode="layer" inkscape:label="gold">
<path d="M201.30156,163.26187 L196.26083,163.26187 L192.22826,158.774 z M172.65562,91.156876 L169.76875,87.94406 L171.89592,88.338615 z M244.0627,85.96599 L238.71556,82.99057 L244.3419,81.20155 z M199.19937,38.084373 L195.94438,42.914375 L195.29338,41.465374 z M221.68298,183.73347 L217.81013,189.48027 L218.6289,182.79803 L219.77821,181.7903 z M217.81013,189.48027 L216.91539,192.00288 L215.60411,183.24687 L218.6289,182.79803 z M197.01558,170.09415 L189.70563,164.67062 L195.0402,164.67062 L203.31615,168.35475 z M203.31615,168.35475 L195.0402,164.67062 L196.40651,163.91035 L205.43423,167.92914 z M174.01646,144.70421 L159.3893,153.1974 L158.5294,142.3518 L168.458,143.03705 z M156.67694,132.57716 L148.9229,127.783 L156.52972,121.43376 L159.76263,127.998405 z M155.1932,120.90491 L141.17336,119.7047 L141.37616,111.27834 L148.61296,111.14067 z M249.60095,100.25414 L236.71008,105.634 L239.07312,101.07562 L243.93393,96.69643 z M197.35487,91.174126 L189.73029,96.83108 L188.76373,89.659836 L194.31688,90.61063 z M249.67653,92.592636 L238.75772,91.242455 L244.57562,87.54259 L253.8936,87.37798 z M228.49437,89.705 L220.26646,92.75729 L216.695,90.1075 L216.40567,89.705 z M211.59938,85.47875 L209.82333,85.47875 L207.71361,80.78291 L207.84866,80.60888 z M226.53386,84.589066 L217.72888,85.79883 L216.01688,81.35313 L219.54312,80.699066 z M150.71712,78.49038 L135.12805,76.38746 L143.32661,68.38376 L143.37286,68.37089 z M186.38803,69.01495 L180.97893,81.05455 L174.56905,78.74463 L182.0262,64.70002 z M114.66327,74.97892 L108.681656,70.7875 L116.007,70.7875 L122.480835,76.79146 z M143.32661,68.38376 L135.12805,76.38746 L128.45937,78.19528 L133.16264,66.563515 z M131.94633,61.567734 L118.6655,58.28323 L127.05711,49.323807 L137.25252,41.883484 z M113.88081,49.812607 L109.59294,52.039536 L107.807274,51.345566 L110.52646,48.319374 z M110.52646,48.319374 L107.807274,51.345566 L101.9515,51.023743 L105.18168,33.448814 z M184.55188,40.700626 L160.7199,52.488487 L159.16068,51.60522 L150.42862,40.700626 z M231.00336,35.936703 L221.65161,40.70685 L217.95352,37.04853 L228.0152,31.619354 z M239.41835,41.158012 L236.36063,38.889374 L236.36063,28.839453 L249.1375,32.09807 z M203.93074,29.916298 L192.3292,32.99044 L194.98267,30.85767 L209.25732,22.620325 z M205.43423,167.92914 L196.40651,163.91035 L196.26083,163.26187 L201.30156,163.26187 L211.09421,167.13681 z M179.76639,164.48846 L173.66997,156.63246 L192.81325,149.53091 L189.33311,156.8945 L184.50183,162.14621 z M192.81325,149.53091 L173.66997,156.63246 L172.26135,155.03993 L178.04187,144.74687 L198.31413,138.55365 z M172.26135,155.03993 L157.73453,156.23749 L159.3893,153.1974 L174.01646,144.70421 L178.04187,144.74687 z M168.28879,133.95082 L161.16444,128.25842 L167.27055,127.58726 L168.7072,128.05069 L169.35753,133.8407 z M199.05452,138.00914 L169.35753,133.8407 L168.7072,128.05069 L184.70583,126.9716 L205.99934,134.39207 z M145.04364,131.98296 L129.44067,132.75471 L133.28296,123.211 L140.01517,120.51536 L146.88864,128.67485 z M184.70583,126.9716 L168.7072,128.05069 L167.27055,127.58726 L170.38875,119.49 L171.26062,119.49 z M131.213,121.560036 L100.937325,119.313774 L117.14073,105.26223 L117.539604,104.97615 L128.70995,117.75298 z M139.76646,109.54977 L128.70995,117.75298 L117.539604,104.97615 L124.30583,95.54444 L129.46101,96.28175 z M155.1932,120.90491 L148.61296,111.14067 L159.31155,107.4199 L160.91508,118.32567 L156.51842,121.238205 z M170.38875,119.49 L165.37854,118.59273 L171.16542,108.93237 L175.94275,113.1213 L171.26062,119.49 z M183.14006,102.51101 L174.21152,102.61785 L169.69759,94.934746 L173.58017,92.986084 L181.97983,90.459595 z M222.09236,109.569626 L216.695,104.71311 L216.695,90.1075 L220.26646,92.75729 L226.67157,98.5278 z M249.37047,93.80372 L243.67749,96.07809 L238.64688,91.30063 L238.75772,91.242455 L249.67653,92.592636 z M165.88524,94.04737 L155.21458,100.607124 L139.46312,94.76384 L140.64395,93.84394 L163.20891,88.46267 z M163.20891,88.46267 L140.64395,93.84394 L150.44182,81.57684 L160.00375,86.188156 L163.27269,88.2497 z M215.77011,89.28893 L207.00816,91.74479 L209.82333,85.47875 L211.59938,85.47875 L215.81967,89.131805 z M197.35487,91.174126 L194.31688,90.61063 L194.31688,79.63132 L201.81015,87.35289 L201.59149,91.81442 z M163.27269,88.2497 L160.00375,86.188156 L160.00375,81.994606 L167.15544,83.98439 L165.48248,86.354 z M160.00375,86.188156 L150.44182,81.57684 L151.13583,78.7019 L153.39806,77.70623 L160.00375,81.994606 z M226.53386,84.589066 L219.54312,80.699066 L231.3425,76.32188 L231.3425,81.8965 L230.53996,84.39731 z M116.007,70.7875 L108.681656,70.7875 L102.07074,67.31322 L107.82794,64.075165 L115.79,69.9825 z M122.480835,76.79146 L116.007,70.7875 L115.79,69.9825 L121.74307,65.565704 L124.57404,77.56797 z M106.99395,57.97078 L92.52062,55.823124 L92.93362,55.312435 L94.76042,53.517487 L101.67156,51.288082 z M195.53564,55.085865 L180.11682,57.718025 L165.34851,54.00813 L188.01178,41.779266 L191.87563,46.939377 z M194.10945,41.967316 L191.87563,46.939377 L188.01178,41.779266 L187.63426,39.328465 L188.19557,36.482674 z M205.91882,40.6282 L199.7853,37.52546 L199.58261,37.366947 L204.05568,31.677685 L211.70374,36.642746 z M236.36063,38.889374 L231.00336,35.936703 L228.0152,31.619354 L228.50519,25.196812 L236.36063,28.839453 z M204.05568,31.677685 L199.58261,37.366947 L191.22055,33.559887 L192.3292,32.99044 L203.93074,29.916298 z M218.6289,182.79803 L215.60411,183.24687 L207.18689,179.27277 L217.77026,166.99113 L222.62915,164.86858 L219.77821,181.7903 z M168.458,143.03705 L158.5294,142.3518 L153.86792,139.43127 L154.19827,137.33435 L154.90419,136.69838 L165.75122,135.5061 z M165.75122,135.5061 L154.90419,136.69838 L156.67694,132.57716 L159.76263,127.998405 L161.16444,128.25842 L168.28879,133.95082 z M154.19827,137.33435 L145.04364,131.98296 L146.88864,128.67485 L148.9229,127.783 L156.67694,132.57716 L154.90419,136.69838 z M171.16542,108.93237 L165.37854,118.59273 L160.91508,118.32567 L159.31155,107.4199 L159.75772,106.528656 L169.11722,105.97753 z M205.28685,96.96935 L192.82361,112.3809 L191.03711,111.16147 L186.70253,104.17821 L189.14226,102.06639 L202.99832,93.913055 z M169.11722,105.97753 L159.75772,106.528656 L155.21458,100.607124 L165.88524,94.04737 L169.69759,94.934746 L174.21152,102.61785 z M236.71008,105.634 L224.54317,117.78583 L222.09236,109.569626 L226.67157,98.5278 L233.354,91.52837 L239.07312,101.07562 z M239.07312,101.07562 L233.354,91.52837 L233.63545,91.131615 L238.64688,91.30063 L243.67749,96.07809 L243.93393,96.69643 z M202.99832,93.913055 L189.14226,102.06639 L189.73029,96.83108 L197.35487,91.174126 L201.59149,91.81442 L202.91849,93.06404 z M249.60095,100.25414 L243.93393,96.69643 L243.67749,96.07809 L249.37047,93.80372 L250.05286,94.25938 L256.10953,101.74881 z M226.67157,98.5278 L220.26646,92.75729 L228.49437,89.705 L232.36562,89.561386 L233.63545,91.131615 L233.354,91.52837 z M173.58017,92.986084 L172.65562,91.156876 L171.89592,88.338615 L173.05766,87.969215 L182.17017,90.22285 L181.97983,90.459595 z M173.05766,87.969215 L171.89592,88.338615 L169.76875,87.94406 L165.48248,86.354 L167.15544,83.98439 L170.02423,81.2174 z M209.82333,85.47875 L207.00816,91.74479 L202.91849,93.06404 L201.59149,91.81442 L201.81015,87.35289 L207.71361,80.78291 z M194.31688,90.61063 L188.76373,89.659836 L184.26231,88.27352 L183.18431,82.19496 L193.05005,78.273674 L194.31688,79.63132 z M253.8936,87.37798 L244.57562,87.54259 L244.0627,85.96599 L244.3419,81.20155 L244.55959,80.676636 L265.29266,84.72469 z M193.05005,78.273674 L183.18431,82.19496 L180.97893,81.05455 L186.38803,69.01495 L195.27385,74.11898 L195.48413,75.6123 z M209.12381,78.08601 L195.48413,75.6123 L195.27385,74.11898 L198.61844,69.67302 L214.06145,72.72841 L210.80217,77.48415 z M150.71712,78.49038 L143.37286,68.37089 L145.70341,66.13322 L155.87335,76.19381 L153.39806,77.70623 L151.13583,78.7019 z M214.06145,72.72841 L198.61844,69.67302 L202.23254,55.669975 L206.4771,54.91793 L221.21796,57.893375 L222.17075,65.374825 z M131.97404,64.932076 L121.66476,64.71353 L116.53149,60.2034 L118.6655,58.28323 L131.94633,61.567734 L132.10283,64.70277 z M102.07074,67.31322 L74.96997,74.32729 L92.52062,55.823124 L106.99395,57.97078 L111.047966,61.814102 L107.82794,64.075165 z M116.3343,60.224056 L109.59294,52.039536 L113.88081,49.812607 L127.05711,49.323807 L118.6655,58.28323 L116.53149,60.2034 z M188.01178,41.779266 L165.34851,54.00813 L162.17102,53.410213 L160.7199,52.488487 L184.55188,40.700626 L187.63426,39.328465 z M195.53564,55.085865 L191.87563,46.939377 L194.10945,41.967316 L195.29338,41.465374 L195.94438,42.914375 L195.94438,55.110126 z M238.70657,52.248066 L226.22289,55.19821 L221.65161,40.70685 L231.00336,35.936703 L236.36063,38.889374 L239.41835,41.158012 z M228.0152,31.619354 L217.95352,37.04853 L213.61566,35.73489 L214.08644,17.571703 L218.33365,6.2001395 L228.50519,25.196812 z M211.70374,36.642746 L204.05568,31.677685 L203.93074,29.916298 L209.25732,22.620325 L214.08644,17.571703 L213.61566,35.73489 z M196.40651,163.91035 L195.0402,164.67062 L189.70563,164.67062 L184.50183,162.14621 L189.33311,156.8945 L192.22826,158.774 L196.26083,163.26187 z M148.9229,127.783 L146.88864,128.67485 L140.01517,120.51536 L141.17336,119.7047 L155.1932,120.90491 L156.51842,121.238205 L156.52972,121.43376 z M184.70583,126.9716 L171.26062,119.49 L175.94275,113.1213 L191.03711,111.16147 L192.82361,112.3809 L212.28596,132.78 L205.99934,134.39207 z M140.01517,120.51536 L133.28296,123.211 L131.213,121.560036 L128.70995,117.75298 L139.76646,109.54977 L141.37616,111.27834 L141.17336,119.7047 z M191.03711,111.16147 L175.94275,113.1213 L171.16542,108.93237 L169.11722,105.97753 L174.21152,102.61785 L183.14006,102.51101 L186.70253,104.17821 z M117.14073,105.26223 L98.84401,102.12954 L98.12,101.3775 L95.19721,86.19786 L123.78599,94.94276 L124.30583,95.54444 L117.539604,104.97615 z M215.81967,89.131805 L211.59938,85.47875 L207.84866,80.60888 L209.12381,78.08601 L210.80217,77.48415 L216.01688,81.35313 L217.72888,85.79883 z M201.81015,87.35289 L194.31688,79.63132 L193.05005,78.273674 L195.48413,75.6123 L209.12381,78.08601 L207.84866,80.60888 L207.71361,80.78291 z M167.15544,83.98439 L160.00375,81.994606 L153.39806,77.70623 L155.87335,76.19381 L162.48123,72.74381 L172.1164,78.7227 L170.02423,81.2174 z M231.3425,76.32188 L219.54312,80.699066 L216.01688,81.35313 L210.80217,77.48415 L214.06145,72.72841 L222.17075,65.374825 L231.88075,74.47487 z M123.78599,94.94276 L95.19721,86.19786 L89.639915,84.26177 L114.66327,74.97892 L122.480835,76.79146 L124.57404,77.56797 L126.48113,79.374275 z M155.87335,76.19381 L145.70341,66.13322 L155.41885,54.972088 L159.16068,51.60522 L160.7199,52.488487 L162.17102,53.410213 L162.48123,72.74381 z M174.56905,78.74463 L172.1164,78.7227 L162.48123,72.74381 L162.17102,53.410213 L165.34851,54.00813 L180.11682,57.718025 L182.0262,64.70002 z M121.74307,65.565704 L115.79,69.9825 L107.82794,64.075165 L111.047966,61.814102 L116.3343,60.224056 L116.53149,60.2034 L121.66476,64.71353 z M128.45937,78.19528 L126.48113,79.374275 L124.57404,77.56797 L121.74307,65.565704 L121.66476,64.71353 L131.97404,64.932076 L133.16264,66.563515 z M241.26411,74.284134 L231.88075,74.47487 L222.17075,65.374825 L221.21796,57.893375 L226.22289,55.19821 L238.70657,52.248066 L251.13322,55.133644 z M143.32661,68.38376 L133.16264,66.563515 L131.97404,64.932076 L132.10283,64.70277 L155.41885,54.972088 L145.70341,66.13322 L143.37286,68.37089 z M155.41885,54.972088 L132.10283,64.70277 L131.94633,61.567734 L137.25252,41.883484 L145.2248,34.265785 L150.42862,40.700626 L159.16068,51.60522 z M111.047966,61.814102 L106.99395,57.97078 L101.67156,51.288082 L101.9515,51.023743 L107.807274,51.345566 L109.59294,52.039536 L116.3343,60.224056 z M202.23254,55.669975 L195.94438,55.110126 L195.94438,42.914375 L199.19937,38.084373 L199.7853,37.52546 L205.91882,40.6282 L206.4771,54.91793 z M174.01646,144.70421 L168.458,143.03705 L165.75122,135.5061 L168.28879,133.95082 L169.35753,133.8407 L199.05452,138.00914 L198.31413,138.55365 L178.04187,144.74687 z M167.27055,127.58726 L161.16444,128.25842 L159.76263,127.998405 L156.52972,121.43376 L156.51842,121.238205 L160.91508,118.32567 L165.37854,118.59273 L170.38875,119.49 z M148.61296,111.14067 L141.37616,111.27834 L139.76646,109.54977 L129.46101,96.28175 L139.46312,94.76384 L155.21458,100.607124 L159.75772,106.528656 L159.31155,107.4199 z M189.14226,102.06639 L186.70253,104.17821 L183.14006,102.51101 L181.97983,90.459595 L182.17017,90.22285 L184.26231,88.27352 L188.76373,89.659836 L189.73029,96.83108 z M216.695,104.71311 L205.28685,96.96935 L202.99832,93.913055 L202.91849,93.06404 L207.00816,91.74479 L215.77011,89.28893 L216.40567,89.705 L216.695,90.1075 z M173.58017,92.986084 L169.69759,94.934746 L165.88524,94.04737 L163.20891,88.46267 L163.27269,88.2497 L165.48248,86.354 L169.76875,87.94406 L172.65562,91.156876 z M228.49437,89.705 L216.40567,89.705 L215.77011,89.28893 L215.81967,89.131805 L217.72888,85.79883 L226.53386,84.589066 L230.53996,84.39731 L232.36562,89.561386 z M182.17017,90.22285 L173.05766,87.969215 L170.02423,81.2174 L172.1164,78.7227 L174.56905,78.74463 L180.97893,81.05455 L183.18431,82.19496 L184.26231,88.27352 z M244.3419,81.20155 L238.71556,82.99057 L231.3425,81.8965 L231.3425,76.32188 L231.88075,74.47487 L241.26411,74.284134 L241.5579,74.40039 L244.55959,80.676636 z M195.27385,74.11898 L186.38803,69.01495 L182.0262,64.70002 L180.11682,57.718025 L195.53564,55.085865 L195.94438,55.110126 L202.23254,55.669975 L198.61844,69.67302 z M221.21796,57.893375 L206.4771,54.91793 L205.91882,40.6282 L211.70374,36.642746 L213.61566,35.73489 L217.95352,37.04853 L221.65161,40.70685 L226.22289,55.19821 z M195.29338,41.465374 L194.10945,41.967316 L188.19557,36.482674 L188.38272,33.28918 L191.22055,33.559887 L199.58261,37.366947 L199.7853,37.52546 L199.19937,38.084373 z M244.57562,87.54259 L238.75772,91.242455 L238.64688,91.30063 L233.63545,91.131615 L232.36562,89.561386 L230.53996,84.39731 L231.3425,81.8965 L238.71556,82.99057 L244.0627,85.96599 z M150.44182,81.57684 L140.64395,93.84394 L139.46312,94.76384 L129.46101,96.28175 L124.30583,95.54444 L123.78599,94.94276 L126.48113,79.374275 L128.45937,78.19528 L135.12805,76.38746 L150.71712,78.49038 L151.13583,78.7019 z" fill="none" stroke="gold" stroke-width="0.6"/>
</g>
<g inkscape:groupmode="layer" inkscape:label="white">
<path d="M129.7752,241.21445 L128.32744,220 L140.49774,220 z M202.30156,163.26187 L197.26083,163.26187 L193.22826,158.774 z M125.81428,160.93202 L106.01453,148.07814 L107.77532,144.87154 z M136.49724,139.68933 L132.16716,135.98244 L139.92603,132.78433 z M117.50203,121.94273 L114.91837,124.17912 L110.32521,121.055275 z M173.65562,91.156876 L170.76875,87.94406 L172.89592,88.338615 z M223.97896,-12.429375 L222.8875,-10 L222.68906,-10 z M286.96237,-10 L300,-25.200535 L300,-10 z M-12.20259,-10 L-10,-10 L-10,-7.8902006 z M222.68298,183.73347 L218.81013,189.48027 L219.6289,182.79803 L220.77821,181.7903 z M218.81013,189.48027 L217.91539,192.00288 L216.60411,183.24687 L219.6289,182.79803 z M96.58188,182.58188 L80.2433,182.58188 L83.82741,178.10327 L92.8594,179.35974 z M95.225624,178.6575 L92.8594,179.35974 L83.82741,178.10327 L88.19756,168.22876 z M198.01558,170.09415 L190.70563,164.67062 L196.0402,164.67062 L204.31615,168.35475 z M204.31615,168.35475 L196.0402,164.67062 L197.40651,163.91035 L206.43423,167.92914 z M105.89636,148.19176 L100.921875,149.24625 L100.921875,146.82646 L106.00695,148.08406 z M175.01646,144.70421 L160.3893,153.1974 L159.5294,142.3518 L169.458,143.03705 z M154.91386,137.16809 L143.77937,140.92313 L141.43092,132.21112 L146.04364,131.98296 z M83.09543,127.16289 L77.73,132.47063 L76.70924,130.95595 L79.058914,127.81801 z M157.67694,132.57716 L149.9229,127.783 L157.52972,121.43376 L160.76263,127.998405 z M109.29672,120.54656 L102.16259,124.44672 L104.822266,114.58019 L110.89031,118.18188 z M156.1932,120.90491 L142.17336,119.7047 L142.37616,111.27834 L149.61296,111.14067 z M89.575005,110.04488 L80.10148,117.659355 L61.891193,111.09694 L69.51066,99.62437 z M99.84401,102.12954 L93.70991,104.4051 L90.618484,101.3775 L99.12,101.3775 z M198.35487,91.174126 L190.73029,96.83108 L189.76373,89.659836 L195.31688,90.61063 z M44.223583,84.17859 L37.539883,87.2923 L25.96114,85.82798 L55.8341,71.05211 z M151.71712,78.49038 L136.12805,76.38746 L144.32661,68.38376 L144.37286,68.37089 z M115.66327,74.97892 L109.681656,70.7875 L117.007,70.7875 L123.480835,76.79146 z M144.32661,68.38376 L136.12805,76.38746 L129.45937,78.19528 L134.16264,66.563515 z M132.94633,61.567734 L119.6655,58.28323 L128.05711,49.323807 L138.25252,41.883484 z M114.88081,49.812607 L110.59294,52.039536 L108.807274,51.345566 L111.52646,48.319374 z M111.52646,48.319374 L108.807274,51.345566 L102.9515,51.023743 L106.18168,33.448814 z M99.29437,183.2527 L80.11501,187.99599 L80.19036,182.6293 L80.2433,182.58188 L96.58188,182.58188 z M206.43423,167.92914 L197.40651,163.91035 L197.26083,163.26187 L202.30156,163.26187 L212.09421,167.13681 z M180.76639,164.48846 L174.66997,156.63246 L193.81325,149.53091 L190.33311,156.8945 L185.50183,162.14621 z M193.81325,149.53091 L174.66997,156.63246 L173.26135,155.03993 L179.04187,144.74687 L199.31413,138.55365 z M173.26135,155.03993 L158.73453,156.23749 L160.3893,153.1974 L175.01646,144.70421 L179.04187,144.74687 z M103.30266,164.54884 L90.40225,162.4219 L85.98,159.54031 L100.921875,149.24625 L105.89636,148.19176 z M100.921875,149.24625 L85.98,159.54031 L80.24828,156.63933 L98.906265,141.84163 L100.921875,146.82646 z M133.89075,162.26552 L108.81239,141.5916 L118.07658,134.87439 L133.35207,154.20789 L134.0591,160.6077 z M169.28879,133.95082 L162.16444,128.25842 L168.27055,127.58726 L169.7072,128.05069 L170.35753,133.8407 z M200.05452,138.00914 L170.35753,133.8407 L169.7072,128.05069 L185.70583,126.9716 L206.99934,134.39207 z M185.70583,126.9716 L169.7072,128.05069 L168.27055,127.58726 L171.38875,119.49 L172.26062,119.49 z M132.213,121.560036 L119.975,120.652054 L116.89118,114.62007 L120.85875,107.62883 L129.70995,117.75298 z M98.46555,114.61528 L85.92778,119.26639 L94.691414,110.16351 L96.95414,109.64388 L99.59113,110.43974 z M156.1932,120.90491 L149.61296,111.14067 L160.31155,107.4199 L161.91508,118.32567 L157.51842,121.238205 z M94.691414,110.16351 L85.92778,119.26639 L84.44164,120.26877 L80.10148,117.659355 L89.575005,110.04488 z M171.38875,119.49 L166.37854,118.59273 L172.16542,108.93237 L176.94275,113.1213 L172.26062,119.49 z M184.14006,102.51101 L175.21152,102.61785 L170.69759,94.934746 L174.58017,92.986084 L182.97983,90.459595 z M166.88524,94.04737 L156.21458,100.607124 L140.46312,94.76384 L141.64395,93.84394 L164.20891,88.46267 z M71.437,95.0985 L43.894512,91.69271 L37.539883,87.2923 L44.223583,84.17859 L76.37732,89.6004 z M164.20891,88.46267 L141.64395,93.84394 L151.44182,81.57684 L161.00375,86.188156 L164.27269,88.2497 z M217.1525,71.39125 L208.00816,91.74479 L203.91849,93.06404 L202.59149,91.81442 L202.81015,87.35289 z M198.35487,91.174126 L195.31688,90.61063 L195.31688,79.63132 L202.81015,87.35289 L202.59149,91.81442 z M164.27269,88.2497 L161.00375,86.188156 L161.00375,81.994606 L168.15544,83.98439 L166.48248,86.354 z M161.00375,86.188156 L151.44182,81.57684 L152.13583,78.7019 L154.39806,77.70623 L161.00375,81.994606 z M156.87335,76.19381 L146.70341,66.13322 L156.41885,54.972088 L163.09962,48.96077 L163.48123,72.74381 z M117.007,70.7875 L109.681656,70.7875 L103.07074,67.31322 L108.82794,64.075165 L116.79,69.9825 z M123.480835,76.79146 L117.007,70.7875 L116.79,69.9825 L122.74307,65.565704 L125.57404,77.56797 z M107.99395,57.97078 L93.52062,55.823124 L93.93362,55.312435 L95.76042,53.517487 L102.67156,51.288082 z M219.6289,182.79803 L216.60411,183.24687 L208.18689,179.27277 L218.77026,166.99113 L223.62915,164.86858 L220.77821,181.7903 z M96.58188,182.58188 L92.8594,179.35974 L95.225624,178.6575 L126.791756,178.6575 L126.07072,186.93166 L99.29437,183.2527 z M95.225624,178.6575 L88.19756,168.22876 L90.40225,162.4219 L103.30266,164.54884 L127.98954,171.02145 L126.791756,178.6575 z M179.1975,166.32762 L158.23038,156.60498 L158.73453,156.23749 L173.26135,155.03993 L174.66997,156.63246 L180.76639,164.48846 z M98.906265,141.84163 L80.24828,156.63933 L65.22385,152.61789 L77.73,141.98598 L92.31883,131.8385 L99.37144,141.2974 z M169.458,143.03705 L159.5294,142.3518 L157.26344,140.93213 L155.3262,137.21909 L155.90419,136.69838 L166.75122,135.5061 z M143.77937,140.92313 L137.839,145.3305 L136.49724,139.68933 L139.92603,132.78433 L140.5825,132.05376 L141.43092,132.21112 z M139.92603,132.78433 L132.16716,135.98244 L121.593605,132.41658 L121.90045,132.14513 L133.20277,125.89405 L140.5825,132.05376 z M166.75122,135.5061 L155.90419,136.69838 L157.67694,132.57716 L160.76263,127.998405 L162.16444,128.25842 L169.28879,133.95082 z M92.31883,131.8385 L77.73,141.98598 L77.73,132.47063 L83.09543,127.16289 L88.51859,125.898315 L93.32656,128.71188 z M119.18373,133.67299 L114.91837,124.17912 L117.50203,121.94273 L119.77375,121.1 L121.90045,132.14513 L121.593605,132.41658 z M133.20277,125.89405 L121.90045,132.14513 L119.77375,121.1 L119.975,120.652054 L132.213,121.560036 L134.28296,123.211 z M104.822266,114.58019 L102.16259,124.44672 L100.21808,125.667465 L98.46555,114.61528 L99.59113,110.43974 L100.122055,110.34567 z M140.76646,109.54977 L129.70995,117.75298 L120.85875,107.62883 L120.85875,101.74341 L125.30583,95.54444 L130.46101,96.28175 z M172.16542,108.93237 L166.37854,118.59273 L161.91508,118.32567 L160.31155,107.4199 L160.75772,106.528656 L170.11722,105.97753 z M99.59113,110.43974 L96.95414,109.64388 L93.70991,104.4051 L99.84401,102.12954 L113.02295,104.38598 L100.122055,110.34567 z M206.28685,96.96935 L193.82361,112.3809 L192.03711,111.16147 L187.70253,104.17821 L190.14226,102.06639 L203.99832,93.913055 z M99.12,101.3775 L90.618484,101.3775 L76.52067,89.47512 L81.81945,81.87745 L90.639915,84.26177 L96.19721,86.19786 z M170.11722,105.97753 L160.75772,106.528656 L156.21458,100.607124 L166.88524,94.04737 L170.69759,94.934746 L175.21152,102.61785 z M61.891193,111.09694 L47.536575,119.12318 L43.221416,97.3525 L43.894512,91.69271 L71.437,95.0985 L69.51066,99.62437 z M203.99832,93.913055 L190.14226,102.06639 L190.73029,96.83108 L198.35487,91.174126 L202.59149,91.81442 L203.91849,93.06404 z M217.695,104.71311 L206.28685,96.96935 L203.99832,93.913055 L203.91849,93.06404 L208.00816,91.74479 L217.695,89.02969 z M174.58017,92.986084 L173.65562,91.156876 L172.89592,88.338615 L174.05766,87.969215 L183.17017,90.22285 L182.97983,90.459595 z M174.05766,87.969215 L172.89592,88.338615 L170.76875,87.94406 L166.48248,86.354 L168.15544,83.98439 L171.02423,81.2174 z M195.31688,90.61063 L189.76373,89.659836 L185.26231,88.27352 L184.18431,82.19496 L194.05005,78.273674 L195.31688,79.63132 z M115.66327,74.97892 L90.639915,84.26177 L81.81945,81.87745 L79.721725,73.356285 L103.07074,67.31322 L109.681656,70.7875 z M151.71712,78.49038 L144.37286,68.37089 L146.70341,66.13322 L156.87335,76.19381 L154.39806,77.70623 L152.13583,78.7019 z M132.97404,64.932076 L122.66476,64.71353 L117.53149,60.2034 L119.6655,58.28323 L132.94633,61.567734 L133.10283,64.70277 z M117.3343,60.224056 L110.59294,52.039536 L114.88081,49.812607 L128.05711,49.323807 L119.6655,58.28323 L117.53149,60.2034 z M198.01558,170.09415 L182.82405,184.39981 L175.67389,175.77925 L179.1975,166.32762 L180.76639,164.48846 L185.50183,162.14621 L190.70563,164.67062 z M197.40651,163.91035 L196.0402,164.67062 L190.70563,164.67062 L185.50183,162.14621 L190.33311,156.8945 L193.22826,158.774 L197.26083,163.26187 z M127.98954,171.02145 L103.30266,164.54884 L105.89636,148.19176 L106.00695,148.08406 L106.01453,148.07814 L125.81428,160.93202 L133.0997,166.63763 z M106.00695,148.08406 L100.921875,146.82646 L98.906265,141.84163 L99.37144,141.2974 L107.87369,142.02525 L107.77532,144.87154 L106.01453,148.07814 z M157.26344,140.93213 L134.0591,160.6077 L133.35207,154.20789 L137.839,145.3305 L143.77937,140.92313 L154.91386,137.16809 L155.3262,137.21909 z M154.91386,137.16809 L146.04364,131.98296 L147.88864,128.67485 L149.9229,127.783 L157.67694,132.57716 L155.90419,136.69838 L155.3262,137.21909 z M146.04364,131.98296 L141.43092,132.21112 L140.5825,132.05376 L133.20277,125.89405 L134.28296,123.211 L141.01517,120.51536 L147.88864,128.67485 z M149.9229,127.783 L147.88864,128.67485 L141.01517,120.51536 L142.17336,119.7047 L156.1932,120.90491 L157.51842,121.238205 L157.52972,121.43376 z M117.50203,121.94273 L110.32521,121.055275 L109.29672,120.54656 L110.89031,118.18188 L116.89118,114.62007 L119.975,120.652054 L119.77375,121.1 z M99.27801,127.002625 L93.32656,128.71188 L88.51859,125.898315 L84.44164,120.26877 L85.92778,119.26639 L98.46555,114.61528 L100.21808,125.667465 z M185.70583,126.9716 L172.26062,119.49 L176.94275,113.1213 L192.03711,111.16147 L193.82361,112.3809 L213.28596,132.78 L206.99934,134.39207 z M141.01517,120.51536 L134.28296,123.211 L132.213,121.560036 L129.70995,117.75298 L140.76646,109.54977 L142.37616,111.27834 L142.17336,119.7047 z M110.89031,118.18188 L104.822266,114.58019 L100.122055,110.34567 L113.02295,104.38598 L120.85875,101.74341 L120.85875,107.62883 L116.89118,114.62007 z M192.03711,111.16147 L176.94275,113.1213 L172.16542,108.93237 L170.11722,105.97753 L175.21152,102.61785 L184.14006,102.51101 L187.70253,104.17821 z M113.02295,104.38598 L99.84401,102.12954 L99.12,101.3775 L96.19721,86.19786 L124.78599,94.94276 L125.30583,95.54444 L120.85875,101.74341 z M168.15544,83.98439 L161.00375,81.994606 L154.39806,77.70623 L156.87335,76.19381 L163.48123,72.74381 L173.1164,78.7227 L171.02423,81.2174 z M124.78599,94.94276 L96.19721,86.19786 L90.639915,84.26177 L115.66327,74.97892 L123.480835,76.79146 L125.57404,77.56797 L127.48113,79.374275 z M122.74307,65.565704 L116.79,69.9825 L108.82794,64.075165 L112.047966,61.814102 L117.3343,60.224056 L117.53149,60.2034 L122.66476,64.71353 z M129.45937,78.19528 L127.48113,79.374275 L125.57404,77.56797 L122.74307,65.565704 L122.66476,64.71353 L132.97404,64.932076 L134.16264,66.563515 z M144.32661,68.38376 L134.16264,66.563515 L132.97404,64.932076 L133.10283,64.70277 L156.41885,54.972088 L146.70341,66.13322 L144.37286,68.37089 z M103.07074,67.31322 L79.721725,73.356285 L78.34459,71.82366 L93.52062,55.823124 L107.99395,57.97078 L112.047966,61.814102 L108.82794,64.075165 z M112.047966,61.814102 L107.99395,57.97078 L102.67156,51.288082 L102.9515,51.023743 L108.807274,51.345566 L110.59294,52.039536 L117.3343,60.224056 z M208.18689,179.27277 L187.54234,195.81503 L182.82405,184.39981 L198.01558,170.09415 L204.31615,168.35475 L206.43423,167.92914 L212.09421,167.13681 L218.77026,166.99113 z M158.23038,156.60498 L133.83022,165.7684 L133.89075,162.26552 L134.0591,160.6077 L157.26344,140.93213 L159.5294,142.3518 L160.3893,153.1974 L158.73453,156.23749 z M125.81428,160.93202 L107.77532,144.87154 L107.87369,142.02525 L108.81239,141.5916 L133.89075,162.26552 L133.83022,165.7684 L133.48994,166.36761 L133.0997,166.63763 z M133.35207,154.20789 L118.07658,134.87439 L118.12945,134.4782 L119.18373,133.67299 L121.593605,132.41658 L132.16716,135.98244 L136.49724,139.68933 L137.839,145.3305 z M175.01646,144.70421 L169.458,143.03705 L166.75122,135.5061 L169.28879,133.95082 L170.35753,133.8407 L200.05452,138.00914 L199.31413,138.55365 L179.04187,144.74687 z M107.87369,142.02525 L99.37144,141.2974 L92.31883,131.8385 L93.32656,128.71188 L99.27801,127.002625 L118.12945,134.4782 L118.07658,134.87439 L108.81239,141.5916 z M168.27055,127.58726 L162.16444,128.25842 L160.76263,127.998405 L157.52972,121.43376 L157.51842,121.238205 L161.91508,118.32567 L166.37854,118.59273 L171.38875,119.49 z M118.12945,134.4782 L99.27801,127.002625 L100.21808,125.667465 L102.16259,124.44672 L109.29672,120.54656 L110.32521,121.055275 L114.91837,124.17912 L119.18373,133.67299 z M149.61296,111.14067 L142.37616,111.27834 L140.76646,109.54977 L130.46101,96.28175 L140.46312,94.76384 L156.21458,100.607124 L160.75772,106.528656 L160.31155,107.4199 z M190.14226,102.06639 L187.70253,104.17821 L184.14006,102.51101 L182.97983,90.459595 L183.17017,90.22285 L185.26231,88.27352 L189.76373,89.659836 L190.73029,96.83108 z M174.58017,92.986084 L170.69759,94.934746 L166.88524,94.04737 L164.20891,88.46267 L164.27269,88.2497 L166.48248,86.354 L170.76875,87.94406 L173.65562,91.156876 z M183.17017,90.22285 L174.05766,87.969215 L171.02423,81.2174 L173.1164,78.7227 L175.56905,78.74463 L181.97893,81.05455 L184.18431,82.19496 L185.26231,88.27352 z M76.37732,89.6004 L44.223583,84.17859 L55.8341,71.05211 L64.20319,63.186954 L78.34459,71.82366 L79.721725,73.356285 L81.81945,81.87745 L76.52067,89.47512 z M89.575005,110.04488 L69.51066,99.62437 L71.437,95.0985 L76.37732,89.6004 L76.52067,89.47512 L90.618484,101.3775 L93.70991,104.4051 L96.95414,109.64388 L94.691414,110.16351 z M151.44182,81.57684 L141.64395,93.84394 L140.46312,94.76384 L130.46101,96.28175 L125.30583,95.54444 L124.78599,94.94276 L127.48113,79.374275 L129.45937,78.19528 L136.12805,76.38746 L151.71712,78.49038 L152.13583,78.7019 z" fill="none" stroke="white" stroke-width="0.6"/>
</g>
<path d="m 15.815664,12.893319 c -1.445284,-3.0999497 -5.555449,-0.3575 -5.08537,2.32203 1.697826,2.92736 4.504013,-3.54417 4.40859,-2.58178 -1.548999,2.22986 0.741131,6.08701 3.012419,3.25791 2.532153,-2.82358 0.259001,-7.8326797 -3.488671,-7.9011197 -3.217272,0.056 -5.8863857,2.4603197 -7.9308737,4.7238797 -2.354585,2.46752 0.0048,5.887 2.757763,6.62143 3.2195457,1.10867 6.8759417,1.30834 9.9459317,-0.36585 2.270396,-1.12373 5.025949,-2.62031 5.680576,-5.20027 -2.108811,-3.66096 -6.038415,1.28356 -3.842036,3.67822 1.07278,0.89979 4.586982,-2.27037 3.201668,-2.73503 0.03094,3.24357 1.226854,6.37852 1.337023,9.60311 -0.672198,3.54892 -7.469251,0.32096 -4.637082,-2.5164 2.158436,-2.4193 5.610472,-2.84094 8.202925,-4.57369 0.993877,-1.40371 0.353413,-5.25046 3.182464,-3.48957 2.142923,1.43516 -2.250898,5.7532 1.723416,5.02339 1.661189,-0.71663 6.494946,-1.40457 4.601401,-3.95236 -4.205319,-0.68052 -1.190571,5.86505 1.665411,3.46881 1.929752,-0.9247 2.778055,-4.05119 1.423645,-5.35034 0.479155,1.8589 3.849911,7.52574 4.880369,3.32696 0.21201,-1.28088 0.40468,-3.80204 1.01246,-1.23041 0.5858,2.6865 3.83412,4.91909 4.56937,1.07383 0.65272,-1.00894 -0.2696,-4.02739 0.99929,-1.35746 1.10974,2.31613 6.32001,1.46113 6.147,-1.13059 -1.98394,-2.13868 -5.3717,1.45205 -3.78252,3.73454 2.57741,0.96208 6.69797,-0.21041 7.06275,-3.33983 0.41287,-2.63769 0.26643,-5.3430297 -0.11178,-7.9756197 0.67418,3.94149 1.24889,7.9380497 2.39963,11.7713397 2.10586,1.67977 5.7434,1.65022 7.74596,-0.23639 3.03149,-1.85431 -0.26637,-4.76925 -2.71777,-4.54025 -2.11577,0.0793 -5.36257,2.40772 -5.16868,3.85604 2.08262,-2.38818 5.55759,-1.22628 8.30726,-1.6832 3.182,-0.26596 6.46546,-0.57372 9.54494,-1.18158 0.24171,0.4199 -0.27752,0.54338 -0.43067,0.17453" fill="none" stroke="white" stroke-width="1" transform="translate(260,190) scale(0.3)"/>
</svg>