<svg height="210mm" style="background:black" viewBox="0 0 297 210" width="297mm" xmlns="http://www.w3.org/2000/svg" xmlns:inkscape="http://www.inkscape.org/namespaces/inkscape">
<g inkscape:groupmode="layer" inkscape:label="gold">
<path d="M189.4426,220.63744 L189.17128,220 L189.34346,220 z M295.5453,223.71428 L290.59293,220 L293.04218,220 z M198.54518,140.92313 L194.85938,140.92313 L197.7075,138.28172 z M243.4555,140.72188 L236.63188,140.72188 L242.87062,138.4075 z M206.27126,124.23375 L204.76,123.1125 L210.04938,119.188126 z M191.49588,122.12637 L185.77687,117.88325 L194.68071,116.61285 z M235.6373,99.868126 L234.055,99.868126 L235.00438,98.45937 z M164.34375,98.9625 L162.17375,97.3525 L164.34375,95.7425 z M307.835,37.17875 L299,43.73375 L299,42.914375 z M201.30156,85.37813 L196.01219,85.37813 L198.54189,84.01312 z M208.48969,74.913124 L202.96733,75.38138 L205.3025,70.18375 z M174.32349,61.55935 L170.71812,60.221874 L175.27226,53.46411 z M318.88013,-10 L299,5.884375 L299,-10 z M277.4655,-10 L299,-30.94789 L299,-10 z M-15.888602,-10 L-11,-10 L-11,-5.3258395 z M174.18727,184.79562 L170.31125,184.79562 L171.64813,184.13437 L173.8375,183.8095 z M176.60216,180.72418 L175.72777,182.34604 L174.78688,182.49562 L174.78688,179.71407 z M242.91583,145.61896 L240.71106,144.80106 L240.63281,144.39468 L242.47882,143.02507 z M225.31688,144.0425 L223.10812,145.95438 L222.06914,145.46382 L221.09492,141.84981 z M295.5453,223.71428 L293.04218,220 L299,220 L299,226.37239 z M240.63281,144.39468 L235.8836,143.22015 L243.20215,141.2809 L242.47882,143.02507 z M195.22104,136.02605 L183.51208,144.71333 L187.72862,139.70789 L194.3784,135.479 z M229.26367,138.9504 L227.13812,138.82588 L227.13812,134.43282 L228.6098,133.61389 z M246.26839,134.87636 L240.42938,132.16875 L239.86221,131.32716 L249.5715,132.52777 z M198.48056,132.4505 L192.8256,133.64925 L190.8561,132.1271 L198.07097,131.23495 z M190.74915,132.04428 L183.97018,134.02017 L183.07507,128.04312 L190.86899,128.04312 z M247.68532,125.90485 L245.31187,128.54625 L239.104,126.24333 L239.95303,123.036415 z M181.4325,126.735 L178.42482,124.503494 L178.50688,124.47813 L180.53099,124.72842 z M181.4325,126.735 L180.53099,124.72842 L183.21341,123.93234 L182.4073,127.81986 z M249.38063,125.09146 L248.00842,124.7521 L244.59676,120.32244 L249.38063,120.491455 z M211.83188,124.96687 L210.03758,124.07938 L210.26352,122.90595 L210.63063,122.29312 z M226.9419,122.613655 L220.42853,118.74765 L224.60518,115.90009 L228.9555,119.12775 z M237.20062,120.61635 L231.20688,116.16937 L236.73903,117.1955 L239.02098,120.73552 z M172.61348,117.960434 L168.80748,119.075096 L169.9546,110.564186 L171.7127,112.61396 z M165.71606,120.54537 L158.16151,127.33037 L162.0331,112.96801 L165.21596,112.75333 z M241.9126,113.625916 L235.4997,114.305626 L234.46187,113.15063 L241.64287,113.15063 z M178.33778,111.76017 L176.14313,112.69063 L174.67691,110.67036 L176.62535,110.489655 z M192.76335,104.18585 L187.71646,101.3775 L195.07402,100.55868 L196.06493,104.675766 z M226.21158,107.583374 L224.12724,101.39763 L230.21297,100.64509 L231.05188,102.85812 z M141.86299,100.23799 L135.78947,100.68861 L136.05977,100.407845 L140.35683,98.28242 z M184.82312,99.26437 L181.95563,98.20062 L181.77678,97.66985 L182.44969,97.50344 z M177.0925,98.88703 L172.93333,96.572655 L175.53802,95.12327 L177.36119,98.504944 z M142.33165,97.019104 L140.66362,96.24563 L142.28056,90.24729 L149.44185,96.66742 z M207.83006,92.28923 L206.02583,92.95854 L205.31483,90.848465 L207.02116,90.938896 z M210.37119,96.70096 L208.38571,92.649956 L210.7275,90.9125 L213.48383,96.02504 z M173.23076,88.97944 L161.16461,89.725464 L164.13416,87.99438 L172.84026,87.99438 z M219.91573,90.47351 L219.07259,90.125984 L218.43454,87.28562 L220.74234,87.713684 z M179.39813,81.688545 L177.172,81.41327 L177.6749,79.6721 L179.39813,80.95062 z M180.3475,81.92333 L179.39813,81.688545 L179.39813,80.95062 L180.3475,80.95062 z M162.82988,82.94681 L159.24425,80.2865 L167.85718,77.54783 L168.01003,80.32635 z M188.19191,79.57353 L180.9533,77.55956 L183.46146,74.76823 L188.34589,75.803635 z M148.83504,79.806015 L146.09334,74.72063 L147.4875,74.9275 L149.61984,79.67368 z M188.34589,75.803635 L183.46146,74.76823 L181.64116,71.16678 L189.00812,73.89969 z M172.53937,66.674194 L164.58485,70.889725 L162.445,69.9825 L171.9218,66.46691 z M184.10742,62.399254 L175.11789,65.73408 L174.9544,64.60202 L189.03719,43.705 z M171.64813,184.13437 L170.31125,184.79562 L161.74855,187.9721 L162.23393,185.5713 L169.82687,183.45876 z M171.64813,184.13437 L169.82687,183.45876 L172.3503,182.2106 L173.8375,182.99875 L173.8375,183.8095 z M183.63972,183.3244 L175.72777,182.34604 L176.60216,180.72418 L180.27084,179.81688 L184.15224,180.15567 z M176.60216,180.72418 L174.78688,179.71407 L174.21725,178.6575 L175.97359,178.6575 L180.27084,179.81688 z M180.27084,179.81688 L175.97359,178.6575 L192.15768,162.64745 L194.80574,163.65991 L184.15224,180.15567 z M203.9619,144.8475 L198.25,144.8475 L198.7925,144.0425 L198.92813,143.94188 L203.91495,143.94188 z M213.95035,145.21887 L204.0868,143.38936 L204.24562,141.79861 L206.73347,139.13242 L214.39085,142.65872 z M203.91495,143.94188 L198.92813,143.94188 L199.63412,141.58476 L204.24562,141.79861 L204.0868,143.38936 z M198.7925,144.0425 L196.41907,142.28156 L198.58762,141.03017 L199.63412,141.58476 L198.92813,143.94188 z M196.41907,142.28156 L191.33313,143.53937 L194.85938,140.92313 L198.54518,140.92313 L198.58762,141.03017 z M196.44812,136.75438 L185.64023,145.77548 L179.92151,148.83038 L183.51208,144.71333 L195.22104,136.02605 z M194.3784,135.479 L187.72862,139.70789 L190.80594,132.09734 L190.8561,132.1271 L192.8256,133.64925 z M227.13812,138.82588 L226.78493,138.8121 L220.56567,137.93912 L226.32437,134.73468 L227.13812,134.43282 z M231.59354,139.6313 L230.8,139.35957 L230.8,129.28159 L230.96515,129.2486 L233.5922,138.01949 z M230.8,139.35957 L229.26367,138.9504 L228.6098,133.61389 L229.82071,129.42131 L230.8,129.28159 z M236.69608,136.54564 L233.5922,138.01949 L230.96515,129.2486 L231.03114,129.22607 L235.59416,128.77895 z M227.13812,134.43282 L226.32437,134.73468 L226.32437,129.20955 L229.82071,129.42131 L228.6098,133.61389 z M242.87062,137.79257 L240.42938,136.85341 L240.42938,132.16875 L246.26839,134.87636 L244.94376,136.59625 z M209.0304,134.88033 L207.46017,130.22029 L207.49643,130.03195 L212.77202,131.15027 L213.24748,133.40796 z M202.72902,130.5248 L198.15778,131.09006 L196.57596,126.395615 L198.05,126.262245 L202.98935,127.91726 z M250.99413,131.75374 L246.37993,129.07452 L248.52812,125.88687 L253.44937,127.10396 L265.14703,130.96124 z M248.52812,125.88687 L246.37993,129.07452 L245.31187,128.54625 L247.68532,125.90485 L248.2226,125.70553 z M253.44937,127.10396 L248.52812,125.88687 L248.2226,125.70553 L248.00842,124.7521 L249.38063,125.09146 z M211.34105,127.45255 L207.22386,126.68888 L210.03758,124.07938 L211.83188,124.96687 L213.05511,126.10133 z M202.98935,127.91726 L198.05,126.262245 L201.77625,121.00944 L203.26813,122.227 L203.26813,127.83578 z M183.21341,123.93234 L180.53099,124.72842 L178.50688,124.47813 L183.46687,120.79813 L184.4332,121.99305 z M210.03758,124.07938 L207.22386,126.68888 L206.56631,126.671455 L206.44,124.79716 L210.26352,122.90595 z M211.83188,124.96687 L210.63063,122.29312 L211.40562,119.993126 L213.96744,125.695206 L213.05511,126.10133 z M178.28394,124.517426 L169.02205,132.01385 L143.66702,143.83841 L155.93234,130.0063 L177.02469,122.18172 z M229.59561,123.54573 L227.04378,123.02937 L226.9419,122.613655 L228.9555,119.12775 L232.12299,120.49863 z M198.33138,115.60587 L195.91527,126.36141 L195.5375,126.38052 L195.5375,116.140625 L197.08987,115.1534 z M215.6307,118.66461 L211.40562,119.09207 L210.71884,118.918365 L213.04077,110.30478 L214.16544,109.42399 z M213.04077,110.30478 L210.71884,118.918365 L210.32062,118.85271 L204.40862,116.60331 L206.91191,114.049545 z M175.13646,117.62446 L172.61348,117.960434 L171.7127,112.61396 L176.14313,114.2575 L176.7214,115.687645 z M162.0331,112.96801 L158.16151,127.33037 L157.41237,128.0572 L158.33191,114.41231 L159.44946,112.20125 z M241.64287,113.15063 L234.46187,113.15063 L234.34483,113.02906 L238.92517,109.41835 L239.81691,109.47349 z M158.33191,114.41231 L152.49184,110.94594 L154.1653,109.54239 L158.37549,108.217186 L159.44946,112.20125 z M178.33778,111.76017 L176.62535,110.489655 L183.38635,109.05644 L184.29034,109.42229 L183.89757,110.213295 z M183.38635,109.05644 L176.62535,110.489655 L174.67691,110.67036 L171.03072,108.506165 L175.32938,104.458176 z M152.49184,110.94594 L112.038055,134.52844 L145.60663,105.63781 L151.86626,107.4955 L154.1653,109.54239 z M236.39761,107.54307 L225.15466,109.39674 L226.21158,107.583374 L231.05188,102.85812 L235.97395,103.77109 z M151.86626,107.4955 L145.60663,105.63781 L148.5866,100.77375 L151.14929,99.07795 L151.86626,99.7675 z M192.76335,104.18585 L186.82951,104.91961 L186.37527,101.437126 L186.4235,101.3775 L187.71646,101.3775 z M222.25563,100.47188 L218.80229,108.158325 L216.59647,107.908676 L219.2973,99.89328 L220.68028,98.13428 z M219.2973,99.89328 L216.59647,107.908676 L216.37032,107.90593 L215.76823,102.09865 L216.01688,101.84038 z M213.7655,101.2165 L206.95697,104.58416 L206.60913,104.42492 L205.69336,98.76283 L208.71121,97.466545 z M215.76823,102.09865 L214.33513,101.03538 L215.07788,96.07567 L216.01688,96.13625 L216.01688,101.84038 z M240.18086,101.13226 L235.6373,99.868126 L235.00438,98.45937 L235.00438,95.66017 L244.26251,95.24387 z M140.35683,98.28242 L136.05977,100.407845 L137.89688,97.00031 L138.58543,96.95774 L140.359,98.273605 z M171.16975,101.68142 L167.51581,100.71946 L168.11613,98.38111 L171.13857,95.69018 L172.3536,96.41136 z M161.08017,99.30259 L151.21634,98.73964 L151.14818,97.57633 L155.75246,93.68579 L161.51823,97.3525 z M140.359,98.273605 L138.58543,96.95774 L139.70522,96.24563 L140.66362,96.24563 L142.33165,97.019104 z M189.32135,98.04849 L186.4488,100.39286 L186.328,100.15759 L185.23515,95.562904 L188.50438,96.53313 z M182.44969,97.50344 L181.77678,97.66985 L178.88028,97.055855 L179.79445,95.11798 L184.52829,94.93313 z M189.32135,98.04849 L188.50438,96.53313 L192.6154,93.48301 L193.88606,94.26864 L195.85124,95.626114 z M168.11613,98.38111 L164.8109,94.702705 L164.62286,93.23786 L170.49364,93.393425 L171.13857,95.69018 z M138.58543,96.95774 L137.89688,97.00031 L137.65028,96.79449 L138.80104,94.23312 L139.70522,96.24563 z M138.80104,94.23312 L137.65028,96.79449 L136.57452,96.2624 L132.98999,87.39741 L138.0475,89.20142 z M229.63095,97.77854 L220.57758,97.486496 L219.2275,96.188034 L221.86769,92.68272 L231.47372,95.42389 z M210.7275,90.9125 L208.38571,92.649956 L207.83006,92.28923 L207.02116,90.938896 L210.7275,88.739 z M172.84026,87.99438 L164.13416,87.99438 L166.81891,86.30891 L171.02086,84.43836 L171.70969,84.82553 z M220.74234,87.713684 L218.43454,87.28562 L215.04573,83.76564 L215.40959,83.518814 L220.88,87.5775 z M229.27165,89.52658 L225.6173,89.797714 L223.53438,86.51375 L225.51062,85.780624 L235.18019,84.34579 z M220.88,87.5775 L215.40959,83.518814 L215.53163,83.42553 L220.40445,82.66441 L223.14117,86.31927 z M157.76106,87.85285 L148.37845,87.521355 L148.89845,85.206474 L155.00648,83.695885 L157.75026,87.42799 z M148.37845,87.521355 L145.89874,88.40125 L145.89874,80.50219 L146.34293,80.46637 L148.89845,85.206474 z M225.51062,85.780624 L223.53438,86.51375 L223.14117,86.31927 L220.40445,82.66441 L225.51062,79.14656 z M202.62302,81.83875 L198.55113,83.996666 L196.7893,79.421585 L199.26718,78.58594 L200.51147,78.27821 z M196.7893,79.421585 L193.21791,80.027245 L193.89063,76.03438 L194.85938,75.31563 L199.26718,78.58594 z M194.85938,75.31563 L193.89063,76.03438 L190.59335,72.77256 L191.50224,71.905556 L195.09593,74.08707 z M153.145,72.82875 L147.4875,74.9275 L146.09334,74.72063 L145.76312,74.51063 L145.40556,71.061935 z M165.5915,76.4225 L154.69963,76.4225 L153.9882,72.95387 L154.46889,72.33364 L159.17479,70.47152 z M199.13571,74.58661 L195.09593,74.08707 L191.50224,71.905556 L191.85953,70.951225 L194.37825,68.233086 z M205.3025,70.18375 L202.96733,75.38138 L202.47263,75.48058 L199.47243,64.9073 L205.3025,60.197277 z M191.85953,70.951225 L184.56078,69.14616 L186.85687,64.765564 L195.13605,66.87709 L194.37825,68.233086 z M171.9218,66.46691 L162.445,69.9825 L160.32925,69.45925 L160.9684,65.66562 L163.47073,63.001835 z M172.3503,182.2106 L169.82687,183.45876 L162.23393,185.5713 L162.31302,182.22644 L165.0995,174.25221 L167.47258,175.87744 z M174.78688,182.49562 L173.8375,182.99875 L172.3503,182.2106 L167.47258,175.87744 L174.21725,178.6575 L174.78688,179.71407 z M233.61337,167.77818 L223.10812,145.95438 L225.31688,144.0425 L225.375,144.0425 L232.48244,145.80025 L233.29788,153.96788 z M207.16356,165.43451 L194.80574,163.65991 L192.15768,162.64745 L184.91245,159.69092 L198.25,144.8475 L203.9619,144.8475 z M222.06914,145.46382 L213.82204,147.50343 L213.95035,145.21887 L214.39085,142.65872 L219.10648,139.7598 L221.09492,141.84981 z M240.71106,144.80106 L233.29788,153.96788 L232.48244,145.80025 L233.17178,143.52194 L235.8836,143.22015 L240.63281,144.39468 z M194.85938,140.92313 L191.33313,143.53937 L185.64023,145.77548 L196.44812,136.75438 L197.7075,137.06583 L197.7075,138.28172 z M240.42938,136.85341 L236.69608,136.54564 L235.59416,128.77895 L236.60808,128.39543 L239.86221,131.32716 L240.42938,132.16875 z M203.60474,134.98503 L198.48056,132.4505 L198.07097,131.23495 L198.15778,131.09006 L202.72902,130.5248 L203.5648,134.55545 z M209.0304,134.88033 L205.79146,136.33675 L203.84337,135.54836 L203.60474,134.98503 L203.5648,134.55545 L207.46017,130.22029 z M219.00356,135.16002 L213.24748,133.40796 L212.77202,131.15027 L212.82068,130.6087 L216.34767,128.77695 L221.99286,131.5692 z M221.99286,131.5692 L216.34767,128.77695 L218.05182,125.29994 L220.02849,124.539505 L222.41528,126.08186 L224.97878,129.10768 z M216.34767,128.77695 L212.82068,130.6087 L211.34105,127.45255 L213.05511,126.10133 L213.96744,125.695206 L218.05182,125.29994 z M182.41493,127.87358 L169.02205,132.01385 L178.28394,124.517426 L178.42482,124.503494 L181.4325,126.735 L182.4073,127.81986 z M227.04378,123.02937 L222.41528,126.08186 L220.02849,124.539505 L219.34256,119.323166 L220.42853,118.74765 L226.9419,122.613655 z M195.5375,126.38052 L191.82222,126.81906 L190.45157,124.67219 L191.49588,122.12637 L194.68071,116.61285 L195.5375,116.140625 z M237.20062,120.61635 L232.12299,120.49863 L228.9555,119.12775 L224.60518,115.90009 L225.35132,113.997154 L231.20688,116.16937 z M256.73746,120.621414 L249.38063,120.491455 L244.59676,120.32244 L243.11124,120.106804 L244.28813,115.740906 L247.28899,113.61127 z M168.80748,119.075096 L165.71606,120.54537 L165.21596,112.75333 L167.43846,109.125626 L169.40062,109.125626 L169.9546,110.564186 z M183.0075,114.06542 L176.7214,115.687645 L176.14313,114.2575 L176.14313,112.69063 L178.33778,111.76017 L183.89757,110.213295 z M206.91191,114.049545 L204.40862,116.60331 L201.77625,116.67433 L200.74825,116.28604 L204.46938,110.76437 L206.3012,110.4246 z M213.04077,110.30478 L206.91191,114.049545 L206.3012,110.4246 L208.50882,105.510864 L214.94841,108.11692 L214.16544,109.42399 z M206.3012,110.4246 L204.46938,110.76437 L203.1181,105.75157 L206.60913,104.42492 L206.95697,104.58416 L208.50882,105.510864 z M234.34483,113.02906 L225.76712,112.20788 L224.67833,109.822914 L225.15466,109.39674 L236.39761,107.54307 L238.92517,109.41835 z M154.1653,109.54239 L151.86626,107.4955 L151.86626,99.7675 L157.15562,103.69187 L160.14325,106.6795 L158.37549,108.217186 z M239.81691,109.47349 L238.92517,109.41835 L236.39761,107.54307 L235.97395,103.77109 L239.92468,101.854546 L245.40125,107.18758 z M195.18423,110.563515 L186.34242,108.774414 L186.82951,104.91961 L192.76335,104.18585 L196.06493,104.675766 L197.80244,107.254 z M224.67833,109.822914 L218.80229,108.158325 L222.25563,100.47188 L224.12724,101.39763 L226.21158,107.583374 L225.15466,109.39674 z M161.73878,106.611206 L160.14325,106.6795 L157.15562,103.69187 L162.33792,99.84694 L164.90132,100.203545 L166.29395,100.97847 z M219.2973,99.89328 L216.01688,101.84038 L216.01688,96.13625 L219.2275,96.188034 L220.57758,97.486496 L220.68028,98.13428 z M162.33792,99.84694 L157.15562,103.69187 L151.86626,99.7675 L151.14929,99.07795 L151.21634,98.73964 L161.08017,99.30259 z M186.37527,101.437126 L176.1475,102.70186 L177.0925,98.9625 L181.61333,98.9625 L186.39017,101.08896 L186.4235,101.3775 z M186.39017,101.08896 L181.61333,98.9625 L181.95563,98.20062 L184.82312,99.26437 L186.328,100.15759 L186.4488,100.39286 z M162.33792,99.84694 L161.08017,99.30259 L161.51823,97.3525 L162.17375,97.3525 L164.34375,98.9625 L164.90132,100.203545 z M184.82312,99.26437 L182.44969,97.50344 L184.52829,94.93313 L184.84175,94.8697 L185.23515,95.562904 L186.328,100.15759 z M188.50438,96.53313 L185.23515,95.562904 L184.84175,94.8697 L185.1746,94.4287 L189.15424,90.81994 L192.6154,93.48301 z M177.36119,98.504944 L175.53802,95.12327 L176.34782,92.720024 L178.10915,93.1382 L179.79445,95.11798 L178.88028,97.055855 z M140.66362,96.24563 L139.70522,96.24563 L138.80104,94.23312 L138.0475,89.20142 L142.21046,90.17041 L142.28056,90.24729 z M184.52829,94.93313 L179.79445,95.11798 L178.10915,93.1382 L180.33932,91.73811 L185.1746,94.4287 L184.84175,94.8697 z M206.02583,92.95854 L202.97816,97.48088 L199.23268,96.180115 L201.45074,90.32887 L202.86125,90.24167 L205.31483,90.848465 z M185.1746,94.4287 L180.33932,91.73811 L184.47285,86.96752 L185.57785,86.4386 L188.05153,86.274734 L189.15424,90.81994 z M213.48383,96.02504 L210.7275,90.9125 L210.7275,88.739 L211.80193,86.98527 L214.66063,89.355774 L214.66063,95.98624 z M180.33932,91.73811 L178.10915,93.1382 L176.34782,92.720024 L173.43062,91.21438 L173.43062,89.20187 L184.47285,86.96752 z M156.26353,93.07125 L145.84886,88.43504 L145.89874,88.40125 L148.37845,87.521355 L157.76106,87.85285 L159.12035,90.32827 z M219.07259,90.125984 L214.66063,89.355774 L211.80193,86.98527 L211.44524,85.43523 L215.04573,83.76564 L218.43454,87.28562 z M200.41354,88.789795 L198.03563,88.11123 L193.64664,86.54818 L196.01219,85.37813 L201.30156,85.37813 L202.5502,85.9075 z M166.81891,86.30891 L162.60995,83.186134 L162.82988,82.94681 L168.01003,80.32635 L168.31676,80.64875 L171.02086,84.43836 z M155.00648,83.695885 L148.89845,85.206474 L146.34293,80.46637 L148.83504,79.806015 L149.61984,79.67368 L152.96915,79.287125 z M201.30156,85.37813 L198.54189,84.01312 L198.55113,83.996666 L202.62302,81.83875 L205.33264,84.07249 L202.5502,85.9075 z M184.36693,85.89954 L176.03511,83.622086 L176.7955,81.816765 L177.172,81.41327 L179.39813,81.688545 L180.3475,81.92333 z M176.03511,83.622086 L171.70969,84.82553 L171.02086,84.43836 L168.31676,80.64875 L174.69646,80.64875 L176.7955,81.816765 z M180.3475,80.95062 L179.39813,80.95062 L177.6749,79.6721 L178.12845,77.148285 L179.24109,77.423454 L180.44029,80.53754 z M176.7955,81.816765 L174.69646,80.64875 L177.94876,77.02925 L178.12845,77.148285 L177.6749,79.6721 L177.172,81.41327 z M189.02533,82.66071 L180.44029,80.53754 L179.24109,77.423454 L180.9533,77.55956 L188.19191,79.57353 L189.44505,81.27134 z M209.0077,84.37545 L205.33264,84.07249 L202.62302,81.83875 L200.51147,78.27821 L200.62743,78.15088 L208.39722,80.07244 z M167.85718,77.54783 L159.24425,80.2865 L153.25528,79.016945 L154.69963,76.4225 L165.5915,76.4225 L167.93669,76.93426 z M146.34293,80.46637 L145.89874,80.50219 L139.44269,79.98154 L145.76312,74.51063 L146.09334,74.72063 L148.83504,79.806015 z M199.13571,74.58661 L194.37825,68.233086 L195.13605,66.87709 L199.47243,64.9073 L202.47263,75.48058 L201.84723,75.88834 z M168.59181,76.41082 L164.58485,70.889725 L172.53937,66.674194 L173.9645,66.976295 L175.50177,70.71479 L174.00554,73.878586 z M159.17479,70.47152 L154.46889,72.33364 L152.22957,66.637314 L156.0037,65.85949 L160.9684,65.66562 L160.32925,69.45925 z M208.51381,165.76314 L207.16356,165.43451 L203.9619,144.8475 L203.91495,143.94188 L204.0868,143.38936 L213.95035,145.21887 L213.82204,147.50343 z M225.31688,144.0425 L221.09492,141.84981 L219.10648,139.7598 L220.34425,137.9231 L220.56567,137.93912 L226.78493,138.8121 L225.375,144.0425 z M243.20215,141.2809 L235.8836,143.22015 L233.17178,143.52194 L232.75821,141.9536 L236.63188,140.72188 L243.4555,140.72188 L243.54527,141.02634 z M226.32437,134.73468 L220.56567,137.93912 L220.34425,137.9231 L219.00356,135.16002 L221.99286,131.5692 L224.97878,129.10768 L226.32437,129.20955 z M249.5715,132.52777 L239.86221,131.32716 L236.60808,128.39543 L239.104,126.24333 L245.31187,128.54625 L246.37993,129.07452 L250.99413,131.75374 z M207.46017,130.22029 L203.5648,134.55545 L202.72902,130.5248 L202.98935,127.91726 L203.26813,127.83578 L205.14407,127.41401 L207.49643,130.03195 z M212.77202,131.15027 L207.49643,130.03195 L205.14407,127.41401 L206.56631,126.671455 L207.22386,126.68888 L211.34105,127.45255 L212.82068,130.6087 z M247.68532,125.90485 L239.95303,123.036415 L240.32384,121.29402 L243.11124,120.106804 L244.59676,120.32244 L248.00842,124.7521 L248.2226,125.70553 z M205.14407,127.41401 L203.26813,127.83578 L203.26813,122.227 L204.76,123.1125 L206.27126,124.23375 L206.44,124.79716 L206.56631,126.671455 z M218.05182,125.29994 L213.96744,125.695206 L211.40562,119.993126 L211.40562,119.09207 L215.6307,118.66461 L219.34256,119.323166 L220.02849,124.539505 z M183.46687,120.79813 L178.50688,124.47813 L178.42482,124.503494 L178.28394,124.517426 L177.02469,122.18172 L178.281,119.851456 L183.40776,120.66654 z M198.05,126.262245 L196.57596,126.395615 L195.91527,126.36141 L198.33138,115.60587 L200.74825,116.28604 L201.77625,116.67433 L201.77625,121.00944 z M210.04938,119.188126 L204.76,123.1125 L203.26813,122.227 L201.77625,121.00944 L201.77625,116.67433 L204.40862,116.60331 L210.32062,118.85271 z M190.45157,124.67219 L184.4332,121.99305 L183.46687,120.79813 L183.40776,120.66654 L185.38617,117.91431 L185.77687,117.88325 L191.49588,122.12637 z M183.40776,120.66654 L178.281,119.851456 L175.13646,117.62446 L176.7214,115.687645 L183.0075,114.06542 L183.2559,114.35812 L185.38617,117.91431 z M236.73903,117.1955 L231.20688,116.16937 L225.35132,113.997154 L225.76712,112.20788 L234.34483,113.02906 L234.46187,113.15063 L235.4997,114.305626 z M194.68071,116.61285 L185.77687,117.88325 L185.38617,117.91431 L183.2559,114.35812 L196.6833,114.35812 L197.08987,115.1534 L195.5375,116.140625 z M239.02098,120.73552 L236.73903,117.1955 L235.4997,114.305626 L241.9126,113.625916 L244.28813,115.740906 L243.11124,120.106804 L240.32384,121.29402 z M196.6833,114.35812 L183.2559,114.35812 L183.0075,114.06542 L183.89757,110.213295 L184.29034,109.42229 L186.34242,108.774414 L195.18423,110.563515 z M176.14313,114.2575 L171.7127,112.61396 L169.9546,110.564186 L169.40062,109.125626 L171.03072,108.506165 L174.67691,110.67036 L176.14313,112.69063 z M165.21596,112.75333 L162.0331,112.96801 L159.44946,112.20125 L158.37549,108.217186 L160.14325,106.6795 L161.73878,106.611206 L167.43846,109.125626 z M244.28813,115.740906 L241.9126,113.625916 L241.64287,113.15063 L239.81691,109.47349 L245.40125,107.18758 L252.99908,107.81392 L247.28899,113.61127 z M214.94841,108.11692 L208.50882,105.510864 L206.95697,104.58416 L213.7655,101.2165 L214.33513,101.03538 L215.76823,102.09865 L216.37032,107.90593 z M213.7655,101.2165 L208.71121,97.466545 L210.37119,96.70096 L213.48383,96.02504 L214.66063,95.98624 L215.07788,96.07567 L214.33513,101.03538 z M230.21297,100.64509 L224.12724,101.39763 L222.25563,100.47188 L220.68028,98.13428 L220.57758,97.486496 L229.63095,97.77854 L230.2208,100.57931 z M235.00438,98.45937 L234.055,99.868126 L230.2208,100.57931 L229.63095,97.77854 L231.47372,95.42389 L231.47641,95.42221 L235.00438,95.66017 z M175.32938,103.43025 L171.16975,101.68142 L172.3536,96.41136 L172.93333,96.572655 L177.0925,98.88703 L177.0925,98.9625 L176.1475,102.70186 z M181.61333,98.9625 L177.0925,98.9625 L177.0925,98.88703 L177.36119,98.504944 L178.88028,97.055855 L181.77678,97.66985 L181.95563,98.20062 z M166.29395,100.97847 L164.90132,100.203545 L164.34375,98.9625 L164.34375,95.7425 L164.8109,94.702705 L168.11613,98.38111 L167.51581,100.71946 z M137.89688,97.00031 L136.05977,100.407845 L135.78947,100.68861 L99.78955,120.72082 L97.444855,115.61686 L136.57452,96.2624 L137.65028,96.79449 z M175.53802,95.12327 L172.93333,96.572655 L172.3536,96.41136 L171.13857,95.69018 L170.49364,93.393425 L173.43062,91.21438 L176.34782,92.720024 z M208.71121,97.466545 L205.69336,98.76283 L202.97816,97.48088 L206.02583,92.95854 L207.83006,92.28923 L208.38571,92.649956 L210.37119,96.70096 z M231.47372,95.42389 L221.86769,92.68272 L221.9535,92.26889 L225.6173,89.797714 L229.27165,89.52658 L231.33812,93.934494 L231.47641,95.42221 z M197.80635,96.36909 L195.85124,95.626114 L193.88606,94.26864 L198.03563,88.11123 L200.41354,88.789795 L201.45074,90.32887 L199.23268,96.180115 z M149.44185,96.66742 L142.28056,90.24729 L142.21046,90.17041 L145.84886,88.43504 L156.26353,93.07125 L155.75246,93.68579 L151.14818,97.57633 z M198.03563,88.11123 L193.88606,94.26864 L192.6154,93.48301 L189.15424,90.81994 L188.05153,86.274734 L188.23639,86.11423 L193.64664,86.54818 z M170.49364,93.393425 L164.62286,93.23786 L159.32504,90.35539 L161.16461,89.725464 L173.23076,88.97944 L173.43062,89.20187 L173.43062,91.21438 z M207.02116,90.938896 L205.31483,90.848465 L202.86125,90.24167 L211.26799,85.390465 L211.44524,85.43523 L211.80193,86.98527 L210.7275,88.739 z M221.9535,92.26889 L219.91573,90.47351 L220.74234,87.713684 L220.88,87.5775 L223.14117,86.31927 L223.53438,86.51375 L225.6173,89.797714 z M211.26799,85.390465 L202.86125,90.24167 L201.45074,90.32887 L200.41354,88.789795 L202.5502,85.9075 L205.33264,84.07249 L209.0077,84.37545 z M162.60995,83.186134 L157.75026,87.42799 L155.00648,83.695885 L152.96915,79.287125 L153.25528,79.016945 L159.24425,80.2865 L162.82988,82.94681 z M208.39722,80.07244 L200.62743,78.15088 L201.84723,75.88834 L202.47263,75.48058 L202.96733,75.38138 L208.48969,74.913124 L211.43953,74.913124 z M193.21791,80.027245 L189.44505,81.27134 L188.19191,79.57353 L188.34589,75.803635 L189.00812,73.89969 L190.59335,72.77256 L193.89063,76.03438 z M199.26718,78.58594 L194.85938,75.31563 L195.09593,74.08707 L199.13571,74.58661 L201.84723,75.88834 L200.62743,78.15088 L200.51147,78.27821 z M149.61984,79.67368 L147.4875,74.9275 L153.145,72.82875 L153.9882,72.95387 L154.69963,76.4225 L153.25528,79.016945 L152.96915,79.287125 z M145.76312,74.51063 L139.44269,79.98154 L137.92458,80.02486 L137.63643,75.00092 L141.7602,70.10562 L145.31566,71.01005 L145.40556,71.061935 z M165.5915,76.4225 L159.17479,70.47152 L160.32925,69.45925 L162.445,69.9825 L164.58485,70.889725 L168.59181,76.41082 L167.93669,76.93426 z M189.00812,73.89969 L181.64116,71.16678 L181.2788,70.94038 L184.56078,69.14616 L191.85953,70.951225 L191.50224,71.905556 L190.59335,72.77256 z M153.145,72.82875 L145.40556,71.061935 L145.31566,71.01005 L151.22986,66.07361 L152.22957,66.637314 L154.46889,72.33364 L153.9882,72.95387 z M184.56078,69.14616 L181.2788,70.94038 L175.50177,70.71479 L173.9645,66.976295 L175.11789,65.73408 L184.10742,62.399254 L186.85687,64.765564 z M192.15768,162.64745 L175.97359,178.6575 L174.21725,178.6575 L167.47258,175.87744 L165.0995,174.25221 L160.80557,153.54436 L171.23116,155.09897 L184.91245,159.69092 z M198.25,144.8475 L184.91245,159.69092 L171.23116,155.09897 L179.92151,148.83038 L185.64023,145.77548 L191.33313,143.53937 L196.41907,142.28156 L198.7925,144.0425 z M242.87062,138.4075 L236.63188,140.72188 L232.75821,141.9536 L231.59354,139.6313 L233.5922,138.01949 L236.69608,136.54564 L240.42938,136.85341 L242.87062,137.79257 z M214.39085,142.65872 L206.73347,139.13242 L205.79146,136.33675 L209.0304,134.88033 L213.24748,133.40796 L219.00356,135.16002 L220.34425,137.9231 L219.10648,139.7598 z M203.84337,135.54836 L197.7075,137.06583 L196.44812,136.75438 L195.22104,136.02605 L194.3784,135.479 L192.8256,133.64925 L198.48056,132.4505 L203.60474,134.98503 z M190.86899,128.04312 L183.07507,128.04312 L182.41493,127.87358 L182.4073,127.81986 L183.21341,123.93234 L184.4332,121.99305 L190.45157,124.67219 L191.82222,126.81906 z M204.46938,110.76437 L200.74825,116.28604 L198.33138,115.60587 L197.08987,115.1534 L196.6833,114.35812 L195.18423,110.563515 L197.80244,107.254 L203.1181,105.75157 z M183.38635,109.05644 L175.32938,104.458176 L175.32938,103.43025 L176.1475,102.70186 L186.37527,101.437126 L186.82951,104.91961 L186.34242,108.774414 L184.29034,109.42229 z M235.97395,103.77109 L231.05188,102.85812 L230.21297,100.64509 L230.2208,100.57931 L234.055,99.868126 L235.6373,99.868126 L240.18086,101.13226 L239.92468,101.854546 z M195.07402,100.55868 L187.71646,101.3775 L186.4235,101.3775 L186.39017,101.08896 L186.4488,100.39286 L189.32135,98.04849 L195.85124,95.626114 L197.80635,96.36909 z M184.47285,86.96752 L173.43062,89.20187 L173.23076,88.97944 L172.84026,87.99438 L171.70969,84.82553 L176.03511,83.622086 L184.36693,85.89954 L185.57785,86.4386 z M166.81891,86.30891 L164.13416,87.99438 L161.16461,89.725464 L159.32504,90.35539 L159.12035,90.32827 L157.76106,87.85285 L157.75026,87.42799 L162.60995,83.186134 z M184.36693,85.89954 L180.3475,81.92333 L180.3475,80.95062 L180.44029,80.53754 L189.02533,82.66071 L188.23639,86.11423 L188.05153,86.274734 L185.57785,86.4386 z M174.69646,80.64875 L168.31676,80.64875 L168.01003,80.32635 L167.85718,77.54783 L167.93669,76.93426 L168.59181,76.41082 L174.00554,73.878586 L177.94876,77.02925 z M232.48244,145.80025 L225.375,144.0425 L226.78493,138.8121 L227.13812,138.82588 L229.26367,138.9504 L230.8,139.35957 L231.59354,139.6313 L232.75821,141.9536 L233.17178,143.52194 z M204.24562,141.79861 L199.63412,141.58476 L198.58762,141.03017 L198.54518,140.92313 L197.7075,138.28172 L197.7075,137.06583 L203.84337,135.54836 L205.79146,136.33675 L206.73347,139.13242 z M187.72862,139.70789 L183.51208,144.71333 L179.92151,148.83038 L171.23116,155.09897 L160.80557,153.54436 L153.71687,150.64684 L183.97018,134.02017 L190.74915,132.04428 L190.80594,132.09734 z M229.82071,129.42131 L226.32437,129.20955 L224.97878,129.10768 L222.41528,126.08186 L227.04378,123.02937 L229.59561,123.54573 L231.03114,129.22607 L230.96515,129.2486 L230.8,129.28159 z M210.26352,122.90595 L206.44,124.79716 L206.27126,124.23375 L210.04938,119.188126 L210.32062,118.85271 L210.71884,118.918365 L211.40562,119.09207 L211.40562,119.993126 L210.63063,122.29312 z M177.02469,122.18172 L155.93234,130.0063 L157.41237,128.0572 L158.16151,127.33037 L165.71606,120.54537 L168.80748,119.075096 L172.61348,117.960434 L175.13646,117.62446 L178.281,119.851456 z M169.40062,109.125626 L167.43846,109.125626 L161.73878,106.611206 L166.29395,100.97847 L167.51581,100.71946 L171.16975,101.68142 L175.32938,103.43025 L175.32938,104.458176 L171.03072,108.506165 z M203.1181,105.75157 L197.80244,107.254 L196.06493,104.675766 L195.07402,100.55868 L197.80635,96.36909 L199.23268,96.180115 L202.97816,97.48088 L205.69336,98.76283 L206.60913,104.42492 z M162.17375,97.3525 L161.51823,97.3525 L155.75246,93.68579 L156.26353,93.07125 L159.12035,90.32827 L159.32504,90.35539 L164.62286,93.23786 L164.8109,94.702705 L164.34375,95.7425 z M219.2275,96.188034 L216.01688,96.13625 L215.07788,96.07567 L214.66063,95.98624 L214.66063,89.355774 L219.07259,90.125984 L219.91573,90.47351 L221.9535,92.26889 L221.86769,92.68272 z M145.84886,88.43504 L142.21046,90.17041 L138.0475,89.20142 L132.98999,87.39741 L129.83412,85.907394 L137.92458,80.02486 L139.44269,79.98154 L145.89874,80.50219 L145.89874,88.40125 z M198.54189,84.01312 L196.01219,85.37813 L193.64664,86.54818 L188.23639,86.11423 L189.02533,82.66071 L189.44505,81.27134 L193.21791,80.027245 L196.7893,79.421585 L198.55113,83.996666 z M211.26799,85.390465 L209.0077,84.37545 L208.39722,80.07244 L211.43953,74.913124 L213.202,74.43762 L215.53163,83.42553 L215.40959,83.518814 L215.04573,83.76564 L211.44524,85.43523 z M183.46146,74.76823 L180.9533,77.55956 L179.24109,77.423454 L178.12845,77.148285 L177.94876,77.02925 L174.00554,73.878586 L175.50177,70.71479 L181.2788,70.94038 L181.64116,71.16678 z M171.9218,66.46691 L163.47073,63.001835 L162.08745,59.307102 L170.71812,60.221874 L174.32349,61.55935 L174.9544,64.60202 L175.11789,65.73408 L173.9645,66.976295 L172.53937,66.674194 z M198.07097,131.23495 L190.8561,132.1271 L190.80594,132.09734 L190.74915,132.04428 L190.86899,128.04312 L191.82222,126.81906 L195.5375,126.38052 L195.91527,126.36141 L196.57596,126.395615 L198.15778,131.09006 z M235.59416,128.77895 L231.03114,129.22607 L229.59561,123.54573 L232.12299,120.49863 L237.20062,120.61635 L239.02098,120.73552 L240.32384,121.29402 L239.95303,123.036415 L239.104,126.24333 L236.60808,128.39543 z M141.86299,100.23799 L140.35683,98.28242 L140.359,98.273605 L142.33165,97.019104 L149.44185,96.66742 L151.14818,97.57633 L151.21634,98.73964 L151.14929,99.07795 L148.5866,100.77375 L143.54791,100.77375 z M219.34256,119.323166 L215.6307,118.66461 L214.16544,109.42399 L214.94841,108.11692 L216.37032,107.90593 L216.59647,107.908676 L218.80229,108.158325 L224.67833,109.822914 L225.76712,112.20788 L225.35132,113.997154 L224.60518,115.90009 L220.42853,118.74765 z" fill="none" stroke="gold" stroke-width="0.6"/>
</g>
<g inkscape:groupmode="layer" inkscape:label="white">
<path d="M190.4426,220.63744 L190.17128,220 L190.34346,220 z M101.49932,242.293 L86.09056,220 L103.8524,220 z M60.4785,172.33826 L58.2,171.21124 L65.795,168.39375 z M52.368126,159.03563 L49.859062,157.17406 L52.368126,156.55354 z M296.5453,223.71428 L291.59293,220 L294.04218,220 z M199.54518,140.92313 L195.85938,140.92313 L198.7075,138.28172 z M244.4555,140.72188 L237.63188,140.72188 L243.87062,138.4075 z M207.27126,124.23375 L205.76,123.1125 L211.04938,119.188126 z M227.9419,122.613655 L221.42853,118.74765 L235.85751,108.91028 z M192.49588,122.12637 L186.77687,117.88325 L195.68071,116.61285 z M40.975624,118.58437 L37.9839,119.324265 L37.585,118.58437 z M165.34375,98.9625 L163.17375,97.3525 L165.34375,95.7425 z M295.1936,-10 L300,-13.328292 L300,-10 z M-2.330055,-10 L-10,-10 L-10,-18.928362 z M-10,229.18562 L-10,220 L-0.71453124,220 z M175.18727,184.79562 L171.31125,184.79562 L172.64813,184.13437 L174.8375,183.8095 z M177.60216,180.72418 L176.72777,182.34604 L175.78688,182.49562 L175.78688,179.71407 z M47.606506,181.65985 L44.064,177.71738 L44.898315,177.44226 L48.674953,180.24428 z M48.674953,180.24428 L44.898315,177.44226 L50.66612,174.76767 L50.1857,178.45087 z M55.623123,162.35625 L48.219597,162.35625 L51.896385,160.0375 L55.623123,160.867 z M40.401215,159.31975 L36.39854,164.66525 L34.60125,164.57 L38.756306,158.40443 z M54.775467,146.96063 L49.384377,146.96063 L53.90521,146.2898 L54.784718,146.94234 z M68.50036,146.3251 L66.06625,146.92708 L66.06625,145.85374 L66.547104,145.497 z M54.784718,146.94234 L53.90521,146.2898 L54.266876,144.94812 L58.1347,145.52206 z M243.91583,145.61896 L241.71106,144.80106 L241.63281,144.39468 L243.47882,143.02507 z M296.5453,223.71428 L294.04218,220 L300,220 L300,226.37239 z M226.31688,144.0425 L224.10812,145.95438 L223.06914,145.46382 L222.09492,141.84981 z M241.63281,144.39468 L236.8836,143.22015 L244.20215,141.2809 L243.47882,143.02507 z M196.22104,136.02605 L184.51208,144.71333 L188.72862,139.70789 L195.3784,135.479 z M42.204727,134.92021 L39.84062,139.30525 L28.568184,137.53119 L37.003,134.277 z M230.26367,138.9504 L228.13812,138.82588 L228.13812,134.43282 L229.6098,133.61389 z M247.26839,134.87636 L241.42938,132.16875 L240.86221,131.32716 L250.5715,132.52777 z M199.48056,132.4505 L193.8256,133.64925 L191.8561,132.1271 L199.07097,131.23495 z M191.74915,132.04428 L184.97018,134.02017 L184.07507,128.04312 L191.86899,128.04312 z M59.691875,130.09587 L57.92875,129.311 L57.92875,122.99175 L63.975365,121.19727 z M182.4325,126.735 L179.42482,124.503494 L179.50688,124.47813 L181.53099,124.72842 z M182.4325,126.735 L181.53099,124.72842 L184.21341,123.93234 L183.4073,127.81986 z M212.83188,124.96687 L211.03758,124.07938 L211.26352,122.90595 L211.63063,122.29312 z M45.673183,121.5086 L37.035965,122.576645 L38.16288,120.785 L43.489902,118.808846 z M173.61348,117.960434 L169.80748,119.075096 L170.9546,110.564186 L172.7127,112.61396 z M166.71606,120.54537 L159.16151,127.33037 L163.0331,112.96801 L166.21596,112.75333 z M179.33778,111.76017 L177.14313,112.69063 L175.67691,110.67036 L177.62535,110.489655 z M207.3012,110.4246 L205.46938,110.76437 L204.1181,105.75157 L210.48827,103.33081 z M193.76335,104.18585 L188.71646,101.3775 L196.07402,100.55868 L197.06493,104.675766 z M142.86299,100.23799 L136.78947,100.68861 L137.05977,100.407845 L141.35683,98.28242 z M185.82312,99.26437 L182.95563,98.20062 L182.77678,97.66985 L183.44969,97.50344 z M190.32135,98.04849 L189.50438,96.53313 L220.95,73.2025 L200.06952,94.432236 z M178.0925,98.88703 L173.93333,96.572655 L176.53802,95.12327 L178.36119,98.504944 z M143.33165,97.019104 L141.66362,96.24563 L143.28056,90.24729 L150.44185,96.66742 z M186.1746,94.4287 L181.33932,91.73811 L185.47285,86.96752 L204.38606,77.914375 z M174.23076,88.97944 L162.16461,89.725464 L165.13416,87.99438 L173.84026,87.99438 z M163.82988,82.94681 L160.24425,80.2865 L169.38751,77.379196 L169.06638,80.297844 z M149.83504,79.806015 L147.09334,74.72063 L148.4875,74.9275 L150.61984,79.67368 z M172.64813,184.13437 L171.31125,184.79562 L162.74855,187.9721 L163.23393,185.5713 L170.82687,183.45876 z M172.64813,184.13437 L170.82687,183.45876 L173.3503,182.2106 L174.8375,182.99875 L174.8375,183.8095 z M43.2425,181.69063 L39.755,182.98438 L38.81606,182.63606 L38.534374,181.17313 L39.114033,178.80775 z M184.63972,183.3244 L176.72777,182.34604 L177.60216,180.72418 L181.27084,179.81688 L185.15224,180.15567 z M177.60216,180.72418 L175.78688,179.71407 L175.21725,178.6575 L176.97359,178.6575 L181.27084,179.81688 z M59.856403,182.6363 L50.1857,178.45087 L50.66612,174.76767 L51.320057,173.17981 L56.837036,175.63576 z M181.27084,179.81688 L176.97359,178.6575 L193.15768,162.64745 L195.80574,163.65991 L185.15224,180.15567 z M59.243855,165.49033 L55.623123,162.35625 L55.623123,160.867 L56.672436,160.55559 L59.604374,163.81856 z M59.604374,163.81856 L56.672436,160.55559 L59.474876,157.09021 L61.580578,155.7883 L63.289448,157.3251 z M55.623123,160.867 L51.896385,160.0375 L52.410954,159.27394 L59.474876,157.09021 L56.672436,160.55559 z M40.401215,159.31975 L38.756306,158.40443 L38.45955,157.63382 L41.11125,157.3879 L41.11125,158.96854 z M46.665092,160.79991 L41.11125,158.96854 L41.11125,157.3879 L43.036213,155.42412 L46.478962,159.51099 z M41.11125,157.3879 L38.45955,157.63382 L32.34454,154.91165 L42.798138,153.03954 L43.036213,155.42412 z M52.368126,156.55354 L49.859062,157.17406 L48.600765,156.98735 L52.17567,152.74359 L53.35542,153.13516 z M48.36814,157.10815 L46.478962,159.51099 L43.036213,155.42412 L42.798138,153.03954 L44.096718,151.8263 z M54.421875,148.01 L48.03856,150.378 L49.261368,146.97583 L49.384377,146.96063 L54.775467,146.96063 z M75.01411,151.63339 L69.32125,150.46014 L69.32125,146.50781 L70.6057,145.07834 L72.47938,146.93187 z M69.32125,150.46014 L62.26875,151.62291 L66.06625,146.92708 L68.50036,146.3251 L69.32125,146.50781 z M45.519062,144.72173 L42.192944,148.42337 L39.8392,146.37334 L40.729034,145.21799 L44.917793,144.05257 z M204.9619,144.8475 L199.25,144.8475 L199.7925,144.0425 L199.92813,143.94188 L204.91495,143.94188 z M214.95035,145.21887 L205.0868,143.38936 L205.24562,141.79861 L207.73347,139.13242 L215.39085,142.65872 z M44.917793,144.05257 L40.729034,145.21799 L42.289352,140.00853 L43.688126,139.83063 L46.129375,142.03 z M204.91495,143.94188 L199.92813,143.94188 L200.63412,141.58476 L205.24562,141.79861 L205.0868,143.38936 z M199.7925,144.0425 L197.41907,142.28156 L199.58762,141.03017 L200.63412,141.58476 L199.92813,143.94188 z M50.218323,144.01895 L46.332813,142.09708 L50.341427,140.11433 L50.82527,140.5092 L50.475124,143.88641 z M197.41907,142.28156 L192.33313,143.53937 L195.85938,140.92313 L199.54518,140.92313 L199.58762,141.03017 z M52.161457,140.32896 L50.82527,140.5092 L50.341427,140.11433 L49.540867,139.01125 L52.60547,139.01125 z M197.44812,136.75438 L186.64023,145.77548 L180.92151,148.83038 L184.51208,144.71333 L196.22104,136.02605 z M61.90103,141.14458 L58.074062,139.16937 L61.48448,135.79562 L61.607346,135.7816 L65.52144,139.4116 z M195.3784,135.479 L188.72862,139.70789 L191.80594,132.09734 L191.8561,132.1271 L193.8256,133.64925 z M61.48448,135.79562 L58.074062,139.16937 L57.051407,138.81918 L56.87505,138.58553 L60.776875,135.69063 z M60.776875,135.69063 L56.87505,138.58553 L55.129944,136.51392 L53.644596,133.9425 L53.681545,133.93587 z M65.52144,139.4116 L61.607346,135.7816 L63.40493,132.58075 L97.52019,127.34392 L75.92339,137.43274 z M228.13812,138.82588 L227.78493,138.8121 L221.56567,137.93912 L227.32437,134.73468 L228.13812,134.43282 z M231.8,139.35957 L230.26367,138.9504 L229.6098,133.61389 L230.82071,129.42131 L231.8,129.28159 z M232.59354,139.6313 L231.8,139.35957 L231.8,129.28159 L231.96515,129.2486 L234.5922,138.01949 z M237.69608,136.54564 L234.5922,138.01949 L231.96515,129.2486 L232.03114,129.22607 L236.59416,128.77895 z M228.13812,134.43282 L227.32437,134.73468 L227.32437,129.20955 L230.82071,129.42131 L229.6098,133.61389 z M243.87062,137.79257 L241.42938,136.85341 L241.42938,132.16875 L247.26839,134.87636 L245.94376,136.59625 z M210.0304,134.88033 L208.46017,130.22029 L208.49643,130.03195 L213.77202,131.15027 L214.24748,133.40796 z M203.72902,130.5248 L199.15778,131.09006 L197.57596,126.395615 L199.05,126.262245 L203.98935,127.91726 z M57.92875,129.311 L48.2814,127.879456 L49.54559,125.76039 L53.474277,124.181526 L57.92875,122.99175 z M212.34105,127.45255 L208.22386,126.68888 L211.03758,124.07938 L212.83188,124.96687 L214.05511,126.10133 z M184.21341,123.93234 L181.53099,124.72842 L179.50688,124.47813 L184.46687,120.79813 L185.4332,121.99305 z M203.98935,127.91726 L199.05,126.262245 L202.77625,121.00944 L204.26813,122.227 L204.26813,127.83578 z M211.03758,124.07938 L208.22386,126.68888 L207.56631,126.671455 L207.44,124.79716 L211.26352,122.90595 z M212.83188,124.96687 L211.63063,122.29312 L212.40562,119.993126 L214.96744,125.695206 L214.05511,126.10133 z M179.28394,124.517426 L170.02205,132.01385 L144.66702,143.83841 L156.93234,130.0063 L178.02469,122.18172 z M230.59561,123.54573 L228.04378,123.02937 L227.9419,122.613655 L235.85751,108.91028 L254.48328,94.74568 z M199.33138,115.60587 L196.91527,126.36141 L196.5375,126.38052 L196.5375,116.140625 L198.08987,115.1534 z M43.489902,118.808846 L38.16288,120.785 L37.9839,119.324265 L40.975624,118.58437 L43.277943,118.15733 z M53.474277,124.181526 L49.54559,125.76039 L46.56091,122.06966 L49.20886,118.14044 L51.510624,118.35391 z M49.182087,118.01132 L42.880146,115.20595 L42.70898,114.68209 L42.36955,109.7713 L49.36567,117.557304 z M216.6307,118.66461 L212.40562,119.09207 L211.71884,118.918365 L214.04077,110.30478 L215.16544,109.42399 z M214.04077,110.30478 L211.71884,118.918365 L211.32062,118.85271 L205.40862,116.60331 L207.91191,114.049545 z M176.13646,117.62446 L173.61348,117.960434 L172.7127,112.61396 L177.14313,114.2575 L177.7214,115.687645 z M163.0331,112.96801 L159.16151,127.33037 L158.41237,128.0572 L159.33191,114.41231 L160.44946,112.20125 z M159.33191,114.41231 L153.49184,110.94594 L155.1653,109.54239 L159.37549,108.217186 L160.44946,112.20125 z M179.33778,111.76017 L177.62535,110.489655 L184.38635,109.05644 L185.29034,109.42229 L184.89757,110.213295 z M184.38635,109.05644 L177.62535,110.489655 L175.67691,110.67036 L172.03072,108.506165 L176.32938,104.458176 z M152.86626,107.4955 L146.60663,105.63781 L149.5866,100.77375 L152.14929,99.07795 L152.86626,99.7675 z M193.76335,104.18585 L187.82951,104.91961 L187.37527,101.437126 L187.4235,101.3775 L188.71646,101.3775 z M144.54791,100.77375 L105.95108,122.25102 L103.84766,119.01913 L136.78947,100.68861 L142.86299,100.23799 z M172.16975,101.68142 L168.51581,100.71946 L169.11613,98.38111 L172.13857,95.69018 L173.3536,96.41136 z M141.35683,98.28242 L137.05977,100.407845 L138.89688,97.00031 L139.58543,96.95774 L141.359,98.273605 z M162.08017,99.30259 L152.21634,98.73964 L152.14818,97.57633 L156.75246,93.68579 L162.51823,97.3525 z M141.359,98.273605 L139.58543,96.95774 L140.70522,96.24563 L141.66362,96.24563 L143.33165,97.019104 z M190.32135,98.04849 L187.4488,100.39286 L187.328,100.15759 L186.23515,95.562904 L189.50438,96.53313 z M183.44969,97.50344 L182.77678,97.66985 L179.88028,97.055855 L180.79445,95.11798 L185.52829,94.93313 z M169.11613,98.38111 L165.8109,94.702705 L165.62286,93.23786 L171.49364,93.393425 L172.13857,95.69018 z M139.58543,96.95774 L138.89688,97.00031 L138.65028,96.79449 L139.80104,94.23312 L140.70522,96.24563 z M139.80104,94.23312 L138.65028,96.79449 L137.57452,96.2624 L133.98999,87.39741 L139.0475,89.20142 z M173.84026,87.99438 L165.13416,87.99438 L167.81891,86.30891 L172.02086,84.43836 L172.70969,84.82553 z M158.76106,87.85285 L149.37845,87.521355 L149.89845,85.206474 L156.00648,83.695885 L158.75026,87.42799 z M149.37845,87.521355 L146.89874,88.40125 L146.89874,80.50219 L147.34293,80.46637 L149.89845,85.206474 z M167.81891,86.30891 L163.60995,83.186134 L163.82988,82.94681 L169.06638,80.297844 L172.02086,84.43836 z M154.145,72.82875 L148.4875,74.9275 L147.09334,74.72063 L146.76312,74.51063 L146.40556,71.061935 z M166.5915,76.4225 L155.69963,76.4225 L154.9882,72.95387 L155.46889,72.33364 L160.17479,70.47152 z M173.3503,182.2106 L170.82687,183.45876 L163.23393,185.5713 L163.31302,182.22644 L166.0995,174.25221 L168.47258,175.87744 z M175.78688,182.49562 L174.8375,182.99875 L173.3503,182.2106 L168.47258,175.87744 L175.21725,178.6575 L175.78688,179.71407 z M46.8231,183.46167 L43.2425,181.69063 L39.114033,178.80775 L37.75865,176.99765 L44.064,177.71738 L47.606506,181.65985 z M62.133125,185.339 L59.856403,182.6363 L56.837036,175.63576 L60.831123,174.69287 L61.31321,174.72398 L62.133125,175.94063 z M60.831123,174.69287 L56.837036,175.63576 L51.320057,173.17981 L50.386494,171.21124 L58.2,171.21124 L60.4785,172.33826 z M41.553505,173.60875 L38.534374,170.80875 L38.534374,165.06918 L46.32427,165.97578 L49.20294,169.26605 L49.23269,169.81044 z M74.87529,170.25189 L71.040764,168.2604 L67.13981,158.7883 L69.76688,157.81375 L109.9517,177.69011 L108.27641,181.05408 z M48.36814,157.10815 L44.096718,151.8263 L44.89735,150.86101 L48.018494,150.40695 L52.17567,152.74359 L48.600765,156.98735 z M66.06625,146.92708 L62.26875,151.62291 L61.9975,151.69 L61.19021,149.89313 L60.586266,146.66692 L66.06625,145.85374 z M100.14597,126.405045 L72.47938,146.93187 L70.6057,145.07834 L72.21806,141.83133 L75.92339,137.43274 L97.52019,127.34392 z M234.61337,167.77818 L224.10812,145.95438 L226.31688,144.0425 L226.375,144.0425 L233.48244,145.80025 L234.29788,153.96788 z M68.50036,146.3251 L66.547104,145.497 L66.27465,144.58734 L72.21806,141.83133 L70.6057,145.07834 L69.32125,146.50781 z M208.16356,165.43451 L195.80574,163.65991 L193.15768,162.64745 L185.91245,159.69092 L199.25,144.8475 L204.9619,144.8475 z M223.06914,145.46382 L214.82204,147.50343 L214.95035,145.21887 L215.39085,142.65872 L220.10648,139.7598 L222.09492,141.84981 z M241.71106,144.80106 L234.29788,153.96788 L233.48244,145.80025 L234.17178,143.52194 L236.8836,143.22015 L241.63281,144.39468 z M49.33917,146.13885 L45.519062,144.72173 L44.917793,144.05257 L46.129375,142.03 L46.332813,142.09708 L50.218323,144.01895 z M58.1347,145.52206 L54.266876,144.94812 L52.135838,143.71838 L54.393974,142.42963 L60.315994,144.42679 L60.080006,145.35226 z M72.21806,141.83133 L66.27465,144.58734 L61.311073,143.11429 L61.90103,141.14458 L65.52144,139.4116 L75.92339,137.43274 z M54.393974,142.42963 L52.135838,143.71838 L50.475124,143.88641 L50.82527,140.5092 L52.161457,140.32896 L54.703693,140.70619 z M195.85938,140.92313 L192.33313,143.53937 L186.64023,145.77548 L197.44812,136.75438 L198.7075,137.06583 L198.7075,138.28172 z M54.703693,140.70619 L52.161457,140.32896 L52.60547,139.01125 L55.129944,136.51392 L56.87505,138.58553 L57.051407,138.81918 z M52.60547,139.01125 L49.540867,139.01125 L48.352448,137.73764 L53.152813,133.78035 L53.644596,133.9425 L55.129944,136.51392 z M42.289352,140.00853 L39.84062,139.30525 L42.204727,134.92021 L43.79797,134.66692 L45.61606,138.26399 L43.688126,139.83063 z M48.352448,137.73764 L45.61606,138.26399 L43.79797,134.66692 L47.379215,128.35641 L48.061985,128.1847 L53.152813,133.78035 z M60.776875,135.69063 L53.681545,133.93587 L59.691875,131.89203 L63.40493,132.58075 L61.607346,135.7816 L61.48448,135.79562 z M241.42938,136.85341 L237.69608,136.54564 L236.59416,128.77895 L237.60808,128.39543 L240.86221,131.32716 L241.42938,132.16875 z M42.204727,134.92021 L37.003,134.277 L43.53651,128.68379 L44.20535,128.40259 L47.379215,128.35641 L43.79797,134.66692 z M204.60474,134.98503 L199.48056,132.4505 L199.07097,131.23495 L199.15778,131.09006 L203.72902,130.5248 L204.5648,134.55545 z M210.0304,134.88033 L206.79146,136.33675 L204.84337,135.54836 L204.60474,134.98503 L204.5648,134.55545 L208.46017,130.22029 z M220.00356,135.16002 L214.24748,133.40796 L213.77202,131.15027 L213.82068,130.6087 L217.34767,128.77695 L222.99286,131.5692 z M222.99286,131.5692 L217.34767,128.77695 L219.05182,125.29994 L221.02849,124.539505 L223.41528,126.08186 L225.97878,129.10768 z M217.34767,128.77695 L213.82068,130.6087 L212.34105,127.45255 L214.05511,126.10133 L214.96744,125.695206 L219.05182,125.29994 z M183.41493,127.87358 L170.02205,132.01385 L179.28394,124.517426 L179.42482,124.503494 L182.4325,126.735 L183.4073,127.81986 z M228.04378,123.02937 L223.41528,126.08186 L221.02849,124.539505 L220.34256,119.323166 L221.42853,118.74765 L227.9419,122.613655 z M196.5375,126.38052 L192.82222,126.81906 L191.45157,124.67219 L192.49588,122.12637 L195.68071,116.61285 L196.5375,116.140625 z M40.975624,118.58437 L37.585,118.58437 L37.53979,118.51729 L42.70898,114.68209 L42.880146,115.20595 L43.277943,118.15733 z M169.80748,119.075096 L166.71606,120.54537 L166.21596,112.75333 L168.43846,109.125626 L170.40062,109.125626 L170.9546,110.564186 z M184.0075,114.06542 L177.7214,115.687645 L177.14313,114.2575 L177.14313,112.69063 L179.33778,111.76017 L184.89757,110.213295 z M207.91191,114.049545 L205.40862,116.60331 L202.77625,116.67433 L201.74825,116.28604 L205.46938,110.76437 L207.3012,110.4246 z M214.04077,110.30478 L207.91191,114.049545 L207.3012,110.4246 L210.48827,103.33081 L222.43597,97.28687 L215.16544,109.42399 z M153.49184,110.94594 L116.55689,132.47714 L116.059814,131.92778 L146.60663,105.63781 L152.86626,107.4955 L155.1653,109.54239 z M155.1653,109.54239 L152.86626,107.4955 L152.86626,99.7675 L158.15562,103.69187 L161.14325,106.6795 L159.37549,108.217186 z M196.18423,110.563515 L187.34242,108.774414 L187.82951,104.91961 L193.76335,104.18585 L197.06493,104.675766 L198.80244,107.254 z M162.73878,106.611206 L161.14325,106.6795 L158.15562,103.69187 L163.33792,99.84694 L165.90132,100.203545 L167.29395,100.97847 z M163.33792,99.84694 L158.15562,103.69187 L152.86626,99.7675 L152.14929,99.07795 L152.21634,98.73964 L162.08017,99.30259 z M187.37527,101.437126 L177.1475,102.70186 L178.0925,98.9625 L182.61333,98.9625 L187.39017,101.08896 L187.4235,101.3775 z M187.39017,101.08896 L182.61333,98.9625 L182.95563,98.20062 L185.82312,99.26437 L187.328,100.15759 L187.4488,100.39286 z M163.33792,99.84694 L162.08017,99.30259 L162.51823,97.3525 L163.17375,97.3525 L165.34375,98.9625 L165.90132,100.203545 z M185.82312,99.26437 L183.44969,97.50344 L185.52829,94.93313 L185.84175,94.8697 L186.23515,95.562904 L187.328,100.15759 z M178.36119,98.504944 L176.53802,95.12327 L177.34782,92.720024 L179.10915,93.1382 L180.79445,95.11798 L179.88028,97.055855 z M141.66362,96.24563 L140.70522,96.24563 L139.80104,94.23312 L139.0475,89.20142 L143.21046,90.17041 L143.28056,90.24729 z M185.52829,94.93313 L180.79445,95.11798 L179.10915,93.1382 L181.33932,91.73811 L186.1746,94.4287 L185.84175,94.8697 z M181.33932,91.73811 L179.10915,93.1382 L177.34782,92.720024 L174.43062,91.21438 L174.43062,89.20187 L185.47285,86.96752 z M157.26353,93.07125 L146.84886,88.43504 L146.89874,88.40125 L149.37845,87.521355 L158.76106,87.85285 L160.12035,90.32827 z M156.00648,83.695885 L149.89845,85.206474 L147.34293,80.46637 L149.83504,79.806015 L150.61984,79.67368 L153.96915,79.287125 z M169.38751,77.379196 L160.24425,80.2865 L154.25528,79.016945 L155.69963,76.4225 L166.5915,76.4225 L169.48053,77.05293 z M147.34293,80.46637 L146.89874,80.50219 L140.44269,79.98154 L146.76312,74.51063 L147.09334,74.72063 L149.83504,79.806015 z M154.145,72.82875 L146.40556,71.061935 L146.31566,71.01005 L152.81572,65.584595 L155.46889,72.33364 L154.9882,72.95387 z M74.87529,170.25189 L61.31321,174.72398 L60.831123,174.69287 L60.4785,172.33826 L65.795,168.39375 L66.803955,167.8755 L71.040764,168.2604 z M65.795,168.39375 L58.2,171.21124 L50.386494,171.21124 L49.23269,169.81044 L49.20294,169.26605 L59.248013,165.53966 L66.803955,167.8755 z M59.248013,165.53966 L49.20294,169.26605 L46.32427,165.97578 L47.60292,162.65541 L48.219597,162.35625 L55.623123,162.35625 L59.243855,165.49033 z M66.803955,167.8755 L59.248013,165.53966 L59.243855,165.49033 L59.604374,163.81856 L63.289448,157.3251 L67.13981,158.7883 L71.040764,168.2604 z M46.32427,165.97578 L38.534374,165.06918 L36.39854,164.66525 L40.401215,159.31975 L41.11125,158.96854 L46.665092,160.79991 L47.60292,162.65541 z M59.474876,157.09021 L52.410954,159.27394 L52.368126,159.03563 L52.368126,156.55354 L53.35542,153.13516 L60.75294,153.53676 L61.580578,155.7883 z M61.19021,149.89313 L54.421875,148.01 L54.775467,146.96063 L54.784718,146.94234 L58.1347,145.52206 L60.080006,145.35226 L60.586266,146.66692 z M66.06625,145.85374 L60.586266,146.66692 L60.080006,145.35226 L60.315994,144.42679 L61.311073,143.11429 L66.27465,144.58734 L66.547104,145.497 z M209.51381,165.76314 L208.16356,165.43451 L204.9619,144.8475 L204.91495,143.94188 L205.0868,143.38936 L214.95035,145.21887 L214.82204,147.50343 z M226.31688,144.0425 L222.09492,141.84981 L220.10648,139.7598 L221.34425,137.9231 L221.56567,137.93912 L227.78493,138.8121 L226.375,144.0425 z M60.315994,144.42679 L54.393974,142.42963 L54.703693,140.70619 L57.051407,138.81918 L58.074062,139.16937 L61.90103,141.14458 L61.311073,143.11429 z M244.20215,141.2809 L236.8836,143.22015 L234.17178,143.52194 L233.75821,141.9536 L237.63188,140.72188 L244.4555,140.72188 L244.54527,141.02634 z M50.341427,140.11433 L46.332813,142.09708 L46.129375,142.03 L43.688126,139.83063 L45.61606,138.26399 L48.352448,137.73764 L49.540867,139.01125 z M227.32437,134.73468 L221.56567,137.93912 L221.34425,137.9231 L220.00356,135.16002 L222.99286,131.5692 L225.97878,129.10768 L227.32437,129.20955 z M208.46017,130.22029 L204.5648,134.55545 L203.72902,130.5248 L203.98935,127.91726 L204.26813,127.83578 L206.14407,127.41401 L208.49643,130.03195 z M213.77202,131.15027 L208.49643,130.03195 L206.14407,127.41401 L207.56631,126.671455 L208.22386,126.68888 L212.34105,127.45255 L213.82068,130.6087 z M206.14407,127.41401 L204.26813,127.83578 L204.26813,122.227 L205.76,123.1125 L207.27126,124.23375 L207.44,124.79716 L207.56631,126.671455 z M219.05182,125.29994 L214.96744,125.695206 L212.40562,119.993126 L212.40562,119.09207 L216.6307,118.66461 L220.34256,119.323166 L221.02849,124.539505 z M184.46687,120.79813 L179.50688,124.47813 L179.42482,124.503494 L179.28394,124.517426 L178.02469,122.18172 L179.281,119.851456 L184.40776,120.66654 z M199.05,126.262245 L197.57596,126.395615 L196.91527,126.36141 L199.33138,115.60587 L201.74825,116.28604 L202.77625,116.67433 L202.77625,121.00944 z M211.04938,119.188126 L205.76,123.1125 L204.26813,122.227 L202.77625,121.00944 L202.77625,116.67433 L205.40862,116.60331 L211.32062,118.85271 z M191.45157,124.67219 L185.4332,121.99305 L184.46687,120.79813 L184.40776,120.66654 L186.38617,117.91431 L186.77687,117.88325 L192.49588,122.12637 z M49.20886,118.14044 L46.56091,122.06966 L45.673183,121.5086 L43.489902,118.808846 L43.277943,118.15733 L42.880146,115.20595 L49.182087,118.01132 z M184.40776,120.66654 L179.281,119.851456 L176.13646,117.62446 L177.7214,115.687645 L184.0075,114.06542 L184.2559,114.35812 L186.38617,117.91431 z M195.68071,116.61285 L186.77687,117.88325 L186.38617,117.91431 L184.2559,114.35812 L197.6833,114.35812 L198.08987,115.1534 L196.5375,116.140625 z M197.6833,114.35812 L184.2559,114.35812 L184.0075,114.06542 L184.89757,110.213295 L185.29034,109.42229 L187.34242,108.774414 L196.18423,110.563515 z M177.14313,114.2575 L172.7127,112.61396 L170.9546,110.564186 L170.40062,109.125626 L172.03072,108.506165 L175.67691,110.67036 L177.14313,112.69063 z M166.21596,112.75333 L163.0331,112.96801 L160.44946,112.20125 L159.37549,108.217186 L161.14325,106.6795 L162.73878,106.611206 L168.43846,109.125626 z M196.07402,100.55868 L188.71646,101.3775 L187.4235,101.3775 L187.39017,101.08896 L187.4488,100.39286 L190.32135,98.04849 L200.06952,94.432236 z M176.32938,103.43025 L172.16975,101.68142 L173.3536,96.41136 L173.93333,96.572655 L178.0925,98.88703 L178.0925,98.9625 L177.1475,102.70186 z M182.61333,98.9625 L178.0925,98.9625 L178.0925,98.88703 L178.36119,98.504944 L179.88028,97.055855 L182.77678,97.66985 L182.95563,98.20062 z M138.89688,97.00031 L137.05977,100.407845 L136.78947,100.68861 L103.84766,119.01913 L100.41784,114.640976 L137.57452,96.2624 L138.65028,96.79449 z M167.29395,100.97847 L165.90132,100.203545 L165.34375,98.9625 L165.34375,95.7425 L165.8109,94.702705 L169.11613,98.38111 L168.51581,100.71946 z M176.53802,95.12327 L173.93333,96.572655 L173.3536,96.41136 L172.13857,95.69018 L171.49364,93.393425 L174.43062,91.21438 L177.34782,92.720024 z M150.44185,96.66742 L143.28056,90.24729 L143.21046,90.17041 L146.84886,88.43504 L157.26353,93.07125 L156.75246,93.68579 L152.14818,97.57633 z M171.49364,93.393425 L165.62286,93.23786 L160.32504,90.35539 L162.16461,89.725464 L174.23076,88.97944 L174.43062,89.20187 L174.43062,91.21438 z M185.47285,86.96752 L174.43062,89.20187 L174.23076,88.97944 L173.84026,87.99438 L172.70969,84.82553 L209.70317,74.53299 L204.38606,77.914375 z M163.60995,83.186134 L158.75026,87.42799 L156.00648,83.695885 L153.96915,79.287125 L154.25528,79.016945 L160.24425,80.2865 L163.82988,82.94681 z M150.61984,79.67368 L148.4875,74.9275 L154.145,72.82875 L154.9882,72.95387 L155.69963,76.4225 L154.25528,79.016945 L153.96915,79.287125 z M146.76312,74.51063 L140.44269,79.98154 L138.92458,80.02486 L138.63643,75.00092 L142.7602,70.10562 L146.31566,71.01005 L146.40556,71.061935 z M193.15768,162.64745 L176.97359,178.6575 L175.21725,178.6575 L168.47258,175.87744 L166.0995,174.25221 L161.80557,153.54436 L172.23116,155.09897 L185.91245,159.69092 z M60.75294,153.53676 L53.35542,153.13516 L52.17567,152.74359 L48.018494,150.40695 L48.03856,150.378 L54.421875,148.01 L61.19021,149.89313 L61.9975,151.69 z M53.90521,146.2898 L49.384377,146.96063 L49.261368,146.97583 L49.33917,146.13885 L50.218323,144.01895 L50.475124,143.88641 L52.135838,143.71838 L54.266876,144.94812 z M48.018494,150.40695 L44.89735,150.86101 L43.26708,149.56186 L42.192944,148.42337 L45.519062,144.72173 L49.33917,146.13885 L49.261368,146.97583 L48.03856,150.378 z M199.25,144.8475 L185.91245,159.69092 L172.23116,155.09897 L180.92151,148.83038 L186.64023,145.77548 L192.33313,143.53937 L197.41907,142.28156 L199.7925,144.0425 z M243.87062,138.4075 L237.63188,140.72188 L233.75821,141.9536 L232.59354,139.6313 L234.5922,138.01949 L237.69608,136.54564 L241.42938,136.85341 L243.87062,137.79257 z M215.39085,142.65872 L207.73347,139.13242 L206.79146,136.33675 L210.0304,134.88033 L214.24748,133.40796 L220.00356,135.16002 L221.34425,137.9231 L220.10648,139.7598 z M204.84337,135.54836 L198.7075,137.06583 L197.44812,136.75438 L196.22104,136.02605 L195.3784,135.479 L193.8256,133.64925 L199.48056,132.4505 L204.60474,134.98503 z M59.691875,131.89203 L53.681545,133.93587 L53.644596,133.9425 L53.152813,133.78035 L48.061985,128.1847 L48.2814,127.879456 L57.92875,129.311 L59.691875,130.09587 z M191.86899,128.04312 L184.07507,128.04312 L183.41493,127.87358 L183.4073,127.81986 L184.21341,123.93234 L185.4332,121.99305 L191.45157,124.67219 L192.82222,126.81906 z M205.46938,110.76437 L201.74825,116.28604 L199.33138,115.60587 L198.08987,115.1534 L197.6833,114.35812 L196.18423,110.563515 L198.80244,107.254 L204.1181,105.75157 z M184.38635,109.05644 L176.32938,104.458176 L176.32938,103.43025 L177.1475,102.70186 L187.37527,101.437126 L187.82951,104.91961 L187.34242,108.774414 L185.29034,109.42229 z M167.81891,86.30891 L165.13416,87.99438 L162.16461,89.725464 L160.32504,90.35539 L160.12035,90.32827 L158.76106,87.85285 L158.75026,87.42799 L163.60995,83.186134 z M44.898315,177.44226 L44.064,177.71738 L37.75865,176.99765 L37.298637,176.64417 L41.553505,173.60875 L49.23269,169.81044 L50.386494,171.21124 L51.320057,173.17981 L50.66612,174.76767 z M233.48244,145.80025 L226.375,144.0425 L227.78493,138.8121 L228.13812,138.82588 L230.26367,138.9504 L231.8,139.35957 L232.59354,139.6313 L233.75821,141.9536 L234.17178,143.52194 z M205.24562,141.79861 L200.63412,141.58476 L199.58762,141.03017 L199.54518,140.92313 L198.7075,138.28172 L198.7075,137.06583 L204.84337,135.54836 L206.79146,136.33675 L207.73347,139.13242 z M188.72862,139.70789 L184.51208,144.71333 L180.92151,148.83038 L172.23116,155.09897 L161.80557,153.54436 L154.71687,150.64684 L184.97018,134.02017 L191.74915,132.04428 L191.80594,132.09734 z M230.82071,129.42131 L227.32437,129.20955 L225.97878,129.10768 L223.41528,126.08186 L228.04378,123.02937 L230.59561,123.54573 L232.03114,129.22607 L231.96515,129.2486 L231.8,129.28159 z M44.20535,128.40259 L35.593304,123.53433 L37.035965,122.576645 L45.673183,121.5086 L46.56091,122.06966 L49.54559,125.76039 L48.2814,127.879456 L48.061985,128.1847 L47.379215,128.35641 z M211.26352,122.90595 L207.44,124.79716 L207.27126,124.23375 L211.04938,119.188126 L211.32062,118.85271 L211.71884,118.918365 L212.40562,119.09207 L212.40562,119.993126 L211.63063,122.29312 z M178.02469,122.18172 L156.93234,130.0063 L158.41237,128.0572 L159.16151,127.33037 L166.71606,120.54537 L169.80748,119.075096 L173.61348,117.960434 L176.13646,117.62446 L179.281,119.851456 z M170.40062,109.125626 L168.43846,109.125626 L162.73878,106.611206 L167.29395,100.97847 L168.51581,100.71946 L172.16975,101.68142 L176.32938,103.43025 L176.32938,104.458176 L172.03072,108.506165 z M163.17375,97.3525 L162.51823,97.3525 L156.75246,93.68579 L157.26353,93.07125 L160.12035,90.32827 L160.32504,90.35539 L165.62286,93.23786 L165.8109,94.702705 L165.34375,95.7425 z M146.84886,88.43504 L143.21046,90.17041 L139.0475,89.20142 L133.98999,87.39741 L130.83412,85.907394 L138.92458,80.02486 L140.44269,79.98154 L146.89874,80.50219 L146.89874,88.40125 z M51.896385,160.0375 L48.219597,162.35625 L47.60292,162.65541 L46.665092,160.79991 L46.478962,159.51099 L48.36814,157.10815 L48.600765,156.98735 L49.859062,157.17406 L52.368126,159.03563 L52.410954,159.27394 z M199.07097,131.23495 L191.8561,132.1271 L191.80594,132.09734 L191.74915,132.04428 L191.86899,128.04312 L192.82222,126.81906 L196.5375,126.38052 L196.91527,126.36141 L197.57596,126.395615 L199.15778,131.09006 z M142.86299,100.23799 L141.35683,98.28242 L141.359,98.273605 L143.33165,97.019104 L150.44185,96.66742 L152.14818,97.57633 L152.21634,98.73964 L152.14929,99.07795 L149.5866,100.77375 L144.54791,100.77375 z M69.76688,157.81375 L67.13981,158.7883 L63.289448,157.3251 L61.580578,155.7883 L60.75294,153.53676 L61.9975,151.69 L62.26875,151.62291 L69.32125,150.46014 L75.01411,151.63339 L76.27728,152.00334 L70.24215,157.53459 z" fill="none" stroke="white" stroke-width="0.6"/>
</g>
<path d="m 15.815664,12.893319 c -1.445284,-3.0999497 -5.555449,-0.3575 -5.08537,2.32203 1.697826,2.92736 4.504013,-3.54417 4.40859,-2.58178 -1.548999,2.22986 0.741131,6.08701 3.012419,3.25791 2.532153,-2.82358 0.259001,-7.8326797 -3.488671,-7.9011197 -3.217272,0.056 -5.8863857,2.4603197 -7.9308737,4.7238797 -2.354585,2.46752 0.0048,5.887 2.757763,6.62143 3.2195457,1.10867 6.8759417,1.30834 9.9459317,-0.36585 2.270396,-1.12373 5.025949,-2.62031 5.680576,-5.20027 -2.108811,-3.66096 -6.038415,1.28356 -3.842036,3.67822 1.07278,0.89979 4.586982,-2.27037 3.201668,-2.73503 0.03094,3.24357 1.226854,6.37852 1.337023,9.60311 -0.672198,3.54892 -7.469251,0.32096 -4.637082,-2.5164 2.158436,-2.4193 5.610472,-2.84094 8.202925,-4.57369 0.993877,-1.40371 0.353413,-5.25046 3.182464,-3.48957 2.142923,1.43516 -2.250898,5.7532 1.723416,5.02339 1.661189,-0.71663 6.494946,-1.40457 4.601401,-3.95236 -4.205319,-0.68052 -1.190571,5.86505 1.665411,3.46881 1.929752,-0.9247 2.778055,-4.05119 1.423645,-5.35034 0.479155,1.8589 3.849911,7.52574 4.880369,3.32696 0.21201,-1.28088 0.40468,-3.80204 1.01246,-1.23041 0.5858,2.6865 3.83412,4.91909 4.56937,1.07383 0.65272,-1.00894 -0.2696,-4.02739 0.99929,-1.35746 1.10974,2.31613 6.32001,1.46113 6.147,-1.13059 -1.98394,-2.13868 -5.3717,1.45205 -3.78252,3.73454 2.57741,0.96208 6.69797,-0.21041 7.06275,-3.33983 0.41287,-2.63769 0.26643,-5.3430297 -0.11178,-7.9756197 0.67418,3.94149 1.24889,7.9380497 2.39963,11.7713397 2.10586,1.67977 5.7434,1.65022 7.74596,-0.23639 3.03149,-1.85431 -0.26637,-4.76925 -2.71777,-4.54025 -2.11577,0.0793 -5.36257,2.40772 -5.16868,3.85604 2.08262,-2.38818 5.55759,-1.22628 8.30726,-1.6832 3.182,-0.26596 6.46546,-0.57372 9.54494,-1.18158 0.24171,0.4199 -0.27752,0.54338 -0.43067,0.17453" fill="none" stroke="white" stroke-width="1" transform="translate(260,190) scale(0.3)"/>
</svg>