<svg height="210mm" style="background:black" viewBox="0 0 297 210" width="297mm" xmlns="http://www.w3.org/2000/svg" xmlns:inkscape="http://www.inkscape.org/namespaces/inkscape">
<g inkscape:groupmode="layer" inkscape:label="gold">
<path d="M238.25937,179.66376 L236.54146,177.75188 L238.9036,177.75188 z M164.97812,141.41002 L159.69681,139.45082 L164.08218,137.64323 z M227.73183,105.72787 L218.17455,108.38695 L224.385,100.32339 z M234.4808,105.156784 L233.71594,102.88687 L236.70586,102.88687 z M225.98827,65.03875 L223.29541,67.83583 L224.53412,63.240623 z M92.83369,74.44178 L58.022892,63.372906 L61.713768,59.904278 z M182.11063,32.449375 L178.58438,32.449375 L181.22906,31.46828 z M-20.657408,34.367405 L-11,34.516678 L-11,36.270653 z M97.984375,-19.22875 L98.34079,-10 L89.69187,-10 z M-11,230.66624 L-11,220 L3.37625,220 z M219.37234,188.48521 L216.3527,183.44438 L217.27625,181.38875 L218.54443,182.95692 z M217.27625,181.38875 L216.3527,183.44438 L214.48431,181.7809 L216.92104,180.33458 z M212.76187,181.0725 L205.43813,180.16687 L210.62378,178.98305 L212.76187,180.56938 z M212.76187,180.56938 L210.62378,178.98305 L212.14188,177.98187 L214.36403,178.48917 z M187.49042,139.8498 L177.04137,140.52393 L183.91896,136.69687 L185.63687,138.13078 z M189.16313,138.70938 L186.81876,133.49126 L192.7077,136.40407 L189.41351,139.08092 z M203.26813,129.92146 L199.50937,130.85104 L202.2999,125.33 L203.26813,125.8502 z M146.04904,122.3483 L140.25055,123.72497 L135.7375,117.50652 L136.07501,117.41491 z M169.05672,119.8925 L166.48909,119.8925 L168.02258,117.38945 L168.27687,117.578125 z M172.427,119.630875 L169.43367,120.2654 L169.05672,119.8925 L168.27687,117.578125 z M154.78438,114.267235 L146.91411,115.43508 L149.48546,110.34767 L156.92836,107.37421 z M193.91,115.01676 L187.81683,111.72895 L193.4809,104.3748 L193.91,104.71676 z M175.3875,109.3125 L164.68282,106.50938 L178.91013,99.472206 L179.12874,105.14887 z M211.94812,103.89313 L209.307,101.933586 L211.71913,99.94509 L212.42062,100.38748 z M249.3974,100.58598 L244.0123,100.87137 L242.07419,95.23937 L250.42688,95.23937 z M171.75662,96.46987 L162.36966,101.11289 L155.96448,90.024376 L160.33371,90.48747 z M171.75662,96.46987 L160.33371,90.48747 L171.70287,89.16947 L175.41333,96.32708 z M220.43413,95.737404 L215.53143,95.30946 L213.06442,91.191154 L215.37265,89.47859 z M233.78375,91.89492 L231.43214,90.74706 L233.78098,83.77634 L233.78375,83.779305 z M200.82687,83.51656 L196.71292,88.095 L196.28555,88.190125 L190.46663,87.35988 z M216.68468,85.368935 L206.3349,85.608894 L204.74576,83.02623 L211.65451,80.89046 z M216.76282,76.62375 L212.355,78.803955 L212.355,78.0325 L214.25375,76.62375 z M196.11339,74.96731 L182.92438,81.95688 L192.05063,73.25119 L194.39085,73.9023 z M214.25375,76.62375 L212.355,78.0325 L210.82922,76.14578 L211.2022,75.869064 z M250.12541,76.42079 L247.63257,72.72173 L256.6935,71.04108 L271.2014,73.525055 z M182.7095,67.75631 L179.03,71.85125 L177.2333,71.213715 L177.67815,64.612785 z M208.58261,66.28919 L204.65828,65.56129 L206.44504,64.56705 L208.7854,65.31122 z M236.05807,66.68123 L231.7544,65.882965 L231.27124,63.373653 L235.29535,64.7006 z M60.922153,58.142292 L39.271164,67.78047 L44.771748,60.236664 L60.76632,57.49814 z M214.93187,56.045937 L211.4136,54.740772 L213.40808,52.96504 L214.93187,53.53031 z M214.93187,53.53031 L213.40808,52.96504 L215.33875,41.505627 L215.33875,53.15297 z M187.53563,53.178123 L182.34528,48.77709 L184.2534,46.742012 L188.08102,47.10844 z M56.91368,48.79535 L54.36479,47.849792 L54.25798,47.64375 L57.800625,47.64375 z M168.4125,42.713123 L165.73651,48.00755 L164.89001,44.23927 L167.13603,42.239597 z M45.019657,39.23308 L25.418541,35.266876 L38.076874,35.266876 L45.852707,38.15146 z M45.852707,38.15146 L38.076874,35.266876 L42.392216,35.138805 L46.77948,37.463856 z M170.8486,38.423187 L165.76123,38.766327 L166.29675,32.409126 L173.25874,35.85269 z M49.224377,35.55252 L45.943127,35.065624 L46.689064,33.95875 L47.996876,33.95875 z M47.996876,33.95875 L46.689064,33.95875 L46.197422,33.229218 L47.472977,32.5983 z M161.87538,29.390375 L154.82999,28.92915 L154.82368,28.916986 L162.69287,24.538168 z M-11,241.37463 L-11,230.66624 L3.37625,220 L23.10079,220 z M237.8525,185.29875 L224.53357,182.82831 L225.53766,173.88867 L225.60947,173.78389 L226.64084,174.60374 z M224.00125,174.85971 L218.54443,182.95692 L217.27625,181.38875 L216.92104,180.33458 L218.5325,177.94339 z M180.16745,153.74072 L172.4475,153.58162 L172.1921,145.05452 L173.88304,144.1649 L178.8979,146.20528 z M191.23152,155.73746 L180.16745,153.74072 L178.8979,146.20528 L187.08575,148.02774 L190.49864,153.9783 z M194.76895,145.52951 L190.49864,153.9783 L187.08575,148.02774 L187.97902,145.50931 L191.33313,144.6798 z M194.76895,145.52951 L191.33313,144.6798 L195.71725,142.14989 L197.95506,142.34146 L199.67049,143.1051 z M164.8234,142.6902 L153.17033,140.09645 L159.69681,139.45082 L164.97812,141.41002 L165.7799,142.73195 z M183.91896,136.69687 L177.04137,140.52393 L176.41832,140.60953 L178.61829,134.08063 L181.35397,130.98773 z M189.16313,138.70938 L185.63687,135.22104 L182.3171,131.11594 L185.78218,132.52992 L186.81876,133.49126 z M175.49434,141.33424 L168.9389,135.65993 L171.59969,134.08063 L178.61829,134.08063 L176.41832,140.60953 z M162.5942,131.87694 L158.1728,128.59656 L159.9284,124.68896 L160.41547,124.25531 L168.09938,128.05595 z M158.1728,128.59656 L154.38416,128.03438 L150.9146,124.55921 L154.47084,123.170525 L159.9284,124.68896 z M139.75534,124.15362 L127.02601,128.25986 L135.227,117.5223 L135.7375,117.50652 L140.25055,123.72497 z M175.86925,120.424934 L167.74236,122.14768 L169.43367,120.2654 L172.427,119.630875 L174.82079,120.07488 z M152.88179,119.359924 L149.06537,123.96116 L148.60564,123.93213 L146.16846,122.34308 L146.41731,116.619225 z M174.82079,120.07488 L169.19913,114.86125 L178.11395,113.483284 L179.92393,121.204865 L175.86925,120.424934 z M218.24995,118.23804 L208.03438,117.29063 L204.13875,114.40032 L205.82515,113.49667 L210.36957,114.015396 z M167.23178,114.92524 L160.66965,118.88104 L157.45001,116.11511 L165.78845,112.67812 L167.25969,114.86125 z M218.24995,118.23804 L210.36957,114.015396 L212.12895,112.546875 L219.76013,112.546875 L227.2799,121.84554 z M144.71153,115.06811 L138.0325,116.461815 L138.0325,112.14438 L142.05862,110.15296 L143.63606,111.64842 z M219.76013,112.546875 L212.12895,112.546875 L214.39545,107.502106 L214.65825,107.49777 L217.42093,108.75039 z M149.48546,110.34767 L146.8113,110.14927 L147.994,103.12928 L157.29785,106.80101 L156.92836,107.37421 z M146.8113,110.14927 L143.63606,111.64842 L142.05862,110.15296 L136.57933,97.053734 L147.994,103.12928 z M182.54163,111.96778 L178.14645,113.40643 L175.3875,109.3125 L179.12874,105.14887 L181.44255,106.259674 z M186.53221,111.29104 L182.54163,111.96778 L181.44255,106.259674 L185.57875,107.02688 L186.08676,107.159904 z M185.57875,107.02688 L181.44255,106.259674 L179.12874,105.14887 L178.91013,99.472206 L179.65819,98.24152 z M208.3405,107.898 L204.04083,106.075096 L207.19902,102.32601 L208.51105,102.46508 L210.8391,107.21503 z M203.51082,105.97977 L200.22325,106.79282 L198.88937,106.22188 L200.88112,100.310875 L202.14113,99.88241 z M234.4808,105.156784 L231.76335,109.47714 L228.44904,106.22774 L233.14801,102.04414 L233.71594,102.88687 z M210.8391,107.21503 L208.51105,102.46508 L209.307,101.933586 L211.94812,103.89313 L211.94812,107.15625 z M236.70586,102.88687 L233.71594,102.88687 L233.14801,102.04414 L233.84914,100.31016 L238.14233,101.58427 z M207.19902,102.32601 L204.04083,106.075096 L203.51082,105.97977 L202.14113,99.88241 L203.07462,98.925964 z M197.02937,101.180626 L192.0997,102.77084 L191.17133,102.38152 L189.80542,100.910446 L197.02937,97.694626 z M250.42688,95.23937 L242.07419,95.23937 L240.26616,92.49816 L245.9258,90.79583 L263.23773,89.69489 z M215.53143,95.30946 L210.31746,97.39247 L208.5575,96.933685 L208.5575,90.9125 L213.06442,91.191154 z M231.24013,90.67035 L221.11732,94.76697 L221.7529,88.40095 L228.88083,89.13039 L229.74437,89.60023 z M200.25624,93.591095 L196.28555,88.190125 L196.71292,88.095 L205.55066,88.095 L205.64479,88.75146 z M263.23773,89.69489 L245.9258,90.79583 L246.93938,86.28375 L249.05609,83.142815 L281.37482,86.831795 z M245.9258,90.79583 L240.26616,92.49816 L239.60228,92.23547 L244.95021,86.28375 L246.93938,86.28375 z M244.95021,86.28375 L239.60228,92.23547 L239.20876,92.0989 L239.20876,88.69875 L241.8459,82.82896 z M235.02536,92.54945 L233.78375,91.89492 L233.78375,83.779305 L239.20876,88.69875 L239.20876,92.0989 z M233.78098,83.77634 L231.43214,90.74706 L231.24013,90.67035 L229.74437,89.60023 L233.29623,83.01208 z M246.93938,86.28375 L244.95021,86.28375 L241.8459,82.82896 L242.5724,80.51891 L249.05609,83.142815 z M233.29623,83.01208 L229.74437,89.60023 L228.88083,89.13039 L228.08992,78.56788 L231.07668,76.97392 z M216.68468,85.368935 L211.65451,80.89046 L212.64885,79.73115 L214.77232,79.956215 L218.23619,85.52449 z M218.23619,85.52449 L214.77232,79.956215 L217.74301,76.92563 L225.88435,79.21679 L218.52853,85.61528 z M212.21938,79.13937 L206.11035,77.779625 L210.82922,76.14578 L212.355,78.0325 L212.355,78.803955 z M250.12541,76.42079 L240.92256,78.25908 L237.75182,76.40424 L240.6332,73.1212 L247.63257,72.72173 z M211.38692,75.18377 L204.64429,71.181694 L209.27437,69.881874 L215.52087,69.881874 L215.43022,71.05895 z M256.6935,71.04108 L247.63257,72.72173 L240.6332,73.1212 L243.69406,66.7625 L243.70004,66.756485 z M182.49037,74.14838 L179.03,71.85125 L182.7095,67.75631 L187.76282,69.38641 L188.01553,71.07389 z M236.1798,66.7625 L229.84154,73.81636 L229.19376,73.10231 L231.7544,65.882965 L236.05807,66.68123 z M228.26833,64.61584 L226.05594,71.181656 L222.19092,69.47476 L223.29541,67.83583 L225.98827,65.03875 z M208.7854,65.31122 L206.44504,64.56705 L206.81458,62.099495 L206.92032,62.00797 L209.78474,64.4874 z M206.44504,64.56705 L204.65828,65.56129 L204.28992,65.67516 L202.19717,63.65668 L206.81458,62.099495 z M243.25995,62.16808 L235.29535,64.7006 L231.27124,63.373653 L230.84032,62.707584 L230.36908,56.588966 z M58.022892,63.372906 L31.227812,77.83125 L39.271164,67.78047 L60.922153,58.142292 L61.713768,59.904278 z M207.44653,60.641502 L201.52173,61.269478 L202.20671,59.871876 L207.3183,58.788315 L208.09566,59.826466 z M199.77579,63.098072 L196.44261,57.327747 L198.34088,56.29854 L200.82687,61.831875 L200.01312,63.039375 z M200.82687,61.831875 L198.34088,56.29854 L200.01872,55.001823 L202.20671,59.871876 L201.52173,61.269478 z M214.6313,60.692364 L208.09566,59.826466 L207.3183,58.788315 L205.53763,53.999172 L209.13908,54.58005 z M199.04526,52.530922 L193.04408,54.757164 L190.20291,53.070793 L193.75177,51.227676 L197.09387,50.979713 z M217.31053,53.518703 L215.8791,56.704792 L214.93187,56.045937 L214.93187,53.53031 L215.33875,53.15297 z M61.209873,55.194527 L56.63674,53.19866 L60.56976,49.307934 L64.347435,51.643593 L65.35084,53.504745 z M60.56976,49.307934 L56.63674,53.19866 L56.384335,53.11768 L57.260796,50.08304 L60.14806,48.36931 z M74.217476,53.23064 L65.35084,53.504745 L64.347435,51.643593 L63.431873,46.54893 L66.86192,47.227566 z M60.14806,48.36931 L57.260796,50.08304 L56.91368,48.79535 L57.800625,47.64375 L60.84492,45.008633 z M193.75177,51.227676 L188.55605,46.987293 L190.655,45.43 L197.68933,43.69033 L197.09387,50.979713 z M181.14032,49.360126 L177.38809,52.29056 L170.33458,51.494198 L174.63757,44.044926 L175.24037,43.888393 z M181.14032,49.360126 L175.24037,43.888393 L180.55757,41.8063 L184.2534,46.742012 L182.34528,48.77709 z M105.841484,32.668392 L67.01021,47.073544 L80.777504,26.644646 L99.31461,15.215817 L105.006874,30.33625 z M60.50586,42.776016 L54.148438,47.492813 L52.114063,46.98969 L59.125874,41.787376 L60.46004,41.178226 z M59.125874,41.787376 L52.114063,46.98969 L49.731583,46.67775 L49.151566,46.49332 L50.603992,45.236115 z M164.89001,44.23927 L161.22438,41.908127 L163.84814,39.63701 L164.33488,39.594524 L167.13603,42.239597 z M161.22438,41.908127 L143.65477,49.72943 L157.70644,35.82887 L159.2354,36.000748 L163.84814,39.63701 z M46.689064,33.95875 L45.943127,35.065624 L42.688126,35.065624 L45.265,33.426876 L46.197422,33.229218 z M46.197422,33.229218 L45.265,33.426876 L45.265,31.745 L47.60728,32.324272 L47.472977,32.5983 z M47.60728,32.324272 L45.265,31.745 L44.90333,31.476667 L49.522118,24.622986 L49.06889,31.348295 z M185.10858,27.505579 L181.09796,31.225103 L176.2178,28.962128 L176.07097,28.22134 L182.62271,21.80486 z M165.83792,30.37036 L161.87538,29.390375 L162.69287,24.538168 L166.37813,18.522875 L168.38054,28.031147 z M220.61707,191.80984 L219.37234,188.48521 L218.54443,182.95692 L224.00125,174.85971 L225.53766,173.88867 L224.53357,182.82831 z M237.8525,185.29875 L226.64084,174.60374 L236.54146,177.75188 L238.25937,179.66376 L238.25937,184.84593 L237.8525,185.29875 z M210.62378,178.98305 L205.43813,180.16687 L175.50969,183.67293 L199.4253,162.9425 L204.76497,161.5623 L212.14188,177.98187 z M187.08575,148.02774 L178.8979,146.20528 L173.88304,144.1649 L175.44281,141.46468 L187.6829,144.05934 L187.97902,145.50931 z M195.71725,142.14989 L191.33313,144.6798 L187.97902,145.50931 L187.6829,144.05934 L188.03981,139.95499 L189.2519,139.3282 z M164.8234,142.6902 L128.73062,150.3412 L139.6129,142.47165 L139.92867,142.33444 L148.33533,139.95296 L153.17033,140.09645 z M195.71725,142.14989 L189.2519,139.3282 L189.41351,139.08092 L192.7077,136.40407 L195.32913,135.03542 L197.95506,142.34146 z M167.3275,143.65935 L165.7799,142.73195 L164.97812,141.41002 L164.08218,137.64323 L165.16357,134.7014 L167.3275,135.33386 z M164.08218,137.64323 L159.69681,139.45082 L153.17033,140.09645 L148.33533,139.95296 L162.57072,132.20767 L165.16357,134.7014 z M185.63687,138.13078 L183.91896,136.69687 L181.35397,130.98773 L181.50539,130.69699 L182.3171,131.11594 L185.63687,135.22104 z M192.7077,136.40407 L186.81876,133.49126 L185.78218,132.52992 L191.40388,132.8775 L196.15,134.1351 L195.32913,135.03542 z M178.61829,134.08063 L171.59969,134.08063 L173.1053,127.3782 L180.89333,126.15588 L181.50539,130.69699 L181.35397,130.98773 z M162.57072,132.20767 L148.33533,139.95296 L139.92867,142.33444 L154.38416,128.03438 L158.1728,128.59656 L162.5942,131.87694 z M209.98909,135.46205 L199.42654,134.5913 L196.6225,133.86034 L196.6225,132.81442 L199.50937,130.85104 L203.26813,129.92146 z M191.40388,132.8775 L185.2639,123.76656 L191.25594,122.52852 L196.6225,132.81442 L196.6225,133.86034 L196.15,134.1351 z M199.50937,130.85104 L196.6225,132.81442 L191.25594,122.52852 L195.14114,120.248276 L197.30998,121.20062 L202.2999,125.33 z M143.64563,130.50357 L139.75534,124.15362 L140.25055,123.72497 L146.04904,122.3483 L146.16846,122.34308 L148.60564,123.93213 z M168.09938,128.05595 L160.41547,124.25531 L161.99626,121.38837 L164.8028,121.85856 L166.51375,122.81062 L169.55641,127.32554 z M210.51653,121.45778 L204.30914,126.06326 L203.26813,125.8502 L202.2999,125.33 L197.30998,121.20062 L209.61537,121.20062 z M159.9284,124.68896 L154.47084,123.170525 L156.70604,121.21063 L160.82722,120.245056 L161.99626,121.38837 L160.41547,124.25531 z M154.47084,123.170525 L150.9146,124.55921 L149.06537,123.96116 L152.88179,119.359924 L153.45927,119.10285 L156.70604,121.21063 z M169.43367,120.2654 L167.74236,122.14768 L166.51375,122.81062 L164.8028,121.85856 L166.48909,119.8925 L169.05672,119.8925 z M156.70604,121.21063 L153.45927,119.10285 L155.68887,115.321785 L157.45001,116.11511 L160.66965,118.88104 L160.82722,120.245056 z M210.51653,121.45778 L209.61537,121.20062 L208.03438,117.29063 L218.24995,118.23804 L227.2799,121.84554 L232.91771,126.20641 z M138.0325,116.461815 L136.07501,117.41491 L135.7375,117.50652 L135.227,117.5223 L96.67921,91.690056 L138.0325,112.14438 z M149.48546,110.34767 L146.91411,115.43508 L146.19594,115.66113 L144.71153,115.06811 L143.63606,111.64842 L146.8113,110.14927 z M198.28369,115.78673 L196.08212,117.06785 L193.91,115.01676 L193.91,104.71676 L198.88937,106.22188 L200.22325,106.79282 z M193.4809,104.3748 L187.81683,111.72895 L186.53221,111.29104 L186.08676,107.159904 L191.17133,102.38152 L192.0997,102.77084 z M242.95757,130.04285 L231.76335,109.47714 L234.4808,105.156784 L236.70586,102.88687 L238.14233,101.58427 L243.78609,101.15109 z M200.88112,100.310875 L198.88937,106.22188 L193.91,104.71676 L193.4809,104.3748 L192.0997,102.77084 L197.02937,101.180626 z M214.39545,107.502106 L211.94812,107.15625 L211.94812,103.89313 L212.42062,100.38748 L217.7174,101.69743 L214.65825,107.49777 z M197.02937,97.694626 L189.80542,100.910446 L184.67238,96.46733 L186.3955,93.79765 L199.83827,94.40212 L200.19395,94.87713 z M220.43413,95.737404 L215.37265,89.47859 L218.54901,85.6717 L221.7529,88.40095 L221.11732,94.76697 L220.58737,95.76506 z M199.83827,94.40212 L186.3955,93.79765 L186.51595,87.27367 L190.46663,87.35988 L196.28555,88.190125 L200.25624,93.591095 z M205.55066,88.095 L196.71292,88.095 L200.82687,83.51656 L203.49086,81.86947 L204.74576,83.02623 L206.3349,85.608894 z M228.88083,89.13039 L221.7529,88.40095 L218.54901,85.6717 L218.52853,85.61528 L225.88435,79.21679 L228.08992,78.56788 z M200.6399,77.6545 L185.67699,85.877846 L181.44678,83.05316 L182.92438,81.95688 L196.11339,74.96731 L200.30365,76.77481 z M192.05063,73.25119 L182.92438,81.95688 L181.44678,83.05316 L179.85194,82.41356 L182.49037,74.14838 L188.01553,71.07389 z M214.25375,76.62375 L211.2022,75.869064 L211.38692,75.18377 L215.43022,71.05895 L217.28781,76.571815 L216.76282,76.62375 z M178.1934,82.3839 L161.36394,75.62898 L177.2333,71.213715 L179.03,71.85125 L182.49037,74.14838 L179.85194,82.41356 z M200.30365,76.77481 L196.11339,74.96731 L194.39085,73.9023 L197.0507,66.50189 L203.65263,69.93063 L204.60622,71.188416 z M237.75182,76.40424 L231.57321,76.518845 L229.84154,73.81636 L236.1798,66.7625 L243.69406,66.7625 L240.6332,73.1212 z M229.19376,73.10231 L226.05594,71.181656 L228.26833,64.61584 L230.84032,62.707584 L231.27124,63.373653 L231.7544,65.882965 z M199.77579,63.098072 L195.8747,64.92044 L191.48805,64.012184 L189.11075,60.696224 L195.38539,57.652325 L196.44261,57.327747 z M207.3183,58.788315 L202.20671,59.871876 L200.01872,55.001823 L200.94276,53.891827 L205.0395,53.593834 L205.53763,53.999172 z M184.70836,57.72173 L177.38809,52.29056 L181.14032,49.360126 L182.34528,48.77709 L187.53563,53.178123 L187.75348,53.79772 z M190.20291,53.070793 L187.75348,53.79772 L187.53563,53.178123 L188.08102,47.10844 L188.55605,46.987293 L193.75177,51.227676 z M54.334335,53.04163 L47.182648,55.04934 L43.082382,47.175587 L49.151566,46.49332 L49.731583,46.67775 L53.897827,51.314377 z M64.347435,51.643593 L60.56976,49.307934 L60.14806,48.36931 L60.84492,45.008633 L61.070274,44.59064 L63.431873,46.54893 z M56.384335,53.11768 L54.334335,53.04163 L53.897827,51.314377 L54.36479,47.849792 L56.91368,48.79535 L57.260796,50.08304 z M53.897827,51.314377 L49.731583,46.67775 L52.114063,46.98969 L54.148438,47.492813 L54.25798,47.64375 L54.36479,47.849792 z M57.800625,47.64375 L54.25798,47.64375 L54.148438,47.492813 L60.50586,42.776016 L61.070274,44.59064 L60.84492,45.008633 z M170.33458,51.494198 L165.38802,53.1788 L165.73651,48.00755 L168.4125,42.713123 L172.50063,42.713123 L174.63757,44.044926 z M59.125874,41.787376 L50.603992,45.236115 L51.571564,39.493126 L53.06344,38.486874 L61.251488,38.486874 L60.46004,41.178226 z M50.603992,45.236115 L49.151566,46.49332 L43.082382,47.175587 L42.43632,46.801704 L47.066875,41.402946 L51.571564,39.493126 z M190.655,45.43 L185.46056,39.649094 L196.36134,35.129505 L201.26666,35.180767 L205.29446,36.108192 L197.68933,43.69033 z M172.50063,42.713123 L168.4125,42.713123 L167.13603,42.239597 L164.33488,39.594524 L165.76123,38.766327 L170.8486,38.423187 z M163.84814,39.63701 L159.2354,36.000748 L166.23164,32.336674 L166.29675,32.409126 L165.76123,38.766327 L164.33488,39.594524 z M185.46056,39.649094 L181.59047,40.127655 L179.46341,37.196827 L183.25688,33.29982 L188.11919,31.824017 L196.36134,35.129505 z M183.25688,33.29982 L179.46341,37.196827 L175.60588,35.4291 L175.95491,32.839554 L178.58438,32.449375 L182.11063,32.449375 z M181.22906,31.46828 L178.58438,32.449375 L175.95491,32.839554 L175.84381,31.644375 L176.2178,28.962128 L181.09796,31.225103 z M175.84381,31.644375 L166.165,31.644375 L165.83792,30.37036 L168.38054,28.031147 L176.07097,28.22134 L176.2178,28.962128 z M183.25688,33.29982 L182.11063,32.449375 L181.22906,31.46828 L181.09796,31.225103 L185.10858,27.505579 L188.11919,31.824017 z M196.36134,35.129505 L188.11919,31.824017 L185.10858,27.505579 L182.62271,21.80486 L184.53639,15.009997 L201.26666,35.180767 z M214.48431,181.7809 L213.3171,181.89636 L212.76187,181.0725 L212.76187,180.56938 L214.36403,178.48917 L218.5325,177.94339 L216.92104,180.33458 z M187.6829,144.05934 L175.44281,141.46468 L175.49434,141.33424 L176.41832,140.60953 L177.04137,140.52393 L187.49042,139.8498 L188.03981,139.95499 z M199.67049,143.1051 L197.95506,142.34146 L195.32913,135.03542 L196.15,134.1351 L196.6225,133.86034 L199.42654,134.5913 L200.73805,143.34882 z M187.49042,139.8498 L185.63687,138.13078 L185.63687,135.22104 L189.16313,138.70938 L189.41351,139.08092 L189.2519,139.3282 L188.03981,139.95499 z M191.40388,132.8775 L185.78218,132.52992 L182.3171,131.11594 L181.50539,130.69699 L180.89333,126.15588 L182.5956,124.2065 L185.2639,123.76656 z M154.38416,128.03438 L139.92867,142.33444 L139.6129,142.47165 L143.64563,130.50357 L148.60564,123.93213 L149.06537,123.96116 L150.9146,124.55921 z M146.04904,122.3483 L136.07501,117.41491 L138.0325,116.461815 L144.71153,115.06811 L146.19594,115.66113 L146.41731,116.619225 L146.16846,122.34308 z M209.61537,121.20062 L197.30998,121.20062 L195.14114,120.248276 L196.08212,117.06785 L198.28369,115.78673 L204.13875,114.40032 L208.03438,117.29063 z M166.48909,119.8925 L164.8028,121.85856 L161.99626,121.38837 L160.82722,120.245056 L160.66965,118.88104 L167.23178,114.92524 L168.02258,117.38945 z M152.88179,119.359924 L146.41731,116.619225 L146.19594,115.66113 L146.91411,115.43508 L154.78438,114.267235 L155.68887,115.321785 L153.45927,119.10285 z M172.427,119.630875 L168.27687,117.578125 L168.02258,117.38945 L167.23178,114.92524 L167.25969,114.86125 L169.19913,114.86125 L174.82079,120.07488 z M212.12895,112.546875 L210.36957,114.015396 L205.82515,113.49667 L208.3405,107.898 L210.8391,107.21503 L211.94812,107.15625 L214.39545,107.502106 z M204.13875,114.40032 L198.28369,115.78673 L200.22325,106.79282 L203.51082,105.97977 L204.04083,106.075096 L208.3405,107.898 L205.82515,113.49667 z M185.57875,107.02688 L179.65819,98.24152 L179.8156,97.96018 L184.67238,96.46733 L189.80542,100.910446 L191.17133,102.38152 L186.08676,107.159904 z M224.385,100.32339 L218.17455,108.38695 L217.42093,108.75039 L214.65825,107.49777 L217.7174,101.69743 L223.41884,99.44138 L224.13574,99.69749 z M233.14801,102.04414 L228.44904,106.22774 L227.73183,105.72787 L224.385,100.32339 L224.13574,99.69749 L230.4508,97.640495 L233.84914,100.31016 z M200.88112,100.310875 L197.02937,101.180626 L197.02937,97.694626 L200.19395,94.87713 L203.52414,97.84206 L203.07462,98.925964 L202.14113,99.88241 z M208.5575,96.933685 L203.52414,97.84206 L200.19395,94.87713 L199.83827,94.40212 L200.25624,93.591095 L205.64479,88.75146 L208.5575,90.9125 z M200.82687,83.51656 L190.46663,87.35988 L186.51595,87.27367 L185.67699,85.877846 L200.6399,77.6545 L201.52327,78.32416 L203.49086,81.86947 z M211.65451,80.89046 L204.74576,83.02623 L203.49086,81.86947 L201.52327,78.32416 L206.11035,77.779625 L212.21938,79.13937 L212.64885,79.73115 z M214.77232,79.956215 L212.64885,79.73115 L212.21938,79.13937 L212.355,78.803955 L216.76282,76.62375 L217.28781,76.571815 L217.74301,76.92563 z M194.39085,73.9023 L192.05063,73.25119 L188.01553,71.07389 L187.76282,69.38641 L191.48805,64.012184 L195.8747,64.92044 L197.0507,66.50189 z M209.27437,69.881874 L204.64429,71.181694 L204.60622,71.188416 L203.65263,69.93063 L204.28992,65.67516 L204.65828,65.56129 L208.58261,66.28919 z M215.52087,69.881874 L209.27437,69.881874 L208.58261,66.28919 L208.7854,65.31122 L209.78474,64.4874 L216.61649,63.47365 L217.61533,68.555336 z M203.65263,69.93063 L197.0507,66.50189 L195.8747,64.92044 L199.77579,63.098072 L200.01312,63.039375 L202.19717,63.65668 L204.28992,65.67516 z M187.76282,69.38641 L182.7095,67.75631 L177.67815,64.612785 L176.67744,63.127857 L184.91373,58.86451 L189.11075,60.696224 L191.48805,64.012184 z M243.69406,66.7625 L236.1798,66.7625 L236.05807,66.68123 L235.29535,64.7006 L243.25995,62.16808 L244.13113,62.438652 L243.70004,66.756485 z M228.26833,64.61584 L225.98827,65.03875 L224.53412,63.240623 L223.3228,58.74702 L229.7583,55.92116 L230.36908,56.588966 L230.84032,62.707584 z M209.78474,64.4874 L206.92032,62.00797 L207.44653,60.641502 L208.09566,59.826466 L214.6313,60.692364 L217.1012,61.18103 L216.61649,63.47365 z M206.81458,62.099495 L202.19717,63.65668 L200.01312,63.039375 L200.82687,61.831875 L201.52173,61.269478 L207.44653,60.641502 L206.92032,62.00797 z M60.76632,57.49814 L44.771748,60.236664 L47.182648,55.04934 L54.334335,53.04163 L56.384335,53.11768 L56.63674,53.19866 L61.209873,55.194527 z M214.6313,60.692364 L209.13908,54.58005 L211.4136,54.740772 L214.93187,56.045937 L215.8791,56.704792 L218.36961,60.11612 L217.1012,61.18103 z M176.67744,63.127857 L151.29243,61.275326 L165.38802,53.1788 L170.33458,51.494198 L177.38809,52.29056 L184.70836,57.72173 L184.91373,58.86451 z M243.25995,62.16808 L230.36908,56.588966 L229.7583,55.92116 L231.28526,47.166924 L235.16129,48.710014 L252.18996,57.8589 L244.13113,62.438652 z M195.38539,57.652325 L189.11075,60.696224 L184.91373,58.86451 L184.70836,57.72173 L187.75348,53.79772 L190.20291,53.070793 L193.04408,54.757164 z M195.38539,57.652325 L193.04408,54.757164 L199.04526,52.530922 L200.94276,53.891827 L200.01872,55.001823 L198.34088,56.29854 L196.44261,57.327747 z M218.36961,60.11612 L215.8791,56.704792 L217.31053,53.518703 L229.71185,43.0033 L231.28526,47.166924 L229.7583,55.92116 L223.3228,58.74702 z M217.31053,53.518703 L215.33875,53.15297 L215.33875,41.505627 L215.65334,38.238026 L217.43768,34.89683 L226.62137,31.538647 L229.71185,43.0033 z M213.40808,52.96504 L211.4136,54.740772 L209.13908,54.58005 L205.53763,53.999172 L205.0395,53.593834 L215.65334,38.238026 L215.33875,41.505627 z M188.08102,47.10844 L184.2534,46.742012 L180.55757,41.8063 L181.59047,40.127655 L185.46056,39.649094 L190.655,45.43 L188.55605,46.987293 z M47.066875,41.402946 L45.019657,39.23308 L45.852707,38.15146 L46.77948,37.463856 L50.939835,37.226414 L53.06344,38.486874 L51.571564,39.493126 z M46.77948,37.463856 L42.392216,35.138805 L42.688126,35.065624 L45.943127,35.065624 L49.224377,35.55252 L49.898125,35.87387 L50.939835,37.226414 z M53.06344,38.486874 L50.939835,37.226414 L49.898125,35.87387 L50.602364,32.738865 L51.333126,32.689575 L66.11076,35.126034 L61.251488,38.486874 z M49.224377,35.55252 L47.996876,33.95875 L47.472977,32.5983 L47.60728,32.324272 L49.06889,31.348295 L50.602364,32.738865 L49.898125,35.87387 z M173.25874,35.85269 L166.29675,32.409126 L166.23164,32.336674 L166.165,31.644375 L175.84381,31.644375 L175.95491,32.839554 L175.60588,35.4291 z M214.36403,178.48917 L212.14188,177.98187 L204.76497,161.5623 L226.19008,154.61435 L225.60947,173.78389 L225.53766,173.88867 L224.00125,174.85971 L218.5325,177.94339 z M168.91837,144.79428 L167.3275,143.65935 L167.3275,135.33386 L168.9389,135.65993 L175.49434,141.33424 L175.44281,141.46468 L173.88304,144.1649 L172.1921,145.05452 z M173.1053,127.3782 L169.55641,127.32554 L166.51375,122.81062 L167.74236,122.14768 L175.86925,120.424934 L179.92393,121.204865 L182.5956,124.2065 L180.89333,126.15588 z M165.78845,112.67812 L157.45001,116.11511 L155.68887,115.321785 L154.78438,114.267235 L156.92836,107.37421 L157.29785,106.80101 L162.0362,105.731064 L164.0913,106.53964 z M178.11395,113.483284 L169.19913,114.86125 L167.25969,114.86125 L165.78845,112.67812 L164.0913,106.53964 L164.68282,106.50938 L175.3875,109.3125 L178.14645,113.40643 z M208.51105,102.46508 L207.19902,102.32601 L203.07462,98.925964 L203.52414,97.84206 L208.5575,96.933685 L210.31746,97.39247 L211.71913,99.94509 L209.307,101.933586 z M217.7174,101.69743 L212.42062,100.38748 L211.71913,99.94509 L210.31746,97.39247 L215.53143,95.30946 L220.43413,95.737404 L220.58737,95.76506 L223.41884,99.44138 z M224.53412,63.240623 L223.29541,67.83583 L222.19092,69.47476 L217.61533,68.555336 L216.61649,63.47365 L217.1012,61.18103 L218.36961,60.11612 L223.3228,58.74702 z M205.0395,53.593834 L200.94276,53.891827 L199.04526,52.530922 L197.09387,50.979713 L197.68933,43.69033 L205.29446,36.108192 L217.43768,34.89683 L215.65334,38.238026 z M45.265,33.426876 L42.688126,35.065624 L42.392216,35.138805 L38.076874,35.266876 L25.418541,35.266876 L21.07513,35.012466 L44.90333,31.476667 L45.265,31.745 z M199.4253,162.9425 L191.23152,155.73746 L190.49864,153.9783 L194.76895,145.52951 L199.67049,143.1051 L200.73805,143.34882 L227.37448,153.72412 L226.19008,154.61435 L204.76497,161.5623 z M171.59969,134.08063 L168.9389,135.65993 L167.3275,135.33386 L165.16357,134.7014 L162.57072,132.20767 L162.5942,131.87694 L168.09938,128.05595 L169.55641,127.32554 L173.1053,127.3782 z M178.91013,99.472206 L164.68282,106.50938 L164.0913,106.53964 L162.0362,105.731064 L162.36966,101.11289 L171.75662,96.46987 L175.41333,96.32708 L179.8156,97.96018 L179.65819,98.24152 z M230.4508,97.640495 L224.13574,99.69749 L223.41884,99.44138 L220.58737,95.76506 L221.11732,94.76697 L231.24013,90.67035 L231.43214,90.74706 L233.78375,91.89492 L235.02536,92.54945 z M210.82922,76.14578 L206.11035,77.779625 L201.52327,78.32416 L200.6399,77.6545 L200.30365,76.77481 L204.60622,71.188416 L204.64429,71.181694 L211.38692,75.18377 L211.2022,75.869064 z M67.01021,47.073544 L66.86192,47.227566 L63.431873,46.54893 L61.070274,44.59064 L60.50586,42.776016 L60.46004,41.178226 L61.251488,38.486874 L66.11076,35.126034 L80.777504,26.644646 z M174.63757,44.044926 L172.50063,42.713123 L170.8486,38.423187 L173.25874,35.85269 L175.60588,35.4291 L179.46341,37.196827 L181.59047,40.127655 L180.55757,41.8063 L175.24037,43.888393 z M166.23164,32.336674 L159.2354,36.000748 L157.70644,35.82887 L154.17188,30.758875 L154.28813,30.33625 L154.82999,28.92915 L161.87538,29.390375 L165.83792,30.37036 L166.165,31.644375 z M227.2799,121.84554 L219.76013,112.546875 L217.42093,108.75039 L218.17455,108.38695 L227.73183,105.72787 L228.44904,106.22774 L231.76335,109.47714 L242.95757,130.04285 L243.54454,132.19858 L232.91771,126.20641 z M238.14233,101.58427 L233.84914,100.31016 L230.4508,97.640495 L235.02536,92.54945 L239.20876,92.0989 L239.60228,92.23547 L240.26616,92.49816 L242.07419,95.23937 L244.0123,100.87137 L243.78609,101.15109 z M179.8156,97.96018 L175.41333,96.32708 L171.70287,89.16947 L178.1934,82.3839 L179.85194,82.41356 L181.44678,83.05316 L185.67699,85.877846 L186.51595,87.27367 L186.3955,93.79765 L184.67238,96.46733 z M213.06442,91.191154 L208.5575,90.9125 L205.64479,88.75146 L205.55066,88.095 L206.3349,85.608894 L216.68468,85.368935 L218.23619,85.52449 L218.52853,85.61528 L218.54901,85.6717 L215.37265,89.47859 z M239.20876,88.69875 L233.78375,83.779305 L233.78098,83.77634 L233.29623,83.01208 L231.07668,76.97392 L231.57321,76.518845 L237.75182,76.40424 L240.92256,78.25908 L242.5724,80.51891 L241.8459,82.82896 z M185.2639,123.76656 L182.5956,124.2065 L179.92393,121.204865 L178.11395,113.483284 L178.14645,113.40643 L182.54163,111.96778 L186.53221,111.29104 L187.81683,111.72895 L193.91,115.01676 L196.08212,117.06785 L195.14114,120.248276 L191.25594,122.52852 z M225.88435,79.21679 L217.74301,76.92563 L217.28781,76.571815 L215.43022,71.05895 L215.52087,69.881874 L217.61533,68.555336 L222.19092,69.47476 L226.05594,71.181656 L229.19376,73.10231 L229.84154,73.81636 L231.57321,76.518845 L231.07668,76.97392 L228.08992,78.56788 z" fill="none" stroke="gold" stroke-width="0.6"/>
</g>
<g inkscape:groupmode="layer" inkscape:label="white">
<path d="M133.74312,184.09125 L132.5225,184.54407 L131.91219,183.41203 z M239.25937,179.66376 L237.54146,177.75188 L239.9036,177.75188 z M176.95879,225.0124 L176.57549,220 L181.30183,220 z M94.5475,175.89032 L91.01597,166.71971 L94.5475,167.71114 z M99.836876,163.75586 L94.010895,161.39813 L99.836876,159.23688 z M139.84625,157.7275 L135.8114,154.7339 L140.40279,155.66295 z M165.97812,141.41002 L160.69681,139.45082 L165.08218,137.64323 z M228.73183,105.72787 L219.17455,108.38695 L225.385,100.32339 z M235.4808,105.156784 L234.71594,102.88687 L237.70586,102.88687 z M93.83369,74.44178 L59.022892,63.372906 L62.713768,59.904278 z M-16.738977,59.23392 L-10,59.794655 L-10,61.233875 z M-19.657408,34.367405 L-10,34.516678 L-10,36.270653 z M320.08237,-10 L300,5.1658816 L300,-10 z M271.48923,-10 L300,-31.31971 L300,-10 z M134.50601,184.09125 L132.5225,195.86438 L132.5225,184.54407 L133.74312,184.09125 z M220.37234,188.48521 L217.3527,183.44438 L218.27625,181.38875 L219.54443,182.95692 z M218.27625,181.38875 L217.3527,183.44438 L215.48431,181.7809 L217.92104,180.33458 z M213.76187,181.0725 L206.43813,180.16687 L211.62378,178.98305 L213.76187,180.56938 z M213.76187,180.56938 L211.62378,178.98305 L213.14188,177.98187 L215.36403,178.48917 z M143.53618,180.67348 L140.46684,178.72153 L140.63287,178.53674 L142.84938,178.12563 z M142.84938,178.12563 L140.63287,178.53674 L142.30446,173.57594 L143.50812,177.14813 z M168.88628,163.24174 L163.32397,158.65634 L162.53438,157.40099 L170.67543,158.26385 z M105.983505,154.00818 L103.6297,159.24728 L101.52148,158.4415 L98.58027,152.2917 z M145.51743,155.05641 L140.62233,155.57524 L139.88074,152.82416 L144.80055,153.12834 z M173.85918,153.56682 L160.28625,154.8256 L162.9025,151.69 L173.31372,149.11519 z M121.17997,147.7974 L115.117294,150.04646 L114.05038,149.25487 L116.631584,146.38225 z M137.42438,147.39188 L131.2839,144.65837 L133.8508,142.92703 L136.81532,144.90656 z M121.1204,140.84032 L118.103584,139.78008 L120.03267,137.7763 L122.93833,137.46834 z M188.49042,139.8498 L178.04137,140.52393 L184.91896,136.69687 L186.63687,138.13078 z M190.16313,138.70938 L187.81876,133.49126 L193.7077,136.40407 L190.41351,139.08092 z M204.26813,129.92146 L200.50937,130.85104 L203.2999,125.33 L204.26813,125.8502 z M129.10722,128.88472 L124.43497,128.19142 L123.70688,126.030624 L128.12437,127.66937 z M128.12437,127.66937 L123.70688,126.030624 L123.04813,124.56438 L127.884125,126.956375 z M147.04904,122.3483 L141.25055,123.72497 L136.7375,117.50652 L137.07501,117.41491 z M170.05672,119.8925 L167.48909,119.8925 L169.02258,117.38945 L169.27687,117.578125 z M173.427,119.630875 L170.43367,120.2654 L170.05672,119.8925 L169.27687,117.578125 z M155.78438,114.267235 L147.91411,115.43508 L150.48546,110.34767 L157.92836,107.37421 z M194.91,115.01676 L188.81683,111.72895 L194.4809,104.3748 L194.91,104.71676 z M176.3875,109.3125 L165.68282,106.50938 L179.91013,99.472206 L180.12874,105.14887 z M212.94812,103.89313 L210.307,101.933586 L212.71913,99.94509 L213.42062,100.38748 z M172.75662,96.46987 L163.36966,101.11289 L156.96448,90.024376 L161.33371,90.48747 z M172.75662,96.46987 L161.33371,90.48747 L172.70287,89.16947 L176.41333,96.32708 z M221.43413,95.737404 L216.53143,95.30946 L214.06442,91.191154 L216.37265,89.47859 z M201.82687,83.51656 L197.71292,88.095 L197.28555,88.190125 L191.46663,87.35988 z M217.68468,85.368935 L207.3349,85.608894 L205.74576,83.02623 L212.65451,80.89046 z M197.11339,74.96731 L183.92438,81.95688 L193.05063,73.25119 L195.39085,73.9023 z M183.7095,67.75631 L180.03,71.85125 L178.2333,71.213715 L178.67815,64.612785 z M57.91368,48.79535 L55.36479,47.849792 L55.25798,47.64375 L58.800625,47.64375 z M46.019657,39.23308 L26.418541,35.266876 L39.076874,35.266876 L46.852707,38.15146 z M46.852707,38.15146 L39.076874,35.266876 L43.392216,35.138805 L47.77948,37.463856 z M50.224377,35.55252 L46.943127,35.065624 L47.689064,33.95875 L48.996876,33.95875 z M48.996876,33.95875 L47.689064,33.95875 L47.197422,33.229218 L48.472977,32.5983 z M238.8525,185.29875 L225.53357,182.82831 L226.53766,173.88867 L226.60947,173.78389 L227.64084,174.60374 z M225.00125,174.85971 L219.54443,182.95692 L218.27625,181.38875 L217.92104,180.33458 L219.5325,177.94339 z M134.58372,180.73975 L132.20016,174.55017 L137.00157,175.58919 L137.24979,179.27234 L136.1116,180.89088 z M118.86103,187.25414 L113.95783,176.94687 L119.90938,176.94687 L124.47616,180.33513 L124.44791,180.74042 z M124.47616,180.33513 L119.90938,176.94687 L114.82512,171.07903 L126.580025,169.98885 L127.968506,173.62877 z M142.96562,172.62 L134.99088,172.62 L138.24588,169.60126 L140.18658,169.30127 L144.54561,171.00816 z M107.2309,173.55719 L102.35101,175.91476 L98.11896,168.42729 L102.66771,165.47427 L103.988815,165.13821 z M111.868126,172.53236 L107.2309,173.55719 L103.988815,165.13821 L105.02393,164.4941 L113.996124,171.15088 z M141.56416,161.04813 L139.8293,168.77109 L136.83473,165.6948 L138.49744,161.00705 L139.84625,160.85693 z M136.83473,165.6948 L127.21302,166.09138 L126.04709,162.29848 L129.8614,158.62717 L138.49744,161.00705 z M179.55121,183.02348 L168.88628,163.24174 L170.67543,158.26385 L173.88812,155.23016 L185.91898,175.5168 z M121.16951,155.13106 L119.18604,157.02313 L118.569664,156.70653 L118.122314,154.3832 L120.45979,153.41972 z M118.122314,154.3832 L113.12813,153.64212 L115.79542,152.05896 L121.80375,149.83006 L120.45979,153.41972 z M109.503235,154.3154 L105.983505,154.00818 L98.58027,152.2917 L93.66993,147.43416 L102.400955,147.7286 z M173.31372,149.11519 L162.9025,151.69 L166.4519,146.42314 L169.91837,144.79428 L173.1921,145.05452 z M115.79542,152.05896 L115.117294,150.04646 L121.17997,147.7974 L123.37258,148.38896 L121.80375,149.83006 z M192.23152,155.73746 L181.16745,153.74072 L179.8979,146.20528 L188.08575,148.02774 L191.49864,153.9783 z M114.05038,149.25487 L111.04854,150.73965 L108.63847,148.3555 L115.188156,145.43983 L116.631584,146.38225 z M195.76895,145.52951 L191.49864,153.9783 L188.08575,148.02774 L188.97902,145.50931 L192.33313,144.6798 z M144.58466,147.43657 L138.4448,148.90604 L137.42438,147.39188 L136.81532,144.90656 L149.26794,142.5968 z M195.76895,145.52951 L192.33313,144.6798 L196.71725,142.14989 L198.95506,142.34146 L200.67049,143.1051 z M165.8234,142.6902 L153.35303,145.3337 L149.66356,142.26253 L149.485,139.9574 L154.17033,140.09645 z M165.8234,142.6902 L154.17033,140.09645 L160.69681,139.45082 L165.97812,141.41002 L166.7799,142.73195 z M120.03267,137.7763 L118.103584,139.78008 L115.67614,139.62999 L113.01865,131.74321 L117.6749,132.52837 z M184.91896,136.69687 L178.04137,140.52393 L177.41832,140.60953 L179.61829,134.08063 L182.35397,130.98773 z M122.93833,137.46834 L120.03267,137.7763 L117.6749,132.52837 L122.67885,132.88194 L126.71821,134.66391 z M190.16313,138.70938 L186.63687,135.22104 L183.3171,131.11594 L186.78218,132.52992 L187.81876,133.49126 z M176.49434,141.33424 L169.9389,135.65993 L172.59969,134.08063 L179.61829,134.08063 L177.41832,140.60953 z M140.30423,129.19229 L136.81284,135.9273 L131.61217,133.78366 L132.09918,130.08002 L134.55687,126.43313 z M143.70187,128.96312 L140.30423,129.19229 L134.55687,126.43313 L134.55687,126.15312 L140.75534,124.15362 z M132.3401,123.65032 L127.884125,126.956375 L123.04813,124.56438 L121.36076,121.684975 L131.94305,123.13128 z M163.5942,131.87694 L159.1728,128.59656 L160.9284,124.68896 L161.41547,124.25531 L169.09938,128.05595 z M159.1728,128.59656 L155.38416,128.03438 L151.9146,124.55921 L155.47084,123.170525 L160.9284,124.68896 z M176.86925,120.424934 L168.74236,122.14768 L170.43367,120.2654 L173.427,119.630875 L175.82079,120.07488 z M153.88179,119.359924 L150.06537,123.96116 L149.60564,123.93213 L147.16846,122.34308 L147.41731,116.619225 z M175.82079,120.07488 L170.19913,114.86125 L179.11395,113.483284 L180.92393,121.204865 L176.86925,120.424934 z M219.24995,118.23804 L209.03438,117.29063 L205.13875,114.40032 L206.82515,113.49667 L211.36957,114.015396 z M168.23178,114.92524 L161.66965,118.88104 L158.45001,116.11511 L166.78845,112.67812 L168.25969,114.86125 z M219.24995,118.23804 L211.36957,114.015396 L213.12895,112.546875 L220.76013,112.546875 L228.2799,121.84554 z M145.71153,115.06811 L139.0325,116.461815 L139.0325,112.14438 L143.05862,110.15296 L144.63606,111.64842 z M220.76013,112.546875 L213.12895,112.546875 L215.39545,107.502106 L215.65825,107.49777 L218.42093,108.75039 z M150.48546,110.34767 L147.8113,110.14927 L148.994,103.12928 L158.29785,106.80101 L157.92836,107.37421 z M147.8113,110.14927 L144.63606,111.64842 L143.05862,110.15296 L137.57933,97.053734 L148.994,103.12928 z M183.54163,111.96778 L179.14645,113.40643 L176.3875,109.3125 L180.12874,105.14887 L182.44255,106.259674 z M187.53221,111.29104 L183.54163,111.96778 L182.44255,106.259674 L186.57875,107.02688 L187.08676,107.159904 z M186.57875,107.02688 L182.44255,106.259674 L180.12874,105.14887 L179.91013,99.472206 L180.65819,98.24152 z M209.3405,107.898 L205.04083,106.075096 L208.19902,102.32601 L209.51105,102.46508 L211.8391,107.21503 z M204.51082,105.97977 L201.22325,106.79282 L199.88937,106.22188 L201.88112,100.310875 L203.14113,99.88241 z M235.4808,105.156784 L232.76335,109.47714 L229.44904,106.22774 L234.14801,102.04414 L234.71594,102.88687 z M211.8391,107.21503 L209.51105,102.46508 L210.307,101.933586 L212.94812,103.89313 L212.94812,107.15625 z M208.19902,102.32601 L205.04083,106.075096 L204.51082,105.97977 L203.14113,99.88241 L204.07462,98.925964 z M237.70586,102.88687 L234.71594,102.88687 L234.14801,102.04414 L234.84914,100.31016 L239.14233,101.58427 z M198.02937,101.180626 L193.0997,102.77084 L192.17133,102.38152 L190.80542,100.910446 L198.02937,97.694626 z M216.53143,95.30946 L211.31746,97.39247 L209.5575,96.933685 L209.5575,90.9125 L214.06442,91.191154 z M201.25624,93.591095 L197.28555,88.190125 L197.71292,88.095 L206.55066,88.095 L206.64479,88.75146 z M55.176876,84.16684 L38.68769,79.069374 L41.089836,76.39602 L45.33383,72.97344 L47.147945,73.99039 z M183.49037,74.14838 L180.03,71.85125 L183.7095,67.75631 L188.76282,69.38641 L189.01553,71.07389 z M188.76282,69.38641 L183.7095,67.75631 L178.67815,64.612785 L177.67744,63.127857 L201.73187,50.67658 z M59.022892,63.372906 L56.9278,64.503395 L51.415596,62.819405 L61.922153,58.142292 L62.713768,59.904278 z M61.922153,58.142292 L51.415596,62.819405 L49.55915,62.430916 L48.040188,59.84827 L61.76632,57.49814 z M62.209873,55.194527 L57.63674,53.19866 L61.56976,49.307934 L65.347435,51.643593 L66.35084,53.504745 z M61.56976,49.307934 L57.63674,53.19866 L57.384335,53.11768 L58.260796,50.08304 L61.14806,48.36931 z M75.217476,53.23064 L66.35084,53.504745 L65.347435,51.643593 L64.43188,46.54893 L67.86192,47.227566 z M61.14806,48.36931 L58.260796,50.08304 L57.91368,48.79535 L58.800625,47.64375 L61.84492,45.008633 z M61.50586,42.776016 L55.148438,47.492813 L53.114063,46.98969 L60.125874,41.787376 L61.46004,41.178226 z M60.125874,41.787376 L53.114063,46.98969 L50.731583,46.67775 L50.151566,46.49332 L51.603992,45.236115 z M47.689064,33.95875 L46.943127,35.065624 L43.688126,35.065624 L46.265,33.426876 L47.197422,33.229218 z M47.197422,33.229218 L46.265,33.426876 L46.265,31.745 L48.60728,32.324272 L48.472977,32.5983 z M48.60728,32.324272 L46.265,31.745 L45.90333,31.476667 L50.522118,24.622986 L50.06889,31.348295 z M221.61707,191.80984 L220.37234,188.48521 L219.54443,182.95692 L225.00125,174.85971 L226.53766,173.88867 L225.53357,182.82831 z M155.9346,193.32185 L136.67438,181.5172 L136.1116,180.89088 L137.24979,179.27234 L140.46684,178.72153 L143.53618,180.67348 z M238.8525,185.29875 L227.64084,174.60374 L237.54146,177.75188 L239.25937,179.66376 L239.25937,184.84593 L238.8525,185.29875 z M155.9346,193.32185 L143.53618,180.67348 L142.84938,178.12563 L143.50812,177.14813 L145.5425,178.6575 L172.09708,204.92654 z M113.738434,176.69531 L102.30366,185.17918 L100.8781,178.06395 L102.35101,175.91476 L107.2309,173.55719 L111.868126,172.53236 z M140.46684,178.72153 L137.24979,179.27234 L137.00157,175.58919 L142.29065,173.37117 L142.30446,173.57594 L140.63287,178.53674 z M137.00157,175.58919 L132.20016,174.55017 L131.99901,174.4698 L134.99088,172.62 L142.96562,172.62 L142.29065,173.37117 z M100.8781,178.06395 L94.667015,176.37802 L94.5475,175.89032 L94.5475,167.71114 L98.11896,168.42729 L102.35101,175.91476 z M134.99088,172.62 L131.99901,174.4698 L127.968506,173.62877 L126.580025,169.98885 L126.80521,169.60126 L138.24588,169.60126 z M138.24588,169.60126 L126.80521,169.60126 L127.21302,166.09138 L136.83473,165.6948 L139.8293,168.77109 L140.18658,169.30127 z M113.996124,171.15088 L105.02393,164.4941 L107.529144,161.0555 L110.0017,160.45576 L115.06433,162.60213 L114.37687,171.01794 z M144.54561,171.00816 L140.18658,169.30127 L139.8293,168.77109 L141.56416,161.04813 L146.30283,161.04813 L145.50276,170.84247 z M163.32397,158.65634 L158.43002,167.73384 L151.80441,158.88542 L157.85228,154.69743 L160.2112,154.85654 L162.53438,157.40099 z M121.26947,161.66045 L115.06433,162.60213 L110.0017,160.45576 L111.52076,155.83488 L118.569664,156.70653 L119.18604,157.02313 z M185.91898,175.5168 L173.88812,155.23016 L173.88812,153.5907 L181.16745,153.74072 L192.23152,155.73746 L200.4253,162.9425 z M126.04709,162.29848 L121.26947,161.66045 L119.18604,157.02313 L121.16951,155.13106 L129.91167,157.48964 L129.8614,158.62717 z M118.569664,156.70653 L111.52076,155.83488 L111.45577,154.79828 L112.050766,153.96185 L113.12813,153.64212 L118.122314,154.3832 z M144.80055,153.12834 L139.88074,152.82416 L135.28497,151.25043 L138.4448,148.90604 L144.58466,147.43657 L145.13562,151.38812 z M115.79542,152.05896 L113.12813,153.64212 L112.050766,153.96185 L111.04854,150.73965 L114.05038,149.25487 L115.117294,150.04646 z M115.188156,145.43983 L108.63847,148.3555 L105.66619,147.5469 L110.88535,142.12572 L113.33134,142.2907 L114.50544,143.86958 z M188.08575,148.02774 L179.8979,146.20528 L174.88304,144.1649 L176.44281,141.46468 L188.6829,144.05934 L188.97902,145.50931 z M196.71725,142.14989 L192.33313,144.6798 L188.97902,145.50931 L188.6829,144.05934 L189.03981,139.95499 L190.2519,139.3282 z M122.29411,141.94334 L114.50544,143.86958 L113.33134,142.2907 L115.67614,139.62999 L118.103584,139.78008 L121.1204,140.84032 z M131.2839,144.65837 L126.0553,147.10089 L124.86803,143.48929 L127.21425,139.6913 L134.72328,141.36267 L133.8508,142.92703 z M196.71725,142.14989 L190.2519,139.3282 L190.41351,139.08092 L193.7077,136.40407 L196.32913,135.03542 L198.95506,142.34146 z M134.72328,141.36267 L127.21425,139.6913 L127.45892,134.78986 L131.61217,133.78366 L136.81284,135.9273 L139.09091,137.53299 z M168.3275,143.65935 L166.7799,142.73195 L165.97812,141.41002 L165.08218,137.64323 L166.16357,134.7014 L168.3275,135.33386 z M186.63687,138.13078 L184.91896,136.69687 L182.35397,130.98773 L182.50539,130.69699 L183.3171,131.11594 L186.63687,135.22104 z M193.7077,136.40407 L187.81876,133.49126 L186.78218,132.52992 L192.40388,132.8775 L197.15,134.1351 L196.32913,135.03542 z M179.61829,134.08063 L172.59969,134.08063 L174.1053,127.3782 L181.89333,126.15588 L182.50539,130.69699 L182.35397,130.98773 z M210.98909,135.46205 L200.42654,134.5913 L197.6225,133.86034 L197.6225,132.81442 L200.50937,130.85104 L204.26813,129.92146 z M192.40388,132.8775 L186.2639,123.76656 L192.25594,122.52852 L197.6225,132.81442 L197.6225,133.86034 L197.15,134.1351 z M155.38416,128.03438 L148.3554,134.98756 L145.47697,129.40213 L149.60564,123.93213 L150.06537,123.96116 L151.9146,124.55921 z M200.50937,130.85104 L197.6225,132.81442 L192.25594,122.52852 L196.14114,120.248276 L198.30998,121.20062 L203.2999,125.33 z M169.09938,128.05595 L161.41547,124.25531 L162.99626,121.38837 L165.8028,121.85856 L167.51375,122.81062 L170.55641,127.32554 z M211.51653,121.45778 L205.30914,126.06326 L204.26813,125.8502 L203.2999,125.33 L198.30998,121.20062 L210.61537,121.20062 z M160.9284,124.68896 L155.47084,123.170525 L157.70604,121.21063 L161.82722,120.245056 L162.99626,121.38837 L161.41547,124.25531 z M155.47084,123.170525 L151.9146,124.55921 L150.06537,123.96116 L153.88179,119.359924 L154.45927,119.10285 L157.70604,121.21063 z M170.43367,120.2654 L168.74236,122.14768 L167.51375,122.81062 L165.8028,121.85856 L167.48909,119.8925 L170.05672,119.8925 z M157.70604,121.21063 L154.45927,119.10285 L156.68887,115.321785 L158.45001,116.11511 L161.66965,118.88104 L161.82722,120.245056 z M211.51653,121.45778 L210.61537,121.20062 L209.03438,117.29063 L219.24995,118.23804 L228.2799,121.84554 L233.91771,126.20641 z M150.48546,110.34767 L147.91411,115.43508 L147.19594,115.66113 L145.71153,115.06811 L144.63606,111.64842 L147.8113,110.14927 z M199.28369,115.78673 L197.08212,117.06785 L194.91,115.01676 L194.91,104.71676 L199.88937,106.22188 L201.22325,106.79282 z M194.4809,104.3748 L188.81683,111.72895 L187.53221,111.29104 L187.08676,107.159904 L192.17133,102.38152 L193.0997,102.77084 z M201.88112,100.310875 L199.88937,106.22188 L194.91,104.71676 L194.4809,104.3748 L193.0997,102.77084 L198.02937,101.180626 z M215.39545,107.502106 L212.94812,107.15625 L212.94812,103.89313 L213.42062,100.38748 L218.7174,101.69743 L215.65825,107.49777 z M198.02937,97.694626 L190.80542,100.910446 L185.67238,96.46733 L187.3955,93.79765 L200.83827,94.40212 L201.19395,94.87713 z M231.4508,97.640495 L225.13574,99.69749 L224.41884,99.44138 L221.58737,95.76506 L222.11732,94.76697 L240.84166,87.18938 z M221.43413,95.737404 L216.37265,89.47859 L219.63821,85.5648 L223.11856,84.738495 L222.11732,94.76697 L221.58737,95.76506 z M200.83827,94.40212 L187.3955,93.79765 L187.51595,87.27367 L191.46663,87.35988 L197.28555,88.190125 L201.25624,93.591095 z M206.55066,88.095 L197.71292,88.095 L201.82687,83.51656 L204.49086,81.86947 L205.74576,83.02623 L207.3349,85.608894 z M201.82687,83.51656 L191.46663,87.35988 L187.51595,87.27367 L186.67699,85.877846 L202.03201,77.438995 L204.49086,81.86947 z M212.65451,80.89046 L205.74576,83.02623 L204.49086,81.86947 L202.03201,77.438995 L202.07,77.105385 L236.42438,53.177197 z M202.03201,77.438995 L186.67699,85.877846 L182.44678,83.05316 L183.92438,81.95688 L197.11339,74.96731 L202.07,77.105385 z M193.05063,73.25119 L183.92438,81.95688 L182.44678,83.05316 L180.85194,82.41356 L183.49037,74.14838 L189.01553,71.07389 z M179.1934,82.3839 L162.36394,75.62898 L178.2333,71.213715 L180.03,71.85125 L183.49037,74.14838 L180.85194,82.41356 z M54.18057,72.25114 L47.147945,73.99039 L45.33383,72.97344 L44.270985,70.85866 L47.097874,67.787506 L58.582214,69.75381 z M195.39085,73.9023 L193.05063,73.25119 L189.01553,71.07389 L188.76282,69.38641 L201.73187,50.67658 L204.53523,48.460274 z M58.582214,69.75381 L47.097874,67.787506 L49.55915,62.430916 L51.415596,62.819405 L56.9278,64.503395 L59.620075,69.49713 z M44.270985,70.85866 L8.661281,61.34742 L46.63382,58.38182 L48.040188,59.84827 L49.55915,62.430916 L47.097874,67.787506 z M55.334335,53.04163 L48.182648,55.04934 L44.082382,47.175587 L50.151566,46.49332 L50.731583,46.67775 L54.897827,51.314377 z M65.347435,51.643593 L61.56976,49.307934 L61.14806,48.36931 L61.84492,45.008633 L62.070274,44.59064 L64.43188,46.54893 z M57.384335,53.11768 L55.334335,53.04163 L54.897827,51.314377 L55.36479,47.849792 L57.91368,48.79535 L58.260796,50.08304 z M54.897827,51.314377 L50.731583,46.67775 L53.114063,46.98969 L55.148438,47.492813 L55.25798,47.64375 L55.36479,47.849792 z M58.800625,47.64375 L55.25798,47.64375 L55.148438,47.492813 L61.50586,42.776016 L62.070274,44.59064 L61.84492,45.008633 z M60.125874,41.787376 L51.603992,45.236115 L52.571564,39.493126 L54.06344,38.486874 L62.251488,38.486874 L61.46004,41.178226 z M51.603992,45.236115 L50.151566,46.49332 L44.082382,47.175587 L43.43632,46.801704 L48.066875,41.402946 L52.571564,39.493126 z M133.74312,184.09125 L131.91219,183.41203 L129.84918,181.1161 L134.58372,180.73975 L136.1116,180.89088 L136.67438,181.5172 L134.50601,184.09125 z M215.48431,181.7809 L214.3171,181.89636 L213.76187,181.0725 L213.76187,180.56938 L215.36403,178.48917 L219.5325,177.94339 L217.92104,180.33458 z M134.58372,180.73975 L129.84918,181.1161 L124.44791,180.74042 L124.47616,180.33513 L127.968506,173.62877 L131.99901,174.4698 L132.20016,174.55017 z M119.90938,176.94687 L113.95783,176.94687 L113.738434,176.69531 L111.868126,172.53236 L113.996124,171.15088 L114.37687,171.01794 L114.82512,171.07903 z M161.52089,174.32684 L145.5425,170.85213 L145.50276,170.84247 L146.30283,161.04813 L149.8682,159.01802 L151.80441,158.88542 L158.43002,167.73384 z M98.11896,168.42729 L94.5475,167.71114 L91.01597,166.71971 L81.278244,162.82945 L94.010895,161.39813 L99.836876,163.75586 L102.66771,165.47427 z M178.26355,184.90231 L161.52089,174.32684 L158.43002,167.73384 L163.32397,158.65634 L168.88628,163.24174 L179.55121,183.02348 L179.37032,183.33781 z M170.67543,158.26385 L162.53438,157.40099 L160.2112,154.85654 L160.28625,154.8256 L173.85918,153.56682 L173.88812,153.5907 L173.88812,155.23016 z M138.49744,161.00705 L129.8614,158.62717 L129.91167,157.48964 L131.16624,153.40837 L135.8114,154.7339 L139.84625,157.7275 L139.84625,160.85693 z M107.529144,161.0555 L103.6297,159.24728 L105.983505,154.00818 L109.503235,154.3154 L111.45577,154.79828 L111.52076,155.83488 L110.0017,160.45576 z M140.40279,155.66295 L135.8114,154.7339 L131.16624,153.40837 L131.16624,152.73705 L135.28497,151.25043 L139.88074,152.82416 L140.62233,155.57524 z M149.8682,159.01802 L145.51743,155.05641 L144.80055,153.12834 L145.13562,151.38812 L156.61855,152.60521 L157.85228,154.69743 L151.80441,158.88542 z M109.503235,154.3154 L102.400955,147.7286 L105.66619,147.5469 L108.63847,148.3555 L111.04854,150.73965 L112.050766,153.96185 L111.45577,154.79828 z M156.61855,152.60521 L145.13562,151.38812 L144.58466,147.43657 L149.26794,142.5968 L149.66356,142.26253 L153.35303,145.3337 L153.95038,145.95938 z M181.16745,153.74072 L173.88812,153.5907 L173.85918,153.56682 L173.31372,149.11519 L173.1921,145.05452 L174.88304,144.1649 L179.8979,146.20528 z M162.9025,151.69 L160.28625,154.8256 L160.2112,154.85654 L157.85228,154.69743 L156.61855,152.60521 L153.95038,145.95938 L166.4519,146.42314 z M135.28497,151.25043 L131.16624,152.73705 L125.72522,147.93642 L126.0553,147.10089 L131.2839,144.65837 L137.42438,147.39188 L138.4448,148.90604 z M166.4519,146.42314 L153.95038,145.95938 L153.35303,145.3337 L165.8234,142.6902 L166.7799,142.73195 L168.3275,143.65935 L169.91837,144.79428 z M188.6829,144.05934 L176.44281,141.46468 L176.49434,141.33424 L177.41832,140.60953 L178.04137,140.52393 L188.49042,139.8498 L189.03981,139.95499 z M124.86803,143.48929 L122.29411,141.94334 L121.1204,140.84032 L122.93833,137.46834 L126.71821,134.66391 L127.45892,134.78986 L127.21425,139.6913 z M200.67049,143.1051 L198.95506,142.34146 L196.32913,135.03542 L197.15,134.1351 L197.6225,133.86034 L200.42654,134.5913 L201.73805,143.34882 z M165.08218,137.64323 L160.69681,139.45082 L154.17033,140.09645 L149.485,139.9574 L149.45343,139.8887 L163.57072,132.20767 L166.16357,134.7014 z M188.49042,139.8498 L186.63687,138.13078 L186.63687,135.22104 L190.16313,138.70938 L190.41351,139.08092 L190.2519,139.3282 L189.03981,139.95499 z M163.57072,132.20767 L149.45343,139.8887 L148.1633,138.83578 L148.3554,134.98756 L155.38416,128.03438 L159.1728,128.59656 L163.5942,131.87694 z M192.40388,132.8775 L186.78218,132.52992 L183.3171,131.11594 L182.50539,130.69699 L181.89333,126.15588 L183.5956,124.2065 L186.2639,123.76656 z M148.1633,138.83578 L139.09091,137.53299 L136.81284,135.9273 L140.30423,129.19229 L143.70187,128.96312 L145.47697,129.40213 L148.3554,134.98756 z M126.71821,134.66391 L122.67885,132.88194 L124.43497,128.19142 L129.10722,128.88472 L132.09918,130.08002 L131.61217,133.78366 L127.45892,134.78986 z M129.10722,128.88472 L128.12437,127.66937 L127.884125,126.956375 L132.3401,123.65032 L134.55687,126.15312 L134.55687,126.43313 L132.09918,130.08002 z M143.70187,128.96312 L140.75534,124.15362 L141.25055,123.72497 L147.04904,122.3483 L147.16846,122.34308 L149.60564,123.93213 L145.47697,129.40213 z M140.75534,124.15362 L134.55687,126.15312 L132.3401,123.65032 L131.94305,123.13128 L136.227,117.5223 L136.7375,117.50652 L141.25055,123.72497 z M147.04904,122.3483 L137.07501,117.41491 L139.0325,116.461815 L145.71153,115.06811 L147.19594,115.66113 L147.41731,116.619225 L147.16846,122.34308 z M210.61537,121.20062 L198.30998,121.20062 L196.14114,120.248276 L197.08212,117.06785 L199.28369,115.78673 L205.13875,114.40032 L209.03438,117.29063 z M167.48909,119.8925 L165.8028,121.85856 L162.99626,121.38837 L161.82722,120.245056 L161.66965,118.88104 L168.23178,114.92524 L169.02258,117.38945 z M153.88179,119.359924 L147.41731,116.619225 L147.19594,115.66113 L147.91411,115.43508 L155.78438,114.267235 L156.68887,115.321785 L154.45927,119.10285 z M173.427,119.630875 L169.27687,117.578125 L169.02258,117.38945 L168.23178,114.92524 L168.25969,114.86125 L170.19913,114.86125 L175.82079,120.07488 z M139.0325,116.461815 L137.07501,117.41491 L136.7375,117.50652 L136.227,117.5223 L98.03797,91.93048 L98.0765,91.886566 L139.0325,112.14438 z M213.12895,112.546875 L211.36957,114.015396 L206.82515,113.49667 L209.3405,107.898 L211.8391,107.21503 L212.94812,107.15625 L215.39545,107.502106 z M205.13875,114.40032 L199.28369,115.78673 L201.22325,106.79282 L204.51082,105.97977 L205.04083,106.075096 L209.3405,107.898 L206.82515,113.49667 z M225.385,100.32339 L219.17455,108.38695 L218.42093,108.75039 L215.65825,107.49777 L218.7174,101.69743 L224.41884,99.44138 L225.13574,99.69749 z M186.57875,107.02688 L180.65819,98.24152 L180.8156,97.96018 L185.67238,96.46733 L190.80542,100.910446 L192.17133,102.38152 L187.08676,107.159904 z M234.14801,102.04414 L229.44904,106.22774 L228.73183,105.72787 L225.385,100.32339 L225.13574,99.69749 L231.4508,97.640495 L234.84914,100.31016 z M201.88112,100.310875 L198.02937,101.180626 L198.02937,97.694626 L201.19395,94.87713 L204.52414,97.84206 L204.07462,98.925964 L203.14113,99.88241 z M209.5575,96.933685 L204.52414,97.84206 L201.19395,94.87713 L200.83827,94.40212 L201.25624,93.591095 L206.64479,88.75146 L209.5575,90.9125 z M48.066875,41.402946 L46.019657,39.23308 L46.852707,38.15146 L47.77948,37.463856 L51.939835,37.226414 L54.06344,38.486874 L52.571564,39.493126 z M47.77948,37.463856 L43.392216,35.138805 L43.688126,35.065624 L46.943127,35.065624 L50.224377,35.55252 L50.898125,35.87387 L51.939835,37.226414 z M54.06344,38.486874 L51.939835,37.226414 L50.898125,35.87387 L51.602364,32.738865 L52.333126,32.689575 L67.11076,35.126034 L62.251488,38.486874 z M50.224377,35.55252 L48.996876,33.95875 L48.472977,32.5983 L48.60728,32.324272 L50.06889,31.348295 L51.602364,32.738865 L50.898125,35.87387 z M211.62378,178.98305 L206.43813,180.16687 L179.37032,183.33781 L179.55121,183.02348 L185.91898,175.5168 L200.4253,162.9425 L205.76497,161.5623 L213.14188,177.98187 z M145.5425,178.6575 L143.50812,177.14813 L142.30446,173.57594 L142.29065,173.37117 L142.96562,172.62 L144.54561,171.00816 L145.50276,170.84247 L145.5425,170.85213 z M215.36403,178.48917 L213.14188,177.98187 L205.76497,161.5623 L227.19008,154.61435 L226.60947,173.78389 L226.53766,173.88867 L225.00125,174.85971 L219.5325,177.94339 z M126.580025,169.98885 L114.82512,171.07903 L114.37687,171.01794 L115.06433,162.60213 L121.26947,161.66045 L126.04709,162.29848 L127.21302,166.09138 L126.80521,169.60126 z M102.66771,165.47427 L99.836876,163.75586 L99.836876,159.23688 L101.52148,158.4415 L103.6297,159.24728 L107.529144,161.0555 L105.02393,164.4941 L103.988815,165.13821 z M141.56416,161.04813 L139.84625,160.85693 L139.84625,157.7275 L140.40279,155.66295 L140.62233,155.57524 L145.51743,155.05641 L149.8682,159.01802 L146.30283,161.04813 z M129.91167,157.48964 L121.16951,155.13106 L120.45979,153.41972 L121.80375,149.83006 L123.37258,148.38896 L125.72522,147.93642 L131.16624,152.73705 L131.16624,153.40837 z M169.91837,144.79428 L168.3275,143.65935 L168.3275,135.33386 L169.9389,135.65993 L176.49434,141.33424 L176.44281,141.46468 L174.88304,144.1649 L173.1921,145.05452 z M174.1053,127.3782 L170.55641,127.32554 L167.51375,122.81062 L168.74236,122.14768 L176.86925,120.424934 L180.92393,121.204865 L183.5956,124.2065 L181.89333,126.15588 z M166.78845,112.67812 L158.45001,116.11511 L156.68887,115.321785 L155.78438,114.267235 L157.92836,107.37421 L158.29785,106.80101 L163.0362,105.731064 L165.0913,106.53964 z M179.11395,113.483284 L170.19913,114.86125 L168.25969,114.86125 L166.78845,112.67812 L165.0913,106.53964 L165.68282,106.50938 L176.3875,109.3125 L179.14645,113.40643 z M209.51105,102.46508 L208.19902,102.32601 L204.07462,98.925964 L204.52414,97.84206 L209.5575,96.933685 L211.31746,97.39247 L212.71913,99.94509 L210.307,101.933586 z M218.7174,101.69743 L213.42062,100.38748 L212.71913,99.94509 L211.31746,97.39247 L216.53143,95.30946 L221.43413,95.737404 L221.58737,95.76506 L224.41884,99.44138 z M214.06442,91.191154 L209.5575,90.9125 L206.64479,88.75146 L206.55066,88.095 L207.3349,85.608894 L217.68468,85.368935 L219.63821,85.5648 L216.37265,89.47859 z M61.76632,57.49814 L48.040188,59.84827 L46.63382,58.38182 L48.182648,55.04934 L55.334335,53.04163 L57.384335,53.11768 L57.63674,53.19866 L62.209873,55.194527 z M46.265,33.426876 L43.688126,35.065624 L43.392216,35.138805 L39.076874,35.266876 L26.418541,35.266876 L22.07513,35.012466 L45.90333,31.476667 L46.265,31.745 z M200.4253,162.9425 L192.23152,155.73746 L191.49864,153.9783 L195.76895,145.52951 L200.67049,143.1051 L201.73805,143.34882 L228.37448,153.72412 L227.19008,154.61435 L205.76497,161.5623 z M149.26794,142.5968 L136.81532,144.90656 L133.8508,142.92703 L134.72328,141.36267 L139.09091,137.53299 L148.1633,138.83578 L149.45343,139.8887 L149.485,139.9574 L149.66356,142.26253 z M121.17997,147.7974 L116.631584,146.38225 L115.188156,145.43983 L114.50544,143.86958 L122.29411,141.94334 L124.86803,143.48929 L126.0553,147.10089 L125.72522,147.93642 L123.37258,148.38896 z M172.59969,134.08063 L169.9389,135.65993 L168.3275,135.33386 L166.16357,134.7014 L163.57072,132.20767 L163.5942,131.87694 L169.09938,128.05595 L170.55641,127.32554 L174.1053,127.3782 z M228.2799,121.84554 L220.76013,112.546875 L218.42093,108.75039 L219.17455,108.38695 L228.73183,105.72787 L229.44904,106.22774 L232.76335,109.47714 L245.39066,132.67567 L233.91771,126.20641 z M179.91013,99.472206 L165.68282,106.50938 L165.0913,106.53964 L163.0362,105.731064 L163.36966,101.11289 L172.75662,96.46987 L176.41333,96.32708 L180.8156,97.96018 L180.65819,98.24152 z M68.01021,47.073544 L67.86192,47.227566 L64.43188,46.54893 L62.070274,44.59064 L61.50586,42.776016 L61.46004,41.178226 L62.251488,38.486874 L67.11076,35.126034 L81.777504,26.644646 z M180.8156,97.96018 L176.41333,96.32708 L172.70287,89.16947 L179.1934,82.3839 L180.85194,82.41356 L182.44678,83.05316 L186.67699,85.877846 L187.51595,87.27367 L187.3955,93.79765 L185.67238,96.46733 z M186.2639,123.76656 L183.5956,124.2065 L180.92393,121.204865 L179.11395,113.483284 L179.14645,113.40643 L183.54163,111.96778 L187.53221,111.29104 L188.81683,111.72895 L194.91,115.01676 L197.08212,117.06785 L196.14114,120.248276 L192.25594,122.52852 z" fill="none" stroke="white" stroke-width="0.6"/>
</g>
<path d="m 15.815664,12.893319 c -1.445284,-3.0999497 -5.555449,-0.3575 -5.08537,2.32203 1.697826,2.92736 4.504013,-3.54417 4.40859,-2.58178 -1.548999,2.22986 0.741131,6.08701 3.012419,3.25791 2.532153,-2.82358 0.259001,-7.8326797 -3.488671,-7.9011197 -3.217272,0.056 -5.8863857,2.4603197 -7.9308737,4.7238797 -2.354585,2.46752 0.0048,5.887 2.757763,6.62143 3.2195457,1.10867 6.8759417,1.30834 9.9459317,-0.36585 2.270396,-1.12373 5.025949,-2.62031 5.680576,-5.20027 -2.108811,-3.66096 -6.038415,1.28356 -3.842036,3.67822 1.07278,0.89979 4.586982,-2.27037 3.201668,-2.73503 0.03094,3.24357 1.226854,6.37852 1.337023,9.60311 -0.672198,3.54892 -7.469251,0.32096 -4.637082,-2.5164 2.158436,-2.4193 5.610472,-2.84094 8.202925,-4.57369 0.993877,-1.40371 0.353413,-5.25046 3.182464,-3.48957 2.142923,1.43516 -2.250898,5.7532 1.723416,5.02339 1.661189,-0.71663 6.494946,-1.40457 4.601401,-3.95236 -4.205319,-0.68052 -1.190571,5.86505 1.665411,3.46881 1.929752,-0.9247 2.778055,-4.05119 1.423645,-5.35034 0.479155,1.8589 3.849911,7.52574 4.880369,3.32696 0.21201,-1.28088 0.40468,-3.80204 1.01246,-1.23041 0.5858,2.6865 3.83412,4.91909 4.56937,1.07383 0.65272,-1.00894 -0.2696,-4.02739 0.99929,-1.35746 1.10974,2.31613 6.32001,1.46113 6.147,-1.13059 -1.98394,-2.13868 -5.3717,1.45205 -3.78252,3.73454 2.57741,0.96208 6.69797,-0.21041 7.06275,-3.33983 0.41287,-2.63769 0.26643,-5.3430297 -0.11178,-7.9756197 0.67418,3.94149 1.24889,7.9380497 2.39963,11.7713397 2.10586,1.67977 5.7434,1.65022 7.74596,-0.23639 3.03149,-1.85431 -0.26637,-4.76925 -2.71777,-4.54025 -2.11577,0.0793 -5.36257,2.40772 -5.16868,3.85604 2.08262,-2.38818 5.55759,-1.22628 8.30726,-1.6832 3.182,-0.26596 6.46546,-0.57372 9.54494,-1.18158 0.24171,0.4199 -0.27752,0.54338 -0.43067,0.17453" fill="none" stroke="white" stroke-width="1" transform="translate(260,190) scale(0.3)"/>
</svg>