<svg height="297mm" style="background:white" viewBox="0 0 210 297" width="210mm" xmlns="http://www.w3.org/2000/svg" xmlns:inkscape="http://www.inkscape.org/namespaces/inkscape">
<g inkscape:groupmode="layer" inkscape:label="black">
<path d="M105,148.5 L105.71,149.21 L106.42,149.92 L107.13,150.63 L107.84,151.34 L108.54,152.05 L109.24,152.77 L109.93,153.49 L110.61,154.22 L111.28,154.96 L111.94,155.71 L112.59,156.47 L113.22,157.25 L113.83,158.04 L114.41,158.85 L114.97,159.68 L115.5,160.53 L116,161.4 L116.46,162.29 L116.88,163.2 L117.27,164.12 L117.61,165.06 L117.91,166.01 L118.16,166.98 L118.37,167.96 L118.53,168.95 L118.64,169.94 L118.71,170.94 L118.73,171.94 L118.71,172.94 L118.64,173.94 L118.53,174.93 L118.39,175.92 L118.21,176.9 L118,177.88 L117.76,178.85 L117.49,179.81 L117.2,180.77 L116.89,181.72 L116.57,182.67 L116.23,183.61 L115.89,184.55 L115.54,185.49 L115.2,186.43 L114.86,187.37 L114.53,188.31 L114.21,189.26 L113.91,190.21 L113.63,191.17 L113.38,192.14 L113.16,193.12 L112.98,194.1 L112.83,195.09 L112.73,196.08 L112.67,197.08 L112.66,198.08 L112.7,199.08 L112.8,200.08 L112.95,201.07 L113.16,202.05 L113.43,203.01 L113.76,203.95 L114.15,204.87 L114.6,205.76 L115.11,206.62 L115.68,207.44 L116.3,208.22 L116.97,208.96 L117.69,209.65 L118.46,210.29 L119.27,210.87 L120.12,211.39 L121.01,211.85 L121.93,212.25 L122.87,212.58 L123.83,212.85 L124.81,213.05 L125.8,213.18 L126.8,213.24 L127.8,213.24 L128.8,213.17 L129.79,213.04 L130.77,212.85 L131.74,212.61 L132.7,212.32 L133.64,211.98 L134.56,211.6 L135.47,211.18 L136.36,210.72 L137.23,210.23 L138.09,209.72 L138.94,209.19 L139.78,208.64 L140.61,208.08 L141.44,207.52 L142.26,206.95 L143.08,206.38 L143.91,205.82 L144.75,205.27 L145.6,204.74 L146.46,204.22 L147.33,203.73 L148.22,203.27 L149.12,202.84 L150.04,202.45 L150.98,202.1 L151.93,201.79 L152.9,201.53 L153.88,201.32 L154.87,201.17 L155.87,201.08 L156.87,201.04 L157.87,201.06 L158.87,201.15 L159.86,201.3 L160.84,201.5 L161.81,201.76 L162.76,202.08 L163.69,202.45 L164.6,202.87 L165.49,203.33 L166.35,203.83 L167.19,204.37 L168.01,204.94 L168.81,205.54 L169.59,206.17 L170.35,206.82 L171.1,207.49 L171.83,208.17 L172.55,208.86 L173.27,209.56 L173.98,210.26 L174.69,210.97 L175.4,211.68 L176.11,212.39 L176.82,213.1 L177.53,213.81 L178.24,214.51 L178.95,215.21 L179.67,215.91 L180.4,216.6 L181.14,217.27 L181.89,217.93 L182.66,218.57 L183.45,219.18 L184.26,219.77 L185.09,220.32 L185.95,220.83 L186.83,221.3 L187.74,221.72 L188.67,222.09 L189.62,222.4 L190.59,222.65 L191.57,222.83 L192.56,222.94 L193.56,222.98 L194.56,222.94 L195.55,222.83 L196.53,222.65 L197.5,222.4 L198.45,222.08 L199.37,221.69 L200.26,221.24 L201.12,220.73 L201.94,220.16 L202.73,219.54 L203.48,218.88 L204.2,218.18 L204.88,217.45 L205.53,216.69 M105.69,150.72 L104.98,151.42 L104.27,152.12 L103.56,152.82 L102.84,153.52 L102.12,154.22 L101.4,154.91 L100.67,155.6 L99.93,156.28 L99.19,156.95 L98.43,157.6 L97.66,158.24 L96.88,158.86 L96.08,159.46 L95.26,160.04 L94.42,160.59 L93.57,161.11 L92.7,161.6 L91.81,162.05 L90.9,162.46 L89.97,162.83 L89.03,163.16 L88.07,163.45 L87.1,163.69 L86.12,163.89 L85.13,164.04 L84.14,164.14 L83.14,164.2 L82.14,164.21 L81.14,164.17 L80.14,164.09 L79.15,163.97 L78.16,163.81 L77.18,163.62 L76.21,163.39 L75.24,163.13 L74.28,162.85 L73.33,162.55 L72.38,162.23 L71.44,161.89 L70.5,161.54 L69.57,161.18 L68.64,160.82 L67.71,160.46 L66.77,160.11 L65.83,159.77 L64.89,159.44 L63.94,159.13 L62.98,158.84 L62.02,158.58 L61.05,158.35 L60.07,158.15 L59.08,157.99 L58.09,157.87 L57.09,157.8 L56.09,157.78 L55.09,157.81 L54.09,157.89 L53.1,158.03 L52.12,158.23 L51.15,158.49 L50.2,158.81 L49.28,159.19 L48.38,159.63 L47.51,160.13 L46.68,160.69 L45.89,161.3 L45.14,161.97 L44.44,162.69 L43.79,163.45 L43.2,164.26 L42.67,165.11 L42.2,165.99 L41.79,166.9 L41.45,167.84 L41.18,168.8 L40.97,169.78 L40.83,170.77 L40.76,171.77 L40.75,172.77 L40.81,173.77 L40.93,174.76 L41.11,175.74 L41.35,176.71 L41.64,177.67 L41.98,178.61 L42.36,179.54 L42.78,180.45 L43.23,181.34 L43.71,182.22 L44.22,183.08 L44.75,183.93 L45.3,184.77 L45.86,185.6 L46.42,186.43 L46.99,187.25 L47.56,188.07 L48.12,188.9 L48.67,189.73 L49.21,190.57 L49.73,191.43 L50.22,192.3 L50.69,193.18 L51.12,194.08 L51.52,195 L51.88,195.93 L52.19,196.88 L52.45,197.84 L52.66,198.82 L52.82,199.81 L52.92,200.8 L52.96,201.8 L52.94,202.8 L52.86,203.8 L52.72,204.79 L52.52,205.77 L52.27,206.74 L51.96,207.69 L51.6,208.62 L51.19,209.53 L50.73,210.42 L50.23,211.29 L49.7,212.14 L49.13,212.96 L48.53,213.76 L47.91,214.54 L47.27,215.31 L46.61,216.06 L45.94,216.8 L45.26,217.53 L44.57,218.25 L43.87,218.97 L43.17,219.69 L42.47,220.4 L41.77,221.11 L41.07,221.82 L40.37,222.53 L39.67,223.25 L38.98,223.97 L38.29,224.7 L37.61,225.43 L36.94,226.18 L36.29,226.94 L35.66,227.72 L35.05,228.51 L34.47,229.33 L33.93,230.17 L33.42,231.03 L32.96,231.92 L32.55,232.83 L32.19,233.76 L31.89,234.71 L31.65,235.68 L31.48,236.67 L31.38,237.66 L31.35,238.66 L31.39,239.66 L31.51,240.65 L31.7,241.63 L31.96,242.59 L32.29,243.53 L32.69,244.45 L33.15,245.34 L33.67,246.2 L34.24,247.02 L34.86,247.8 L35.52,248.55 L36.22,249.26 L36.95,249.94 L37.71,250.59 L38.49,251.21 L39.29,251.81 L40.1,252.39 L40.92,252.96 L41.75,253.52 L42.58,254.08 L43.41,254.64 L44.23,255.21 L45.05,255.79 L45.85,256.39 L46.63,257.01 L47.39,257.66 L48.12,258.34 L48.82,259.06 L49.48,259.81 L50.09,260.6 L50.65,261.43 L51.14,262.3 L51.57,263.2 L51.92,264.14 L52.19,265.1 L52.38,266.08 L52.48,267.08 L52.49,268.08 L52.4,269.08 L52.21,270.06 L51.93,271.02 L51.55,271.95 L51.08,272.83 L50.52,273.66 L49.88,274.43 M106.4,145.53 L105.71,144.81 L105.02,144.09 L104.33,143.37 L103.64,142.65 L102.95,141.93 L102.26,141.2 L101.58,140.47 L100.91,139.73 L100.25,138.98 L99.6,138.22 L98.97,137.44 L98.36,136.65 L97.77,135.84 L97.2,135.02 L96.66,134.18 L96.15,133.32 L95.67,132.44 L95.23,131.54 L94.83,130.63 L94.47,129.7 L94.15,128.75 L93.87,127.79 L93.64,126.82 L93.46,125.84 L93.32,124.85 L93.23,123.85 L93.19,122.85 L93.19,121.85 L93.24,120.85 L93.33,119.85 L93.46,118.86 L93.63,117.87 L93.84,116.89 L94.08,115.92 L94.35,114.96 L94.65,114 L94.97,113.05 L95.31,112.11 L95.66,111.17 L96.02,110.24 L96.39,109.31 L96.76,108.38 L97.13,107.45 L97.5,106.52 L97.86,105.59 L98.2,104.65 L98.53,103.7 L98.83,102.75 L99.11,101.79 L99.36,100.82 L99.57,99.84 L99.74,98.86 L99.87,97.87 L99.96,96.87 L100,95.87 L99.98,94.87 L99.91,93.87 L99.78,92.88 L99.59,91.9 L99.34,90.93 L99.03,89.98 L98.66,89.05 L98.23,88.15 L97.74,87.28 L97.19,86.44 L96.59,85.64 L95.93,84.89 L95.22,84.18 L94.46,83.52 L93.66,82.92 L92.82,82.38 L91.94,81.9 L91.03,81.48 L90.09,81.13 L89.13,80.85 L88.15,80.63 L87.16,80.48 L86.16,80.4 L85.16,80.39 L84.16,80.44 L83.17,80.55 L82.19,80.72 L81.22,80.95 L80.26,81.23 L79.32,81.56 L78.39,81.93 L77.48,82.34 L76.59,82.79 L75.71,83.27 L74.85,83.78 L74,84.31 L73.16,84.85 L72.33,85.41 L71.5,85.97 L70.68,86.54 L69.86,87.11 L69.03,87.67 L68.2,88.22 L67.36,88.76 L66.51,89.28 L65.64,89.78 L64.76,90.25 L63.86,90.69 L62.94,91.09 L62.01,91.45 L61.06,91.77 L60.1,92.04 L59.12,92.26 L58.13,92.42 L57.14,92.53 L56.14,92.58 L55.14,92.57 L54.14,92.5 L53.15,92.37 L52.17,92.18 L51.2,91.93 L50.25,91.63 L49.31,91.28 L48.39,90.88 L47.5,90.43 L46.63,89.94 L45.78,89.41 L44.95,88.85 L44.14,88.26 L43.35,87.65 L42.58,87.02 L41.82,86.37 L41.07,85.7 L40.33,85.02 L39.6,84.34 L38.88,83.65 L38.16,82.96 L37.44,82.27 L36.72,81.58 L36,80.89 L35.28,80.2 L34.56,79.51 L33.83,78.82 L33.1,78.14 L32.36,77.47 L31.61,76.81 L30.84,76.17 L30.06,75.55 L29.26,74.95 L28.44,74.38 L27.6,73.84 L26.73,73.34 L25.84,72.89 L24.93,72.49 L23.99,72.14 L23.03,71.85 L22.06,71.62 L21.07,71.46 L20.07,71.37 L19.07,71.35 L18.07,71.4 L17.08,71.53 L16.1,71.73 L15.14,72 L14.2,72.34 L13.29,72.74 L12.41,73.21 L11.56,73.73 L10.74,74.31 L9.96,74.93 L9.21,75.6 L8.5,76.3 L7.82,77.04 L7.17,77.8 L6.55,78.58 L5.95,79.38 L5.37,80.19 L4.8,81.01 M102.62,143.88 L101.95,143.14 L101.28,142.4 L100.61,141.66 L99.94,140.92 L99.27,140.18 L98.61,139.43 L97.95,138.68 L97.3,137.92 L96.66,137.15 L96.04,136.37 L95.43,135.58 L94.84,134.77 L94.27,133.95 L93.73,133.11 L93.22,132.25 L92.74,131.37 L92.29,130.48 L91.88,129.57 L91.51,128.64 L91.18,127.7 L90.89,126.74 L90.65,125.77 L90.45,124.79 L90.3,123.8 L90.2,122.81 L90.15,121.81 L90.15,120.81 L90.19,119.81 L90.28,118.81 L90.41,117.82 L90.58,116.84 L90.79,115.86 L91.04,114.89 L91.32,113.93 L91.63,112.98 L91.97,112.04 L92.33,111.11 L92.71,110.18 L93.1,109.26 L93.5,108.35 L93.91,107.44 L94.33,106.53 L94.74,105.62 L95.15,104.71 L95.55,103.79 L95.94,102.87 L96.31,101.94 L96.66,101 L96.98,100.05 L97.27,99.09 L97.53,98.12 L97.75,97.14 L97.92,96.16 L98.05,95.17 L98.13,94.17 L98.16,93.17 L98.13,92.17 L98.04,91.17 L97.89,90.18 L97.68,89.2 L97.41,88.24 L97.08,87.3 L96.69,86.38 L96.23,85.49 L95.77118,84.73118 M103.51,153.99 L104.18,154.73 L104.85,155.47 L105.52,156.22 L106.18,156.97 L106.84,157.72 L107.5,158.47 L108.15,159.23 L108.79,160 L109.42,160.78 L110.04,161.57 L110.64,162.37 L111.22,163.18 L111.78,164.01 L112.31,164.86 L112.82,165.72 L113.29,166.6 L113.73,167.5 L114.13,168.42 L114.49,169.35 L114.81,170.3 L115.09,171.26 L115.32,172.23 L115.5,173.21 L115.64,174.2 L115.73,175.2 L115.77,176.2 L115.76,177.2 L115.7,178.2 L115.6,179.19 L115.45,180.18 L115.26,181.16 L115.03,182.13 L114.77,183.09 L114.47,184.05 L114.14,185 L113.79,185.94 L113.42,186.87 L113.03,187.79 L112.62,188.7 L112.2,189.61 L111.77,190.51 L111.34,191.41 L110.91,192.31 L110.49,193.22 L110.08,194.13 L109.68,195.05 L109.3,195.97 L108.94,196.9 L108.61,197.84 L108.31,198.79 L108.04,199.75 L107.81,200.72 L107.62,201.7 L107.48,202.69 L107.39,203.69 L107.35,204.69 L107.37,205.69 L107.44,206.69 L107.57,207.68 L107.77,208.66 L108.03,209.63 L108.35,210.58 L108.73,211.5 L109.18,212.4 L109.69,213.26 L110.25,214.09 L110.87,214.87 L111.54,215.61 L112.27,216.3 L113.04,216.93 L113.86,217.51 L114.72,218.03 L115.61,218.48 L116.53,218.87 L117.48,219.19 L118.45,219.44 L119.43,219.62 L120.42,219.73 L121.42,219.78 L122.42,219.76 L123.42,219.67 L124.41,219.52 L125.39,219.31 L126.36,219.05 L127.31,218.74 L128.24,218.38 L129.16,217.98 L130.06,217.54 L130.94,217.07 L131.81,216.57 L132.66,216.05 L133.5,215.51 L134.33,214.96 L135.16,214.4 L135.98,213.83 L136.8,213.26 L137.62,212.69 L138.45,212.13 L139.29,211.58 L140.14,211.05 L141,210.54 L141.88,210.06 L142.77,209.61 L143.68,209.19 L144.6,208.81 L145.54,208.47 L146.5,208.18 L147.47,207.94 L148.45,207.75 L149.44,207.62 L150.44,207.54 L151.44,207.52 L152.44,207.56 L153.44,207.66 L154.43,207.82 L155.41,208.03 L156.37,208.3 L157.32,208.62 L158.25,208.99 L159.16,209.4 L160.05,209.86 L160.92,210.35 L161.77,210.88 L162.6,211.44 L163.41,212.02 L164.21,212.62 L164.99,213.24 L165.76,213.88 L166.52,214.53 L167.28,215.18 L168.03,215.84 L168.78,216.5 L169.53,217.16 L170.28,217.82 L171.03,218.48 L171.78,219.14 L172.53,219.8 L173.28,220.46 L174.04,221.11 L174.81,221.75 L175.59,222.38 L176.38,222.99 L177.19,223.58 L178.01,224.15 L178.85,224.69 L179.72,225.19 L180.61,225.65 L181.52,226.07 L182.45,226.44 L183.4,226.75 L184.37,227 L185.35,227.19 L186.34,227.31 L187.34,227.36 L188.34,227.34 L189.34,227.25 L190.33,227.09 L191.3,226.86 L192.25,226.56 L193.18,226.19 L194.08,225.76 L194.95,225.27 L195.79,224.72 L196.59,224.12 L197.36,223.48 L198.09,222.8 L198.79,222.08 L198.99724,221.84802 M110.2,145.21 L109.45,145.87 L108.7,146.53 L107.95,147.19 L107.2,147.85 L106.44,148.5 L105.68,149.15 L104.91,149.79 L104.14,150.42 L103.36,151.04 L102.57,151.65 L101.76,152.24 L100.94,152.81 L100.11,153.36 L99.26,153.89 L98.39,154.39 L97.5,154.85 L96.6,155.28 L95.68,155.67 L94.74,156.02 L93.79,156.33 L92.83,156.6 L91.85,156.82 L90.86,156.99 L89.87,157.11 L88.87,157.18 L87.87,157.21 L86.87,157.19 L85.87,157.12 L84.88,157 L83.89,156.84 L82.91,156.64 L81.94,156.4 L80.98,156.12 L80.03,155.81 L79.09,155.47 L78.16,155.1 L77.24,154.71 L76.33,154.3 L75.42,153.88 L74.52,153.45 L73.62,153.01 L72.72,152.57 L71.82,152.13 L70.92,151.69 L70.02,151.26 L69.11,150.85 L68.19,150.45 L67.26,150.07 L66.32,149.72 L65.37,149.4 L64.41,149.12 L63.44,148.87 L62.46,148.67 L61.47,148.51 L60.48,148.4 L59.48,148.35 L58.48,148.35 L57.48,148.41 L56.49,148.53 L55.51,148.71 L54.54,148.95 L53.59,149.26 L52.66,149.63 L51.76,150.06 L50.89,150.55 L50.06,151.1 L49.27,151.71 L48.52,152.38 L47.82,153.1 L47.18,153.87 L46.59,154.68 L46.06,155.53 L45.6,156.42 L45.2,157.34 L44.87,158.28 L44.61,159.25 L44.42,160.23 L44.3,161.22 L44.25,162.22 L44.25684,162.90416 M98.53,147.34 L97.88,146.58 L97.23,145.82 L96.58,145.06 L95.93,144.3 L95.28,143.54 L94.64,142.77 L94,142 L93.37,141.22 L92.75,140.43 L92.15,139.63 L91.57,138.82 L91.01,137.99 L90.47,137.15 L89.95,136.29 L89.46,135.42 L89,134.53 L88.58,133.62 L88.2,132.7 L87.86,131.76 L87.56,130.81 L87.31,129.84 L87.1,128.86 L86.94,127.87 L86.83,126.88 L86.77,125.88 L86.76,124.88 L86.8,123.88 L86.88,122.88 L87.01,121.89 L87.18,120.91 L87.39,119.93 L87.64,118.96 L87.93,118 L88.25,117.05 L88.6,116.11 L88.98,115.18 L89.38,114.26 L89.8,113.35 L90.24,112.45 L90.69,111.56 L91.14,110.67 L91.6,109.78 L92.06,108.89 L92.51,108 L92.95,107.1 L93.38,106.2 L93.79,105.29 L94.18,104.37 L94.54,103.44 L94.87,102.5 L95.17,101.55 L95.43,100.58 L95.65,99.6 L95.82,98.61 L95.94,97.62 L96.01,96.62 L96.02,95.62 L95.97,94.62 L95.86,93.63 L95.69,92.64 L95.46,91.67 L95.16,90.71 L94.8,89.78 L94.38,88.87 L93.9,87.99 L93.36,87.15 L92.76,86.35 L92.1,85.6 L91.39,84.9 L90.63,84.25 L89.83,83.65 L88.99,83.11 L88.11,82.64 L87.2,82.23 L86.26,81.89 L85.3,81.62 L84.32,81.42 L83.33,81.29 L82.33,81.23 L81.33,81.24 L80.33,81.31 L79.854126,81.37249 M99.3,153.69 L98.67,152.91 L98.04,152.13 L97.41,151.35 L96.78,150.57 L96.16,149.79 L95.54,149.01 L94.93,148.22 L94.33,147.42 L93.74,146.61 L93.16,145.79 L92.6,144.96 L92.06,144.12 L91.54,143.26 L91.05,142.39 L90.59,141.5 L90.16,140.6 L89.77,139.68 L89.42,138.74 L89.11,137.79 L88.84,136.83 L88.62,135.85 L88.45,134.86 L88.33,133.87 L88.26,132.87 L88.25948,132.84401 M113.05,148.52 L113.67,149.3 L114.29,150.08 L114.91,150.86 L115.53,151.64 L116.15,152.43 L116.76,153.22 L117.36,154.02 L117.96,154.82 L118.54,155.63 L119.11,156.45 L119.66,157.28 L120.19,158.13 L120.7,158.99 L121.18,159.87 L121.63,160.76 L122.05,161.67 L122.43,162.6 L122.77,163.54 L123.07,164.49 L123.32,165.46 L123.53,166.44 L123.69,167.43 L123.8,168.42 L123.86,169.42 L123.87,170.42 L123.83,171.42 L123.74,172.42 L123.6,173.41 L123.42,174.39 L123.19,175.36 L122.92,176.32 L122.61,177.27 L122.26,178.21 L121.88,179.14 L121.47,180.05 L121.04,180.95 L120.58,181.84 L120.1,182.72 L119.61,183.59 L119.11,184.46 L118.6,185.32 L118.09,186.18 L117.58,187.04 L117.07,187.9 L116.57,188.77 L116.09,189.64 L115.62,190.52 L115.17,191.41 L114.75,192.32 L114.36,193.24 L114,194.17 L113.68,195.12 L113.4,196.08 L113.17,197.05 L112.99,198.03 L112.86,199.02 L112.79165,199.99648 M100.3,157.48 L99.48,158.05 L98.66,158.62 L97.84,159.19 L97.01,159.75 L96.18,160.31 L95.35,160.86 L94.51,161.41 L93.67,161.95 L92.82,162.47 L91.96,162.98 L91.09,163.47 L90.2,163.93 L89.3,164.37 L88.39,164.78 L87.46,165.16 L86.52,165.5 L85.57,165.8 L84.6,166.06 L83.62,166.28 L82.63,166.45 L81.64,166.57 L80.64,166.64 L79.64,166.66 L78.64,166.63 L77.64,166.55 L76.65,166.41 L75.67,166.22 L74.7,165.99 L73.74,165.71 L72.79,165.38 L71.86,165.01 L70.95,164.6 L70.05,164.16 L69.17,163.68 L68.31,163.17 L67.46,162.64 L66.63,162.09 L65.81,161.52 L65,160.94 L64.2,160.34 L63.4,159.74 L62.6,159.13 L61.8,158.53 L61.79578,158.52684 M114.77,144.96 L114.21,144.13 L113.65,143.3 L113.09,142.47 L112.54,141.64 L111.99,140.81 L111.45,139.97 L110.91,139.13 L110.38,138.28 L109.87,137.42 L109.37,136.55 L108.89,135.67 L108.44,134.78 L108.01,133.88 L107.61,132.96 L107.24,132.03 L106.91,131.09 L106.62,130.13 L106.37,129.16 L106.17,128.18 L106.01,127.19 L105.9,126.2 L105.84,125.2 L105.83,124.2 L105.88,123.2 L105.98,122.2 L106.13,121.21 L106.33,120.23 L106.58,119.26 L106.88,118.3 L107.22,117.36 L107.6,116.44 L108.02,115.53 L108.48,114.64 L108.97,113.77 L109.49,112.92 L110.03,112.08 L110.6,111.26 L111.18,110.45 L111.78,109.65 L112.39,108.86 L113.01,108.07 L113.63,107.28 L114.25,106.49 L114.86,105.7 L115.47,104.9 L116.06,104.1 L116.64,103.28 L117.2,102.45 L117.73,101.6 L118.24,100.74 L118.71,99.86 L119.15,98.96 L119.54,98.04 L119.89,97.1 L120.19,96.15 L120.44,95.18 L120.63,94.2 L120.76,93.21 L120.83,92.21 L120.83,91.21 L120.76,90.21 L120.63,89.22 L120.43,88.24 L120.16,87.28 L119.82,86.34 L119.41,85.43 L118.94,84.55 L118.4,83.71 L117.8,82.91 L117.14,82.16 L116.43,81.46 L115.67,80.81 L114.86,80.23 L114.01,79.71 L113.12,79.26 L112.2,78.88 L111.25,78.57 L110.28,78.33 L109.29,78.16 L108.29,78.06 L107.29,78.03 L106.29,78.07 L105.3,78.18 L104.31,78.35 L103.34,78.58 L102.38,78.86 L101.44,79.19 L100.52,79.57 L99.61,79.99 L98.72,80.45 L97.85,80.94 L96.99,81.45 L96.15,81.99 L95.32,82.54 L94.49,83.1 L94.1838,83.31285 M108.37,137.87 L107.84,137.02 L107.31,136.17 L106.78,135.32 L106.25,134.47 L105.73,133.62 L105.21,132.76 L104.7,131.9 L104.2,131.03 L103.72,130.15 L103.25,129.27 L102.8,128.38 L102.38,127.47 L101.98,126.55 L101.61,125.62 L101.28,124.68 L100.98,123.72 L100.73,122.75 L100.52,121.77 L100.35,120.78 L100.23,119.79 L100.16,118.79 L100.14,117.79 L100.17,116.79 L100.26,115.79 L100.4,114.8 L100.59,113.82 L100.83,112.85 L101.12,111.89 L101.46,110.95 L101.84,110.03 L102.26,109.12 L102.72,108.23 L103.22,107.36 L103.75,106.51 L104.31,105.68 L104.89,104.87 L105.5,104.07 L106.12,103.29 L106.76,102.52 L107.41,101.76 L108.06,101 L108.72,100.25 L109.38,99.5 L110.03,98.74 L110.68,97.98 L111.31,97.21 L111.93,96.42 L112.53,95.62 L113.11,94.8 L113.66,93.96 L114.18,93.1 L114.66,92.22 L115.1,91.32 L115.49,90.4 L115.84,89.46 L116.13,88.5 L116.37,87.53 L116.55,86.55 L116.66,85.56 L116.71,84.56 L116.69,83.56 L116.6,82.56 L116.44,81.57 L116.40983,81.44275 M98.21,138.79 L97.7,137.93 L97.2,137.07 L96.7,136.21 L96.2,135.34 L95.7,134.47 L95.21,133.6 L94.73,132.72 L94.26,131.84 L93.81,130.95 L93.37,130.05 L92.95,129.14 L92.56,128.22 L92.2,127.29 L91.87,126.35 L91.57,125.4 L91.31,124.43 L91.09,123.45 L90.92,122.47 L90.79,121.48 L90.71,120.48 L90.68,119.48 L90.7,118.48 L90.78,117.48 L90.91,116.49 L91.09,115.51 L91.32,114.54 L91.61,113.58 L91.94,112.64 L92.32,111.72 L92.75,110.82 L93.22,109.94 L93.73,109.08 L94.27,108.24 L94.84,107.42 L95.44,106.62 L96.06,105.84 L96.7,105.08 L97.36,104.33 L98.04,103.59 L98.73,102.86 L98.82734,102.75843 M103.41,160.47 L103.91,161.34 L104.41,162.21 L104.9,163.08 L105.39,163.95 L105.88,164.82 L106.36,165.7 L106.83,166.58 L107.29,167.47 L107.73,168.37 L108.16,169.27 L108.56,170.18 L108.94,171.1 L109.29,172.04 L109.61,172.99 L109.9,173.95 L110.15,174.92 L110.36,175.9 L110.52,176.89 L110.63,177.88 L110.7,178.88 L110.71,179.88 L110.67,180.88 L110.58,181.88 L110.44,182.87 L110.24,183.85 L109.99,184.82 L109.69,185.77 L109.34,186.71 L108.94,187.63 L108.5,188.53 L108.02,189.41 L107.5,190.26 L106.95,191.09 L106.36,191.9 L105.75,192.69 L105.11,193.46 L104.45,194.21 L103.78,194.95 L103.09,195.68 L102.39,196.4 L101.69,197.11 L100.98,197.82 L100.27,198.53 L99.57,199.24 L98.87,199.96 L98.18,200.69 L97.51,201.43 L96.86,202.19 L96.23,202.97 L95.63,203.77 L95.06,204.59 L94.52,205.43 L94.02,206.3 L93.57,207.19 L93.16,208.1 L92.81,209.04 L92.51,209.99 L92.27,210.96 L92.1,211.94 L91.99,212.93 L91.95,213.93 L91.98,214.93 L92.08,215.92 L92.25,216.9 L92.5,217.87 L92.82,218.82 L93.21,219.74 L93.67,220.63 L94.19,221.48 L94.78,222.29 L95.43,223.05 L96.14,223.76 L96.9,224.41 L97.71,225 L98.56,225.52 L99.45,225.98 L100.37,226.36 L101.32,226.67 L102.29,226.91 L103.28,227.07 L104.28,227.16 L105.28,227.18 L106.28,227.13 L107.27,227.01 L108.25,226.83 L109.22,226.59 L110.18,226.29 L111.12,225.94 L112.04,225.55 L112.94,225.12 L113.82,224.65 L114.69,224.15 L115.54,223.63 L116.38,223.09 L117.21,222.53 L118.03,221.96 L118.85,221.38 L119.66,220.8 L120.47,220.22 L121.12425,219.76521 M92.5,147.95 L92.02,147.07 L91.54,146.19 L91.07,145.31 L90.6,144.43 L90.13,143.55 L89.67,142.66 L89.22,141.77 L88.78,140.87 L88.36,139.96 L87.96,139.05 L87.58,138.13 L87.22,137.2 L86.89,136.26 L86.59,135.31 L86.33,134.34 L86.11,133.36 L85.93,132.38 L85.79,131.39 L85.7,130.39 L85.66,129.39 L85.67,128.39 L85.74,127.39 L85.86,126.4 L86.03,125.42 L86.26,124.45 L86.54,123.49 L86.87,122.55 L86.94859,122.35766 M114,157.51 L114.47,158.39 L114.94,159.27 L115.4,160.16 L115.86,161.05 L116.32,161.94 L116.77,162.83 L117.21,163.73 L117.64,164.63 L118.05,165.54 L118.44,166.46 L118.81,167.39 L119.16,168.33 L119.48,169.28 L119.76,170.24 L120.01,171.21 L120.22,172.19 L120.39,173.18 L120.51,174.17 L120.58,175.17 L120.6,176.17 L120.57,177.17 L120.49,178.17 L120.36,179.16 L120.17,180.14 L119.93,181.11 L119.64,182.07 L119.3,183.01 L118.91,183.93 L118.47,184.83 L117.99,185.71 L117.47,186.56 L116.91,187.39 L116.32,188.19 L115.69,188.97 L115.04,189.73 L114.36,190.47 L113.66,191.19 L113.61287,191.23647 M118.24,146.76 L118.68,147.66 L119.12,148.56 L119.55,149.46 L119.98,150.36 L120.4,151.27 L120.82,152.18 L121.23,153.09 L121.62,154.01 L122,154.94 L122.36,155.87 L122.7,156.81 L123.01,157.76 L123.29,158.72 L123.54,159.69 L123.75,160.67 L123.92,161.66 L124.05,162.65 L124.13,163.65 L124.16,164.65 L124.14,165.65 L124.07,166.65 L123.95,167.64 L123.77,168.62 L123.54,169.59 L123.26,170.55 L122.92,171.49 L122.53,172.41 L122.09,173.31 L121.61,174.19 L121.08,175.04 L120.51,175.86 L119.91,176.66 L119.27,177.43 L118.61,178.18 L117.92,178.9 L117.67915,179.13745 M118.19,141.61 L117.84,140.67 L117.49,139.73 L117.15,138.79 L116.81,137.85 L116.48,136.91 L116.15,135.96 L115.84,135.01 L115.54,134.06 L115.26,133.1 L115,132.14 L114.76,131.17 L114.55,130.19 L114.37,129.21 L114.23,128.22 L114.13,127.23 L114.07,126.23 L114.05,125.23 L114.08,124.23 L114.16,123.23 L114.3,122.24 L114.49,121.26 L114.73,120.29 L115.03,119.34 L115.38,118.4 L115.78,117.49 L116.24,116.6 L116.75,115.74 L117.3,114.91 L117.9,114.11 L118.54,113.34 L119.21,112.6 L119.92,111.89 L120.66,111.22 L121.42,110.58 L122.21,109.96 L123.02,109.37 L123.84,108.8 L124.68,108.25 L125.53,107.72 L126.39,107.2 L127.25,106.69 L128.11,106.19 L128.97,105.69 L129.83,105.18 L130.69,104.66 L131.54,104.13 L132.38,103.58 L133.2,103.01 L134.01,102.42 L134.79,101.8 L135.55,101.15 L136.28,100.47 L136.98,99.75 L137.64,99 L138.25,98.21 L138.82,97.39 L139.34,96.53 L139.8,95.64 L140.2,94.72 L140.53,93.78 L140.79,92.82 L140.98,91.84 L141.1,90.85 L141.14,89.85 L141.11,88.85 L141,87.86 L140.81,86.88 L140.55,85.92 L140.21,84.98 L139.8,84.07 L139.31,83.2 L138.75,82.37 L138.13,81.59 L137.44,80.86 L136.7,80.19 L135.9,79.59 L135.05,79.06 L134.16,78.6 L133.24,78.21 L132.29,77.9 L131.32,77.67 L130.33,77.52 L129.33,77.44 L128.33,77.44 L127.33,77.51 L126.34,77.65 L125.36,77.85 L124.4,78.11 L123.45,78.43 L122.52,78.8 L121.61,79.22 L120.72,79.68 L119.85,80.17 L119,80.69 L118.16,81.24 L117.34,81.81 L117.0185,82.04021 M105.03,164.6 L105.29,165.56 L105.55,166.53 L105.81,167.5 L106.06,168.47 L106.31,169.44 L106.55,170.41 L106.78,171.38 L106.99,172.36 L107.18,173.34 L107.35,174.33 L107.49,175.32 L107.6,176.31 L107.68,177.31 L107.72,178.31 L107.72,179.31 L107.68,180.31 L107.59,181.31 L107.45,182.3 L107.26,183.28 L107.02,184.25 L106.72,185.2 L106.37,186.14 L105.96,187.05 L105.5,187.94 L104.99,188.8 L104.43,189.63 L103.82,190.43 L103.17,191.19 L102.48,191.91 L101.75,192.59 L100.99,193.24 L100.2,193.85 L99.38,194.42 L98.54,194.96 L97.68,195.47 L96.8,195.95 L95.91,196.4 L95.01,196.83 L94.1,197.24 L93.18,197.63 L92.26,198.01 L91.33,198.39 L90.4,198.77 L89.48,199.15 L88.56,199.54 L87.65,199.95 L86.75,200.38 L85.86,200.83 L84.98,201.31 L84.12,201.82 L83.28,202.36 L82.46,202.94 L81.67,203.56 L80.92,204.22 L80.21,204.92 L79.54,205.66 L78.92,206.44 L78.35,207.26 L77.84,208.12 L77.39,209.01 L77.01,209.93 L76.7,210.88 L76.46,211.85 L76.3,212.84 L76.21,213.84 L76.2,214.84 L76.27,215.84 L76.42,216.83 L76.65,217.8 L76.96,218.75 L77.35,219.67 L77.81,220.56 L78.35,221.4 L78.96,222.19 L79.63,222.93 L80.37,223.61 L81.16,224.22 L82,224.76 L82.88,225.23 L83.8,225.62 L84.75,225.93 L85.72,226.16 L86.71,226.31 L87.71,226.38 L88.71,226.37 L89.71,226.29 L90.7,226.14 L91.68,225.92 L92.64,225.64 L93.58,225.31 L94.5,224.93 L95.4,224.5 L96.28,224.03 L96.38375,223.96848 M122.05,153.81 L121.93,152.82 L121.82,151.83 L121.71,150.84 L121.61,149.85 L121.52,148.85 L121.44,147.85 L121.37,146.85 L121.32,145.85 L121.29,144.85 L121.28,143.85 L121.3,142.85 L121.35,141.85 L121.44,140.85 L121.57,139.86 L121.74,138.87 L121.96,137.89 L122.22,136.93 L122.53,135.98 L122.9,135.05 L123.32,134.14 L123.79,133.26 L124.31,132.41 L124.89,131.59 L125.51,130.81 L126.18,130.07 L126.9,129.37 L127.66,128.72 L128.45,128.11 L129.28,127.55 L130.14,127.04 L131.02,126.57 L131.93,126.15 L132.86,125.77 L133.8,125.43 L134.75,125.13 L135.71,124.86 L136.68,124.62 L137.66,124.41 L138.64,124.22 L139.63,124.05 L140.62,123.89 L141.61,123.73 L142.6,123.57 L143.59,123.41 L144.58,123.24 L145.56,123.05 L146.54,122.84 L147.51,122.61 L148.47,122.35 L149.42,122.05 L150.36,121.71 L151.28,121.33 L152.18,120.9 L153.06,120.42 L153.91,119.89 L154.73,119.31 L155.51,118.68 L156.24,118 L156.92,117.27 L157.55,116.49 L158.11,115.66 L158.61,114.79 L159.04,113.89 L159.4,112.96 L159.68,112 L159.88,111.02 L160,110.03 L160.04,109.03 L159.99,108.03 L159.86,107.04 L159.65,106.06 L159.35,105.11 L158.97,104.19 L158.51,103.3 L157.97,102.46 L157.36,101.67 L156.68,100.94 L155.93,100.27 L155.13,99.68 L154.28,99.16 L153.38,98.72 L152.45,98.36 L151.49,98.09 L150.51,97.9 L149.52,97.79 L148.52,97.76 L147.52,97.81 L146.53,97.94 L145.55,98.14 L144.59,98.4 L143.64,98.73 L142.72,99.11 L141.82,99.54 L140.94,100.01 L140.08,100.52 L139.24,101.06 L138.42,101.63 L137.62,102.22 L136.83,102.83 L136.05,103.45 L135.28,104.08 L134.51,104.72 L133.74,105.36 L132.97,105.99 L132.19,106.61 L131.4,107.22 L130.6,107.82 L129.78,108.4 L128.95,108.96 L128.1,109.49 L127.23,109.99 L126.35,110.46 L125.45,110.9 L124.53,111.3 L123.6,111.66 L122.65,111.98 L121.69,112.26 L120.72,112.5 L119.74,112.71 L118.9945,112.83801 M119.95,137.94 L119.88,136.94 L119.81,135.94 L119.74,134.94 L119.68,133.94 L119.63,132.94 L119.59,131.94 L119.57,130.94 L119.56,129.94 L119.57,128.94 L119.61,127.94 L119.68,126.94 L119.78,125.95 L119.92,124.96 L120.1,123.98 L120.32,123 L120.59,122.04 L120.9,121.09 L121.26,120.16 L121.68,119.25 L122.15,118.37 L122.67,117.52 L123.24,116.7 L123.86,115.92 L124.53,115.18 L125.24,114.48 L126,113.82 L126.79,113.21 L127.62,112.65 L128.48,112.14 L129.37,111.68 L130.28,111.27 L131.21,110.91 L132.16,110.59 L133.12,110.31 L134.09,110.07 L135.07,109.87 L136.06,109.7 L137.05,109.55 L138.04,109.43 L139.03,109.32 L140.03,109.22 L141.03,109.13 L142.03,109.04 L143.03,108.95 L144.02,108.85 L145.01,108.73 L146,108.59 L146.99,108.42 L147.97,108.22 L148.94,107.98 L149.9,107.7 L150.85,107.38 L151.78,107.01 L152.69,106.59 L153.57,106.12 L154.42,105.59 L155.23,105.01 L156,104.37 L156.72,103.68 L157.39,102.94 L157.86531,102.324425 M105.74,129.78 L105.71,128.78 L105.68,127.78 L105.66,126.78 L105.65,125.78 L105.65,124.78 L105.66,123.78 L105.68,122.78 L105.72,121.78 L105.78,120.78 L105.87,119.78 L105.99,118.79 L106.14,117.8 L106.33,116.82 L106.56,115.85 L106.83,114.89 L107.15,113.94 L107.51,113.01 L107.92,112.1 L108.38,111.21 L108.9,110.35 L109.47,109.53 L110.09,108.74 L110.75,107.99 L111.46,107.29 L112.21,106.63 L113,106.02 L113.83,105.46 L114.69,104.95 L115.58,104.5 L115.85232,104.3816 M85.92,141.68 L84.93,141.54 L83.94,141.39 L82.95,141.24 L81.96,141.08 L80.97,140.91 L79.99,140.73 L79.01,140.53 L78.03,140.31 L77.06,140.07 L76.1,139.8 L75.15,139.5 L74.21,139.17 L73.28,138.8 L72.37,138.39 L71.48,137.94 L70.61,137.44 L69.77,136.89 L68.96,136.3 L68.19,135.66 L67.46,134.97 L66.78,134.24 L66.15,133.47 L65.57,132.66 L65.04,131.81 L64.57,130.93 L64.16,130.02 L63.81,129.08 L63.52,128.12 L63.29,127.15 L63.12,126.16 L63.01,125.17 L62.95,124.17 L62.94,123.17 L62.98,122.17 L63.06,121.17 L63.18,120.18 L63.33,119.19 L63.51,118.21 L63.71,117.23 L63.93,116.25 L64.16,115.28 L64.4,114.31 L64.64,113.34 L64.87,112.37 L65.09,111.39 L65.29,110.41 L65.47,109.43 L65.63,108.44 L65.75,107.45 L65.83,106.45 L65.87,105.45 L65.86,104.45 L65.8,103.45 L65.68,102.46 L65.5,101.48 L65.26,100.51 L64.95,99.56 L64.57,98.63 L64.13,97.73 L63.62,96.87 L63.04,96.05 L62.4,95.28 L61.7,94.57 L60.94,93.92 L60.13,93.33 L59.27,92.82 L58.371864,92.38091 M125.5,151.98 L125.7,151 L125.91,150.02 L126.13,149.04 L126.36,148.07 L126.6,147.1 L126.85,146.13 L127.12,145.17 L127.41,144.21 L127.72,143.26 L128.06,142.32 L128.43,141.39 L128.83,140.47 L129.27,139.57 L129.75,138.69 L130.27,137.84 L130.83,137.01 L131.44,136.22 L132.09,135.46 L132.79,134.75 L133.53,134.08 L134.31,133.46 L135.13,132.89 L135.99,132.38 L136.88,131.93 L137.8,131.54 L138.75,131.21 L139.71,130.95 L140.69,130.75 L141.68,130.61 L142.68,130.53 L143.68,130.51 L144.68,130.54 L145.68,130.63 L146.67,130.76 L147.65,130.94 L148.63,131.15 L149.6,131.4 L150.56,131.67 L151.51,131.97 L152.46,132.28 L153.41,132.61 L154.35,132.94 L155.29,133.27 L156.23,133.6 L157.18,133.92 L158.13,134.22 L159.09,134.5 L160.06,134.75 L161.04,134.97 L162.02,135.15 L163.01,135.29 L164.01,135.38 L165.01,135.41 L166.01,135.39 L167.01,135.3 L168,135.15 L168.98,134.93 L169.94,134.64 L170.87,134.28 L171.77,133.85 L172.63,133.35 L173.45,132.78 L174.22,132.14 L174.94,131.44 L175.59,130.68 L176.18,129.87 L176.69,129.01 L177.13,128.11 L177.49,127.18 L177.76,126.22 L177.94,125.24 L178.03,124.24 L178.03,123.24 L177.93,122.24 L177.74,121.26 L177.45,120.3 L177.07,119.38 L176.59,118.5 L176.03,117.67 L175.39,116.91 L174.67,116.22 L173.88,115.6 L173.03,115.07 L172.13,114.62 L171.19,114.27 L170.22,114.01 L169.23,113.84 L168.23,113.76 L167.23,113.77 L166.23,113.87 L165.25,114.05 L164.28,114.31 L163.34,114.64 L162.42,115.03 L161.53,115.48 L160.66,115.98 L159.82,116.53 L159.01,117.12 L158.22,117.74 L157.46,118.39 L156.72,119.06 L155.99,119.75 L155.28,120.45 L154.57,121.16 L153.87,121.87 L153.17,122.58 L152.47,123.29 L151.76,124 L151.04,124.7 L150.31,125.39 L149.57,126.06 L148.81,126.71 L148.04,127.34 L147.25,127.95 L146.44,128.54 L145.61,129.1 L144.76,129.63 L143.9,130.13 L143.02,130.6 L142.12,131.04 L141.21,131.46 L140.29,131.85 L139.36,132.21 L138.42,132.55 L137.47,132.86 L136.51,133.15 L135.55,133.43 L134.59,133.69 L133.62,133.94 L132.65,134.18 L131.68,134.42 L130.71,134.66 L129.74,134.89 L128.77,135.12 L127.8,135.35 L126.83,135.58 L125.86,135.82 L124.89,136.06 L123.92,136.31 L122.95,136.57 L122.27558,136.75967 M120.51,134.09 L120.76,133.12 L121.02,132.15 L121.29,131.19 L121.57,130.23 L121.86,129.27 L122.16,128.32 L122.48,127.37 L122.82,126.43 L123.18,125.5 L123.57,124.58 L123.99,123.67 L124.44,122.78 L124.93,121.91 L125.46,121.06 L126.03,120.24 L126.64,119.45 L127.3,118.7 L128,117.99 L128.74,117.32 L129.52,116.7 L130.34,116.13 L131.2,115.62 L132.09,115.17 L133.01,114.78 L133.96,114.45 L134.93,114.19 L135.91,113.99 L136.9,113.86 L137.9,113.79 L138.9,113.78 L139.9,113.83 L140.89,113.94 L141.88,114.1 L142.86,114.31 L143.83,114.56 L144.79,114.85 L145.74,115.17 L146.68,115.52 L147.61,115.89 L148.53,116.28 L149.45,116.68 L150.37,117.08 L151.29,117.48 L152.21,117.88 L153.13,118.27 L154.06,118.64 L155,118.99 L155.08905,119.02 M91.93,165.8 L91.61,166.75 L91.29,167.7 L90.96,168.64 L90.62,169.58 L90.27,170.52 L89.9,171.45 L89.51,172.37 L89.1,173.28 L88.67,174.18 L88.21,175.07 L87.72,175.94 L87.2,176.79 L86.64,177.62 L86.05,178.42 L85.42,179.19 L84.74,179.93 L84.02,180.63 L83.26,181.28 L82.46,181.88 L81.63,182.43 L80.76,182.92 L79.86,183.35 L78.93,183.72 L77.98,184.02 L77.01,184.26 L76.02,184.43 L75.03,184.53 L74.03,184.57 L73.03,184.54 L72.03,184.45 L71.04,184.3 L70.06,184.09 L69.09,183.83 L68.14,183.53 L67.2,183.18 L66.28,182.8 L65.37,182.39 L64.47,181.95 L63.58,181.49 L62.7,181.01 L61.83,180.52 L60.96,180.03 L60.09,179.53 L59.22,179.04 L58.34,178.56 L57.45,178.09 L56.55,177.65 L55.64,177.23 L54.72,176.84 L53.78,176.49 L52.83,176.18 L51.86,175.92 L50.88,175.72 L49.89,175.57 L48.89,175.49 L47.89,175.47 L46.89,175.52 L45.9,175.65 L44.92,175.85 L43.96,176.13 L43.03,176.49 L42.13,176.92 L41.5223,177.28038 M128.34,149.3 L128.88,148.46 L129.43,147.62 L129.99,146.79 L130.56,145.97 L131.14,145.16 L131.74,144.36 L132.35,143.57 L132.98,142.8 L133.64,142.05 L134.32,141.32 L135.03,140.62 L135.77,139.95 L136.54,139.31 L137.34,138.71 L138.17,138.16 L139.03,137.66 L139.92,137.21 L140.84,136.82 L141.78,136.49 L142.75,136.23 L143.73,136.04 L144.72,135.92 L145.72,135.87 L146.72,135.9 L147.71,136 L148.69,136.17 L149.66,136.41 L150.61,136.72 L151.54,137.1 L152.44,137.54 L153.31,138.03 L154.15,138.57 L154.96,139.16 L155.74,139.79 L156.49,140.45 L157.21,141.14 L157.9,141.86 L158.57,142.6 L159.22,143.36 L159.86,144.13 L160.49,144.91 L161.11,145.69 L161.73,146.47 L162.36,147.25 L163,148.02 L163.65,148.78 L164.32,149.52 L165.01,150.24 L165.73,150.94 L166.48,151.6 L167.26,152.23 L168.07,152.82 L168.91,153.36 L169.78,153.85 L170.68,154.28 L171.61,154.64 L172.57,154.93 L173.55,155.15 L174.54,155.29 L175.54,155.35 L176.54,155.33 L177.53,155.22 L178.51,155.03 L179.47,154.75 L180.4,154.39 L181.29,153.94 L182.14,153.41 L182.94,152.81 L183.68,152.14 L184.35,151.4 L184.95,150.6 L185.47,149.75 L185.9,148.85 L186.24,147.91 L186.48,146.94 L186.61,145.95 L186.63,144.95 L186.54,143.95 L186.34,142.97 L186.03,142.02 L185.61,141.11 L185.08,140.26 L184.46,139.48 L183.75,138.78 L182.96,138.16 L182.11,137.64 L181.2,137.22 L180.25,136.9 L179.27,136.69 L178.28,136.59 L177.28,136.59 L176.28,136.69 L175.3,136.88 L174.34,137.16 L173.41,137.52 L172.51,137.96 L171.65,138.46 L170.82,139.02 L170.03,139.63 L169.28,140.29 L168.56,140.99 L167.88,141.72 L167.22,142.48 L166.59,143.26 L165.98,144.05 L165.39,144.86 L164.81,145.67 L164.24,146.49 L163.67,147.31 L163.1,148.13 L162.53,148.95 L161.95,149.76 L161.36,150.57 L160.75,151.37 L160.13,152.15 L159.49,152.92 L158.83,153.67 L158.15,154.41 L157.45,155.13 L156.73,155.83 L156,156.51 L155.25,157.17 L154.48,157.81 L153.7,158.43 L152.9,159.03 L152.09,159.62 L151.27,160.19 L150.44,160.75 L149.61,161.3 L148.77,161.84 L147.93,162.38 L147.08,162.91 L146.23,163.44 L145.38,163.97 L144.53,164.49 L143.68,165.01 L142.83,165.53 L141.98,166.05 L141.13,166.58 L140.28,167.11 L139.44,167.65 L138.61,168.2 L137.79,168.77 L136.98,169.35 L136.18,169.95 L135.4,170.57 L134.64,171.22 L133.9,171.89 L133.18,172.59 L132.49,173.31 L131.83,174.06 L131.2,174.83 L130.6,175.63 L130.03,176.45 L129.49,177.29 L128.98,178.15 L128.5,179.03 L128.05,179.92 L127.62,180.82 L127.22,181.74 L126.84,182.66 L126.47,183.59 L126.11,184.52 L125.76,185.46 L125.41,186.4 L125.06,187.34 L124.7,188.27 L124.32,189.2 L123.92,190.12 L123.49,191.02 L123.02,191.9 L122.51,192.76 L121.96,193.59 L121.36,194.39 L120.71,195.15 L120,195.86 L119.24,196.51 L118.42,197.09 L117.55,197.59 L116.64,198 L115.69,198.31 L114.71,198.51 L113.71,198.6 L112.71,198.57 L112.679405,198.56505 M122.35,166.99 L123.14,166.38 L123.94,165.78 L124.75,165.19 L125.57,164.62 L126.4,164.06 L127.24,163.52 L128.1,163.01 L128.97,162.52 L129.86,162.06 L130.77,161.64 L131.69,161.26 L132.63,160.92 L133.59,160.63 L134.56,160.4 L135.55,160.23 L136.54,160.12 L137.54,160.08 L138.54,160.11 L139.53,160.22 L140.51,160.4 L141.48,160.66 L142.42,160.99 L143.33,161.4 L144.21,161.88 L145.05,162.43 L145.84,163.04 L146.26067,163.42088 M128.39,160.3 L127.91,159.42 L127.45,158.53 L127,157.64 L126.57,156.74 L126.16,155.83 L125.77,154.91 L125.41,153.98 L125.08,153.04 L124.79,152.08 L124.54,151.11 L124.33,150.13 L124.17,149.14 L124.07,148.15 L124.03,147.15 L124.05,146.15 L124.14,145.15 L124.3,144.16 L124.53,143.19 L124.84,142.24 L125.22,141.32 L125.68,140.43 L126.21,139.58 L126.81,138.78 L127.47,138.03 L128.19,137.34 L128.96,136.71 L129.78,136.14 L130.64,135.64 L131.54,135.2 L132.47,134.83 L132.83217,134.71182 M79.13,159.68 L78.13,159.77 L77.13,159.84 L76.13,159.89 L75.13,159.91 L74.13,159.9 L73.13,159.86 L72.13,159.78 L71.14,159.66 L70.15,159.5 L69.17,159.29 L68.21,159.03 L67.26,158.71 L66.34,158.33 L65.44,157.89 L64.58,157.38 L63.76,156.81 L62.99,156.18 L62.27,155.48 L61.61,154.73 L61.02,153.92 L60.51,153.06 L60.07,152.16 L59.72,151.22 L59.45,150.26 L59.27,149.28 L59.1863,148.35 M131.72,157.76 L131.65,156.76 L131.6,155.76 L131.57,154.76 L131.57,153.76 L131.6,152.76 L131.66,151.76 L131.76,150.76 L131.9,149.77 L132.09,148.79 L132.32,147.82 L132.61,146.86 L132.95,145.92 L133.35,145 L133.81,144.11 L134.34,143.26 L134.93,142.45 L135.58,141.69 L136.29,140.99 L137.06,140.35 L137.88,139.78 L138.75,139.29 L139.66,138.88 L140.61,138.56 L141.58,138.32 L142.57,138.17 L143.57,138.11 L144.57,138.13 L145.56,138.24 L146.54,138.43 L147.5,138.69 L148.44,139.02 L149.36,139.42 L150.25,139.88 L151.11,140.39 L151.94,140.94 L152.75,141.53 L153.53,142.15 L154.29,142.8 L155.04,143.47 L155.77,144.15 L156.49,144.84 L157.21,145.53 L157.93,146.22 L158.66,146.9 L159.4,147.57 L160.16,148.22 L160.94,148.85 L161.74,149.44 L162.03609,149.63977 M76.7,143.98 L77.7,143.99 L78.7,144.02 L79.7,144.08 L80.7,144.17 L81.69,144.29 L82.68,144.44 L83.66,144.63 L84.63,144.86 L85.59,145.14 L86.54,145.47 L87.47,145.85 L88.37,146.28 L89.24,146.77 L90.07,147.32 L90.86,147.93 L91.6,148.6 L92.28,149.33 L92.9,150.12 L93.45,150.96 L93.92,151.84 L94.31,152.76 L94.61,153.71 L94.82,154.69 L94.94,155.68 L94.947876,155.9426 M77.22,137.57 L76.26,137.3 L75.31,137 L74.36,136.67 L73.43,136.31 L72.51,135.92 L71.61,135.49 L70.72,135.02 L69.86,134.51 L69.03,133.96 L68.23,133.36 L67.47,132.71 L66.75,132.01 L66.09,131.26 L65.48,130.46 L64.94,129.62 L64.47,128.74 L64.08,127.82 L63.78,126.87 L63.57,125.89 L63.45,124.9 L63.43,123.9 L63.51,122.9 L63.68,121.92 L63.95,120.96 L64.31,120.03 L64.76,119.13 L65.29,118.28 L65.89,117.48 L66.56,116.73 L67.28,116.04 L68.06,115.41 L68.88,114.84 L69.74,114.32 L70.63,113.85 L71.54,113.43 L72.47,113.06 L73.41,112.72 L74.36,112.42 L75.32,112.14 L76.28,111.88 L77.25,111.63 L78.22,111.38 L79.19,111.12 L80.15,110.85 L81.11,110.56 L82.06,110.24 L83,109.89 L83.92,109.5 L84.82,109.06 L85.69,108.57 L86.53,108.03 L87.33,107.44 L88.09,106.79 L88.8,106.08 L89.44,105.32 L90.02,104.5 L90.52,103.63 L90.94,102.72 L91.27,101.78 L91.51,100.81 L91.65,99.82 L91.69,98.82 L91.63,97.82 L91.47,96.83 L91.21,95.86 L90.86,94.92 L90.41,94.03 L89.87,93.19 L89.25,92.41 L88.55,91.7 L87.77,91.07 L86.93,90.53 L86.03,90.1 L85.08,89.78 L84.1,89.59 L83.1,89.54 L82.1,89.63 L81.13,89.86 L80.2,90.24 L79.35,90.76 L78.59,91.41 L77.95,92.18 L77.45,93.05 L77.11,93.99 L76.94,94.98 L76.95,95.98 L77.14,96.96 L77.51,97.89 L78.04,98.74 L78.71,99.48 L79.5,100.09 L80.39,100.55 L81.34,100.85 L82.33,100.99 L83.33,100.96 L84.31,100.77 L85.25,100.44 L86.13,99.97 L86.94,99.38 L87.66,98.69 L88.29,97.91 L88.82,97.06 L89.26,96.16 L89.6,95.22 L89.85,94.25 L90.02,93.27 L90.12,92.27 L90.15,91.27 L90.12,90.27 L90.04,89.27 L89.92,88.28 L89.77,87.29 L89.6,86.31 L89.41,85.33 L89.21,84.35 L89,83.37 L88.93838,83.08243 M134.61,154.5 L134.95,153.56 L135.32,152.63 L135.72,151.72 L136.15,150.82 L136.62,149.94 L137.12,149.08 L137.66,148.24 L138.24,147.43 L138.87,146.65 L139.54,145.91 L140.26,145.21 L141.02,144.57 L141.83,143.98 L142.68,143.46 L143.57,143.01 L144.5,142.64 L145.46,142.36 L146.44,142.17 L147.43,142.07 L148.43,142.07 L149.43,142.16 L150.41,142.35 L151.37,142.64 L152.29,143.02 L153.17,143.49 L154,144.04 L154.78,144.67 L155.5,145.37 L156.15,146.13 L156.74,146.94 L157.27,147.79 L157.73,148.68 L158.13,149.6 L158.48,150.54 L158.77,151.5 L159.02,152.47 L159.18958,153.26138 M127.98,128.47 L128.38,127.55 L128.81,126.65 L129.27,125.76 L129.76,124.89 L130.28,124.04 L130.84,123.21 L131.44,122.41 L132.08,121.64 L132.76,120.91 L133.48,120.22 L134.25,119.58 L135.06,118.99 L135.91,118.47 L136.8,118.02 L137.73,117.64 L138.69,117.35 L139.67,117.14 L140.66,117.03 L141.66,117.01 L142.66,117.09 L143.64,117.27 L144.6,117.55 L145.53,117.92 L146.42,118.38 L147.26,118.93 L148.04,119.56 L148.76,120.26 L149.41,121.02 L149.99,121.83 L149.99675,121.841385 M136.97,150.61 L137.66,149.88 L138.37,149.18 L139.11,148.51 L139.88,147.87 L140.68,147.27 L141.51,146.71 L142.37,146.2 L143.26,145.74 L144.18,145.34 L145.12,145 L146.08,144.73 L147.06,144.54 L148.05,144.44 L149.05,144.42 L150.05,144.5 L151.03,144.67 L151.99,144.94 L152.92,145.31 L153.8,145.78 L154.63,146.34 L155.39,146.98 L156.08,147.7 L156.69,148.49 L157.21,149.34 L157.64,150.24 L157.97,151.18 L158.2,152.15 L158.34,153.14 L158.39,154.14 L158.38963,154.14923 M88.09,176.4 L88.73,177.17 L89.33,177.97 L89.9,178.79 L90.43,179.64 L90.91,180.52 L91.35,181.42 L91.73,182.34 L92.05,183.29 L92.31,184.26 L92.5,185.24 L92.61,186.23 L92.63,187.23 L92.57,188.23 L92.41,189.22 L92.16,190.19 L91.81,191.13 L91.37,192.03 L90.83,192.87 L90.2,193.65 L89.49,194.36 L88.71,194.98 L87.86,195.51 L86.96,195.94 L86.02,196.27 L85.05,196.5 L84.06,196.62 L83.06,196.64 L82.06,196.56 L81.07,196.39 L80.1,196.13 L79.16,195.79 L78.25,195.38 L77.37,194.91 L76.52,194.38 L75.7,193.81 L74.91,193.2 L74.14,192.56 L73.4,191.89 L72.67,191.21 L71.95,190.52 L71.23,189.82 L70.51,189.12 L69.78,188.43 L69.04,187.76 L68.28,187.11 L67.5,186.49 L66.69,185.91 L65.85,185.37 L64.98,184.88 L64.08,184.45 L63.15,184.09 L62.19,183.8 L61.21,183.59 L60.22,183.47 L59.22,183.44 L58.22,183.51 L57.23,183.68 L56.27,183.95 L55.34,184.32 L54.45,184.78 L53.62,185.34 L52.85,185.98 L52.16,186.7 L51.55,187.49 L51.03,188.34 L50.6,189.24 L50.27,190.19 L50.05,191.17 L49.973145,191.86171 M139.4,153.65 L139.66,154.62 L139.86,155.6 L140.01,156.59 L140.1,157.59 L140.12,158.59 L140.07,159.59 L139.95,160.58 L139.76,161.56 L139.48,162.52 L139.12,163.45 L138.67,164.35 L138.14,165.2 L137.52,165.99 L136.82,166.71 L136.05,167.34 L135.21,167.88 L134.31,168.31 L133.36,168.63 L132.38,168.83 L131.38,168.91 L130.38,168.86 L129.39,168.69 L128.43,168.4 L127.52,168 L126.66,167.49 L125.86,166.88 L125.14,166.19 L124.49,165.43 L124.4671,165.39606 M139.69,141.41 L140.68,141.25 L141.68,141.15 L142.68,141.12 L143.68,141.15 L144.68,141.25 L145.67,141.42 L146.64,141.67 L147.59,142 L148.5,142.41 L149.37,142.9 L150.19,143.47 L150.95,144.13 L151.63,144.86 L152.22,145.67 L152.71,146.54 L153.1,147.46 L153.37,148.42 L153.51,149.41 L153.53,150.41 L153.42,151.4 L153.18,152.37 L152.82,153.3 L152.34,154.18 L151.76,154.99 L151.08,155.73 L150.32,156.38 L149.49,156.94 L148.61,157.41 L147.68,157.78 L146.72,158.06 L145.74,158.25 L144.75,158.36 L143.75,158.4 L142.75,158.38 L141.75,158.3 L140.76,158.17 L139.77,158.01 L138.79,157.82 L137.81,157.61 L136.83,157.4 L135.85,157.19 L134.87,156.99 L133.89,156.81 L132.9,156.67 L131.91,156.57 L130.91,156.52 L129.91,156.53 L128.91,156.6 L127.92,156.75 L126.95,156.98 L126.72045,157.0549 M87.51,180.99 L87.56,179.99 L87.69,179 L87.89,178.02 L88.16,177.06 L88.51,176.12 L88.93,175.21 L89.43,174.34 L90.01,173.53 L90.67,172.78 L91.4,172.1 L92.2,171.51 L93.07,171.01 L93.99,170.62 L94.95,170.35 L95.94,170.21 L96.94,170.2 L97.93,170.32 L98.9,170.58 L99.82,170.97 L100.68,171.48 L101.46,172.11 L102.14,172.84 L102.72,173.66 L103.18,174.55 L103.53,175.49 L103.75,176.46 L103.86,177.45 L103.85,178.45 L103.73,179.44 L103.52,180.42 L103.22,181.37 L102.84,182.29 L102.43,183.2 L101.99,184.1 L101.53,184.99 L101.04,185.86 L100.52,186.72 L99.98,187.56 L99.41,188.38 L98.82,189.19 L98.2,189.98 L97.58,190.76 L96.98,191.56 L96.41,192.38 L95.88,193.23 L95.41,194.11 L95,195.02 L94.66,195.96 L94.4,196.93 L94.36746,197.11949 M72.49,166.7 L72.4,167.7 L72.23,168.69 L71.99,169.66 L71.67,170.61 L71.28,171.53 L70.81,172.41 L70.26,173.25 L69.63,174.03 L68.93,174.74 L68.15,175.37 L67.31,175.91 L66.41,176.34 L65.46,176.66 L64.48,176.85 L63.48,176.91 L62.48,176.84 L61.5,176.63 L60.56,176.29 L59.68,175.82 L58.88,175.23 L58.17,174.53 L57.56,173.74 L57.07,172.87 L56.7,171.94 L56.46,170.97 L56.34,169.98 L56.34,168.98 L56.46,167.99 L56.69,167.02 L57.01,166.07 L57.42,165.16 L57.88,164.27 L58.36,163.39 L58.87,162.53 L59.4,161.68 L59.96,160.85 L60.54,160.04 L61.15,159.25 L61.75047,158.5161 M67.88,138.12 L67.69,139.1 L67.42,140.06 L67.07,141 L66.64,141.9 L66.12,142.76 L65.52,143.56 L64.85,144.3 L64.1,144.96 L63.28,145.53 L62.4,146 L61.47,146.36 L60.5,146.59 L59.51,146.69 L58.51,146.65 L57.53,146.47 L56.58,146.15 L55.69,145.69 L54.88,145.1 L54.17,144.4 L53.57,143.6 L53.1,142.72 L52.77,141.78 L52.58,140.8 L52.53,139.8 L52.62,138.8 L52.84,137.83 L53.18,136.89 L53.63,136 L54.18,135.17 L54.82,134.4 L55.48,133.65 L56.17,132.92 L56.88,132.22 L57.61,131.54 L58.36,130.88 L59.13,130.25 L59.92,129.64 L60.73,129.06 L61.56,128.5 L62.41,127.97 L63.27,127.47 L63.354897,127.42369 M70.18,129.97 L70.4,128.99 L70.7,128.04 L71.09,127.12 L71.56,126.24 L72.12,125.41 L72.76,124.64 L73.48,123.95 L74.28,123.35 L75.14,122.85 L76.06,122.46 L77.02,122.2 L78.01,122.07 L79.01,122.08 L80,122.24 L80.95,122.55 L81.84,123 L82.65,123.58 L83.36,124.29 L83.95,125.1 L84.4,125.99 L84.71,126.94 L84.87,127.93 L84.88,128.93 L84.74,129.92 L84.46,130.88 L84.05,131.79 L83.52,132.64 L82.89,133.42 L82.18,134.12 L81.4,134.74 L80.6,135.34 L79.78,135.91 L78.94,136.45 L78.08,136.97 L77.21,137.46 L76.32,137.92 L75.42,138.35 L74.5,138.75 L73.82716,139.01768 M85.4,113.88 L85.19,114.86 L84.89,115.81 L84.5,116.73 L84.02,117.61 L83.45,118.43 L82.8,119.19 L82.07,119.87 L81.26,120.46 L80.38,120.94 L79.45,121.31 L78.48,121.55 L77.48,121.65 L76.48,121.6 L75.5,121.4 L74.56,121.05 L73.69,120.56 L72.91,119.94 L72.24,119.2 L71.69,118.36 L71.28,117.45 L71.03,116.48 L70.93,115.48 L70.99,114.48 L71.16937,113.60106 M130.51,179.39 L130.76,178.42 L131.11,177.48 L131.55,176.58 L132.09,175.74 L132.72,174.96 L133.43,174.26 L134.22,173.65 L135.08,173.13 L135.99,172.72 L136.94,172.42 L137.92,172.24 L138.92,172.19 L139.92,172.28 L140.9,172.5 L141.83,172.86 L142.7,173.35 L143.49,173.97 L144.17,174.71 L144.72,175.55 L145.12,176.47 L145.36,177.44 L145.45,178.44 L145.38,179.44 L145.16,180.42 L144.8,181.35 L144.31,182.22 L143.71,183.02 L143.01,183.73 L142.22,184.35 L141.37,184.87 L140.48,185.33 L139.57,185.75 L138.65,186.14 L137.72,186.5 L136.77,186.83 L135.82,187.13 L134.86,187.4 L133.89,187.64 L132.91,187.84 L131.92,188.01 L130.93,188.13 L129.94,188.26 L128.95,188.43 L127.98,188.66 L127.03,188.96 L126.11,189.34 L125.23,189.82 L124.41,190.39 L123.67,191.06 L123.15773,191.64214 M135.42,176.65 L135.8,175.72 L136.29,174.85 L136.9,174.06 L137.63,173.38 L138.47,172.83 L139.38,172.42 L140.34,172.14 L141.32,171.96 L142.32,171.87 L143.32,171.86 L144.32,171.93 L145.31,172.08 L146.28,172.31 L147.24,172.6 L148.17,172.96 L149.06,173.41 L149.88,173.98 L150.6,174.67 L151.18,175.48 L151.6,176.39 L151.85,177.36 L151.92,178.36 L151.82,179.36 L151.57,180.33 L151.17,181.25 L150.63,182.09 L149.96,182.83 L149.17,183.44 L148.29,183.91 L147.34,184.23 L146.35,184.4 L145.35,184.43 L144.35,184.35 L143.36,184.22 L142.55203,184.08942 M61.62,144.68 L61.98,143.75 L62.49,142.89 L63.16,142.15 L63.99,141.59 L64.93,141.24 L65.92,141.1 L66.92,141.11 L67.91,141.22 L68.9,141.38 L69.88,141.57 L70.86,141.79 L71.83,142.03 L72.8,142.27 L73.77,142.49 L74.75,142.7 L75.72,142.94 L76.66,143.27 L77.54,143.74 L78.31,144.38 L78.92,145.18 L79.34,146.09 L79.56,147.07 L79.59,148.07 L79.44,149.06 L79.13,150.01 L78.65,150.89 L78.01,151.66 L77.22,152.27 L76.32,152.7 L75.34,152.92 L74.34,152.94 L73.35,152.78 L72.78385,152.60121 M144.13,168.84 L144.45,167.89 L144.93,167.01 L145.59,166.26 L146.42,165.7 L147.36,165.37 L148.35,165.26 L149.35,165.31 L150.34,165.45 L151.32,165.63 L152.3,165.82 L153.28,166.03 L154.25,166.26 L155.23,166.47 L156.22,166.64 L157.21,166.77 L158.2,166.91 L159.17,167.13 L160.1,167.5 L160.93,168.06 L161.61,168.79 L162.1,169.66 L162.39,170.62 L162.49,171.62 L162.41,172.62 L162.15,173.59 L161.72,174.49 L161.12,175.29 L160.36,175.94 L159.47,176.39 L158.5,176.63 L157.5,176.66 L156.51,176.5 L155.56,176.19 L154.65,175.79 L153.76,175.34 L152.88,174.87 L152,174.4 L151.12,173.92 L150.25,173.42 L149.41,172.88 L148.6,172.3 L147.81,171.68 L147.02,171.07 L146.19,170.52 L145.28,170.11 L144.3,169.92 L143.3,170.02 L142.38,170.41 L141.6,171.04 L140.98,171.83 L140.51,172.71 L140.2,173.66 L140.11,174.66 L140.28,175.65 L140.73,176.54 L141.43,177.25 L142.31,177.73 L143.28,177.97 L144.28,178 L145.27,177.86 L146.23,177.58 L147.14,177.17 L147.96,176.6 L148.62,175.85 L149.05,174.95 L149.22,173.96 L149.18283,173.49538 M149.22,154.24 L148.95,155.2 L148.51,156.1 L147.88,156.87 L147.06,157.45 L146.12,157.78 L145.13,157.89 L144.13,157.83 L143.14,157.68 L142.16,157.5 L141.18,157.32 L140.2,157.13 L139.22,156.93 L138.23,156.76 L137.24,156.66 L136.24,156.61 L135.24,156.56 L134.25,156.44 L133.29,156.17 L132.41,155.7 L131.66,155.03 L131.09,154.21 L130.72,153.28 L130.55,152.29 L130.56,151.29 L130.75,150.31 L131.12,149.38 L131.68,148.55 L132.27927,147.99178 M63.2,165.98 L63.04,166.97 L62.69,167.91 L62.12,168.73 L61.34,169.35 L60.41,169.72 L59.42,169.85 L58.42,169.81 L57.43,169.69 L56.44,169.55 L55.45,169.41 L54.46,169.27 L53.47,169.14 L52.47,169.06 L51.47,169.07 L50.47,169.16 L49.48,169.27 L48.48,169.32 L47.49,169.22 L46.54,168.9 L45.7,168.36 L45.02,167.63 L44.53,166.76 L44.24,165.8 L44.14,164.81 L44.23,163.81 L44.51,162.85 L44.784958,162.33519 M75.05,184.73 L76.03,184.51 L77.03,184.51 L77.99,184.79 L78.8,185.37 L79.39,186.18 L79.74,187.12 L79.93,188.1 L80.04,189.09 L80.14,190.08 L80.27,191.07 L80.41,192.06 L80.57,193.05 L80.81,194.02 L81.17,194.95 L81.64,195.83 L82.16,196.68 L82.65,197.55 L83,198.49 L83.12,199.48 L82.97,200.47 L82.55,201.38 L81.91,202.15 L81.11,202.75 L80.2,203.16 L79.23,203.39 L78.23,203.42 L77.25,203.23 L76.34,202.82 L75.55,202.21 L74.93,201.42 L74.52,200.51 L74.31,199.53 L74.27,198.53 L74.36,197.53 L74.53,196.55 L74.75,195.57 L75,194.6 L75.28,193.64 L75.32125,193.51755 M66.2,121.77 L65.95,120.8 L65.92,119.8 L66.18,118.83 L66.74,118 L67.54,117.39 L68.47,117.02 L69.45,116.81 L70.44,116.68 L71.43,116.55 L72.42,116.4 L73.41,116.23 L74.39,116.04 L75.35,115.77 L76.27,115.38 L77.14,114.88 L77.97,114.33 L78.83,113.82 L79.76,113.44 L80.75,113.29 L81.74,113.41 L82.66,113.8 L83.44,114.42 L84.06,115.21 L84.49,116.11 L84.593155,116.51025 M58.94,136.59 L59.31,137.52 L59.46,138.51 L59.32,139.5 L58.86,140.39 L58.13,141.07 L57.24,141.53 L56.29,141.83 L55.32,142.06 L54.35,142.29 L53.38,142.54 L52.42,142.81 L51.46,143.1 L50.53,143.47 L49.66,143.97 L48.86,144.57 L48.1,145.22 L47.32,145.84 L46.45,146.34 L45.49,146.62 L44.49,146.62 L43.53,146.34 L42.68,145.81 L41.99,145.09 L41.47,144.24 L41.13,143.3 L40.99,142.31 L41.06,141.31 L41.35,140.35 L41.86,139.49 L42.56,138.78 L43.41,138.25 L44.35,137.91 L45.34,137.75 L46.34,137.72 L47.34,137.77 L48.33,137.88 L49.32,138.03 L50.3,138.21 L51.27,138.43 L52.23,138.7 L53.18,139.03 L54.11,139.39 L55.05,139.72 L56.03,139.93 L57.03,139.9 L57.96,139.54 L58.68,138.84 L59.06,137.91 L59.08,136.91 L58.82,135.95 L58.35,135.07 L57.7,134.31 L56.87,133.75 L55.9,133.5 L55.58578,133.53809 M122.02,193.77 L122.83,193.18 L123.76,192.81 L124.76,192.73 L125.72,193 L126.54,193.57 L127.17,194.34 L127.66,195.21 L128.08,196.12 L128.5,197.03 L128.95,197.92 L129.41,198.81 L129.89,199.69 L130.45,200.52 L131.12,201.26 L131.88,201.9 L132.69,202.49 L133.47,203.11 L134.15,203.84 L134.63,204.72 L134.84,205.7 L134.75,206.7 L134.39,207.63 L133.81,208.44 L133.06,209.1 L132.19,209.59 L131.24,209.9 L130.25,210.01 L129.26,209.9 L128.32,209.56 L127.49,209.01 L126.81,208.28 L126.29,207.42 L125.93,206.49 L125.7,205.52 L125.57,204.53 L125.5,203.53 L125.48,202.53 L125.5,201.53 L125.57,200.53 L125.68,199.54 L125.84,198.55 L126.03,197.57 L126.18,196.58 L126.19,195.58 L125.94,194.61 L125.37,193.79 L124.52,193.27 L123.53,193.15 L122.56,193.4 L121.71462,193.91718 M123.05,103.57 L123.65,104.37 L124.04,105.29 L124.14,106.29 L123.89,107.26 L123.33,108.09 L122.57,108.73 L121.7,109.23 L120.8,109.67 L119.9,110.11 L119.01,110.57 L118.13,111.05 L117.26,111.55 L116.44,112.12 L115.71,112.8 L115.08,113.57 L114.5,114.39 L113.89,115.18 L113.17,115.87 L112.3,116.36 L111.32,116.58 L110.32,116.51 L109.38,116.16 L108.56,115.59 L108.196495,115.188515 M128.45,192.12 L128.98,191.27 L129.7,190.58 L130.6,190.15 L131.6,190.06 L132.57,190.32 L133.43,190.83 L134.18,191.49 L134.89,192.2 L135.6,192.91 L136.32,193.6 L137.05,194.28 L137.8,194.95 L138.6,195.55 L139.48,196.03 L140.42,196.38 L141.38,196.67 L142.33,196.99 L143.21,197.46 L143.94,198.14 L144.44,199.01 L144.65,199.99 L144.56,200.99 L144.21,201.93 L143.66,202.76 L142.94,203.46 L142.1,204 L141.17,204.37 L140.18,204.54 L139.18,204.49 L138.22,204.21 L137.34,203.73 L136.58,203.08 L135.95,202.31 L135.43,201.46 L135,200.56 L134.65,199.62 L134.36,198.66 L134.11,197.69 L133.91,196.71 L133.75,195.72 L133.62,194.73 L133.5,193.74 L133.33,192.76 L133,191.82 L132.43,191 L131.6,190.45 L130.61,190.3 L129.65,190.58 L128.87,191.2 L128.31,192.03 L127.96,192.97 L127.84,193.96 L128.01,194.94 L128.52,195.8 L129.32,196.39 L130.29,196.62 L131.28,196.48 L132.18,196.05 L132.95,195.42 L133.6,194.66 L134.14,193.82 L134.56,192.91 L134.8,191.94 L134.76,190.94 L134.38,190.01 L133.69,189.29 L132.79,188.86 L131.8,188.72 L130.8,188.8 L129.83,189.03 L128.88,189.34 L127.96,189.74 L127.09,190.24 L126.3,190.85 L125.62,191.58 L125.08,192.42 L124.71,193.35 L124.70372,193.3824 M127.53,103.55 L126.57,103.27 L125.72,102.75 L125.08,101.98 L124.75,101.04 L124.76,100.04 L125.05,99.08 L125.5,98.19 L126.01,97.33 L126.52,96.47 L127.01,95.6 L127.5,94.73 L127.97,93.85 L128.37,92.93 L128.64,91.97 L128.77,90.98 L128.84,89.98 L128.95,88.99 L129.22,88.03 L129.73,87.17 L130.48,86.51 L131.4,86.12 L132.4,86.02 L133.38,86.19 L134.29,86.6 L135.1,87.19 L135.78,87.93 L136.3,88.78 L136.65,89.72 L136.79,90.71 L136.72,91.71 L136.43,92.67 L135.96,93.55 L135.35,94.34 L134.63,95.03 L133.84,95.64 L133,96.18 L132.12,96.66 L131.22,97.09 L130.3,97.48 L129.36,97.83 L128.42,98.16 L127.48,98.49 L126.56,98.88 L125.72,99.43 L125.07,100.19 L124.75,101.14 L124.86,102.13 L125.39,102.98 L126.2,103.56 L127.15,103.87 L128.15,103.94 L129.13,103.77 L130.02,103.31 L130.69,102.57 L131.01,101.62 L130.93,100.62 L130.49,99.72 L129.8,99 L128.96,98.46 L128.04,98.07 L127.07,97.81 L126.08,97.69 L125.08,97.77 L124.14,98.12 L123.38,98.77 L122.91,99.65 L122.79,100.64 L122.99,101.62 L123.42,102.52 L123.98,103.35 L124.62,104.11 L125.34,104.81 L126.13,105.42 L127,105.91 L127.94,106.26 L127.97769,106.26692 M57.97,166.44 L58.24,165.48 L58.75,164.62 L59.5,163.96 L60.44,163.61 L61.44,163.61 L62.4,163.88 L63.3,164.31 L64.17,164.81 L65.04,165.31 L65.92,165.79 L66.8,166.26 L67.69,166.72 L68.61,167.1 L69.58,167.35 L70.57,167.47 L71.57,167.52 L72.57,167.61 L73.54,167.87 L74.41,168.37 L75.08,169.11 L75.49,170.02 L75.6,171.01 L75.44,172 L75.05,172.92 L74.47,173.74 L73.74,174.43 L72.9,174.97 L71.97,175.33 L70.98,175.49 L69.98,175.43 L69.02,175.16 L68.64803,174.96774 M59.81,173.09 L59.67,172.1 L59.8,171.11 L60.25,170.22 L60.99,169.54 L61.91,169.16 L62.9,169.04 L63.9,169.1 L64.89,169.23 L65.88,169.36 L66.87,169.48 L67.86,169.6 L68.85,169.71 L69.85,169.75 L70.85,169.66 L71.83,169.44 L72.79,169.16 L73.76,168.93 L74.76,168.88 L75.74,169.1 L76.6,169.62 L77.24,170.39 L77.61,171.32 L77.71,172.32 L77.56,173.31 L77.2,174.24 L76.67,175.09 L76,175.83 L75.2,176.43 L74.3,176.87 L73.33,177.12 L72.33,177.17 L71.34,177.03 L70.39,176.73 L69.49,176.29 L68.65,175.75 L68.16088,175.3612 M76.5,105.54 L75.52,105.71 L74.52,105.61 L73.61,105.2 L72.91,104.49 L72.49,103.58 L72.33,102.59 L72.35,101.59 L72.44,100.59 L72.54,99.59 L72.62,98.59 L72.7,97.59 L72.78,96.59 L72.78,95.59 L72.66,94.6 L72.41,93.63 L72.1,92.68 L71.85,91.71 L71.77,90.71 L71.96,89.73 L72.45,88.86 L73.2,88.2 L74.12,87.8 L75.11,87.68 L76.1,87.81 L77.04,88.15 L77.9,88.66 L78.65,89.32 L79.27,90.1 L79.54839,90.63863 M138.57,190.17 L139.11,189.33 L139.86,188.67 L140.79,188.29 L141.79,188.27 L142.74,188.59 L143.59,189.12 L144.32,189.8 L144.98,190.55 L145.64,191.31 L146.3,192.07 L146.94,192.84 L147.57,193.62 L148.23,194.37 L148.97,195.05 L149.77,195.65 L150.59,196.22 L151.36,196.85 L151.99,197.62 L152.37,198.54 L152.42,199.54 L152.13,200.5 L151.54,201.31 L150.74,201.91 L149.81,202.28 L148.82,202.44 L147.82,202.42 L146.84,202.24 L145.9,201.91 L145.02,201.43 L144.24,200.8 L143.59,200.04 L143.08,199.18 L142.71,198.25 L142.48,197.28 L142.45522,197.05687 M64.53,113.18 L64.08,114.07 L63.4,114.8 L62.52,115.27 L61.53,115.39 L60.56,115.17 L59.66,114.73 L58.86,114.13 L58.12,113.45 L57.39,112.76 L56.66,112.07 L55.95,111.36 L55.26,110.64 L54.53,109.95 L53.74,109.34 L52.89,108.81 L52.03,108.3 L51.21,107.73 L50.52,107 L50.07,106.1 L49.95,105.11 L50.18,104.14 L50.71,103.29 L51.47,102.64 L52.37,102.21 L53.35,101.99 L54.35,101.95 L55.34,102.07 L56.3,102.34 L57.21,102.76 L58.03,103.33 L58.73,104.04 L59.3,104.86 L59.74,105.76 L60.05,106.71 L60.23,107.69 L60.29,108.69 L60.26,109.69 L60.16,110.69 L60.03,111.68 L59.89,112.67 L59.77,113.66 L59.7,114.66 L59.75,115.66 L60.01,116.62 L60.56,117.46 L61.39,118.02 L62.38,118.17 L63.34,117.88 L63.62583,117.642426 M81.27,197.02 L80.96,197.97 L80.4,198.8 L79.6,199.4 L78.64,199.67 L77.64,199.6 L76.68,199.31 L75.8,198.84 L74.97,198.29 L74.15,197.72 L73.33,197.15 L72.52,196.56 L71.73,195.95 L70.91,195.37 L70.04,194.87 L69.13,194.45 L68.21,194.05 L67.33,193.57 L66.57,192.92 L66.03,192.08 L65.81,191.11 L65.93,190.12 L66.37,189.22 L67.06,188.5 L67.92,187.99 L68.87,187.68 L68.935616,187.67072 M59.31,118.32 L59.42,119.31 L59.25,120.3 L58.77,121.17 L58.01,121.82 L57.07,122.17 L56.08,122.31 L55.08,122.25 L54.09,122.1 L53.11,121.92 L52.13,121.73 L51.16,121.5 L50.2,121.24 L49.23,121 L48.24,120.84 L47.24,120.75 L46.24,120.67 L45.26,120.49 L44.34,120.1 L43.58,119.45 L43.09,118.58 L42.94,117.59 L43.13,116.61 L43.61,115.73 L44.31,115.01 L45.15,114.47 L46.07,114.09 L47.04,113.86 L48.04,113.77 L49.04,113.83 L50.01,114.05 L50.93,114.44 L51.77,114.98 L52.52,115.64 L53.17,116.4 L53.71,117.24 L54.14,118.14 L54.48,119.08 L54.76,120.04 L55,121.01 L55.24,121.98 L55.51,122.94 L55.84,123.88 L56.29,124.77 L56.92,125.54 L57.76,126.08 L58.74,126.26 L59.71,126.01 L60.48,125.37 L60.95,124.49 L61.12,123.5 L61.02,122.51 L60.65,121.58 L60,120.82 L59.12,120.35 L58.12,120.27 L57.17,120.58 L56.39,121.2 L55.82,122.02 L55.46,122.95 L55.27,123.93 L55.23,124.93 L55.34,125.92 L55.65,126.87 L56.2,127.7 L57,128.3 L57.97,128.55 L58.96,128.41 L59.83,127.92 L60.51,127.18 L61,126.31 L61.32,125.36 L61.47,124.37 L61.45,123.37 L61.26,122.39 L60.91,121.45 L60.41,120.58 L59.77,119.81 L59,119.18 L58.11,118.72 L57.14,118.47 L56.14,118.45 L55.16,118.67 L54.26,119.1 L53.46,119.7 L52.79,120.44 L52.28,121.3 L51.94,122.24 L51.8,123.23 L51.87,124.23 L52.14,125.19 L52.6,126.08 L53.22,126.86 L54.01,127.47 L54.96,127.79 L55.96,127.73 L56.85,127.28 L57.51,126.53 L57.91,125.61 L58.12,124.63 L58.26,123.64 L58.42,122.65 L58.67,121.68 L59.09,120.77 L59.74,120.01 L60.61,119.52 L61.6,119.37 L62.58,119.55 L63.227493,119.866554 M158.38,132.48 L157.7,131.75 L157.25,130.86 L157.12,129.87 L157.34,128.89 L157.87,128.04 L158.57,127.33 L159.4,126.77 L160.28,126.29 L161.18,125.85 L162.09,125.43 L163.02,125.06 L163.97,124.74 L164.92,124.42 L165.85,124.05 L166.76,123.64 L167.68,123.25 L168.64,122.98 L169.64,122.94 L170.6,123.22 L171.4,123.82 L171.94,124.66 L172.15,125.64 L172.04,126.63 L171.66,127.55 L171.08,128.36 L170.36,129.05 L169.54,129.62 L168.65,130.07 L167.7,130.38 L166.71,130.53 L165.71,130.51 L164.73,130.33 L163.79,130 L162.91,129.53 L162.1,128.94 L161.37,128.25 L160.72,127.49 L160.13,126.68 L159.57,125.85 L159.01,125.02 L158.42,124.21 L157.77,123.45 L157.03,122.78 L156.16,122.29 L155.18,122.09 L154.19,122.26 L153.36,122.82 L152.82,123.66 L152.63,124.64 L152.76,125.63 L153.15,126.55 L153.78,127.33 L154.62,127.87 L155.6,128.06 L156.58,127.85 L157.41,127.29 L157.99,126.48 L158.32,125.53 L158.42,124.54 L158.34,123.54 L158.1,122.57 L157.71,121.65 L157.14,120.83 L156.38,120.19 L155.7795,119.95754 M101.94,205.49 L102.92,205.31 L103.92,205.41 L104.83,205.82 L105.55,206.51 L106.02,207.39 L106.27,208.36 L106.33,209.36 L106.29,210.36 L106.2,211.36 L106.05,212.35 L105.82,213.32 L105.51,214.27 L105.17,215.21 L104.84,216.15 L104.5,217.09 L104.1,218.01 L103.56,218.85 L102.82,219.52 L101.89,219.9 L100.89,219.91 L99.96,219.55 L99.22,218.88 L98.74,218 L98.54,217.02 L98.59,216.02 L98.84,215.05 L99.25,214.14 L99.79,213.3 L100.45,212.55 L101.23,211.92 L102.11,211.44 L103.06,211.11 L104.05,210.94 L105.05,210.93 L106.04,211.08 L107,211.36 L107.92,211.76 L108.8,212.23 L109.23063,212.48537 M121.79,203.45 L120.9,203.91 L119.92,204.11 L118.93,204 L118.03,203.57 L117.31,202.88 L116.77,202.04 L116.4,201.11 L116.13,200.15 L115.92,199.17 L115.77,198.18 L115.71,197.18 L115.74,196.18 L115.82,195.18 L115.91,194.18 L116.02,193.19 L116.21,192.21 L116.56,191.27 L117.15,190.47 L117.98,189.92 L118.96,189.72 L119.94,189.9 L120.79,190.42 L121.42,191.2 L121.78,192.13 L121.9,193.12 L121.84375,193.745 M110.49,90.89 L109.81,91.63 L108.96,92.16 L107.99,92.4 L106.99,92.31 L106.07,91.92 L105.27,91.32 L104.6,90.58 L104.01,89.77 L103.48,88.92 L103.01,88.04 L102.63,87.12 L102.35,86.16 L102.12,85.19 L101.92,84.21 L101.75,83.22 L101.68,82.22 L101.8,81.23 L102.19,80.31 L102.88,79.58 L103.79,79.17 L104.79,79.13 L105.73,79.46 L106.5,80.1 L107.04,80.94 L107.34,81.89 L107.43,82.89 L107.34,83.89 L107.09,84.86 L106.69,85.78 L106.13,86.61 L105.43,87.32 L104.61,87.89 L103.7,88.31 L102.74,88.58 L101.75,88.68 L100.75,88.63 L99.77,88.46 L98.81,88.19 L98.127,87.967125 M47.66,158.2 L47.17,159.07 L46.46,159.78 L45.57,160.24 L44.58,160.39 L43.59,160.23 L42.67,159.84 L41.84,159.29 L41.07,158.65 L40.35,157.95 L39.69,157.2 L39.11,156.38 L38.63,155.5 L38.21,154.59 L37.82,153.67 L37.48,152.73 L37.24,151.76 L37.2,150.76 L37.45,149.79 L38.02,148.97 L38.86,148.43 L39.84,148.25 L40.82,148.45 L41.67,148.98 L42.31,149.75 L42.73,150.66 L42.94,151.64 L42.96,152.64 L42.82,153.63 L42.51,154.58 L42.04,155.46 L41.41,156.23 L40.65,156.87 L39.78,157.37 L38.84,157.71 L37.86,157.89 L36.86,157.92 L35.87,157.82 L34.89,157.62 L33.92,157.37 L32.96,157.11 L31.99,156.87 L31.01,156.69 L30.01,156.63 L29.02,156.76 L28.09,157.14 L27.33,157.79 L26.83,158.66 L26.66,159.65 L26.81,160.64 L27.24,161.54 L27.88,162.3 L28.7,162.87 L29.66,163.16 L30.66,163.1 L31.57,162.69 L32.28,161.99 L32.73,161.1 L32.92,160.12 L32.88,159.12 L32.65,158.15 L32.25,157.23 L31.7,156.4 L30.98,155.7 L30.11,155.21 L29.13,155.02 L28.15,155.19 L27.3,155.72 L26.7,156.52 L26.4,157.47 L26.38,158.47 L26.6,159.45 L27.03,160.35 L27.65,161.14 L28.42,161.78 L29.3,162.26 L30.25,162.56 L31.24,162.67 L32.23,162.57 L33.18,162.24 L34.01,161.69 L34.67,160.94 L35.1,160.04 L35.28,159.06 L35.2,158.06 L34.87,157.12 L34.33,156.28 L33.62,155.58 L32.79,155.03 L31.87,154.63 L30.9,154.38 L29.91,154.27 L28.91,154.29 L27.93,154.48 L27.02,154.9 L26.27,155.56 L25.76,156.42 L25.51,157.39 L25.46,158.39 L25.52,159.39 L25.57,160.39 L25.52,161.39 L25.31,162.37 L24.89,163.28 L24.21,164.02 L23.32,164.48 L22.33,164.62 L21.34,164.45 L20.43,164.03 L19.64,163.42 L18.98,162.67 L18.49,161.8 L18.19,160.85 L18.09,159.86 L18.19,158.87 L18.53,157.93 L19.14,157.13 L20,156.62 L21,156.54 L21.92,156.93 L22.55,157.71 L22.76,158.69 L22.52,159.66 L21.91,160.46 L21.07,161 L20.11,161.27 L19.11,161.29 L18.14,161.06 L17.26,160.59 L16.55,159.89 L16.1,159 L15.98,158.01 L16.2,157.03 L16.68,156.15 L17.31,155.38 L18.02,154.68 L18.76,154.01 L19.52,153.36 L20.32,152.75 L21.18,152.25 L22.13,151.94 L23.13,151.91 L24.09,152.19 L24.9,152.77 L25.45,153.61 L25.64,154.59 L25.46,155.57 L24.95,156.43 L24.2,157.09 L23.3,157.52 L22.32,157.71 L21.32,157.67 L20.36,157.4 L19.48,156.92 L18.74,156.25 L18.18,155.42 L17.84,154.48 L17.74,153.49 L17.88,152.5 L18.24,151.57 L18.79,150.73 L19.48,150 L20.28,149.4 L21.17,148.95 L22.13,148.67 L23.12,148.57 L24.12,148.62 L25.1,148.79 L26.07,149.03 L27.03,149.3 L28,149.55 L28.98,149.76 L29.97,149.9 L30.97,149.95 L31.97,149.89 L32.96,149.74 L33.94,149.53 L34.92,149.31 L35.9,149.12 L36.89,148.97 L37.88,148.85 L38.87,148.73 L39.86,148.6 L40.84,148.42 L41.8,148.13 L42.69,147.67 L43.46,147.03 L44.05,146.22 L44.44,145.3 L44.65,144.32 L44.74,143.32 L44.77,142.32 L44.74,141.32 L44.63,140.33 L44.41,139.35 L44.07,138.41 L43.899567,138.07292 M153.87,180.1 L154.32,179.21 L155,178.47 L155.87,177.97 L156.85,177.78 L157.84,177.9 L158.78,178.25 L159.64,178.77 L160.43,179.38 L161.17,180.05 L161.86,180.78 L162.47,181.58 L162.98,182.44 L163.43,183.33 L163.85,184.24 L164.22,185.17 L164.48,186.13 L164.55,187.13 L164.33,188.1 L163.78,188.93 L162.95,189.49 L161.97,189.69 L160.99,189.51 L160.13,189 L159.47,188.25 L159.04,187.35 L158.81,186.38 L158.77,185.38 L158.9,184.39 L159.19,183.43 L159.65,182.54 L160.27,181.76 L161.03,181.1 L161.89,180.59 L162.82,180.23 L163.8,180.04 L164.8,180 L165.8,180.09 L166.78,180.28 L167.75,180.52 L168.72,180.78 L169.69,181.01 L170.68,181.18 L171.68,181.23 L172.67,181.1 L173.59,180.72 L174.35,180.07 L174.85,179.2 L175.02,178.21 L174.87,177.22 L174.44,176.32 L173.8,175.55 L172.98,174.98 L172.02,174.69 L171.02,174.74 L170.11,175.15 L169.4,175.85 L168.94,176.74 L168.74,177.72 L168.77,178.72 L168.99,179.69 L169.38,180.61 L169.93,181.44 L170.64,182.14 L171.51,182.63 L172.49,182.82 L173.48,182.65 L174.33,182.13 L174.93,181.33 L175.23,180.38 L175.26,179.38 L175.05,178.4 L174.62,177.5 L174,176.71 L173.23,176.07 L172.35,175.59 L171.4,175.29 L170.41,175.18 L169.41,175.28 L168.46,175.6 L167.63,176.15 L166.97,176.9 L166.53,177.8 L166.35,178.78 L166.43,179.78 L166.76,180.72 L167.3,181.56 L168.01,182.26 L168.85,182.81 L169.77,183.21 L170.74,183.46 L171.73,183.57 L172.73,183.55 L173.71,183.36 L174.62,182.95 L175.37,182.29 L175.89,181.44 L176.15,180.48 L176.21,179.48 L176.16,178.48 L176.12,177.48 L176.19,176.48 L176.41,175.5 L176.85,174.6 L177.54,173.87 L178.43,173.42 L179.42,173.3 L180.4,173.48 L181.3,173.91 L182.09,174.53 L182.74,175.29 L183.22,176.17 L183.51,177.13 L183.6,178.13 L183.49,179.12 L183.14,180.06 L182.52,180.85 L181.65,181.35 L180.65,181.42 L179.74,181.01 L179.12,180.22 L178.93,179.24 L179.18,178.27 L179.8,177.48 L180.65,176.95 L181.62,176.69 L182.62,176.68 L183.59,176.92 L184.47,177.39 L185.18,178.1 L185.63,178.99 L185.74,179.98 L185.52,180.96 L185.04,181.84 L184.41,182.61 L183.7,183.31 L182.96,183.98 L182.2,184.63 L181.4,185.23 L180.53,185.73 L179.58,186.04 L178.58,186.07 L177.62,185.8 L176.8,185.22 L176.25,184.39 L176.05,183.41 L176.22,182.43 L176.72,181.56 L177.46,180.89 L178.36,180.45 L179.34,180.25 L180.34,180.29 L181.3,180.56 L182.18,181.04 L182.92,181.71 L183.48,182.54 L183.83,183.48 L183.93,184.47 L183.79,185.46 L183.43,186.39 L182.88,187.23 L182.19,187.96 L181.39,188.56 L180.5,189.01 L179.54,189.29 L178.54,189.39 L177.54,189.33 L176.56,189.14 L175.59,188.88 L174.63,188.6 L173.67,188.33 L172.7,188.1 L171.71,187.94 L170.71,187.87 L169.71,187.91 L168.72,188.04 L167.74,188.22 L166.76,188.41 L165.77,188.57 L164.78,188.69 L163.78,188.78 L162.78,188.87 L161.78,188.97 L160.79,189.12 L159.82,189.38 L158.91,189.8 L158.12,190.41 L157.5,191.19 L157.07,192.09 L156.82,193.06 L156.68,194.05 L156.61,195.05 L156.6,196.05 L156.67,197.05 L156.85,198.03 L157.15,198.98 L157.56,199.89 L158.05,200.76 L158.25888,201.095 M51.2,125.82 L52.15,126.13 L52.98,126.68 L53.61,127.46 L53.95,128.4 L54,129.4 L53.81,130.38 L53.44,131.31 L52.96,132.19 L52.42,133.03 L51.81,133.82 L51.11,134.54 L50.33,135.17 L49.51,135.74 L48.66,136.27 L47.78,136.75 L46.85,137.12 L45.87,137.29 L44.88,137.17 L44,136.7 L43.36,135.93 L43.07,134.97 L43.16,133.97 L43.59,133.07 L44.29,132.35 L45.15,131.85 L46.1,131.55 L47.09,131.44 L48.09,131.5 L49.06,131.73 L49.97,132.13 L50.79,132.71 L51.49,133.43 L52.05,134.26 L52.45,135.18 L52.69,136.15 L52.77,137.15 L52.72,138.15 L52.624565,138.77988 M84.53,204.11 L84.93,205.03 L85.08,206.02 L84.93,207.01 L84.49,207.91 L83.81,208.64 L82.97,209.18 L82.05,209.56 L81.08,209.82 L80.09,209.98 L79.09,210.04 L78.09,209.96 L77.11,209.74 L76.16,209.42 L75.24,209.02 L74.37,208.53 L73.59,207.91 L72.98,207.12 L72.64,206.18 L72.68,205.18 L73.11,204.28 L73.86,203.62 L74.81,203.3 L75.81,203.35 L76.74,203.73 L77.52,204.36 L78.12,205.16 L78.54,206.07 L78.70727,206.74603 M57.7,184.57 L58.53,184.01 L59.47,183.68 L60.47,183.63 L61.44,183.89 L62.29,184.41 L62.99,185.12 L63.55,185.95 L63.99,186.85 L64.34,187.79 L64.58,188.76 L64.68,189.76 L64.63,190.76 L64.46,191.75 L64.2,192.72 L63.83,193.65 L63.31,194.51 L62.6,195.22 L61.7,195.66 L60.7,195.73 L59.76,195.4 L59.02,194.72 L58.6,193.81 L58.55,192.81 L58.84,191.85 L59.4,191.02 L60.15,190.36 L61.02,189.87 L61.97,189.57 L62.96,189.46 L63.95,189.56 L64.9,189.87 L65.76,190.37 L66.51,191.04 L67.11,191.84 L67.55,192.74 L67.83,193.7 L67.85019,193.85374 M162.32,166.64 L161.42,166.2 L160.66,165.55 L160.11,164.71 L159.83,163.75 L159.83,162.75 L160.06,161.78 L160.47,160.87 L161.01,160.03 L161.65,159.26 L162.38,158.58 L163.21,158.03 L164.13,157.63 L165.09,157.36 L166.08,157.22 L167.08,157.23 L168.06,157.44 L168.95,157.9 L169.63,158.63 L169.98,159.57 L169.92,160.57 L169.47,161.46 L168.7,162.1 L167.75,162.4 L166.75,162.35 L165.82,161.99 L165.02,161.39 L164.38,160.62 L163.92,159.73 L163.67,158.76 L163.64,157.76 L163.84,156.78 L164.26,155.87 L164.86,155.07 L165.61,154.41 L166.48,153.91 L167.42,153.58 L168.4,153.4 L168.93364,153.37332 M78.73,92.7 L79.53,92.1 L80.44,91.7 L81.43,91.53 L82.43,91.61 L83.37,91.94 L84.21,92.48 L84.93,93.18 L85.51,93.99 L85.94,94.89 L86.19,95.86 L86.23,96.86 L86.04,97.84 L85.64,98.76 L85.05,99.57 L84.29,100.21 L83.38,100.62 L82.38,100.72 L81.42,100.44 L80.65,99.8 L80.21,98.9 L80.19,97.9 L80.58,96.98 L81.3,96.29 L82.23,95.93 L83.23,95.92 L84.18,96.23 L85,96.8 L85.63,97.58 L86.02,98.5 L86.14,99.49 L86.06175,100.006454 M94.53,210.25 L94.08,211.14 L93.45,211.91 L92.65,212.52 L91.73,212.91 L90.74,213.07 L89.74,213 L88.78,212.72 L87.89,212.26 L87.11,211.63 L86.48,210.85 L86.05,209.95 L85.86,208.97 L85.93,207.97 L86.25,207.02 L86.81,206.19 L87.6,205.58 L88.55,205.28 L89.55,205.37 L90.42,205.87 L90.99,206.69 L91.15,207.68 L90.88,208.64 L90.23,209.4 L89.33,209.84 L88.33,209.91 L87.37,209.63 L86.56,209.05 L85.97,208.24 L85.65,207.29 L85.64,206.29 L85.93,205.33 L86.48,204.49 L87.23,203.83 L88.13,203.39 L89.11,203.18 L90.11,203.19 L91.09,203.4 L92.02,203.76 L92.9,204.24 L93.73,204.8 L94.53,205.4 L94.53611,205.40494 M44.5,130 L44.22,130.96 L43.74,131.84 L43.07,132.58 L42.24,133.13 L41.3,133.46 L40.31,133.56 L39.32,133.45 L38.37,133.14 L37.5,132.65 L36.76,131.98 L36.21,131.15 L35.89,130.2 L35.83,129.2 L36.04,128.22 L36.52,127.34 L37.26,126.66 L38.19,126.3 L39.19,126.34 L40.07,126.81 L40.66,127.62 L40.83,128.61 L40.55,129.57 L39.88,130.31 L38.96,130.71 L37.96,130.72 L37.03,130.36 L36.28,129.7 L35.79,128.83 L35.6,127.85 L35.74,126.86 L36.18,125.96 L36.87,125.24 L37.74,124.75 L38.71,124.52 L39.71,124.55 L40.67,124.82 L41.56,125.28 L42.35,125.9 L43.04,126.62 L43.65,127.41 L44.2,128.24 L44.72,129.1 L45.23,129.96 L45.78,130.8 L46.33864,131.52348 M154.16,188.93 L153.94,189.91 L153.51,190.81 L152.87,191.58 L152.06,192.17 L151.13,192.54 L150.14,192.68 L149.14,192.6 L148.18,192.33 L147.29,191.87 L146.53,191.22 L145.95,190.4 L145.61,189.46 L145.52,188.46 L145.7,187.48 L146.16,186.59 L146.88,185.9 L147.81,185.53 L148.81,185.57 L149.69,186.05 L150.26,186.87 L150.4,187.86 L150.07,188.81 L149.36,189.51 L148.42,189.84 L147.42,189.77 L146.52,189.33 L145.83,188.6 L145.43,187.68 L145.35,186.68 L145.61,185.71 L146.17,184.88 L146.96,184.27 L147.9,183.92 L148.32727,183.89009 M165.37,169.73 L165.57,168.75 L165.99,167.84 L166.62,167.06 L167.43,166.47 L168.36,166.11 L169.35,165.98 L170.35,166.07 L171.31,166.35 L172.19,166.82 L172.95,167.47 L173.53,168.29 L173.87,169.23 L173.95,170.23 L173.76,171.21 L173.3,172.1 L172.57,172.79 L171.64,173.15 L170.64,173.09 L169.78,172.59 L169.25,171.74 L169.17,170.74 L169.56,169.82 L170.32,169.17 L171.29,168.92 L172.28,169.09 L173.13,169.62 L173.73,170.42 L174.02,171.38 L173.98,172.38 L173.6,173.31 L172.94,174.06 L172.07,174.55 L171.17761,174.73212 M41.69,138.09 L41.49,139.07 L41.06,139.98 L40.42,140.75 L39.6,141.33 L38.66,141.68 L37.67,141.79 L36.68,141.69 L35.73,141.39 L34.86,140.91 L34.11,140.25 L33.55,139.42 L33.22,138.48 L33.15,137.48 L33.35,136.5 L33.82,135.62 L34.56,134.94 L35.5,134.59 L36.5,134.67 L37.35,135.2 L37.85,136.06 L37.89,137.06 L37.46,137.96 L36.66,138.57 L35.68,138.77 L34.71,138.54 L33.9,137.96 L33.35,137.12 L33.12,136.15 L33.23,135.16 L33.67,134.26 L34.39,133.56 L35.3,133.13 L36.29,133.01 L37.27,133.19 L38.16,133.64 L38.9,134.31 L39.46,135.14 L39.84,136.07 L40.06,137.05 L40.15,138.05 L40.15,139.05 L40.09,140.05 L40.01,141.05 L39.96,142.05 L39.98,143.05 L40.1,144.04 L40.35,145.01 L40.74,145.93 L41.28,146.77 L41.95,147.51 L42.370846,147.83496 M168.52,161.66 L168.81,160.7 L169.33,159.85 L170.06,159.17 L170.96,158.73 L171.94,158.55 L172.94,158.62 L173.9,158.91 L174.79,159.38 L175.57,160 L176.21,160.77 L176.65,161.67 L176.85,162.65 L176.8,163.65 L176.5,164.6 L175.94,165.43 L175.14,166.03 L174.17,166.27 L173.19,166.05 L172.44,165.39 L172.12,164.44 L172.31,163.46 L172.95,162.7 L173.88,162.34 L174.87,162.45 L175.72,162.97 L176.3,163.79 L176.55,164.76 L176.45,165.75 L176.02,166.65 L175.3,167.35 L174.38,167.75 L173.38,167.81 L173.14343,167.74347 M97.43,213.01 L96.48,212.7 L95.64,212.16 L94.98,211.41 L94.56,210.5 L94.41,209.51 L94.52,208.52 L94.84,207.57 L95.33,206.7 L95.97,205.94 L96.76,205.32 L97.67,204.9 L98.66,204.73 L99.66,204.81 L100.61,205.13 L101.43,205.71 L102.01,206.52 L102.23,207.5 L101.99,208.47 L101.31,209.2 L100.35,209.5 L99.37,209.28 L98.63,208.61 L98.31,207.66 L98.46,206.67 L99.02,205.84 L99.86,205.3 L100.84,205.1 L101.83,205.25 L102.71,205.72 L103.37,206.47 L103.72,207.41 L103.73,208.41 L103.41,209.36 L102.81,210.16 L101.99,210.73 L101.04,211.04 L100.04,211.09 L99.06,210.91 L98.13,210.55 L97.26,210.06 L96.44,209.49 L95.66,208.86 L94.9,208.21 L94.13,207.58 L93.57408,207.18193 M70.51,204.8 L69.85,205.55 L69,206.07 L68.02,206.29 L67.03,206.17 L66.13,205.74 L65.38,205.08 L64.78,204.28 L64.32,203.39 L64,202.44 L63.85,201.45 L63.91,200.45 L64.2,199.49 L64.69,198.62 L65.36,197.88 L66.19,197.33 L67.16,197.08 L68.15,197.24 L68.94,197.86 L69.28,198.8 L69.05,199.77 L68.33,200.46 L67.35,200.66 L66.41,200.32 L65.76,199.56 L65.51,198.59 L65.66,197.6 L66.15,196.73 L66.9,196.07 L67.82,195.69 L68.82,195.66 L69.76,195.99 L70.52,196.64 L71.01,197.51 L71.18,198.5 L71.01,199.49 L70.54,200.37 L69.83,201.08 L68.97,201.59 L68.02,201.91 L67.03,202.08 L66.03,202.13 L65.03,202.11 L64.03,202.06 L63.03,202.03 L62.03,202.08 L61.04,202.25 L60.09,202.56 L59.2,203.02 L58.4,203.63 L57.72,204.36 L57.17,205.2 L56.8,206.13 L56.66,207.12 L56.8,208.11 L57.23,209.01 L57.9,209.75 L58.74,210.29 L59.68,210.62 L60.67,210.76 L61.67,210.72 L62.65,210.5 L63.57,210.1 L64.39,209.52 L65.04,208.76 L65.44,207.84 L65.5,206.84 L65.19,205.89 L64.54,205.13 L63.66,204.66 L62.67,204.51 L61.68,204.65 L60.76,205.05 L59.98,205.67 L59.37,206.46 L58.94,207.36 L58.69,208.33 L58.62,209.33 L58.74,210.32 L59.04,211.27 L59.53,212.14 L60.18,212.9 L60.96,213.52 L61.85,213.97 L62.82,214.22 L63.82,214.27 L64.81,214.15 L65.78,213.92 L66.74,213.63 L67.7,213.34 L68.67,213.08 L69.65,212.88 L70.64,212.75 L71.64,212.65 L72.63,212.52 L73.61,212.31 L74.56,212 L75.48,211.61 L76.39,211.2 L76.64527,211.10118 M129.22,86.9 L128.53,86.18 L128.09,85.28 L127.97,84.29 L128.2,83.32 L128.73,82.47 L129.47,81.8 L130.34,81.3 L131.28,80.95 L132.26,80.74 L133.26,80.7 L134.25,80.86 L135.17,81.24 L135.99,81.81 L136.68,82.54 L137.16,83.41 L137.34,84.39 L137.1,85.36 L136.42,86.09 L135.45,86.34 L134.51,86.01 L133.9,85.22 L133.82,84.22 L134.28,83.33 L135.12,82.78 L136.11,82.66 L137.07,82.94 L137.87,83.54 L138.44,84.36 L138.71,85.32 L138.62,86.32 L138.18,87.22 L137.45,87.9 L136.53,88.28 L136.00691,88.30093 M45.5,177.58 L46.24,176.91 L47.15,176.49 L48.15,176.4 L49.12,176.66 L49.95,177.22 L50.6,177.98 L51.07,178.86 L51.39,179.81 L51.57,180.79 L51.59,181.79 L51.4,182.77 L51,183.68 L50.41,184.49 L49.67,185.16 L48.79,185.63 L47.8,185.79 L46.83,185.53 L46.11,184.83 L45.88,183.86 L46.23,182.92 L47.04,182.33 L48.04,182.28 L48.92,182.76 L49.44,183.61 L49.53,184.61 L49.22,185.56 L48.6,186.34 L47.76,186.88 L46.883545,187.09685 M171.46,144.3 L172.33,143.8 L173.31,143.6 L174.3,143.76 L175.16,144.27 L175.8,145.04 L176.19,145.96 L176.38,146.94 L176.42,147.94 L176.33,148.94 L176.09,149.91 L175.66,150.82 L175.05,151.61 L174.3,152.27 L173.43,152.77 L172.47,153.05 L171.47,153.01 L170.58,152.56 L170.03,151.72 L170.04,150.72 L170.62,149.9 L171.56,149.55 L172.53,149.78 L173.22,150.5 L173.45,151.47 L173.22,152.44 L172.63,153.25 L171.8,153.81 L170.84,154.08 L170.19377,154.04768 M166.29,121.62 L165.99,120.67 L166.02,119.67 L166.42,118.75 L167.14,118.05 L168.06,117.65 L169.05,117.53 L170.05,117.62 L171.02,117.85 L171.96,118.2 L172.84,118.67 L173.62,119.3 L174.25,120.08 L174.73,120.96 L175.04,121.91 L175.13,122.91 L174.9,123.88 L174.28,124.67 L173.35,125.03 L172.38,124.79 L171.73,124.03 L171.64,123.03 L172.13,122.16 L173.02,121.7 L174.02,121.76 L174.88,122.27 L175.48,123.07 L175.78,124.02 L175.78,125.02 L175.47,125.97 L174.85,126.76 L173.99,127.27 L173,127.43 L172.02,127.24 L171.83484,127.126724 M153.58,102.01 L152.58,102.08 L151.62,101.8 L150.84,101.18 L150.37,100.3 L150.26,99.31 L150.45,98.33 L150.83,97.41 L151.34,96.55 L151.93,95.75 L152.62,95.03 L153.43,94.44 L154.34,94.02 L155.31,93.77 L156.31,93.68 L157.3,93.81 L158.2,94.24 L158.83,95.02 L158.96,96.01 L158.49,96.89 L157.58,97.31 L156.6,97.12 L155.91,96.4 L155.74,95.41 L156.11,94.48 L156.86,93.82 L157.8,93.49 L158.8,93.49 L159.76,93.78 L160.58,94.35 L161.17,95.16 L161.42,96.13 L161.31,97.12 L160.86,98.01 L160.13,98.69 L159.21,99.07 L158.21,99.13 L157.24,98.89 L156.37,98.4 L155.62,97.74 L154.98,96.97 L154.43,96.13 L153.94,95.26 L153.47,94.38 L152.96,93.52 L152.37,92.71 L151.67,91.99 L150.86,91.4 L149.96,90.97 L148.99,90.72 L147.99,90.65 L147,90.76 L146.05,91.07 L145.22,91.62 L144.6,92.4 L144.27,93.34 L144.25,94.34 L144.5,95.31 L144.96,96.2 L145.57,96.99 L146.29,97.68 L147.1,98.26 L147.99,98.72 L148.95,99.01 L149.95,99.08 L150.92,98.85 L151.74,98.28 L152.26,97.43 L152.37,96.44 L152.07,95.49 L151.46,94.7 L150.64,94.12 L149.7,93.79 L148.7,93.71 L147.71,93.85 L146.77,94.18 L145.9,94.67 L145.12,95.29 L144.45,96.03 L143.91,96.87 L143.52,97.79 L143.3,98.77 L143.29488,98.87255 M36.49,144.33 L36.92,145.23 L36.96,146.23 L36.55,147.14 L35.77,147.77 L34.8,148.02 L33.8,147.95 L32.84,147.67 L31.91,147.29 L31.01,146.85 L30.15,146.33 L29.38,145.69 L28.72,144.93 L28.17,144.09 L27.73,143.19 L27.47,142.22 L27.52,141.22 L28.01,140.35 L28.91,139.9 L29.89,140.12 L30.5,140.91 L30.49,141.91 L29.87,142.7 L28.91,142.97 L27.95,142.69 L27.22,142.01 L26.79,141.11 L26.64,140.12 L26.74,139.12 L27.09,138.18 L27.71,137.39 L28.56,136.86 L29.54,136.66 L30.53,136.79 L31.42,137.24 L32.11,137.96 L32.55,138.86 L32.72,139.85 L32.65,140.85 L32.39,141.82 L32.01,142.74 L31.55,143.63 L31.06,144.5 L30.58,145.38 L30.16,146.29 L29.85,147.24 L29.71,148.23 L29.76,149.23 L29.938389,149.89552 M173.34,140.66 L173.05,139.7 L173.17,138.71 L173.72,137.87 L174.59,137.38 L175.59,137.3 L176.56,137.54 L177.46,137.98 L178.31,138.51 L179.12,139.09 L179.88,139.74 L180.54,140.49 L181.07,141.34 L181.48,142.25 L181.77,143.21 L181.88,144.2 L181.68,145.18 L181.06,145.96 L180.1,146.26 L179.17,145.89 L178.7,145.01 L178.88,144.03 L179.62,143.36 L180.61,143.26 L181.51,143.7 L182.11,144.5 L182.38,145.46 L182.37,146.46 L182.11,147.43 L181.62,148.3 L180.89,148.98 L179.97,149.37 L178.97,149.43 L178.01,149.16 L177.19,148.59 L176.6,147.78 L176.28,146.83 L176.25955,146.31873 M159.53,191.59 L159.91,190.67 L160.64,189.99 L161.6,189.72 L162.57,189.94 L163.35,190.56 L163.88,191.41 L164.23,192.35 L164.48,193.32 L164.67,194.3 L164.78,195.29 L164.75,196.29 L164.56,197.27 L164.25,198.22 L163.82,199.12 L163.23,199.93 L162.42,200.51 L161.43,200.66 L160.53,200.22 L160.12,199.31 L160.4,198.35 L161.22,197.78 L162.22,197.83 L163,198.46 L163.33,199.4 L163.21,200.39 L162.75,201.28 L162.18517,201.88637 M89,216.53 L89.71,217.24 L90.06,218.18 L89.93,219.17 L89.34,219.98 L88.46,220.46 L87.47,220.62 L86.47,220.57 L85.48,220.41 L84.51,220.19 L83.56,219.88 L82.66,219.44 L81.85,218.86 L81.12,218.18 L80.48,217.41 L80,216.53 L79.82,215.55 L80.11,214.59 L80.9,213.97 L81.9,214 L82.65,214.66 L82.82,215.64 L82.36,216.53 L81.47,216.98 L80.47,216.9 L79.61,216.39 L78.98,215.61 L78.58,214.7 L78.39,213.72 L78.42,212.72 L78.72,211.77 L79.3,210.96 L80.1,210.36 L81.04,210.03 L82.04,209.98 L83.01,210.21 L83.89,210.68 L84.64,211.34 L85.26,212.13 L85.76,212.99 L86.19,213.89 L86.59,214.81 L86.99,215.73 L87.43,216.63 L87.96,217.48 L88.61,218.24 L89.39,218.86 L90.29,219.3 L91.27,219.52 L92.27,219.5 L93.025696,219.30524 M108.92,78.57 L108.11,79.16 L107.13,79.35 L106.17,79.07 L105.46,78.36 L105.13,77.42 L105.13,76.42 L105.34,75.44 L105.66,74.49 L106.04,73.57 L106.5,72.68 L107.09,71.87 L107.8,71.17 L108.6,70.56 L109.47,70.06 L110.42,69.74 L111.42,69.74 L112.31,70.2 L112.78,71.09 L112.58,72.07 L111.79,72.69 L110.79,72.69 L109.99,72.09 L109.69,71.14 L109.93,70.17 L110.57,69.4 L111.44,68.9 L112.41,68.64 L113.41,68.6 L114.39,68.78 L115.29,69.22 L116.01,69.91 L116.49,70.79 L116.7,71.77 L116.63,72.77 L116.29,73.71 L115.73,74.54 L115,75.23 L114.16,75.78 L113.26,76.21 L112.33,76.58 L111.39,76.92 L110.45,77.27 L109.53,77.67 L108.66,78.16 L107.87,78.78 L107.22,79.54 L106.75,80.42 L106.73733,80.46918 M51.8,102.77 L50.93,103.26 L49.93,103.34 L49.01,102.95 L48.39,102.17 L48.17,101.2 L48.29,100.21 L48.62,99.26 L49.05,98.36 L49.54,97.49 L50.11,96.67 L50.79,95.94 L51.58,95.33 L52.45,94.83 L53.38,94.45 L54.36,94.26 L55.35,94.4 L56.17,94.98 L56.51,95.92 L56.18,96.86 L55.32,97.37 L54.33,97.24 L53.61,96.54 L53.43,95.56 L53.79,94.63 L54.52,93.94 L55.44,93.54 L56.43,93.39 L57.43,93.46 L58.39,93.75 L59.24,94.28 L59.89,95.04 L60.28,95.96 L60.39,96.95 L60.23,97.94 L59.81,98.85 L59.19,99.63 L58.42,100.26 L57.55,100.75 L56.63,101.13 L55.68,101.45 L54.72,101.75 L53.77,102.06 L52.84,102.42 L51.95,102.88 L51.15,103.48 L50.48,104.22 L49.99,105.09 L49.72,106.05 L49.69,107.05 L49.9,108.03 L50.35,108.92 L51.03,109.66 L51.92,110.12 L52.92,110.19 L53.86,109.84 L54.09539,109.61442 M45.08,185.8 L45.16,186.8 L44.82,187.74 L44.09,188.42 L43.12,188.68 L42.14,188.5 L41.27,188 L40.54,187.32 L39.9,186.56 L39.32,185.75 L38.83,184.88 L38.48,183.94 L38.3,182.96 L38.27,181.96 L38.38,180.97 L38.7,180.02 L39.31,179.23 L40.22,178.8 L41.21,178.96 L41.88,179.7 L41.93,180.7 L41.37,181.53 L40.43,181.87 L39.46,181.62 L38.76,180.91 L38.43,179.97 L38.43,178.97 L38.69,178 L39.15,177.11 L39.79,176.34 L40.6,175.75 L41.080833,175.58119 M89.96,78.46 L89.4,77.63 L89.21,76.65 L89.44,75.68 L90.07,74.9 L90.96,74.44 L91.95,74.29 L92.95,74.39 L93.91,74.66 L94.82,75.06 L95.66,75.61 L96.37,76.32 L96.9,77.17 L97.25,78.11 L97.4,79.1 L97.29,80.09 L96.84,80.98 L96.04,81.58 L95.04,81.66 L94.18,81.16 L93.76,80.25 L93.91,79.26 L94.56,78.5 L95.51,78.18 L96.5,78.34 L97.34,78.88 L97.96,79.67 L98.36,80.59 L98.37097,80.64658 M66.68,87.61 L65.72,87.9 L64.72,87.82 L63.84,87.35 L63.23,86.56 L62.97,85.59 L63.04,84.59 L63.36,83.64 L63.86,82.77 L64.49,82 L65.26,81.36 L66.15,80.91 L67.12,80.69 L68.12,80.69 L69.09,80.92 L69.96,81.41 L70.6,82.18 L70.84,83.15 L70.55,84.11 L69.78,84.75 L68.79,84.86 L67.89,84.43 L67.34,83.6 L67.27,82.6 L67.65,81.68 L68.36,80.98 L69.26,80.55 L70.24,80.36 L71.24,80.39 L72.21,80.63 L73.1,81.08 L73.86,81.73 L74.46,82.53 L74.89,83.43 L74.96865,83.70964 M47.89,104.27 L47.89,105.27 L47.54,106.21 L46.86,106.95 L45.95,107.37 L44.95,107.42 L43.99,107.15 L43.13,106.64 L42.4,105.96 L41.82,105.15 L41.42,104.23 L41.26,103.24 L41.36,102.25 L41.71,101.31 L42.29,100.49 L43.08,99.88 L44.04,99.6 L45.03,99.76 L45.81,100.39 L46.14,101.33 L45.93,102.31 L45.26,103.05 L44.31,103.37 L43.32,103.21 L42.5,102.64 L41.96,101.8 L41.71,100.83 L41.72,99.83 L41.96,98.86 L42.4,97.96 L43.02,97.18 L43.8,96.56 L44.69,96.11 L45.65,95.83 L46.64,95.69 L47.64,95.68 L48.64,95.76 L49.63,95.9 L50.62,96.06 L50.671444,96.067276 M120.94,77.66 L120,77.31 L119.23,76.68 L118.73,75.82 L118.57,74.83 L118.76,73.85 L119.25,72.98 L119.96,72.27 L120.82,71.75 L121.77,71.45 L122.77,71.39 L123.75,71.61 L124.62,72.1 L125.31,72.82 L125.77,73.71 L125.92,74.7 L125.69,75.67 L125.07,76.45 L124.16,76.85 L123.16,76.76 L122.34,76.19 L121.87,75.31 L121.86,74.31 L122.29,73.4 L123.05,72.74 L123.99,72.4 L124.99,72.37 L125.96,72.61 L126.85,73.07 L127.62,73.71 L128.24,74.5 L128.68,75.4 L128.95,76.36 L129.06,77.35 L129.04,78.35 L128.93,79.34 L128.76,80.32 L128.56,81.3 L128.36,82.28 L128.2,83.27 L128.19397,83.34546 M101.64,221.18 L102.12,220.3 L102.85,219.62 L103.77,219.22 L104.77,219.16 L105.73,219.44 L106.56,220 L107.2,220.77 L107.62,221.68 L107.8,222.66 L107.72,223.66 L107.35,224.59 L106.72,225.37 L105.89,225.92 L104.93,226.19 L103.93,226.13 L103.03,225.7 L102.39,224.93 L102.17,223.96 L102.43,223 L103.11,222.27 L104.05,221.93 L105.04,222.04 L105.9,222.56 L106.48,223.37 L106.74,224.34 L106.68,225.34 L106.36,226.29 L105.82,227.13 L105.11,227.84 L104.27,228.38 L103.34,228.74 L102.36,228.93 L101.36,228.98 L100.36,228.91 L99.37,228.75 L98.39,228.54 L97.42,228.31 L96.44,228.1 L95.45,227.94 L94.45,227.86 L93.45,227.9 L92.47,228.09 L91.54,228.46 L90.71,229.01 L90.04,229.75 L89.58,230.64 L89.4,231.62 L89.53,232.61 L89.98,233.5 L90.7,234.19 L91.62,234.58 L92.62,234.6 L93.55,234.23 L94.24,233.5 L94.55,232.55 L94.44,231.56 L93.94,230.69 L93.16,230.07 L92.21,229.75 L91.21,229.75 L90.26,230.06 L89.45,230.64 L88.85,231.44 L88.52,232.38 L88.52,233.38 L88.87,234.32 L89.54,235.06 L90.44,235.49 L91.44,235.56 L92.4,235.27 L93.21,234.68 L93.8,233.87 L94.12,232.92 L94.16,231.92 L93.93,230.95 L93.48,230.06 L92.84,229.29 L92.07,228.66 L91.2,228.17 L90.27,227.81 L89.3,227.56 L88.31,227.4 L87.31,227.32 L86.31,227.32 L85.31,227.37 L84.31,227.43 L83.31,227.44 L82.31,227.35 L81.34,227.11 L80.43,226.69 L79.64,226.08 L79.02,225.29 L78.61,224.38 L78.4,223.4 L78.4,222.4 L78.550964,221.66026 M41.82,111.89 L41.14,112.62 L40.27,113.12 L39.29,113.33 L38.3,113.21 L37.4,112.78 L36.67,112.1 L36.17,111.24 L35.92,110.27 L35.95,109.27 L36.27,108.32 L36.87,107.52 L37.69,106.95 L38.65,106.68 L39.65,106.74 L40.56,107.15 L41.25,107.87 L41.59,108.81 L41.48,109.8 L40.94,110.64 L40.09,111.16 L39.1,111.27 L38.15,110.96 L37.4,110.3 L36.95,109.41 L36.83,108.42 L37.02,107.44 L37.47,106.55 L38.12,105.79 L38.92,105.2 L39.83,104.78 L40.8,104.54 L41.8,104.47 L42.8,104.53 L43.79,104.69 L44.76,104.91 L45.73,105.17 L46.7,105.43 L47.67,105.66 L47.740543,105.6714 M37.4,176.4 L36.65,177.06 L35.74,177.47 L34.75,177.59 L33.77,177.4 L32.9,176.91 L32.21,176.18 L31.77,175.28 L31.6,174.29 L31.72,173.3 L32.14,172.39 L32.83,171.66 L33.72,171.2 L34.71,171.06 L35.69,171.27 L36.53,171.82 L37.1,172.64 L37.29,173.62 L37.04,174.59 L36.4,175.36 L35.49,175.78 L34.49,175.79 L33.57,175.4 L32.87,174.68 L32.48,173.76 L32.42,172.76 L32.67,171.79 L33.17,170.93 L33.87,170.21 L34.71,169.67 L35.64,169.31 L36.62,169.13 L37.62,169.1 L38.61,169.2 L39.59,169.39 L40.56,169.64 L40.974117,169.76079 M166.83,109.17 L166.29,108.33 L166,107.37 L166,106.37 L166.29,105.41 L166.85,104.58 L167.63,103.96 L168.56,103.6 L169.56,103.54 L170.53,103.78 L171.37,104.32 L171.99,105.11 L172.3,106.06 L172.25,107.06 L171.85,107.98 L171.14,108.69 L170.22,109.07 L169.22,109.05 L168.31,108.62 L167.66,107.86 L167.38,106.9 L167.5,105.91 L167.99,105.04 L168.77,104.42 L169.72,104.11 L170.72,104.13 L171.67,104.45 L172.49,105.02 L173.15,105.77 L173.62,106.65 L173.91,107.61 L174.02,108.6 L173.98,109.6 L173.83,110.59 L173.59,111.56 L173.3,112.52 L173,113.47 L172.71,114.43 L172.60431,114.857155" fill="none" stroke="black" stroke-width="0.5"/>
</g>
<path d="m 15.815664,12.893319 c -1.445284,-3.0999497 -5.555449,-0.3575 -5.08537,2.32203 1.697826,2.92736 4.504013,-3.54417 4.40859,-2.58178 -1.548999,2.22986 0.741131,6.08701 3.012419,3.25791 2.532153,-2.82358 0.259001,-7.8326797 -3.488671,-7.9011197 -3.217272,0.056 -5.8863857,2.4603197 -7.9308737,4.7238797 -2.354585,2.46752 0.0048,5.887 2.757763,6.62143 3.2195457,1.10867 6.8759417,1.30834 9.9459317,-0.36585 2.270396,-1.12373 5.025949,-2.62031 5.680576,-5.20027 -2.108811,-3.66096 -6.038415,1.28356 -3.842036,3.67822 1.07278,0.89979 4.586982,-2.27037 3.201668,-2.73503 0.03094,3.24357 1.226854,6.37852 1.337023,9.60311 -0.672198,3.54892 -7.469251,0.32096 -4.637082,-2.5164 2.158436,-2.4193 5.610472,-2.84094 8.202925,-4.57369 0.993877,-1.40371 0.353413,-5.25046 3.182464,-3.48957 2.142923,1.43516 -2.250898,5.7532 1.723416,5.02339 1.661189,-0.71663 6.494946,-1.40457 4.601401,-3.95236 -4.205319,-0.68052 -1.190571,5.86505 1.665411,3.46881 1.929752,-0.9247 2.778055,-4.05119 1.423645,-5.35034 0.479155,1.8589 3.849911,7.52574 4.880369,3.32696 0.21201,-1.28088 0.40468,-3.80204 1.01246,-1.23041 0.5858,2.6865 3.83412,4.91909 4.56937,1.07383 0.65272,-1.00894 -0.2696,-4.02739 0.99929,-1.35746 1.10974,2.31613 6.32001,1.46113 6.147,-1.13059 -1.98394,-2.13868 -5.3717,1.45205 -3.78252,3.73454 2.57741,0.96208 6.69797,-0.21041 7.06275,-3.33983 0.41287,-2.63769 0.26643,-5.3430297 -0.11178,-7.9756197 0.67418,3.94149 1.24889,7.9380497 2.39963,11.7713397 2.10586,1.67977 5.7434,1.65022 7.74596,-0.23639 3.03149,-1.85431 -0.26637,-4.76925 -2.71777,-4.54025 -2.11577,0.0793 -5.36257,2.40772 -5.16868,3.85604 2.08262,-2.38818 5.55759,-1.22628 8.30726,-1.6832 3.182,-0.26596 6.46546,-0.57372 9.54494,-1.18158 0.24171,0.4199 -0.27752,0.54338 -0.43067,0.17453" fill="none" stroke="black" stroke-width="1" transform="translate(180,280) scale(0.3)"/>
</svg>