<svg height="210mm" style="background:black" viewBox="0 0 297 210" width="297mm" xmlns="http://www.w3.org/2000/svg" xmlns:inkscape="http://www.inkscape.org/namespaces/inkscape">
<g inkscape:groupmode="layer" inkscape:label="red">
<path d="M60,180 L240,180 L151,25.847479 L63,178.26794 L237,178.26794 L151,29.31158 L66,176.5359 L234,176.5359 L151,32.77568 L69,174.80385 L231,174.80385 L151,36.239784 L72,173.0718 L228,173.0718 L151,39.703884 L75,171.33975 L225,171.33975 L151,43.167988 L78,169.6077 L222,169.6077 L151,46.632088 L81,167.87564 L219,167.87564 L151,50.096188 L84,166.1436 L216,166.1436 L151,53.56029 L87,164.41154 L213,164.41154 L151,57.02439 L90,162.67949 L210,162.67949 L151,60.488495 L93,160.94745 L207,160.94745 L151,63.952595 L96,159.2154 L204,159.2154 L151,67.416695 L99,157.48334 L201,157.48334 L151,70.8808 L102,155.75128 L198,155.75128 L151,74.3449 L105,154.01924 L195,154.01924 L151,77.809006 L108,152.28719 L192,152.28719 L151,81.2731 L111,150.55513 L189,150.55513 L151,84.737206 L114,148.82309 L186,148.82309 L151,88.20131 L117,147.09103 L183,147.09103 L151,91.665405 L120,145.35898 L180,145.35898 L151,95.12951 L123,143.62694 L177,143.62694 L151,98.59361 L126,141.89488 L174,141.89488 L151,102.05772 L129,140.16283 L171,140.16283 L151,105.52181 L132,138.43079 L168,138.43079 L151,108.985916 L135,136.69873 L165,136.69873 L151,112.45002 L138,134.96667 L162,134.96667 L151,115.91412 L141,133.23463 L159,133.23463 L151,119.37822 L144,131.50258 L156,131.50258 L151,122.84232 L147,129.77052 L153,129.77052 L151,126.30643 L150,128.03848 L150,128.03848" fill="none" stroke="red" stroke-width="1"/>
</g>
<g inkscape:groupmode="layer" inkscape:label="white">
<path d="M159.66025,132.5 L233.27242,175 M142.33975,132.5 L68.727585,175 M151,117.5 L151,32.5" fill="none" stroke="white" stroke-width="1"/>
</g>
<g inkscape:groupmode="layer" inkscape:label="signature">
<path d="m 15.815664,12.893319 c -1.445284,-3.0999497 -5.555449,-0.3575 -5.08537,2.32203 1.697826,2.92736 4.504013,-3.54417 4.40859,-2.58178 -1.548999,2.22986 0.741131,6.08701 3.012419,3.25791 2.532153,-2.82358 0.259001,-7.8326797 -3.488671,-7.9011197 -3.217272,0.056 -5.8863857,2.4603197 -7.9308737,4.7238797 -2.354585,2.46752 0.0048,5.887 2.757763,6.62143 3.2195457,1.10867 6.8759417,1.30834 9.9459317,-0.36585 2.270396,-1.12373 5.025949,-2.62031 5.680576,-5.20027 -2.108811,-3.66096 -6.038415,1.28356 -3.842036,3.67822 1.07278,0.89979 4.586982,-2.27037 3.201668,-2.73503 0.03094,3.24357 1.226854,6.37852 1.337023,9.60311 -0.672198,3.54892 -7.469251,0.32096 -4.637082,-2.5164 2.158436,-2.4193 5.610472,-2.84094 8.202925,-4.57369 0.993877,-1.40371 0.353413,-5.25046 3.182464,-3.48957 2.142923,1.43516 -2.250898,5.7532 1.723416,5.02339 1.661189,-0.71663 6.494946,-1.40457 4.601401,-3.95236 -4.205319,-0.68052 -1.190571,5.86505 1.665411,3.46881 1.929752,-0.9247 2.778055,-4.05119 1.423645,-5.35034 0.479155,1.8589 3.849911,7.52574 4.880369,3.32696 0.21201,-1.28088 0.40468,-3.80204 1.01246,-1.23041 0.5858,2.6865 3.83412,4.91909 4.56937,1.07383 0.65272,-1.00894 -0.2696,-4.02739 0.99929,-1.35746 1.10974,2.31613 6.32001,1.46113 6.147,-1.13059 -1.98394,-2.13868 -5.3717,1.45205 -3.78252,3.73454 2.57741,0.96208 6.69797,-0.21041 7.06275,-3.33983 0.41287,-2.63769 0.26643,-5.3430297 -0.11178,-7.9756197 0.67418,3.94149 1.24889,7.9380497 2.39963,11.7713397 2.10586,1.67977 5.7434,1.65022 7.74596,-0.23639 3.03149,-1.85431 -0.26637,-4.76925 -2.71777,-4.54025 -2.11577,0.0793 -5.36257,2.40772 -5.16868,3.85604 2.08262,-2.38818 5.55759,-1.22628 8.30726,-1.6832 3.182,-0.26596 6.46546,-0.57372 9.54494,-1.18158 0.24171,0.4199 -0.27752,0.54338 -0.43067,0.17453" fill="none" stroke="white" stroke-width="1" transform="translate(260,190) scale(0.3)"/>
</g>
</svg>