<svg height="210mm" style="background:white" viewBox="0 0 297 210" width="297mm" xmlns="http://www.w3.org/2000/svg" xmlns:inkscape="http://www.inkscape.org/namespaces/inkscape">
<g inkscape:groupmode="layer" inkscape:label="red">
<path d="M192.69958,27.051153 Q192.69958,27.051153,185.93745,102.94462 Q179.17534,178.83809,165.33612,103.196945 Q151.4969,27.55581,158.14056,32.881893 Q164.78423,38.207977,179.5494,57.762383 Q194.31456,77.31679,201.3458,109.64509 Q208.37701,141.97339,206.39717,113.13156 Q204.41731,84.28974,210.87253,68.448235 Q217.32776,52.606735,159.81766,42.872913 Q102.307556,33.13909,105.281845,96.26108 Q108.25613,159.38307,129.2095,88.37274 Q150.16287,17.36241,127.67611,38.061607 Q105.18935,58.7608,122.23246,112.81838 Q139.27557,166.87596,115.71261,131.5641 Q92.14963,96.25222,150.24124,97.24463 Q208.33286,98.23704,178.34686,56.738747 Q148.36086,15.240456,122.19183,65.13071 Q96.02281,115.02095,108.456604,88.53455 Q120.8904,62.04815,117.15544,63.56434 Q113.42049,65.08053,106.00835,92.16091 Q98.596214,119.24129,155.55612,118.23284 Q212.51604,117.224396,194.98245,78.05443 Q177.44885,38.884464,156.30702,105.30235 Q135.1652,171.72025,161.52469,162.4485 Q187.88419,153.17674,129.47635,124.712296 Q71.06851,96.24785,122.38163,69.854515 Q173.69475,43.461178,182.52911,38.738518 Q191.36346,34.01586,200.8869,79.87343 Q210.41035,125.73099,194.89934,82.345406 Q179.38832,38.959824,162.75613,41.279552 Q146.12395,43.599285,123.908356,100.2736 Q101.69277,156.9479,129.20335,158.5229 Q156.71394,160.09789,143.69028,95.97584 Q130.6666,31.853792,127.144714,30.936916 Q123.622826,30.020039,106.39623,100.43323 Q89.16965,170.84642,84.88553,128.31566 Q80.60141,85.78491,133.99202,114.99447 Q187.38263,144.20403,160.71156,153.33682 Q134.04048,162.46964,153.91975,164.18323 Q173.79901,165.89682,155.78366,106.89058 Q137.76831,47.884335,123.3175,109.49153 Q108.86668,171.09872,124.90656,99.90808 Q140.94646,28.717442,140.34134,31.913307 Q139.73624,35.109173,144.1025,29.741505 Q148.46875,24.373835,172.69489,37.13606 Q196.92102,49.89828,150.51585,65.128136 Q104.11068,80.35799,91.11728,74.82657 Q78.123886,69.29516,100.60437,113.95526 Q123.08486,158.61537,107.27668,142.82071 Q91.468506,127.02605,136.71239,151.30243 Q181.95628,175.57883,129.45299,133.22195 Q76.9497,90.86509,120.94673,61.2709 Q164.94377,31.676714,182.76941,65.39418 Q200.59506,99.11165,174.56418,59.11316 Q148.53328,19.11467,110.25174,52.870075 Q71.97019,86.62548,109.62009,63.400303 Q147.26997,40.175117,115.23973,52.861828 Q83.20947,65.54854,93.44167,100.60757 Q103.673874,135.6666,130.9312,81.70035 Q158.18854,27.734095,192.3552,83.52217 Q226.52185,139.31026,187.37495,83.167465 Q148.22806,27.024675,160.10153,35.31052 Q171.97502,43.596367,185.75594,56.253986 Q199.53687,68.911606,215.35379,71.6463 Q231.17073,74.381,198.14313,64.65083 Q165.11554,54.920673,179.79008,44.207085 Q194.46463,33.493496,189.41109,99.14757 Q184.35754,164.80164,192.3647,101.43076 Q200.37187,38.0599,181.77133,108.23236 Q163.17079,178.40483,153.7402,184.12708 Q144.30962,189.84933,174.63403,170.92902 Q204.95844,152.00868,161.3085,88.16837 Q117.658585,24.328056,158.0181,54.311756 Q198.37761,84.295456,154.49985,75.69555 Q110.622086,67.09564,144.87865,59.03422 Q179.13521,50.9728,157.35367,53.528595 Q135.57213,56.084385,179.83418,59.559177 Q224.09625,63.033966,175.05222,50.121735 Q126.00817,37.209503,122.326454,39.189014 Q118.64474,41.16853,131.72955,33.720207 Q144.81438,26.271885,151.17694,25.21195 Q157.5395,24.152016,173.3869,47.92779 Q189.23431,71.70357,173.57199,57.994846 Q157.90967,44.28612,149.83818,44.532146 Q141.76668,44.77817,188.78546,68.11257 Q235.80426,91.44697,232.99799,111.900925 Q230.19171,132.35487,190.09258,88.54048 Q149.99344,44.72609,180.72133,79.444435 Q211.44922,114.16277,204.04599,139.02673 Q196.64276,163.89069,175.18607,108.03986 Q153.72937,52.18905,112.5364,97.72358 Q71.34343,143.2581,131.7966,100.77506 Q192.24976,58.29201,158.85345,57.01285 Q125.45716,55.733692,158.18214,112.125854 Q190.90714,168.518,161.19586,95.38632 Q131.4846,22.254635,119.47158,49.117023 Q107.45856,75.97941,94.76572,108.920876 Q82.07288,141.86235,90.82562,160.06894 Q99.57836,178.27554,126.52304,97.04728 Q153.46771,15.819014,183.0708,78.215485 Q212.67389,140.61197,180.30786,93.989876 Q147.94185,47.367783,142.19757,33.092285 Q136.4533,18.816784,173.41772,90.263504 Q210.38217,161.71022,143.00328,132.31984 Q75.624405,102.92945,121.18792,72.02896 Q166.75143,41.128475,139.15019,47.68776 Q111.54894,54.247047,99.43344,50.96328 Q87.31795,47.679516,117.67667,38.86705 Q148.03539,30.05458,148.93987,32.10207 Q149.84435,34.14956,149.18622,33.34073 Q148.52809,32.5319,131.81503,89.19302 Q115.10199,145.85414,130.9215,97.37461 Q146.74101,48.89507,143.59134,40.91122 Q140.44167,32.927372,176.42606,58.534145 Q212.41045,84.140915,179.40936,52.360523 Q146.4083,20.580128,142.40227,26.64848 Q138.39624,32.71683,114.95024,54.400208 Q91.504234,76.08359,98.76778,70.64768 Q106.03132,65.21178,147.96347,69.35024 Q189.89561,73.48871,145.72284,58.95015 Q101.55006,44.41159,91.00983,78.14452 Q80.46959,111.87745,114.16183,75.0909 Q147.85406,38.30434,108.85177,53.53436 Q69.849464,68.76437,135.19446,76.08122 Q200.53944,83.39806,155.19547,65.95228 Q109.85148,48.506496,130.55164,104.61313 Q151.25179,160.71976,149.80734,88.64272 Q148.36292,16.565685,163.0792,29.465515 Q177.79549,42.365345,189.74754,93.78006 Q201.69962,145.19478,159.26128,154.68796 Q116.82292,164.18112,172.10747,128.467 Q227.39201,92.75288,153.35822,89.0882 Q79.3244,85.42352,147.83942,118.42216 Q216.35442,151.42079,169.82777,102.96718 Q123.30113,54.513565,98.5972,57.216415 Q73.893265,59.919266,85.216866,62.68324 Q96.54047,65.44721,125.23825,112.67794 Q153.93604,159.90868,124.69793,104.14104 Q95.45982,48.373398,126.54221,50.00914 Q157.6246,51.644882,141.18825,49.319763 Q124.75189,46.994644,136.88324,34.493477 Q149.01459,21.992311,170.99596,48.93334 Q192.97733,75.87437,167.85197,119.59527 Q142.72662,163.31618,124.22617,98.73987 Q105.72572,34.163563,120.87546,29.336237 Q136.02518,24.508911,162.30399,48.37252 Q188.5828,72.23613,153.40158,125.06085 Q118.220375,177.88557,148.74364,106.30891 Q179.2669,34.732243,173.55705,42.727707 Q167.8472,50.723175,132.43433,77.13028 Q97.02145,103.537384,108.06302,70.70098 Q119.10458,37.86458,155.12761,52.75394 Q191.15065,67.6433,168.43675,50.438816 Q145.72284,33.234325,117.49914,58.14957 Q89.27543,83.06482,85.89949,101.86681 Q82.52355,120.66881,76.02613,103.35405 Q69.52871,86.03929,77.22496,95.97322 Q84.92121,105.90714,149.4535,130.19235 Q213.9858,154.47757,171.72437,160.9905 Q129.46294,167.50342,123.13858,174.38686 Q116.814224,181.27028,129.24692,108.695854 Q141.6796,36.12143,178.47815,50.385983 Q215.27669,64.650536,182.13075,45.722935 Q148.98482,26.795332,152.61032,38.22623 Q156.23584,49.657127,118.47566,88.67755 Q80.715485,127.69798,116.43569,83.5334 Q152.1559,39.368824,161.46083,30.060572 Q170.76575,20.752321,159.39531,24.55506 Q148.02487,28.3578,146.25858,30.705475 Q144.4923,33.05315,177.52266,94.860016 Q210.55304,156.66689,159.14124,147.80673 Q107.72945,138.94658,124.313705,78.29404 Q140.89796,17.641504,135.60886,20.787582 Q130.31975,23.93366,151.73967,24.465532 Q173.1596,24.997402,178.59282,40.600864 Q184.02605,56.20433,140.76666,78.79704 Q97.50727,101.389755,129.74185,63.793846 Q161.97644,26.197937,169.955,96.64523 Q177.93355,167.09253,160.98357,110.383415 Q144.03358,53.6743,158.59402,56.173443 Q173.15448,58.672585,135.8202,115.62924 Q98.48594,172.58589,95.99574,163.99203 Q93.50554,155.39818,121.00277,166.25737 Q148.5,177.11656,133.68784,107.22917 Q118.87568,37.341785,136.1853,42.471485 Q153.4949,47.601185,188.67819,57.183525 Q223.86148,66.76587,208.11325,98.05393 Q192.36504,129.342,164.34158,77.87053 Q136.31813,26.399067,148.773,24.637672 Q161.22784,22.876278,156.57266,19.781954 Q151.91747,16.68763,162.95581,102.69564 Q173.99416,188.70366,187.17378,181.88757 Q200.35342,175.0715,150.18665,169.68744 Q100.01985,164.30339,102.547844,154.54915 Q105.07583,144.7949,106.00824,101.25078 Q106.94065,57.70666,109.892456,99.32856 Q112.84426,140.95045,105.64853,101.05765 Q98.4528,61.164837,116.31651,111.53954 Q134.18022,161.91425,148.13258,160.45395 Q162.08495,158.99367,140.8312,172.27 Q119.57745,185.54636,132.11246,115.80435 Q144.64746,46.062344,119.51548,54.933815 Q94.3835,63.805283,121.8451,42.754932 Q149.3067,21.704578,163.6457,35.650406 Q177.98473,49.596237,128.34712,71.88101 Q78.70952,94.165794,112.967415,73.86017 Q147.22531,53.55455,176.67001,79.6883 Q206.1147,105.822044,210.58153,86.93941 Q215.04834,68.05676,182.22523,54.178715 Q149.40213,40.300663,183.90392,64.258286 Q218.40572,88.215904,150.68547,114.79153 Q82.96524,141.36716,151.39438,97.96699 Q219.82352,54.566822,163.99391,50.303577 Q108.164314,46.04033,100.43915,83.480125 Q92.71398,120.91993,122.00648,141.29756 Q151.29897,161.6752,150.30295,104.401955 Q149.30692,47.128708,157.11807,36.116943 Q164.92923,25.105177,182.16296,60.02521 Q199.39671,94.94525,153.56595,75.266594 Q107.7352,55.587936,110.54629,117.362114 Q113.35738,179.13629,130.96753,117.01453 Q148.57768,54.89275,131.62573,46.060616 Q114.673775,37.22848,166.05157,70.135025 Q217.42935,103.04157,155.1471,127.18239 Q92.86484,151.32321,110.03978,157.80028 Q127.21472,164.27733,138.73479,99.22672 Q150.25484,34.17611,152.879,104.95702 Q155.50316,175.73795,155.2341,97.725945 Q154.96506,19.713947,186.7827,53.941563 Q218.60034,88.169174,177.88962,134.55473 Q137.17888,180.94028,145.54654,115.63136 Q153.9142,50.322445,127.57815,101.48549 Q101.242096,152.64853,142.1236,94.25844 Q183.0051,35.86835,177.65688,103.58652 Q172.30865,171.30467,161.38155,106.9831 Q150.45442,42.661526,107.64056,58.335594 Q64.82668,74.00967,105.223,63.647648 Q145.61931,53.285637,112.50642,85.74104 Q79.39352,118.19646,121.67808,74.001076 Q163.96263,29.805693,134.1925,49.38821 Q104.42237,68.97073,170.85551,89.53295 Q237.28867,110.09517,158.07875,96.18448 Q78.86882,82.27379,102.97492,63.59239 Q127.08102,44.910988,151.33896,97.551 Q175.5969,150.19101,204.29126,139.65054 Q232.98563,129.11008,216.8839,87.30725 Q200.78215,45.50442,202.49605,89.06411 Q204.20995,132.6238,176.46371,87.63219 Q148.71748,42.640575,146.21527,37.204002 Q143.71306,31.767431,146.10652,100.44491 Q148.5,169.12238,167.98233,173.4593 Q187.46466,177.79623,172.87276,174.20236 Q158.28085,170.60849,146.57959,112.03381 Q134.87831,53.45913,123.747375,109.15208 Q112.61645,164.84502,130.08084,100.68586 Q147.54524,36.526703,152.64183,37.717148 Q157.7384,38.907597,126.00139,49.78756 Q94.264366,60.667526,121.38219,45.483185 Q148.5,30.298845,148.48894,39.123165 Q148.47789,47.947483,177.5318,87.69034 Q206.58572,127.4332,146.36757,131.67488 Q86.14942,135.91655,78.36415,121.01417 Q70.57888,106.11178,80.18659,125.636856 Q89.79431,145.16193,137.51804,159.4026 Q185.24176,173.64328,138.21594,143.4926 Q91.190125,113.34193,93.11044,120.92756 Q95.03077,128.5132,148.95695,89.54605 Q202.88313,50.578907,150.67719,80.31825 Q98.47123,110.057594,143.15117,74.96161 Q187.83112,39.86562,138.04533,55.71205 Q88.25954,71.55849,110.167786,115.24123 Q132.07603,158.92397,148.02078,104.900925 Q163.96553,50.87787,181.5743,83.95732 Q199.18307,117.03677,164.48491,78.27456 Q129.78676,39.51235,133.28792,43.781246 Q136.78908,48.050144,116.02303,85.439415 Q95.25698,122.82869,113.37192,79.02345 Q131.48686,35.21821,139.99342,43.582634 Q148.5,51.94706,141.42418,46.92224 Q134.34837,41.89742,117.39277,91.60556 Q100.43717,141.3137,146.62181,147.74309 Q192.80644,154.17247,182.65985,169.00697 Q172.51326,183.84149,159.00946,174.73625 Q145.50568,165.63101,121.83518,150.85625 Q98.164696,136.08148,164.96669,130.42853 Q231.76869,124.77556,189.9816,71.0896 Q148.1945,17.403645,144.27838,102.3009 Q140.36227,187.19817,186.09647,152.16382 Q231.83066,117.12946,224.21896,111.550606 Q216.60725,105.971756,212.65555,91.61742 Q208.70384,77.26308,221.50284,95.46855 Q234.30183,113.67403,217.84659,77.28154 Q201.39133,40.889053,208.12244,95.64153 Q214.85355,150.39401,186.61551,101.4123 Q158.37747,52.430588,153.56665,42.039436 Q148.75581,31.648285,172.9161,34.96385 Q197.0764,38.279415,162.30707,37.63602 Q127.53774,36.992622,160.2396,47.273083 Q192.94145,57.553543,143.18929,82.856674 Q93.43713,108.159805,152.1818,108.371086 Q210.92647,108.58237,181.10492,77.06352 Q151.28337,45.544685,132.16705,41.966568 Q113.05073,38.38845,106.43892,55.757687 Q99.8271,73.12692,131.3988,117.82009 Q162.97049,162.51326,156.99472,93.58451 Q151.01894,24.65577,181.1454,76.949394 Q211.27187,129.24303,197.848,141.39435 Q184.42415,153.54567,161.0833,86.37721 Q137.74245,19.208748,149.89201,34.333023 Q162.04158,49.4573,146.13618,47.59345 Q130.23079,45.7296,117.673004,61.159702 Q105.11522,76.589806,96.23651,88.63049 Q87.357796,100.67118,114.94591,63.484474 Q142.53403,26.297773,170.56367,29.03756 Q198.59332,31.777346,178.46451,92.99495 Q158.3357,154.21255,136.57645,88.470726 Q114.8172,22.72891,139.85591,32.848038 Q164.8946,42.967167,130.77957,77.75612 Q96.664536,112.545074,112.873924,83.37841 Q129.08331,54.211742,163.53813,71.52912 Q197.99294,88.8465,191.99887,69.5124 Q186.0048,50.1783,186.98048,57.8473 Q187.95616,65.5163,159.94868,56.28412 Q131.94121,47.051933,119.20752,50.555466 Q106.47383,54.059,155.47305,107.746956 Q204.47226,161.43492,184.83482,95.99033 Q165.1974,30.545752,158.38321,34.99439 Q151.56902,39.443027,170.32312,46.039284 Q189.07721,52.635536,156.12643,56.487194 Q123.175644,60.33885,128.28285,38.49254 Q133.39006,16.64623,181.40996,78.617645 Q229.42987,140.58907,187.83705,86.81965 Q146.24425,33.050232,166.46361,97.62061 Q186.68297,162.191,165.35182,104.05033 Q144.02069,45.909676,134.15742,98.066284 Q124.29415,150.2229,129.03427,164.45103 Q133.77438,178.67917,144.42625,115.60938 Q155.07813,52.539593,184.15767,63.857037 Q213.23721,75.174484,183.6448,53.463932 Q154.05241,31.753386,163.8308,37.711784 Q173.60918,43.670185,164.0794,47.281616 Q154.54962,50.893044,120.93922,63.855225 Q87.328804,76.817406,129.13513,122.15728 Q170.94145,167.49716,159.76752,106.06501 Q148.59358,44.632862,153.68887,47.449482 Q158.78416,50.2661,173.02162,59.476677 Q187.25906,68.68725,161.12512,47.347923 Q134.99118,26.008593,139.76361,23.167528 Q144.53604,20.326462,170.46017,89.23488 Q196.38431,158.1433,133.31561,140.86385 Q70.24692,123.5844,99.86056,87.604614 Q129.4742,51.624832,120.89674,54.96701 Q112.3193,58.30919,151.05696,62.310455 Q189.79463,66.31172,142.64769,62.445465 Q95.50075,58.57921,159.27461,79.15061 Q223.04848,99.72202,188.09131,75.73445 Q153.13414,51.746872,161.46733,50.515553 Q169.8005,49.284233,158.32262,33.523865 Q146.84473,17.763496,150.09247,24.35808 Q153.34021,30.952663,150.56499,42.508377 Q147.78978,54.064087,120.53536,91.673386 Q93.280945,129.28268,154.92902,138.15976 Q216.57709,147.03683,161.93452,89.6819 Q107.29198,32.326958,162.99733,58.72991 Q218.70268,85.13286,147.0004,109.20203 Q75.29811,133.2712,147.72131,112.05883 Q220.1445,90.84648,186.05728,71.38005 Q151.97006,51.913624,116.03853,71.70122 Q80.106995,91.488815,140.77403,96.370316 Q201.44106,101.25181,208.43126,109.51551 Q215.42145,117.779205,162.40248,91.81771 Q109.38352,65.85622,105.80807,53.653553 Q102.23261,41.450893,159.49768,72.2557 Q216.76276,103.06051,195.27956,78.68938 Q173.79636,54.31824,185.78122,67.16171 Q197.76608,80.00519,204.45808,71.98963 Q211.15009,63.97407,136.921,79.63756 Q62.691944,95.30104,69.8285,85.30319 Q76.96505,75.30534,132.33183,108.11392 Q187.69862,140.9225,144.21269,158.73897 Q100.726776,176.55544,90.50428,116.65901 Q80.28179,56.762596,142.85054,83.75839 Q205.41928,110.75418,208.13455,80.571724 Q210.84982,50.389267,180.0186,42.20625 Q149.1874,34.02323,185.18764,59.226395 Q221.18788,84.42956,164.72124,61.39054 Q108.25461,38.35152,136.8826,44.0822 Q165.5106,49.81288,118.38846,61.37632 Q71.26631,72.93976,89.71697,51.076275 Q108.16763,29.212788,140.65358,32.544437 Q173.13951,35.876087,128.58984,94.78924 Q84.04018,153.7024,145.94106,144.06355 Q207.84192,134.42471,189.80695,84.64142 Q171.77197,34.85813,125.815506,71.89856 Q79.85903,108.93899,86.83841,98.045906 Q93.817795,87.15283,157.72388,106.51115 Q221.62997,125.86945,208.9541,78.27079 Q196.27823,30.672117,164.3379,24.986305 Q132.39758,19.300491,114.52944,78.15515 Q96.66131,137.00981,139.395,100.6238" fill="none" stroke="red" stroke-width="0.5" style="mix-blend-mode: multiply;"/>
</g>
<g inkscape:groupmode="layer" inkscape:label="green">
<path d="M192.69958,32.05115 Q192.69958,32.05115,185.93745,107.94462 Q179.17534,183.83809,165.33612,108.196945 Q151.4969,32.55581,158.14056,37.881893 Q164.78423,43.207977,179.5494,62.762383 Q194.31456,82.31679,201.3458,114.64509 Q208.37701,146.97339,206.39717,118.13156 Q204.41731,89.28974,210.87253,73.448235 Q217.32776,57.606735,159.81766,47.872913 Q102.307556,38.13909,105.281845,101.26108 Q108.25613,164.38307,129.2095,93.37274 Q150.16287,22.36241,127.67611,43.061607 Q105.18935,63.7608,122.23246,117.81838 Q139.27557,171.87596,115.71261,136.5641 Q92.14963,101.25222,150.24124,102.24463 Q208.33286,103.23704,178.34686,61.738747 Q148.36086,20.240456,122.19183,70.13071 Q96.02281,120.02095,108.456604,93.53455 Q120.8904,67.04815,117.15544,68.56434 Q113.42049,70.08053,106.00835,97.16091 Q98.596214,124.24129,155.55612,123.23284 Q212.51604,122.224396,194.98245,83.05443 Q177.44885,43.884464,156.30702,110.30235 Q135.1652,176.72025,161.52469,167.4485 Q187.88419,158.17674,129.47635,129.7123 Q71.06851,101.24785,122.38163,74.854515 Q173.69475,48.461178,182.52911,43.738518 Q191.36346,39.01586,200.8869,84.87343 Q210.41035,130.73099,194.89934,87.345406 Q179.38832,43.959824,162.75613,46.279552 Q146.12395,48.599285,123.908356,105.2736 Q101.69277,161.9479,129.20335,163.5229 Q156.71394,165.09789,143.69028,100.97584 Q130.6666,36.85379,127.144714,35.936916 Q123.622826,35.02004,106.39623,105.43323 Q89.16965,175.84642,84.88553,133.31566 Q80.60141,90.78491,133.99202,119.99447 Q187.38263,149.20403,160.71156,158.33682 Q134.04048,167.46964,153.91975,169.18323 Q173.79901,170.89682,155.78366,111.89058 Q137.76831,52.884335,123.3175,114.49153 Q108.86668,176.09872,124.90656,104.90808 Q140.94646,33.71744,140.34134,36.913307 Q139.73624,40.109173,144.1025,34.741505 Q148.46875,29.373835,172.69489,42.13606 Q196.92102,54.89828,150.51585,70.128136 Q104.11068,85.35799,91.11728,79.82657 Q78.123886,74.29516,100.60437,118.95526 Q123.08486,163.61537,107.27668,147.82071 Q91.468506,132.02605,136.71239,156.30243 Q181.95628,180.57883,129.45299,138.22195 Q76.9497,95.86509,120.94673,66.270905 Q164.94377,36.676712,182.76941,70.39418 Q200.59506,104.11165,174.56418,64.11316 Q148.53328,24.11467,110.25174,57.870075 Q71.97019,91.62548,109.62009,68.4003 Q147.26997,45.175117,115.23973,57.861828 Q83.20947,70.54854,93.44167,105.60757 Q103.673874,140.6666,130.9312,86.70035 Q158.18854,32.734097,192.3552,88.52217 Q226.52185,144.31026,187.37495,88.167465 Q148.22806,32.024673,160.10153,40.31052 Q171.97502,48.596367,185.75594,61.253986 Q199.53687,73.911606,215.35379,76.6463 Q231.17073,79.381,198.14313,69.65083 Q165.11554,59.920673,179.79008,49.207085 Q194.46463,38.493496,189.41109,104.14757 Q184.35754,169.80164,192.3647,106.43076 Q200.37187,43.0599,181.77133,113.23236 Q163.17079,183.40483,153.7402,189.12708 Q144.30962,194.84933,174.63403,175.92902 Q204.95844,157.00868,161.3085,93.16837 Q117.658585,29.328056,158.0181,59.311756 Q198.37761,89.295456,154.49985,80.69555 Q110.622086,72.09564,144.87865,64.03422 Q179.13521,55.9728,157.35367,58.528595 Q135.57213,61.084385,179.83418,64.55917 Q224.09625,68.033966,175.05222,55.121735 Q126.00817,42.209503,122.326454,44.189014 Q118.64474,46.16853,131.72955,38.720207 Q144.81438,31.271885,151.17694,30.21195 Q157.5395,29.152016,173.3869,52.92779 Q189.23431,76.70357,173.57199,62.994846 Q157.90967,49.28612,149.83818,49.532146 Q141.76668,49.77817,188.78546,73.11257 Q235.80426,96.44697,232.99799,116.900925 Q230.19171,137.35487,190.09258,93.54048 Q149.99344,49.72609,180.72133,84.444435 Q211.44922,119.16277,204.04599,144.02673 Q196.64276,168.89069,175.18607,113.03986 Q153.72937,57.18905,112.5364,102.72358 Q71.34343,148.2581,131.7966,105.77506 Q192.24976,63.29201,158.85345,62.01285 Q125.45716,60.733692,158.18214,117.125854 Q190.90714,173.518,161.19586,100.38632 Q131.4846,27.254635,119.47158,54.117023 Q107.45856,80.97941,94.76572,113.920876 Q82.07288,146.86235,90.82562,165.06894 Q99.57836,183.27554,126.52304,102.04728 Q153.46771,20.819014,183.0708,83.215485 Q212.67389,145.61197,180.30786,98.989876 Q147.94185,52.367783,142.19757,38.092285 Q136.4533,23.816784,173.41772,95.263504 Q210.38217,166.71022,143.00328,137.31984 Q75.624405,107.92945,121.18792,77.02896 Q166.75143,46.128475,139.15019,52.68776 Q111.54894,59.247047,99.43344,55.96328 Q87.31795,52.679516,117.67667,43.86705 Q148.03539,35.05458,148.93987,37.10207 Q149.84435,39.14956,149.18622,38.34073 Q148.52809,37.5319,131.81503,94.19302 Q115.10199,150.85414,130.9215,102.37461 Q146.74101,53.89507,143.59134,45.91122 Q140.44167,37.927372,176.42606,63.534145 Q212.41045,89.140915,179.40936,57.360523 Q146.4083,25.580128,142.40227,31.64848 Q138.39624,37.71683,114.95024,59.400208 Q91.504234,81.08359,98.76778,75.64768 Q106.03132,70.21178,147.96347,74.35024 Q189.89561,78.48871,145.72284,63.95015 Q101.55006,49.41159,91.00983,83.14452 Q80.46959,116.87745,114.16183,80.0909 Q147.85406,43.30434,108.85177,58.53436 Q69.849464,73.76437,135.19446,81.08122 Q200.53944,88.39806,155.19547,70.95228 Q109.85148,53.506496,130.55164,109.61313 Q151.25179,165.71976,149.80734,93.64272 Q148.36292,21.565685,163.0792,34.465515 Q177.79549,47.365345,189.74754,98.78006 Q201.69962,150.19478,159.26128,159.68796 Q116.82292,169.18112,172.10747,133.467 Q227.39201,97.75288,153.35822,94.0882 Q79.3244,90.42352,147.83942,123.42216 Q216.35442,156.42079,169.82777,107.96718 Q123.30113,59.513565,98.5972,62.216415 Q73.893265,64.919266,85.216866,67.68324 Q96.54047,70.44721,125.23825,117.67794 Q153.93604,164.90868,124.69793,109.14104 Q95.45982,53.373398,126.54221,55.00914 Q157.6246,56.644882,141.18825,54.319763 Q124.75189,51.994644,136.88324,39.493477 Q149.01459,26.992311,170.99596,53.93334 Q192.97733,80.87437,167.85197,124.59527 Q142.72662,168.31618,124.22617,103.73987 Q105.72572,39.163563,120.87546,34.33624 Q136.02518,29.508911,162.30399,53.37252 Q188.5828,77.23613,153.40158,130.06085 Q118.220375,182.88557,148.74364,111.30891 Q179.2669,39.732243,173.55705,47.727707 Q167.8472,55.723175,132.43433,82.13028 Q97.02145,108.537384,108.06302,75.70098 Q119.10458,42.86458,155.12761,57.75394 Q191.15065,72.6433,168.43675,55.438816 Q145.72284,38.234325,117.49914,63.14957 Q89.27543,88.06482,85.89949,106.86681 Q82.52355,125.66881,76.02613,108.35405 Q69.52871,91.03929,77.22496,100.97322 Q84.92121,110.90714,149.4535,135.19235 Q213.9858,159.47757,171.72437,165.9905 Q129.46294,172.50342,123.13858,179.38686 Q116.814224,186.27028,129.24692,113.695854 Q141.6796,41.12143,178.47815,55.385983 Q215.27669,69.650536,182.13075,50.722935 Q148.98482,31.795332,152.61032,43.22623 Q156.23584,54.657127,118.47566,93.67755 Q80.715485,132.69798,116.43569,88.5334 Q152.1559,44.368824,161.46083,35.06057 Q170.76575,25.752321,159.39531,29.55506 Q148.02487,33.3578,146.25858,35.705475 Q144.4923,38.05315,177.52266,99.860016 Q210.55304,161.66689,159.14124,152.80673 Q107.72945,143.94658,124.313705,83.29404 Q140.89796,22.641504,135.60886,25.787582 Q130.31975,28.93366,151.73967,29.465532 Q173.1596,29.997402,178.59282,45.600864 Q184.02605,61.20433,140.76666,83.79704 Q97.50727,106.389755,129.74185,68.793846 Q161.97644,31.197937,169.955,101.64523 Q177.93355,172.09253,160.98357,115.383415 Q144.03358,58.6743,158.59402,61.173443 Q173.15448,63.672585,135.8202,120.62924 Q98.48594,177.58589,95.99574,168.99203 Q93.50554,160.39818,121.00277,171.25737 Q148.5,182.11656,133.68784,112.22917 Q118.87568,42.341785,136.1853,47.471485 Q153.4949,52.601185,188.67819,62.183525 Q223.86148,71.76587,208.11325,103.05393 Q192.36504,134.342,164.34158,82.87053 Q136.31813,31.399067,148.773,29.637672 Q161.22784,27.876278,156.57266,24.781954 Q151.91747,21.68763,162.95581,107.69564 Q173.99416,193.70366,187.17378,186.88757 Q200.35342,180.0715,150.18665,174.68744 Q100.01985,169.30339,102.547844,159.54915 Q105.07583,149.7949,106.00824,106.25078 Q106.94065,62.70666,109.892456,104.32856 Q112.84426,145.95045,105.64853,106.05765 Q98.4528,66.16483,116.31651,116.53954 Q134.18022,166.91425,148.13258,165.45395 Q162.08495,163.99367,140.8312,177.27 Q119.57745,190.54636,132.11246,120.80435 Q144.64746,51.062344,119.51548,59.933815 Q94.3835,68.80528,121.8451,47.754932 Q149.3067,26.704578,163.6457,40.650406 Q177.98473,54.596237,128.34712,76.88101 Q78.70952,99.165794,112.967415,78.86017 Q147.22531,58.55455,176.67001,84.6883 Q206.1147,110.822044,210.58153,91.93941 Q215.04834,73.05676,182.22523,59.178715 Q149.40213,45.300663,183.90392,69.258286 Q218.40572,93.215904,150.68547,119.79153 Q82.96524,146.36716,151.39438,102.96699 Q219.82352,59.566822,163.99391,55.303577 Q108.164314,51.04033,100.43915,88.480125 Q92.71398,125.91993,122.00648,146.29756 Q151.29897,166.6752,150.30295,109.401955 Q149.30692,52.128708,157.11807,41.116943 Q164.92923,30.105177,182.16296,65.025215 Q199.39671,99.94525,153.56595,80.266594 Q107.7352,60.587936,110.54629,122.362114 Q113.35738,184.13629,130.96753,122.01453 Q148.57768,59.89275,131.62573,51.060616 Q114.673775,42.22848,166.05157,75.135025 Q217.42935,108.04157,155.1471,132.18239 Q92.86484,156.32321,110.03978,162.80028 Q127.21472,169.27733,138.73479,104.22672 Q150.25484,39.17611,152.879,109.95702 Q155.50316,180.73795,155.2341,102.725945 Q154.96506,24.713947,186.7827,58.941563 Q218.60034,93.169174,177.88962,139.55473 Q137.17888,185.94028,145.54654,120.63136 Q153.9142,55.322445,127.57815,106.48549 Q101.242096,157.64853,142.1236,99.25844 Q183.0051,40.86835,177.65688,108.58652 Q172.30865,176.30467,161.38155,111.9831 Q150.45442,47.661526,107.64056,63.335594 Q64.82668,79.00967,105.223,68.64765 Q145.61931,58.285637,112.50642,90.74104 Q79.39352,123.19646,121.67808,79.001076 Q163.96263,34.805695,134.1925,54.38821 Q104.42237,73.97073,170.85551,94.53295 Q237.28867,115.09517,158.07875,101.18448 Q78.86882,87.27379,102.97492,68.592384 Q127.08102,49.910988,151.33896,102.551 Q175.5969,155.19101,204.29126,144.65054 Q232.98563,134.11008,216.8839,92.30725 Q200.78215,50.50442,202.49605,94.06411 Q204.20995,137.6238,176.46371,92.63219 Q148.71748,47.640575,146.21527,42.204002 Q143.71306,36.767433,146.10652,105.44491 Q148.5,174.12238,167.98233,178.4593 Q187.46466,182.79623,172.87276,179.20236 Q158.28085,175.60849,146.57959,117.03381 Q134.87831,58.45913,123.747375,114.15208 Q112.61645,169.84502,130.08084,105.68586 Q147.54524,41.526703,152.64183,42.717148 Q157.7384,43.907597,126.00139,54.78756 Q94.264366,65.66753,121.38219,50.483185 Q148.5,35.298843,148.48894,44.123165 Q148.47789,52.947483,177.5318,92.69034 Q206.58572,132.4332,146.36757,136.67488 Q86.14942,140.91655,78.36415,126.01417 Q70.57888,111.11178,80.18659,130.63686 Q89.79431,150.16193,137.51804,164.4026 Q185.24176,178.64328,138.21594,148.4926 Q91.190125,118.34193,93.11044,125.92756 Q95.03077,133.5132,148.95695,94.54605 Q202.88313,55.578907,150.67719,85.31825 Q98.47123,115.057594,143.15117,79.96161 Q187.83112,44.86562,138.04533,60.71205 Q88.25954,76.55849,110.167786,120.24123 Q132.07603,163.92397,148.02078,109.900925 Q163.96553,55.87787,181.5743,88.95732 Q199.18307,122.03677,164.48491,83.27456 Q129.78676,44.51235,133.28792,48.781246 Q136.78908,53.050144,116.02303,90.439415 Q95.25698,127.82869,113.37192,84.02345 Q131.48686,40.21821,139.99342,48.582634 Q148.5,56.94706,141.42418,51.92224 Q134.34837,46.89742,117.39277,96.60556 Q100.43717,146.3137,146.62181,152.74309 Q192.80644,159.17247,182.65985,174.00697 Q172.51326,188.84149,159.00946,179.73625 Q145.50568,170.63101,121.83518,155.85625 Q98.164696,141.08148,164.96669,135.42853 Q231.76869,129.77556,189.9816,76.0896 Q148.1945,22.403645,144.27838,107.3009 Q140.36227,192.19817,186.09647,157.16382 Q231.83066,122.12946,224.21896,116.550606 Q216.60725,110.971756,212.65555,96.61742 Q208.70384,82.26308,221.50284,100.46855 Q234.30183,118.67403,217.84659,82.28154 Q201.39133,45.889053,208.12244,100.64153 Q214.85355,155.39401,186.61551,106.4123 Q158.37747,57.430588,153.56665,47.039436 Q148.75581,36.648285,172.9161,39.96385 Q197.0764,43.279415,162.30707,42.63602 Q127.53774,41.992622,160.2396,52.273083 Q192.94145,62.553543,143.18929,87.856674 Q93.43713,113.159805,152.1818,113.371086 Q210.92647,113.58237,181.10492,82.06352 Q151.28337,50.544685,132.16705,46.966568 Q113.05073,43.38845,106.43892,60.757687 Q99.8271,78.12692,131.3988,122.82009 Q162.97049,167.51326,156.99472,98.58451 Q151.01894,29.65577,181.1454,81.949394 Q211.27187,134.24303,197.848,146.39435 Q184.42415,158.54567,161.0833,91.37721 Q137.74245,24.208748,149.89201,39.333023 Q162.04158,54.4573,146.13618,52.59345 Q130.23079,50.7296,117.673004,66.159706 Q105.11522,81.589806,96.23651,93.63049 Q87.357796,105.67118,114.94591,68.484474 Q142.53403,31.297773,170.56367,34.03756 Q198.59332,36.777344,178.46451,97.99495 Q158.3357,159.21255,136.57645,93.470726 Q114.8172,27.72891,139.85591,37.848038 Q164.8946,47.967167,130.77957,82.75612 Q96.664536,117.545074,112.873924,88.37841 Q129.08331,59.211742,163.53813,76.52912 Q197.99294,93.8465,191.99887,74.5124 Q186.0048,55.1783,186.98048,62.8473 Q187.95616,70.5163,159.94868,61.28412 Q131.94121,52.051933,119.20752,55.555466 Q106.47383,59.059,155.47305,112.746956 Q204.47226,166.43492,184.83482,100.99033 Q165.1974,35.54575,158.38321,39.99439 Q151.56902,44.443027,170.32312,51.039284 Q189.07721,57.635536,156.12643,61.487194 Q123.175644,65.33885,128.28285,43.49254 Q133.39006,21.64623,181.40996,83.617645 Q229.42987,145.58907,187.83705,91.81965 Q146.24425,38.050232,166.46361,102.62061 Q186.68297,167.191,165.35182,109.05033 Q144.02069,50.909676,134.15742,103.066284 Q124.29415,155.2229,129.03427,169.45103 Q133.77438,183.67917,144.42625,120.60938 Q155.07813,57.539593,184.15767,68.85703 Q213.23721,80.174484,183.6448,58.463932 Q154.05241,36.753387,163.8308,42.711784 Q173.60918,48.670185,164.0794,52.281616 Q154.54962,55.893044,120.93922,68.855225 Q87.328804,81.817406,129.13513,127.15728 Q170.94145,172.49716,159.76752,111.06501 Q148.59358,49.632862,153.68887,52.449482 Q158.78416,55.2661,173.02162,64.47668 Q187.25906,73.68725,161.12512,52.347923 Q134.99118,31.008593,139.76361,28.167528 Q144.53604,25.326462,170.46017,94.23488 Q196.38431,163.1433,133.31561,145.86385 Q70.24692,128.5844,99.86056,92.604614 Q129.4742,56.624832,120.89674,59.96701 Q112.3193,63.30919,151.05696,67.310455 Q189.79463,71.31172,142.64769,67.445465 Q95.50075,63.57921,159.27461,84.15061 Q223.04848,104.72202,188.09131,80.73445 Q153.13414,56.746872,161.46733,55.515553 Q169.8005,54.284233,158.32262,38.523865 Q146.84473,22.763496,150.09247,29.35808 Q153.34021,35.952663,150.56499,47.508377 Q147.78978,59.064087,120.53536,96.673386 Q93.280945,134.28268,154.92902,143.15976 Q216.57709,152.03683,161.93452,94.6819 Q107.29198,37.326958,162.99733,63.72991 Q218.70268,90.13286,147.0004,114.20203 Q75.29811,138.2712,147.72131,117.05883 Q220.1445,95.84648,186.05728,76.38005 Q151.97006,56.913624,116.03853,76.70122 Q80.106995,96.488815,140.77403,101.370316 Q201.44106,106.25181,208.43126,114.51551 Q215.42145,122.779205,162.40248,96.81771 Q109.38352,70.85622,105.80807,58.653553 Q102.23261,46.450893,159.49768,77.2557 Q216.76276,108.06051,195.27956,83.68938 Q173.79636,59.31824,185.78122,72.16171 Q197.76608,85.00519,204.45808,76.98963 Q211.15009,68.974075,136.921,84.63756 Q62.691944,100.30104,69.8285,90.30319 Q76.96505,80.30534,132.33183,113.11392 Q187.69862,145.9225,144.21269,163.73897 Q100.726776,181.55544,90.50428,121.65901 Q80.28179,61.762596,142.85054,88.75839 Q205.41928,115.75418,208.13455,85.571724 Q210.84982,55.389267,180.0186,47.20625 Q149.1874,39.02323,185.18764,64.226395 Q221.18788,89.42956,164.72124,66.39054 Q108.25461,43.35152,136.8826,49.0822 Q165.5106,54.81288,118.38846,66.37632 Q71.26631,77.93976,89.71697,56.076275 Q108.16763,34.212788,140.65358,37.544437 Q173.13951,40.876087,128.58984,99.78924 Q84.04018,158.7024,145.94106,149.06355 Q207.84192,139.42471,189.80695,89.64142 Q171.77197,39.85813,125.815506,76.89856 Q79.85903,113.93899,86.83841,103.045906 Q93.817795,92.15283,157.72388,111.51115 Q221.62997,130.86946,208.9541,83.27079 Q196.27823,35.67212,164.3379,29.986305 Q132.39758,24.300491,114.52944,83.15515 Q96.66131,142.00981,139.395,105.6238" fill="none" stroke="green" stroke-width="0.5" style="mix-blend-mode: multiply;"/>
<g inkscape:groupmode="layer" inkscape:label="signature">
<path d="m 15.815664,12.893319 c -1.445284,-3.0999497 -5.555449,-0.3575 -5.08537,2.32203 1.697826,2.92736 4.504013,-3.54417 4.40859,-2.58178 -1.548999,2.22986 0.741131,6.08701 3.012419,3.25791 2.532153,-2.82358 0.259001,-7.8326797 -3.488671,-7.9011197 -3.217272,0.056 -5.8863857,2.4603197 -7.9308737,4.7238797 -2.354585,2.46752 0.0048,5.887 2.757763,6.62143 3.2195457,1.10867 6.8759417,1.30834 9.9459317,-0.36585 2.270396,-1.12373 5.025949,-2.62031 5.680576,-5.20027 -2.108811,-3.66096 -6.038415,1.28356 -3.842036,3.67822 1.07278,0.89979 4.586982,-2.27037 3.201668,-2.73503 0.03094,3.24357 1.226854,6.37852 1.337023,9.60311 -0.672198,3.54892 -7.469251,0.32096 -4.637082,-2.5164 2.158436,-2.4193 5.610472,-2.84094 8.202925,-4.57369 0.993877,-1.40371 0.353413,-5.25046 3.182464,-3.48957 2.142923,1.43516 -2.250898,5.7532 1.723416,5.02339 1.661189,-0.71663 6.494946,-1.40457 4.601401,-3.95236 -4.205319,-0.68052 -1.190571,5.86505 1.665411,3.46881 1.929752,-0.9247 2.778055,-4.05119 1.423645,-5.35034 0.479155,1.8589 3.849911,7.52574 4.880369,3.32696 0.21201,-1.28088 0.40468,-3.80204 1.01246,-1.23041 0.5858,2.6865 3.83412,4.91909 4.56937,1.07383 0.65272,-1.00894 -0.2696,-4.02739 0.99929,-1.35746 1.10974,2.31613 6.32001,1.46113 6.147,-1.13059 -1.98394,-2.13868 -5.3717,1.45205 -3.78252,3.73454 2.57741,0.96208 6.69797,-0.21041 7.06275,-3.33983 0.41287,-2.63769 0.26643,-5.3430297 -0.11178,-7.9756197 0.67418,3.94149 1.24889,7.9380497 2.39963,11.7713397 2.10586,1.67977 5.7434,1.65022 7.74596,-0.23639 3.03149,-1.85431 -0.26637,-4.76925 -2.71777,-4.54025 -2.11577,0.0793 -5.36257,2.40772 -5.16868,3.85604 2.08262,-2.38818 5.55759,-1.22628 8.30726,-1.6832 3.182,-0.26596 6.46546,-0.57372 9.54494,-1.18158 0.24171,0.4199 -0.27752,0.54338 -0.43067,0.17453" fill="none" stroke="green" stroke-width="1" transform="translate(197,180) scale(0.44999999999999996)"/>
</g>
</g>
</svg>