<svg height="100mm" style="background:white" viewBox="0 0 100 100" width="100mm" xmlns="http://www.w3.org/2000/svg" xmlns:inkscape="http://www.inkscape.org/namespaces/inkscape">
<g inkscape:groupmode="layer" inkscape:label="#000">
<path d="M50,50 l10.392304,6 M60.392303,56 l8.21088,-3.1005726 M68.60319,52.89943 l2.0501807,-6.0831494 M70.653366,46.816277 l-2.49235,-3.9789674 M68.16102,42.83731 l-3.406538,-0.43338633 M64.75448,42.403923 l-1.8237637,1.7268852 M62.930714,44.13081 l0.13212438,1.8322415 M63.06284,45.96305 l1.0980607,0.77425456 M64.1609,46.737305 l0.94695663,-0.26260257 M64.1609,46.737305 l-0.84257907,0.5406137 M63.06284,45.96305 l-1.2871298,-0.46558037 M61.775707,45.49747 l-0.85989326,0.5126268 M61.775707,45.49747 l0.68258685,-0.7577429 M62.930714,44.13081 l-0.5640802,-1.7843717 M62.366634,42.34644 l-1.2711312,-0.5076356 M61.0955,41.838802 l-0.8762782,0.48408595 M61.0955,41.838802 l0.70712435,-0.73489743 M62.366634,42.34644 l1.3855107,0.1570665 M63.752144,42.503506 l0.73089767,-0.7112578 M63.752144,42.503506 l-0.49725375,0.912232 M64.75448,42.403923 l1.4686192,-2.0952182 M66.2231,40.30871 l-0.50512475,-1.8019483 M65.71797,38.50676 l-1.2537588,-0.5491422 M64.46421,37.957615 l-0.8917162,0.45502192 M64.46421,37.957615 l0.73089767,-0.7112578 M65.71797,38.50676 l1.3795995,0.2025221 M67.09757,38.709282 l0.7538811,-0.6868496 M67.09757,38.709282 l-0.5269693,0.8953948 M66.2231,40.30871 l0.9265326,1.6661735 M67.14963,41.97488 l1.3721973,0.24775884 M68.52183,42.222637 l0.7760499,-0.66169906 M68.52183,42.222637 l-0.5561154,0.87759 M67.14963,41.97488 l-1.414952,0.12546402 M65.73468,42.100346 l-0.5846605,0.8588368 M65.73468,42.100346 l0.31050712,-1.0118451 M68.16102,42.83731 l3.4952474,-0.1465486 M71.656265,42.69076 l1.5366936,-2.0458138 M73.192955,40.644947 l-0.44562343,-1.8175777 M72.74733,38.82737 l-1.2350315,-0.59005535 M71.5123,38.237316 l-0.9061905,0.42546615 M71.5123,38.237316 l0.7538811,-0.6868496 M72.74733,38.82737 l1.3721973,0.24775884 M74.11953,39.07513 l0.7760499,-0.66169906 M74.11953,39.07513 l-0.5561154,0.87759 M73.192955,40.644947 l0.87126637,1.6957275 M74.064224,42.340675 l1.3633122,0.29272783 M75.427536,42.633404 l0.79738,-0.6358335 M75.427536,42.633404 l-0.5846605,0.8588368 M74.064224,42.340675 l-1.4183114,0.07888806 M72.64591,42.419563 l-0.61257374,0.8391555 M72.64591,42.419563 l0.34359777,-1.0010922 M71.656265,42.69076 l-1.1171097,2.3550801 M70.539154,45.04584 l0.8150586,1.723449 M71.35421,46.76929 l1.3529539,0.33738047 M72.70717,47.10667 l0.8178484,-0.60928077 M72.70717,47.10667 l-0.61257374,0.8391555 M71.35421,46.76929 l-1.420138,0.032226842 M69.934074,46.801517 l-0.639825,0.81856734 M69.934074,46.801517 l0.37631708,-0.9892576 M70.539154,45.04584 l-1.2150948,-1.5151162 M69.32406,43.530727 l-1.4204298,-0.014469198 M67.903625,43.51626 l-0.6663848,0.7970946 M67.903625,43.51626 l0.40862972,-0.9763538 M69.32406,43.530727 l1.399626,-0.3676653 M70.72369,43.16306 l0.4405008,-0.962395 M70.72369,43.16306 l-0.1390328,1.0692403 M70.653366,46.816277 l3.0635905,3.6731398 M73.71696,50.489418 l3.4981756,-0.031583857 M77.21513,50.457832 l1.6031072,-1.9941988 M78.81824,48.463634 l-0.38564053,-1.8312428 M78.4326,46.632393 l-1.2149696,-0.63033086 M77.21763,46.00206 l-0.91968554,0.39545062 M77.21763,46.00206 l0.7760499,-0.66169906 M78.4326,46.632393 l1.3633122,0.29272783 M79.79591,46.92512 l0.79738,-0.6358335 M79.79591,46.92512 l-0.5846605,0.8588368 M78.81824,48.463634 l0.8150586,1.723449 M79.6333,50.187084 l1.3529539,0.33738047 M80.98625,50.524464 l0.8178484,-0.60928077 M80.98625,50.524464 l-0.61257374,0.8391555 M79.6333,50.187084 l-1.420138,0.032226842 M78.21316,50.21931 l-0.639825,0.81856734 M78.21316,50.21931 l0.37631708,-0.9892576 M77.21513,50.457832 l-1.1939152,2.317089 M76.02122,52.77492 l0.75797004,1.749308 M76.77919,54.52423 l1.3411335,0.3816685 M78.12032,54.9059 l0.837433,-0.58206964 M78.12032,54.9059 l-0.639825,0.81856734 M76.77919,54.52423 l-1.4204298,-0.014469198 M75.35876,54.50976 l-0.6663848,0.7970946 M75.35876,54.50976 l0.40862972,-0.9763538 M76.02122,52.77492 l-1.1646378,-1.5542365 M74.856575,51.220688 l-1.4191867,-0.0611496 M73.43739,51.15954 l-0.6922245,0.7747604 M73.43739,51.15954 l0.4405008,-0.962395 M74.856575,51.220688 l1.4109546,-0.3214622 M76.26753,50.899223 l0.4718958,-0.94739616 M76.26753,50.899223 l-0.17410262,1.0640928 M73.71696,50.489418 l-3.5078676,0.6291748 M70.20909,51.11859 l-1.2694308,2.2765942 M68.93966,53.395187 l0.70006233,1.7732766 M69.63972,55.168465 l1.3278637,0.4255441 M70.96758,55.59401 l0.8561126,-0.5542295 M70.96758,55.59401 l-0.6663848,0.7970946 M69.63972,55.168465 l-1.4191867,-0.0611496 M68.220535,55.107315 l-0.6922245,0.7747604 M68.220535,55.107315 l0.4405008,-0.962395 M68.93966,53.395187 l-1.1129222,-1.5916773 M67.82674,51.80351 l-1.41641,-0.10776392 M66.410324,51.695747 l-0.71731615,0.751589 M66.410324,51.695747 l0.4718958,-0.94739616 M67.82674,51.80351 l1.4207584,-0.27491173 M69.2475,51.5286 l0.50278085,-0.9313735 M69.2475,51.5286 l-0.20898429,1.0577952 M70.20909,51.11859 l0.8033276,-2.530991 M71.01241,48.5876 l-1.0600039,-1.627398 M69.952415,46.960205 l-1.4121026,-0.15426178 M68.540306,46.805943 l-0.7416326,0.7276054 M68.540306,46.805943 l0.50278085,-0.9313735 M69.952415,46.960205 l1.4290268,-0.22806418 M71.38144,46.73214 l0.5331226,-0.91434425 M71.38144,46.73214 l-0.24364012,1.0503545 M71.01241,48.5876 l1.435109,1.3620304 M72.447525,49.94963 l1.435751,-0.18097015 M73.88328,49.76866 l0.56288815,-0.89632696 M73.88328,49.76866 l-0.27803266,1.0417787 M72.447525,49.94963 l-1.3621368,0.563826 M71.08539,50.51346 l-0.31212473,1.0320772 M71.08539,50.51346 l-0.0068833656,-1.0984168 M68.60319,52.89943 l-1.4422833,6.3785553 M67.160904,59.277985 l2.9412024,3.7718525 M70.102104,63.049835 l3.4973235,0.083415024 M73.59943,63.13325 l1.6677885,-1.9404286 M75.26722,61.19282 l-0.32524088,-1.842929 M74.94198,59.34989 l-1.1935947,-0.6699252 M73.74838,58.679966 l-0.93218666,0.36500773 M73.74838,58.679966 l0.79738,-0.6358335 M74.94198,59.34989 l1.3529539,0.33738047 M76.29493,59.687275 l0.8178484,-0.60928077 M76.29493,59.687275 l-0.61257374,0.8391555 M75.26722,61.19282 l0.75797004,1.749308 M76.025185,62.94213 l1.3411335,0.3816685 M77.36632,63.3238 l0.837433,-0.58206964 M77.36632,63.3238 l-0.639825,0.81856734 M76.025185,62.94213 l-1.4204298,-0.014469198 M74.60476,62.92766 l-0.6663848,0.7970946 M74.60476,62.92766 l0.40862972,-0.9763538 M73.59943,63.13325 l-1.2694308,2.2765942 M72.329994,65.40984 l0.70006233,1.7732766 M73.03006,67.18312 l1.3278637,0.4255441 M74.357925,67.608665 l0.8561126,-0.5542295 M74.357925,67.608665 l-0.6663848,0.7970946 M73.03006,67.18312 l-1.4191867,-0.0611496 M71.61087,67.12197 l-0.6922245,0.7747604 M71.61087,67.12197 l0.4405008,-0.962395 M72.329994,65.40984 l-1.1129222,-1.5916773 M71.21707,63.81817 l-1.41641,-0.10776392 M69.80067,63.710403 l-0.71731615,0.751589 M69.80067,63.710403 l0.4718958,-0.94739616 M71.21707,63.81817 l1.4207584,-0.27491173 M72.63783,63.543255 l0.50278085,-0.9313735 M72.63783,63.543255 l-0.20898429,1.0577952 M70.102104,63.049835 l-3.5266526,0.5135345 M66.575455,63.56337 l-1.3435744,2.233639 M65.23188,65.79701 l0.6413981,1.7953287 M65.873276,67.59234 l1.313159,0.46895984 M67.18643,68.061295 l0.87386703,-0.5257904 M67.18643,68.061295 l-0.6922245,0.7747604 M65.873276,67.59234 l-1.41641,-0.10776392 M64.45686,67.48457 l-0.71731615,0.751589 M64.45686,67.48457 l0.4718958,-0.94739616 M65.23188,65.79701 l-1.0600039,-1.627398 M64.171875,64.16961 l-1.4121026,-0.15426178 M62.75977,64.01535 l-0.7416326,0.7276054 M62.75977,64.01535 l0.50278085,-0.9313735 M64.171875,64.16961 l1.4290268,-0.22806418 M65.6009,63.941547 l0.5331226,-0.91434425 M65.6009,63.941547 l-0.24364012,1.0503545 M66.575455,63.56337 l0.8860849,-2.503219 M67.46153,61.06015 l-1.00594,-1.66136 M66.4556,59.398792 l-1.4062691,-0.20059295 M65.049324,59.198196 l-0.76514757,0.70283544 M65.049324,59.198196 l0.5331226,-0.91434425 M66.4556,59.398792 l1.435751,-0.18097015 M67.89135,59.21782 l0.56288815,-0.89632696 M67.89135,59.21782 l-0.27803266,1.0417787 M67.46153,61.06015 l1.3895649,1.4084651 M68.851105,62.468616 l1.4409235,-0.13368055 M70.29202,62.334934 l0.5920455,-0.87734103 M70.29202,62.334934 l-0.31212473,1.0320772 M68.851105,62.468616 l-1.3799332,0.5187492 M67.47117,62.987366 l-0.34587952,1.0212603 M67.47117,62.987366 l0.029224303,-1.0980495 M67.160904,59.277985 l-3.4881377,-3.40228 M63.672764,55.8757 l-3.5416265,0.3973392 M60.131138,56.27304 l-1.4162661,2.18827 M58.71487,58.46131 l0.5820407,1.8154409 M59.296913,60.276752 l1.2970352,0.5118688 M60.59395,60.78862 l0.8906771,-0.49678308 M60.59395,60.78862 l-0.71731615,0.751589 M59.296913,60.276752 l-1.4121026,-0.15426178 M57.884808,60.12249 l-0.7416326,0.7276054 M57.884808,60.12249 l0.50278085,-0.9313735 M58.71487,58.46131 l-1.00594,-1.66136 M57.70893,56.799953 l-1.4062691,-0.20059295 M56.30266,56.599358 l-0.76514757,0.70283544 M56.30266,56.599358 l0.5331226,-0.91434425 M57.70893,56.799953 l1.435751,-0.18097015 M59.144684,56.61898 l0.56288815,-0.89632696 M59.144684,56.61898 l-0.27803266,1.0417787 M60.131138,56.27304 l0.9678846,-2.4727414 M61.099022,53.8003 l-0.9507891,-1.6935266 M60.14823,52.106773 l-1.398916,-0.24670734 M58.749317,51.860065 l-0.7878357,0.677306 M58.749317,51.860065 l0.56288815,-0.89632696 M60.14823,52.106773 l1.4409235,-0.13368055 M61.589157,51.973095 l0.5920455,-0.87734103 M61.589157,51.973095 l-0.31212473,1.0320772 M61.099022,53.8003 l1.3425192,1.4533778 M62.44154,55.253677 l1.4445388,-0.08624649 M63.88608,55.16743 l0.620563,-0.857407 M63.88608,55.16743 l-0.34587952,1.0212603 M62.44154,55.253677 l-1.3962384,0.47311178 M61.045303,55.72679 l-0.3792605,1.0093397 M61.045303,55.72679 l0.06530039,-1.0964956 M63.672764,55.8757 l3.4890382,-1.0039285 M67.161804,54.871773 l1.0486383,-2.439592 M68.21044,52.432182 l-0.89461064,-1.7238631 M67.31583,50.70832 l-1.390051,-0.29255512 M65.92578,50.415764 l-0.8096724,0.6510446 M65.92578,50.415764 l0.5920455,-0.87734103 M67.31583,50.70832 l1.4445388,-0.08624649 M68.76037,50.622074 l0.620563,-0.857407 M68.76037,50.622074 l-0.34587952,1.0212603 M68.21044,52.432182 l1.2940226,1.49672 M69.50446,53.9289 l1.4465932,-0.038719226 M70.95106,53.890182 l0.64840984,-0.83654636 M70.95106,53.890182 l-0.3792605,1.0093397 M69.50446,53.9289 l-1.4110347,0.42696306 M68.09343,54.355865 l-0.41223165,0.99632835 M68.09343,54.355865 l0.10130591,-1.0937568 M67.161804,54.871773 l-0.5497382,2.6487107 M66.61206,57.520485 l1.2441275,1.5384445 M67.85619,59.05893 l1.4470842,0.008849879 M69.303276,59.06778 l0.67555594,-0.8147817 M69.303276,59.06778 l-0.41223165,0.99632835 M67.85619,59.05893 l-1.4243062,0.38035294 M66.431885,59.43928 l-0.4447573,0.9822403 M66.431885,59.43928 l0.13720195,-1.089836 M66.61206,57.520485 l-1.5965319,-1.2303563 M65.01553,56.29013 l-1.4360385,0.3333318 M63.579494,56.62346 l-0.47680232,0.9670908 M63.579494,56.62346 l0.17294972,-1.0847374 M65.01553,56.29013 l1.3214569,-0.7136162 M66.33699,55.57651 l0.2085106,-1.0784665 M66.33699,55.57651 l0.12168892,1.112377 M60.392303,56 l-8.1239395,3.734506 M52.268364,59.734505 l-1.6511612,6.327702 M50.617203,66.06221 l2.815636,3.866489 M53.43284,69.928696 l3.492692,0.19832376 M56.925533,70.12702 l1.7306675,-1.8845614 M58.6562,68.24246 l-0.26448977,-1.8526236 M58.39171,66.38984 l-1.1709299,-0.7087956 M57.22078,65.68104 l-0.94368047,0.33417037 M57.22078,65.68104 l0.8178484,-0.60928077 M58.39171,66.38984 l1.3411335,0.3816685 M59.732845,66.77151 l0.837433,-0.58206964 M59.732845,66.77151 l-0.639825,0.81856734 M58.6562,68.24246 l0.70006233,1.7732766 M59.356262,70.01574 l1.3278637,0.4255441 M60.684124,70.44128 l0.8561126,-0.5542295 M60.684124,70.44128 l-0.6663848,0.7970946 M59.356262,70.01574 l-1.4191867,-0.0611496 M57.937077,69.95459 l-0.6922245,0.7747604 M57.937077,69.95459 l0.4405008,-0.962395 M56.925533,70.12702 l-1.3435744,2.233639 M55.58196,72.36066 l0.6413981,1.7953287 M56.223354,74.15599 l1.313159,0.46895984 M57.536514,74.62495 l0.87386703,-0.5257904 M57.536514,74.62495 l-0.6922245,0.7747604 M56.223354,74.15599 l-1.41641,-0.10776392 M54.806946,74.048225 l-0.71731615,0.751589 M54.806946,74.048225 l0.4718958,-0.94739616 M55.58196,72.36066 l-1.0600039,-1.627398 M54.521954,70.73326 l-1.4121026,-0.15426178 M53.10985,70.579 l-0.7416326,0.7276054 M53.10985,70.579 l0.50278085,-0.9313735 M54.521954,70.73326 l1.4290268,-0.22806418 M55.95098,70.505196 l0.5331226,-0.91434425 M55.95098,70.505196 l-0.24364012,1.0503545 M53.43284,69.928696 l-3.5416265,0.3973392 M49.891212,70.326035 l-1.4162661,2.18827 M48.47495,72.514305 l0.5820407,1.8154409 M49.056988,74.32975 l1.2970352,0.5118688 M50.354023,74.84161 l0.8906771,-0.49678308 M50.354023,74.84161 l-0.71731615,0.751589 M49.056988,74.32975 l-1.4121026,-0.15426178 M47.644886,74.17548 l-0.7416326,0.7276054 M47.644886,74.17548 l0.50278085,-0.9313735 M48.47495,72.514305 l-1.00594,-1.66136 M47.46901,70.85294 l-1.4062691,-0.20059295 M46.06274,70.65235 l-0.76514757,0.70283544 M46.06274,70.65235 l0.5331226,-0.91434425 M47.46901,70.85294 l1.435751,-0.18097015 M48.90476,70.671974 l0.56288815,-0.89632696 M48.90476,70.671974 l-0.27803266,1.0417787 M49.891212,70.326035 l0.9678846,-2.4727414 M50.8591,67.853294 l-0.9507891,-1.6935266 M49.90831,66.15977 l-1.398916,-0.24670734 M48.50939,65.91306 l-0.7878357,0.677306 M48.50939,65.91306 l0.56288815,-0.89632696 M49.90831,66.15977 l1.4409235,-0.13368055 M51.34923,66.026085 l0.5920455,-0.87734103 M51.34923,66.026085 l-0.31212473,1.0320772 M50.8591,67.853294 l1.3425192,1.4533778 M52.20162,69.30667 l1.4445388,-0.08624649 M53.646156,69.22043 l0.620563,-0.857407 M53.646156,69.22043 l-0.34587952,1.0212603 M52.20162,69.30667 l-1.3962384,0.47311178 M50.805378,69.779785 l-0.3792605,1.0093397 M50.805378,69.779785 l0.06530039,-1.0964956 M50.617203,66.06221 l-3.3744233,-3.5150936 M47.242783,62.547115 l-3.552773,0.28071448 M43.69001,62.827827 l-1.4874272,2.1405363 M42.20258,64.96837 l0.5220543,1.8335911 M42.724636,66.801956 l1.2795097,0.55422455 M44.004147,67.35618 l0.9065246,-0.4672389 M44.004147,67.35618 l-0.7416326,0.7276054 M42.724636,66.801956 l-1.4062691,-0.20059295 M41.318367,66.601364 l-0.76514757,0.70283544 M41.318367,66.601364 l0.5331226,-0.91434425 M42.20258,64.96837 l-0.9507891,-1.6935266 M41.251793,63.274837 l-1.398916,-0.24670734 M39.852875,63.028133 l-0.7878357,0.677306 M39.852875,63.028133 l0.56288815,-0.89632696 M41.251793,63.274837 l1.4409235,-0.13368055 M42.692715,63.14116 l0.5920455,-0.87734103 M42.692715,63.14116 l-0.31212473,1.0320772 M43.69001,62.827827 l1.0486383,-2.439592 M44.738647,60.388237 l-0.89461064,-1.7238631 M43.844036,58.664375 l-1.390051,-0.29255512 M42.453983,58.37182 l-0.8096724,0.6510446 M42.453983,58.37182 l0.5920455,-0.87734103 M43.844036,58.664375 l1.4445388,-0.08624649 M45.288574,58.57813 l0.620563,-0.857407 M45.288574,58.57813 l-0.34587952,1.0212603 M44.738647,60.388237 l1.2940226,1.49672 M46.03267,61.884956 l1.4465932,-0.038719226 M47.479263,61.846237 l0.64840984,-0.83654636 M47.479263,61.846237 l-0.3792605,1.0093397 M46.03267,61.884956 l-1.4110347,0.42696306 M44.621635,62.31192 l-0.41223165,0.99632835 M44.621635,62.31192 l0.10130591,-1.0937568 M47.242783,62.547115 l3.5201511,-0.8887046 M50.76293,61.65841 l1.128259,-2.403806 M51.89119,59.254604 l-0.83746547,-1.7523367 M51.053726,57.502266 l-1.379684,-0.33808672 M49.67404,57.16418 l-0.8306342,0.6240796 M49.67404,57.16418 l0.620563,-0.857407 M51.053726,57.502266 l1.4465932,-0.038719226 M52.50032,57.463547 l0.64840984,-0.83654636 M52.50032,57.463547 l-0.3792605,1.0093397 M51.89119,59.254604 l1.2441275,1.5384445 M53.13532,60.79305 l1.4470842,0.008849879 M54.5824,60.8019 l0.67555594,-0.8147817 M54.5824,60.8019 l-0.41223165,0.99632835 M53.13532,60.79305 l-1.4243062,0.38035294 M51.711014,61.1734 l-0.4447573,0.9822403 M51.711014,61.1734 l0.13720195,-1.089836 M50.76293,61.65841 l-0.63650185,2.6292102 M50.12643,64.28762 l1.192888,1.5785066 M51.319317,65.86613 l1.4460113,0.056409422 M52.76533,65.92254 l0.70197207,-0.79213655 M52.76533,65.92254 l-0.4447573,0.9822403 M51.319317,65.86613 l-1.4360385,0.3333318 M49.88328,66.199455 l-0.47680232,0.9670908 M49.88328,66.199455 l0.17294972,-1.0847374 M50.12643,64.28762 l-1.5552285,-1.282168 M48.5712,63.00545 l-1.4462188,0.28595042 M47.124985,63.2914 l-0.5083321,0.9508962 M47.124985,63.2914 l0.2085106,-1.0784665 M48.5712,63.00545 l1.3441988,-0.6697956 M49.9154,62.335655 l0.24384613,-1.0710303 M49.9154,62.335655 l0.08506035,1.1157758 M52.268364,59.734505 l1.0123912,-6.5847044 M53.280758,53.149803 l-3.257062,-3.6241083 M50.023693,49.525692 l-3.56008,0.16378644 M46.463615,49.68948 l-1.556981,2.0904894 M44.906635,51.77997 l0.4615038,1.8497597 M45.368137,53.62973 l1.2606015,0.59598136 M46.62874,54.22571 l0.9213925,-0.43718982 M46.62874,54.22571 l-0.76514757,0.70283544 M45.368137,53.62973 l-1.398916,-0.24670734 M43.969223,53.383022 l-0.7878357,0.677306 M43.969223,53.383022 l0.56288815,-0.89632696 M44.906635,51.77997 l-0.89461064,-1.7238631 M44.012024,50.056107 l-1.390051,-0.29255512 M42.62197,49.76355 l-0.8096724,0.6510446 M42.62197,49.76355 l0.5920455,-0.87734103 M44.012024,50.056107 l1.4445388,-0.08624649 M45.456562,49.96986 l0.620563,-0.857407 M45.456562,49.96986 l-0.34587952,1.0212603 M46.463615,49.68948 l1.128259,-2.403806 M47.591873,47.285675 l-0.83746547,-1.7523367 M46.75441,45.533337 l-1.379684,-0.33808672 M45.374725,45.19525 l-0.8306342,0.6240796 M45.374725,45.19525 l0.620563,-0.857407 M46.75441,45.533337 l1.4465932,-0.038719226 M48.201,45.494617 l0.64840984,-0.83654636 M48.201,45.494617 l-0.3792605,1.0093397 M47.591873,47.285675 l1.2441275,1.5384445 M48.836002,48.82412 l1.4470842,0.008849879 M50.283085,48.83297 l0.67555594,-0.8147817 M50.283085,48.83297 l-0.41223165,0.99632835 M48.836002,48.82412 l-1.4243062,0.38035294 M47.411694,49.20447 l-0.4447573,0.9822403 M47.411694,49.20447 l0.13720195,-1.089836 M50.023693,49.525692 l3.54746,-0.77252024 M53.571156,48.753174 l1.2066602,-2.3654222 M54.777817,46.38775 l-0.77941525,-1.7789166 M53.998398,44.608833 l-1.3678259,-0.38325298 M52.630573,44.225582 l-0.8506983,0.5964402 M52.630573,44.225582 l0.64840984,-0.83654636 M53.998398,44.608833 l1.4470842,0.008849879 M55.445484,44.617683 l0.67555594,-0.8147817 M55.445484,44.617683 l-0.41223165,0.99632835 M54.777817,46.38775 l1.192888,1.5785066 M55.970703,47.96626 l1.4460113,0.056409422 M57.416714,48.022667 l0.70197207,-0.79213655 M57.416714,48.022667 l-0.4447573,0.9822403 M55.970703,47.96626 l-1.4360385,0.3333318 M54.534664,48.299587 l-0.47680232,0.9670908 M54.534664,48.299587 l0.17294972,-1.0847374 M53.571156,48.753174 l-0.7225777,2.6068683 M52.848576,51.360043 l1.1403594,1.6168628 M53.988937,52.976902 l1.443376,0.103908 M55.432312,53.08081 l0.7276296,-0.76863533 M55.432312,53.08081 l-0.47680232,0.9670908 M53.988937,52.976902 l-1.4462188,0.28595042 M52.542717,53.262856 l-0.5083321,0.9508962 M52.542717,53.262856 l0.2085106,-1.0784665 M52.848576,51.360043 l-1.5122445,-1.3325942 M51.336334,50.027447 l-1.4548364,0.23826002 M49.881496,50.265705 l-0.5393125,0.933674 M49.881496,50.265705 l0.24384613,-1.0710303 M51.336334,50.027447 l1.365488,-0.62525105 M52.70182,49.402195 l0.27891815,-1.0624366 M52.70182,49.402195 l0.048339866,1.1179688 M53.280758,53.149803 l3.7866187,3.2096598 M57.067375,56.359463 l3.5709352,-0.65550107 M60.63831,55.70396 l1.2837574,-2.3244822 M61.92207,53.37948 l-0.72052276,-1.8035741 M61.201546,51.575905 l-1.3544896,-0.42800507 M59.847057,51.1479 l-0.86984307,0.5681563 M59.847057,51.1479 l0.67555594,-0.8147817 M61.201546,51.575905 l1.4460113,0.056409422 M62.647556,51.632313 l0.70197207,-0.79213655 M62.647556,51.632313 l-0.4447573,0.9822403 M61.92207,53.37948 l1.1403594,1.6168628 M63.062428,54.99634 l1.443376,0.103908 M64.505806,55.10025 l0.7276296,-0.76863533 M64.505806,55.10025 l-0.47680232,0.9670908 M63.062428,54.99634 l-1.4462188,0.28595042 M61.616207,55.28229 l-0.5083321,0.9508962 M61.616207,55.28229 l0.2085106,-1.0784665 M60.63831,55.70396 l-0.8078726,2.5817094 M59.830437,58.28567 l1.0865984,1.6534717 M60.917038,59.93914 l1.4391806,0.15129429 M62.356216,60.090435 l0.7525008,-0.7443035 M62.356216,60.090435 l-0.5083321,0.9508962 M60.917038,59.93914 l-1.4548364,0.23826002 M59.4622,60.177402 l-0.5393125,0.933674 M59.4622,60.177402 l0.24384613,-1.0710303 M59.830437,58.28567 l-1.4676262,-1.3815802 M58.362812,56.90409 l-1.4618816,0.19031215 M56.900932,57.094402 l-0.5697101,0.9154428 M56.900932,57.094402 l0.27891815,-1.0624366 M58.362812,56.90409 l1.3853016,-0.58003086 M59.748116,56.32406 l0.31368876,-1.0526948 M59.748116,56.32406 l0.011567143,1.1189536 M57.067375,56.359463 l-3.474382,1.2682095 M53.592995,57.62767 l-0.89229447,2.5537603 M52.7007,60.18143 l1.0316632,1.6882938 M53.73236,61.869724 l1.4334301,0.19851708 M55.16579,62.06824 l0.7765587,-0.71916735 M55.16579,62.06824 l-0.5393125,0.933674 M53.73236,61.869724 l-1.4618816,0.19031215 M52.27048,62.060036 l-0.5697101,0.9154428 M52.27048,62.060036 l0.27891815,-1.0624366 M52.7007,60.18143 l-1.4214219,-1.4290732 M51.279278,58.752357 l-1.467347,0.14215861 M49.81193,58.894516 l-0.599492,0.8962223 M49.81193,58.894516 l0.31368876,-1.0526948 M51.279278,58.752357 l1.4036182,-0.53418386 M52.682896,58.218174 l0.34812036,-1.0418153 M52.682896,58.218174 l-0.025218083,1.1187292 M53.592995,57.62767 l0.3704255,-2.73082 M53.96342,54.89685 l-1.3736815,-1.4750218 M52.589737,53.42183 l-1.4712268,0.093851455 M51.11851,53.51568 l-0.6286261,0.8760333 M51.11851,53.51568 l0.34812036,-1.0418153 M52.589737,53.42183 l1.4204179,-0.4877596 M54.010155,52.93407 l0.38217577,-1.02981 M54.010155,52.93407 l-0.061976057,1.1172957 M53.96342,54.89685 l1.7099161,1.136882 M55.673336,56.033733 l1.4356827,-0.44080824 M57.109016,55.592926 l0.41581818,-1.0166917 M57.109016,55.592926 l-0.098667055,1.114655 M55.673336,56.033733 l-1.2922121,0.8191285 M54.381123,56.85286 l-0.13525142,1.1108096 M54.381123,56.85286 l-0.20272355,-1.1218036 M50,50 l-10.392304,6 M39.607697,56 l-1.4202654,8.661117 M38.18743,64.66112 l4.2430716,4.8170834 M42.4305,69.4782 l4.692062,-0.16895477 M47.122562,69.30924 l2.0785925,-2.7334552 M49.201157,66.57579 l-0.58364457,-2.4428685 M48.61751,64.13292 l-1.6528299,-0.80169773 M46.96468,63.331223 l-1.2195545,0.56382126 M45.745125,63.895046 l-0.24605784,0.9513898 M45.745125,63.895046 l-0.0468957,-1.0000017 M46.96468,63.331223 l1.0467693,-0.8818969 M48.01145,62.449326 l-0.014001226,-1.0010028 M48.01145,62.449326 l0.31493115,0.97000897 M48.61751,64.13292 l1.8273513,0.4036781 M50.444862,64.5366 l1.0751909,-0.84701407 M51.520054,63.689587 l0.018908381,-1.0009221 M51.520054,63.689587 l0.28287768,0.97983634 M50.444862,64.5366 l-0.8287789,1.1213542 M49.616085,65.65795 l0.25051853,0.98860484 M49.616085,65.65795 l-0.5413892,-0.8867504 M49.201157,66.57579 l1.0802026,2.3194706 M50.281357,68.89526 l1.8130955,0.46352333 M52.09445,69.35879 l1.1024505,-0.8112158 M53.196903,68.54757 l0.051797554,-0.9997598 M53.196903,68.54757 l0.25051853,0.98860484 M52.09445,69.35879 l-0.865189,1.0935072 M51.229263,70.45229 l0.21788862,0.996305 M51.229263,70.45229 l-0.51195,-0.9040662 M50.281357,68.89526 l-1.906215,-0.030685984 M48.375145,68.86458 l-0.9006641,1.0644783 M47.47448,69.929054 l0.18502326,1.0029285 M47.47448,69.929054 l-0.48195755,-0.92040503 M48.375145,68.86458 l0.598821,-1.2881163 M48.973965,67.57646 l-0.45144427,-0.93574923 M48.973965,67.57646 l0.72103,0.77482957 M47.122562,69.30924 l-1.6207088,3.1002471 M45.501854,72.40949 l1.0033801,2.3537226 M46.505234,74.763214 l1.7968801,0.5228676 M48.302113,75.28608 l1.1285187,-0.77454096 M49.430634,74.51154 l0.08463075,-0.99751705 M49.430634,74.51154 l0.21788862,0.996305 M48.302113,75.28608 l-0.9006641,1.0644783 M47.40145,76.35056 l0.18502326,1.0029285 M47.40145,76.35056 l-0.48195755,-0.92040503 M46.505234,74.763214 l-1.9041762,-0.09332493 M44.60106,74.66989 l-0.9351659,1.0342991 M43.665894,75.704185 l0.15195796,1.008468 M43.665894,75.704185 l-0.45144427,-0.93574923 M44.60106,74.66989 l0.6408366,-1.2677376 M45.241894,73.40215 l-0.42044312,-0.9500821 M45.241894,73.40215 l0.6951724,0.7981105 M45.501854,72.40949 l-1.4810044,-2.1449852 M44.02085,70.2645 l-1.9000798,-0.15586303 M42.12077,70.10864 l-0.968657,1.0030023 M41.15211,71.11165 l0.11872844,1.0129179 M41.15211,71.11165 l-0.42044312,-0.9500821 M42.12077,70.10864 l0.6821597,-1.245989 M42.80293,68.862656 l-0.3889876,-0.9633884 M42.80293,68.862656 l0.66856366,0.8205289 M44.02085,70.2645 l1.9196765,-0.29474488 M45.940525,69.969765 l0.7227456,-1.2228937 M46.663273,68.74687 l-0.35711175,-0.97565347 M46.663273,68.74687 l0.6412324,0.8420606 M45.940525,69.969765 l-0.38140553,1.3959444 M45.55912,71.36571 l0.6132081,0.8626824 M45.55912,71.36571 l-0.8564729,-0.65502614 M42.4305,69.4782 l-4.7128277,0.8165774 M37.717674,70.29478 l-1.7217354,3.0453007 M35.995937,73.34008 l0.9254732,2.385431 M36.92141,75.72551 l1.778723,0.5816469 M38.700134,76.30716 l1.1533674,-0.7370291 M39.8535,75.57013 l0.11737249,-0.99419636 M39.8535,75.57013 l0.18502326,1.0029285 M38.700134,76.30716 l-0.9351659,1.0342991 M37.76497,77.34145 l0.15195796,1.008468 M37.76497,77.34145 l-0.45144427,-0.93574923 M36.92141,75.72551 l-1.9000798,-0.15586303 M35.02133,75.56965 l-0.968657,1.0030023 M34.052673,76.57265 l0.11872844,1.0129179 M34.052673,76.57265 l-0.42044312,-0.9500821 M35.02133,75.56965 l0.6821597,-1.245989 M35.70349,74.323654 l-0.3889876,-0.9633884 M35.70349,74.323654 l0.66856366,0.8205289 M35.995937,73.34008 l-1.4097004,-2.1925056 M34.58624,71.147575 l-1.8939301,-0.21823269 M32.692307,70.92934 l-1.0011014,0.9706214 M31.691206,71.89996 l0.0853706,1.016273 M31.691206,71.89996 l-0.3889876,-0.9633884 M32.692307,70.92934 l0.7227456,-1.2228937 M33.415054,69.70644 l-0.35711175,-0.97565347 M33.415054,69.70644 l0.6412324,0.8420606 M34.58624,71.147575 l1.9283272,-0.2314876 M36.514565,70.916084 l0.7625505,-1.198477 M37.277115,69.717606 l-0.32484996,-0.9868642 M37.277115,69.717606 l0.6132081,0.8626824 M36.514565,70.916084 l-0.42708287,1.3826536 M36.087482,72.29874 l0.58452123,0.88237184 M36.087482,72.29874 l-0.83448005,-0.68282366 M37.717674,70.29478 l1.2090524,-3.35249 M38.926727,66.94229 l-1.336873,-2.2376564 M37.58985,64.70463 l-1.8857337,-0.2803665 M35.70412,64.42426 l-1.0324639,0.93719167 M34.671654,65.36146 l0.05192051,1.01853 M34.671654,65.36146 l-0.35711175,-0.97565347 M35.70412,64.42426 l0.7625505,-1.198477 M36.46667,63.22579 l-0.32484996,-0.9868642 M36.46667,63.22579 l0.6132081,0.8626824 M37.58985,64.70463 l1.9348941,-0.16798018 M39.524746,64.53665 l0.8015313,-1.1727651 M40.32628,63.363888 l-0.2922371,-0.9970085 M40.32628,63.363888 l0.58452123,0.88237184 M39.524746,64.53665 l-0.47229865,1.3678688 M39.05245,65.90452 l0.55520266,0.9011077 M39.05245,65.90452 l-0.81158537,-0.7098833 M38.926727,66.94229 l1.7902387,1.9611976 M40.716965,68.90349 l1.9393699,-0.10429123 M42.656334,68.799194 l0.8396459,-1.1457858 M43.49598,67.65341 l-0.25930846,-1.0060754 M43.49598,67.65341 l0.55520266,0.9011077 M42.656334,68.799194 l-0.517004,1.3516057 M42.13933,70.1508 l0.52528405,0.91886985 M42.13933,70.1508 l-0.7878136,-0.7361758 M40.716965,68.90349 l-1.8971075,0.5618257 M38.81986,69.46531 l-0.5611507,1.3338819 M38.258705,70.799194 l0.49479783,0.9356389 M38.258705,70.799194 l-0.7631905,-0.76167274 M38.81986,69.46531 l0.19278073,-1.4615581 M39.012638,68.00375 l-0.73774266,-0.78634655 M39.012638,68.00375 l0.95469856,0.5432472 M38.18743,64.66112 l-4.8028493,-4.4383316 M33.38458,60.222786 l-4.737121,0.66122985 M28.647459,60.884014 l-1.8209013,2.9870634 M26.826557,63.87108 l0.8465662,2.4145615 M27.673124,66.28564 l1.7586437,0.6397976 M29.431768,66.92544 l1.1769696,-0.69872075 M30.608738,66.226715 l0.14998738,-0.9898012 M30.608738,66.226715 l0.15195796,1.008468 M29.431768,66.92544 l-0.968657,1.0030023 M28.463112,67.92844 l0.11872844,1.0129179 M28.463112,67.92844 l-0.42044312,-0.9500821 M27.673124,66.28564 l-1.8939301,-0.21823269 M25.779194,66.067406 l-1.0011014,0.9706214 M24.778093,67.03803 l0.0853706,1.016273 M24.778093,67.03803 l-0.3889876,-0.9633884 M25.779194,66.067406 l0.7227456,-1.2228937 M26.50194,64.84451 l-0.35711175,-0.97565347 M26.50194,64.84451 l0.6412324,0.8420606 M26.826557,63.87108 l-1.336873,-2.2376564 M25.489685,61.633423 l-1.8857337,-0.2803665 M23.60395,61.353054 l-1.0324639,0.93719167 M22.571487,62.29025 l0.05192051,1.01853 M22.571487,62.29025 l-0.35711175,-0.97565347 M23.60395,61.353054 l0.7625505,-1.198477 M24.3665,60.15458 l-0.32484996,-0.9868642 M24.3665,60.15458 l0.6132081,0.8626824 M25.489685,61.633423 l1.9348941,-0.16798018 M27.42458,61.465443 l0.8015313,-1.1727651 M28.22611,60.29268 l-0.2922371,-0.9970085 M28.22611,60.29268 l0.58452123,0.88237184 M27.42458,61.465443 l-0.47229865,1.3678688 M26.95228,62.83331 l0.55520266,0.9011077 M26.95228,62.83331 l-0.81158537,-0.7098833 M28.647459,60.884014 l1.3185923,-3.310938 M29.966051,57.57308 l-1.262601,-2.280389 M28.703451,55.292686 l-1.8754994,-0.34219736 M26.827951,54.95049 l-1.0627106,0.9027491 M25.76524,55.85324 l0.018414313,1.0196862 M25.76524,55.85324 l-0.32484996,-0.9868642 M26.827951,54.95049 l0.8015313,-1.1727651 M27.629482,53.777725 l-0.2922371,-0.9970085 M27.629482,53.777725 l0.58452123,0.88237184 M28.703451,55.292686 l1.9393699,-0.10429123 M30.64282,55.188396 l0.8396459,-1.1457858 M31.482466,54.04261 l-0.25930846,-1.0060754 M31.482466,54.04261 l0.55520266,0.9011077 M30.64282,55.188396 l-0.517004,1.3516057 M30.125816,56.54 l0.52528405,0.91886985 M30.125816,56.54 l-0.7878136,-0.7361758 M29.966051,57.57308 l1.7248087,2.0189815 M31.69086,59.59206 l1.9417499,-0.040489573 M33.63261,59.55157 l0.87685317,-1.1175683 M34.509464,58.434002 l-0.22609957,-1.014055 M34.509464,58.434002 l0.52528405,0.91886985 M33.63261,59.55157 l-0.5611507,1.3338819 M33.07146,60.885452 l0.49479783,0.9356389 M33.07146,60.885452 l-0.7631905,-0.76167274 M31.69086,59.59206 l-1.9145491,0.49916592 M29.776312,60.091225 l-0.60469097,1.3147166 M29.17162,61.40594 l0.4637769,0.95139694 M29.17162,61.40594 l-0.73774266,-0.78634655 M29.776312,60.091225 l0.24071664,-1.4544319 M30.017029,58.63679 l-0.71149755,-0.8101706 M30.017029,58.63679 l0.9363266,0.5743338 M33.38458,60.222786 l4.69053,-1.3196759 M38.07511,58.90311 l1.4267074,-3.265808 M39.501816,55.637302 l-1.1869645,-2.3206575 M38.314854,53.316643 l-1.8632382,-0.4036584 M36.451614,52.912987 l-1.0918089,0.867331 M35.359806,53.780315 l-0.015111784,1.0197405 M35.359806,53.780315 l-0.2922371,-0.9970085 M36.451614,52.912987 l0.8396459,-1.1457858 M37.29126,51.7672 l-0.25930846,-1.0060754 M37.29126,51.7672 l0.55520266,0.9011077 M38.314854,53.316643 l1.9417499,-0.040489573 M40.256603,53.276154 l0.87685317,-1.1175683 M41.133457,52.158585 l-0.22609957,-1.014055 M41.133457,52.158585 l0.52528405,0.91886985 M40.256603,53.276154 l-0.5611507,1.3338819 M39.695454,54.610035 l0.49479783,0.9356389 M39.695454,54.610035 l-0.7631905,-0.76167274 M39.501816,55.637302 l1.6575146,2.0745833 M41.159332,57.711884 l1.9420316,0.02335584 M43.101364,57.73524 l0.9131128,-1.0881431 M44.014477,56.6471 l-0.19264634,-1.0209388 M44.014477,56.6471 l0.49479783,0.9356389 M43.101364,57.73524 l-0.60469097,1.3147166 M42.496674,59.049957 l0.4637769,0.95139694 M42.496674,59.049957 l-0.73774266,-0.78634655 M41.159332,57.711884 l-1.9299217,0.43596676 M39.229412,58.14785 l-0.64757776,1.2941306 M38.581833,59.441982 l0.43225473,0.9661268 M38.581833,59.441982 l-0.71149755,-0.8101706 M39.229412,58.14785 l0.28839242,-1.4457339 M39.517803,56.702118 l-0.6844835,-0.8331191 M39.517803,56.702118 l0.9169429,0.6047996 M38.07511,58.90311 l-0.87509155,3.52356 M37.20002,62.42667 l1.5884293,2.1279435 M38.78845,64.55461 l1.9402146,0.08717601 M40.728664,64.64179 l0.94838566,-1.057542 M41.677048,63.584248 l-0.15898493,-1.0267192 M41.677048,63.584248 l0.4637769,0.95139694 M40.728664,64.64179 l-0.64757776,1.2941306 M40.081085,65.93592 l0.43225473,0.9661268 M40.081085,65.93592 l-0.71149755,-0.8101706 M38.78845,64.55461 l-1.9432087,0.37229642 M36.845238,64.92691 l-0.68976474,1.272146 M36.155476,66.19906 l0.40026549,0.97981256 M36.155476,66.19906 l-0.6844835,-0.8331191 M36.845238,64.92691 l0.3357565,-1.4354734 M37.180996,63.491436 l-0.6567298,-0.85516727 M37.180996,63.491436 l0.89656824,0.6346119 M37.20002,62.42667 l-2.0189817,-1.8004427 M35.181038,60.62623 l-1.9543958,0.30822378 M33.226643,60.934452 l-0.7312063,1.2487867 M32.495434,62.18324 l0.36784366,0.9924395 M32.495434,62.18324 l-0.6567298,-0.85516727 M33.226643,60.934452 l0.38275778,-1.4236618 M33.609398,59.510788 l-0.6282664,-0.8762913 M33.609398,59.510788 l0.87522465,0.66373837 M35.181038,60.62623 l1.8637857,-0.767459 M37.044823,59.85877 l0.42934543,-1.4103117 M37.474167,58.448456 l-0.5991241,-0.89646834 M37.474167,58.448456 l0.8529353,0.69214755 M37.044823,59.85877 l-0.042718682,1.5012233 M37.002106,61.359993 l0.8297242,0.71980876 M37.002106,61.359993 l-1.0241913,-0.45080283 M39.607697,56 l0.8277926,-8.902791 M40.43549,47.09721 l-4.6543703,-4.5937986 M35.781116,42.50341 l-4.7562957,0.5051678 M31.024822,43.00858 l-1.9180994,2.9255981 M29.106722,45.934177 l0.7667444,2.4410827 M29.873466,48.37526 l1.7366639,0.6972569 M31.61013,49.072517 l1.1992999,-0.6596573 M32.80943,48.412857 l0.1824402,-0.98433644 M32.80943,48.412857 l0.11872844,1.0129179 M31.61013,49.072517 l-1.0011014,0.9706214 M30.60903,50.043137 l0.0853706,1.016273 M30.60903,50.043137 l-0.3889876,-0.9633884 M29.873466,48.37526 l-1.8857337,-0.2803665 M27.987734,48.094894 l-1.0324639,0.93719167 M26.955269,49.032085 l0.05192051,1.01853 M26.955269,49.032085 l-0.35711175,-0.97565347 M27.987734,48.094894 l0.7625505,-1.198477 M28.750284,46.896416 l-0.32484996,-0.9868642 M28.750284,46.896416 l0.6132081,0.8626824 M29.106722,45.934177 l-1.262601,-2.280389 M27.844122,43.653786 l-1.8754994,-0.34219736 M25.968622,43.31159 l-1.0627106,0.9027491 M24.905912,44.21434 l0.018414313,1.0196862 M24.905912,44.21434 l-0.32484996,-0.9868642 M25.968622,43.31159 l0.8015313,-1.1727651 M26.770153,42.138824 l-0.2922371,-0.9970085 M26.770153,42.138824 l0.58452123,0.88237184 M27.844122,43.653786 l1.9393699,-0.10429123 M29.783491,43.549496 l0.8396459,-1.1457858 M30.623137,42.40371 l-0.25930846,-1.0060754 M30.623137,42.40371 l0.55520266,0.9011077 M29.783491,43.549496 l-0.517004,1.3516057 M29.266487,44.9011 l0.52528405,0.91886985 M29.266487,44.9011 l-0.7878136,-0.7361758 M31.024822,43.00858 l1.4267074,-3.265808 M32.45153,39.74277 l-1.1869645,-2.3206575 M31.264565,37.42211 l-1.8632382,-0.4036584 M29.401327,37.018456 l-1.0918089,0.867331 M28.309517,37.885784 l-0.015111784,1.0197405 M28.309517,37.885784 l-0.2922371,-0.9970085 M29.401327,37.018456 l0.8396459,-1.1457858 M30.240973,35.87267 l-0.25930846,-1.0060754 M30.240973,35.87267 l0.55520266,0.9011077 M31.264565,37.42211 l1.9417499,-0.040489573 M33.206314,37.381622 l0.87685317,-1.1175683 M34.083168,36.264053 l-0.22609957,-1.014055 M34.083168,36.264053 l0.52528405,0.91886985 M33.206314,37.381622 l-0.5611507,1.3338819 M32.645164,38.715504 l0.49479783,0.9356389 M32.645164,38.715504 l-0.7631905,-0.76167274 M32.45153,39.74277 l1.6575146,2.0745833 M34.109043,41.817352 l1.9420316,0.02335584 M36.051075,41.84071 l0.9131128,-1.0881431 M36.964188,40.752567 l-0.19264634,-1.0209388 M36.964188,40.752567 l0.49479783,0.9356389 M36.051075,41.84071 l-0.60469097,1.3147166 M35.446384,43.155426 l0.4637769,0.95139694 M35.446384,43.155426 l-0.73774266,-0.78634655 M34.109043,41.817352 l-1.9299217,0.43596676 M32.179123,42.25332 l-0.64757776,1.2941306 M31.531544,43.54745 l0.43225473,0.9661268 M31.531544,43.54745 l-0.71149755,-0.8101706 M32.179123,42.25332 l0.28839242,-1.4457339 M32.467514,40.807587 l-0.6844835,-0.8331191 M32.467514,40.807587 l0.9169429,0.6047996 M35.781116,42.50341 l4.731372,-1.1647894 M40.51249,41.338623 l1.5332806,-3.2171488 M42.04577,38.12147 l-1.1100452,-2.358418 M40.935726,35.763054 l-1.8489636,-0.4646832 M39.08676,35.29837 l-1.1197274,0.8309756 M37.967033,36.129345 l-0.04862155,1.0186929 M37.967033,36.129345 l-0.25930846,-1.0060754 M39.08676,35.29837 l0.87685317,-1.1175683 M39.963615,34.1808 l-0.22609957,-1.014055 M39.963615,34.1808 l0.52528405,0.91886985 M40.935726,35.763054 l1.9420316,0.02335584 M42.877758,35.78641 l0.9131128,-1.0881431 M43.79087,34.69827 l-0.19264634,-1.0209388 M43.79087,34.69827 l0.49479783,0.9356389 M42.877758,35.78641 l-0.60469097,1.3147166 M42.273064,37.101128 l0.4637769,0.95139694 M42.273064,37.101128 l-0.73774266,-0.78634655 M42.04577,38.12147 l1.5884293,2.1279435 M43.6342,40.249416 l1.9402146,0.08717601 M45.574413,40.336594 l0.94838566,-1.057542 M46.5228,39.27905 l-0.15898493,-1.0267192 M46.5228,39.27905 l0.4637769,0.95139694 M45.574413,40.336594 l-0.64757776,1.2941306 M44.926838,41.630722 l0.43225473,0.9661268 M44.926838,41.630722 l-0.71149755,-0.8101706 M43.6342,40.249416 l-1.9432087,0.37229642 M41.69099,40.62171 l-0.68976474,1.272146 M41.001225,41.89386 l0.40026549,0.97981256 M41.001225,41.89386 l-0.6844835,-0.8331191 M41.69099,40.62171 l0.3357565,-1.4354734 M42.02675,39.186237 l-0.6567298,-0.85516727 M42.02675,39.186237 l0.89656824,0.6346119 M40.51249,41.338623 l-0.9904349,3.4928927 M39.522053,44.831512 l1.5176276,2.1790037 M41.03968,47.010517 l1.9363009,0.15090197 M42.975983,47.16142 l0.98263365,-1.025798 M43.95862,46.13562 l-0.12515171,-1.0313901 M43.95862,46.13562 l0.43225473,0.9661268 M42.975983,47.16142 l-0.68976474,1.272146 M42.286217,48.433567 l0.40026549,0.97981256 M42.286217,48.433567 l-0.6844835,-0.8331191 M41.03968,47.010517 l-1.9543958,0.30822378 M39.085285,47.31874 l-0.7312063,1.2487867 M38.35408,48.567528 l0.36784366,0.9924395 M38.35408,48.567528 l-0.6567298,-0.85516727 M39.085285,47.31874 l0.38275778,-1.4236618 M39.468044,45.89508 l-0.6282664,-0.8762913 M39.468044,45.89508 l0.87522465,0.66373837 M39.522053,44.831512 l-1.9587119,-1.8658319 M37.563343,42.965683 l-1.9634708,0.24381804 M35.599873,43.2095 l-0.7718577,1.2240778 M34.828014,44.43358 l0.33502433,1.0039939 M34.828014,44.43358 l-0.6282664,-0.8762913 M35.599873,43.2095 l0.42934543,-1.4103117 M36.029217,41.799187 l-0.5991241,-0.89646834 M36.029217,41.799187 l0.8529353,0.69214755 M37.563343,42.965683 l1.8880043,-0.70578337 M39.451347,42.2599 l0.47546908,-1.3954375 M39.926815,40.86446 l-0.5693342,-0.9156766 M39.926815,40.86446 l0.8297242,0.71980876 M39.451347,42.2599 l-0.09203943,1.499008 M39.359306,43.758907 l0.8056164,0.7466921 M39.359306,43.758907 l-1.0088204,-0.48422348 M40.43549,47.09721 l5.196326,4.169109 M45.631813,51.26632 l4.767101,-1.0086442 M50.398914,50.257675 l1.6381968,-3.165013 M52.03711,47.09266 l-1.0319264,-2.3936298 M51.005184,44.69903 l-1.8326908,-0.52520585 M49.172493,44.173824 l-1.1464357,0.7937222 M48.02606,44.96755 l-0.08207878,1.0165442 M48.02606,44.96755 l-0.22609957,-1.014055 M49.172493,44.173824 l0.9131128,-1.0881431 M50.085606,43.085682 l-0.19264634,-1.0209388 M50.085606,43.085682 l0.49479783,0.9356389 M51.005184,44.69903 l1.9402146,0.08717601 M52.9454,44.786205 l0.94838566,-1.057542 M53.893784,43.728664 l-0.15898493,-1.0267192 M53.893784,43.728664 l0.4637769,0.95139694 M52.9454,44.786205 l-0.64757776,1.2941306 M52.29782,46.080338 l0.43225473,0.9661268 M52.29782,46.080338 l-0.71149755,-0.8101706 M52.03711,47.09266 l1.5176276,2.1790037 M53.554737,49.271664 l1.9363009,0.15090197 M55.49104,49.422565 l0.98263365,-1.025798 M56.473675,48.39677 l-0.12515171,-1.0313901 M56.473675,48.39677 l0.43225473,0.9661268 M55.49104,49.422565 l-0.68976474,1.272146 M54.801273,50.694714 l0.40026549,0.97981256 M54.801273,50.694714 l-0.6844835,-0.8331191 M53.554737,49.271664 l-1.9543958,0.30822378 M51.60034,49.579887 l-0.7312063,1.2487867 M50.869137,50.828674 l0.36784366,0.9924395 M50.869137,50.828674 l-0.6567298,-0.85516727 M51.60034,49.579887 l0.38275778,-1.4236618 M51.9831,48.156227 l-0.6282664,-0.8762913 M51.9831,48.156227 l0.87522465,0.66373837 M50.398914,50.257675 l-1.1047078,3.4584506 M49.294205,53.716125 l1.4451857,2.2277095 M50.73939,55.943832 l1.9302946,0.21446487 M52.669685,56.1583 l1.0158198,-0.99294543 M53.685505,55.16535 l-0.09118324,-1.0349464 M53.685505,55.16535 l0.40026549,0.97981256 M52.669685,56.1583 l-0.7312063,1.2487867 M51.93848,57.407085 l0.36784366,0.9924395 M51.93848,57.407085 l-0.6567298,-0.85516727 M50.73939,55.943832 l-1.9634708,0.24381804 M48.77592,56.187653 l-0.7718577,1.2240778 M48.004063,57.411728 l0.33502433,1.0039939 M48.004063,57.411728 l-0.6282664,-0.8762913 M48.77592,56.187653 l0.42934543,-1.4103117 M49.205265,54.77734 l-0.5991241,-0.89646834 M49.205265,54.77734 l0.8529353,0.69214755 M49.294205,53.716125 l-1.8963253,-1.9292048 M47.39788,51.78692 l-1.9704239,0.17914882 M45.427456,51.96607 l-0.8116749,1.1980462 M44.615784,53.164116 l0.30184296,1.0144634 M44.615784,53.164116 l-0.5991241,-0.89646834 M45.427456,51.96607 l0.47546908,-1.3954375 M45.902927,50.57063 l-0.5693342,-0.9156766 M45.902927,50.57063 l0.8297242,0.71980876 M47.39788,51.78692 l1.9101826,-0.64334506 M49.308064,51.143574 l0.52107894,-1.3790553 M49.829144,49.76452 l-0.53892916,-0.9338953 M49.829144,49.76452 l0.8056164,0.7466921 M49.308064,51.143574 l-0.14126071,1.4951729 M49.1668,52.63875 l0.780638,0.7727685 M49.1668,52.63875 l-0.9923593,-0.51712084 M45.631813,51.26632 l-4.6729565,1.6744782 M40.95886,52.940796 l-1.217787,3.4202712 M39.74107,56.36107 l1.3711821,2.2740076 M41.11225,58.635075 l1.9222023,0.277796 M43.034454,58.912872 l1.0479081,-0.95901984 M44.082363,57.95385 l-0.057116233,-1.0373844 M44.082363,57.95385 l0.36784366,0.9924395 M43.034454,58.912872 l-0.7718577,1.2240778 M42.262596,60.136948 l0.33502433,1.0039939 M42.262596,60.136948 l-0.6282664,-0.8762913 M41.11225,58.635075 l-1.9704239,0.17914882 M39.141827,58.814224 l-0.8116749,1.1980462 M38.330154,60.01227 l0.30184296,1.0144634 M38.330154,60.01227 l-0.5991241,-0.89646834 M39.141827,58.814224 l0.47546908,-1.3954375 M39.6173,57.418785 l-0.5693342,-0.9156766 M39.6173,57.418785 l0.8297242,0.71980876 M39.74107,56.36107 l-1.8318895,-1.9904928 M37.90918,54.370575 l-1.9752477,0.114286 M35.933933,54.48486 l-0.850615,1.1707199 M35.083317,55.65558 l0.26833537,1.0238365 M35.083317,55.65558 l-0.5693342,-0.9156766 M35.933933,54.48486 l0.52107894,-1.3790553 M36.455013,53.105804 l-0.53892916,-0.9338953 M36.455013,53.105804 l0.8056164,0.7466921 M37.90918,54.370575 l1.9302967,-0.58021146 M39.839478,53.790363 l0.56612563,-1.3611827 M40.4056,52.42918 l-0.50794166,-0.9511048 M40.4056,52.42918 l0.780638,0.7727685 M39.839478,53.790363 l-0.19032934,1.4897219 M39.649147,55.280087 l0.754816,0.7980098 M39.649147,55.280087 l-0.9748258,-0.54945934 M40.95886,52.940796 l0.63888943,-3.6430078 M41.597748,49.297787 l-1.7654741,-2.04963 M39.83227,47.248158 l-1.9779369,0.049299672 M37.854336,47.29746 l-0.8886359,1.1421283 M36.9657,48.439587 l0.23453782,1.0321033 M36.9657,48.439587 l-0.53892916,-0.9338953 M37.854336,47.29746 l0.56612563,-1.3611827 M38.42046,45.936275 l-0.50794166,-0.9511048 M38.42046,45.936275 l0.780638,0.7727685 M39.83227,47.248158 l1.9483247,-0.5164509 M41.780598,46.73171 l0.6105606,-1.3418392 M42.39116,45.38987 l-0.4764053,-0.96728647 M42.39116,45.38987 l0.754816,0.7980098 M41.780598,46.73171 l-0.23919229,1.482661 M41.541405,48.214367 l0.7281783,0.8223887 M41.541405,48.214367 l-0.95623887,-0.5812041 M41.597748,49.297787 l2.1797469,1.6862079 M43.777493,50.983997 l1.9642472,-0.4521322 M45.74174,50.531864 l0.6543357,-1.3210455 M46.396076,49.21082 l-0.44435406,-0.9824228 M46.396076,49.21082 l0.7281783,0.8223887 M45.74174,50.531864 l-0.28779674,1.4739978 M45.453945,52.005863 l0.7007537,0.8458789 M45.453945,52.005863 l-0.9366185,-0.6123207 M43.777493,50.983997 l-1.8395267,0.9123898 M41.937965,51.896385 l-0.33609018,1.4637418 M41.601875,53.360126 l0.6725718,0.868455 M41.601875,53.360126 l-0.915986,-0.64277565 M41.937965,51.896385 l-0.06328002,-1.5286528 M41.874687,50.367733 l-0.89436364,-0.67253596 M41.874687,50.367733 l1.0728722,0.38533807 M50,50 l-0.0000000000000022043643,-12 M50,38 l-6.7906146,-5.5605445 M43.209385,32.439457 l-6.293252,1.266066 M36.916134,33.70552 l-2.1997118,4.147922 M34.716423,37.853443 l1.3279455,3.1668417 M36.04437,41.020287 l2.4074082,0.71598315 M38.451775,41.736267 l1.5207056,-1.0305438 M39.97248,40.705727 l0.12149372,-1.3380758 M40.093975,39.36765 l-0.7008988,-0.6887872 M40.093975,39.36765 l0.88947475,0.459388 M39.97248,40.705727 l0.24036047,1.3474773 M40.21284,42.053204 l0.87389445,0.488376 M40.21284,42.053204 l-0.997518,-0.2122661 M38.451775,41.736267 l-1.2632711,1.3806937 M37.188503,43.116962 l0.19594026,1.3546497 M37.384445,44.47161 l0.85736984,0.5168362 M37.384445,44.47161 l-0.99000204,-0.24493891 M37.188503,43.116962 l-0.55673176,-1.2784207 M36.63177,41.838543 l-0.98141617,-0.27734703 M36.63177,41.838543 l1.038643,-0.025481608 M36.04437,41.020287 l-2.5488217,-0.22425242 M33.495544,40.796032 l-1.3079706,1.338425 M32.187576,42.134457 l0.1513083,1.360358 M32.338882,43.494816 l0.8399186,0.5447379 M32.338882,43.494816 l-0.98141617,-0.27734703 M32.187576,42.134457 l-0.51441044,-1.2960292 M31.673164,40.83843 l-0.97176975,-0.3094554 M31.673164,40.83843 l1.0389193,0.008671398 M33.495544,40.796032 l0.97968227,-1.6354876 M34.475227,39.160545 l-0.4715332,-1.3122371 M34.003693,37.84831 l-0.96107316,-0.34122938 M34.003693,37.84831 l1.038073,0.042815033 M34.475227,39.160545 l0.816131,1.1626524 M35.29136,40.323196 l1.0361047,0.0769124 M35.29136,40.323196 l-1.031537,0.23701549 M34.716423,37.853443 l-1.8745384,-2.9536986 M32.841885,34.899746 l-2.5400736,-0.30790868 M30.30181,34.591835 l-1.3512567,1.29471 M28.950552,35.886547 l0.106512815,1.3645964 M29.057066,37.251144 l0.8215597,0.5720509 M29.057066,37.251144 l-0.97176975,-0.3094554 M28.950552,35.886547 l-0.4715332,-1.3122371 M28.47902,34.57431 l-0.96107316,-0.34122938 M28.47902,34.57431 l1.038073,0.042815033 M30.30181,34.591835 l1.0329099,-1.6024026 M31.334719,32.989433 l-0.4281464,-1.327027 M30.906572,31.662407 l-0.94933796,-0.3726346 M30.906572,31.662407 l1.0361047,0.0769124 M31.334719,32.989433 l0.7774747,1.1888496 M32.112194,34.178284 l1.0330168,0.11092665 M32.112194,34.178284 l-1.0387702,0.20298174 M32.841885,34.899746 l2.598114,-0.21009474 M35.44,34.68965 l1.0850213,-1.567586 M36.525017,33.122063 l-0.3842969,-1.3403827 M36.14072,31.781681 l-0.93657684,-0.4036371 M36.14072,31.781681 l1.0330168,0.11092665 M36.525017,33.122063 l0.7379782,1.2137622 M37.262997,34.335827 l1.0288126,0.14482103 M37.262997,34.335827 l-1.0448807,0.16872863 M35.44,34.68965 l-0.7045817,1.8098611 M34.735416,36.49951 l0.6976842,1.237363 M35.433098,37.736874 l1.0234966,0.1785589 M35.433098,37.736874 l-1.0498621,0.1342932 M34.735416,36.49951 l-1.0182205,-1.0282791 M33.717194,35.471233 l-1.0537089,0.09971264 M33.717194,35.471233 l0.99550575,-0.41421425 M36.916134,33.70552 l1.649237,-4.489717 M38.56537,29.215805 l-1.7764403,-3.013717 M36.78893,26.202087 l-2.5285804,-0.3912322 M34.26035,25.810856 l-1.3930825,1.2495959 M32.867268,27.060452 l0.06160224,1.36736 M32.92887,28.42781 l0.802313,0.5987457 M32.92887,28.42781 l-0.96107316,-0.34122938 M32.867268,27.060452 l-0.4281464,-1.327027 M32.43912,25.733425 l-0.94933796,-0.3726346 M32.43912,25.733425 l1.0361047,0.0769124 M34.26035,25.810856 l1.0850213,-1.567586 M35.34537,24.243269 l-0.3842969,-1.3403827 M34.961075,22.902887 l-0.93657684,-0.4036371 M34.961075,22.902887 l1.0330168,0.11092665 M35.34537,24.243269 l0.7379782,1.2137622 M36.08335,25.457031 l1.0288126,0.14482103 M36.08335,25.457031 l-1.0448807,0.16872863 M36.78893,26.202087 l2.6036158,-0.124583595 M39.392548,26.077503 l1.1359601,-1.5310752 M40.528507,24.546429 l-0.3400321,-1.3522899 M40.188473,23.19414 l-0.9228036,-0.43420342 M40.188473,23.19414 l1.0288126,0.14482103 M40.528507,24.546429 l0.6976842,1.237363 M41.22619,25.783792 l1.0234966,0.1785589 M41.22619,25.783792 l-1.0498621,0.1342932 M39.392548,26.077503 l-0.76368946,1.7857242 M38.628857,27.863228 l0.6566363,1.2596266 M39.285492,29.122854 l1.0170745,0.21210381 M39.285492,29.122854 l-1.0537089,0.09971264 M38.628857,27.863228 l-0.98387176,-1.0611914 M37.644985,26.802036 l-1.056417,0.06502432 M37.644985,26.802036 l1.0085827,-0.3812691 M38.56537,29.215805 l2.2988153,2.723315 M40.864185,31.93912 l2.606304,-0.038937822 M43.47049,31.90018 l1.1856713,-1.49291 M44.656162,30.407272 l-0.29539984,-1.3627357 M44.36076,29.044537 l-0.90803313,-0.4643005 M44.36076,29.044537 l1.0234966,0.1785589 M44.656162,30.407272 l0.6566363,1.2596266 M45.312798,31.666899 l1.0170745,0.21210381 M45.312798,31.666899 l-1.0537089,0.09971264 M43.47049,31.90018 l-0.82197195,1.7596575 M42.648518,33.65984 l0.6148787,1.280529 M43.263397,34.94037 l1.0095533,0.2454195 M43.263397,34.94037 l-1.056417,0.06502432 M42.648518,33.65984 l-0.94845974,-1.092957 M41.700058,32.566883 l-1.0579835,0.030265726 M41.700058,32.566883 l1.0205697,-0.3479119 M40.864185,31.93912 l-2.5935664,0.5697934 M38.27062,32.50891 l-0.8793661,1.7316892 M37.391254,34.2406 l0.57245666,1.3000476 M37.96371,35.54065 l1.000941,0.27846998 M37.96371,35.54065 l-1.0579835,0.030265726 M37.391254,34.2406 l-0.91202277,-1.1235415 M36.47923,33.11706 l-1.0584066,-0.004525572 M36.47923,33.11706 l1.0314537,-0.3141787 M38.27062,32.50891 l0.46199843,-1.9238561 M38.732616,30.585056 l-0.8746002,-1.1529117 M37.858017,29.432146 l-1.057686,-0.03931198 M37.858017,29.432146 l1.0412232,-0.280106 M38.732616,30.585056 l1.1693561,0.8977321 M39.901974,31.482788 l1.0498674,-0.24573062 M39.901974,31.482788 l-0.9478152,0.5551696 M43.209385,32.439457 l6.2451324,-1.9402237 M49.454517,30.499231 l1.7959187,-4.433082 M51.250435,26.06615 l-1.6764222,-3.0704784 M49.574013,22.99567 l-2.5143547,-0.4741329 M47.059658,22.521538 l-1.4334029,1.2031313 M45.62626,23.72467 l0.01662509,1.3686459 M45.642883,25.093315 l0.7821993,0.62479347 M45.642883,25.093315 l-0.94933796,-0.3726346 M45.62626,23.72467 l-0.3842969,-1.3403827 M45.24196,22.384287 l-0.93657684,-0.4036371 M45.24196,22.384287 l1.0330168,0.11092665 M47.059658,22.521538 l1.1359601,-1.5310752 M48.19562,20.990463 l-0.3400321,-1.3522899 M47.855587,19.638174 l-0.9228036,-0.43420342 M47.855587,19.638174 l1.0288126,0.14482103 M48.19562,20.990463 l0.6976842,1.237363 M48.893303,22.227825 l1.0234966,0.1785589 M48.893303,22.227825 l-1.0498621,0.1342932 M49.574013,22.99567 l2.606304,-0.038937822 M52.180317,22.956734 l1.1856713,-1.49291 M53.36599,21.463823 l-0.29539984,-1.3627357 M53.07059,20.101088 l-0.90803313,-0.4643005 M53.07059,20.101088 l1.0234966,0.1785589 M53.36599,21.463823 l0.6566363,1.2596266 M54.022625,22.72345 l1.0170745,0.21210381 M54.022625,22.72345 l-1.0537089,0.09971264 M52.180317,22.956734 l-0.82197195,1.7596575 M51.358345,24.71639 l0.6148787,1.280529 M51.973225,25.99692 l1.0095533,0.2454195 M51.973225,25.99692 l-1.056417,0.06502432 M51.358345,24.71639 l-0.94845974,-1.092957 M50.409885,23.623434 l-1.0579835,0.030265726 M50.409885,23.623434 l1.0205697,-0.3479119 M51.250435,26.06615 l2.2080603,2.7974033 M53.458496,28.863554 l2.6061754,0.046750028 M56.06467,28.910303 l1.2341013,-1.4531314 M57.298775,27.457172 l-0.25044838,-1.371709 M57.048325,26.085463 l-0.89228135,-0.49389586 M57.048325,26.085463 l1.0170745,0.21210381 M57.298775,27.457172 l0.6148787,1.280529 M57.91365,28.737701 l1.0095533,0.2454195 M57.91365,28.737701 l-1.056417,0.06502432 M56.06467,28.910303 l-0.8793661,1.7316892 M55.185307,30.641993 l0.57245666,1.3000476 M55.757763,31.94204 l1.000941,0.27846998 M55.757763,31.94204 l-1.0579835,0.030265726 M55.185307,30.641993 l-0.91202277,-1.1235415 M54.273285,29.518452 l-1.0584066,-0.004525572 M54.273285,29.518452 l1.0314537,-0.3141787 M53.458496,28.863554 l-2.6108935,0.4842374 M50.847603,29.34779 l-0.93580997,1.7018496 M49.911793,31.04964 l0.52941597,1.3181612 M50.441208,32.3678 l0.9912472,0.3112195 M50.441208,32.3678 l-1.0584066,-0.004525572 M49.911793,31.04964 l-0.8746002,-1.1529117 M49.037193,29.896729 l-1.057686,-0.03931198 M49.037193,29.896729 l1.0412232,-0.280106 M50.847603,29.34779 l0.5249842,-1.9076312 M51.37259,27.440159 l-0.8362325,-1.181036 M50.536354,26.259123 l-1.0558224,-0.0740559 M50.536354,26.259123 l1.0498674,-0.24573062 M51.37259,27.440159 l1.1392167,0.93568265 M52.511803,28.375843 l1.0573771,-0.21108967 M52.511803,28.375843 l-0.96555096,0.5237158 M49.454517,30.499231 l-1.202392,4.721956 M48.252125,35.221188 l2.114919,2.8684688 M50.367046,38.089657 l2.6032305,0.13238735 M52.970276,38.222046 l1.2811975,-1.4117825 M54.251472,36.81026 l-0.20522623,-1.3791997 M54.046246,35.43106 l-0.8755653,-0.52295744 M54.046246,35.43106 l1.0095533,0.2454195 M54.251472,36.81026 l0.57245666,1.3000476 M54.82393,38.11031 l1.000941,0.27846998 M54.82393,38.11031 l-1.0579835,0.030265726 M52.970276,38.222046 l-0.93580997,1.7018496 M52.034466,39.923893 l0.52941597,1.3181612 M52.56388,41.242054 l0.9912472,0.3112195 M52.56388,41.242054 l-1.0584066,-0.004525572 M52.034466,39.923893 l-0.8746002,-1.1529117 M51.159866,38.77098 l-1.057686,-0.03931198 M51.159866,38.77098 l1.0412232,-0.280106 M50.367046,38.089657 l-2.6253994,0.39815807 M47.741646,38.487816 l-0.9912426,1.6701708 M46.750404,40.157986 l0.48580316,1.3348504 M47.236206,41.492836 l0.98048204,0.34363276 M47.236206,41.492836 l-1.057686,-0.03931198 M46.750404,40.157986 l-0.8362325,-1.181036 M45.91417,38.976948 l-1.0558224,-0.0740559 M45.91417,38.976948 l1.0498674,-0.24573062 M47.741646,38.487816 l0.5874026,-1.8893446 M48.32905,36.59847 l-0.79696107,-1.2078841 M47.532085,35.390587 l-1.0528177,-0.108719796 M47.532085,35.390587 l1.0573771,-0.21108967 M48.32905,36.59847 l1.107846,0.9726221 M49.436893,37.57109 l1.0637441,-0.1762206 M49.436893,37.57109 l-0.9822433,0.49169603 M48.252125,35.221188 l-2.6139467,-2.5196316 M45.63818,32.701557 l-2.6370678,0.3116485 M43.00111,33.013206 l-1.045604,1.6366872 M41.95551,34.64989 l0.44166535,1.3500971 M42.397175,35.99999 l0.9686574,0.3756746 M42.397175,35.99999 l-1.0558224,-0.0740559 M41.95551,34.64989 l-0.79696107,-1.2078841 M41.158546,33.44201 l-1.0528177,-0.108719796 M41.158546,33.44201 l1.0573771,-0.21108967 M43.00111,33.013206 l0.6491862,-1.8690163 M43.6503,31.144188 l-0.7568284,-1.2334268 M42.89347,29.91076 l-1.0486753,-0.1432662 M42.89347,29.91076 l1.0637441,-0.1762206 M43.6503,31.144188 l1.0752783,1.0085105 M44.725574,32.1527 l1.0689615,-0.14116108 M44.725574,32.1527 l-0.99787414,0.45914492 M45.63818,32.701557 l2.5687199,-0.84826815 M48.206898,31.853289 l0.71026826,-1.8466682 M48.917168,30.00662 l-0.71587783,-1.2576365 M48.20129,28.748983 l-1.0433997,-0.17765778 M48.20129,28.748983 l1.0689615,-0.14116108 M48.917168,30.00662 l1.0415484,1.0433089 M49.958717,31.049929 l1.0730237,-0.10594904 M49.958717,31.049929 l-1.0124266,0.42609763 M48.206898,31.853289 l-0.2672539,1.9978153 M47.939644,33.851105 l1.006693,1.0769799 M48.94634,34.928085 l1.0759264,-0.07062248 M48.94634,34.928085 l-1.025885,0.39258984 M47.939644,33.851105 l-1.2787383,-0.78760713 M46.660908,33.063496 l-1.0382347,0.35865784 M46.660908,33.063496 l0.90250236,-0.66157424 M50,38 l7.296147,5.168285 M57.296146,43.168285 l6.3055315,-1.7339035 M63.601677,41.43438 l1.9406596,-4.371657 M65.542336,37.062725 l-1.5745926,-3.1239219 M63.967747,33.9388 l-2.4974117,-0.55652124 M61.470333,33.382282 l-1.4721742,1.1553667 M59.998158,34.537647 l-0.028370028,1.3684529 M59.969788,35.9061 l0.76124024,0.6501661 M59.969788,35.9061 l-0.93657684,-0.4036371 M59.998158,34.537647 l-0.3400321,-1.3522899 M59.658127,33.18536 l-0.9228036,-0.43420342 M59.658127,33.18536 l1.0288126,0.14482103 M61.470333,33.382282 l1.1856713,-1.49291 M62.656006,31.889372 l-0.29539984,-1.3627357 M62.360603,30.526636 l-0.90803313,-0.4643005 M62.360603,30.526636 l1.0234966,0.1785589 M62.656006,31.889372 l0.6566363,1.2596266 M63.31264,33.149 l1.0170745,0.21210381 M63.31264,33.149 l-1.0537089,0.09971264 M63.967747,33.9388 l2.6061754,0.046750028 M66.57392,33.985554 l1.2341013,-1.4531314 M67.80802,32.53242 l-0.25044838,-1.371709 M67.55757,31.160713 l-0.89228135,-0.49389586 M67.55757,31.160713 l1.0170745,0.21210381 M67.80802,32.53242 l0.6148787,1.280529 M68.4229,33.81295 l1.0095533,0.2454195 M68.4229,33.81295 l-1.056417,0.06502432 M66.57392,33.985554 l-0.8793661,1.7316892 M65.69456,35.717243 l0.57245666,1.3000476 M66.26701,37.01729 l1.000941,0.27846998 M66.26701,37.01729 l-1.0579835,0.030265726 M65.69456,35.717243 l-0.91202277,-1.1235415 M64.78253,34.5937 l-1.0584066,-0.004525572 M64.78253,34.5937 l1.0314537,-0.3141787 M65.542336,37.062725 l2.114919,2.8684688 M67.65726,39.931194 l2.6032305,0.13238735 M70.26049,40.06358 l1.2811975,-1.4117825 M71.54169,38.6518 l-0.20522623,-1.3791997 M71.33646,37.2726 l-0.8755653,-0.52295744 M71.33646,37.2726 l1.0095533,0.2454195 M71.54169,38.6518 l0.57245666,1.3000476 M72.11414,39.951847 l1.000941,0.27846998 M72.11414,39.951847 l-1.0579835,0.030265726 M70.26049,40.06358 l-0.93580997,1.7018496 M69.32468,41.76543 l0.52941597,1.3181612 M69.854095,43.08359 l0.9912472,0.3112195 M69.854095,43.08359 l-1.0584066,-0.004525572 M69.32468,41.76543 l-0.8746002,-1.1529117 M68.45008,40.61252 l-1.057686,-0.03931198 M68.45008,40.61252 l1.0412232,-0.280106 M67.65726,39.931194 l-2.6253994,0.39815807 M65.03186,40.329353 l-0.9912426,1.6701708 M64.04061,41.999523 l0.48580316,1.3348504 M64.52642,43.334373 l0.98048204,0.34363276 M64.52642,43.334373 l-1.057686,-0.03931198 M64.04061,41.999523 l-0.8362325,-1.181036 M63.204384,40.818485 l-1.0558224,-0.0740559 M63.204384,40.818485 l1.0498674,-0.24573062 M65.03186,40.329353 l0.5874026,-1.8893446 M65.61926,38.440006 l-0.79696107,-1.2078841 M64.822296,37.232124 l-1.0528177,-0.108719796 M64.822296,37.232124 l1.0573771,-0.21108967 M65.61926,38.440006 l1.107846,0.9726221 M66.727104,39.41263 l1.0637441,-0.1762206 M66.727104,39.41263 l-0.9822433,0.49169603 M63.601677,41.43438 l-1.3569486,4.679883 M62.244728,46.114265 l2.0194924,2.9364343 M64.26422,49.050697 l2.5974724,0.21788162 M66.861694,49.26858 l1.3269093,-1.3689078 M68.18861,47.899673 l-0.1597823,-1.3852001 M68.028824,46.514473 l-0.85790306,-0.5514539 M68.028824,46.514473 l1.000941,0.27846998 M68.18861,47.899673 l0.52941597,1.3181612 M68.71802,49.217834 l0.9912472,0.3112195 M68.71802,49.217834 l-1.0584066,-0.004525572 M66.861694,49.26858 l-0.9912426,1.6701708 M65.87045,50.93875 l0.48580316,1.3348504 M66.356255,52.2736 l0.98048204,0.34363276 M66.356255,52.2736 l-1.057686,-0.03931198 M65.87045,50.93875 l-0.8362325,-1.181036 M65.03422,49.757713 l-1.0558224,-0.0740559 M65.03422,49.757713 l1.0498674,-0.24573062 M64.26422,49.050697 l-2.6370678,0.3116485 M61.627155,49.362347 l-1.045604,1.6366872 M60.58155,50.999035 l0.44166535,1.3500971 M61.023216,52.349133 l0.9686574,0.3756746 M61.023216,52.349133 l-1.0558224,-0.0740559 M60.58155,50.999035 l-0.79696107,-1.2078841 M59.784588,49.79115 l-1.0528177,-0.108719796 M59.784588,49.79115 l1.0573771,-0.21108967 M61.627155,49.362347 l0.6491862,-1.8690163 M62.27634,47.493332 l-0.7568284,-1.2334268 M61.519512,46.259903 l-1.0486753,-0.1432662 M61.519512,46.259903 l1.0637441,-0.1762206 M62.27634,47.493332 l1.0752783,1.0085105 M63.35162,48.501842 l1.0689615,-0.14116108 M63.35162,48.501842 l-0.99787414,0.45914492 M62.244728,46.114265 l-2.5297163,-2.6041882 M59.71501,43.510075 l-2.6458864,0.22480209 M57.069126,43.73488 l-1.0988353,1.6014347 M55.97029,45.33631 l0.39705026,1.3638847 M56.36734,46.7002 l0.9557859,0.4073105 M56.36734,46.7002 l-1.0528177,-0.108719796 M55.97029,45.33631 l-0.7568284,-1.2334268 M55.213463,44.102886 l-1.0486753,-0.1432662 M55.213463,44.102886 l1.0637441,-0.1762206 M57.069126,43.73488 l0.71026826,-1.8466682 M57.779396,41.88821 l-0.71587783,-1.2576365 M57.06352,40.630573 l-1.0433997,-0.17765778 M57.06352,40.630573 l1.0689615,-0.14116108 M57.779396,41.88821 l1.0415484,1.0433089 M58.820942,42.93152 l1.0730237,-0.10594904 M58.820942,42.93152 l-1.0124266,0.42609763 M59.71501,43.510075 l2.595214,-0.7633783 M62.310226,42.746696 l0.7705828,-1.8223246 M63.08081,40.924374 l-0.6741537,-1.2804873 M62.406654,39.643887 l-1.0369964,-0.21185738 M62.406654,39.643887 l1.0730237,-0.10594904 M63.08081,40.924374 l1.006693,1.0769799 M64.0875,42.001354 l1.0759264,-0.07062248 M64.0875,42.001354 l-1.025885,0.39258984 M62.310226,42.746696 l-0.33277586,1.9879514 M61.97745,44.73465 l0.97074974,1.109487 M62.9482,45.844135 l1.0776663,-0.035219613 M62.9482,45.844135 l-1.0382347,0.35865784 M61.97745,44.73465 l-1.2521594,-0.82921255 M60.725292,43.905437 l-1.0494626,0.3243382 M60.725292,43.905437 l0.92376,-0.63155234 M57.296146,43.168285 l-6.208717,2.4155958 M51.08743,45.58388 l-1.5100389,4.6327524 M49.577393,50.216633 l1.9218832,3.0012264 M51.499275,53.21786 l2.5889075,0.3031404 M54.08818,53.521 l1.371187,-1.3245538 M55.45937,52.196445 l-0.114165716,-1.3897036 M55.345203,50.806744 l-0.83931375,-0.5793544 M55.345203,50.806744 l0.9912472,0.3112195 M55.45937,52.196445 l0.48580316,1.3348504 M55.94517,53.531296 l0.98048204,0.34363276 M55.94517,53.531296 l-1.057686,-0.03931198 M54.08818,53.521 l-1.045604,1.6366872 M53.042576,55.15769 l0.44166535,1.3500971 M53.48424,56.507786 l0.9686574,0.3756746 M53.48424,56.507786 l-1.0558224,-0.0740559 M53.042576,55.15769 l-0.79696107,-1.2078841 M52.245617,53.949802 l-1.0528177,-0.108719796 M52.245617,53.949802 l1.0573771,-0.21108967 M51.499275,53.21786 l-2.6458864,0.22480209 M48.853386,53.44266 l-1.0988353,1.6014347 M47.75455,55.044098 l0.39705026,1.3638847 M48.151604,56.40798 l0.9557859,0.4073105 M48.151604,56.40798 l-1.0528177,-0.108719796 M47.75455,55.044098 l-0.7568284,-1.2334268 M46.997723,53.81067 l-1.0486753,-0.1432662 M46.997723,53.81067 l1.0637441,-0.1762206 M48.853386,53.44266 l0.71026826,-1.8466682 M49.563656,51.595993 l-0.71587783,-1.2576365 M48.84778,50.338356 l-1.0433997,-0.17765778 M48.84778,50.338356 l1.0689615,-0.14116108 M49.563656,51.595993 l1.0415484,1.0433089 M50.605206,52.6393 l1.0730237,-0.10594904 M50.605206,52.6393 l-1.0124266,0.42609763 M49.577393,50.216633 l-2.4427521,-2.6859305 M47.13464,47.530704 l-2.651846,0.13771278 M44.48279,47.668415 l-1.1508793,1.5644517 M43.331913,49.23287 l0.35200608,1.3761984 M43.683918,50.609066 l0.94188154,0.43850622 M43.683918,50.609066 l-1.0486753,-0.1432662 M43.331913,49.23287 l-0.71587783,-1.2576365 M42.616035,47.97523 l-1.0433997,-0.17765778 M42.616035,47.97523 l1.0689615,-0.14116108 M44.48279,47.668415 l0.7705828,-1.8223246 M45.253376,45.846092 l-0.6741537,-1.2804873 M44.579224,44.565605 l-1.0369964,-0.21185738 M44.579224,44.565605 l1.0730237,-0.10594904 M45.253376,45.846092 l1.006693,1.0769799 M46.260067,46.92307 l1.0759264,-0.07062248 M46.260067,46.92307 l-1.025885,0.39258984 M47.13464,47.530704 l2.618903,-0.67766356 M49.75354,46.85304 l0.83006454,-1.7960116 M50.583607,45.057026 l-0.631701,-1.3019542 M49.951904,43.755074 l-1.0294725,-0.24582802 M49.951904,43.755074 l1.0759264,-0.07062248 M50.583607,45.057026 l0.97074974,1.109487 M51.554356,46.166515 l1.0776663,-0.035219613 M51.554356,46.166515 l-1.0382347,0.35865784 M49.75354,46.85304 l-0.39793816,1.9759393 M49.355602,48.82898 l0.93375736,1.1407952 M50.28936,49.969772 l1.0782416,0.00022131516 M50.28936,49.969772 l-1.0494626,0.3243382 M49.355602,48.82898 l-1.2242273,-0.8699218 M48.131374,47.959057 l-1.0595561,0.28966808 M48.131374,47.959057 l0.94401944,-0.60084796 M51.08743,45.58388 l0.8863375,-4.884138 M51.973766,40.69974 l-2.3531482,-2.76477 M49.62062,37.93497 l-2.6549394,0.050474633 M46.96568,37.985447 l-1.2016796,1.525778 M45.764,39.511227 l0.3065815,1.3870249 M46.070583,40.89825 l0.9269593,0.46922806 M46.070583,40.89825 l-1.0433997,-0.17765778 M45.764,39.511227 l-0.6741537,-1.2804873 M45.089848,38.23074 l-1.0369964,-0.21185738 M45.089848,38.23074 l1.0730237,-0.10594904 M46.96568,37.985447 l0.83006454,-1.7960116 M47.795746,36.189434 l-0.631701,-1.3019542 M47.164043,34.88748 l-1.0294725,-0.24582802 M47.164043,34.88748 l1.0759264,-0.07062248 M47.795746,36.189434 l0.97074974,1.109487 M48.766495,37.298923 l1.0776663,-0.035219613 M48.766495,37.298923 l-1.0382347,0.35865784 M49.62062,37.93497 l2.6397622,-0.59121644 M52.26038,37.343758 l0.8886493,-1.7677577 M53.14903,35.576 l-0.5885656,-1.3220141 M52.560463,34.253983 l-1.0208361,-0.279533 M52.560463,34.253983 l1.0776663,-0.035219613 M53.14903,35.576 l0.93375736,1.1407952 M54.082787,36.716793 l1.0782416,0.00022131516 M54.082787,36.716793 l-1.0494626,0.3243382 M52.26038,37.343758 l-0.46267045,1.9617916 M51.79771,39.30555 l0.89575595,1.1708705 M52.693466,40.476418 l1.0776517,0.035662007 M52.693466,40.476418 l-1.0595561,0.28966808 M51.79771,39.30555 l-1.1949723,-0.909691 M50.602737,38.395855 l-1.0685048,0.25468493 M50.602737,38.395855 l0.9632587,-0.56949425 M51.973766,40.69974 l2.8354926,2.3747983 M54.80926,43.07454 l2.6577685,-0.5041305 M57.46703,42.57041 l0.9462737,-1.7375934 M58.413303,40.832817 l-0.5447942,-1.3406454 M57.868507,39.492172 l-1.0110966,-0.31293592 M57.868507,39.492172 l1.0782416,0.00022131516 M58.413303,40.832817 l0.89575595,1.1708705 M59.30906,42.00369 l1.0776517,0.035662007 M59.30906,42.00369 l-1.0595561,0.28966808 M57.46703,42.57041 l-0.52690274,1.9455241 M56.940125,44.515934 l0.8567865,1.1996806 M57.796913,45.715614 l1.0758973,0.07106416 M57.796913,45.715614 l-1.0685048,0.25468493 M56.940125,44.515934 l-1.164426,-0.9484771 M55.7757,43.56746 l-1.0762987,0.21942656 M55.7757,43.56746 l0.98145694,-0.5375251 M54.80926,43.07454 l-2.5501723,1.0446122 M52.259087,44.119152 l-0.5905656,1.9271541 M51.66852,46.046307 l0.8168912,1.2271941 M52.485413,47.273502 l1.0729802,0.106389515 M52.485413,47.273502 l-1.0762987,0.21942656 M51.66852,46.046307 l-1.1326212,-0.9862382 M50.5359,45.06007 l-1.0829295,0.18393104 M50.5359,45.06007 l0.9985946,-0.5049751 M52.259087,44.119152 l0.1296106,-2.0492718 M52.3887,42.06988 l-1.0995924,-1.0229335 M51.289104,41.046947 l-1.08839,0.14823677 M51.289104,41.046947 l1.0146531,-0.47187933 M52.3887,42.06988 l1.3554922,0.70952433 M53.74419,42.779408 l1.029615,-0.43827364 M53.74419,42.779408 l-0.87014866,0.7364656" fill="none" stroke="#000" stroke-width="0.35" style="mix-blend-mode: multiply;"/>
</g>
</svg>