<svg height="210mm" style="background:black" viewBox="0 0 297 210" width="297mm" xmlns="http://www.w3.org/2000/svg" xmlns:inkscape="http://www.inkscape.org/namespaces/inkscape">
<g inkscape:groupmode="layer" inkscape:label="gold">
<path d="M151.73206,184 L243.53075,184 L197.6314,104.5 L152.73206,182.26794 L240.53075,182.26794 L197.6314,107.9641 L155.73206,180.5359 L237.53075,180.5359 L197.6314,111.4282 L158.73206,178.80385 L234.53075,178.80385 L197.6314,114.8923 L161.73206,177.0718 L231.53075,177.0718 L197.6314,118.35641 L164.73206,175.33975 L228.53075,175.33975 L197.6314,121.82051 L167.73206,173.6077 L225.53075,173.6077 L197.6314,125.28461 L170.73206,171.87564 L222.53075,171.87564 L197.6314,128.74872 L173.73206,170.1436 L219.53075,170.1436 L197.6314,132.21281 L176.73206,168.41154 L216.53075,168.41154 L197.6314,135.67691 L179.73206,166.67949 L213.53075,166.67949 L197.6314,139.14102 L182.73206,164.94745 L210.53075,164.94745 L197.6314,142.60512 L185.73206,163.2154 L207.53075,163.2154 L197.6314,146.06921 L188.73206,161.48334 L204.53075,161.48334 L197.6314,149.53333 L191.73206,159.75128 L201.53075,159.75128 L197.6314,152.99742 L194.73206,158.01924 L198.53075,158.01924 L197.6314,156.46152 M106.59048,132.4375 L102.36861,125.125 L98.14673,132.4375 L104.59048,132.4375 L102.36861,128.5891 L101.14673,130.70544 L101.59048,130.70544 M98.14673,134.4375 L102.36861,141.75 L106.59048,134.4375 L100.14673,134.4375 L102.36861,138.2859 L103.59048,136.16956 L103.14673,136.16956 M100.63655,124.125 L92.1928,124.125 L96.41468,131.4375 L99.63655,125.85705 L95.1928,125.85705 L96.41468,127.9734 L96.63655,127.5891 M108.322525,131.4375 L112.5444,124.125 L104.100655,124.125 L107.322525,129.70544 L109.5444,125.85705 L107.100655,125.85705 L107.322525,126.24135 M145.77812,31.3125 L150,38.625 L154.22188,31.3125 L147.77812,31.3125 L150,35.1609 L151.22188,33.04455 L150.77812,33.04455 M154.22188,29.3125 L150,22 L145.77812,29.3125 L152.22188,29.3125 L150,25.464102 L148.77812,27.58045 L149.22188,27.58045 M151.73206,39.625 L160.1758,39.625 L155.95392,32.3125 L152.73206,37.89295 L157.1758,37.89295 L155.95392,35.7766 L155.73206,36.1609 M144.04608,32.3125 L139.8242,39.625 L148.26794,39.625 L145.04608,34.04455 L142.8242,37.89295 L145.26794,37.89295 L145.04608,37.50865 M169.59383,91.1875 L178.03757,91.1875 L173.8157,83.875 L170.59383,89.45545 L175.03757,89.45545 L173.8157,87.3391 L173.59383,87.7234 M172.08365,82.875 L163.6399,82.875 L167.86177,90.1875 L171.08365,84.60705 L166.6399,84.60705 L167.86177,86.7234 L168.08365,86.3391 M179.76962,90.1875 L183.9915,82.875 L175.54774,82.875 L178.76962,88.45545 L180.9915,84.60705 L178.54774,84.60705 L178.76962,84.99135 M169.59383,93.1875 L173.8157,100.5 L178.03757,93.1875 L171.59383,93.1875 L173.8157,97.0359 L175.03757,94.91955 L174.59383,94.91955 M189.94542,93.1875 L181.50168,93.1875 L185.72354,100.5 L188.94542,94.91955 L184.50168,94.91955 L185.72354,97.0359 L185.94542,96.6516 M187.4556,101.5 L195.89935,101.5 L191.67747,94.1875 L188.4556,99.76795 L192.89935,99.76795 L191.67747,97.6516 L191.4556,98.0359 M179.76962,94.1875 L175.54774,101.5 L183.9915,101.5 L180.76962,95.91955 L178.54774,99.76795 L180.9915,99.76795 L180.76962,99.38365 M189.94542,91.1875 L185.72354,83.875 L181.50168,91.1875 L187.94542,91.1875 L185.72354,87.3391 L184.50168,89.45545 L184.94542,89.45545 M253.92305,190 L46.07695,190 L150,10 L253.92305,190" fill="none" stroke="gold" stroke-width="0.4"/>
<g inkscape:groupmode="layer" inkscape:label="signature">
<path d="m 15.815664,12.893319 c -1.445284,-3.0999497 -5.555449,-0.3575 -5.08537,2.32203 1.697826,2.92736 4.504013,-3.54417 4.40859,-2.58178 -1.548999,2.22986 0.741131,6.08701 3.012419,3.25791 2.532153,-2.82358 0.259001,-7.8326797 -3.488671,-7.9011197 -3.217272,0.056 -5.8863857,2.4603197 -7.9308737,4.7238797 -2.354585,2.46752 0.0048,5.887 2.757763,6.62143 3.2195457,1.10867 6.8759417,1.30834 9.9459317,-0.36585 2.270396,-1.12373 5.025949,-2.62031 5.680576,-5.20027 -2.108811,-3.66096 -6.038415,1.28356 -3.842036,3.67822 1.07278,0.89979 4.586982,-2.27037 3.201668,-2.73503 0.03094,3.24357 1.226854,6.37852 1.337023,9.60311 -0.672198,3.54892 -7.469251,0.32096 -4.637082,-2.5164 2.158436,-2.4193 5.610472,-2.84094 8.202925,-4.57369 0.993877,-1.40371 0.353413,-5.25046 3.182464,-3.48957 2.142923,1.43516 -2.250898,5.7532 1.723416,5.02339 1.661189,-0.71663 6.494946,-1.40457 4.601401,-3.95236 -4.205319,-0.68052 -1.190571,5.86505 1.665411,3.46881 1.929752,-0.9247 2.778055,-4.05119 1.423645,-5.35034 0.479155,1.8589 3.849911,7.52574 4.880369,3.32696 0.21201,-1.28088 0.40468,-3.80204 1.01246,-1.23041 0.5858,2.6865 3.83412,4.91909 4.56937,1.07383 0.65272,-1.00894 -0.2696,-4.02739 0.99929,-1.35746 1.10974,2.31613 6.32001,1.46113 6.147,-1.13059 -1.98394,-2.13868 -5.3717,1.45205 -3.78252,3.73454 2.57741,0.96208 6.69797,-0.21041 7.06275,-3.33983 0.41287,-2.63769 0.26643,-5.3430297 -0.11178,-7.9756197 0.67418,3.94149 1.24889,7.9380497 2.39963,11.7713397 2.10586,1.67977 5.7434,1.65022 7.74596,-0.23639 3.03149,-1.85431 -0.26637,-4.76925 -2.71777,-4.54025 -2.11577,0.0793 -5.36257,2.40772 -5.16868,3.85604 2.08262,-2.38818 5.55759,-1.22628 8.30726,-1.6832 3.182,-0.26596 6.46546,-0.57372 9.54494,-1.18158 0.24171,0.4199 -0.27752,0.54338 -0.43067,0.17453" fill="none" stroke="gold" stroke-width="1" transform="translate(260,190) scale(0.3)"/>
</g>
</g>
<g inkscape:groupmode="layer" inkscape:label="goldenrod">
<path d="M160.1758,124.125 L139.8242,124.125 L150,141.75 L159.1758,125.85705 L142.8242,125.85705 L150,138.2859 L156.1758,127.5891 L145.8242,127.5891 L150,134.8218 L153.1758,129.32115 L148.8242,129.32115 L150,131.3577 L150.1758,131.0532 M151.73206,142.75 L172.08365,142.75 L161.90785,125.125 L152.73206,141.01794 L169.08365,141.01794 L161.90785,128.5891 L155.73206,139.2859 L166.08365,139.2859 L161.90785,132.0532 L158.73206,137.55385 L163.08365,137.55385 L161.90785,135.5173 L161.73206,135.8218 M138.09215,125.125 L127.91635,142.75 L148.26794,142.75 L139.09215,126.85705 L130.91635,141.01794 L145.26794,141.01794 L139.09215,130.32115 L133.91635,139.2859 L142.26794,139.2859 L139.09215,133.78525 L136.91635,137.55385 L139.26794,137.55385 L139.09215,137.24936 M160.1758,122.125 L150,104.5 L139.8242,122.125 L158.1758,122.125 L150,107.9641 L142.8242,120.39295 L155.1758,120.39295 L150,111.4282 L145.8242,118.6609 L152.1758,118.6609 L150,114.8923 L148.8242,116.92885 L149.1758,116.92885 M112.5444,122.125 L102.36861,104.5 L92.1928,122.125 L110.5444,122.125 L102.36861,107.9641 L95.1928,120.39295 L107.5444,120.39295 L102.36861,111.4282 L98.1928,118.6609 L104.5444,118.6609 L102.36861,114.8923 L101.1928,116.92885 L101.5444,116.92885 M104.100655,142.75 L124.45225,142.75 L114.27645,125.125 L105.100655,141.01794 L121.45225,141.01794 L114.27645,128.5891 L108.100655,139.2859 L118.45225,139.2859 L114.27645,132.0532 L111.100655,137.55385 L115.45225,137.55385 L114.27645,135.5173 L114.100655,135.8218 M90.460754,125.125 L80.28496,142.75 L100.63655,142.75 L91.460754,126.85705 L83.28496,141.01794 L97.63655,141.01794 L91.460754,130.32115 L86.28496,139.2859 L94.63655,139.2859 L91.460754,133.78525 L89.28496,137.55385 L91.63655,137.55385 L91.460754,137.24936 M160.1758,80.875 L150,63.25 L139.8242,80.875 L158.1758,80.875 L150,66.7141 L142.8242,79.14295 L155.1758,79.14295 L150,70.1782 L145.8242,77.4109 L152.1758,77.4109 L150,73.6423 L148.8242,75.67885 L149.1758,75.67885 M139.8242,82.875 L150,100.5 L160.1758,82.875 L141.8242,82.875 L150,97.0359 L157.1758,84.60705 L144.8242,84.60705 L150,93.5718 L154.1758,86.3391 L147.8242,86.3391 L150,90.1077 L151.1758,88.07115 L150.8242,88.07115 M148.26794,62.25 L127.91635,62.25 L138.09215,79.875 L147.26794,63.98205 L130.91635,63.98205 L138.09215,76.4109 L144.26794,65.7141 L133.91635,65.7141 L138.09215,72.9468 L141.26794,67.44615 L136.91635,67.44615 L138.09215,69.4827 L138.26794,69.1782 M161.90785,79.875 L172.08365,62.25 L151.73206,62.25 L160.90785,78.14295 L169.08365,63.98205 L154.73206,63.98205 L160.90785,74.67885 L166.08365,65.7141 L157.73206,65.7141 L160.90785,71.214745 L163.08365,67.44615 L160.73206,67.44615 L160.90785,67.75064 M139.8242,41.625 L150,59.25 L160.1758,41.625 L141.8242,41.625 L150,55.7859 L157.1758,43.35705 L144.8242,43.35705 L150,52.321796 L154.1758,45.0891 L147.8242,45.0891 L150,48.857697 L151.1758,46.82115 L150.8242,46.82115 M151.73206,60.25 L172.08365,60.25 L161.90785,42.625 L152.73206,58.51795 L169.08365,58.51795 L161.90785,46.0891 L155.73206,56.7859 L166.08365,56.7859 L161.90785,49.553204 L158.73206,55.05385 L163.08365,55.05385 L161.90785,53.017303 L161.73206,53.321796 M138.09215,42.625 L127.91635,60.25 L148.26794,60.25 L139.09215,44.35705 L130.91635,58.51795 L145.26794,58.51795 L139.09215,47.82115 L133.91635,56.7859 L142.26794,56.7859 L139.09215,51.285255 L136.91635,55.05385 L139.26794,55.05385 L139.09215,54.749355 M161.90785,83.875 L151.73206,101.5 L172.08365,101.5 L162.90785,85.60705 L154.73206,99.76795 L169.08365,99.76795 L162.90785,89.07115 L157.73206,98.0359 L166.08365,98.0359 L162.90785,92.535255 L160.73206,96.30385 L163.08365,96.30385 L162.90785,95.99936 M183.9915,80.875 L173.8157,63.25 L163.6399,80.875 L181.9915,80.875 L173.8157,66.7141 L166.6399,79.14295 L178.9915,79.14295 L173.8157,70.1782 L169.6399,77.4109 L175.9915,77.4109 L173.8157,73.6423 L172.6399,75.67885 L172.9915,75.67885" fill="none" stroke="goldenrod" stroke-width="0.4"/>
</g>
<g inkscape:groupmode="layer" inkscape:label="silver">
<path d="M148.26794,103.5 L104.100655,103.5 L126.1843,141.75 L147.26794,105.23205 L107.100655,105.23205 L126.1843,138.2859 L144.26794,106.9641 L110.100655,106.9641 L126.1843,134.8218 L141.26794,108.69615 L113.100655,108.69615 L126.1843,131.3577 L138.26794,110.4282 L116.100655,110.4282 L126.1843,127.89359 L135.26794,112.160255 L119.100655,112.160255 L126.1843,124.42949 L132.26794,113.8923 L122.100655,113.8923 L126.1843,120.96539 L129.26794,115.62436 L125.100655,115.62436 L126.1843,117.50129 L126.26795,117.35641 M173.8157,141.75 L195.89935,103.5 L151.73206,103.5 L172.8157,140.01794 L192.89935,105.23205 L154.73206,105.23205 L172.8157,136.55385 L189.89935,106.9641 L157.73206,106.9641 L172.8157,133.08975 L186.89935,108.69615 L160.73206,108.69615 L172.8157,129.62564 L183.89935,110.4282 L163.73206,110.4282 L172.8157,126.161545 L180.89935,112.160255 L166.73206,112.160255 L172.8157,122.69744 L177.89935,113.8923 L169.73206,113.8923 L172.8157,119.23334 L174.89935,115.62436 L172.73206,115.62436 L172.8157,115.76924 M127.91635,144.75 L150,183 L172.08365,144.75 L129.91635,144.75 L150,179.5359 L169.08365,146.48206 L132.91635,146.48206 L150,176.0718 L166.08365,148.2141 L135.91635,148.2141 L150,172.6077 L163.08365,149.94615 L138.91635,149.94615 L150,169.1436 L160.08365,151.6782 L141.91635,151.6782 L150,165.67949 L157.08365,153.41025 L144.91635,153.41025 L150,162.2154 L154.08365,155.1423 L147.91635,155.1423 L150,158.75128 L151.08365,156.87436 L150.91635,156.87436 M102.36861,183 L124.45225,144.75 L80.28496,144.75 L101.36861,181.26794 L121.45225,146.48206 L83.28496,146.48206 L101.36861,177.80385 L118.45225,148.2141 L86.28496,148.2141 L101.36861,174.33975 L115.45225,149.94615 L89.28496,149.94615 L101.36861,170.87564 L112.45225,151.6782 L92.28496,151.6782 L101.36861,167.41154 L109.45225,153.41025 L95.28496,153.41025 L101.36861,163.94745 L106.45225,155.1423 L98.28496,155.1423 L101.36861,160.48334 L103.45225,156.87436 L101.28496,156.87436 L101.36861,157.01924 M78.5529,145.75 L56.469257,184 L100.63655,184 L79.5529,147.48206 L59.469257,182.26794 L97.63655,182.26794 L79.5529,150.94615 L62.469257,180.5359 L94.63655,180.5359 L79.5529,154.41025 L65.46925,178.80385 L91.63655,178.80385 L79.5529,157.87436 L68.46925,177.0718 L88.63655,177.0718 L79.5529,161.33846 L71.46925,175.33975 L85.63655,175.33975 L79.5529,164.80255 L74.46925,173.6077 L82.63655,173.6077 L79.5529,168.26666 L77.46925,171.87564 L79.63655,171.87564 L79.5529,171.73076 M104.100655,184 L148.26794,184 L126.1843,145.75 L105.100655,182.26794 L145.26794,182.26794 L126.1843,149.2141 L108.100655,180.5359 L142.26794,180.5359 L126.1843,152.6782 L111.100655,178.80385 L139.26794,178.80385 L126.1843,156.1423 L114.100655,177.0718 L136.26794,177.0718 L126.1843,159.6064 L117.100655,175.33975 L133.26794,175.33975 L126.1843,163.07051 L120.100655,173.6077 L130.26794,173.6077 L126.1843,166.5346 L123.100655,171.87564 L127.26795,171.87564 L126.1843,169.99872 L126.100655,170.1436 M126.1843,63.25 L104.100655,101.5 L148.26794,101.5 L127.1843,64.98205 L107.100655,99.76795 L145.26794,99.76795 L127.1843,68.44615 L110.100655,98.0359 L142.26794,98.0359 L127.1843,71.910255 L113.100655,96.30385 L139.26794,96.30385 L127.1843,75.37436 L116.100655,94.5718 L136.26794,94.5718 L127.1843,78.838455 L119.100655,92.839745 L133.26794,92.839745 L127.1843,82.30256 L122.100655,91.1077 L130.26794,91.1077 L127.1843,85.76666 L125.100655,89.37564 L127.26795,89.37564 L127.1843,89.23076" fill="none" stroke="silver" stroke-width="0.4"/>
</g>
</svg>