<svg height="100mm" style="background:white" viewBox="0 0 100 100" width="100mm" xmlns="http://www.w3.org/2000/svg" xmlns:inkscape="http://www.inkscape.org/namespaces/inkscape">
<g inkscape:groupmode="layer" inkscape:label="#000">
<path d="M42,26.25 L58,26.25 M42,26.6 L58,26.6 M42,26.95 L58,26.95 M42,27.3 L58,27.3 M42,27.65 L58,27.65 M42,28 L58,28 M42,28.35 L58,28.35 M42,28.7 L58,28.7 M42,29.05 L58,29.05 M42,29.4 L58,29.4 M42,29.75 L58,29.75 M42,30.1 L58,30.1 M42,30.45 L58,30.45 M42,30.8 L58,30.8 M42,31.15 L58,31.15 M42,31.5 L58,31.5 M42,31.85 L58,31.85 M42,32.2 L58,32.2 M42,32.55 L58,32.55 M42,32.9 L58,32.9 M42,33.25 L58,33.25 M42,33.6 L58,33.6 M42,33.95 L58,33.95 M42,34.3 L58,34.3 M42,34.65 L58,34.65 M42,35 L58,35 M42,35.35 L58,35.35 M42,35.7 L58,35.7 M42,36.05 L58,36.05 M42,36.4 L58,36.4 M42,36.75 L58,36.75 M42,37.1 L58,37.1 M42,37.45 L58,37.45 M42,37.8 L58,37.8 M42,38.15 L58,38.15 M42,38.5 L58,38.5 M42,38.85 L58,38.85 M42,39.2 L58,39.2 M42,39.55 L58,39.55 M42,39.9 L58,39.9 M42,40.25 L58,40.25 M42,40.6 L58,40.6 M42,40.95 L58,40.95 M42,41.3 L58,41.3 M42,41.65 L58,41.65 M58,42 L74,42 M58,42.35 L74,42.35 M58,42.7 L74,42.7 M58,43.05 L74,43.05 M58,43.4 L74,43.4 M58,43.75 L74,43.75 M58,44.1 L74,44.1 M58,44.45 L74,44.45 M58,44.8 L74,44.8 M58,45.15 L74,45.15 M58,45.5 L74,45.5 M58,45.85 L74,45.85 M58,46.2 L74,46.2 M58,46.55 L74,46.55 M58,46.9 L74,46.9 M58,47.25 L74,47.25 M58,47.6 L74,47.6 M58,47.95 L74,47.95 M58,48.3 L74,48.3 M58,48.65 L74,48.65 M58,49 L74,49 M58,49.35 L74,49.35 M58,49.7 L74,49.7 M58,50.05 L74,50.05 M58,50.4 L74,50.4 M58,50.75 L74,50.75 M58,51.1 L74,51.1 M58,51.45 L74,51.45 M58,51.8 L74,51.8 M58,52.15 L74,52.15 M58,52.5 L74,52.5 M58,52.85 L74,52.85 M58,53.2 L74,53.2 M58,53.55 L74,53.55 M58,53.9 L74,53.9 M58,54.25 L74,54.25 M58,54.6 L74,54.6 M58,54.95 L74,54.95 M58,55.3 L74,55.3 M58,55.65 L74,55.65 M58,56 L74,56 M58,56.35 L74,56.35 M58,56.7 L74,56.7 M58,57.05 L74,57.05 M58,57.4 L74,57.4 M58,57.75 L74,57.75 M26,58.1 L74,58.1 M26,58.45 L74,58.45 M26,58.8 L74,58.8 M26,59.15 L74,59.15 M26,59.5 L74,59.5 M26,59.85 L74,59.85 M26,60.2 L74,60.2 M26,60.55 L74,60.55 M26,60.9 L74,60.9 M26,61.25 L74,61.25 M26,61.6 L74,61.6 M26,61.95 L74,61.95 M26,62.3 L74,62.3 M26,62.65 L74,62.65 M26,63 L74,63 M26,63.35 L74,63.35 M26,63.7 L74,63.7 M26,64.05 L74,64.05 M26,64.4 L74,64.4 M26,64.75 L74,64.75 M26,65.1 L74,65.1 M26,65.45 L74,65.45 M26,65.8 L74,65.8 M26,66.15 L74,66.15 M26,66.5 L74,66.5 M26,66.85 L74,66.85 M26,67.2 L74,67.2 M26,67.55 L74,67.55 M26,67.9 L74,67.9 M26,68.25 L74,68.25 M26,68.6 L74,68.6 M26,68.95 L74,68.95 M26,69.3 L74,69.3 M26,69.65 L74,69.65 M26,70 L74,70 M26,70.35 L74,70.35 M26,70.7 L74,70.7 M26,71.05 L74,71.05 M26,71.4 L74,71.4 M26,71.75 L74,71.75 M26,72.1 L74,72.1 M26,72.45 L74,72.45 M26,72.8 L74,72.8 M26,73.15 L74,73.15 M26,73.5 L74,73.5 M26,73.85 L74,73.85" fill="none" stroke="#000" stroke-width="0.35" style="mix-blend-mode: multiply;"/>
</g>
</svg>