<svg height="210mm" style="background: black" viewBox="0 0 297 210" width="297mm" xmlns="http://www.w3.org/2000/svg" xmlns:inkscape="http://www.inkscape.org/namespaces/inkscape">
<path d="M123.75,97.5 L122.5,100 L128.75,100 L128.75,102.5 L127.5,97.5 L121.25,105 L121.25,106.25 L120,107.5 L123.75,102.5 L123.75,103.75 L125,103.75 L117.5,103.75 L117.5,98.75 L115,100 L117.5,101.25 L118.75,102.5 L120,105 L120,106.25 L117.5,107.5 L118.75,108.75 L115,111.25 L116.25,107.5 L123.75,107.5 L131.25,103.75 L132.5,107.5 L133.75,106.25 L140,107.5 L138.75,107.5 L138.75,103.75 L140,105 L138.75,113.75 L140,112.5 L138.75,110 L142.5,111.25 L141.25,113.75 L137.5,117.5 L140,113.75 L137.5,115 L137.5,107.5 L140,103.75 L142.5,97.5 L143.75,98.75 L142.5,100 L143.75,102.5 L145,102.5 L145,103.75 L147.5,111.25 L148.75,115 L147.5,115 L150,112.5 L150,115 L155,116.25 L168.75,125 L167.5,126.25 L165,127.5 L166.25,128.75 L166.25,130 L167.5,131.25 L167.5,132.5 L168.75,131.25 L167.5,133.75 L168.75,132.5 L171.25,133.75 L170,133.75 L168.75,137.5 L170,141.25 L167.5,145 L167.5,143.75 L163.75,145 L166.25,142.5 L165,143.75 L163.75,142.5 L162.5,148.75 L162.5,150 L160,147.5 L160,150 L161.25,153.75 L161.25,152.5 L162.5,155 L157.5,156.25 L157.5,157.5 L160,158.75 L160,157.5 L158.75,155 L161.25,151.25 L161.25,148.75 L161.25,146.25 L162.5,147.5 L166.25,148.75 L168.75,153.75 L168.75,151.25 L172.5,158.75 L175,160 L171.25,163.75 L170,165 L170,163.75 L163.75,165 L165,163.75 L168.75,163.75 L162.5,158.75 L161.25,160 L162.5,160 L163.75,160 L163.75,161.25 L163.75,162.5 L162.5,165 L163.75,167.5 L155,171.25 L155,170 L151.25,168.75 L155,167.5 L155,166.25 L155,163.75 L156.25,166.25 L160,171.25 L158.75,171.25 L158.75,167.5 L156.25,168.75 L158.75,165 L162.5,161.25 L161.25,161.25 L157.5,160 L157.5,162.5 L158.75,160 L158.75,162.5 L155,160 L156.25,162.5 L150,170 L145,172.5 L140,170 L141.25,171.25 L141.25,167.5 L141.25,170 L146.25,170 L147.5,168.75 L151.25,171.25 L151.25,170 L148.75,168.75 L152.5,167.5 L148.75,165 L151.25,160 L151.25,161.25 L152.5,158.75 L150,157.5 L151.25,152.5 L150,150 L150,151.25 L148.75,153.75 L147.5,158.75 L150,158.75 L150,161.25 L150,162.5 L148.75,161.25 L145,160 L146.25,162.5 L147.5,163.75 L150,163.75 L147.5,166.25 L145,165 L141.25,158.75 L138.75,162.5 L140,165 L137.5,171.25 L138.75,168.75 L137.5,168.75 L141.25,166.25 L142.5,163.75 L140,161.25 L145,157.5 L143.75,157.5 L142.5,157.5 L138.75,155 L133.75,160 L132.5,162.5 L135,161.25 L138.75,167.5 L143.75,167.5 L141.25,156.25 L141.25,155 L141.25,157.5 L140,156.25 L137.5,153.75 L138.75,152.5 L136.25,155 L136.25,156.25 L137.5,151.25 L136.25,150 L141.25,148.75 L141.25,147.5 L142.5,146.25 L142.5,145 L140,147.5 L138.75,146.25 L136.25,148.75 L135,147.5 L141.25,145 L141.25,143.75 L141.25,142.5 L143.75,142.5 L145,136.25 L143.75,136.25 L143.75,137.5 L142.5,140 L143.75,141.25 L145,140 L145,141.25 L143.75,143.75 L137.5,143.75 L136.25,141.25 L137.5,140 L132.5,136.25 L131.25,130 L137.5,131.25 L136.25,130 L135,131.25 L135,132.5 L133.75,133.75 L136.25,133.75 L136.25,136.25 L141.25,138.75 L141.25,137.5 L142.5,135 L145,135 L147.5,130 L145,127.5 L145,126.25 L142.5,128.75 L143.75,128.75 L145,130 L151.25,132.5 L152.5,135 L153.75,135 L155,133.75 L160,130 L157.5,133.75 L157.5,135 L158.75,137.5 L157.5,136.25 L156.25,136.25 L157.5,132.5 L161.25,130 L158.75,128.75 L155,130 L153.75,131.25 L155,128.75 L156.25,126.25 L157.5,125 L158.75,122.5 L158.75,121.25 L157.5,118.75 L155,115 L162.5,118.75 L166.25,120 L168.75,121.25 L167.5,120 L168.75,120 L168.75,115 L171.25,115 L173.75,117.5 L171.25,117.5 L168.75,117.5 L170,118.75 L171.25,120 L165,118.75 L160,112.5 L157.5,115 L160,116.25 L163.75,110 L161.25,110 L162.5,110 L162.5,107.5 L168.75,98.75 L163.75,105 L167.5,108.75 L168.75,110 L170,112.5 L163.75,111.25 L168.75,108.75 L170,106.25 L171.25,110 L180,106.25 L181.25,106.25 L186.25,102.5 L187.5,103.75 L183.75,103.75 L185,106.25 L186.25,105 L188.75,107.5 L188.75,106.25 L190,110 L193.75,108.75 L190,115 L187.5,113.75 L190,113.75 L188.75,111.25 L187.5,106.25 L190,103.75 L186.25,106.25 L185,105 L185,107.5 L186.25,107.5 L188.75,108.75 L185,111.25 L186.25,115 L185,115 L182.5,116.25 L182.5,118.75 L183.75,118.75 L185,118.75 L187.5,115 L185,117.5 L187.5,117.5 L190,116.25 L193.75,112.5 L192.5,112.5 L190,117.5 L190,120 L191.25,121.25 L192.5,120 L193.75,118.75 L191.25,123.75 L190,133.75 L190,135 L190,131.25 L188.75,125 L196.25,126.25 L192.5,121.25 L201.25,125 L203.75,125 L205,130 L208.75,135 L211.25,135 L212.5,137.5 L210,138.75 L208.75,137.5 L206.25,138.75 L205,138.75 L205,140 L202.5,141.25 L205,142.5 L207.5,143.75 L206.25,143.75 L205,143.75 L207.5,142.5 L203.75,148.75 L202.5,148.75 L201.25,150 L198.75,147.5 L201.25,141.25 L200,143.75 L207.5,147.5 L208.75,147.5 L207.5,145 L207.5,141.25 L207.5,138.75 L210,140 L208.75,141.25 L208.75,143.75 L210,145 L211.25,146.25 L212.5,145 L212.5,141.25 L213.75,141.25 L216.25,140 L216.25,141.25 L223.75,138.75 L226.25,137.5 L226.25,136.25 L223.75,136.25 L222.5,136.25 L218.75,136.25 L221.25,133.75 L223.75,132.5 L225,131.25 L225,128.75 L222.5,126.25 L221.25,128.75 L218.75,125 L217.5,128.75 L218.75,130 L218.75,132.5 L222.5,133.75 L223.75,133.75 L227.5,137.5 L230,135 L228.75,133.75 L228.75,137.5 L231.25,138.75 L231.25,140 L227.5,141.25 L228.75,141.25 L227.5,140 L228.75,142.5 L228.75,143.75 L230,143.75 L230,142.5 L230,141.25 L230,140 L228.75,140 L226.25,138.75 L225,137.5 L225,136.25 L227.5,133.75 L225,126.25 L225,123.75 L228.75,125 L227.5,126.25 L226.25,127.5 L226.25,126.25 L225,130 L225,125 L223.75,125 L227.5,123.75 L228.75,131.25 L230,131.25 L230,133.75 L227.5,132.5 L223.75,131.25 L221.25,132.5 L218.75,128.75 L220,131.25 L215,135 L210,137.5 L211.25,133.75 L213.75,133.75 L213.75,132.5 L215,132.5 L215,133.75 L216.25,136.25 L215,137.5 L215,138.75 L215,136.25 L213.75,140 L215,141.25 L213.75,143.75 L210,136.25 L210,127.5 L206.25,123.75 L205,125 L203.75,130 L205,128.75 L201.25,133.75 L202.5,135 L201.25,135 L201.25,137.5 L202.5,137.5 L203.75,135 L207.5,137.5 L205,136.25 L203.75,133.75 L197.5,132.5 L197.5,130 L196.25,130 L195,128.75 L193.75,130 L192.5,122.5 L195,126.25 L192.5,125 L196.25,128.75 L197.5,128.75 L201.25,127.5 L201.25,130 L201.25,131.25 L205,132.5 L206.25,132.5 L212.5,130 L212.5,131.25 L215,128.75 L217.5,130 L216.25,132.5 L216.25,131.25 L213.75,126.25 L208.75,126.25 L207.5,125 L208.75,127.5 L210,126.25 L213.75,123.75 L212.5,123.75 L208.75,123.75 L218.75,122.5 L217.5,123.75 L221.25,120 L223.75,128.75 L223.75,127.5 L222.5,127.5 L221.25,126.25 L218.75,123.75 L223.75,121.25 L216.25,93.75 L217.5,90 L217.5,88.75 L221.25,80 L225,81.25 L227.5,82.5 L226.25,77.5 L225,77.5 L223.75,76.25 L220,76.25 L217.5,76.25 L213.75,78.75 L213.75,86.25 L210,85 L207.5,82.5 L207.5,80 L208.75,77.5 L216.25,83.75 L215,85 L213.75,85 L211.25,83.75 L213.75,81.25 L215,81.25 L208.75,81.25 L208.75,82.5 L208.75,80 L208.75,83.75 L206.25,83.75 L207.5,85 L208.75,85 L210,83.75 L211.25,78.75 L212.5,71.25 L210,68.75 L211.25,67.5 L211.25,70 L213.75,67.5 L215,65 L215,66.25 L213.75,66.25 L212.5,65 L211.25,65 L208.75,66.25 L210,62.5 L211.25,63.75 L212.5,63.75 L217.5,68.75 L221.25,75 L220,78.75 L217.5,80 L218.75,80 L220,82.5 L220,81.25 L220,80 L222.5,77.5 L223.75,77.5 L226.25,83.75 L225,85 L223.75,85 L226.25,82.5 L220,90 L218.75,91.25 L216.25,91.25 L213.75,88.75 L217.5,87.5 L220,87.5 L220,83.75 L221.25,86.25 L220,88.75 L218.75,90 L217.5,92.5 L212.5,93.75 L208.75,92.5 L202.5,88.75 L201.25,87.5 L200,88.75 L201.25,91.25 L200,93.75 L202.5,97.5 L205,98.75 L207.5,96.25 L208.75,97.5 L208.75,98.75 L207.5,102.5 L206.25,102.5 L202.5,101.25 L200,101.25 L200,100 L197.5,97.5 L197.5,100 L198.75,102.5 L198.75,101.25 L197.5,102.5 L200,103.75 L202.5,106.25 L193.75,106.25 L190,107.5 L190,108.75 L192.5,100 L193.75,97.5 L193.75,100 L195,100 L196.25,100 L196.25,101.25 L195,101.25 L193.75,105 L195,105 L198.75,105 L200,105 L200,107.5 L196.25,111.25 L196.25,108.75 L195,107.5 L196.25,106.25 L196.25,102.5 L195,106.25 L198.75,103.75 L201.25,102.5 L201.25,98.75 L202.5,98.75 L202.5,102.5 L202.5,103.75 L205,101.25 L207.5,97.5 L212.5,96.25 L202.5,92.5 L203.75,93.75 L205,93.75 L205,88.75 L206.25,87.5 L212.5,90 L211.25,90 L213.75,95 L212.5,97.5 L211.25,96.25 L211.25,95 L207.5,95 L208.75,95 L202.5,96.25 L202.5,91.25 L202.5,90 L198.75,91.25 L203.75,90 L202.5,87.5 L205,85 L201.25,80 L201.25,77.5 L200,77.5 L200,76.25 L202.5,76.25 L201.25,78.75 L200,86.25 L201.25,88.75 L198.75,83.75 L196.25,77.5 L192.5,76.25 L192.5,75 L188.75,73.75 L187.5,72.5 L191.25,75 L191.25,78.75 L188.75,78.75 L187.5,77.5 L183.75,78.75 L183.75,73.75 L185,71.25 L188.75,70 L186.25,66.25 L187.5,67.5 L191.25,67.5 L192.5,68.75 L191.25,68.75 L191.25,70 L195,70 L193.75,70 L192.5,72.5 L192.5,78.75 L193.75,77.5 L197.5,77.5 L198.75,73.75 L200,73.75 L197.5,73.75 L196.25,75 L195,81.25 L201.25,83.75 L202.5,83.75 L205,83.75 L198.75,85 L197.5,87.5 L193.75,85 L195,83.75 L193.75,82.5 L193.75,81.25 L196.25,81.25 L201.25,76.25 L201.25,72.5 L203.75,72.5 L203.75,76.25 L201.25,71.25 L206.25,72.5 L206.25,77.5 L207.5,72.5 L206.25,70 L205,70 L202.5,68.75 L201.25,68.75 L203.75,67.5 L206.25,68.75 L207.5,70 L207.5,67.5 L207.5,66.25 L210,67.5 L213.75,68.75 L211.25,72.5 L208.75,70 L208.75,71.25 L211.25,71.25 L216.25,68.75 L217.5,67.5 L217.5,66.25 L217.5,61.25 L220,62.5 L223.75,62.5 L230,65 L231.25,65 L230,70 L226.25,76.25 L225,80 L222.5,86.25 L223.75,82.5 L218.75,85 L216.25,86.25 L216.25,88.75 L215,87.5 L216.25,87.5 L216.25,78.75 L220,70 L220,67.5 L221.25,70 L220,65 L220,66.25 L218.75,67.5 L222.5,62.5 L225,61.25 L227.5,61.25 L227.5,62.5 L226.25,60 L227.5,60 L228.75,60 L228.75,61.25 L226.25,63.75 L225,66.25 L226.25,66.25 L227.5,67.5 L228.75,68.75 L231.25,68.75 L231.25,75 L231.25,73.75 L230,72.5 L228.75,78.75 L231.25,77.5 L231.25,76.25 L233.75,75 L232.5,75 L226.25,71.25 L225,72.5 L225,68.75 L223.75,70 L221.25,71.25 L222.5,73.75 L225,75 L226.25,73.75 L226.25,75 L228.75,73.75 L230,75 L236.25,70 L236.25,68.75 L235,67.5 L235,71.25 L232.5,72.5 L227.5,70 L223.75,68.75 L222.5,70 L216.25,72.5 L215,68.75 L213.75,70 L213.75,72.5 L213.75,73.75 L211.25,75 L212.5,72.5 L208.75,75 L208.75,76.25 L206.25,81.25 L201.25,86.25 L193.75,88.75 L195,88.75 L195,91.25 L197.5,90 L196.25,88.75 L196.25,87.5 L196.25,86.25 L192.5,83.75 L191.25,83.75 L183.75,88.75 L183.75,87.5 L186.25,93.75 L183.75,92.5 L182.5,91.25 L180,92.5 L178.75,91.25 L178.75,88.75 L180,82.5 L176.25,83.75 L176.25,87.5 L177.5,86.25 L180,85 L177.5,83.75 L178.75,83.75 L181.25,82.5 L182.5,81.25 L186.25,82.5 L186.25,83.75 L187.5,83.75 L181.25,80 L181.25,81.25 L180,90 L181.25,90 L181.25,91.25 L175,88.75 L173.75,88.75 L173.75,86.25 L172.5,87.5 L171.25,88.75 L170,91.25 L172.5,93.75 L176.25,96.25 L180,95 L183.75,97.5 L177.5,101.25 L180,101.25 L183.75,100 L186.25,100 L185,100 L183.75,101.25 L181.25,98.75 L182.5,98.75 L186.25,97.5 L187.5,96.25 L186.25,96.25 L188.75,100 L187.5,98.75 L186.25,101.25 L182.5,102.5 L180,102.5 L181.25,103.75 L181.25,107.5 L180,108.75 L180,111.25 L180,112.5 L181.25,111.25 L182.5,110 L185,113.75 L186.25,112.5 L188.75,112.5 L190,111.25 L191.25,111.25 L195,110 L198.75,108.75 L201.25,110 L197.5,112.5 L196.25,113.75 L198.75,113.75 L210,121.25 L210,122.5 L211.25,123.75 L212.5,122.5 L211.25,121.25 L212.5,120 L216.25,122.5 L218.75,121.25 L217.5,121.25 L211.25,98.75 L211.25,97.5 L203.75,107.5 L205,105 L203.75,106.25 L198.75,112.5 L198.75,110 L193.75,115 L193.75,116.25 L192.5,117.5 L191.25,118.75 L188.75,117.5 L186.25,123.75 L186.25,121.25 L187.5,120 L183.75,121.25 L183.75,120 L182.5,120 L182.5,117.5 L183.75,123.75 L187.5,127.5 L187.5,126.25 L185,128.75 L186.25,130 L182.5,130 L177.5,130 L181.25,125 L181.25,126.25 L181.25,127.5 L178.75,123.75 L185,125 L182.5,123.75 L185,127.5 L186.25,132.5 L188.75,135 L183.75,137.5 L183.75,142.5 L182.5,140 L182.5,138.75 L181.25,138.75 L186.25,136.25 L186.25,135 L191.25,135 L191.25,133.75 L196.25,131.25 L195,131.25 L193.75,131.25 L192.5,133.75 L193.75,132.5 L195,133.75 L196.25,132.5 L195,136.25 L198.75,135 L200,138.75 L197.5,138.75 L197.5,140 L200,141.25 L198.75,142.5 L198.75,143.75 L202.5,147.5 L203.75,143.75 L203.75,137.5 L202.5,138.75 L203.75,140 L202.5,143.75 L201.25,140 L195,141.25 L195,145 L191.25,146.25 L191.25,143.75 L191.25,142.5 L188.75,142.5 L186.25,140 L187.5,138.75 L191.25,140 L193.75,141.25 L192.5,141.25 L191.25,137.5 L188.75,140 L190,142.5 L192.5,148.75 L193.75,151.25 L195,155 L198.75,150 L197.5,150 L198.75,151.25 L200,147.5 L197.5,146.25 L193.75,145 L196.25,143.75 L196.25,138.75 L193.75,136.25 L191.25,138.75 L191.25,136.25 L187.5,142.5 L187.5,145 L185,145 L188.75,138.75 L185,135 L185,132.5 L183.75,135 L185,133.75 L183.75,132.5 L178.75,131.25 L180,132.5 L180,131.25 L181.25,131.25 L176.25,130 L172.5,131.25 L172.5,128.75 L170,122.5 L170,121.25 L172.5,122.5 L173.75,125 L172.5,123.75 L172.5,120 L168.75,127.5 L167.5,127.5 L168.75,126.25 L175,126.25 L176.25,127.5 L176.25,125 L178.75,126.25 L176.25,123.75 L176.25,120 L175,122.5 L177.5,121.25 L178.75,118.75 L177.5,118.75 L176.25,118.75 L181.25,121.25 L180,121.25 L177.5,120 L181.25,117.5 L181.25,118.75 L178.75,112.5 L177.5,115 L178.75,116.25 L180,117.5 L177.5,117.5 L175,117.5 L172.5,115 L173.75,113.75 L172.5,112.5 L177.5,110 L178.75,111.25 L176.25,113.75 L176.25,111.25 L177.5,107.5 L176.25,100 L177.5,97.5 L176.25,98.75 L180,98.75 L182.5,96.25 L181.25,96.25 L178.75,95 L178.75,96.25 L176.25,93.75 L171.25,93.75 L171.25,95 L168.75,96.25 L170,92.5 L171.25,91.25 L175,86.25 L173.75,83.75 L177.5,81.25 L178.75,81.25 L182.5,80 L185,80 L182.5,76.25 L182.5,75 L182.5,72.5 L182.5,73.75 L182.5,70 L182.5,71.25 L185,70 L186.25,68.75 L181.25,68.75 L182.5,68.75 L185,67.5 L191.25,61.25 L192.5,61.25 L191.25,53.75 L195,52.5 L200,50 L198.75,45 L200,51.25 L202.5,51.25 L202.5,50 L200,45 L200,42.5 L202.5,47.5 L197.5,47.5 L198.75,40 L202.5,40 L202.5,41.25 L201.25,42.5 L200,41.25 L202.5,38.75 L203.75,43.75 L203.75,45 L210,45 L211.25,43.75 L213.75,38.75 L215,36.25 L207.5,40 L207.5,38.75 L207.5,36.25 L208.75,35 L208.75,37.5 L202.5,43.75 L202.5,45 L206.25,46.25 L207.5,42.5 L207.5,35 L211.25,36.25 L211.25,37.5 L211.25,41.25 L211.25,40 L212.5,38.75 L213.75,40 L216.25,42.5 L217.5,43.75 L213.75,43.75 L215,48.75 L218.75,51.25 L217.5,50 L220,42.5 L218.75,43.75 L217.5,45 L217.5,47.5 L221.25,46.25 L221.25,47.5 L223.75,50 L225,50 L217.5,55 L215,52.5 L210,47.5 L210,46.25 L208.75,46.25 L211.25,45 L211.25,46.25 L211.25,48.75 L211.25,52.5 L212.5,52.5 L210,52.5 L208.75,53.75 L206.25,53.75 L205,53.75 L205,52.5 L211.25,50 L213.75,52.5 L213.75,53.75 L211.25,55 L212.5,56.25 L218.75,53.75 L217.5,53.75 L216.25,53.75 L216.25,56.25 L210,58.75 L212.5,57.5 L213.75,58.75 L210,63.75 L211.25,62.5 L213.75,62.5 L212.5,61.25 L216.25,62.5 L218.75,62.5 L218.75,60 L222.5,56.25 L223.75,60 L223.75,56.25 L226.25,56.25 L226.25,55 L227.5,51.25 L228.75,52.5 L232.5,51.25 L233.75,51.25 L233.75,55 L238.75,61.25 L240,58.75 L238.75,60 L237.5,60 L233.75,60 L231.25,58.75 L230,57.5 L228.75,57.5 L227.5,56.25 L231.25,57.5 L232.5,53.75 L232.5,55 L231.25,53.75 L233.75,50 L236.25,48.75 L235,48.75 L237.5,45 L236.25,42.5 L237.5,43.75 L238.75,42.5 L236.25,45 L235,43.75 L233.75,40 L236.25,40 L236.25,37.5 L233.75,38.75 L233.75,33.75 L226.25,28.75 L226.25,30 L226.25,31.25 L222.5,30 L227.5,26.25 L228.75,26.25 L228.75,25 L228.75,23.75 L225,22.5 L225,23.75 L227.5,27.5 L235,30 L242.5,25 L241.25,23.75 L242.5,26.25 L242.5,27.5 L240,26.25 L237.5,27.5 L237.5,30 L238.75,30 L238.75,35 L240,27.5 L241.25,27.5 L242.5,30 L238.75,23.75 L228.75,18.75 L227.5,20 L225,20 L226.25,18.75 L226.25,22.5 L228.75,22.5 L225,21.25 L223.75,21.25 L222.5,21.25 L222.5,25 L221.25,25 L221.25,26.25 L221.25,30 L222.5,28.75 L223.75,27.5 L226.25,26.25 L227.5,28.75 L227.5,30 L228.75,30 L235,36.25 L238.75,40 L240,40 L242.5,40 L243.75,41.25 L243.75,38.75 L243.75,37.5 L243.75,36.25 L243.75,35 L241.25,32.5 L242.5,37.5 L241.25,38.75 L241.25,35 L240,35 L241.25,33.75 L237.5,37.5 L240,37.5 L237.5,36.25 L236.25,35 L236.25,31.25 L236.25,32.5 L228.75,36.25 L226.25,35 L226.25,36.25 L227.5,37.5 L225,38.75 L228.75,41.25 L228.75,37.5 L227.5,36.25 L223.75,35 L225,35 L223.75,32.5 L221.25,35 L221.25,37.5 L222.5,36.25 L220,28.75 L220,30 L220,35 L216.25,37.5 L215,37.5 L211.25,33.75 L210,32.5 L210,28.75 L212.5,28.75 L211.25,30 L212.5,32.5 L215,30 L213.75,31.25 L216.25,38.75 L217.5,42.5 L213.75,41.25 L213.75,47.5 L218.75,38.75 L218.75,41.25 L221.25,38.75 L221.25,40 L223.75,45 L222.5,46.25 L223.75,43.75 L226.25,43.75 L223.75,42.5 L223.75,40 L227.5,41.25 L226.25,40 L230,42.5 L232.5,42.5 L236.25,43.75 L241.25,42.5 L243.75,43.75 L238.75,45 L242.5,43.75 L243.75,48.75 L240,46.25 L241.25,50 L241.25,51.25 L237.5,52.5 L238.75,52.5 L241.25,48.75 L238.75,55 L241.25,53.75 L242.5,53.75 L242.5,55 L237.5,56.25 L240,56.25 L233.75,61.25 L240,63.75 L240,62.5 L237.5,61.25 L237.5,65 L236.25,65 L235,68.75 L233.75,65 L232.5,67.5 L235,66.25 L237.5,66.25 L232.5,61.25 L228.75,65 L228.75,62.5 L230,62.5 L228.75,58.75 L226.25,58.75 L227.5,57.5 L227.5,58.75 L228.75,56.25 L227.5,52.5 L231.25,48.75 L232.5,48.75 L232.5,50 L233.75,48.75 L232.5,47.5 L233.75,47.5 L237.5,50 L238.75,50 L236.25,53.75 L228.75,47.5 L228.75,50 L226.25,50 L225,55 L223.75,52.5 L220,52.5 L223.75,51.25 L225,51.25 L221.25,50 L223.75,47.5 L226.25,46.25 L225,46.25 L228.75,46.25 L227.5,43.75 L227.5,42.5 L232.5,41.25 L232.5,40 L233.75,36.25 L232.5,37.5 L232.5,38.75 L235,41.25 L232.5,45 L231.25,47.5 L232.5,43.75 L231.25,46.25 L227.5,48.75 L221.25,61.25 L221.25,62.5 L216.25,61.25 L215,60 L216.25,60 L217.5,58.75 L213.75,60 L210,61.25 L207.5,61.25 L205,62.5 L206.25,61.25 L208.75,60 L208.75,58.75 L210,57.5 L208.75,56.25 L210,55 L206.25,47.5 L205,47.5 L205,48.75 L201.25,51.25 L201.25,52.5 L196.25,55 L195,53.75 L193.75,55 L192.5,55 L190,56.25 L190,57.5 L190,58.75 L195,58.75 L193.75,56.25 L195,56.25 L197.5,56.25 L202.5,62.5 L202.5,63.75 L206.25,63.75 L200,70 L195,68.75 L195,67.5 L197.5,66.25 L198.75,66.25 L196.25,68.75 L197.5,68.75 L200,65 L201.25,63.75 L201.25,65 L203.75,66.25 L205,63.75 L203.75,62.5 L201.25,57.5 L200,57.5 L201.25,53.75 L200,52.5 L200,53.75 L197.5,58.75 L197.5,57.5 L198.75,60 L200,61.25 L201.25,60 L201.25,62.5 L201.25,61.25 L198.75,63.75 L195,65 L197.5,60 L192.5,60 L193.75,62.5 L192.5,63.75 L192.5,66.25 L195,66.25 L192.5,67.5 L191.25,66.25 L193.75,68.75 L192.5,71.25 L191.25,71.25 L190,71.25 L191.25,80 L187.5,82.5 L190,81.25 L190,85 L190,86.25 L190,88.75 L192.5,90 L192.5,95 L193.75,95 L193.75,92.5 L191.25,92.5 L187.5,93.75 L187.5,91.25 L187.5,92.5 L188.75,91.25 L191.25,97.5 L190,100 L188.75,97.5 L191.25,96.25 L190,95 L193.75,96.25 L195,95 L196.25,95 L196.25,96.25 L196.25,97.5 L201.25,97.5 L203.75,98.75 L203.75,100 L205,96.25 L203.75,92.5 L201.25,93.75 L198.75,95 L195,92.5 L187.5,86.25 L182.5,85 L181.25,88.75 L178.75,87.5 L177.5,87.5 L176.25,88.75 L173.75,91.25 L175,90 L173.75,100 L175,101.25 L173.75,98.75 L173.75,97.5 L170,100 L170,102.5 L166.25,102.5 L165,102.5 L172.5,102.5 L175,102.5 L176.25,106.25 L173.75,103.75 L163.75,103.75 L147.5,102.5 L147.5,103.75 L147.5,101.25 L145,100 L143.75,97.5 L141.25,100 L141.25,101.25 L135,100 L137.5,98.75 L142.5,98.75 L146.25,98.75 L147.5,106.25 L148.75,105 L150,105 L152.5,107.5 L151.25,106.25 L151.25,105 L161.25,108.75 L163.75,108.75 L165,107.5 L165,108.75 L165,113.75 L167.5,115 L168.75,111.25 L170,111.25 L166.25,113.75 L161.25,115 L161.25,116.25 L162.5,117.5 L158.75,117.5 L156.25,117.5 L155,118.75 L153.75,118.75 L152.5,120 L151.25,123.75 L150,123.75 L150,121.25 L153.75,116.25 L152.5,112.5 L153.75,113.75 L153.75,111.25 L152.5,110 L153.75,110 L150,110 L151.25,111.25 L150,108.75 L147.5,107.5 L148.75,110 L148.75,111.25 L146.25,111.25 L141.25,111.25 L142.5,110 L143.75,111.25 L145,112.5 L143.75,112.5 L145,115 L142.5,115 L142.5,113.75 L141.25,115 L133.75,112.5 L133.75,111.25 L132.5,110 L125,117.5 L126.25,117.5 L125,116.25 L126.25,116.25 L128.75,116.25 L132.5,120 L131.25,121.25 L128.75,121.25 L130,121.25 L130,120 L132.5,121.25 L135,118.75 L133.75,120 L135,121.25 L136.25,120 L137.5,118.75 L135,126.25 L135,122.5 L130,117.5 L128.75,118.75 L128.75,120 L126.25,118.75 L122.5,118.75 L123.75,116.25 L118.75,112.5 L116.25,112.5 L118.75,111.25 L117.5,115 L121.25,116.25 L121.25,118.75 L115,122.5 L116.25,120 L118.75,120 L118.75,118.75 L116.25,118.75 L115,121.25 L112.5,118.75 L111.25,120 L110,118.75 L113.75,117.5 L113.75,112.5 L111.25,111.25 L110,113.75 L111.25,113.75 L112.5,115 L111.25,112.5 L116.25,113.75 L116.25,116.25 L117.5,116.25 L120,117.5 L118.75,116.25 L122.5,120 L123.75,121.25 L121.25,121.25 L123.75,117.5 L125,118.75 L126.25,120 L125,121.25 L126.25,122.5 L125,127.5 L126.25,130 L125,128.75 L123.75,130 L127.5,128.75 L122.5,122.5 L121.25,125 L122.5,130 L125,133.75 L122.5,133.75 L121.25,133.75 L117.5,131.25 L117.5,132.5 L116.25,132.5 L115,131.25 L115,133.75 L112.5,136.25 L111.25,136.25 L111.25,138.75 L110,138.75 L106.25,140 L108.75,141.25 L111.25,142.5 L110,143.75 L115,147.5 L115,146.25 L115,145 L113.75,145 L112.5,145 L110,148.75 L111.25,145 L115,142.5 L115,141.25 L112.5,140 L116.25,146.25 L117.5,145 L116.25,142.5 L115,143.75 L116.25,143.75 L116.25,137.5 L120,136.25 L121.25,137.5 L123.75,138.75 L127.5,131.25 L128.75,128.75 L130,130 L130,131.25 L127.5,130 L126.25,133.75 L128.75,141.25 L130,138.75 L136.25,140 L136.25,138.75 L135,138.75 L133.75,136.25 L135,127.5 L138.75,127.5 L138.75,126.25 L138.75,125 L137.5,130 L137.5,128.75 L137.5,126.25 L140,126.25 L140,127.5 L145,128.75 L146.25,125 L143.75,125 L142.5,123.75 L140,122.5 L137.5,123.75 L142.5,120 L146.25,121.25 L145,120 L145,116.25 L143.75,117.5 L146.25,112.5 L132.5,108.75 L131.25,110 L135,106.25 L133.75,110 L133.75,113.75 L132.5,117.5 L132.5,115 L132.5,116.25 L130,113.75 L125,110 L121.25,110 L125,108.75 L126.25,107.5 L126.25,108.75 L130,112.5 L127.5,112.5 L131.25,108.75 L127.5,103.75 L125,105 L121.25,102.5 L122.5,101.25 L125,95 L122.5,97.5 L121.25,96.25 L122.5,96.25 L122.5,93.75 L121.25,91.25 L123.75,88.75 L125,86.25 L121.25,86.25 L121.25,83.75 L122.5,86.25 L120,87.5 L122.5,90 L123.75,91.25 L127.5,96.25 L133.75,96.25 L135,97.5 L135,96.25 L132.5,92.5 L130,95 L130,93.75 L131.25,92.5 L130,88.75 L131.25,87.5 L128.75,87.5 L128.75,88.75 L127.5,87.5 L125,80 L135,87.5 L132.5,88.75 L133.75,90 L136.25,92.5 L138.75,92.5 L132.5,91.25 L130,91.25 L128.75,91.25 L127.5,90 L127.5,88.75 L126.25,88.75 L127.5,91.25 L138.75,95 L140,96.25 L141.25,95 L141.25,97.5 L137.5,101.25 L133.75,102.5 L135,102.5 L133.75,97.5 L127.5,92.5 L125,91.25 L128.75,93.75 L127.5,95 L128.75,95 L131.25,102.5 L130,100 L133.75,93.75 L138.75,93.75 L137.5,91.25 L137.5,90 L136.25,90 L133.75,88.75 L133.75,87.5 L132.5,87.5 L131.25,88.75 L131.25,86.25 L125,82.5 L123.75,81.25 L126.25,82.5 L123.75,87.5 L126.25,86.25 L127.5,85 L118.75,81.25 L123.75,78.75 L120,80 L118.75,80 L121.25,77.5 L117.5,76.25 L115,75 L115,72.5 L116.25,76.25 L118.75,77.5 L118.75,78.75 L117.5,82.5 L115,83.75 L112.5,83.75 L115,85 L113.75,87.5 L113.75,86.25 L115,87.5 L115,88.75 L111.25,90 L113.75,91.25 L112.5,91.25 L116.25,90 L116.25,92.5 L117.5,92.5 L118.75,93.75 L115,101.25 L112.5,102.5 L112.5,103.75 L117.5,106.25 L112.5,108.75 L111.25,108.75 L108.75,111.25 L108.75,113.75 L107.5,113.75 L107.5,115 L108.75,115 L105,110 L100,110 L108.75,110 L108.75,108.75 L107.5,107.5 L107.5,106.25 L106.25,106.25 L105,107.5 L106.25,105 L102.5,107.5 L103.75,105 L103.75,103.75 L102.5,103.75 L101.25,101.25 L98.75,101.25 L101.25,106.25 L98.75,111.25 L100,111.25 L98.75,110 L98.75,108.75 L93.75,106.25 L88.75,107.5 L91.25,106.25 L87.5,111.25 L87.5,107.5 L87.5,106.25 L90,102.5 L88.75,100 L88.75,101.25 L91.25,101.25 L87.5,101.25 L87.5,100 L85,100 L83.75,98.75 L85,103.75 L85,105 L86.25,101.25 L81.25,106.25 L82.5,107.5 L77.5,116.25 L78.75,116.25 L78.75,115 L76.25,113.75 L75,111.25 L80,112.5 L81.25,115 L81.25,113.75 L86.25,113.75 L88.75,110 L93.75,107.5 L92.5,107.5 L95,106.25 L93.75,105 L91.25,103.75 L95,101.25 L96.25,100 L100,98.75 L98.75,100 L106.25,100 L103.75,100 L107.5,100 L108.75,100 L106.25,97.5 L105,90 L102.5,92.5 L100,95 L103.75,98.75 L101.25,97.5 L102.5,102.5 L103.75,102.5 L107.5,101.25 L111.25,100 L112.5,97.5 L113.75,96.25 L110,96.25 L110,97.5 L108.75,97.5 L106.25,96.25 L101.25,95 L102.5,96.25 L98.75,96.25 L97.5,98.75 L97.5,97.5 L100,93.75 L93.75,100 L96.25,97.5 L92.5,91.25 L88.75,85 L88.75,83.75 L91.25,82.5 L93.75,81.25 L92.5,82.5 L92.5,81.25 L90,82.5 L87.5,86.25 L86.25,83.75 L85,82.5 L83.75,81.25 L83.75,82.5 L77.5,85 L73.75,88.75 L72.5,85 L71.25,85 L68.75,83.75 L70,83.75 L76.25,85 L75,85 L71.25,83.75 L67.5,78.75 L67.5,81.25 L68.75,76.25 L67.5,75 L71.25,77.5 L72.5,75 L72.5,76.25 L73.75,77.5 L77.5,77.5 L80,76.25 L81.25,78.75 L81.25,80 L82.5,80 L80,77.5 L75,73.75 L75,71.25 L75,72.5 L72.5,71.25 L72.5,72.5 L71.25,72.5 L71.25,73.75 L70,76.25 L70,82.5 L72.5,81.25 L73.75,80 L75,78.75 L75,77.5 L78.75,82.5 L81.25,85 L82.5,83.75 L85,87.5 L73.75,82.5 L73.75,76.25 L80,71.25 L77.5,71.25 L78.75,70 L78.75,68.75 L80,66.25 L80,67.5 L83.75,67.5 L82.5,66.25 L81.25,67.5 L81.25,72.5 L85,73.75 L86.25,70 L86.25,66.25 L86.25,67.5 L88.75,65 L90,66.25 L92.5,63.75 L93.75,63.75 L93.75,65 L98.75,67.5 L97.5,65 L93.75,61.25 L92.5,62.5 L91.25,62.5 L92.5,61.25 L97.5,58.75 L97.5,60 L97.5,61.25 L98.75,62.5 L101.25,62.5 L101.25,63.75 L100,61.25 L95,56.25 L88.75,55 L91.25,55 L93.75,58.75 L91.25,58.75 L85,57.5 L83.75,57.5 L86.25,61.25 L87.5,63.75 L88.75,63.75 L87.5,58.75 L86.25,58.75 L86.25,52.5 L82.5,52.5 L85,53.75 L85,51.25 L86.25,46.25 L85,46.25 L86.25,43.75 L83.75,45 L78.75,43.75 L77.5,45 L77.5,43.75 L78.75,41.25 L82.5,41.25 L85,42.5 L82.5,46.25 L82.5,43.75 L81.25,42.5 L85,45 L83.75,47.5 L83.75,48.75 L87.5,46.25 L82.5,48.75 L75,48.75 L76.25,43.75 L75,43.75 L68.75,45 L66.25,46.25 L67.5,47.5 L63.75,50 L56.25,53.75 L58.75,53.75 L60,57.5 L61.25,56.25 L61.25,58.75 L61.25,60 L60,58.75 L56.25,55 L57.5,53.75 L57.5,52.5 L55,46.25 L58.75,48.75 L61.25,50 L57.5,51.25 L60,48.75 L61.25,48.75 L63.75,46.25 L65,45 L65,43.75 L66.25,42.5 L57.5,43.75 L60,41.25 L61.25,40 L63.75,41.25 L61.25,41.25 L62.5,40 L63.75,45 L65,40 L68.75,41.25 L65,37.5 L63.75,36.25 L66.25,38.75 L66.25,33.75 L67.5,35 L70,38.75 L70,36.25 L73.75,40 L72.5,41.25 L78.75,40 L81.25,37.5 L82.5,40 L81.25,38.75 L80,37.5 L78.75,31.25 L78.75,33.75 L77.5,36.25 L76.25,37.5 L82.5,36.25 L82.5,33.75 L80,33.75 L72.5,35 L73.75,33.75 L73.75,32.5 L76.25,35 L72.5,37.5 L77.5,41.25 L78.75,42.5 L88.75,48.75 L88.75,53.75 L87.5,53.75 L83.75,56.25 L80,53.75 L81.25,57.5 L83.75,62.5 L82.5,61.25 L85,61.25 L85,60 L82.5,60 L77.5,58.75 L73.75,56.25 L76.25,56.25 L76.25,58.75 L70,57.5 L71.25,57.5 L71.25,56.25 L71.25,55 L72.5,55 L65,58.75 L68.75,55 L68.75,57.5 L65,56.25 L63.75,53.75 L63.75,58.75 L63.75,60 L62.5,56.25 L62.5,55 L65,52.5 L67.5,50 L66.25,53.75 L70,52.5 L71.25,53.75 L73.75,53.75 L75,55 L76.25,55 L75,53.75 L76.25,52.5 L76.25,51.25 L77.5,50 L76.25,50 L73.75,50 L71.25,46.25 L68.75,40 L72.5,43.75 L71.25,48.75 L71.25,47.5 L71.25,50 L68.75,52.5 L66.25,48.75 L67.5,48.75 L68.75,50 L68.75,58.75 L67.5,58.75 L73.75,61.25 L78.75,63.75 L77.5,68.75 L72.5,68.75 L72.5,65 L70,63.75 L65,65 L67.5,63.75 L70,65 L73.75,67.5 L72.5,67.5 L73.75,65 L73.75,62.5 L75,63.75 L71.25,58.75 L70,58.75 L72.5,62.5 L75,67.5 L80,80 L77.5,80 L76.25,80 L75,75 L68.75,72.5 L70,71.25 L70,68.75 L66.25,70 L67.5,73.75 L62.5,76.25 L62.5,75 L65,72.5 L58.75,65 L57.5,65 L56.25,66.25 L56.25,63.75 L57.5,62.5 L57.5,63.75 L60,65 L60,63.75 L61.25,65 L66.25,63.75 L66.25,66.25 L67.5,65 L68.75,65 L71.25,70 L73.75,68.75 L75,70 L76.25,67.5 L77.5,70 L82.5,71.25 L81.25,70 L82.5,70 L82.5,68.75 L83.75,70 L86.25,71.25 L88.75,71.25 L90,72.5 L87.5,70 L85,68.75 L83.75,68.75 L85,70 L87.5,72.5 L90,75 L88.75,72.5 L88.75,75 L90,76.25 L88.75,80 L87.5,76.25 L83.75,75 L82.5,77.5 L85,78.75 L81.25,73.75 L85,75 L87.5,73.75 L93.75,73.75 L92.5,72.5 L96.25,73.75 L93.75,76.25 L93.75,75 L92.5,75 L91.25,73.75 L92.5,71.25 L93.75,70 L93.75,71.25 L96.25,68.75 L95,68.75 L93.75,68.75 L91.25,68.75 L92.5,67.5 L97.5,71.25 L96.25,71.25 L100,73.75 L101.25,70 L98.75,70 L97.5,63.75 L95,61.25 L96.25,58.75 L93.75,57.5 L92.5,56.25 L91.25,57.5 L88.75,57.5 L88.75,58.75 L86.25,55 L82.5,53.75 L78.75,57.5 L80,58.75 L80,60 L81.25,61.25 L80,55 L77.5,52.5 L80,51.25 L80,50 L82.5,50 L83.75,50 L83.75,52.5 L76.25,47.5 L75,46.25 L80,47.5 L81.25,40 L83.75,38.75 L82.5,37.5 L82.5,35 L81.25,36.25 L80,35 L78.75,35 L70,27.5 L71.25,27.5 L68.75,28.75 L63.75,30 L65,30 L58.75,25 L60,21.25 L57.5,21.25 L57.5,20 L61.25,28.75 L61.25,30 L57.5,28.75 L57.5,31.25 L56.25,30 L60,26.25 L61.25,26.25 L62.5,30 L62.5,31.25 L67.5,25 L67.5,27.5 L67.5,33.75 L67.5,31.25 L66.25,25 L66.25,21.25 L66.25,18.75 L67.5,22.5 L68.75,23.75 L68.75,25 L68.75,22.5 L70,22.5 L71.25,25 L68.75,27.5 L70,28.75 L71.25,31.25 L78.75,36.25 L80,32.5 L78.75,28.75 L80,26.25 L80,23.75 L78.75,23.75 L77.5,25 L77.5,26.25 L77.5,28.75 L77.5,30 L75,32.5 L72.5,30 L72.5,31.25 L72.5,32.5 L66.25,32.5 L61.25,33.75 L63.75,37.5 L61.25,36.25 L62.5,37.5 L60,36.25 L58.75,37.5 L57.5,33.75 L56.25,32.5 L57.5,30 L56.25,42.5 L61.25,32.5 L60,32.5 L56.25,33.75 L56.25,35 L53.75,42.5 L53.75,43.75 L56.25,51.25 L53.75,51.25 L53.75,53.75 L55,52.5 L58.75,52.5 L60,55 L57.5,57.5 L56.25,57.5 L58.75,63.75 L57.5,66.25 L61.25,67.5 L62.5,70 L65,68.75 L65,66.25 L65,67.5 L65,71.25 L62.5,68.75 L61.25,66.25 L60,66.25 L60,70 L58.75,68.75 L58.75,76.25 L58.75,78.75 L62.5,80 L60,86.25 L62.5,86.25 L61.25,86.25 L63.75,82.5 L61.25,81.25 L66.25,77.5 L67.5,77.5 L67.5,76.25 L65,77.5 L65,81.25 L63.75,77.5 L60,77.5 L62.5,78.75 L65,83.75 L66.25,83.75 L65,80 L63.75,85 L60,88.75 L62.5,88.75 L65,86.25 L61.25,85 L57.5,86.25 L65,90 L66.25,91.25 L67.5,91.25 L68.75,91.25 L66.25,92.5 L68.75,93.75 L68.75,92.5 L71.25,88.75 L72.5,90 L70,88.75 L68.75,88.75 L67.5,90 L66.25,88.75 L67.5,88.75 L72.5,88.75 L73.75,87.5 L72.5,86.25 L72.5,87.5 L75,88.75 L77.5,86.25 L78.75,87.5 L83.75,90 L80,88.75 L80,87.5 L80,85 L77.5,91.25 L76.25,91.25 L72.5,97.5 L73.75,100 L76.25,100 L80,96.25 L80,101.25 L78.75,102.5 L78.75,103.75 L81.25,105 L80,102.5 L82.5,103.75 L81.25,98.75 L83.75,95 L83.75,97.5 L78.75,96.25 L80,93.75 L77.5,93.75 L78.75,91.25 L77.5,95 L76.25,93.75 L75,93.75 L73.75,93.75 L73.75,91.25 L76.25,90 L82.5,87.5 L85,88.75 L86.25,90 L85,90 L82.5,92.5 L83.75,93.75 L88.75,90 L93.75,91.25 L92.5,90 L91.25,88.75 L93.75,86.25 L95,85 L92.5,85 L91.25,86.25 L92.5,88.75 L96.25,90 L98.75,88.75 L97.5,86.25 L103.75,83.75 L101.25,80 L102.5,80 L100,81.25 L102.5,86.25 L103.75,87.5 L105,83.75 L106.25,85 L110,86.25 L108.75,83.75 L107.5,82.5 L110,82.5 L110,88.75 L107.5,88.75 L102.5,88.75 L98.75,91.25 L103.75,90 L98.75,92.5 L96.25,93.75 L96.25,92.5 L97.5,90 L95,90 L97.5,85 L103.75,82.5 L105,82.5 L103.75,81.25 L100,77.5 L101.25,82.5 L98.75,81.25 L97.5,83.75 L95,83.75 L93.75,80 L92.5,80 L93.75,78.75 L96.25,78.75 L97.5,80 L98.75,80 L96.25,80 L95,81.25 L91.25,80 L87.5,78.75 L85,77.5 L87.5,80 L87.5,83.75 L86.25,85 L85,85 L90,88.75 L86.25,91.25 L87.5,93.75 L88.75,96.25 L85,96.25 L91.25,96.25 L92.5,96.25 L92.5,97.5 L93.75,101.25 L91.25,97.5 L92.5,95 L91.25,92.5 L92.5,92.5 L93.75,92.5 L90,96.25 L87.5,96.25 L90,95 L90,98.75 L88.75,103.75 L87.5,102.5 L85,106.25 L85,108.75 L85,110 L86.25,108.75 L83.75,110 L82.5,110 L81.25,110 L82.5,111.25 L81.25,112.5 L81.25,111.25 L75,103.75 L72.5,103.75 L73.75,101.25 L72.5,101.25 L71.25,92.5 L71.25,90 L70,93.75 L72.5,93.75 L72.5,96.25 L75,101.25 L76.25,105 L76.25,101.25 L76.25,102.5 L73.75,105 L73.75,106.25 L73.75,107.5 L75,107.5 L75,108.75 L75,106.25 L73.75,110 L80,116.25 L82.5,116.25 L83.75,117.5 L82.5,120 L81.25,118.75 L81.25,116.25 L82.5,118.75 L83.75,115 L85,115 L83.75,113.75 L88.75,112.5 L90,113.75 L90,115 L88.75,113.75 L87.5,112.5 L91.25,112.5 L91.25,113.75 L90,116.25 L86.25,115 L82.5,117.5 L81.25,122.5 L83.75,122.5 L85,123.75 L83.75,125 L86.25,126.25 L86.25,125 L88.75,123.75 L85,121.25 L90,121.25 L88.75,121.25 L92.5,116.25 L93.75,117.5 L97.5,115 L98.75,118.75 L103.75,120 L106.25,118.75 L96.25,118.75 L93.75,121.25 L91.25,126.25 L92.5,122.5 L90,125 L90,123.75 L90,126.25 L90,128.75 L91.25,130 L92.5,131.25 L91.25,131.25 L100,155 L98.75,155 L97.5,155 L95,156.25 L95,157.5 L97.5,158.75 L105,157.5 L105,153.75 L103.75,151.25 L105,158.75 L103.75,162.5 L103.75,161.25 L103.75,160 L106.25,158.75 L108.75,158.75 L107.5,160 L106.25,156.25 L105,151.25 L102.5,151.25 L100,157.5 L97.5,160 L98.75,160 L100,161.25 L101.25,160 L93.75,160 L91.25,163.75 L95,162.5 L96.25,162.5 L96.25,167.5 L97.5,171.25 L102.5,171.25 L100,172.5 L93.75,173.75 L96.25,171.25 L95,170 L92.5,170 L91.25,171.25 L95,168.75 L93.75,172.5 L101.25,176.25 L101.25,175 L102.5,175 L101.25,177.5 L103.75,176.25 L95,177.5 L93.75,175 L95,173.75 L95,175 L93.75,178.75 L92.5,177.5 L91.25,177.5 L101.25,163.75 L100,166.25 L100,167.5 L101.25,166.25 L102.5,166.25 L107.5,167.5 L106.25,168.75 L105,172.5 L103.75,173.75 L106.25,173.75 L107.5,175 L107.5,173.75 L108.75,171.25 L110,168.75 L113.75,167.5 L113.75,166.25 L106.25,162.5 L107.5,162.5 L107.5,163.75 L108.75,165 L105,166.25 L106.25,166.25 L106.25,167.5 L105,171.25 L102.5,170 L107.5,172.5 L110,175 L110,172.5 L110,171.25 L110,167.5 L112.5,168.75 L111.25,171.25 L112.5,173.75 L112.5,171.25 L110,170 L110,173.75 L113.75,173.75 L117.5,171.25 L116.25,173.75 L120,171.25 L120,170 L121.25,170 L123.75,171.25 L125,172.5 L125,171.25 L128.75,166.25 L127.5,168.75 L125,170 L127.5,167.5 L125,167.5 L126.25,172.5 L127.5,171.25 L136.25,171.25 L136.25,170 L132.5,168.75 L132.5,171.25 L133.75,172.5 L136.25,172.5 L133.75,171.25 L131.25,170 L128.75,167.5 L131.25,172.5 L138.75,172.5 L137.5,172.5 L135,168.75 L133.75,167.5 L135,166.25 L137.5,167.5 L137.5,165 L136.25,163.75 L135,165 L136.25,160 L136.25,158.75 L135,157.5 L128.75,160 L127.5,160 L126.25,157.5 L122.5,157.5 L120,157.5 L117.5,160 L118.75,160 L117.5,158.75 L118.75,161.25 L115,161.25 L111.25,158.75 L110,156.25 L111.25,155 L112.5,153.75 L118.75,153.75 L117.5,151.25 L117.5,148.75 L118.75,147.5 L118.75,146.25 L121.25,152.5 L121.25,153.75 L120,156.25 L113.75,156.25 L113.75,152.5 L115,150 L115,153.75 L113.75,153.75 L113.75,151.25 L112.5,151.25 L110,152.5 L111.25,153.75 L107.5,152.5 L106.25,150 L108.75,151.25 L103.75,155 L103.75,157.5 L96.25,156.25 L97.5,157.5 L98.75,156.25 L110,160 L112.5,162.5 L116.25,161.25 L116.25,157.5 L115,156.25 L115,157.5 L112.5,157.5 L117.5,153.75 L122.5,152.5 L123.75,152.5 L126.25,151.25 L125,151.25 L123.75,150 L122.5,146.25 L123.75,145 L120,147.5 L122.5,148.75 L117.5,152.5 L120,148.75 L121.25,146.25 L120,142.5 L120,137.5 L121.25,138.75 L118.75,136.25 L118.75,140 L122.5,142.5 L123.75,137.5 L127.5,137.5 L126.25,137.5 L126.25,138.75 L126.25,140 L125,141.25 L122.5,141.25 L120,140 L118.75,141.25 L117.5,142.5 L116.25,141.25 L117.5,140 L113.75,140 L112.5,138.75 L110,135 L112.5,137.5 L115,136.25 L108.75,135 L106.25,136.25 L107.5,140 L107.5,141.25 L108.75,142.5 L106.25,145 L105,143.75 L113.75,147.5 L112.5,147.5 L110,145 L105,142.5 L105,140 L103.75,140 L102.5,140 L100,141.25 L98.75,138.75 L96.25,137.5 L97.5,137.5 L98.75,136.25 L101.25,136.25 L101.25,138.75 L96.25,133.75 L97.5,130 L98.75,131.25 L101.25,132.5 L101.25,133.75 L100,138.75 L102.5,137.5 L105,133.75 L108.75,132.5 L111.25,132.5 L112.5,131.25 L113.75,130 L116.25,126.25 L120,125 L118.75,125 L116.25,125 L113.75,126.25 L115,130 L111.25,133.75 L105,131.25 L108.75,131.25 L108.75,122.5 L113.75,118.75 L111.25,116.25 L112.5,117.5 L108.75,116.25 L107.5,116.25 L107.5,117.5 L105,112.5 L105,116.25 L106.25,113.75 L101.25,112.5 L96.25,111.25 L96.25,108.75 L98.75,112.5 L98.75,115 L97.5,120 L98.75,121.25 L108.75,118.75 L108.75,117.5 L108.75,121.25 L106.25,122.5 L105,122.5 L105,123.75 L103.75,121.25 L102.5,127.5 L102.5,128.75 L103.75,126.25 L103.75,127.5 L107.5,128.75 L112.5,123.75 L113.75,127.5 L111.25,127.5 L106.25,126.25 L107.5,127.5 L112.5,121.25 L117.5,127.5 L117.5,128.75 L118.75,127.5 L118.75,123.75 L117.5,121.25 L120,123.75 L121.25,122.5 L125,123.75 L125,122.5 L123.75,125 L123.75,126.25 L121.25,130 L118.75,128.75 L122.5,135 L125,137.5 L126.25,141.25 L127.5,141.25 L123.75,143.75 L125,145 L126.25,143.75 L128.75,142.5 L131.25,143.75 L132.5,150 L130,150 L137.5,142.5 L145,143.75 L145,142.5 L147.5,142.5 L150,141.25 L152.5,140 L150,143.75 L153.75,146.25 L151.25,155 L152.5,157.5 L155,157.5 L156.25,157.5 L153.75,155 L155,151.25 L156.25,152.5 L156.25,150 L152.5,148.75 L151.25,147.5 L152.5,147.5 L155,145 L150,145 L148.75,145 L147.5,145 L148.75,141.25 L148.75,138.75 L151.25,137.5 L150,137.5 L148.75,133.75 L147.5,132.5 L148.75,132.5 L148.75,127.5 L153.75,122.5 L152.5,123.75 L152.5,127.5 L155,125 L158.75,127.5 L160,126.25 L158.75,126.25 L162.5,135 L165,136.25 L166.25,137.5 L167.5,137.5 L165,140 L161.25,140 L157.5,138.75 L158.75,133.75 L160,132.5 L161.25,136.25 L158.75,142.5 L160,141.25 L158.75,140 L158.75,143.75 L157.5,146.25 L156.25,141.25 L157.5,141.25 L156.25,142.5 L157.5,143.75 L156.25,143.75 L156.25,146.25 L156.25,147.5 L162.5,151.25 L163.75,151.25 L166.25,152.5 L163.75,155 L163.75,158.75 L165,157.5 L162.5,156.25 L166.25,153.75 L167.5,156.25 L166.25,158.75 L170,158.75 L171.25,160 L170,157.5 L171.25,156.25 L170,155 L171.25,152.5 L170,152.5 L173.75,155 L180,160 L185,158.75 L186.25,161.25 L191.25,157.5 L190,158.75 L190,156.25 L185,153.75 L186.25,155 L187.5,155 L186.25,148.75 L190,147.5 L190,146.25 L191.25,147.5 L193.75,147.5 L193.75,148.75 L196.25,150 L196.25,152.5 L195,152.5 L197.5,152.5 L200,151.25 L200,152.5 L192.5,153.75 L191.25,156.25 L190,152.5 L188.75,152.5 L190,151.25 L186.25,157.5 L187.5,158.75 L186.25,160 L183.75,158.75 L183.75,155 L181.25,155 L181.25,156.25 L182.5,156.25 L185,155 L185,156.25 L186.25,156.25 L186.25,152.5 L183.75,150 L183.75,151.25 L182.5,152.5 L182.5,153.75 L177.5,147.5 L173.75,147.5 L172.5,145 L170,140 L171.25,142.5 L172.5,140 L171.25,137.5 L172.5,133.75 L175,133.75 L172.5,136.25 L170,137.5 L170,138.75 L168.75,141.25 L168.75,146.25 L167.5,147.5 L170,147.5 L172.5,142.5 L175,142.5 L175,145 L176.25,143.75 L176.25,145 L177.5,145 L177.5,148.75 L172.5,146.25 L171.25,145 L170,142.5 L168.75,143.75 L168.75,150 L172.5,151.25 L175,150 L171.25,147.5 L171.25,148.75 L177.5,152.5 L178.75,151.25 L177.5,151.25 L176.25,151.25 L175,151.25 L175,152.5 L173.75,152.5 L175,155 L175,153.75 L170,156.25 L167.5,160 L168.75,160 L168.75,162.5 L167.5,165 L166.25,166.25 L165,170 L168.75,168.75 L170,166.25 L172.5,163.75 L172.5,166.25 L173.75,165 L175,163.75 L177.5,161.25 L176.25,163.75 L173.75,163.75 L172.5,160 L175,156.25 L178.75,157.5 L176.25,155 L178.75,155 L183.75,153.75 L180,157.5 L181.25,152.5 L181.25,150 L182.5,148.75 L185,147.5 L183.75,145 L180,150 L178.75,147.5 L182.5,145 L181.25,145 L182.5,141.25 L181.25,141.25 L180,143.75 L177.5,143.75 L176.25,142.5 L177.5,142.5 L175,141.25 L176.25,141.25 L176.25,138.75 L173.75,138.75 L176.25,135 L180,136.25 L177.5,136.25 L177.5,137.5 L178.75,141.25 L178.75,142.5 L180,140 L178.75,140 L173.75,135 L171.25,130 L168.75,128.75 L175,127.5 L167.5,125 L166.25,123.75 L165,125 L161.25,127.5 L155,127.5 L156.25,127.5 L160,128.75 L161.25,125 L163.75,120 L161.25,121.25 L160,125 L156.25,123.75 L153.75,125 L152.5,125 L148.75,125 L148.75,118.75 L150,117.5 L153.75,126.25 L151.25,126.25 L148.75,130 L150,130 L150,132.5 L151.25,130 L151.25,128.75 L147.5,123.75 L141.25,122.5 L137.5,122.5 L132.5,123.75 L130,125 L130,128.75 L126.25,126.25 L126.25,125 L127.5,126.25 L127.5,125 L128.75,125 L128.75,126.25 L131.25,128.75 L131.25,126.25 L131.25,125 L131.25,127.5 L133.75,128.75 L138.75,128.75 L141.25,133.75 L141.25,132.5 L140,132.5 L138.75,135 L132.5,135 L131.25,138.75 L131.25,142.5 L131.25,145 L135,148.75 L135,151.25 L132.5,151.25 L127.5,153.75 L126.25,156.25 L128.75,158.75 L132.5,158.75 L131.25,158.75 L127.5,163.75 L132.5,165 L132.5,163.75 L131.25,163.75 L127.5,161.25 L125,160 L125,158.75 L123.75,158.75 L127.5,152.5 L130,151.25 L127.5,150 L128.75,148.75 L128.75,146.25 L126.25,145 L126.25,150 L130,147.5 L131.25,146.25 L133.75,146.25 L137.5,145 L140,142.5 L140,140 L138.75,137.5 L137.5,138.75 L140,137.5 L142.5,137.5 L147.5,135 L145,138.75 L146.25,140 L147.5,140 L146.25,141.25 L146.25,146.25 L147.5,148.75 L147.5,150 L147.5,151.25 L147.5,153.75 L145,150 L146.25,145 L147.5,147.5 L148.75,147.5 L148.75,146.25 L150,146.25 L146.25,147.5 L142.5,152.5 L142.5,150 L143.75,148.75 L145,147.5 L143.75,150 L143.75,152.5 L145,155 L142.5,155 L142.5,156.25 L145,153.75 L137.5,152.5 L135,155 L133.75,156.25 L132.5,156.25 L133.75,152.5 L135,153.75 L135,152.5 L127.5,151.25 L128.75,151.25 L132.5,153.75 L131.25,152.5 L130,153.75 L128.75,155 L128.75,153.75 L130,155 L131.25,155 L130,157.5 L125,161.25 L123.75,162.5 L123.75,161.25 L123.75,156.25 L122.5,155 L121.25,158.75 L120,161.25 L121.25,161.25 L122.5,161.25 L123.75,163.75 L127.5,165 L126.25,166.25 L123.75,167.5 L121.25,168.75 L117.5,167.5 L117.5,166.25 L116.25,163.75 L115,165 L116.25,162.5 L115,163.75 L120,160 L122.5,160 L122.5,162.5 L118.75,167.5 L118.75,168.75 L120,165 L122.5,168.75 L122.5,171.25 L121.25,172.5 L118.75,171.25 L117.5,170 L118.75,170 L115,171.25 L115,170 L113.75,170 L111.25,168.75 L111.25,167.5 L106.25,163.75 L103.75,163.75 L102.5,168.75 L100,170 L97.5,167.5 L97.5,165 L96.25,165 L97.5,162.5 L98.75,163.75 L95,165 L93.75,165 L100,163.75 L98.75,161.25 L93.75,163.75 L86.25,165 L90,165 L87.5,163.75 L88.75,161.25 L90,161.25 L90,162.5 L91.25,161.25 L90,160 L95,158.75 L93.75,158.75 L87.5,162.5 L86.25,162.5 L86.25,163.75 L87.5,165 L83.75,167.5 L80,171.25 L75,168.75 L73.75,167.5 L72.5,167.5 L70,171.25 L68.75,171.25 L71.25,175 L73.75,173.75 L73.75,178.75 L71.25,178.75 L72.5,177.5 L76.25,180 L73.75,182.5 L72.5,181.25 L73.75,181.25 L68.75,180 L67.5,180 L65,180 L68.75,176.25 L68.75,177.5 L66.25,176.25 L65,176.25 L65,175 L58.75,178.75 L58.75,177.5 L60,172.5 L56.25,173.75 L58.75,168.75 L66.25,167.5 L67.5,168.75 L66.25,170 L65,171.25 L63.75,170 L67.5,172.5 L67.5,171.25 L67.5,170 L66.25,171.25 L68.75,170 L70,167.5 L60,168.75 L60,170 L61.25,172.5 L63.75,173.75 L66.25,173.75 L65,172.5 L63.75,175 L67.5,175 L66.25,178.75 L63.75,176.25 L62.5,176.25 L61.25,176.25 L60,178.75 L60,176.25 L58.75,176.25 L60,177.5 L55,175 L55,171.25 L53.75,171.25 L50,171.25 L50,175 L51.25,176.25 L51.25,173.75 L56.25,178.75 L56.25,175 L57.5,175 L52.5,173.75 L51.25,172.5 L53.75,173.75 L53.75,175 L52.5,178.75 L52.5,177.5 L52.5,175 L47.5,175 L50,178.75 L50,177.5 L51.25,177.5 L52.5,181.25 L53.75,181.25 L58.75,183.75 L57.5,183.75 L57.5,180 L61.25,181.25 L65,178.75 L63.75,180 L65,183.75 L67.5,183.75 L68.75,182.5 L70,183.75 L70,182.5 L72.5,183.75 L75,176.25 L73.75,175 L73.75,176.25 L81.25,180 L81.25,178.75 L77.5,178.75 L75,180 L71.25,177.5 L70,177.5 L70,175 L72.5,171.25 L77.5,171.25 L75,175 L77.5,182.5 L76.25,182.5 L82.5,178.75 L86.25,177.5 L90,175 L91.25,175 L92.5,171.25 L90,166.25 L88.75,166.25 L88.75,168.75 L87.5,170 L90,170 L90,171.25 L96.25,172.5 L90,180 L88.75,180 L88.75,177.5 L83.75,181.25 L85,181.25 L82.5,181.25 L82.5,173.75 L81.25,172.5 L83.75,170 L83.75,168.75 L82.5,166.25 L81.25,168.75 L78.75,171.25 L78.75,167.5 L81.25,166.25 L82.5,165 L82.5,167.5 L85,166.25 L85,170 L78.75,168.75 L80,168.75 L75,172.5 L73.75,171.25 L76.25,168.75 L76.25,166.25 L76.25,170 L76.25,172.5 L77.5,172.5 L76.25,173.75 L81.25,176.25 L86.25,176.25 L88.75,172.5 L86.25,166.25 L85,168.75 L83.75,163.75 L93.75,136.25 L93.75,135 L95,135 L90,133.75 L88.75,132.5 L88.75,130 L90,130 L92.5,130 L91.25,127.5 L86.25,128.75 L85,128.75 L86.25,130 L87.5,127.5 L86.25,123.75 L85,120 L87.5,120 L90,120 L91.25,117.5 L92.5,118.75 L95,121.25 L96.25,122.5 L97.5,122.5 L97.5,123.75 L100,123.75 L100,127.5 L95,128.75 L93.75,126.25 L92.5,126.25 L95,122.5 L95,126.25 L96.25,127.5 L98.75,128.75 L103.75,132.5 L100,136.25 L103.75,130 L102.5,130 L97.5,128.75 L96.25,128.75 L95,130 L93.75,128.75 L92.5,125 L96.25,121.25 L98.75,122.5 L102.5,126.25 L100,121.25 L101.25,115 L93.75,112.5 L91.25,111.25 L93.75,111.25 L95,111.25 L95,107.5 L98.75,106.25 L100,106.25 L102.5,105 L110,106.25 L112.5,107.5 L113.75,105 L112.5,100 L117.5,95 L120,95 L120,96.25 L115,95 L115,92.5 L112.5,95 L115,93.75 L113.75,92.5 L113.75,93.75 L113.75,95 L115,97.5 L111.25,101.25 L110,101.25 L111.25,105 L108.75,103.75 L107.5,103.75 L105,103.75 L105,101.25 L105,97.5 L108.75,93.75 L108.75,95 L111.25,93.75 L108.75,92.5 L107.5,92.5 L107.5,93.75 L106.25,91.25 L105,92.5 L108.75,91.25 L106.25,87.5 L107.5,83.75 L106.25,80 L105,78.75 L105,80 L102.5,78.75 L100,71.25 L98.75,65 L96.25,65 L93.75,67.5 L88.75,66.25 L90,65 L92.5,65 L95,67.5 L98.75,68.75 L103.75,63.75 L103.75,67.5 L103.75,72.5 L103.75,68.75 L105,67.5 L103.75,70 L106.25,72.5 L103.75,75 L106.25,73.75 L105,77.5 L102.5,76.25 L97.5,77.5 L96.25,77.5 L97.5,75 L98.75,77.5 L97.5,68.75 L97.5,70 L106.25,67.5 L107.5,68.75 L108.75,68.75 L111.25,71.25 L112.5,80 L111.25,76.25 L110,70 L108.75,70 L107.5,67.5 L107.5,70 L110,73.75 L115,77.5 L113.75,78.75 L113.75,75 L113.75,71.25 L110,72.5 L110,75 L110,77.5 L110,78.75 L111.25,78.75 L112.5,81.25 L116.25,77.5 L117.5,80 L117.5,81.25 L118.75,86.25 L120,88.75 L118.75,91.25 L117.5,88.75 L120,93.75 L123.75,97.5" fill="none" stroke="white" stroke-width="0.2"/>
<path d="m 15.815664,12.893319 c -1.445284,-3.0999497 -5.555449,-0.3575 -5.08537,2.32203 1.697826,2.92736 4.504013,-3.54417 4.40859,-2.58178 -1.548999,2.22986 0.741131,6.08701 3.012419,3.25791 2.532153,-2.82358 0.259001,-7.8326797 -3.488671,-7.9011197 -3.217272,0.056 -5.8863857,2.4603197 -7.9308737,4.7238797 -2.354585,2.46752 0.0048,5.887 2.757763,6.62143 3.2195457,1.10867 6.8759417,1.30834 9.9459317,-0.36585 2.270396,-1.12373 5.025949,-2.62031 5.680576,-5.20027 -2.108811,-3.66096 -6.038415,1.28356 -3.842036,3.67822 1.07278,0.89979 4.586982,-2.27037 3.201668,-2.73503 0.03094,3.24357 1.226854,6.37852 1.337023,9.60311 -0.672198,3.54892 -7.469251,0.32096 -4.637082,-2.5164 2.158436,-2.4193 5.610472,-2.84094 8.202925,-4.57369 0.993877,-1.40371 0.353413,-5.25046 3.182464,-3.48957 2.142923,1.43516 -2.250898,5.7532 1.723416,5.02339 1.661189,-0.71663 6.494946,-1.40457 4.601401,-3.95236 -4.205319,-0.68052 -1.190571,5.86505 1.665411,3.46881 1.929752,-0.9247 2.778055,-4.05119 1.423645,-5.35034 0.479155,1.8589 3.849911,7.52574 4.880369,3.32696 0.21201,-1.28088 0.40468,-3.80204 1.01246,-1.23041 0.5858,2.6865 3.83412,4.91909 4.56937,1.07383 0.65272,-1.00894 -0.2696,-4.02739 0.99929,-1.35746 1.10974,2.31613 6.32001,1.46113 6.147,-1.13059 -1.98394,-2.13868 -5.3717,1.45205 -3.78252,3.73454 2.57741,0.96208 6.69797,-0.21041 7.06275,-3.33983 0.41287,-2.63769 0.26643,-5.3430297 -0.11178,-7.9756197 0.67418,3.94149 1.24889,7.9380497 2.39963,11.7713397 2.10586,1.67977 5.7434,1.65022 7.74596,-0.23639 3.03149,-1.85431 -0.26637,-4.76925 -2.71777,-4.54025 -2.11577,0.0793 -5.36257,2.40772 -5.16868,3.85604 2.08262,-2.38818 5.55759,-1.22628 8.30726,-1.6832 3.182,-0.26596 6.46546,-0.57372 9.54494,-1.18158 0.24171,0.4199 -0.27752,0.54338 -0.43067,0.17453" fill="none" stroke="white" stroke-width="1" transform="translate(260,190) scale(0.3)"/>
</svg>