<?xml version="1.0" encoding="UTF-8" standalone="no"?>
<svg
   xmlns:dc="http://purl.org/dc/elements/1.1/"
   xmlns:cc="http://creativecommons.org/ns#"
   xmlns:rdf="http://www.w3.org/1999/02/22-rdf-syntax-ns#"
   xmlns:svg="http://www.w3.org/2000/svg"
   xmlns="http://www.w3.org/2000/svg"
   xmlns:sodipodi="http://sodipodi.sourceforge.net/DTD/sodipodi-0.dtd"
   xmlns:inkscape="http://www.inkscape.org/namespaces/inkscape"
   inkscape:version="1.0beta2 (2b71d25, 2019-12-03)"
   sodipodi:docname="image.svg"
   id="svg275"
   version="1.1"
   width="297mm"
   viewBox="0 0 297 210"
   height="210mm">
  <metadata
     id="metadata281">
    <rdf:RDF>
      <cc:Work
         rdf:about="">
        <dc:format>image/svg+xml</dc:format>
        <dc:type
           rdf:resource="http://purl.org/dc/dcmitype/StillImage" />
      </cc:Work>
    </rdf:RDF>
  </metadata>
  <defs
     id="defs279" />
  <sodipodi:namedview
     inkscape:current-layer="svg275"
     inkscape:window-maximized="0"
     inkscape:window-y="23"
     inkscape:window-x="0"
     inkscape:cy="274.39849"
     inkscape:cx="803.15958"
     inkscape:zoom="0.97997663"
     showgrid="false"
     id="namedview277"
     inkscape:window-height="1023"
     inkscape:window-width="1396"
     inkscape:pageshadow="2"
     inkscape:pageopacity="0"
     guidetolerance="10"
     gridtolerance="10"
     objecttolerance="10"
     borderopacity="1"
     inkscape:document-rotation="0"
     bordercolor="#666666"
     pagecolor="#ffffff" />
  <line
     id="line265"
     y2="190"
     y1="20"
     x2="20"
     x1="20"
     stroke-width="0.5"
     stroke="black" />
  <path
     id="path267"
     stroke-width="0.5"
     stroke="black"
     fill="none"
     d="M20,123.61964 L20,123.61964 L20.26,113.396454 L20.52,113.48301 L20.78,112.313095 L21.04,107.491264 L21.3,110.956184 L21.56,112.33164 L21.82,108.69518 L22.08,102.19654 L22.34,94.63154 L22.6,96.52009 L22.86,94.039635 L23.119999,90.304276 L23.380001,81.57399 L23.64,94.490906 L23.9,87.76664 L24.16,90.556175 L24.42,84.467094 L24.68,83.23228 L24.94,86.33399 L25.2,86.145454 L25.46,83.58618 L25.72,69.60909 L25.98,68.52882 L26.24,63.35 L26.5,67.24455 L26.76,73.7061 L27.02,74.24701 L27.28,73.82045 L27.54,78.337814 L27.8,85.37891 L28.060001,84.27392 L28.32,77.324 L28.58,77.56973 L28.84,81.05937 L29.1,80.8461 L29.36,86.822365 L29.619999,82.96182 L29.880001,82.281815 L30.14,79.32074 L30.4,82.32818 L30.66,90.937904 L30.92,100.79791 L31.18,96.93582 L31.439999,99.50591 L31.7,99.436356 L31.96,101.847275 L32.22,110.95 L32.48,102.31709 L32.739998,103.88882 L33,100.702095 L33.260002,100.51819 L33.52,98.68683 L33.78,94.23437 L34.04,98.660545 L34.3,95.87409 L34.56,96.12909 L34.82,96.47527 L35.08,97.47673 L35.34,98.37463 L35.6,109.00118 L35.86,107.82973 L36.120003,113.80909 L36.379997,116.518265 L36.64,109.74609 L36.9,114.662186 L37.16,113.23109 L37.42,113.16928 L37.68,109.95318 L37.940002,106.859184 L38.2,107.08791 L38.46,108.681274 L38.72,118.58608 L38.98,116.83664 L39.239998,119.773 L39.5,119.10999 L39.760002,123.64745 L40.02,121.746544 L40.28,125.05691 L40.54,122.80827 L40.8,119.82246 L41.059998,120.13 L41.32,116.39773 L41.58,118.627815 L41.84,117.768555 L42.1,117.69282 L42.36,117.29099 L42.620003,114.95736 L42.879997,114.77191 L43.14,117.099365 L43.4,123.16217 L43.66,121.22882 L43.92,123.36927 L44.18,123.165276 L44.440002,123.05246 L44.7,120.48855 L44.96,116.05155 L45.22,112.91891 L45.48,115.90936 L45.739998,117.58464 L46,120.60291 L46.260002,118.87354 L46.52,119.300095 L46.78,120.44682 L47.04,115.92945 L47.3,117.03909 L47.559998,118.50109 L47.82,117.349724 L48.08,117.473366 L48.34,117.92 L48.6,119.49172 L48.86,123.20236 L49.120003,125.02754 L49.379997,126.54055 L49.64,125.47418 L49.9,127.06755 L50.16,126.823364 L50.42,127.36582 L50.68,131.54938 L50.940002,135.06218 L51.2,133.85364 L51.46,138.72028 L51.72,140.90247 L51.98,140.87155 L52.24,146.13846 L52.5,146.97299 L52.76,146.55418 L53.02,145.61917 L53.28,140.93027 L53.54,144.54663 L53.8,143.72601 L54.06,148.19391 L54.32,146.54028 L54.58,148.1491 L54.84,147.34698 L55.1,146.54337 L55.36,147.10593 L55.62,147.60973 L55.88,145.53574 L56.14,144.3411 L56.4,145.4291 L56.66,146.1261 L56.92,146.50937 L57.18,144.29936 L57.44,144.34573 L57.7,145.32245 L57.96,145.90817 L58.22,154.68173 L58.48,154.5009 L58.74,156.73874 L59,159.59937 L59.26,159.73845 L59.52,159.53137 L59.78,161.38127 L60.04,161.69963 L60.3,157.44037 L60.56,157.72781 L60.82,155.80064 L61.08,155.97372 L61.34,159.68437 L61.6,157.82828 L61.86,157.57791 L62.12,155.38182 L62.38,151.71445 L62.64,152.753 L62.9,152.21364 L63.16,154.75436 L63.42,156.05873 L63.68,156.86237 L63.94,154.589 L64.2,155.71564 L64.46,154.20418 L64.72,154.00018 L64.979996,154.20573 L65.240005,155.12064 L65.5,155.881 L65.759995,155.5889 L66.020004,154.70647 L66.28,155.16545 L66.54,155.0511 L66.8,154.453 L67.06,154.70181 L67.32,154.95836 L67.58,160.39218 L67.84,159.56073 L68.1,158.89 L68.36,159.55301 L68.619995,156.86699 L68.880005,156.75882 L69.14,157.105 L69.4,158.12654 L69.66,158.31818 L69.92,157.86845 L70.18,157.93336 L70.44,158.06009 L70.7,158.18681 L70.96,158.2641 L71.22,158.48355 L71.479996,158.33055 L71.740005,158.40318 L72,158.31973 L72.259995,159.56073 L72.520004,159.51282 L72.78,159.28719 L73.04,159.09709 L73.3,158.72772 L73.56,159.043 L73.82,157.21936 L74.08,157.44345 L74.34,155.88564 L74.6,156.14372 L74.86,157.11427 L75.119995,157.42645 L75.380005,157.04318 L75.64,157.15291 L75.9,157.09882 L76.16,157.57018 L76.42,161.03354 L76.68,161.50954 L76.94,162.66246 L77.2,162.76909 L77.46,162.341 L77.72,166.69301 L77.979996,169.31873 L78.240005,168.63718 L78.5,170.42992 L78.759995,170.67873 L79.020004,172.24428 L79.28,171.6601 L79.54,172.89491 L79.8,172.779 L80.06,171.00636 L80.32,171.76672 L80.58,172.42354 L80.84,171.74818 L81.1,171.98463 L81.36,173.19164 L81.619995,173.00928 L81.880005,174.12665 L82.14,175.93637 L82.4,175.61954 L82.66,176.03218 L82.92,175.5871 L83.18,176.10481 L83.44,176.43709 L83.7,176.18208 L83.96,176.65654 L84.22,177.046 L84.48,177.05527 L84.74,176.91464 L85,175.46964 L85.26,174.48518 L85.52,174.74017 L85.78,172.3741 L86.04,173.357 L86.3,172.19637 L86.56,170.059 L86.82,168.66809 L87.08,170.28 L87.34,170.00955 L87.6,172.41273 L87.86,169.09 L88.12,169.46246 L88.38,168.70827 L88.64,169.685 L88.9,168.50273 L89.16,166.50754 L89.42,167.39 L89.68,166.51372 L89.94,166.38081 L90.2,166.22163 L90.46,166.92018 L90.72,167.18909 L90.98,167.11182 L91.24,170.68954 L91.5,170.7359 L91.76,170.93681 L92.02,172.35709 L92.28,170.38046 L92.54,171.61682 L92.8,171.22581 L93.06,171.21654 L93.32,171.58282 L93.58,171.05273 L93.84,171.84555 L94.1,172.12991 L94.36,171.793 L94.62,172.00473 L94.88,172.01245 L95.14,172.21028 L95.4,172.17473 L95.66,172.68318 L95.92,173.69545 L96.18,173.85773 L96.44,173.26427 L96.7,173.55019 L96.96,173.50536 L97.22,172.93509 L97.48,173.408 L97.74,173.35855 L98,173.4219 L98.26,173.84999 L98.52,173.85309 L98.78,171.57045 L99.04,171.57973 L99.3,170.66327 L99.56,171.317 L99.82,171.08209 L100.08,171.1671 L100.34,171.38963 L100.6,171.19646 L100.86,171.0419 L101.12,169.32954 L101.38,167.48427 L101.64,167.832 L101.9,167.05928 L102.16,167.48427 L102.42,167.22618 L102.68,165.61427 L102.94,169.58455 L103.2,168.69283 L103.46,168.94781 L103.72,169.13327 L103.98,169.08382 L104.24,169.0869 L104.5,169.51346 L104.76,169.81636 L105.02,170.58136 L105.28,168.87054 L105.54,168.76546 L105.8,168.85664 L106.06,169.3651 L106.32,168.78555 L106.58,169.07918 L106.84,169.49644 L107.1,169.35736 L107.36,169.65408 L107.62,169.56909 L107.88,168.89528 L108.14,168.22145 L108.4,168.56918 L108.66,168.73608 L108.92,168.58772 L109.18,168.51665 L109.44,169.15955 L109.7,168.98491 L109.96,168.78401 L110.22,168.96791 L110.48,169.294 L110.74,169.26309 L111,168.44862 L111.26,168.69437 L111.52,167.86136 L111.78,167.98346 L112.04,168.15036 L112.3,168.17201 L112.56,164.76118 L112.82,165.27892 L113.08,165.68073 L113.34,164.53555 L113.6,164.42273 L113.86,163.07663 L114.12,162.37964 L114.38,163.01636 L114.64,162.6269 L114.9,164.64372 L115.16,164.77972 L115.42,164.81064 L115.68,164.15536 L115.94,165.28046 L116.2,164.44281 L116.46,164.38408 L116.72,163.21263 L116.98,163.31927 L117.24,163.28218 L117.5,163.94519 L117.76,163.64691 L118.02,163.85709 L118.28,164.534 L118.54,166.08873 L118.8,165.58954 L119.06,165.37936 L119.32,165.60501 L119.58,166.02846 L119.84,164.9899 L120.1,165.24336 L120.36,164.99301 L120.62,164.02708 L120.88,164.70091 L121.14,164.80136 L121.4,163.26364 L121.66,163.854 L121.92,163.5959 L122.18,163.58818 L122.44,163.27754 L122.7,160.60545 L122.96,160.92847 L123.22,159.73383 L123.48,156.55637 L123.74,151.65727 L124,149.16136 L124.26,152.24455 L124.52,153.89818 L124.78,149.8939 L125.04,151.30646 L125.3,150.83354 L125.56,152.34654 L125.82,152.20436 L126.08,151.53827 L126.34,151.32964 L126.6,149.13045 L126.86,148.19081 L127.12,148.11354 L127.38,148.45355 L127.64,150.6589 L127.9,148.59727 L128.16,149.149 L128.42,148.44582 L128.68,151.37755 L128.94,152.69427 L129.2,152.039 L129.45999,151.55527 L129.72,151.55373 L129.98001,152.40683 L130.23999,154.3031 L130.5,151.903 L130.76001,152.2461 L131.01999,149.64046 L131.28,150.64192 L131.54001,149.43646 L131.8,148.60963 L132.06,148.62355 L132.32,147.78436 L132.58,149.098 L132.84,148.56018 L133.1,148.08418 L133.36,144.50955 L133.62,141.96881 L133.88,142.31964 L134.14,141.83746 L134.4,140.81436 L134.66,137.54881 L134.92,143.89137 L135.18,141.92863 L135.44,140.91327 L135.7,144.76454 L135.95999,144.39827 L136.22,144.95308 L136.48001,143.46017 L136.73999,146.30536 L137,145.57281 L137.26001,145.44608 L137.51999,142.9069 L137.78,141.78645 L138.04001,142.48346 L138.3,145.30081 L138.56,148.48445 L138.82,147.55873 L139.08,148.45973 L139.34,155.0959 L139.6,154.73273 L139.86,159.26399 L140.12,157.42027 L140.38,155.11446 L140.64,155.88718 L140.9,154.73273 L141.16,155.16855 L141.42,156.38481 L141.68,157.16219 L141.94,156.57028 L142.2,156.13292 L142.45999,156.18391 L142.72,157.96272 L142.98001,157.29509 L143.23999,157.40791 L143.5,157.61037 L143.76001,156.24419 L144.01999,156.48836 L144.28,156.36937 L144.54001,155.66928 L144.8,155.72337 L145.06,153.90746 L145.32,155.02945 L145.58,155.05728 L145.84,155.78517 L146.1,157.46355 L146.36,158.08945 L146.62,156.55327 L146.88,157.32755 L147.14,157.65363 L147.4,161.08455 L147.66,160.94083 L147.92,161.42764 L148.18,161.31792 L148.44,159.96718 L148.7,158.73854 L148.96,159.61636 L149.22,161.03046 L149.48,160.58228 L149.74,160.01509 L150,160.54364 L150.26,161.17108 L150.52,160.8419 L150.78,161.06291 L151.04,163.259 L151.3,163.88028 L151.56,163.95909 L151.82,163.48463 L152.08,163.61292 L152.34,162.48318 L152.6,162.375 L152.86,162.99782 L153.12,163.14772 L153.38,163.86945 L153.64,162.54964 L153.9,161.99791 L154.16,162.09837 L154.42,162.21118 L154.68,162.44763 L154.94,162.07054 L155.2,162.035 L155.46,160.92535 L155.72,160.78627 L155.98,159.52055 L156.24,157.87927 L156.5,157.513 L156.76,155.9629 L157.02,156.30446 L157.28,156.765 L157.54,157.36 L157.8,158.89154 L158.06,164.37482 L158.32,163.73346 L158.58,164.35782 L158.84,163.14154 L159.1,163.18791 L159.36,163.84473 L159.62,162.05045 L159.88,162.85254 L160.14,162.14473 L160.4,163.00246 L160.66,162.86955 L160.92,162.76135 L161.18,163.71182 L161.44,162.205 L161.7,162.0891 L161.96,160.23146 L162.22,160.46019 L162.48,162.07054 L162.74,162.23128 L163,162.02882 L163.26,161.14328 L163.52,162.1061 L163.78,163.03645 L164.04,162.62073 L164.3,163.30382 L164.56,163.45064 L164.82,162.92055 L165.08,163.11218 L165.34,163.54182 L165.6,164.90955 L165.86,165.214 L166.12,161.95 L166.38,162.26064 L166.64,161.60226 L166.9,161.916 L167.16,160.56528 L167.42,161.69809 L167.68,161.84491 L167.94,161.74136 L168.2,161.73209 L168.46,161.94383 L168.72,161.29936 L168.98,160.84036 L169.24,160.45709 L169.5,161.14946 L169.76,161.60382 L170.02,161.42609 L170.28,160.79709 L170.54,161.41219 L170.8,161.08609 L171.06,160.92847 L171.32,161.42146 L171.58,162.18182 L171.84,161.81555 L172.1,161.59145 L172.36,162.46 L172.62,162.80927 L172.88,162.99782 L173.14,165.11664 L173.4,166.88618 L173.66,166.53381 L173.92,168.36981 L174.18,167.48427 L174.44,167.20918 L174.7,166.41328 L174.96,166.70691 L175.22,166.11191 L175.48,166.60646 L175.74,166.70537 L176,167.02682 L176.26,167.25554 L176.52,167.53218 L176.78,167.11182 L177.04,167.05772 L177.3,167.26018 L177.56,166.75018 L177.82,167.22308 L178.08,167.50436 L178.34,167.83974 L178.6,167.61101 L178.86,167.62181 L179.12,168.087 L179.38,167.98346 L179.64,169.48718 L179.9,171.164 L180.16,169.47946 L180.42,170.20273 L180.68,170.18881 L180.94,170.37428 L181.2,169.58609 L181.46,170.24908 L181.72,170.25682 L181.98,170.66791 L182.24,170.59218 L182.5,170.48245 L182.76,170.20117 L183.02,169.23528 L183.28,169.66338 L183.54,170.03891 L183.8,169.79008 L184.06,170.34335 L184.32,169.23682 L184.58,169.26001 L184.84,169.07918 L185.1,167.72227 L185.36,167.93091 L185.62,168.25237 L185.88,168.71292 L186.14,167.61563 L186.4,167.99582 L186.66,167.3529 L186.92,167.81036 L187.18,164.4011 L187.44,164.28365 L187.7,164.62209 L187.96,163.75046 L188.22,163.08745 L188.48,164.22336 L188.74,164.211 L189,163.80609 L189.26,164.02554 L189.52,164.83846 L189.78,164.88019 L190.04,165.21863 L190.3,164.058 L190.56,163.7149 L190.82,162.85564 L191.08,163.15236 L191.34,161.457 L191.6,162.18336 L191.86,161.62546 L192.12,160.87746 L192.38,160.68427 L192.64,160.80482 L192.9,158.50673 L193.16,157.05246 L193.42,155.48537 L193.68,155.52864 L193.94,154.68791 L194.2,155.55336 L194.46,153.42064 L194.72,148.93109 L194.98,148.53236 L195.24,145.93137 L195.5,149.064 L195.76,149.99591 L196.02,148.605 L196.28,146.32391 L196.54,150.05772 L196.8,150.288 L197.06,149.00372 L197.32,149.57555 L197.58,147.58035 L197.84,148.96509 L198.1,151.87828 L198.36,155.39264 L198.62,154.7961 L198.88,154.95528 L199.14,156.43118 L199.4,156.33846 L199.66,154.15009 L199.92,155.39572 L200.18,155.34163 L200.44,154.70491 L200.7,152.1549 L200.96,153.33719 L201.22,159.179 L201.48,158.65663 L201.74,158.98273 L202,159.92392 L202.26,173.33691 L202.52,169.28163 L202.78,171.062 L203.04,170.87036 L203.3,172.84236 L203.56,172.12373 L203.82,171.74663 L204.08,168.93546 L204.34,169.37128 L204.6,169.498 L204.86,171.09601 L205.12,168.99419 L205.38,168.60782 L205.64,168.96637 L205.9,168.6109 L206.16,169.70355 L206.42,169.75763 L206.68,170.7591 L206.94,169.59073 L207.2,169.48872 L207.46,169.02972 L207.72,168.16582 L207.98,168.16118 L208.24,167.73 L208.5,167.94946 L208.76,163.52327 L209.02,164.55719 L209.28,163.24664 L209.54,163.80145 L209.8,165.61119 L210.06,165.5308 L210.32,165.49063 L210.58,165.8461 L210.84,165.51227 L211.1,166.39627 L211.36,163.37335 L211.62,163.62064 L211.88,161.03818 L212.14,162.17719 L212.4,163.69637 L212.66,163.61292 L212.92,161.76454 L213.18,161.33028 L213.44,161.00882 L213.7,159.98572 L213.96,159.49582 L214.22,159.65656 L214.48,159.672 L214.74,156.71709 L215,158.15128 L215.26,157.23328 L215.52,156.94273 L215.78,157.5671 L216.04,158.08945 L216.3,158.27336 L216.56,159.25009 L216.82,157.23636 L217.08,157.343 L217.34,157.53464 L217.6,161.01654 L217.86,161.29628 L218.12,160.67346 L218.38,159.15582 L218.64,158.58246 L218.9,159.88527 L219.16,159.02136 L219.42,158.0091 L219.68,156.78664 L219.94,156.83765 L220.2,157.54854 L220.46,159.28563 L220.72,157.95345 L220.98,158.0709 L221.24,159.10635 L221.5,158.44954 L221.76,158.95337 L222.02,157.80972 L222.28,155.96754 L222.54,155.89645 L222.8,152.34346 L223.06,154.21191 L223.32,151.63718 L223.58,153.263 L223.84,152.21054 L224.1,152.41301 L224.36,152.90445 L224.62,152.60928 L224.88,152.20436 L225.14,151.92 L225.4,152.32182 L225.66,151.70673 L225.92,154.37573 L226.18,153.28773 L226.44,153.20119 L226.7,154.181 L226.96,154.32164 L227.22,153.63545 L227.48,153.86418 L227.74,154.25827 L228,154.6091 L228.26,154.62608 L228.52,154.75746 L228.78,152.42537 L229.04,152.42381 L229.3,153.74672 L229.56,154.06818 L229.82,154.5102 L230.08,155.85472 L230.34,155.23808 L230.6,154.77444 L230.86,155.13455 L231.12,154.30154 L231.38,155.00163 L231.64,155.24738 L231.9,154.58282 L232.16,154.83163 L232.42,152.66182 L232.68,153.00336 L232.94,151.835 L233.2,152.60309 L233.46,152.71437 L233.72,153.03427 L233.98,152.47792 L234.24,152.98636 L234.5,152.8411 L234.76,153.12392 L235.02,153.90282 L235.28,154.04192 L235.54,153.57828 L235.8,153.04663 L236.06,153.52573 L236.32,152.04518 L236.58,149.24019 L236.84,147.45363 L237.1,146.85864 L237.36,142.82346 L237.62,141.93637 L237.88,140.2472 L238.14,141.04465 L238.4,140.89935 L238.66,138.24738 L238.92,136.47627 L239.18,130.1909 L239.44,132.44418 L239.7,130.35474 L239.96,129.78755 L240.22,128.07054 L240.48,128.99008 L240.74,131.37473 L241,128.64081 L241.26,129.70563 L241.52,128.88655 L241.78,131.42728 L242.04,130.16309 L242.3,124.389275 L242.56,122.29209 L242.82,123.186905 L243.08,122.98601 L243.34,123.407906 L243.6,124.78954 L243.86,127.02891 L244.12,125.71836 L244.38,130.041 L244.64,128.91745 L244.9,129.61755 L245.16,126.99491 L245.42,130.81992 L245.68,130.37482 L245.94,130.76736 L246.2,128.93756 L246.46,128.39044 L246.72,123.709274 L246.98,122.959724 L247.24,116.52909 L247.5,122.07728 L247.76,131.05637 L248.02,130.45981 L248.28,138.22572 L248.54,135.47638 L248.8,135.35428 L249.06,137.85791 L249.32,135.77771 L249.58,133.13809 L249.84,132.25719 L250.1,130.07037 L250.36,133.37144 L250.62,131.71782 L250.88,133.73618 L251.14,133.57391 L251.4,129.82619 L251.66,130.59427 L251.92,130.46136 L252.18,132.65744 L252.44,137.3989 L252.7,136.80391 L252.96,140.43417 L253.22,136.06827 L253.48,135.61237 L253.74,135.30328 L254,134.75156 L254.26,135.29709 L254.52,134.39609 L254.78,134.38992 L255.04,135.46863 L255.3,136.5891 L255.56,136.535 L255.82,135.54282 L256.08002,135.34964 L256.34,137.33864 L256.6,137.21036 L256.86,135.76227 L257.12,133.58783 L257.38,132.73782 L257.64,132.17526 L257.9,130.26663 L258.16,131.112 L258.41998,131.47517 L258.68,131.63745 L258.94,133.51363 L259.2,133.07782 L259.46002,131.56482 L259.72,131.38092 L259.97998,133.0469 L260.24,129.66855 L260.5,126.02127 L260.76,126.7739 L261.02002,126.305626 L261.28,127.27619 L261.53998,129.33783 L261.8,127.64863 L262.06,130.00082 L262.32,130.17082 L262.58002,130.88791 L262.84,130.27435 L263.1,128.69644 L263.36,130.806 L263.62,130.0549 L263.88,127.797005 L264.14,125.602455 L264.4,119.54118 L264.66,122.74027 L264.91998,119.79 L265.18,121.33237 L265.44,120.402 L265.7,118.43154 L265.96002,118.53973 L266.22,116.36991 L266.47998,118.771545 L266.74,120.75128 L267,118.8241 L267.26,115.485916 L267.52002,116.06391 L267.78,117.170456 L268.03998,111.16327 L268.3,104.63682 L268.56,103.449905 L268.82,95.946724 L269.08002,96.50464 L269.34,101.98637 L269.6,109.662636 L269.86,109.84036 L270.12,106.92873 L270.38,100.935455 L270.64,94.698006 L270.9,99.55073 L271.16,97.753365 L271.41998,94.82318 L271.68,102.33563 L271.94,97.76727 L272.2,97.03474 L272.46002,98.62035 L272.72,104.23654 L272.97998,101.43155 L273.24,103.61064 L273.5,105.860825 L273.76,102.212006 L274.02002,98.71 L274.28,99.39155 L274.53998,99.02836 L274.8,91.526726 L275.06,90.67364 L275.32,88.95046 L275.58002,88.30444 L275.84,91.37218 L276.1,96.10127 L276.36,91.63954 L276.62,99.50436 L276.88,95.37027 L277.14,93.127815 L277.4,91.48655 L277.66,84.11937 L277.92,77.118454 L278.18,76.87273 L278.44,73.75554 L278.7,76.189644 L278.96,77.35027 L279.22,70.29527 L279.48,38.81127 L279.74,29.736364" />
  <g
     transform="translate(29.968828,103.67594)"
     inkscape:label="Hershey Text"
     style="fill:none;stroke:#000000;stroke-linecap:round;stroke-linejoin:round"
     id="g338">
    <g
       transform="translate(137.695,92.0664)"
       id="g336">
      <path
         inkscape:connector-curvature="0"
         d="M 220,662 V 0 m 0,662 H 630 M 220,346 H 472 M 220,0 h 410"
         transform="scale(0.010583,-0.010583)"
         style="stroke-width:0.2584in"
         id="path300" />
      <path
         inkscape:connector-curvature="0"
         d="M 346,662 V 0 M 126,662 h 441"
         transform="matrix(0.010583,0,0,-0.010583,6.328813,0)"
         style="stroke-width:0.2584in"
         id="path302" />
      <path
         inkscape:connector-curvature="0"
         d="M 220,662 V 0 M 662,662 V 0 M 220,346 h 442"
         transform="matrix(0.010583,0,0,-0.010583,11.662797,0)"
         style="stroke-width:0.2584in"
         id="path304" />
      <path
         inkscape:connector-curvature="0"
         d="M 220,662 V 189 L 252,94.5 315,31.5 410,0 h 62 l 95,31.5 63,63 32,94.5 v 473"
         transform="matrix(0.010583,0,0,-0.010583,22.997511,0)"
         style="stroke-width:0.2584in"
         id="path306" />
      <path
         inkscape:connector-curvature="0"
         d="m 630,567 -63,63 -95,32 H 346 l -94,-32 -63,-63 v -63 l 31,-63 32,-31 63,-32 189,-63 63,-31 31,-32 32,-63 V 94.5 L 567,31.5 472,0 H 346 l -94,31.5 -63,63"
         transform="matrix(0.010583,0,0,-0.010583,30.331738,0)"
         style="stroke-width:0.2584in"
         id="path308" />
      <path
         inkscape:connector-curvature="0"
         d="M 220,662 V 0 m 0,662 h 221 l 95,-32 62,-63 32,-63 32,-94 V 252 L 630,158 598,94.5 536,31.5 441,0 H 220"
         transform="matrix(0.010583,0,0,-0.010583,36.999217,0)"
         style="stroke-width:0.2584in"
         id="path310" />
      <path
         inkscape:connector-curvature="0"
         d="M 441,788 378,724 315,630 252,504 220,346 V 220 l 32,-157 63,-126 63,-95 63,-62"
         transform="matrix(0.010583,0,0,-0.010583,48.005849,0)"
         style="stroke-width:0.2584in"
         id="path312" />
      <path
         inkscape:connector-curvature="0"
         d="M 252,662 H 598 L 410,410 h 94 l 63,-32 31,-32 32,-94 V 189 L 598,94.5 536,31.5 441,0 H 346 L 252,31.5 220,63 189,126"
         transform="matrix(0.010583,0,0,-0.010583,52.673084,0)"
         style="stroke-width:0.2584in"
         id="path314" />
      <path
         inkscape:connector-curvature="0"
         d="M 220,662 V 0"
         transform="matrix(0.010583,0,0,-0.010583,63.34105,0)"
         style="stroke-width:0.2584in"
         id="path316" />
      <path
         inkscape:connector-curvature="0"
         d="M 567,441 V 0 m 0,346 -63,64 -63,31 H 346 L 284,410 220,346 189,252 V 189 L 220,94.5 284,31.5 346,0 h 95 l 63,31.5 63,63"
         transform="matrix(0.010583,0,0,-0.010583,66.008042,0)"
         style="stroke-width:0.2584in"
         id="path318" />
      <path
         inkscape:connector-curvature="0"
         d="m 536,346 -32,64 -94,31 h -95 l -95,-31 -31,-64 31,-62 64,-32 157,-32 63,-31 32,-63 V 94.5 L 504,31.5 410,0 h -95 l -95,31.5 -31,63"
         transform="matrix(0.010583,0,0,-0.010583,72.336855,0)"
         style="stroke-width:0.2584in"
         id="path320" />
      <path
         inkscape:connector-curvature="0"
         d="M 252,662 V 126 L 284,31.5 346,0 h 64 M 158,441 h 220"
         transform="matrix(0.010583,0,0,-0.010583,78.009504,0)"
         style="stroke-width:0.2584in"
         id="path322" />
      <path
         inkscape:connector-curvature="0"
         d="M 158,441 346,0 M 536,441 346,0 l -62,-126 -64,-63 -62,-31 h -32"
         transform="matrix(0.010583,0,0,-0.010583,86.010479,0)"
         style="stroke-width:0.2584in"
         id="path324" />
      <path
         inkscape:connector-curvature="0"
         d="m 189,252 h 378 v 63 l -31,63 -32,32 -63,31 H 346 L 284,410 220,346 189,252 V 189 L 220,94.5 284,31.5 346,0 h 95 l 63,31.5 63,63"
         transform="matrix(0.010583,0,0,-0.010583,91.344462,0)"
         style="stroke-width:0.2584in"
         id="path326" />
      <path
         inkscape:connector-curvature="0"
         d="M 567,441 V 0 m 0,346 -63,64 -63,31 H 346 L 284,410 220,346 189,252 V 189 L 220,94.5 284,31.5 346,0 h 95 l 63,31.5 63,63"
         transform="matrix(0.010583,0,0,-0.010583,97.345193,0)"
         style="stroke-width:0.2584in"
         id="path328" />
      <path
         inkscape:connector-curvature="0"
         d="M 220,441 V 0 m 0,252 32,94 63,64 63,31 h 94"
         transform="matrix(0.010583,0,0,-0.010583,103.67401,0)"
         style="stroke-width:0.2584in"
         id="path330" />
      <path
         inkscape:connector-curvature="0"
         d="m 536,346 -32,64 -94,31 h -95 l -95,-31 -31,-64 31,-62 64,-32 157,-32 63,-31 32,-63 V 94.5 L 504,31.5 410,0 h -95 l -95,31.5 -31,63"
         transform="matrix(0.010583,0,0,-0.010583,108.01316,0)"
         style="stroke-width:0.2584in"
         id="path332" />
      <path
         inkscape:connector-curvature="0"
         d="m 189,788 63,-64 63,-94 63,-126 32,-158 V 220 L 378,63 315,-63 l -63,-95 -63,-62"
         transform="matrix(0.010583,0,0,-0.010583,113.68581,0)"
         style="stroke-width:0.2584in"
         id="path334" />
    </g>
  </g>
  <g
     transform="translate(-62.907538,-23.219091)"
     inkscape:label="Hershey Text"
     style="fill:none;stroke:#000000;stroke-linecap:round;stroke-linejoin:round"
     id="g350">
    <g
       transform="translate(85.3167,46.7082)"
       id="g348">
      <path
         inkscape:connector-curvature="0"
         d="m 284,536 62,31 95,95 V 0"
         transform="scale(0.010583,-0.010583)"
         style="stroke-width:0.2584in"
         id="path340" />
      <path
         inkscape:connector-curvature="0"
         d="m 284,536 62,31 95,95 V 0"
         transform="matrix(0.010583,0,0,-0.010583,6.667479,0)"
         style="stroke-width:0.2584in"
         id="path342" />
      <path
         inkscape:connector-curvature="0"
         d="M 378,662 284,630 220,536 189,378 V 284 L 220,126 284,31.5 378,0 h 63 l 95,31.5 62,94.5 32,158 v 94 l -32,158 -62,94 -95,32 h -63"
         transform="matrix(0.010583,0,0,-0.010583,13.334958,0)"
         style="stroke-width:0.2584in"
         id="path344" />
      <path
         inkscape:connector-curvature="0"
         d="M 378,662 284,630 220,536 189,378 V 284 L 220,126 284,31.5 378,0 h 63 l 95,31.5 62,94.5 32,158 v 94 l -32,158 -62,94 -95,32 h -63"
         transform="matrix(0.010583,0,0,-0.010583,20.002437,0)"
         style="stroke-width:0.2584in"
         id="path346" />
    </g>
  </g>
  <g
     transform="translate(-26.998943,-5.9397675)"
     inkscape:label="Hershey Text"
     style="fill:none;stroke:#000000;stroke-linecap:round;stroke-linejoin:round"
     id="g356">
    <g
       transform="translate(51.028,198.442)"
       id="g354">
      <path
         inkscape:connector-curvature="0"
         d="M 378,662 284,630 220,536 189,378 V 284 L 220,126 284,31.5 378,0 h 63 l 95,31.5 62,94.5 32,158 v 94 l -32,158 -62,94 -95,32 h -63"
         transform="scale(0.010583,-0.010583)"
         style="stroke-width:0.2584in"
         id="path352" />
    </g>
  </g>
  <WCB
     layer="0"
     node="0"
     lastpath="0"
     lastpathnc="0"
     lastknownposx="0"
     lastknownposy="0"
     pausedposx="0"
     pausedposy="0"
     randseed="0"
     row="0"
     application="Axidraw" />
</svg>
