<?xml version="1.0" encoding="UTF-8" standalone="no"?>
<svg
   xmlns:dc="http://purl.org/dc/elements/1.1/"
   xmlns:cc="http://creativecommons.org/ns#"
   xmlns:rdf="http://www.w3.org/1999/02/22-rdf-syntax-ns#"
   xmlns:svg="http://www.w3.org/2000/svg"
   xmlns="http://www.w3.org/2000/svg"
   xmlns:sodipodi="http://sodipodi.sourceforge.net/DTD/sodipodi-0.dtd"
   xmlns:inkscape="http://www.inkscape.org/namespaces/inkscape"
   inkscape:version="1.0beta2 (2b71d25, 2019-12-03)"
   height="210mm"
   viewBox="0 0 297 210"
   width="297mm"
   version="1.1"
   id="svg38"
   sodipodi:docname="image.svg">
  <metadata
     id="metadata44">
    <rdf:RDF>
      <cc:Work
         rdf:about="">
        <dc:format>image/svg+xml</dc:format>
        <dc:type
           rdf:resource="http://purl.org/dc/dcmitype/StillImage" />
      </cc:Work>
    </rdf:RDF>
  </metadata>
  <defs
     id="defs42" />
  <sodipodi:namedview
     inkscape:current-layer="svg38"
     inkscape:window-maximized="0"
     inkscape:window-y="102"
     inkscape:window-x="87"
     inkscape:cy="388.03132"
     inkscape:cx="118.34458"
     inkscape:zoom="0.8820975"
     showgrid="false"
     id="namedview40"
     inkscape:window-height="1084"
     inkscape:window-width="1267"
     inkscape:pageshadow="2"
     inkscape:pageopacity="0"
     guidetolerance="10"
     gridtolerance="10"
     objecttolerance="10"
     borderopacity="1"
     inkscape:document-rotation="0"
     bordercolor="#666666"
     pagecolor="#ffffff" />
  <line
     id="line28"
     y2="190"
     y1="20"
     x2="20"
     x1="20"
     stroke-width="0.5"
     stroke="black" />
  <path
     id="path30"
     stroke-width="0.5"
     stroke="black"
     fill="none"
     d="M20,163.68298 L20,163.68298 L20.26,158.53406 L20.52,158.77626 L20.78,158.13026 L21.04,156.23906 L21.3,157.7801 L21.56,158.73582 L21.82,157.20593 L22.08,156.64813 L22.34,153.5723 L22.6,153.26242 L22.86,153.94395 L23.119999,153.16307 L23.380001,149.5188 L23.64,153.50317 L23.9,151.39938 L24.16,153.2622 L24.42,150.96375 L24.68,150.58656 L24.94,151.50557 L25.2,152.43277 L25.46,151.49585 L25.72,148.82813 L25.98,149.01944 L26.24,148.2225 L26.5,149.31151 L26.76,150.87344 L27.02,151.81609 L27.28,151.16563 L27.54,152.80081 L27.8,156 L28.060001,155.64969 L28.32,154.51404 L28.58,154.60101 L28.84,155.67062 L29.1,156.37187 L29.36,157.90474 L29.619999,156.85101 L29.880001,156.88458 L30.14,155.32541 L30.4,156.09966 L30.66,158.2466 L30.92,160.77089 L31.18,160.38275 L31.439999,161.00969 L31.7,161.66335 L31.96,161.63663 L32.22,162.91156 L32.48,160.9869 L32.739998,161.44022 L33,160.86089 L33.260002,160.66963 L33.52,160.03734 L33.78,159.64299 L34.04,160.85031 L34.3,160.11719 L34.56,159.93741 L34.82,159.76614 L35.08,160.23174 L35.34,160.82518 L35.6,164.68599 L35.86,164.11751 L36.120003,165.93437 L36.379997,167.19461 L36.64,165.37135 L36.9,166.68396 L37.16,166.17885 L37.42,166.36145 L37.68,164.96506 L37.940002,164.81232 L38.2,164.70448 L38.46,164.93117 L38.72,168.51094 L38.98,167.95323 L39.239998,168.02234 L39.5,167.41125 L39.760002,168.37398 L40.02,168.03957 L40.28,169.52573 L40.54,167.69855 L40.8,166.67775 L41.059998,166.85445 L41.32,165.48128 L41.58,166.02013 L41.84,165.63167 L42.1,165.93863 L42.36,165.51054 L42.620003,164.72855 L42.879997,164.96696 L43.14,165.23248 L43.4,167.17267 L43.66,166.7415 L43.92,167.41884 L44.18,167.6101 L44.440002,167.4113 L44.7,166.87463 L44.96,164.9072 L45.22,161.7511 L45.48,161.40865 L45.739998,160.96077 L46,161.64438 L46.260002,161.31897 L46.52,161.34018 L46.78,159.60713 L47.04,156.01466 L47.3,157.19191 L47.559998,158.55 L47.82,157.12321 L48.08,156.92947 L48.34,157.00406 L48.6,157.20105 L48.86,159.55443 L49.120003,160.22566 L49.379997,160.64465 L49.64,161.21274 L49.9,163.38522 L50.16,163.30899 L50.42,163.78377 L50.68,164.92468 L50.940002,167.23593 L51.2,165.9355 L51.46,167.98495 L51.72,167.51564 L51.98,167.112 L52.24,167.44127 L52.5,167.75082 L52.76,167.3307 L53.02,167.09383 L53.28,165.6449 L53.54,166.68896 L53.8,166.21312 L54.06,167.39616 L54.32,166.2 L54.58,166.83278 L54.84,165.96089 L55.1,165.12878 L55.36,164.85254 L55.62,165.03125 L55.88,163.92285 L56.14,163.03316 L56.4,163.27165 L56.66,163.51804 L56.92,163.37794 L57.18,162.37494 L57.44,161.83307 L57.7,162.0402 L57.96,161.53 L58.22,165.03125 L58.48,166.0087 L58.74,166.6487 L59,167.76692 L59.26,167.41757 L59.52,167.0925 L59.78,167.18329 L60.04,166.95108 L60.3,166.16078 L60.56,166.21791 L60.82,166.01428 L61.08,166.06718 L61.34,167.42883 L61.6,166.9626 L61.86,166.66809 L62.12,166.13625 L62.38,164.71771 L62.64,164.9088 L62.9,164.98875 L63.16,165.66136 L63.42,166.37244 L63.68,166.27905 L63.94,165.089 L64.2,165.37878 L64.46,165.58173 L64.72,165.42134 L64.979996,165.50082 L65.240005,165.95674 L65.5,166.04062 L65.759995,165.59549 L66.020004,165.37311 L66.28,165.59294 L66.54,165.48143 L66.8,165.17464 L67.06,165.26175 L67.32,165.39781 L67.58,167.40764 L67.84,167.16682 L68.1,166.98131 L68.36,166.94725 L68.619995,164.75233 L68.880005,164.71638 L69.14,164.81403 L69.4,165.46178 L69.66,165.94032 L69.92,165.62413 L70.18,165.61504 L70.44,165.66238 L70.7,165.80948 L70.96,165.74577 L71.22,165.94452 L71.479996,165.88853 L71.740005,166.064 L72,166.14725 L72.259995,166.91985 L72.520004,166.99225 L72.78,166.77412 L73.04,166.57187 L73.3,166.44449 L73.56,166.69359 L73.82,166.16891 L74.08,166.25848 L74.34,165.99223 L74.6,165.67693 L74.86,166.20085 L75.119995,166.5188 L75.380005,166.44942 L75.64,166.36038 L75.9,166.34306 L76.16,166.31868 L76.42,169.16219 L76.68,170.06007 L76.94,170.57782 L77.2,170.7247 L77.46,170.54562 L77.72,174.54047 L77.979996,176.40605 L78.240005,175.86307 L78.5,177.40938 L78.759995,177.1405 L79.020004,179.73392 L79.28,178.91928 L79.54,180.10707 L79.8,180.03795 L80.06,177.96799 L80.32,177.80336 L80.58,179.15549 L80.84,178.36552 L81.1,178.51962 L81.36,179.9912 L81.619995,179.63191 L81.880005,180.59772 L82.14,181.98476 L82.4,182.54364 L82.66,182.50443 L82.92,181.79022 L83.18,182.38782 L83.44,182.66667 L83.7,182.32344 L83.96,183.08281 L84.22,183.4966 L84.48,183.56274 L84.74,183.47269 L85,181.983 L85.26,181.21854 L85.52,181.16945 L85.78,179.11139 L86.04,180.23212 L86.3,179.64642 L86.56,179.74841 L86.82,179.33244 L87.08,180.7255 L87.34,180.55576 L87.6,181.67049 L87.86,180.22893 L88.12,180.9936 L88.38,180.42735 L88.64,180.95334 L88.9,180.4527 L89.16,180.1264 L89.42,180.61398 L89.68,180.47995 L89.94,180.59178 L90.2,179.44087 L90.46,179.50542 L90.72,179.61337 L90.98,179.55217 L91.24,181.57501 L91.5,181.49304 L91.76,181.58963 L92.02,182.15445 L92.28,181.36139 L92.54,181.74936 L92.8,181.54335 L93.06,181.41388 L93.32,181.52725 L93.58,181.15309 L93.84,181.82257 L94.1,181.88835 L94.36,181.65443 L94.62,181.75064 L94.88,181.66139 L95.14,181.68439 L95.4,181.6846 L95.66,181.76115 L95.92,182.38107 L96.18,182.50386 L96.44,182.25342 L96.7,182.38133 L96.96,182.23276 L97.22,182.0059 L97.48,182.25378 L97.74,182.22664 L98,182.18217 L98.26,182.53397 L98.52,182.571 L98.78,181.18634 L99.04,181.15373 L99.3,181.07469 L99.56,181.33505 L99.82,181.33287 L100.08,181.45006 L100.34,181.55014 L100.6,181.48688 L100.86,181.40219 L101.12,181.14098 L101.38,179.9137 L101.64,179.86487 L101.9,179.53575 L102.16,179.70804 L102.42,179.57687 L102.68,178.7494 L102.94,180.73734 L103.2,180.28918 L103.46,180.38846 L103.72,180.3415 L103.98,180.36478 L104.24,180.3153 L104.5,180.33162 L104.76,180.39633 L105.02,180.88747 L105.28,180.1308 L105.54,180.10898 L105.8,180.04628 L106.06,180.09277 L106.32,179.6776 L106.58,179.8169 L106.84,180.05707 L107.1,179.998 L107.36,180.08688 L107.62,180.0278 L107.88,179.78003 L108.14,179.34323 L108.4,179.47519 L108.66,179.43976 L108.92,179.2925 L109.18,179.14635 L109.44,179.47784 L109.7,179.44443 L109.96,179.34308 L110.22,179.41655 L110.48,179.71436 L110.74,179.64833 L111,179.17287 L111.26,179.22726 L111.52,178.82648 L111.78,178.80672 L112.04,178.82277 L112.3,178.60703 L112.56,174.82065 L112.82,174.42056 L113.08,174.60086 L113.34,174.03621 L113.6,173.82933 L113.86,173.15794 L114.12,172.80397 L114.38,173.26563 L114.64,172.42493 L114.9,173.97021 L115.16,173.80745 L115.42,173.82227 L115.68,173.36497 L115.94,173.92995 L116.2,173.13962 L116.46,172.98502 L116.72,172.68954 L116.98,172.68826 L117.24,172.5127 L117.5,172.70175 L117.76,172.16519 L118.02,171.4418 L118.28,171.8578 L118.54,172.89429 L118.8,172.39384 L119.06,172.49164 L119.32,172.4288 L119.58,172.79738 L119.84,172.3582 L120.1,172.02675 L120.36,171.44412 L120.62,169.95758 L120.88,169.65604 L121.14,169.94202 L121.4,170.08987 L121.66,169.56631 L121.92,168.81752 L122.18,167.63873 L122.44,166.7667 L122.7,163.03258 L122.96,163.61116 L123.22,159.23685 L123.48,158.4036 L123.74,157.22256 L124,158.83374 L124.26,161.55019 L124.52,162.0698 L124.78,157.3362 L125.04,158.45358 L125.3,158.63039 L125.56,160.09897 L125.82,158.91386 L126.08,158.31163 L126.34,157.99 L126.6,154.86084 L126.86,154.10704 L127.12,154.32317 L127.38,154.69482 L127.64,156.69307 L127.9,155.17656 L128.16,155.23462 L128.42,154.26823 L128.68,157.5097 L128.94,159.78764 L129.2,159.31235 L129.45999,159.25815 L129.72,158.22844 L129.98001,158.69014 L130.23999,160.10056 L130.5,158.21664 L130.76001,158.73648 L131.01999,157.44691 L131.28,156.964 L131.54001,154.67188 L131.8,153.82878 L132.06,153.06042 L132.32,151.14458 L132.58,152.37926 L132.84,151.45522 L133.1,150.06529 L133.36,146.65074 L133.62,143.62454 L133.88,142.6865 L134.14,141.88687 L134.4,137.82669 L134.66,131.06418 L134.92,140.43442 L135.18,134.74664 L135.44,137.38962 L135.7,142.9626 L135.95999,144.18005 L136.22,143.02237 L136.48001,137.19376 L136.73999,141.41364 L137,142.34299 L137.26001,140.82489 L137.51999,140.02936 L137.78,135.60744 L138.04001,133.98813 L138.3,136.29929 L138.56,140.3659 L138.82,138.16476 L139.08,140.29753 L139.34,146.57468 L139.6,143.04431 L139.86,150.47717 L140.12,149.26418 L140.38,144.16821 L140.64,144.82095 L140.9,143.56754 L141.16,144.36855 L141.42,145.69211 L141.68,148.21767 L141.94,148.75757 L142.2,148.1382 L142.45999,148.435 L142.72,150.28099 L142.98001,149.93556 L143.23999,150.11566 L143.5,149.76201 L143.76001,147.07217 L144.01999,145.50787 L144.28,144.71758 L144.54001,143.16043 L144.8,142.56348 L145.06,137.7845 L145.32,139.62852 L145.58,137.00766 L145.84,136.87622 L146.1,137.51256 L146.36,140.54428 L146.62,139.2658 L146.88,140.08333 L147.14,142.75748 L147.4,147.23242 L147.66,145.9385 L147.92,145.73871 L148.18,146.3524 L148.44,145.87024 L148.7,142.6362 L148.96,143.4598 L149.22,146.74258 L149.48,146.96939 L149.74,145.43051 L150,146.78627 L150.26,146.74196 L150.52,145.52243 L150.78,146.5169 L151.04,148.98218 L151.3,150.16454 L151.56,149.70714 L151.82,149.69157 L152.08,148.96104 L152.34,145.69376 L152.6,144.23132 L152.86,144.4877 L153.12,144.50113 L153.38,145.913 L153.64,145.07814 L153.9,145.47498 L154.16,145.88968 L154.42,146.97858 L154.68,146.65887 L154.94,145.29526 L155.2,145.6828 L155.46,145.72021 L155.72,145.89557 L155.98,146.16492 L156.24,146.5022 L156.5,146.66599 L156.76,146.20221 L157.02,146.60437 L157.28,147.57231 L157.54,147.34663 L157.8,149.0818 L158.06,155.5052 L158.32,155.84036 L158.58,157.78644 L158.84,157.17986 L159.1,157.06882 L159.36,157.89221 L159.62,156.58788 L159.88,156.57141 L160.14,156.21281 L160.4,156.93521 L160.66,157.3965 L160.92,157.45462 L161.18,158.89929 L161.44,157.11514 L161.7,157.23042 L161.96,155.14606 L162.22,155.16048 L162.48,156.75172 L162.74,156.53076 L163,156.66402 L163.26,156.27519 L163.52,157.27876 L163.78,158.16887 L164.04,157.75005 L164.3,158.40651 L164.56,158.4012 L164.82,156.93845 L165.08,157.07701 L165.34,158.01875 L165.6,160.95859 L165.86,161.24657 L166.12,154.6452 L166.38,151.59062 L166.64,149.99725 L166.9,151.7227 L167.16,150.64702 L167.42,151.99055 L167.68,152.06424 L167.94,151.58208 L168.2,151.27443 L168.46,151.7781 L168.72,150.72284 L168.98,151.17274 L169.24,151.01129 L169.5,151.66394 L169.76,154.01456 L170.02,153.82501 L170.28,152.60281 L170.54,154.2295 L170.8,153.75844 L171.06,153.99655 L171.32,154.68951 L171.58,155.61894 L171.84,155.51645 L172.1,155.45601 L172.36,157.13066 L172.62,157.41504 L172.88,157.60432 L173.14,160.10263 L173.4,162.01253 L173.66,161.78229 L173.92,163.95132 L174.18,162.85541 L174.44,162.60802 L174.7,160.736 L174.96,161.20895 L175.22,159.50795 L175.48,160.55872 L175.74,161.3609 L176,161.87415 L176.26,161.88248 L176.52,162.40517 L176.78,161.37094 L177.04,160.63531 L177.3,160.84389 L177.56,160.72754 L177.82,161.63847 L178.08,162.24681 L178.34,162.32188 L178.6,162.3852 L178.86,162.06433 L179.12,163.09724 L179.38,162.8075 L179.64,164.01274 L179.9,165.43596 L180.16,161.96153 L180.42,162.63904 L180.68,162.43965 L180.94,162.73227 L181.2,160.7736 L181.46,161.75296 L181.72,162.07872 L181.98,162.3504 L182.24,162.36438 L182.5,162.0842 L182.76,161.75801 L183.02,161.37497 L183.28,162.13063 L183.54,162.40034 L183.8,162.37048 L184.06,163.61967 L184.32,161.6049 L184.58,161.55629 L184.84,161.53165 L185.1,159.41063 L185.36,157.35321 L185.62,157.8276 L185.88,159.09315 L186.14,157.07834 L186.4,158.01869 L186.66,157.14229 L186.92,157.53882 L187.18,153.82182 L187.44,153.76126 L187.7,154.29996 L187.96,153.2732 L188.22,153.25896 L188.48,154.39722 L188.74,154.71252 L189,154.21484 L189.26,154.49997 L189.52,155.97598 L189.78,155.79282 L190.04,156.31567 L190.3,154.85782 L190.56,153.30353 L190.82,150.82451 L191.08,151.21062 L191.34,150.08607 L191.6,150.93777 L191.86,150.76926 L192.12,151.05136 L192.38,151.25998 L192.64,151.76584 L192.9,149.56104 L193.16,148.71126 L193.42,148.48956 L193.68,148.05754 L193.94,146.69383 L194.2,148.28716 L194.46,146.31488 L194.72,145.76569 L194.98,146.28009 L195.24,145.6706 L195.5,148.00618 L195.76,147.9395 L196.02,149.06187 L196.28,146.62497 L196.54,149.65799 L196.8,149.64401 L197.06,149.21567 L197.32,149.35481 L197.58,147.83786 L197.84,149.32681 L198.1,151.1346 L198.36,153.95335 L198.62,153.7517 L198.88,154.44392 L199.14,155.34332 L199.4,155.2994 L199.66,153.26279 L199.92,154.08713 L200.18,154.136 L200.44,152.52202 L200.7,152.1119 L200.96,153.41463 L201.22,157.94804 L201.48,158.49756 L201.74,158.68515 L202,158.47285 L202.26,175.125 L202.52,170.9887 L202.78,173.14844 L203.04,172.1431 L203.3,173.9086 L203.56,172.4016 L203.82,171.97447 L204.08,167.8874 L204.34,167.6431 L204.6,167.75667 L204.86,169.72649 L205.12,166.26741 L205.38,164.79367 L205.64,165.15115 L205.9,164.83278 L206.16,166.84222 L206.42,167.4928 L206.68,169.37996 L206.94,166.65485 L207.2,166.56953 L207.46,165.33449 L207.72,164.5314 L207.98,164.8501 L208.24,164.19724 L208.5,164.6446 L208.76,161.6849 L209.02,162.38924 L209.28,161.5182 L209.54,161.93118 L209.8,164.18698 L210.06,164.09183 L210.32,163.94862 L210.58,164.2986 L210.84,164.13503 L211.1,165.44966 L211.36,162.89595 L211.62,163.29114 L211.88,162.1168 L212.14,162.79607 L212.4,164.35747 L212.66,164.28023 L212.92,162.77269 L213.18,160.8748 L213.44,160.75468 L213.7,160.57582 L213.96,159.7554 L214.22,159.32233 L214.48,159.51167 L214.74,153.98885 L215,154.83125 L215.26,153.73178 L215.52,152.96098 L215.78,153.37477 L216.04,153.49272 L216.3,152.69653 L216.56,152.05324 L216.82,147.57225 L217.08,148.56244 L217.34,149.94693 L217.6,154.28528 L217.86,155.14192 L218.12,153.81767 L218.38,151.16898 L218.64,148.6051 L218.9,151.13152 L219.16,150.787 L219.42,149.19978 L219.68,148.9135 L219.94,148.6925 L220.2,150.09554 L220.46,152.4478 L220.72,151.90938 L220.98,151.86076 L221.24,154.29819 L221.5,153.3419 L221.76,153.65623 L222.02,151.72838 L222.28,149.75308 L222.54,150.54369 L222.8,149.10587 L223.06,150.43108 L223.32,146.43341 L223.58,150.06041 L223.84,149.2731 L224.1,148.62062 L224.36,149.51259 L224.62,149.27278 L224.88,148.84412 L225.14,148.65808 L225.4,148.70897 L225.66,148.11093 L225.92,151.32288 L226.18,150.34149 L226.44,150.29788 L226.7,150.99509 L226.96,150.54927 L227.22,150.02031 L227.48,150.34145 L227.74,150.76018 L228,151.1644 L228.26,150.90558 L228.52,151.24695 L228.78,149.16977 L229.04,149.49278 L229.3,151.2374 L229.56,151.48708 L229.82,151.95076 L230.08,152.74875 L230.34,152.1944 L230.6,151.78952 L230.86,152.07645 L231.12,151.58 L231.38,152.35275 L231.64,152.50299 L231.9,152.09286 L232.16,152.44376 L232.42,150.98393 L232.68,151.44511 L232.94,150.49593 L233.2,151.57771 L233.46,151.2807 L233.72,151.56921 L233.98,151.20415 L234.24,151.52357 L234.5,151.4533 L234.76,151.76276 L235.02,152.10211 L235.28,151.99268 L235.54,151.90788 L235.8,151.70224 L236.06,151.95836 L236.32,150.74063 L236.58,150.05977 L236.84,149.60764 L237.1,149.95544 L237.36,149.09152 L237.62,147.8637 L237.88,142.02834 L238.14,142.68546 L238.4,141.65344 L238.66,141.65833 L238.92,140.40536 L239.18,137.93127 L239.44,141.80846 L239.7,141.01976 L239.96,141.16766 L240.22,138.23016 L240.48,138.13693 L240.74,139.03064 L241,138.14252 L241.26,138.56607 L241.52,137.44386 L241.78,140.10458 L242.04,139.18948 L242.3,138.04376 L242.56,138.14713 L242.82,137.65912 L243.08,137.34781 L243.34,135.3815 L243.6,137.16713 L243.86,138.17874 L244.12,137.65302 L244.38,139.36476 L244.64,138.66553 L244.9,138.74432 L245.16,138.21269 L245.42,140.4959 L245.68,139.73615 L245.94,140.43236 L246.2,139.3883 L246.46,139.71274 L246.72,138.40947 L246.98,138.73698 L247.24,137.28954 L247.5,140.12338 L247.76,146.75174 L248.02,145.1293 L248.28,146.61446 L248.54,146.13895 L248.8,145.5161 L249.06,146.82716 L249.32,146.33551 L249.58,145.71039 L249.84,145.43933 L250.1,145.15762 L250.36,145.73184 L250.62,143.93123 L250.88,143.32805 L251.14,142.43182 L251.4,142.50629 L251.66,142.54137 L251.92,141.75905 L252.18,142.61101 L252.44,145.28351 L252.7,144.68645 L252.96,146.21725 L253.22,143.58829 L253.48,143.85207 L253.74,143.62932 L254,143.3868 L254.26,143.80185 L254.52,143.03494 L254.78,143.37437 L255.04,144.21088 L255.3,144.46976 L255.56,144.6203 L255.82,143.95853 L256.08002,143.29138 L256.34,144.3143 L256.6,143.95981 L256.86,142.5829 L257.12,141.91847 L257.38,140.62976 L257.64,140.22708 L257.9,139.38116 L258.16,139.95328 L258.41998,139.96747 L258.68,139.50406 L258.94,140.49112 L259.2,140.27394 L259.46002,139.51457 L259.72,138.19531 L259.97998,137.35318 L260.24,132.72615 L260.5,131.72974 L260.76,131.97119 L261.02002,130.96893 L261.28,131.40933 L261.53998,131.28525 L261.8,128.18285 L262.06,130.14725 L262.32,129.1416 L262.58002,128.58698 L262.84,127.36031 L263.1,127.51702 L263.36,128.64398 L263.62,126.125 L263.88,125.484955 L264.14,117.803024 L264.4,117.856674 L264.66,121.90278 L264.91998,118.413536 L265.18,119.19282 L265.44,119.35857 L265.7,117.302475 L265.96002,114.07449 L266.22,113.92127 L266.47998,115.25073 L266.74,115.85343 L267,111.83416 L267.26,106.80953 L267.52002,106.18937 L267.78,106.047516 L268.03998,101.516754 L268.3,101.26106 L268.56,102.79834 L268.82,103.045 L269.08002,98.83745 L269.34,101.17973 L269.6,109.51843 L269.86,109.571304 L270.12,106.488304 L270.38,104.01724 L270.64,95.99069 L270.9,100.93614 L271.16,98.60327 L271.41998,97.44616 L271.68,101.54411 L271.94,98.90306 L272.2,97.77819 L272.46002,98.80084 L272.72,103.27817 L272.97998,102.12446 L273.24,103.64727 L273.5,104.80594 L273.76,100.70384 L274.02002,98.757866 L274.28,98.23644 L274.53998,97.42209 L274.8,87.28005 L275.06,79.51508 L275.32,77.86698 L275.58002,74.0727 L275.84,76.017555 L276.1,79.92653 L276.36,74.13019 L276.62,77.200966 L276.88,74.56363 L277.14,69.34 L277.4,59.87886 L277.66,61.00368 L277.92,56.765633 L278.18,55.142185 L278.44,47.223694 L278.7,46.96821 L278.96,44.8004 L279.22,29.677624 L279.48,25.312225 L279.74,32.813805" />
  <g
     transform="matrix(0.81747301,0,0,0.81747301,61.117957,137.37849)"
     inkscape:label="Hershey Text"
     style="fill:none;stroke:#000000;stroke-linecap:round;stroke-linejoin:round"
     id="g96">
    <g
       transform="translate(147.634,67.8319)"
       id="g94">
      <path
         inkscape:connector-curvature="0"
         d="M 220,662 V 0 m 0,662 h 284 l 94,-32 32,-32 32,-62 v -64 l -32,-62 -32,-32 -94,-32 m -284,0 h 284 l 94,-31 32,-31 32,-64 V 126 L 630,63 598,31.5 504,0 H 220"
         transform="scale(0.010583,-0.010583)"
         style="stroke-width:0.2584in"
         id="path58" />
      <path
         inkscape:connector-curvature="0"
         d="M 346,662 V 0 M 126,662 h 441"
         transform="matrix(0.010583,0,0,-0.010583,7.006145,0)"
         style="stroke-width:0.2584in"
         id="path60" />
      <path
         inkscape:connector-curvature="0"
         d="m 662,504 -32,63 -63,63 -63,32 H 378 L 315,630 252,567 220,504 189,410 V 252 l 31,-94 32,-63.5 63,-63 L 378,0 h 126 l 63,31.5 63,63 32,63.5"
         transform="matrix(0.010583,0,0,-0.010583,12.340128,0)"
         style="stroke-width:0.2584in"
         id="path62" />
      <path
         inkscape:connector-curvature="0"
         d="M 220,662 V 189 L 252,94.5 315,31.5 410,0 h 62 l 95,31.5 63,63 32,94.5 v 473"
         transform="matrix(0.010583,0,0,-0.010583,23.34676,0)"
         style="stroke-width:0.2584in"
         id="path64" />
      <path
         inkscape:connector-curvature="0"
         d="m 630,567 -63,63 -95,32 H 346 l -94,-32 -63,-63 v -63 l 31,-63 32,-31 63,-32 189,-63 63,-31 31,-32 32,-63 V 94.5 L 567,31.5 472,0 H 346 l -94,31.5 -63,63"
         transform="matrix(0.010583,0,0,-0.010583,30.680987,0)"
         style="stroke-width:0.2584in"
         id="path66" />
      <path
         inkscape:connector-curvature="0"
         d="M 220,662 V 0 m 0,662 h 221 l 95,-32 62,-63 32,-63 32,-94 V 252 L 630,158 598,94.5 536,31.5 441,0 H 220"
         transform="matrix(0.010583,0,0,-0.010583,37.348466,0)"
         style="stroke-width:0.2584in"
         id="path68" />
      <path
         inkscape:connector-curvature="0"
         d="M 441,788 378,724 315,630 252,504 220,346 V 220 l 32,-157 63,-126 63,-95 63,-62"
         transform="matrix(0.010583,0,0,-0.010583,48.355098,0)"
         style="stroke-width:0.2584in"
         id="path70" />
      <path
         inkscape:connector-curvature="0"
         d="M 252,662 H 598 L 410,410 h 94 l 63,-32 31,-32 32,-94 V 189 L 598,94.5 536,31.5 441,0 H 346 L 252,31.5 220,63 189,126"
         transform="matrix(0.010583,0,0,-0.010583,53.022333,0)"
         style="stroke-width:0.2584in"
         id="path72" />
      <path
         inkscape:connector-curvature="0"
         d="M 220,662 V 0"
         transform="matrix(0.010583,0,0,-0.010583,63.690299,0)"
         style="stroke-width:0.2584in"
         id="path74" />
      <path
         inkscape:connector-curvature="0"
         d="M 567,441 V 0 m 0,346 -63,64 -63,31 H 346 L 284,410 220,346 189,252 V 189 L 220,94.5 284,31.5 346,0 h 95 l 63,31.5 63,63"
         transform="matrix(0.010583,0,0,-0.010583,66.357291,0)"
         style="stroke-width:0.2584in"
         id="path76" />
      <path
         inkscape:connector-curvature="0"
         d="m 536,346 -32,64 -94,31 h -95 l -95,-31 -31,-64 31,-62 64,-32 157,-32 63,-31 32,-63 V 94.5 L 504,31.5 410,0 h -95 l -95,31.5 -31,63"
         transform="matrix(0.010583,0,0,-0.010583,72.686104,0)"
         style="stroke-width:0.2584in"
         id="path78" />
      <path
         inkscape:connector-curvature="0"
         d="M 252,662 V 126 L 284,31.5 346,0 h 64 M 158,441 h 220"
         transform="matrix(0.010583,0,0,-0.010583,78.358753,0)"
         style="stroke-width:0.2584in"
         id="path80" />
      <path
         inkscape:connector-curvature="0"
         d="M 158,441 346,0 M 536,441 346,0 l -62,-126 -64,-63 -62,-31 h -32"
         transform="matrix(0.010583,0,0,-0.010583,86.359728,0)"
         style="stroke-width:0.2584in"
         id="path82" />
      <path
         inkscape:connector-curvature="0"
         d="m 189,252 h 378 v 63 l -31,63 -32,32 -63,31 H 346 L 284,410 220,346 189,252 V 189 L 220,94.5 284,31.5 346,0 h 95 l 63,31.5 63,63"
         transform="matrix(0.010583,0,0,-0.010583,91.693711,0)"
         style="stroke-width:0.2584in"
         id="path84" />
      <path
         inkscape:connector-curvature="0"
         d="M 567,441 V 0 m 0,346 -63,64 -63,31 H 346 L 284,410 220,346 189,252 V 189 L 220,94.5 284,31.5 346,0 h 95 l 63,31.5 63,63"
         transform="matrix(0.010583,0,0,-0.010583,97.694442,0)"
         style="stroke-width:0.2584in"
         id="path86" />
      <path
         inkscape:connector-curvature="0"
         d="M 220,441 V 0 m 0,252 32,94 63,64 63,31 h 94"
         transform="matrix(0.010583,0,0,-0.010583,104.02326,0)"
         style="stroke-width:0.2584in"
         id="path88" />
      <path
         inkscape:connector-curvature="0"
         d="m 536,346 -32,64 -94,31 h -95 l -95,-31 -31,-64 31,-62 64,-32 157,-32 63,-31 32,-63 V 94.5 L 504,31.5 410,0 h -95 l -95,31.5 -31,63"
         transform="matrix(0.010583,0,0,-0.010583,108.36241,0)"
         style="stroke-width:0.2584in"
         id="path90" />
      <path
         inkscape:connector-curvature="0"
         d="m 189,788 63,-64 63,-94 63,-126 32,-158 V 220 L 378,63 315,-63 l -63,-95 -63,-62"
         transform="matrix(0.010583,0,0,-0.010583,114.03506,0)"
         style="stroke-width:0.2584in"
         id="path92" />
    </g>
  </g>
  <g
     transform="translate(-0.89984384,-1.4997397)"
     inkscape:label="Hershey Text"
     style="fill:none;stroke:#000000;stroke-linecap:round;stroke-linejoin:round"
     id="g161">
    <g
       transform="translate(22.4961,28.795)"
       id="g159">
      <path
         inkscape:connector-curvature="0"
         d="M 252,662 H 598 L 410,410 h 94 l 63,-32 31,-32 32,-94 V 189 L 598,94.5 536,31.5 441,0 H 346 L 252,31.5 220,63 189,126"
         transform="scale(0.010583,-0.010583)"
         style="stroke-width:0.2584in"
         id="path149" />
      <path
         inkscape:connector-curvature="0"
         d="M 504,662 189,220 H 662 M 504,662 V 0"
         transform="matrix(0.010583,0,0,-0.010583,6.667479,0)"
         style="stroke-width:0.2584in"
         id="path151" />
      <path
         inkscape:connector-curvature="0"
         d="M 378,662 284,630 220,536 189,378 V 284 L 220,126 284,31.5 378,0 h 63 l 95,31.5 62,94.5 32,158 v 94 l -32,158 -62,94 -95,32 h -63"
         transform="matrix(0.010583,0,0,-0.010583,13.334958,0)"
         style="stroke-width:0.2584in"
         id="path153" />
      <path
         inkscape:connector-curvature="0"
         d="M 378,662 284,630 220,536 189,378 V 284 L 220,126 284,31.5 378,0 h 63 l 95,31.5 62,94.5 32,158 v 94 l -32,158 -62,94 -95,32 h -63"
         transform="matrix(0.010583,0,0,-0.010583,20.002437,0)"
         style="stroke-width:0.2584in"
         id="path155" />
      <path
         inkscape:connector-curvature="0"
         d="M 378,662 284,630 220,536 189,378 V 284 L 220,126 284,31.5 378,0 h 63 l 95,31.5 62,94.5 32,158 v 94 l -32,158 -62,94 -95,32 h -63"
         transform="matrix(0.010583,0,0,-0.010583,26.669916,0)"
         style="stroke-width:0.2584in"
         id="path157" />
    </g>
  </g>
  <g
     transform="translate(-8.9984384,3.5993753)"
     inkscape:label="Hershey Text"
     style="fill:none;stroke:#000000;stroke-linecap:round;stroke-linejoin:round"
     id="g217">
    <g
       transform="translate(31.1946,185.968)"
       id="g215">
      <path
         inkscape:connector-curvature="0"
         d="m 220,504 v 32 l 32,62 32,32 62,32 h 126 l 64,-32 31,-32 31,-62 V 472 L 567,410 504,315 189,0 h 441"
         transform="scale(0.010583,-0.010583)"
         style="stroke-width:0.2584in"
         id="path207" />
      <path
         inkscape:connector-curvature="0"
         d="M 378,662 284,630 220,536 189,378 V 284 L 220,126 284,31.5 378,0 h 63 l 95,31.5 62,94.5 32,158 v 94 l -32,158 -62,94 -95,32 h -63"
         transform="matrix(0.010583,0,0,-0.010583,6.667479,0)"
         style="stroke-width:0.2584in"
         id="path209" />
      <path
         inkscape:connector-curvature="0"
         d="M 378,662 284,630 220,536 189,378 V 284 L 220,126 284,31.5 378,0 h 63 l 95,31.5 62,94.5 32,158 v 94 l -32,158 -62,94 -95,32 h -63"
         transform="matrix(0.010583,0,0,-0.010583,13.334958,0)"
         style="stroke-width:0.2584in"
         id="path211" />
      <path
         inkscape:connector-curvature="0"
         d="M 378,662 284,630 220,536 189,378 V 284 L 220,126 284,31.5 378,0 h 63 l 95,31.5 62,94.5 32,158 v 94 l -32,158 -62,94 -95,32 h -63"
         transform="matrix(0.010583,0,0,-0.010583,20.002437,0)"
         style="stroke-width:0.2584in"
         id="path213" />
    </g>
  </g>
</svg>
