<svg height="210mm" style="background: black" viewBox="0 0 297 210" width="297mm" xmlns="http://www.w3.org/2000/svg" xmlns:inkscape="http://www.inkscape.org/namespaces/inkscape">
<path d="M58.997868,209.80083 L51.643032,179.78833 L65.97674,185.6374 M231.8,151.92 L226.375,153.9325 L229.63,150.31 M323.56,140.42 L300,142.36223 L300,140.42 M51.194,126.022 L39.003845,129.89813 L44.303913,120.91 M57.89,118.11 L55.1,119.145 L55.1,118.11 M-13.628908,161.5991 L-10,160.04205 L-10,162.46564 M88.89,105.23 L84.211815,105.23 L85.21429,102.50285 M115.86,102.7 L111.21,103.85 L114.31,101.55 M78.66,82.575 L74.76778,81.13111 L78.66,76.0775 M271.48,36.92 L264.2422,45.87 L263.1565,41.037 M90.29316,19.16158 L87.60571,16.170713 L97.818,9.856667 M84.55,-24.183332 L84.55,-10 L81.53158,-10 M63.78,-13.68 L64.33111,-10 L63.78,-10 M8.29,-10 L-10,-10 L-10,-30.355 M300,203.76857 L330.628,220 L300,220 M106.467,193.09 L117.348,220 L85.80755,220 L83.75453,193.09 M266.6016,186.06895 L269.62,181.59 L300,181.59 L300,203.76857 M244.13902,199.73361 L225.54187,189.26625 L232.87091,178.39091 L245.75838,194.32703 M244.61783,185.39 L236.295,176.1275 L239.37,174.22629 L244.09666,180.36333 M82.07,178.14 L77.11,178.14 L83.31,175.84 L84.44218,176.82 M246.68,176.53 L244.09666,180.36333 L239.37,174.22629 L239.57953,173.89595 M215.85522,185.25 L169.35045,186.09155 L196.3458,177.32895 L217.51183,174.18819 M72.96077,173.45154 L67.5,169.4 L74.038185,169.4 L74.90793,171.7661 M248.85,168.71 L245.83858,170.94429 L245.47874,169.3425 L246.64125,167.6175 M82.26077,170.23154 L79.59,168.25 L82.38,168.25 L82.73325,169.82256 M257.64273,163.77545 L255.05,164.41667 L255.05,162.11667 L256.042,161.994 M230.14667,167.71333 L228.7,166.64 L228.7,163.19 L233.195,163.19 M266.26636,163.85909 L261.29428,161.64572 L267.9009,160.01183 L274.89,160.66 M223.54625,161.57281 L219.03232,157.3865 L223.74,154.243 L223.74,161.56084 M270.736,157.44 L263.42,157.44 L262.76556,156.95444 L265.33072,154.57545 M81.76,156.79182 L75.63604,157.61792 L76.85636,153.09091 L81.76,154.91 M270.085,151.92 L265.22833,154.32222 L265.18314,154.2775 L265.9775,151.92 M246.45857,145.90715 L242.34,147.435 L242.34,143.64 L246.06,145.02 M223.81,148.02484 L216.9747,146.57588 L220.24142,143.34428 L224.0057,146.13715 M214.67706,145.4394 L209.42018,142.5142 L212.93,139.16612 L216.37666,141.02591 M252.88,143.18 L248.54,143.18 L247.3775,141.7425 L249.16,140.42 M282.33,130.07 L264.7512,139.85176 L261.56,138.27333 L261.7721,137.69632 M257.63333,135.66667 L255.36,139.04 L252.28696,136 L253.94286,132.92857 M229.475,138.12 L222.5547,137.18648 L223.43,133.29 L225.4858,132.20053 M247.579,135.268 L245.13,134.05667 L245.13,132.37 L248.85,129.61 M245.13,134.05667 L242.55211,134.69421 L242.154,132.922 L245.13,132.37 M204.94273,133.20636 L200.41,132.45903 L205.45,126.85 L209.48,129.84 M247.61,127.31 L241.1,132.14 L235.58888,131.11778 L238.5425,129.5525 M222.78094,126.07375 L213.02478,130.21 L214.10048,125.82047 L222.19,124.32 M68.46263,127.21316 L64.11952,127.85762 L63.47,125.93 L69.67,123.63 M75.94294,123.52177 L70.83706,123.04823 L73.7,118.8 L78.04,120.41 M105.43072,123.975 L97.391075,119.33564 L98.19717,114.85011 L103.97384,116.40863 M65.24143,118.96429 L59.32579,114.575264 L59.791332,113.28 L69.49778,113.28 M87.65,116.27 L80.83,116.27 L80.45195,114.30659 L85.914,114.982 M114.79222,122.863335 L107.76737,116.60895 L112.174446,112.24926 L113.71797,113.29902 M144.69,152.15 L118.65,113.51 L125.625,113.51 L148.1775,146.975 M230.27884,115.99186 L225.52904,111.29313 L227.19057,110.500656 L243.72737,108.86475 M217.9275,112.9925 L215.02556,115.14555 L210.9282,112.713585 L213.52051,111.03068 M25.102093,115.39279 L-10,126.55428 L-10,111.44 L26.624287,111.44 M123.07,111.0171 L118.402,113.326 L117.53868,113.04132 L120.22385,108.06077 M26.624287,111.44 L-10,111.44 L-10,110.52 L27.332857,110.52 M130.43,110.29 L125.19444,112.23222 L124.99762,111.91095 L126.09,110.29 M57.855556,110.941666 L47.79286,113.18143 L49.613,108.68 L55.823334,108.68 M192.32666,111.05666 L187.45177,109.24824 L187.20769,107.61846 L190.57,108.45 M94.92,105.25226 L91.37,110.52 L91.37,105.755714 L93.507935,104.84931 M185.10625,106.52375 L167.21666,119.79667 L168.30438,115.35807 L180.65,102.27286 M71.4546,105.67757 L69.26312,105.31625 L66.88,101.78 L71.902,103.022 M130.43,104.83572 L125.67667,102.316666 L125.88333,102.16333 L130.43,100.814 M109.35,102.47 L103.56333,98.17667 L108.11,96.49 L111.917015,98.18474 M188.09,98.45545 L180.17397,97.3876 L179.6828,95.11 L188.09,95.11 M188.71,98.58091 L188.09,98.45545 L188.09,95.11 L188.71,94.956665 M215.37,98.79 L210.15471,94.920586 L216.47311,91.63909 L217.73727,98.204544 M192.67474,96.61105 L189.02,94.80334 L189.02,93.385 L193.515,95.0525 M222.3787,96.37 L217.0733,91.12165 L219.4,90.15063 L225.57732,90.43707 M193.515,95.0525 L189.02,93.385 L188.586,92.58 L195.73666,92.58 M55.498573,94.32143 L51.257877,93.53485 L52,89.13 L52,89.13 M32.728333,92.58 L28.524546,96.32273 L25.22077,93.87154 L25.365833,92.58 M109.12454,93.64636 L105.807144,92.41572 L106.87,90.05 L110.452225,88.72111 M59.98981,93.00528 L52.62,89.36 L62.695,89.36 L62.278946,91.829475 M25.187925,90.99604 L-3.4423077,86.27564 L25.834862,84.82752 L28.336666,88.075836 M92.0675,86.83 L88.89,86.83 L87.236664,83.763336 L92.42212,84.72515 M134.46,85.312 L130.51086,87.07 L129.01286,82.62428 L134.46,84.645 M217.85,81.54 L212.35857,84.59571 L211.34,83.84 L211.68445,81.54 M42.39,85.1625 L38.53149,81.584045 L41.46,75.79 L42.39,77.17 M105.532104,79.32474 L102.84,79.54667 L102.84,76.25 L103.35667,76.096664 M265.714,52.79 L267.2121,47.23256 L300,48.66353 L300,68.68875 M67.51632,32.59842 L60.68,36.4025 L58.45939,31.047958 L66.80422,30.485111 M49.898888,36.281113 L44.958572,32.615715 L51.07,29.215 L54.779312,30.591034 M98.86345,36.713795 L83.152374,29.71983 L82.74167,27.739166 L95.958,32.642 M93.788,28.962 L87.54667,26.646667 L92.114,23.258 L94.27136,24.658545 M41.69464,29.299503 L35.24652,26.69 L40.116665,24.883333 L43.77762,27.599524 M48.762222,26.825556 L46.93667,24.116667 L51.69,20.59 L51.69,23.35 M82.38,27.561874 L79.28,27.130625 L79.28,21.331112 L82.38,21.586666 M84.34333,16.143333 L82.601425,17.435715 L81.538574,16.844286 L83.10333,15.683333 M67.91054,13.901351 L63.78,14.6675 L63.78,-10 L64.33111,-10 M147.83325,16.40721 L147.60225,16.44676 L133.344,-10 L174.5275,-10 M106.467,193.09 L83.75453,193.09 L83.38827,191.64978 L97.590775,180.72217 L107.625946,175.89268 M269.62,181.59 L266.6016,186.06895 L256.3505,183.21683 L256.81583,182.39354 L265.26062,181.05093 M230.87,177.91 L221.25652,187.4201 L220.8498,187.29585 L216.38365,185.32841 L222.81898,178.76334 M83.38827,191.64978 L82.07,190.98892 L82.07,178.14 L84.44218,176.82 L97.590775,180.72217 M82.07,190.98892 L71.74366,186.43344 L76.49,178.21666 L77.11,178.14 L82.07,178.14 M230.87,177.91 L222.81898,178.76334 L223.25,175.56549 L227.37622,172.06676 L232.1875,177.42125 M256.64108,178.76349 L247.02263,176.38474 L247.8545,172.68155 L253.65793,172.32274 L256.9608,177.53008 M76.49,177.68 L72.50895,173.9879 L72.96077,173.45154 L74.90793,171.7661 L79.46318,173.26819 M217.51183,174.18819 L196.3458,177.32895 L212.89682,170.63087 L217.54,173.50166 L217.54,174.15334 M269.8832,172.47679 L260.63,175.64539 L260.63,170.15572 L265.74878,169.61317 L270.14767,172.3329 M217.54,173.50166 L212.89682,170.63087 L214.60074,167.84962 L218.02437,166.48187 L221.27348,170.27 M239.55,172.62 L229.53462,169.83347 L230.15974,167.74632 L237.51897,167.13965 L239.55,169.4 M81.30692,171.36385 L77.62666,168.63333 L79.125,168.0775 L79.59,168.25 L82.26077,170.23154 M245.47874,169.3425 L242.5725,167.905 L243.47667,166.56334 L246.27136,165.9709 L246.64125,167.6175 M82.38,168.25 L79.59,168.25 L79.125,168.0775 L81.234344,165.73 L82.38,165.5411 M224.05,170.90384 L221.27348,170.27 L218.02437,166.48187 L218.26334,165.95 L224.05,165.95 M242.5725,167.905 L239.55,169.4 L237.51897,167.13965 L239.07307,163.29616 L243.47667,166.56334 M72.15,165.95 L67.5,169.4 L58.03091,169.4 L62.316513,166.70953 L70.18808,163.52397 M233.195,163.19 L228.7,163.19 L227.88924,160.78384 L232.73,161.81 L233.73154,162.55307 M80.83,162.73 L76.18,163.88 L72.96077,160.69539 L73.00517,160.38242 L79.23572,161.15286 M81.79444,163.08778 L80.83,162.73 L79.23572,161.15286 L83.51667,157.97667 L83.51667,157.97667 M223.54625,161.57281 L218.16,164.57 L214.87178,161.31714 L215.40445,158.15555 L219.03232,157.3865 M267.9009,160.01183 L261.29428,161.64572 L261.11716,161.61285 L260.63,160.89 L264.46625,158.9925 M232.73,161.81 L227.88924,160.78384 L227.46,160.545 L228.39,156.75 L232.73,159.97 M232.73,159.97 L228.39,156.75 L228.39,156.48167 L231.59334,156.08556 L234.04294,158.50882 M249.04375,159.28 L239.6275,159.28 L239.6365,159.22652 L245.18027,155.79892 L246.42166,156.16733 M64.61313,159.07875 L60.68,160.246 L60.68,157.67 L62.59345,154.83069 L63.785255,155.39339 M256.29,158.72144 L250.1218,160.02898 L250.09,159.97 L253.12,154.72452 L256.29,153.65546 M60.68,157.67 L57.58,157.67 L60.421665,153.45334 L61.787144,153.85857 L62.59345,154.83069 M250.09,159.97 L249.04375,159.28 L246.42166,156.16733 L249.86858,154.12143 L253.12,154.72452 M245.18027,155.79892 L239.6365,159.22652 L237.70706,155.28981 L240.28671,153.10248 L244.22067,154.197 M214.254,157.302 L207.11353,156.07944 L210.7,149.4271 L212.828,149.344 L215.184,151.092 M70.68,156.16386 L67.19,155.646 L67.19,150.50166 L70.52119,150.70763 L71.806786,151.14786 M81.76,154.91 L76.85636,153.09091 L75.76667,151.20444 L82.38,152.84 L82.655556,153.24889 M265.18314,154.2775 L260.01,152.08429 L263.16165,150.08 L265.3575,150.08 L265.9775,151.92 M82.38,152.84 L75.76667,151.20444 L75.50973,150.95027 L80.272,149.436 L81.674484,149.17586 M270.085,151.92 L265.9775,151.92 L265.3575,150.08 L266.02765,149.79588 L271.635,151.46 M248.3075,151.805 L245.91412,152.31235 L243.13594,149.56406 L244.045,149.275 L249.16,150.54 M240.08545,151.46 L233.97,151.46 L233.97,147.39667 L236.14,146.86 L240.79,149.54333 M249.16,150.54 L244.045,149.275 L247.27615,146.87769 L251.90297,148.40338 L251.91737,148.49422 M263.16165,150.08 L260.01,152.08429 L258.22562,152.27342 L259.7097,145.66687 L262.34607,146.44928 M80.272,149.436 L75.50973,150.95027 L73.96137,150.50844 L74.01,150.31 L75.87,146.17 M70.52119,150.70763 L67.19,150.50166 L66.43714,150.40857 L64.25174,147.49 L69.16273,145.66818 M74.01,150.31 L70.117775,144.53444 L70.476,143.87 L76.49,143.87 L75.87,146.17 M207.68607,148.0854 L199.77,150.53258 L202.7375,143.9275 L203.62263,143.45842 L206.61707,144.38412 M202.7375,143.9275 L199.77,150.53258 L165.04614,166.38664 L156.25221,168.38396 L146.2895,157.88776 M265.29068,145.96379 L262.34607,146.44928 L259.7097,145.66687 L256.6824,143.17126 L263.7018,142.42728 M265.29068,145.96379 L263.7018,142.42728 L264.97,141.8 L272.5791,144.62273 L267.67,146.14032 M224.0057,146.13715 L220.24142,143.34428 L219.60217,141.21 L219.67299,141.17178 L228.12,142.0671 M272.5791,144.62273 L264.97,141.8 L264.97,140.42 L300,140.42 L300,142.36223 M206.61707,144.38412 L203.62263,143.45842 L202.97,142.49 L205.76,139.385 L208.798,142.766 M256.00818,140.48273 L249.66077,139.30539 L251.06429,136.18143 L252.28696,136 L255.36,139.04 M243.94637,139.68819 L239.06778,136.67184 L242.43118,135.00824 L246.19286,137.10143 L245.66142,138.41571 M282.33,130.07 L261.7721,137.69632 L260.52908,135.23698 L260.6451,134.84952 L293.49,125.102 M204.39745,137.14116 L186.67897,133.38518 L200.41,132.45903 L204.94273,133.20636 L205.44452,136.92929 M260.52908,135.23698 L257.63333,135.66667 L253.94286,132.92857 L254.79391,124.72 L260.6451,134.84952 M221.97435,137.33 L217.50555,135.25778 L222.965,133.2325 L223.43,133.29 L222.5547,137.18648 M222.965,133.2325 L217.50555,135.25778 L214.49167,134.36333 L214.16747,131.95802 L218.55455,131.59636 M242.8893,119.877365 L238.5425,129.5525 L235.58888,131.11778 L234.9,131.22 L234.9,122.30227 M74.988945,130.84474 L68.46263,127.21316 L69.67,123.63 L70.29,123.17 L70.55572,123.17 M92.68,137.12581 L79.7742,131.23334 L79.86125,130.5875 L83.93,124.55 L87.65,125.93 M87.65,125.93 L83.93,124.55 L84.24,123.706665 L86.72,123.09333 L89.4121,123.31526 M222.19,124.32 L214.10048,125.82047 L213.44261,123.38 L218.24857,120.70571 L222.19,123.63 M210.66232,122.554886 L204.83,124.958885 L204.83,117.67875 L207.64124,117.287674 L210.26173,119.88 M204.30019,125.570366 L190.06549,125.01451 L204.22525,117.51049 L204.83,117.67875 L204.83,124.958885 M86.72,123.09333 L84.24,123.706665 L83.57231,123.04615 L84.86,120.18 L86.72,120.64 M84.86,120.18 L83.57231,123.04615 L81.09,121.730644 L80.25429,120.73857 L84.24,119.26 M217.50702,118.80489 L210.26173,119.88 L207.64124,117.287674 L208.04272,116.96 L215.33125,116.96 M57.89,118.11 L55.1,118.11 L53.86,116.27 L58.51,115.4075 L58.51,117.956665 M39.20779,117.68558 L32.50647,120.585884 L29.56077,115.668465 L33.71,112.59 L35.363335,113.20333 M112.174446,112.24926 L107.76737,116.60895 L105.207275,116.134094 L108.52333,109.98333 L110.13804,109.731125 M85.914,114.982 L80.45195,114.30659 L79.847755,113.79427 L83.244736,110.26579 L85.00091,110.917274 M209.26538,114.465385 L201.73,111.67 L201.73,111.67 L207.31,110.29 L210.6425,112.7625 M195.70714,113.06314 L179.01118,126.27629 L177.24683,126.91485 L187.45177,109.24824 L192.32666,111.05666 M69.49778,113.28 L59.791332,113.28 L58.174168,111.03031 L63.178234,106.85353 L71.02923,112.67846 M130.43,110.29 L126.09,110.29 L126.90579,108.47421 L131.29356,109.016785 L131.79765,109.95177 M207.31,110.29 L201.73,111.67 L202.48286,107.76 L203.59,107.76 L207.59181,109.244545 M105.41538,109.847694 L97.415,113.625 L97.26,113.556 L97.26,105.368 L99.76138,104.254486 M144.69,122.25 L131.79765,109.95177 L131.29356,109.016785 L132.16173,106.11828 L134.15,106.61 M191.98714,107.924286 L190.57,108.45 L187.20769,107.61846 L186.77118,106.808815 L190.51529,104.64823 M55.823334,108.68 L49.613,108.68 L49.485554,107.73444 L54.604713,104.69598 L54.633495,104.70747 M144.69,122.25 L134.15,106.61 L138.4125,106.61 L144.42429,112.557144 L147.17,124.78 M207.59181,109.244545 L203.59,107.76 L206.69,106.61 L207.10333,106.763336 L207.87608,108.77 M195.9795,109.899 L191.98714,107.924286 L190.51529,104.64823 L193.07214,102.27696 L196.43182,107.88545 M225.15715,111.37428 L223.12,106.84 L226.065,104.655 L227.19057,110.500656 L225.52904,111.29313 M213.86894,107.287895 L207.87608,108.77 L207.10333,106.763336 L210.73824,104.06647 L212.27681,104.68912 M223.12,106.84 L218.91286,106.84 L222.4317,102.27119 L226.42253,103.32867 L226.065,104.655 M54.604713,104.69598 L49.485554,107.73444 L44.33857,103.91572 L43.95442,102.30062 L51.872776,101.90896 M207.10333,106.763336 L206.69,106.61 L203.59,104.31 L210.06194,103.34965 L210.73824,104.06647 M144.42429,112.557144 L138.4125,106.61 L137.87,103.39 L144.33723,104.349655 L145.17714,108.08857 M88.89,105.23 L85.21429,102.50285 L85.221664,102.47 L88.89,102.47 L88.89,105.23 M218.49,107.11452 L216.57736,102.85737 L222.29585,102.150246 L222.4317,102.27119 L218.91286,106.84 M69.26312,105.31625 L63.199455,106.60164 L61.871563,104.30281 L66.776665,101.70333 L66.88,101.78 M210.06194,103.34965 L203.59,104.31 L202.39429,104.01428 L205.96269,98.71923 L209.49867,101.05121 M150.41966,103.53276 L146.178,102.746 L147.00308,100.60346 L150.82,99.895485 L153.49263,100.796814 M109.35,103.62 L100.21412,103.62 L99.79837,98.37619 L103.56333,98.17667 L109.35,102.47 M144.4575,104.0225 L141.13316,99.91175 L144.23174,98.89 L147.00308,100.60346 L146.178,102.746 M136.63,102.93 L133.81181,103.34818 L131.7177,100.24077 L131.94125,99.49438 L133.84,98.79 M30.92,103.528 L27.303333,105.67467 L19.605,103.39 L28.812,97.318 L30.92,98.1 M66.776665,101.70333 L61.871563,104.30281 L60.99,103.85 L59.699593,98.58431 L67.76408,98.04037 M38.15333,98.253334 L31.075,103.505 L30.92,103.528 L30.92,98.1 L37.74,98.1 M136.63,102.93 L133.84,98.79 L134.99281,98.05688 L139.4535,100.263245 L137.45667,102.93 M150.82,99.895485 L147.00308,100.60346 L144.23174,98.89 L145.75052,95.509476 L148.48154,95.84718 M91.894615,100.55923 L88.89,98.33 L88.58,96.26 L95.15,95.71838 L98.41545,97.53545 M126.35571,97.73857 L121.04143,100.36714 L120.155716,100.038574 L117.73,97.03903 L118.5725,94.85125 M139.4535,100.263245 L134.99281,98.05688 L135.4251,94.849625 L139.9137,96.84778 L140.59451,99.87845 M166.61545,98.53909 L158.95,99.25 L159.7587,96.25 L162.73889,95.365555 L166.886,94.926 M28.812,97.318 L19.605,103.39 L-3.645,103.39 L25.22077,93.87154 L28.524546,96.32273 M157.09,100.17 L155.90392,101.05 L154.71974,100.739914 L153.81285,96.03 L157.09,96.03 M192.34338,99.56118 L188.71,98.58091 L188.71,94.956665 L189.02,94.80334 L192.67474,96.61105 M57.27,95.11 L50.078,95.11 L50.004375,94.836876 L51.257877,93.53485 L55.498573,94.32143 M158.64,95.6275 L157.29666,95.87666 L156.26334,94.34333 L156.78,93.96 L158.64,94.42 M162.73889,95.365555 L159.7587,96.25 L158.64,95.6275 L158.64,94.42 L159.15666,94.03667 M118.62182,94.65 L109.08428,94.65 L109.252106,94.21421 L116.95909,92.30818 L118.87118,93.83595 M156.098,94.374 L153.51965,95.64931 L151.5255,94.5925 L152.05705,92.62059 L153.525,92.465 M162.73889,95.365555 L159.15666,94.03667 L160.14867,91.09267 L170.11,89.245 L166.886,94.926 M156.098,94.374 L153.525,92.465 L156.78,91.66 L156.78,93.96 L156.26334,94.34333 M70.237076,95.58683 L62.278946,91.829475 L62.695,89.36 L63.332222,87.46889 L71.78655,90.60517 M97.37273,90.53091 L93.7725,92.31167 L91.618,91.246 L94.16,89.36 L98.5,89.36 M137.16142,92.957855 L134.08112,90.10111 L138.2575,87.0025 L141.19426,87.50532 L140.37384,91.76615 M94.16,89.36 L91.618,91.246 L91.13086,91.11457 L92.08864,86.85091 L94.16,87.29 M98.5,89.36 L94.16,89.36 L94.16,87.29 L98.24167,87.29 L99.13824,88.88647 M138.2575,87.0025 L134.08112,90.10111 L128.31636,88.87909 L130.51086,87.07 L134.46,85.312 M105.01,86.37 L102.78529,89.67117 L101.247536,89.79794 L100.01353,89.15706 L104.08,86.14 M225.57732,90.43707 L219.4,90.15063 L219.4,86.1975 L222.01286,85.71286 L234.9,88.9 M234.9,88.9 L222.01286,85.71286 L224.90846,81.41615 L242.37445,87.085556 L244.36299,87.89701 M32.78,88.9 L28.336666,88.075836 L25.834862,84.82752 L26.124117,84.367645 L32.78,83.38 M34.36,89.48613 L32.78,88.9 L32.78,83.38 L33.586,82.782 L38.696957,88.47 M63.09261,85.78 L50.820217,86.53878 L55.327755,78.51245 L60.703133,80.96671 L63.303078,85.46769 M101.80666,84.45333 L98.612724,85.63818 L95.6325,82.69 L102.17571,82.69 L102.55385,83.34461 M72.89109,86.06812 L66.92769,84.45923 L69.847145,80.127144 L74.376366,81.24728 L73.52,85.69484 M32.78,83.38 L26.124117,84.367645 L27.096666,79.316666 L34.036316,81.89105 L33.586,82.782 M211.34,83.84 L202.05348,83.84 L195.14177,64.182526 L211.40889,79.7 L211.68445,81.54 M85.17,83.61 L81.39076,84.88452 L80.856384,83.932976 L82.259796,76.64429 L85.17,79.16333 M94.56185,79.98111 L87.65,83.058 L87.65,79.776665 L91.99,79.24 L94.72833,79.24 M217.85,81.54 L211.68445,81.54 L211.40889,79.7 L218.61092,79.7 L219.83,80.80548 M87.03,83.61 L85.17,83.61 L85.17,79.16333 L87.65,79.776665 L87.65,83.058 M66.92769,84.45923 L63.303078,85.46769 L60.703133,80.96671 L68.21435,76.19 L69.847145,80.127144 M44.046074,86.85196 L42.39,85.1625 L42.39,77.17 L45.893723,81.502556 L44.62155,86.693825 M38.53149,81.584045 L35.70589,81.20287 L27.67909,60.359093 L41.46,74.51615 L41.46,75.79 M45.893723,81.502556 L42.39,77.17 L41.46,75.79 L41.46,74.51615 L51.23449,76.74755 M91.99,79.24 L87.65,79.776665 L85.17,79.16333 L82.259796,76.64429 L81.66565,75.41 M242.37445,87.085556 L224.90846,81.41615 L223.45215,80.76786 L224.62105,76.43158 L227.336,75.928 M102.84,79.54667 L101.12826,79.97 L95.4,78.424545 L95.4,76.25 L102.84,76.25 M223.23273,75.05818 L217.664,77.124 L211.91724,71.64207 L222.5,73.605 L222.90118,73.82823 M227.336,75.928 L224.62105,76.43158 L223.23273,75.05818 L222.90118,73.82823 L234.28,68.2 M288.98578,94.40631 L260.94,52.79 L265.714,52.79 L300,68.68875 L300,94.59859 M263.1565,41.037 L257.88617,39.91979 L269.93872,32.467934 L276.00903,33.559757 L271.48,36.92 M97.09845,53.01028 L82.49625,31.3425 L83.152374,29.71983 L98.86345,36.713795 L111.3438,49.941822 M48.59,27.145 L44.03385,27.426697 L43.338234,22.781765 L46.93667,24.116667 L48.762222,26.825556 M86.255,26.455 L84.55,26.876667 L84.55,21.05 L85.583336,20.538889 L88.58,21.28 M84.55,26.876667 L82.71531,27.670713 L82.38,27.561874 L82.38,21.586666 L84.55,21.05 M74.165,24.768333 L65.905716,22.725714 L66.02261,20.730902 L69.21909,18.833637 L76.639114,20.48519 M40.633335,21.433332 L35.88,24.96 L35.88,19.44 L36.81,19.325 L39.206215,19.769459 M35.88,24.96 L34.527874,26.364468 L20.965555,24.687407 L33.09,19.44 L35.88,19.44 M118.0683,14.849769 L94.27136,24.658545 L92.114,23.258 L90.313705,21.254444 L117.48868,12.613553 M83.09118,18.344118 L77.794136,19.654139 L78.30231,15.883846 L81.538574,16.844286 L82.601425,17.435715 M35.88,19.44 L33.09,19.44 L33.09,17.6 L36.81,12.08 L36.81,19.325 M39.206215,19.769459 L36.81,19.325 L36.81,12.08 L40.673077,-0.8176923 L43.874874,14.227311 M33.09,17.6 L8.29,-10 L40.23107,-10 L40.673077,-0.8176923 L36.81,12.08 M83.10333,15.683333 L81.538574,16.844286 L78.30231,15.883846 L77.93667,15.07 L82.69,15.07 M84.34333,16.143333 L83.10333,15.683333 L82.69,15.07 L84.55,13.69 L85.733635,15.885454 M207.46603,20.831577 L147.83325,16.40721 L174.5275,-10 L214.21123,-10 L210.97163,11.403224 M63.78,14.6675 L60.631054,17.587894 L56.96,16.68 L49.768,-10 L63.78,-10 M76.56704,13.327989 L70.20913,16.63 L67.91054,13.901351 L64.33111,-10 L81.53158,-10 M43.26373,176.01839 L49.503685,220 L-10,220 L-10,162.46564 L23.25021,170.40524 L42.674595,175.61427 M58.997868,209.80083 L58.448,220 L49.503685,220 L43.26373,176.01839 L50.872128,179.33894 L51.643032,179.78833 M244.13902,199.73361 L250.24908,220 L203.218,220 L220.8498,187.29585 L221.25652,187.4201 L225.54187,189.26625 M232.87091,178.39091 L225.54187,189.26625 L221.25652,187.4201 L230.87,177.91 L232.1875,177.42125 L232.53625,177.52188 M245.75838,194.32703 L232.87091,178.39091 L232.53625,177.52188 L236.295,176.1275 L244.61783,185.39 L246.525,192.93666 M269.62,181.59 L265.26062,181.05093 L269.8832,172.47679 L270.14767,172.3329 L300,171.51259 L300,181.59 M269.8832,172.47679 L265.26062,181.05093 L256.81583,182.39354 L256.64108,178.76349 L256.9608,177.53008 L260.63,175.64539 M222.81898,178.76334 L216.38365,185.32841 L215.85522,185.25 L217.51183,174.18819 L217.54,174.15334 L223.25,175.56549 M246.68,176.53 L239.57953,173.89595 L239.82556,173.02888 L245.67,171.94484 L247.8545,172.68155 L247.02263,176.38474 M260.63,175.64539 L256.9608,177.53008 L253.65793,172.32274 L253.95244,171.33946 L257.1792,169.42421 L260.63,170.15572 M88.425,172.505 L84.55,169.63 L91.60846,164.39308 L105.29182,161.57303 L128.16989,162.4435 L108.16046,175.43349 M265.74878,169.61317 L260.63,170.15572 L257.1792,169.42421 L258.1395,167.04932 L260.08914,165.78362 L263.92578,166.63757 M84.55,169.63 L82.73325,169.82256 L82.38,168.25 L82.38,165.5411 L83.46651,164.82457 L91.60846,164.39308 M248.85,168.71 L246.64125,167.6175 L246.27136,165.9709 L248.71715,163.55142 L251.3989,165.5411 L251.826,168.71 M79.125,168.0775 L77.62666,168.63333 L74.94,168.34857 L74.94,168.02 L76.8,165.26 L81.234344,165.73 M257.1792,169.42421 L253.95244,171.33946 L251.826,168.71 L251.3989,165.5411 L254.17345,165.2838 L258.1395,167.04932 M74.038185,169.4 L67.5,169.4 L67.5,169.4 L72.15,165.95 L74.94,168.02 L74.94,168.34857 M74.94,168.02 L72.15,165.95 L70.18808,163.52397 L72.96077,160.69539 L76.18,163.88 L76.8,165.26 M258.1395,167.04932 L254.17345,165.2838 L255.05,164.41667 L257.64273,163.77545 L259.71347,164.39 L260.08914,165.78362 M214.60074,167.84962 L204.52,164.11 L214.87178,161.31714 L218.16,164.57 L218.26334,165.95 L218.02437,166.48187 M263.92578,166.63757 L260.08914,165.78362 L259.71347,164.39 L261.11716,161.61285 L261.29428,161.64572 L266.26636,163.85909 M228.7,166.64 L226.41727,165.6991 L224.58144,161.61285 L227.46,160.545 L227.88924,160.78384 L228.7,163.19 M91.60846,164.39308 L83.46651,164.82457 L81.79444,163.08778 L83.51667,157.97667 L101.6,160.66 L105.29182,161.57303 M70.18808,163.52397 L62.316513,166.70953 L66.0479,159.78842 L72.67927,159.17342 L73.00517,160.38242 L72.96077,160.69539 M66.0479,159.78842 L62.316513,166.70953 L58.03091,169.4 L51.048622,171.67938 L60.68,160.246 L64.61313,159.07875 M256.042,161.994 L255.05,162.11667 L250.05423,160.88115 L250.1218,160.02898 L256.29,158.72144 L258.71832,160.00833 M214.87178,161.31714 L204.52,164.11 L180.82715,164.11 L207.11353,156.07944 L214.254,157.302 L215.40445,158.15555 M264.46625,158.9925 L260.63,160.89 L259.514,160.062 L261.2266,157.09717 L262.76556,156.95444 L263.42,157.44 M60.68,160.246 L51.048622,171.67938 L42.674595,175.61427 L23.25021,170.40524 L57.58,157.67 L60.68,157.67 M267.9009,160.01183 L264.46625,158.9925 L263.42,157.44 L270.736,157.44 L277.50287,160.2292 L274.89,160.66 M258.71832,160.00833 L256.29,158.72144 L256.29,153.65546 L256.85095,153.20143 L261.2266,157.09717 L259.514,160.062 M249.86858,154.12143 L246.42166,156.16733 L245.18027,155.79892 L244.22067,154.197 L245.91412,152.31235 L248.3075,151.805 M67.19,155.646 L63.785255,155.39339 L62.59345,154.83069 L61.787144,153.85857 L66.43714,150.40857 L67.19,150.50166 M237.70706,155.28981 L234.51,154.6429 L233.69444,151.92 L233.97,151.46 L240.08545,151.46 L240.28671,153.10248 M207.11353,156.07944 L180.82715,164.11 L165.04614,166.38664 L199.77,150.53258 L207.68607,148.0854 L210.7,149.4271 M85.53636,152.71454 L82.655556,153.24889 L82.38,152.84 L81.674484,149.17586 L89.51,141.70143 L90.64667,141.34 M66.43714,150.40857 L61.787144,153.85857 L60.421665,153.45334 L39.7203,144.67671 L49.384033,141.47316 L64.25174,147.49 M271.635,151.46 L266.02765,149.79588 L267.67,146.14032 L272.5791,144.62273 L300,142.36223 L300,151.46 M265.3575,150.08 L263.16165,150.08 L262.34607,146.44928 L265.29068,145.96379 L267.67,146.14032 L266.02765,149.79588 M80.272,149.436 L75.87,146.17 L76.49,143.87 L78.51909,142.86636 L89.51,141.70143 L81.674484,149.17586 M247.27615,146.87769 L244.045,149.275 L243.13594,149.56406 L241.26692,149.42538 L242.34,147.435 L246.45857,145.90715 M71.806786,151.14786 L70.52119,150.70763 L69.16273,145.66818 L70.117775,144.53444 L74.01,150.31 L73.96137,150.50844 M220.24142,143.34428 L216.9747,146.57588 L215.06,146.86 L214.67706,145.4394 L216.37666,141.02591 L219.60217,141.21 M246.06,145.02 L242.34,143.64 L241.30058,142.86882 L243.84634,140.17056 L247.3775,141.7425 L248.54,143.18 M76.49,143.87 L70.476,143.87 L61.631107,136.5785 L62.3919,136.18922 L69.27545,134.86516 L78.51909,142.86636 M249.16,140.42 L247.3775,141.7425 L243.84634,140.17056 L243.94637,139.68819 L245.66142,138.41571 L249.16,139.454 M205.76,139.385 L202.97,142.49 L200.55888,140.70111 L204.39745,137.14116 L205.44452,136.92929 L205.76,137.06583 M208.798,142.766 L205.76,139.385 L205.76,137.06583 L212.394,137.476 L212.93,139.16612 L209.42018,142.5142 M264.97,140.42 L264.7512,139.85176 L282.33,130.07 L293.49,125.102 L300,122.526 L300,140.42 M249.66077,139.30539 L249.16,139.454 L245.66142,138.41571 L246.19286,137.10143 L247.796,135.912 L251.06429,136.18143 M204.39745,137.14116 L200.55888,140.70111 L160.26216,135.26518 L162.63747,133.22592 L164.99792,132.49152 L186.67897,133.38518 M246.19286,137.10143 L242.43118,135.00824 L242.55211,134.69421 L245.13,134.05667 L247.579,135.268 L247.796,135.912 M245.13,132.37 L242.154,132.922 L241.1,132.14 L247.61,127.31 L251.47308,125.71769 L248.85,129.61 M222.965,133.2325 L218.55455,131.59636 L225.67381,128.42714 L226.74883,129.62354 L225.4858,132.20053 L223.43,133.29 M69.27545,134.86516 L62.3919,136.18922 L64.11952,127.85762 L68.46263,127.21316 L74.988945,130.84474 L75.75727,131.65909 M247.61,127.31 L238.5425,129.5525 L242.8893,119.877365 L259.03452,113.62761 L254.594,123.23677 L251.47308,125.71769 M63.263332,125.776665 L54.927776,128.8689 L54.033024,126.213486 L55.785023,123.42805 L59.543335,122.55666 L61.816666,124.24333 M92.68,137.12581 L87.65,125.93 L89.4121,123.31526 L92.56231,123.081535 L101.13226,138.97742 L96.10102,138.91193 M234.0196,122.2132 L225.66739,128.41 L222.78094,126.07375 L222.19,124.32 L222.19,123.63 L228.97318,120.10713 M83.93,124.55 L79.86125,130.5875 L77.77276,125.42242 L81.09,121.730644 L83.57231,123.04615 L84.24,123.706665 M69.67,123.63 L63.47,125.93 L63.263332,125.776665 L61.816666,124.24333 L68.26091,121.85273 L70.29,123.17 M81.09,121.730644 L77.77276,125.42242 L75.94294,123.52177 L78.04,120.41 L79.25786,120.24571 L80.25429,120.73857 M68.26091,121.85273 L61.816666,124.24333 L59.543335,122.55666 L60.28143,121.461426 L65.21,119.26742 L66.26,119.87334 M89.4121,123.31526 L86.72,123.09333 L86.72,120.64 L88.58,119.26 L92.796,122.388 L92.56231,123.081535 M213.44261,123.38 L210.66232,122.554886 L210.26173,119.88 L217.50702,118.80489 L217.96146,119.00157 L218.24857,120.70571 M86.72,120.64 L84.86,120.18 L84.24,119.26 L84.82125,117.96625 L87.64061,116.47212 L88.58,119.26 M228.97318,120.10713 L222.19,123.63 L218.24857,120.70571 L217.96146,119.00157 L222.5,115.971 L228.44254,119.05729 M92.796,122.388 L88.58,119.26 L87.64061,116.47212 L87.72137,116.31633 L89.5951,115.674706 L94.356125,120.97327 M84.24,119.26 L80.25429,120.73857 L79.25786,120.24571 L79.96643,118.14286 L80.83,117.374 L84.82125,117.96625 M123.92,143.18 L105.43072,123.975 L103.97384,116.40863 L105.207275,116.134094 L107.76737,116.60895 L114.79222,122.863335 M32.50647,120.585884 L12.390932,150.43474 L-10,160.04205 L-10,126.55428 L25.102093,115.39279 L29.56077,115.668465 M55.1,119.145 L53.180637,121.28107 L46.006668,117.893936 L47.05348,116.27 L53.86,116.27 L55.1,118.11 M78.04,120.41 L73.7,118.8 L73.39,118.11 L73.03811,114.71594 L79.96643,118.14286 L79.25786,120.24571 M204.22525,117.51049 L190.06549,125.01451 L179.01118,126.27629 L195.70714,113.06314 L196.2604,112.81685 L199.28493,113.03056 M65.21,119.26742 L60.28143,121.461426 L58.51,117.956665 L58.51,115.4075 L59.32579,114.575264 L65.24143,118.96429 M84.82125,117.96625 L80.83,117.374 L80.83,116.27 L87.65,116.27 L87.72137,116.31633 L87.64061,116.47212 M215.33125,116.96 L208.04272,116.96 L209.26538,114.465385 L210.6425,112.7625 L210.9282,112.713585 L215.02556,115.14555 M105.207275,116.134094 L103.97384,116.40863 L98.19717,114.85011 L97.415,113.625 L105.41538,109.847694 L108.52333,109.98333 M125.625,113.51 L118.65,113.51 L118.402,113.326 L123.07,111.0171 L124.99762,111.91095 L125.19444,112.23222 M217.9275,112.9925 L213.52051,111.03068 L214.8043,107.85569 L217.94789,107.689095 L222.748,112.268 L222.5,112.615555 M42.482456,110.18509 L35.363335,113.20333 L33.71,112.59 L32.03,109.47387 L36.138332,107.645 L42.253025,109.5893 M97.26,113.556 L93.54,113.28 L91.08314,111.052086 L91.37,110.52 L94.92,105.25226 L97.26,105.368 M89.77708,110.52354 L85.00091,110.917274 L83.244736,110.26579 L81.6952,107.50661 L83.68929,106.29612 L88.545555,107.325554 M192.32666,111.05666 L190.57,108.45 L191.98714,107.924286 L195.9795,109.899 L196.2604,112.81685 L195.70714,113.06314 M91.08314,111.052086 L89.77708,110.52354 L88.545555,107.325554 L90.13,106.15 L91.37,105.755714 L91.37,110.52 M222.748,112.268 L217.94789,107.689095 L218.49,107.11452 L218.91286,106.84 L223.12,106.84 L225.15715,111.37428 M131.29356,109.016785 L126.90579,108.47421 L126.09,107.415 L130.56778,104.92333 L131.68706,105.14982 L132.16173,106.11828 M42.253025,109.5893 L36.138332,107.645 L37.683636,104.20545 L42.50421,101.34421 L43.95442,102.30062 L44.33857,103.91572 M88.545555,107.325554 L83.68929,106.29612 L84.211815,105.23 L88.89,105.23 L88.89,105.23 L90.13,106.15 M130.56778,104.92333 L126.09,107.415 L123.052,106.288 L124.46459,102.44514 L125.67667,102.316666 L130.43,104.83572 M90.13,106.15 L88.89,105.23 L88.89,102.47 L91.19897,102.279655 L93.507935,104.84931 L91.37,105.755714 M163.52518,128.69794 L156.98666,109.293335 L156.17046,101.420784 L167.63,103.85 L168.30438,115.35807 L167.21666,119.79667 M150.27,104.31 L145.17714,108.08857 L144.33723,104.349655 L144.4575,104.0225 L146.178,102.746 L150.41966,103.53276 M180.65,102.27286 L168.30438,115.35807 L167.63,103.85 L168.42181,101.79385 L179.39398,99.28904 L180.65,102.24 M77.73,106.955 L74.23143,108.25285 L71.4546,105.67757 L71.902,103.022 L75.32209,98.5814 L77.73,99.296 M117.20333,106.916664 L111.53824,107.75729 L110.100525,104.343895 L111.21,103.85 L115.86,102.7 L117.91375,102.7 M131.68706,105.14982 L130.56778,104.92333 L130.43,104.83572 L130.43,100.814 L131.7177,100.24077 L133.81181,103.34818 M37.683636,104.20545 L31.075,103.505 L38.15333,98.253334 L40.56,98.72323 L42.023636,100.27454 L42.50421,101.34421 M215.58107,102.64617 L212.27681,104.68912 L210.73824,104.06647 L210.06194,103.34965 L209.49867,101.05121 L214.94077,99.32077 M115.86,102.7 L114.31,101.55 L116.12231,97.51615 L117.73,97.03903 L120.155716,100.038574 L117.91375,102.7 M202.26913,104.05 L194.52846,101.17846 L198.61368,98.753685 L205.06134,96.579254 L205.96269,98.71923 L202.39429,104.01428 M88.89,102.47 L85.221664,102.47 L84.51737,101.57421 L88.89,98.33 L91.894615,100.55923 L91.19897,102.279655 M130.43,100.814 L125.88333,102.16333 L128.43521,97.43 L128.51761,97.37761 L131.94125,99.49438 L131.7177,100.24077 M226.42253,103.32867 L222.4317,102.27119 L222.29585,102.150246 L220.88287,98.74312 L222.53065,97.38473 L265.9547,94.16294 M125.88333,102.16333 L125.67667,102.316666 L124.46459,102.44514 L121.04143,100.36714 L126.35571,97.73857 L128.43521,97.43 M51.872776,101.90896 L43.95442,102.30062 L42.50421,101.34421 L42.023636,100.27454 L50.22719,96.21687 L54.307777,98.811905 M88.89,98.33 L84.51737,101.57421 L79.85663,99.059326 L83.95818,95.34 L87.03,95.34 L88.58,96.26 M144.23174,98.89 L141.13316,99.91175 L140.59451,99.87845 L139.9137,96.84778 L144.4455,94.32606 L145.75052,95.509476 M158.95,99.25 L157.09,100.17 L157.09,96.03 L157.29666,95.87666 L158.64,95.6275 L159.7587,96.25 M50.22719,96.21687 L42.023636,100.27454 L40.56,98.72323 L43.268333,92.695 L50.004375,94.836876 L50.078,95.11 M157.09,96.03 L153.81285,96.03 L153.51965,95.64931 L156.098,94.374 L156.26334,94.34333 L157.29666,95.87666 M54.307777,98.811905 L50.22719,96.21687 L50.078,95.11 L57.27,95.11 L58.209393,95.45849 L58.026512,97.62945 M37.74,98.1 L30.92,98.1 L28.812,97.318 L28.524546,96.32273 L32.728333,92.58 L33.6325,92.005 M158.64,94.42 L156.78,93.96 L156.78,91.66 L157.76167,90.93166 L160.14867,91.09267 L159.15666,94.03667 M108.11,96.33667 L104.95,93.21065 L105.807144,92.41572 L109.12454,93.64636 L109.252106,94.21421 L109.08428,94.65 M116.95909,92.30818 L109.252106,94.21421 L109.12454,93.64636 L110.452225,88.72111 L111.76985,87.83239 L112.742775,87.61584 M98.41545,97.53545 L95.15,95.71838 L93.7725,92.31167 L97.37273,90.53091 L99.774445,95.87666 L98.81,97.594 M55.498573,94.32143 L52,89.13 L52.62,89.36 L59.98981,93.00528 L58.209393,95.45849 L57.27,95.11 M80.564285,90.47057 L73.1507,97.07105 L70.6,96.26 L70.237076,95.58683 L71.78655,90.60517 L73.2639,89.38729 M87.03,95.34 L83.95818,95.34 L80.93054,90.39811 L82.28171,88.894394 L85.83428,89.097145 L89.76363,91.28364 M195.73666,92.58 L188.586,92.58 L184.63571,90.13762 L193.03177,88.06118 L198.72829,89.646095 L195.81615,92.526924 M104.95,93.21065 L101.877365,93.536316 L101.247536,89.79794 L102.78529,89.67117 L106.87,90.05 L105.807144,92.41572 M216.47311,91.63909 L210.15471,94.920586 L205.6191,95.13091 L202.288,90.188 L212.38054,88.14581 L216.89055,91.15733 M149.65,89.406 L144.349,94.1256 L140.37384,91.76615 L141.19426,87.50532 L144.52055,85.69553 L149.65,87.83625 M91.13086,91.11457 L89.76363,91.28364 L85.83428,89.097145 L88.89,86.83 L92.0675,86.83 L92.08864,86.85091 M126.07652,91.46 L118.87118,93.83595 L116.95909,92.30818 L112.742775,87.61584 L117.897835,79.583916 L127.02,89.36 M160.14867,91.09267 L157.76167,90.93166 L153.69746,86.710144 L171.27472,71.29782 L173.4157,86.54712 L170.11,89.245 M106.87,90.05 L102.78529,89.67117 L105.01,86.37 L107.335,86.37 L111.76985,87.83239 L110.452225,88.72111 M104.08,86.14 L100.01353,89.15706 L99.13824,88.88647 L98.24167,87.29 L98.612724,85.63818 L101.80666,84.45333 M193.03177,88.06118 L184.63571,90.13762 L177.69835,89.85167 L173.4157,86.54712 L171.27472,71.29782 L173.78513,52.361774 M105.01,86.37 L104.08,86.14 L101.80666,84.45333 L102.55385,83.34461 L105.113335,83.07333 L107.335,86.37 M222.01286,85.71286 L219.4,86.1975 L218.81444,85.22 L220.10417,80.91397 L223.45215,80.76786 L224.90846,81.41615 M218.81444,85.22 L212.70917,85.22 L212.35857,84.59571 L217.85,81.54 L219.83,80.80548 L220.10417,80.91397 M138.2575,87.0025 L134.46,85.312 L134.46,84.645 L142.2951,52.672745 L144.52055,85.69553 L141.19426,87.50532 M92.42212,84.72515 L87.236664,83.763336 L87.03,83.61 L87.65,83.058 L94.56185,79.98111 L94.94371,82.10596 M80.856384,83.932976 L78.66,82.575 L78.66,76.0775 L80.33098,73.28805 L81.66565,75.41 L82.259796,76.64429 M34.036316,81.89105 L27.096666,79.316666 L20.440138,58.327126 L26.187428,58.51456 L27.67909,60.359093 L35.70589,81.20287 M218.61092,79.7 L211.40889,79.7 L195.14177,64.182526 L193.8411,61.80709 L211.91724,71.64207 L217.664,77.124 M68.21435,76.19 L60.703133,80.96671 L55.327755,78.51245 L54.242554,76.49957 L66.571785,56.375088 L72.37153,56.65572 M105.532104,79.32474 L103.35667,76.096664 L126.627335,58.831333 L120.9798,72.690926 L117.96016,78.01182 L109.744545,79.637276 M234.28,68.2 L222.90118,73.82823 L222.5,73.605 L222.5,45.606922 L237.26323,56.98157 L241.57,62.79129 M265.714,52.79 L260.94,52.79 L258.7,51.959034 L262.8942,46.624474 L264.11914,46.37202 L267.2121,47.23256 M258.7,51.959034 L237.26323,56.98157 L222.5,45.606922 L211.03,36.115 L251.14,41.07484 L262.8942,46.624474 M262.8942,46.624474 L251.14,41.07484 L257.88617,39.91979 L263.1565,41.037 L264.2422,45.87 L264.11914,46.37202 M47.95727,54.051556 L38.499065,34.402897 L41.88216,31.664673 L44.958572,32.615715 L49.898888,36.281113 L51.144993,53.847168 M74.45,39.21258 L67.51632,32.59842 L66.80422,30.485111 L67.95308,29.1 L74.77308,29.1 L75.91325,34.598606 M34.95,34.07375 L-10,40.326874 L-10,27.750668 L20.965555,24.687407 L34.527874,26.364468 L34.95,26.605385 M38.499065,34.402897 L34.95,34.07375 L34.95,26.605385 L35.24652,26.69 L41.69464,29.299503 L41.88216,31.664673 M74.77308,29.1 L67.95308,29.1 L65.53667,23.273333 L65.905716,22.725714 L74.165,24.768333 L76.39944,27.53135 M43.77762,27.599524 L40.116665,24.883333 L42.08,21.97 L43.104576,22.203897 L43.338234,22.781765 L44.03385,27.426697 M92.114,23.258 L87.54667,26.646667 L86.255,26.455 L88.58,21.28 L89.96091,21.133636 L90.313705,21.254444 M269.93872,32.467934 L210.97163,11.403224 L214.21123,-10 L300,-10 L300,33.135952 L276.00903,33.559757 M57.712856,27.818571 L51.69,23.35 L51.69,20.59 L51.73825,20.088833 L52.93,19.67 L60.37,25.19 M51.69,20.59 L46.93667,24.116667 L43.338234,22.781765 L43.104576,22.203897 L49.08443,19.541899 L51.73825,20.088833 M79.28,27.130625 L76.39944,27.53135 L74.165,24.768333 L76.639114,20.48519 L77.481026,20.292992 L79.28,21.331112 M49.08443,19.541899 L43.104576,22.203897 L42.08,21.97 L40.633335,21.433332 L39.206215,19.769459 L43.874874,14.227311 M117.48868,12.613553 L90.313705,21.254444 L89.96091,21.133636 L90.29316,19.16158 L97.818,9.856667 L115.21279,-4.483127 M85.20263,19.597368 L83.09118,18.344118 L82.601425,17.435715 L84.34333,16.143333 L85.733635,15.885454 L86.663635,16.345455 M33.09,19.44 L20.965555,24.687407 L-10,27.750668 L-10,-10 L8.29,-10 L33.09,17.6 M66.02261,20.730902 L60.631054,17.587894 L63.78,14.6675 L67.91054,13.901351 L70.20913,16.63 L69.21909,18.833637 M82.69,15.07 L77.93667,15.07 L76.56704,13.327989 L81.53158,-10 L84.55,-10 L84.55,13.69 M220.8498,187.29585 L203.218,220 L162.60237,220 L164.23819,186.6239 L169.35045,186.09155 L215.85522,185.25 L216.38365,185.32841 M83.31,175.84 L77.11,178.14 L76.49,178.21666 L76.49,177.68 L79.46318,173.26819 L80.92185,172.93518 L81.55334,173.23334 M76.49,178.21666 L71.74366,186.43344 L65.97674,185.6374 L51.643032,179.78833 L50.872128,179.33894 L72.50895,173.9879 L76.49,177.68 M97.590775,180.72217 L84.44218,176.82 L83.31,175.84 L81.55334,173.23334 L88.425,172.505 L108.16046,175.43349 L107.625946,175.89268 M223.25,175.56549 L217.54,174.15334 L217.54,173.50166 L221.27348,170.27 L224.05,170.90384 L227.36153,171.84882 L227.37622,172.06676 M88.425,172.505 L81.55334,173.23334 L80.92185,172.93518 L81.30692,171.36385 L82.26077,170.23154 L82.73325,169.82256 L84.55,169.63 M79.46318,173.26819 L74.90793,171.7661 L74.038185,169.4 L74.94,168.34857 L77.62666,168.63333 L81.30692,171.36385 L80.92185,172.93518 M253.65793,172.32274 L247.8545,172.68155 L245.67,171.94484 L245.83858,170.94429 L248.85,168.71 L251.826,168.71 L253.95244,171.33946 M245.67,171.94484 L239.82556,173.02888 L239.55,172.62 L239.55,169.4 L242.5725,167.905 L245.47874,169.3425 L245.83858,170.94429 M237.51897,167.13965 L230.15974,167.74632 L230.14667,167.71333 L233.195,163.19 L233.73154,162.55307 L238.97035,162.22917 L239.07307,163.29616 M246.27136,165.9709 L243.47667,166.56334 L239.07307,163.29616 L238.97035,162.22917 L239.4058,161.7886 L248.62317,163.15634 L248.71715,163.55142 M224.05,165.95 L218.26334,165.95 L218.16,164.57 L223.54625,161.57281 L223.74,161.56084 L224.58144,161.61285 L226.41727,165.6991 M81.234344,165.73 L76.8,165.26 L76.18,163.88 L80.83,162.73 L81.79444,163.08778 L83.46651,164.82457 L82.38,165.5411 M254.17345,165.2838 L251.3989,165.5411 L248.71715,163.55142 L248.62317,163.15634 L250.05423,160.88115 L255.05,162.11667 L255.05,164.41667 M259.71347,164.39 L257.64273,163.77545 L256.042,161.994 L258.71832,160.00833 L259.514,160.062 L260.63,160.89 L261.11716,161.61285 M83.51667,157.97667 L79.23572,161.15286 L73.00517,160.38242 L72.67927,159.17342 L72.75893,158.86313 L75.63604,157.61792 L81.76,156.79182 M238.97035,162.22917 L233.73154,162.55307 L232.73,161.81 L232.73,159.97 L234.04294,158.50882 L239.60046,159.33348 L239.4058,161.7886 M72.67927,159.17342 L66.0479,159.78842 L64.61313,159.07875 L63.785255,155.39339 L67.19,155.646 L70.68,156.16386 L72.75893,158.86313 M239.60046,159.33348 L234.04294,158.50882 L231.59334,156.08556 L234.51,154.6429 L237.70706,155.28981 L239.6365,159.22652 L239.6275,159.28 M101.6,160.66 L83.51667,157.97667 L83.51667,157.97667 L81.76,156.79182 L81.76,154.91 L82.655556,153.24889 L85.53636,152.71454 M219.03232,157.3865 L215.40445,158.15555 L214.254,157.302 L215.184,151.092 L222.57256,152.00565 L223.9058,154.10768 L223.74,154.243 M231.59334,156.08556 L228.39,156.48167 L225.46715,154.4938 L226.375,153.9325 L231.8,151.92 L233.69444,151.92 L234.51,154.6429 M244.22067,154.197 L240.28671,153.10248 L240.08545,151.46 L240.79,149.54333 L241.26692,149.42538 L243.13594,149.56406 L245.91412,152.31235 M231.8,151.92 L229.63,150.31 L229.63,148.24 L232.62218,147.13 L233.97,147.39667 L233.97,151.46 L233.69444,151.92 M229.63,150.31 L226.375,153.9325 L225.46715,154.4938 L223.9058,154.10768 L222.57256,152.00565 L223.926,148.24 L229.63,148.24 M222.57256,152.00565 L215.184,151.092 L212.828,149.344 L215.06,146.86 L216.9747,146.57588 L223.81,148.02484 L223.926,148.24 M241.26692,149.42538 L240.79,149.54333 L236.14,146.86 L238.65321,143.1307 L241.30058,142.86882 L242.34,143.64 L242.34,147.435 M229.63,148.24 L223.926,148.24 L223.81,148.02484 L224.0057,146.13715 L228.12,142.0671 L228.66737,141.84842 L232.62218,147.13 M251.90297,148.40338 L247.27615,146.87769 L246.45857,145.90715 L246.06,145.02 L248.54,143.18 L252.88,143.18 L255.42027,143.55695 M69.16273,145.66818 L64.25174,147.49 L49.384033,141.47316 L56.314865,137.61649 L61.631107,136.5785 L70.476,143.87 L70.117775,144.53444 M233.97,147.39667 L232.62218,147.13 L228.66737,141.84842 L230.80112,138.68222 L232.65144,138.18301 L238.65321,143.1307 L236.14,146.86 M228.12,142.0671 L219.67299,141.17178 L221.97435,137.33 L222.5547,137.18648 L229.475,138.12 L230.80112,138.68222 L228.66737,141.84842 M241.30058,142.86882 L238.65321,143.1307 L232.65144,138.18301 L234.40318,136.38345 L239.06778,136.67184 L243.94637,139.68819 L243.84634,140.17056 M261.56,138.27333 L256.56595,141.1552 L256.00818,140.48273 L255.36,139.04 L257.63333,135.66667 L260.52908,135.23698 L261.7721,137.69632 M229.475,138.12 L225.4858,132.20053 L226.74883,129.62354 L234.76222,131.32222 L234.40318,136.38345 L232.65144,138.18301 L230.80112,138.68222 M225.67381,128.42714 L218.55455,131.59636 L214.16747,131.95802 L212.91214,130.34929 L213.02478,130.21 L222.78094,126.07375 L225.66739,128.41 M61.631107,136.5785 L56.314865,137.61649 L54.927776,128.8689 L63.263332,125.776665 L63.47,125.93 L64.11952,127.85762 L62.3919,136.18922 M234.76222,131.32222 L226.74883,129.62354 L225.67381,128.42714 L225.66739,128.41 L234.0196,122.2132 L234.9,122.30227 L234.9,131.22 M51.194,126.022 L44.303913,120.91 L44.779846,118.555916 L46.006668,117.893936 L53.180637,121.28107 L55.785023,123.42805 L54.033024,126.213486 M39.003845,129.89813 L21.45913,147.56412 L12.390932,150.43474 L32.50647,120.585884 L39.20779,117.68558 L44.779846,118.555916 L44.303913,120.91 M70.29,123.17 L68.26091,121.85273 L66.26,119.87334 L73.39,118.11 L73.7,118.8 L70.83706,123.04823 L70.55572,123.17 M59.543335,122.55666 L55.785023,123.42805 L53.180637,121.28107 L55.1,119.145 L57.89,118.11 L58.51,117.956665 L60.28143,121.461426 M94.356125,120.97327 L89.5951,115.674706 L93.54,113.28 L97.26,113.556 L97.415,113.625 L98.19717,114.85011 L97.391075,119.33564 M79.96643,118.14286 L73.03811,114.71594 L72.54455,113.34273 L79.847755,113.79427 L80.45195,114.30659 L80.83,116.27 L80.83,117.374 M217.96146,119.00157 L217.50702,118.80489 L215.33125,116.96 L215.02556,115.14555 L217.9275,112.9925 L222.5,112.615555 L222.5,115.971 M228.44254,119.05729 L222.5,115.971 L222.5,112.615555 L222.748,112.268 L225.15715,111.37428 L225.52904,111.29313 L230.27884,115.99186 M207.64124,117.287674 L204.83,117.67875 L204.22525,117.51049 L199.28493,113.03056 L201.73,111.67 L209.26538,114.465385 L208.04272,116.96 M44.779846,118.555916 L39.20779,117.68558 L35.363335,113.20333 L42.482456,110.18509 L47.379524,113.4881 L47.05348,116.27 L46.006668,117.893936 M29.56077,115.668465 L25.102093,115.39279 L26.624287,111.44 L27.332857,110.52 L29.676266,108.49157 L32.03,109.47387 L33.71,112.59 M79.847755,113.79427 L72.54455,113.34273 L71.60154,112.643074 L74.23143,108.25285 L77.73,106.955 L81.6952,107.50661 L83.244736,110.26579 M27.332857,110.52 L-10,110.52 L-10,103.886314 L-3.645,103.39 L19.605,103.39 L27.303333,105.67467 L29.676266,108.49157 M47.379524,113.4881 L42.482456,110.18509 L42.253025,109.5893 L44.33857,103.91572 L49.485554,107.73444 L49.613,108.68 L47.79286,113.18143 M71.02923,112.67846 L63.178234,106.85353 L63.199455,106.60164 L69.26312,105.31625 L71.4546,105.67757 L74.23143,108.25285 L71.60154,112.643074 M206.69,106.61 L203.59,107.76 L202.48286,107.76 L201.4747,106.01471 L202.26913,104.05 L202.39429,104.01428 L203.59,104.31 M36.138332,107.645 L32.03,109.47387 L29.676266,108.49157 L27.303333,105.67467 L30.92,103.528 L31.075,103.505 L37.683636,104.20545 M201.4747,106.01471 L196.43182,107.88545 L193.07214,102.27696 L193.08263,102.24 L193.77629,101.26217 L194.52846,101.17846 L202.26913,104.05 M156.98666,109.293335 L150.27,104.31 L150.41966,103.53276 L153.49263,100.796814 L154.71974,100.739914 L155.90392,101.05 L156.17046,101.420784 M217.94789,107.689095 L214.8043,107.85569 L213.86894,107.287895 L212.27681,104.68912 L215.58107,102.64617 L216.57736,102.85737 L218.49,107.11452 M123.052,106.288 L120.096664,107.683334 L117.20333,106.916664 L117.91375,102.7 L120.155716,100.038574 L121.04143,100.36714 L124.46459,102.44514 M186.77118,106.808815 L185.10625,106.52375 L180.65,102.27286 L180.65,102.24 L193.08263,102.24 L193.07214,102.27696 L190.51529,104.64823 M144.33723,104.349655 L137.87,103.39 L137.45667,102.93 L139.4535,100.263245 L140.59451,99.87845 L141.13316,99.91175 L144.4575,104.0225 M71.902,103.022 L66.88,101.78 L66.776665,101.70333 L67.76408,98.04037 L70.6,96.26 L73.1507,97.07105 L75.32209,98.5814 M60.99,103.85 L54.633495,104.70747 L54.604713,104.69598 L51.872776,101.90896 L54.307777,98.811905 L58.026512,97.62945 L59.699593,98.58431 M114.31,101.55 L111.21,103.85 L110.100525,104.343895 L109.35,103.62 L109.35,102.47 L111.917015,98.18474 L116.12231,97.51615 M222.29585,102.150246 L216.57736,102.85737 L215.58107,102.64617 L214.94077,99.32077 L215.37,98.79 L217.73727,98.204544 L220.88287,98.74312 M167.63,103.85 L156.17046,101.420784 L155.90392,101.05 L157.09,100.17 L158.95,99.25 L166.61545,98.53909 L168.42181,101.79385 M214.94077,99.32077 L209.49867,101.05121 L205.96269,98.71923 L205.06134,96.579254 L205.6191,95.13091 L210.15471,94.920586 L215.37,98.79 M133.84,98.79 L131.94125,99.49438 L128.51761,97.37761 L128.93552,93.966866 L135.39,94.765 L135.4251,94.849625 L134.99281,98.05688 M153.49263,100.796814 L150.82,99.895485 L148.48154,95.84718 L151.5255,94.5925 L153.51965,95.64931 L153.81285,96.03 L154.71974,100.739914 M198.61368,98.753685 L195.81615,92.526924 L198.72829,89.646095 L200.77806,89.281105 L202.288,90.188 L205.6191,95.13091 L205.06134,96.579254 M144.4455,94.32606 L139.9137,96.84778 L135.4251,94.849625 L135.39,94.765 L137.16142,92.957855 L140.37384,91.76615 L144.349,94.1256 M220.88287,98.74312 L217.73727,98.204544 L216.47311,91.63909 L216.89055,91.15733 L217.0733,91.12165 L222.3787,96.37 L222.53065,97.38473 M265.9547,94.16294 L222.53065,97.38473 L222.3787,96.37 L225.57732,90.43707 L234.9,88.9 L244.36299,87.89701 L275.89236,92.46146 M79.85663,99.059326 L77.73,99.296 L75.32209,98.5814 L73.1507,97.07105 L80.564285,90.47057 L80.93054,90.39811 L83.95818,95.34 M95.15,95.71838 L88.58,96.26 L87.03,95.34 L89.76363,91.28364 L91.13086,91.11457 L91.618,91.246 L93.7725,92.31167 M151.5255,94.5925 L148.48154,95.84718 L145.75052,95.509476 L144.4455,94.32606 L144.349,94.1256 L149.65,89.406 L152.05705,92.62059 M25.22077,93.87154 L-3.645,103.39 L-10,103.886314 L-10,86.072914 L-3.4423077,86.27564 L25.187925,90.99604 L25.365833,92.58 M99.774445,95.87666 L97.37273,90.53091 L98.5,89.36 L99.13824,88.88647 L100.01353,89.15706 L101.247536,89.79794 L101.877365,93.536316 M32.728333,92.58 L25.365833,92.58 L25.187925,90.99604 L28.336666,88.075836 L32.78,88.9 L34.36,89.48613 L33.6325,92.005 M135.39,94.765 L128.93552,93.966866 L126.07652,91.46 L127.02,89.36 L128.31636,88.87909 L134.08112,90.10111 L137.16142,92.957855 M156.78,91.66 L153.525,92.465 L152.05705,92.62059 L149.65,89.406 L149.65,87.83625 L153.69746,86.710144 L157.76167,90.93166 M71.78655,90.60517 L63.332222,87.46889 L63.09261,85.78 L63.303078,85.46769 L66.92769,84.45923 L72.89109,86.06812 L73.2639,89.38729 M80.564285,90.47057 L73.2639,89.38729 L72.89109,86.06812 L73.52,85.69484 L81.310814,85.05258 L82.28171,88.894394 L80.93054,90.39811 M216.89055,91.15733 L212.38054,88.14581 L212.70917,85.22 L218.81444,85.22 L219.4,86.1975 L219.4,90.15063 L217.0733,91.12165 M212.38054,88.14581 L202.288,90.188 L200.77806,89.281105 L202.05348,83.84 L211.34,83.84 L212.35857,84.59571 L212.70917,85.22 M128.31636,88.87909 L127.02,89.36 L117.897835,79.583916 L117.96016,78.01182 L120.9798,72.690926 L129.01286,82.62428 L130.51086,87.07 M107.335,86.37 L105.113335,83.07333 L109.744545,79.637276 L117.96016,78.01182 L117.897835,79.583916 L112.742775,87.61584 L111.76985,87.83239 M81.310814,85.05258 L73.52,85.69484 L74.376366,81.24728 L74.76778,81.13111 L78.66,82.575 L80.856384,83.932976 L81.39076,84.88452 M134.46,84.645 L129.01286,82.62428 L120.9798,72.690926 L126.627335,58.831333 L131.30055,49.245457 L142.36197,51.134804 L142.2951,52.672745 M102.17571,82.69 L95.6325,82.69 L94.94371,82.10596 L94.56185,79.98111 L94.72833,79.24 L95.4,78.424545 L101.12826,79.97 M25.834862,84.82752 L-3.4423077,86.27564 L-10,86.072914 L-10,53.334736 L20.440138,58.327126 L27.096666,79.316666 L26.124117,84.367645 M105.113335,83.07333 L102.55385,83.34461 L102.17571,82.69 L101.12826,79.97 L102.84,79.54667 L105.532104,79.32474 L109.744545,79.637276 M50.2524,86.86094 L44.62155,86.693825 L45.893723,81.502556 L51.23449,76.74755 L54.242554,76.49957 L55.327755,78.51245 L50.820217,86.53878 M223.45215,80.76786 L220.10417,80.91397 L219.83,80.80548 L218.61092,79.7 L217.664,77.124 L223.23273,75.05818 L224.62105,76.43158 M242.37445,87.085556 L227.336,75.928 L234.28,68.2 L241.57,62.79129 L275.9634,92.46303 L275.89236,92.46146 L244.36299,87.89701 M222.5,73.605 L211.91724,71.64207 L193.8411,61.80709 L181.99762,48.312614 L204.20247,31.982552 L211.03,36.115 L222.5,45.606922 M275.9634,92.46303 L241.57,62.79129 L237.26323,56.98157 L258.7,51.959034 L260.94,52.79 L288.98578,94.40631 L281.6889,94.471146 M267.2121,47.23256 L264.11914,46.37202 L264.2422,45.87 L271.48,36.92 L276.00903,33.559757 L300,33.135952 L300,48.66353 M47.95727,54.051556 L26.187428,58.51456 L20.440138,58.327126 L-10,53.334736 L-10,40.326874 L34.95,34.07375 L38.499065,34.402897 M269.93872,32.467934 L257.88617,39.91979 L251.14,41.07484 L211.03,36.115 L204.20247,31.982552 L207.46603,20.831577 L210.97163,11.403224 M66.571785,56.375088 L60.68,54.88244 L60.68,36.4025 L67.51632,32.59842 L74.45,39.21258 L77.08826,56.176838 L72.37153,56.65572 M60.68,54.88244 L51.144993,53.847168 L49.898888,36.281113 L54.779312,30.591034 L56.969208,30.163465 L58.45939,31.047958 L60.68,36.4025 M88.95937,55.22446 L77.45418,56.212852 L77.08826,56.176838 L74.45,39.21258 L75.91325,34.598606 L82.49625,31.3425 L97.09845,53.01028 M51.07,29.215 L44.958572,32.615715 L41.88216,31.664673 L41.69464,29.299503 L43.77762,27.599524 L44.03385,27.426697 L48.59,27.145 M95.958,32.642 L82.74167,27.739166 L82.71531,27.670713 L84.55,26.876667 L86.255,26.455 L87.54667,26.646667 L93.788,28.962 M66.80422,30.485111 L58.45939,31.047958 L56.969208,30.163465 L57.712856,27.818571 L60.37,25.19 L65.53667,23.273333 L67.95308,29.1 M54.779312,30.591034 L51.07,29.215 L48.59,27.145 L48.762222,26.825556 L51.69,23.35 L57.712856,27.818571 L56.969208,30.163465 M40.116665,24.883333 L35.24652,26.69 L34.95,26.605385 L34.527874,26.364468 L35.88,24.96 L40.633335,21.433332 L42.08,21.97 M60.37,25.19 L52.93,19.67 L56.96,16.68 L60.631054,17.587894 L66.02261,20.730902 L65.905716,22.725714 L65.53667,23.273333 M88.58,21.28 L85.583336,20.538889 L85.20263,19.597368 L86.663635,16.345455 L87.60571,16.170713 L90.29316,19.16158 L89.96091,21.133636 M147.60225,16.44676 L128.0575,37.39258 L118.0683,14.849769 L117.48868,12.613553 L115.21279,-4.483127 L115.2945,-10 L133.344,-10 M83.75453,193.09 L85.80755,220 L58.448,220 L58.997868,209.80083 L65.97674,185.6374 L71.74366,186.43344 L82.07,190.98892 L83.38827,191.64978 M266.6016,186.06895 L300,203.76857 L300,220 L250.24908,220 L244.13902,199.73361 L245.75838,194.32703 L246.525,192.93666 L256.3505,183.21683 M256.3505,183.21683 L246.525,192.93666 L244.61783,185.39 L244.09666,180.36333 L246.68,176.53 L247.02263,176.38474 L256.64108,178.76349 L256.81583,182.39354 M227.36153,171.84882 L224.05,170.90384 L224.05,165.95 L226.41727,165.6991 L228.7,166.64 L230.14667,167.71333 L230.15974,167.74632 L229.53462,169.83347 M270.14767,172.3329 L265.74878,169.61317 L263.92578,166.63757 L266.26636,163.85909 L274.89,160.66 L277.50287,160.2292 L300,160.84741 L300,171.51259 M248.62317,163.15634 L239.4058,161.7886 L239.60046,159.33348 L239.6275,159.28 L249.04375,159.28 L250.09,159.97 L250.1218,160.02898 L250.05423,160.88115 M224.58144,161.61285 L223.74,161.56084 L223.74,154.243 L223.9058,154.10768 L225.46715,154.4938 L228.39,156.48167 L228.39,156.75 L227.46,160.545 M57.58,157.67 L23.25021,170.40524 L-10,162.46564 L-10,160.04205 L12.390932,150.43474 L21.45913,147.56412 L39.7203,144.67671 L60.421665,153.45334 M75.63604,157.61792 L72.75893,158.86313 L70.68,156.16386 L71.806786,151.14786 L73.96137,150.50844 L75.50973,150.95027 L75.76667,151.20444 L76.85636,153.09091 M270.736,157.44 L265.33072,154.57545 L265.22833,154.32222 L270.085,151.92 L271.635,151.46 L300,151.46 L300,160.84741 L277.50287,160.2292 M253.12,154.72452 L249.86858,154.12143 L248.3075,151.805 L249.16,150.54 L251.91737,148.49422 L257.06082,152.73433 L256.85095,153.20143 L256.29,153.65546 M258.22562,152.27342 L257.06082,152.73433 L251.91737,148.49422 L251.90297,148.40338 L255.42027,143.55695 L256.43698,143.06885 L256.6824,143.17126 L259.7097,145.66687 M212.828,149.344 L210.7,149.4271 L207.68607,148.0854 L206.61707,144.38412 L208.798,142.766 L209.42018,142.5142 L214.67706,145.4394 L215.06,146.86 M263.7018,142.42728 L256.6824,143.17126 L256.43698,143.06885 L256.56595,141.1552 L261.56,138.27333 L264.7512,139.85176 L264.97,140.42 L264.97,141.8 M252.88,143.18 L249.16,140.42 L249.16,139.454 L249.66077,139.30539 L256.00818,140.48273 L256.56595,141.1552 L256.43698,143.06885 L255.42027,143.55695 M219.60217,141.21 L216.37666,141.02591 L212.93,139.16612 L212.394,137.476 L214.49167,134.36333 L217.50555,135.25778 L221.97435,137.33 L219.67299,141.17178 M78.51909,142.86636 L69.27545,134.86516 L75.75727,131.65909 L79.7742,131.23334 L92.68,137.12581 L96.10102,138.91193 L90.64667,141.34 L89.51,141.70143 M212.394,137.476 L205.76,137.06583 L205.44452,136.92929 L204.94273,133.20636 L209.48,129.84 L212.91214,130.34929 L214.16747,131.95802 L214.49167,134.36333 M205.45,126.85 L200.41,132.45903 L186.67897,133.38518 L164.99792,132.49152 L177.24683,126.91485 L179.01118,126.27629 L190.06549,125.01451 L204.30019,125.570366 M56.314865,137.61649 L49.384033,141.47316 L39.7203,144.67671 L21.45913,147.56412 L39.003845,129.89813 L51.194,126.022 L54.033024,126.213486 L54.927776,128.8689 M74.988945,130.84474 L70.55572,123.17 L70.83706,123.04823 L75.94294,123.52177 L77.77276,125.42242 L79.86125,130.5875 L79.7742,131.23334 L75.75727,131.65909 M101.13226,138.97742 L92.56231,123.081535 L92.796,122.388 L94.356125,120.97327 L97.391075,119.33564 L105.43072,123.975 L123.92,143.18 L123.990456,143.28455 M87.65,116.27 L85.914,114.982 L85.00091,110.917274 L89.77708,110.52354 L91.08314,111.052086 L93.54,113.28 L89.5951,115.674706 L87.72137,116.31633 M148.1775,146.975 L125.625,113.51 L125.19444,112.23222 L130.43,110.29 L131.79765,109.95177 L144.69,122.25 L147.17,124.78 L154.08194,139.73729 M117.53868,113.04132 L113.71797,113.29902 L112.174446,112.24926 L110.13804,109.731125 L111.53824,107.75729 L117.20333,106.916664 L120.096664,107.683334 L120.22385,108.06077 M210.9282,112.713585 L210.6425,112.7625 L207.31,110.29 L207.59181,109.244545 L207.87608,108.77 L213.86894,107.287895 L214.8043,107.85569 L213.52051,111.03068 M124.99762,111.91095 L123.07,111.0171 L120.22385,108.06077 L120.096664,107.683334 L123.052,106.288 L126.09,107.415 L126.90579,108.47421 L126.09,110.29 M201.73,111.67 L199.28493,113.03056 L196.2604,112.81685 L195.9795,109.899 L196.43182,107.88545 L201.4747,106.01471 L202.48286,107.76 L201.73,111.67 M63.178234,106.85353 L58.174168,111.03031 L57.855556,110.941666 L55.823334,108.68 L54.633495,104.70747 L60.99,103.85 L61.871563,104.30281 L63.199455,106.60164 M105.41538,109.847694 L99.76138,104.254486 L100.21412,103.62 L109.35,103.62 L110.100525,104.343895 L111.53824,107.75729 L110.13804,109.731125 L108.52333,109.98333 M138.4125,106.61 L134.15,106.61 L132.16173,106.11828 L131.68706,105.14982 L133.81181,103.34818 L136.63,102.93 L137.45667,102.93 L137.87,103.39 M193.08263,102.24 L180.65,102.24 L179.39398,99.28904 L180.17397,97.3876 L188.09,98.45545 L188.71,98.58091 L192.34338,99.56118 L193.77629,101.26217 M126.35571,97.73857 L118.5725,94.85125 L118.62182,94.65 L118.87118,93.83595 L126.07652,91.46 L128.93552,93.966866 L128.51761,97.37761 L128.43521,97.43 M198.61368,98.753685 L194.52846,101.17846 L193.77629,101.26217 L192.34338,99.56118 L192.67474,96.61105 L193.515,95.0525 L195.73666,92.58 L195.81615,92.526924 M67.76408,98.04037 L59.699593,98.58431 L58.026512,97.62945 L58.209393,95.45849 L59.98981,93.00528 L62.278946,91.829475 L70.237076,95.58683 L70.6,96.26 M108.11,96.49 L103.56333,98.17667 L99.79837,98.37619 L98.81,97.594 L99.774445,95.87666 L101.877365,93.536316 L104.95,93.21065 L108.11,96.33667 M111.917015,98.18474 L108.11,96.49 L108.11,96.33667 L109.08428,94.65 L118.62182,94.65 L118.5725,94.85125 L117.73,97.03903 L116.12231,97.51615 M188.09,95.11 L179.6828,95.11 L177.69835,89.85167 L184.63571,90.13762 L188.586,92.58 L189.02,93.385 L189.02,94.80334 L188.71,94.956665 M38.15333,98.253334 L37.74,98.1 L33.6325,92.005 L34.36,89.48613 L38.696957,88.47 L42.574062,88.05906 L43.268333,92.695 L40.56,98.72323 M50.004375,94.836876 L43.268333,92.695 L42.574062,88.05906 L44.046074,86.85196 L44.62155,86.693825 L50.2524,86.86094 L52,89.13 L51.257877,93.53485 M62.695,89.36 L52.62,89.36 L52,89.13 L52,89.13 L50.2524,86.86094 L50.820217,86.53878 L63.09261,85.78 L63.332222,87.46889 M88.89,86.83 L85.83428,89.097145 L82.28171,88.894394 L81.310814,85.05258 L81.39076,84.88452 L85.17,83.61 L87.03,83.61 L87.236664,83.763336 M98.24167,87.29 L94.16,87.29 L92.08864,86.85091 L92.0675,86.83 L92.42212,84.72515 L94.94371,82.10596 L95.6325,82.69 L98.612724,85.63818 M38.696957,88.47 L33.586,82.782 L34.036316,81.89105 L35.70589,81.20287 L38.53149,81.584045 L42.39,85.1625 L44.046074,86.85196 L42.574062,88.05906 M153.69746,86.710144 L149.65,87.83625 L144.52055,85.69553 L142.2951,52.672745 L142.36197,51.134804 L173.82538,51.301548 L173.78513,52.361774 L171.27472,71.29782 M91.99,79.24 L81.66565,75.41 L80.33098,73.28805 L77.45418,56.212852 L88.95937,55.22446 L95.4,76.25 L95.4,78.424545 L94.72833,79.24 M98.86345,36.713795 L95.958,32.642 L93.788,28.962 L94.27136,24.658545 L118.0683,14.849769 L128.0575,37.39258 L130.7858,48.99815 L111.3438,49.941822 M82.38,21.586666 L79.28,21.331112 L77.481026,20.292992 L77.794136,19.654139 L83.09118,18.344118 L85.20263,19.597368 L85.583336,20.538889 L84.55,21.05 M76.639114,20.48519 L69.21909,18.833637 L70.20913,16.63 L76.56704,13.327989 L77.93667,15.07 L78.30231,15.883846 L77.794136,19.654139 L77.481026,20.292992 M51.73825,20.088833 L49.08443,19.541899 L43.874874,14.227311 L40.673077,-0.8176923 L40.23107,-10 L49.768,-10 L56.96,16.68 L52.93,19.67 M87.60571,16.170713 L86.663635,16.345455 L85.733635,15.885454 L84.55,13.69 L84.55,-10 L115.2945,-10 L115.21279,-4.483127 L97.818,9.856667 M72.50895,173.9879 L50.872128,179.33894 L43.26373,176.01839 L42.674595,175.61427 L51.048622,171.67938 L58.03091,169.4 L67.5,169.4 L67.5,169.4 L72.96077,173.45154 M212.89682,170.63087 L196.3458,177.32895 L169.35045,186.09155 L164.23819,186.6239 L156.25221,168.38396 L165.04614,166.38664 L180.82715,164.11 L204.52,164.11 L214.60074,167.84962 M262.76556,156.95444 L261.2266,157.09717 L256.85095,153.20143 L257.06082,152.73433 L258.22562,152.27342 L260.01,152.08429 L265.18314,154.2775 L265.22833,154.32222 L265.33072,154.57545 M242.43118,135.00824 L239.06778,136.67184 L234.40318,136.38345 L234.76222,131.32222 L234.9,131.22 L235.58888,131.11778 L241.1,132.14 L242.154,132.922 L242.55211,134.69421 M251.06429,136.18143 L247.796,135.912 L247.579,135.268 L248.85,129.61 L251.47308,125.71769 L254.594,123.23677 L254.79391,124.72 L253.94286,132.92857 L252.28696,136 M212.91214,130.34929 L209.48,129.84 L205.45,126.85 L204.30019,125.570366 L204.83,124.958885 L210.66232,122.554886 L213.44261,123.38 L214.10048,125.82047 L213.02478,130.21 M73.39,118.11 L66.26,119.87334 L65.21,119.26742 L65.24143,118.96429 L69.49778,113.28 L71.02923,112.67846 L71.60154,112.643074 L72.54455,113.34273 L73.03811,114.71594 M234.0196,122.2132 L228.97318,120.10713 L228.44254,119.05729 L230.27884,115.99186 L243.72737,108.86475 L270.05258,102.650154 L259.03452,113.62761 L242.8893,119.877365 L234.9,122.30227 M123.92,143.18 L114.79222,122.863335 L113.71797,113.29902 L117.53868,113.04132 L118.402,113.326 L118.65,113.51 L144.69,152.15 L144.46637,152.51501 L123.990456,143.28455 M58.51,115.4075 L53.86,116.27 L47.05348,116.27 L47.379524,113.4881 L47.79286,113.18143 L57.855556,110.941666 L58.174168,111.03031 L59.791332,113.28 L59.32579,114.575264 M187.45177,109.24824 L177.24683,126.91485 L164.99792,132.49152 L162.63747,133.22592 L163.52518,128.69794 L167.21666,119.79667 L185.10625,106.52375 L186.77118,106.808815 L187.20769,107.61846 M243.72737,108.86475 L227.19057,110.500656 L226.065,104.655 L226.42253,103.32867 L265.9547,94.16294 L275.89236,92.46146 L275.9634,92.46303 L281.6889,94.471146 L270.05258,102.650154 M154.08194,139.73729 L147.17,124.78 L144.42429,112.557144 L145.17714,108.08857 L150.27,104.31 L156.98666,109.293335 L163.52518,128.69794 L162.63747,133.22592 L160.26216,135.26518 M81.6952,107.50661 L77.73,106.955 L77.73,99.296 L79.85663,99.059326 L84.51737,101.57421 L85.221664,102.47 L85.21429,102.50285 L84.211815,105.23 L83.68929,106.29612 M179.39398,99.28904 L168.42181,101.79385 L166.61545,98.53909 L166.886,94.926 L170.11,89.245 L173.4157,86.54712 L177.69835,89.85167 L179.6828,95.11 L180.17397,97.3876 M198.72829,89.646095 L193.03177,88.06118 L173.78513,52.361774 L173.82538,51.301548 L181.99762,48.312614 L193.8411,61.80709 L195.14177,64.182526 L202.05348,83.84 L200.77806,89.281105 M74.376366,81.24728 L69.847145,80.127144 L68.21435,76.19 L72.37153,56.65572 L77.08826,56.176838 L77.45418,56.212852 L80.33098,73.28805 L78.66,76.0775 L74.76778,81.13111 M102.84,76.25 L95.4,76.25 L88.95937,55.22446 L97.09845,53.01028 L111.3438,49.941822 L130.7858,48.99815 L131.30055,49.245457 L126.627335,58.831333 L103.35667,76.096664 M51.23449,76.74755 L41.46,74.51615 L27.67909,60.359093 L26.187428,58.51456 L47.95727,54.051556 L51.144993,53.847168 L60.68,54.88244 L66.571785,56.375088 L54.242554,76.49957 M82.49625,31.3425 L75.91325,34.598606 L74.77308,29.1 L76.39944,27.53135 L79.28,27.130625 L82.38,27.561874 L82.71531,27.670713 L82.74167,27.739166 L83.152374,29.71983 M106.467,193.09 L107.625946,175.89268 L108.16046,175.43349 L128.16989,162.4435 L145.05925,156.6822 L146.2895,157.88776 L156.25221,168.38396 L164.23819,186.6239 L162.60237,220 L117.348,220 M236.295,176.1275 L232.53625,177.52188 L232.1875,177.42125 L227.37622,172.06676 L227.36153,171.84882 L229.53462,169.83347 L239.55,172.62 L239.82556,173.02888 L239.57953,173.89595 L239.37,174.22629 M101.6,160.66 L85.53636,152.71454 L90.64667,141.34 L96.10102,138.91193 L101.13226,138.97742 L123.990456,143.28455 L144.46637,152.51501 L145.05925,156.6822 L128.16989,162.4435 L105.29182,161.57303 M293.49,125.102 L260.6451,134.84952 L254.79391,124.72 L254.594,123.23677 L259.03452,113.62761 L270.05258,102.650154 L281.6889,94.471146 L288.98578,94.40631 L300,94.59859 L300,122.526 M94.92,105.25226 L93.507935,104.84931 L91.19897,102.279655 L91.894615,100.55923 L98.41545,97.53545 L98.81,97.594 L99.79837,98.37619 L100.21412,103.62 L99.76138,104.254486 L97.26,105.368 M173.82538,51.301548 L142.36197,51.134804 L131.30055,49.245457 L130.7858,48.99815 L128.0575,37.39258 L147.60225,16.44676 L147.83325,16.40721 L207.46603,20.831577 L204.20247,31.982552 L181.99762,48.312614 M202.7375,143.9275 L146.2895,157.88776 L145.05925,156.6822 L144.46637,152.51501 L144.69,152.15 L148.1775,146.975 L154.08194,139.73729 L160.26216,135.26518 L200.55888,140.70111 L202.97,142.49 L203.62263,143.45842" fill="none" stroke="white" stroke-width="0.2"/>
<path d="m 15.815664,12.893319 c -1.445284,-3.0999497 -5.555449,-0.3575 -5.08537,2.32203 1.697826,2.92736 4.504013,-3.54417 4.40859,-2.58178 -1.548999,2.22986 0.741131,6.08701 3.012419,3.25791 2.532153,-2.82358 0.259001,-7.8326797 -3.488671,-7.9011197 -3.217272,0.056 -5.8863857,2.4603197 -7.9308737,4.7238797 -2.354585,2.46752 0.0048,5.887 2.757763,6.62143 3.2195457,1.10867 6.8759417,1.30834 9.9459317,-0.36585 2.270396,-1.12373 5.025949,-2.62031 5.680576,-5.20027 -2.108811,-3.66096 -6.038415,1.28356 -3.842036,3.67822 1.07278,0.89979 4.586982,-2.27037 3.201668,-2.73503 0.03094,3.24357 1.226854,6.37852 1.337023,9.60311 -0.672198,3.54892 -7.469251,0.32096 -4.637082,-2.5164 2.158436,-2.4193 5.610472,-2.84094 8.202925,-4.57369 0.993877,-1.40371 0.353413,-5.25046 3.182464,-3.48957 2.142923,1.43516 -2.250898,5.7532 1.723416,5.02339 1.661189,-0.71663 6.494946,-1.40457 4.601401,-3.95236 -4.205319,-0.68052 -1.190571,5.86505 1.665411,3.46881 1.929752,-0.9247 2.778055,-4.05119 1.423645,-5.35034 0.479155,1.8589 3.849911,7.52574 4.880369,3.32696 0.21201,-1.28088 0.40468,-3.80204 1.01246,-1.23041 0.5858,2.6865 3.83412,4.91909 4.56937,1.07383 0.65272,-1.00894 -0.2696,-4.02739 0.99929,-1.35746 1.10974,2.31613 6.32001,1.46113 6.147,-1.13059 -1.98394,-2.13868 -5.3717,1.45205 -3.78252,3.73454 2.57741,0.96208 6.69797,-0.21041 7.06275,-3.33983 0.41287,-2.63769 0.26643,-5.3430297 -0.11178,-7.9756197 0.67418,3.94149 1.24889,7.9380497 2.39963,11.7713397 2.10586,1.67977 5.7434,1.65022 7.74596,-0.23639 3.03149,-1.85431 -0.26637,-4.76925 -2.71777,-4.54025 -2.11577,0.0793 -5.36257,2.40772 -5.16868,3.85604 2.08262,-2.38818 5.55759,-1.22628 8.30726,-1.6832 3.182,-0.26596 6.46546,-0.57372 9.54494,-1.18158 0.24171,0.4199 -0.27752,0.54338 -0.43067,0.17453" fill="none" stroke="white" stroke-width="1" transform="translate(10,190) scale(0.3)"/>
</svg>