<svg height="210mm" style="background:black" viewBox="0 0 210 210" width="210mm" xmlns="http://www.w3.org/2000/svg" xmlns:inkscape="http://www.inkscape.org/namespaces/inkscape">
<path d="M50,30 L146.1687,58.85061 M150,60 L178.5955,136.25468 M180,140 L33.86494,178.96935 M30,180 L49.471344,33.964912 M50,30 L142.3374,57.701218 M146.1687,58.85061 L177.04994,132.56535 M178.5955,136.25468 L37.701347,177.8371 M33.86494,178.96935 L49.04331,37.941944 M49.471344,33.964912 L138.46199,56.710674 M142.3374,57.701218 L175.36732,128.93646 M177.04994,132.56535 L41.505615,176.60117 M37.701347,177.8371 L48.72007,41.928864 M49.04331,37.941944 L134.5473,55.888992 M138.46199,56.710674 L173.54727,125.37452 M175.36732,128.93646 L45.273857,175.2594 M41.505615,176.60117 L48.506096,45.923138 M48.72007,41.928864 L130.59918,55.246815 M134.5473,55.888992 L171.5895,121.88638 M173.54727,125.37452 L49.00187,173.8096 M45.273857,175.2594 L48.406162,49.92189 M48.506096,45.923138 L126.62473,54.795418 M130.59918,55.246815 L169.49379,118.479324 M171.5895,121.88638 L52.6851,172.24953 M49.00187,173.8096 L48.425396,53.921844 M48.406162,49.92189 L122.63248,54.546673 M126.62473,54.795418 L167.2601,115.161095 M169.49379,118.479324 L56.31861,170.57692 M52.6851,172.24953 L48.569298,57.919254 M48.425396,53.921844 L118.63262,54.512993 M122.63248,54.546673 L164.88853,111.939964 M167.2601,115.161095 L59.89703,168.78949 M56.31861,170.57692 L48.843796,61.909824 M48.569298,57.919254 L114.63734,54.70723 M118.63262,54.512993 L162.37936,108.82482 M164.88853,111.939964 L63.41449,166.8849 M59.89703,168.78949 L49.255272,65.8886 M48.843796,61.909824 L110.661095,55.14252 M114.63734,54.70723 L159.73315,105.825226 M162.37936,108.82482 L66.86458,164.86082 M63.41449,166.8849 L49.810623,69.84986 M49.255272,65.8886 L106.72097,55.832047 M110.661095,55.14252 L156.95076,102.95151 M159.73315,105.825226 L70.24026,162.71494 M66.86458,164.86082 L50.517307,73.78694 M49.810623,69.84986 L102.83705,56.788708 M106.72097,55.832047 L154.03345,100.21484 M156.95076,102.95151 L73.53376,160.44495 M70.24026,162.71494 L51.383404,77.69205 M50.517307,73.78694 L99.03279,58.024677 M102.83705,56.788708 L150.98302,97.627396 M154.03345,100.21484 L76.73652,158.04863 M73.53376,160.44495 L52.417667,81.55602 M51.383404,77.69205 L95.335365,59.550797 M99.03279,58.024677 L147.80193,95.202385 M150.98302,97.627396 L79.83901,155.52385 M76.73652,158.04863 L53.62959,85.36801 M52.417667,81.55602 L91.77596,61.37581 M95.335365,59.550797 L144.49347,92.954254 M147.80193,95.202385 L82.83061,152.8686 M79.83901,155.52385 L55.029446,89.11507 M53.62959,85.36801 L88.39,63.505417 M91.77596,61.37581 L141.062,90.898766 M144.49347,92.954254 L85.69942,150.08115 M82.83061,152.8686 L56.628326,92.78162 M55.029446,89.11507 L85.2171,65.94113 M88.39,63.505417 L137.51324,89.05315 M141.062,90.898766 L88.43201,147.16002 M85.69942,150.08115 L58.438133,96.34877 M56.628326,92.78162 L82.30091,68.678986 M85.2171,65.94113 L133.85461,87.43623 M137.51324,89.05315 L91.01314,144.10425 M88.43201,147.16002 L60.471497,99.793396 M58.438133,96.34877 L79.68855,71.70811 M82.30091,68.678986 L130.09569,86.06859 M133.85461,87.43623 L93.42539,140.91347 M91.01314,144.10425 L62.741543,103.08686 M60.471497,99.793396 L77.429756,75.00929 M79.68855,71.70811 L126.24876,84.97263 M130.09569,86.06859 L95.64868,137.58827 M93.42539,140.91347 L65.26143,106.19334 M62.741543,103.08686 L75.57562,78.55361 M77.429756,75.00929 L122.329544,84.172775 M126.24876,84.97263 L97.65964,134.13052 M95.64868,137.58827 L68.04335,109.06751 M65.26143,106.19334 L74.177155,82.301186 M75.57562,78.55361 L118.35812,83.695465 M122.329544,84.172775 L99.430725,130.54399 M97.65964,134.13052 L71.09674,111.65147 M68.04335,109.06751 L73.28367,86.20012 M74.177155,82.301186 L114.360115,83.5693 M118.35812,83.695465 L100.92911,126.835236 M99.430725,130.54399 L74.42477,113.87053 M71.09674,111.65147 L72.94123,90.18543 M73.28367,86.20012 L110.36829,83.82496 M114.360115,83.5693 L102.115,123.01507 M100.92911,126.835236 L78.01793,115.628136 M74.42477,113.87053 L73.191284,94.17761 M72.94123,90.18543 L106.424835,84.495125 M110.36829,83.82496 L102.9393,119.10092 M102.115,123.01507 L81.84227,116.80048 M78.01793,115.628136 L74.06938,98.08004 M73.191284,94.17761 L102.5845,85.61399 M106.424835,84.495125 L103.34016,115.121056 M102.9393,119.10092 L85.8187,117.23408 M81.84227,116.80048 L75.60325,101.774254 M74.06938,98.08004 L98.91943,87.21626 M102.5845,85.61399 L103.237755,111.12237 M103.34016,115.121056 L89.78993,116.755165 M85.8187,117.23408 L77.80842,105.1115 M75.60325,101.774254 L95.52648,89.334724 M98.91943,87.21626 L102.52672,107.18607 M103.237755,111.12237 L93.479355,115.2098 M89.78993,116.755165 L80.677,107.8992 M77.80842,105.1115 L92.53914,91.99476 M95.52648,89.334724 L101.06642,103.46216 M102.52672,107.18607 L96.47201,112.55574 M93.479355,115.2098 L84.150566,109.88273 M80.677,107.8992 L90.14769,95.20116 M92.53914,91.99476 L98.679565,100.25234 M101.06642,103.46216 L98.2758,108.98554 M96.47201,112.55574 L88.05964,110.73076 M84.150566,109.88273 L88.6351,98.90414 M90.14769,95.20116 L95.237564,98.21455 M98.679565,100.25234 L98.46054,104.98981 M98.2758,108.98554 L92.00252,110.0572 M88.05964,110.73076 L88.4407,102.89941 M88.6351,98.90414 L91.2592,98.630066 M95.237564,98.21455 L96.742256,101.37768 M98.46054,104.98981 L95.14939,107.58795 M92.00252,110.0572 L90.22272,106.48052 M88.4407,102.89941 L89.05543,101.96824 M91.2592,98.630066 L93.16614,99.58565 M96.742256,101.37768 L96.14318,103.71337 M95.14939,107.58795 L94.125336,107.357765 M90.22272,106.48052 L90.05721,105.84076 M89.05543,101.96824 L89.70542,101.5915 M93.16614,99.58565 L93.80333,100.46913 M96.14318,103.71337 L96.062904,103.85836 M94.125336,107.357765 L93.80511,107.23835 M90.05721,105.84076 L90.035446,105.57786 M89.70542,101.5915 L89.94541,101.52577 M93.80333,100.46913 L93.84404,100.5302 M96.062904,103.85836 L96.026955,103.91218 M93.80511,107.23835 L93.696045,107.19031 M90.035446,105.57786 L90.03426,105.52479 M89.94541,101.52577 L89.968414,101.5199 M93.84404,100.5302 L93.85775,100.55144 M96.026955,103.91218 L96.01401,103.93039 M93.696045,107.19031 L93.67532,107.180885 M90.03426,105.52479 L91.41978,103.7226 M93.85775,100.55144 L93.785355,103.182396 M93.67532,107.180885 L93.60495,107.07298" fill="none" stroke="white" stroke-width="0.2"/>
<path d="m 15.815664,12.893319 c -1.445284,-3.0999497 -5.555449,-0.3575 -5.08537,2.32203 1.697826,2.92736 4.504013,-3.54417 4.40859,-2.58178 -1.548999,2.22986 0.741131,6.08701 3.012419,3.25791 2.532153,-2.82358 0.259001,-7.8326797 -3.488671,-7.9011197 -3.217272,0.056 -5.8863857,2.4603197 -7.9308737,4.7238797 -2.354585,2.46752 0.0048,5.887 2.757763,6.62143 3.2195457,1.10867 6.8759417,1.30834 9.9459317,-0.36585 2.270396,-1.12373 5.025949,-2.62031 5.680576,-5.20027 -2.108811,-3.66096 -6.038415,1.28356 -3.842036,3.67822 1.07278,0.89979 4.586982,-2.27037 3.201668,-2.73503 0.03094,3.24357 1.226854,6.37852 1.337023,9.60311 -0.672198,3.54892 -7.469251,0.32096 -4.637082,-2.5164 2.158436,-2.4193 5.610472,-2.84094 8.202925,-4.57369 0.993877,-1.40371 0.353413,-5.25046 3.182464,-3.48957 2.142923,1.43516 -2.250898,5.7532 1.723416,5.02339 1.661189,-0.71663 6.494946,-1.40457 4.601401,-3.95236 -4.205319,-0.68052 -1.190571,5.86505 1.665411,3.46881 1.929752,-0.9247 2.778055,-4.05119 1.423645,-5.35034 0.479155,1.8589 3.849911,7.52574 4.880369,3.32696 0.21201,-1.28088 0.40468,-3.80204 1.01246,-1.23041 0.5858,2.6865 3.83412,4.91909 4.56937,1.07383 0.65272,-1.00894 -0.2696,-4.02739 0.99929,-1.35746 1.10974,2.31613 6.32001,1.46113 6.147,-1.13059 -1.98394,-2.13868 -5.3717,1.45205 -3.78252,3.73454 2.57741,0.96208 6.69797,-0.21041 7.06275,-3.33983 0.41287,-2.63769 0.26643,-5.3430297 -0.11178,-7.9756197 0.67418,3.94149 1.24889,7.9380497 2.39963,11.7713397 2.10586,1.67977 5.7434,1.65022 7.74596,-0.23639 3.03149,-1.85431 -0.26637,-4.76925 -2.71777,-4.54025 -2.11577,0.0793 -5.36257,2.40772 -5.16868,3.85604 2.08262,-2.38818 5.55759,-1.22628 8.30726,-1.6832 3.182,-0.26596 6.46546,-0.57372 9.54494,-1.18158 0.24171,0.4199 -0.27752,0.54338 -0.43067,0.17453" fill="none" stroke="white" stroke-width="1" transform="translate(180,195) scale(0.3)"/>
</svg>