<svg style="background:white" viewBox="0 0 210 297" width="210mm" height="297mm" xmlns="http://www.w3.org/2000/svg" xmlns:inkscape="http://www.inkscape.org/namespaces/inkscape">
<g inkscape:groupmode="layer" inkscape:label="black"><path d="M63.60,30.00 C62.68,29.17 57.55,26.55 58.09,25.04 C58.64,23.52 64.45,18.46 66.86,20.92 C69.26,23.38 69.58,40.41 72.51,39.79 C75.45,39.17 83.22,20.30 84.46,17.21 C85.70,14.13 79.52,19.95 79.96,21.27 C80.40,22.60 85.56,24.87 87.09,25.17 C88.61,25.48 88.92,21.56 89.10,23.09 C89.29,24.61 87.64,31.69 88.19,34.31 C88.74,36.94 91.00,43.10 92.40,38.83 C93.79,34.55 96.10,11.16 96.55,8.67 C97.00,6.17 95.18,18.73 95.12,23.87 C95.06,29.02 94.77,38.22 96.19,39.52 C97.61,40.80 100.84,33.26 103.62,31.61 C106.40,29.97 112.02,31.47 112.87,29.64 C113.72,27.82 110.39,21.02 108.72,20.68 C107.06,20.34 102.79,24.36 102.89,27.62 C103.00,30.87 106.19,41.27 109.37,40.22 C112.55,39.18 120.15,24.23 121.96,21.35 C123.77,18.47 119.25,20.87 120.21,22.93 C121.17,24.98 127.20,30.59 127.71,33.68 C128.22,36.78 124.54,40.64 123.25,41.52 C121.97,42.41 117.88,42.54 120.02,38.98 C122.15,35.43 133.94,23.06 136.05,20.21 C138.17,17.36 131.81,19.23 132.72,21.86 C133.63,24.50 141.03,32.70 141.52,36.05 C142.02,39.40 136.68,41.81 135.69,41.98 C134.71,42.15 134.11,39.39 135.62,37.07 C137.12,34.75 141.54,29.38 144.72,28.05 C147.90,26.72 153.01,30.93 154.70,29.07 C156.40,27.22 156.31,18.60 154.89,16.92 C153.48,15.24 147.51,15.65 146.21,18.99 C144.90,22.33 145.86,33.65 147.06,36.95 C148.27,40.25 150.75,40.37 153.44,38.79 C156.14,37.20 161.59,29.35 163.22,27.46" fill="none" stroke="black" stroke-width="0.35" style="mix-blend-mode: multiply;" />
<path d="M63.60,58.00 C62.38,57.66 57.08,54.56 57.58,52.45 C58.73,51.57 65.22,46.26 67.26,49.40 C68.73,50.96 70.00,68.50 72.37,67.66 C75.15,67.74 82.34,47.43 83.55,44.70 C85.35,41.43 80.42,48.86 79.92,50.00 C80.54,49.90 85.24,52.03 86.68,53.81 C89.34,53.51 89.89,49.53 89.42,51.72 C89.70,52.60 87.71,59.12 88.69,62.66 C88.98,65.35 91.74,71.87 92.54,66.40 C93.11,62.85 96.82,39.30 97.15,35.91 C97.41,34.18 95.45,47.20 95.17,51.83 C94.55,56.47 95.47,66.82 96.71,68.05 C98.55,68.80 101.16,61.74 104.50,59.92 C106.19,57.65 111.61,59.14 113.65,58.26 C113.18,55.36 111.25,48.29 108.04,48.92 C106.56,48.39 102.29,52.24 102.08,55.57 C103.50,58.11 106.96,70.26 108.55,68.56 C113.42,66.46 120.19,51.74 122.66,48.42 C123.33,47.18 118.75,49.87 120.42,51.15 C121.91,53.28 127.67,58.99 128.61,61.99 C128.16,65.68 124.51,69.29 123.79,69.78 C122.88,70.59 118.59,70.82 120.60,67.64 C122.25,62.44 133.69,50.15 135.23,47.24 C138.94,45.22 130.90,47.75 133.61,49.70 C133.38,53.00 141.06,60.28 142.00,63.31 C141.62,68.32 137.60,70.62 134.89,69.08 C133.92,70.43 134.94,67.32 134.74,65.66 C137.60,62.94 141.05,57.83 145.46,55.23 C148.13,53.95 152.35,59.51 155.50,56.38 C156.39,55.26 157.19,45.67 155.38,45.90 C154.07,43.19 147.07,43.20 147.06,46.16 C144.15,50.32 146.56,61.57 147.69,65.00 C147.76,67.42 151.59,68.96 152.84,65.98 C155.99,64.87 161.16,57.90 163.22,55.46" fill="none" stroke="black" stroke-width="0.35" style="mix-blend-mode: multiply;" />
<path d="M63.60,84.13 C62.94,83.70 55.96,81.90 58.90,80.59 C59.06,78.09 66.28,71.88 65.10,73.13 C67.48,78.69 70.17,94.62 74.08,93.35 C75.64,91.45 83.13,73.52 85.52,71.62 C87.64,67.99 81.00,74.34 78.70,76.99 C82.09,75.50 83.66,77.52 88.15,79.67 C88.88,79.71 90.33,74.99 88.90,77.85 C90.65,77.82 88.53,86.60 87.64,86.67 C89.32,89.65 90.40,98.65 93.22,92.51 C92.05,88.21 95.73,67.10 95.49,61.25 C95.42,59.75 95.31,72.78 94.81,78.20 C94.76,84.68 96.32,91.43 95.75,94.44 C96.86,96.23 101.40,88.72 104.96,84.81 C108.34,85.61 110.57,85.33 113.75,85.50 C112.71,81.32 109.30,77.08 109.62,76.00 C106.28,73.99 102.83,78.41 102.62,82.03 C102.96,86.24 106.28,94.06 111.06,94.33 C113.89,94.09 120.75,77.71 123.17,73.82 C124.60,71.03 118.06,76.19 118.63,77.56 C119.66,78.39 126.97,85.19 126.85,88.83 C127.80,90.82 124.84,93.57 122.89,95.89 C121.61,96.09 117.96,97.75 121.84,94.60 C120.45,90.75 135.31,78.90 135.14,74.72 C139.92,69.82 129.93,73.46 131.81,76.50 C132.94,79.59 139.36,86.32 142.61,91.57 C143.70,94.00 135.89,96.55 133.80,95.63 C136.20,95.64 134.16,92.50 136.83,92.05 C135.96,87.27 142.45,84.73 145.79,83.18 C146.62,79.71 153.10,83.54 153.78,84.01 C155.43,79.74 155.69,73.86 154.25,70.80 C155.22,67.63 148.53,69.91 144.30,71.19 C143.69,76.59 147.50,87.33 147.04,89.31 C148.77,93.72 148.85,94.48 153.44,91.20 C156.16,92.53 162.35,82.80 163.22,81.59" fill="none" stroke="black" stroke-width="0.35" style="mix-blend-mode: multiply;" />
<path d="M63.60,108.40 C63.58,109.88 55.83,104.06 56.61,105.25 C55.65,100.53 65.02,99.57 64.65,97.97 C70.81,99.32 72.35,119.84 69.68,118.52 C78.20,116.03 82.49,96.72 84.74,94.38 C88.28,92.78 81.16,96.27 80.47,101.30 C79.94,98.81 83.43,103.59 85.42,103.42 C88.39,105.96 91.20,97.69 86.40,99.47 C87.31,102.00 87.89,112.51 89.38,113.26 C86.26,113.96 92.91,118.92 95.15,117.94 C94.11,111.16 97.63,87.63 96.69,84.47 C97.62,84.21 93.95,98.91 96.67,101.17 C97.35,106.37 94.00,118.24 93.76,119.37 C96.75,119.66 100.07,109.51 104.56,107.57 C108.90,107.67 110.76,107.37 110.59,110.04 C115.18,107.12 112.65,97.57 110.21,101.37 C108.28,101.48 103.55,104.82 102.56,105.84 C104.84,107.85 109.03,117.96 109.18,116.62 C114.30,119.99 123.01,103.08 120.76,97.69 C121.53,96.17 119.39,97.16 118.63,101.93 C118.81,105.08 129.59,111.49 127.42,110.91 C127.81,113.21 127.34,122.04 120.85,117.37 C123.60,123.29 118.41,123.30 120.73,119.96 C119.86,112.85 136.66,102.39 137.55,96.45 C140.54,93.29 130.35,98.29 131.26,99.87 C131.32,104.11 140.60,111.30 142.14,112.25 C144.55,120.51 135.03,121.82 138.64,119.12 C134.01,118.82 136.30,114.90 132.98,117.68 C138.79,111.95 143.65,105.42 142.05,105.71 C149.95,102.80 150.51,111.16 154.19,107.44 C155.08,104.73 156.36,99.34 156.87,94.24 C153.99,95.39 145.49,96.13 144.66,95.58 C147.64,102.69 143.08,114.85 146.85,118.35 C147.24,116.04 148.12,120.59 150.68,114.22 C153.43,114.32 163.54,107.69 163.22,105.86" fill="none" stroke="black" stroke-width="0.35" style="mix-blend-mode: multiply;" />
<path d="M63.60,130.80 C65.03,132.18 58.14,124.94 55.97,126.61 C59.75,124.04 63.98,115.65 63.89,124.58 C71.36,126.54 66.82,137.86 71.66,137.86 C73.05,140.11 82.88,123.59 86.67,120.70 C86.23,114.02 76.48,117.85 82.11,125.80 C80.52,123.75 86.16,123.56 89.12,125.79 C85.93,127.48 87.92,122.77 85.49,121.74 C86.73,129.21 88.65,128.89 85.39,136.10 C88.78,141.63 92.19,145.67 94.02,138.52 C95.63,131.56 93.62,111.65 97.15,109.33 C97.03,106.23 92.78,116.95 93.88,124.49 C92.24,127.59 98.77,136.36 99.07,137.63 C99.94,139.49 102.81,130.43 101.31,133.63 C110.15,133.17 110.96,134.92 114.79,129.15 C111.91,130.35 112.70,125.43 105.81,123.07 C108.53,120.75 103.94,126.58 100.65,128.32 C104.49,128.85 104.57,140.94 106.68,141.57 C109.58,138.37 120.76,127.32 118.46,122.75 C125.04,118.97 119.38,121.22 118.93,124.30 C119.69,123.46 130.99,132.65 128.64,132.50 C126.69,136.67 122.64,139.96 123.32,144.61 C121.60,142.76 116.95,139.34 117.33,138.07 C118.26,132.80 136.41,119.98 132.71,122.60 C136.23,118.91 131.73,119.55 134.75,119.05 C131.61,128.07 137.05,129.52 139.67,137.53 C143.99,142.66 136.31,140.16 135.80,143.67 C135.45,140.52 137.21,136.59 137.72,138.27 C133.89,134.51 141.58,127.93 145.52,127.74 C148.22,128.71 151.62,128.01 156.80,132.77 C155.97,130.69 160.18,121.79 153.53,115.56 C156.87,118.63 145.44,112.94 145.93,121.68 C146.77,122.97 142.44,133.82 143.12,140.31 C150.29,139.06 150.49,138.59 150.37,142.27 C154.72,137.68 160.31,130.13 163.22,128.26" fill="none" stroke="black" stroke-width="0.35" style="mix-blend-mode: multiply;" />
<path d="M63.60,151.33 C66.27,155.05 60.84,149.65 59.57,141.95 C55.86,145.99 67.51,142.29 69.34,144.75 C72.77,143.97 68.34,159.64 76.49,161.08 C77.61,160.48 88.11,143.16 84.83,141.52 C84.43,139.50 74.74,144.86 83.66,141.88 C77.83,146.20 88.09,143.70 86.69,150.03 C89.92,151.39 92.26,147.53 92.31,146.41 C93.67,150.37 84.46,149.82 84.86,158.42 C83.95,154.36 90.70,165.73 93.17,157.99 C95.37,159.29 97.70,132.69 98.68,131.39 C92.29,130.80 95.75,136.52 90.40,149.99 C92.17,147.40 94.50,156.57 96.84,161.74 C102.48,162.23 103.11,153.77 107.66,154.39 C108.37,148.40 110.42,148.13 113.14,154.25 C117.23,151.23 108.30,140.85 107.90,143.73 C109.76,146.13 107.31,147.25 98.12,147.85 C100.53,150.80 104.71,167.08 112.92,159.02 C117.31,161.43 122.99,150.52 125.86,141.87 C125.61,139.04 118.60,145.78 117.82,140.75 C117.82,150.43 129.63,147.13 125.83,155.28 C130.38,161.52 122.68,157.48 127.34,162.62 C123.08,168.62 116.90,165.21 122.59,161.29 C121.44,152.72 133.92,145.07 135.26,141.93 C137.00,143.37 128.91,139.48 128.77,138.35 C136.07,142.89 143.35,149.30 142.28,153.44 C137.08,163.44 133.48,162.72 139.26,161.15 C135.39,165.28 132.64,161.91 136.46,157.15 C133.97,156.19 144.57,152.79 142.00,153.96 C142.91,148.95 152.71,154.69 154.53,151.91 C160.43,148.22 159.02,144.73 150.69,138.61 C150.65,139.11 150.09,134.54 146.23,135.97 C143.43,141.43 150.82,159.21 150.72,159.65 C150.26,157.46 151.10,164.60 152.35,161.69 C154.40,157.25 164.44,145.69 163.22,148.79" fill="none" stroke="black" stroke-width="0.35" style="mix-blend-mode: multiply;" />
<path d="M63.60,170.00 C66.87,174.19 60.30,170.61 55.81,165.57 C60.20,162.12 61.67,163.24 68.00,160.62 C67.17,160.59 74.14,180.75 69.39,175.04 C76.47,178.58 80.09,165.05 83.13,154.31 C80.98,158.44 80.54,161.80 84.93,159.03 C76.69,158.22 90.56,170.11 87.68,166.62 C82.74,163.01 93.65,161.24 87.31,160.13 C88.32,165.19 90.49,173.63 83.47,176.59 C83.28,174.90 89.78,178.10 87.45,177.32 C88.34,169.97 95.25,148.78 102.36,146.08 C102.67,149.85 91.27,155.69 97.99,159.36 C90.54,173.25 100.51,172.30 95.18,179.92 C93.59,175.81 106.23,167.92 108.62,170.88 C110.57,172.30 112.04,168.37 115.60,168.06 C109.55,162.31 111.20,157.01 103.75,161.42 C107.35,160.61 98.72,165.00 98.54,164.26 C105.25,166.59 101.75,186.08 114.26,177.33 C106.77,175.57 114.33,159.50 123.61,166.58 C122.28,157.32 119.63,159.99 116.96,158.49 C124.34,165.82 131.75,166.49 124.35,173.12 C133.17,174.58 129.71,182.46 121.48,186.96 C124.32,177.26 120.64,187.12 115.62,183.63 C116.24,173.05 133.00,163.88 140.70,155.36 C140.62,153.17 135.52,157.03 135.96,161.79 C138.23,162.43 145.27,172.59 144.07,174.73 C137.11,181.29 132.89,177.56 137.03,182.65 C128.85,187.61 131.52,180.82 131.75,171.12 C133.09,175.22 140.52,169.25 138.83,164.69 C148.76,172.43 151.62,176.07 152.26,169.21 C158.31,165.43 162.05,153.56 160.41,157.90 C157.27,160.19 146.88,160.72 146.52,157.29 C140.97,159.93 148.60,174.57 141.48,173.03 C146.56,184.37 146.79,184.19 156.71,174.79 C157.12,176.95 159.64,169.42 163.22,167.46" fill="none" stroke="black" stroke-width="0.35" style="mix-blend-mode: multiply;" />
<path d="M63.60,186.80 C63.80,180.95 53.49,184.71 53.91,174.90 C51.83,173.86 71.12,171.73 73.72,181.66 C72.86,184.77 68.72,200.35 74.21,201.54 C79.12,194.80 81.46,173.58 82.02,170.78 C81.72,168.53 83.09,178.01 84.21,182.25 C74.66,184.41 90.91,178.72 90.07,182.96 C94.88,176.09 93.51,177.73 87.19,175.33 C87.93,174.92 93.58,193.34 86.73,186.32 C88.18,193.35 93.57,206.84 92.55,202.10 C87.70,196.19 97.34,166.48 96.50,168.83 C101.54,164.39 94.09,174.75 98.22,185.96 C90.92,189.89 92.69,189.86 92.22,200.26 C95.34,195.10 95.07,188.27 110.42,187.57 C99.95,192.22 111.27,182.09 115.83,180.50 C109.31,181.22 115.80,172.88 104.41,176.83 C100.46,180.54 107.67,182.19 99.51,185.66 C105.44,188.11 111.20,193.02 115.68,191.17 C119.19,201.04 124.31,175.88 123.44,174.43 C128.63,177.05 124.36,170.93 114.74,180.54 C117.26,186.01 130.13,185.23 128.46,189.19 C135.21,197.37 131.45,200.25 128.47,198.52 C125.10,200.59 112.91,193.72 120.84,191.10 C117.95,189.66 134.16,179.95 136.00,177.62 C139.42,174.47 129.94,173.34 135.04,183.76 C138.39,180.52 136.67,196.34 139.99,195.86 C147.19,202.50 142.04,196.01 142.51,204.99 C132.63,196.27 132.76,197.77 138.97,192.76 C139.00,198.51 135.43,192.45 149.59,182.90 C144.15,180.10 150.53,182.19 157.92,185.40 C152.26,178.10 162.49,175.25 149.82,171.62 C156.23,173.83 153.19,174.63 142.45,180.72 C139.59,174.13 141.31,186.80 149.66,193.21 C152.01,203.59 146.80,199.86 148.06,199.87 C156.05,190.25 157.31,191.34 163.22,184.26" fill="none" stroke="black" stroke-width="0.35" style="mix-blend-mode: multiply;" />
<path d="M63.60,201.73 C58.72,201.62 61.03,200.02 50.73,191.14 C53.27,191.27 61.47,194.06 73.45,187.32 C65.97,194.91 74.34,209.81 69.02,212.60 C77.02,208.37 88.34,200.02 78.34,191.78 C80.14,187.92 82.26,192.11 83.47,197.61 C84.29,186.95 92.09,196.78 90.19,197.26 C88.06,199.55 87.35,195.99 95.01,192.35 C88.78,192.79 85.82,210.63 95.59,203.03 C85.08,204.30 95.21,208.26 99.02,216.29 C85.83,199.03 94.00,190.15 103.97,178.01 C104.78,177.40 91.85,192.71 87.29,203.54 C101.58,196.47 87.45,215.45 90.87,214.87 C99.51,210.01 97.87,197.31 95.71,206.80 C108.92,199.01 105.40,207.62 109.21,200.27 C118.08,192.56 114.79,186.25 101.43,191.21 C110.25,189.50 99.77,200.00 104.69,202.84 C97.96,197.54 110.44,219.86 106.27,209.17 C116.85,208.08 114.54,198.44 116.05,196.71 C130.23,190.93 124.32,189.53 117.04,191.19 C123.08,195.08 131.85,208.52 120.02,204.18 C131.65,215.71 118.70,209.28 118.03,217.05 C128.50,219.25 116.69,220.05 123.77,208.56 C122.68,205.21 138.67,201.99 129.29,188.68 C141.73,196.77 136.66,187.69 127.84,185.65 C140.83,200.66 138.91,209.00 144.84,214.10 C136.20,210.89 139.41,210.86 136.02,212.09 C141.54,206.39 139.25,205.31 141.09,209.15 C132.25,199.64 138.14,201.05 143.70,204.18 C152.21,195.34 158.28,200.70 157.56,204.62 C163.04,195.13 159.85,191.62 147.44,182.11 C156.35,186.67 153.32,180.49 153.77,183.34 C143.52,187.04 147.19,207.55 139.12,207.25 C154.88,210.51 151.88,210.88 160.48,208.75 C162.94,208.03 166.66,199.67 163.22,199.19" fill="none" stroke="black" stroke-width="0.35" style="mix-blend-mode: multiply;" />
<path d="M63.60,214.80 C67.25,219.46 54.27,217.23 61.28,207.80 C55.80,216.07 62.63,206.58 59.35,208.97 C72.00,209.46 73.63,218.38 81.10,224.85 C73.15,228.41 75.48,213.88 88.61,198.84 C93.31,190.45 78.21,195.92 71.98,209.24 C75.06,204.73 77.08,206.96 83.14,208.83 C89.42,214.90 96.71,211.25 96.34,202.36 C83.73,212.66 79.83,220.19 86.62,221.51 C80.60,216.00 99.94,229.72 92.86,219.96 C95.15,212.46 99.47,196.59 97.24,191.82 C93.78,192.92 102.09,209.11 88.11,206.66 C102.52,206.90 86.97,228.04 95.44,229.21 C97.80,220.54 93.47,210.36 96.67,215.69 C100.45,214.12 114.23,218.74 116.73,214.62 C119.65,217.06 110.49,208.10 115.78,202.76 C99.54,203.15 94.51,203.26 100.14,214.75 C98.90,219.70 97.98,229.82 116.94,233.54 C117.51,230.19 126.91,205.67 127.48,209.49 C115.71,207.01 112.87,201.97 113.39,198.76 C114.46,208.51 134.12,212.79 121.31,219.25 C123.45,215.45 122.33,232.96 124.13,225.96 C115.24,224.73 117.27,219.83 123.22,221.29 C113.31,222.24 131.04,201.84 144.52,203.03 C143.83,197.72 125.67,211.20 132.89,211.55 C131.46,209.87 145.50,214.11 132.73,226.40 C147.67,218.35 130.82,220.03 143.23,233.55 C136.97,230.58 129.99,227.79 134.56,226.39 C138.29,221.27 143.61,208.90 151.33,216.78 C146.13,205.19 153.58,211.57 157.45,208.37 C154.54,220.18 147.64,202.94 150.66,206.35 C161.37,206.84 152.21,206.19 150.24,205.42 C153.75,201.08 144.87,212.36 152.10,216.78 C147.00,216.19 148.10,234.09 149.57,219.98 C149.34,223.79 153.93,206.28 163.22,212.26" fill="none" stroke="black" stroke-width="0.35" style="mix-blend-mode: multiply;" />
<path d="M63.60,226.00 C65.41,220.09 48.70,218.14 53.25,212.01 C50.86,214.35 70.72,215.13 75.84,225.48 C66.75,229.10 61.27,230.56 71.70,239.04 C74.88,233.94 83.21,225.14 80.67,210.64 C83.97,206.10 83.58,223.76 74.33,211.26 C89.97,216.81 79.19,222.51 78.82,222.08 C89.43,214.14 92.30,217.25 91.54,220.47 C81.32,215.70 93.56,219.56 96.47,220.83 C85.39,235.37 90.14,236.80 96.73,226.61 C103.79,226.57 90.53,201.64 90.32,199.76 C93.51,204.50 102.04,222.14 89.00,216.30 C92.10,226.95 101.40,231.87 91.54,237.08 C99.22,230.58 108.50,238.84 100.10,232.77 C97.59,217.63 106.31,225.23 115.92,227.33 C117.89,216.46 104.40,213.35 107.15,224.73 C113.76,224.66 93.14,226.44 104.52,228.45 C103.69,224.70 101.80,246.72 110.96,238.56 C113.42,229.59 118.12,226.62 131.21,212.57 C132.29,206.23 111.85,219.89 129.45,209.53 C117.47,213.52 129.96,233.18 123.00,220.71 C133.71,231.31 131.97,243.42 122.79,240.82 C125.12,228.72 113.94,232.26 120.34,240.44 C118.23,230.53 126.66,227.81 129.81,213.70 C134.30,216.54 130.38,205.65 128.16,214.15 C124.32,226.50 134.72,227.26 131.95,235.54 C150.74,229.54 144.91,233.12 134.24,239.43 C136.56,229.43 130.56,228.56 139.85,233.35 C140.35,235.89 134.48,222.02 148.14,223.63 C154.02,222.32 155.40,220.68 159.81,234.20 C152.92,213.33 158.87,217.25 147.74,211.82 C160.53,202.32 147.51,202.99 150.04,207.37 C145.20,212.34 138.63,238.02 144.89,238.62 C142.16,238.71 149.96,231.97 159.43,230.82 C150.52,240.81 169.22,224.98 163.22,223.46" fill="none" stroke="black" stroke-width="0.35" style="mix-blend-mode: multiply;" />
<path d="M63.60,235.33 C60.25,236.74 50.90,229.22 57.54,240.34 C54.51,228.68 59.72,228.95 59.88,217.44 C77.26,232.96 78.54,245.83 78.12,250.20 C78.37,237.78 81.70,236.32 84.12,211.92 C91.81,211.78 82.09,221.16 84.37,230.21 C89.70,220.31 78.18,227.93 80.21,232.35 C84.36,234.11 90.72,229.35 78.59,228.04 C97.33,239.11 82.92,235.63 88.52,230.43 C82.03,237.25 100.02,245.71 88.11,238.25 C98.37,239.18 102.51,222.12 106.46,211.25 C100.77,211.90 93.23,224.02 104.89,231.03 C102.04,240.26 102.74,238.93 85.75,243.56 C96.82,252.47 102.90,239.05 102.28,242.24 C103.45,238.41 101.91,236.62 115.56,225.25 C111.11,241.42 115.85,226.66 107.08,233.94 C100.99,225.44 104.63,223.44 107.11,231.85 C95.55,237.18 98.64,252.88 113.71,251.51 C103.08,248.32 114.44,240.05 121.44,226.62 C117.16,232.18 112.28,232.43 117.45,219.78 C111.10,235.05 121.96,229.20 138.28,234.94 C138.28,236.19 115.40,252.66 128.04,250.30 C122.13,238.12 122.55,250.86 122.58,238.78 C118.64,233.99 132.57,229.58 128.57,235.68 C128.94,224.11 125.12,217.18 136.89,232.70 C134.01,231.80 131.19,233.05 138.56,235.29 C152.98,235.18 147.50,255.18 146.04,256.06 C135.48,246.33 134.27,254.61 130.10,236.81 C142.18,242.27 135.16,232.66 139.04,233.64 C157.75,231.94 161.00,233.44 152.81,239.36 C153.97,239.33 156.56,225.55 154.81,218.48 C146.56,219.25 149.71,221.17 145.25,235.06 C154.40,222.80 137.85,243.01 141.41,239.97 C148.16,250.18 145.73,241.01 156.40,238.32 C166.87,246.25 160.82,224.31 163.22,232.79" fill="none" stroke="black" stroke-width="0.35" style="mix-blend-mode: multiply;" />
<path d="M63.60,242.80 C72.03,241.69 50.22,242.82 50.60,244.51 C61.25,231.16 57.54,228.03 55.61,242.81 C60.53,227.33 72.63,248.21 66.96,253.23 C72.04,249.93 80.79,222.40 95.92,236.21 C95.57,233.14 75.12,232.32 89.20,245.86 C87.89,246.38 96.07,248.27 82.07,242.78 C99.94,231.87 97.39,243.32 89.99,229.48 C83.63,228.52 94.19,241.41 82.23,254.95 C93.97,238.11 91.58,258.95 97.06,248.47 C82.42,238.39 95.80,232.07 102.16,209.93 C108.55,208.72 87.40,222.12 100.36,230.40 C102.76,252.58 104.71,247.77 99.83,248.16 C89.70,260.17 92.69,242.83 109.87,253.50 C103.60,244.01 122.88,253.32 109.49,241.42 C124.05,247.57 116.95,224.96 118.77,222.27 C113.75,221.66 109.91,239.60 101.65,238.52 C91.29,234.49 104.99,261.42 108.24,260.93 C122.60,247.22 125.92,245.42 110.85,240.51 C130.10,231.07 129.36,240.73 116.24,236.63 C132.85,244.31 133.03,231.87 116.19,246.01 C134.21,243.58 131.17,250.92 130.90,245.08 C111.32,265.66 110.88,265.90 122.94,252.31 C133.87,248.48 137.59,226.94 140.24,223.18 C146.70,227.96 143.60,242.36 138.46,229.68 C132.35,238.84 140.61,252.91 153.35,249.31 C143.15,242.93 128.72,262.70 136.80,261.44 C128.81,253.66 127.68,247.64 133.98,259.41 C141.59,240.14 132.53,230.58 156.63,235.12 C145.37,240.45 153.03,242.84 164.97,233.01 C159.76,247.20 157.45,219.44 163.33,230.04 C161.83,226.51 157.40,218.79 144.22,232.84 C135.60,235.56 153.69,237.64 151.57,242.24 C149.69,245.10 140.75,262.88 145.07,253.77 C146.34,241.51 162.68,232.70 163.22,240.26" fill="none" stroke="black" stroke-width="0.35" style="mix-blend-mode: multiply;" />
<path d="M63.60,248.40 C69.61,237.10 52.94,239.60 53.20,249.93 C48.25,254.41 70.56,236.57 77.64,240.84 C56.34,236.08 60.93,247.87 83.49,270.31 C79.26,246.03 81.43,248.40 74.41,225.34 C82.56,228.92 72.02,239.64 79.83,248.84 C75.52,232.59 95.31,239.20 87.25,241.85 C85.64,254.76 89.05,228.15 100.22,238.98 C99.55,246.38 97.44,246.32 78.92,244.44 C76.31,250.96 83.61,259.10 100.03,263.12 C105.54,256.31 93.56,230.62 96.46,227.82 C109.64,211.64 100.35,233.87 104.44,248.18 C89.27,260.25 96.98,251.97 104.81,267.54 C89.53,254.48 98.58,247.23 94.77,252.81 C105.42,236.79 114.81,262.47 111.94,242.47 C125.45,242.19 100.69,243.56 118.65,241.79 C108.65,237.99 101.97,245.50 92.41,256.38 C94.14,256.27 113.49,260.44 103.63,260.75 C120.16,259.96 116.12,231.17 128.02,238.32 C124.96,227.88 121.30,245.08 132.37,235.70 C110.86,232.86 131.54,255.42 118.88,261.46 C124.74,263.72 131.66,270.50 123.88,266.52 C132.38,255.56 121.86,266.29 110.85,267.06 C109.40,240.94 122.78,246.91 134.42,228.40 C137.66,241.51 128.38,232.33 127.24,249.34 C125.04,236.44 135.50,256.72 129.80,264.95 C139.11,270.56 146.80,260.94 142.64,255.97 C131.77,261.99 129.21,266.05 143.50,247.34 C143.98,244.27 151.06,255.68 134.03,237.89 C138.42,240.53 150.64,239.95 145.40,254.53 C145.80,244.08 147.22,225.41 149.15,226.39 C156.15,230.60 150.96,228.92 137.90,238.58 C141.17,233.20 133.65,255.74 153.50,249.96 C146.72,269.74 146.40,255.69 145.31,254.74 C159.83,243.36 157.06,236.89 163.22,245.86" fill="none" stroke="black" stroke-width="0.35" style="mix-blend-mode: multiply;" />
<path d="M63.60,252.13 C63.75,246.51 58.78,250.17 70.85,253.92 C60.82,238.29 77.64,244.39 76.78,254.72 C62.01,244.95 65.25,251.07 64.67,257.70 C88.31,251.90 82.17,234.28 75.41,245.82 C81.08,231.82 88.15,229.13 71.85,240.28 C81.39,256.38 78.12,233.29 76.74,245.67 C99.09,246.22 84.72,240.58 84.36,252.08 C82.85,233.14 85.93,259.18 101.60,257.44 C96.36,259.54 99.17,252.56 97.01,262.62 C83.43,266.29 91.05,235.29 100.30,237.64 C93.45,234.47 82.01,244.53 104.09,242.71 C102.14,251.44 102.90,246.80 91.07,270.20 C99.01,254.63 92.31,247.37 97.66,265.21 C113.85,240.61 100.37,264.02 102.67,249.56 C123.40,263.68 98.59,251.02 117.27,246.81 C120.85,248.47 90.98,240.69 105.11,236.37 C107.90,257.93 104.35,261.83 117.68,263.58 C101.39,256.95 121.70,234.54 133.70,241.40 C134.19,234.19 123.23,252.40 117.22,231.25 C124.79,235.14 138.78,247.83 118.98,266.18 C122.60,265.70 137.97,252.11 137.23,250.20 C130.39,262.53 121.38,264.59 109.46,259.28 C116.96,256.70 144.93,244.64 133.09,253.11 C125.08,236.71 123.67,233.93 126.54,247.88 C146.88,235.92 144.28,243.94 153.79,270.15 C133.55,264.13 148.77,259.77 121.72,258.73 C122.56,257.82 122.11,250.70 128.27,270.22 C126.45,269.57 140.89,263.83 145.99,248.82 C154.08,236.73 150.47,263.75 143.79,259.47 C166.07,253.95 147.28,245.83 167.87,248.13 C150.86,242.87 134.39,237.73 143.62,241.86 C134.15,233.74 144.70,244.68 143.77,260.12 C159.27,265.51 154.41,270.91 157.54,254.75 C145.93,257.77 151.57,255.81 163.22,249.59" fill="none" stroke="black" stroke-width="0.35" style="mix-blend-mode: multiply;" /></g>
</svg>