<svg height="210mm" style="background:white" viewBox="0 0 297 210" width="297mm" xmlns="http://www.w3.org/2000/svg" xmlns:inkscape="http://www.inkscape.org/namespaces/inkscape">
<g inkscape:groupmode="layer" inkscape:label="peru">
<path d="M78,92 L133.46921,184.23083 M182,126 L228.42738,46.7095 M228,136 L105.188644,137.20764 M216,30 L184.18417,83.95081 L122.55345,83.38213 L92.722565,30.594624 M66,46 L23.383541,117.217094 M58,138 L87.9602,138.50485 L102.01774,163.82925 L87.62946,187.80817 L60.66884,187.35385 L51.456112,170.7573 M132,162 L146.49979,136.8014 M242,90 L244.3041,85.924805 M116,76 L118.36021,75.961945 M260,136 L146.18588,137.34692 M270,70 L260.58472,85.92057 M228,120 L209.16676,119.9779 M58,104 L85.194756,103.963005 M138,158 L148.14845,141.07033 L166.88434,141.37788 L170.66573,148.183 M262,166 L274.78885,143.51662 M156,56 L132.6987,55.666756 M88,168 L93.58088,177.88977 M268,112 L213.22382,112.94666 M234,122 L276.14948,121.65455 M234,142 L230.59125,136.34804 M60,76 L54.075306,65.92756 M152,176 L153.20413,176.0036 M210,72 L211.76894,75.159454 M146,98 L81.0822,97.12489 M220,154 L209.97443,136.59203 M266,78 L265.2723,77.99417 M174,48 L162.41194,68.07066 L140.2362,68.07045 L133.07822,55.672184 M222,120 L222.00409,119.992966 M180,24 L199.90771,57.28806 M234,70 L243.48706,85.92501 M270,142 L213.28885,142.34703 M110,112 L90.22892,112.33351 M252,58 L246.93298,66.81999 M206,144 L216.82199,163.06259 M70,92 L63.33029,103.992744 M108,82 L107.34629,81.9981 M104,154 L115.37295,154.14148 M196,148 L202.8069,136.67685 M268,68 L216.15535,67.66816 M268,22 L62.407944,20.059525 M98,116 L95.32092,120.80018 M212,100 L220.60622,100.15228 M88,52 L96.63513,37.518147 M150,142 L153.43182,148.01404 M72,98 L75.550354,103.97612 M38,74 L49.158524,74.14408 M52,42 L60.193066,55.704067 M142,40 L132.90196,55.669662 M52,30 L28.553904,30.15533 M208,140 L205.99756,136.63908 M114,142 L143.73764,141.60162 M250,82 L247.7366,85.92391 M126,184 L129.6128,177.81865 M170,178 L154.43169,178.17876 M226,42 L171.51202,136.55547 M100,154 L96.53012,153.94342 M34,182 L57.940056,182.438 M218,174 L212.9724,165.20547 M102,68 L99.18544,68.02912 M136,86 L168.61554,86.07866 L184.35728,113.49665 L170.9669,136.56082 M170,60 L177.78395,74.00299 M38,38 L54.093723,65.89678 M244,60 L228.56013,60.106094 M104,24 L101.314476,28.632793 M194,190 L194,190 M66,72 L101.681656,72.30192 M252,130 L248.34872,136.13788 M40,140 L43.024986,139.98378 M226,142 L222.76068,136.4407 M110,148 L110.806274,146.5483 M86,38 L81.49469,38.04971 M160,72 L157.62677,68.07062 M220,56 L218.95729,54.221523 M218,142 L214.96404,136.53297 M92,78 L103.66085,97.42926 M100,82 L97.23501,86.72256 M192,182 L202.18115,165.13264 M136,156 L135.73138,155.51538 M172,150 L172.70627,150.01015 M64,80 L77.990654,103.9728 M124,60 L135.27373,59.98767 M268,26 L180.74449,25.244873 M204,24 L203.1797,25.439032 M194,30 L215.91898,30.137386 M224,98 L221.87234,97.95798 M142,48 L146.5389,55.864693 M242,84 L206.34622,84.42058 M112,48 L102.57161,48.02309 M276,20 L276,20 M70,142 L67.857994,138.16612 M252,128 L247.48462,136.14812 M244,92 L225.50555,91.661285 M174,152 L173.91467,152.15137 M90,110 L109.11968,110.13837 L118.06598,125.896065 L115.626854,130.05101 M100,52 L88.139404,72.18733 M192,154 L185.72368,154.10356 M228,162 L217.3741,162.12103 M82,138 L91.109695,137.92494 M80,102 L78.813416,103.97168 M42,70 L51.534824,70.173004 M122,176 L128.53542,176.02724 M120,64 L111.5447,63.901505 M230,114 L226.63501,119.9984 M192,136 L220.57146,84.25277 M144,62 L140.53125,55.778774 M82,176 L95.43739,151.97488 M246,40 L262.24225,40.271397 M94,120 L84.36084,103.964134 M120,84 L152.20325,83.95795 M134,114 L124.96562,97.71645 M142,104 L147.13762,104.02758 M176,98 L167.94269,83.80095 M140,128 L155.31206,100.53426 M46,168 L64.99989,168.07277 M180,188 L150.46747,187.98805 L136.21121,163.27238 L149.03316,141.08485 M150,84 L156.42212,83.97606 M24,152 L36.11531,152.12575 M158,94 L154.20628,100.538895 M276,78 L259.92404,105.50431 L229.0666,105.339615 L223.37355,95.35626 M176,128 L175.96843,127.94598 M210,82 L218.47067,67.682976 M144,162 L139.83478,169.55444 M156,50 L173.0153,49.70551 M142,56 L140.6636,56.016144 M134,82 L133.12,83.47964 M176,188 L175.99904,187.99838 M172,48 L170.95874,49.741104 M168,22 L194.19835,66.96955 M132,126 L125.77505,137.0052 M198,140 L183.96507,139.98904 M196,162 L194.14835,165.07843 M254,184 L231.56029,143.4738 M208,156 L186.99155,156.33423 M146,190 L146,190 M98,112 L98.11833,112.200424 M144,172 L150.98053,172.0635 M40,86 L42.080235,85.97273 M264,66 L255.0234,65.92193 M52,52 L49.078472,57.20337 M212,46 L206.5594,46.008633 M222,70 L229.89627,84.14278 M78,40 L80.39477,40.04156 M50,70 L53.1925,64.33461 M248,90 L256.61887,105.48667 M116,84 L123.9252,97.70243 M166,160 L166.20786,159.64 M78,92 L78,92 M182,56 L184.94765,51.0907 M194,58 L175.96448,27.688957 M128,152 L137.68921,152.11295 M174,180 L193.2682,179.89893 M104,180 L98.30582,170.01538 M212,84 L212.20757,84.35143 M244,156 L241.15457,160.80112 M86,154 L71.24118,153.80428 M264,158 L274.20026,141.05962 M200,168 L201.68332,165.12929 M228,104 L228.15561,103.74209 M54,106 L73.46993,105.75515 L82.90609,121.634514 L82.35409,122.61899 M38,134 L27.690601,152.0383 M76,60 L95.33988,59.931763 M256,174 L248.52065,174.10426 M258,162 L246.56142,142.14343 M100,94 L101.59448,93.98628 M40,30 L86.17708,29.57042 M208,114 L215.74136,100.0662 M36,180 L41.09353,171.0375 M198,52 L196.74136,51.99355 M152,22 L193.93956,21.300982 M144,104 L154.35098,86.04426 M122,144 L120.81596,141.90869 M190,100 L191.27057,102.26756 M128,172 L141.16829,171.86633 M78,114 L73.19534,105.758606 M188,110 L187.41043,108.96624 M54,122 L63.199287,105.884315 M70,144 L90.88159,143.7677 M248,120 L249.06497,121.876526 M108,132 L111.00706,137.15042 M196,136 L193.98027,132.41342 M226,134 L194.69121,133.67587 M96,144 L73.78308,103.97852 M226,72 L223.58089,67.71569 M108,66 L126.43474,97.73626 M142,72 L135.2454,59.9877 M194,156 L186.87416,156.1277 M54,78 L104.55539,77.2209 M140,24 L163.9947,65.3293 M134,108 L130.69368,108.040695 M238,26 L181.38684,26.318962 M194,94 L190.19188,100.34244 M244,20 L244,20 M184,104 L190.24713,104.04357 M214,62 L211.59889,57.79458 M264,114 L262.862,112.0888 M52,46 L54.389175,45.996235 M130,168 L123.68215,167.95752 M90,178 L91.88204,174.87929 M246,90 L243.9844,86.49024 M206,66 L206.95163,66.01494 M206,94 L203.37386,89.496895 M124,40 L114.23168,39.949753 M108,60 L109.33453,59.99048 M112,82 L109.664696,85.966545 M130,52 L113.82517,52.245934 M196,68 L208.4932,46.005566 M120,146 L134.60585,171.93295 M154,162 L159.19821,153.26698 M150,96 L148.59648,96.02653 M228,50 L226.49187,50.015038 M258,24 L228.41342,24.233538 M42,52 L46.08045,52.00661 M46,104 L48.667202,108.831764 M240,128 L236.6032,121.97867 M114,102 L116.570404,97.60329 M274,90 L268.9981,89.979515 M32,122 L58.5998,77.929115 M90,92 L92.98528,97.285355 M198,164 L193.63004,156.2286 M136,92 L123.12751,92.04271 M148,166 L147.7764,166.38597 M52,74 L54.283943,77.99562 M196,40 L187.76353,26.283035 M164,92 L150.89911,92.03219 M166,92 L169.04836,86.8325 M174,56 L169.42747,55.919666 M110,130 L108.395035,132.6766 M222,168 L225.44237,162.02913 M200,28 L198.78264,30.029978 M246,174 L229.99028,146.29872 M44,44 L43.125805,45.554768 M136,148 L121.20096,148.13232 M138,46 L132.5395,55.39962 M230,148 L229.51576,147.15253 M116,126 L116.99056,127.72798 M184,188 L150.45987,187.97487 M108,40 L103.506935,48.020798 M146,42 L134.03784,21.44882 M154,62 L150.37613,55.91957 M216,142 L212.81044,136.55846 M88,154 L81.30009,153.93767 M166,160 L166,160 M128,116 L140.28601,116.01053 M276,162 L262.48285,184.965 L236.83595,184.74968 L236.44238,184.0546 M76,190 L76,190 M134,28 L101.45834,28.384613 M100,94 L100,94 M84,146 L82.728485,143.8584 M160,186 L149.41908,186.17049 M124,178 L125.11378,176.01297 M206,84 L195.10886,103.612175 M68,56 L83.78403,29.592682 M190,118 L183.76479,128.63496 M84,92 L89.97454,91.90527 M204,176 L211.62276,176.04143 M190,162 L179.58853,162.20514 M148,136 L147.56296,136.79095 M84,168 L94.38133,150.07242 M254,96 L248.25008,85.923775 M114,132 L108.82506,131.95947 M196,142 L194.79025,139.9975 M26,40 L39.239662,40.148823 M188,146 L181.16801,146.08847 M170,116 L146.45398,116.42329 M208,150 L208.70045,148.75677 M86,98 L85.53293,97.18489 M114,158 L117.67216,157.96446 M232,52 L228.03197,59.19158 M100,180 L103.96413,179.9371 M100,186 L103.553734,179.94362 M218,82 L219.26482,84.26819 M60,114 L58.550446,114.02834 M46,84 L50.302685,91.67588 M170,110 L175.61339,100.449234 M106,62 L94.180626,41.634567 M24,54 L35.959015,74.814575 M158,98 L156.83049,96.01578 M182,184 L147.80443,183.37122 M148,86 L146.1501,86.02448 M140,74 L131.97041,59.991283 M136,154 L124.507866,154.0038 M228,134 L220.1783,119.99082 M120,100 L128.91917,116.000786 M102,140 L97.87537,140.0374 M98,124 L104.96015,112.085014 M144,50 L143.58492,50.74623 M250,154 L243.1298,142.16443 M140,108 L144.88147,107.97341 M194,44 L200.7029,55.93965 M140,52 L142.26974,55.803635 M174,82 L185.39604,81.89584 M50,182 L53.930428,175.21474 M96,178 L94.77328,175.90257 M212,20 L212,20 M58,154 L54.46191,160.34607 M130,90 L126.42325,83.991615 M82,104 L82.15189,104.25738 M198,84 L199.8999,87.292694 M118,152 L109.20833,137.1681 M172,98 L167.25322,89.87556 M162,110 L149.96706,110.12175 M122,164 L121.29549,163.98912 M180,144 L184.1035,136.8982 M242,34 L249.34427,33.916462 M58,44 L49.630394,30.0157 M160,104 L167.23288,116.04974 M182,72 L176.63661,71.93898 M130,42 L127.329025,46.65642 M208,140 L208,140 M212,116 L211.45943,116.00449 M116,94 L110.57347,84.42298 M134,82 L134,82 M52,38 L54.387974,37.96487 M250,134 L251.23616,136.10371 M108,74 L110.36356,70.06899 M128,104 L124.38366,97.70861 M108,68 L108.57977,66.99811 M88,38 L96.38749,37.933468 M238,106 L234.28583,112.58266 M76,68 L78.16928,71.840416 M222,44 L207.58687,44.266346 M232,98 L236.07355,105.377014 M96,156 L94.545296,153.5699 M212,164 L214.68794,159.30356 M124,86 L121.862976,89.86576 M92,156 L94.94536,151.0885 M266,146 L268.30402,142.01038 M148,24 L143.93753,30.782148 M214,38 L217.6191,44.080956 M28,74 L31.769958,67.52355 M214,106 L217.30722,100.09391 M212,170 L208.07306,169.99449 M100,154 L100,154 M134,112 L131.60799,108.02944 M96,152 L100.35079,144.29153 M176,160 L172.36087,159.97046 M76,126 L68.86172,138.18303 M74,142 L71.883385,138.23395 M160,168 L160.62086,168.00096 M104,118 L106.127106,114.24319 M110,158 L111.17554,158.00821 M246,54 L261.9919,53.84826 M90,38 L93.18049,43.311886 M30,106 L30.094952,106.00154 M182,138 L173.84183,152.0223 M80,116 L80.45521,115.99767 M50,142 L51.4921,144.69319 M186,60 L190.12552,59.978516 M40,28 L41.09788,29.989786 M68,98 L71.54877,103.98157 M114,84 L121.6469,97.671715 M226,152 L231.4147,142.23611 M46,60 L39.021393,72.480385 M42,120 L53.709305,139.48312 M242,52 L262.85486,52.353073 M184,40 L183.28433,39.99093 M166,92 L166,92 M58,100 L66.940636,85.038734 M170,50 L169.86006,49.76012 M138,54 L133.86531,54.010494 M164,84 L162.81358,86.06467 M208,78 L210.0881,78.03004 M246,132 L226.84848,131.93756 M32,62 L37.83804,72.49186 M122,144 L122,144 M270,132 L264.26245,142.03511 M80,112 L75.401825,103.976326 M210,136 L208.72139,133.82112 M116,78 L115.49665,78.90583 M172,158 L171.24141,157.98683 M200,52 L201.50359,54.581886 M168,102 L154.52338,101.948944 M124,160 L118.91717,160.03459 M108,84 L111.50154,89.81206 M186,160 L187.22542,162.05467 M50,62 L45.545918,70.06434 M78,108 L79.98596,108.03846 M80,102 L80,102 M84,164 L67.25187,164.1155 M96,186 L92.41482,179.83308 M124,66 L116.18677,52.210026 M140,140 L110.93741,140.08513 M64,82 L66.335686,86.05106 M264,132 L250.83107,131.96501 M226,62 L219.3987,62.129055 M210,122 L209.01889,120.23417 M36,98 L46.524097,97.936295 M148,26 L144.6422,31.995888 M194,112 L190.15616,112.07059 M174,36 L183.75511,53.076874 M216,68 L218.25757,68.04316 M78,154 L83.94019,164.00041 M240,126 L237.69899,121.96968 M36,54 L47.168736,53.89304 M144,138 L141.85448,141.62685 M104,66 L91.815575,65.93031 M200,140 L191.7719,154.00377 M126,68 L136.61641,68.09686 M200,164 L195.56062,156.19789 M104,144 L109.243706,143.95015 M208,46 L207.99617,46.00635 M140,130 L132.28874,129.99718 M226,96 L224.88338,98.0039 M72,104 L70.92971,105.7871 M180,122 L177.61037,125.97273 M202,44 L207.79982,43.90524 M60,118 L80.87672,118.21945 M224,128 L219.35193,119.98985 M48,62 L43.466145,53.9285 M52,90 L58.00884,99.98521 M54,164 L53.1349,165.55058 M154,160 L152.50195,157.3692 M196,116 L195.23502,116.00143 M32,76 L34.345802,72.00679 M218,32 L214.78748,32.056107 M198,54 L199.60518,53.984344 M166,136 L166.33588,136.60635 M102,40 L105.057304,45.25315 M86,130 L79.2523,118.20238 M42,22 L134.30675,21.910797 M242,158 L239.61743,158.02502 M174,26 L170.37155,26.070778 M160,84 L161.19928,86.060776 M100,36 L95.76558,35.979416 M138,92 L134.53462,97.84544 M230,70 L224.82538,69.91971 M64,94 L68.89056,93.99488 M100,162 L100.99575,161.98816 M78,172 L84.2425,171.99057 M254,72 L256.3352,67.92534 M138,170 L139.04326,168.18224 M138,24 L136.78062,26.160967 M250,102 L234.24432,102.064354 M58,184 L58.406326,183.27798 M138,42 L140.84013,41.997646 M274,128 L270.44156,121.70133 M206,30 L205.95518,30.074934 M134,42 L129.97513,42.043373 M40,102 L44.102253,101.94884 M120,112 L110.14406,111.942665 M150,32 L144.66742,32.03932 M76,74 L58.982677,74.27047 M32,76 L32,76 M104,90 L108.052246,83.20649 M30,76 L32.719772,80.552895 M140,120 L142.38579,119.98751 M84,154 L83.984825,153.97328 M224,42 L216.43243,42.087093 M104,96 L107.951485,96.034454 M64,136 L74.491554,118.15233 M74,108 L62.07303,107.85734 M100,92 L89.96284,91.88445 M44,64 L46.52689,68.28824 M94,110 L93.98375,110.02883 M110,104 L113.7576,97.56537 M266,50 L264.2121,50.001556 M164,66 L170.026,55.93018 M102,134 L107.8609,143.96329 M154,158 L156.38187,157.99846 M270,142 L270,142 M256,108 L236.74689,108.2209 M240,42 L233.57176,41.87654 M68,180 L77.24579,164.04657 M244,36 L230.31528,36.104088 M216,136 L209.93361,135.88687 M180,162 L179.47264,161.99979 M198,44 L202.9297,43.98481 M148,150 L143.90576,149.95747 M104,96 L104,96 M190,56 L187.80785,56.000217 M78,50 L78.7874,51.38266 M268,140 L265.43262,139.98848 M132,38 L127.1897,46.42262 M174,38 L183.32298,53.79657 M82,156 L79.18999,156.00336 M140,104 L142.28653,107.98755 M56,126 L50.916573,134.83629 M212,126 L197.67628,125.71939 M182,92 L192.3549,91.834496 M210,70 L209.93338,69.88115 M46,164 L42.972958,163.96487 M112,134 L109.178566,134.01863 M202,84 L201.89717,83.826744 M134,64 L131.61691,59.991673 M62,114 L50.45353,134.06583 M232,92 L237.91411,102.04936 M66,132 L52.56003,131.97954 M174,122 L179.47495,121.906204 M62,98 L59.188057,98.01191 M120,40 L127.22497,52.042194 M92,90 L95.6079,84.01147 M242,48 L244.32962,52.03944 M224,24 L228.23239,23.923748 M150,160 L144.19194,149.96043 M210,114 L208.00632,113.98863 M276,124 L271.78024,124.07088 M132,54 L132.66583,55.18215 M188,174 L175.23355,173.99513 M30,160 L34.61987,159.98439 M202,50 L200.43839,52.75278 M226,44 L225.41905,43.00815 M182,158 L179.65367,161.99986 M162,142 L158.40958,148.06284 M84,190 L84,190 M114,176 L101.8143,176.16743 M192,94 L191.13802,93.98701 M236,34 L229.17294,34.07918 M268,42 L263.19476,41.920677 M210,24 L209.1034,25.490297 M26,32 L30.527603,40.050896 M82,76 L81.074066,77.58277 M248,124 L249.23198,121.87516 M52,64 L53.008125,64.015015 M226,66 L228.98148,60.835648 M140,114 L130.21242,97.78718 M128,92 L128.01535,92.02649 M48,62 L48,62 M232,80 L227.572,79.97984 M136,180 L140.68414,171.87125 M110,24 L103.9341,24.113695 M60,106 L59.956364,105.925095 M268,32 L257.39316,31.87526 M230,104 L230.74855,105.348595 M182,136 L171.76057,136.12415 M78,56 L80.37368,59.98457 M64,166 L65.08169,167.92903 M110,64 L117.1588,75.981316 M210,80 L216.7382,68.014114 M226,100 L220.7383,99.92339 M182,126 L182,126 M96,128 L97.79679,124.9169 M132,78 L135.07065,83.497635 M68,188 L23.711039,188.0051 M82,104 L82,104 M94,182 L93.675995,182.00246 M96,56 L96.82191,57.40928 M32,108 L37.624363,97.990166 M138,184 L133.38083,184.0839 M252,176 L253.17174,174.03943 M196,24 L168.90178,23.547913 M142,182 L138.45035,175.74771 M174,98 L174.73636,96.73952 M194,148 L189.46474,139.99333 M148,60 L145.58983,55.85112 M68,112 L76.91188,112.13356 M226,32 L214.83063,31.982937 M116,70 L115.492485,70.887344 M200,160 L197.68727,156.16406 M250,130 L250.44763,130.80128 M116,62 L118.8539,56.917377 M126,140 L127.746956,136.98581 M252,144 L247.57999,143.91159 M270,28 L255.06784,27.848948 M84,48 L90.64475,59.948326 M220,28 L217.74449,31.987389 M96,136 L98.30009,140.03355 M248,54 L251.10123,59.564465 M66,70 L63.682777,74.19577 M62,52 L57.975613,51.99506 M108,164 L114.75334,164.12027 M106,66 L98.05102,66.08732 M102,38 L99.45799,42.51336 M42,90 L37.444775,97.99126 M222,134 L220.79828,136.07082 M262,58 L259.58636,58.016087 M116,54 L112.83818,54.033268 M28,94 L40.017162,74.02605 M168,156 L157.54788,156.03954 M164,94 L169.63892,93.95885 M70,104 L70.00911,103.98366 M70,126 L63.09264,138.08582 M54,150 L57.186165,155.45973 M68,78 L75.150826,90.05895 M84,96 L92.24427,95.973404 M30,62 L40.74071,42.750732 M154,92 L157.39139,86.05159 M92,146 L92.120026,145.99872 M28,132 L34.845825,131.90903 M114,160 L110.66109,154.08286 M140,102 L145.12628,102.04626 M124,110 L116.725945,97.60538 M84,28 L84.89591,29.582338 M124,112 L126.71414,112.045006 M196,54 L191.6046,53.97421 M150,102 L150.81837,100.55308 M226,172 L222.91554,166.41196 M72,64 L71.26534,63.985725 M200,174 L198.4848,171.25645 M98,166 L87.66071,165.87904 M94,172 L90.22599,171.94463 M108,52 L106.41695,54.827637 M198,82 L197.91408,82.00109 M120,28 L119.90402,28.166601 M36,142 L41.828484,142.08632 M116,124 L108.90448,112.01848 M118,136 L117.376724,137.08778 M200,36 L204.78505,43.9545 M116,106 L86.41846,105.997696 M164,120 L161.70433,116.14913 M190,112 L190.09682,112.17194 M182,154 L177.3718,145.95496 M224,146 L221.93654,142.29411 M132,72 L116.275314,72.27261 M210,64 L208.1086,63.968403 M44,122 L54.02296,121.95977 M250,100 L251.85204,96.92146 M140,24 L140,24 M140,108 L140,108 M210,96 L187.40988,136.39914 M170,128 L179.01042,111.81594 M84,184 L74.88061,168.12766 M72,92 L70.83088,90.00951 M100,86 L104.84184,77.71122 M184,156 L185.41081,153.55313 M30,176 L35.990074,175.98288 M222,116 L220.13683,112.82719 M128,56 L125.659225,59.998184 M144,100 L145.13965,102.02306 M54,132 L66.32832,132.03918 M200,64 L199.1219,62.503845 M40,176 L42.011414,172.60469 M232,142 L228.79868,136.36925 M70,116 L68.7758,118.09225 M54,36 L53.62175,36.68463 M110,22 L99.61071,21.944326 M196,190 L196,190 M40,138 L52.689705,137.7866 M208,166 L208.48302,165.17517 M228,50 L228,50 M28,38 L29.14819,40.03539 M136,28 L152.47417,55.949574 M108,58 L109.189026,59.991516 M190,70 L191.17023,72.1044 M256,104 L245.7774,85.924416 M54,180 L55.31879,177.71584 M160,48 L161.13628,49.911106 M94,132 L94,132 M246,142 L216.1237,142.32968 M180,94 L185.73643,104.012115 M186,86 L195.69754,85.92184 M58,114 L62.795223,105.8894 M180,48 L179.90099,47.99844 M206,160 L210.68275,152.24852 M252,48 L247.56012,40.02607 M230,38 L230.69377,36.77499 M260,150 L251.00116,149.8505 M62,28 L63.07458,29.78534 M144,74 L159.48515,74.25616 M108,82 L108,82 M30,96 L36.09557,95.97381 M100,80 L93.14246,79.90357 M64,64 L71.29958,63.928352 M52,180 L51.58305,179.26712 M40,168 L33.5979,156.54945 M144,128 L149.2275,136.7746 M208,88 L210.18501,84.37529 M146,128 L152.92226,116.30701 M80,42 L92.414444,42.032475 M224,138 L223.67262,138.00578 M138,36 L113.32721,35.60373 M142,30 L143.46764,29.972765 M202,58 L201.68228,57.99628 M64,112 L59.73464,111.95383 M138,140 L139.73586,136.86792 M86,30 L90.79802,37.977806 M42,134 L44.315575,137.92743 M82,180 L92.37795,179.89452 M232,172 L216.88896,172.05652 M100,122 L99.168015,122.00049 M82,170 L93.87742,149.16461 M246,160 L256.97067,160.21318 M180,54 L190.86142,72.62805 M228,170 L238.80704,169.99854 M72,124 L64.184685,138.10422 M94,26 L95.53103,28.743023 M270,174 L269.48355,173.07115 M192,86 L193.84422,89.20011 M152,136 L152.42412,136.74316 M266,80 L262.51694,85.920074 M176,106 L180.04121,105.97918 M228,134 L228,134 M86,66 L82.619865,71.77058 M118,62 L121.72782,61.98972 M266,150 L256.0247,149.93396 M176,32 L178.54869,32.03205 M58,150 L63.007484,150.02765 M70,20 L70,20 M88,48 L84.38725,42.01148 M78,74 L102.78177,74.18499 M150,92 L150.46243,92.7897 M220,34 L213.6014,34.067383 M116,116 L128.78795,115.76536 M136,152 L137.7675,151.9769 M172,178 L172.87177,177.99478 M216,154 L218.99263,159.36084 M60,48 L57.790733,51.68583 M214,64 L193.39317,98.584114 M168,142 L165.11472,137.12291 M88,184 L90.307594,179.91556 M220,88 L219.24142,86.66168 M204,84 L203.03806,82.39725 M90,146 L85.31842,153.97505 M256,126 L259.46808,131.98796 M276,24 L265.8383,41.964314 M120,114 L121.07655,115.90685 M110,22 L110,22 M134,104 L140.0187,104.03263 M76,98 L75.25871,99.291664 M42,134 L42,134 M240,30 L218.674,30.344172 M186,102 L191.17773,102.10188 M152,114 L150.65636,116.34774 M248,86 L247.95566,85.92385 M156,76 L155.97116,76.05007 M108,50 L111.53802,56.38773 M252,98 L249.58676,102.001686 M222,108 L226.32912,100.53916 M82,100 L84.19948,103.964355 M264,110 L262.78754,112.09008 M254,76 L256.3808,72.01463 M228,72 L229.1584,69.98694 M96,184 L101.170334,184.00548 M242,168 L242.53685,168.00778 M84,138 L84.250244,138.44234 M66,74 L73.35022,74.042114 M86,162 L81.539604,153.94086 M132,50 L135.67896,49.995407 M214,80 L221.35567,67.70145 M110,160 L111.126656,158.00786 M200,68 L196.04185,74.97012 M46,60 L46,60 M168,106 L171.10788,100.4681 M232,138 L231.80145,138.35464 M182,76 L179.73984,71.97429 M238,74 L237.20018,75.371826 M230,68 L238.9305,84.03621 M210,38 L210.63683,39.094444 M94,184 L90.51785,184.01357 M92,86 L94.41561,85.99048 M162,128 L155.48047,116.26102 M200,94 L209.45496,78.02093 M134,160 L147.55023,137.33076 M268,76 L262.1889,85.92016 M28,158 L38.260582,176.02231 M62,106 L62.36319,106.62013 M38,72 L38.27414,72.48763 M238,180 L232.45753,169.99939 M172,150 L172,150 M198,180 L193.19171,180.02567 M140,62 L136.73332,62.003155 M80,174 L83.08479,174.06047 M118,72 L118.13424,72.24038 M170,140 L166.84177,140.0422 M26,136 L28.213205,131.99716 M70,70 L56.336792,69.77226 M172,106 L175.268,100.450676 M132,184 L129.05742,178.76888 M98,46 L97.37327,47.135666 M272,88 L270.1398,88.02619 M168,142 L168,142 M106,166 L99.208496,153.98709 M72,170 L73.78079,170.02536 M142,186 L121.39623,185.74939 M180,110 L181.06679,111.79072 M116,22 L119.574036,28.170502 M142,144 L142.18246,144.30429 M126,144 L128.39789,148.06798 M108,148 L109.830345,144.92557 M120,170 L124.93407,170.03912 M138,132 L136.8322,129.99884 M54,136 L56.219692,132.00705 M212,104 L212.78067,105.3952 M156,180 L145.96765,180.18684 M36,98 L36,98 M198,56 L199.34798,58.237206 M206,188 L149.99438,187.16788 M206,140 L218.2149,160.68715 M46,28 L44.825024,29.955112 M156,148 L152.20876,141.13698 M186,168 L178.81216,167.93478 M86,164 L94.109436,149.5826 M234,182 L252.91676,182.04367 M104,44 L104.89643,45.540337 M68,106 L73.39098,106.09419 M174,98 L174,98 M138,138 L139.09833,138.01825 M176,120 L174.80333,121.98624 M116,58 L117.71686,54.91056 M212,174 L215.04974,168.83926 M248,70 L236.09799,70.04866 M186,78 L187.68478,78.01476 M46,140 L63.111645,139.92393 M128,66 L129.1945,68.029144 M262,64 L260.82947,65.97243 M64,114 L66.41811,118.06747 M260,116 L257.76868,112.17682 M274,70 L263.54074,51.16475 M192,100 L190.39563,100.00309 M110,136 L110.166565,135.71085 M42,76 L43.16174,74.06665 M196,172 L176.36755,172.07472 M34,124 L39.896942,114.00408 M66,110 L64.824905,107.89025 M56,104 L49.61789,92.810455 M240,32 L237.58958,36.04876 M78,88 L73.924774,87.99137 M162,100 L157.22119,92.016655 M102,34 L98.284775,40.43728 M60,88 L62.55894,92.37106 M240,24 L239.91824,24.142725 M44,100 L42.859573,97.95847 M126,66 L123.99645,65.99374 M160,96 L157.70781,92.015465 M252,142 L255.41566,136.05426 M204,90 L203.83067,90.28021 M226,100 L226,100 M142,92 L145.42503,86.02273 M48,24 L110.9605,23.62291 M180,142 L180.57524,143.00444 M42,100 L43.141567,101.960815 M82,52 L86.2142,51.981495 M206,184 L198.56575,171.12236 M70,162 L74.672295,153.84978 M90,70 L100.33233,69.99226 M142,22 L140.42691,24.73533 M238,92 L244.03004,102.02438 M124,118 L120.34622,124.24688 M232,158 L227.63167,150.54257 M190,102 L184.19168,91.96497 M188,148 L193.95082,147.91318 M30,142 L33.429226,141.99747 M174,158 L177.23523,158.03523 M166,178 L154.3546,178.04218 M94,104 L97.76064,97.349724 M154,188 L153.19098,188.01158 M170,138 L183.58336,137.79839 M176,74 L175.98453,74.027885 M154,56 L155.76999,55.99671 M38,54 L43.511112,54.008556 M118,32 L138.16675,31.676052 M120,56 L125.58407,65.9987 M234,38 L232.66118,40.262432 M114,164 L104.85291,163.97102 M130,90 L130,90 M210,58 L210.75381,59.289394 M228,46 L223.65242,46.073864 M96,172 L92.52259,165.93593 M208,30 L218.89366,29.955837 M246,66 L232.08249,66.20503 M228,140 L224.83711,140.00426 M186,102 L186,102 M84,158 L83.7863,158.00024 M268,56 L266.21744,55.98502 M104,72 L101.501945,71.9943 M188,126 L185.32855,125.96776 M260,148 L256.53024,142.08243 M136,70 L128.06384,83.43298 M72,182 L82.78984,181.89372 M186,70 L182.44193,76.1608 M212,52 L205.03522,52.093372 M230,58 L228.73523,60.104893 M180,118 L177.7503,114.07929 M242,106 L237.95763,106.0751 M192,42 L197.88693,51.99942 M74,184 L89.897316,184.02866 M216,168 L219.53564,162.0964 M92,128 L96.04449,127.92367" fill="none" stroke="peru" stroke-width="0.2"/>
</g>
<g inkscape:groupmode="layer" inkscape:label="firebrick">
<path d="M44,176 L33.110107,157.40663 L43.2729,139.54814 L62.82022,139.42636 L72.193954,155.43106 L63.51495,170.68217 L46.96757,170.78526 L39.10999,157.36925 L46.305214,144.7255 L59.85265,144.6411 L66.19408,155.46843 L60.48264,165.5048 L49.935143,165.57051 L45.109875,157.33186 L49.337524,149.90286 L56.88508,149.85583 L60.19419,155.50581 L57.450325,160.32745 L52.902714,160.35577 L51.109756,157.2945 L52.36984,155.08023 L53.917507,155.07059 L54.19431,155.54318 M152,148 L171.68073,148.19296 L180.8625,164.46255 L171.87196,179.68794 L155.1911,179.52438 L147.48378,165.86745 L154.94891,153.22531 L168.62993,153.35945 L174.8628,164.40373 L168.92305,174.46262 L158.2419,174.3579 L153.48349,165.92627 L157.89783,158.45062 L165.57913,158.52594 L168.86308,164.34491 L165.97414,169.2373 L161.2927,169.1914 L159.4832,165.98509 L160.84674,163.67595 L162.52834,163.69243 L162.86337,164.28609 M76,48 L86.539345,28.914398 L107.337814,28.517992 L117.563934,45.475452 L109.442764,60.182003 M208,122 L228.81322,85.928825 L269.45837,85.91827 M144,76 L183.20021,76.16397 L185.94518,80.964645 M178,74 L143.90544,74.47171 L126.96157,46.03983 M82,122 L93.185684,141.55405 L91.37641,144.6591 M98,66 L111.703995,89.457214 L107.129036,97.47601 M246,182 L227.39813,150.96277 L232.251,142.231 M228,144 L215.5552,165.22292 L191.9532,165.06361 L180.7843,145.4134 L185.7892,136.87823 M254,26 L266.03635,46.84084 L254.50569,66.81894 L232.43881,66.822014 L224.5991,53.24759 M162,84 L139.39088,83.902954 L139.18086,83.53556 M130,134 L149.1202,100.560196 L176.86325,100.444 M68,72 L87.79356,71.68939 L88.09131,72.18692 M118,134 L105.19999,112.70045 L105.546555,112.07513 M40,40 L49.321903,56.565655 L49.012245,57.088573 M190,96 L214.91553,51.927906 L220.30714,51.879066 M260,72 L237.28865,72.091805 L234.78023,67.78737 M178,22 L226.95767,21.742449 L229.24974,25.664648 M30,140 L50.60961,105.58856 L66.48557,105.84299 M110,156 L119.78929,172.72331 L110.69593,188.69373 L93.318436,188.79787 L90.2159,183.49771 M210,90 L188.07854,128.60411 L176.04443,128.69019 M236,56 L249.91086,32.978798 L258.12515,33.142693 M244,184 L216.41162,184.19933 L205.23111,165.15323 M70,90 L89.02584,90.217766 L92.999275,97.28554 M150,188 L122.45918,187.64632 L116.9204,177.76186 M36,176 L26.466248,159.55415 L30.76948,152.07027 M106,154 L79.62367,108.67092 L82.31828,103.96691 M24,96 L37.26704,72.4974 L50.219063,72.371796 M164,130 L174.16994,111.87532 L183.36168,111.762566 M42,28 L66.02948,27.911264 L67.09893,29.747902 M94,132 L81.004234,109.13179 L84.03472,103.96458 M22,64 L31.517223,80.9632 L22.095892,96.827156 M148,110 L138.4843,126.92813 L134.01416,126.97952 M196,76 L208.01987,55.803417 L212.6896,55.865257 M228,32 L238.28473,50.23078 L232.46712,60.07925 M82,46 L70.31749,65.57383 L54.42485,65.34343 M208,104 L217.67703,87.64899 L218.69025,87.65993 M80,22 L110.139244,22.180553 L113.590126,28.241226 M92,108 L112.684326,108.33618 L114.70385,111.96919 M206,58 L196.20422,74.97011 L189.47993,74.97068 M126,134 L113.6838,112.753784 L114.13685,111.9659 M24,138 L37.49721,114.029915 L45.60622,113.94262 M174,88 L183.434,105.00423 L181.41364,108.36958 M216,188 L153.19397,188.01675 L153.17802,187.98915 M204,184 L164.49948,184.35179 L164.09819,183.67082 M46,36 L56.33452,53.387478 L51.673645,61.701828 M20,20 L277,20 L277,190 L20,190 L20,20" fill="none" stroke="firebrick" stroke-width="0.2"/>
<g inkscape:groupmode="layer" inkscape:label="signature">
<path d="m 15.815664,12.893319 c -1.445284,-3.0999497 -5.555449,-0.3575 -5.08537,2.32203 1.697826,2.92736 4.504013,-3.54417 4.40859,-2.58178 -1.548999,2.22986 0.741131,6.08701 3.012419,3.25791 2.532153,-2.82358 0.259001,-7.8326797 -3.488671,-7.9011197 -3.217272,0.056 -5.8863857,2.4603197 -7.9308737,4.7238797 -2.354585,2.46752 0.0048,5.887 2.757763,6.62143 3.2195457,1.10867 6.8759417,1.30834 9.9459317,-0.36585 2.270396,-1.12373 5.025949,-2.62031 5.680576,-5.20027 -2.108811,-3.66096 -6.038415,1.28356 -3.842036,3.67822 1.07278,0.89979 4.586982,-2.27037 3.201668,-2.73503 0.03094,3.24357 1.226854,6.37852 1.337023,9.60311 -0.672198,3.54892 -7.469251,0.32096 -4.637082,-2.5164 2.158436,-2.4193 5.610472,-2.84094 8.202925,-4.57369 0.993877,-1.40371 0.353413,-5.25046 3.182464,-3.48957 2.142923,1.43516 -2.250898,5.7532 1.723416,5.02339 1.661189,-0.71663 6.494946,-1.40457 4.601401,-3.95236 -4.205319,-0.68052 -1.190571,5.86505 1.665411,3.46881 1.929752,-0.9247 2.778055,-4.05119 1.423645,-5.35034 0.479155,1.8589 3.849911,7.52574 4.880369,3.32696 0.21201,-1.28088 0.40468,-3.80204 1.01246,-1.23041 0.5858,2.6865 3.83412,4.91909 4.56937,1.07383 0.65272,-1.00894 -0.2696,-4.02739 0.99929,-1.35746 1.10974,2.31613 6.32001,1.46113 6.147,-1.13059 -1.98394,-2.13868 -5.3717,1.45205 -3.78252,3.73454 2.57741,0.96208 6.69797,-0.21041 7.06275,-3.33983 0.41287,-2.63769 0.26643,-5.3430297 -0.11178,-7.9756197 0.67418,3.94149 1.24889,7.9380497 2.39963,11.7713397 2.10586,1.67977 5.7434,1.65022 7.74596,-0.23639 3.03149,-1.85431 -0.26637,-4.76925 -2.71777,-4.54025 -2.11577,0.0793 -5.36257,2.40772 -5.16868,3.85604 2.08262,-2.38818 5.55759,-1.22628 8.30726,-1.6832 3.182,-0.26596 6.46546,-0.57372 9.54494,-1.18158 0.24171,0.4199 -0.27752,0.54338 -0.43067,0.17453" fill="none" stroke="firebrick" stroke-width="1" transform="translate(250,190) scale(0.3)"/>
</g>
</g>
</svg>