<svg viewBox="0 0 80 80" xmlns="http://www.w3.org/2000/svg">
<path d="M47.411854,2.411854 L47.588146,2.588146 M47.411854,2.588146 L47.588146,2.411854" fill="none" stroke="black" stroke-width="0.1"/>
<path d="M48.363647,2.3636477 L48.636353,2.6363523 M48.363647,2.6363523 L48.636353,2.3636477" fill="none" stroke="black" stroke-width="0.1"/>
<circle cx="49.5" cy="2.5" fill="none" r="0.10828471546675207" stroke="black" stroke-width="0.1"/>
<circle cx="45.5" cy="3.5" fill="none" r="0.5" stroke="black" stroke-width="0.1"/>
<circle cx="45.5" cy="3.5" fill="none" r="0.25" stroke="black" stroke-width="0.1"/>
<path d="M46.208572,3.208572 L46.791428,3.791428 M46.208572,3.791428 L46.791428,3.208572" fill="none" stroke="black" stroke-width="0.1"/>
<path d="M47.42554,3.4255416 L47.57446,3.5744584 M47.42554,3.5744584 L47.57446,3.4255416" fill="none" stroke="black" stroke-width="0.1"/>
<path d="M48.402237,3.402236 L48.597763,3.597764 M48.402237,3.597764 L48.597763,3.402236" fill="none" stroke="black" stroke-width="0.1"/>
<circle cx="49.5" cy="3.5" fill="none" r="0.16444191752060933" stroke="black" stroke-width="0.1"/>
<circle cx="45.5" cy="4.5" fill="none" r="0.5" stroke="black" stroke-width="0.1"/>
<circle cx="45.5" cy="4.5" fill="none" r="0.25" stroke="black" stroke-width="0.1"/>
<circle cx="46.5" cy="4.5" fill="none" r="0.5" stroke="black" stroke-width="0.1"/>
<circle cx="46.5" cy="4.5" fill="none" r="0.25" stroke="black" stroke-width="0.1"/>
<circle cx="47.5" cy="4.5" fill="none" r="0.13190755070745247" stroke="black" stroke-width="0.1"/>
<circle cx="48.5" cy="4.5" fill="none" r="0.15102632278420325" stroke="black" stroke-width="0.1"/>
<circle cx="21.5" cy="5.5" fill="none" r="0.5" stroke="black" stroke-width="0.1"/>
<circle cx="21.5" cy="5.5" fill="none" r="0.25" stroke="black" stroke-width="0.1"/>
<circle cx="22.5" cy="5.5" fill="none" r="0.5" stroke="black" stroke-width="0.1"/>
<circle cx="22.5" cy="5.5" fill="none" r="0.25" stroke="black" stroke-width="0.1"/>
<circle cx="45.5" cy="5.5" fill="none" r="0.15036922325743002" stroke="black" stroke-width="0.1"/>
<circle cx="46.5" cy="5.5" fill="none" r="0.11437986443847811" stroke="black" stroke-width="0.1"/>
<circle cx="47.5" cy="5.5" fill="none" r="0.1464892999637544" stroke="black" stroke-width="0.1"/>
<circle cx="74.5" cy="5.5" fill="none" r="0.5" stroke="black" stroke-width="0.1"/>
<circle cx="74.5" cy="5.5" fill="none" r="0.25" stroke="black" stroke-width="0.1"/>
<circle cx="75.5" cy="5.5" fill="none" r="0.5" stroke="black" stroke-width="0.1"/>
<circle cx="75.5" cy="5.5" fill="none" r="0.25" stroke="black" stroke-width="0.1"/>
<path d="M11.312155,6.312155 L11.687845,6.687845 M11.312155,6.687845 L11.687845,6.312155" fill="none" stroke="black" stroke-width="0.1"/>
<circle cx="21.5" cy="6.5" fill="none" r="0.5" stroke="black" stroke-width="0.1"/>
<circle cx="21.5" cy="6.5" fill="none" r="0.25" stroke="black" stroke-width="0.1"/>
<circle cx="22.5" cy="6.5" fill="none" r="0.5" stroke="black" stroke-width="0.1"/>
<circle cx="22.5" cy="6.5" fill="none" r="0.25" stroke="black" stroke-width="0.1"/>
<circle cx="48.5" cy="6.5" fill="none" r="0.15225398334161014" stroke="black" stroke-width="0.1"/>
<circle cx="49.5" cy="6.5" fill="none" r="0.5" stroke="black" stroke-width="0.1"/>
<circle cx="49.5" cy="6.5" fill="none" r="0.25" stroke="black" stroke-width="0.1"/>
<circle cx="50.5" cy="6.5" fill="none" r="0.5" stroke="black" stroke-width="0.1"/>
<circle cx="50.5" cy="6.5" fill="none" r="0.25" stroke="black" stroke-width="0.1"/>
<circle cx="74.5" cy="6.5" fill="none" r="0.5" stroke="black" stroke-width="0.1"/>
<circle cx="74.5" cy="6.5" fill="none" r="0.25" stroke="black" stroke-width="0.1"/>
<circle cx="75.5" cy="6.5" fill="none" r="0.5" stroke="black" stroke-width="0.1"/>
<circle cx="75.5" cy="6.5" fill="none" r="0.25" stroke="black" stroke-width="0.1"/>
<path d="M10.24976,7.24976 L10.75024,7.75024 M10.24976,7.75024 L10.75024,7.24976" fill="none" stroke="black" stroke-width="0.1"/>
<circle cx="11.5" cy="7.5" fill="none" r="0.5" stroke="black" stroke-width="0.1"/>
<circle cx="11.5" cy="7.5" fill="none" r="0.25" stroke="black" stroke-width="0.1"/>
<path d="M12.255404,7.2554045 L12.744596,7.7445955 M12.255404,7.7445955 L12.744596,7.2554045" fill="none" stroke="black" stroke-width="0.1"/>
<circle cx="47.5" cy="7.5" fill="none" r="0.150603062561745" stroke="black" stroke-width="0.1"/>
<circle cx="48.5" cy="7.5" fill="none" r="0.1448658254406008" stroke="black" stroke-width="0.1"/>
<circle cx="49.5" cy="7.5" fill="none" r="0.5" stroke="black" stroke-width="0.1"/>
<circle cx="49.5" cy="7.5" fill="none" r="0.25" stroke="black" stroke-width="0.1"/>
<circle cx="50.5" cy="7.5" fill="none" r="0.5" stroke="black" stroke-width="0.1"/>
<circle cx="50.5" cy="7.5" fill="none" r="0.25" stroke="black" stroke-width="0.1"/>
<circle cx="10.5" cy="8.5" fill="none" r="0.13151369890838635" stroke="black" stroke-width="0.1"/>
<path d="M11.256905,8.256905 L11.743095,8.743095 M11.256905,8.743095 L11.743095,8.256905" fill="none" stroke="black" stroke-width="0.1"/>
<circle cx="12.5" cy="8.5" fill="none" r="0.13123089987568343" stroke="black" stroke-width="0.1"/>
<circle cx="39.5" cy="8.5" fill="none" r="0.1336194160345979" stroke="black" stroke-width="0.1"/>
<path d="M48.41764,8.417639 L48.58236,8.582361 M48.41764,8.582361 L48.58236,8.417639" fill="none" stroke="black" stroke-width="0.1"/>
<path d="M8.268826,9.268826 L8.731174,9.731174 M8.268826,9.731174 L8.731174,9.268826" fill="none" stroke="black" stroke-width="0.1"/>
<circle cx="9.5" cy="9.5" fill="none" r="0.12799635645865118" stroke="black" stroke-width="0.1"/>
<circle cx="10.5" cy="9.5" fill="none" r="0.1186333264549299" stroke="black" stroke-width="0.1"/>
<circle cx="11.5" cy="9.5" fill="none" r="0.17208191316358115" stroke="black" stroke-width="0.1"/>
<circle cx="12.5" cy="9.5" fill="none" r="0.11771542108197312" stroke="black" stroke-width="0.1"/>
<circle cx="13.5" cy="9.5" fill="none" r="0.14493554877895903" stroke="black" stroke-width="0.1"/>
<path d="M14.262223,9.262223 L14.737777,9.737777 M14.262223,9.737777 L14.737777,9.262223" fill="none" stroke="black" stroke-width="0.1"/>
<path d="M30.28178,9.281781 L30.71822,9.718219 M30.28178,9.718219 L30.71822,9.281781" fill="none" stroke="black" stroke-width="0.1"/>
<circle cx="38.5" cy="9.5" fill="none" r="0.1487878818928872" stroke="black" stroke-width="0.1"/>
<circle cx="39.5" cy="9.5" fill="none" r="0.15325524483362174" stroke="black" stroke-width="0.1"/>
<path d="M40.359314,9.359312 L40.640686,9.640688 M40.359314,9.640688 L40.640686,9.359312" fill="none" stroke="black" stroke-width="0.1"/>
<path d="M41.325977,9.325976 L41.674023,9.674024 M41.325977,9.674024 L41.674023,9.325976" fill="none" stroke="black" stroke-width="0.1"/>
<circle cx="42.5" cy="9.5" fill="none" r="0.1449348110380395" stroke="black" stroke-width="0.1"/>
<circle cx="43.5" cy="9.5" fill="none" r="0.17324477901530871" stroke="black" stroke-width="0.1"/>
<circle cx="44.5" cy="9.5" fill="none" r="0.1402386070904185" stroke="black" stroke-width="0.1"/>
<circle cx="49.5" cy="9.5" fill="none" r="0.10561640561145097" stroke="black" stroke-width="0.1"/>
<circle cx="68.5" cy="9.5" fill="none" r="0.5" stroke="black" stroke-width="0.1"/>
<circle cx="68.5" cy="9.5" fill="none" r="0.25" stroke="black" stroke-width="0.1"/>
<circle cx="69.5" cy="9.5" fill="none" r="0.5" stroke="black" stroke-width="0.1"/>
<circle cx="69.5" cy="9.5" fill="none" r="0.25" stroke="black" stroke-width="0.1"/>
<path d="M7.336032,10.336032 L7.663968,10.663968 M7.336032,10.663968 L7.663968,10.336032" fill="none" stroke="black" stroke-width="0.1"/>
<circle cx="8.5" cy="10.5" fill="none" r="0.5" stroke="black" stroke-width="0.1"/>
<circle cx="8.5" cy="10.5" fill="none" r="0.25" stroke="black" stroke-width="0.1"/>
<path d="M9.273962,10.273962 L9.726038,10.726038 M9.273962,10.726038 L9.726038,10.273962" fill="none" stroke="black" stroke-width="0.1"/>
<circle cx="10.5" cy="10.5" fill="none" r="0.17832632708930718" stroke="black" stroke-width="0.1"/>
<circle cx="12.5" cy="10.5" fill="none" r="0.154928014145346" stroke="black" stroke-width="0.1"/>
<path d="M13.265659,10.265659 L13.734341,10.734341 M13.265659,10.734341 L13.734341,10.265659" fill="none" stroke="black" stroke-width="0.1"/>
<circle cx="14.5" cy="10.5" fill="none" r="0.5" stroke="black" stroke-width="0.1"/>
<circle cx="14.5" cy="10.5" fill="none" r="0.25" stroke="black" stroke-width="0.1"/>
<path d="M15.33603,10.33603 L15.66397,10.66397 M15.33603,10.66397 L15.66397,10.33603" fill="none" stroke="black" stroke-width="0.1"/>
<path d="M29.221909,10.221909 L29.778091,10.778091 M29.221909,10.778091 L29.778091,10.221909" fill="none" stroke="black" stroke-width="0.1"/>
<circle cx="30.5" cy="10.5" fill="none" r="0.5" stroke="black" stroke-width="0.1"/>
<circle cx="30.5" cy="10.5" fill="none" r="0.25" stroke="black" stroke-width="0.1"/>
<path d="M31.227226,10.227226 L31.772774,10.772774 M31.227226,10.772774 L31.772774,10.227226" fill="none" stroke="black" stroke-width="0.1"/>
<path d="M36.42627,10.426271 L36.57373,10.573729 M36.42627,10.573729 L36.57373,10.426271" fill="none" stroke="black" stroke-width="0.1"/>
<path d="M37.419895,10.419896 L37.580105,10.580104 M37.419895,10.580104 L37.580105,10.419896" fill="none" stroke="black" stroke-width="0.1"/>
<path d="M38.377876,10.377876 L38.622124,10.622124 M38.377876,10.622124 L38.622124,10.377876" fill="none" stroke="black" stroke-width="0.1"/>
<path d="M39.398567,10.398567 L39.601433,10.601433 M39.398567,10.601433 L39.601433,10.398567" fill="none" stroke="black" stroke-width="0.1"/>
<path d="M40.288284,10.288282 L40.711716,10.711718 M40.288284,10.711718 L40.711716,10.288282" fill="none" stroke="black" stroke-width="0.1"/>
<path d="M41.3336,10.333599 L41.6664,10.666401 M41.3336,10.666401 L41.6664,10.333599" fill="none" stroke="black" stroke-width="0.1"/>
<path d="M42.18366,10.183658 L42.81634,10.816342 M42.18366,10.816342 L42.81634,10.183658" fill="none" stroke="black" stroke-width="0.1"/>
<circle cx="43.5" cy="10.5" fill="none" r="0.19701625602114006" stroke="black" stroke-width="0.1"/>
<circle cx="44.5" cy="10.5" fill="none" r="0.19220134059634295" stroke="black" stroke-width="0.1"/>
<circle cx="45.5" cy="10.5" fill="none" r="0.11561523902666561" stroke="black" stroke-width="0.1"/>
<circle cx="68.5" cy="10.5" fill="none" r="0.5" stroke="black" stroke-width="0.1"/>
<circle cx="68.5" cy="10.5" fill="none" r="0.25" stroke="black" stroke-width="0.1"/>
<circle cx="69.5" cy="10.5" fill="none" r="0.5" stroke="black" stroke-width="0.1"/>
<circle cx="69.5" cy="10.5" fill="none" r="0.25" stroke="black" stroke-width="0.1"/>
<path d="M8.268826,11.268826 L8.731174,11.731174 M8.268826,11.731174 L8.731174,11.268826" fill="none" stroke="black" stroke-width="0.1"/>
<circle cx="9.5" cy="11.5" fill="none" r="0.11324635856366701" stroke="black" stroke-width="0.1"/>
<circle cx="10.5" cy="11.5" fill="none" r="0.11167936885704997" stroke="black" stroke-width="0.1"/>
<circle cx="11.5" cy="11.5" fill="none" r="0.19825210690378392" stroke="black" stroke-width="0.1"/>
<circle cx="12.5" cy="11.5" fill="none" r="0.13480280467091912" stroke="black" stroke-width="0.1"/>
<circle cx="13.5" cy="11.5" fill="none" r="0.132275882060352" stroke="black" stroke-width="0.1"/>
<path d="M14.268811,11.268811 L14.731189,11.731189 M14.268811,11.731189 L14.731189,11.268811" fill="none" stroke="black" stroke-width="0.1"/>
<path d="M30.275724,11.275725 L30.724276,11.724275 M30.275724,11.724275 L30.724276,11.275725" fill="none" stroke="black" stroke-width="0.1"/>
<path d="M36.40006,11.400058 L36.59994,11.599942 M36.40006,11.599942 L36.59994,11.400058" fill="none" stroke="black" stroke-width="0.1"/>
<path d="M37.389606,11.389605 L37.610394,11.610395 M37.389606,11.610395 L37.610394,11.389605" fill="none" stroke="black" stroke-width="0.1"/>
<circle cx="39.5" cy="11.5" fill="none" r="0.14029344471577343" stroke="black" stroke-width="0.1"/>
<circle cx="40.5" cy="11.5" fill="none" r="0.5" stroke="black" stroke-width="0.1"/>
<circle cx="40.5" cy="11.5" fill="none" r="0.25" stroke="black" stroke-width="0.1"/>
<path d="M41.228687,11.228686 L41.771313,11.771314 M41.228687,11.771314 L41.771313,11.228686" fill="none" stroke="black" stroke-width="0.1"/>
<path d="M42.236893,11.236895 L42.763107,11.763105 M42.236893,11.763105 L42.763107,11.236895" fill="none" stroke="black" stroke-width="0.1"/>
<path d="M43.428436,11.428435 L43.571564,11.571565 M43.428436,11.571565 L43.571564,11.428435" fill="none" stroke="black" stroke-width="0.1"/>
<circle cx="10.5" cy="12.5" fill="none" r="0.11324628508859753" stroke="black" stroke-width="0.1"/>
<path d="M11.268622,12.268622 L11.731378,12.731378 M11.268622,12.731378 L11.731378,12.268622" fill="none" stroke="black" stroke-width="0.1"/>
<circle cx="12.5" cy="12.5" fill="none" r="0.13701868430565375" stroke="black" stroke-width="0.1"/>
<circle cx="38.5" cy="12.5" fill="none" r="0.17899574448765412" stroke="black" stroke-width="0.1"/>
<path d="M41.281628,12.281628 L41.718372,12.718372 M41.281628,12.718372 L41.718372,12.281628" fill="none" stroke="black" stroke-width="0.1"/>
<path d="M42.36406,12.3640585 L42.63594,12.6359415 M42.36406,12.6359415 L42.63594,12.3640585" fill="none" stroke="black" stroke-width="0.1"/>
<circle cx="43.5" cy="12.5" fill="none" r="0.17049718474610256" stroke="black" stroke-width="0.1"/>
<circle cx="44.5" cy="12.5" fill="none" r="0.10732648006635594" stroke="black" stroke-width="0.1"/>
<path d="M10.268823,13.268823 L10.731177,13.731177 M10.268823,13.731177 L10.731177,13.268823" fill="none" stroke="black" stroke-width="0.1"/>
<circle cx="11.5" cy="13.5" fill="none" r="0.5" stroke="black" stroke-width="0.1"/>
<circle cx="11.5" cy="13.5" fill="none" r="0.25" stroke="black" stroke-width="0.1"/>
<path d="M12.268679,13.268679 L12.731321,13.731321 M12.268679,13.731321 L12.731321,13.268679" fill="none" stroke="black" stroke-width="0.1"/>
<circle cx="20.5" cy="13.5" fill="none" r="0.17960961373442672" stroke="black" stroke-width="0.1"/>
<circle cx="25.5" cy="13.5" fill="none" r="0.15634732340534718" stroke="black" stroke-width="0.1"/>
<circle cx="38.5" cy="13.5" fill="none" r="0.12451186383296416" stroke="black" stroke-width="0.1"/>
<circle cx="39.5" cy="13.5" fill="none" r="0.13220478568237198" stroke="black" stroke-width="0.1"/>
<circle cx="41.5" cy="13.5" fill="none" r="0.11395276951969055" stroke="black" stroke-width="0.1"/>
<path d="M11.335979,14.335979 L11.664021,14.664021 M11.335979,14.664021 L11.664021,14.335979" fill="none" stroke="black" stroke-width="0.1"/>
<path d="M16.255997,14.255997 L16.744003,14.744003 M16.255997,14.744003 L16.744003,14.255997" fill="none" stroke="black" stroke-width="0.1"/>
<path d="M17.314478,14.314479 L17.685522,14.685521 M17.314478,14.685521 L17.685522,14.314479" fill="none" stroke="black" stroke-width="0.1"/>
<circle cx="19.5" cy="14.5" fill="none" r="0.1417097650014752" stroke="black" stroke-width="0.1"/>
<circle cx="20.5" cy="14.5" fill="none" r="0.16320966869459838" stroke="black" stroke-width="0.1"/>
<path d="M23.376345,14.376345 L23.623655,14.623655 M23.376345,14.623655 L23.623655,14.376345" fill="none" stroke="black" stroke-width="0.1"/>
<circle cx="24.5" cy="14.5" fill="none" r="0.1679862404869382" stroke="black" stroke-width="0.1"/>
<path d="M25.430191,14.430191 L25.569809,14.569809 M25.430191,14.569809 L25.569809,14.430191" fill="none" stroke="black" stroke-width="0.1"/>
<circle cx="26.5" cy="14.5" fill="none" r="0.16638005717416224" stroke="black" stroke-width="0.1"/>
<circle cx="27.5" cy="14.5" fill="none" r="0.13256439262723516" stroke="black" stroke-width="0.1"/>
<circle cx="39.5" cy="14.5" fill="none" r="0.15646682147436308" stroke="black" stroke-width="0.1"/>
<circle cx="40.5" cy="14.5" fill="none" r="0.1701188074036791" stroke="black" stroke-width="0.1"/>
<circle cx="42.5" cy="14.5" fill="none" r="0.1222619372317716" stroke="black" stroke-width="0.1"/>
<circle cx="43.5" cy="14.5" fill="none" r="0.12599705656986473" stroke="black" stroke-width="0.1"/>
<path d="M14.352525,15.352525 L14.647475,15.647475 M14.352525,15.647475 L14.647475,15.352525" fill="none" stroke="black" stroke-width="0.1"/>
<path d="M15.381777,15.381777 L15.618223,15.618223 M15.381777,15.618223 L15.618223,15.381777" fill="none" stroke="black" stroke-width="0.1"/>
<path d="M16.232628,15.232628 L16.767372,15.767372 M16.232628,15.767372 L16.767372,15.232628" fill="none" stroke="black" stroke-width="0.1"/>
<path d="M17.199795,15.199794 L17.800205,15.800206 M17.199795,15.800206 L17.800205,15.199794" fill="none" stroke="black" stroke-width="0.1"/>
<path d="M18.33804,15.338038 L18.66196,15.661962 M18.33804,15.661962 L18.66196,15.338038" fill="none" stroke="black" stroke-width="0.1"/>
<circle cx="20.5" cy="15.5" fill="none" r="0.11426692421127475" stroke="black" stroke-width="0.1"/>
<circle cx="21.5" cy="15.5" fill="none" r="0.15360239903603343" stroke="black" stroke-width="0.1"/>
<path d="M22.42947,15.429471 L22.57053,15.570529 M22.42947,15.570529 L22.57053,15.429471" fill="none" stroke="black" stroke-width="0.1"/>
<path d="M23.429337,15.4293375 L23.570663,15.5706625 M23.429337,15.5706625 L23.570663,15.4293375" fill="none" stroke="black" stroke-width="0.1"/>
<path d="M24.419968,15.419968 L24.580032,15.580032 M24.419968,15.580032 L24.580032,15.419968" fill="none" stroke="black" stroke-width="0.1"/>
<path d="M25.413717,15.413718 L25.586283,15.586282 M25.413717,15.586282 L25.586283,15.413718" fill="none" stroke="black" stroke-width="0.1"/>
<path d="M26.417826,15.417826 L26.582174,15.582174 M26.417826,15.582174 L26.582174,15.417826" fill="none" stroke="black" stroke-width="0.1"/>
<path d="M27.39685,15.39685 L27.60315,15.60315 M27.39685,15.60315 L27.60315,15.39685" fill="none" stroke="black" stroke-width="0.1"/>
<path d="M28.4056,15.405599 L28.5944,15.594401 M28.4056,15.594401 L28.5944,15.405599" fill="none" stroke="black" stroke-width="0.1"/>
<circle cx="40.5" cy="15.5" fill="none" r="0.14022908879361953" stroke="black" stroke-width="0.1"/>
<path d="M41.420216,15.420215 L41.579784,15.579785 M41.420216,15.579785 L41.579784,15.420215" fill="none" stroke="black" stroke-width="0.1"/>
<circle cx="43.5" cy="15.5" fill="none" r="0.1027675299948496" stroke="black" stroke-width="0.1"/>
<circle cx="44.5" cy="15.5" fill="none" r="0.15393574627233184" stroke="black" stroke-width="0.1"/>
<path d="M45.42305,15.423049 L45.57695,15.576951 M45.42305,15.576951 L45.57695,15.423049" fill="none" stroke="black" stroke-width="0.1"/>
<path d="M14.372692,16.372692 L14.627308,16.627308 M14.372692,16.627308 L14.627308,16.372692" fill="none" stroke="black" stroke-width="0.1"/>
<path d="M15.2706375,16.270638 L15.7293625,16.729362 M15.2706375,16.729362 L15.7293625,16.270638" fill="none" stroke="black" stroke-width="0.1"/>
<path d="M16.24337,16.24337 L16.75663,16.75663 M16.24337,16.75663 L16.75663,16.24337" fill="none" stroke="black" stroke-width="0.1"/>
<path d="M17.281065,16.281065 L17.718935,16.718935 M17.281065,16.718935 L17.718935,16.281065" fill="none" stroke="black" stroke-width="0.1"/>
<path d="M18.313784,16.313784 L18.686216,16.686216 M18.313784,16.686216 L18.686216,16.313784" fill="none" stroke="black" stroke-width="0.1"/>
<path d="M19.282356,16.282356 L19.717644,16.717644 M19.282356,16.717644 L19.717644,16.282356" fill="none" stroke="black" stroke-width="0.1"/>
<path d="M20.43281,16.43281 L20.56719,16.56719 M20.43281,16.56719 L20.56719,16.43281" fill="none" stroke="black" stroke-width="0.1"/>
<path d="M22.344177,16.344177 L22.655823,16.655823 M22.344177,16.655823 L22.655823,16.344177" fill="none" stroke="black" stroke-width="0.1"/>
<path d="M23.308218,16.308218 L23.691782,16.691782 M23.308218,16.691782 L23.691782,16.308218" fill="none" stroke="black" stroke-width="0.1"/>
<path d="M24.347591,16.347591 L24.652409,16.652409 M24.347591,16.652409 L24.652409,16.347591" fill="none" stroke="black" stroke-width="0.1"/>
<path d="M26.412569,16.412569 L26.587431,16.587431 M26.412569,16.587431 L26.587431,16.412569" fill="none" stroke="black" stroke-width="0.1"/>
<path d="M27.378498,16.378498 L27.621502,16.621502 M27.378498,16.621502 L27.621502,16.378498" fill="none" stroke="black" stroke-width="0.1"/>
<path d="M28.40063,16.40063 L28.59937,16.59937 M28.40063,16.59937 L28.59937,16.40063" fill="none" stroke="black" stroke-width="0.1"/>
<circle cx="29.5" cy="16.5" fill="none" r="0.13717329475884957" stroke="black" stroke-width="0.1"/>
<circle cx="44.5" cy="16.5" fill="none" r="0.13709304648967555" stroke="black" stroke-width="0.1"/>
<circle cx="45.5" cy="16.5" fill="none" r="0.15490218251168586" stroke="black" stroke-width="0.1"/>
<circle cx="8.5" cy="17.5" fill="none" r="0.5" stroke="black" stroke-width="0.1"/>
<circle cx="8.5" cy="17.5" fill="none" r="0.25" stroke="black" stroke-width="0.1"/>
<path d="M9.385861,17.38586 L9.614139,17.61414 M9.385861,17.61414 L9.614139,17.38586" fill="none" stroke="black" stroke-width="0.1"/>
<path d="M10.370775,17.370775 L10.629225,17.629225 M10.370775,17.629225 L10.629225,17.370775" fill="none" stroke="black" stroke-width="0.1"/>
<path d="M11.388966,17.388966 L11.611034,17.611034 M11.388966,17.611034 L11.611034,17.388966" fill="none" stroke="black" stroke-width="0.1"/>
<path d="M12.412991,17.41299 L12.587009,17.58701 M12.412991,17.58701 L12.587009,17.41299" fill="none" stroke="black" stroke-width="0.1"/>
<path d="M13.330927,17.330927 L13.669073,17.669073 M13.330927,17.669073 L13.669073,17.330927" fill="none" stroke="black" stroke-width="0.1"/>
<path d="M14.319284,17.319284 L14.680716,17.680716 M14.319284,17.680716 L14.680716,17.319284" fill="none" stroke="black" stroke-width="0.1"/>
<path d="M15.339824,17.339825 L15.660176,17.660175 M15.339824,17.660175 L15.660176,17.339825" fill="none" stroke="black" stroke-width="0.1"/>
<path d="M16.420795,17.420795 L16.579205,17.579205 M16.420795,17.579205 L16.579205,17.420795" fill="none" stroke="black" stroke-width="0.1"/>
<circle cx="17.5" cy="17.5" fill="none" r="0.5" stroke="black" stroke-width="0.1"/>
<circle cx="17.5" cy="17.5" fill="none" r="0.25" stroke="black" stroke-width="0.1"/>
<path d="M18.174744,17.174744 L18.825256,17.825256 M18.174744,17.825256 L18.825256,17.174744" fill="none" stroke="black" stroke-width="0.1"/>
<path d="M19.347101,17.347101 L19.652899,17.652899 M19.347101,17.652899 L19.652899,17.347101" fill="none" stroke="black" stroke-width="0.1"/>
<path d="M20.362877,17.362877 L20.637123,17.637123 M20.362877,17.637123 L20.637123,17.362877" fill="none" stroke="black" stroke-width="0.1"/>
<path d="M21.324265,17.324265 L21.675735,17.675735 M21.324265,17.675735 L21.675735,17.324265" fill="none" stroke="black" stroke-width="0.1"/>
<circle cx="22.5" cy="17.5" fill="none" r="0.5" stroke="black" stroke-width="0.1"/>
<circle cx="22.5" cy="17.5" fill="none" r="0.25" stroke="black" stroke-width="0.1"/>
<path d="M23.234446,17.234446 L23.765554,17.765554 M23.234446,17.765554 L23.765554,17.234446" fill="none" stroke="black" stroke-width="0.1"/>
<path d="M24.167713,17.167713 L24.832287,17.832287 M24.167713,17.832287 L24.832287,17.167713" fill="none" stroke="black" stroke-width="0.1"/>
<path d="M25.424309,17.424309 L25.575691,17.575691 M25.424309,17.575691 L25.575691,17.424309" fill="none" stroke="black" stroke-width="0.1"/>
<circle cx="26.5" cy="17.5" fill="none" r="0.18144015922213827" stroke="black" stroke-width="0.1"/>
<circle cx="27.5" cy="17.5" fill="none" r="0.1599715493116675" stroke="black" stroke-width="0.1"/>
<path d="M28.425234,17.425234 L28.574766,17.574766 M28.425234,17.574766 L28.574766,17.425234" fill="none" stroke="black" stroke-width="0.1"/>
<circle cx="29.5" cy="17.5" fill="none" r="0.18709609900772875" stroke="black" stroke-width="0.1"/>
<circle cx="7.5" cy="18.5" fill="none" r="0.5" stroke="black" stroke-width="0.1"/>
<circle cx="7.5" cy="18.5" fill="none" r="0.25" stroke="black" stroke-width="0.1"/>
<circle cx="8.5" cy="18.5" fill="none" r="0.11271960969514133" stroke="black" stroke-width="0.1"/>
<circle cx="9.5" cy="18.5" fill="none" r="0.5" stroke="black" stroke-width="0.1"/>
<circle cx="9.5" cy="18.5" fill="none" r="0.25" stroke="black" stroke-width="0.1"/>
<path d="M10.284021,18.284021 L10.715979,18.715979 M10.284021,18.715979 L10.715979,18.284021" fill="none" stroke="black" stroke-width="0.1"/>
<path d="M11.29498,18.294981 L11.70502,18.705019 M11.29498,18.705019 L11.70502,18.294981" fill="none" stroke="black" stroke-width="0.1"/>
<path d="M12.382393,18.382393 L12.617607,18.617607 M12.382393,18.617607 L12.617607,18.382393" fill="none" stroke="black" stroke-width="0.1"/>
<path d="M13.35013,18.35013 L13.64987,18.64987 M13.35013,18.64987 L13.64987,18.35013" fill="none" stroke="black" stroke-width="0.1"/>
<path d="M14.327041,18.32704 L14.672959,18.67296 M14.327041,18.67296 L14.672959,18.32704" fill="none" stroke="black" stroke-width="0.1"/>
<path d="M15.400626,18.400627 L15.599374,18.599373 M15.400626,18.599373 L15.599374,18.400627" fill="none" stroke="black" stroke-width="0.1"/>
<circle cx="16.5" cy="18.5" fill="none" r="0.19452450767988644" stroke="black" stroke-width="0.1"/>
<path d="M17.240002,18.240002 L17.759998,18.759998 M17.240002,18.759998 L17.759998,18.240002" fill="none" stroke="black" stroke-width="0.1"/>
<path d="M18.36709,18.36709 L18.63291,18.63291 M18.36709,18.63291 L18.63291,18.36709" fill="none" stroke="black" stroke-width="0.1"/>
<path d="M19.419943,18.419943 L19.580057,18.580057 M19.419943,18.580057 L19.580057,18.419943" fill="none" stroke="black" stroke-width="0.1"/>
<path d="M21.183239,18.183239 L21.816761,18.816761 M21.183239,18.816761 L21.816761,18.183239" fill="none" stroke="black" stroke-width="0.1"/>
<path d="M22.279726,18.279726 L22.720274,18.720274 M22.279726,18.720274 L22.720274,18.279726" fill="none" stroke="black" stroke-width="0.1"/>
<path d="M23.179537,18.179537 L23.820463,18.820463 M23.179537,18.820463 L23.820463,18.179537" fill="none" stroke="black" stroke-width="0.1"/>
<path d="M24.32803,18.32803 L24.67197,18.67197 M24.32803,18.67197 L24.67197,18.32803" fill="none" stroke="black" stroke-width="0.1"/>
<path d="M28.420046,18.420046 L28.579954,18.579954 M28.420046,18.579954 L28.579954,18.420046" fill="none" stroke="black" stroke-width="0.1"/>
<circle cx="29.5" cy="18.5" fill="none" r="0.1052715260301675" stroke="black" stroke-width="0.1"/>
<circle cx="30.5" cy="18.5" fill="none" r="0.12863022974795835" stroke="black" stroke-width="0.1"/>
<circle cx="7.5" cy="19.5" fill="none" r="0.5" stroke="black" stroke-width="0.1"/>
<circle cx="7.5" cy="19.5" fill="none" r="0.25" stroke="black" stroke-width="0.1"/>
<circle cx="8.5" cy="19.5" fill="none" r="0.14855003386675208" stroke="black" stroke-width="0.1"/>
<path d="M9.210899,19.2109 L9.789101,19.7891 M9.210899,19.7891 L9.789101,19.2109" fill="none" stroke="black" stroke-width="0.1"/>
<path d="M10.333755,19.333754 L10.666245,19.666246 M10.333755,19.666246 L10.666245,19.333754" fill="none" stroke="black" stroke-width="0.1"/>
<path d="M12.378452,19.378452 L12.621548,19.621548 M12.378452,19.621548 L12.621548,19.378452" fill="none" stroke="black" stroke-width="0.1"/>
<path d="M13.356242,19.356243 L13.643758,19.643757 M13.356242,19.643757 L13.643758,19.356243" fill="none" stroke="black" stroke-width="0.1"/>
<path d="M14.3121605,19.31216 L14.6878395,19.68784 M14.3121605,19.68784 L14.6878395,19.31216" fill="none" stroke="black" stroke-width="0.1"/>
<path d="M15.419547,19.419548 L15.580453,19.580452 M15.419547,19.580452 L15.580453,19.419548" fill="none" stroke="black" stroke-width="0.1"/>
<path d="M16.34685,19.34685 L16.65315,19.65315 M16.34685,19.65315 L16.65315,19.34685" fill="none" stroke="black" stroke-width="0.1"/>
<circle cx="17.5" cy="19.5" fill="none" r="0.1067227340042049" stroke="black" stroke-width="0.1"/>
<path d="M19.399975,19.399975 L19.600025,19.600025 M19.399975,19.600025 L19.600025,19.399975" fill="none" stroke="black" stroke-width="0.1"/>
<path d="M20.355928,19.355928 L20.644072,19.644072 M20.355928,19.644072 L20.644072,19.355928" fill="none" stroke="black" stroke-width="0.1"/>
<path d="M21.317596,19.317596 L21.682404,19.682404 M21.317596,19.682404 L21.682404,19.317596" fill="none" stroke="black" stroke-width="0.1"/>
<path d="M22.279047,19.279047 L22.720953,19.720953 M22.279047,19.720953 L22.720953,19.279047" fill="none" stroke="black" stroke-width="0.1"/>
<path d="M23.194662,19.194662 L23.805338,19.805338 M23.194662,19.805338 L23.805338,19.194662" fill="none" stroke="black" stroke-width="0.1"/>
<circle cx="24.5" cy="19.5" fill="none" r="0.17263944548796098" stroke="black" stroke-width="0.1"/>
<path d="M26.432173,19.432173 L26.567827,19.567827 M26.432173,19.567827 L26.567827,19.432173" fill="none" stroke="black" stroke-width="0.1"/>
<path d="M27.39625,19.39625 L27.60375,19.60375 M27.39625,19.60375 L27.60375,19.39625" fill="none" stroke="black" stroke-width="0.1"/>
<circle cx="29.5" cy="19.5" fill="none" r="0.1776166157426171" stroke="black" stroke-width="0.1"/>
<circle cx="35.5" cy="19.5" fill="none" r="0.5" stroke="black" stroke-width="0.1"/>
<circle cx="35.5" cy="19.5" fill="none" r="0.25" stroke="black" stroke-width="0.1"/>
<circle cx="36.5" cy="19.5" fill="none" r="0.5" stroke="black" stroke-width="0.1"/>
<circle cx="36.5" cy="19.5" fill="none" r="0.25" stroke="black" stroke-width="0.1"/>
<circle cx="8.5" cy="20.5" fill="none" r="0.5" stroke="black" stroke-width="0.1"/>
<circle cx="8.5" cy="20.5" fill="none" r="0.25" stroke="black" stroke-width="0.1"/>
<path d="M10.229845,20.229845 L10.770155,20.770155 M10.229845,20.770155 L10.770155,20.229845" fill="none" stroke="black" stroke-width="0.1"/>
<path d="M11.429636,20.429636 L11.570364,20.570364 M11.429636,20.570364 L11.570364,20.429636" fill="none" stroke="black" stroke-width="0.1"/>
<path d="M12.270974,20.270975 L12.729026,20.729025 M12.270974,20.729025 L12.729026,20.270975" fill="none" stroke="black" stroke-width="0.1"/>
<path d="M13.2334795,20.23348 L13.7665205,20.76652 M13.2334795,20.76652 L13.7665205,20.23348" fill="none" stroke="black" stroke-width="0.1"/>
<path d="M14.373071,20.373072 L14.626929,20.626928 M14.373071,20.626928 L14.626929,20.373072" fill="none" stroke="black" stroke-width="0.1"/>
<path d="M15.426294,20.426294 L15.573706,20.573706 M15.426294,20.573706 L15.573706,20.426294" fill="none" stroke="black" stroke-width="0.1"/>
<path d="M16.335335,20.335335 L16.664665,20.664665 M16.335335,20.664665 L16.664665,20.335335" fill="none" stroke="black" stroke-width="0.1"/>
<path d="M17.326567,20.326567 L17.673433,20.673433 M17.326567,20.673433 L17.673433,20.326567" fill="none" stroke="black" stroke-width="0.1"/>
<circle cx="21.5" cy="20.5" fill="none" r="0.15380917252172038" stroke="black" stroke-width="0.1"/>
<path d="M22.28222,20.28222 L22.71778,20.71778 M22.28222,20.71778 L22.71778,20.28222" fill="none" stroke="black" stroke-width="0.1"/>
<path d="M23.407831,20.407831 L23.592169,20.592169 M23.407831,20.592169 L23.592169,20.407831" fill="none" stroke="black" stroke-width="0.1"/>
<circle cx="26.5" cy="20.5" fill="none" r="0.1217273415605679" stroke="black" stroke-width="0.1"/>
<path d="M28.388388,20.388388 L28.611612,20.611612 M28.388388,20.611612 L28.611612,20.388388" fill="none" stroke="black" stroke-width="0.1"/>
<path d="M29.419994,20.419994 L29.580006,20.580006 M29.419994,20.580006 L29.580006,20.419994" fill="none" stroke="black" stroke-width="0.1"/>
<circle cx="35.5" cy="20.5" fill="none" r="0.5" stroke="black" stroke-width="0.1"/>
<circle cx="35.5" cy="20.5" fill="none" r="0.25" stroke="black" stroke-width="0.1"/>
<circle cx="37.5" cy="20.5" fill="none" r="0.5" stroke="black" stroke-width="0.1"/>
<circle cx="37.5" cy="20.5" fill="none" r="0.25" stroke="black" stroke-width="0.1"/>
<circle cx="78.5" cy="20.5" fill="none" r="0.5" stroke="black" stroke-width="0.1"/>
<circle cx="78.5" cy="20.5" fill="none" r="0.25" stroke="black" stroke-width="0.1"/>
<path d="M9.387551,21.38755 L9.612449,21.61245 M9.387551,21.61245 L9.612449,21.38755" fill="none" stroke="black" stroke-width="0.1"/>
<path d="M10.317728,21.317728 L10.682272,21.682272 M10.317728,21.682272 L10.682272,21.317728" fill="none" stroke="black" stroke-width="0.1"/>
<path d="M11.314315,21.314314 L11.685685,21.685686 M11.314315,21.685686 L11.685685,21.314314" fill="none" stroke="black" stroke-width="0.1"/>
<circle cx="12.5" cy="21.5" fill="none" r="0.5" stroke="black" stroke-width="0.1"/>
<circle cx="12.5" cy="21.5" fill="none" r="0.25" stroke="black" stroke-width="0.1"/>
<path d="M13.25271,21.25271 L13.74729,21.74729 M13.25271,21.74729 L13.74729,21.25271" fill="none" stroke="black" stroke-width="0.1"/>
<path d="M14.419582,21.419582 L14.580418,21.580418 M14.419582,21.580418 L14.580418,21.419582" fill="none" stroke="black" stroke-width="0.1"/>
<path d="M15.357466,21.357466 L15.642534,21.642534 M15.357466,21.642534 L15.642534,21.357466" fill="none" stroke="black" stroke-width="0.1"/>
<path d="M16.356588,21.356588 L16.643412,21.643412 M16.356588,21.643412 L16.643412,21.356588" fill="none" stroke="black" stroke-width="0.1"/>
<path d="M17.321375,21.321375 L17.678625,21.678625 M17.321375,21.678625 L17.678625,21.321375" fill="none" stroke="black" stroke-width="0.1"/>
<path d="M21.319962,21.319962 L21.680038,21.680038 M21.319962,21.680038 L21.680038,21.319962" fill="none" stroke="black" stroke-width="0.1"/>
<path d="M22.355959,21.355959 L22.644041,21.644041 M22.355959,21.644041 L22.644041,21.355959" fill="none" stroke="black" stroke-width="0.1"/>
<path d="M23.32,21.32 L23.68,21.68 M23.32,21.68 L23.68,21.32" fill="none" stroke="black" stroke-width="0.1"/>
<path d="M26.374208,21.374208 L26.625792,21.625792 M26.374208,21.625792 L26.625792,21.374208" fill="none" stroke="black" stroke-width="0.1"/>
<path d="M27.361914,21.361914 L27.638086,21.638086 M27.361914,21.638086 L27.638086,21.361914" fill="none" stroke="black" stroke-width="0.1"/>
<circle cx="28.5" cy="21.5" fill="none" r="0.11355814172145234" stroke="black" stroke-width="0.1"/>
<path d="M29.419987,21.419987 L29.580013,21.580013 M29.419987,21.580013 L29.580013,21.419987" fill="none" stroke="black" stroke-width="0.1"/>
<circle cx="36.5" cy="21.5" fill="none" r="0.5" stroke="black" stroke-width="0.1"/>
<circle cx="36.5" cy="21.5" fill="none" r="0.25" stroke="black" stroke-width="0.1"/>
<circle cx="77.5" cy="21.5" fill="none" r="0.5" stroke="black" stroke-width="0.1"/>
<circle cx="77.5" cy="21.5" fill="none" r="0.25" stroke="black" stroke-width="0.1"/>
<circle cx="79.5" cy="21.5" fill="none" r="0.5" stroke="black" stroke-width="0.1"/>
<circle cx="79.5" cy="21.5" fill="none" r="0.25" stroke="black" stroke-width="0.1"/>
<path d="M10.294099,22.294098 L10.705901,22.705902 M10.294099,22.705902 L10.705901,22.294098" fill="none" stroke="black" stroke-width="0.1"/>
<path d="M11.375559,22.375559 L11.624441,22.624441 M11.375559,22.624441 L11.624441,22.375559" fill="none" stroke="black" stroke-width="0.1"/>
<path d="M12.187148,22.18715 L12.812852,22.81285 M12.187148,22.81285 L12.812852,22.18715" fill="none" stroke="black" stroke-width="0.1"/>
<circle cx="14.5" cy="22.5" fill="none" r="0.12429399004592681" stroke="black" stroke-width="0.1"/>
<path d="M15.348546,22.348547 L15.651454,22.651453 M15.348546,22.651453 L15.651454,22.348547" fill="none" stroke="black" stroke-width="0.1"/>
<path d="M16.338957,22.338957 L16.661043,22.661043 M16.338957,22.661043 L16.661043,22.338957" fill="none" stroke="black" stroke-width="0.1"/>
<path d="M17.231064,22.231064 L17.768936,22.768936 M17.231064,22.768936 L17.768936,22.231064" fill="none" stroke="black" stroke-width="0.1"/>
<path d="M18.319996,22.319996 L18.680004,22.680004 M18.319996,22.680004 L18.680004,22.319996" fill="none" stroke="black" stroke-width="0.1"/>
<path d="M22.204798,22.204798 L22.795202,22.795202 M22.204798,22.795202 L22.795202,22.204798" fill="none" stroke="black" stroke-width="0.1"/>
<path d="M23.411455,22.411455 L23.588545,22.588545 M23.411455,22.588545 L23.588545,22.411455" fill="none" stroke="black" stroke-width="0.1"/>
<path d="M24.296415,22.296415 L24.703585,22.703585 M24.296415,22.703585 L24.703585,22.296415" fill="none" stroke="black" stroke-width="0.1"/>
<path d="M25.280378,22.280378 L25.719622,22.719622 M25.280378,22.719622 L25.719622,22.280378" fill="none" stroke="black" stroke-width="0.1"/>
<circle cx="26.5" cy="22.5" fill="none" r="0.5" stroke="black" stroke-width="0.1"/>
<circle cx="26.5" cy="22.5" fill="none" r="0.25" stroke="black" stroke-width="0.1"/>
<path d="M27.26868,22.26868 L27.73132,22.73132 M27.26868,22.73132 L27.73132,22.26868" fill="none" stroke="black" stroke-width="0.1"/>
<circle cx="29.5" cy="22.5" fill="none" r="0.17731430485040237" stroke="black" stroke-width="0.1"/>
<circle cx="77.5" cy="22.5" fill="none" r="0.5" stroke="black" stroke-width="0.1"/>
<circle cx="77.5" cy="22.5" fill="none" r="0.25" stroke="black" stroke-width="0.1"/>
<circle cx="78.5" cy="22.5" fill="none" r="0.5" stroke="black" stroke-width="0.1"/>
<circle cx="78.5" cy="22.5" fill="none" r="0.25" stroke="black" stroke-width="0.1"/>
<circle cx="0.5" cy="23.5" fill="none" r="0.5" stroke="black" stroke-width="0.1"/>
<circle cx="0.5" cy="23.5" fill="none" r="0.25" stroke="black" stroke-width="0.1"/>
<circle cx="1.5" cy="23.5" fill="none" r="0.5" stroke="black" stroke-width="0.1"/>
<circle cx="1.5" cy="23.5" fill="none" r="0.25" stroke="black" stroke-width="0.1"/>
<circle cx="8.5" cy="23.5" fill="none" r="0.15724110529140087" stroke="black" stroke-width="0.1"/>
<path d="M9.419232,23.419233 L9.580768,23.580767 M9.419232,23.580767 L9.580768,23.419233" fill="none" stroke="black" stroke-width="0.1"/>
<path d="M10.369877,23.369877 L10.630123,23.630123 M10.369877,23.630123 L10.630123,23.369877" fill="none" stroke="black" stroke-width="0.1"/>
<path d="M11.179785,23.179785 L11.820215,23.820215 M11.179785,23.820215 L11.820215,23.179785" fill="none" stroke="black" stroke-width="0.1"/>
<path d="M12.244583,23.244583 L12.755417,23.755417 M12.244583,23.755417 L12.755417,23.244583" fill="none" stroke="black" stroke-width="0.1"/>
<circle cx="14.5" cy="23.5" fill="none" r="0.16580851012732323" stroke="black" stroke-width="0.1"/>
<path d="M15.432625,23.432625 L15.567375,23.567375 M15.432625,23.567375 L15.567375,23.432625" fill="none" stroke="black" stroke-width="0.1"/>
<path d="M16.204798,23.204798 L16.795202,23.795202 M16.204798,23.795202 L16.795202,23.204798" fill="none" stroke="black" stroke-width="0.1"/>
<circle cx="17.5" cy="23.5" fill="none" r="0.5" stroke="black" stroke-width="0.1"/>
<circle cx="17.5" cy="23.5" fill="none" r="0.25" stroke="black" stroke-width="0.1"/>
<path d="M18.373781,23.373781 L18.626219,23.626219 M18.373781,23.626219 L18.626219,23.373781" fill="none" stroke="black" stroke-width="0.1"/>
<path d="M19.37584,23.37584 L19.62416,23.62416 M19.37584,23.62416 L19.62416,23.37584" fill="none" stroke="black" stroke-width="0.1"/>
<path d="M20.40926,23.40926 L20.59074,23.59074 M20.40926,23.59074 L20.59074,23.40926" fill="none" stroke="black" stroke-width="0.1"/>
<path d="M21.343836,23.343836 L21.656164,23.656164 M21.343836,23.656164 L21.656164,23.343836" fill="none" stroke="black" stroke-width="0.1"/>
<path d="M22.336056,23.336056 L22.663944,23.663944 M22.336056,23.663944 L22.663944,23.336056" fill="none" stroke="black" stroke-width="0.1"/>
<path d="M23.333563,23.333563 L23.666437,23.666437 M23.333563,23.666437 L23.666437,23.333563" fill="none" stroke="black" stroke-width="0.1"/>
<path d="M24.218262,23.218262 L24.781738,23.781738 M24.218262,23.781738 L24.781738,23.218262" fill="none" stroke="black" stroke-width="0.1"/>
<path d="M25.338343,23.338343 L25.661657,23.661657 M25.338343,23.661657 L25.661657,23.338343" fill="none" stroke="black" stroke-width="0.1"/>
<path d="M26.340967,23.340967 L26.659033,23.659033 M26.340967,23.659033 L26.659033,23.340967" fill="none" stroke="black" stroke-width="0.1"/>
<path d="M27.306776,23.306776 L27.693224,23.693224 M27.306776,23.693224 L27.693224,23.306776" fill="none" stroke="black" stroke-width="0.1"/>
<path d="M28.419899,23.419899 L28.580101,23.580101 M28.419899,23.580101 L28.580101,23.419899" fill="none" stroke="black" stroke-width="0.1"/>
<circle cx="30.5" cy="23.5" fill="none" r="0.12368485381960416" stroke="black" stroke-width="0.1"/>
<path d="M35.34051,23.340511 L35.65949,23.659489 M35.34051,23.659489 L35.65949,23.340511" fill="none" stroke="black" stroke-width="0.1"/>
<circle cx="52.5" cy="23.5" fill="none" r="0.5" stroke="black" stroke-width="0.1"/>
<circle cx="52.5" cy="23.5" fill="none" r="0.25" stroke="black" stroke-width="0.1"/>
<circle cx="53.5" cy="23.5" fill="none" r="0.5" stroke="black" stroke-width="0.1"/>
<circle cx="53.5" cy="23.5" fill="none" r="0.25" stroke="black" stroke-width="0.1"/>
<circle cx="56.5" cy="23.5" fill="none" r="0.5" stroke="black" stroke-width="0.1"/>
<circle cx="56.5" cy="23.5" fill="none" r="0.25" stroke="black" stroke-width="0.1"/>
<circle cx="57.5" cy="23.5" fill="none" r="0.5" stroke="black" stroke-width="0.1"/>
<circle cx="57.5" cy="23.5" fill="none" r="0.25" stroke="black" stroke-width="0.1"/>
<circle cx="0.5" cy="24.5" fill="none" r="0.5" stroke="black" stroke-width="0.1"/>
<circle cx="0.5" cy="24.5" fill="none" r="0.25" stroke="black" stroke-width="0.1"/>
<circle cx="1.5" cy="24.5" fill="none" r="0.5" stroke="black" stroke-width="0.1"/>
<circle cx="1.5" cy="24.5" fill="none" r="0.25" stroke="black" stroke-width="0.1"/>
<path d="M7.3656645,24.365664 L7.6343355,24.634336 M7.3656645,24.634336 L7.6343355,24.365664" fill="none" stroke="black" stroke-width="0.1"/>
<path d="M8.396734,24.396734 L8.603266,24.603266 M8.396734,24.603266 L8.603266,24.396734" fill="none" stroke="black" stroke-width="0.1"/>
<path d="M9.353109,24.35311 L9.646891,24.64689 M9.353109,24.64689 L9.646891,24.35311" fill="none" stroke="black" stroke-width="0.1"/>
<path d="M10.318971,24.318972 L10.681029,24.681028 M10.318971,24.681028 L10.681029,24.318972" fill="none" stroke="black" stroke-width="0.1"/>
<path d="M11.310933,24.310932 L11.689067,24.689068 M11.310933,24.689068 L11.689067,24.310932" fill="none" stroke="black" stroke-width="0.1"/>
<circle cx="12.5" cy="24.5" fill="none" r="0.1481225615883547" stroke="black" stroke-width="0.1"/>
<circle cx="16.5" cy="24.5" fill="none" r="0.1228135315463977" stroke="black" stroke-width="0.1"/>
<path d="M18.368946,24.368946 L18.631054,24.631054 M18.368946,24.631054 L18.631054,24.368946" fill="none" stroke="black" stroke-width="0.1"/>
<path d="M19.419334,24.419334 L19.580666,24.580666 M19.419334,24.580666 L19.580666,24.419334" fill="none" stroke="black" stroke-width="0.1"/>
<path d="M20.196209,24.196209 L20.803791,24.803791 M20.196209,24.803791 L20.803791,24.196209" fill="none" stroke="black" stroke-width="0.1"/>
<path d="M21.35368,24.35368 L21.64632,24.64632 M21.35368,24.64632 L21.64632,24.35368" fill="none" stroke="black" stroke-width="0.1"/>
<circle cx="22.5" cy="24.5" fill="none" r="0.5" stroke="black" stroke-width="0.1"/>
<circle cx="22.5" cy="24.5" fill="none" r="0.25" stroke="black" stroke-width="0.1"/>
<circle cx="23.5" cy="24.5" fill="none" r="0.17884170607760694" stroke="black" stroke-width="0.1"/>
<circle cx="24.5" cy="24.5" fill="none" r="0.5" stroke="black" stroke-width="0.1"/>
<circle cx="24.5" cy="24.5" fill="none" r="0.25" stroke="black" stroke-width="0.1"/>
<circle cx="25.5" cy="24.5" fill="none" r="0.5" stroke="black" stroke-width="0.1"/>
<circle cx="25.5" cy="24.5" fill="none" r="0.25" stroke="black" stroke-width="0.1"/>
<path d="M26.248373,24.248373 L26.751627,24.751627 M26.248373,24.751627 L26.751627,24.248373" fill="none" stroke="black" stroke-width="0.1"/>
<path d="M27.359911,24.359911 L27.640089,24.640089 M27.359911,24.640089 L27.640089,24.359911" fill="none" stroke="black" stroke-width="0.1"/>
<path d="M28.349747,24.349747 L28.650253,24.650253 M28.349747,24.650253 L28.650253,24.349747" fill="none" stroke="black" stroke-width="0.1"/>
<path d="M29.3097,24.3097 L29.6903,24.6903 M29.3097,24.6903 L29.6903,24.3097" fill="none" stroke="black" stroke-width="0.1"/>
<circle cx="33.5" cy="24.5" fill="none" r="0.19285075354251416" stroke="black" stroke-width="0.1"/>
<path d="M34.331654,24.331656 L34.668346,24.668344 M34.331654,24.668344 L34.668346,24.331656" fill="none" stroke="black" stroke-width="0.1"/>
<circle cx="35.5" cy="24.5" fill="none" r="0.17111214331785488" stroke="black" stroke-width="0.1"/>
<path d="M36.253323,24.25332 L36.746677,24.74668 M36.253323,24.74668 L36.746677,24.25332" fill="none" stroke="black" stroke-width="0.1"/>
<circle cx="37.5" cy="24.5" fill="none" r="0.19750650717624174" stroke="black" stroke-width="0.1"/>
<path d="M38.41998,24.41998 L38.58002,24.58002 M38.41998,24.58002 L38.58002,24.41998" fill="none" stroke="black" stroke-width="0.1"/>
<circle cx="52.5" cy="24.5" fill="none" r="0.5" stroke="black" stroke-width="0.1"/>
<circle cx="52.5" cy="24.5" fill="none" r="0.25" stroke="black" stroke-width="0.1"/>
<circle cx="53.5" cy="24.5" fill="none" r="0.5" stroke="black" stroke-width="0.1"/>
<circle cx="53.5" cy="24.5" fill="none" r="0.25" stroke="black" stroke-width="0.1"/>
<circle cx="56.5" cy="24.5" fill="none" r="0.5" stroke="black" stroke-width="0.1"/>
<circle cx="56.5" cy="24.5" fill="none" r="0.25" stroke="black" stroke-width="0.1"/>
<circle cx="57.5" cy="24.5" fill="none" r="0.5" stroke="black" stroke-width="0.1"/>
<circle cx="57.5" cy="24.5" fill="none" r="0.25" stroke="black" stroke-width="0.1"/>
<path d="M7.3488574,25.348858 L7.6511426,25.651142 M7.3488574,25.651142 L7.6511426,25.348858" fill="none" stroke="black" stroke-width="0.1"/>
<path d="M8.185483,25.185484 L8.814517,25.814516 M8.185483,25.814516 L8.814517,25.185484" fill="none" stroke="black" stroke-width="0.1"/>
<circle cx="9.5" cy="25.5" fill="none" r="0.5" stroke="black" stroke-width="0.1"/>
<circle cx="9.5" cy="25.5" fill="none" r="0.25" stroke="black" stroke-width="0.1"/>
<circle cx="10.5" cy="25.5" fill="none" r="0.1650789548820237" stroke="black" stroke-width="0.1"/>
<path d="M18.416151,25.416151 L18.583849,25.583849 M18.416151,25.583849 L18.583849,25.416151" fill="none" stroke="black" stroke-width="0.1"/>
<circle cx="19.5" cy="25.5" fill="none" r="0.1789221044156996" stroke="black" stroke-width="0.1"/>
<path d="M21.212378,25.212378 L21.787622,25.787622 M21.212378,25.787622 L21.787622,25.212378" fill="none" stroke="black" stroke-width="0.1"/>
<path d="M22.257923,25.257923 L22.742077,25.742077 M22.257923,25.742077 L22.742077,25.257923" fill="none" stroke="black" stroke-width="0.1"/>
<path d="M23.197714,25.197714 L23.802286,25.802286 M23.197714,25.802286 L23.802286,25.197714" fill="none" stroke="black" stroke-width="0.1"/>
<path d="M24.254879,25.254879 L24.745121,25.745121 M24.254879,25.745121 L24.745121,25.254879" fill="none" stroke="black" stroke-width="0.1"/>
<path d="M25.338388,25.338388 L25.661612,25.661612 M25.338388,25.661612 L25.661612,25.338388" fill="none" stroke="black" stroke-width="0.1"/>
<path d="M26.411755,25.411755 L26.588245,25.588245 M26.411755,25.588245 L26.588245,25.411755" fill="none" stroke="black" stroke-width="0.1"/>
<path d="M27.431164,25.431164 L27.568836,25.568836 M27.431164,25.568836 L27.568836,25.431164" fill="none" stroke="black" stroke-width="0.1"/>
<path d="M28.23931,25.23931 L28.76069,25.76069 M28.23931,25.76069 L28.76069,25.23931" fill="none" stroke="black" stroke-width="0.1"/>
<path d="M29.210835,25.210835 L29.789165,25.789165 M29.210835,25.789165 L29.789165,25.210835" fill="none" stroke="black" stroke-width="0.1"/>
<path d="M30.399933,25.399933 L30.600067,25.600067 M30.399933,25.600067 L30.600067,25.399933" fill="none" stroke="black" stroke-width="0.1"/>
<path d="M32.255997,25.255997 L32.744003,25.744003 M32.255997,25.744003 L32.744003,25.255997" fill="none" stroke="black" stroke-width="0.1"/>
<path d="M33.18055,25.18055 L33.81945,25.81945 M33.18055,25.81945 L33.81945,25.18055" fill="none" stroke="black" stroke-width="0.1"/>
<path d="M34.363544,25.363546 L34.636456,25.636454 M34.363544,25.636454 L34.636456,25.363546" fill="none" stroke="black" stroke-width="0.1"/>
<path d="M35.32794,25.327944 L35.67206,25.672056 M35.32794,25.672056 L35.67206,25.327944" fill="none" stroke="black" stroke-width="0.1"/>
<path d="M36.299286,25.299286 L36.700714,25.700714 M36.299286,25.700714 L36.700714,25.299286" fill="none" stroke="black" stroke-width="0.1"/>
<path d="M37.291157,25.291155 L37.708843,25.708845 M37.291157,25.708845 L37.708843,25.291155" fill="none" stroke="black" stroke-width="0.1"/>
<path d="M38.35784,25.357843 L38.64216,25.642157 M38.35784,25.642157 L38.64216,25.357843" fill="none" stroke="black" stroke-width="0.1"/>
<circle cx="39.5" cy="25.5" fill="none" r="0.11047407569914607" stroke="black" stroke-width="0.1"/>
<circle cx="8.5" cy="26.5" fill="none" r="0.5" stroke="black" stroke-width="0.1"/>
<circle cx="8.5" cy="26.5" fill="none" r="0.25" stroke="black" stroke-width="0.1"/>
<path d="M9.299028,26.299028 L9.700972,26.700972 M9.299028,26.700972 L9.700972,26.299028" fill="none" stroke="black" stroke-width="0.1"/>
<circle cx="10.5" cy="26.5" fill="none" r="0.19188941537134452" stroke="black" stroke-width="0.1"/>
<circle cx="12.5" cy="26.5" fill="none" r="0.1046712749650882" stroke="black" stroke-width="0.1"/>
<circle cx="13.5" cy="26.5" fill="none" r="0.11384730859767445" stroke="black" stroke-width="0.1"/>
<circle cx="17.5" cy="26.5" fill="none" r="0.15355481749681912" stroke="black" stroke-width="0.1"/>
<circle cx="18.5" cy="26.5" fill="none" r="0.1919733108411776" stroke="black" stroke-width="0.1"/>
<circle cx="19.5" cy="26.5" fill="none" r="0.1354955733708877" stroke="black" stroke-width="0.1"/>
<path d="M22.353445,26.353445 L22.646555,26.646555 M22.353445,26.646555 L22.646555,26.353445" fill="none" stroke="black" stroke-width="0.1"/>
<path d="M23.374632,26.374632 L23.625368,26.625368 M23.374632,26.625368 L23.625368,26.374632" fill="none" stroke="black" stroke-width="0.1"/>
<path d="M24.317535,26.317535 L24.682465,26.682465 M24.317535,26.682465 L24.682465,26.317535" fill="none" stroke="black" stroke-width="0.1"/>
<path d="M25.199064,26.199064 L25.800936,26.800936 M25.199064,26.800936 L25.800936,26.199064" fill="none" stroke="black" stroke-width="0.1"/>
<path d="M26.221844,26.221844 L26.778156,26.778156 M26.221844,26.778156 L26.778156,26.221844" fill="none" stroke="black" stroke-width="0.1"/>
<path d="M27.174393,26.174393 L27.825607,26.825607 M27.174393,26.825607 L27.825607,26.174393" fill="none" stroke="black" stroke-width="0.1"/>
<path d="M28.192347,26.192347 L28.807653,26.807653 M28.192347,26.807653 L28.807653,26.192347" fill="none" stroke="black" stroke-width="0.1"/>
<path d="M29.309132,26.309132 L29.690868,26.690868 M29.309132,26.690868 L29.690868,26.309132" fill="none" stroke="black" stroke-width="0.1"/>
<path d="M31.399807,26.399807 L31.600193,26.600193 M31.399807,26.600193 L31.600193,26.399807" fill="none" stroke="black" stroke-width="0.1"/>
<path d="M32.30468,26.30468 L32.69532,26.69532 M32.30468,26.69532 L32.69532,26.30468" fill="none" stroke="black" stroke-width="0.1"/>
<path d="M33.27395,26.273949 L33.72605,26.726051 M33.27395,26.726051 L33.72605,26.273949" fill="none" stroke="black" stroke-width="0.1"/>
<circle cx="34.5" cy="26.5" fill="none" r="0.18733484291789212" stroke="black" stroke-width="0.1"/>
<path d="M35.424286,26.424286 L35.575714,26.575714 M35.424286,26.575714 L35.575714,26.424286" fill="none" stroke="black" stroke-width="0.1"/>
<path d="M36.415234,26.415232 L36.584766,26.584768 M36.415234,26.584768 L36.584766,26.415232" fill="none" stroke="black" stroke-width="0.1"/>
<path d="M37.303696,26.303698 L37.696304,26.696302 M37.303696,26.696302 L37.696304,26.303698" fill="none" stroke="black" stroke-width="0.1"/>
<circle cx="38.5" cy="26.5" fill="none" r="0.16065762594227215" stroke="black" stroke-width="0.1"/>
<circle cx="13.5" cy="27.5" fill="none" r="0.12199683174997822" stroke="black" stroke-width="0.1"/>
<path d="M14.276281,27.276281 L14.723719,27.723719 M14.276281,27.723719 L14.723719,27.276281" fill="none" stroke="black" stroke-width="0.1"/>
<path d="M23.360567,27.360567 L23.639433,27.639433 M23.360567,27.639433 L23.639433,27.360567" fill="none" stroke="black" stroke-width="0.1"/>
<circle cx="24.5" cy="27.5" fill="none" r="0.5" stroke="black" stroke-width="0.1"/>
<circle cx="24.5" cy="27.5" fill="none" r="0.25" stroke="black" stroke-width="0.1"/>
<path d="M25.185402,27.185402 L25.814598,27.814598 M25.185402,27.814598 L25.814598,27.185402" fill="none" stroke="black" stroke-width="0.1"/>
<path d="M26.390411,27.390411 L26.609589,27.609589 M26.390411,27.609589 L26.609589,27.390411" fill="none" stroke="black" stroke-width="0.1"/>
<path d="M28.389637,27.389637 L28.610363,27.610363 M28.389637,27.610363 L28.610363,27.389637" fill="none" stroke="black" stroke-width="0.1"/>
<path d="M31.399887,27.399887 L31.600113,27.600113 M31.399887,27.600113 L31.600113,27.399887" fill="none" stroke="black" stroke-width="0.1"/>
<path d="M32.41949,27.41949 L32.58051,27.58051 M32.41949,27.58051 L32.58051,27.41949" fill="none" stroke="black" stroke-width="0.1"/>
<path d="M33.237183,27.237183 L33.762817,27.762817 M33.237183,27.762817 L33.762817,27.237183" fill="none" stroke="black" stroke-width="0.1"/>
<path d="M34.181824,27.181826 L34.818176,27.818174 M34.181824,27.818174 L34.818176,27.181826" fill="none" stroke="black" stroke-width="0.1"/>
<path d="M35.398746,27.398746 L35.601254,27.601254 M35.398746,27.601254 L35.601254,27.398746" fill="none" stroke="black" stroke-width="0.1"/>
<path d="M36.31832,27.318321 L36.68168,27.681679 M36.31832,27.681679 L36.68168,27.318321" fill="none" stroke="black" stroke-width="0.1"/>
<path d="M37.171032,27.171034 L37.828968,27.828966 M37.171032,27.828966 L37.828968,27.171034" fill="none" stroke="black" stroke-width="0.1"/>
<path d="M38.25669,27.25669 L38.74331,27.74331 M38.25669,27.74331 L38.74331,27.25669" fill="none" stroke="black" stroke-width="0.1"/>
<path d="M13.239679,28.23968 L13.760321,28.76032 M13.239679,28.76032 L13.760321,28.23968" fill="none" stroke="black" stroke-width="0.1"/>
<circle cx="14.5" cy="28.5" fill="none" r="0.5" stroke="black" stroke-width="0.1"/>
<circle cx="14.5" cy="28.5" fill="none" r="0.25" stroke="black" stroke-width="0.1"/>
<path d="M15.2520485,28.252048 L15.7479515,28.747952 M15.2520485,28.747952 L15.7479515,28.252048" fill="none" stroke="black" stroke-width="0.1"/>
<path d="M24.323368,28.323368 L24.676632,28.676632 M24.323368,28.676632 L24.676632,28.323368" fill="none" stroke="black" stroke-width="0.1"/>
<path d="M32.318882,28.31888 L32.681118,28.68112 M32.318882,28.68112 L32.681118,28.31888" fill="none" stroke="black" stroke-width="0.1"/>
<path d="M33.384052,28.384052 L33.615948,28.615948 M33.384052,28.615948 L33.615948,28.384052" fill="none" stroke="black" stroke-width="0.1"/>
<path d="M34.261536,28.261536 L34.738464,28.738464 M34.261536,28.738464 L34.738464,28.261536" fill="none" stroke="black" stroke-width="0.1"/>
<path d="M35.386395,28.386395 L35.613605,28.613605 M35.386395,28.613605 L35.613605,28.386395" fill="none" stroke="black" stroke-width="0.1"/>
<path d="M36.309757,28.309757 L36.690243,28.690243 M36.309757,28.690243 L36.690243,28.309757" fill="none" stroke="black" stroke-width="0.1"/>
<path d="M37.267426,28.267426 L37.732574,28.732574 M37.267426,28.732574 L37.732574,28.267426" fill="none" stroke="black" stroke-width="0.1"/>
<path d="M38.1869,28.186901 L38.8131,28.813099 M38.1869,28.813099 L38.8131,28.186901" fill="none" stroke="black" stroke-width="0.1"/>
<circle cx="9.5" cy="29.5" fill="none" r="0.5" stroke="black" stroke-width="0.1"/>
<circle cx="9.5" cy="29.5" fill="none" r="0.25" stroke="black" stroke-width="0.1"/>
<circle cx="10.5" cy="29.5" fill="none" r="0.5" stroke="black" stroke-width="0.1"/>
<circle cx="10.5" cy="29.5" fill="none" r="0.25" stroke="black" stroke-width="0.1"/>
<path d="M14.315061,29.31506 L14.684939,29.68494 M14.315061,29.68494 L14.684939,29.31506" fill="none" stroke="black" stroke-width="0.1"/>
<path d="M33.35469,29.354692 L33.64531,29.645308 M33.35469,29.645308 L33.64531,29.354692" fill="none" stroke="black" stroke-width="0.1"/>
<path d="M34.384483,29.384485 L34.615517,29.615515 M34.384483,29.615515 L34.615517,29.384485" fill="none" stroke="black" stroke-width="0.1"/>
<path d="M35.39399,29.39399 L35.60601,29.60601 M35.39399,29.60601 L35.60601,29.39399" fill="none" stroke="black" stroke-width="0.1"/>
<path d="M36.34247,29.342468 L36.65753,29.657532 M36.34247,29.657532 L36.65753,29.342468" fill="none" stroke="black" stroke-width="0.1"/>
<path d="M37.38764,29.387642 L37.61236,29.612358 M37.38764,29.612358 L37.61236,29.387642" fill="none" stroke="black" stroke-width="0.1"/>
<circle cx="52.5" cy="29.5" fill="none" r="0.5" stroke="black" stroke-width="0.1"/>
<circle cx="52.5" cy="29.5" fill="none" r="0.25" stroke="black" stroke-width="0.1"/>
<circle cx="53.5" cy="29.5" fill="none" r="0.5" stroke="black" stroke-width="0.1"/>
<circle cx="53.5" cy="29.5" fill="none" r="0.25" stroke="black" stroke-width="0.1"/>
<circle cx="56.5" cy="29.5" fill="none" r="0.5" stroke="black" stroke-width="0.1"/>
<circle cx="56.5" cy="29.5" fill="none" r="0.25" stroke="black" stroke-width="0.1"/>
<circle cx="57.5" cy="29.5" fill="none" r="0.5" stroke="black" stroke-width="0.1"/>
<circle cx="57.5" cy="29.5" fill="none" r="0.25" stroke="black" stroke-width="0.1"/>
<circle cx="9.5" cy="30.5" fill="none" r="0.5" stroke="black" stroke-width="0.1"/>
<circle cx="9.5" cy="30.5" fill="none" r="0.25" stroke="black" stroke-width="0.1"/>
<circle cx="10.5" cy="30.5" fill="none" r="0.5" stroke="black" stroke-width="0.1"/>
<circle cx="10.5" cy="30.5" fill="none" r="0.25" stroke="black" stroke-width="0.1"/>
<path d="M21.319986,30.319986 L21.680014,30.680014 M21.319986,30.680014 L21.680014,30.319986" fill="none" stroke="black" stroke-width="0.1"/>
<path d="M22.256,30.256 L22.744,30.744 M22.256,30.744 L22.744,30.256" fill="none" stroke="black" stroke-width="0.1"/>
<path d="M26.235498,30.235498 L26.764502,30.764502 M26.235498,30.764502 L26.764502,30.235498" fill="none" stroke="black" stroke-width="0.1"/>
<path d="M27.31592,30.31592 L27.68408,30.68408 M27.31592,30.68408 L27.68408,30.31592" fill="none" stroke="black" stroke-width="0.1"/>
<path d="M34.348198,30.348198 L34.651802,30.651802 M34.348198,30.651802 L34.651802,30.348198" fill="none" stroke="black" stroke-width="0.1"/>
<path d="M35.20407,30.204073 L35.79593,30.795927 M35.20407,30.795927 L35.79593,30.204073" fill="none" stroke="black" stroke-width="0.1"/>
<path d="M36.41882,30.41882 L36.58118,30.58118 M36.41882,30.58118 L36.58118,30.41882" fill="none" stroke="black" stroke-width="0.1"/>
<circle cx="52.5" cy="30.5" fill="none" r="0.5" stroke="black" stroke-width="0.1"/>
<circle cx="52.5" cy="30.5" fill="none" r="0.25" stroke="black" stroke-width="0.1"/>
<circle cx="53.5" cy="30.5" fill="none" r="0.5" stroke="black" stroke-width="0.1"/>
<circle cx="53.5" cy="30.5" fill="none" r="0.25" stroke="black" stroke-width="0.1"/>
<circle cx="56.5" cy="30.5" fill="none" r="0.5" stroke="black" stroke-width="0.1"/>
<circle cx="56.5" cy="30.5" fill="none" r="0.25" stroke="black" stroke-width="0.1"/>
<circle cx="57.5" cy="30.5" fill="none" r="0.5" stroke="black" stroke-width="0.1"/>
<circle cx="57.5" cy="30.5" fill="none" r="0.25" stroke="black" stroke-width="0.1"/>
<path d="M20.319872,31.319872 L20.680128,31.680128 M20.319872,31.680128 L20.680128,31.319872" fill="none" stroke="black" stroke-width="0.1"/>
<path d="M21.384716,31.384716 L21.615284,31.615284 M21.384716,31.615284 L21.615284,31.384716" fill="none" stroke="black" stroke-width="0.1"/>
<circle cx="22.5" cy="31.5" fill="none" r="0.5" stroke="black" stroke-width="0.1"/>
<circle cx="22.5" cy="31.5" fill="none" r="0.25" stroke="black" stroke-width="0.1"/>
<path d="M23.26599,31.26599 L23.73401,31.73401 M23.26599,31.73401 L23.73401,31.26599" fill="none" stroke="black" stroke-width="0.1"/>
<path d="M25.260923,31.260923 L25.739077,31.739077 M25.260923,31.739077 L25.739077,31.260923" fill="none" stroke="black" stroke-width="0.1"/>
<circle cx="26.5" cy="31.5" fill="none" r="0.5" stroke="black" stroke-width="0.1"/>
<circle cx="26.5" cy="31.5" fill="none" r="0.25" stroke="black" stroke-width="0.1"/>
<path d="M27.383,31.383 L27.617,31.617 M27.383,31.617 L27.617,31.383" fill="none" stroke="black" stroke-width="0.1"/>
<path d="M28.317957,31.317957 L28.682043,31.682043 M28.317957,31.682043 L28.682043,31.317957" fill="none" stroke="black" stroke-width="0.1"/>
<path d="M33.252327,31.252327 L33.747673,31.747673 M33.252327,31.747673 L33.747673,31.252327" fill="none" stroke="black" stroke-width="0.1"/>
<path d="M34.16944,31.169443 L34.83056,31.830557 M34.16944,31.830557 L34.83056,31.169443" fill="none" stroke="black" stroke-width="0.1"/>
<path d="M35.395973,31.395971 L35.604027,31.604029 M35.395973,31.604029 L35.604027,31.395971" fill="none" stroke="black" stroke-width="0.1"/>
<circle cx="45.5" cy="31.5" fill="none" r="0.5" stroke="black" stroke-width="0.1"/>
<circle cx="45.5" cy="31.5" fill="none" r="0.25" stroke="black" stroke-width="0.1"/>
<path d="M19.399872,32.39987 L19.600128,32.60013 M19.399872,32.60013 L19.600128,32.39987" fill="none" stroke="black" stroke-width="0.1"/>
<path d="M20.253723,32.253723 L20.746277,32.746277 M20.253723,32.746277 L20.746277,32.253723" fill="none" stroke="black" stroke-width="0.1"/>
<path d="M21.343655,32.343655 L21.656345,32.656345 M21.343655,32.656345 L21.656345,32.343655" fill="none" stroke="black" stroke-width="0.1"/>
<path d="M22.348866,32.348866 L22.651134,32.651134 M22.348866,32.651134 L22.651134,32.348866" fill="none" stroke="black" stroke-width="0.1"/>
<circle cx="25.5" cy="32.5" fill="none" r="0.12199682805605314" stroke="black" stroke-width="0.1"/>
<path d="M26.348886,32.34889 L26.651114,32.65111 M26.348886,32.65111 L26.651114,32.34889" fill="none" stroke="black" stroke-width="0.1"/>
<path d="M27.341589,32.341587 L27.658411,32.658413 M27.341589,32.658413 L27.658411,32.341587" fill="none" stroke="black" stroke-width="0.1"/>
<path d="M28.255777,32.255775 L28.744223,32.744225 M28.255777,32.744225 L28.744223,32.255775" fill="none" stroke="black" stroke-width="0.1"/>
<path d="M29.399405,32.399406 L29.600595,32.600594 M29.399405,32.600594 L29.600595,32.399406" fill="none" stroke="black" stroke-width="0.1"/>
<path d="M33.186073,32.186073 L33.813927,32.813927 M33.186073,32.813927 L33.813927,32.186073" fill="none" stroke="black" stroke-width="0.1"/>
<path d="M34.19205,32.19205 L34.80795,32.80795 M34.19205,32.80795 L34.80795,32.19205" fill="none" stroke="black" stroke-width="0.1"/>
<path d="M38.29047,32.29047 L38.70953,32.70953 M38.29047,32.70953 L38.70953,32.29047" fill="none" stroke="black" stroke-width="0.1"/>
<circle cx="44.5" cy="32.5" fill="none" r="0.5" stroke="black" stroke-width="0.1"/>
<circle cx="44.5" cy="32.5" fill="none" r="0.25" stroke="black" stroke-width="0.1"/>
<circle cx="45.5" cy="32.5" fill="none" r="0.10195734387095307" stroke="black" stroke-width="0.1"/>
<circle cx="46.5" cy="32.5" fill="none" r="0.5" stroke="black" stroke-width="0.1"/>
<circle cx="46.5" cy="32.5" fill="none" r="0.25" stroke="black" stroke-width="0.1"/>
<path d="M20.313856,33.313858 L20.686144,33.686142 M20.313856,33.686142 L20.686144,33.313858" fill="none" stroke="black" stroke-width="0.1"/>
<path d="M21.281431,33.28143 L21.718569,33.71857 M21.281431,33.71857 L21.718569,33.28143" fill="none" stroke="black" stroke-width="0.1"/>
<path d="M22.360773,33.36077 L22.639227,33.63923 M22.360773,33.63923 L22.639227,33.36077" fill="none" stroke="black" stroke-width="0.1"/>
<path d="M23.395077,33.395077 L23.604923,33.604923 M23.395077,33.604923 L23.604923,33.395077" fill="none" stroke="black" stroke-width="0.1"/>
<path d="M24.331877,33.33188 L24.668123,33.66812 M24.331877,33.66812 L24.668123,33.33188" fill="none" stroke="black" stroke-width="0.1"/>
<path d="M25.395077,33.395077 L25.604923,33.604923 M25.395077,33.604923 L25.604923,33.395077" fill="none" stroke="black" stroke-width="0.1"/>
<path d="M26.362272,33.36227 L26.637728,33.63773 M26.362272,33.63773 L26.637728,33.36227" fill="none" stroke="black" stroke-width="0.1"/>
<path d="M27.2848,33.2848 L27.7152,33.7152 M27.2848,33.7152 L27.7152,33.2848" fill="none" stroke="black" stroke-width="0.1"/>
<path d="M28.32,33.32 L28.68,33.68 M28.32,33.68 L28.68,33.32" fill="none" stroke="black" stroke-width="0.1"/>
<path d="M37.232346,33.232346 L37.767654,33.767654 M37.232346,33.767654 L37.767654,33.232346" fill="none" stroke="black" stroke-width="0.1"/>
<circle cx="38.5" cy="33.5" fill="none" r="0.5" stroke="black" stroke-width="0.1"/>
<circle cx="38.5" cy="33.5" fill="none" r="0.25" stroke="black" stroke-width="0.1"/>
<path d="M39.231495,33.231495 L39.768505,33.768505 M39.231495,33.768505 L39.768505,33.231495" fill="none" stroke="black" stroke-width="0.1"/>
<circle cx="44.5" cy="33.5" fill="none" r="0.5" stroke="black" stroke-width="0.1"/>
<circle cx="44.5" cy="33.5" fill="none" r="0.25" stroke="black" stroke-width="0.1"/>
<circle cx="46.5" cy="33.5" fill="none" r="0.5" stroke="black" stroke-width="0.1"/>
<circle cx="46.5" cy="33.5" fill="none" r="0.25" stroke="black" stroke-width="0.1"/>
<path d="M15.4,34.4 L15.6,34.6 M15.4,34.6 L15.6,34.4" fill="none" stroke="black" stroke-width="0.1"/>
<path d="M16.256,34.256 L16.744,34.744 M16.256,34.744 L16.744,34.256" fill="none" stroke="black" stroke-width="0.1"/>
<path d="M17.203312,34.203312 L17.796688,34.796688 M17.203312,34.796688 L17.796688,34.203312" fill="none" stroke="black" stroke-width="0.1"/>
<path d="M21.315266,34.315266 L21.684734,34.684734 M21.315266,34.684734 L21.684734,34.315266" fill="none" stroke="black" stroke-width="0.1"/>
<path d="M22.383648,34.383648 L22.616352,34.616352 M22.383648,34.616352 L22.616352,34.383648" fill="none" stroke="black" stroke-width="0.1"/>
<path d="M23.336058,34.336056 L23.663942,34.663944 M23.336058,34.663944 L23.663942,34.336056" fill="none" stroke="black" stroke-width="0.1"/>
<path d="M24.347855,34.347855 L24.652145,34.652145 M24.347855,34.652145 L24.652145,34.347855" fill="none" stroke="black" stroke-width="0.1"/>
<path d="M25.336058,34.336056 L25.663942,34.663944 M25.336058,34.663944 L25.663942,34.336056" fill="none" stroke="black" stroke-width="0.1"/>
<path d="M26.3848,34.3848 L26.6152,34.6152 M26.3848,34.6152 L26.6152,34.3848" fill="none" stroke="black" stroke-width="0.1"/>
<path d="M27.32,34.32 L27.68,34.68 M27.32,34.68 L27.68,34.32" fill="none" stroke="black" stroke-width="0.1"/>
<path d="M38.26641,34.26641 L38.73359,34.73359 M38.26641,34.73359 L38.73359,34.26641" fill="none" stroke="black" stroke-width="0.1"/>
<circle cx="45.5" cy="34.5" fill="none" r="0.5" stroke="black" stroke-width="0.1"/>
<circle cx="45.5" cy="34.5" fill="none" r="0.25" stroke="black" stroke-width="0.1"/>
<path d="M9.277778,35.27778 L9.722222,35.72222 M9.277778,35.72222 L9.722222,35.27778" fill="none" stroke="black" stroke-width="0.1"/>
<path d="M15.32,35.32 L15.68,35.68 M15.32,35.68 L15.68,35.32" fill="none" stroke="black" stroke-width="0.1"/>
<path d="M16.26384,35.26384 L16.73616,35.73616 M16.26384,35.73616 L16.73616,35.26384" fill="none" stroke="black" stroke-width="0.1"/>
<path d="M17.345745,35.345745 L17.654255,35.654255 M17.345745,35.654255 L17.654255,35.345745" fill="none" stroke="black" stroke-width="0.1"/>
<path d="M18.309786,35.309784 L18.690214,35.690216 M18.309786,35.690216 L18.690214,35.309784" fill="none" stroke="black" stroke-width="0.1"/>
<path d="M22.313437,35.313435 L22.686563,35.686565 M22.313437,35.686565 L22.686563,35.313435" fill="none" stroke="black" stroke-width="0.1"/>
<path d="M23.28336,35.28336 L23.71664,35.71664 M23.28336,35.71664 L23.71664,35.28336" fill="none" stroke="black" stroke-width="0.1"/>
<path d="M24.211073,35.21107 L24.788927,35.78893 M24.211073,35.78893 L24.788927,35.21107" fill="none" stroke="black" stroke-width="0.1"/>
<path d="M25.2848,35.2848 L25.7152,35.7152 M25.2848,35.7152 L25.7152,35.2848" fill="none" stroke="black" stroke-width="0.1"/>
<path d="M26.32,35.32 L26.68,35.68 M26.32,35.68 L26.68,35.32" fill="none" stroke="black" stroke-width="0.1"/>
<path d="M35.231625,35.231625 L35.768375,35.768375 M35.231625,35.768375 L35.768375,35.231625" fill="none" stroke="black" stroke-width="0.1"/>
<path d="M41.233112,35.233112 L41.766888,35.766888 M41.233112,35.766888 L41.766888,35.233112" fill="none" stroke="black" stroke-width="0.1"/>
<path d="M8.222222,36.22222 L8.777778,36.77778 M8.222222,36.77778 L8.777778,36.22222" fill="none" stroke="black" stroke-width="0.1"/>
<circle cx="9.5" cy="36.5" fill="none" r="0.5" stroke="black" stroke-width="0.1"/>
<circle cx="9.5" cy="36.5" fill="none" r="0.25" stroke="black" stroke-width="0.1"/>
<path d="M10.222222,36.22222 L10.777778,36.77778 M10.222222,36.77778 L10.777778,36.22222" fill="none" stroke="black" stroke-width="0.1"/>
<path d="M16.211073,36.21107 L16.788927,36.78893 M16.211073,36.78893 L16.788927,36.21107" fill="none" stroke="black" stroke-width="0.1"/>
<path d="M17.318232,36.31823 L17.681768,36.68177 M17.318232,36.68177 L17.681768,36.31823" fill="none" stroke="black" stroke-width="0.1"/>
<path d="M18.358326,36.358326 L18.641674,36.641674 M18.358326,36.641674 L18.641674,36.358326" fill="none" stroke="black" stroke-width="0.1"/>
<path d="M19.4096,36.4096 L19.5904,36.5904 M19.4096,36.5904 L19.5904,36.4096" fill="none" stroke="black" stroke-width="0.1"/>
<path d="M23.313131,36.313133 L23.686869,36.686867 M23.313131,36.686867 L23.686869,36.313133" fill="none" stroke="black" stroke-width="0.1"/>
<path d="M24.256,36.256 L24.744,36.744 M24.256,36.744 L24.744,36.256" fill="none" stroke="black" stroke-width="0.1"/>
<path d="M25.32,36.32 L25.68,36.68 M25.32,36.68 L25.68,36.32" fill="none" stroke="black" stroke-width="0.1"/>
<path d="M34.290974,36.290974 L34.709026,36.709026 M34.290974,36.709026 L34.709026,36.290974" fill="none" stroke="black" stroke-width="0.1"/>
<circle cx="35.5" cy="36.5" fill="none" r="0.5" stroke="black" stroke-width="0.1"/>
<circle cx="35.5" cy="36.5" fill="none" r="0.25" stroke="black" stroke-width="0.1"/>
<path d="M36.27682,36.27682 L36.72318,36.72318 M36.27682,36.72318 L36.72318,36.27682" fill="none" stroke="black" stroke-width="0.1"/>
<path d="M40.270905,36.270905 L40.729095,36.729095 M40.270905,36.729095 L40.729095,36.270905" fill="none" stroke="black" stroke-width="0.1"/>
<circle cx="41.5" cy="36.5" fill="none" r="0.5" stroke="black" stroke-width="0.1"/>
<circle cx="41.5" cy="36.5" fill="none" r="0.25" stroke="black" stroke-width="0.1"/>
<path d="M42.29305,36.29305 L42.70695,36.70695 M42.29305,36.70695 L42.70695,36.29305" fill="none" stroke="black" stroke-width="0.1"/>
<path d="M9.277778,37.27778 L9.722222,37.72222 M9.277778,37.72222 L9.722222,37.27778" fill="none" stroke="black" stroke-width="0.1"/>
<path d="M17.36961,37.36961 L17.63039,37.63039 M17.36961,37.63039 L17.63039,37.36961" fill="none" stroke="black" stroke-width="0.1"/>
<path d="M18.41237,37.41237 L18.58763,37.58763 M18.41237,37.58763 L18.58763,37.41237" fill="none" stroke="black" stroke-width="0.1"/>
<circle cx="19.5" cy="37.5" fill="none" r="0.13990983917464542" stroke="black" stroke-width="0.1"/>
<path d="M24.4,37.4 L24.6,37.6 M24.4,37.6 L24.6,37.4" fill="none" stroke="black" stroke-width="0.1"/>
<path d="M35.23444,37.23444 L35.76556,37.76556 M35.23444,37.76556 L35.76556,37.23444" fill="none" stroke="black" stroke-width="0.1"/>
<path d="M41.231197,37.231197 L41.768803,37.768803 M41.231197,37.768803 L41.768803,37.231197" fill="none" stroke="black" stroke-width="0.1"/>
<circle cx="6.5" cy="38.5" fill="none" r="0.5" stroke="black" stroke-width="0.1"/>
<circle cx="6.5" cy="38.5" fill="none" r="0.25" stroke="black" stroke-width="0.1"/>
<circle cx="18.5" cy="38.5" fill="none" r="0.11774597367644708" stroke="black" stroke-width="0.1"/>
<circle cx="19.5" cy="38.5" fill="none" r="0.10866200755177643" stroke="black" stroke-width="0.1"/>
<path d="M38.272423,38.272423 L38.727577,38.727577 M38.272423,38.727577 L38.727577,38.272423" fill="none" stroke="black" stroke-width="0.1"/>
<circle cx="5.5" cy="39.5" fill="none" r="0.5" stroke="black" stroke-width="0.1"/>
<circle cx="5.5" cy="39.5" fill="none" r="0.25" stroke="black" stroke-width="0.1"/>
<circle cx="7.5" cy="39.5" fill="none" r="0.5" stroke="black" stroke-width="0.1"/>
<circle cx="7.5" cy="39.5" fill="none" r="0.25" stroke="black" stroke-width="0.1"/>
<path d="M37.23444,39.23444 L37.76556,39.76556 M37.23444,39.76556 L37.76556,39.23444" fill="none" stroke="black" stroke-width="0.1"/>
<circle cx="38.5" cy="39.5" fill="none" r="0.5" stroke="black" stroke-width="0.1"/>
<circle cx="38.5" cy="39.5" fill="none" r="0.25" stroke="black" stroke-width="0.1"/>
<path d="M39.23444,39.23444 L39.76556,39.76556 M39.23444,39.76556 L39.76556,39.23444" fill="none" stroke="black" stroke-width="0.1"/>
<circle cx="5.5" cy="40.5" fill="none" r="0.5" stroke="black" stroke-width="0.1"/>
<circle cx="5.5" cy="40.5" fill="none" r="0.25" stroke="black" stroke-width="0.1"/>
<circle cx="7.5" cy="40.5" fill="none" r="0.5" stroke="black" stroke-width="0.1"/>
<circle cx="7.5" cy="40.5" fill="none" r="0.25" stroke="black" stroke-width="0.1"/>
<path d="M21.39164,40.39164 L21.60836,40.60836 M21.39164,40.60836 L21.60836,40.39164" fill="none" stroke="black" stroke-width="0.1"/>
<path d="M22.276955,40.276955 L22.723045,40.723045 M22.276955,40.723045 L22.723045,40.276955" fill="none" stroke="black" stroke-width="0.1"/>
<circle cx="23.5" cy="40.5" fill="none" r="0.1590043195528446" stroke="black" stroke-width="0.1"/>
<path d="M38.29305,40.29305 L38.70695,40.70695 M38.29305,40.70695 L38.70695,40.29305" fill="none" stroke="black" stroke-width="0.1"/>
<circle cx="6.5" cy="41.5" fill="none" r="0.5" stroke="black" stroke-width="0.1"/>
<circle cx="6.5" cy="41.5" fill="none" r="0.25" stroke="black" stroke-width="0.1"/>
<path d="M11.230041,41.23004 L11.769959,41.76996 M11.230041,41.76996 L11.769959,41.23004" fill="none" stroke="black" stroke-width="0.1"/>
<path d="M19.400663,41.40066 L19.599337,41.59934 M19.400663,41.59934 L19.599337,41.40066" fill="none" stroke="black" stroke-width="0.1"/>
<path d="M20.36463,41.364628 L20.63537,41.635372 M20.36463,41.635372 L20.63537,41.364628" fill="none" stroke="black" stroke-width="0.1"/>
<path d="M21.284407,41.284405 L21.715593,41.715595 M21.284407,41.715595 L21.715593,41.284405" fill="none" stroke="black" stroke-width="0.1"/>
<path d="M22.255182,41.255184 L22.744818,41.744816 M22.255182,41.744816 L22.744818,41.255184" fill="none" stroke="black" stroke-width="0.1"/>
<path d="M23.315374,41.315372 L23.684626,41.684628 M23.315374,41.684628 L23.684626,41.315372" fill="none" stroke="black" stroke-width="0.1"/>
<path d="M24.356,41.356 L24.644,41.644 M24.356,41.644 L24.644,41.356" fill="none" stroke="black" stroke-width="0.1"/>
<path d="M10.287551,42.28755 L10.712449,42.71245 M10.287551,42.71245 L10.712449,42.28755" fill="none" stroke="black" stroke-width="0.1"/>
<circle cx="11.5" cy="42.5" fill="none" r="0.5" stroke="black" stroke-width="0.1"/>
<circle cx="11.5" cy="42.5" fill="none" r="0.25" stroke="black" stroke-width="0.1"/>
<path d="M12.277164,42.277164 L12.722836,42.722836 M12.277164,42.722836 L12.722836,42.277164" fill="none" stroke="black" stroke-width="0.1"/>
<path d="M18.394682,42.394684 L18.605318,42.605316 M18.394682,42.605316 L18.605318,42.394684" fill="none" stroke="black" stroke-width="0.1"/>
<path d="M19.254847,42.25485 L19.745153,42.74515 M19.254847,42.74515 L19.745153,42.25485" fill="none" stroke="black" stroke-width="0.1"/>
<circle cx="20.5" cy="42.5" fill="none" r="0.5" stroke="black" stroke-width="0.1"/>
<circle cx="20.5" cy="42.5" fill="none" r="0.25" stroke="black" stroke-width="0.1"/>
<path d="M21.38988,42.389877 L21.61012,42.610123 M21.38988,42.610123 L21.61012,42.389877" fill="none" stroke="black" stroke-width="0.1"/>
<path d="M22.409216,42.409218 L22.590784,42.590782 M22.409216,42.590782 L22.590784,42.409218" fill="none" stroke="black" stroke-width="0.1"/>
<path d="M23.324524,42.324524 L23.675476,42.675476 M23.324524,42.675476 L23.675476,42.324524" fill="none" stroke="black" stroke-width="0.1"/>
<path d="M24.3848,42.3848 L24.6152,42.6152 M24.3848,42.6152 L24.6152,42.3848" fill="none" stroke="black" stroke-width="0.1"/>
<path d="M25.42,42.42 L25.58,42.58 M25.42,42.58 L25.58,42.42" fill="none" stroke="black" stroke-width="0.1"/>
<path d="M11.230041,43.23004 L11.769959,43.76996 M11.230041,43.76996 L11.769959,43.23004" fill="none" stroke="black" stroke-width="0.1"/>
<path d="M19.418558,43.41856 L19.581442,43.58144 M19.418558,43.58144 L19.581442,43.41856" fill="none" stroke="black" stroke-width="0.1"/>
<circle cx="20.5" cy="43.5" fill="none" r="0.5" stroke="black" stroke-width="0.1"/>
<circle cx="20.5" cy="43.5" fill="none" r="0.25" stroke="black" stroke-width="0.1"/>
<path d="M22.375101,43.375103 L22.624899,43.624897 M22.375101,43.624897 L22.624899,43.375103" fill="none" stroke="black" stroke-width="0.1"/>
<path d="M23.296654,43.296654 L23.703346,43.703346 M23.296654,43.703346 L23.703346,43.296654" fill="none" stroke="black" stroke-width="0.1"/>
<circle cx="24.5" cy="43.5" fill="none" r="0.19200000000000003" stroke="black" stroke-width="0.1"/>
<path d="M20.4,44.4 L20.6,44.6 M20.4,44.6 L20.6,44.4" fill="none" stroke="black" stroke-width="0.1"/>
<circle cx="21.5" cy="44.5" fill="none" r="0.5" stroke="black" stroke-width="0.1"/>
<circle cx="21.5" cy="44.5" fill="none" r="0.25" stroke="black" stroke-width="0.1"/>
<path d="M22.284857,44.28486 L22.715143,44.71514 M22.284857,44.71514 L22.715143,44.28486" fill="none" stroke="black" stroke-width="0.1"/>
<path d="M23.2848,44.2848 L23.7152,44.7152 M23.2848,44.7152 L23.7152,44.2848" fill="none" stroke="black" stroke-width="0.1"/>
<path d="M24.42,44.42 L24.58,44.58 M24.42,44.58 L24.58,44.42" fill="none" stroke="black" stroke-width="0.1"/>
<circle cx="77.5" cy="44.5" fill="none" r="0.5" stroke="black" stroke-width="0.1"/>
<circle cx="77.5" cy="44.5" fill="none" r="0.25" stroke="black" stroke-width="0.1"/>
<circle cx="78.5" cy="44.5" fill="none" r="0.5" stroke="black" stroke-width="0.1"/>
<circle cx="78.5" cy="44.5" fill="none" r="0.25" stroke="black" stroke-width="0.1"/>
<path d="M21.32,45.32 L21.68,45.68 M21.32,45.68 L21.68,45.32" fill="none" stroke="black" stroke-width="0.1"/>
<path d="M22.256,45.256 L22.744,45.744 M22.256,45.744 L22.744,45.256" fill="none" stroke="black" stroke-width="0.1"/>
<path d="M23.32,45.32 L23.68,45.68 M23.32,45.68 L23.68,45.32" fill="none" stroke="black" stroke-width="0.1"/>
<circle cx="77.5" cy="45.5" fill="none" r="0.5" stroke="black" stroke-width="0.1"/>
<circle cx="77.5" cy="45.5" fill="none" r="0.25" stroke="black" stroke-width="0.1"/>
<circle cx="78.5" cy="45.5" fill="none" r="0.5" stroke="black" stroke-width="0.1"/>
<circle cx="78.5" cy="45.5" fill="none" r="0.25" stroke="black" stroke-width="0.1"/>
<path d="M22.4,46.4 L22.6,46.6 M22.4,46.6 L22.6,46.4" fill="none" stroke="black" stroke-width="0.1"/>
<circle cx="11.5" cy="50.5" fill="none" r="0.5" stroke="black" stroke-width="0.1"/>
<circle cx="11.5" cy="50.5" fill="none" r="0.25" stroke="black" stroke-width="0.1"/>
<circle cx="10.5" cy="51.5" fill="none" r="0.5" stroke="black" stroke-width="0.1"/>
<circle cx="10.5" cy="51.5" fill="none" r="0.25" stroke="black" stroke-width="0.1"/>
<circle cx="12.5" cy="51.5" fill="none" r="0.5" stroke="black" stroke-width="0.1"/>
<circle cx="12.5" cy="51.5" fill="none" r="0.25" stroke="black" stroke-width="0.1"/>
<circle cx="25.5" cy="51.5" fill="none" r="0.5" stroke="black" stroke-width="0.1"/>
<circle cx="25.5" cy="51.5" fill="none" r="0.25" stroke="black" stroke-width="0.1"/>
<circle cx="10.5" cy="52.5" fill="none" r="0.5" stroke="black" stroke-width="0.1"/>
<circle cx="10.5" cy="52.5" fill="none" r="0.25" stroke="black" stroke-width="0.1"/>
<circle cx="11.5" cy="52.5" fill="none" r="0.5" stroke="black" stroke-width="0.1"/>
<circle cx="11.5" cy="52.5" fill="none" r="0.25" stroke="black" stroke-width="0.1"/>
<circle cx="24.5" cy="52.5" fill="none" r="0.5" stroke="black" stroke-width="0.1"/>
<circle cx="24.5" cy="52.5" fill="none" r="0.25" stroke="black" stroke-width="0.1"/>
<circle cx="26.5" cy="52.5" fill="none" r="0.5" stroke="black" stroke-width="0.1"/>
<circle cx="26.5" cy="52.5" fill="none" r="0.25" stroke="black" stroke-width="0.1"/>
<circle cx="24.5" cy="53.5" fill="none" r="0.5" stroke="black" stroke-width="0.1"/>
<circle cx="24.5" cy="53.5" fill="none" r="0.25" stroke="black" stroke-width="0.1"/>
<circle cx="26.5" cy="53.5" fill="none" r="0.5" stroke="black" stroke-width="0.1"/>
<circle cx="26.5" cy="53.5" fill="none" r="0.25" stroke="black" stroke-width="0.1"/>
<circle cx="18.5" cy="54.5" fill="none" r="0.5" stroke="black" stroke-width="0.1"/>
<circle cx="18.5" cy="54.5" fill="none" r="0.25" stroke="black" stroke-width="0.1"/>
<circle cx="19.5" cy="54.5" fill="none" r="0.5" stroke="black" stroke-width="0.1"/>
<circle cx="19.5" cy="54.5" fill="none" r="0.25" stroke="black" stroke-width="0.1"/>
<circle cx="25.5" cy="54.5" fill="none" r="0.5" stroke="black" stroke-width="0.1"/>
<circle cx="25.5" cy="54.5" fill="none" r="0.25" stroke="black" stroke-width="0.1"/>
<circle cx="18.5" cy="55.5" fill="none" r="0.5" stroke="black" stroke-width="0.1"/>
<circle cx="18.5" cy="55.5" fill="none" r="0.25" stroke="black" stroke-width="0.1"/>
<circle cx="19.5" cy="55.5" fill="none" r="0.5" stroke="black" stroke-width="0.1"/>
<circle cx="19.5" cy="55.5" fill="none" r="0.25" stroke="black" stroke-width="0.1"/>
<circle cx="65.5" cy="55.5" fill="none" r="0.5" stroke="black" stroke-width="0.1"/>
<circle cx="65.5" cy="55.5" fill="none" r="0.25" stroke="black" stroke-width="0.1"/>
<circle cx="66.5" cy="55.5" fill="none" r="0.5" stroke="black" stroke-width="0.1"/>
<circle cx="66.5" cy="55.5" fill="none" r="0.25" stroke="black" stroke-width="0.1"/>
<circle cx="65.5" cy="56.5" fill="none" r="0.5" stroke="black" stroke-width="0.1"/>
<circle cx="65.5" cy="56.5" fill="none" r="0.25" stroke="black" stroke-width="0.1"/>
<circle cx="66.5" cy="56.5" fill="none" r="0.5" stroke="black" stroke-width="0.1"/>
<circle cx="66.5" cy="56.5" fill="none" r="0.25" stroke="black" stroke-width="0.1"/>
<circle cx="74.5" cy="57.5" fill="none" r="0.5" stroke="black" stroke-width="0.1"/>
<circle cx="74.5" cy="57.5" fill="none" r="0.25" stroke="black" stroke-width="0.1"/>
<circle cx="73.5" cy="58.5" fill="none" r="0.5" stroke="black" stroke-width="0.1"/>
<circle cx="73.5" cy="58.5" fill="none" r="0.25" stroke="black" stroke-width="0.1"/>
<circle cx="75.5" cy="58.5" fill="none" r="0.5" stroke="black" stroke-width="0.1"/>
<circle cx="75.5" cy="58.5" fill="none" r="0.25" stroke="black" stroke-width="0.1"/>
<circle cx="73.5" cy="59.5" fill="none" r="0.5" stroke="black" stroke-width="0.1"/>
<circle cx="73.5" cy="59.5" fill="none" r="0.25" stroke="black" stroke-width="0.1"/>
<circle cx="75.5" cy="59.5" fill="none" r="0.5" stroke="black" stroke-width="0.1"/>
<circle cx="75.5" cy="59.5" fill="none" r="0.25" stroke="black" stroke-width="0.1"/>
<path d="M29.277779,60.27778 L29.722221,60.72222 M29.277779,60.72222 L29.722221,60.27778" fill="none" stroke="black" stroke-width="0.1"/>
<circle cx="46.5" cy="60.5" fill="none" r="0.5" stroke="black" stroke-width="0.1"/>
<circle cx="46.5" cy="60.5" fill="none" r="0.25" stroke="black" stroke-width="0.1"/>
<circle cx="74.5" cy="60.5" fill="none" r="0.5" stroke="black" stroke-width="0.1"/>
<circle cx="74.5" cy="60.5" fill="none" r="0.25" stroke="black" stroke-width="0.1"/>
<path d="M28.222221,61.22222 L28.777779,61.77778 M28.222221,61.77778 L28.777779,61.22222" fill="none" stroke="black" stroke-width="0.1"/>
<circle cx="29.5" cy="61.5" fill="none" r="0.5" stroke="black" stroke-width="0.1"/>
<circle cx="29.5" cy="61.5" fill="none" r="0.25" stroke="black" stroke-width="0.1"/>
<path d="M30.222221,61.22222 L30.777779,61.77778 M30.222221,61.77778 L30.777779,61.22222" fill="none" stroke="black" stroke-width="0.1"/>
<circle cx="45.5" cy="61.5" fill="none" r="0.5" stroke="black" stroke-width="0.1"/>
<circle cx="45.5" cy="61.5" fill="none" r="0.25" stroke="black" stroke-width="0.1"/>
<circle cx="47.5" cy="61.5" fill="none" r="0.5" stroke="black" stroke-width="0.1"/>
<circle cx="47.5" cy="61.5" fill="none" r="0.25" stroke="black" stroke-width="0.1"/>
<path d="M29.277779,62.27778 L29.722221,62.72222 M29.277779,62.72222 L29.722221,62.27778" fill="none" stroke="black" stroke-width="0.1"/>
<circle cx="45.5" cy="62.5" fill="none" r="0.5" stroke="black" stroke-width="0.1"/>
<circle cx="45.5" cy="62.5" fill="none" r="0.25" stroke="black" stroke-width="0.1"/>
<circle cx="47.5" cy="62.5" fill="none" r="0.5" stroke="black" stroke-width="0.1"/>
<circle cx="47.5" cy="62.5" fill="none" r="0.25" stroke="black" stroke-width="0.1"/>
<circle cx="65.5" cy="62.5" fill="none" r="0.5" stroke="black" stroke-width="0.1"/>
<circle cx="65.5" cy="62.5" fill="none" r="0.25" stroke="black" stroke-width="0.1"/>
<circle cx="66.5" cy="62.5" fill="none" r="0.5" stroke="black" stroke-width="0.1"/>
<circle cx="66.5" cy="62.5" fill="none" r="0.25" stroke="black" stroke-width="0.1"/>
<circle cx="46.5" cy="63.5" fill="none" r="0.5" stroke="black" stroke-width="0.1"/>
<circle cx="46.5" cy="63.5" fill="none" r="0.25" stroke="black" stroke-width="0.1"/>
<circle cx="65.5" cy="63.5" fill="none" r="0.5" stroke="black" stroke-width="0.1"/>
<circle cx="65.5" cy="63.5" fill="none" r="0.25" stroke="black" stroke-width="0.1"/>
<circle cx="66.5" cy="63.5" fill="none" r="0.5" stroke="black" stroke-width="0.1"/>
<circle cx="66.5" cy="63.5" fill="none" r="0.25" stroke="black" stroke-width="0.1"/>
<circle cx="16.5" cy="64.5" fill="none" r="0.5" stroke="black" stroke-width="0.1"/>
<circle cx="16.5" cy="64.5" fill="none" r="0.25" stroke="black" stroke-width="0.1"/>
<circle cx="70.5" cy="64.5" fill="none" r="0.5" stroke="black" stroke-width="0.1"/>
<circle cx="70.5" cy="64.5" fill="none" r="0.25" stroke="black" stroke-width="0.1"/>
<circle cx="71.5" cy="64.5" fill="none" r="0.5" stroke="black" stroke-width="0.1"/>
<circle cx="71.5" cy="64.5" fill="none" r="0.25" stroke="black" stroke-width="0.1"/>
<circle cx="15.5" cy="65.5" fill="none" r="0.5" stroke="black" stroke-width="0.1"/>
<circle cx="15.5" cy="65.5" fill="none" r="0.25" stroke="black" stroke-width="0.1"/>
<circle cx="17.5" cy="65.5" fill="none" r="0.5" stroke="black" stroke-width="0.1"/>
<circle cx="17.5" cy="65.5" fill="none" r="0.25" stroke="black" stroke-width="0.1"/>
<circle cx="70.5" cy="65.5" fill="none" r="0.5" stroke="black" stroke-width="0.1"/>
<circle cx="70.5" cy="65.5" fill="none" r="0.25" stroke="black" stroke-width="0.1"/>
<circle cx="71.5" cy="65.5" fill="none" r="0.5" stroke="black" stroke-width="0.1"/>
<circle cx="71.5" cy="65.5" fill="none" r="0.25" stroke="black" stroke-width="0.1"/>
<path d="M7.2777777,66.27778 L7.7222223,66.72222 M7.2777777,66.72222 L7.7222223,66.27778" fill="none" stroke="black" stroke-width="0.1"/>
<circle cx="16.5" cy="66.5" fill="none" r="0.5" stroke="black" stroke-width="0.1"/>
<circle cx="16.5" cy="66.5" fill="none" r="0.25" stroke="black" stroke-width="0.1"/>
<circle cx="17.5" cy="66.5" fill="none" r="0.5" stroke="black" stroke-width="0.1"/>
<circle cx="17.5" cy="66.5" fill="none" r="0.25" stroke="black" stroke-width="0.1"/>
<path d="M6.2222223,67.22222 L6.7777777,67.77778 M6.2222223,67.77778 L6.7777777,67.22222" fill="none" stroke="black" stroke-width="0.1"/>
<circle cx="7.5" cy="67.5" fill="none" r="0.5" stroke="black" stroke-width="0.1"/>
<circle cx="7.5" cy="67.5" fill="none" r="0.25" stroke="black" stroke-width="0.1"/>
<path d="M8.222222,67.22222 L8.777778,67.77778 M8.222222,67.77778 L8.777778,67.22222" fill="none" stroke="black" stroke-width="0.1"/>
<path d="M7.2777777,68.27778 L7.7222223,68.72222 M7.2777777,68.72222 L7.7222223,68.27778" fill="none" stroke="black" stroke-width="0.1"/>
<circle cx="28.5" cy="71.5" fill="none" r="0.5" stroke="black" stroke-width="0.1"/>
<circle cx="28.5" cy="71.5" fill="none" r="0.25" stroke="black" stroke-width="0.1"/>
<circle cx="29.5" cy="71.5" fill="none" r="0.5" stroke="black" stroke-width="0.1"/>
<circle cx="29.5" cy="71.5" fill="none" r="0.25" stroke="black" stroke-width="0.1"/>
<circle cx="28.5" cy="72.5" fill="none" r="0.5" stroke="black" stroke-width="0.1"/>
<circle cx="28.5" cy="72.5" fill="none" r="0.25" stroke="black" stroke-width="0.1"/>
<circle cx="29.5" cy="72.5" fill="none" r="0.5" stroke="black" stroke-width="0.1"/>
<circle cx="29.5" cy="72.5" fill="none" r="0.25" stroke="black" stroke-width="0.1"/>
<path d="M50.22222,73.22222 L50.77778,73.77778 M50.22222,73.77778 L50.77778,73.22222" fill="none" stroke="black" stroke-width="0.1"/>
<path d="M49.27778,74.27778 L49.72222,74.72222 M49.27778,74.72222 L49.72222,74.27778" fill="none" stroke="black" stroke-width="0.1"/>
<circle cx="50.5" cy="74.5" fill="none" r="0.5" stroke="black" stroke-width="0.1"/>
<circle cx="50.5" cy="74.5" fill="none" r="0.25" stroke="black" stroke-width="0.1"/>
<path d="M51.27778,74.27778 L51.72222,74.72222 M51.27778,74.72222 L51.72222,74.27778" fill="none" stroke="black" stroke-width="0.1"/>
<path d="M50.22222,75.22222 L50.77778,75.77778 M50.22222,75.77778 L50.77778,75.22222" fill="none" stroke="black" stroke-width="0.1"/>
<circle cx="17.5" cy="76.5" fill="none" r="0.5" stroke="black" stroke-width="0.1"/>
<circle cx="17.5" cy="76.5" fill="none" r="0.25" stroke="black" stroke-width="0.1"/>
<circle cx="29.5" cy="76.5" fill="none" r="0.5" stroke="black" stroke-width="0.1"/>
<circle cx="29.5" cy="76.5" fill="none" r="0.25" stroke="black" stroke-width="0.1"/>
<circle cx="30.5" cy="76.5" fill="none" r="0.5" stroke="black" stroke-width="0.1"/>
<circle cx="30.5" cy="76.5" fill="none" r="0.25" stroke="black" stroke-width="0.1"/>
<circle cx="16.5" cy="77.5" fill="none" r="0.5" stroke="black" stroke-width="0.1"/>
<circle cx="16.5" cy="77.5" fill="none" r="0.25" stroke="black" stroke-width="0.1"/>
<circle cx="18.5" cy="77.5" fill="none" r="0.5" stroke="black" stroke-width="0.1"/>
<circle cx="18.5" cy="77.5" fill="none" r="0.25" stroke="black" stroke-width="0.1"/>
<circle cx="28.5" cy="77.5" fill="none" r="0.5" stroke="black" stroke-width="0.1"/>
<circle cx="28.5" cy="77.5" fill="none" r="0.25" stroke="black" stroke-width="0.1"/>
<circle cx="31.5" cy="77.5" fill="none" r="0.5" stroke="black" stroke-width="0.1"/>
<circle cx="31.5" cy="77.5" fill="none" r="0.25" stroke="black" stroke-width="0.1"/>
<circle cx="16.5" cy="78.5" fill="none" r="0.5" stroke="black" stroke-width="0.1"/>
<circle cx="16.5" cy="78.5" fill="none" r="0.25" stroke="black" stroke-width="0.1"/>
<circle cx="19.5" cy="78.5" fill="none" r="0.5" stroke="black" stroke-width="0.1"/>
<circle cx="19.5" cy="78.5" fill="none" r="0.25" stroke="black" stroke-width="0.1"/>
<circle cx="29.5" cy="78.5" fill="none" r="0.5" stroke="black" stroke-width="0.1"/>
<circle cx="29.5" cy="78.5" fill="none" r="0.25" stroke="black" stroke-width="0.1"/>
<circle cx="30.5" cy="78.5" fill="none" r="0.5" stroke="black" stroke-width="0.1"/>
<circle cx="30.5" cy="78.5" fill="none" r="0.25" stroke="black" stroke-width="0.1"/>
<circle cx="59.5" cy="78.5" fill="none" r="0.5" stroke="black" stroke-width="0.1"/>
<circle cx="59.5" cy="78.5" fill="none" r="0.25" stroke="black" stroke-width="0.1"/>
<circle cx="60.5" cy="78.5" fill="none" r="0.5" stroke="black" stroke-width="0.1"/>
<circle cx="60.5" cy="78.5" fill="none" r="0.25" stroke="black" stroke-width="0.1"/>
<circle cx="17.5" cy="79.5" fill="none" r="0.5" stroke="black" stroke-width="0.1"/>
<circle cx="17.5" cy="79.5" fill="none" r="0.25" stroke="black" stroke-width="0.1"/>
<circle cx="18.5" cy="79.5" fill="none" r="0.5" stroke="black" stroke-width="0.1"/>
<circle cx="18.5" cy="79.5" fill="none" r="0.25" stroke="black" stroke-width="0.1"/>
<circle cx="19.5" cy="79.5" fill="none" r="0.5" stroke="black" stroke-width="0.1"/>
<circle cx="19.5" cy="79.5" fill="none" r="0.25" stroke="black" stroke-width="0.1"/>
<circle cx="59.5" cy="79.5" fill="none" r="0.5" stroke="black" stroke-width="0.1"/>
<circle cx="59.5" cy="79.5" fill="none" r="0.25" stroke="black" stroke-width="0.1"/>
<circle cx="60.5" cy="79.5" fill="none" r="0.5" stroke="black" stroke-width="0.1"/>
<circle cx="60.5" cy="79.5" fill="none" r="0.25" stroke="black" stroke-width="0.1"/>
</svg>