<?xml version="1.0" encoding="UTF-8" standalone="no"?>
<svg
   xmlns:dc="http://purl.org/dc/elements/1.1/"
   xmlns:cc="http://creativecommons.org/ns#"
   xmlns:rdf="http://www.w3.org/1999/02/22-rdf-syntax-ns#"
   xmlns:svg="http://www.w3.org/2000/svg"
   xmlns="http://www.w3.org/2000/svg"
   xmlns:sodipodi="http://sodipodi.sourceforge.net/DTD/sodipodi-0.dtd"
   xmlns:inkscape="http://www.inkscape.org/namespaces/inkscape"
   inkscape:version="1.0beta2 (2b71d25, 2019-12-03)"
   sodipodi:docname="image.svg"
   id="svg66"
   version="1.1"
   width="297mm"
   viewBox="0 0 297 210"
   style="background: white"
   height="210mm">
  <metadata
     id="metadata72">
    <rdf:RDF>
      <cc:Work
         rdf:about="">
        <dc:format>image/svg+xml</dc:format>
        <dc:type
           rdf:resource="http://purl.org/dc/dcmitype/StillImage" />
      </cc:Work>
    </rdf:RDF>
  </metadata>
  <defs
     id="defs70" />
  <sodipodi:namedview
     inkscape:current-layer="svg66"
     inkscape:window-maximized="0"
     inkscape:window-y="207"
     inkscape:window-x="1759"
     inkscape:cy="1818.2704"
     inkscape:cx="-977.8511"
     inkscape:zoom="0.0657876"
     showgrid="false"
     id="namedview68"
     inkscape:window-height="651"
     inkscape:window-width="934"
     inkscape:pageshadow="2"
     inkscape:pageopacity="0"
     guidetolerance="10"
     gridtolerance="10"
     objecttolerance="10"
     borderopacity="1"
     inkscape:document-rotation="0"
     bordercolor="#666666"
     pagecolor="#ffffff" />
  <path
     inkscape:connector-curvature="0"
     id="path60"
     stroke-width="1"
     stroke="black"
     fill="none"
     d="m 179.32025,180.93703 c -0.43358,-0.92998 -1.66663,-0.10725 -1.52561,0.69661 0.50935,0.87821 1.3512,-1.06325 1.32258,-0.77453 -0.4647,0.66896 0.22234,1.8261 0.90372,0.97737 0.75965,-0.84707 0.0777,-2.3498 -1.0466,-2.37033 -0.96518,0.0168 -1.76591,0.73809 -2.37926,1.41716 -0.70638,0.74026 0.001,1.7661 0.82733,1.98643 0.96586,0.3326 2.06278,0.3925 2.98378,-0.10976 0.68112,-0.33711 1.50778,-0.78609 1.70417,-1.56008 -0.63264,-1.09828 -1.81152,0.38507 -1.15261,1.10347 0.32183,0.26994 1.37609,-0.68111 0.9605,-0.82051 0.009,0.97307 0.36806,1.91356 0.40111,2.88093 -0.20166,1.06468 -2.24078,0.0963 -1.39113,-0.75492 0.64753,-0.72579 1.68314,-0.85228 2.46088,-1.3721 0.29816,-0.42112 0.10602,-1.57514 0.95474,-1.04687 0.64288,0.43054 -0.67527,1.72596 0.51702,1.50701 0.49836,-0.21499 1.94849,-0.42137 1.38042,-1.18571 -1.26159,-0.20415 -0.35717,1.75952 0.49963,1.04065 0.57892,-0.27741 0.83341,-1.21536 0.42709,-1.6051 0.14375,0.55767 1.15497,2.25772 1.46411,0.99808 0.0636,-0.38426 0.12141,-1.14061 0.30374,-0.36912 0.17574,0.80595 1.15024,1.47573 1.37081,0.32215 0.19582,-0.30268 -0.0809,-1.20822 0.29979,-0.40724 0.33292,0.69484 1.896,0.43834 1.8441,-0.33918 -0.59518,-0.6416 -1.61151,0.43562 -1.13476,1.12037 0.77322,0.28862 2.00939,-0.0631 2.11883,-1.00195 0.12386,-0.79131 0.0799,-1.60291 -0.0335,-2.39269 0.20226,1.18245 0.37467,2.38142 0.71989,3.5314 0.63176,0.50393 1.72302,0.49507 2.32379,-0.0709 0.90945,-0.5563 -0.0799,-1.43078 -0.81533,-1.36208 -0.63473,0.0238 -1.60877,0.72232 -1.55061,1.15681 0.62479,-0.71645 1.66728,-0.36788 2.49218,-0.50496 0.9546,-0.0798 1.93964,-0.17211 2.86348,-0.35447 0.0725,0.12597 -0.0832,0.16301 -0.1292,0.0524" />
  <g
     id="g64"
     inkscape:label="black"
     inkscape:groupmode="layer">
    <path
       id="path62"
       stroke-width="0.2"
       stroke="black"
       fill="none"
       d="M134.26,185.18 L131.22,182.52 L124.76,181.38 L122.86,184.04 L118.3,180.62 L119.06,179.1 L123.62,176.44 L124.76,177.2 L125.9,176.44 L127.04,171.5 L127.42,168.46 L130.46,165.04 L131.22,158.2 L133.88,158.96 L133.88,152.12 L133.5,151.36 L132.36,153.26 L132.36,154.02 L131.6,154.02 L127.04,158.2 L127.42,158.2 L124.38,155.16 L124.38,150.98 L124.76,149.46 L123.24,148.32 L127.8,150.6 L130.08,153.26 L128.94,149.84 L130.84,148.32 L131.98,148.32 L128.56,144.14 L133.5,147.18 L134.64,144.9 L132.36,143.76 L132.36,143.38 L127.42,141.48 L124.38,134.26 L125.52,134.64 L125.14,132.74 L127.04,135.02 L130.84,137.3 L131.98,135.78 L140.72,135.4 L138.82,133.5 L135.02,128.18 L133.5,125.52 L128.94,123.62 L131.22,122.48 L137.68,120.96 L139.2,115.26 L131.98,114.5 L128.56,115.64 L127.04,118.68 L126.28,119.44 L125.14,123.24 L125.52,124.38 L127.42,129.32 L131.98,133.12 L132.74,131.6 L134.64,132.36 L144.52,126.66 L145.28,127.42 L147.18,125.9 L143.76,119.44 L142.62,122.86 L152.5,118.68 L153.64,131.6 L154.02,141.1 L141.86,140.34 L139.96,136.92 L139.58,141.1 L146.04,145.66 L143.38,147.18 L141.86,146.04 L141.1,149.84 L138.06,148.32 L135.78,146.04 L135.4,150.98 L137.68,152.88 L139.96,150.6 L140.34,154.02 L144.14,151.74 L141.86,154.78 L139.2,155.54 L134.64,165.42 L130.46,167.7 L135.4,174.54 L128.56,173.4 L129.7,174.92 L129.7,176.82 L132.36,177.2 L138.82,186.32 L134.26,185.18 M67,195.82 L70.8,195.06 L68.9,187.84 L79.16,190.12 L83.72,185.94 L84.86,186.32 L94.36,183.28 L99.68,181.76 L105.38,176.82 L101.58,174.54 L100.82,174.54 L108.8,188.22 L121.72,180.62 L122.1,177.58 L108.8,174.92 L81.82,144.52 L92.46,146.8 L99.3,143.38 L98.54,150.22 L92.46,147.18 L95.12,150.6 L99.3,150.6 L106.9,155.54 L109.94,153.64 L104.24,154.02 L103.1,163.52 L101.2,167.32 L102.34,164.28 L100.82,164.28 L103.48,158.96 L98.92,157.44 L100.44,156.3 L98.92,165.8 L91.32,165.04 L96.26,167.32 L102.34,171.88 L95.5,171.5 L95.12,163.9 L90.94,165.42 L86.38,181.38 L90.18,171.12 L86.76,173.02 L84.86,175.3 L80.68,155.92 L84.48,153.26 L85.24,152.5 L86.76,138.44 L80.68,130.08 L81.82,136.16 L79.92,136.92 L85.62,135.02 L101.58,152.12 L101.96,153.64 L98.16,151.74 L103.48,156.3 L105,158.96 L106.14,163.9 L106.9,175.3 L122.48,184.8 L128.56,185.18 L125.9,182.52 L138.44,181.76 L146.04,176.06 L112.22,166.94 L107.66,162 L106.52,157.44 L110.32,156.68 L115.64,160.86 L116.4,163.9 L112.22,167.32 L108.04,171.5 L110.32,169.98 L111.46,169.98 L108.04,168.08 L95.5,168.46 L90.56,173.78 L93.98,181.38 L97.02,189.36 L90.18,188.98 L92.46,187.46 L90.18,174.54 L94.36,174.92 L95.12,175.68 L97.4,184.04 L95.88,185.94 L99.3,184.42 L106.14,184.8 L107.66,185.18 L137.68,183.28 L147.18,184.04 L131.98,180.24 L116.02,183.66 L113.74,182.14 L116.02,171.5 L108.04,165.42 L105.76,182.14 L102.34,183.28 L105,182.9 L103.86,181 L101.58,181 L103.1,186.32 L101.58,187.46 L93.22,187.08 L75.74,189.74 L77.64,192.02 L84.48,188.6 L92.08,185.94 L92.08,186.7 L95.12,185.56 L86,181.38 L85.62,177.96 L87.52,157.06 L89.42,161.62 L77.26,154.02 L80.68,146.04 L82.96,148.32 L80.3,152.12 L86,162.76 L85.24,163.14 L92.46,166.56 L89.04,169.22 L87.9,167.32 L90.94,165.04 L98.16,163.9 L95.12,170.36 L97.02,175.3 L97.02,179.1 L95.5,184.04 L95.5,184.42 L102.34,188.6 L105.38,192.4 L111.08,193.54 L104.24,196.2 L100.06,196.2 L100.82,190.12 L95.5,192.4 L94.74,193.92 L94.74,190.5 L94.36,191.26 L91.32,196.96 L78.78,198.1 L67,195.82 M63.58,193.92 L65.1,195.06 L65.48,193.54 L71.18,191.64 L72.32,190.12 L72.7,188.6 L73.84,187.84 L77.64,187.84 L82.96,182.14 L81.44,189.36 L86,198.1 L79.16,192.02 L76.88,193.92 L74.22,192.4 L73.46,193.92 L71.18,194.68 L63.96,199.62 L63.58,194.68 L63.58,193.92 M103.1,146.8 L101.96,147.94 L96.26,145.28 L90.18,148.7 L97.78,148.32 L100.06,153.26 L111.46,163.14 L116.4,160.86 L112.6,157.82 L110.32,153.26 L110.32,151.36 L103.1,146.8 M148.7,175.68 L143.38,177.96 L147.94,184.04 L149.08,186.7 L147.18,192.78 L141.86,184.04 L133.88,183.66 L140.72,168.46 L141.48,161.24 L141.86,162 L143,167.32 L146.04,167.7 L146.42,168.08 L144.14,169.98 L148.7,175.68 M100.82,169.22 L96.26,170.36 L85.62,167.32 L81.44,166.18 L86.38,163.9 L91.7,162.76 L96.26,165.8 L101.96,165.8 L100.82,169.22 M143.38,112.98 L141.48,112.6 L141.86,107.28 L141.1,107.28 L140.72,103.48 L139.58,101.58 L143.38,100.44 L143.38,99.68 L150.6,101.2 L152.88,98.16 L155.54,104.62 L158.2,104.24 L158.58,105.76 L160.48,103.86 L167.7,101.96 L167.7,107.28 L169.98,112.22 L165.8,120.96 L161.24,117.54 L157.06,124.38 L154.4,124.38 L151.36,128.56 L152.5,131.6 L154.78,126.66 L160.86,124.76 L166.94,126.66 L155.92,139.2 L144.14,134.26 L138.44,130.84 L137.3,131.98 L135.4,133.5 L135.78,144.52 L128.18,148.32 L123.62,149.08 L124.38,143.38 L126.28,143 L131.6,142.62 L130.08,138.06 L127.8,135.02 L128.56,130.08 L127.8,129.7 L126.66,127.8 L127.8,125.52 L131.22,121.34 L133.12,122.1 L133.5,126.66 L131.6,124.76 L125.9,123.24 L123.62,119.06 L125.52,112.98 L127.04,103.48 L130.84,97.02 L133.12,96.26 L134.64,103.48 L137.68,106.9 L135.02,118.3 L137.68,119.82 L137.68,122.86 L136.92,126.28 L150.22,122.86 L154.02,112.98 L155.54,110.32 L154.78,105.76 L152.88,107.66 L150.98,105.38 L149.08,110.7 L150.98,112.98 L149.08,112.6 L146.42,115.64 L142.24,116.78 L143.38,112.98 M150.22,122.1 L150.98,122.86 L152.12,123.62 L155.16,120.2 L159.34,120.96 L159.72,121.34 L159.72,123.62 L159.72,126.28 L155.16,127.42 L152.88,127.8 L151.74,129.32 L150.98,130.84 L154.4,130.84 L154.02,133.12 L152.88,138.06 L154.4,139.58 L153.26,140.34 L146.04,134.64 L146.04,128.56 L143,128.94 L141.86,129.7 L144.14,131.6 L137.68,135.02 L135.4,135.4 L133.12,138.06 L134.26,135.78 L137.68,130.46 L130.08,128.94 L129.7,119.44 L132.74,116.78 L128.18,110.7 L128.94,105.76 L130.84,103.48 L127.42,100.82 L133.5,100.44 L136.54,104.24 L139.2,103.1 L141.86,103.86 L153.26,100.06 L154.02,103.86 L158.58,102.34 L159.72,106.52 L160.1,107.28 L166.56,101.2 L171.88,106.14 L173.4,112.98 L171.12,115.26 L169.98,110.7 L156.3,109.18 L151.36,114.5 L148.7,110.7 L147.56,107.66 L143,108.42 L141.1,107.66 L133.88,107.28 L136.16,112.98 L137.3,118.68 L136.54,120.2 L138.82,125.9 L140.34,122.1 L142.62,116.02 L141.86,114.12 L147.94,112.98 L147.18,116.4 L147.94,120.96 L148.7,123.62 L150.22,122.1 M93.6,149.08 L87.52,152.12 L97.78,151.74 L101.2,150.22 L100.44,149.08 L93.6,149.08 M82.2,93.6 L81.82,93.22 L85.62,94.74 L87.52,90.94 L94.74,95.88 L89.04,100.44 L89.04,101.2 L88.66,103.86 L90.94,104.24 L87.14,107.66 L82.96,105.76 L85.62,109.18 L84.86,110.32 L82.58,114.88 L85.62,113.74 L85.62,109.56 L95.5,114.88 L95.12,111.84 L97.4,112.22 L98.92,112.22 L98.16,111.08 L97.02,103.86 L96.64,103.86 L96.26,101.96 L95.12,103.1 L93.98,105 L92.84,106.14 L92.08,106.14 L92.08,101.2 L94.74,99.68 L97.4,99.3 L98.92,100.82 L100.06,97.02 L102.72,91.7 L104.24,92.46 L103.1,92.84 L100.82,95.12 L103.86,98.92 L103.48,101.58 L102.72,100.82 L101.2,101.58 L106.14,103.1 L102.72,104.62 L101.58,105.76 L100.82,106.52 L105.76,107.28 L106.52,110.32 L106.9,108.8 L106.52,108.8 L101.96,109.94 L104.62,110.7 L104.24,116.4 L103.48,114.12 L109.18,116.4 L109.56,117.92 L108.04,125.9 L108.42,126.66 L105.38,126.28 L82.58,125.9 L89.42,124 L80.68,119.82 L81.06,116.78 L79.92,113.74 L79.92,113.36 L79.92,112.6 L78.02,111.08 L74.6,110.32 L75.74,105.38 L73.46,105.76 L73.08,106.9 L64.34,103.1 L66.62,102.34 L74.22,102.72 L77.26,103.48 L80.68,102.34 L86.38,98.92 L82.2,93.6 M80.3,130.08 L81.82,141.48 L83.72,142.24 L83.72,138.06 L84.48,135.4 L82.2,130.08 L84.86,128.56 L86.76,129.7 L86.38,128.18 L86.38,125.14 L81.82,117.54 L81.44,116.02 L80.3,115.26 L82.96,114.5 L80.68,112.22 L75.74,108.42 L77.64,116.02 L76.12,118.3 L79.16,122.48 L80.3,130.08 M139.96,97.02 L137.68,95.12 L133.5,95.5 L126.28,101.2 L132.74,100.82 L139.96,106.52 L142.62,98.16 L150.6,99.3 L157.06,98.92 L152.12,95.88 L148.7,96.26 L145.66,95.88 L140.34,95.88 L139.96,97.02 M135.4,180.62 L132.36,179.48 L130.46,177.58 L131.98,186.32 L131.98,187.08 L141.48,181.38 L146.42,173.4 L135.4,180.62 M138.06,109.94 L132.36,106.52 L127.42,105.38 L125.14,108.8 L130.84,107.66 L138.06,109.94 M136.16,186.32 L133.5,184.42 L127.04,182.52 L131.98,187.46 L133.12,188.98 L140.34,189.36 L142.62,191.26 L144.9,192.78 L147.18,192.4 L146.42,189.74 L146.42,189.36 L139.96,187.46 L136.16,186.32 M184.04,109.18 L179.1,105.38 L176.44,103.86 L173.4,102.72 L166.94,99.68 L165.04,104.24 L166.18,106.9 L154.78,114.88 L161.62,114.88 L170.36,115.26 L176.06,110.7 L177.58,107.28 L178.72,108.04 L184.04,109.18 M74.22,105.76 L70.42,102.72 L69.66,100.06 L70.42,99.68 L79.54,98.16 L77.64,104.24 L74.22,105.76 M81.82,94.74 L86,90.94 L85.62,92.46 L85.24,93.6 L88.28,103.48 L84.1,98.54 L81.82,94.74 M99.68,183.28 L90.56,181.38 L90.56,185.94 L84.86,174.92 L94.74,178.34 L87.14,185.94 L105.76,185.18 L90.56,172.26 L98.54,177.58 L89.42,184.8 L100.44,176.06 L97.02,174.54 L109.18,180.24 L90.18,192.4 L86.76,189.74 L86.76,172.26 L110.7,188.6 L105.38,183.28 L77.64,190.12 L76.5,188.22 L104.24,180.24 L109.18,187.46 L81.44,186.32 L84.86,175.3 L71.94,196.58 L104.62,192.4 L68.14,196.2 L99.68,186.32 L109.94,184.8 L94.74,172.64 L99.68,188.6 L98.54,168.08 L96.64,172.26 L77.64,192.4 L74.98,188.22 L86,193.54 L104.24,181.76 L71.18,192.78 L105.76,197.72 L114.5,194.3 L110.7,178.72 L68.52,195.06 L102.34,172.26 L107.28,195.44 L89.04,164.28 L84.1,185.18 L85.62,182.9 L95.12,173.02 L117.54,184.42 L101.2,169.6 L78.4,188.22 L95.88,161.24 L80.68,189.74 L90.18,168.08 L105,182.52 L96.64,157.82 L107.28,185.56 L112.22,173.78 L100.82,182.14 L95.5,152.5 L108.04,166.18 L84.86,179.48 L99.68,161.62 L92.84,193.16 L89.04,193.16 L114.5,197.72 L103.1,183.28 L107.66,173.4 L99.3,182.9 L85.24,182.14 L95.12,167.7 L83.72,182.9 L67,195.82 L81.06,188.22 L110.32,168.84 L103.48,152.88 L104.62,185.18 L107.66,158.2 L121.72,180.24 L90.18,154.02 L89.42,152.5 L108.42,173.78 L118.68,179.48 L129.7,182.52 L87.14,185.56 L87.9,179.1 L124.38,184.42 L92.08,188.22 L90.56,155.92 L109.18,168.46 L90.94,182.9 L93.6,186.32 L90.94,157.82 L90.56,174.54 L87.52,165.42 L100.44,153.26 L92.46,155.16 L79.92,197.72 L104.62,168.08 L136.92,179.48 L84.86,146.8 L74.6,195.44 L121.34,177.96 L81.82,197.34 L117.54,188.6 L107.66,184.8 L125.52,179.86 L113.74,195.82 L114.5,176.44 L74.22,192.02 L103.48,181.38 L112.98,188.22 L95.12,194.68 L106.14,187.08 L100.06,159.34 L119.82,193.54 L107.66,160.48 L131.98,184.42 L103.86,190.5 M125.14,197.34 L124,195.44 L127.04,191.64 L131.98,184.8 L119.44,196.96 L130.08,199.62 L127.8,187.08 L129.7,192.4 L114.5,197.34 L135.78,178.72 L131.22,195.44 L141.48,172.26 L122.1,184.8 L121.34,189.36 L137.68,182.52 L128.18,178.34 L132.74,191.64 L131.98,195.82 L125.14,186.7 L130.84,171.88 L132.36,184.42 L128.56,192.02 L133.12,174.92 L132.74,171.88 L129.7,180.24 L145.66,187.08 L139.58,181.38 L146.42,184.8 L149.08,192.4 L147.18,193.92 L143.38,178.72 L142.62,192.02 L144.14,173.4 L143,196.96 L137.3,195.44 L127.42,168.08 L138.06,195.82 L130.08,195.82 L141.1,195.82 L148.7,196.96 L147.18,199.24 L145.66,184.42 L135.78,194.68 L139.58,190.12 L145.28,192.4 M128.56,109.94 L133.12,115.26 L128.18,105 L140.72,117.54 L132.74,114.5 L126.28,101.96 L143.76,115.64 L132.74,118.68 L141.1,119.44 L137.3,108.04 L135.4,112.6 L135.02,102.34 L130.08,124.38 L133.5,109.94 L152.12,116.4 L156.3,114.12 L147.56,111.08 L137.68,114.12 L140.72,105.38 L141.48,108.42 L161.62,108.8 L125.9,113.36 L149.46,110.7 L142.62,126.28 L157.82,118.3 L125.14,117.16 L141.1,122.1 L162,121.34 L141.48,124.76 L133.88,114.5 L127.8,124 L151.74,125.52 L132.36,110.32 L132.74,110.7 L122.86,120.58 L133.5,99.68 L153.26,117.92 L143,129.32 L154.78,131.6 L147.56,109.56 L141.1,130.46 L139.2,111.08 L147.56,123.24 L133.5,125.14 L160.48,126.66 L150.98,101.2 L135.02,99.68 L131.98,114.88 L146.42,123.24 L162.76,124.38 L128.18,112.6 L120.96,126.28 L142.24,118.3 L149.46,131.98 L137.3,95.5 L161.24,110.7 L152.88,124 L158.58,107.66 L140.72,115.26 L133.88,116.78 L152.88,114.12 L128.56,130.46 L133.5,124.76 L128.56,112.98 L150.98,109.18 L147.18,94.74 L157.82,119.44 L129.32,125.52 L125.14,125.14 L145.28,98.92 L143.38,116.02 L142.24,108.04 L162,100.44 L139.96,103.86 L133.12,138.06 L153.64,107.28 L130.08,106.52 L150.98,97.78 L166.94,108.42 L162,120.58 L155.92,100.06 L131.22,143.38 L141.86,117.54 L165.8,100.82 L119.44,129.32 L132.74,145.66 L143,115.26 L152.12,121.34 L160.1,108.42 L174.92,106.9 L113.36,134.26 L147.18,134.26 L152.88,116.4 L151.74,109.94 L152.5,136.54 L112.98,130.84 L168.46,101.96 L170.74,107.66 L167.7,121.72 L168.08,101.96 L135.78,130.08 L150.22,137.68 L124,128.18 M146.8,181.76 L147.94,187.46 L147.94,196.2 L146.8,182.14 L138.44,177.96 L133.12,172.26 L148.32,178.72 L143.76,173.4 L143.38,179.1 L132.74,174.92 L150.22,188.98 L139.96,190.12 L142.24,193.54 L142.24,199.62 L150.22,181.38 L143.76,193.92 L150.22,185.94 L145.66,197.34 M84.86,129.7 L87.52,136.16 L79.92,123.24 L82.58,135.02 L87.14,121.34 L82.58,125.14 L89.04,144.9 L82.2,138.44 L84.1,134.26 L93.22,124.38 L97.4,117.16 L82.96,128.94 L84.48,149.46 L97.02,112.6 L98.54,128.94 L101.58,109.56 L98.16,114.88 L80.68,140.34 L89.04,122.48 L100.06,133.5 L89.42,152.12 L81.44,139.2 L79.92,148.32 L87.52,140.72 L96.64,109.94 L100.82,112.98 L106.14,115.64 L95.88,121.34 L104.24,110.32 L88.66,144.14 L103.48,110.7 L84.1,141.1 L104.62,127.8 L90.18,127.04 L103.1,107.66 L103.1,125.9 L100.06,110.7 L78.02,114.5 L101.58,129.32 L99.3,119.06 L82.58,129.7 L108.42,131.22 L84.86,128.56 L107.66,108.04 L84.48,132.36 L99.3,136.54 L81.44,153.64 L90.18,141.86 L96.26,115.64 L100.82,125.52 L95.12,141.86 L98.16,112.98 L95.5,120.96 L97.02,114.5 L81.06,144.9 L98.16,115.64 L102.34,109.94 L105,125.14 L82.2,109.94 L97.02,127.04 L101.2,124.38 L109.94,120.2 L101.58,119.06 L73.84,107.66 M124.76,154.4 L117.92,151.74 L114.12,150.22 L111.84,151.36 L120.2,144.14 L132.74,156.68 L115.64,155.92 L113.36,149.46 L113.36,146.42 L111.46,147.94 L124,140.72 L107.28,152.88 L117.92,138.44 L135.4,154.78 L101.58,154.78 L123.62,141.86 L135.02,152.12 L119.82,136.16 L116.02,152.12 L119.44,139.96 L125.14,136.54 L121.34,138.44 L129.32,162 L118.3,163.52 L124,162.38 L105.76,143.38 L105.76,155.54 L126.28,154.4 L132.74,148.7 L139.2,157.82 L129.32,145.28 L140.34,144.14 L132.36,138.82 L120.2,136.16 L134.64,160.86 L139.58,160.48 L126.28,162.76 L138.82,151.74 L111.46,142.62 L111.08,144.14 L117.54,143 L143.76,154.78 M124.76,187.08 L131.98,183.66 L129.7,179.86 L120.96,178.72 L123.24,185.56 L122.48,176.44 L121.72,177.2 M79.92,116.4 L82.58,117.54 L82.2,111.84 L79.54,117.16 L79.16,109.94 L79.92,101.58 L85.62,100.44 L79.16,117.92 L75.36,117.92 L91.7,107.66 L87.52,95.12 L76.88,97.4 L86.38,91.7 L86,102.34 L79.54,105 L74.22,110.7 L77.64,110.32 L80.68,110.7 L78.02,105.38 L71.56,104.62 L78.4,107.28 L82.2,98.54 L83.72,107.28 L89.04,106.52 L73.84,98.16 L90.94,100.82 L82.2,112.98 L87.52,90.56 L89.04,95.12 L91.7,101.58 L78.02,90.94 L92.46,97.4 L80.68,94.74 L84.48,90.94 M106.52,142.62 L102.34,143 L97.78,143.38 L92.84,145.66 L93.22,145.28 L89.04,153.64 L94.36,150.6 L82.58,152.88 L94.74,155.16 M163.9,117.54 L165.04,118.3 L171.5,111.46 L158.58,117.54 L158.96,125.9 L173.02,111.46 L170.74,109.18 L154.4,130.84 L181.76,108.04 L153.26,139.2 L179.86,108.8 L146.42,144.52 L151.74,141.48 L143,146.42 L156.68,141.1 L173.02,106.9 L174.54,103.1 L178.34,108.8 M98.16,165.04 L98.54,171.88 L104.62,170.74 L98.92,164.66 L105.76,164.66 L93.22,162.76 L101.96,161.62 L108.8,166.56 M157.44,128.56 L153.64,133.88 L151.36,130.84 L147.94,130.08 L151.36,133.5 M125.52,137.3 L127.8,142.62 L124.76,131.22 L132.36,129.32 L132.74,133.88 L136.54,135.02 L143,140.72 L146.42,146.04 M109.56,111.84 L107.28,103.86 L106.14,109.94 L108.8,119.82 L101.58,107.66 L106.9,101.96 L109.56,122.86 L101.96,108.04 L106.52,118.68 M132.74,147.18 L140.34,151.74 L137.68,145.66 L141.86,139.96 L150.22,143.76 L138.82,140.34 L136.92,145.66 L144.14,150.6 L142.24,143 L144.9,151.36 M62.44,163.9 L63.96,173.02 L72.7,154.78 L77.26,151.36 L74.98,150.22 L67.38,148.32 L69.28,152.12 L70.42,154.02 L65.48,157.06 L62.44,163.9 M162.38,103.1 L159.72,103.48 L137.3,99.3 L132.74,98.54 L134.64,92.84 L136.54,86 L141.1,86 L142.62,89.04 L142.24,89.42 L146.42,95.88 L154.78,95.88 L162.38,103.1 M188.22,123.24 L187.08,120.2 L183.28,113.36 L187.08,108.04 L186.7,114.88 L187.84,116.02 L190.5,123.62 L188.22,123.24 M187.08,46.86 L188.22,48.38 L190.5,44.96 L193.16,43.44 L194.68,39.64 L190.5,35.08 L187.08,46.86 M114.5,79.16 L113.74,73.84 L106.14,80.68 L105.76,78.4 L102.34,77.26 L98.54,81.06 L96.64,90.56 L101.2,84.1 L108.42,83.34 L114.5,87.9 L116.02,93.98 L116.4,88.28 L121.72,81.44 L116.78,79.54 L114.5,79.16 M157.06,24.06 L155.92,18.36 L143,32.04 L149.08,30.9 L158.2,30.52 L163.14,30.9 L163.14,24.44 L160.48,23.68 L157.06,24.06 M24.06,156.68 L30.9,160.48 L34.7,166.94 L29,171.88 L41.54,173.02 L39.26,166.56 L38.12,160.1 L31.28,152.5 L24.06,156.68 M106.14,27.48 L109.56,25.2 L104.24,22.92 L103.48,14.18 L95.12,19.5 L97.02,26.72 L106.14,27.48 M97.78,185.18 L99.68,190.5 L102.34,197.34 L95.88,196.58 L97.4,190.12 L97.78,185.18 M162.38,190.12 L150.98,184.04 L149.84,176.82 L154.78,172.26 L154.78,173.02 L153.26,179.48 L153.64,182.9 L157.82,184.42 L162.38,190.12 M63.58,139.58 L68.9,137.68 L72.7,137.3 L76.12,140.72 L76.12,128.94 L55.98,137.3 L62.44,139.2 L63.58,139.58 M181.76,73.08 L183.66,67.76 L190.88,62.06 L187.84,70.04 L184.42,71.56 L181.76,73.08 M98.16,101.58 L103.1,98.16 L93.6,97.4 L86.76,109.94 L79.92,112.22 L87.52,122.1 L89.42,114.12 L100.06,110.7 L94.36,106.14 L98.16,101.58 M147.18,42.3 L146.42,47.24 L138.82,54.08 L140.34,48 L133.5,35.08 L133.12,29.76 L139.96,33.18 L143.76,29.38 L143,32.42 L144.52,35.46 L147.18,42.3 M73.84,37.74 L78.78,45.34 L81.06,48 L81.44,53.7 L86.76,59.02 L79.92,59.4 L65.86,55.22 L71.94,51.04 L72.7,48.38 L67.76,48 L66.62,47.62 L63.2,43.82 L73.46,30.9 L73.84,37.74 M44.58,94.74 L43.44,89.04 L42.3,77.26 L37.36,84.48 L35.84,92.84 L44.58,94.74 M100.06,56.74 L98.54,57.5 L96.26,63.2 L93.98,55.98 L92.08,52.56 L97.4,45.34 L107.28,57.88 L100.06,56.74 M173.02,119.44 L171.12,130.84 L165.42,124.76 L165.42,121.34 L163.52,121.34 L162.76,119.82 L162.76,113.36 L171.88,114.12 L178.34,112.6 L173.02,119.44 M108.04,119.44 L101.58,119.82 L81.82,123.24 L89.42,120.58 L95.12,119.44 L109.56,113.74 L113.74,113.36 L117.92,112.6 L113.74,117.92 L108.04,119.44 M172.26,101.96 L173.02,109.18 L175.68,105 L177.96,101.2 L172.64,93.98 L172.26,101.96 M105.76,12.28 L112.98,10.76 L124.76,17.98 L125.9,18.74 L116.4,16.84 L109.94,14.56 L105.76,12.28 M26.34,117.92 L35.08,117.54 L32.04,123.24 L24.06,122.1 L17.6,125.52 L18.36,105 L19.88,99.68 L28.62,102.72 L31.66,102.34 L35.46,109.18 L27.1,106.52 L25.2,110.32 L26.34,117.92 M192.02,32.04 L192.78,32.42 L196.58,27.1 L190.5,21.4 L188.22,12.28 L183.66,17.6 L184.04,30.14 L185.56,29.38 L187.46,29 L192.02,32.04 M50.28,193.92 L43.82,194.3 L37.74,195.44 L35.84,194.3 L35.46,192.4 L33.18,194.3 L34.32,197.34 L43.44,196.96 L50.28,193.92 M80.68,81.82 L69.66,85.24 L74.98,79.16 L81.06,78.78 L89.42,78.4 L83.34,81.82 L82.96,82.2 L80.68,81.82 M19.12,42.68 L20.64,41.54 L28.62,40.78 L31.28,41.92 L27.1,43.06 L25.58,44.96 L19.12,42.68 M57.12,130.08 L54.08,131.22 L53.32,125.9 L68.9,127.42 L62.06,128.94 L57.12,130.08 M53.7,193.54 L51.42,187.08 L46.1,181.38 L44.96,174.92 L53.7,180.62 L59.4,187.46 L59.4,195.82 L53.7,193.54 M15.32,77.64 L10,73.84 L13.42,83.34 L16.46,84.48 L23.68,77.26 L15.32,77.64 M69.28,91.7 L61.3,95.88 L61.68,97.78 L63.58,107.28 L65.86,114.88 L51.8,112.6 L55.98,104.62 L53.32,98.92 L61.68,88.66 L69.28,91.7 M176.44,84.86 L177.2,89.42 L184.42,86 L175.68,82.2 L173.78,68.52 L172.26,77.26 L173.4,82.96 L176.44,84.86 M64.34,117.16 L71.94,115.64 L73.46,116.78 L77.64,110.7 L77.64,108.42 L74.6,107.66 L59.02,109.94 L53.7,118.68 L60.16,115.64 L63.96,113.74 L64.34,117.16 M51.42,62.82 L52.18,57.12 L54.84,54.08 L52.56,64.72 L49.14,68.14 L51.42,62.82 M68.52,195.82 L60.16,191.64 L53.7,194.68 L46.86,196.2 L48.38,197.34 L68.52,195.82 M160.86,140.72 L165.8,141.1 L168.08,140.34 L175.3,141.48 L175.3,138.06 L173.02,134.64 L164.28,136.54 L160.86,140.72 M33.18,25.58 L27.86,19.5 L31.66,17.22 L33.56,13.42 L32.42,11.14 L34.7,12.66 L36.98,16.46 L38.12,13.8 L45.34,11.14 L40.4,21.02 L36.6,22.16 L33.18,25.58 M185.18,195.06 L175.68,191.64 L178.34,187.84 L199.62,187.84 L195.44,189.74 L192.78,192.78 L187.46,193.54 L185.94,192.78 L185.18,195.06 M106.14,161.62 L105.38,160.86 L104.62,160.86 L108.8,154.4 L112.98,148.7 L106.14,161.62 M130.46,107.66 L139.58,105.38 L124,116.78 L123.24,109.18 L126.28,105.76 L130.46,107.66 M100.82,143.76 L107.28,144.14 L116.02,144.14 L104.62,142.24 L88.66,144.52 L93.22,144.9 L100.82,143.76 M160.48,51.8 L163.9,44.96 L166.56,42.3 L162.38,52.56 L160.86,54.46 L160.48,51.8 M133.88,127.42 L131.6,127.42 L128.18,127.42 L123.62,127.8 L120.96,126.66 L125.14,139.96 L128.56,133.12 L136.54,131.22 L133.88,127.42 M55.6,139.2 L49.52,143 L49.52,149.84 L67.38,149.08 L63.2,143.76 L60.16,137.68 L58.64,139.96 L58.26,139.96 L55.6,139.2 M185.94,158.2 L187.08,156.3 L180.24,151.74 L190.12,152.88 L193.92,152.88 L199.24,165.8 L194.3,165.8 L186.32,169.22 L180.62,168.84 L187.46,162.38 L185.94,158.2 M74.98,15.7 L73.46,21.02 L73.08,23.3 L74.22,25.96 L73.46,29.76 L74.22,29.76 L81.06,31.28 L88.66,36.6 L90.56,37.36 L96.64,42.68 L87.14,39.26 L74.6,40.4 L71.94,38.88 L66.62,41.92 L65.1,29.76 L59.4,36.22 L54.46,33.18 L48.38,32.42 L49.14,23.3 L62.82,12.28 L64.34,17.22 L70.42,19.88 L72.32,19.5 L74.98,15.7 M169.98,97.78 L169.6,103.48 L170.36,104.24 L179.1,112.98 L171.5,109.56 L171.88,108.42 L168.08,106.14 L167.32,103.1 L161.24,94.74 L154.4,96.26 L150.6,96.26 L143,93.98 L154.4,86.76 L155.54,79.92 L164.28,92.08 L169.98,97.78 M133.12,27.48 L123.62,47.24 L116.78,43.82 L120.96,37.74 L114.12,34.32 L116.4,33.56 L121.34,31.66 L127.8,30.52 L133.12,27.48 M132.74,154.78 L131.6,147.56 L130.46,144.52 L124.76,141.48 L124,137.68 L118.3,138.06 L116.02,133.12 L116.02,126.66 L120.96,118.68 L127.8,124 L126.66,128.56 L128.94,128.56 L128.94,138.06 L131.98,134.64 L137.3,133.5 L136.16,139.2 L135.78,141.48 L138.06,143 L141.1,145.28 L144.9,141.1 L146.8,149.84 L132.74,154.78 M169.98,63.58 L169.22,62.44 L162.38,60.54 L160.1,63.2 L163.52,70.42 L166.56,68.52 L169.98,63.58 M137.68,62.82 L136.16,70.8 L136.92,82.58 L133.88,83.34 L131.22,77.64 L130.84,76.5 L128.18,66.62 L137.68,62.82 M27.48,108.8 L27.48,103.86 L35.84,117.54 L34.32,126.66 L30.14,117.16 L27.48,108.8 M25.96,150.6 L27.48,154.02 L21.02,156.3 L17.6,153.26 L25.96,143.38 L25.96,150.6 M174.92,152.5 L173.78,159.72 L170.74,151.36 L179.1,147.94 L176.44,150.22 L174.92,152.5 M93.98,16.08 L89.42,15.7 L96.26,11.52 L103.48,13.04 L102.72,15.7 L93.98,16.08 M197.34,76.5 L196.96,76.12 L198.1,71.94 L190.5,78.78 L181.38,85.62 L190.5,87.14 L192.78,86.76 L195.06,79.16 L197.34,76.5 M170.36,14.18 L179.86,14.18 L179.1,27.48 L171.12,30.14 L172.26,21.02 L172.26,16.46 L170.36,14.18 M95.12,51.42 L102.72,55.6 L108.04,48 L96.26,43.44 L95.12,33.56 L92.84,37.74 L91.32,46.86 L95.12,51.42 M199.24,53.7 L194.68,48 L187.84,39.64 L180.62,38.5 L181,39.64 L190.12,47.24 L187.46,57.88 L181.76,67.38 L186.7,62.82 L194.68,58.26 L193.16,53.7 L199.24,53.7 M170.36,158.2 L170.74,165.42 L163.52,166.56 L163.52,161.24 L161.62,159.34 L170.36,158.2 M110.7,119.82 L109.56,123.24 L116.4,126.28 L119.06,120.2 L114.12,122.48 L110.7,119.82 M182.52,87.9 L180.62,93.6 L177.2,89.04 L171.88,82.96 L169.22,81.06 L166.94,82.2 L154.02,81.44 L158.96,79.54 L167.32,78.4 L171.88,76.88 L176.06,81.82 L182.52,87.9 M90.94,146.8 L93.6,147.94 L91.7,154.4 L79.54,158.96 L84.48,151.74 L86.38,150.22 L85.62,148.32 L90.94,146.8 M114.88,62.82 L116.78,68.52 L121.34,74.98 L121.72,79.54 L116.02,84.48 L121.72,92.08 L119.44,92.46 L118.3,100.82 L108.42,85.24 L111.08,78.02 L115.26,71.94 L114.88,62.82 M143,117.16 L148.32,115.26 L150.6,116.02 L173.78,122.1 L165.8,125.9 L164.66,124 L158.2,128.94 L156.3,133.5 L148.32,137.68 L147.18,135.4 L148.32,131.22 L144.9,125.14 L136.92,124.38 L136.54,124 L143,117.16 M21.02,171.88 L21.02,167.32 L13.42,162 L37.74,154.02 L36.22,159.72 L35.46,160.86 L29.38,165.04 L21.02,171.88 M14.56,24.44 L31.28,32.04 L29.38,25.58 L25.2,26.72 L22.16,20.64 L13.8,21.78 L14.56,24.44 M67.76,105.38 L78.02,109.56 L84.86,112.6 L69.66,108.42 L60.92,110.32 L55.22,120.96 L55.6,121.72 L51.8,126.28 L53.32,112.98 L53.7,112.98 L61.3,101.58 L61.68,99.68 L63.2,95.88 L67.76,105.38 M102.72,155.16 L101.96,162.76 L101.2,166.94 L101.58,174.16 L109.94,168.84 L109.94,166.18 L102.72,155.16 M62.82,80.3 L49.9,97.4 L47.62,101.58 L41.54,105 L43.44,96.64 L49.52,91.32 L54.08,86 L55.22,82.96 L62.82,80.3 M84.86,126.66 L80.68,122.48 L70.42,118.68 L67,119.06 L71.18,126.28 L74.98,128.18 L75.74,124.38 L84.86,126.66 M21.78,181.38 L29,183.66 L21.02,183.66 L10.76,180.24 L15.7,180.62 L21.78,181.38 M12.28,87.14 L13.42,87.14 L16.08,80.3 L20.26,82.96 L11.9,92.08 L12.28,87.14 M131.22,16.84 L137.3,17.98 L146.04,16.84 L118.3,10 L122.48,16.84 L131.22,16.84 M67.76,187.46 L68.9,180.24 L55.98,179.86 L60.54,184.8 L62.44,187.84 L67.76,187.46 M55.98,105.38 L52.18,112.98 L60.54,108.04 L50.28,98.54 L60.54,100.06 L67.76,104.24 L56.36,116.4 L50.28,97.4 M108.04,189.36 L101.2,189.36 L108.04,191.26 L114.88,183.66 L94.74,188.98 L96.26,185.18 L97.78,193.54 L89.42,190.12 L88.28,189.36 L101.96,180.24 L120.58,189.74 L109.94,181 M29.38,71.18 L29,71.18 L27.86,67.76 L29.76,71.94 L23.68,59.78 L25.58,56.74 L16.46,55.98 M147.18,57.12 L143.38,65.1 L149.46,64.34 L139.58,69.66 L151.74,62.06 L139.96,68.14 L149.84,55.6 M85.62,124 L84.48,130.84 L77.26,135.4 L86.38,117.92 L84.48,126.28 M35.84,17.98 L28.62,18.36 L29,17.6 L25.58,24.06 L28.62,23.68 L28.24,11.14 L40.4,18.74 M196.2,120.58 L192.02,116.78 L198.1,123.24 L184.42,114.5 L198.86,121.72 M154.4,29.38 L160.86,22.92 L163.52,24.06 L154.02,20.26 L158.96,36.22 L165.42,39.26 L163.14,33.56 L170.36,36.22 L161.62,32.04 L149.84,14.18 L171.88,38.12 L157.44,13.04 M54.46,178.72 L47.62,184.42 L57.12,178.72 L54.08,171.88 L40.02,184.42 L63.58,174.92 L65.1,180.24 L34.7,181 L59.02,164.28 L63.96,167.32 L55.6,178.34 L32.04,183.66 L55.98,155.92 M145.66,178.72 L146.42,177.58 L145.66,186.32 L153.64,186.32 L147.56,186.32 L149.08,177.96 L146.04,192.02 L160.86,188.6 M14.56,42.3 L13.04,39.64 L13.42,42.68 L20.64,46.86 L16.84,32.04 M141.48,30.52 L140.34,38.5 L137.68,38.12 L135.78,42.68 L140.34,31.28 L147.18,39.26 M161.24,185.18 L160.1,190.88 L156.3,197.72 L165.42,192.78 L160.48,197.34 L160.86,194.68 M89.8,141.48 L91.32,133.12 L87.14,143.76 L93.22,145.28 L89.42,139.58 M162.76,99.68 L165.42,94.36 L165.42,107.28 L168.46,92.46 L169.22,115.64 L169.6,116.02 L170.36,89.42 M177.96,192.78 L176.06,192.78 L182.52,197.34 L184.04,192.78 L175.68,192.78 L174.92,195.44 M28.62,197.72 L29,194.3 L31.66,194.68 L38.12,193.92 L21.78,195.82 L20.26,190.12 M45.72,59.78 L39.26,64.72 L45.72,53.32 L52.56,52.18 L47.24,49.52 L53.32,60.16 L59.02,57.12 L51.42,67.76 L44.2,72.7 L49.9,76.12 L43.44,48.76 M55.22,87.9 L54.84,80.3 L61.3,80.3 L60.16,84.1 L64.34,91.32 L67,86 L60.16,86.76 L67.76,73.84 M192.78,17.22 L199.62,16.08 L191.26,26.34 L185.18,11.9 L193.16,33.18 L196.58,15.7 L177.2,16.84 L195.82,37.36 M125.9,67 L124,73.84 L129.32,59.02 L130.84,78.78 L128.18,51.04 L131.98,57.5 M121.72,144.9 L117.92,137.68 L125.9,152.12 L108.8,139.58 L131.98,153.26 L121.34,145.66 L128.94,154.4 L115.64,152.88 L119.82,141.86 L117.16,134.64 L138.44,146.8 L128.56,151.74 L125.9,142.24 M100.82,42.68 L107.28,38.5 L108.04,38.88 L116.78,37.36 L115.64,34.32 L107.28,38.88 M164.66,146.04 L173.02,142.62 L166.56,154.4 L158.2,155.16 L169.6,141.48 L158.2,145.66 M86,22.92 L88.28,14.94 L92.46,19.5 L81.82,13.04 L83.72,13.04 M158.96,127.42 L163.52,127.42 L163.52,134.26 L170.74,136.92 L162.76,146.42 L161.24,139.2 L156.3,134.26 L158.96,127.42 M44.2,42.3 L44.58,46.86 L41.16,52.18 L38.5,53.32 L42.68,54.08 L49.9,54.08 L57.12,49.52 L53.7,48.38 L44.2,42.3 M35.84,110.7 L29,114.12 L25.58,106.14 L30.14,108.8 L41.16,104.24 L35.84,110.7 M120.96,77.26 L121.34,85.24 L129.32,79.92 L131.22,73.08 L130.46,65.86 L122.86,67.76 L120.96,73.46 L120.96,77.26 M85.24,58.64 L76.88,58.26 L73.84,57.12 L67.38,55.6 L71.94,68.52 L77.64,65.1 L81.06,76.12 L85.62,70.04 L84.1,63.2 L83.34,62.44 L85.24,58.64 M125.52,26.72 L132.74,28.62 L133.12,33.56 L130.84,36.98 L134.26,36.6 L154.02,35.46 L149.84,30.9 L141.1,31.66 L133.5,27.1 L134.64,23.3 L132.36,16.84 L130.08,18.74 L117.54,22.92 L125.14,25.58 L125.52,26.72 M52.18,169.6 L52.18,178.72 L41.92,163.9 L50.28,161.62 L66.24,147.94 L62.44,154.78 L57.12,159.34 L51.42,166.94 L52.18,169.6 M173.02,73.84 L171.12,71.94 L180.62,68.9 L195.82,74.22 L195.06,76.12 L188.22,74.22 L178.72,71.56 L173.02,73.84 M12.28,124.38 L14.94,126.66 L17.98,133.12 L24.82,125.9 L19.5,117.54 L16.84,123.24 L12.28,124.38 M46.1,20.64 L45.72,21.4 L42.3,23.3 L36.98,26.34 L32.42,27.48 L39.64,22.54 L46.1,20.64 M142.62,100.44 L142.24,104.62 L143.38,109.94 L140.34,118.3 L139.58,117.54 L134.64,98.54 L146.42,94.74 L144.9,97.4 L142.62,100.44 M169.6,38.5 L167.32,46.86 L167.32,54.84 L170.74,55.6 L171.5,55.22 L171.5,46.48 L169.6,38.5 M87.52,198.48 L85.24,199.62 L79.16,196.96 L79.54,189.36 L79.16,180.62 L82.96,182.14 L82.2,195.82 L87.52,198.48 M14.18,13.42 L13.42,18.74 L12.66,29 L11.52,33.56 L10.76,37.74 L12.66,46.86 L19.5,34.32 L25.58,36.22 L22.54,26.34 L28.62,22.16 L21.02,20.64 L14.18,13.42 M100.44,139.2 L103.1,130.84 L100.44,126.28 L104.62,124 L108.42,116.02 L94.36,123.62 L90.18,128.94 L100.44,139.2 M71.56,172.64 L82.96,161.62 L86.76,158.58 L87.9,157.82 L79.92,161.62 L74.22,163.14 L71.56,165.8 L71.56,172.64 M154.4,88.66 L148.7,81.82 L145.28,78.4 L152.12,78.02 L155.54,84.86 L154.4,88.66 M15.7,177.58 L18.74,184.42 L14.18,185.56 L13.04,181.38 L13.04,174.92 L15.7,177.58 M196.58,106.14 L197.34,105 L198.48,94.74 L195.44,103.1 L195.06,108.8 L196.58,106.14 M74.98,128.18 L72.32,127.42 L59.02,130.84 L64.72,128.56 L71.56,125.14 L74.98,128.18 M121.72,51.04 L122.86,46.86 L121.72,43.82 L118.3,40.02 L114.12,49.14 L122.48,52.94 L121.72,51.04 M108.04,100.82 L117.16,98.16 L114.5,110.32 L116.78,117.16 L117.92,117.92 L115.26,119.44 L115.26,121.34 L106.52,114.12 L103.86,105.38 L108.04,100.82 M178.72,144.52 L182.52,137.68 L185.18,127.04 L184.04,136.16 L181,141.48 L178.72,144.52 M76.12,33.94 L74.22,40.02 L78.78,29.38 L79.54,15.7 L77.64,24.82 L76.12,33.94 M27.48,86.76 L24.06,88.28 L23.68,83.72 L30.52,82.96 L30.52,87.14 L27.48,86.76 M91.7,67.38 L96.64,57.88 L94.74,65.48 L92.46,67.38 L90.56,69.66 L82.58,72.7 L91.7,67.38 M179.48,54.46 L185.56,48.76 L175.3,54.84 L173.4,54.46 L174.16,59.4 L176.44,57.5 L179.48,54.46 M150.6,25.58 L156.68,23.68 L162,17.98 L155.16,16.84 L149.08,16.84 L150.6,25.58 M113.74,159.34 L122.86,159.72 L120.96,157.82 L116.4,150.6 L110.32,150.6 L113.74,159.34 M134.26,82.2 L130.46,62.44 L124.76,59.02 L127.8,67.38 L128.18,75.36 L132.36,82.2 L134.26,82.2 M177.58,123.24 L168.84,124.76 L165.04,124.38 L161.62,126.66 L167.7,132.74 L175.68,128.94 L177.58,123.24 M181,103.48 L178.72,106.52 L176.44,114.12 L184.42,114.5 L192.4,118.68 L192.4,116.78 L190.88,113.74 L186.32,109.94 L188.22,106.14 L184.42,108.04 L181,103.48 M84.1,199.62 L87.9,197.34 L81.06,184.42 L69.28,192.78 L78.4,193.16 L79.16,198.48 L84.1,199.62 M92.84,131.6 L92.08,137.3 L93.6,139.2 L86.76,144.9 L84.86,142.62 L71.56,129.7 L76.12,130.84 L78.4,132.36 L84.1,133.5 L93.22,128.18 L92.84,131.6 M154.02,108.42 L165.04,105.76 L155.92,103.1 L149.08,91.7 L149.84,100.06 L154.02,108.42 M193.16,96.26 L188.6,98.16 L189.36,102.72 L188.22,102.72 L179.86,93.98 L184.04,93.22 L189.36,94.74 L193.16,96.26 M80.68,40.78 L79.92,44.96 L82.2,54.84 L86,54.08 L84.86,48.38 L86.76,41.92 L76.12,33.94 L75.74,36.98 L80.68,40.78 M45.34,163.9 L57.88,171.12 L59.78,172.64 L59.4,174.16 L54.46,174.54 L53.32,180.24 L48.76,173.78 L48,168.84 L45.34,163.9 M27.48,116.4 L29.38,111.46 L19.12,114.88 L24.82,126.66 L27.86,123.62 L27.48,116.4 M79.92,187.08 L72.32,186.7 L76.12,193.92 L73.84,181 L67.76,188.98 L68.52,188.98 M112.22,187.84 L116.4,186.32 L116.4,177.58 L107.28,183.66 L122.1,179.86 L105,176.82 L106.14,187.84 L110.7,173.4 L110.32,193.54 L106.14,169.6 M89.42,89.04 L85.24,81.44 L81.44,81.06 L78.02,79.92 L83.34,74.6 M169.6,46.86 L176.44,45.72 L173.78,36.6 L183.66,39.64 L184.42,35.08 M87.9,111.08 L87.9,106.52 L82.2,106.9 L89.8,100.06 L73.08,104.62 L77.64,105.76 M106.14,171.5 L111.08,168.46 L113.36,162.76 L122.1,161.62 L123.62,164.28 L127.8,154.78 M53.7,168.08 L58.64,175.3 L60.54,171.88 L61.68,171.88 L60.54,179.1 L52.94,179.48 M188.22,102.34 L191.64,108.8 L185.94,112.6 L185.56,105.76 L193.54,98.16 M173.02,29.38 L171.88,21.4 L176.06,37.36 L175.3,30.9 L167.32,18.74 L165.8,22.16 L168.84,26.72 M13.04,40.78 L16.46,45.72 L12.66,48.38 L15.7,50.28 L18.74,36.98 M39.64,73.84 L35.46,81.06 L34.7,85.24 L44.2,76.5 L42.3,87.52 L29.76,89.8 M186.7,68.9 L190.12,74.22 L180.62,63.2 L190.88,73.46 L189.74,79.16 L195.82,84.86 M138.82,131.98 L131.22,130.84 L133.5,132.36 L138.06,138.82 L138.44,132.36 L138.82,131.98 M168.46,19.12 L169.6,22.92 L173.02,25.58 L176.82,17.98 L170.74,19.12 L168.46,19.12 M117.16,74.6 L116.4,70.8 L117.16,70.8 L119.82,61.3 L118.68,68.9 L120.2,82.96 L117.16,74.6 M87.9,168.46 L93.22,173.4 L75.74,177.58 L70.8,176.82 L77.64,172.64 L86,170.36 L87.9,168.46 M46.1,149.84 L39.64,144.52 L33.18,143.38 L34.7,147.94 L38.88,148.7 L46.1,149.84 M152.12,115.64 L163.14,107.66 L160.1,103.48 L156.68,100.82 L157.82,103.48 L154.4,109.94 L152.12,115.64 M69.66,118.68 L70.8,117.92 L70.04,111.84 L65.1,117.16 L66.62,135.78 L67.76,127.8 L69.66,118.68 M194.68,168.46 L192.78,171.12 L187.08,166.18 L192.78,162.76 L192.02,165.42 L194.68,168.46 M91.7,29.76 L91.32,29.76 L77.26,34.32 L86,36.22 L98.16,28.62 L91.7,29.76 M120.58,183.28 L120.96,181.76 L123.62,174.16 L120.96,169.6 L120.2,170.74 L120.58,183.28" />
  </g>
</svg>
