<svg height="100mm" style="background:white" viewBox="0 0 100 100" width="100mm" xmlns="http://www.w3.org/2000/svg" xmlns:inkscape="http://www.inkscape.org/namespaces/inkscape">
<g inkscape:groupmode="layer" inkscape:label="#000">
<path d="M11.114311,90.84631 L88.93013,52.180088 L20.836416,8.574455 L90.825935,66.330376 L8.969978,65.099045 L79.84723,9.882753 L10.944236,77.182816 L24.281937,11.267978 L50.33335,8.331042 L53.308758,8.640527 L89.68573,84.288475 L12.659541,91.67462 L89.5474,27.537075 L90.79545,58.811817 L57.43325,88.71485 L91.3672,36.762493 L90.18066,36.820747 L10.673304,39.30314 L85.27358,89.367836 L76.99352,10.303645 L21.715637,10.274771 L27.510519,90.15979 L38.886356,88.589035 L8.255317,26.622976 L49.33368,91.645 L90.47114,49.67623 L19.871449,9.504634 L22.667286,88.824875 L26.990986,90.50883 L86.42366,9.708342 L65.03933,8.224092 L8.052416,76.84645 L10.13646,17.152443 L8.652463,35.776447 L91.40195,15.884795 L85.287476,89.03482 L8.744165,34.15776 L88.119896,10.619939 L48.72977,89.694626 L89.46411,32.004364 L47.113995,9.916581 L18.558851,8.630068 L34.139202,10.348002 L88.91201,26.964088 L11.833155,53.969353 L8.246046,11.920395 L8.027993,47.649567 L17.672672,90.00907 L55.012787,10.837612 L85.78979,8.576638 L52.153137,88.448906 L35.95709,91.79438 L91.81461,12.868621 L89.95684,8.378287 L76.43031,9.70989 L23.155573,89.01807 L58.099922,9.500383 L10.678889,62.897324 L81.66404,10.811835 L33.01819,9.948557 L54.07984,10.770756 L24.292288,10.811414 L91.76964,18.923388 L74.73291,89.13435 L8.642558,27.501553 L11.441258,58.94563 L60.752182,9.272037 L90.583336,69.804665 L27.881723,91.26544 L11.5345745,69.6943 L61.2055,9.980349 L10.907017,45.30884 L91.64208,19.351429 L9.366971,49.024807 L32.922367,8.947993 L8.181518,39.963566 L10.797586,10.481438 L37.68821,91.59388 L11.118717,30.714884 L80.080826,10.419962 L88.56735,63.575706 L10.846524,86.33443 L91.56857,62.636845 L39.791245,11.330473 L9.423337,40.586216 L35.979202,10.168188 L68.48822,11.48287 L10.501361,61.375607 L19.48354,91.91821 L8.512009,29.75386 L74.318665,8.921173 L58.7306,8.025969 L24.465742,9.597693 L53.846188,90.064445 L90.680374,78.638985 L90.76393,15.106074 L89.43004,58.83233 L17.188986,8.149216 L10.321336,8.668058 L89.897934,36.59429 L49.01523,91.032104 L45.034885,88.789955 L51.63414,90.8535 L85.17114,89.96721 L44.903133,10.18072 L10.807451,35.890682 L9.132706,25.806562 L9.8955,12.462188 L9.04135,82.11158 L89.4246,43.376667 L74.47341,9.210984 L57.931293,88.13122 L11.19594,25.165401 L91.719666,19.961842 L91.68295,60.33737 L52.134506,11.883832 L51.239067,88.7208 L44.410202,88.81804 L89.44323,80.292404 L40.85814,10.595434 L48.161495,11.697851 L9.7259865,78.352905 L52.86485,89.7896 L26.157349,9.725253 L37.495617,8.867159 L89.05916,52.81226 L10.82916,61.59457 L10.510808,18.408646 L9.456886,76.271935 L14.356299,9.495795 L23.813822,91.96503 L91.17691,80.965034 L51.25125,10.898433 L90.24341,90.24341 L9.688719,27.103193 L37.606678,88.72913 L10.346426,88.06743 L90.03945,54.48442 L34.071396,9.365808 L9.241442,57.173508 L20.602936,89.941666 L91.33767,57.936832 L70.67983,10.83365 L90.38989,43.860737 L15.50436,9.701355 L9.022637,48.360905 L77.74838,91.29224 L26.321117,8.311826 L23.072573,9.929424 L53.345787,91.82236 L64.280365,8.487318 L10.181683,58.919304 L25.31071,91.14881 L90.4835,48.70453 L64.77458,8.026767 L17.631374,91.71214 L89.563995,82.60074 L88.96886,77.12232 L90.97832,73.931335 L89.298004,82.69594 L10.892341,40.3013 L61.49969,91.07032 L88.61321,52.471245 L21.89671,89.03235 L90.192276,47.427692 L90.79052,90.13787 L88.46237,89.73386 L88.79218,40.069202 L72.37935,91.138504 L45.860176,10.194005 L90.29111,44.84274 L72.876175,8.557651 L80.91778,90.68129 L8.133872,22.53582 L8.462024,38.037064 L91.82674,41.300037 L9.387958,13.611609 L8.851036,30.248497 L90.973366,22.4659 L32.00766,90.16147 L91.42904,78.50318 L80.61159,91.14461 L50,89.44944 L18.06832,89.9146 L23.534365,91.352554 L25.759686,11.153343 L69.45298,11.402824 L8.672288,69.8373 L8.806834,85.92044 L90.97666,75.24162 L90.7819,50.65251 L46.931423,88.35722 L23.615332,88.80099 L10.3234625,11.2757 L37.314583,91.72834 L9.644367,26.755156 L75.76152,88.79747 L9.733949,75.126015 L65.840744,8.748056 L16.966827,9.518171 L59.755344,9.352735 L15.990744,90.87651 L89.22097,70.394905 L25.37153,90.507355 L8.731933,58.253613 L9.317431,70.50401 L9.824236,64.46327 L10.514656,36.732925 L8.184909,78.09974 L52.99248,8.437747 L89.313156,29.242653 L75.361145,91.17069 L91.58081,88.91964 L9.865162,81.14464 L73.30874,91.62275 L89.22551,80.438995 L15.338607,90.87428 L11.677587,55.82501 L75.21605,10.101192 L11.225096,65.19976 L89.00054,51.248016 L91.42454,88.11057 L89.763954,76.40327 L91.85684,8.143161 L49.690464,11.307886 L10.700189,20.76094 L31.24808,90.41362 L82.88393,90.69793 L51.993984,91.54131 L70.21794,91.430214 L10.992204,16.609327 L38.828316,10.101129 L90.18909,73.79194 L66.746056,8.955752 L62.961807,90.505646 L11.243225,8.944095 L59.535095,11.552032 L61.87244,9.890406 L79.29407,9.313798 L9.825424,16.253355 L74.09424,8.7427435 L84.474915,8.16151 L91.70502,83.03037 L8.117445,85.85147 L8.556766,50.331547 L22.671026,9.810331 L9.550743,71.033615 L9.14534,29.409252 L61.90538,91.338135 L90.303734,71.602806 L11.347277,47.217003 L22.752623,91.03521 L9.885259,8.89883 L91.00049,38.847866 L89.12979,62.52153 L83.67347,90.47292 L65.3377,8.3214655 L37.054756,10.532798 L54.78459,10.128406 L91.787544,15.232765 L47.08751,90.45129 L89.05009,15.011122 L10.978546,45.629597 L91.37199,44.042435 L63.762703,90.96043 L90.68142,34.052883 L89.6155,13.236818 L82.02738,90.85125 L67.69223,91.72696 L89.71871,70.018234 L14.448688,10.6733265 L10.976475,29.707767 L91.62089,32.019775 L10.727072,32.71991 L88.15918,50.305275 L84.175285,89.55473 L89.853455,53.18828 L11.682348,51.532707 L11.224342,23.012142 L91.79322,10.5472 L32.70564,9.966756 L10.77996,38.39087 L65.09646,91.934616 L91.81297,45.65145 L89.77536,69.72858 L83.961395,91.61936 L14.299808,90.5684 L89.315605,75.47651 L44.677532,89.13579 L8.574165,54.639694 L8.115541,39.27758 L65.679924,10.000195 L34.690796,89.86772 L26.503511,9.766288 L88.99311,63.41363 L50.979156,9.201867 L9.506207,21.49237 L10.501478,68.32732 L91.23292,87.27456 L31.374031,9.153575 L32.670826,11.3188095 L10.338256,73.47975 L9.487949,60.371086 L11.656045,46.932484 L10.268409,33.789513 L88.44255,49.077377 L81.29294,90.32595 L60.950058,90.25757 L86.617805,8.76373 L91.90854,87.21478 L11.403099,73.15814 L10.624147,15.034243 L91.33432,33.466274 L52.539257,10.32413 L10.649224,83.36946 L87.35831,89.24192 L88.826385,23.59806 L43.63014,8.093018 L41.40512,91.32153 L28.833492,91.340836 L90.951416,24.446314 L57.933342,8.680501 L88.64633,39.797367 L72.85538,10.320529 L64.357796,91.73778 L9.66696,74.52249 L50.33178,91.472435 L46.32816,88.248344 L91.12508,91.79378 L89.798515,60.50681 L64.11678,90.1045 L91.51048,77.89504 L9.38874,73.71698 L11.076132,71.48598 L56.805458,11.332621 L10.035014,52.87748 L20.602232,89.51313 L10.129754,64.034325 L10.551555,21.59712 L10.884073,90.0778 L90.16947,27.505095 L9.018981,71.63798 L48.048088,90.664856 L89.02996,46.253124 L47.762276,10.040616 L11.807745,43.88924 L18.25082,90.49641 L9.093215,25.128674 L54.01918,8.133528 L8.857264,24.326933 L68.26029,90.75958 L91.81462,8.519896 L88.218925,44.802227 L19.520508,9.468761 L89.58692,67.73494 L89.47481,84.42203 L89.403564,53.467514 L65.74259,10.643513 L8.414703,17.72981 L38.938244,89.50628 L35.584846,10.828383 L9.037816,30.66585 L91.21566,21.643625 L62.168068,9.973467 L90.464905,67.15712 L46.557587,10.881666 L88.65397,8.703023 L89.81231,87.58282 L61.2266,8.725733 L11.948783,45.129444 L23.727568,9.456123 L9.872576,42.295536 L35.945343,10.959284 L66.83408,10.296973 L10.207523,62.415253 L42.58995,88.594 L15.641745,8.70402 L8.214232,27.602829 L9.595995,22.848509 L56.875137,90.92343 L31.987806,90.936806 L11.096471,76.4544 L91.878685,73.787094 L90.84151,37.584183 L60.136852,90.874405 L35.620903,89.07364 L90.24167,58.370266 L89.37607,40.864754 L91.738365,20.61619 L81.20343,89.39828 L8.52169,50.99548 L91.58191,9.748715 L90.74905,47.718052 L22.078072,9.882286 L8.4418125,44.01562 L24.508514,88.85897 L55.05496,89.49187 L68.46011,89.110405 L10.155406,74.54427 L77.366585,89.77701 L26.206957,10.866706 L35.56608,91.959076 L91.99086,24.133629 L81.52617,89.40771 L90.813896,11.798191 L80.21462,90.17902 L9.279603,63.682053 L48.47256,88.18602 L47.76773,89.86194 L10.205779,86.29233 L89.97902,15.458127 L88.963646,73.37819 L66.99507,89.34044 L90.608864,29.208263 L10.918697,33.429527 L42.06898,8.692601 L89.891945,30.532732 L89.542244,81.00112 L46.191505,10.328181 L9.291888,91.0364 L91.88151,66.0825 L89.52855,33.55612 L43.889507,90.20062 L10.301752,89.69825 L30.620453,10.287813 L10.174863,51.274403 L13.895067,89.588745 L9.337788,73.42143 L15.046211,8.78091 L88.59277,43.825157 L85.14973,8.549854 L62.420025,91.95955 L85.293106,89.74449 L9.3315325,82.20943 L8.919588,11.8773775 L89.15606,31.831589 L11.267228,23.661715 L30.661558,89.62795 L90.25554,23.592367 L9.380048,38.626415 L19.231495,90.915565 L57.428867,9.625711 L9.319943,41.538548 L29.266893,89.87136 L72.703415,91.12938 L90.401375,67.7766 L90.20836,60.936672 L10.927588,17.491755 L34.163857,8.760038 L9.744572,78.661865 L89.88112,72.33343 L10.638775,80.22942 L91.69633,40.660023 L33.550934,88.79497 L9.511843,50.64781 L8.300472,67.6806 L26.217045,8.710148 L89.88488,12.029592 L88.78119,51.551247 L11.107407,52.177986 L11.150425,74.55293 L10.522313,79.3714 L89.10562,22.1568 L75.60047,8.440791 L12.248822,90.680145 L46.37395,91.20512 L8.7536545,18.322807 L91.52864,9.468043 L8.8429,10.81844 L9.800076,66.07997 L90.46638,34.46091 L27.823746,9.234827 L9.874542,20.467663 L8.3831625,50 L68.15606,89.81592 L90.96553,53.93269 L11.571386,61.6823 L9.370376,35.048298 L86.82878,9.617561 L9.712997,47.42163 L8.710046,86.33516 L91.595024,83.27602 L9.142519,80.72482 L78.840866,89.61657 L56.26744,89.17149 L10.842077,76.00086 L9.094702,69.961784 L65.47745,88.69362 L80.724144,8.255237 L61.301594,10.758357 L90.63546,63.32843 L90.41851,38.682816 L89.255684,74.49555 L30.97577,90.30557 L52.564987,90.07791 L9.867162,37.157494 L16.592607,8.654218 L49.081253,11.718845 L56.28092,91.32182 L89.36437,20.083078 L89.624985,19.568008 L91.14256,22.681335 L89.924904,61.817772 L11.420136,71.60472 L90.33422,51.936043 L31.788414,8.610031 L10.312974,86.51206 L31.049677,9.851009 L69.32951,10.390338 L45.78542,90.5248 L90.58128,89.60733 L90.11514,86.585014 L86.916405,89.10636 L69.833206,89.986305 L28.469696,89.57777 L91.51225,65.27651 L17.117752,8.482011 L11.772784,58.25708 L89.30247,75.15358 L27.827938,10.407033 L10.271941,28.070112 L9.740476,26.488438 L9.014339,23.441292 L9.027213,83.10601 L91.089874,35.536366 L85.54427,90.76178 L90.77173,42.17183 L89.49846,38.308456 L55.545776,88.51233 L8.755909,37.131844 L78.7434,8.221798 L62.613873,90.429085 L8.26613,24.959679 L11.67414,89.92277 L90.23923,88.62966 L88.78568,41.62229 L8.152891,55.691208 L22.481506,89.53806 L90.73622,67.598045 L8.783852,88.578316 L12.571748,91.40293 L43.896408,88.14744 L75.99284,90.11241 L89.58243,9.773956 L79.56346,91.99355 L82.625084,10.018277 L89.21205,55.019142 L91.43796,57.29308 L55.187973,88.14685 L9.408798,49.35054 L43.357315,10.460209 L88.77613,65.82066 L10.474935,82.25246 L13.520133,10.000146 L91.428,83.80525 L57.067974,90.158936 L10.930378,64.69018 L32.272614,91.03562 L30.954035,10.320904 L34.25304,91.88021 L8.617188,22.521812 L40.79916,89.65879 L87.085495,9.689677 L9.563877,9.563877 L10.3253,29.686554 L82.51986,9.350172 L88.0256,91.33217 L8.124784,83.500175 L10.960135,54.9971 L17.095726,8.869657 L38.736958,8.59175 L89.97129,87.09336 L90.40286,79.09006 L89.5158,19.019615 L11.291321,33.89719 L14.1496525,91.49346 L86.17395,89.66442 L51.995033,8.436826 L89.11114,18.398203 L27.44226,9.134531 L9.521257,51.942978 L91.43948,56.630318 L91.55034,17.756937 L89.727516,68.75139 L8.568717,84.13937 L8.1601305,27.908548 L9.249216,78.03654 L11.597987,34.639194 L54.309685,11.520663 L46.940548,11.756861 L56.509003,9.318743 L74.23491,90.93735 L30.305943,10.924488 L12.51933,89.7041 L10.447846,53.79701 L54.974007,91.450066 L49.383156,11.447232 L67.62905,9.933971 L45.616714,10.86353 L19.345009,90.33552 L75.03173,89.11208 L88.420845,42.31583 L73.71579,89.00623 L14.931063,89.49205 L58.833473,10.564855 L42.9915,11.910322 L8.6884775,69.49904 L39.303833,89.32414 L90.799675,15.401874 L70.602615,9.760523 L90.91725,10.719441 L10.155474,85.38194 L10.811352,79.78337 L11.658931,8.684193 L89.20963,25.219513 L83.07377,89.00208 L90.440056,36.08862 L21.971817,91.7086 L79.25553,90.63268 L88.28749,89.882805 L91.75187,19.604641 L42.02187,89.89065 L60.703667,90.5442 L56.336773,8.310692 L34.493607,8.759593 L8.062232,42.618954 L10.227436,12.4546995 L89.62557,76.94539 L82.88743,89.1517 L10.828674,90.46625 L8.499811,60.95605 L42.752716,91.17776 L91.40331,87.09737 L91.60554,85.61434 L90.426834,70.69854 L76.23093,10.495598 L9.86816,57.38426 L70.48867,90.65212 L88.84403,35.394646 L10.586812,42.117363 L19.825464,8.090922 L65.823044,88.78196 L81.877556,91.50724 L89.46906,64.84037 L44.482956,11.687188 L36.738113,11.447999 L8.254003,30.629858 L8.859236,48.02524 L9.001762,9.329748 L90.10918,47.11214 L79.03556,90.78027 L89.30909,62.264435 L91.55281,30.387072 L8.092834,16.13901 L44.30769,8.144791 L8.184719,9.522808 L10.920823,58.128468 L75.50502,90.87343 L42.85118,88.85228 L89.69935,70.96126 L77.309845,89.23828 L11.018219,18.190866 L90.71545,79.64085 L89.16574,14.280847 L9.150249,14.705814 L27.442598,88.62569 L14.293908,8.673505 L65.31723,89.88861 L59.39624,91.9475 L32.886482,8.055103 L53.381725,11.571302 L40.028828,9.79366 L33.65729,91.69058 L84.559845,90.37366 L89.73328,40.14615 L88.488815,30.601637 L81.015114,9.615734 L8.74405,80.03433 L16.013378,91.2459 L9.472698,66.53514 L29.14959,89.48942 L91.73821,24.957073 L11.676421,36.5101 L89.6819,71.58695 L8.474568,68.9356 L10.882856,23.087404 L37.171795,8.883961 L70.87749,90.14902 L36.78985,90.27486 L11.752248,59.179462 L45.096382,9.136514 L28.420683,9.13008 L11.879337,52.439724 L67.15552,88.98982 L17.69328,90.79131 L73.7683,89.61383 L8.327602,9.994499 L30.658476,11.004991 L9.887415,89.79169 L8.612348,40.729164 L16.001759,91.66451 L91.67875,32.32821 L40.309704,9.623769 L90.27353,14.881484 L89.953224,14.841162 L11.516432,66.6249 L90.30636,73.21646 L24.678694,10.435458 L9.7265005,18.103388 L41.413807,11.668773 L89.619415,68.06645 L88.7548,59.921227 L32.424934,88.54181 L89.827446,90.80681 L21.427832,90.12945 L8.342829,41.002052 L89.804474,45.5419 L66.084625,11.335031 L90.080185,25.631248 L51.624874,9.378132 L10.917196,14.669145 L69.317726,11.052978 L80.57581,91.54323 L90.43096,59.70343 L11.385825,91.25446 L59.817024,90.90427 L37.618935,8.172073 L9.756393,14.907575 L85.42192,9.378533 L69.26503,90.13548 L10.881318,72.21941 L50,10.18258 L41.739468,11.756803 L89.83155,30.243551 L89.19529,24.915012 L19.512243,8.121214 L75.83177,89.37769 L49.68897,88.87888 L91.171234,80.302025 L8.740905,44.388763 L11.077256,62.455276 L89.325836,89.01123 L47.379684,9.057545 L9.7340355,78.99149 L37.74889,89.26638 L10.576714,32.338367 L89.56455,33.857662 L73.44411,90.14402 L89.47871,57.89574 L14.500479,9.28954 L28.544321,8.094377 L88.83572,8.15117 L28.747002,10.348882 L43.400623,8.753903 L91.51278,16.12557 L9.718812,46.133007 L89.03486,10.005269 L64.71272,89.12958 L81.15787,9.8481045 L11.174886,43.47738 L63.222454,10.647457 L69.02534,8.277772 L10.677572,21.373272 L11.835003,49.69468 L18.499964,9.407168 L8.773378,84.30055 L19.89328,9.09413 L9.754456,68.03001 L71.14767,11.125612 L89.15062,13.981433 L72.61454,10.185663 L91.68871,42.329277 L72.943054,89.831696 L8.207557,13.22265 L54.5715,90.81695 L90.652214,61.707836 L90.63983,48.37441 L9.015098,31.310884 L13.756789,89.3948 L12.664616,10.11177 L79.65618,10.563593 L58.576115,89.70423 L11.730533,44.18304 L58.89929,8.799587 L36.60532,10.134884 L91.33896,23.212353 L40.036415,91.51493 L58.03584,90.1792 L10.553566,48.737713 L63.062134,10.176416 L89.03337,10.651843 L10.840686,86.96639 L62.021217,11.470453 L89.161255,82.895454 L89.79982,35.672062 L88.85887,74.55881 L88.63618,38.87278 L41.887676,10.998442 L89.76324,59.22507 L88.73376,60.84545 L45.198597,90.011696 L9.231571,71.851875 L10.98181,19.409739 L10.871253,66.27756 L11.352428,71.02428 L9.21816,80.015434 L59.72659,8.075053 L47.41188,90.43936 L69.79695,8.057303 L59.41463,90.580315 L79.19487,8.995972 L73.0955,8.758038 L83.07972,10.619385 L12.88781,8.206993 L11.447584,8.095201 L33.312103,90.90171 L41.743626,88.22395 L33.70174,89.17851 L61.8991,89.14178 L91.10476,25.99482 L89.719,64.298836 L8.744432,15.015279 L86.75695,8.230738 L88.74614,67.97821 L91.758255,46.325275 L87.82758,90.414085 L26.271338,90.0822 L50.64303,9.810656 L81.07653,10.761952 L10.322399,56.665836 L11.393723,26.218533 L9.641292,36.762344 L8.342816,61.664013 L89.8787,66.58954 L89.37313,8.291176 L71.66114,90.412575 L26.157133,88.705956 L65.43536,89.37593 L64.72105,10.848277 L89.75689,35.369465 L91.41638,15.2102375 L91.04356,89.07347 L9.8480015,76.339714 L10.86216,46.55587 L8.634372,56.6185 L10.907495,38.11588 L91.31342,30.169558 L10.504275,25.038702 L34.302338,89.244156 L8.645572,84.73772 L11.894823,46.03706 L75.34332,9.385704 L88.692406,28.95133 L90.244995,85.415596 L43.092922,10.755232 L8.063862,8.734839 L89.97646,26.973558 L90.70869,21.666754 L10.598696,9.296173 L70.770096,89.3373 L89.78617,80.23749 L25.561325,88.66879 L30.356028,88.976135 L8.455138,39.032158 L63.09575,9.075787 L91.981674,57.05292 L70.97238,10.872421 L76.37837,8.783795 L39.903564,89.4392 L91.87464,66.41486 L67.71073,9.0029335 L29.011135,9.6368 L38.86616,11.340836 L11.60729,42.93574 L48.782772,11.96162 L87.77014,90.700584 L75.23532,8.4945345 L68.45281,10.231003 L25.726698,9.544496 L9.339,88.709274 L91.3477,79.43957 L90.630035,90.957695 L72.4062,89.44753 L91.39159,72.84816 L8.078605,20.151966 L8.924792,54.929024 L8.679175,87.02346 L19.487633,89.729645 L88.21464,49.388565 L48.438065,10.951572 L67.55717,10.809887 L39.61595,9.4373045 L43.367764,89.4776 L89.92643,57.346462 L24.422972,89.47072 L90.47276,31.868202 L77.43099,90.3397 L90.85162,76.79867 L60.65746,91.6307 L89.3768,54.09519 L89.01897,73.72353 L10.603646,59.770294 L62.607136,88.43639 L54.32998,91.634415 L90.02887,18.297132 L42.08443,10.422148 L83.42011,10.957816 L17.043474,10.004216 L64.68196,89.89663 L91.98336,51.0076 L9.192277,85.25787 L91.49858,90.17062 L10.468029,53.478813 L28.158031,89.56878 L91.529976,18.769457 L89.46394,45.264328 L14.724446,91.994705 L90.78183,37.27607 L50.62818,89.26144 L70.06645,89.19228 L31.516245,10.16432 L89.79226,83.743835 L9.939248,34.937157 L13.546094,9.3148365 L55.819393,9.587551 L9.301299,19.068987 L14.997361,8.330193 L9.488276,55.833687 L77.42823,11.039449 L91.65246,42.669167 L90.712555,27.526669 L55.589794,8.898567 L18.98383,9.614361 L8.676766,91.995155 L9.713128,63.858685 L45.627617,89.039116 L8.751072,87.28903 L41.138165,89.56177 L8.534687,33.745598 L9.380103,32.452206 L35.101177,91.38562 L36.26611,89.01673 L31.240396,89.08251 L89.53437,46.83725 L90.952995,31.980682 L83.54166,90.70589 L10.169882,69.75574 L90.16272,28.472782 L39.943398,90.55081 L9.009214,65.74046 L10.263893,20.118448 L83.7844,9.39375 L75.17672,11.147038 L89.417114,81.84903 L15.782441,89.973785 L10.251348,57.63174 L10.958504,10.323683 L89.55781,14.239744 L9.813454,13.028378 L80.269005,8.421698 L88.450035,62.919212 L88.38025,48.15775 L53.45789,89.294205 L78.15999,9.540251 L81.92622,9.277771 L90.42026,55.497154 L39.0943,91.30947 L89.55996,29.42882 L60.07115,10.65957 L90.773285,50 L27.397764,89.23999 L11.073588,9.110912 L56.967556,8.526459 L90.37633,55.81419 L71.049904,9.519409 L36.606316,8.144737 L88.76636,54.651962 L88.5169,9.54107 L8.952865,90.062004 L91.26927,80.70434 L9.65176,89.0571 L10.477612,88.89003 L8.464351,68.27569 L57.244328,89.371346 L9.92772,53.205784 L67.349075,91.7045 L77.18012,9.553387 L24.225512,8.1582985 L14.547512,90.656525 L88.79508,55.89685 L91.52261,9.1417465 L69.47559,91.97326 L90.53599,17.571207 L90.6389,40.246662 L50.93157,88.81532 L11.144904,60.568584 L30.845062,88.61883 L85.07284,10.856205 L22.873327,10.571695 L90.62687,69.50089" fill="none" stroke="#000" stroke-width="0.35" style="mix-blend-mode: multiply;"/>
</g>
</svg>