<svg height="100mm" style="background:white" viewBox="0 0 100 100" width="100mm" xmlns="http://www.w3.org/2000/svg" xmlns:inkscape="http://www.inkscape.org/namespaces/inkscape">
<g inkscape:groupmode="layer" inkscape:label="#000">
<path d="M50.000008,95.25948 L53.586296,87.93304 L50.000008,81.93071 L50.000008,95.25948 L46.419968,88.13894 L50.000008,81.93071 L46.544296,74.72035 L46.419968,88.13894 L42.891277,79.97766 L46.544296,74.72035 L43.300285,70.255035 L42.891277,79.97766 L39.461685,72.551384 L43.300285,70.255035 L40.22635,65.72838 L39.461685,72.551384 L36.179653,65.98848 L40.22635,65.72838 L37.19346,60.038265 L36.179653,65.98848 L33.025055,59.821934 L37.19346,60.038265 L34.273987,54.642113 L33.025055,59.821934 L30.072979,54.585815 L34.273987,54.642113 L31.459019,49.461296 L30.072979,54.585815 L27.27871,49.793755 L31.459019,49.461296 L29.103956,47.21894 L27.27871,49.793755 L24.647114,45.460052 L29.103956,47.21894 L27.900143,52.06803 L24.647114,45.460052 L23.341576,48.448353 L27.900143,52.06803 L26.575785,54.380993 L23.341576,48.448353 L22.728338,54.03695 L26.575785,54.380993 L25.143082,54.9012 L22.728338,54.03695 L21.250591,53.746155 L25.143082,54.9012 L23.55895,53.794582 L21.250591,53.746155 L19.70229,52.52214 L23.55895,53.794582 L21.948729,52.06009 L19.70229,52.52214 L18.100359,50.62144 L21.948729,52.06009 L20.437962,50.488102 L18.100359,50.62144 L16.152342,46.783596 L20.437962,50.488102 L18.3478,45.657265 L16.152342,46.783596 L13.607883,40.078625 L18.3478,45.657265 L15.680864,37.93852 L13.607883,40.078625 L11.516125,35.41339 L15.680864,37.93852 L13.956854,34.820118 L11.516125,35.41339 L10.330002,34.588364 L13.956854,34.820118 L13.061426,35.38349 L10.330002,34.588364 L10.074966,37.453484 L13.061426,35.38349 L12.409444,36.728916 L10.074966,37.453484 L9.99764,40.68378 L12.409444,36.728916 L11.37095,36.057606 L9.99764,40.68378 L9.135661,40.39 L11.37095,36.057606 L9.135661,40.39 L11.37095,36.057606 L14.119303,34.32913 L11.37095,36.057606 L12.409444,36.728916 L15.367446,35.714653 L14.119303,34.32913 L12.409444,36.728916 L13.061426,35.38349 L16.38628,35.71582 L15.367446,35.714653 L13.061426,35.38349 L13.956854,34.820118 L17.611668,36.45466 L16.38628,35.71582 L13.956854,34.820118 L15.680864,37.93852 L19.561695,40.7904 L17.611668,36.45466 L15.680864,37.93852 L18.3478,45.657265 L21.858261,46.991917 L19.561695,40.7904 L18.3478,45.657265 L20.437962,50.488102 L23.488445,49.316795 L21.858261,46.991917 L20.437962,50.488102 L21.948729,52.06009 L24.839722,49.57843 L23.488445,49.316795 L21.948729,52.06009 L23.55895,53.794582 L26.56166,51.64974 L24.839722,49.57843 L23.55895,53.794582 L25.143082,54.9012 L28.496092,54.707413 L26.56166,51.64974 L25.143082,54.9012 L26.575785,54.380993 L30.100597,54.79577 L28.496092,54.707413 L26.575785,54.380993 L27.900143,52.06803 L31.56477,52.5792 L30.100597,54.79577 L27.900143,52.06803 L29.103956,47.21894 L33.035522,48.448105 L31.56477,52.5792 L29.103956,47.21894 L31.459019,49.461296 L35.16018,48.133484 L33.035522,48.448105 L31.459019,49.461296 L34.273987,54.642113 L37.900032,52.764282 L35.16018,48.133484 L34.273987,54.642113 L37.19346,60.038265 L40.77066,57.952503 L37.900032,52.764282 L37.19346,60.038265 L40.22635,65.72838 L43.685562,62.064213 L40.77066,57.952503 L40.22635,65.72838 L43.300285,70.255035 L46.70255,64.02368 L43.685562,62.064213 L43.300285,70.255035 L46.544296,74.72035 L50.000008,67.55017 L46.70255,64.02368 L46.544296,74.72035 L50.000008,81.93071 L53.45735,74.658424 L50.000008,67.55017 L50.000008,81.93071 L53.586296,87.93304 L57.253395,77.41164 L53.45735,74.658424 L53.586296,87.93304 L57.253395,77.41164 L60.82067,68.97395 L56.896698,66.26195 L57.253395,77.41164 L53.45735,74.658424 L56.896698,66.26195 L53.37277,60.779533 L53.45735,74.658424 L50.000008,67.55017 L53.37277,60.779533 L50.000008,57.254673 L50.000008,67.55017 L46.70255,64.02368 L50.000008,57.254673 L46.87735,55.72763 L46.70255,64.02368 L43.685562,62.064213 L46.87735,55.72763 L43.952194,52.819393 L43.685562,62.064213 L40.77066,57.952503 L43.952194,52.819393 L41.148293,49.059105 L40.77066,57.952503 L37.900032,52.764282 L41.148293,49.059105 L38.588478,47.028233 L37.900032,52.764282 L35.16018,48.133484 L38.588478,47.028233 L36.543373,49.21493 L35.16018,48.133484 L33.035522,48.448105 L36.543373,49.21493 L34.867264,52.685474 L33.035522,48.448105 L31.56477,52.5792 L34.867264,52.685474 L33.307693,55.005688 L31.56477,52.5792 L30.100597,54.79577 L33.307693,55.005688 L31.544724,54.082565 L30.100597,54.79577 L28.496092,54.707413 L31.544724,54.082565 L29.555916,50.654903 L28.496092,54.707413 L26.56166,51.64974 L29.555916,50.654903 L27.81577,48.669163 L26.56166,51.64974 L24.839722,49.57843 L27.81577,48.669163 L26.388323,48.33185 L24.839722,49.57843 L23.488445,49.316795 L26.388323,48.33185 L24.770872,46.244095 L23.488445,49.316795 L21.858261,46.991917 L24.770872,46.244095 L22.81254,41.787067 L21.858261,46.991917 L19.561695,40.7904 L22.81254,41.787067 L21.084332,38.590744 L19.561695,40.7904 L17.611668,36.45466 L21.084332,38.590744 L19.709911,37.209023 L17.611668,36.45466 L16.38628,35.71582 L19.709911,37.209023 L18.461744,36.244545 L16.38628,35.71582 L15.367446,35.714653 L18.461744,36.244545 L17.007494,33.946213 L15.367446,35.714653 L14.119303,34.32913 L17.007494,33.946213 L14.119303,34.32913 L17.007494,33.946213 L19.91183,34.52237 L17.007494,33.946213 L18.461744,36.244545 L21.434385,37.17128 L19.91183,34.52237 L18.461744,36.244545 L19.709911,37.209023 L22.718449,38.179592 L21.434385,37.17128 L19.709911,37.209023 L21.084332,38.590744 L24.090176,39.406364 L22.718449,38.179592 L21.084332,38.590744 L22.81254,41.787067 L25.767086,42.320557 L24.090176,39.406364 L22.81254,41.787067 L24.770872,46.244095 L27.630676,46.325184 L25.767086,42.320557 L24.770872,46.244095 L26.388323,48.33185 L29.452475,49.868504 L27.630676,46.325184 L26.388323,48.33185 L27.81577,48.669163 L31.092342,51.687756 L29.452475,49.868504 L27.81577,48.669163 L29.555916,50.654903 L32.78074,53.35334 L31.092342,51.687756 L29.555916,50.654903 L31.544724,54.082565 L34.56442,55.20366 L32.78074,53.35334 L31.544724,54.082565 L33.307693,55.005688 L36.258503,55.18021 L34.56442,55.20366 L33.307693,55.005688 L34.867264,52.685474 L37.912106,52.91729 L36.258503,55.18021 L34.867264,52.685474 L36.543373,49.21493 L39.729733,49.921616 L37.912106,52.91729 L36.543373,49.21493 L38.588478,47.028233 L41.83838,47.512054 L39.729733,49.921616 L38.588478,47.028233 L41.148293,49.059105 L44.29878,47.15474 L41.83838,47.512054 L41.148293,49.059105 L43.952194,52.819393 L47.041748,48.650085 L44.29878,47.15474 L43.952194,52.819393 L46.87735,55.72763 L50.000008,50.631973 L47.041748,48.650085 L46.87735,55.72763 L50.000008,57.254673 L53.194332,52.27699 L50.000008,50.631973 L50.000008,57.254673 L53.37277,60.779533 L56.63205,54.820667 L53.194332,52.27699 L53.37277,60.779533 L56.896698,66.26195 L60.267067,58.64319 L56.63205,54.820667 L56.896698,66.26195 L60.82067,68.97395 L64.1547,62.599457 L60.267067,58.64319 L60.82067,68.97395 L64.1547,62.599457 L67.42794,55.91904 L63.451225,52.686787 L64.1547,62.599457 L60.267067,58.64319 L63.451225,52.686787 L59.699024,50.414597 L60.267067,58.64319 L56.63205,54.820667 L59.699024,50.414597 L56.204384,48.85182 L56.63205,54.820667 L53.194332,52.27699 L56.204384,48.85182 L52.97915,47.53855 L53.194332,52.27699 L50.000008,50.631973 L52.97915,47.53855 L50.000004,46.583828 L50.000008,50.631973 L47.041748,48.650085 L50.000004,46.583828 L47.267616,46.821667 L47.041748,48.650085 L44.29878,47.15474 L47.267616,46.821667 L44.811104,48.28672 L44.29878,47.15474 L41.83838,47.512054 L44.811104,48.28672 L42.63218,50.486935 L41.83838,47.512054 L39.729733,49.921616 L42.63218,50.486935 L40.689613,52.719482 L39.729733,49.921616 L37.912106,52.91729 L40.689613,52.719482 L38.906967,54.27833 L37.912106,52.91729 L36.258503,55.18021 L38.906967,54.27833 L37.195313,54.65131 L36.258503,55.18021 L34.56442,55.20366 L37.195313,54.65131 L35.468204,53.516167 L34.56442,55.20366 L32.78074,53.35334 L35.468204,53.516167 L33.639187,50.602207 L32.78074,53.35334 L31.092342,51.687756 L33.639187,50.602207 L31.677364,46.146603 L31.092342,51.687756 L29.452475,49.868504 L31.677364,46.146603 L29.598303,40.637062 L29.452475,49.868504 L27.630676,46.325184 L29.598303,40.637062 L27.810345,37.384453 L27.630676,46.325184 L25.767086,42.320557 L27.810345,37.384453 L26.356133,36.315086 L25.767086,42.320557 L24.090176,39.406364 L26.356133,36.315086 L25.008976,35.573673 L24.090176,39.406364 L22.718449,38.179592 L25.008976,35.573673 L23.810995,35.422573 L22.718449,38.179592 L21.434385,37.17128 L23.810995,35.422573 L22.586058,34.71833 L21.434385,37.17128 L19.91183,34.52237 L22.586058,34.71833 L19.91183,34.52237 L22.586058,34.71833 L24.558006,31.079865 L22.586058,34.71833 L23.810995,35.422573 L25.608322,30.153343 L24.558006,31.079865 L23.810995,35.422573 L25.008976,35.573673 L27.26446,33.23442 L25.608322,30.153343 L25.008976,35.573673 L26.356133,36.315086 L29.075098,37.35842 L27.26446,33.23442 L26.356133,36.315086 L27.810345,37.384453 L30.64748,39.33672 L29.075098,37.35842 L27.810345,37.384453 L29.598303,40.637062 L31.93959,38.264927 L30.64748,39.33672 L29.598303,40.637062 L31.677364,46.146603 L33.29328,36.730827 L31.93959,38.264927 L31.677364,46.146603 L33.639187,50.602207 L35.192825,39.904156 L33.29328,36.730827 L33.639187,50.602207 L35.468204,53.516167 L37.316742,45.37372 L35.192825,39.904156 L35.468204,53.516167 L37.195313,54.65131 L39.32002,49.10489 L37.316742,45.37372 L37.195313,54.65131 L38.906967,54.27833 L41.266075,51.148476 L39.32002,49.10489 L38.906967,54.27833 L40.689613,52.719482 L43.23262,51.73391 L41.266075,51.148476 L40.689613,52.719482 L42.63218,50.486935 L45.27983,50.578873 L43.23262,51.73391 L42.63218,50.486935 L44.811104,48.28672 L47.50582,48.064236 L45.27983,50.578873 L44.811104,48.28672 L47.267616,46.821667 L50.000004,45.457413 L47.50582,48.064236 L47.267616,46.821667 L50.000004,46.583828 L52.778896,44.11129 L50.000004,45.457413 L50.000004,46.583828 L52.97915,47.53855 L55.795525,44.526363 L52.778896,44.11129 L52.97915,47.53855 L56.204384,48.85182 L59.024612,45.992245 L55.795525,44.526363 L56.204384,48.85182 L59.699024,50.414597 L62.49779,47.723816 L59.024612,45.992245 L59.699024,50.414597 L63.451225,52.686787 L66.2686,49.417324 L62.49779,47.723816 L63.451225,52.686787 L67.42794,55.91904 L70.33672,51.47121 L66.2686,49.417324 L67.42794,55.91904 L70.33672,51.47121 L72.43634,51.753822 L68.68187,48.271275 L70.33672,51.47121 L66.2686,49.417324 L68.68187,48.271275 L65.06801,45.70495 L66.2686,49.417324 L62.49779,47.723816 L65.06801,45.70495 L61.676617,43.333668 L62.49779,47.723816 L59.024612,45.992245 L61.676617,43.333668 L58.40277,42.827225 L59.024612,45.992245 L55.795525,44.526363 L58.40277,42.827225 L55.353935,43.2683 L55.795525,44.526363 L52.778896,44.11129 L55.353935,43.2683 L52.554127,44.267197 L52.778896,44.11129 L50.000004,45.457413 L52.554127,44.267197 L50.000004,46.698093 L50.000004,45.457413 L47.50582,48.064236 L50.000004,46.698093 L47.71503,49.737297 L47.50582,48.064236 L45.27983,50.578873 L47.71503,49.737297 L45.599953,49.974472 L45.27983,50.578873 L43.23262,51.73391 L45.599953,49.974472 L43.472553,46.178513 L43.23262,51.73391 L41.266075,51.148476 L43.472553,46.178513 L41.26919,40.141262 L41.266075,51.148476 L39.32002,49.10489 L41.26919,40.141262 L39.101776,34.850243 L39.32002,49.10489 L37.316742,45.37372 L39.101776,34.850243 L37.35813,35.21939 L37.316742,45.37372 L35.192825,39.904156 L37.35813,35.21939 L36.116405,40.21686 L35.192825,39.904156 L33.29328,36.730827 L36.116405,40.21686 L34.848248,42.8936 L33.29328,36.730827 L31.93959,38.264927 L34.848248,42.8936 L33.425346,42.736443 L31.93959,38.264927 L30.64748,39.33672 L33.425346,42.736443 L31.779312,39.853935 L30.64748,39.33672 L29.075098,37.35842 L31.779312,39.853935 L29.861847,34.42341 L29.075098,37.35842 L27.26446,33.23442 L29.861847,34.42341 L27.788013,27.833374 L27.26446,33.23442 L25.608322,30.153343 L27.788013,27.833374 L26.305561,25.94455 L25.608322,30.153343 L24.558006,31.079865 L26.305561,25.94455 L24.558006,31.079865 L26.305561,25.94455 L28.424112,23.825218 L26.305561,25.94455 L27.788013,27.833374 L30.170025,27.913658 L28.424112,23.825218 L27.788013,27.833374 L29.861847,34.42341 L32.278275,35.42406 L30.170025,27.913658 L29.861847,34.42341 L31.779312,39.853935 L34.10749,40.509266 L32.278275,35.42406 L31.779312,39.853935 L33.425346,42.736443 L35.66496,42.60798 L34.10749,40.509266 L33.425346,42.736443 L34.848248,42.8936 L37.171505,43.53341 L35.66496,42.60798 L34.848248,42.8936 L36.116405,40.21686 L38.499687,40.933567 L37.171505,43.53341 L36.116405,40.21686 L37.35813,35.21939 L39.82801,35.949654 L38.499687,40.933567 L37.35813,35.21939 L39.101776,34.850243 L41.319546,30.09967 L39.82801,35.949654 L39.101776,34.850243 L41.26919,40.141262 L43.396614,33.1625 L41.319546,30.09967 L41.26919,40.141262 L43.472553,46.178513 L45.679417,41.84483 L43.396614,33.1625 L43.472553,46.178513 L45.599953,49.974472 L47.846115,47.790127 L45.679417,41.84483 L45.599953,49.974472 L47.71503,49.737297 L50.000004,47.56876 L47.846115,47.790127 L47.71503,49.737297 L50.000004,46.698093 L52.35638,44.852276 L50.000004,47.56876 L50.000004,46.698093 L52.554127,44.267197 L54.89864,44.69989 L52.35638,44.852276 L52.554127,44.267197 L55.353935,43.2683 L57.60276,45.525932 L54.89864,44.69989 L55.353935,43.2683 L58.40277,42.827225 L60.60366,44.85266 L57.60276,45.525932 L58.40277,42.827225 L61.676617,43.333668 L64.06693,42.10077 L60.60366,44.85266 L61.676617,43.333668 L65.06801,45.70495 L67.570724,42.815132 L64.06693,42.10077 L65.06801,45.70495 L68.68187,48.271275 L70.975044,46.61846 L67.570724,42.815132 L68.68187,48.271275 L72.43634,51.753822 L74.31868,52.012215 L70.975044,46.61846 L72.43634,51.753822 L74.31868,52.012215 L76.60921,48.739433 L73.44902,42.666084 L74.31868,52.012215 L70.975044,46.61846 L73.44902,42.666084 L70.03525,39.25693 L70.975044,46.61846 L67.570724,42.815132 L70.03525,39.25693 L65.93849,44.518147 L67.570724,42.815132 L64.06693,42.10077 L65.93849,44.518147 L62.44626,48.376717 L64.06693,42.10077 L60.60366,44.85266 L62.44626,48.376717 L59.666386,46.85576 L60.60366,44.85266 L57.60276,45.525932 L59.666386,46.85576 L57.054996,45.174507 L57.60276,45.525932 L54.89864,44.69989 L57.054996,45.174507 L54.571453,43.893986 L54.89864,44.69989 L52.35638,44.852276 L54.571453,43.893986 L52.19934,44.45032 L52.35638,44.852276 L50.000004,47.56876 L52.19934,44.45032 L50.000004,45.429016 L50.000004,47.56876 L47.846115,47.790127 L50.000004,45.429016 L47.8876,40.132313 L47.846115,47.790127 L45.679417,41.84483 L47.8876,40.132313 L45.658066,30.030254 L45.679417,41.84483 L43.396614,33.1625 L45.658066,30.030254 L43.53363,25.825996 L43.396614,33.1625 L41.319546,30.09967 L43.53363,25.825996 L41.951668,32.716827 L41.319546,30.09967 L39.82801,35.949654 L41.951668,32.716827 L40.545387,38.36424 L39.82801,35.949654 L38.499687,40.933567 L40.545387,38.36424 L39.202263,41.901554 L38.499687,40.933567 L37.171505,43.53341 L39.202263,41.901554 L37.71332,41.5026 L37.171505,43.53341 L35.66496,42.60798 L37.71332,41.5026 L36.174026,39.653965 L35.66496,42.60798 L34.10749,40.509266 L36.174026,39.653965 L34.34532,34.17124 L34.10749,40.509266 L32.278275,35.42406 L34.34532,34.17124 L32.318535,26.850395 L32.278275,35.42406 L30.170025,27.913658 L32.318535,26.850395 L30.732304,24.087906 L30.170025,27.913658 L28.424112,23.825218 L30.732304,24.087906 L28.424112,23.825218 L30.732304,24.087906 L33.136826,26.59829 L30.732304,24.087906 L32.318535,26.850395 L34.27336,24.524788 L33.136826,26.59829 L32.318535,26.850395 L34.34532,34.17124 L36.094196,29.883286 L34.27336,24.524788 L34.34532,34.17124 L36.174026,39.653965 L37.92388,35.579433 L36.094196,29.883286 L36.174026,39.653965 L37.71332,41.5026 L39.536743,38.148872 L37.92388,35.579433 L37.71332,41.5026 L39.202263,41.901554 L40.976414,36.86346 L39.536743,38.148872 L39.202263,41.901554 L40.545387,38.36424 L42.375435,32.18406 L40.976414,36.86346 L40.545387,38.36424 L41.951668,32.716827 L43.88543,25.30246 L42.375435,32.18406 L41.951668,32.716827 L43.53363,25.825996 L45.72521,21.919746 L43.88543,25.30246 L43.53363,25.825996 L45.658066,30.030254 L47.909748,31.278458 L45.72521,21.919746 L45.658066,30.030254 L47.8876,40.132313 L50.000004,39.588127 L47.909748,31.278458 L47.8876,40.132313 L50.000004,45.429016 L52.081787,42.53837 L50.000004,39.588127 L50.000004,45.429016 L52.19934,44.45032 L54.30995,42.24941 L52.081787,42.53837 L52.19934,44.45032 L54.571453,43.893986 L56.638874,43.44925 L54.30995,42.24941 L54.571453,43.893986 L57.054996,45.174507 L59.19966,42.887016 L56.638874,43.44925 L57.054996,45.174507 L59.666386,46.85576 L61.860157,43.781017 L59.19966,42.887016 L59.666386,46.85576 L62.44626,48.376717 L64.37733,48.198185 L61.860157,43.781017 L62.44626,48.376717 L65.93849,44.518147 L67.304306,49.46688 L64.37733,48.198185 L65.93849,44.518147 L70.03525,39.25693 L71.83243,40.100304 L67.304306,49.46688 L70.03525,39.25693 L73.44902,42.666084 L76.09747,37.06886 L71.83243,40.100304 L73.44902,42.666084 L76.60921,48.739433 L79.48258,41.71102 L76.09747,37.06886 L76.60921,48.739433 L79.48258,41.71102 L82.06689,36.16821 L77.91391,36.308994 L79.48258,41.71102 L76.09747,37.06886 L77.91391,36.308994 L72.55513,47.307705 L76.09747,37.06886 L71.83243,40.100304 L72.55513,47.307705 L68.86959,50.670403 L71.83243,40.100304 L67.304306,49.46688 L68.86959,50.670403 L66.6073,43.750885 L67.304306,49.46688 L64.37733,48.198185 L66.6073,43.750885 L64.22855,37.813 L64.37733,48.198185 L61.860157,43.781017 L64.22855,37.813 L61.452145,37.755913 L61.860157,43.781017 L59.19966,42.887016 L61.452145,37.755913 L58.657043,41.543423 L59.19966,42.887016 L56.638874,43.44925 L58.657043,41.543423 L56.27464,41.77131 L56.638874,43.44925 L54.30995,42.24941 L56.27464,41.77131 L54.096294,39.990597 L54.30995,42.24941 L52.081787,42.53837 L54.096294,39.990597 L52.00173,38.6819 L52.081787,42.53837 L50.000004,39.588127 L52.00173,38.6819 L50.000004,33.716084 L50.000004,39.588127 L47.909748,31.278458 L50.000004,33.716084 L47.953922,24.60247 L47.909748,31.278458 L45.72521,21.919746 L47.953922,24.60247 L45.878334,18.071594 L45.72521,21.919746 L43.88543,25.30246 L45.878334,18.071594 L44.177666,24.105942 L43.88543,25.30246 L42.375435,32.18406 L44.177666,24.105942 L42.63723,28.82574 L42.375435,32.18406 L40.976414,36.86346 L42.63723,28.82574 L41.113018,30.416832 L40.976414,36.86346 L39.536743,38.148872 L41.113018,30.416832 L39.50661,28.80148 L39.536743,38.148872 L37.92388,35.579433 L39.50661,28.80148 L37.805748,25.082504 L37.92388,35.579433 L36.094196,29.883286 L37.805748,25.082504 L36.38295,24.915192 L36.094196,29.883286 L34.27336,24.524788 L36.38295,24.915192 L35.46106,30.048485 L34.27336,24.524788 L33.136826,26.59829 L35.46106,30.048485 L33.136826,26.59829 L35.46106,30.048485 L37.395016,30.394135 L35.46106,30.048485 L36.38295,24.915192 L38.6022,28.651585 L37.395016,30.394135 L36.38295,24.915192 L37.805748,25.082504 L39.715805,23.648392 L38.6022,28.651585 L37.805748,25.082504 L39.50661,28.80148 L41.23443,23.931473 L39.715805,23.648392 L39.50661,28.80148 L41.113018,30.416832 L42.82968,24.373611 L41.23443,23.931473 L41.113018,30.416832 L42.63723,28.82574 L44.40656,21.810135 L42.82968,24.373611 L42.63723,28.82574 L44.177666,24.105942 L46.08168,17.417557 L44.40656,21.810135 L44.177666,24.105942 L45.878334,18.071594 L48.030178,21.38237 L46.08168,17.417557 L45.878334,18.071594 L47.953922,24.60247 L50.000004,29.753113 L48.030178,21.38237 L47.953922,24.60247 L50.000004,33.716084 L51.93087,34.821922 L50.000004,29.753113 L50.000004,33.716084 L52.00173,38.6819 L53.92407,37.02942 L51.93087,34.821922 L52.00173,38.6819 L54.096294,39.990597 L55.9956,38.94905 L53.92407,37.02942 L54.096294,39.990597 L56.27464,41.77131 L58.168255,40.483646 L55.9956,38.94905 L56.27464,41.77131 L58.657043,41.543423 L60.862473,35.412098 L58.168255,40.483646 L58.657043,41.543423 L61.452145,37.755913 L63.866814,30.377419 L60.862473,35.412098 L61.452145,37.755913 L64.22855,37.813 L66.57092,32.108543 L63.866814,30.377419 L64.22855,37.813 L66.6073,43.750885 L68.97973,37.73912 L66.57092,32.108543 L66.6073,43.750885 L68.86959,50.670403 L70.97009,46.656128 L68.97973,37.73912 L68.86959,50.670403 L72.55513,47.307705 L73.44873,51.58134 L70.97009,46.656128 L72.55513,47.307705 L77.91391,36.308994 L78.0066,44.778114 L73.44873,51.58134 L77.91391,36.308994 L82.06689,36.16821 L83.32175,37.195686 L78.0066,44.778114 L82.06689,36.16821 L83.32175,37.195686 L82.67671,46.834606 L78.256546,50.933086 L83.32175,37.195686 L78.0066,44.778114 L78.256546,50.933086 L75.2092,49.274254 L78.0066,44.778114 L73.44873,51.58134 L75.2092,49.274254 L73.01169,42.798058 L73.44873,51.58134 L70.97009,46.656128 L73.01169,42.798058 L70.6882,37.14882 L70.97009,46.656128 L68.97973,37.73912 L70.6882,37.14882 L68.11503,33.932068 L68.97973,37.73912 L66.57092,32.108543 L68.11503,33.932068 L65.71158,29.75462 L66.57092,32.108543 L63.866814,30.377419 L65.71158,29.75462 L63.19962,27.681381 L63.866814,30.377419 L60.862473,35.412098 L63.19962,27.681381 L60.276848,34.196087 L60.862473,35.412098 L58.168255,40.483646 L60.276848,34.196087 L57.815483,37.7326 L58.168255,40.483646 L55.9956,38.94905 L57.815483,37.7326 L55.75267,36.002254 L55.9956,38.94905 L53.92407,37.02942 L55.75267,36.002254 L53.764156,34.37957 L53.92407,37.02942 L51.93087,34.821922 L53.764156,34.37957 L51.855217,32.129196 L51.93087,34.821922 L50.000004,29.753113 L51.855217,32.129196 L50.000004,28.284378 L50.000004,29.753113 L48.030178,21.38237 L50.000004,28.284378 L48.141945,22.444984 L48.030178,21.38237 L46.08168,17.417557 L48.141945,22.444984 L46.31287,19.20533 L46.08168,17.417557 L44.40656,21.810135 L46.31287,19.20533 L44.65069,20.815475 L44.40656,21.810135 L42.82968,24.373611 L44.65069,20.815475 L43.12061,23.029549 L42.82968,24.373611 L41.23443,23.931473 L43.12061,23.029549 L41.784374,27.031464 L41.23443,23.931473 L39.715805,23.648392 L41.784374,27.031464 L40.57913,31.004951 L39.715805,23.648392 L38.6022,28.651585 L40.57913,31.004951 L39.16316,29.537628 L38.6022,28.651585 L37.395016,30.394135 L39.16316,29.537628 L37.395016,30.394135 L39.16316,29.537628 L40.899754,29.276222 L39.16316,29.537628 L40.57913,31.004951 L42.344063,31.468613 L40.899754,29.276222 L40.57913,31.004951 L41.784374,27.031464 L43.705524,30.617596 L42.344063,31.468613 L41.784374,27.031464 L43.12061,23.029549 L45.08365,27.504356 L43.705524,30.617596 L43.12061,23.029549 L44.65069,20.815475 L46.604855,25.400139 L45.08365,27.504356 L44.65069,20.815475 L46.31287,19.20533 L48.26901,26.229393 L46.604855,25.400139 L46.31287,19.20533 L48.141945,22.444984 L50.000004,28.337502 L48.26901,26.229393 L48.141945,22.444984 L50.000004,28.284378 L51.777596,30.39806 L50.000004,28.337502 L50.000004,28.284378 L51.855217,32.129196 L53.595512,32.96071 L51.777596,30.39806 L51.855217,32.129196 L53.764156,34.37957 L55.506912,33.964615 L53.595512,32.96071 L53.764156,34.37957 L55.75267,36.002254 L57.533577,34.259445 L55.506912,33.964615 L55.75267,36.002254 L57.815483,37.7326 L59.853016,31.297321 L57.533577,34.259445 L57.815483,37.7326 L60.276848,34.196087 L62.571373,25.553284 L59.853016,31.297321 L60.276848,34.196087 L63.19962,27.681381 L64.96387,27.311562 L62.571373,25.553284 L63.19962,27.681381 L65.71158,29.75462 L67.175766,31.976505 L64.96387,27.311562 L65.71158,29.75462 L68.11503,33.932068 L69.4335,36.450394 L67.175766,31.976505 L68.11503,33.932068 L70.6882,37.14882 L71.81619,40.2237 L69.4335,36.450394 L70.6882,37.14882 L73.01169,42.798058 L74.328354,43.543938 L71.81619,40.2237 L73.01169,42.798058 L75.2092,49.274254 L76.73943,47.96945 L74.328354,43.543938 L75.2092,49.274254 L78.256546,50.933086 L79.577835,50.40502 L76.73943,47.96945 L78.256546,50.933086 L82.67671,46.834606 L82.90932,51.199688 L79.577835,50.40502 L82.67671,46.834606 L82.90932,51.199688 L83.90849,51.407536 L80.69791,50.493893 L82.90932,51.199688 L79.577835,50.40502 L80.69791,50.493893 L77.823654,48.790108 L79.577835,50.40502 L76.73943,47.96945 L77.823654,48.790108 L75.34622,45.502377 L76.73943,47.96945 L74.328354,43.543938 L75.34622,45.502377 L72.98996,41.89292 L74.328354,43.543938 L71.81619,40.2237 L72.98996,41.89292 L70.71667,38.083008 L71.81619,40.2237 L69.4335,36.450394 L70.71667,38.083008 L68.58938,33.35002 L69.4335,36.450394 L67.175766,31.976505 L68.58938,33.35002 L66.52206,28.135624 L67.175766,31.976505 L64.96387,27.311562 L66.52206,28.135624 L64.41295,23.457573 L64.96387,27.311562 L62.571373,25.553284 L64.41295,23.457573 L62.04396,22.953293 L62.571373,25.553284 L59.853016,31.297321 L62.04396,22.953293 L59.516556,27.619286 L59.853016,31.297321 L57.533577,34.259445 L59.516556,27.619286 L57.270454,31.048428 L57.533577,34.259445 L55.506912,33.964615 L57.270454,31.048428 L55.26219,32.72306 L55.506912,33.964615 L53.595512,32.96071 L55.26219,32.72306 L53.443176,31.570263 L53.595512,32.96071 L51.777596,30.39806 L53.443176,31.570263 L51.704384,28.995026 L51.777596,30.39806 L50.000004,28.337502 L51.704384,28.995026 L50.000004,29.047775 L50.000004,28.337502 L48.26901,26.229393 L50.000004,29.047775 L48.38331,29.911385 L48.26901,26.229393 L46.604855,25.400139 L48.38331,29.911385 L46.859047,30.967716 L46.604855,25.400139 L45.08365,27.504356 L46.859047,30.967716 L45.41864,31.932335 L45.08365,27.504356 L43.705524,30.617596 L45.41864,31.932335 L44.00491,31.366966 L43.705524,30.617596 L42.344063,31.468613 L44.00491,31.366966 L42.58099,29.351952 L42.344063,31.468613 L40.899754,29.276222 L42.58099,29.351952 L40.899754,29.276222 L42.58099,29.351952 L44.199425,29.68584 L42.58099,29.351952 L44.00491,31.366966 L45.592255,31.085167 L44.199425,29.68584 L44.00491,31.366966 L45.41864,31.932335 L47.0075,31.660671 L45.592255,31.085167 L45.41864,31.932335 L46.859047,30.967716 L48.466377,31.190506 L47.0075,31.660671 L46.859047,30.967716 L48.38331,29.911385 L50.000004,29.834747 L48.466377,31.190506 L48.38331,29.911385 L50.000004,29.047775 L51.63187,28.258507 L50.000004,29.834747 L50.000004,29.047775 L51.704384,28.995026 L53.32672,29.041882 L51.63187,28.258507 L51.704384,28.995026 L53.443176,31.570263 L55.041008,31.493347 L53.32672,29.041882 L53.443176,31.570263 L55.26219,32.72306 L56.931976,30.413788 L55.041008,31.493347 L55.26219,32.72306 L57.270454,31.048428 L59.095463,26.296204 L56.931976,30.413788 L57.270454,31.048428 L59.516556,27.619286 L61.519516,21.196724 L59.095463,26.296204 L59.516556,27.619286 L62.04396,22.953293 L63.931293,19.473785 L61.519516,21.196724 L62.04396,22.953293 L64.41295,23.457573 L66.07896,22.721283 L63.931293,19.473785 L64.41295,23.457573 L66.52206,28.135624 L68.07712,27.929924 L66.07896,22.721283 L66.52206,28.135624 L68.58938,33.35002 L70.02862,33.511562 L68.07712,27.929924 L68.58938,33.35002 L70.71667,38.083008 L72.054054,38.415436 L70.02862,33.511562 L70.71667,38.083008 L72.98996,41.89292 L74.18838,42.621628 L72.054054,38.415436 L72.98996,41.89292 L75.34622,45.502377 L76.44304,46.285587 L74.18838,42.621628 L75.34622,45.502377 L77.823654,48.790108 L79.01417,48.523884 L76.44304,46.285587 L77.823654,48.790108 L80.69791,50.493893 L81.85637,50.004436 L79.01417,48.523884 L80.69791,50.493893 L83.90849,51.407536 L84.90633,51.27883 L81.85637,50.004436 L83.90849,51.407536 L84.90633,51.27883 L86.29367,49.183968 L83.54033,46.712234 L84.90633,51.27883 L81.85637,50.004436 L83.54033,46.712234 L80.92343,44.126663 L81.85637,50.004436 L79.01417,48.523884 L80.92343,44.126663 L78.22392,42.59756 L79.01417,48.523884 L76.44304,46.285587 L78.22392,42.59756 L75.58941,41.467613 L76.44304,46.285587 L74.18838,42.621628 L75.58941,41.467613 L73.32265,38.621502 L74.18838,42.621628 L72.054054,38.415436 L73.32265,38.621502 L71.44591,33.1576 L72.054054,38.415436 L70.02862,33.511562 L71.44591,33.1576 L69.6317,26.981602 L70.02862,33.511562 L68.07712,27.929924 L69.6317,26.981602 L67.71959,21.474724 L68.07712,27.929924 L66.07896,22.721283 L67.71959,21.474724 L65.64589,17.747696 L66.07896,22.721283 L63.931293,19.473785 L65.64589,17.747696 L63.264595,18.799973 L63.931293,19.473785 L61.519516,21.196724 L63.264595,18.799973 L60.78575,23.86248 L61.519516,21.196724 L59.095463,26.296204 L60.78575,23.86248 L58.527187,28.885227 L59.095463,26.296204 L56.931976,30.413788 L58.527187,28.885227 L56.621433,29.893608 L56.931976,30.413788 L55.041008,31.493347 L56.621433,29.893608 L54.907875,27.812805 L55.041008,31.493347 L53.32672,29.041882 L54.907875,27.812805 L53.210648,27.083015 L53.32672,29.041882 L51.63187,28.258507 L53.210648,27.083015 L51.55828,28.379654 L51.63187,28.258507 L50.000004,29.834747 L51.55828,28.379654 L50.000004,29.861374 L50.000004,29.834747 L48.466377,31.190506 L50.000004,29.861374 L48.526375,30.56351 L48.466377,31.190506 L47.0075,31.660671 L48.526375,30.56351 L47.11286,30.485313 L47.0075,31.660671 L45.592255,31.085167 L47.11286,30.485313 L45.744446,29.937862 L45.592255,31.085167 L44.199425,29.68584 L45.744446,29.937862 L44.199425,29.68584 L45.744446,29.937862 L47.21471,29.621502 L45.744446,29.937862 L47.11286,30.485313 L48.576065,29.265297 L47.21471,29.621502 L47.11286,30.485313 L48.526375,30.56351 L50.000004,28.82251 L48.576065,29.265297 L48.526375,30.56351 L50.000004,29.861374 L51.49515,28.000584 L50.000004,28.82251 L50.000004,29.861374 L51.55828,28.379654 L53.075874,26.801926 L51.49515,28.000584 L51.55828,28.379654 L53.210648,27.083015 L54.74781,25.605667 L53.075874,26.801926 L53.210648,27.083015 L54.907875,27.812805 L56.483692,25.343307 L54.74781,25.605667 L54.907875,27.812805 L56.621433,29.893608 L58.23266,26.660393 L56.483692,25.343307 L56.621433,29.893608 L58.527187,28.885227 L60.050312,27.797478 L58.23266,26.660393 L58.527187,28.885227 L60.78575,23.86248 L62.218285,24.725945 L60.050312,27.797478 L60.78575,23.86248 L63.264595,18.799973 L64.71446,19.637253 L62.218285,24.725945 L63.264595,18.799973 L65.64589,17.747696 L67.14166,17.842445 L64.71446,19.637253 L65.64589,17.747696 L67.71959,21.474724 L69.251175,20.696068 L67.14166,17.842445 L67.71959,21.474724 L69.6317,26.981602 L71.1308,25.962326 L69.251175,20.696068 L69.6317,26.981602 L71.44591,33.1576 L73.102325,30.446075 L71.1308,25.962326 L71.44591,33.1576 L73.32265,38.621502 L75.502304,32.085453 L73.102325,30.446075 L73.32265,38.621502 L75.58941,41.467613 L78.23614,32.30487 L75.502304,32.085453 L75.58941,41.467613 L78.22392,42.59756 L80.83054,34.19602 L78.23614,32.30487 L78.22392,42.59756 L80.92343,44.126663 L83.28754,37.36905 L80.83054,34.19602 L80.92343,44.126663 L83.54033,46.712234 L85.63137,41.42418 L83.28754,37.36905 L83.54033,46.712234 L86.29367,49.183968 L88.00417,45.56637 L85.63137,41.42418 L86.29367,49.183968 L88.00417,45.56637 L89.58365,42.41508 L87.25899,38.222713 L88.00417,45.56637 L85.63137,41.42418 L87.25899,38.222713 L84.51117,36.311855 L85.63137,41.42418 L83.28754,37.36905 L84.51117,36.311855 L81.60945,35.86122 L83.28754,37.36905 L80.83054,34.19602 L81.60945,35.86122 L79.139114,33.780247 L80.83054,34.19602 L78.23614,32.30487 L79.139114,33.780247 L77.28082,28.307999 L78.23614,32.30487 L75.502304,32.085453 L77.28082,28.307999 L75.34034,23.311195 L75.502304,32.085453 L73.102325,30.446075 L75.34034,23.311195 L73.0545,21.072601 L73.102325,30.446075 L71.1308,25.962326 L73.0545,21.072601 L70.817764,19.03888 L71.1308,25.962326 L69.251175,20.696068 L70.817764,19.03888 L68.50455,18.5074 L69.251175,20.696068 L67.14166,17.842445 L68.50455,18.5074 L65.95112,21.933434 L67.14166,17.842445 L64.71446,19.637253 L65.95112,21.933434 L63.589554,25.28115 L64.71446,19.637253 L62.218285,24.725945 L63.589554,25.28115 L61.673164,24.365204 L62.218285,24.725945 L60.050312,27.797478 L61.673164,24.365204 L59.819775,23.59208 L60.050312,27.797478 L58.23266,26.660393 L59.819775,23.59208 L57.979576,24.087532 L58.23266,26.660393 L56.483692,25.343307 L57.979576,24.087532 L56.225967,24.638939 L56.483692,25.343307 L54.74781,25.605667 L56.225967,24.638939 L54.55619,25.192207 L54.74781,25.605667 L53.075874,26.801926 L54.55619,25.192207 L52.96409,25.806229 L53.075874,26.801926 L51.49515,28.000584 L52.96409,25.806229 L51.446606,26.451244 L51.49515,28.000584 L50.000004,28.82251 L51.446606,26.451244 L50.000004,27.179901 L50.000004,28.82251 L48.576065,29.265297 L50.000004,27.179901 L48.62338,28.162788 L48.576065,29.265297 L47.21471,29.621502 L48.62338,28.162788 L47.21471,29.621502 L48.62338,28.162788 L50.000004,25.240982 L48.62338,28.162788 L50.000004,27.179901 L51.407055,24.230713 L50.000004,25.240982 L50.000004,27.179901 L51.446606,26.451244 L52.878105,23.74202 L51.407055,24.230713 L51.446606,26.451244 L52.96409,25.806229 L54.41584,23.303955 L52.878105,23.74202 L52.96409,25.806229 L54.55619,25.192207 L56.0033,23.521347 L54.41584,23.303955 L54.55619,25.192207 L56.225967,24.638939 L57.634754,24.212914 L56.0033,23.521347 L56.225967,24.638939 L57.979576,24.087532 L59.33041,24.804749 L57.634754,24.212914 L57.979576,24.087532 L59.819775,23.59208 L61.128662,24.783829 L59.33041,24.804749 L59.819775,23.59208 L61.673164,24.365204 L63.09237,23.601318 L61.128662,24.783829 L61.673164,24.365204 L63.589554,25.28115 L65.05821,23.761566 L63.09237,23.601318 L63.589554,25.28115 L65.95112,21.933434 L67.07773,24.314789 L65.05821,23.761566 L65.95112,21.933434 L68.50455,18.5074 L69.50015,21.89238 L67.07773,24.314789 L68.50455,18.5074 L70.817764,19.03888 L71.93475,20.793915 L69.50015,21.89238 L70.817764,19.03888 L73.0545,21.072601 L73.969154,23.85611 L71.93475,20.793915 L73.0545,21.072601 L75.34034,23.311195 L75.47379,30.861237 L73.969154,23.85611 L75.34034,23.311195 L77.28082,28.307999 L77.17766,36.195377 L75.47379,30.861237 L77.28082,28.307999 L79.139114,33.780247 L79.9716,35.18712 L77.17766,36.195377 L79.139114,33.780247 L81.60945,35.86122 L83.37135,31.969688 L79.9716,35.18712 L81.60945,35.86122 L84.51117,36.311855 L86.63655,30.711143 L83.37135,31.969688 L84.51117,36.311855 L87.25899,38.222713 L89.43824,32.4961 L86.63655,30.711143 L87.25899,38.222713 L89.58365,42.41508 L91.65093,37.20073 L89.43824,32.4961 L89.58365,42.41508" fill="none" stroke="#000" stroke-width="0.35" style="mix-blend-mode: multiply;"/>
</g>
</svg>