<svg height="100mm" style="background:white" viewBox="0 0 100 100" width="100mm" xmlns="http://www.w3.org/2000/svg" xmlns:inkscape="http://www.inkscape.org/namespaces/inkscape">
<g inkscape:groupmode="layer" inkscape:label="#000">
<path d="M50.000008,94.496605 L53.70211,84.11775 L50.000008,80.47299 L50.000008,94.496605 L46.472725,89.877045 L50.000008,80.47299 L46.599586,76.8222 L46.472725,89.877045 L43.229538,85.97802 L46.599586,76.8222 L43.566746,75.65704 L43.229538,85.97802 L40.15677,81.358505 L43.566746,75.65704 L40.65611,71.899765 L40.15677,81.358505 L37.113247,75.45185 L40.65611,71.899765 L37.74254,66.299675 L37.113247,75.45185 L34.149918,69.51376 L37.74254,66.299675 L34.899395,60.66454 L34.149918,69.51376 L31.269522,63.682365 L34.899395,60.66454 L32.10472,54.9156 L31.269522,63.682365 L28.499697,58.1921 L32.10472,54.9156 L29.340189,49.01485 L28.499697,58.1921 L25.709015,52.187508 L29.340189,49.01485 L27.336922,48.143047 L25.709015,52.187508 L23.299805,48.201355 L27.336922,48.143047 L26.073936,51.130993 L23.299805,48.201355 L22.204079,51.114166 L26.073936,51.130993 L24.984533,53.936928 L22.204079,51.114166 L21.31388,54.081528 L24.984533,53.936928 L23.420507,52.99725 L21.31388,54.081528 L20.351946,55.81476 L23.420507,52.99725 L21.706886,50.732227 L20.351946,55.81476 L19.091799,55.45304 L21.706886,50.732227 L20.50313,50.831104 L19.091799,55.45304 L17.661865,53.88775 L20.50313,50.831104 L19.450312,51.245045 L17.661865,53.88775 L15.835159,50.23815 L19.450312,51.245045 L17.832298,48.479027 L15.835159,50.23815 L13.825798,45.656128 L17.832298,48.479027 L15.923889,44.16642 L13.825798,45.656128 L11.9089775,41.41414 L15.923889,44.16642 L14.253936,40.894123 L11.9089775,41.41414 L10.423436,38.92528 L14.253936,40.894123 L12.918925,39.02417 L10.423436,38.92528 L9.662209,39.296913 L12.918925,39.02417 L11.647668,37.27555 L9.662209,39.296913 L8.888907,39.38951 L11.647668,37.27555 L8.888907,39.38951 L11.647668,37.27555 L14.523193,36.262405 L11.647668,37.27555 L12.918925,39.02417 L16.090027,39.26916 L14.523193,36.262405 L12.918925,39.02417 L14.253936,40.894123 L17.65188,42.130184 L16.090027,39.26916 L14.253936,40.894123 L15.923889,44.16642 L19.419655,45.92342 L17.65188,42.130184 L15.923889,44.16642 L17.832298,48.479027 L21.123177,49.26963 L19.419655,45.92342 L17.832298,48.479027 L19.450312,51.245045 L22.165718,48.729977 L21.123177,49.26963 L19.450312,51.245045 L20.50313,50.831104 L22.855011,45.571327 L22.165718,48.729977 L20.50313,50.831104 L21.706886,50.732227 L24.016983,44.46091 L22.855011,45.571327 L21.706886,50.732227 L23.420507,52.99725 L25.92804,47.47498 L24.016983,44.46091 L23.420507,52.99725 L24.984533,53.936928 L28.037893,51.48205 L25.92804,47.47498 L24.984533,53.936928 L26.073936,51.130993 L29.6045,51.024246 L28.037893,51.48205 L26.073936,51.130993 L27.336922,48.143047 L31.075882,48.508522 L29.6045,51.024246 L27.336922,48.143047 L29.340189,49.01485 L32.982758,47.957855 L31.075882,48.508522 L29.340189,49.01485 L32.10472,54.9156 L35.442894,51.142464 L32.982758,47.957855 L32.10472,54.9156 L34.899395,60.66454 L38.16951,56.178757 L35.442894,51.142464 L34.899395,60.66454 L37.74254,66.299675 L40.98694,61.423603 L38.16951,56.178757 L37.74254,66.299675 L40.65611,71.899765 L43.851303,65.844246 L40.98694,61.423603 L40.65611,71.899765 L43.566746,75.65704 L46.76957,66.91086 L43.851303,65.844246 L43.566746,75.65704 L46.599586,76.8222 L50.000008,66.2705 L46.76957,66.91086 L46.599586,76.8222 L50.000008,80.47299 L53.591476,69.560135 L50.000008,66.2705 L50.000008,80.47299 L53.70211,84.11775 L57.63954,70.56178 L53.591476,69.560135 L53.70211,84.11775 L57.63954,70.56178 L61.544144,59.80713 L57.297935,58.12766 L57.63954,70.56178 L53.591476,69.560135 L57.297935,58.12766 L53.465916,56.76686 L53.591476,69.560135 L50.000008,66.2705 L53.465916,56.76686 L50.000008,58.29802 L50.000008,66.2705 L46.76957,66.91086 L50.000008,58.29802 L46.95405,59.420525 L46.76957,66.91086 L43.851303,65.844246 L46.95405,59.420525 L44.114754,56.938797 L43.851303,65.844246 L40.98694,61.423603 L44.114754,56.938797 L41.385155,53.2608 L40.98694,61.423603 L38.16951,56.178757 L41.385155,53.2608 L38.82496,50.32425 L38.16951,56.178757 L35.442894,51.142464 L38.82496,50.32425 L36.51741,48.91224 L35.442894,51.142464 L32.982758,47.957855 L36.51741,48.91224 L34.511566,49.079987 L32.982758,47.957855 L31.075882,48.508522 L34.511566,49.079987 L32.83652,50.74133 L31.075882,48.508522 L29.6045,51.024246 L32.83652,50.74133 L31.069935,50.172234 L29.6045,51.024246 L28.037893,51.48205 L31.069935,50.172234 L29.009474,46.500645 L28.037893,51.48205 L25.92804,47.47498 L29.009474,46.500645 L27.23852,44.57327 L25.92804,47.47498 L24.016983,44.46091 L27.23852,44.57327 L26.117214,46.5206 L24.016983,44.46091 L22.855011,45.571327 L26.117214,46.5206 L25.28572,49.505806 L22.855011,45.571327 L22.165718,48.729977 L25.28572,49.505806 L24.033222,49.16352 L22.165718,48.729977 L21.123177,49.26963 L24.033222,49.16352 L22.26077,45.405003 L21.123177,49.26963 L19.419655,45.92342 L22.26077,45.405003 L20.5127,41.684624 L19.419655,45.92342 L17.65188,42.130184 L20.5127,41.684624 L18.944256,38.84288 L17.65188,42.130184 L16.090027,39.26916 L18.944256,38.84288 L17.315924,35.55538 L16.090027,39.26916 L14.523193,36.262405 L17.315924,35.55538 L14.523193,36.262405 L17.315924,35.55538 L19.919449,34.56581 L17.315924,35.55538 L18.944256,38.84288 L21.286943,36.299454 L19.919449,34.56581 L18.944256,38.84288 L20.5127,41.684624 L22.580936,37.333298 L21.286943,36.299454 L20.5127,41.684624 L22.26077,45.405003 L24.180199,39.985466 L22.580936,37.333298 L22.26077,45.405003 L24.033222,49.16352 L26.070007,44.367603 L24.180199,39.985466 L24.033222,49.16352 L25.28572,49.505806 L27.9682,48.73564 L26.070007,44.367603 L25.28572,49.505806 L26.117214,46.5206 L29.597395,50.970257 L27.9682,48.73564 L26.117214,46.5206 L27.23852,44.57327 L30.949432,50.52082 L29.597395,50.970257 L27.23852,44.57327 L29.009474,46.500645 L32.46415,50.545406 L30.949432,50.52082 L29.009474,46.500645 L31.069935,50.172234 L34.17786,51.425278 L32.46415,50.545406 L31.069935,50.172234 L32.83652,50.74133 L35.878292,51.005062 L34.17786,51.425278 L32.83652,50.74133 L34.511566,49.079987 L37.673946,49.899654 L35.878292,51.005062 L34.511566,49.079987 L36.51741,48.91224 L39.734066,49.987503 L37.673946,49.899654 L36.51741,48.91224 L38.82496,50.32425 L42.020042,51.04151 L39.734066,49.987503 L38.82496,50.32425 L41.385155,53.2608 L44.492615,52.558 L42.020042,51.04151 L41.385155,53.2608 L44.114754,56.938797 L47.142212,53.99626 L44.492615,52.558 L44.114754,56.938797 L46.95405,59.420525 L50.000008,53.88643 L47.142212,53.99626 L46.95405,59.420525 L50.000008,58.29802 L53.21243,51.405697 L50.000008,53.88643 L50.000008,58.29802 L53.465916,56.76686 L56.887253,49.00023 L53.21243,51.405697 L53.465916,56.76686 L57.297935,58.12766 L60.940163,48.977562 L56.887253,49.00023 L57.297935,58.12766 L61.544144,59.80713 L65.25482,51.44808 L60.940163,48.977562 L61.544144,59.80713 L65.25482,51.44808 L68.617805,45.66715 L64.27033,43.346016 L65.25482,51.44808 L60.940163,48.977562 L64.27033,43.346016 L60.108116,43.84892 L60.940163,48.977562 L56.887253,49.00023 L60.108116,43.84892 L56.31286,46.10308 L56.887253,49.00023 L53.21243,51.405697 L56.31286,46.10308 L52.961456,48.48022 L53.21243,51.405697 L50.000008,53.88643 L52.961456,48.48022 L50.000004,49.787804 L50.000008,53.88643 L47.142212,53.99626 L50.000004,49.787804 L47.323395,50.072586 L47.142212,53.99626 L44.492615,52.558 L47.323395,50.072586 L44.87204,50.13969 L44.492615,52.558 L42.020042,51.04151 L44.87204,50.13969 L42.62256,50.283714 L42.020042,51.04151 L39.734066,49.987503 L42.62256,50.283714 L40.558,50.55155 L39.734066,49.987503 L37.673946,49.899654 L40.558,50.55155 L38.652206,50.792164 L37.673946,49.899654 L35.878292,51.005062 L38.652206,50.792164 L36.859596,50.68119 L35.878292,51.005062 L34.17786,51.425278 L36.859596,50.68119 L35.11505,49.808575 L34.17786,51.425278 L32.46415,50.545406 L35.11505,49.808575 L33.277874,47.168633 L32.46415,50.545406 L30.949432,50.52082 L33.277874,47.168633 L31.22694,42.214996 L30.949432,50.52082 L29.597395,50.970257 L31.22694,42.214996 L29.025509,35.992172 L29.597395,50.970257 L27.9682,48.73564 L29.025509,35.992172 L27.120848,32.142643 L27.9682,48.73564 L26.070007,44.367603 L27.120848,32.142643 L25.594307,30.845165 L26.070007,44.367603 L24.180199,39.985466 L25.594307,30.845165 L24.182476,29.934769 L24.180199,39.985466 L22.580936,37.333298 L24.182476,29.934769 L23.007479,30.186615 L22.580936,37.333298 L21.286943,36.299454 L23.007479,30.186615 L22.13404,31.892868 L21.286943,36.299454 L19.919449,34.56581 L22.13404,31.892868 L19.919449,34.56581 L22.13404,31.892868 L23.948872,26.890049 L22.13404,31.892868 L23.007479,30.186615 L25.06041,26.201534 L23.948872,26.890049 L23.007479,30.186615 L24.182476,29.934769 L26.901396,30.474274 L25.06041,26.201534 L24.182476,29.934769 L25.594307,30.845165 L28.660778,34.017735 L26.901396,30.474274 L25.594307,30.845165 L27.120848,32.142643 L30.0961,34.58601 L28.660778,34.017735 L27.120848,32.142643 L29.025509,35.992172 L31.268005,32.024696 L30.0961,34.58601 L29.025509,35.992172 L31.22694,42.214996 L32.563858,29.33704 L31.268005,32.024696 L31.22694,42.214996 L33.277874,47.168633 L34.608997,33.35213 L32.563858,29.33704 L33.277874,47.168633 L35.11505,49.808575 L36.97337,41.022945 L34.608997,33.35213 L35.11505,49.808575 L36.859596,50.68119 L39.13128,46.33083 L36.97337,41.022945 L36.859596,50.68119 L38.652206,50.792164 L41.167908,49.407104 L39.13128,46.33083 L38.652206,50.792164 L40.558,50.55155 L43.174713,50.413307 L41.167908,49.407104 L40.558,50.55155 L42.62256,50.283714 L45.241848,49.327625 L43.174713,50.413307 L42.62256,50.283714 L44.87204,50.13969 L47.491283,47.143078 L45.241848,49.327625 L44.87204,50.13969 L47.323395,50.072586 L50.000004,45.24364 L47.491283,47.143078 L47.323395,50.072586 L50.000004,49.787804 L52.77992,44.051777 L50.000004,45.24364 L50.000004,49.787804 L52.961456,48.48022 L55.855785,42.846542 L52.77992,44.051777 L52.961456,48.48022 L56.31286,46.10308 L59.268333,41.66893 L55.855785,42.846542 L56.31286,46.10308 L60.108116,43.84892 L63.020096,41.10591 L59.268333,41.66893 L60.108116,43.84892 L64.27033,43.346016 L67.0735,41.666355 L63.020096,41.10591 L64.27033,43.346016 L68.617805,45.66715 L71.27679,44.32453 L67.0735,41.666355 L68.617805,45.66715 L71.27679,44.32453 L72.89028,48.631516 L69.35474,42.587593 L71.27679,44.32453 L67.0735,41.666355 L69.35474,42.587593 L65.66153,39.387913 L67.0735,41.666355 L63.020096,41.10591 L65.66153,39.387913 L62.043877,38.214855 L63.020096,41.10591 L59.268333,41.66893 L62.043877,38.214855 L58.509064,40.76219 L59.268333,41.66893 L55.855785,42.846542 L58.509064,40.76219 L55.3547,43.245018 L55.855785,42.846542 L52.77992,44.051777 L55.3547,43.245018 L52.56289,43.711983 L52.77992,44.051777 L50.000004,45.24364 L52.56289,43.711983 L50.000004,44.334343 L50.000004,45.24364 L47.491283,47.143078 L50.000004,44.334343 L47.674133,46.93907 L47.491283,47.143078 L45.241848,49.327625 L47.674133,46.93907 L45.57326,49.02756 L45.241848,49.327625 L43.174713,50.413307 L45.57326,49.02756 L43.48584,46.504017 L43.174713,50.413307 L41.167908,49.407104 L43.48584,46.504017 L41.228756,39.372757 L41.167908,49.407104 L39.13128,46.33083 L41.228756,39.372757 L38.82989,30.578499 L39.13128,46.33083 L36.97337,41.022945 L38.82989,30.578499 L36.829056,28.06881 L36.97337,41.022945 L34.608997,33.35213 L36.829056,28.06881 L35.58689,33.890984 L34.608997,33.35213 L32.563858,29.33704 L35.58689,33.890984 L34.360275,37.638165 L32.563858,29.33704 L31.268005,32.024696 L34.360275,37.638165 L33.063606,39.171505 L31.268005,32.024696 L30.0961,34.58601 L33.063606,39.171505 L31.53784,37.65102 L30.0961,34.58601 L28.660778,34.017735 L31.53784,37.65102 L29.732868,33.32402 L28.660778,34.017735 L26.901396,30.474274 L29.732868,33.32402 L27.739159,27.441307 L26.901396,30.474274 L25.06041,26.201534 L27.739159,27.441307 L26.063225,24.102219 L25.06041,26.201534 L23.948872,26.890049 L26.063225,24.102219 L23.948872,26.890049 L26.063225,24.102219 L28.40202,23.63858 L26.063225,24.102219 L27.739159,27.441307 L30.194866,28.136856 L28.40202,23.63858 L27.739159,27.441307 L29.732868,33.32402 L32.184586,34.521873 L30.194866,28.136856 L29.732868,33.32402 L31.53784,37.65102 L34.039932,39.805412 L32.184586,34.521873 L31.53784,37.65102 L33.063606,39.171505 L35.58381,41.682587 L34.039932,39.805412 L33.063606,39.171505 L34.360275,37.638165 L36.95172,40.748665 L35.58381,41.682587 L34.360275,37.638165 L35.58689,33.890984 L38.138275,35.743603 L36.95172,40.748665 L35.58689,33.890984 L36.829056,28.06881 L39.446632,29.571018 L38.138275,35.743603 L36.829056,28.06881 L38.82989,30.578499 L41.12881,26.232914 L39.446632,29.571018 L38.82989,30.578499 L41.228756,39.372757 L43.43985,34.29453 L41.12881,26.232914 L41.228756,39.372757 L43.48584,46.504017 L45.729973,43.766457 L43.43985,34.29453 L43.48584,46.504017 L45.57326,49.02756 L47.82985,46.59429 L45.729973,43.766457 L45.57326,49.02756 L47.674133,46.93907 L50.000004,44.11538 L47.82985,46.59429 L47.674133,46.93907 L50.000004,44.334343 L52.36202,44.4664 L50.000004,44.11538 L50.000004,44.334343 L52.56289,43.711983 L54.823875,47.162865 L52.36202,44.4664 L52.56289,43.711983 L55.3547,43.245018 L57.475697,48.20917 L54.823875,47.162865 L55.3547,43.245018 L58.509064,40.76219 L60.60437,44.84185 L57.475697,48.20917 L58.509064,40.76219 L62.043877,38.214855 L64.46173,37.498672 L60.60437,44.84185 L62.043877,38.214855 L65.66153,39.387913 L68.17759,37.176277 L64.46173,37.498672 L65.66153,39.387913 L69.35474,42.587593 L71.50026,42.625626 L68.17759,37.176277 L69.35474,42.587593 L72.89028,48.631516 L74.32666,51.961647 L71.50026,42.625626 L72.89028,48.631516 L74.32666,51.961647 L76.37597,50.118603 L73.769684,40.431385 L74.32666,51.961647 L71.50026,42.625626 L73.769684,40.431385 L70.51217,35.28591 L71.50026,42.625626 L68.17759,37.176277 L70.51217,35.28591 L66.17749,42.09546 L68.17759,37.176277 L64.46173,37.498672 L66.17749,42.09546 L62.25216,50.836075 L64.46173,37.498672 L60.60437,44.84185 L62.25216,50.836075 L59.39109,51.390385 L60.60437,44.84185 L57.475697,48.20917 L59.39109,51.390385 L56.847633,49.903866 L57.475697,48.20917 L54.823875,47.162865 L56.847633,49.903866 L54.47718,47.238384 L54.823875,47.162865 L52.36202,44.4664 L54.47718,47.238384 L52.21608,43.21997 L52.36202,44.4664 L50.000004,44.11538 L52.21608,43.21997 L50.000004,43.662407 L50.000004,44.11538 L47.82985,46.59429 L50.000004,43.662407 L47.91699,42.441067 L47.82985,46.59429 L45.729973,43.766457 L47.91699,42.441067 L45.74011,33.356743 L45.729973,43.766457 L43.43985,34.29453 L45.74011,33.356743 L43.477776,24.268906 L43.43985,34.29453 L41.12881,26.232914 L43.477776,24.268906 L41.7216,27.761173 L41.12881,26.232914 L39.446632,29.571018 L41.7216,27.761173 L40.3188,34.344955 L39.446632,29.571018 L38.138275,35.743603 L40.3188,34.344955 L39.072346,39.926254 L38.138275,35.743603 L36.95172,40.748665 L39.072346,39.926254 L37.652626,40.68959 L36.95172,40.748665 L35.58381,41.682587 L37.652626,40.68959 L36.084156,38.57219 L35.58381,41.682587 L34.039932,39.805412 L36.084156,38.57219 L34.21328,32.721233 L34.039932,39.805412 L32.184586,34.521873 L34.21328,32.721233 L32.290955,26.570797 L32.184586,34.521873 L30.194866,28.136856 L32.290955,26.570797 L30.67233,23.521461 L30.194866,28.136856 L28.40202,23.63858 L30.67233,23.521461 L28.40202,23.63858 L30.67233,23.521461 L33.040855,25.576874 L30.67233,23.521461 L32.290955,26.570797 L34.213886,23.83815 L33.040855,25.576874 L32.290955,26.570797 L34.21328,32.721233 L35.98231,28.465633 L34.213886,23.83815 L34.21328,32.721233 L36.084156,38.57219 L37.785065,33.61952 L35.98231,28.465633 L36.084156,38.57219 L37.652626,40.68959 L39.41589,36.20928 L37.785065,33.61952 L37.652626,40.68959 L39.072346,39.926254 L40.86489,34.77209 L39.41589,36.20928 L39.072346,39.926254 L40.3188,34.344955 L42.26922,29.761612 L40.86489,34.77209 L40.3188,34.344955 L41.7216,27.761173 L43.823593,23.474274 L42.26922,29.761612 L41.7216,27.761173 L43.477776,24.268906 L45.80237,25.24392 L43.823593,23.474274 L43.477776,24.268906 L45.74011,33.356743 L47.96512,35.90869 L45.80237,25.24392 L45.74011,33.356743 L47.91699,42.441067 L50.000004,41.09488 L47.96512,35.90869 L47.91699,42.441067 L50.000004,43.662407 L52.091557,41.770817 L50.000004,41.09488 L50.000004,43.662407 L52.21608,43.21997 L54.250282,44.517574 L52.091557,41.770817 L52.21608,43.21997 L54.47718,47.238384 L56.47337,47.503456 L54.250282,44.517574 L54.47718,47.238384 L56.847633,49.903866 L58.956245,47.2049 L56.47337,47.503456 L56.847633,49.903866 L59.39109,51.390385 L61.512447,48.53914 L58.956245,47.2049 L59.39109,51.390385 L62.25216,50.836075 L64.05603,51.726425 L61.512447,48.53914 L62.25216,50.836075 L66.17749,42.09546 L67.31713,49.350792 L64.05603,51.726425 L66.17749,42.09546 L70.51217,35.28591 L72.0149,38.713104 L67.31713,49.350792 L70.51217,35.28591 L73.769684,40.431385 L75.813416,38.908417 L72.0149,38.713104 L73.769684,40.431385 L76.37597,50.118603 L78.74374,45.830116 L75.813416,38.908417 L76.37597,50.118603 L78.74374,45.830116 L80.23806,45.858475 L77.03264,41.668808 L78.74374,45.830116 L75.813416,38.908417 L77.03264,41.668808 L72.614586,46.889206 L75.813416,38.908417 L72.0149,38.713104 L72.614586,46.889206 L68.74123,51.727634 L72.0149,38.713104 L67.31713,49.350792 L68.74123,51.727634 L66.09894,48.719826 L67.31713,49.350792 L64.05603,51.726425 L66.09894,48.719826 L63.657806,44.56255 L64.05603,51.726425 L61.512447,48.53914 L63.657806,44.56255 L61.101448,42.91042 L61.512447,48.53914 L58.956245,47.2049 L61.101448,42.91042 L58.539223,43.782715 L58.956245,47.2049 L56.47337,47.503456 L58.539223,43.782715 L56.20874,43.496994 L56.47337,47.503456 L54.250282,44.517574 L56.20874,43.496994 L54.066715,41.189842 L54.250282,44.517574 L52.091557,41.770817 L54.066715,41.189842 L51.9862,39.980934 L52.091557,41.770817 L50.000004,41.09488 L51.9862,39.980934 L50.000004,37.553925 L50.000004,41.09488 L47.96512,35.90869 L50.000004,37.553925 L48.027252,31.106339 L47.96512,35.90869 L45.80237,25.24392 L48.027252,31.106339 L45.973423,22.408974 L45.80237,25.24392 L43.823593,23.474274 L45.973423,22.408974 L44.199184,24.778564 L43.823593,23.474274 L42.26922,29.761612 L44.199184,24.778564 L42.640594,28.906754 L42.26922,29.761612 L40.86489,34.77209 L42.640594,28.906754 L41.090294,29.967682 L40.86489,34.77209 L39.41589,36.20928 L41.090294,29.967682 L39.4681,28.150902 L39.41589,36.20928 L37.785065,33.61952 L39.4681,28.150902 L37.77945,24.692162 L37.785065,33.61952 L35.98231,28.465633 L37.77945,24.692162 L36.336464,24.296677 L35.98231,28.465633 L34.213886,23.83815 L36.336464,24.296677 L35.437607,29.76455 L34.213886,23.83815 L33.040855,25.576874 L35.437607,29.76455 L33.040855,25.576874 L35.437607,29.76455 L37.438885,31.005554 L35.437607,29.76455 L36.336464,24.296677 L38.61638,28.872368 L37.438885,31.005554 L36.336464,24.296677 L37.77945,24.692162 L39.75716,24.382072 L38.61638,28.872368 L37.77945,24.692162 L39.4681,28.150902 L41.274715,24.768593 L39.75716,24.382072 L39.4681,28.150902 L41.090294,29.967682 L42.887222,25.831795 L41.274715,24.768593 L41.090294,29.967682 L42.640594,28.906754 L44.49531,24.733994 L42.887222,25.831795 L42.640594,28.906754 L44.199184,24.778564 L46.20811,23.505028 L44.49531,24.733994 L44.199184,24.778564 L45.973423,22.408974 L48.113205,29.16689 L46.20811,23.505028 L45.973423,22.408974 L48.027252,31.106339 L50.000004,34.77409 L48.113205,29.16689 L48.027252,31.106339 L50.000004,37.553925 L51.902084,37.37492 L50.000004,34.77409 L50.000004,37.553925 L51.9862,39.980934 L53.90305,37.935028 L51.902084,37.37492 L51.9862,39.980934 L54.066715,41.189842 L56.033394,37.895645 L53.90305,37.935028 L54.066715,41.189842 L56.20874,43.496994 L58.219254,39.449825 L56.033394,37.895645 L56.20874,43.496994 L58.539223,43.782715 L60.594795,39.61773 L58.219254,39.449825 L58.539223,43.782715 L61.101448,42.91042 L63.07904,40.35904 L60.594795,39.61773 L61.101448,42.91042 L63.657806,44.56255 L65.512405,43.221317 L63.07904,40.35904 L63.657806,44.56255 L66.09894,48.719826 L67.921394,47.12594 L65.512405,43.221317 L66.09894,48.719826 L68.74123,51.727634 L70.47133,50.447945 L67.921394,47.12594 L68.74123,51.727634 L72.614586,46.889206 L73.48931,51.31397 L70.47133,50.447945 L72.614586,46.889206 L77.03264,41.668808 L77.33379,48.65303 L73.48931,51.31397 L77.03264,41.668808 L80.23806,45.858475 L80.923676,49.349674 L77.33379,48.65303 L80.23806,45.858475 L80.923676,49.349674 L81.21037,53.980515 L78.025246,52.203068 L80.923676,49.349674 L77.33379,48.65303 L78.025246,52.203068 L74.85706,51.464565 L77.33379,48.65303 L73.48931,51.31397 L74.85706,51.464565 L71.84604,51.068924 L73.48931,51.31397 L70.47133,50.447945 L71.84604,51.068924 L69.29813,48.49948 L70.47133,50.447945 L67.921394,47.12594 L69.29813,48.49948 L66.97198,44.794422 L67.921394,47.12594 L65.512405,43.221317 L66.97198,44.794422 L64.68861,41.234985 L65.512405,43.221317 L63.07904,40.35904 L64.68861,41.234985 L62.457317,37.713833 L63.07904,40.35904 L60.594795,39.61773 L62.457317,37.713833 L60.198097,35.51319 L60.594795,39.61773 L58.219254,39.449825 L60.198097,35.51319 L58.031982,33.069313 L58.219254,39.449825 L56.033394,37.895645 L58.031982,33.069313 L55.89264,31.8642 L56.033394,37.895645 L53.90305,37.935028 L55.89264,31.8642 L53.778763,33.713337 L53.90305,37.935028 L51.902084,37.37492 L53.778763,33.713337 L51.833187,34.194824 L51.902084,37.37492 L50.000004,34.77409 L51.833187,34.194824 L50.000004,32.98922 L50.000004,34.77409 L48.113205,29.16689 L50.000004,32.98922 L48.221558,30.313217 L48.113205,29.16689 L46.20811,23.505028 L48.221558,30.313217 L46.451183,26.215431 L46.20811,23.505028 L44.49531,24.733994 L46.451183,26.215431 L44.769817,24.941322 L44.49531,24.733994 L42.887222,25.831795 L44.769817,24.941322 L43.21525,25.547638 L42.887222,25.831795 L41.274715,24.768593 L43.21525,25.547638 L41.858444,28.64566 L41.274715,24.768593 L39.75716,24.382072 L41.858444,28.64566 L40.614582,31.663803 L39.75716,24.382072 L38.61638,28.872368 L40.614582,31.663803 L39.20789,30.266346 L38.61638,28.872368 L37.438885,31.005554 L39.20789,30.266346 L37.438885,31.005554 L39.20789,30.266346 L40.914314,29.559181 L39.20789,30.266346 L40.614582,31.663803 L42.359802,31.827465 L40.914314,29.559181 L40.614582,31.663803 L41.858444,28.64566 L43.75129,31.89323 L42.359802,31.827465 L41.858444,28.64566 L43.21525,25.547638 L45.157417,30.18383 L43.75129,31.89323 L43.21525,25.547638 L44.769817,24.941322 L46.692604,30.069725 L45.157417,30.18383 L44.769817,24.941322 L46.451183,26.215431 L48.323963,31.93903 L46.692604,30.069725 L46.451183,26.215431 L48.221558,30.313217 L50.000004,31.744343 L48.323963,31.93903 L48.221558,30.313217 L50.000004,32.98922 L51.76985,31.163067 L50.000004,31.744343 L50.000004,32.98922 L51.833187,34.194824 L53.646255,30.517685 L51.76985,31.163067 L51.833187,34.194824 L53.778763,33.713337 L55.72934,27.012817 L53.646255,30.517685 L53.778763,33.713337 L55.89264,31.8642 L57.87205,26.53991 L55.72934,27.012817 L55.89264,31.8642 L58.031982,33.069313 L59.975914,29.117207 L57.87205,26.53991 L58.031982,33.069313 L60.198097,35.51319 L62.060196,32.89382 L59.975914,29.117207 L60.198097,35.51319 L62.457317,37.713833 L64.12345,37.351578 L62.060196,32.89382 L62.457317,37.713833 L64.68861,41.234985 L66.2328,41.53479 L64.12345,37.351578 L64.68861,41.234985 L66.97198,44.794422 L68.44657,45.064934 L66.2328,41.53479 L66.97198,44.794422 L69.29813,48.49948 L70.67932,48.866646 L68.44657,45.064934 L69.29813,48.49948 L71.84604,51.068924 L73.01575,52.313248 L70.67932,48.866646 L71.84604,51.068924 L74.85706,51.464565 L76.02725,52.18054 L73.01575,52.313248 L74.85706,51.464565 L78.025246,52.203068 L79.31917,51.766434 L76.02725,52.18054 L78.025246,52.203068 L81.21037,53.980515 L82.46565,53.287674 L79.31917,51.766434 L81.21037,53.980515 L82.46565,53.287674 L84.09774,50.544304 L80.64597,50.75714 L82.46565,53.287674 L79.31917,51.766434 L80.64597,50.75714 L77.2729,51.90354 L79.31917,51.766434 L76.02725,52.18054 L77.2729,51.90354 L74.399635,51.499287 L76.02725,52.18054 L73.01575,52.313248 L74.399635,51.499287 L72.18246,47.65982 L73.01575,52.313248 L70.67932,48.866646 L72.18246,47.65982 L69.991875,43.96051 L70.67932,48.866646 L68.44657,45.064934 L69.991875,43.96051 L67.82338,40.467484 L68.44657,45.064934 L66.2328,41.53479 L67.82338,40.467484 L65.765686,36.281666 L66.2328,41.53479 L64.12345,37.351578 L65.765686,36.281666 L63.821404,30.952843 L64.12345,37.351578 L62.060196,32.89382 L63.821404,30.952843 L61.84285,26.011047 L62.060196,32.89382 L59.975914,29.117207 L61.84285,26.011047 L59.808296,22.14833 L59.975914,29.117207 L57.87205,26.53991 L59.808296,22.14833 L57.649117,21.932411 L57.87205,26.53991 L55.72934,27.012817 L57.649117,21.932411 L55.4741,25.741959 L55.72934,27.012817 L53.646255,30.517685 L55.4741,25.741959 L53.492096,29.090698 L53.646255,30.517685 L51.76985,31.163067 L53.492096,29.090698 L51.708977,28.517944 L51.76985,31.163067 L50.000004,31.744343 L51.708977,28.517944 L50.000004,30.317154 L50.000004,31.744343 L48.323963,31.93903 L50.000004,30.317154 L48.39852,31.569069 L48.323963,31.93903 L46.692604,30.069725 L48.39852,31.569069 L46.872456,31.715412 L46.692604,30.069725 L45.157417,30.18383 L46.872456,31.715412 L45.41688,31.865517 L45.157417,30.18383 L43.75129,31.89323 L45.41688,31.865517 L43.99147,30.975288 L43.75129,31.89323 L42.359802,31.827465 L43.99147,30.975288 L42.572254,29.143837 L42.359802,31.827465 L40.914314,29.559181 L42.572254,29.143837 L40.914314,29.559181 L42.572254,29.143837 L44.182465,29.17004 L42.572254,29.143837 L43.99147,30.975288 L45.55891,29.761421 L44.182465,29.17004 L43.99147,30.975288 L45.41688,31.865517 L46.976303,29.842552 L45.55891,29.761421 L45.41688,31.865517 L46.872456,31.715412 L48.450165,29.34164 L46.976303,29.842552 L46.872456,31.715412 L48.39852,31.569069 L50.000004,28.14465 L48.450165,29.34164 L48.39852,31.569069 L50.000004,30.317154 L51.649208,26.369282 L50.000004,28.14465 L50.000004,30.317154 L51.708977,28.517944 L53.373283,26.564007 L51.649208,26.369282 L51.708977,28.517944 L53.492096,29.090698 L55.165756,27.172909 L53.373283,26.564007 L53.492096,29.090698 L55.4741,25.741959 L57.2394,22.623299 L55.165756,27.172909 L55.4741,25.741959 L57.649117,21.932411 L59.474083,18.81234 L57.2394,22.623299 L57.649117,21.932411 L59.808296,22.14833 L61.63291,19.376816 L59.474083,18.81234 L59.808296,22.14833 L61.84285,26.011047 L63.600487,23.904762 L61.63291,19.376816 L61.84285,26.011047 L63.821404,30.952843 L65.53375,28.938568 L63.600487,23.904762 L63.821404,30.952843 L65.765686,36.281666 L67.44191,34.189857 L65.53375,28.938568 L65.765686,36.281666 L67.82338,40.467484 L69.47049,38.320423 L67.44191,34.189857 L67.82338,40.467484 L69.991875,43.96051 L71.613846,41.762054 L69.47049,38.320423 L69.991875,43.96051 L72.18246,47.65982 L73.66784,46.139217 L71.613846,41.762054 L72.18246,47.65982 L74.399635,51.499287 L75.95068,49.26084 L73.66784,46.139217 L74.399635,51.499287 L77.2729,51.90354 L78.89039,49.196014 L75.95068,49.26084 L77.2729,51.90354 L80.64597,50.75714 L82.16655,48.48472 L78.89039,49.196014 L80.64597,50.75714 L84.09774,50.544304 L85.72521,47.647324 L82.16655,48.48472 L84.09774,50.544304 L85.72521,47.647324 L87.29729,44.845425 L83.82402,45.364265 L85.72521,47.647324 L82.16655,48.48472 L83.82402,45.364265 L80.81528,44.6931 L82.16655,48.48472 L78.89039,49.196014 L80.81528,44.6931 L77.91501,44.386883 L78.89039,49.196014 L75.95068,49.26084 L77.91501,44.386883 L75.178635,44.11 L75.95068,49.26084 L73.66784,46.139217 L75.178635,44.11 L72.920265,41.510616 L73.66784,46.139217 L71.613846,41.762054 L72.920265,41.510616 L70.96036,37.072605 L71.613846,41.762054 L69.47049,38.320423 L70.96036,37.072605 L69.04568,32.327835 L69.47049,38.320423 L67.44191,34.189857 L69.04568,32.327835 L67.12781,27.640003 L67.44191,34.189857 L65.53375,28.938568 L67.12781,27.640003 L65.23166,22.733765 L65.53375,28.938568 L63.600487,23.904762 L65.23166,22.733765 L63.27809,18.609337 L63.600487,23.904762 L61.63291,19.376816 L63.27809,18.609337 L61.114162,18.314209 L61.63291,19.376816 L59.474083,18.81234 L61.114162,18.314209 L58.84081,22.368294 L59.474083,18.81234 L57.2394,22.623299 L58.84081,22.368294 L56.777554,25.739586 L57.2394,22.623299 L55.165756,27.172909 L56.777554,25.739586 L55.000168,24.460464 L55.165756,27.172909 L53.373283,26.564007 L55.000168,24.460464 L53.27484,23.504211 L53.373283,26.564007 L51.649208,26.369282 L53.27484,23.504211 L51.593033,24.416824 L51.649208,26.369282 L50.000004,28.14465 L51.593033,24.416824 L50.000004,25.824066 L50.000004,28.14465 L48.450165,29.34164 L50.000004,25.824066 L48.49732,27.102753 L48.450165,29.34164 L46.976303,29.842552 L48.49732,27.102753 L47.075237,28.197018 L46.976303,29.842552 L45.55891,29.761421 L47.075237,28.197018 L45.723866,29.086044 L45.55891,29.761421 L44.182465,29.17004 L45.723866,29.086044 L44.182465,29.17004 L45.723866,29.086044 L47.19198,28.181301 L45.723866,29.086044 L47.075237,28.197018 L48.550766,26.123917 L47.19198,28.181301 L47.075237,28.197018 L48.49732,27.102753 L50.000004,24.199898 L48.550766,26.123917 L48.49732,27.102753 L50.000004,25.824066 L51.539886,22.672493 L50.000004,24.199898 L50.000004,25.824066 L51.593033,24.416824 L53.163544,21.692276 L51.539886,22.672493 L51.593033,24.416824 L53.27484,23.504211 L54.86334,21.214302 L53.163544,21.692276 L53.27484,23.504211 L55.000168,24.460464 L56.618454,21.586884 L54.86334,21.214302 L55.000168,24.460464 L56.777554,25.739586 L58.38105,23.426498 L56.618454,21.586884 L56.777554,25.739586 L58.84081,22.368294 L60.304314,23.291748 L58.38105,23.426498 L58.84081,22.368294 L61.114162,18.314209 L62.58688,19.25505 L60.304314,23.291748 L61.114162,18.314209 L63.27809,18.609337 L64.82068,18.29139 L62.58688,19.25505 L63.27809,18.609337 L65.23166,22.733765 L66.76181,22.013786 L64.82068,18.29139 L65.23166,22.733765 L67.12781,27.640003 L68.55463,27.403587 L66.76181,22.013786 L67.12781,27.640003 L69.04568,32.327835 L70.38079,32.355278 L68.55463,27.403587 L69.04568,32.327835 L70.96036,37.072605 L72.46135,35.319004 L70.38079,32.355278 L70.96036,37.072605 L72.920265,41.510616 L74.953545,35.82943 L72.46135,35.319004 L72.920265,41.510616 L75.178635,44.11 L77.67786,35.740665 L74.953545,35.82943 L75.178635,44.11 L77.91501,44.386883 L80.25548,37.40206 L77.67786,35.740665 L77.91501,44.386883 L80.81528,44.6931 L82.736626,40.161205 L80.25548,37.40206 L80.81528,44.6931 L83.82402,45.364265 L85.3501,42.72398 L82.736626,40.161205 L83.82402,45.364265 L87.29729,44.845425 L88.57261,43.165592 L85.3501,42.72398 L87.29729,44.845425 L88.57261,43.165592 L89.66394,42.083073 L87.1107,38.890755 L88.57261,43.165592 L85.3501,42.72398 L87.1107,38.890755 L84.56905,36.027077 L85.3501,42.72398 L82.736626,40.161205 L84.56905,36.027077 L81.70616,35.340427 L82.736626,40.161205 L80.25548,37.40206 L81.70616,35.340427 L79.078285,34.13997 L80.25548,37.40206 L77.67786,35.740665 L79.078285,34.13997 L76.96396,30.372791 L77.67786,35.740665 L74.953545,35.82943 L76.96396,30.372791 L74.85725,26.795525 L74.953545,35.82943 L72.46135,35.319004 L74.85725,26.795525 L72.56395,25.009048 L72.46135,35.319004 L70.38079,32.355278 L72.56395,25.009048 L70.46495,22.208755 L70.38079,32.355278 L68.55463,27.403587 L70.46495,22.208755 L68.496735,18.586548 L68.55463,27.403587 L66.76181,22.013786 L68.496735,18.586548 L66.249725,18.486252 L66.76181,22.013786 L64.82068,18.29139 L66.249725,18.486252 L63.786438,22.661758 L64.82068,18.29139 L62.58688,19.25505 L63.786438,22.661758 L61.738907,23.341888 L62.58688,19.25505 L60.304314,23.291748 L61.738907,23.341888 L59.936428,21.424316 L60.304314,23.291748 L58.38105,23.426498 L59.936428,21.424316 L58.13686,20.500374 L58.38105,23.426498 L56.618454,21.586884 L58.13686,20.500374 L56.377354,20.227142 L56.618454,21.586884 L54.86334,21.214302 L56.377354,20.227142 L54.69332,19.747833 L54.86334,21.214302 L53.163544,21.692276 L54.69332,19.747833 L53.063583,19.7547 L53.163544,21.692276 L51.539886,22.672493 L53.063583,19.7547 L51.492416,20.762924 L51.539886,22.672493 L50.000004,24.199898 L51.492416,20.762924 L50.000004,22.770927 L50.000004,24.199898 L48.550766,26.123917 L50.000004,22.770927 L48.6024,25.451614 L48.550766,26.123917 L47.19198,28.181301 L48.6024,25.451614 L47.19198,28.181301 L48.6024,25.451614 L50.000004,20.508812 L48.6024,25.451614 L50.000004,22.770927 L51.454067,18.155014 L50.000004,20.508812 L50.000004,22.770927 L51.492416,20.762924 L52.98503,16.967987 L51.454067,18.155014 L51.492416,20.762924 L53.063583,19.7547 L54.570904,16.885834 L52.98503,16.967987 L53.063583,19.7547 L54.69332,19.747833 L56.171513,18.406067 L54.570904,16.885834 L54.69332,19.747833 L56.377354,20.227142 L57.786674,20.594185 L56.171513,18.406067 L56.377354,20.227142 L58.13686,20.500374 L59.461334,22.261124 L57.786674,20.594185 L58.13686,20.500374 L59.936428,21.424316 L61.20554,23.531403 L59.461334,22.261124 L59.936428,21.424316 L61.738907,23.341888 L63.0123,24.717316 L61.20554,23.531403 L61.738907,23.341888 L63.786438,22.661758 L64.83276,26.491222 L63.0123,24.717316 L63.786438,22.661758 L66.249725,18.486252 L67.00318,25.108276 L64.83276,26.491222 L66.249725,18.486252 L68.496735,18.586548 L69.52475,21.660095 L67.00318,25.108276 L68.496735,18.586548 L70.46495,22.208755 L71.815994,21.797165 L69.52475,21.660095 L70.46495,22.208755 L72.56395,25.009048 L73.70413,25.870972 L71.815994,21.797165 L72.56395,25.009048 L74.85725,26.795525 L75.28015,32.193115 L73.70413,25.870972 L74.85725,26.795525 L76.96396,30.372791 L77.22484,35.90044 L75.28015,32.193115 L76.96396,30.372791 L79.078285,34.13997 L80.15378,34.148376 L77.22484,35.90044 L79.078285,34.13997 L81.70616,35.340427 L83.613846,30.704521 L80.15378,34.148376 L81.70616,35.340427 L84.56905,36.027077 L86.93388,29.287933 L83.613846,30.704521 L84.56905,36.027077 L87.1107,38.890755 L89.82948,30.774109 L86.93388,29.287933 L87.1107,38.890755 L89.66394,42.083073 L92.12159,35.2924 L89.82948,30.774109 L89.66394,42.083073" fill="none" stroke="#000" stroke-width="0.35" style="mix-blend-mode: multiply;"/>
</g>
</svg>