<svg height="100mm" style="background:white" viewBox="0 0 100 100" width="100mm" xmlns="http://www.w3.org/2000/svg" xmlns:inkscape="http://www.inkscape.org/namespaces/inkscape">
<g inkscape:groupmode="layer" inkscape:label="#000">
<path d="M50.000008,85.75222 L53.872787,78.495155 L50.000008,76.96247 L50.000008,85.75222 L46.332478,85.25673 L50.000008,76.96247 L46.599472,76.817764 L46.332478,85.25673 L43.26567,86.61898 L46.599472,76.817764 L43.697742,78.312675 L43.26567,86.61898 L40.246346,82.4935 L43.697742,78.312675 L40.94864,76.100464 L40.246346,82.4935 L37.28286,77.17111 L40.94864,76.100464 L38.329834,72.99693 L37.28286,77.17111 L34.69288,74.19193 L38.329834,72.99693 L35.86316,69.945274 L34.69288,74.19193 L32.38655,72.174446 L35.86316,69.945274 L33.340282,65.35245 L32.38655,72.174446 L30.096342,69.174355 L33.340282,65.35245 L30.373577,56.87107 L30.096342,69.174355 L27.47175,63.35498 L30.373577,56.87107 L27.16753,46.96258 L27.47175,63.35498 L24.133026,53.128166 L27.16753,46.96258 L24.479076,40.80254 L24.133026,53.128166 L21.001204,44.40804 L24.479076,40.80254 L22.355381,37.946716 L21.001204,44.40804 L18.685205,40.153168 L22.355381,37.946716 L20.963535,38.846626 L18.685205,40.153168 L17.228088,39.982296 L20.963535,38.846626 L19.75583,40.019764 L17.228088,39.982296 L16.398956,42.329983 L19.75583,40.019764 L18.816166,41.95232 L16.398956,42.329983 L15.816429,45.202717 L18.816166,41.95232 L18.507435,46.46633 L15.816429,45.202717 L15.456643,48.511597 L18.507435,46.46633 L18.303436,50.78729 L15.456643,48.511597 L14.902908,50.43279 L18.303436,50.78729 L17.36553,51.016346 L14.902908,50.43279 L13.741753,49.337063 L17.36553,51.016346 L15.933474,48.65534 L13.741753,49.337063 L11.937804,45.321266 L15.933474,48.65534 L14.41766,45.776134 L11.937804,45.321266 L10.333228,42.071312 L14.41766,45.776134 L13.162003,43.94069 L10.333228,42.071312 L9.210916,40.695114 L13.162003,43.94069 L9.210916,40.695114 L13.162003,43.94069 L16.297283,44.754406 L13.162003,43.94069 L14.41766,45.776134 L17.48538,46.13314 L16.297283,44.754406 L14.41766,45.776134 L15.933474,48.65534 L18.894047,48.425785 L17.48538,46.13314 L15.933474,48.65534 L17.36553,51.016346 L20.307514,50.573303 L18.894047,48.425785 L17.36553,51.016346 L18.303436,50.78729 L21.122276,49.26475 L20.307514,50.573303 L18.303436,50.78729 L18.507435,46.46633 L21.231052,43.446293 L21.122276,49.26475 L18.507435,46.46633 L18.816166,41.95232 L21.681059,38.629818 L21.231052,43.446293 L18.816166,41.95232 L19.75583,40.019764 L22.881573,37.398514 L21.681059,38.629818 L19.75583,40.019764 L20.963535,38.846626 L24.421722,37.55031 L22.881573,37.398514 L20.963535,38.846626 L22.355381,37.946716 L26.003052,37.158325 L24.421722,37.55031 L22.355381,37.946716 L24.479076,40.80254 L27.954704,38.481903 L26.003052,37.158325 L24.479076,40.80254 L27.16753,46.96258 L30.457668,43.361023 L27.954704,38.481903 L27.16753,46.96258 L30.373577,56.87107 L33.271885,50.64432 L30.457668,43.361023 L30.373577,56.87107 L33.340282,65.35245 L36.190125,59.095448 L33.271885,50.64432 L33.340282,65.35245 L35.86316,69.945274 L38.8956,65.37873 L36.190125,59.095448 L35.86316,69.945274 L38.329834,72.99693 L41.46362,69.07407 L38.8956,65.37873 L38.329834,72.99693 L40.94864,76.100464 L44.041912,70.19151 L41.46362,69.07407 L40.94864,76.100464 L43.697742,78.312675 L46.788612,67.73134 L44.041912,70.19151 L43.697742,78.312675 L46.599472,76.817764 L50.000008,66.06165 L46.788612,67.73134 L46.599472,76.817764 L50.000008,76.96247 L53.605743,69.01781 L50.000008,66.06165 L50.000008,76.96247 L53.872787,78.495155 L57.66165,70.169556 L53.605743,69.01781 L53.872787,78.495155 L57.66165,70.169556 L61.226128,63.83654 L57.143784,61.252815 L57.66165,70.169556 L53.605743,69.01781 L57.143784,61.252815 L53.457123,57.14557 L53.605743,69.01781 L50.000008,66.06165 L53.457123,57.14557 L50.000008,55.428448 L50.000008,66.06165 L46.788612,67.73134 L50.000008,55.428448 L46.934856,58.496513 L46.788612,67.73134 L44.041912,70.19151 L46.934856,58.496513 L44.22929,59.84138 L44.041912,70.19151 L41.46362,69.07407 L44.22929,59.84138 L41.604992,57.160435 L41.46362,69.07407 L38.8956,65.37873 L41.604992,57.160435 L38.93798,51.89944 L38.8956,65.37873 L36.190125,59.095448 L38.93798,51.89944 L36.292152,46.286476 L36.190125,59.095448 L33.271885,50.64432 L36.292152,46.286476 L33.758106,41.442524 L33.271885,50.64432 L30.457668,43.361023 L33.758106,41.442524 L31.4469,38.16468 L30.457668,43.361023 L27.954704,38.481903 L31.4469,38.16468 L29.557924,37.719475 L27.954704,38.481903 L26.003052,37.158325 L29.557924,37.719475 L27.90077,38.0719 L26.003052,37.158325 L24.421722,37.55031 L27.90077,38.0719 L26.347626,38.251907 L24.421722,37.55031 L22.881573,37.398514 L26.347626,38.251907 L25.186932,40.305504 L22.881573,37.398514 L21.681059,38.629818 L25.186932,40.305504 L24.596844,45.14156 L21.681059,38.629818 L21.231052,43.446293 L24.596844,45.14156 L23.956842,48.701973 L21.231052,43.446293 L21.122276,49.26475 L23.956842,48.701973 L22.65841,47.708237 L21.122276,49.26475 L20.307514,50.573303 L22.65841,47.708237 L21.136703,45.163475 L20.307514,50.573303 L18.894047,48.425785 L21.136703,45.163475 L19.817738,43.546593 L18.894047,48.425785 L17.48538,46.13314 L19.817738,43.546593 L18.786423,43.227432 L17.48538,46.13314 L16.297283,44.754406 L18.786423,43.227432 L16.297283,44.754406 L18.786423,43.227432 L20.623999,38.583 L18.786423,43.227432 L19.817738,43.546593 L21.382381,36.86377 L20.623999,38.583 L19.817738,43.546593 L21.136703,45.163475 L22.518856,36.95124 L21.382381,36.86377 L21.136703,45.163475 L22.65841,47.708237 L24.173313,39.941154 L22.518856,36.95124 L22.65841,47.708237 L23.956842,48.701973 L26.052505,44.249344 L24.173313,39.941154 L23.956842,48.701973 L24.596844,45.14156 L27.63973,46.38983 L26.052505,44.249344 L24.596844,45.14156 L25.186932,40.305504 L28.801285,44.917923 L27.63973,46.38983 L25.186932,40.305504 L26.347626,38.251907 L29.91594,42.08183 L28.801285,44.917923 L26.347626,38.251907 L27.90077,38.0719 L31.31115,40.31891 L29.91594,42.08183 L27.90077,38.0719 L29.557924,37.719475 L32.942043,39.34577 L31.31115,40.31891 L29.557924,37.719475 L31.4469,38.16468 L34.82515,39.440308 L32.942043,39.34577 L31.4469,38.16468 L33.758106,41.442524 L36.980206,41.10952 L34.82515,39.440308 L33.758106,41.442524 L36.292152,46.286476 L39.294518,43.30431 L36.980206,41.10952 L36.292152,46.286476 L38.93798,51.89944 L41.712204,45.060753 L39.294518,43.30431 L38.93798,51.89944 L41.604992,57.160435 L44.273914,46.46161 L41.712204,45.060753 L41.604992,57.160435 L44.22929,59.84138 L47.003914,46.636597 L44.273914,46.46161 L44.22929,59.84138 L46.934856,58.496513 L50.000008,45.486183 L47.003914,46.636597 L46.934856,58.496513 L50.000008,55.428448 L53.32436,46.01626 L50.000008,45.486183 L50.000008,55.428448 L53.457123,57.14557 L56.82469,50.427124 L53.32436,46.01626 L53.457123,57.14557 L57.143784,61.252815 L60.46081,55.86099 L56.82469,50.427124 L57.143784,61.252815 L61.226128,63.83654 L64.38339,60.281357 L60.46081,55.86099 L61.226128,63.83654 L64.38339,60.281357 L67.052475,59.15406 L63.409813,53.15894 L64.38339,60.281357 L60.46081,55.86099 L63.409813,53.15894 L59.92544,46.780724 L60.46081,55.86099 L56.82469,50.427124 L59.92544,46.780724 L56.51467,40.988808 L56.82469,50.427124 L53.32436,46.01626 L56.51467,40.988808 L53.172626,37.242504 L53.32436,46.01626 L50.000008,45.486183 L53.172626,37.242504 L50.000008,36.192394 L50.000008,45.486183 L47.003914,46.636597 L50.000008,36.192394 L47.10334,37.24672 L47.003914,46.636597 L44.273914,46.46161 L47.10334,37.24672 L44.512207,39.197346 L44.273914,46.46161 L41.712204,45.060753 L44.512207,39.197346 L42.17838,40.903744 L41.712204,45.060753 L39.294518,43.30431 L42.17838,40.903744 L40.023857,41.75334 L39.294518,43.30431 L36.980206,41.10952 L40.023857,41.75334 L38.01563,42.08104 L36.980206,41.10952 L34.82515,39.440308 L38.01563,42.08104 L36.180744,42.65312 L34.82515,39.440308 L32.942043,39.34577 L36.180744,42.65312 L34.5561,43.940434 L32.942043,39.34577 L31.31115,40.31891 L34.5561,43.940434 L33.112286,45.595074 L31.31115,40.31891 L29.91594,42.08183 L33.112286,45.595074 L31.542164,44.96645 L29.91594,42.08183 L28.801285,44.917923 L31.542164,44.96645 L29.391268,38.95817 L28.801285,44.917923 L27.63973,46.38983 L29.391268,38.95817 L27.076439,31.805054 L27.63973,46.38983 L26.052505,44.249344 L27.076439,31.805054 L25.266357,28.490479 L26.052505,44.249344 L24.173313,39.941154 L25.266357,28.490479 L23.75605,27.025433 L24.173313,39.941154 L22.518856,36.95124 L23.75605,27.025433 L22.49971,26.87783 L22.518856,36.95124 L21.382381,36.86377 L22.49971,26.87783 L21.869326,30.23816 L21.382381,36.86377 L20.623999,38.583 L21.869326,30.23816 L20.623999,38.583 L21.869326,30.23816 L23.19359,21.694992 L21.869326,30.23816 L22.49971,26.87783 L24.688583,23.519714 L23.19359,21.694992 L22.49971,26.87783 L23.75605,27.025433 L26.65815,28.625023 L24.688583,23.519714 L23.75605,27.025433 L25.266357,28.490479 L28.241707,30.638695 L26.65815,28.625023 L25.266357,28.490479 L27.076439,31.805054 L29.49115,29.373772 L28.241707,30.638695 L27.076439,31.805054 L29.391268,38.95817 L30.849384,28.135002 L29.49115,29.373772 L29.391268,38.95817 L31.542164,44.96645 L32.99113,33.668106 L30.849384,28.135002 L31.542164,44.96645 L33.112286,45.595074 L35.47487,43.069397 L32.99113,33.668106 L33.112286,45.595074 L34.5561,43.940434 L37.445408,47.003933 L35.47487,43.069397 L34.5561,43.940434 L36.180744,42.65312 L39.148552,46.58465 L37.445408,47.003933 L36.180744,42.65312 L38.01563,42.08104 L40.907852,44.79399 L39.148552,46.58465 L38.01563,42.08104 L40.023857,41.75334 L42.8108,42.11345 L40.907852,44.79399 L40.023857,41.75334 L42.17838,40.903744 L44.908463,38.344696 L42.8108,42.11345 L42.17838,40.903744 L44.512207,39.197346 L47.288063,34.268387 L44.908463,38.344696 L44.512207,39.197346 L47.10334,37.24672 L50.000004,31.477772 L47.288063,34.268387 L47.10334,37.24672 L50.000008,36.192394 L53.001236,31.152401 L50.000004,31.477772 L50.000008,36.192394 L53.172626,37.242504 L56.173058,34.00254 L53.001236,31.152401 L53.172626,37.242504 L56.51467,40.988808 L59.387085,39.56245 L56.173058,34.00254 L56.51467,40.988808 L59.92544,46.780724 L62.619076,46.18705 L59.387085,39.56245 L59.92544,46.780724 L63.409813,53.15894 L65.927246,52.70447 L62.619076,46.18705 L63.409813,53.15894 L67.052475,59.15406 L69.38973,58.670567 L65.927246,52.70447 L67.052475,59.15406 L69.38973,58.670567 L71.348915,59.2335 L68.03652,53.722607 L69.38973,58.670567 L65.927246,52.70447 L68.03652,53.722607 L64.931564,47.157093 L65.927246,52.70447 L62.619076,46.18705 L64.931564,47.157093 L61.952705,39.48563 L62.619076,46.18705 L59.387085,39.56245 L61.952705,39.48563 L58.91072,32.95864 L59.387085,39.56245 L56.173058,34.00254 L58.91072,32.95864 L55.747673,31.295052 L56.173058,34.00254 L53.001236,31.152401 L55.747673,31.295052 L52.75106,31.790817 L53.001236,31.152401 L50.000004,31.477772 L52.75106,31.790817 L50.000008,32.382885 L50.000004,31.477772 L47.288063,34.268387 L50.000008,32.382885 L47.506477,35.467716 L47.288063,34.268387 L44.908463,38.344696 L47.506477,35.467716 L45.354725,41.274467 L44.908463,38.344696 L42.8108,42.11345 L45.354725,41.274467 L43.450123,45.628998 L42.8108,42.11345 L40.907852,44.79399 L43.450123,45.628998 L41.620335,46.81503 L40.907852,44.79399 L39.148552,46.58465 L41.620335,46.81503 L39.61361,42.89192 L39.148552,46.58465 L37.445408,47.003933 L39.61361,42.89192 L37.211567,33.23853 L37.445408,47.003933 L35.47487,43.069397 L37.211567,33.23853 L35.119354,28.30552 L35.47487,43.069397 L32.99113,33.668106 L35.119354,28.30552 L33.702805,30.557167 L32.99113,33.668106 L30.849384,28.135002 L33.702805,30.557167 L32.531807,33.930683 L30.849384,28.135002 L29.49115,29.373772 L32.531807,33.930683 L31.202065,34.587784 L29.49115,29.373772 L28.241707,30.638695 L31.202065,34.587784 L29.526913,31.568481 L28.241707,30.638695 L26.65815,28.625023 L29.526913,31.568481 L27.544062,25.875717 L26.65815,28.625023 L24.688583,23.519714 L27.544062,25.875717 L25.36439,18.789413 L24.688583,23.519714 L23.19359,21.694992 L25.36439,18.789413 L23.19359,21.694992 L25.36439,18.789413 L27.724321,17.91404 L25.36439,18.789413 L27.544062,25.875717 L29.951422,25.949593 L27.724321,17.91404 L27.544062,25.875717 L29.526913,31.568481 L31.991745,32.66487 L29.951422,25.949593 L29.526913,31.568481 L31.202065,34.587784 L33.83314,37.651066 L31.991745,32.66487 L31.202065,34.587784 L32.531807,33.930683 L35.25872,37.97543 L33.83314,37.651066 L32.531807,33.930683 L33.702805,30.557167 L36.45435,34.446606 L35.25872,37.97543 L33.702805,30.557167 L35.119354,28.30552 L37.75849,30.289993 L36.45435,34.446606 L35.119354,28.30552 L37.211567,33.23853 L39.518284,30.769424 L37.75849,30.289993 L37.211567,33.23853 L39.61361,42.89192 L41.76475,39.12527 L39.518284,30.769424 L39.61361,42.89192 L41.620335,46.81503 L43.868538,45.520233 L41.76475,39.12527 L41.620335,46.81503 L43.450123,45.628998 L45.755894,44.751873 L43.868538,45.520233 L43.450123,45.628998 L45.354725,41.274467 L47.72697,39.033985 L45.755894,44.751873 L45.354725,41.274467 L47.506477,35.467716 L50.000004,33.751583 L47.72697,39.033985 L47.506477,35.467716 L50.000008,32.382885 L52.483406,36.161095 L50.000004,33.751583 L50.000008,32.382885 L52.75106,31.790817 L55.088997,38.428696 L52.483406,36.161095 L52.75106,31.790817 L55.747673,31.295052 L58.0148,36.824486 L55.088997,38.428696 L55.747673,31.295052 L58.91072,32.95864 L61.273712,34.664696 L58.0148,36.824486 L58.91072,32.95864 L61.952705,39.48563 L64.30672,39.305553 L61.273712,34.664696 L61.952705,39.48563 L64.931564,47.157093 L66.951225,48.57136 L64.30672,39.305553 L64.931564,47.157093 L68.03652,53.722607 L69.877785,54.960224 L66.951225,48.57136 L68.03652,53.722607 L71.348915,59.2335 L73.07836,59.869957 L69.877785,54.960224 L71.348915,59.2335 L73.07836,59.869957 L74.632645,60.42679 L71.460815,56.521492 L73.07836,59.869957 L69.877785,54.960224 L71.460815,56.521492 L68.7273,50.147396 L69.877785,54.960224 L66.951225,48.57136 L68.7273,50.147396 L66.333916,40.50991 L66.951225,48.57136 L64.30672,39.305553 L66.333916,40.50991 L63.119797,39.842648 L64.30672,39.305553 L61.273712,34.664696 L63.119797,39.842648 L59.912056,42.80915 L61.273712,34.664696 L58.0148,36.824486 L59.912056,42.80915 L57.081673,44.566082 L58.0148,36.824486 L55.088997,38.428696 L57.081673,44.566082 L54.592094,43.16166 L55.088997,38.428696 L52.483406,36.161095 L54.592094,43.16166 L52.310837,36.25622 L52.483406,36.161095 L50.000004,33.751583 L52.310837,36.25622 L50.000004,35.7426 L50.000004,33.751583 L47.72697,39.033985 L50.000004,35.7426 L47.90815,41.746788 L47.72697,39.033985 L45.755894,44.751873 L47.90815,41.746788 L46.00996,44.298172 L45.755894,44.751873 L43.868538,45.520233 L46.00996,44.298172 L44.018787,39.34986 L43.868538,45.520233 L41.76475,39.12527 L44.018787,39.34986 L41.91577,31.943668 L41.76475,39.12527 L39.518284,30.769424 L41.91577,31.943668 L40.153744,31.417011 L39.518284,30.769424 L37.75849,30.289993 L40.153744,31.417011 L38.760715,35.187943 L37.75849,30.289993 L36.45435,34.446606 L38.760715,35.187943 L37.43223,37.737522 L36.45435,34.446606 L35.25872,37.97543 L37.43223,37.737522 L35.932602,36.747932 L35.25872,37.97543 L33.83314,37.651066 L35.932602,36.747932 L34.06585,31.102299 L33.83314,37.651066 L31.991745,32.66487 L34.06585,31.102299 L32.03231,23.949074 L31.991745,32.66487 L29.951422,25.949593 L32.03231,23.949074 L29.910698,16.327568 L29.951422,25.949593 L27.724321,17.91404 L29.910698,16.327568 L27.724321,17.91404 L29.910698,16.327568 L32.244556,17.101585 L29.910698,16.327568 L32.03231,23.949074 L33.919273,20.437057 L32.244556,17.101585 L32.03231,23.949074 L34.06585,31.102299 L35.897144,27.38655 L33.919273,20.437057 L34.06585,31.102299 L35.932602,36.747932 L37.710426,32.56576 L35.897144,27.38655 L35.932602,36.747932 L37.43223,37.737522 L39.29315,34.239353 L37.710426,32.56576 L37.43223,37.737522 L38.760715,35.187943 L40.7523,32.66077 L39.29315,34.239353 L38.760715,35.187943 L40.153744,31.417011 L42.324833,31.03003 L40.7523,32.66077 L40.153744,31.417011 L41.91577,31.943668 L44.16295,33.507263 L42.324833,31.03003 L41.91577,31.943668 L44.018787,39.34986 L46.151817,40.29827 L44.16295,33.507263 L44.018787,39.34986 L46.00996,44.298172 L48.027378,41.115273 L46.151817,40.29827 L46.00996,44.298172 L47.90815,41.746788 L50.000004,37.499863 L48.027378,41.115273 L47.90815,41.746788 L50.000004,35.7426 L52.17211,35.44239 L50.000004,37.499863 L50.000004,35.7426 L52.310837,36.25622 L54.311188,42.202457 L52.17211,35.44239 L52.310837,36.25622 L54.592094,43.16166 L56.506226,46.69874 L54.311188,42.202457 L54.592094,43.16166 L57.081673,44.566082 L59.040417,45.71178 L56.506226,46.69874 L57.081673,44.566082 L59.912056,42.80915 L61.754246,45.230286 L59.040417,45.71178 L59.912056,42.80915 L63.119797,39.842648 L64.69333,44.728107 L61.754246,45.230286 L63.119797,39.842648 L66.333916,40.50991 L67.89549,44.116432 L64.69333,44.728107 L66.333916,40.50991 L68.7273,50.147396 L70.41282,50.89274 L67.89549,44.116432 L68.7273,50.147396 L71.460815,56.521492 L72.77663,58.57495 L70.41282,50.89274 L71.460815,56.521492 L74.632645,60.42679 L75.9085,61.63671 L72.77663,58.57495 L74.632645,60.42679 L75.9085,61.63671 L77.01929,62.913494 L74.12363,59.361084 L75.9085,61.63671 L72.77663,58.57495 L74.12363,59.361084 L71.92134,51.769135 L72.77663,58.57495 L70.41282,50.89274 L71.92134,51.769135 L69.23955,47.623516 L70.41282,50.89274 L67.89549,44.116432 L69.23955,47.623516 L66.231346,47.425655 L67.89549,44.116432 L64.69333,44.728107 L66.231346,47.425655 L63.396538,47.652283 L64.69333,44.728107 L61.754246,45.230286 L63.396538,47.652283 L60.8626,46.420994 L61.754246,45.230286 L59.040417,45.71178 L60.8626,46.420994 L58.427998,45.896687 L59.040417,45.71178 L56.506226,46.69874 L58.427998,45.896687 L56.15994,44.774746 L56.506226,46.69874 L54.311188,42.202457 L56.15994,44.774746 L54.118847,39.0761 L54.311188,42.202457 L52.17211,35.44239 L54.118847,39.0761 L52.03104,36.23127 L52.17211,35.44239 L50.000004,37.499863 L52.03104,36.23127 L50.000004,37.62543 L50.000004,37.499863 L48.027378,41.115273 L50.000004,37.62543 L48.11311,38.72159 L48.027378,41.115273 L46.151817,40.29827 L48.11311,38.72159 L46.250473,35.046402 L46.151817,40.29827 L44.16295,33.507263 L46.250473,35.046402 L44.369892,30.11383 L44.16295,33.507263 L42.324833,31.03003 L44.369892,30.11383 L42.678154,29.810936 L42.324833,31.03003 L40.7523,32.66077 L42.678154,29.810936 L41.098408,30.128052 L40.7523,32.66077 L39.29315,34.239353 L41.098408,30.128052 L39.48056,28.361359 L39.29315,34.239353 L37.710426,32.56576 L39.48056,28.361359 L37.71871,23.790619 L37.710426,32.56576 L35.897144,27.38655 L37.71871,23.790619 L36.022705,20.122406 L35.897144,27.38655 L33.919273,20.437057 L36.022705,20.122406 L34.909584,23.371498 L33.919273,20.437057 L32.244556,17.101585 L34.909584,23.371498 L32.244556,17.101585 L34.909584,23.371498 L37.167423,27.222057 L34.909584,23.371498 L36.022705,20.122406 L38.412567,25.6996 L37.167423,27.222057 L36.022705,20.122406 L37.71871,23.790619 L39.713123,23.600876 L38.412567,25.6996 L37.71871,23.790619 L39.48056,28.361359 L41.306732,25.433914 L39.713123,23.600876 L39.48056,28.361359 L41.098408,30.128052 L42.93367,27.00879 L41.306732,25.433914 L41.098408,30.128052 L42.678154,29.810936 L44.58177,27.582314 L42.93367,27.00879 L42.678154,29.810936 L44.369892,30.11383 L46.35797,30.72062 L44.58177,27.582314 L44.369892,30.11383 L46.250473,35.046402 L48.18431,35.834118 L46.35797,30.72062 L46.250473,35.046402 L48.11311,38.72159 L50.000004,37.373524 L48.18431,35.834118 L48.11311,38.72159 L50.000004,37.62543 L51.904636,37.148857 L50.000004,37.373524 L50.000004,37.62543 L52.03104,36.23127 L53.923985,37.033165 L51.904636,37.148857 L52.03104,36.23127 L54.118847,39.0761 L55.96554,39.786957 L53.923985,37.033165 L54.118847,39.0761 L56.15994,44.774746 L58.013344,43.62422 L55.96554,39.786957 L56.15994,44.774746 L58.427998,45.896687 L60.172585,46.25126 L58.013344,43.62422 L58.427998,45.896687 L60.8626,46.420994 L62.356472,49.51441 L60.172585,46.25126 L60.8626,46.420994 L63.396538,47.652283 L64.68602,51.897167 L62.356472,49.51441 L63.396538,47.652283 L66.231346,47.425655 L67.517715,50.706333 L64.68602,51.897167 L66.231346,47.425655 L69.23955,47.623516 L70.70503,48.671234 L67.517715,50.706333 L69.23955,47.623516 L71.92134,51.769135 L73.46356,51.483643 L70.70503,48.671234 L71.92134,51.769135 L74.12363,59.361084 L75.60344,58.61881 L73.46356,51.483643 L74.12363,59.361084 L77.01929,62.913494 L78.1553,63.380463 L75.60344,58.61881 L77.01929,62.913494 L78.1553,63.380463 L79.7783,60.959454 L77.67208,54.14212 L78.1553,63.380463 L75.60344,58.61881 L77.67208,54.14212 L75.29469,48.742428 L75.60344,58.61881 L73.46356,51.483643 L75.29469,48.742428 L72.16316,48.818756 L73.46356,51.483643 L70.70503,48.671234 L72.16316,48.818756 L68.686226,53.49598 L70.70503,48.671234 L67.517715,50.706333 L68.686226,53.49598 L65.97905,54.23021 L67.517715,50.706333 L64.68602,51.897167 L65.97905,54.23021 L63.742058,51.85764 L64.68602,51.897167 L62.356472,49.51441 L63.742058,51.85764 L61.6861,48.137093 L62.356472,49.51441 L60.172585,46.25126 L61.6861,48.137093 L59.673843,44.281456 L60.172585,46.25126 L58.013344,43.62422 L59.673843,44.281456 L57.760612,38.914604 L58.013344,43.62422 L55.96554,39.786957 L57.760612,38.914604 L55.82131,33.97297 L55.96554,39.786957 L53.923985,37.033165 L55.82131,33.97297 L53.778744,33.71435 L53.923985,37.033165 L51.904636,37.148857 L53.778744,33.71435 L51.805664,36.775444 L51.904636,37.148857 L50.000004,37.373524 L51.805664,36.775444 L50.000004,36.760338 L50.000004,37.373524 L48.18431,35.834118 L50.000004,36.760338 L48.259052,34.018547 L48.18431,35.834118 L46.35797,30.72062 L48.259052,34.018547 L46.514,29.399132 L46.35797,30.72062 L44.58177,27.582314 L46.514,29.399132 L44.82743,26.936577 L44.58177,27.582314 L42.93367,27.00879 L44.82743,26.936577 L43.253437,26.563816 L42.93367,27.00879 L41.306732,25.433914 L43.253437,26.563816 L41.82782,27.97829 L41.306732,25.433914 L39.713123,23.600876 L41.82782,27.97829 L40.493507,29.413826 L39.713123,23.600876 L38.412567,25.6996 L40.493507,29.413826 L39.01544,27.131195 L38.412567,25.6996 L37.167423,27.222057 L39.01544,27.131195 L37.167423,27.222057 L39.01544,27.131195 L40.741417,26.19997 L39.01544,27.131195 L40.493507,29.413826 L42.253407,29.40094 L40.741417,26.19997 L40.493507,29.413826 L41.82782,27.97829 L43.711647,30.788261 L42.253407,29.40094 L41.82782,27.97829 L43.253437,26.563816 L45.167885,30.564064 L43.711647,30.788261 L43.253437,26.563816 L44.82743,26.936577 L46.715828,31.305779 L45.167885,30.564064 L44.82743,26.936577 L46.514,29.399132 L48.340546,33.661835 L46.715828,31.305779 L46.514,29.399132 L48.259052,34.018547 L50.000004,35.455914 L48.340546,33.661835 L48.259052,34.018547 L50.000004,36.760338 L51.728188,35.281258 L50.000004,35.455914 L50.000004,36.760338 L51.805664,36.775444 L53.68126,28.83226 L51.728188,35.281258 L51.805664,36.775444 L53.778744,33.71435 L55.71016,27.6124 L53.68126,28.83226 L53.778744,33.71435 L55.82131,33.97297 L57.552414,33.829823 L55.71016,27.6124 L55.82131,33.97297 L57.760612,38.914604 L59.327347,40.622025 L57.552414,33.829823 L57.760612,38.914604 L59.673843,44.281456 L61.244347,44.609413 L59.327347,40.622025 L59.673843,44.281456 L61.6861,48.137093 L63.27482,47.489853 L61.244347,44.609413 L61.6861,48.137093 L63.742058,51.85764 L65.36554,50.325798 L63.27482,47.489853 L63.742058,51.85764 L65.97905,54.23021 L67.64613,52.051598 L65.36554,50.325798 L65.97905,54.23021 L68.686226,53.49598 L70.20561,52.467957 L67.64613,52.051598 L68.686226,53.49598 L72.16316,48.818756 L73.64497,48.10947 L70.20561,52.467957 L72.16316,48.818756 L75.29469,48.742428 L77.34423,44.393314 L73.64497,48.10947 L75.29469,48.742428 L77.67208,54.14212 L80.12352,47.532978 L77.34423,44.393314 L77.67208,54.14212 L79.7783,60.959454 L82.63057,52.511547 L80.12352,47.532978 L79.7783,60.959454 L82.63057,52.511547 L85.51781,44.066772 L82.576035,40.97507 L82.63057,52.511547 L80.12352,47.532978 L82.576035,40.97507 L79.3345,40.2492 L80.12352,47.532978 L77.34423,44.393314 L79.3345,40.2492 L75.44164,44.897835 L77.34423,44.393314 L73.64497,48.10947 L75.44164,44.897835 L71.9969,48.984985 L73.64497,48.10947 L70.20561,52.467957 L71.9969,48.984985 L69.35291,49.141953 L70.20561,52.467957 L67.64613,52.051598 L69.35291,49.141953 L67.026276,47.873997 L67.64613,52.051598 L65.36554,50.325798 L67.026276,47.873997 L64.922646,45.36123 L65.36554,50.325798 L63.27482,47.489853 L64.922646,45.36123 L62.940247,42.117634 L63.27482,47.489853 L61.244347,44.609413 L62.940247,42.117634 L60.905586,40.26191 L61.244347,44.609413 L59.327347,40.622025 L60.905586,40.26191 L59.08602,35.692795 L59.327347,40.622025 L57.552414,33.829823 L59.08602,35.692795 L57.396126,28.022987 L57.552414,33.829823 L55.71016,27.6124 L57.396126,28.022987 L55.586823,22.028442 L55.71016,27.6124 L53.68126,28.83226 L55.586823,22.028442 L53.52429,27.45919 L53.68126,28.83226 L51.728188,35.281258 L53.52429,27.45919 L51.66195,33.403923 L51.728188,35.281258 L50.000004,35.455914 L51.66195,33.403923 L50.000004,32.95702 L50.000004,35.455914 L48.340546,33.661835 L50.000004,32.95702 L48.40419,32.186832 L48.340546,33.661835 L46.715828,31.305779 L48.40419,32.186832 L46.861656,31.113277 L46.715828,31.305779 L45.167885,30.564064 L46.861656,31.113277 L45.363834,29.849018 L45.167885,30.564064 L43.711647,30.788261 L45.363834,29.849018 L43.880714,27.747593 L43.711647,30.788261 L42.253407,29.40094 L43.880714,27.747593 L42.40787,25.228043 L42.253407,29.40094 L40.741417,26.19997 L42.40787,25.228043 L40.741417,26.19997 L42.40787,25.228043 L44.02502,24.382256 L42.40787,25.228043 L43.880714,27.747593 L45.452694,25.544525 L44.02502,24.382256 L43.880714,27.747593 L45.363834,29.849018 L46.92555,26.884338 L45.452694,25.544525 L45.363834,29.849018 L46.861656,31.113277 L48.439518,28.127766 L46.92555,26.884338 L46.861656,31.113277 L48.40419,32.186832 L50.000004,29.087124 L48.439518,28.127766 L48.40419,32.186832 L50.000004,32.95702 L51.613625,30.246742 L50.000004,29.087124 L50.000004,32.95702 L51.66195,33.403923 L53.322643,29.258938 L51.613625,30.246742 L51.66195,33.403923 L53.52429,27.45919 L55.300774,22.496857 L53.322643,29.258938 L53.52429,27.45919 L55.586823,22.028442 L57.313118,20.755157 L55.300774,22.496857 L55.586823,22.028442 L57.396126,28.022987 L58.988613,28.408234 L57.313118,20.755157 L57.396126,28.022987 L59.08602,35.692795 L60.64492,35.233402 L58.988613,28.408234 L59.08602,35.692795 L60.905586,40.26191 L62.552925,37.936474 L60.64492,35.233402 L60.905586,40.26191 L62.940247,42.117634 L64.60403,39.54074 L62.552925,37.936474 L62.940247,42.117634 L64.922646,45.36123 L66.582794,42.656334 L64.60403,39.54074 L64.922646,45.36123 L67.026276,47.873997 L68.69766,44.979034 L66.582794,42.656334 L67.026276,47.873997 L69.35291,49.141953 L71.05712,45.994507 L68.69766,44.979034 L69.35291,49.141953 L71.9969,48.984985 L73.92667,44.390163 L71.05712,45.994507 L71.9969,48.984985 L75.44164,44.897835 L77.5964,39.31595 L73.92667,44.390163 L75.44164,44.897835 L79.3345,40.2492 L81.23816,36.447037 L77.5964,39.31595 L79.3345,40.2492 L82.576035,40.97507 L84.549034,36.81224 L81.23816,36.447037 L82.576035,40.97507 L85.51781,44.066772 L87.89611,38.019997 L84.549034,36.81224 L85.51781,44.066772 L87.89611,38.019997 L89.42815,35.63395 L85.76348,36.14898 L87.89611,38.019997 L84.549034,36.81224 L85.76348,36.14898 L82.467415,36.04054 L84.549034,36.81224 L81.23816,36.447037 L82.467415,36.04054 L79.36372,35.995552 L81.23816,36.447037 L77.5964,39.31595 L79.36372,35.995552 L76.11011,38.118103 L77.5964,39.31595 L73.92667,44.390163 L76.11011,38.118103 L72.918396,41.52404 L73.92667,44.390163 L71.05712,45.994507 L72.918396,41.52404 L70.3138,42.28592 L71.05712,45.994507 L68.69766,44.979034 L70.3138,42.28592 L68.166954,40.344257 L68.69766,44.979034 L66.582794,42.656334 L68.166954,40.344257 L66.1153,38.188286 L66.582794,42.656334 L64.60403,39.54074 L66.1153,38.188286 L64.07351,36.67452 L64.60403,39.54074 L62.552925,37.936474 L64.07351,36.67452 L62.240646,33.256664 L62.552925,37.936474 L60.64492,35.233402 L62.240646,33.256664 L60.65097,26.139511 L60.64492,35.233402 L58.988613,28.408234 L60.65097,26.139511 L58.95756,19.94217 L58.988613,28.408234 L57.313118,20.755157 L58.95756,19.94217 L56.888268,22.793716 L57.313118,20.755157 L55.300774,22.496857 L56.888268,22.793716 L54.910446,27.71944 L55.300774,22.496857 L53.322643,29.258938 L54.910446,27.71944 L53.196026,27.8983 L53.322643,29.258938 L51.613625,30.246742 L53.196026,27.8983 L51.578712,26.05008 L51.613625,30.246742 L50.000004,29.087124 L51.578712,26.05008 L50.000004,24.613914 L50.000004,29.087124 L48.439518,28.127766 L50.000004,24.613914 L48.46838,23.656052 L48.439518,28.127766 L46.92555,26.884338 L48.46838,23.656052 L46.993298,23.21357 L46.92555,26.884338 L45.452694,25.544525 L46.993298,23.21357 L45.582985,23.254875 L45.452694,25.544525 L44.02502,24.382256 L45.582985,23.254875 L44.02502,24.382256 L45.582985,23.254875 L47.086086,21.47274 L45.582985,23.254875 L46.993298,23.21357 L48.507607,20.764473 L47.086086,21.47274 L46.993298,23.21357 L48.46838,23.656052 L50.000004,20.733307 L48.507607,20.764473 L48.46838,23.656052 L50.000004,24.613914 L51.54628,21.911674 L50.000004,20.733307 L50.000004,24.613914 L51.578712,26.05008 L53.122368,24.09195 L51.54628,21.911674 L51.578712,26.05008 L53.196026,27.8983 L54.717056,26.774677 L53.122368,24.09195 L53.196026,27.8983 L54.910446,27.71944 L56.36168,28.744484 L54.717056,26.774677 L54.910446,27.71944 L56.888268,22.793716 L58.198494,27.40503 L56.36168,28.744484 L56.888268,22.793716 L58.95756,19.94217 L60.340874,22.643234 L58.198494,27.40503 L58.95756,19.94217 L60.65097,26.139511 L62.41312,21.834068 L60.340874,22.643234 L60.65097,26.139511 L62.240646,33.256664 L64.03136,28.292633 L62.41312,21.834068 L62.240646,33.256664 L64.07351,36.67452 L65.667336,34.03237 L64.03136,28.292633 L64.07351,36.67452 L66.1153,38.188286 L67.53105,37.26032 L65.667336,34.03237 L66.1153,38.188286 L68.166954,40.344257 L69.61336,38.89676 L67.53105,37.26032 L68.166954,40.344257 L70.3138,42.28592 L72.0385,38.533737 L69.61336,38.89676 L70.3138,42.28592 L72.918396,41.52404 L74.793976,36.91811 L72.0385,38.533737 L72.918396,41.52404 L76.11011,38.118103 L77.52939,36.654396 L74.793976,36.91811 L76.11011,38.118103 L79.36372,35.995552 L80.10161,38.259907 L77.52939,36.654396 L79.36372,35.995552 L82.467415,36.04054 L82.84087,39.632843 L80.10161,38.259907 L82.467415,36.04054 L85.76348,36.14898 L86.159225,38.984932 L82.84087,39.632843 L85.76348,36.14898 L89.42815,35.63395 L90.19322,36.320847 L86.159225,38.984932 L89.42815,35.63395 L90.19322,36.320847 L90.634766,38.069096 L87.395645,37.60706 L90.19322,36.320847 L86.159225,38.984932 L87.395645,37.60706 L84.756516,35.104923 L86.159225,38.984932 L82.84087,39.632843 L84.756516,35.104923 L81.90459,34.271935 L82.84087,39.632843 L80.10161,38.259907 L81.90459,34.271935 L78.93991,34.95809 L80.10161,38.259907 L77.52939,36.654396 L78.93991,34.95809 L76.31893,34.576004 L77.52939,36.654396 L74.793976,36.91811 L76.31893,34.576004 L73.972015,33.18019 L74.793976,36.91811 L72.0385,38.533737 L73.972015,33.18019 L71.637474,32.44377 L72.0385,38.533737 L69.61336,38.89676 L71.637474,32.44377 L69.50931,30.794815 L69.61336,38.89676 L67.53105,37.26032 L69.50931,30.794815 L67.672874,26.937607 L67.53105,37.26032 L65.667336,34.03237 L67.672874,26.937607 L65.83583,23.264397 L65.667336,34.03237 L64.03136,28.292633 L65.83583,23.264397 L63.53666,25.984886 L64.03136,28.292633 L62.41312,21.834068 L63.53666,25.984886 L61.242096,31.07563 L62.41312,21.834068 L60.340874,22.643234 L61.242096,31.07563 L59.38045,31.75629 L60.340874,22.643234 L58.198494,27.40503 L59.38045,31.75629 L57.74331,29.476048 L58.198494,27.40503 L56.36168,28.744484 L57.74331,29.476048 L56.161766,26.509892 L56.36168,28.744484 L54.717056,26.774677 L56.161766,26.509892 L54.605263,23.24379 L54.717056,26.774677 L53.122368,24.09195 L54.605263,23.24379 L53.057358,20.13353 L53.122368,24.09195 L51.54628,21.911674 L53.057358,20.13353 L51.513252,18.1754 L51.54628,21.911674 L50.000004,20.733307 L51.513252,18.1754 L50.000004,18.031631 L50.000004,20.733307 L48.507607,20.764473 L50.000004,18.031631 L48.55418,19.219368 L48.507607,20.764473 L47.086086,21.47274 L48.55418,19.219368 L47.086086,21.47274 L48.55418,19.219368 L50.000004,16.100494 L48.55418,19.219368 L50.000004,18.031631 L51.477158,15.171265 L50.000004,16.100494 L50.000004,18.031631 L51.513252,18.1754 L52.997902,16.152504 L51.477158,15.171265 L51.513252,18.1754 L53.057358,20.13353 L54.51647,19.138786 L52.997902,16.152504 L53.057358,20.13353 L54.605263,23.24379 L56.011154,23.28254 L54.51647,19.138786 L54.605263,23.24379 L56.161766,26.509892 L57.529594,26.71801 L56.011154,23.28254 L56.161766,26.509892 L57.74331,29.476048 L59.126778,28.760948 L57.529594,26.71801 L57.74331,29.476048 L59.38045,31.75629 L60.77928,30.475525 L59.126778,28.760948 L59.38045,31.75629 L61.242096,31.07563 L62.429546,32.839516 L60.77928,30.475525 L61.242096,31.07563 L63.53666,25.984886 L64.23851,33.68607 L62.429546,32.839516 L63.53666,25.984886 L65.83583,23.264397 L66.59114,29.493744 L64.23851,33.68607 L65.83583,23.264397 L67.672874,26.937607 L68.99808,26.634712 L66.59114,29.493744 L67.672874,26.937607 L69.50931,30.794815 L71.09715,27.869225 L68.99808,26.634712 L69.50931,30.794815 L71.637474,32.44377 L73.09281,30.518387 L71.09715,27.869225 L71.637474,32.44377 L73.972015,33.18019 L75.28561,32.15564 L73.09281,30.518387 L73.972015,33.18019 L76.31893,34.576004 L78.18015,29.928913 L75.28561,32.15564 L76.31893,34.576004 L78.93991,34.95809 L81.641525,25.665596 L78.18015,29.928913 L78.93991,34.95809 L81.90459,34.271935 L84.98554,23.547997 L81.641525,25.665596 L81.90459,34.271935 L84.756516,35.104923 L88.08013,23.801224 L84.98554,23.547997 L84.756516,35.104923 L87.395645,37.60706 L90.90496,26.040527 L88.08013,23.801224 L87.395645,37.60706 L90.634766,38.069096 L93.30842,30.480293 L90.90496,26.040527 L90.634766,38.069096" fill="none" stroke="#000" stroke-width="0.35" style="mix-blend-mode: multiply;"/>
</g>
</svg>