<svg height="100mm" style="background:white" viewBox="0 0 100 100" width="100mm" xmlns="http://www.w3.org/2000/svg" xmlns:inkscape="http://www.inkscape.org/namespaces/inkscape">
<g inkscape:groupmode="layer" inkscape:label="#000">
<path d="M50.000008,67.114395 L54.2181,67.11923 L50.000008,67.656624 L50.000008,67.114395 L45.93249,72.07976 L50.000008,67.656624 L46.476845,72.15644 L45.93249,72.07976 L43.003555,81.96928 L46.476845,72.15644 L43.58412,76.009315 L43.003555,81.96928 L39.986492,79.201004 L43.58412,76.009315 L40.62583,71.46495 L39.986492,79.201004 L36.55435,69.786606 L40.62583,71.46495 L37.777367,66.696884 L36.55435,69.786606 L33.496414,63.88314 L37.777367,66.696884 L35.460434,66.067154 L33.496414,63.88314 L31.214752,63.265995 L35.460434,66.067154 L33.66022,68.055 L31.214752,63.265995 L29.746906,66.77083 L33.66022,68.055 L31.663765,66.67955 L29.746906,66.77083 L28.521614,70.00618 L31.663765,66.67955 L28.96901,59.516796 L28.521614,70.00618 L26.480658,67.00957 L28.96901,59.516796 L26.390467,53.18087 L26.480658,67.00957 L23.773243,59.86235 L26.390467,53.18087 L23.551422,45.22091 L23.773243,59.86235 L21.16767,53.306793 L23.551422,45.22091 L20.811565,37.971382 L21.16767,53.306793 L18.424273,46.04485 L20.811565,37.971382 L18.887627,35.25282 L18.424273,46.04485 L16.14845,41.109184 L18.887627,35.25282 L17.393808,34.4662 L16.14845,41.109184 L14.316998,38.146053 L17.393808,34.4662 L15.882723,33.163647 L14.316998,38.146053 L12.548401,35.245876 L15.882723,33.163647 L14.635854,32.8187 L12.548401,35.245876 L11.281622,34.373432 L14.635854,32.8187 L14.040961,35.219734 L11.281622,34.373432 L10.590031,35.712463 L14.040961,35.219734 L13.710842,38.384476 L10.590031,35.712463 L9.941201,36.888542 L13.710842,38.384476 L13.374548,41.07682 L9.941201,36.888542 L9.358358,38.040596 L13.374548,41.07682 L13.068401,43.52873 L9.358358,38.040596 L9.220319,40.733257 L13.068401,43.52873 L9.220319,40.733257 L13.068401,43.52873 L16.185905,44.221275 L13.068401,43.52873 L13.374548,41.07682 L16.644793,41.998154 L16.185905,44.221275 L13.374548,41.07682 L13.710842,38.384476 L17.061558,39.13829 L16.644793,41.998154 L13.710842,38.384476 L14.040961,35.219734 L17.433067,35.519295 L17.061558,39.13829 L14.040961,35.219734 L14.635854,32.8187 L17.985016,32.22862 L17.433067,35.519295 L14.635854,32.8187 L15.882723,33.163647 L19.10185,31.409828 L17.985016,32.22862 L15.882723,33.163647 L17.393808,34.4662 L20.517052,31.747097 L19.10185,31.409828 L17.393808,34.4662 L18.887627,35.25282 L21.977455,31.774807 L20.517052,31.747097 L18.887627,35.25282 L20.811565,37.971382 L23.720451,32.92981 L21.977455,31.774807 L20.811565,37.971382 L23.551422,45.22091 L26.038267,37.406227 L23.720451,32.92981 L23.551422,45.22091 L26.390467,53.18087 L28.781544,44.76783 L26.038267,37.406227 L26.390467,53.18087 L28.96901,59.516796 L31.36855,50.94539 L28.781544,44.76783 L28.96901,59.516796 L31.663765,66.67955 L34.04751,57.851223 L31.36855,50.94539 L31.663765,66.67955 L33.66022,68.055 L36.62659,63.740948 L34.04751,57.851223 L33.66022,68.055 L35.460434,66.067154 L38.86138,64.945145 L36.62659,63.740948 L35.460434,66.067154 L37.777367,66.696884 L41.253677,65.70468 L38.86138,64.945145 L37.777367,66.696884 L40.62583,71.46495 L43.940353,67.87527 L41.253677,65.70468 L40.62583,71.46495 L43.58412,76.009315 L46.800987,68.2643 L43.940353,67.87527 L43.58412,76.009315 L46.476845,72.15644 L50.000008,66.39452 L46.800987,68.2643 L46.476845,72.15644 L50.000008,67.656624 L53.65306,67.219284 L50.000008,66.39452 L50.000008,67.656624 L54.2181,67.11923 L57.763523,68.36246 L53.65306,67.219284 L54.2181,67.11923 L57.763523,68.36246 L60.768555,69.63429 L56.868187,66.839905 L57.763523,68.36246 L53.65306,67.219284 L56.868187,66.839905 L53.3036,63.75948 L53.65306,67.219284 L50.000008,66.39452 L53.3036,63.75948 L50.000004,61.37464 L50.000008,66.39452 L46.800987,68.2643 L50.000004,61.37464 L46.973644,60.364162 L46.800987,68.2643 L43.940353,67.87527 L46.973644,60.364162 L44.210278,59.359596 L43.940353,67.87527 L41.253677,65.70468 L44.210278,59.359596 L41.643963,57.85172 L41.253677,65.70468 L38.86138,64.945145 L41.643963,57.85172 L39.089417,54.010128 L38.86138,64.945145 L36.62659,63.740948 L39.089417,54.010128 L36.40424,47.59304 L36.62659,63.740948 L34.04751,57.851223 L36.40424,47.59304 L33.85972,42.472557 L34.04751,57.851223 L31.36855,50.94539 L33.85972,42.472557 L31.350399,37.291275 L31.36855,50.94539 L28.781544,44.76783 L31.350399,37.291275 L29.01987,33.288136 L28.781544,44.76783 L26.038267,37.406227 L29.01987,33.288136 L27.050377,31.606884 L26.038267,37.406227 L23.720451,32.92981 L27.050377,31.606884 L25.350779,31.178738 L23.720451,32.92981 L21.977455,31.774807 L25.350779,31.178738 L23.77919,30.900574 L21.977455,31.774807 L20.517052,31.747097 L23.77919,30.900574 L22.362545,30.986614 L20.517052,31.747097 L19.10185,31.409828 L22.362545,30.986614 L21.417906,33.35942 L19.10185,31.409828 L17.985016,32.22862 L21.417906,33.35942 L20.833187,37.136032 L17.985016,32.22862 L17.433067,35.519295 L20.833187,37.136032 L20.209578,39.99469 L17.433067,35.519295 L17.061558,39.13829 L20.209578,39.99469 L19.523924,41.964386 L17.061558,39.13829 L16.644793,41.998154 L19.523924,41.964386 L18.882633,43.729378 L16.644793,41.998154 L16.185905,44.221275 L18.882633,43.729378 L16.185905,44.221275 L18.882633,43.729378 L21.106865,41.336193 L18.882633,43.729378 L19.523924,41.964386 L21.917362,40.027092 L21.106865,41.336193 L19.523924,41.964386 L20.209578,39.99469 L22.932938,39.499622 L21.917362,40.027092 L20.209578,39.99469 L20.833187,37.136032 L24.115038,39.566288 L22.932938,39.499622 L20.833187,37.136032 L21.417906,33.35942 L25.134254,38.04409 L24.115038,39.566288 L21.417906,33.35942 L22.362545,30.986614 L25.97645,34.51134 L25.134254,38.04409 L22.362545,30.986614 L23.77919,30.900574 L27.092531,31.927372 L25.97645,34.51134 L23.77919,30.900574 L25.350779,31.178738 L28.591125,31.264061 L27.092531,31.927372 L25.350779,31.178738 L27.050377,31.606884 L30.253458,30.937824 L28.591125,31.264061 L27.050377,31.606884 L29.01987,33.288136 L32.072796,30.849396 L30.253458,30.937824 L29.01987,33.288136 L31.350399,37.291275 L34.16343,32.173836 L32.072796,30.849396 L31.350399,37.291275 L33.85972,42.472557 L36.50599,35.100918 L34.16343,32.173836 L33.85972,42.472557 L36.40424,47.59304 L38.992966,38.719326 L36.50599,35.100918 L36.40424,47.59304 L39.089417,54.010128 L41.621456,43.297615 L38.992966,38.719326 L39.089417,54.010128 L41.643963,57.85172 L44.31419,47.584267 L41.621456,43.297615 L41.643963,57.85172 L44.210278,59.359596 L47.080326,50.70291 L44.31419,47.584267 L44.210278,59.359596 L46.973644,60.364162 L50.000008,53.46563 L47.080326,50.70291 L46.973644,60.364162 L50.000004,61.37464 L53.09627,56.99845 L50.000008,53.46563 L50.000004,61.37464 L53.3036,63.75948 L56.3269,61.780323 L53.09627,56.99845 L53.3036,63.75948 L56.868187,66.839905 L59.693867,66.87429 L56.3269,61.780323 L56.868187,66.839905 L60.768555,69.63429 L63.294125,71.32269 L59.693867,66.87429 L60.768555,69.63429 L63.294125,71.32269 L65.44975,72.96309 L62.208015,66.86376 L63.294125,71.32269 L59.693867,66.87429 L62.208015,66.86376 L59.079266,60.361324 L59.693867,66.87429 L56.3269,61.780323 L59.079266,60.361324 L55.984375,54.42723 L56.3269,61.780323 L53.09627,56.99845 L55.984375,54.42723 L52.94091,49.573563 L53.09627,56.99845 L50.000008,53.46563 L52.94091,49.573563 L50.000004,45.093773 L50.000008,53.46563 L47.080326,50.70291 L50.000004,45.093773 L47.1573,40.391773 L47.080326,50.70291 L44.31419,47.584267 L47.1573,40.391773 L44.403126,35.88025 L44.31419,47.584267 L41.621456,43.297615 L44.403126,35.88025 L41.77169,32.315422 L41.621456,43.297615 L38.992966,38.719326 L41.77169,32.315422 L39.326782,30.271255 L38.992966,38.719326 L36.50599,35.100918 L39.326782,30.271255 L37.123722,29.875977 L36.50599,35.100918 L34.16343,32.173836 L37.123722,29.875977 L35.173153,30.737457 L34.16343,32.173836 L32.072796,30.849396 L35.173153,30.737457 L33.47624,32.6035 L32.072796,30.849396 L30.253458,30.937824 L33.47624,32.6035 L32.069134,35.68206 L30.253458,30.937824 L28.591125,31.264061 L32.069134,35.68206 L30.892654,39.297127 L28.591125,31.264061 L27.092531,31.927372 L30.892654,39.297127 L29.626114,40.8626 L27.092531,31.927372 L25.97645,34.51134 L29.626114,40.8626 L27.897732,38.048813 L25.97645,34.51134 L25.134254,38.04409 L27.897732,38.048813 L26.071634,34.272385 L25.134254,38.04409 L24.115038,39.566288 L26.071634,34.272385 L24.609787,32.85015 L24.115038,39.566288 L22.932938,39.499622 L24.609787,32.85015 L23.528357,33.58082 L22.932938,39.499622 L21.917362,40.027092 L23.528357,33.58082 L22.73899,35.67429 L21.917362,40.027092 L21.106865,41.336193 L22.73899,35.67429 L21.106865,41.336193 L22.73899,35.67429 L24.030964,27.4547 L22.73899,35.67429 L23.528357,33.58082 L25.071115,26.27874 L24.030964,27.4547 L23.528357,33.58082 L24.609787,32.85015 L26.25783,25.58165 L25.071115,26.27874 L24.609787,32.85015 L26.071634,34.272385 L27.61802,25.609848 L26.25783,25.58165 L26.071634,34.272385 L27.897732,38.048813 L29.253752,27.328335 L27.61802,25.609848 L27.897732,38.048813 L29.626114,40.8626 L31.310883,32.42313 L29.253752,27.328335 L29.626114,40.8626 L30.892654,39.297127 L33.557987,39.414032 L31.310883,32.42313 L30.892654,39.297127 L32.069134,35.68206 L35.37024,41.895195 L33.557987,39.414032 L32.069134,35.68206 L33.47624,32.6035 L36.806232,38.905224 L35.37024,41.895195 L33.47624,32.6035 L35.173153,30.737457 L38.323704,34.461105 L36.806232,38.905224 L35.173153,30.737457 L37.123722,29.875977 L40.106934,30.586605 L38.323704,34.461105 L37.123722,29.875977 L39.326782,30.271255 L42.202778,28.246223 L40.106934,30.586605 L39.326782,30.271255 L41.77169,32.315422 L44.618538,28.793465 L42.202778,28.246223 L41.77169,32.315422 L44.403126,35.88025 L47.255814,32.22535 L44.618538,28.793465 L44.403126,35.88025 L47.1573,40.391773 L50.000004,37.27373 L47.255814,32.22535 L47.1573,40.391773 L50.000004,45.093773 L52.80361,42.670883 L50.000004,37.27373 L50.000004,45.093773 L52.94091,49.573563 L55.677025,47.829586 L52.80361,42.670883 L52.94091,49.573563 L55.984375,54.42723 L58.613388,53.28689 L55.677025,47.829586 L55.984375,54.42723 L59.079266,60.361324 L61.558067,59.63067 L58.613388,53.28689 L59.079266,60.361324 L62.208015,66.86376 L64.513756,66.31586 L61.558067,59.63067 L62.208015,66.86376 L65.44975,72.96309 L67.618484,72.13626 L64.513756,66.31586 L65.44975,72.96309 L67.618484,72.13626 L70.04587,68.19628 L66.67607,65.21446 L67.618484,72.13626 L64.513756,66.31586 L66.67607,65.21446 L63.771687,59.502052 L64.513756,66.31586 L61.558067,59.63067 L63.771687,59.502052 L60.997967,52.79239 L61.558067,59.63067 L58.613388,53.28689 L60.997967,52.79239 L58.26574,45.48952 L58.613388,53.28689 L55.677025,47.829586 L58.26574,45.48952 L55.488533,39.17527 L55.677025,47.829586 L52.80361,42.670883 L55.488533,39.17527 L52.712173,34.254303 L52.80361,42.670883 L50.000004,37.27373 L52.712173,34.254303 L50.000008,30.486443 L50.000004,37.27373 L47.255814,32.22535 L50.000008,30.486443 L47.39299,27.702667 L47.255814,32.22535 L44.618538,28.793465 L47.39299,27.702667 L44.980198,27.986977 L44.618538,28.793465 L42.202778,28.246223 L44.980198,27.986977 L42.925575,32.779503 L42.202778,28.246223 L40.106934,30.586605 L42.925575,32.779503 L41.20163,38.857113 L40.106934,30.586605 L38.323704,34.461105 L41.20163,38.857113 L39.584488,42.434425 L38.323704,34.461105 L36.806232,38.905224 L39.584488,42.434425 L37.690712,39.714317 L36.806232,38.905224 L35.37024,41.895195 L37.690712,39.714317 L35.55992,33.568836 L35.37024,41.895195 L33.557987,39.414032 L35.55992,33.568836 L33.646347,29.949142 L33.557987,39.414032 L31.310883,32.42313 L33.646347,29.949142 L31.879898,27.506172 L31.310883,32.42313 L29.253752,27.328335 L31.879898,27.506172 L30.339836,26.72182 L29.253752,27.328335 L27.61802,25.609848 L30.339836,26.72182 L28.856312,25.852371 L27.61802,25.609848 L26.25783,25.58165 L28.856312,25.852371 L27.339409,24.233437 L26.25783,25.58165 L25.071115,26.27874 L27.339409,24.233437 L25.850163,22.482445 L25.071115,26.27874 L24.030964,27.4547 L25.850163,22.482445 L24.030964,27.4547 L25.850163,22.482445 L28.02308,20.437683 L25.850163,22.482445 L27.339409,24.233437 L29.74325,24.079254 L28.02308,20.437683 L27.339409,24.233437 L28.856312,25.852371 L31.412096,27.083057 L29.74325,24.079254 L28.856312,25.852371 L30.339836,26.72182 L32.96042,28.55899 L31.412096,27.083057 L30.339836,26.72182 L31.879898,27.506172 L34.42358,28.451824 L32.96042,28.55899 L31.879898,27.506172 L33.646347,29.949142 L36.08429,29.757729 L34.42358,28.451824 L33.646347,29.949142 L35.55992,33.568836 L38.04951,34.469013 L36.08429,29.757729 L35.55992,33.568836 L37.690712,39.714317 L39.983147,38.544346 L38.04951,34.469013 L37.690712,39.714317 L39.584488,42.434425 L41.961388,43.111706 L39.983147,38.544346 L39.584488,42.434425 L41.20163,38.857113 L43.692276,40.9046 L41.961388,43.111706 L41.20163,38.857113 L42.925575,32.779503 L45.46023,33.51316 L43.692276,40.9046 L42.925575,32.779503 L44.980198,27.986977 L47.57324,27.73613 L45.46023,33.51316 L44.980198,27.986977 L47.39299,27.702667 L50.000004,27.572395 L47.57324,27.73613 L47.39299,27.702667 L50.000008,30.486443 L52.579903,29.55838 L50.000004,27.572395 L50.000008,30.486443 L52.712173,34.254303 L55.277603,32.21539 L52.579903,29.55838 L52.712173,34.254303 L55.488533,39.17527 L58.041985,36.250477 L55.277603,32.21539 L55.488533,39.17527 L58.26574,45.48952 L60.78727,42.060966 L58.041985,36.250477 L58.26574,45.48952 L60.997967,52.79239 L63.285885,51.205395 L60.78727,42.060966 L60.997967,52.79239 L63.771687,59.502052 L65.762924,59.61284 L63.285885,51.205395 L63.771687,59.502052 L66.67607,65.21446 L68.63359,64.41901 L65.762924,59.61284 L66.67607,65.21446 L70.04587,68.19628 L72.29849,64.81065 L68.63359,64.41901 L70.04587,68.19628 L72.29849,64.81065 L73.93837,64.53199 L70.335434,64.36412 L72.29849,64.81065 L68.63359,64.41901 L70.335434,64.36412 L67.636826,59.227158 L68.63359,64.41901 L65.762924,59.61284 L67.636826,59.227158 L65.55852,48.36972 L65.762924,59.61284 L63.285885,51.205395 L65.55852,48.36972 L63.017193,41.142677 L63.285885,51.205395 L60.78727,42.060966 L63.017193,41.142677 L60.1981,38.097458 L60.78727,42.060966 L58.041985,36.250477 L60.1981,38.097458 L57.52924,34.3584 L58.041985,36.250477 L55.277603,32.21539 L57.52924,34.3584 L54.93881,30.861092 L55.277603,32.21539 L52.579903,29.55838 L54.93881,30.861092 L52.41598,28.52953 L52.579903,29.55838 L50.000004,27.572395 L52.41598,28.52953 L50.000004,27.089062 L50.000004,27.572395 L47.57324,27.73613 L50.000004,27.089062 L47.7728,31.114037 L47.57324,27.73613 L45.46023,33.51316 L47.7728,31.114037 L45.888836,39.38703 L45.46023,33.51316 L43.692276,40.9046 L45.888836,39.38703 L44.16627,43.461037 L43.692276,40.9046 L41.961388,43.111706 L44.16627,43.461037 L42.284374,39.883377 L41.961388,43.111706 L39.983147,38.544346 L42.284374,39.883377 L40.40184,35.817932 L39.983147,38.544346 L38.04951,34.469013 L40.40184,35.817932 L38.46031,30.620426 L38.04951,34.469013 L36.08429,29.757729 L38.46031,30.620426 L36.81261,29.437885 L36.08429,29.757729 L34.42358,28.451824 L36.81261,29.437885 L35.319313,29.365753 L34.42358,28.451824 L32.96042,28.55899 L35.319313,29.365753 L33.70373,27.125816 L32.96042,28.55899 L31.412096,27.083057 L33.70373,27.125816 L31.944138,23.055283 L31.412096,27.083057 L29.74325,24.079254 L31.944138,23.055283 L30.173979,18.814331 L29.74325,24.079254 L28.02308,20.437683 L30.173979,18.814331 L28.02308,20.437683 L30.173979,18.814331 L32.485214,19.662971 L30.173979,18.814331 L31.944138,23.055283 L34.047127,21.913025 L32.485214,19.662971 L31.944138,23.055283 L33.70373,27.125816 L35.81601,26.358486 L34.047127,21.913025 L33.70373,27.125816 L35.319313,29.365753 L37.50428,29.655266 L35.81601,26.358486 L35.319313,29.365753 L36.81261,29.437885 L39.101967,31.171028 L37.50428,29.655266 L36.81261,29.437885 L38.46031,30.620426 L40.81873,33.90647 L39.101967,31.171028 L38.46031,30.620426 L40.40184,35.817932 L42.64015,38.22139 L40.81873,33.90647 L40.40184,35.817932 L42.284374,39.883377 L44.442158,41.76197 L42.64015,38.22139 L42.284374,39.883377 L44.16627,43.461037 L46.170853,41.118202 L44.442158,41.76197 L44.16627,43.461037 L45.888836,39.38703 L47.935505,33.432358 L46.170853,41.118202 L45.888836,39.38703 L47.7728,31.114037 L50.000004,28.048943 L47.935505,33.432358 L47.7728,31.114037 L50.000004,27.089062 L52.261387,28.42939 L50.000004,28.048943 L50.000004,27.089062 L52.41598,28.52953 L54.56497,32.55588 L52.261387,28.42939 L52.41598,28.52953 L54.93881,30.861092 L56.967716,35.3937 L54.56497,32.55588 L54.93881,30.861092 L57.52924,34.3584 L59.382637,39.641174 L56.967716,35.3937 L57.52924,34.3584 L60.1981,38.097458 L61.89141,43.353287 L59.382637,39.641174 L60.1981,38.097458 L63.017193,41.142677 L64.68429,44.82739 L61.89141,43.353287 L63.017193,41.142677 L65.55852,48.36972 L67.52484,47.470966 L64.68429,44.82739 L65.55852,48.36972 L67.636826,59.227158 L69.60542,57.0308 L67.52484,47.470966 L67.636826,59.227158 L70.335434,64.36412 L71.90598,64.2133 L69.60542,57.0308 L70.335434,64.36412 L73.93837,64.53199 L75.207596,65.544334 L71.90598,64.2133 L73.93837,64.53199 L75.207596,65.544334 L76.615135,65.05493 L73.61848,62.433357 L75.207596,65.544334 L71.90598,64.2133 L73.61848,62.433357 L71.482666,54.85701 L71.90598,64.2133 L69.60542,57.0308 L71.482666,54.85701 L68.99747,49.617256 L69.60542,57.0308 L67.52484,47.470966 L68.99747,49.617256 L66.08451,48.860897 L67.52484,47.470966 L64.68429,44.82739 L66.08451,48.860897 L63.32859,48.455856 L64.68429,44.82739 L61.89141,43.353287 L63.32859,48.455856 L60.964645,44.92108 L61.89141,43.353287 L59.382637,39.641174 L60.964645,44.92108 L58.745163,39.868652 L59.382637,39.641174 L56.967716,35.3937 L58.745163,39.868652 L56.427883,37.75846 L56.967716,35.3937 L54.56497,32.55588 L56.427883,37.75846 L54.240227,34.154644 L54.56497,32.55588 L52.261387,28.42939 L54.240227,34.154644 L52.123634,28.4879 L52.261387,28.42939 L50.000004,28.048943 L52.123634,28.4879 L50.000008,28.462505 L50.000004,28.048943 L47.935505,33.432358 L50.000008,28.462505 L48.056046,33.66044 L47.935505,33.432358 L46.170853,41.118202 L48.056046,33.66044 L46.362816,40.170742 L46.170853,41.118202 L44.442158,41.76197 L46.362816,40.170742 L44.675312,39.659462 L44.442158,41.76197 L42.64015,38.22139 L44.675312,39.659462 L42.95187,36.40041 L42.64015,38.22139 L40.81873,33.90647 L42.95187,36.40041 L41.250694,33.138157 L40.81873,33.90647 L39.101967,31.171028 L41.250694,33.138157 L39.570805,29.885899 L39.101967,31.171028 L37.50428,29.655266 L39.570805,29.885899 L37.858994,25.872734 L37.50428,29.655266 L35.81601,26.358486 L37.858994,25.872734 L36.27437,23.470528 L35.81601,26.358486 L34.047127,21.913025 L36.27437,23.470528 L35.024982,24.768692 L34.047127,21.913025 L32.485214,19.662971 L35.024982,24.768692 L32.485214,19.662971 L35.024982,24.768692 L37.23469,28.159645 L35.024982,24.768692 L36.27437,23.470528 L38.533264,27.578499 L37.23469,28.159645 L36.27437,23.470528 L37.858994,25.872734 L39.897827,26.87732 L38.533264,27.578499 L37.858994,25.872734 L39.570805,29.885899 L41.509293,29.643097 L39.897827,26.87732 L39.570805,29.885899 L41.250694,33.138157 L43.178177,33.204887 L41.509293,29.643097 L41.250694,33.138157 L42.95187,36.40041 L44.851933,36.482376 L43.178177,33.204887 L42.95187,36.40041 L44.675312,39.659462 L46.497036,37.41638 L44.851933,36.482376 L44.675312,39.659462 L46.362816,40.170742 L48.151794,32.78547 L46.497036,37.41638 L46.362816,40.170742 L48.056046,33.66044 L50.000004,28.785 L48.151794,32.78547 L48.056046,33.66044 L50.000008,28.462505 L51.992817,29.327587 L50.000004,28.785 L50.000008,28.462505 L52.123634,28.4879 L53.975887,34.79724 L51.992817,29.327587 L52.123634,28.4879 L54.240227,34.154644 L55.965748,39.781307 L53.975887,34.79724 L54.240227,34.154644 L56.427883,37.75846 L58.160664,40.63755 L55.965748,39.781307 L56.427883,37.75846 L58.745163,39.868652 L60.30156,44.2249 L58.160664,40.63755 L58.745163,39.868652 L60.964645,44.92108 L62.337208,49.758526 L60.30156,44.2249 L60.964645,44.92108 L63.32859,48.455856 L64.68805,51.87587 L62.337208,49.758526 L63.32859,48.455856 L66.08451,48.860897 L67.440346,51.39252 L64.68805,51.87587 L66.08451,48.860897 L68.99747,49.617256 L70.4,50.99015 L67.440346,51.39252 L68.99747,49.617256 L71.482666,54.85701 L73.09039,53.942314 L70.4,50.99015 L71.482666,54.85701 L73.61848,62.433357 L75.4269,59.63552 L73.09039,53.942314 L73.61848,62.433357 L76.615135,65.05493 L78.189575,63.206753 L75.4269,59.63552 L76.615135,65.05493 L78.189575,63.206753 L80.02263,59.76876 L77.2814,56.287216 L78.189575,63.206753 L75.4269,59.63552 L77.2814,56.287216 L74.74916,52.135696 L75.4269,59.63552 L73.09039,53.942314 L74.74916,52.135696 L72.07176,49.467297 L73.09039,53.942314 L70.4,50.99015 L72.07176,49.467297 L69.04816,50.54065 L70.4,50.99015 L67.440346,51.39252 L69.04816,50.54065 L66.29217,51.254646 L67.440346,51.39252 L64.68805,51.87587 L66.29217,51.254646 L63.812885,51.062733 L64.68805,51.87587 L62.337208,49.758526 L63.812885,51.062733 L61.670418,48.349 L62.337208,49.758526 L60.30156,44.2249 L61.670418,48.349 L59.74501,43.09115 L60.30156,44.2249 L58.160664,40.63755 L59.74501,43.09115 L57.654495,41.20038 L58.160664,40.63755 L55.965748,39.781307 L57.654495,41.20038 L55.632023,39.569077 L55.965748,39.781307 L53.975887,34.79724 L55.632023,39.569077 L53.74998,35.02636 L53.975887,34.79724 L51.992817,29.327587 L53.74998,35.02636 L51.872593,30.499733 L51.992817,29.327587 L50.000004,28.785 L51.872593,30.499733 L50.000004,29.228317 L50.000004,28.785 L48.151794,32.78547 L50.000004,29.228317 L48.223648,30.519772 L48.151794,32.78547 L46.497036,37.41638 L48.223648,30.519772 L46.575607,32.521454 L46.497036,37.41638 L44.851933,36.482376 L46.575607,32.521454 L44.95435,31.332214 L44.851933,36.482376 L43.178177,33.204887 L44.95435,31.332214 L43.346855,29.049461 L43.178177,33.204887 L41.509293,29.643097 L43.346855,29.049461 L41.86153,28.712929 L41.509293,29.643097 L39.897827,26.87732 L41.86153,28.712929 L40.5422,30.318626 L39.897827,26.87732 L38.533264,27.578499 L40.5422,30.318626 L39.11436,28.742676 L38.533264,27.578499 L37.23469,28.159645 L39.11436,28.742676 L37.23469,28.159645 L39.11436,28.742676 L40.862396,28.550446 L39.11436,28.742676 L40.5422,30.318626 L42.32115,30.945965 L40.862396,28.550446 L40.5422,30.318626 L41.86153,28.712929 L43.690567,30.20063 L42.32115,30.945965 L41.86153,28.712929 L43.346855,29.049461 L45.12027,28.834534 L43.690567,30.20063 L43.346855,29.049461 L44.95435,31.332214 L46.667717,28.745491 L45.12027,28.834534 L44.95435,31.332214 L46.575607,32.521454 L48.29331,28.754074 L46.667717,28.745491 L46.575607,32.521454 L48.223648,30.519772 L50.000004,29.75853 L48.29331,28.754074 L48.223648,30.519772 L50.000004,29.228317 L51.771816,30.9691 L50.000004,29.75853 L50.000004,29.228317 L51.872593,30.499733 L53.60514,32.497078 L51.771816,30.9691 L51.872593,30.499733 L53.74998,35.02636 L55.41999,36.681305 L53.60514,32.497078 L53.74998,35.02636 L55.632023,39.569077 L57.27771,40.095108 L55.41999,36.681305 L55.632023,39.569077 L57.654495,41.20038 L59.231926,42.3147 L57.27771,40.095108 L57.654495,41.20038 L59.74501,43.09115 L61.14659,46.013084 L59.231926,42.3147 L59.74501,43.09115 L61.670418,48.349 L63.230247,48.02234 L61.14659,46.013084 L61.670418,48.349 L63.812885,51.062733 L65.66139,47.326874 L63.230247,48.02234 L63.812885,51.062733 L66.29217,51.254646 L68.25174,46.765465 L65.66139,47.326874 L66.29217,51.254646 L69.04816,50.54065 L70.96892,46.665043 L68.25174,46.765465 L69.04816,50.54065 L72.07176,49.467297 L74.08472,45.17162 L70.96892,46.665043 L72.07176,49.467297 L74.74916,52.135696 L76.82951,47.43685 L74.08472,45.17162 L74.74916,52.135696 L77.2814,56.287216 L79.21775,52.300198 L76.82951,47.43685 L77.2814,56.287216 L80.02263,59.76876 L82.02417,55.36536 L79.21775,52.300198 L80.02263,59.76876 L82.02417,55.36536 L83.900665,51.44323 L81.36328,47.121643 L82.02417,55.36536 L79.21775,52.300198 L81.36328,47.121643 L79.07641,41.708252 L79.21775,52.300198 L76.82951,47.43685 L79.07641,41.708252 L76.29506,39.491203 L76.82951,47.43685 L74.08472,45.17162 L76.29506,39.491203 L73.08807,41.192253 L74.08472,45.17162 L70.96892,46.665043 L73.08807,41.192253 L70.25906,41.793808 L70.96892,46.665043 L68.25174,46.765465 L70.25906,41.793808 L67.55078,43.00037 L68.25174,46.765465 L65.66139,47.326874 L67.55078,43.00037 L65.00533,44.470715 L65.66139,47.326874 L63.230247,48.02234 L65.00533,44.470715 L62.67477,45.481358 L63.230247,48.02234 L61.14659,46.013084 L62.67477,45.481358 L60.70698,43.281647 L61.14659,46.013084 L59.231926,42.3147 L60.70698,43.281647 L58.81656,40.745945 L59.231926,42.3147 L57.27771,40.095108 L58.81656,40.745945 L57.02443,36.971188 L57.27771,40.095108 L55.41999,36.681305 L57.02443,36.971188 L55.30111,31.44101 L55.41999,36.681305 L53.60514,32.497078 L55.30111,31.44101 L53.484474,29.47702 L53.60514,32.497078 L51.771816,30.9691 L53.484474,29.47702 L51.68123,31.400852 L51.771816,30.9691 L50.000004,29.75853 L51.68123,31.400852 L50.000004,30.245987 L50.000004,29.75853 L48.29331,28.754074 L50.000004,30.245987 L48.37717,29.242554 L48.29331,28.754074 L46.667717,28.745491 L48.37717,29.242554 L46.83497,29.625542 L46.667717,28.745491 L45.12027,28.834534 L46.83497,29.625542 L45.384354,30.629074 L45.12027,28.834534 L43.690567,30.20063 L45.384354,30.629074 L43.973957,30.464966 L43.690567,30.20063 L42.32115,30.945965 L43.973957,30.464966 L42.532295,28.191917 L42.32115,30.945965 L40.862396,28.550446 L42.532295,28.191917 L40.862396,28.550446 L42.532295,28.191917 L44.131813,27.629807 L42.532295,28.191917 L43.973957,30.464966 L45.548256,29.338448 L44.131813,27.629807 L43.973957,30.464966 L45.384354,30.629074 L46.979816,30.047245 L45.548256,29.338448 L45.384354,30.629074 L46.83497,29.625542 L48.456432,30.056438 L46.979816,30.047245 L46.83497,29.625542 L48.37717,29.242554 L50.000004,30.423546 L48.456432,30.056438 L48.37717,29.242554 L50.000004,30.245987 L51.602325,31.478119 L50.000004,30.423546 L50.000004,30.245987 L51.68123,31.400852 L53.310677,29.895954 L51.602325,31.478119 L51.68123,31.400852 L53.484474,29.47702 L55.16793,27.097641 L53.310677,29.895954 L53.484474,29.47702 L55.30111,31.44101 L56.928482,30.502304 L55.16793,27.097641 L55.30111,31.44101 L57.02443,36.971188 L58.57509,36.582 L56.928482,30.502304 L57.02443,36.971188 L58.81656,40.745945 L60.344498,40.055103 L58.57509,36.582 L58.81656,40.745945 L60.70698,43.281647 L62.275986,41.64597 L60.344498,40.055103 L60.70698,43.281647 L62.67477,45.481358 L64.356766,42.360367 L62.275986,41.64597 L62.67477,45.481358 L65.00533,44.470715 L66.76934,40.817913 L64.356766,42.360367 L65.00533,44.470715 L67.55078,43.00037 L69.41124,38.830856 L66.76934,40.817913 L67.55078,43.00037 L70.25906,41.793808 L72.21506,37.191372 L69.41124,38.830856 L70.25906,41.793808 L73.08807,41.192253 L75.33292,34.887207 L72.21506,37.191372 L73.08807,41.192253 L76.29506,39.491203 L78.51001,33.79511 L75.33292,34.887207 L76.29506,39.491203 L79.07641,41.708252 L80.99667,37.758354 L78.51001,33.79511 L79.07641,41.708252 L81.36328,47.121643 L83.28342,43.012848 L80.99667,37.758354 L81.36328,47.121643 L83.900665,51.44323 L85.749565,47.539326 L83.28342,43.012848 L83.900665,51.44323 L85.749565,47.539326 L87.30931,44.793453 L84.60807,41.6389 L85.749565,47.539326 L83.28342,43.012848 L84.60807,41.6389 L82.060356,38.172386 L83.28342,43.012848 L80.99667,37.758354 L82.060356,38.172386 L79.76415,33.676147 L80.99667,37.758354 L78.51001,33.79511 L79.76415,33.676147 L77.39941,29.824303 L78.51001,33.79511 L75.33292,34.887207 L77.39941,29.824303 L74.56677,29.68869 L75.33292,34.887207 L72.21506,37.191372 L74.56677,29.68869 L71.43425,33.25163 L72.21506,37.191372 L69.41124,38.830856 L71.43425,33.25163 L68.57736,36.60012 L69.41124,38.830856 L66.76934,40.817913 L68.57736,36.60012 L66.12821,38.053825 L66.76934,40.817913 L64.356766,42.360367 L66.12821,38.053825 L63.938717,38.29702 L64.356766,42.360367 L62.275986,41.64597 L63.938717,38.29702 L61.92913,37.654922 L62.275986,41.64597 L60.344498,40.055103 L61.92913,37.654922 L60.167385,34.309193 L60.344498,40.055103 L58.57509,36.582 L60.167385,34.309193 L58.537136,28.67857 L58.57509,36.582 L56.928482,30.502304 L58.537136,28.67857 L56.74911,26.496391 L56.928482,30.502304 L55.16793,27.097641 L56.74911,26.496391 L54.874382,29.02924 L55.16793,27.097641 L53.310677,29.895954 L54.874382,29.02924 L53.14244,30.885426 L53.310677,29.895954 L51.602325,31.478119 L53.14244,30.885426 L51.53958,30.511875 L51.602325,31.478119 L50.000004,30.423546 L51.53958,30.511875 L50.000004,29.67928 L50.000004,30.423546 L48.456432,30.056438 L50.000004,29.67928 L48.51222,28.877335 L48.456432,30.056438 L46.979816,30.047245 L48.51222,28.877335 L47.067673,27.736912 L46.979816,30.047245 L45.548256,29.338448 L47.067673,27.736912 L45.659786,26.433872 L45.548256,29.338448 L44.131813,27.629807 L45.659786,26.433872 L44.131813,27.629807 L45.659786,26.433872 L47.136215,24.648499 L45.659786,26.433872 L47.067673,27.736912 L48.550076,26.037727 L47.136215,24.648499 L47.067673,27.736912 L48.51222,28.877335 L50.000004,27.63567 L48.550076,26.037727 L48.51222,28.877335 L50.000004,29.67928 L51.487118,28.957767 L50.000004,27.63567 L50.000004,29.67928 L51.53958,30.511875 L53.02491,29.772232 L51.487118,28.957767 L51.53958,30.511875 L53.14244,30.885426 L54.63037,30.069813 L53.02491,29.772232 L53.14244,30.885426 L54.874382,29.02924 L56.337654,29.414246 L54.63037,30.069813 L54.874382,29.02924 L56.74911,26.496391 L58.18485,27.702415 L56.337654,29.414246 L56.74911,26.496391 L58.537136,28.67857 L60.078465,27.298088 L58.18485,27.702415 L58.537136,28.67857 L60.167385,34.309193 L61.82637,30.54303 L60.078465,27.298088 L60.167385,34.309193 L61.92913,37.654922 L63.562996,34.22701 L61.82637,30.54303 L61.92913,37.654922 L63.938717,38.29702 L65.615555,34.600964 L63.562996,34.22701 L63.938717,38.29702 L66.12821,38.053825 L68.00868,32.660847 L65.615555,34.600964 L66.12821,38.053825 L68.57736,36.60012 L70.69002,29.719513 L68.00868,32.660847 L68.57736,36.60012 L71.43425,33.25163 L73.43989,27.879822 L70.69002,29.719513 L71.43425,33.25163 L74.56677,29.68869 L75.80688,30.00747 L73.43989,27.879822 L74.56677,29.68869 L77.39941,29.824303 L77.86426,34.593544 L75.80688,30.00747 L77.39941,29.824303 L79.76415,33.676147 L79.90342,39.364784 L77.86426,34.593544 L79.76415,33.676147 L82.060356,38.172386 L82.3286,42.22917 L79.90342,39.364784 L82.060356,38.172386 L84.60807,41.6389 L85.31605,42.8813 L82.3286,42.22917 L84.60807,41.6389 L87.30931,44.793453 L88.59093,43.088192 L85.31605,42.8813 L87.30931,44.793453 L88.59093,43.088192 L89.604324,42.32956 L86.53079,41.5033 L88.59093,43.088192 L85.31605,42.8813 L86.53079,41.5033 L83.94027,39.120186 L85.31605,42.8813 L82.3286,42.22917 L83.94027,39.120186 L81.16426,38.25855 L82.3286,42.22917 L79.90342,39.364784 L81.16426,38.25855 L78.365616,38.3539 L79.90342,39.364784 L77.86426,34.593544 L78.365616,38.3539 L76.0978,36.016953 L77.86426,34.593544 L75.80688,30.00747 L76.0978,36.016953 L74.17755,31.69783 L75.80688,30.00747 L73.43989,27.879822 L74.17755,31.69783 L71.95053,29.931633 L73.43989,27.879822 L70.69002,29.719513 L71.95053,29.931633 L69.50879,30.799454 L70.69002,29.719513 L68.00868,32.660847 L69.50879,30.799454 L67.19975,31.733364 L68.00868,32.660847 L65.615555,34.600964 L67.19975,31.733364 L65.197845,30.629456 L65.615555,34.600964 L63.562996,34.22701 L65.197845,30.629456 L63.350418,28.462578 L63.562996,34.22701 L61.82637,30.54303 L63.350418,28.462578 L61.436504,28.049282 L61.82637,30.54303 L60.078465,27.298088 L61.436504,28.049282 L59.559727,28.424728 L60.078465,27.298088 L58.18485,27.702415 L59.559727,28.424728 L57.78759,28.466183 L58.18485,27.702415 L56.337654,29.414246 L57.78759,28.466183 L56.084705,28.755661 L56.337654,29.414246 L54.63037,30.069813 L56.084705,28.755661 L54.4595,29.030914 L54.63037,30.069813 L53.02491,29.772232 L54.4595,29.030914 L52.919937,28.491325 L53.02491,29.772232 L51.487118,28.957767 L52.919937,28.491325 L51.443745,26.806774 L51.487118,28.957767 L50.000004,27.63567 L51.443745,26.806774 L50.000004,24.573502 L50.000004,27.63567 L48.550076,26.037727 L50.000004,24.573502 L48.58316,22.96495 L48.550076,26.037727 L47.136215,24.648499 L48.58316,22.96495 L47.136215,24.648499 L48.58316,22.96495 L50.000004,21.145645 L48.58316,22.96495 L50.000004,24.573502 L51.413692,23.372574 L50.000004,21.145645 L50.000004,24.573502 L51.443745,26.806774 L52.83773,26.2998 L51.413692,23.372574 L51.443745,26.806774 L52.919937,28.491325 L54.290863,28.476963 L52.83773,26.2998 L52.919937,28.491325 L54.4595,29.030914 L55.83672,28.587029 L54.290863,28.476963 L54.4595,29.030914 L56.084705,28.755661 L57.514072,27.087704 L55.83672,28.587029 L56.084705,28.755661 L57.78759,28.466183 L59.289318,25.603096 L57.514072,27.087704 L57.78759,28.466183 L59.559727,28.424728 L61.091553,25.38836 L59.289318,25.603096 L59.559727,28.424728 L61.436504,28.049282 L62.884235,26.50219 L61.091553,25.38836 L61.436504,28.049282 L63.350418,28.462578 L64.73226,27.708038 L62.884235,26.50219 L63.350418,28.462578 L65.197845,30.629456 L66.65998,28.761055 L64.73226,27.708038 L65.197845,30.629456 L67.19975,31.733364 L68.64395,29.979534 L66.65998,28.761055 L67.19975,31.733364 L69.50879,30.799454 L70.79535,30.418583 L68.64395,29.979534 L69.50879,30.799454 L71.95053,29.931633 L73.042755,30.898952 L70.79535,30.418583 L71.95053,29.931633 L74.17755,31.69783 L75.42816,31.175087 L73.042755,30.898952 L74.17755,31.69783 L76.0978,36.016953 L78.317635,29.069542 L75.42816,31.175087 L76.0978,36.016953 L78.365616,38.3539 L81.558304,26.14008 L78.317635,29.069542 L78.365616,38.3539 L81.16426,38.25855 L84.66927,25.198067 L81.558304,26.14008 L81.16426,38.25855 L83.94027,39.120186 L87.522415,26.470814 L84.66927,25.198067 L83.94027,39.120186 L86.53079,41.5033 L89.91742,30.387074 L87.522415,26.470814 L86.53079,41.5033 L89.604324,42.32956 L91.87191,36.304775 L89.91742,30.387074 L89.604324,42.32956" fill="none" stroke="#000" stroke-width="0.35" style="mix-blend-mode: multiply;"/>
</g>
</svg>