<svg height="100mm" style="background:white" viewBox="0 0 100 100" width="100mm" xmlns="http://www.w3.org/2000/svg" xmlns:inkscape="http://www.inkscape.org/namespaces/inkscape">
<g inkscape:groupmode="layer" inkscape:label="#000">
<path d="M50.000008,63.21899 L54.502495,57.75025 L50.000008,54.91301 L50.000008,63.21899 L45.670116,63.436153 L50.000008,54.91301 L46.24532,63.355793 L45.670116,63.436153 L42.752296,77.51222 L46.24532,63.355793 L43.556503,75.44933 L42.752296,77.51222 L39.879375,77.84374 L43.556503,75.44933 L40.656258,71.90188 L39.879375,77.84374 L36.216164,66.358604 L40.656258,71.90188 L37.653847,65.288284 L36.216164,66.358604 L32.879044,58.56389 L37.653847,65.288284 L35.169212,63.262787 L32.879044,58.56389 L30.311241,56.39717 L35.169212,63.262787 L33.32335,65.20941 L30.311241,56.39717 L28.680836,59.43802 L33.32335,65.20941 L31.652245,66.59196 L28.680836,59.43802 L27.711159,64.87169 L31.652245,66.59196 L29.640608,64.19705 L27.711159,64.87169 L26.373274,66.37463 L29.640608,64.19705 L27.808292,62.362823 L26.373274,66.37463 L24.615955,64.56053 L27.808292,62.362823 L25.37608,56.318268 L24.615955,64.56053 L22.851597,62.229263 L25.37608,56.318268 L22.328703,46.709145 L22.851597,62.229263 L20.454283,56.33342 L22.328703,46.709145 L20.026009,41.50319 L20.454283,56.33342 L18.072948,50.48787 L20.026009,41.50319 L18.505138,40.315342 L18.072948,50.48787 L16.228228,47.140724 L18.505138,40.315342 L17.08623,39.263306 L16.228228,47.140724 L14.438105,43.865604 L17.08623,39.263306 L15.31189,36.13079 L14.438105,43.865604 L12.53077,39.91304 L15.31189,36.13079 L13.632197,33.277515 L12.53077,39.91304 L10.840166,36.79375 L13.632197,33.277515 L12.4406,32.51463 L10.840166,36.79375 L9.392586,34.57144 L12.4406,32.51463 L11.649127,33.30362 L9.392586,34.57144 L8.240533,33.418816 L11.649127,33.30362 L11.193092,35.27479 L8.240533,33.418816 L7.7345896,34.70922 L11.193092,35.27479 L7.7345896,34.70922 L11.193092,35.27479 L14.2502,34.955673 L11.193092,35.27479 L11.649127,33.30362 L14.667742,32.272682 L14.2502,34.955673 L11.649127,33.30362 L12.4406,32.51463 L15.34934,30.460361 L14.667742,32.272682 L12.4406,32.51463 L13.632197,33.277515 L16.44904,30.365753 L15.34934,30.460361 L13.632197,33.277515 L15.31189,36.13079 L18.053185,32.598793 L16.44904,30.365753 L15.31189,36.13079 L17.08623,39.263306 L19.697388,34.7764 L18.053185,32.598793 L17.08623,39.263306 L18.505138,40.315342 L21.041145,34.846054 L19.697388,34.7764 L18.505138,40.315342 L20.026009,41.50319 L22.521816,35.16079 L21.041145,34.846054 L20.026009,41.50319 L22.328703,46.709145 L24.660107,39.120945 L22.521816,35.16079 L22.328703,46.709145 L25.37608,56.318268 L27.605171,48.436016 L24.660107,39.120945 L25.37608,56.318268 L27.808292,62.362823 L30.46773,57.58683 L27.605171,48.436016 L27.808292,62.362823 L29.640608,64.19705 L32.55219,60.800835 L30.46773,57.58683 L29.640608,64.19705 L31.652245,66.59196 L34.639053,63.347725 L32.55219,60.800835 L31.652245,66.59196 L33.32335,65.20941 L36.819168,65.79058 L34.639053,63.347725 L33.32335,65.20941 L35.169212,63.262787 L38.97682,66.40787 L36.819168,65.79058 L35.169212,63.262787 L37.653847,65.288284 L41.41339,68.26797 L38.97682,66.40787 L37.653847,65.288284 L40.656258,71.90188 L44.07608,70.970795 L41.41339,68.26797 L40.656258,71.90188 L43.556503,75.44933 L46.766968,66.79876 L44.07608,70.970795 L43.556503,75.44933 L46.24532,63.355793 L50.000008,55.833393 L46.766968,66.79876 L46.24532,63.355793 L50.000008,54.91301 L54.00087,53.99833 L50.000008,55.833393 L50.000008,54.91301 L54.502495,57.75025 L58.440514,56.353516 L54.00087,53.99833 L54.502495,57.75025 L58.440514,56.353516 L61.705406,57.76379 L57.430042,55.44945 L58.440514,56.353516 L54.00087,53.99833 L57.430042,55.44945 L53.490494,55.70794 L54.00087,53.99833 L50.000008,55.833393 L53.490494,55.70794 L50.000004,59.630272 L50.000008,55.833393 L46.766968,66.79876 L50.000004,59.630272 L47.05245,64.158325 L46.766968,66.79876 L44.07608,70.970795 L47.05245,64.158325 L44.414513,64.53512 L44.07608,70.970795 L41.41339,68.26797 L44.414513,64.53512 L41.940235,63.107307 L41.41339,68.26797 L38.97682,66.40787 L41.940235,63.107307 L39.57697,60.805504 L38.97682,66.40787 L36.819168,65.79058 L39.57697,60.805504 L37.281116,57.814766 L36.819168,65.79058 L34.639053,63.347725 L37.281116,57.814766 L35.18196,55.87545 L34.639053,63.347725 L32.55219,60.800835 L35.18196,55.87545 L32.91971,51.49422 L32.55219,60.800835 L30.46773,57.58683 L32.91971,51.49422 L30.263758,43.532654 L30.46773,57.58683 L27.605171,48.436016 L30.263758,43.532654 L27.648685,36.15544 L27.605171,48.436016 L24.660107,39.120945 L27.648685,36.15544 L25.576912,32.783264 L24.660107,39.120945 L22.521816,35.16079 L25.576912,32.783264 L23.963902,32.13463 L22.521816,35.16079 L21.041145,34.846054 L23.963902,32.13463 L22.437485,31.461372 L21.041145,34.846054 L19.697388,34.7764 L22.437485,31.461372 L20.807556,29.671143 L19.697388,34.7764 L18.053185,32.598793 L20.807556,29.671143 L19.402481,28.848991 L18.053185,32.598793 L16.44904,30.365753 L19.402481,28.848991 L18.396032,29.884064 L16.44904,30.365753 L15.34934,30.460361 L18.396032,29.884064 L17.714642,32.22139 L15.34934,30.460361 L14.667742,32.272682 L17.714642,32.22139 L17.268028,35.305496 L14.667742,32.272682 L14.2502,34.955673 L17.268028,35.305496 L14.2502,34.955673 L17.268028,35.305496 L20.179462,36.048355 L17.268028,35.305496 L17.714642,32.22139 L20.761974,33.195335 L20.179462,36.048355 L17.714642,32.22139 L18.396032,29.884064 L21.6282,31.469894 L20.761974,33.195335 L18.396032,29.884064 L19.402481,28.848991 L22.731724,30.667763 L21.6282,31.469894 L19.402481,28.848991 L20.807556,29.671143 L23.984165,30.272213 L22.731724,30.667763 L20.807556,29.671143 L22.437485,31.461372 L25.431557,30.619907 L23.984165,30.272213 L22.437485,31.461372 L23.963902,32.13463 L27.035238,31.491814 L25.431557,30.619907 L23.963902,32.13463 L25.576912,32.783264 L28.795938,32.93646 L27.035238,31.491814 L25.576912,32.783264 L27.648685,36.15544 L30.783062,35.63508 L28.795938,32.93646 L27.648685,36.15544 L30.263758,43.532654 L33.047226,40.37391 L30.783062,35.63508 L30.263758,43.532654 L32.91971,51.49422 L35.37693,45.499542 L33.047226,40.37391 L32.91971,51.49422 L35.18196,55.87545 L37.619717,49.21255 L35.37693,45.499542 L35.18196,55.87545 L37.281116,57.814766 L39.82756,51.409046 L37.619717,49.21255 L37.281116,57.814766 L39.57697,60.805504 L42.149982,53.565987 L39.82756,51.409046 L39.57697,60.805504 L41.940235,63.107307 L44.60196,55.605995 L42.149982,53.565987 L41.940235,63.107307 L44.414513,64.53512 L47.198093,56.970158 L44.60196,55.605995 L44.414513,64.53512 L47.05245,64.158325 L50.000004,57.283073 L47.198093,56.970158 L47.05245,64.158325 L50.000004,59.630272 L53.09797,56.916824 L50.000004,57.283073 L50.000004,59.630272 L53.490494,55.70794 L56.520977,57.353916 L53.09797,56.916824 L53.490494,55.70794 L57.430042,55.44945 L60.273,58.557976 L56.520977,57.353916 L57.430042,55.44945 L61.705406,57.76379 L64.35669,60.552048 L60.273,58.557976 L61.705406,57.76379 L64.35669,60.552048 L66.37889,64.95762 L62.62664,62.08995 L64.35669,60.552048 L60.273,58.557976 L62.62664,62.08995 L59.151146,59.207726 L60.273,58.557976 L56.520977,57.353916 L59.151146,59.207726 L55.906982,56.388374 L56.520977,57.353916 L53.09797,56.916824 L55.906982,56.388374 L52.862503,53.746258 L53.09797,56.916824 L50.000004,57.283073 L52.862503,53.746258 L50.000004,51.352825 L50.000004,57.283073 L47.198093,56.970158 L50.000004,51.352825 L47.30792,49.17057 L47.198093,56.970158 L44.60196,55.605995 L47.30792,49.17057 L44.76812,46.97958 L44.60196,55.605995 L42.149982,53.565987 L44.76812,46.97958 L42.351154,44.55234 L42.149982,53.565987 L39.82756,51.409046 L42.351154,44.55234 L40.02878,41.834442 L39.82756,51.409046 L37.619717,49.21255 L40.02878,41.834442 L37.784134,38.913174 L37.619717,49.21255 L35.37693,45.499542 L37.784134,38.913174 L35.620502,36.027775 L35.37693,45.499542 L33.047226,40.37391 L35.620502,36.027775 L33.588074,33.777657 L33.047226,40.37391 L30.783062,35.63508 L33.588074,33.777657 L31.784882,32.98082 L30.783062,35.63508 L28.795938,32.93646 L31.784882,32.98082 L30.267105,33.836937 L28.795938,32.93646 L27.035238,31.491814 L30.267105,33.836937 L28.932125,35.23491 L27.035238,31.491814 L25.431557,30.619907 L28.932125,35.23491 L27.470642,34.801895 L25.431557,30.619907 L23.984165,30.272213 L27.470642,34.801895 L25.889633,32.965607 L23.984165,30.272213 L22.731724,30.667763 L25.889633,32.965607 L24.46371,31.85352 L22.731724,30.667763 L21.6282,31.469894 L24.46371,31.85352 L23.40812,32.79731 L21.6282,31.469894 L20.761974,33.195335 L23.40812,32.79731 L22.748812,35.735683 L20.761974,33.195335 L20.179462,36.048355 L22.748812,35.735683 L20.179462,36.048355 L22.748812,35.735683 L24.696215,32.030518 L22.748812,35.735683 L23.40812,32.79731 L25.360262,28.364212 L24.696215,32.030518 L23.40812,32.79731 L24.46371,31.85352 L26.418533,26.80338 L25.360262,28.364212 L24.46371,31.85352 L25.889633,32.965607 L27.904902,27.923004 L26.418533,26.80338 L25.889633,32.965607 L27.470642,34.801895 L29.671085,30.924091 L27.904902,27.923004 L27.470642,34.801895 L28.932125,35.23491 L31.606983,35.174446 L29.671085,30.924091 L28.932125,35.23491 L30.267105,33.836937 L33.49,38.724907 L31.606983,35.174446 L30.267105,33.836937 L31.784882,32.98082 L35.01433,37.901 L33.49,38.724907 L31.784882,32.98082 L33.588074,33.777657 L36.457527,34.48696 L35.01433,37.901 L33.588074,33.777657 L35.620502,36.027775 L38.20927,32.77922 L36.457527,34.48696 L35.620502,36.027775 L37.784134,38.913174 L40.249504,33.115677 L38.20927,32.77922 L37.784134,38.913174 L40.02878,41.834442 L42.49959,35.015697 L40.249504,33.115677 L40.02878,41.834442 L42.351154,44.55234 L44.900623,38.086357 L42.49959,35.015697 L42.351154,44.55234 L44.76812,46.97958 L47.400555,41.395103 L44.900623,38.086357 L44.76812,46.97958 L47.30792,49.17057 L50.000004,44.415237 L47.400555,41.395103 L47.30792,49.17057 L50.000004,51.352825 L52.719288,47.585682 L50.000004,44.415237 L50.000004,51.352825 L52.862503,53.746258 L55.54225,51.586533 L52.719288,47.585682 L52.862503,53.746258 L55.906982,56.388374 L58.45009,56.18358 L55.54225,51.586533 L55.906982,56.388374 L59.151146,59.207726 L61.470833,60.735973 L58.45009,56.18358 L59.151146,59.207726 L62.62664,62.08995 L64.673996,64.77281 L61.470833,60.735973 L62.62664,62.08995 L66.37889,64.95762 L68.1732,67.919106 L64.673996,64.77281 L66.37889,64.95762 L68.1732,67.919106 L70.20989,67.06808 L66.61405,65.738304 L68.1732,67.919106 L64.673996,64.77281 L66.61405,65.738304 L63.57622,61.582474 L64.673996,64.77281 L61.470833,60.735973 L63.57622,61.582474 L60.80061,55.543102 L61.470833,60.735973 L58.45009,56.18358 L60.80061,55.543102 L58.109734,48.520428 L58.45009,56.18358 L55.54225,51.586533 L58.109734,48.520428 L55.369293,42.801304 L55.54225,51.586533 L52.719288,47.585682 L55.369293,42.801304 L52.639126,38.882195 L52.719288,47.585682 L50.000004,44.415237 L52.639126,38.882195 L50.000004,36.00561 L50.000004,44.415237 L47.400555,41.395103 L50.000004,36.00561 L47.471035,33.04275 L47.400555,41.395103 L44.900623,38.086357 L47.471035,33.04275 L45.03606,29.96891 L44.900623,38.086357 L42.49959,35.015697 L45.03606,29.96891 L42.820724,30.210995 L42.49959,35.015697 L40.249504,33.115677 L42.820724,30.210995 L40.95093,34.092426 L40.249504,33.115677 L38.20927,32.77922 L40.95093,34.092426 L39.374447,39.134315 L38.20927,32.77922 L36.457527,34.48696 L39.374447,39.134315 L37.72744,40.21077 L36.457527,34.48696 L35.01433,37.901 L37.72744,40.21077 L35.745262,35.783 L35.01433,37.901 L33.49,38.724907 L35.745262,35.783 L33.819275,31.811592 L33.49,38.724907 L31.606983,35.174446 L33.819275,31.811592 L31.944304,28.140907 L31.606983,35.174446 L29.671085,30.924091 L31.944304,28.140907 L30.236053,25.775017 L29.671085,30.924091 L27.904902,27.923004 L30.236053,25.775017 L28.692612,24.457031 L27.904902,27.923004 L26.418533,26.80338 L28.692612,24.457031 L27.322895,24.100937 L26.418533,26.80338 L25.360262,28.364212 L27.322895,24.100937 L26.4497,27.040337 L25.360262,28.364212 L24.696215,32.030518 L26.4497,27.040337 L24.696215,32.030518 L26.4497,27.040337 L28.439167,23.952385 L26.4497,27.040337 L27.322895,24.100937 L29.590462,22.706505 L28.439167,23.952385 L27.322895,24.100937 L28.692612,24.457031 L31.085247,23.93563 L29.590462,22.706505 L28.692612,24.457031 L30.236053,25.775017 L32.597717,24.780365 L31.085247,23.93563 L30.236053,25.775017 L31.944304,28.140907 L34.19935,25.894806 L32.597717,24.780365 L31.944304,28.140907 L33.819275,31.811592 L36.01982,28.940891 L34.19935,25.894806 L33.819275,31.811592 L35.745262,35.783 L38.066875,34.718353 L36.01982,28.940891 L35.745262,35.783 L37.72744,40.21077 L40.02549,39.252525 L38.066875,34.718353 L37.72744,40.21077 L39.374447,39.134315 L41.86297,41.116405 L40.02549,39.252525 L39.374447,39.134315 L40.95093,34.092426 L43.48919,35.586594 L41.86297,41.116405 L40.95093,34.092426 L42.820724,30.210995 L45.333492,28.695633 L43.48919,35.586594 L42.820724,30.210995 L45.03606,29.96891 L47.566257,27.223297 L45.333492,28.695633 L45.03606,29.96891 L47.471035,33.04275 L50.000004,29.821556 L47.566257,27.223297 L47.471035,33.04275 L50.000004,36.00561 L52.54764,31.766052 L50.000004,29.821556 L50.000004,36.00561 L52.639126,38.882195 L55.177658,35.50785 L52.54764,31.766052 L52.639126,38.882195 L55.369293,42.801304 L57.862362,40.043625 L55.177658,35.50785 L55.369293,42.801304 L58.109734,48.520428 L60.568306,45.39024 L57.862362,40.043625 L58.109734,48.520428 L60.80061,55.543102 L63.073063,53.68628 L60.568306,45.39024 L60.80061,55.543102 L63.57622,61.582474 L65.55324,61.56113 L63.073063,53.68628 L63.57622,61.582474 L66.61405,65.738304 L68.508934,65.36671 L65.55324,61.56113 L66.61405,65.738304 L70.20989,67.06808 L72.42664,63.998795 L68.508934,65.36671 L70.20989,67.06808 L72.42664,63.998795 L74.21022,62.924522 L70.3173,64.49048 L72.42664,63.998795 L68.508934,65.36671 L70.3173,64.49048 L67.53837,60.046967 L68.508934,65.36671 L65.55324,61.56113 L67.53837,60.046967 L65.34491,50.53492 L65.55324,61.56113 L63.073063,53.68628 L65.34491,50.53492 L62.73893,44.668446 L63.073063,53.68628 L60.568306,45.39024 L62.73893,44.668446 L59.98386,41.626415 L60.568306,45.39024 L57.862362,40.043625 L59.98386,41.626415 L57.425083,36.733864 L57.862362,40.043625 L55.177658,35.50785 L57.425083,36.733864 L54.950558,30.444191 L55.177658,35.50785 L52.54764,31.766052 L54.950558,30.444191 L52.425533,27.827717 L52.54764,31.766052 L50.000004,29.821556 L52.425533,27.827717 L50.000004,26.471054 L50.000004,29.821556 L47.566257,27.223297 L50.000004,26.471054 L47.71548,26.611042 L47.566257,27.223297 L45.333492,28.695633 L47.71548,26.611042 L45.755516,33.981533 L45.333492,28.695633 L43.48919,35.586594 L45.755516,33.981533 L44.083515,41.154205 L43.48919,35.586594 L41.86297,41.116405 L44.083515,41.154205 L42.273872,39.657166 L41.86297,41.116405 L40.02549,39.252525 L42.273872,39.657166 L40.35072,34.91111 L40.02549,39.252525 L38.066875,34.718353 L40.35072,34.91111 L38.308887,28.318016 L38.066875,34.718353 L36.01982,28.940891 L38.308887,28.318016 L36.526703,25.608276 L36.01982,28.940891 L34.19935,25.894806 L36.526703,25.608276 L34.950005,24.920311 L34.19935,25.894806 L32.597717,24.780365 L34.950005,24.920311 L33.432365,24.145882 L32.597717,24.780365 L31.085247,23.93563 L33.432365,24.145882 L31.865814,22.261368 L31.085247,23.93563 L29.590462,22.706505 L31.865814,22.261368 L30.65649,23.371857 L29.590462,22.706505 L28.439167,23.952385 L30.65649,23.371857 L28.439167,23.952385 L30.65649,23.371857 L33.047035,25.64264 L30.65649,23.371857 L31.865814,22.261368 L34.156563,23.176361 L33.047035,25.64264 L31.865814,22.261368 L33.432365,24.145882 L35.687744,24.733292 L34.156563,23.176361 L33.432365,24.145882 L34.950005,24.920311 L37.277214,26.449379 L35.687744,24.733292 L34.950005,24.920311 L36.526703,25.608276 L38.888435,27.743916 L37.277214,26.449379 L36.526703,25.608276 L38.308887,28.318016 L40.690018,31.492752 L38.888435,27.743916 L38.308887,28.318016 L40.35072,34.91111 L42.573044,36.69094 L40.690018,31.492752 L40.35072,34.91111 L42.273872,39.657166 L44.40716,40.727234 L42.573044,36.69094 L42.273872,39.657166 L44.083515,41.154205 L46.10157,38.133488 L44.40716,40.727234 L44.083515,41.154205 L45.755516,33.981533 L47.87834,28.652115 L46.10157,38.133488 L45.755516,33.981533 L47.71548,26.611042 L50.000004,24.906235 L47.87834,28.652115 L47.71548,26.611042 L50.000004,26.471054 L52.293976,25.86892 L50.000004,24.906235 L50.000004,26.471054 L52.425533,27.827717 L54.713665,26.90355 L52.293976,25.86892 L52.425533,27.827717 L54.950558,30.444191 L57.07089,32.866356 L54.713665,26.90355 L54.950558,30.444191 L57.425083,36.733864 L59.316788,40.809288 L57.07089,32.866356 L57.425083,36.733864 L59.98386,41.626415 L61.727623,45.59462 L59.316788,40.809288 L59.98386,41.626415 L62.73893,44.668446 L64.45485,47.34691 L61.727623,45.59462 L62.73893,44.668446 L65.34491,50.53492 L67.40064,48.59503 L64.45485,47.34691 L65.34491,50.53492 L67.53837,60.046967 L69.758224,55.86911 L67.40064,48.59503 L67.53837,60.046967 L70.3173,64.49048 L72.183655,62.41505 L69.758224,55.86911 L70.3173,64.49048 L74.21022,62.924522 L75.689575,62.857265 L72.183655,62.41505 L74.21022,62.924522 L75.689575,62.857265 L77.45443,60.60784 L74.31441,58.200798 L75.689575,62.857265 L72.183655,62.41505 L74.31441,58.200798 L71.87266,52.111786 L72.183655,62.41505 L69.758224,55.86911 L71.87266,52.111786 L68.85589,50.783314 L69.758224,55.86911 L67.40064,48.59503 L68.85589,50.783314 L65.819405,51.452152 L67.40064,48.59503 L64.45485,47.34691 L65.819405,51.452152 L63.139133,50.69635 L64.45485,47.34691 L61.727623,45.59462 L63.139133,50.69635 L60.87468,46.243397 L61.727623,45.59462 L59.316788,40.809288 L60.87468,46.243397 L58.86402,37.609707 L59.316788,40.809288 L57.07089,32.866356 L58.86402,37.609707 L56.74498,29.454994 L57.07089,32.866356 L54.713665,26.90355 L56.74498,29.454994 L54.43801,26.135273 L54.713665,26.90355 L52.293976,25.86892 L54.43801,26.135273 L52.17301,24.358337 L52.293976,25.86892 L50.000004,24.906235 L52.17301,24.358337 L50.000008,24.403915 L50.000004,24.906235 L47.87834,28.652115 L50.000008,24.403915 L48.022877,30.718327 L47.87834,28.652115 L46.10157,38.133488 L48.022877,30.718327 L46.349075,39.544075 L46.10157,38.133488 L44.40716,40.727234 L46.349075,39.544075 L44.635567,38.41724 L44.40716,40.727234 L42.573044,36.69094 L44.635567,38.41724 L42.885536,34.803432 L42.573044,36.69094 L40.690018,31.492752 L42.885536,34.803432 L41.1726,31.594585 L40.690018,31.492752 L38.888435,27.743916 L41.1726,31.594585 L39.50343,28.747677 L38.888435,27.743916 L37.277214,26.449379 L39.50343,28.747677 L37.87401,26.095612 L37.277214,26.449379 L35.687744,24.733292 L37.87401,26.095612 L36.56455,27.33117 L35.687744,24.733292 L34.156563,23.176361 L36.56455,27.33117 L35.371937,28.96944 L34.156563,23.176361 L33.047035,25.64264 L35.371937,28.96944 L33.047035,25.64264 L35.371937,28.96944 L37.334633,29.552544 L35.371937,28.96944 L36.56455,27.33117 L38.72404,30.54829 L37.334633,29.552544 L36.56455,27.33117 L37.87401,26.095612 L40.073627,29.995823 L38.72404,30.54829 L37.87401,26.095612 L39.50343,28.747677 L41.577805,31.066765 L40.073627,29.995823 L39.50343,28.747677 L41.1726,31.594585 L43.20273,33.827137 L41.577805,31.066765 L41.1726,31.594585 L42.885536,34.803432 L44.86588,36.94188 L43.20273,33.827137 L42.885536,34.803432 L44.635567,38.41724 L46.523556,38.69313 L44.86588,36.94188 L44.635567,38.41724 L46.349075,39.544075 L48.148018,32.43136 L46.523556,38.69313 L46.349075,39.544075 L48.022877,30.718327 L50.000004,24.873032 L48.148018,32.43136 L48.022877,30.718327 L50.000008,24.403915 L52.050346,24.224915 L50.000004,24.873032 L50.000008,24.403915 L52.17301,24.358337 L54.143406,27.580395 L52.050346,24.224915 L52.17301,24.358337 L54.43801,26.135273 L56.311623,30.139923 L54.143406,27.580395 L54.43801,26.135273 L56.74498,29.454994 L58.44801,34.812202 L56.311623,30.139923 L56.74498,29.454994 L58.86402,37.609707 L60.284267,44.496647 L58.44801,34.812202 L58.86402,37.609707 L60.87468,46.243397 L62.18382,51.701984 L60.284267,44.496647 L60.87468,46.243397 L63.139133,50.69635 L64.43277,54.55596 L62.18382,51.701984 L63.139133,50.69635 L65.819405,51.452152 L66.96563,55.603046 L64.43277,54.55596 L65.819405,51.452152 L68.85589,50.783314 L69.93046,54.559795 L66.96563,55.603046 L68.85589,50.783314 L71.87266,52.111786 L73.214554,53.124313 L69.93046,54.559795 L71.87266,52.111786 L74.31441,58.200798 L76.39649,54.0513 L73.214554,53.124313 L74.31441,58.200798 L77.45443,60.60784 L79.52102,56.458675 L76.39649,54.0513 L77.45443,60.60784 L79.52102,56.458675 L81.41138,53.00098 L77.64084,54.313675 L79.52102,56.458675 L76.39649,54.0513 L77.64084,54.313675 L74.149536,55.865494 L76.39649,54.0513 L73.214554,53.124313 L74.149536,55.865494 L71.09242,56.41622 L73.214554,53.124313 L69.93046,54.559795 L71.09242,56.41622 L68.4702,55.25992 L69.93046,54.559795 L66.96563,55.603046 L68.4702,55.25992 L66.08502,53.223103 L66.96563,55.603046 L64.43277,54.55596 L66.08502,53.223103 L63.743217,51.844574 L64.43277,54.55596 L62.18382,51.701984 L63.743217,51.844574 L61.57896,49.58508 L62.18382,51.701984 L60.284267,44.496647 L61.57896,49.58508 L59.83789,41.537758 L60.284267,44.496647 L58.44801,34.812202 L59.83789,41.537758 L57.944,34.96444 L58.44801,34.812202 L56.311623,30.139923 L57.944,34.96444 L55.834137,33.593697 L56.311623,30.139923 L54.143406,27.580395 L55.834137,33.593697 L53.83875,30.977173 L54.143406,27.580395 L52.050346,24.224915 L53.83875,30.977173 L51.924324,25.649536 L52.050346,24.224915 L50.000004,24.873032 L51.924324,25.649536 L50.000004,25.55896 L50.000004,24.873032 L48.148018,32.43136 L50.000004,25.55896 L48.234444,31.586708 L48.148018,32.43136 L46.523556,38.69313 L48.234444,31.586708 L46.641857,35.879158 L46.523556,38.69313 L44.86588,36.94188 L46.641857,35.879158 L45.067226,35.24147 L44.86588,36.94188 L43.20273,33.827137 L45.067226,35.24147 L43.50093,33.14923 L43.20273,33.827137 L41.577805,31.066765 L43.50093,33.14923 L41.99539,31.63028 L41.577805,31.066765 L40.073627,29.995823 L41.99539,31.63028 L40.570053,30.836319 L40.073627,29.995823 L38.72404,30.54829 L40.570053,30.836319 L39.13758,29.120956 L38.72404,30.54829 L37.334633,29.552544 L39.13758,29.120956 L37.334633,29.552544 L39.13758,29.120956 L40.889458,29.076149 L39.13758,29.120956 L40.570053,30.836319 L42.292477,30.292015 L40.889458,29.076149 L40.570053,30.836319 L41.99539,31.63028 L43.704853,30.598835 L42.292477,30.292015 L41.99539,31.63028 L43.50093,33.14923 L45.18525,31.194782 L43.704853,30.598835 L43.50093,33.14923 L45.067226,35.24147 L46.716652,31.34956 L45.18525,31.194782 L45.067226,35.24147 L46.641857,35.879158 L48.29696,29.133339 L46.716652,31.34956 L46.641857,35.879158 L48.234444,31.586708 L50.000004,26.168179 L48.29696,29.133339 L48.234444,31.586708 L50.000004,25.55896 L51.814762,26.724861 L50.000004,26.168179 L50.000004,25.55896 L51.924324,25.649536 L53.594566,33.006306 L51.814762,26.724861 L51.924324,25.649536 L53.83875,30.977173 L55.433807,36.249435 L53.594566,33.006306 L53.83875,30.977173 L55.834137,33.593697 L57.437344,36.454292 L55.433807,36.249435 L55.834137,33.593697 L57.944,34.96444 L59.39148,39.48437 L57.437344,36.454292 L57.944,34.96444 L59.83789,41.537758 L61.114716,46.470837 L59.39148,39.48437 L59.83789,41.537758 L61.57896,49.58508 L63.13907,49.11163 L61.114716,46.470837 L61.57896,49.58508 L63.743217,51.844574 L65.40536,49.922184 L63.13907,49.11163 L63.743217,51.844574 L66.08502,53.223103 L67.782135,50.864582 L65.40536,49.922184 L66.08502,53.223103 L68.4702,55.25992 L70.26728,51.99913 L67.782135,50.864582 L68.4702,55.25992 L71.09242,56.41622 L72.757385,54.039345 L70.26728,51.99913 L71.09242,56.41622 L74.149536,55.865494 L75.43269,55.69615 L72.757385,54.039345 L74.149536,55.865494 L77.64084,54.313675 L78.556,55.783108 L75.43269,55.69615 L77.64084,54.313675 L81.41138,53.00098 L82.32133,53.96691 L78.556,55.783108 L81.41138,53.00098 L82.32133,53.96691 L83.1627,54.809383 L79.9034,54.5207 L82.32133,53.96691 L78.556,55.783108 L79.9034,54.5207 L77.17004,52.485054 L78.556,55.783108 L75.43269,55.69615 L77.17004,52.485054 L74.69344,49.6379 L75.43269,55.69615 L72.757385,54.039345 L74.69344,49.6379 L72.145035,47.927063 L72.757385,54.039345 L70.26728,51.99913 L72.145035,47.927063 L69.61203,47.040752 L70.26728,51.99913 L67.782135,50.864582 L69.61203,47.040752 L67.16499,46.585003 L67.782135,50.864582 L65.40536,49.922184 L67.16499,46.585003 L64.830666,46.35187 L65.40536,49.922184 L63.13907,49.11163 L64.830666,46.35187 L62.60758,46.3327 L63.13907,49.11163 L61.114716,46.470837 L62.60758,46.3327 L60.75061,42.618294 L61.114716,46.470837 L59.39148,39.48437 L60.75061,42.618294 L58.94313,38.37239 L59.39148,39.48437 L57.437344,36.454292 L58.94313,38.37239 L57.016167,37.170124 L57.437344,36.454292 L55.433807,36.249435 L57.016167,37.170124 L55.173134,35.656933 L55.433807,36.249435 L53.594566,33.006306 L55.173134,35.656933 L53.456306,30.904636 L53.594566,33.006306 L51.814762,26.724861 L53.456306,30.904636 L51.72297,27.06419 L51.814762,26.724861 L50.000004,26.168179 L51.72297,27.06419 L50.000004,26.789558 L50.000004,26.168179 L48.29696,29.133339 L50.000004,26.789558 L48.362114,27.601692 L48.29696,29.133339 L46.716652,31.34956 L48.362114,27.601692 L46.816414,28.591225 L46.716652,31.34956 L45.18525,31.194782 L46.816414,28.591225 L45.352516,29.418785 L45.18525,31.194782 L43.704853,30.598835 L45.352516,29.418785 L43.954346,29.89341 L43.704853,30.598835 L42.292477,30.292015 L43.954346,29.89341 L42.57372,29.1787 L42.292477,30.292015 L40.889458,29.076149 L42.57372,29.1787 L40.889458,29.076149 L42.57372,29.1787 L44.179306,29.074017 L42.57372,29.1787 L43.954346,29.89341 L45.55054,29.429138 L44.179306,29.074017 L43.954346,29.89341 L45.352516,29.418785 L46.958652,28.813698 L45.55054,29.429138 L45.352516,29.418785 L46.816414,28.591225 L48.43734,27.879066 L46.958652,28.813698 L46.816414,28.591225 L48.362114,27.601692 L50.000004,27.408524 L48.43734,27.879066 L48.362114,27.601692 L50.000004,26.789558 L51.637768,27.61586 L50.000004,27.408524 L50.000004,26.789558 L51.72297,27.06419 L53.343525,28.147888 L51.637768,27.61586 L51.72297,27.06419 L53.456306,30.904636 L55.054237,31.035343 L53.343525,28.147888 L53.456306,30.904636 L55.173134,35.656933 L56.7473,35.09378 L55.054237,31.035343 L55.173134,35.656933 L57.016167,37.170124 L58.544075,37.19509 L56.7473,35.09378 L57.016167,37.170124 L58.94313,38.37239 L60.430965,38.667316 L58.544075,37.19509 L58.94313,38.37239 L60.75061,42.618294 L62.282253,41.56205 L60.430965,38.667316 L60.75061,42.618294 L62.60758,46.3327 L64.28207,43.21222 L62.282253,41.56205 L62.60758,46.3327 L64.830666,46.35187 L66.60125,42.474472 L64.28207,43.21222 L64.830666,46.35187 L67.16499,46.585003 L69.028305,42.13031 L66.60125,42.474472 L67.16499,46.585003 L69.61203,47.040752 L71.569046,42.10267 L69.028305,42.13031 L69.61203,47.040752 L72.145035,47.927063 L74.24064,42.26847 L71.569046,42.10267 L72.145035,47.927063 L74.69344,49.6379 L76.757744,44.383865 L74.24064,42.26847 L74.69344,49.6379 L77.17004,52.485054 L79.05738,48.28924 L76.757744,44.383865 L77.17004,52.485054 L79.9034,54.5207 L81.5902,51.308437 L79.05738,48.28924 L79.9034,54.5207 L83.1627,54.809383 L84.47862,53.175587 L81.5902,51.308437 L83.1627,54.809383 L84.47862,53.175587 L86.18161,49.66842 L83.335266,47.68658 L84.47862,53.175587 L81.5902,51.308437 L83.335266,47.68658 L80.6824,45.38899 L81.5902,51.308437 L79.05738,48.28924 L80.6824,45.38899 L78.40836,41.529243 L79.05738,48.28924 L76.757744,44.383865 L78.40836,41.529243 L76.32691,36.723446 L76.757744,44.383865 L74.24064,42.26847 L76.32691,36.723446 L73.89073,34.5427 L74.24064,42.26847 L71.569046,42.10267 L73.89073,34.5427 L71.132545,35.6843 L71.569046,42.10267 L69.028305,42.13031 L71.132545,35.6843 L68.51601,37.159916 L69.028305,42.13031 L66.60125,42.474472 L68.51601,37.159916 L66.164474,37.67598 L66.60125,42.474472 L64.28207,43.21222 L66.164474,37.67598 L64.04387,37.031292 L64.28207,43.21222 L62.282253,41.56205 L64.04387,37.031292 L62.01092,36.500122 L62.282253,41.56205 L60.430965,38.667316 L62.01092,36.500122 L60.068478,35.980152 L60.430965,38.667316 L58.544075,37.19509 L60.068478,35.980152 L58.318714,33.21722 L58.544075,37.19509 L56.7473,35.09378 L58.318714,33.21722 L56.64261,29.330193 L56.7473,35.09378 L55.054237,31.035343 L56.64261,29.330193 L54.91194,27.66499 L55.054237,31.035343 L53.343525,28.147888 L54.91194,27.66499 L53.19732,27.826202 L53.343525,28.147888 L51.637768,27.61586 L53.19732,27.826202 L51.56324,27.814606 L51.637768,27.61586 L50.000004,27.408524 L51.56324,27.814606 L50.000004,27.94345 L50.000004,27.408524 L48.43734,27.879066 L50.000004,27.94345 L48.50842,28.424969 L48.43734,27.879066 L46.958652,28.813698 L48.50842,28.424969 L47.08356,28.703339 L46.958652,28.813698 L45.55054,29.429138 L47.08356,28.703339 L45.708332,28.443089 L45.55054,29.429138 L44.179306,29.074017 L45.708332,28.443089 L44.179306,29.074017 L45.708332,28.443089 L47.177372,27.255993 L45.708332,28.443089 L47.08356,28.703339 L48.56477,27.86258 L47.177372,27.255993 L47.08356,28.703339 L48.50842,28.424969 L50.000004,28.06429 L48.56477,27.86258 L48.50842,28.424969 L50.000004,27.94345 L51.49666,27.821255 L50.000004,28.06429 L50.000004,27.94345 L51.56324,27.814606 L53.06555,27.403618 L51.49666,27.821255 L51.56324,27.814606 L53.19732,27.826202 L54.70873,27.09114 L53.06555,27.403618 L53.19732,27.826202 L54.91194,27.66499 L56.426483,26.938164 L54.70873,27.09114 L54.91194,27.66499 L56.64261,29.330193 L58.18045,27.798264 L56.426483,26.938164 L56.64261,29.330193 L58.318714,33.21722 L59.87738,30.865036 L58.18045,27.798264 L58.318714,33.21722 L60.068478,35.980152 L61.591724,34.0258 L59.87738,30.865036 L60.068478,35.980152 L62.01092,36.500122 L63.536167,34.566948 L61.591724,34.0258 L62.01092,36.500122 L64.04387,37.031292 L65.77998,32.795353 L63.536167,34.566948 L64.04387,37.031292 L66.164474,37.67598 L68.19043,30.91072 L65.77998,32.795353 L66.164474,37.67598 L68.51601,37.159916 L70.684296,29.768272 L68.19043,30.91072 L68.51601,37.159916 L71.132545,35.6843 L73.04515,30.880756 L70.684296,29.768272 L71.132545,35.6843 L73.89073,34.5427 L75.1046,34.79887 L73.04515,30.880756 L73.89073,34.5427 L76.32691,36.723446 L77.01137,39.842434 L75.1046,34.79887 L76.32691,36.723446 L78.40836,41.529243 L79.015,44.317776 L77.01137,39.842434 L78.40836,41.529243 L80.6824,45.38899 L81.54777,46.186638 L79.015,44.317776 L80.6824,45.38899 L83.335266,47.68658 L84.66701,45.880543 L81.54777,46.186638 L83.335266,47.68658 L86.18161,49.66842 L87.99463,45.606655 L84.66701,45.880543 L86.18161,49.66842 L87.99463,45.606655 L89.15099,44.20393 L85.714424,45.18113 L87.99463,45.606655 L84.66701,45.880543 L85.714424,45.18113 L82.92589,44.11007 L84.66701,45.880543 L81.54777,46.186638 L82.92589,44.11007 L80.13723,43.78914 L81.54777,46.186638 L79.015,44.317776 L80.13723,43.78914 L77.394775,44.094467 L79.015,44.317776 L77.01137,39.842434 L77.394775,44.094467 L75.24787,41.555367 L77.01137,39.842434 L75.1046,34.79887 L75.24787,41.555367 L73.55896,36.15938 L75.1046,34.79887 L73.04515,30.880756 L73.55896,36.15938 L71.65329,32.31681 L73.04515,30.880756 L70.684296,29.768272 L71.65329,32.31681 L69.41889,31.60717 L70.684296,29.768272 L68.19043,30.91072 L69.41889,31.60717 L67.07678,32.979908 L68.19043,30.91072 L65.77998,32.795353 L67.07678,32.979908 L64.895645,34.11817 L65.77998,32.795353 L63.536167,34.566948 L64.895645,34.11817 L63.086754,31.970486 L63.536167,34.566948 L61.591724,34.0258 L63.086754,31.970486 L61.462326,27.647331 L61.591724,34.0258 L59.87738,30.865036 L61.462326,27.647331 L59.73741,25.12275 L59.87738,30.865036 L58.18045,27.798264 L59.73741,25.12275 L57.961655,24.496323 L58.18045,27.798264 L56.426483,26.938164 L57.961655,24.496323 L56.211433,25.062477 L56.426483,26.938164 L54.70873,27.09114 L56.211433,25.062477 L54.528675,26.284584 L54.70873,27.09114 L53.06555,27.403618 L54.528675,26.284584 L52.936966,27.455673 L53.06555,27.403618 L51.49666,27.821255 L52.936966,27.455673 L51.435547,27.824627 L51.49666,27.821255 L50.000004,28.06429 L51.435547,27.824627 L50.000004,27.169304 L50.000004,28.06429 L48.56477,27.86258 L50.000004,27.169304 L48.60718,26.069603 L48.56477,27.86258 L47.177372,27.255993 L48.60718,26.069603 L47.177372,27.255993 L48.60718,26.069603 L50.000004,24.973053 L48.60718,26.069603 L50.000004,27.169304 L51.388096,26.680695 L50.000004,24.973053 L50.000004,27.169304 L51.435547,27.824627 L52.81655,27.641533 L51.388096,26.680695 L51.435547,27.824627 L52.936966,27.455673 L54.32055,27.248135 L52.81655,27.641533 L52.936966,27.455673 L54.528675,26.284584 L55.95095,25.113228 L54.32055,27.248135 L54.528675,26.284584 L56.211433,25.062477 L57.710175,22.416367 L55.95095,25.113228 L56.211433,25.062477 L57.961655,24.496323 L59.556232,20.417442 L57.710175,22.416367 L57.961655,24.496323 L59.73741,25.12275 L61.42595,19.940804 L59.556232,20.417442 L59.73741,25.12275 L61.462326,27.647331 L63.221508,21.801445 L61.42595,19.940804 L61.462326,27.647331 L63.086754,31.970486 L64.84953,26.288155 L63.221508,21.801445 L63.086754,31.970486 L64.895645,34.11817 L66.35764,31.97895 L64.84953,26.288155 L64.895645,34.11817 L67.07678,32.979908 L68.18553,34.30945 L66.35764,31.97895 L67.07678,32.979908 L69.41889,31.60717 L70.269745,34.858353 L68.18553,34.30945 L69.41889,31.60717 L71.65329,32.31681 L72.264694,36.814102 L70.269745,34.858353 L71.65329,32.31681 L73.55896,36.15938 L74.329445,38.73243 L72.264694,36.814102 L73.55896,36.15938 L75.24787,41.555367 L77.07892,36.812572 L74.329445,38.73243 L75.24787,41.555367 L77.394775,44.094467 L80.32319,33.182404 L77.07892,36.812572 L77.394775,44.094467 L80.13723,43.78914 L83.419785,31.71703 L80.32319,33.182404 L80.13723,43.78914 L82.92589,44.11007 L86.19984,32.801537 L83.419785,31.71703 L82.92589,44.11007 L85.714424,45.18113 L88.503914,36.608414 L86.19984,32.801537 L85.714424,45.18113 L89.15099,44.20393 L90.71802,40.9833 L88.503914,36.608414 L89.15099,44.20393" fill="none" stroke="#000" stroke-width="0.35" style="mix-blend-mode: multiply;"/>
</g>
</svg>