<svg height="100mm" style="background:white" viewBox="0 0 100 100" width="100mm" xmlns="http://www.w3.org/2000/svg" xmlns:inkscape="http://www.inkscape.org/namespaces/inkscape">
<g inkscape:groupmode="layer" inkscape:label="#000">
<path d="M50.000008,61.57219 L54.5356,56.65978 L50.000008,56.678844 L50.000008,61.57219 L45.675037,63.598248 L50.000008,56.678844 L46.258453,63.85495 L45.675037,63.598248 L42.539158,73.73142 L46.258453,63.85495 L43.32801,70.817116 L42.539158,73.73142 L39.24917,69.85869 L43.32801,70.817116 L40.20997,65.49319 L39.24917,69.85869 L35.43466,58.43691 L40.20997,65.49319 L37.132977,59.348537 L35.43466,58.43691 L32.02197,51.17932 L37.132977,59.348537 L34.687428,58.623398 L32.02197,51.17932 L29.582603,50.857788 L34.687428,58.623398 L32.952843,62.079712 L29.582603,50.857788 L28.131767,55.66137 L32.952843,62.079712 L31.478224,65.268974 L28.131767,55.66137 L27.191622,61.580276 L31.478224,65.268974 L29.753204,64.98172 L27.191622,61.580276 L26.325731,66.093506 L29.753204,64.98172 L27.829105,62.497627 L26.325731,66.093506 L24.917816,66.24343 L27.829105,62.497627 L25.407875,56.51165 L24.917816,66.24343 L22.956768,62.786537 L25.407875,56.51165 L22.88994,49.94152 L22.956768,62.786537 L20.647339,57.311882 L22.88994,49.94152 L21.076275,47.269783 L20.647339,57.311882 L18.5999,53.055866 L21.076275,47.269783 L19.582352,45.984894 L18.5999,53.055866 L16.832182,49.983078 L19.582352,45.984894 L17.867517,43.22307 L16.832182,49.983078 L14.995208,46.406788 L17.867517,43.22307 L16.005934,39.531128 L14.995208,46.406788 L13.339553,43.499756 L16.005934,39.531128 L14.584368,37.801723 L13.339553,43.499756 L11.779421,40.854076 L14.584368,37.801723 L13.468779,37.265884 L11.779421,40.854076 L9.887452,36.661537 L13.468779,37.265884 L12.448959,36.906937 L9.887452,36.661537 L8.406019,34.10305 L12.448959,36.906937 L11.565945,36.915863 L8.406019,34.10305 L7.713709,34.62456 L11.565945,36.915863 L7.713709,34.62456 L11.565945,36.915863 L14.706175,37.138283 L11.565945,36.915863 L12.448959,36.906937 L15.554707,36.635826 L14.706175,37.138283 L12.448959,36.906937 L13.468779,37.265884 L16.3815,35.691586 L15.554707,36.635826 L13.468779,37.265884 L14.584368,37.801723 L17.356754,35.11962 L16.3815,35.691586 L14.584368,37.801723 L16.005934,39.531128 L18.791159,36.60618 L17.356754,35.11962 L16.005934,39.531128 L17.867517,43.22307 L20.612255,39.948193 L18.791159,36.60618 L17.867517,43.22307 L19.582352,45.984894 L22.252195,42.00691 L20.612255,39.948193 L19.582352,45.984894 L21.076275,47.269783 L23.68594,42.401768 L22.252195,42.00691 L21.076275,47.269783 L22.88994,49.94152 L25.385378,43.899536 L23.68594,42.401768 L22.88994,49.94152 L25.407875,56.51165 L27.817772,49.932556 L25.385378,43.899536 L25.407875,56.51165 L27.829105,62.497627 L30.553015,58.235195 L27.817772,49.932556 L27.829105,62.497627 L29.753204,64.98172 L32.75686,62.504982 L30.553015,58.235195 L29.753204,64.98172 L31.478224,65.268974 L34.789387,64.744606 L32.75686,62.504982 L31.478224,65.268974 L32.952843,62.079712 L36.78817,65.46062 L34.789387,64.744606 L32.952843,62.079712 L34.687428,58.623398 L38.82563,64.49223 L36.78817,65.46062 L34.687428,58.623398 L37.132977,59.348537 L41.24163,65.51135 L38.82563,64.49223 L37.132977,59.348537 L40.20997,65.49319 L43.972923,68.618004 L41.24163,65.51135 L40.20997,65.49319 L43.32801,70.817116 L46.769215,66.89551 L43.972923,68.618004 L43.32801,70.817116 L46.258453,63.85495 L50.000008,58.655487 L46.769215,66.89551 L46.258453,63.85495 L50.000008,56.678844 L53.960182,55.544975 L50.000008,58.655487 L50.000008,56.678844 L54.5356,56.65978 L58.596497,53.586582 L53.960182,55.544975 L54.5356,56.65978 L58.596497,53.586582 L62.111023,52.62444 L57.459297,54.856438 L58.596497,53.586582 L53.960182,55.544975 L57.459297,54.856438 L53.43672,58.02444 L53.960182,55.544975 L50.000008,58.655487 L53.43672,58.02444 L50.000004,62.655823 L50.000008,58.655487 L46.769215,66.89551 L50.000004,62.655823 L47.102306,66.558914 L46.769215,66.89551 L43.972923,68.618004 L47.102306,66.558914 L44.502197,66.75718 L43.972923,68.618004 L41.24163,65.51135 L44.502197,66.75718 L42.10255,65.98658 L41.24163,65.51135 L38.82563,64.49223 L42.10255,65.98658 L39.86794,64.86095 L38.82563,64.49223 L36.78817,65.46062 L39.86794,64.86095 L37.696114,62.652397 L36.78817,65.46062 L34.789387,64.744606 L37.696114,62.652397 L35.59137,60.02538 L34.789387,64.744606 L32.75686,62.504982 L35.59137,60.02538 L33.2403,54.3957 L32.75686,62.504982 L30.553015,58.235195 L33.2403,54.3957 L30.593386,46.24744 L30.553015,58.235195 L27.817772,49.932556 L30.593386,46.24744 L28.22252,40.517944 L27.817772,49.932556 L25.385378,43.899536 L28.22252,40.517944 L26.407454,38.676434 L25.385378,43.899536 L23.68594,42.401768 L26.407454,38.676434 L24.781578,37.597397 L23.68594,42.401768 L22.252195,42.00691 L24.781578,37.597397 L22.998093,35.012993 L22.252195,42.00691 L20.612255,39.948193 L22.998093,35.012993 L21.291294,32.594303 L20.612255,39.948193 L18.791159,36.60618 L21.291294,32.594303 L20.066795,32.696896 L18.791159,36.60618 L17.356754,35.11962 L20.066795,32.696896 L19.190924,34.315624 L17.356754,35.11962 L16.3815,35.691586 L19.190924,34.315624 L18.452978,36.197334 L16.3815,35.691586 L15.554707,36.635826 L18.452978,36.197334 L17.687853,37.495846 L15.554707,36.635826 L14.706175,37.138283 L17.687853,37.495846 L14.706175,37.138283 L17.687853,37.495846 L20.554337,38.18581 L17.687853,37.495846 L18.452978,36.197334 L21.180094,35.66765 L20.554337,38.18581 L18.452978,36.197334 L19.190924,34.315624 L21.878042,33.0075 L21.180094,35.66765 L19.190924,34.315624 L20.066795,32.696896 L22.815811,31.208668 L21.878042,33.0075 L20.066795,32.696896 L21.291294,32.594303 L23.94965,30.038952 L22.815811,31.208668 L21.291294,32.594303 L22.998093,35.012993 L25.419838,30.536228 L23.94965,30.038952 L22.998093,35.012993 L24.781578,37.597397 L27.248667,33.11436 L25.419838,30.536228 L24.781578,37.597397 L26.407454,38.676434 L29.157974,35.89267 L27.248667,33.11436 L26.407454,38.676434 L28.22252,40.517944 L31.173244,39.095795 L29.157974,35.89267 L28.22252,40.517944 L30.593386,46.24744 L33.473343,44.53896 L31.173244,39.095795 L30.593386,46.24744 L33.2403,54.3957 L35.88526,51.081585 L33.473343,44.53896 L33.2403,54.3957 L35.59137,60.02538 L38.17485,56.24639 L35.88526,51.081585 L35.59137,60.02538 L37.696114,62.652397 L40.34308,59.24736 L38.17485,56.24639 L37.696114,62.652397 L39.86794,64.86095 L42.54276,61.196945 L40.34308,59.24736 L39.86794,64.86095 L42.10255,65.98658 L44.84217,62.301975 L42.54276,61.196945 L42.10255,65.98658 L44.502197,66.75718 L47.30172,62.484856 L44.84217,62.301975 L44.502197,66.75718 L47.102306,66.558914 L50.000004,61.662594 L47.30172,62.484856 L47.102306,66.558914 L50.000004,62.655823 L53.037815,59.812935 L50.000004,61.662594 L50.000004,62.655823 L53.43672,58.02444 L56.506138,57.69248 L53.037815,59.812935 L53.43672,58.02444 L57.459297,54.856438 L60.519775,55.01425 L56.506138,57.69248 L57.459297,54.856438 L62.111023,52.62444 L65.1247,52.7671 L60.519775,55.01425 L62.111023,52.62444 L65.1247,52.7671 L67.59342,54.493237 L63.20696,55.472214 L65.1247,52.7671 L60.519775,55.01425 L63.20696,55.472214 L59.303482,56.76278 L60.519775,55.01425 L56.506138,57.69248 L59.303482,56.76278 L55.863632,57.48688 L56.506138,57.69248 L53.037815,59.812935 L55.863632,57.48688 L52.79343,57.421967 L53.037815,59.812935 L50.000004,61.662594 L52.79343,57.421967 L50.000004,57.156986 L50.000004,61.662594 L47.30172,62.484856 L50.000004,57.156986 L47.439316,56.829243 L47.30172,62.484856 L44.84217,62.301975 L47.439316,56.829243 L45.063457,55.96055 L44.84217,62.301975 L42.54276,61.196945 L45.063457,55.96055 L42.801575,54.06412 L42.54276,61.196945 L40.34308,59.24736 L42.801575,54.06412 L40.578644,50.89164 L40.34308,59.24736 L38.17485,56.24639 L40.578644,50.89164 L38.343353,46.565704 L38.17485,56.24639 L35.88526,51.081585 L38.343353,46.565704 L36.09517,41.64113 L35.88526,51.081585 L33.473343,44.53896 L36.09517,41.64113 L33.90448,37.099426 L33.473343,44.53896 L31.173244,39.095795 L33.90448,37.099426 L31.867207,33.763123 L31.173244,39.095795 L29.157974,35.89267 L31.867207,33.763123 L30.025549,31.728493 L29.157974,35.89267 L27.248667,33.11436 L30.025549,31.728493 L28.449413,31.320503 L27.248667,33.11436 L25.419838,30.536228 L28.449413,31.320503 L27.021296,31.38581 L25.419838,30.536228 L23.94965,30.038952 L27.021296,31.38581 L25.60746,30.939598 L23.94965,30.038952 L22.815811,31.208668 L25.60746,30.939598 L24.355059,31.112236 L22.815811,31.208668 L21.878042,33.0075 L24.355059,31.112236 L23.481905,33.27813 L21.878042,33.0075 L21.180094,35.66765 L23.481905,33.27813 L23.019087,37.425125 L21.180094,35.66765 L20.554337,38.18581 L23.019087,37.425125 L20.554337,38.18581 L23.019087,37.425125 L24.954702,33.808495 L23.019087,37.425125 L23.481905,33.27813 L25.710941,30.893475 L24.954702,33.808495 L23.481905,33.27813 L24.355059,31.112236 L26.88263,30.331615 L25.710941,30.893475 L24.355059,31.112236 L25.60746,30.939598 L28.226347,30.514866 L26.88263,30.331615 L25.60746,30.939598 L27.021296,31.38581 L29.752436,31.624992 L28.226347,30.514866 L27.021296,31.38581 L28.449413,31.320503 L31.484783,34.038956 L29.752436,31.624992 L28.449413,31.320503 L30.025549,31.728493 L33.235737,36.147556 L31.484783,34.038956 L30.025549,31.728493 L31.867207,33.763123 L34.87963,36.389366 L33.235737,36.147556 L31.867207,33.763123 L33.90448,37.099426 L36.627064,36.635048 L34.87963,36.389366 L33.90448,37.099426 L36.09517,41.64113 L38.60251,38.558994 L36.627064,36.635048 L36.09517,41.64113 L38.343353,46.565704 L40.717968,41.425674 L38.60251,38.558994 L38.343353,46.565704 L40.578644,50.89164 L42.91142,44.40826 L40.717968,41.425674 L40.578644,50.89164 L42.801575,54.06412 L45.176117,47.162056 L42.91142,44.40826 L42.801575,54.06412 L45.063457,55.96055 L47.525105,49.28577 L45.176117,47.162056 L45.063457,55.96055 L47.439316,56.829243 L50.000004,50.783062 L47.525105,49.28577 L47.439316,56.829243 L50.000004,57.156986 L52.642597,52.055363 L50.000004,50.783062 L50.000004,57.156986 L52.79343,57.421967 L55.47775,53.38442 L52.642597,52.055363 L52.79343,57.421967 L55.863632,57.48688 L58.537933,54.625324 L55.47775,53.38442 L55.863632,57.48688 L59.303482,56.76278 L61.893425,55.381462 L58.537933,54.625324 L59.303482,56.76278 L63.20696,55.472214 L65.585556,55.994766 L61.893425,55.381462 L63.20696,55.472214 L67.59342,54.493237 L69.59516,57.10883 L65.585556,55.994766 L67.59342,54.493237 L69.59516,57.10883 L71.2311,60.04387 L67.68996,56.650116 L69.59516,57.10883 L65.585556,55.994766 L67.68996,56.650116 L64.30345,53.842365 L65.585556,55.994766 L61.893425,55.381462 L64.30345,53.842365 L61.1295,50.95913 L61.893425,55.381462 L58.537933,54.625324 L61.1295,50.95913 L58.170185,47.345963 L58.537933,54.625324 L55.47775,53.38442 L58.170185,47.345963 L55.32419,44.172894 L55.47775,53.38442 L52.642597,52.055363 L55.32419,44.172894 L52.59494,41.681423 L52.642597,52.055363 L50.000004,50.783062 L52.59494,41.681423 L50.000004,40.215057 L50.000004,50.783062 L47.525105,49.28577 L50.000004,40.215057 L47.559032,39.063717 L47.525105,49.28577 L45.176117,47.162056 L47.559032,39.063717 L45.25086,37.589417 L45.176117,47.162056 L42.91142,44.40826 L45.25086,37.589417 L43.1239,37.637844 L42.91142,44.40826 L40.717968,41.425674 L43.1239,37.637844 L41.190323,38.642273 L40.717968,41.425674 L38.60251,38.558994 L41.190323,38.642273 L39.394928,39.4561 L38.60251,38.558994 L36.627064,36.635048 L39.394928,39.4561 L37.570778,38.093395 L36.627064,36.635048 L34.87963,36.389366 L37.570778,38.093395 L35.621677,34.306572 L34.87963,36.389366 L33.235737,36.147556 L35.621677,34.306572 L33.757236,31.143425 L33.235737,36.147556 L31.484783,34.038956 L33.757236,31.143425 L32.094017,29.61628 L31.484783,34.038956 L29.752436,31.624992 L32.094017,29.61628 L30.674366,29.773674 L29.752436,31.624992 L28.226347,30.514866 L30.674366,29.773674 L29.397335,30.463982 L28.226347,30.514866 L26.88263,30.331615 L29.397335,30.463982 L28.109375,30.412197 L26.88263,30.331615 L25.710941,30.893475 L28.109375,30.412197 L26.941273,30.777466 L25.710941,30.893475 L24.954702,33.808495 L26.941273,30.777466 L24.954702,33.808495 L26.941273,30.777466 L28.981033,28.529556 L26.941273,30.777466 L28.109375,30.412197 L30.32813,29.334164 L28.981033,28.529556 L28.109375,30.412197 L29.397335,30.463982 L31.653204,29.404846 L30.32813,29.334164 L29.397335,30.463982 L30.674366,29.773674 L32.96907,28.64912 L31.653204,29.404846 L30.674366,29.773674 L32.094017,29.61628 L34.39516,28.127743 L32.96907,28.64912 L32.094017,29.61628 L33.757236,31.143425 L35.96753,28.278305 L34.39516,28.127743 L33.757236,31.143425 L35.621677,34.306572 L37.82244,31.208248 L35.96753,28.278305 L35.621677,34.306572 L37.570778,38.093395 L39.77455,35.05554 L37.82244,31.208248 L37.570778,38.093395 L39.394928,39.4561 L41.770386,39.23952 L39.77455,35.05554 L39.394928,39.4561 L41.190323,38.642273 L43.60099,38.514107 L41.770386,39.23952 L41.190323,38.642273 L43.1239,37.637844 L45.47818,34.195446 L43.60099,38.514107 L43.1239,37.637844 L45.25086,37.589417 L47.617264,30.971657 L45.47818,34.195446 L45.25086,37.589417 L47.559032,39.063717 L50.000004,30.764992 L47.617264,30.971657 L47.559032,39.063717 L50.000004,40.215057 L52.548225,31.725983 L50.000004,30.764992 L50.000004,40.215057 L52.59494,41.681423 L55.189342,35.12306 L52.548225,31.725983 L52.59494,41.681423 L55.32419,44.172894 L57.913704,38.959423 L55.189342,35.12306 L55.32419,44.172894 L58.170185,47.345963 L60.792755,41.977524 L57.913704,38.959423 L58.170185,47.345963 L61.1295,50.95913 L63.66665,46.766846 L60.792755,41.977524 L61.1295,50.95913 L64.30345,53.842365 L66.53483,52.440437 L63.66665,46.766846 L64.30345,53.842365 L67.68996,56.650116 L69.6398,56.76947 L66.53483,52.440437 L67.68996,56.650116 L71.2311,60.04387 L73.09097,59.790043 L69.6398,56.76947 L71.2311,60.04387 L73.09097,59.790043 L74.71465,59.94186 L71.38123,57.076122 L73.09097,59.790043 L69.6398,56.76947 L71.38123,57.076122 L68.641754,50.859703 L69.6398,56.76947 L66.53483,52.440437 L68.641754,50.859703 L66.08797,43.002945 L66.53483,52.440437 L63.66665,46.766846 L66.08797,43.002945 L63.066105,40.522915 L63.66665,46.766846 L60.792755,41.977524 L63.066105,40.522915 L60.12817,39.24936 L60.792755,41.977524 L57.913704,38.959423 L60.12817,39.24936 L57.513157,34.72525 L57.913704,38.959423 L55.189342,35.12306 L57.513157,34.72525 L55.00746,28.425388 L55.189342,35.12306 L52.548225,31.725983 L55.00746,28.425388 L52.468674,24.65741 L52.548225,31.725983 L50.000004,30.764992 L52.468674,24.65741 L50.000004,24.955276 L50.000004,30.764992 L47.617264,30.971657 L50.000004,24.955276 L47.752995,29.558258 L47.617264,30.971657 L45.47818,34.195446 L47.752995,29.558258 L45.817036,36.475914 L45.47818,34.195446 L43.60099,38.514107 L45.817036,36.475914 L43.976025,38.15788 L43.60099,38.514107 L41.770386,39.23952 L43.976025,38.15788 L41.96291,32.95903 L41.770386,39.23952 L39.77455,35.05554 L41.96291,32.95903 L40.01755,29.001114 L39.77455,35.05554 L37.82244,31.208248 L40.01755,29.001114 L38.156258,25.997375 L37.82244,31.208248 L35.96753,28.278305 L38.156258,25.997375 L36.584156,26.377823 L35.96753,28.278305 L34.39516,28.127743 L36.584156,26.377823 L35.11441,26.899292 L34.39516,28.127743 L32.96907,28.64912 L35.11441,26.899292 L33.699944,27.084179 L32.96907,28.64912 L31.653204,29.404846 L33.699944,27.084179 L32.275475,26.413918 L31.653204,29.404846 L30.32813,29.334164 L32.275475,26.413918 L30.882635,25.507858 L30.32813,29.334164 L28.981033,28.529556 L30.882635,25.507858 L28.981033,28.529556 L30.882635,25.507858 L32.866737,23.723618 L30.882635,25.507858 L32.275475,26.413918 L34.131733,22.889755 L32.866737,23.723618 L32.275475,26.413918 L33.699944,27.084179 L35.617935,23.848732 L34.131733,22.889755 L33.699944,27.084179 L35.11441,26.899292 L37.129257,24.36042 L35.617935,23.848732 L35.11441,26.899292 L36.584156,26.377823 L38.66756,24.198982 L37.129257,24.36042 L36.584156,26.377823 L38.156258,25.997375 L40.353127,25.175262 L38.66756,24.198982 L38.156258,25.997375 L40.01755,29.001114 L42.220795,28.657135 L40.353127,25.175262 L40.01755,29.001114 L41.96291,32.95903 L44.167206,33.63301 L42.220795,28.657135 L41.96291,32.95903 L43.976025,38.15788 L46.0922,37.729935 L44.167206,33.63301 L43.976025,38.15788 L45.817036,36.475914 L47.91824,31.988731 L46.0922,37.729935 L45.817036,36.475914 L47.752995,29.558258 L50.000004,24.464485 L47.91824,31.988731 L47.752995,29.558258 L50.000004,24.955276 L52.353996,21.15393 L50.000004,24.464485 L50.000004,24.955276 L52.468674,24.65741 L54.786003,24.153885 L52.353996,21.15393 L52.468674,24.65741 L55.00746,28.425388 L57.176804,30.271828 L54.786003,24.153885 L55.00746,28.425388 L57.513157,34.72525 L59.525368,37.109352 L57.176804,30.271828 L57.513157,34.72525 L60.12817,39.24936 L62.00392,41.813667 L59.525368,37.109352 L60.12817,39.24936 L63.066105,40.522915 L64.877014,42.711098 L62.00392,41.813667 L63.066105,40.522915 L66.08797,43.002945 L68.14465,41.861412 L64.877014,42.711098 L66.08797,43.002945 L68.641754,50.859703 L70.80728,47.893837 L68.14465,41.861412 L68.641754,50.859703 L71.38123,57.076122 L73.01872,57.007057 L70.80728,47.893837 L71.38123,57.076122 L74.71465,59.94186 L75.85461,61.937195 L73.01872,57.007057 L74.71465,59.94186 L75.85461,61.937195 L77.28791,61.49017 L74.97704,54.170734 L75.85461,61.937195 L73.01872,57.007057 L74.97704,54.170734 L72.84298,45.281506 L73.01872,57.007057 L70.80728,47.893837 L72.84298,45.281506 L69.61804,44.506294 L70.80728,47.893837 L68.14465,41.861412 L69.61804,44.506294 L66.33975,46.366 L68.14465,41.861412 L64.877014,42.711098 L66.33975,46.366 L63.512497,46.280968 L64.877014,42.711098 L62.00392,41.813667 L63.512497,46.280968 L61.2079,41.345802 L62.00392,41.813667 L59.525368,37.109352 L61.2079,41.345802 L59.098286,33.15724 L59.525368,37.109352 L57.176804,30.271828 L59.098286,33.15724 L56.80828,27.797356 L57.176804,30.271828 L54.786003,24.153885 L56.80828,27.797356 L54.509422,23.239906 L54.786003,24.153885 L52.353996,21.15393 L54.509422,23.239906 L52.209846,21.278465 L52.353996,21.15393 L50.000004,24.464485 L52.209846,21.278465 L50.000008,26.255184 L50.000004,24.464485 L47.91824,31.988731 L50.000008,26.255184 L48.065044,34.45852 L47.91824,31.988731 L46.0922,37.729935 L48.065044,34.45852 L46.28957,36.829792 L46.0922,37.729935 L44.167206,33.63301 L46.28957,36.829792 L44.376072,30.306961 L44.167206,33.63301 L42.220795,28.657135 L44.376072,30.306961 L42.535416,26.374626 L42.220795,28.657135 L40.353127,25.175262 L42.535416,26.374626 L40.79609,24.152397 L40.353127,25.175262 L38.66756,24.198982 L40.79609,24.152397 L39.151955,22.809837 L38.66756,24.198982 L37.129257,24.36042 L39.151955,22.809837 L37.570118,21.585098 L37.129257,24.36042 L35.617935,23.848732 L37.570118,21.585098 L36.222378,22.778854 L35.617935,23.848732 L34.131733,22.889755 L36.222378,22.778854 L35.11979,25.91655 L34.131733,22.889755 L32.866737,23.723618 L35.11979,25.91655 L32.866737,23.723618 L35.11979,25.91655 L37.178062,27.370358 L35.11979,25.91655 L36.222378,22.778854 L38.409103,25.64576 L37.178062,27.370358 L36.222378,22.778854 L37.570118,21.585098 L39.7052,23.46035 L38.409103,25.64576 L37.570118,21.585098 L39.151955,22.809837 L41.198635,23.187683 L39.7052,23.46035 L39.151955,22.809837 L40.79609,24.152397 L42.86074,25.160652 L41.198635,23.187683 L40.79609,24.152397 L42.535416,26.374626 L44.626194,29.045643 L42.86074,25.160652 L42.535416,26.374626 L44.376072,30.306961 L46.45264,35.27867 L44.626194,29.045643 L44.376072,30.306961 L46.28957,36.829792 L48.18388,35.793835 L46.45264,35.27867 L46.28957,36.829792 L48.065044,34.45852 L50.000004,28.070656 L48.18388,35.793835 L48.065044,34.45852 L50.000008,26.255184 L52.06396,23.01751 L50.000004,28.070656 L50.000008,26.255184 L52.209846,21.278465 L54.2013,25.086273 L52.06396,23.01751 L52.209846,21.278465 L54.509422,23.239906 L56.36506,28.650314 L54.2013,25.086273 L54.509422,23.239906 L56.80828,27.797356 L58.660217,30.510124 L56.36506,28.650314 L56.80828,27.797356 L59.098286,33.15724 L60.656654,38.645912 L58.660217,30.510124 L59.098286,33.15724 L61.2079,41.345802 L62.5432,47.14842 L60.656654,38.645912 L61.2079,41.345802 L63.512497,46.280968 L64.786835,50.838768 L62.5432,47.14842 L63.512497,46.280968 L66.33975,46.366 L67.401115,51.7405 L64.786835,50.838768 L66.33975,46.366 L69.61804,44.506294 L70.68727,48.806183 L67.401115,51.7405 L69.61804,44.506294 L72.84298,45.281506 L74.18396,46.737144 L70.68727,48.806183 L72.84298,45.281506 L74.97704,54.170734 L77.14792,49.72352 L74.18396,46.737144 L74.97704,54.170734 L77.28791,61.49017 L79.37409,57.203346 L77.14792,49.72352 L77.28791,61.49017 L79.37409,57.203346 L81.54488,52.350357 L78.350586,50.41678 L79.37409,57.203346 L77.14792,49.72352 L78.350586,50.41678 L74.92044,51.070313 L77.14792,49.72352 L74.18396,46.737144 L74.92044,51.070313 L71.45579,53.837963 L74.18396,46.737144 L70.68727,48.806183 L71.45579,53.837963 L68.68252,53.52622 L70.68727,48.806183 L67.401115,51.7405 L68.68252,53.52622 L66.37581,50.45975 L67.401115,51.7405 L64.786835,50.838768 L66.37581,50.45975 L64.04964,48.405792 L64.786835,50.838768 L62.5432,47.14842 L64.04964,48.405792 L61.923603,44.92716 L62.5432,47.14842 L60.656654,38.645912 L61.923603,44.92716 L60.21065,35.303223 L60.656654,38.645912 L58.660217,30.510124 L60.21065,35.303223 L58.12673,31.028442 L58.660217,30.510124 L56.36506,28.650314 L58.12673,31.028442 L55.87599,32.356216 L56.36506,28.650314 L54.2013,25.086273 L55.87599,32.356216 L53.865246,29.768581 L54.2013,25.086273 L52.06396,23.01751 L53.865246,29.768581 L51.927536,25.348167 L52.06396,23.01751 L50.000004,28.070656 L51.927536,25.348167 L50.000004,29.176933 L50.000004,28.070656 L48.18388,35.793835 L50.000004,29.176933 L48.274387,35.534103 L48.18388,35.793835 L46.45264,35.27867 L48.274387,35.534103 L46.619602,34.75134 L46.45264,35.27867 L44.626194,29.045643 L46.619602,34.75134 L44.925064,30.317898 L44.626194,29.045643 L42.86074,25.160652 L44.925064,30.317898 L43.292393,27.600327 L42.86074,25.160652 L41.198635,23.187683 L43.292393,27.600327 L41.783695,27.01664 L41.198635,23.187683 L39.7052,23.46035 L41.783695,27.01664 L40.376247,27.234741 L39.7052,23.46035 L38.409103,25.64576 L40.376247,27.234741 L38.99758,26.84024 L38.409103,25.64576 L37.178062,27.370358 L38.99758,26.84024 L37.178062,27.370358 L38.99758,26.84024 L40.73201,26.017334 L38.99758,26.84024 L40.376247,27.234741 L42.164715,27.378128 L40.73201,26.017334 L40.376247,27.234741 L41.783695,27.01664 L43.646744,28.979015 L42.164715,27.378128 L41.783695,27.01664 L43.292393,27.600327 L45.180435,31.019997 L43.646744,28.979015 L43.292393,27.600327 L44.925064,30.317898 L46.758427,33.572575 L45.180435,31.019997 L44.925064,30.317898 L46.619602,34.75134 L48.34401,34.021828 L46.758427,33.572575 L46.619602,34.75134 L48.274387,35.534103 L50.000004,29.755745 L48.34401,34.021828 L48.274387,35.534103 L50.000004,29.176933 L51.81271,26.92752 L50.000004,29.755745 L50.000004,29.176933 L51.927536,25.348167 L53.597507,32.864655 L51.81271,26.92752 L51.927536,25.348167 L53.865246,29.768581 L55.449783,35.750153 L53.597507,32.864655 L53.865246,29.768581 L55.87599,32.356216 L57.57616,33.2883 L55.449783,35.750153 L55.87599,32.356216 L58.12673,31.028442 L59.70809,33.86815 L57.57616,33.2883 L58.12673,31.028442 L60.21065,35.303223 L61.420612,42.07818 L59.70809,33.86815 L60.21065,35.303223 L61.923603,44.92716 L63.329697,46.83422 L61.420612,42.07818 L61.923603,44.92716 L64.04964,48.405792 L65.49445,49.019093 L63.329697,46.83422 L64.04964,48.405792 L66.37581,50.45975 L67.78726,50.819782 L65.49445,49.019093 L66.37581,50.45975 L68.68252,53.52622 L70.19963,52.513435 L67.78726,50.819782 L68.68252,53.52622 L71.45579,53.837963 L72.60428,55.062225 L70.19963,52.513435 L71.45579,53.837963 L74.92044,51.070313 L75.64843,54.42048 L72.60428,55.062225 L74.92044,51.070313 L78.350586,50.41678 L78.86127,54.176468 L75.64843,54.42048 L78.350586,50.41678 L81.54488,52.350357 L82.18369,54.614613 L78.86127,54.176468 L81.54488,52.350357 L82.18369,54.614613 L82.72927,56.78646 L79.79463,55.071884 L82.18369,54.614613 L78.86127,54.176468 L79.79463,55.071884 L76.913284,53.936516 L78.86127,54.176468 L75.64843,54.42048 L76.913284,53.936516 L74.09154,53.451138 L75.64843,54.42048 L72.60428,55.062225 L74.09154,53.451138 L71.600105,51.818733 L72.60428,55.062225 L70.19963,52.513435 L71.600105,51.818733 L69.186386,50.49237 L70.19963,52.513435 L67.78726,50.819782 L69.186386,50.49237 L66.890434,49.13618 L67.78726,50.819782 L65.49445,49.019093 L66.890434,49.13618 L64.7271,47.467308 L65.49445,49.019093 L63.329697,46.83422 L64.7271,47.467308 L62.695885,45.21382 L63.329697,46.83422 L61.420612,42.07818 L62.695885,45.21382 L60.99333,38.927864 L61.420612,42.07818 L59.70809,33.86815 L60.99333,38.927864 L59.157974,34.34361 L59.70809,33.86815 L57.57616,33.2883 L59.157974,34.34361 L57.091385,35.35939 L57.57616,33.2883 L55.449783,35.750153 L57.091385,35.35939 L55.15702,36.187767 L55.449783,35.750153 L53.597507,32.864655 L55.15702,36.187767 L53.4458,31.436996 L53.597507,32.864655 L51.81271,26.92752 L53.4458,31.436996 L51.7156,27.829815 L51.81271,26.92752 L50.000004,29.755745 L51.7156,27.829815 L50.000004,30.131996 L50.000004,29.755745 L48.34401,34.021828 L50.000004,30.131996 L48.40092,31.830475 L48.34401,34.021828 L46.758427,33.572575 L48.40092,31.830475 L46.86154,31.106915 L46.758427,33.572575 L45.180435,31.019997 L46.86154,31.106915 L45.35079,29.353111 L45.180435,31.019997 L43.646744,28.979015 L45.35079,29.353111 L43.867622,27.366089 L43.646744,28.979015 L42.164715,27.378128 L43.867622,27.366089 L42.416893,25.44297 L42.164715,27.378128 L40.73201,26.017334 L42.416893,25.44297 L40.73201,26.017334 L42.416893,25.44297 L44.063515,25.552872 L42.416893,25.44297 L43.867622,27.366089 L45.50506,27.623398 L44.063515,25.552872 L43.867622,27.366089 L45.35079,29.353111 L46.96707,29.304314 L45.50506,27.623398 L45.35079,29.353111 L46.86154,31.106915 L48.458298,30.26905 L46.96707,29.304314 L46.86154,31.106915 L48.40092,31.830475 L50.000004,30.167084 L48.458298,30.26905 L48.40092,31.830475 L50.000004,30.131996 L51.624252,29.08889 L50.000004,30.167084 L50.000004,30.131996 L51.7156,27.829815 L53.3282,28.96341 L51.624252,29.08889 L51.7156,27.829815 L53.4458,31.436996 L55.019703,32.2313 L53.3282,28.96341 L53.4458,31.436996 L55.15702,36.187767 L56.736137,35.376556 L55.019703,32.2313 L55.15702,36.187767 L57.091385,35.35939 L58.61992,35.695843 L56.736137,35.376556 L57.091385,35.35939 L59.157974,34.34361 L60.55582,36.66343 L58.61992,35.695843 L59.157974,34.34361 L60.99333,38.927864 L62.290512,41.45145 L60.55582,36.66343 L60.99333,38.927864 L62.695885,45.21382 L64.05797,45.767673 L62.290512,41.45145 L62.695885,45.21382 L64.7271,47.467308 L66.11523,47.264183 L64.05797,45.767673 L64.7271,47.467308 L66.890434,49.13618 L68.32245,48.21193 L66.11523,47.264183 L66.890434,49.13618 L69.186386,50.49237 L70.66585,48.969086 L68.32245,48.21193 L69.186386,50.49237 L71.600105,51.818733 L73.17931,49.44052 L70.66585,48.969086 L71.600105,51.818733 L74.09154,53.451138 L75.96527,49.172707 L73.17931,49.44052 L74.09154,53.451138 L76.913284,53.936516 L78.72319,50.103973 L75.96527,49.172707 L76.913284,53.936516 L79.79463,55.071884 L81.320786,52.62839 L78.72319,50.103973 L79.79463,55.071884 L82.72927,56.78646 L83.97605,55.404316 L81.320786,52.62839 L82.72927,56.78646 L83.97605,55.404316 L85.64502,51.988064 L83.01184,49.223347 L83.97605,55.404316 L81.320786,52.62839 L83.01184,49.223347 L80.512535,46.27861 L81.320786,52.62839 L78.72319,50.103973 L80.512535,46.27861 L78.09818,43.325912 L78.72319,50.103973 L75.96527,49.172707 L78.09818,43.325912 L75.52035,41.911858 L75.96527,49.172707 L73.17931,49.44052 L75.52035,41.911858 L72.74145,42.794556 L73.17931,49.44052 L70.66585,48.969086 L72.74145,42.794556 L70.03994,44.49406 L70.66585,48.969086 L68.32245,48.21193 L70.03994,44.49406 L67.64308,45.123478 L68.32245,48.21193 L66.11523,47.264183 L67.64308,45.123478 L65.57855,43.78013 L66.11523,47.264183 L64.05797,45.767673 L65.57855,43.78013 L63.75583,40.498486 L64.05797,45.767673 L62.290512,41.45145 L63.75583,40.498486 L61.94509,37.4296 L62.290512,41.45145 L60.55582,36.66343 L61.94509,37.4296 L60.0849,35.702686 L60.55582,36.66343 L58.61992,35.695843 L60.0849,35.702686 L58.31835,33.2248 L58.61992,35.695843 L56.736137,35.376556 L58.31835,33.2248 L56.617924,29.986984 L56.736137,35.376556 L55.019703,32.2313 L56.617924,29.986984 L54.882248,28.743431 L55.019703,32.2313 L53.3282,28.96341 L54.882248,28.743431 L53.17125,29.27948 L53.3282,28.96341 L51.624252,29.08889 L53.17125,29.27948 L51.54557,29.82912 L51.624252,29.08889 L50.000004,30.167084 L51.54557,29.82912 L50.000004,29.851158 L50.000004,30.167084 L48.458298,30.26905 L50.000004,29.851158 L48.515434,29.260216 L48.458298,30.26905 L46.96707,29.304314 L48.515434,29.260216 L47.072052,28.003502 L46.96707,29.304314 L45.50506,27.623398 L47.072052,28.003502 L45.656647,26.303825 L45.50506,27.623398 L44.063515,25.552872 L45.656647,26.303825 L44.063515,25.552872 L45.656647,26.303825 L47.172997,26.978676 L45.656647,26.303825 L47.072052,28.003502 L48.567173,28.160892 L47.172997,26.978676 L47.072052,28.003502 L48.515434,29.260216 L50.000004,29.121078 L48.567173,28.160892 L48.515434,29.260216 L50.000004,29.851158 L51.481407,29.63771 L50.000004,29.121078 L50.000004,29.851158 L51.54557,29.82912 L53.027287,29.633904 L51.481407,29.63771 L51.54557,29.82912 L53.17125,29.27948 L54.651955,29.24915 L53.027287,29.633904 L53.17125,29.27948 L54.882248,28.743431 L56.369133,28.536777 L54.651955,29.24915 L54.882248,28.743431 L56.617924,29.986984 L58.170837,28.007717 L56.369133,28.536777 L56.617924,29.986984 L58.31835,33.2248 L59.95339,29.516762 L58.170837,28.007717 L58.31835,33.2248 L60.0849,35.702686 L61.645943,33.22106 L59.95339,29.516762 L60.0849,35.702686 L61.94509,37.4296 L63.407448,36.197887 L61.645943,33.22106 L61.94509,37.4296 L63.75583,40.498486 L65.34556,37.565865 L63.407448,36.197887 L63.75583,40.498486 L65.57855,43.78013 L67.45155,38.025898 L65.34556,37.565865 L65.57855,43.78013 L67.64308,45.123478 L69.80565,37.257725 L67.45155,38.025898 L67.64308,45.123478 L70.03994,44.49406 L72.31674,36.41836 L69.80565,37.257725 L70.03994,44.49406 L72.74145,42.794556 L74.6307,38.032104 L72.31674,36.41836 L72.74145,42.794556 L75.52035,41.911858 L76.729904,41.574646 L74.6307,38.032104 L75.52035,41.911858 L78.09818,43.325912 L78.77847,45.636402 L76.729904,41.574646 L78.09818,43.325912 L80.512535,46.27861 L81.11932,48.35806 L78.77847,45.636402 L80.512535,46.27861 L83.01184,49.223347 L83.99117,49.003593 L81.11932,48.35806 L83.01184,49.223347 L85.64502,51.988064 L87.17944,49.049664 L83.99117,49.003593 L85.64502,51.988064 L87.17944,49.049664 L87.7835,49.857983 L84.504425,50.63229 L87.17944,49.049664 L83.99117,49.003593 L84.504425,50.63229 L81.91171,49.098976 L83.99117,49.003593 L81.11932,48.35806 L81.91171,49.098976 L79.3359,48.104286 L81.11932,48.35806 L78.77847,45.636402 L79.3359,48.104286 L76.83537,47.40215 L78.77847,45.636402 L76.729904,41.574646 L76.83537,47.40215 L74.82692,44.298405 L76.729904,41.574646 L74.6307,38.032104 L74.82692,44.298405 L73.104416,39.43781 L74.6307,38.032104 L72.31674,36.41836 L73.104416,39.43781 L71.094864,36.798023 L72.31674,36.41836 L69.80565,37.257725 L71.094864,36.798023 L68.90004,36.26888 L69.80565,37.257725 L67.45155,38.025898 L68.90004,36.26888 L66.79794,35.806255 L67.45155,38.025898 L65.34556,37.565865 L66.79794,35.806255 L64.944,33.559875 L65.34556,37.565865 L63.407448,36.197887 L64.944,33.559875 L63.256035,29.718357 L63.407448,36.197887 L61.645943,33.22106 L63.256035,29.718357 L61.473446,27.474232 L61.645943,33.22106 L59.95339,29.516762 L61.473446,27.474232 L59.624916,27.213295 L59.95339,29.516762 L58.170837,28.007717 L59.624916,27.213295 L57.83239,27.444412 L58.170837,28.007717 L56.369133,28.536777 L57.83239,27.444412 L56.10741,28.093891 L56.369133,28.536777 L54.651955,29.24915 L56.10741,28.093891 L54.461647,28.945724 L54.651955,29.24915 L53.027287,29.633904 L54.461647,28.945724 L52.906944,29.281395 L53.027287,29.633904 L51.481407,29.63771 L52.906944,29.281395 L51.42826,28.729431 L51.481407,29.63771 L50.000004,29.121078 L51.42826,28.729431 L50.000004,27.670742 L50.000004,29.121078 L48.567173,28.160892 L50.000004,27.670742 L48.61379,26.923378 L48.567173,28.160892 L47.172997,26.978676 L48.61379,26.923378 L47.172997,26.978676 L48.61379,26.923378 L50.000004,25.160088 L48.61379,26.923378 L50.000004,27.670742 L51.39194,26.184341 L50.000004,25.160088 L50.000004,27.670742 L51.42826,28.729431 L52.81445,27.774776 L51.39194,26.184341 L51.42826,28.729431 L52.906944,29.281395 L54.28482,28.726982 L52.81445,27.774776 L52.906944,29.281395 L54.461647,28.945724 L55.861443,27.83516 L54.28482,28.726982 L54.461647,28.945724 L56.10741,28.093891 L57.575397,25.626854 L55.861443,27.83516 L56.10741,28.093891 L57.83239,27.444412 L59.386868,23.707825 L57.575397,25.626854 L57.83239,27.444412 L59.624916,27.213295 L61.234703,23.056328 L59.386868,23.707825 L59.624916,27.213295 L61.473446,27.474232 L63.050667,24.182579 L61.234703,23.056328 L61.473446,27.474232 L63.256035,29.718357 L64.81591,26.695206 L63.050667,24.182579 L63.256035,29.718357 L64.944,33.559875 L66.47916,30.685673 L64.81591,26.695206 L64.944,33.559875 L66.79794,35.806255 L68.15766,34.572678 L66.47916,30.685673 L66.79794,35.806255 L68.90004,36.26888 L70.012276,37.033264 L68.15766,34.572678 L68.90004,36.26888 L71.094864,36.798023 L71.897125,39.60846 L70.012276,37.033264 L71.094864,36.798023 L73.104416,39.43781 L73.85411,42.001877 L71.897125,39.60846 L73.104416,39.43781 L74.82692,44.298405 L76.40112,41.04935 L73.85411,42.001877 L74.82692,44.298405 L76.83537,47.40215 L79.47738,38.00505 L76.40112,41.04935 L76.83537,47.40215 L79.3359,48.104286 L82.45035,36.77484 L79.47738,38.00505 L79.3359,48.104286 L81.91171,49.098976 L85.130295,37.9211 L82.45035,36.77484 L81.91171,49.098976 L84.504425,50.63229 L87.345955,41.705025 L85.130295,37.9211 L84.504425,50.63229 L87.7835,49.857983 L89.29061,46.770874 L87.345955,41.705025 L87.7835,49.857983" fill="none" stroke="#000" stroke-width="0.35" style="mix-blend-mode: multiply;"/>
</g>
</svg>