<svg height="100mm" style="background:white" viewBox="0 0 100 100" width="100mm" xmlns="http://www.w3.org/2000/svg" xmlns:inkscape="http://www.inkscape.org/namespaces/inkscape">
<g inkscape:groupmode="layer" inkscape:label="#000">
<path d="M50.000008,76.42508 L54.118607,70.39706 L50.000008,72.409225 L50.000008,76.42508 L46.10877,77.886925 L50.000008,72.409225 L46.569355,75.67294 L46.10877,77.886925 L42.833473,78.95221 L46.569355,75.67294 L43.519783,74.704926 L42.833473,78.95221 L39.220222,69.49193 L43.519783,74.704926 L40.32556,67.153046 L39.220222,69.49193 L35.71054,61.233345 L40.32556,67.153046 L37.42846,62.718098 L35.71054,61.233345 L32.797928,57.86499 L37.42846,62.718098 L34.86498,60.333134 L32.797928,57.86499 L30.352264,56.709015 L34.86498,60.333134 L32.51228,58.358246 L30.352264,56.709015 L27.943384,54.3656 L32.51228,58.358246 L30.637875,58.880352 L27.943384,54.3656 L25.929958,53.58726 L30.637875,58.880352 L28.880718,58.901512 L25.929958,53.58726 L25.207644,59.482315 L28.880718,58.901512 L26.627457,54.71564 L25.207644,59.482315 L23.893978,60.535465 L26.627457,54.71564 L24.54128,51.24111 L23.893978,60.535465 L21.70389,56.14803 L24.54128,51.24111 L23.089506,51.09089 L21.70389,56.14803 L19.834242,53.190903 L23.089506,51.09089 L21.679508,50.581905 L19.834242,53.190903 L18.327398,51.727882 L21.679508,50.581905 L20.018206,48.278866 L18.327398,51.727882 L16.655798,49.15297 L20.018206,48.278866 L18.272837,45.277313 L16.655798,49.15297 L14.828369,45.645767 L18.272837,45.277313 L16.492512,41.91502 L14.828369,45.645767 L13.049509,42.2135 L16.492512,41.91502 L14.823437,38.93765 L13.049509,42.2135 L11.028059,37.60601 L14.823437,38.93765 L13.112874,35.621227 L11.028059,37.60601 L8.74537,31.837906 L13.112874,35.621227 L11.3381,31.902393 L8.74537,31.837906 L6.961813,28.13182 L11.3381,31.902393 L9.727764,28.825333 L6.961813,28.13182 L5.6026936,26.065262 L9.727764,28.825333 L5.6026936,26.065262 L9.727764,28.825333 L13.285604,30.338478 L9.727764,28.825333 L11.3381,31.902393 L14.964941,33.734665 L13.285604,30.338478 L11.3381,31.902393 L13.112874,35.621227 L16.643677,37.020363 L14.964941,33.734665 L13.112874,35.621227 L14.823437,38.93765 L18.208387,39.579773 L16.643677,37.020363 L14.823437,38.93765 L16.492512,41.91502 L19.785921,42.007996 L18.208387,39.579773 L16.492512,41.91502 L18.272837,45.277313 L21.33231,44.0187 L19.785921,42.007996 L18.272837,45.277313 L20.018206,48.278866 L22.894976,45.807648 L21.33231,44.0187 L20.018206,48.278866 L21.679508,50.581905 L24.53056,47.655407 L22.894976,45.807648 L21.679508,50.581905 L23.089506,51.09089 L26.033161,48.167595 L24.53056,47.655407 L23.089506,51.09089 L24.54128,51.24111 L27.463963,47.442017 L26.033161,48.167595 L24.54128,51.24111 L26.627457,54.71564 L29.395845,49.43798 L27.463963,47.442017 L26.627457,54.71564 L28.880718,58.901512 L31.73626,54.00709 L29.395845,49.43798 L28.880718,58.901512 L30.637875,58.880352 L34.0916,58.260902 L31.73626,54.00709 L30.637875,58.880352 L32.51228,58.358246 L36.400925,61.339073 L34.0916,58.260902 L32.51228,58.358246 L34.86498,60.333134 L38.79438,64.09625 L36.400925,61.339073 L34.86498,60.333134 L37.42846,62.718098 L41.35092,67.26537 L38.79438,64.09625 L37.42846,62.718098 L40.32556,67.153046 L44.11314,71.81603 L41.35092,67.26537 L40.32556,67.153046 L43.519783,74.704926 L46.95351,74.83507 L44.11314,71.81603 L43.519783,74.704926 L46.569355,75.67294 L50.000008,72.22915 L46.95351,74.83507 L46.569355,75.67294 L50.000008,72.409225 L53.572052,70.29834 L50.000008,72.22915 L50.000008,72.409225 L54.118607,70.39706 L57.9197,65.59204 L53.572052,70.29834 L54.118607,70.39706 L57.9197,65.59204 L61.095448,65.492386 L56.740623,69.42601 L57.9197,65.59204 L53.572052,70.29834 L56.740623,69.42601 L53.12989,71.2426 L53.572052,70.29834 L50.000008,72.22915 L53.12989,71.2426 L50.000004,72.8396 L50.000008,72.22915 L46.95351,74.83507 L50.000004,72.8396 L47.224705,72.45224 L46.95351,74.83507 L44.11314,71.81603 L47.224705,72.45224 L44.60282,69.30709 L44.11314,71.81603 L41.35092,67.26537 L44.60282,69.30709 L42.060673,65.2437 L41.35092,67.26537 L38.79438,64.09625 L42.060673,65.2437 L39.535976,60.23414 L38.79438,64.09625 L36.400925,61.339073 L39.535976,60.23414 L36.99637,54.495476 L36.400925,61.339073 L34.0916,58.260902 L36.99637,54.495476 L34.52694,49.2358 L34.0916,58.260902 L31.73626,54.00709 L34.52694,49.2358 L32.186462,44.857998 L31.73626,54.00709 L29.395845,49.43798 L32.186462,44.857998 L30.201616,43.020866 L29.395845,49.43798 L27.463963,47.442017 L30.201616,43.020866 L28.629711,43.613556 L27.463963,47.442017 L26.033161,48.167595 L28.629711,43.613556 L27.091042,43.526844 L26.033161,48.167595 L24.53056,47.655407 L27.091042,43.526844 L25.537043,42.644558 L24.53056,47.655407 L22.894976,45.807648 L25.537043,42.644558 L24.096626,41.97255 L22.894976,45.807648 L21.33231,44.0187 L24.096626,41.97255 L22.72593,41.263695 L21.33231,44.0187 L19.785921,42.007996 L22.72593,41.263695 L21.364973,40.216286 L19.785921,42.007996 L18.208387,39.579773 L21.364973,40.216286 L19.878475,38.148785 L18.208387,39.579773 L16.643677,37.020363 L19.878475,38.148785 L18.24334,35.06843 L16.643677,37.020363 L14.964941,33.734665 L18.24334,35.06843 L16.59365,31.787064 L14.964941,33.734665 L13.285604,30.338478 L16.59365,31.787064 L13.285604,30.338478 L16.59365,31.787064 L19.70279,33.330475 L16.59365,31.787064 L18.24334,35.06843 L21.183603,35.688408 L19.70279,33.330475 L18.24334,35.06843 L19.878475,38.148785 L22.647686,37.744095 L21.183603,35.688408 L19.878475,38.148785 L21.364973,40.216286 L24.179678,39.98211 L22.647686,37.744095 L21.364973,40.216286 L22.72593,41.263695 L25.591324,41.132816 L24.179678,39.98211 L22.72593,41.263695 L24.096626,41.97255 L26.74887,40.027657 L25.591324,41.132816 L24.096626,41.97255 L25.537043,42.644558 L27.967567,38.57971 L26.74887,40.027657 L25.537043,42.644558 L27.091042,43.526844 L29.389187,37.78063 L27.967567,38.57971 L27.091042,43.526844 L28.629711,43.613556 L30.981491,37.39504 L29.389187,37.78063 L28.629711,43.613556 L30.201616,43.020866 L32.77619,37.724716 L30.981491,37.39504 L30.201616,43.020866 L32.186462,44.857998 L34.908512,40.355717 L32.77619,37.724716 L32.186462,44.857998 L34.52694,49.2358 L37.262886,44.69131 L34.908512,40.355717 L34.52694,49.2358 L36.99637,54.495476 L39.733356,49.976723 L37.262886,44.69131 L36.99637,54.495476 L39.535976,60.23414 L42.288437,56.255913 L39.733356,49.976723 L39.535976,60.23414 L42.060673,65.2437 L44.843822,62.347946 L42.288437,56.255913 L42.060673,65.2437 L44.60282,69.30709 L47.387657,67.058105 L44.843822,62.347946 L44.60282,69.30709 L47.224705,72.45224 L50.000004,69.82697 L47.387657,67.058105 L47.224705,72.45224 L50.000004,72.8396 L52.814728,70.554276 L50.000004,69.82697 L50.000004,72.8396 L53.12989,71.2426 L55.95278,70.31284 L52.814728,70.554276 L53.12989,71.2426 L56.740623,69.42601 L59.517944,69.40055 L55.95278,70.31284 L56.740623,69.42601 L61.095448,65.492386 L63.648994,67.72554 L59.517944,69.40055 L61.095448,65.492386 L63.648994,67.72554 L66.032135,67.94532 L62.128273,67.773094 L63.648994,67.72554 L59.517944,69.40055 L62.128273,67.773094 L58.62398,67.66836 L59.517944,69.40055 L55.95278,70.31284 L58.62398,67.66836 L55.48703,67.030464 L55.95278,70.31284 L52.814728,70.554276 L55.48703,67.030464 L52.64714,65.206764 L52.814728,70.554276 L50.000004,69.82697 L52.64714,65.206764 L50.000004,61.816147 L50.000004,69.82697 L47.387657,67.058105 L50.000004,61.816147 L47.440964,56.92507 L47.387657,67.058105 L44.843822,62.347946 L47.440964,56.92507 L44.903893,51.10833 L44.843822,62.347946 L42.288437,56.255913 L44.903893,51.10833 L42.388012,45.33069 L42.288437,56.255913 L39.733356,49.976723 L42.388012,45.33069 L39.946056,40.471756 L39.733356,49.976723 L37.262886,44.69131 L39.946056,40.471756 L37.608288,36.50689 L37.262886,44.69131 L34.908512,40.355717 L37.608288,36.50689 L35.422832,33.69014 L34.908512,40.355717 L32.77619,37.724716 L35.422832,33.69014 L33.52585,33.12437 L32.77619,37.724716 L30.981491,37.39504 L33.52585,33.12437 L31.968163,34.722523 L30.981491,37.39504 L29.389187,37.78063 L31.968163,34.722523 L30.65121,37.189682 L29.389187,37.78063 L27.967567,38.57971 L30.65121,37.189682 L29.235504,37.695065 L27.967567,38.57971 L26.74887,40.027657 L29.235504,37.695065 L27.643005,36.112274 L26.74887,40.027657 L25.591324,41.132816 L27.643005,36.112274 L26.157337,34.88773 L25.591324,41.132816 L24.179678,39.98211 L26.157337,34.88773 L24.80914,34.210262 L24.179678,39.98211 L22.647686,37.744095 L24.80914,34.210262 L23.566713,33.830765 L22.647686,37.744095 L21.183603,35.688408 L23.566713,33.830765 L22.462263,33.94452 L21.183603,35.688408 L19.70279,33.330475 L22.462263,33.94452 L19.70279,33.330475 L22.462263,33.94452 L24.771292,32.54692 L22.462263,33.94452 L23.566713,33.830765 L26.084883,33.59053 L24.771292,32.54692 L23.566713,33.830765 L24.80914,34.210262 L27.6912,36.478645 L26.084883,33.59053 L24.80914,34.210262 L26.157337,34.88773 L29.119858,37.719337 L27.6912,36.478645 L26.157337,34.88773 L27.643005,36.112274 L30.303593,36.373787 L29.119858,37.719337 L27.643005,36.112274 L29.235504,37.695065 L31.509752,34.27097 L30.303593,36.373787 L29.235504,37.695065 L30.65121,37.189682 L33.04056,34.16915 L31.509752,34.27097 L30.65121,37.189682 L31.968163,34.722523 L34.71478,34.539265 L33.04056,34.16915 L31.968163,34.722523 L33.52585,33.12437 L36.36977,33.374977 L34.71478,34.539265 L33.52585,33.12437 L35.422832,33.69014 L38.223434,32.98739 L36.36977,33.374977 L35.422832,33.69014 L37.608288,36.50689 L40.33312,34.598854 L38.223434,32.98739 L37.608288,36.50689 L39.946056,40.471756 L42.59829,37.266693 L40.33312,34.598854 L39.946056,40.471756 L42.388012,45.33069 L44.98152,40.751476 L42.59829,37.266693 L42.388012,45.33069 L44.903893,51.10833 L47.460373,45.185017 L44.98152,40.751476 L44.903893,51.10833 L47.440964,56.92507 L50.000004,49.971043 L47.460373,45.185017 L47.440964,56.92507 L50.000004,61.816147 L52.598934,54.600338 L50.000004,49.971043 L50.000004,61.816147 L52.64714,65.206764 L55.289833,58.62271 L52.598934,54.600338 L52.64714,65.206764 L55.48703,67.030464 L58.153122,61.451454 L55.289833,58.62271 L55.48703,67.030464 L58.62398,67.66836 L61.295017,62.963676 L58.153122,61.451454 L58.62398,67.66836 L62.128273,67.773094 L64.76639,63.88302 L61.295017,62.963676 L62.128273,67.773094 L66.032135,67.94532 L68.56304,64.95538 L64.76639,63.88302 L66.032135,67.94532 L68.56304,64.95538 L70.9729,61.81986 L67.43388,58.813095 L68.56304,64.95538 L64.76639,63.88302 L67.43388,58.813095 L64.045845,56.584137 L64.76639,63.88302 L61.295017,62.963676 L64.045845,56.584137 L60.95589,53.378838 L61.295017,62.963676 L58.153122,61.451454 L60.95589,53.378838 L58.144375,47.847412 L58.153122,61.451454 L55.289833,58.62271 L58.144375,47.847412 L55.37504,42.626553 L55.289833,58.62271 L52.598934,54.600338 L55.37504,42.626553 L52.630367,39.4371 L52.598934,54.600338 L50.000004,49.971043 L52.630367,39.4371 L50.000004,37.730747 L50.000004,49.971043 L47.460373,45.185017 L50.000004,37.730747 L47.518745,36.307316 L47.460373,45.185017 L44.98152,40.751476 L47.518745,36.307316 L45.19033,35.442055 L44.98152,40.751476 L42.59829,37.266693 L45.19033,35.442055 L43.02495,35.21378 L42.59829,37.266693 L40.33312,34.598854 L43.02495,35.21378 L41.011642,35.246246 L40.33312,34.598854 L38.223434,32.98739 L41.011642,35.246246 L39.11226,35.01494 L38.223434,32.98739 L36.36977,33.374977 L39.11226,35.01494 L37.222816,33.39057 L36.36977,33.374977 L34.71478,34.539265 L37.222816,33.39057 L35.589294,33.919754 L34.71478,34.539265 L33.04056,34.16915 L35.589294,33.919754 L34.391075,37.969875 L33.04056,34.16915 L31.509752,34.27097 L34.391075,37.969875 L33.31292,41.62849 L31.509752,34.27097 L30.303593,36.373787 L33.31292,41.62849 L32.147697,43.214645 L30.303593,36.373787 L29.119858,37.719337 L32.147697,43.214645 L30.728756,41.812813 L29.119858,37.719337 L27.6912,36.478645 L30.728756,41.812813 L28.934826,37.036213 L27.6912,36.478645 L26.084883,33.59053 L28.934826,37.036213 L27.139648,32.28558 L26.084883,33.59053 L24.771292,32.54692 L27.139648,32.28558 L24.771292,32.54692 L27.139648,32.28558 L29.386383,31.953583 L27.139648,32.28558 L28.934826,37.036213 L31.332655,38.359432 L29.386383,31.953583 L28.934826,37.036213 L30.728756,41.812813 L33.066093,43.01048 L31.332655,38.359432 L30.728756,41.812813 L32.147697,43.214645 L34.290882,42.41983 L33.066093,43.01048 L32.147697,43.214645 L33.31292,41.62849 L35.482105,40.522774 L34.290882,42.41983 L33.31292,41.62849 L34.391075,37.969875 L36.767727,38.417286 L35.482105,40.522774 L34.391075,37.969875 L35.589294,33.919754 L38.009903,33.900215 L36.767727,38.417286 L35.589294,33.919754 L37.222816,33.39057 L39.52536,30.887787 L38.009903,33.900215 L37.222816,33.39057 L39.11226,35.01494 L41.50933,33.94718 L39.52536,30.887787 L39.11226,35.01494 L41.011642,35.246246 L43.539223,36.896774 L41.50933,33.94718 L41.011642,35.246246 L43.02495,35.21378 L45.540154,36.55124 L43.539223,36.896774 L43.02495,35.21378 L45.19033,35.442055 L47.662285,34.280453 L45.540154,36.55124 L45.19033,35.442055 L47.518745,36.307316 L50.000004,32.154995 L47.662285,34.280453 L47.518745,36.307316 L50.000004,37.730747 L52.551773,31.483047 L50.000004,32.154995 L50.000004,37.730747 L52.630367,39.4371 L55.295013,31.641891 L52.551773,31.483047 L52.630367,39.4371 L55.37504,42.626553 L58.175007,33.44139 L55.295013,31.641891 L55.37504,42.626553 L58.144375,47.847412 L61.111893,37.125122 L58.175007,33.44139 L58.144375,47.847412 L60.95589,53.378838 L63.950706,43.455624 L61.111893,37.125122 L60.95589,53.378838 L64.045845,56.584137 L66.86627,49.360764 L63.950706,43.455624 L64.045845,56.584137 L67.43388,58.813095 L70.16425,52.782433 L66.86627,49.360764 L67.43388,58.813095 L70.9729,61.81986 L73.54242,56.929993 L70.16425,52.782433 L70.9729,61.81986 L73.54242,56.929993 L76.165115,51.36536 L72.84214,46.895317 L73.54242,56.929993 L70.16425,52.782433 L72.84214,46.895317 L69.714806,41.925083 L70.16425,52.782433 L66.86627,49.360764 L69.714806,41.925083 L66.8904,34.869118 L66.86627,49.360764 L63.950706,43.455624 L66.8904,34.869118 L63.638718,33.267635 L63.950706,43.455624 L61.111893,37.125122 L63.638718,33.267635 L60.54489,32.385254 L61.111893,37.125122 L58.175007,33.44139 L60.54489,32.385254 L57.674606,31.042992 L58.175007,33.44139 L55.295013,31.641891 L57.674606,31.042992 L54.9452,30.634117 L55.295013,31.641891 L52.551773,31.483047 L54.9452,30.634117 L52.3965,29.961437 L52.551773,31.483047 L50.000004,32.154995 L52.3965,29.961437 L50.000004,32.421818 L50.000004,32.154995 L47.662285,34.280453 L50.000004,32.421818 L47.849033,37.102715 L47.662285,34.280453 L45.540154,36.55124 L47.849033,37.102715 L45.86322,38.348373 L45.540154,36.55124 L43.539223,36.896774 L45.86322,38.348373 L43.80098,33.278473 L43.539223,36.896774 L41.50933,33.94718 L43.80098,33.278473 L41.74315,28.225395 L41.50933,33.94718 L39.52536,30.887787 L41.74315,28.225395 L40.171757,31.736496 L39.52536,30.887787 L38.009903,33.900215 L40.171757,31.736496 L38.86039,36.70349 L38.009903,33.900215 L36.767727,38.417286 L38.86039,36.70349 L37.515823,38.857155 L36.767727,38.417286 L35.482105,40.522774 L37.515823,38.857155 L36.27603,40.88184 L35.482105,40.522774 L34.290882,42.41983 L36.27603,40.88184 L34.96721,41.000267 L34.290882,42.41983 L33.066093,43.01048 L34.96721,41.000267 L33.19049,35.688927 L33.066093,43.01048 L31.332655,38.359432 L33.19049,35.688927 L31.224642,28.738232 L31.332655,38.359432 L29.386383,31.953583 L31.224642,28.738232 L29.386383,31.953583 L31.224642,28.738232 L32.90428,24.123276 L31.224642,28.738232 L33.19049,35.688927 L34.655685,28.938465 L32.90428,24.123276 L33.19049,35.688927 L34.96721,41.000267 L36.5469,35.619347 L34.655685,28.938465 L34.96721,41.000267 L36.27603,40.88184 L38.12257,38.38468 L36.5469,35.619347 L36.27603,40.88184 L37.515823,38.857155 L39.47739,37.196327 L38.12257,38.38468 L37.515823,38.857155 L38.86039,36.70349 L40.78863,33.342056 L39.47739,37.196327 L38.86039,36.70349 L40.171757,31.736496 L42.188377,27.917805 L40.78863,33.342056 L40.171757,31.736496 L41.74315,28.225395 L43.9523,27.27953 L42.188377,27.917805 L41.74315,28.225395 L43.80098,33.278473 L46.07033,36.78772 L43.9523,27.27953 L43.80098,33.278473 L45.86322,38.348373 L48.010826,39.7312 L46.07033,36.78772 L45.86322,38.348373 L47.849033,37.102715 L50.000004,35.278835 L48.010826,39.7312 L47.849033,37.102715 L50.000004,32.421818 L52.23223,30.71949 L50.000004,35.278835 L50.000004,32.421818 L52.3965,29.961437 L54.568516,32.420963 L52.23223,30.71949 L52.3965,29.961437 L54.9452,30.634117 L57.068428,32.92667 L54.568516,32.420963 L54.9452,30.634117 L57.674606,31.042992 L59.849083,31.367039 L57.068428,32.92667 L57.674606,31.042992 L60.54489,32.385254 L62.65633,32.88595 L59.849083,31.367039 L60.54489,32.385254 L63.638718,33.267635 L65.62015,34.550545 L62.65633,32.88595 L63.638718,33.267635 L66.8904,34.869118 L69.19594,32.346798 L65.62015,34.550545 L66.8904,34.869118 L69.714806,41.925083 L72.51236,34.931267 L69.19594,32.346798 L69.714806,41.925083 L72.84214,46.895317 L75.20915,42.8217 L72.51236,34.931267 L72.84214,46.895317 L76.165115,51.36536 L78.44927,47.47177 L75.20915,42.8217 L76.165115,51.36536 L78.44927,47.47177 L80.18742,46.126766 L77.532234,38.630325 L78.44927,47.47177 L75.20915,42.8217 L77.532234,38.630325 L74.74368,31.902012 L75.20915,42.8217 L72.51236,34.931267 L74.74368,31.902012 L70.79323,34.827576 L72.51236,34.931267 L69.19594,32.346798 L70.79323,34.827576 L67.42383,35.76976 L69.19594,32.346798 L65.62015,34.550545 L67.42383,35.76976 L64.56359,33.85084 L65.62015,34.550545 L62.65633,32.88595 L64.56359,33.85084 L61.931007,30.717564 L62.65633,32.88595 L59.849083,31.367039 L61.931007,30.717564 L59.16057,31.97361 L59.849083,31.367039 L57.068428,32.92667 L59.16057,31.97361 L56.48993,36.133694 L57.068428,32.92667 L54.568516,32.420963 L56.48993,36.133694 L54.259777,33.361916 L54.568516,32.420963 L52.23223,30.71949 L54.259777,33.361916 L52.078865,32.231464 L52.23223,30.71949 L50.000004,35.278835 L52.078865,32.231464 L50.000004,37.092205 L50.000004,35.278835 L48.010826,39.7312 L50.000004,37.092205 L48.131046,40.312424 L48.010826,39.7312 L46.07033,36.78772 L48.131046,40.312424 L46.189198,32.251274 L46.07033,36.78772 L43.9523,27.27953 L46.189198,32.251274 L44.196327,24.689247 L43.9523,27.27953 L42.188377,27.917805 L44.196327,24.689247 L42.589954,27.687637 L42.188377,27.917805 L40.78863,33.342056 L42.589954,27.687637 L41.14835,31.115208 L40.78863,33.342056 L39.47739,37.196327 L41.14835,31.115208 L39.660526,31.401672 L39.47739,37.196327 L38.12257,38.38468 L39.660526,31.401672 L37.971542,27.543354 L38.12257,38.38468 L36.5469,35.619347 L37.971542,27.543354 L36.089005,21.004456 L36.5469,35.619347 L34.655685,28.938465 L36.089005,21.004456 L34.953896,23.90799 L34.655685,28.938465 L32.90428,24.123276 L34.953896,23.90799 L32.90428,24.123276 L34.953896,23.90799 L37.052746,25.62371 L34.953896,23.90799 L36.089005,21.004456 L37.993732,19.179703 L37.052746,25.62371 L36.089005,21.004456 L37.971542,27.543354 L39.462257,19.150772 L37.993732,19.179703 L37.971542,27.543354 L39.660526,31.401672 L41.226784,23.77266 L39.462257,19.150772 L39.660526,31.401672 L41.14835,31.115208 L42.836205,24.53891 L41.226784,23.77266 L41.14835,31.115208 L42.589954,27.687637 L44.446823,23.136513 L42.836205,24.53891 L42.589954,27.687637 L44.196327,24.689247 L46.28687,27.297134 L44.446823,23.136513 L44.196327,24.689247 L46.189198,32.251274 L48.20351,37.634388 L46.28687,27.297134 L46.189198,32.251274 L48.131046,40.312424 L50.000004,37.353996 L48.20351,37.634388 L48.131046,40.312424 L50.000004,37.092205 L51.950092,33.11692 L50.000004,37.353996 L50.000004,37.092205 L52.078865,32.231464 L53.995853,33.937035 L51.950092,33.11692 L52.078865,32.231464 L54.259777,33.361916 L56.04384,37.604454 L53.995853,33.937035 L54.259777,33.361916 L56.48993,36.133694 L58.476357,34.23754 L56.04384,37.604454 L56.48993,36.133694 L59.16057,31.97361 L61.257927,29.19899 L58.476357,34.23754 L59.16057,31.97361 L61.931007,30.717564 L63.670918,32.859604 L61.257927,29.19899 L61.931007,30.717564 L64.56359,33.85084 L66.00038,38.098316 L63.670918,32.859604 L64.56359,33.85084 L67.42383,35.76976 L68.7179,40.061356 L66.00038,38.098316 L67.42383,35.76976 L70.79323,34.827576 L72.10622,38.018913 L68.7179,40.061356 L70.79323,34.827576 L74.74368,31.902012 L76.018585,34.649384 L72.10622,38.018913 L74.74368,31.902012 L77.532234,38.630325 L79.68962,35.08499 L76.018585,34.649384 L77.532234,38.630325 L80.18742,46.126766 L82.119576,43.288578 L79.68962,35.08499 L80.18742,46.126766 L82.119576,43.288578 L84.25444,39.14585 L80.79754,36.98151 L82.119576,43.288578 L79.68962,35.08499 L80.79754,36.98151 L76.789635,39.443733 L79.68962,35.08499 L76.018585,34.649384 L76.789635,39.443733 L72.84848,43.956055 L76.018585,34.649384 L72.10622,38.018913 L72.84848,43.956055 L69.72604,45.0053 L72.10622,38.018913 L68.7179,40.061356 L69.72604,45.0053 L67.21115,42.521534 L68.7179,40.061356 L66.00038,38.098316 L67.21115,42.521534 L64.96402,38.144142 L66.00038,38.098316 L63.670918,32.859604 L64.96402,38.144142 L62.993935,30.46128 L63.670918,32.859604 L61.257927,29.19899 L62.993935,30.46128 L60.607063,28.673172 L61.257927,29.19899 L58.476357,34.23754 L60.607063,28.673172 L57.92865,35.2951 L58.476357,34.23754 L56.04384,37.604454 L57.92865,35.2951 L55.691525,37.810078 L56.04384,37.604454 L53.995853,33.937035 L55.691525,37.810078 L53.747906,35.12092 L53.995853,33.937035 L51.950092,33.11692 L53.747906,35.12092 L51.842056,33.36303 L51.950092,33.11692 L50.000004,37.353996 L51.842056,33.36303 L50.000004,35.904907 L50.000004,37.353996 L48.20351,37.634388 L50.000004,35.904907 L48.24883,33.008366 L48.20351,37.634388 L46.28687,27.297134 L48.24883,33.008366 L46.400944,23.669174 L46.28687,27.297134 L44.446823,23.136513 L46.400944,23.669174 L44.60966,19.394623 L44.446823,23.136513 L42.836205,24.53891 L44.60966,19.394623 L42.90177,17.206696 L42.836205,24.53891 L41.226784,23.77266 L42.90177,17.206696 L41.276947,15.972855 L41.226784,23.77266 L39.462257,19.150772 L41.276947,15.972855 L40.01602,20.540405 L39.462257,19.150772 L37.993732,19.179703 L40.01602,20.540405 L38.907867,25.378761 L37.993732,19.179703 L37.052746,25.62371 L38.907867,25.378761 L37.052746,25.62371 L38.907867,25.378761 L40.62515,23.941124 L38.907867,25.378761 L40.01602,20.540405 L41.888054,21.068375 L40.62515,23.941124 L40.01602,20.540405 L41.276947,15.972855 L43.237553,17.5727 L41.888054,21.068375 L41.276947,15.972855 L42.90177,17.206696 L44.802807,17.303535 L43.237553,17.5727 L42.90177,17.206696 L44.60966,19.394623 L46.524265,21.11139 L44.802807,17.303535 L44.60966,19.394623 L46.400944,23.669174 L48.290245,28.435764 L46.524265,21.11139 L46.400944,23.669174 L48.24883,33.008366 L50.000004,33.17119 L48.290245,28.435764 L48.24883,33.008366 L50.000004,35.904907 L51.751102,33.016235 L50.000004,33.17119 L50.000004,35.904907 L51.842056,33.36303 L53.55066,35.120453 L51.751102,33.016235 L51.842056,33.36303 L53.747906,35.12092 L55.403255,37.204277 L53.55066,35.120453 L53.747906,35.12092 L55.691525,37.810078 L57.503838,34.93779 L55.403255,37.204277 L55.691525,37.810078 L57.92865,35.2951 L59.9685,29.248695 L57.503838,34.93779 L57.92865,35.2951 L60.607063,28.673172 L62.401558,27.991798 L59.9685,29.248695 L60.607063,28.673172 L62.993935,30.46128 L64.384705,34.230427 L62.401558,27.991798 L62.993935,30.46128 L64.96402,38.144142 L66.515335,38.671 L64.384705,34.230427 L64.96402,38.144142 L67.21115,42.521534 L68.675674,43.065125 L66.515335,38.671 L67.21115,42.521534 L69.72604,45.0053 L70.92055,47.03277 L68.675674,43.065125 L69.72604,45.0053 L72.84848,43.956055 L73.60716,48.362114 L70.92055,47.03277 L72.84848,43.956055 L76.789635,39.443733 L77.22795,45.080864 L73.60716,48.362114 L76.789635,39.443733 L80.79754,36.98151 L81.11309,42.32471 L77.22795,45.080864 L80.79754,36.98151 L84.25444,39.14585 L84.72751,42.6429 L81.11309,42.32471 L84.25444,39.14585 L84.72751,42.6429 L84.79779,47.35108 L81.541336,46.2192 L84.72751,42.6429 L81.11309,42.32471 L81.541336,46.2192 L78.01151,47.728176 L81.11309,42.32471 L77.22795,45.080864 L78.01151,47.728176 L74.70791,49.546257 L77.22795,45.080864 L73.60716,48.362114 L74.70791,49.546257 L72.114044,48.148342 L73.60716,48.362114 L70.92055,47.03277 L72.114044,48.148342 L69.93154,44.449768 L70.92055,47.03277 L68.675674,43.065125 L69.93154,44.449768 L67.84628,40.254723 L68.675674,43.065125 L66.515335,38.671 L67.84628,40.254723 L65.797455,35.939556 L66.515335,38.671 L64.384705,34.230427 L65.797455,35.939556 L63.74117,31.969498 L64.384705,34.230427 L62.401558,27.991798 L63.74117,31.969498 L61.7252,27.799911 L62.401558,27.991798 L59.9685,29.248695 L61.7252,27.799911 L59.339973,30.930614 L59.9685,29.248695 L57.503838,34.93779 L59.339973,30.930614 L57.120228,34.66497 L57.503838,34.93779 L55.403255,37.204277 L57.120228,34.66497 L55.17685,35.534573 L55.403255,37.204277 L53.55066,35.120453 L55.17685,35.534573 L53.41076,33.21301 L53.55066,35.120453 L51.751102,33.016235 L53.41076,33.21301 L51.676964,31.844025 L51.751102,33.016235 L50.000004,33.17119 L51.676964,31.844025 L50.000004,29.885258 L50.000004,33.17119 L48.290245,28.435764 L50.000004,29.885258 L48.341984,25.40841 L48.290245,28.435764 L46.524265,21.11139 L48.341984,25.40841 L46.685944,21.31726 L46.524265,21.11139 L44.802807,17.303535 L46.685944,21.31726 L45.11016,20.20639 L44.802807,17.303535 L43.237553,17.5727 L45.11016,20.20639 L43.656216,21.205154 L43.237553,17.5727 L41.888054,21.068375 L43.656216,21.205154 L42.287132,22.351921 L41.888054,21.068375 L40.62515,23.941124 L42.287132,22.351921 L40.62515,23.941124 L42.287132,22.351921 L43.933666,21.604225 L42.287132,22.351921 L43.656216,21.205154 L45.357365,21.75988 L43.933666,21.604225 L43.656216,21.205154 L45.11016,20.20639 L46.84674,22.291016 L45.357365,21.75988 L45.11016,20.20639 L46.685944,21.31726 L48.404472,24.131004 L46.84674,22.291016 L46.685944,21.31726 L48.341984,25.40841 L50.000004,27.110268 L48.404472,24.131004 L48.341984,25.40841 L50.000004,29.885258 L51.616875,29.8928 L50.000004,27.110268 L50.000004,29.885258 L51.676964,31.844025 L53.286175,31.1997 L51.616875,29.8928 L51.676964,31.844025 L53.41076,33.21301 L55.01941,32.2414 L53.286175,31.1997 L53.41076,33.21301 L55.17685,35.534573 L56.80662,33.590363 L55.01941,32.2414 L55.17685,35.534573 L57.120228,34.66497 L58.741325,33.296135 L56.80662,33.590363 L57.120228,34.66497 L59.339973,30.930614 L60.91485,30.901215 L58.741325,33.296135 L59.339973,30.930614 L61.7252,27.799911 L63.104103,30.553661 L60.91485,30.901215 L61.7252,27.799911 L63.74117,31.969498 L65.05133,34.439896 L63.104103,30.553661 L63.74117,31.969498 L65.797455,35.939556 L67.02801,38.268795 L65.05133,34.439896 L65.797455,35.939556 L67.84628,40.254723 L69.00827,42.302856 L67.02801,38.268795 L67.84628,40.254723 L69.93154,44.449768 L71.04744,46.0681 L69.00827,42.302856 L69.93154,44.449768 L72.114044,48.148342 L73.397484,47.96621 L71.04744,46.0681 L72.114044,48.148342 L74.70791,49.546257 L76.35836,46.79729 L73.397484,47.96621 L74.70791,49.546257 L78.01151,47.728176 L79.62625,45.20008 L76.35836,46.79729 L78.01151,47.728176 L81.541336,46.2192 L82.710754,45.818527 L79.62625,45.20008 L81.541336,46.2192 L84.79779,47.35108 L85.529594,48.51484 L82.710754,45.818527 L84.79779,47.35108 L85.529594,48.51484 L86.942535,46.378994 L84.21398,43.5114 L85.529594,48.51484 L82.710754,45.818527 L84.21398,43.5114 L81.41402,41.557392 L82.710754,45.818527 L79.62625,45.20008 L81.41402,41.557392 L78.51413,40.91665 L79.62625,45.20008 L76.35836,46.79729 L78.51413,40.91665 L75.48587,42.13368 L76.35836,46.79729 L73.397484,47.96621 L75.48587,42.13368 L72.64096,43.516075 L73.397484,47.96621 L71.04744,46.0681 L72.64096,43.516075 L70.256386,42.748825 L71.04744,46.0681 L69.00827,42.302856 L70.256386,42.748825 L68.21545,39.90187 L69.00827,42.302856 L67.02801,38.268795 L68.21545,39.90187 L66.301414,36.249397 L67.02801,38.268795 L65.05133,34.439896 L66.301414,36.249397 L64.32086,33.697174 L65.05133,34.439896 L63.104103,30.553661 L64.32086,33.697174 L62.23996,33.26642 L63.104103,30.553661 L60.91485,30.901215 L62.23996,33.26642 L60.267113,32.624306 L60.91485,30.901215 L58.741325,33.296135 L60.267113,32.624306 L58.428898,30.92765 L58.741325,33.296135 L56.80662,33.590363 L58.428898,30.92765 L56.611423,30.159954 L56.80662,33.590363 L55.01941,32.2414 L56.611423,30.159954 L54.834976,30.460587 L55.01941,32.2414 L53.286175,31.1997 L54.834976,30.460587 L53.16327,29.724407 L53.286175,31.1997 L51.616875,29.8928 L53.16327,29.724407 L51.564255,27.698826 L51.616875,29.8928 L50.000004,27.110268 L51.564255,27.698826 L50.000004,25.510612 L50.000004,27.110268 L48.404472,24.131004 L50.000004,25.510612 L48.47039,23.895432 L48.404472,24.131004 L46.84674,22.291016 L48.47039,23.895432 L46.989777,22.999428 L46.84674,22.291016 L45.357365,21.75988 L46.989777,22.999428 L45.561832,22.379456 L45.357365,21.75988 L43.933666,21.604225 L45.561832,22.379456 L43.933666,21.604225 L45.561832,22.379456 L47.12655,24.036072 L45.561832,22.379456 L46.989777,22.999428 L48.53683,24.393066 L47.12655,24.036072 L46.989777,22.999428 L48.47039,23.895432 L50.000004,24.951279 L48.53683,24.393066 L48.47039,23.895432 L50.000004,25.510612 L51.51024,26.20362 L50.000004,24.951279 L50.000004,25.510612 L51.564255,27.698826 L53.05572,27.976627 L51.51024,26.20362 L51.564255,27.698826 L53.16327,29.724407 L54.638496,29.76093 L53.05572,27.976627 L53.16327,29.724407 L54.834976,30.460587 L56.290848,30.719078 L54.638496,29.76093 L54.834976,30.460587 L56.611423,30.159954 L58.082355,29.936066 L56.290848,30.719078 L56.611423,30.159954 L58.428898,30.92765 L60.013382,28.452583 L58.082355,29.936066 L58.428898,30.92765 L60.267113,32.624306 L61.89937,29.459549 L60.013382,28.452583 L60.267113,32.624306 L62.23996,33.26642 L63.675274,32.804382 L61.89937,29.459549 L62.23996,33.26642 L64.32086,33.697174 L65.521194,35.637165 L63.675274,32.804382 L64.32086,33.697174 L66.301414,36.249397 L67.463066,37.915 L65.521194,35.637165 L66.301414,36.249397 L68.21545,39.90187 L69.50789,39.795834 L67.463066,37.915 L68.21545,39.90187 L70.256386,42.748825 L71.78761,40.440983 L69.50789,39.795834 L70.256386,42.748825 L72.64096,43.516075 L74.29985,40.28938 L71.78761,40.440983 L72.64096,43.516075 L75.48587,42.13368 L76.84796,40.84812 L74.29985,40.28938 L75.48587,42.13368 L78.51413,40.91665 L79.3388,42.51257 L76.84796,40.84812 L78.51413,40.91665 L81.41402,41.557392 L81.84499,44.680214 L79.3388,42.51257 L81.41402,41.557392 L84.21398,43.5114 L84.69226,45.763874 L81.84499,44.680214 L84.21398,43.5114 L86.942535,46.378994 L87.86706,46.145496 L84.69226,45.763874 L86.942535,46.378994 L87.86706,46.145496 L87.473076,51.141438 L84.447365,50.88935 L87.86706,46.145496 L84.69226,45.763874 L84.447365,50.88935 L82.18865,47.736702 L84.69226,45.763874 L81.84499,44.680214 L82.18865,47.736702 L80.03628,44.332764 L81.84499,44.680214 L79.3388,42.51257 L80.03628,44.332764 L77.79809,41.709656 L79.3388,42.51257 L76.84796,40.84812 L77.79809,41.709656 L75.56121,39.513515 L76.84796,40.84812 L74.29985,40.28938 L75.56121,39.513515 L73.32499,37.846912 L74.29985,40.28938 L71.78761,40.440983 L73.32499,37.846912 L71.108,36.69262 L71.78761,40.440983 L69.50789,39.795834 L71.108,36.69262 L69.05194,34.90408 L69.50789,39.795834 L67.463066,37.915 L69.05194,34.90408 L67.20583,31.671715 L67.463066,37.915 L65.521194,35.637165 L67.20583,31.671715 L65.41821,28.085499 L65.521194,35.637165 L63.675274,32.804382 L65.41821,28.085499 L63.38481,28.005123 L63.675274,32.804382 L61.89937,29.459549 L63.38481,28.005123 L61.25805,30.827248 L61.89937,29.459549 L60.013382,28.452583 L61.25805,30.827248 L59.366688,32.012085 L60.013382,28.452583 L58.082355,29.936066 L59.366688,32.012085 L57.66182,31.334648 L58.082355,29.936066 L56.290848,30.719078 L57.66182,31.334648 L56.04343,29.958565 L56.290848,30.719078 L54.638496,29.76093 L56.04343,29.958565 L54.481865,28.143013 L54.638496,29.76093 L53.05572,27.976627 L54.481865,28.143013 L52.957077,26.232407 L53.05572,27.976627 L51.51024,26.20362 L52.957077,26.232407 L51.458927,24.921295 L51.51024,26.20362 L50.000004,24.951279 L51.458927,24.921295 L50.000004,24.684784 L50.000004,24.951279 L48.53683,24.393066 L50.000004,24.684784 L48.600365,25.188263 L48.53683,24.393066 L47.12655,24.036072 L48.600365,25.188263 L47.12655,24.036072 L48.600365,25.188263 L50.000004,23.863792 L48.600365,25.188263 L50.000004,24.684784 L51.4177,22.854248 L50.000004,23.863792 L50.000004,24.684784 L51.458927,24.921295 L52.88463,23.32869 L51.4177,22.854248 L51.458927,24.921295 L52.957077,26.232407 L54.36928,25.231102 L52.88463,23.32869 L52.957077,26.232407 L54.481865,28.143013 L55.859894,27.88224 L54.36928,25.231102 L54.481865,28.143013 L56.04343,29.958565 L57.40202,29.756908 L55.859894,27.88224 L56.04343,29.958565 L57.66182,31.334648 L59.045944,30.331451 L57.40202,29.756908 L57.66182,31.334648 L59.366688,32.012085 L60.77552,30.536812 L59.045944,30.331451 L59.366688,32.012085 L61.25805,30.827248 L62.534504,31.376629 L60.77552,30.536812 L61.25805,30.827248 L63.38481,28.005123 L64.43594,31.295628 L62.534504,31.376629 L63.38481,28.005123 L65.41821,28.085499 L66.69544,28.383606 L64.43594,31.295628 L65.41821,28.085499 L67.20583,31.671715 L68.88445,27.707905 L66.69544,28.383606 L67.20583,31.671715 L69.05194,34.90408 L70.8668,29.81503 L68.88445,27.707905 L69.05194,34.90408 L71.108,36.69262 L72.85947,32.2924 L70.8668,29.81503 L71.108,36.69262 L73.32499,37.846912 L74.993904,34.16201 L72.85947,32.2924 L73.32499,37.846912 L75.56121,39.513515 L77.49508,34.211216 L74.993904,34.16201 L75.56121,39.513515 L77.79809,41.709656 L80.23761,33.67041 L77.49508,34.211216 L77.79809,41.709656 L80.03628,44.332764 L82.760315,35.157684 L80.23761,33.67041 L80.03628,44.332764 L82.18865,47.736702 L84.989914,38.593063 L82.760315,35.157684 L82.18865,47.736702 L84.447365,50.88935 L86.90839,43.630928 L84.989914,38.593063 L84.447365,50.88935 L87.473076,51.141438 L88.565125,49.712433 L86.90839,43.630928 L87.473076,51.141438" fill="none" stroke="#000" stroke-width="0.35" style="mix-blend-mode: multiply;"/>
</g>
</svg>