<svg height="100mm" style="background:white" viewBox="0 0 100 100" width="100mm" xmlns="http://www.w3.org/2000/svg" xmlns:inkscape="http://www.inkscape.org/namespaces/inkscape">
<g inkscape:groupmode="layer" inkscape:label="#000">
<path d="M50.000008,95.24044 L53.56123,88.75898 L50.000004,88.33859 L50.000008,95.24044 L46.570076,93.084114 L50.000004,88.33859 L46.775085,83.49307 L46.570076,93.084114 L43.12893,84.19331 L46.775085,83.49307 L43.48627,74.02554 L43.12893,84.19331 L39.32914,70.8719 L43.48627,74.02554 L40.191345,65.22574 L39.32914,70.8719 L35.915993,63.315926 L40.191345,65.22574 L37.095337,58.91929 L35.915993,63.315926 L32.725723,57.242897 L37.095337,58.91929 L34.117672,53.13683 L32.725723,57.242897 L29.608608,51.055485 L34.117672,53.13683 L31.31232,48.222115 L29.608608,51.055485 L26.60528,45.161686 L31.31232,48.222115 L29.064924,46.92222 L26.60528,45.161686 L24.187553,42.5486 L29.064924,46.92222 L27.511948,49.362774 L24.187553,42.5486 L23.280783,48.088898 L27.511948,49.362774 L25.830622,49.555264 L23.280783,48.088898 L22.398996,52.200836 L25.830622,49.555264 L24.394337,50.347412 L22.398996,52.200836 L20.727535,50.974686 L24.394337,50.347412 L23.042141,50.81809 L20.727535,50.974686 L19.240704,50.182716 L23.042141,50.81809 L21.469336,49.42791 L19.240704,50.182716 L17.72557,48.794975 L21.469336,49.42791 L19.96225,47.984367 L17.72557,48.794975 L15.880468,45.504105 L19.96225,47.984367 L18.068378,44.24108 L15.880468,45.504105 L13.496258,39.569458 L18.068378,44.24108 L15.44198,36.76815 L13.496258,39.569458 L11.172211,33.88823 L15.44198,36.76815 L13.244646,31.436062 L11.172211,33.88823 L9.14083,29.44769 L13.244646,31.436062 L11.684194,29.019249 L9.14083,29.44769 L7.7648973,27.696846 L11.684194,29.019249 L10.545828,28.333138 L7.7648973,27.696846 L7.2142696,29.175613 L10.545828,28.333138 L9.440951,27.56298 L7.2142696,29.175613 L6.387768,29.24841 L9.440951,27.56298 L6.387768,29.24841 L9.440951,27.56298 L12.766417,27.853294 L9.440951,27.56298 L10.545828,28.333138 L14.02445,29.108234 L12.766417,27.853294 L10.545828,28.333138 L11.684194,29.019249 L15.337822,30.401985 L14.02445,29.108234 L11.684194,29.019249 L13.244646,31.436062 L16.986313,33.179554 L15.337822,30.401985 L13.244646,31.436062 L15.44198,36.76815 L19.314804,39.449722 L16.986313,33.179554 L15.44198,36.76815 L18.068378,44.24108 L21.624357,45.669647 L19.314804,39.449722 L18.068378,44.24108 L19.96225,47.984367 L23.16864,47.425823 L21.624357,45.669647 L19.96225,47.984367 L21.469336,49.42791 L24.550123,47.777096 L23.16864,47.425823 L21.469336,49.42791 L23.042141,50.81809 L26.226364,49.440567 L24.550123,47.777096 L23.042141,50.81809 L24.394337,50.347412 L27.810005,49.877895 L26.226364,49.440567 L24.394337,50.347412 L25.830622,49.555264 L29.16918,47.714798 L27.810005,49.877895 L25.830622,49.555264 L27.511948,49.362774 L30.862589,46.732555 L29.16918,47.714798 L27.511948,49.362774 L29.064924,46.92222 L32.830025,46.53868 L30.862589,46.732555 L29.064924,46.92222 L31.31232,48.222115 L35.267372,49.274334 L32.830025,46.53868 L31.31232,48.222115 L34.117672,53.13683 L38.02543,54.353134 L35.267372,49.274334 L34.117672,53.13683 L37.095337,58.91929 L40.888474,59.843346 L38.02543,54.353134 L37.095337,58.91929 L40.191345,65.22574 L43.850243,65.820045 L40.888474,59.843346 L40.191345,65.22574 L43.48627,74.02554 L46.90567,72.77409 L43.850243,65.820045 L43.48627,74.02554 L46.775085,83.49307 L50.000004,79.280975 L46.90567,72.77409 L46.775085,83.49307 L50.000004,88.33859 L53.21649,83.8139 L50.000004,79.280975 L50.000004,88.33859 L53.56123,88.75898 L57.041164,81.1763 L53.21649,83.8139 L53.56123,88.75898 L57.041164,81.1763 L60.13199,77.69996 L56.261375,79.14174 L57.041164,81.1763 L53.21649,83.8139 L56.261375,79.14174 L53.05311,74.55055 L53.21649,83.8139 L50.000004,79.280975 L53.05311,74.55055 L50.000004,68.25626 L50.000004,79.280975 L46.90567,72.77409 L50.000004,68.25626 L47.02063,62.62639 L46.90567,72.77409 L43.850243,65.820045 L47.02063,62.62639 L44.139626,57.56909 L43.850243,65.820045 L40.888474,59.843346 L44.139626,57.56909 L41.321808,52.1371 L40.888474,59.843346 L38.02543,54.353134 L41.321808,52.1371 L38.54804,46.4646 L38.02543,54.353134 L35.267372,49.274334 L38.54804,46.4646 L36.045506,43.41131 L35.267372,49.274334 L32.830025,46.53868 L36.045506,43.41131 L33.98184,43.710403 L32.830025,46.53868 L30.862589,46.732555 L33.98184,43.710403 L32.312576,45.999405 L30.862589,46.732555 L29.16918,47.714798 L32.312576,45.999405 L30.858648,48.432106 L29.16918,47.714798 L27.810005,49.877895 L30.858648,48.432106 L29.271538,48.492973 L27.810005,49.877895 L26.226364,49.440567 L29.271538,48.492973 L27.682173,47.721245 L26.226364,49.440567 L24.550123,47.777096 L27.682173,47.721245 L26.234667,47.305283 L24.550123,47.777096 L23.16864,47.425823 L26.234667,47.305283 L24.500004,44.52806 L23.16864,47.425823 L21.624357,45.669647 L24.500004,44.52806 L22.345055,38.96209 L21.624357,45.669647 L19.314804,39.449722 L22.345055,38.96209 L20.410769,34.689274 L19.314804,39.449722 L16.986313,33.179554 L20.410769,34.689274 L18.824957,32.275333 L16.986313,33.179554 L15.337822,30.401985 L18.824957,32.275333 L17.469652,30.902122 L15.337822,30.401985 L14.02445,29.108234 L17.469652,30.902122 L16.141958,29.430435 L14.02445,29.108234 L12.766417,27.853294 L16.141958,29.430435 L12.766417,27.853294 L16.141958,29.430435 L19.485876,32.093678 L16.141958,29.430435 L17.469652,30.902122 L20.827501,33.582798 L19.485876,32.093678 L17.469652,30.902122 L18.824957,32.275333 L22.08995,34.311638 L20.827501,33.582798 L18.824957,32.275333 L20.410769,34.689274 L23.594267,36.2163 L22.08995,34.311638 L20.410769,34.689274 L22.345055,38.96209 L25.4128,39.92643 L23.594267,36.2163 L22.345055,38.96209 L24.500004,44.52806 L27.263027,43.699562 L25.4128,39.92643 L24.500004,44.52806 L26.234667,47.305283 L29.116915,47.317467 L27.263027,43.699562 L26.234667,47.305283 L27.682173,47.721245 L30.748371,48.87907 L29.116915,47.317467 L27.682173,47.721245 L29.271538,48.492973 L32.259846,48.7333 L30.748371,48.87907 L29.271538,48.492973 L30.858648,48.432106 L33.75892,47.330315 L32.259846,48.7333 L30.858648,48.432106 L32.312576,45.999405 L35.286133,44.502457 L33.75892,47.330315 L32.312576,45.999405 L33.98184,43.710403 L37.023445,41.657394 L35.286133,44.502457 L33.98184,43.710403 L36.045506,43.41131 L39.107117,40.454872 L37.023445,41.657394 L36.045506,43.41131 L38.54804,46.4646 L41.559998,42.10361 L39.107117,40.454872 L38.54804,46.4646 L41.321808,52.1371 L44.276234,46.526302 L41.559998,42.10361 L41.321808,52.1371 L44.139626,57.56909 L47.094814,51.473957 L44.276234,46.526302 L44.139626,57.56909 L47.02063,62.62639 L50.000004,56.466637 L47.094814,51.473957 L47.02063,62.62639 L50.000004,68.25626 L52.985237,62.344498 L50.000004,56.466637 L50.000004,68.25626 L53.05311,74.55055 L56.015083,68.89193 L52.985237,62.344498 L53.05311,74.55055 L56.261375,79.14174 L59.17906,74.266884 L56.015083,68.89193 L56.261375,79.14174 L60.13199,77.69996 L62.77347,76.60031 L59.17906,74.266884 L60.13199,77.69996 L62.77347,76.60031 L65.52669,72.3002 L62.131214,67.73953 L62.77347,76.60031 L59.17906,74.266884 L62.131214,67.73953 L58.972374,62.07689 L59.17906,74.266884 L56.015083,68.89193 L58.972374,62.07689 L55.92357,55.968136 L56.015083,68.89193 L52.985237,62.344498 L55.92357,55.968136 L52.92761,50.281544 L52.985237,62.344498 L50.000004,56.466637 L52.92761,50.281544 L50.000004,45.628265 L50.000004,56.466637 L47.094814,51.473957 L50.000004,45.628265 L47.180656,41.75323 L47.094814,51.473957 L44.276234,46.526302 L47.180656,41.75323 L44.509735,39.12216 L44.276234,46.526302 L41.559998,42.10361 L44.509735,39.12216 L42.084824,38.928036 L41.559998,42.10361 L39.107117,40.454872 L42.084824,38.928036 L39.977913,40.996548 L39.107117,40.454872 L37.023445,41.657394 L39.977913,40.996548 L38.17485,44.25984 L37.023445,41.657394 L35.286133,44.502457 L38.17485,44.25984 L36.584457,47.427402 L35.286133,44.502457 L33.75892,47.330315 L36.584457,47.427402 L35.078636,49.4263 L33.75892,47.330315 L32.259846,48.7333 L35.078636,49.4263 L33.521088,49.47991 L32.259846,48.7333 L30.748371,48.87907 L33.521088,49.47991 L31.767035,46.9293 L30.748371,48.87907 L29.116915,47.317467 L31.767035,46.9293 L29.704103,41.49502 L29.116915,47.317467 L27.263027,43.699562 L29.704103,41.49502 L27.756426,36.97453 L27.263027,43.699562 L25.4128,39.92643 L27.756426,36.97453 L26.232092,35.424477 L25.4128,39.92643 L23.594267,36.2163 L26.232092,35.424477 L24.964865,35.272717 L23.594267,36.2163 L22.08995,34.311638 L24.964865,35.272717 L23.815878,35.454388 L22.08995,34.311638 L20.827501,33.582798 L23.815878,35.454388 L22.596558,34.783974 L20.827501,33.582798 L19.485876,32.093678 L22.596558,34.783974 L19.485876,32.093678 L22.596558,34.783974 L25.10584,34.848064 L22.596558,34.783974 L23.815878,35.454388 L26.347713,35.4862 L25.10584,34.848064 L23.815878,35.454388 L24.964865,35.272717 L27.91763,38.200054 L26.347713,35.4862 L24.964865,35.272717 L26.232092,35.424477 L29.492233,40.721832 L27.91763,38.200054 L26.232092,35.424477 L27.756426,36.97453 L30.870256,41.25616 L29.492233,40.721832 L27.756426,36.97453 L29.704103,41.49502 L32.13149,40.047997 L30.870256,41.25616 L29.704103,41.49502 L31.767035,46.9293 L33.621597,40.0588 L32.13149,40.047997 L31.767035,46.9293 L33.521088,49.47991 L35.546425,43.87245 L33.621597,40.0588 L33.521088,49.47991 L35.078636,49.4263 L37.458385,47.16842 L35.546425,43.87245 L35.078636,49.4263 L36.584457,47.427402 L39.179512,47.03976 L37.458385,47.16842 L36.584457,47.427402 L38.17485,44.25984 L40.909306,44.819717 L39.179512,47.03976 L38.17485,44.25984 L39.977913,40.996548 L42.79195,41.68351 L40.909306,44.819717 L39.977913,40.996548 L42.084824,38.928036 L44.920723,38.74852 L42.79195,41.68351 L42.084824,38.928036 L44.509735,39.12216 L47.337357,37.391376 L44.920723,38.74852 L44.509735,39.12216 L47.180656,41.75323 L50.000004,38.36743 L47.337357,37.391376 L47.180656,41.75323 L50.000004,45.628265 L52.834663,40.860977 L50.000004,38.36743 L50.000004,45.628265 L52.92761,50.281544 L55.799694,44.41013 L52.834663,40.860977 L52.92761,50.281544 L55.92357,55.968136 L58.841232,49.24517 L55.799694,44.41013 L55.92357,55.968136 L58.972374,62.07689 L61.950497,54.658348 L58.841232,49.24517 L58.972374,62.07689 L62.131214,67.73953 L65.18138,59.886826 L61.950497,54.658348 L62.131214,67.73953 L65.52669,72.3002 L68.61613,64.55179 L65.18138,59.886826 L65.52669,72.3002 L68.61613,64.55179 L71.45549,58.50046 L68.181,52.50219 L68.61613,64.55179 L65.18138,59.886826 L68.181,52.50219 L64.92087,47.271 L65.18138,59.886826 L61.950497,54.658348 L64.92087,47.271 L61.753426,42.26309 L61.950497,54.658348 L58.841232,49.24517 L61.753426,42.26309 L58.615917,38.68615 L58.841232,49.24517 L55.799694,44.41013 L58.615917,38.68615 L55.559296,37.02345 L55.799694,44.41013 L52.834663,40.860977 L55.559296,37.02345 L52.682335,36.144974 L52.834663,40.860977 L50.000004,38.36743 L52.682335,36.144974 L50.000004,36.426167 L50.000004,38.36743 L47.337357,37.391376 L50.000004,36.426167 L47.561287,39.21781 L47.337357,37.391376 L44.920723,38.74852 L47.561287,39.21781 L45.404743,43.04892 L44.920723,38.74852 L42.79195,41.68351 L45.404743,43.04892 L43.420666,44.907417 L42.79195,41.68351 L40.909306,44.819717 L43.420666,44.907417 L41.46116,43.789745 L40.909306,44.819717 L39.179512,47.03976 L41.46116,43.789745 L39.46299,40.525455 L39.179512,47.03976 L37.458385,47.16842 L39.46299,40.525455 L37.67414,39.49041 L37.458385,47.16842 L35.546425,43.87245 L37.67414,39.49041 L36.40454,43.65915 L35.546425,43.87245 L33.621597,40.0588 L36.40454,43.65915 L35.194027,46.61769 L33.621597,40.0588 L32.13149,40.047997 L35.194027,46.61769 L33.82363,46.66151 L32.13149,40.047997 L30.870256,41.25616 L33.82363,46.66151 L32.326107,44.84222 L30.870256,41.25616 L29.492233,40.721832 L32.326107,44.84222 L30.63007,40.971634 L29.492233,40.721832 L27.91763,38.200054 L30.63007,40.971634 L28.713636,35.261223 L27.91763,38.200054 L26.347713,35.4862 L28.713636,35.261223 L27.081306,31.842041 L26.347713,35.4862 L25.10584,34.848064 L27.081306,31.842041 L25.10584,34.848064 L27.081306,31.842041 L28.960924,28.359703 L27.081306,31.842041 L28.713636,35.261223 L30.856258,34.0792 L28.960924,28.359703 L28.713636,35.261223 L30.63007,40.971634 L32.82434,40.682487 L30.856258,34.0792 L30.63007,40.971634 L32.326107,44.84222 L34.343086,42.963684 L32.82434,40.682487 L32.326107,44.84222 L33.82363,46.66151 L35.786682,43.99601 L34.343086,42.963684 L33.82363,46.66151 L35.194027,46.61769 L37.402786,46.463924 L35.786682,43.99601 L35.194027,46.61769 L36.40454,43.65915 L38.82979,45.673813 L37.402786,46.463924 L36.40454,43.65915 L37.67414,39.49041 L40.074036,40.064426 L38.82979,45.673813 L37.67414,39.49041 L39.46299,40.525455 L41.61947,36.179996 L40.074036,40.064426 L39.46299,40.525455 L41.46116,43.789745 L43.664436,40.175606 L41.61947,36.179996 L41.46116,43.789745 L43.420666,44.907417 L45.754047,44.681606 L43.664436,40.175606 L43.420666,44.907417 L45.404743,43.04892 L47.795296,44.0552 L45.754047,44.681606 L45.404743,43.04892 L47.561287,39.21781 L50.000004,39.409065 L47.795296,44.0552 L47.561287,39.21781 L50.000004,36.426167 L52.476418,36.63926 L50.000004,39.409065 L50.000004,36.426167 L52.682335,36.144974 L55.14006,36.746544 L52.476418,36.63926 L52.682335,36.144974 L55.559296,37.02345 L57.998905,37.16018 L55.14006,36.746544 L55.559296,37.02345 L58.615917,38.68615 L61.13227,36.815346 L57.998905,37.16018 L58.615917,38.68615 L61.753426,42.26309 L64.5432,36.54901 L61.13227,36.815346 L61.753426,42.26309 L64.92087,47.271 L67.86388,40.091225 L64.5432,36.54901 L64.92087,47.271 L68.181,52.50219 L71.13803,45.37939 L67.86388,40.091225 L68.181,52.50219 L71.45549,58.50046 L74.157364,53.03415 L71.13803,45.37939 L71.45549,58.50046 L74.157364,53.03415 L77.14131,45.59315 L74.12302,37.96909 L74.157364,53.03415 L71.13803,45.37939 L74.12302,37.96909 L70.72331,33.52787 L71.13803,45.37939 L67.86388,40.091225 L70.72331,33.52787 L66.80142,35.771008 L67.86388,40.091225 L64.5432,36.54901 L66.80142,35.771008 L63.131187,39.698303 L64.5432,36.54901 L61.13227,36.815346 L63.131187,39.698303 L60.137093,39.102425 L61.13227,36.815346 L57.998905,37.16018 L60.137093,39.102425 L57.351685,38.407906 L57.998905,37.16018 L55.14006,36.746544 L57.351685,38.407906 L54.73233,38.186245 L55.14006,36.746544 L52.476418,36.63926 L54.73233,38.186245 L52.272324,39.086575 L52.476418,36.63926 L50.000004,39.409065 L52.272324,39.086575 L50.000004,43.648293 L50.000004,39.409065 L47.795296,44.0552 L50.000004,43.648293 L47.947514,44.839176 L47.795296,44.0552 L45.754047,44.681606 L47.947514,44.839176 L45.87153,38.68534 L45.754047,44.681606 L43.664436,40.175606 L45.87153,38.68534 L43.772324,32.47959 L43.664436,40.175606 L41.61947,36.179996 L43.772324,32.47959 L42.15324,37.058712 L41.61947,36.179996 L40.074036,40.064426 L42.15324,37.058712 L40.814896,43.145035 L40.074036,40.064426 L38.82979,45.673813 L40.814896,43.145035 L39.354607,44.217915 L38.82979,45.673813 L37.402786,46.463924 L39.354607,44.217915 L37.76281,42.165497 L37.402786,46.463924 L35.786682,43.99601 L37.76281,42.165497 L36.3174,41.37977 L35.786682,43.99601 L34.343086,42.963684 L36.3174,41.37977 L34.710144,38.1774 L34.343086,42.963684 L32.82434,40.682487 L34.710144,38.1774 L32.702408,30.741493 L32.82434,40.682487 L30.856258,34.0792 L32.702408,30.741493 L30.832317,25.032578 L30.856258,34.0792 L28.960924,28.359703 L30.832317,25.032578 L28.960924,28.359703 L30.832317,25.032578 L32.838943,23.427841 L30.832317,25.032578 L32.702408,30.741493 L34.328392,25.160072 L32.838943,23.427841 L32.702408,30.741493 L34.710144,38.1774 L36.313248,32.658787 L34.328392,25.160072 L34.710144,38.1774 L36.3174,41.37977 L38.120842,38.360252 L36.313248,32.658787 L36.3174,41.37977 L37.76281,42.165497 L39.692055,40.641552 L38.120842,38.360252 L37.76281,42.165497 L39.354607,44.217915 L41.173714,40.563324 L39.692055,40.641552 L39.354607,44.217915 L40.814896,43.145035 L42.58172,36.888786 L41.173714,40.563324 L40.814896,43.145035 L42.15324,37.058712 L44.045216,30.026508 L42.58172,36.888786 L42.15324,37.058712 L43.772324,32.47959 L45.917557,30.206345 L44.045216,30.026508 L43.772324,32.47959 L45.87153,38.68534 L48.012936,39.907585 L45.917557,30.206345 L45.87153,38.68534 L47.947514,44.839176 L50.000004,43.758984 L48.012936,39.907585 L47.947514,44.839176 L50.000004,43.648293 L52.09571,41.444706 L50.000004,43.758984 L50.000004,43.648293 L52.272324,39.086575 L54.3901,39.20294 L52.09571,41.444706 L52.272324,39.086575 L54.73233,38.186245 L56.823082,38.93679 L54.3901,39.20294 L54.73233,38.186245 L57.351685,38.407906 L59.539444,36.859665 L56.823082,38.93679 L57.351685,38.407906 L60.137093,39.102425 L62.323685,37.437973 L59.539444,36.859665 L60.137093,39.102425 L63.131187,39.698303 L65.01965,41.144695 L62.323685,37.437973 L63.131187,39.698303 L66.80142,35.771008 L68.29924,40.462337 L65.01965,41.144695 L66.80142,35.771008 L70.72331,33.52787 L72.94178,31.66661 L68.29924,40.462337 L70.72331,33.52787 L74.12302,37.96909 L76.92949,31.680622 L72.94178,31.66661 L74.12302,37.96909 L77.14131,45.59315 L80.306885,37.115482 L76.92949,31.680622 L77.14131,45.59315 L80.306885,37.115482 L82.65822,33.034977 L79.05572,29.364666 L80.306885,37.115482 L76.92949,31.680622 L79.05572,29.364666 L73.9883,37.219337 L76.92949,31.680622 L72.94178,31.66661 L73.9883,37.219337 L69.817375,42.864574 L72.94178,31.66661 L68.29924,40.462337 L69.817375,42.864574 L67.22472,37.71597 L68.29924,40.462337 L65.01965,41.144695 L67.22472,37.71597 L64.67117,32.57866 L65.01965,41.144695 L62.323685,37.437973 L64.67117,32.57866 L61.841225,32.037205 L62.323685,37.437973 L59.539444,36.859665 L61.841225,32.037205 L58.936073,36.240257 L59.539444,36.859665 L56.823082,38.93679 L58.936073,36.240257 L56.366188,39.374084 L56.823082,38.93679 L54.3901,39.20294 L56.366188,39.374084 L54.115868,39.19691 L54.3901,39.20294 L52.09571,41.444706 L54.115868,39.19691 L51.97481,40.933437 L52.09571,41.444706 L50.000004,43.758984 L51.97481,40.933437 L50.000004,39.915848 L50.000004,43.758984 L48.012936,39.907585 L50.000004,39.915848 L48.043205,32.521305 L48.012936,39.907585 L45.917557,30.206345 L48.043205,32.521305 L45.995754,23.427551 L45.917557,30.206345 L44.045216,30.026508 L45.995754,23.427551 L44.307617,28.167473 L44.045216,30.026508 L42.58172,36.888786 L44.307617,28.167473 L42.794014,32.600098 L42.58172,36.888786 L41.173714,40.563324 L42.794014,32.600098 L41.266293,33.44651 L41.173714,40.563324 L39.692055,40.641552 L41.266293,33.44651 L39.63093,30.901764 L39.692055,40.641552 L38.120842,38.360252 L39.63093,30.901764 L37.826973,25.3975 L38.120842,38.360252 L36.313248,32.658787 L37.826973,25.3975 L36.080593,20.892555 L36.313248,32.658787 L34.328392,25.160072 L36.080593,20.892555 L35.063473,25.234718 L34.328392,25.160072 L32.838943,23.427841 L35.063473,25.234718 L32.838943,23.427841 L35.063473,25.234718 L37.087616,26.109753 L35.063473,25.234718 L36.080593,20.892555 L38.150455,21.61943 L37.087616,26.109753 L36.080593,20.892555 L37.826973,25.3975 L39.441017,18.774048 L38.150455,21.61943 L37.826973,25.3975 L39.63093,30.901764 L41.188713,22.98146 L39.441017,18.774048 L39.63093,30.901764 L41.266293,33.44651 L42.863808,25.238388 L41.188713,22.98146 L41.266293,33.44651 L42.794014,32.600098 L44.456974,23.471024 L42.863808,25.238388 L42.794014,32.600098 L44.307617,28.167473 L46.11514,19.028519 L44.456974,23.471024 L44.307617,28.167473 L45.995754,23.427551 L48.065582,24.701828 L46.11514,19.028519 L45.995754,23.427551 L48.043205,32.521305 L50.000004,34.603313 L48.065582,24.701828 L48.043205,32.521305 L50.000004,39.915848 L51.895557,37.954002 L50.000004,34.603313 L50.000004,39.915848 L51.97481,40.933437 L53.907005,37.764744 L51.895557,37.954002 L51.97481,40.933437 L54.115868,39.19691 L56.00832,38.594574 L53.907005,37.764744 L54.115868,39.19691 L56.366188,39.374084 L58.336075,37.081444 L56.00832,38.594574 L56.366188,39.374084 L58.936073,36.240257 L61.22528,29.711834 L58.336075,37.081444 L58.936073,36.240257 L61.841225,32.037205 L64.18833,26.303616 L61.22528,29.711834 L61.841225,32.037205 L64.67117,32.57866 L66.9284,28.355629 L64.18833,26.303616 L64.67117,32.57866 L67.22472,37.71597 L69.564606,32.551617 L66.9284,28.355629 L67.22472,37.71597 L69.817375,42.864574 L71.89884,39.595455 L69.564606,32.551617 L69.817375,42.864574 L73.9883,37.219337 L74.88616,42.11056 L71.89884,39.595455 L73.9883,37.219337 L79.05572,29.364666 L79.86377,34.081997 L74.88616,42.11056 L79.05572,29.364666 L82.65822,33.034977 L84.44054,31.525383 L79.86377,34.081997 L82.65822,33.034977 L84.44054,31.525383 L85.05025,35.26764 L80.16573,40.4505 L84.44054,31.525383 L79.86377,34.081997 L80.16573,40.4505 L76.504524,41.217175 L79.86377,34.081997 L74.88616,42.11056 L76.504524,41.217175 L73.90395,36.46695 L74.88616,42.11056 L71.89884,39.595455 L73.90395,36.46695 L71.21802,32.822628 L71.89884,39.595455 L69.564606,32.551617 L71.21802,32.822628 L68.39519,31.26976 L69.564606,32.551617 L66.9284,28.355629 L68.39519,31.26976 L65.87119,27.963402 L66.9284,28.355629 L64.18833,26.303616 L65.87119,27.963402 L63.45938,24.170654 L64.18833,26.303616 L61.22528,29.711834 L63.45938,24.170654 L60.51445,30.222168 L61.22528,29.711834 L58.336075,37.081444 L60.51445,30.222168 L57.841187,37.179 L58.336075,37.081444 L56.00832,38.594574 L57.841187,37.179 L55.726547,36.774536 L56.00832,38.594574 L53.907005,37.764744 L55.726547,36.774536 L53.748055,35.11414 L53.907005,37.764744 L51.895557,37.954002 L53.748055,35.11414 L51.832092,34.297043 L51.895557,37.954002 L50.000004,34.603313 L51.832092,34.297043 L50.000004,29.470673 L50.000004,34.603313 L48.065582,24.701828 L50.000004,29.470673 L48.11751,20.030098 L48.065582,24.701828 L46.11514,19.028519 L48.11751,20.030098 L46.24061,15.542931 L46.11514,19.028519 L44.456974,23.471024 L46.24061,15.542931 L44.517006,16.185646 L44.456974,23.471024 L42.863808,25.238388 L44.517006,16.185646 L42.852676,15.900269 L42.863808,25.238388 L41.188713,22.98146 L42.852676,15.900269 L41.346367,17.485817 L41.188713,22.98146 L39.441017,18.774048 L41.346367,17.485817 L40.181458,23.6148 L39.441017,18.774048 L38.150455,21.61943 L40.181458,23.6148 L38.93016,25.741875 L38.150455,21.61943 L37.087616,26.109753 L38.93016,25.741875 L37.087616,26.109753 L38.93016,25.741875 L40.724792,25.877037 L38.93016,25.741875 L40.181458,23.6148 L42.05421,24.857834 L40.724792,25.877037 L40.181458,23.6148 L41.346367,17.485817 L43.345505,20.58181 L42.05421,24.857834 L41.346367,17.485817 L42.852676,15.900269 L44.79162,16.897095 L43.345505,20.58181 L42.852676,15.900269 L44.517006,16.185646 L46.437683,16.5038 L44.79162,16.897095 L44.517006,16.185646 L46.24061,15.542931 L48.210144,20.113419 L46.437683,16.5038 L46.24061,15.542931 L48.11751,20.030098 L50.000004,26.19931 L48.210144,20.113419 L48.11751,20.030098 L50.000004,29.470673 L51.771637,30.98677 L50.000004,26.19931 L50.000004,29.470673 L51.832092,34.297043 L53.60373,32.565098 L51.771637,30.98677 L51.832092,34.297043 L53.748055,35.11414 L55.48816,34.55084 L53.60373,32.565098 L53.748055,35.11414 L55.726547,36.774536 L57.45487,36.054653 L55.48816,34.55084 L55.726547,36.774536 L57.841187,37.179 L59.852146,31.312683 L57.45487,36.054653 L57.841187,37.179 L60.51445,30.222168 L62.68966,23.85466 L59.852146,31.312683 L60.51445,30.222168 L63.45938,24.170654 L65.05116,26.268616 L62.68966,23.85466 L63.45938,24.170654 L65.87119,27.963402 L67.40219,29.681374 L65.05116,26.268616 L65.87119,27.963402 L68.39519,31.26976 L69.83738,32.925068 L67.40219,29.681374 L68.39519,31.26976 L71.21802,32.822628 L72.28375,36.669205 L69.83738,32.925068 L71.21802,32.822628 L73.90395,36.46695 L75.10928,38.326637 L72.28375,36.669205 L73.90395,36.46695 L76.504524,41.217175 L77.87957,41.227875 L75.10928,38.326637 L76.504524,41.217175 L80.16573,40.4505 L81.116196,42.308372 L77.87957,41.227875 L80.16573,40.4505 L85.05025,35.26764 L84.9991,41.364704 L81.116196,42.308372 L85.05025,35.26764 L84.9991,41.364704 L85.39532,44.625504 L81.88713,44.46662 L84.9991,41.364704 L81.116196,42.308372 L81.88713,44.46662 L78.72958,43.668865 L81.116196,42.308372 L77.87957,41.227875 L78.72958,43.668865 L75.95891,41.620785 L77.87957,41.227875 L75.10928,38.326637 L75.95891,41.620785 L73.37518,39.1418 L75.10928,38.326637 L72.28375,36.669205 L73.37518,39.1418 L71.039,35.469162 L72.28375,36.669205 L69.83738,32.925068 L71.039,35.469162 L68.70682,32.25876 L69.83738,32.925068 L67.40219,29.681374 L68.70682,32.25876 L66.46413,28.759518 L67.40219,29.681374 L65.05116,26.268616 L66.46413,28.759518 L64.294876,24.953644 L65.05116,26.268616 L62.68966,23.85466 L64.294876,24.953644 L61.899002,25.157318 L62.68966,23.85466 L59.852146,31.312683 L61.899002,25.157318 L59.29576,31.759766 L59.852146,31.312683 L57.45487,36.054653 L59.29576,31.759766 L57.15217,33.896122 L57.45487,36.054653 L55.48816,34.55084 L57.15217,33.896122 L55.276455,32.25312 L55.48816,34.55084 L53.60373,32.565098 L55.276455,32.25312 L53.46182,30.625343 L53.60373,32.565098 L51.771637,30.98677 L53.46182,30.625343 L51.71127,28.27961 L51.771637,30.98677 L50.000004,26.19931 L51.71127,28.27961 L50.000004,25.195183 L50.000004,26.19931 L48.210144,20.113419 L50.000004,25.195183 L48.316597,22.642273 L48.210144,20.113419 L46.437683,16.5038 L48.316597,22.642273 L46.698612,22.023636 L46.437683,16.5038 L44.79162,16.897095 L46.698612,22.023636 L45.20513,23.816452 L44.79162,16.897095 L43.345505,20.58181 L45.20513,23.816452 L43.81568,25.852295 L43.345505,20.58181 L42.05421,24.857834 L43.81568,25.852295 L42.462334,26.525364 L42.05421,24.857834 L40.724792,25.877037 L42.462334,26.525364 L40.724792,25.877037 L42.462334,26.525364 L44.134342,27.706718 L42.462334,26.525364 L43.81568,25.852295 L45.4889,26.981956 L44.134342,27.706718 L43.81568,25.852295 L45.20513,23.816452 L46.9091,25.925507 L45.4889,26.981956 L45.20513,23.816452 L46.698612,22.023636 L48.413982,25.215546 L46.9091,25.925507 L46.698612,22.023636 L48.316597,22.642273 L50.000004,25.45382 L48.413982,25.215546 L48.316597,22.642273 L50.000004,25.195183 L51.647373,26.56948 L50.000004,25.45382 L50.000004,25.195183 L51.71127,28.27961 L53.336674,28.512337 L51.647373,26.56948 L51.71127,28.27961 L53.46182,30.625343 L55.075302,30.305641 L53.336674,28.512337 L53.46182,30.625343 L55.276455,32.25312 L56.91688,30.796295 L55.075302,30.305641 L55.276455,32.25312 L57.15217,33.896122 L58.861916,30.91257 L56.91688,30.796295 L57.15217,33.896122 L59.29576,31.759766 L61.116238,27.669144 L58.861916,30.91257 L59.29576,31.759766 L61.899002,25.157318 L63.556385,24.495483 L61.116238,27.669144 L61.899002,25.157318 L64.294876,24.953644 L65.7054,26.981163 L63.556385,24.495483 L64.294876,24.953644 L66.46413,28.759518 L67.74719,31.181355 L65.7054,26.981163 L66.46413,28.759518 L68.70682,32.25876 L69.87959,34.795612 L67.74719,31.181355 L68.70682,32.25876 L71.039,35.469162 L72.10992,37.990726 L69.87959,34.795612 L71.039,35.469162 L73.37518,39.1418 L74.42128,41.04775 L72.10992,37.990726 L73.37518,39.1418 L75.95891,41.620785 L76.84932,43.830475 L74.42128,41.04775 L75.95891,41.620785 L78.72958,43.668865 L79.57119,45.499096 L76.84932,43.830475 L78.72958,43.668865 L81.88713,44.46662 L82.65373,46.097874 L79.57119,45.499096 L81.88713,44.46662 L85.39532,44.625504 L85.928665,46.745056 L82.65373,46.097874 L85.39532,44.625504 L85.928665,46.745056 L86.846176,46.795536 L83.63559,46.259644 L85.928665,46.745056 L82.65373,46.097874 L83.63559,46.259644 L80.65606,45.526943 L82.65373,46.097874 L79.57119,45.499096 L80.65606,45.526943 L77.87606,44.61251 L79.57119,45.499096 L76.84932,43.830475 L77.87606,44.61251 L75.35448,42.978893 L76.84932,43.830475 L74.42128,41.04775 L75.35448,42.978893 L73.124344,40.04536 L74.42128,41.04775 L72.10992,37.990726 L73.124344,40.04536 L71.00549,36.708717 L72.10992,37.990726 L69.87959,34.795612 L71.00549,36.708717 L68.97785,32.94655 L69.87959,34.795612 L67.74719,31.181355 L68.97785,32.94655 L67.017525,28.788902 L67.74719,31.181355 L65.7054,26.981163 L67.017525,28.788902 L64.96016,26.001839 L65.7054,26.981163 L63.556385,24.495483 L64.96016,26.001839 L62.73291,26.306587 L63.556385,24.495483 L61.116238,27.669144 L62.73291,26.306587 L60.584454,27.263153 L61.116238,27.669144 L58.861916,30.91257 L60.584454,27.263153 L58.55566,28.293571 L58.861916,30.91257 L56.91688,30.796295 L58.55566,28.293571 L56.647995,29.18684 L56.91688,30.796295 L55.075302,30.305641 L56.647995,29.18684 L54.904312,27.942081 L55.075302,30.305641 L53.336674,28.512337 L54.904312,27.942081 L53.218933,26.621254 L53.336674,28.512337 L51.647373,26.56948 L53.218933,26.621254 L51.57738,26.2016 L51.647373,26.56948 L50.000004,25.45382 L51.57738,26.2016 L50.000004,26.441364 L50.000004,25.45382 L48.413982,25.215546 L50.000004,26.441364 L48.497643,27.140953 L48.413982,25.215546 L46.9091,25.925507 L48.497643,27.140953 L47.073246,28.076 L46.9091,25.925507 L45.4889,26.981956 L47.073246,28.076 L45.72324,29.06023 L45.4889,26.981956 L44.134342,27.706718 L45.72324,29.06023 L44.134342,27.706718 L45.72324,29.06023 L47.21789,29.822968 L45.72324,29.06023 L47.073246,28.076 L48.57014,28.529152 L47.21789,29.822968 L47.073246,28.076 L48.497643,27.140953 L50.000004,27.426792 L48.57014,28.529152 L48.497643,27.140953 L50.000004,26.441364 L51.506424,26.658115 L50.000004,27.426792 L50.000004,26.441364 L51.57738,26.2016 L53.084187,26.317413 L51.506424,26.658115 L51.57738,26.2016 L53.218933,26.621254 L54.728275,26.348267 L53.084187,26.317413 L53.218933,26.621254 L54.904312,27.942081 L56.430832,26.816887 L54.728275,26.348267 L54.904312,27.942081 L56.647995,29.18684 L58.180317,27.801208 L56.430832,26.816887 L56.647995,29.18684 L58.55566,28.293571 L60.093216,27.036392 L58.180317,27.801208 L58.55566,28.293571 L60.584454,27.263153 L62.263725,24.05149 L60.093216,27.036392 L60.584454,27.263153 L62.73291,26.306587 L64.39471,23.688736 L62.263725,24.05149 L62.73291,26.306587 L64.96016,26.001839 L66.38887,26.109055 L64.39471,23.688736 L64.96016,26.001839 L67.017525,28.788902 L68.27546,30.091904 L66.38887,26.109055 L67.017525,28.788902 L68.97785,32.94655 L70.163506,34.20739 L68.27546,30.091904 L68.97785,32.94655 L71.00549,36.708717 L72.24742,36.94542 L70.163506,34.20739 L71.00549,36.708717 L73.124344,40.04536 L74.613235,38.15123 L72.24742,36.94542 L73.124344,40.04536 L75.35448,42.978893 L77.14961,38.991676 L74.613235,38.15123 L75.35448,42.978893 L77.87606,44.61251 L79.700745,40.494698 L77.14961,38.991676 L77.87606,44.61251 L80.65606,45.526943 L82.21095,42.82543 L79.700745,40.494698 L80.65606,45.526943 L83.63559,46.259644 L84.73288,45.576157 L82.21095,42.82543 L83.63559,46.259644 L86.846176,46.795536 L87.669495,46.9799 L84.73288,45.576157 L86.846176,46.795536 L87.669495,46.9799 L88.32672,47.61196 L86.30382,42.525867 L87.669495,46.9799 L84.73288,45.576157 L86.30382,42.525867 L84.25548,37.569614 L84.73288,45.576157 L82.21095,42.82543 L84.25548,37.569614 L81.6759,35.503395 L82.21095,42.82543 L79.700745,40.494698 L81.6759,35.503395 L79.0358,34.391136 L79.700745,40.494698 L77.14961,38.991676 L79.0358,34.391136 L76.71826,31.973858 L77.14961,38.991676 L74.613235,38.15123 L76.71826,31.973858 L74.49082,29.438354 L74.613235,38.15123 L72.24742,36.94542 L74.49082,29.438354 L72.224174,27.735672 L72.24742,36.94542 L70.163506,34.20739 L72.224174,27.735672 L70.16762,24.880203 L70.163506,34.20739 L68.27546,30.091904 L70.16762,24.880203 L68.23285,21.261398 L68.27546,30.091904 L66.38887,26.109055 L68.23285,21.261398 L66.03609,20.95256 L66.38887,26.109055 L64.39471,23.688736 L66.03609,20.95256 L63.567055,25.580437 L64.39471,23.688736 L62.263725,24.05149 L63.567055,25.580437 L61.44087,27.98133 L62.263725,24.05149 L60.093216,27.036392 L61.44087,27.98133 L59.61094,27.472977 L60.093216,27.036392 L58.180317,27.801208 L59.61094,27.472977 L57.853447,26.964207 L58.180317,27.801208 L56.430832,26.816887 L57.853447,26.964207 L56.156334,26.66819 L56.430832,26.816887 L54.728275,26.348267 L56.156334,26.66819 L54.531883,26.15715 L54.728275,26.348267 L53.084187,26.317413 L54.531883,26.15715 L52.96158,25.95871 L53.084187,26.317413 L51.506424,26.658115 L52.96158,25.95871 L51.446934,26.410263 L51.506424,26.658115 L50.000004,27.426792 L51.446934,26.410263 L50.000004,27.53331 L50.000004,27.426792 L48.57014,28.529152 L50.000004,27.53331 L48.63125,29.179886 L48.57014,28.529152 L47.21789,29.822968 L48.63125,29.179886 L47.21789,29.822968 L48.63125,29.179886 L50.000004,26.517303 L48.63125,29.179886 L50.000004,27.53331 L51.40215,24.864769 L50.000004,26.517303 L50.000004,27.53331 L51.446934,26.410263 L52.872242,24.113235 L51.40215,24.864769 L51.446934,26.410263 L52.96158,25.95871 L54.396282,24.113548 L52.872242,24.113235 L52.96158,25.95871 L54.531883,26.15715 L55.942844,25.359787 L54.396282,24.113548 L54.531883,26.15715 L56.156334,26.66819 L57.51076,27.166557 L55.942844,25.359787 L56.156334,26.66819 L57.853447,26.964207 L59.143223,28.441452 L57.51076,27.166557 L57.853447,26.964207 L59.61094,27.472977 L60.8601,29.158928 L59.143223,28.441452 L59.61094,27.472977 L61.44087,27.98133 L62.67379,29.435383 L60.8601,29.158928 L61.44087,27.98133 L63.567055,25.580437 L64.56731,29.705181 L62.67379,29.435383 L63.567055,25.580437 L66.03609,20.95256 L66.86929,26.533314 L64.56731,29.705181 L66.03609,20.95256 L68.23285,21.261398 L69.4415,22.44645 L66.86929,26.533314 L68.23285,21.261398 L70.16762,24.880203 L71.701614,22.763275 L69.4415,22.44645 L70.16762,24.880203 L72.224174,27.735672 L73.63173,26.421356 L71.701614,22.763275 L72.224174,27.735672 L74.49082,29.438354 L75.40134,31.359627 L73.63173,26.421356 L74.49082,29.438354 L76.71826,31.973858 L77.58078,33.67552 L75.40134,31.359627 L76.71826,31.973858 L79.0358,34.391136 L80.61934,31.493832 L77.58078,33.67552 L79.0358,34.391136 L81.6759,35.503395 L83.97739,28.80785 L80.61934,31.493832 L81.6759,35.503395 L84.25548,37.569614 L86.92839,29.314201 L83.97739,28.80785 L84.25548,37.569614 L86.30382,42.525867 L89.10834,33.948135 L86.92839,29.314201 L86.30382,42.525867 L88.32672,47.61196 L90.37472,42.37524 L89.10834,33.948135 L88.32672,47.61196" fill="none" stroke="#000" stroke-width="0.35" style="mix-blend-mode: multiply;"/>
</g>
</svg>