<svg height="100mm" style="background:white" viewBox="0 0 100 100" width="100mm" xmlns="http://www.w3.org/2000/svg" xmlns:inkscape="http://www.inkscape.org/namespaces/inkscape">
<g inkscape:groupmode="layer" inkscape:label="#000">
<path d="M50.000008,68.68138 L54.31314,63.988388 L50.000008,62.107677 L50.000008,68.68138 L45.815018,68.20984 L50.000008,62.107677 L46.221767,62.46045 L45.815018,68.20984 L42.29951,69.480385 L46.221767,62.46045 L42.978115,63.72373 L42.29951,69.480385 L39.212997,69.400406 L42.978115,63.72373 L40.06432,63.401638 L39.212997,69.400406 L36.20394,66.234695 L40.06432,63.401638 L37.1957,60.063847 L36.20394,66.234695 L33.10503,60.510986 L37.1957,60.063847 L34.2317,54.23491 L33.10503,60.510986 L30.0029,54.053036 L34.2317,54.23491 L31.3129,48.227013 L30.0029,54.053036 L26.983309,47.761894 L31.3129,48.227013 L28.576504,43.209053 L26.983309,47.761894 L24.165432,42.40845 L28.576504,43.209053 L26.177998,40.0667 L24.165432,42.40845 L21.808928,39.385876 L26.177998,40.0667 L24.279606,39.510746 L21.808928,39.385876 L19.950218,38.548737 L24.279606,39.510746 L22.9086,41.31132 L19.950218,38.548737 L18.63386,39.881115 L22.9086,41.31132 L21.915134,44.32727 L18.63386,39.881115 L17.855587,43.162598 L21.915134,44.32727 L21.00788,46.89425 L17.855587,43.162598 L17.288696,46.66596 L21.00788,46.89425 L19.672455,46.45912 L17.288696,46.66596 L16.568645,48.742825 L19.672455,46.45912 L17.567352,41.701767 L16.568645,48.742825 L14.92878,46.10378 L17.567352,41.701767 L15.370762,36.419228 L14.92878,46.10378 L12.606905,40.250687 L15.370762,36.419228 L13.906115,34.579025 L12.606905,40.250687 L10.712011,36.23977 L13.906115,34.579025 L12.926574,34.76034 L10.712011,36.23977 L9.575229,35.342834 L12.926574,34.76034 L11.871956,34.307465 L9.575229,35.342834 L8.623929,35.00401 L11.871956,34.307465 L10.811932,33.597176 L8.623929,35.00401 L7.505088,33.778694 L10.811932,33.597176 L7.505088,33.778694 L10.811932,33.597176 L13.885469,33.20984 L10.811932,33.597176 L11.871956,34.307465 L14.994402,33.879585 L13.885469,33.20984 L11.871956,34.307465 L12.926574,34.76034 L16.144398,34.489883 L14.994402,33.879585 L12.926574,34.76034 L13.906115,34.579025 L17.220654,34.406857 L16.144398,34.489883 L13.906115,34.579025 L15.370762,36.419228 L18.423027,34.607143 L17.220654,34.406857 L15.370762,36.419228 L17.567352,41.701767 L20.249302,37.896408 L18.423027,34.607143 L17.567352,41.701767 L19.672455,46.45912 L22.391747,42.832073 L20.249302,37.896408 L19.672455,46.45912 L21.00788,46.89425 L24.150002,45.2883 L22.391747,42.832073 L21.00788,46.89425 L21.915134,44.32727 L25.477705,44.507874 L24.150002,45.2883 L21.915134,44.32727 L22.9086,41.31132 L26.715515,42.17353 L25.477705,44.507874 L22.9086,41.31132 L24.279606,39.510746 L28.214025,40.453342 L26.715515,42.17353 L24.279606,39.510746 L26.177998,40.0667 L30.13575,40.68062 L28.214025,40.453342 L26.177998,40.0667 L28.576504,43.209053 L32.475822,43.247528 L30.13575,40.68062 L28.576504,43.209053 L31.3129,48.227013 L35.132515,47.838993 L32.475822,43.247528 L31.3129,48.227013 L34.2317,54.23491 L37.949905,53.396244 L35.132515,47.838993 L34.2317,54.23491 L37.1957,60.063847 L40.739788,57.45704 L37.949905,53.396244 L37.1957,60.063847 L40.06432,63.401638 L43.52236,58.34206 L40.739788,57.45704 L40.06432,63.401638 L42.978115,63.72373 L46.548027,57.36684 L43.52236,58.34206 L42.978115,63.72373 L46.221767,62.46045 L50.000008,56.704754 L46.548027,57.36684 L46.221767,62.46045 L50.000008,62.107677 L53.90875,57.500088 L50.000008,56.704754 L50.000008,62.107677 L54.31314,63.988388 L58.138027,61.719242 L53.90875,57.500088 L54.31314,63.988388 L58.138027,61.719242 L61.41203,61.48107 L57.434124,55.366684 L58.138027,61.719242 L53.90875,57.500088 L57.434124,55.366684 L53.55568,52.899727 L53.90875,57.500088 L50.000008,56.704754 L53.55568,52.899727 L50.000008,52.532036 L50.000008,56.704754 L46.548027,57.36684 L50.000008,52.532036 L46.82061,52.995876 L46.548027,57.36684 L43.52236,58.34206 L46.82061,52.995876 L43.96776,53.213844 L43.52236,58.34206 L40.739788,57.45704 L43.96776,53.213844 L41.257713,51.000114 L40.739788,57.45704 L37.949905,53.396244 L41.257713,51.000114 L38.552574,46.527832 L37.949905,53.396244 L35.132515,47.838993 L38.552574,46.527832 L35.953,42.33296 L35.132515,47.838993 L32.475822,43.247528 L35.953,42.33296 L33.63293,40.17372 L32.475822,43.247528 L30.13575,40.68062 L33.63293,40.17372 L31.676044,40.238514 L30.13575,40.68062 L28.214025,40.453342 L31.676044,40.238514 L30.04425,41.724815 L28.214025,40.453342 L26.715515,42.17353 L30.04425,41.724815 L28.557407,43.063892 L26.715515,42.17353 L25.477705,44.507874 L28.557407,43.063892 L26.958282,42.584854 L25.477705,44.507874 L24.150002,45.2883 L26.958282,42.584854 L25.112091,39.80551 L24.150002,45.2883 L22.391747,42.832073 L25.112091,39.80551 L23.194876,36.25967 L22.391747,42.832073 L20.249302,37.896408 L23.194876,36.25967 L21.627441,34.625626 L20.249302,37.896408 L18.423027,34.607143 L21.627441,34.625626 L20.382223,34.52394 L18.423027,34.607143 L17.220654,34.406857 L20.382223,34.52394 L19.11877,33.913364 L17.220654,34.406857 L16.144398,34.489883 L19.11877,33.913364 L17.823689,32.808617 L16.144398,34.489883 L14.994402,33.879585 L17.823689,32.808617 L16.56588,31.642185 L14.994402,33.879585 L13.885469,33.20984 L16.56588,31.642185 L13.885469,33.20984 L16.56588,31.642185 L19.044535,29.577255 L16.56588,31.642185 L17.823689,32.808617 L20.40686,31.095585 L19.044535,29.577255 L17.823689,32.808617 L19.11877,33.913364 L21.811676,32.599052 L20.40686,31.095585 L19.11877,33.913364 L20.382223,34.52394 L23.244423,33.96584 L21.811676,32.599052 L20.382223,34.52394 L21.627441,34.625626 L24.66631,34.881893 L23.244423,33.96584 L21.627441,34.625626 L23.194876,36.25967 L26.222399,36.26779 L24.66631,34.881893 L23.194876,36.25967 L25.112091,39.80551 L27.965569,38.56453 L26.222399,36.26779 L25.112091,39.80551 L26.958282,42.584854 L29.724798,40.52107 L27.965569,38.56453 L26.958282,42.584854 L28.557407,43.063892 L31.404594,41.14773 L29.724798,40.52107 L28.557407,43.063892 L30.04425,41.724815 L33.048203,40.383434 L31.404594,41.14773 L30.04425,41.724815 L31.676044,40.238514 L34.80702,39.241184 L33.048203,40.383434 L31.676044,40.238514 L33.63293,40.17372 L36.829483,39.19979 L34.80702,39.241184 L33.63293,40.17372 L35.953,42.33296 L39.15664,41.207867 L36.829483,39.19979 L35.953,42.33296 L38.552574,46.527832 L41.70175,44.857697 L39.15664,41.207867 L38.552574,46.527832 L41.257713,51.000114 L44.334236,48.143112 L41.70175,44.857697 L41.257713,51.000114 L43.96776,53.213844 L47.05465,49.336464 L44.334236,48.143112 L43.96776,53.213844 L46.82061,52.995876 L50.000008,49.40485 L47.05465,49.336464 L46.82061,52.995876 L50.000008,52.532036 L53.24127,50.017235 L50.000008,49.40485 L50.000008,52.532036 L53.55568,52.899727 L56.787125,51.283966 L53.24127,50.017235 L53.55568,52.899727 L57.434124,55.366684 L60.521736,54.98611 L56.787125,51.283966 L57.434124,55.366684 L61.41203,61.48107 L64.285545,61.273186 L60.521736,54.98611 L61.41203,61.48107 L64.285545,61.273186 L66.9633,59.92234 L63.272026,54.730247 L64.285545,61.273186 L60.521736,54.98611 L63.272026,54.730247 L59.65418,51.134354 L60.521736,54.98611 L56.787125,51.283966 L59.65418,51.134354 L56.18725,49.28606 L56.787125,51.283966 L53.24127,50.017235 L56.18725,49.28606 L52.970367,48.006 L53.24127,50.017235 L50.000008,49.40485 L52.970367,48.006 L50.000004,47.289944 L50.000008,49.40485 L47.05465,49.336464 L50.000004,47.289944 L47.260937,46.432133 L47.05465,49.336464 L44.334236,48.143112 L47.260937,46.432133 L44.675632,44.167004 L44.334236,48.143112 L41.70175,44.857697 L44.675632,44.167004 L42.19438,41.241707 L41.70175,44.857697 L39.15664,41.207867 L42.19438,41.241707 L39.877518,39.34288 L39.15664,41.207867 L36.829483,39.19979 L39.877518,39.34288 L37.798996,39.116573 L36.829483,39.19979 L34.80702,39.241184 L37.798996,39.116573 L35.942486,39.83551 L34.80702,39.241184 L33.048203,40.383434 L35.942486,39.83551 L34.209206,40.29858 L33.048203,40.383434 L31.404594,41.14773 L34.209206,40.29858 L32.508545,39.857727 L31.404594,41.14773 L29.724798,40.52107 L32.508545,39.857727 L30.797985,38.470795 L29.724798,40.52107 L27.965569,38.56453 L30.797985,38.470795 L29.069893,36.352104 L27.965569,38.56453 L26.222399,36.26779 L29.069893,36.352104 L27.407484,34.32177 L26.222399,36.26779 L24.66631,34.881893 L27.407484,34.32177 L25.8317,32.54965 L24.66631,34.881893 L23.244423,33.96584 L25.8317,32.54965 L24.319021,30.866364 L23.244423,33.96584 L21.811676,32.599052 L24.319021,30.866364 L22.904636,29.516457 L21.811676,32.599052 L20.40686,31.095585 L22.904636,29.516457 L21.546661,28.221245 L20.40686,31.095585 L19.044535,29.577255 L21.546661,28.221245 L19.044535,29.577255 L21.546661,28.221245 L24.096924,27.908401 L21.546661,28.221245 L22.904636,29.516457 L25.363197,28.385368 L24.096924,27.908401 L22.904636,29.516457 L24.319021,30.866364 L26.716183,29.06623 L25.363197,28.385368 L24.319021,30.866364 L25.8317,32.54965 L28.230429,30.547771 L26.716183,29.06623 L25.8317,32.54965 L27.407484,34.32177 L29.889225,32.803577 L28.230429,30.547771 L27.407484,34.32177 L29.069893,36.352104 L31.647537,35.551224 L29.889225,32.803577 L29.069893,36.352104 L30.797985,38.470795 L33.436317,38.180763 L31.647537,35.551224 L30.797985,38.470795 L32.508545,39.857727 L35.186478,39.83294 L33.436317,38.180763 L32.508545,39.857727 L34.209206,40.29858 L36.945194,40.665985 L35.186478,39.83294 L34.209206,40.29858 L35.942486,39.83551 L38.76239,40.908882 L36.945194,40.665985 L35.942486,39.83551 L37.798996,39.116573 L40.692184,40.968292 L38.76239,40.908882 L37.798996,39.116573 L39.877518,39.34288 L42.789185,41.620422 L40.692184,40.968292 L39.877518,39.34288 L42.19438,41.241707 L45.056633,43.225876 L42.789185,41.620422 L42.19438,41.241707 L44.675632,44.167004 L47.45998,45.16008 L45.056633,43.225876 L44.675632,44.167004 L47.260937,46.432133 L50.000004,46.41896 L47.45998,45.16008 L47.260937,46.432133 L50.000004,47.289944 L52.729347,46.999084 L50.000004,46.41896 L50.000004,47.289944 L52.970367,48.006 L55.672073,47.967644 L52.729347,46.999084 L52.970367,48.006 L56.18725,49.28606 L58.83182,49.412086 L55.672073,47.967644 L56.18725,49.28606 L59.65418,51.134354 L62.227592,51.147408 L58.83182,49.412086 L59.65418,51.134354 L63.272026,54.730247 L65.819855,53.73861 L62.227592,51.147408 L63.272026,54.730247 L66.9633,59.92234 L69.55638,57.403687 L65.819855,53.73861 L66.9633,59.92234 L69.55638,57.403687 L72.11803,53.9433 L68.2679,51.7682 L69.55638,57.403687 L65.819855,53.73861 L68.2679,51.7682 L64.62215,50.450375 L65.819855,53.73861 L62.227592,51.147408 L64.62215,50.450375 L61.24361,49.368744 L62.227592,51.147408 L58.83182,49.412086 L61.24361,49.368744 L58.12677,48.189484 L58.83182,49.412086 L55.672073,47.967644 L58.12677,48.189484 L55.21691,47.43515 L55.672073,47.967644 L52.729347,46.999084 L55.21691,47.43515 L52.50592,47.320854 L52.729347,46.999084 L50.000004,46.41896 L52.50592,47.320854 L50.000004,47.058453 L50.000004,46.41896 L47.45998,45.16008 L50.000004,47.058453 L47.663273,46.19606 L47.45998,45.16008 L45.056633,43.225876 L47.663273,46.19606 L45.459328,44.98548 L45.056633,43.225876 L42.789185,41.620422 L45.459328,44.98548 L43.374195,43.769077 L42.789185,41.620422 L40.692184,40.968292 L43.374195,43.769077 L41.39427,42.518494 L40.692184,40.968292 L38.76239,40.908882 L41.39427,42.518494 L39.494934,41.027393 L38.76239,40.908882 L36.945194,40.665985 L39.494934,41.027393 L37.65609,39.246407 L36.945194,40.665985 L35.186478,39.83294 L37.65609,39.246407 L35.84075,36.923748 L35.186478,39.83294 L33.436317,38.180763 L35.84075,36.923748 L34.00234,33.78315 L33.436317,38.180763 L31.647537,35.551224 L34.00234,33.78315 L32.195107,30.612526 L31.647537,35.551224 L29.889225,32.803577 L32.195107,30.612526 L30.505089,28.229408 L29.889225,32.803577 L28.230429,30.547771 L30.505089,28.229408 L29.006268,27.130577 L28.230429,30.547771 L26.716183,29.06623 L29.006268,27.130577 L27.713474,27.235222 L26.716183,29.06623 L25.363197,28.385368 L27.713474,27.235222 L26.554726,27.83879 L25.363197,28.385368 L24.096924,27.908401 L26.554726,27.83879 L24.096924,27.908401 L26.554726,27.83879 L28.783539,26.86131 L26.554726,27.83879 L27.713474,27.235222 L29.900854,25.495255 L28.783539,26.86131 L27.713474,27.235222 L29.006268,27.130577 L31.188166,24.926682 L29.900854,25.495255 L29.006268,27.130577 L30.505089,28.229408 L32.695076,25.794647 L31.188166,24.926682 L30.505089,28.229408 L32.195107,30.612526 L34.39666,28.144867 L32.695076,25.794647 L32.195107,30.612526 L34.00234,33.78315 L36.214706,31.410164 L34.39666,28.144867 L34.00234,33.78315 L35.84075,36.923748 L38.06833,34.73918 L36.214706,31.410164 L35.84075,36.923748 L37.65609,39.246407 L39.92305,37.539215 L38.06833,34.73918 L37.65609,39.246407 L39.494934,41.027393 L41.816307,40.170425 L39.92305,37.539215 L39.494934,41.027393 L41.39427,42.518494 L43.767296,42.86905 L41.816307,40.170425 L41.39427,42.518494 L43.374195,43.769077 L45.770763,45.317097 L43.767296,42.86905 L43.374195,43.769077 L45.459328,44.98548 L47.83779,47.178238 L45.770763,45.317097 L45.459328,44.98548 L47.663273,46.19606 L50.000004,48.230194 L47.83779,47.178238 L47.663273,46.19606 L50.000004,47.058453 L52.30438,48.410435 L50.000004,48.230194 L50.000004,47.058453 L52.50592,47.320854 L54.799007,47.981945 L52.30438,48.410435 L52.50592,47.320854 L55.21691,47.43515 L57.504715,47.596283 L54.799007,47.981945 L55.21691,47.43515 L58.12677,48.189484 L60.406105,47.856407 L57.504715,47.596283 L58.12677,48.189484 L61.24361,49.368744 L63.521973,48.45336 L60.406105,47.856407 L61.24361,49.368744 L64.62215,50.450375 L66.94087,48.66761 L63.521973,48.45336 L64.62215,50.450375 L68.2679,51.7682 L70.69314,48.76164 L66.94087,48.66761 L68.2679,51.7682 L72.11803,53.9433 L74.69888,49.603428 L70.69314,48.76164 L72.11803,53.9433 L74.69888,49.603428 L77.27728,44.789177 L73.11099,45.021706 L74.69888,49.603428 L70.69314,48.76164 L73.11099,45.021706 L69.233665,45.931244 L70.69314,48.76164 L66.94087,48.66761 L69.233665,45.931244 L65.73595,46.57114 L66.94087,48.66761 L63.521973,48.45336 L65.73595,46.57114 L62.578014,46.70731 L63.521973,48.45336 L60.406105,47.856407 L62.578014,46.70731 L59.653973,47.060234 L60.406105,47.856407 L57.504715,47.596283 L59.653973,47.060234 L56.93804,47.84185 L57.504715,47.596283 L54.799007,47.981945 L56.93804,47.84185 L54.4423,48.47589 L54.799007,47.981945 L52.30438,48.410435 L54.4423,48.47589 L52.14691,48.303223 L52.30438,48.410435 L50.000004,48.230194 L52.14691,48.303223 L50.000004,46.95555 L50.000004,48.230194 L47.83779,47.178238 L50.000004,46.95555 L47.942787,44.46766 L47.83779,47.178238 L45.770763,45.317097 L47.942787,44.46766 L45.934837,41.252197 L45.770763,45.317097 L43.767296,42.86905 L45.934837,41.252197 L43.96828,37.94204 L43.767296,42.86905 L41.816307,40.170425 L43.96828,37.94204 L42.05744,34.995213 L41.816307,40.170425 L39.92305,37.539215 L42.05744,34.995213 L40.19241,32.102833 L39.92305,37.539215 L38.06833,34.73918 L40.19241,32.102833 L38.344566,28.860497 L38.06833,34.73918 L36.214706,31.410164 L38.344566,28.860497 L36.535217,25.722313 L36.214706,31.410164 L34.39666,28.144867 L36.535217,25.722313 L34.82887,23.46222 L34.39666,28.144867 L32.695076,25.794647 L34.82887,23.46222 L33.293667,22.622818 L32.695076,25.794647 L31.188166,24.926682 L33.293667,22.622818 L31.959002,23.205963 L31.188166,24.926682 L29.900854,25.495255 L31.959002,23.205963 L30.792538,24.65686 L29.900854,25.495255 L28.783539,26.86131 L30.792538,24.65686 L28.783539,26.86131 L30.792538,24.65686 L32.698475,21.932762 L30.792538,24.65686 L31.959002,23.205963 L33.947086,20.75814 L32.698475,21.932762 L31.959002,23.205963 L33.293667,22.622818 L35.343052,20.365822 L33.947086,20.75814 L33.293667,22.622818 L34.82887,23.46222 L36.909447,21.257019 L35.343052,20.365822 L34.82887,23.46222 L36.535217,25.722313 L38.61888,23.41774 L36.909447,21.257019 L36.535217,25.722313 L38.344566,28.860497 L40.416676,26.366928 L38.61888,23.41774 L38.344566,28.860497 L40.19241,32.102833 L42.255066,29.43885 L40.416676,26.366928 L40.19241,32.102833 L42.05744,34.995213 L44.12012,32.241028 L42.255066,29.43885 L42.05744,34.995213 L43.96828,37.94204 L46.032593,35.161865 L44.12012,32.241028 L43.96828,37.94204 L45.934837,41.252197 L47.99777,38.639103 L46.032593,35.161865 L45.934837,41.252197 L47.942787,44.46766 L50.000004,42.276386 L47.99777,38.639103 L47.942787,44.46766 L50.000004,46.95555 L52.045967,45.352196 L50.000004,42.276386 L50.000004,46.95555 L52.14691,48.303223 L54.177647,47.278526 L52.045967,45.352196 L52.14691,48.303223 L54.4423,48.47589 L56.45977,47.836628 L54.177647,47.278526 L54.4423,48.47589 L56.93804,47.84185 L58.953327,47.256664 L56.45977,47.836628 L56.93804,47.84185 L59.653973,47.060234 L61.687046,46.149887 L58.953327,47.256664 L59.653973,47.060234 L62.578014,46.70731 L64.65281,45.17307 L61.687046,46.149887 L62.578014,46.70731 L65.73595,46.57114 L67.8761,44.291973 L64.65281,45.17307 L65.73595,46.57114 L69.233665,45.931244 L71.466606,42.881424 L67.8761,44.291973 L69.233665,45.931244 L73.11099,45.021706 L75.46068,41.19275 L71.466606,42.881424 L73.11099,45.021706 L77.27728,44.789177 L79.7578,40.17669 L75.46068,41.19275 L77.27728,44.789177 L79.7578,40.17669 L81.97066,36.67809 L77.70428,37.583977 L79.7578,40.17669 L75.46068,41.19275 L77.70428,37.583977 L73.648865,39.608658 L75.46068,41.19275 L71.466606,42.881424 L73.648865,39.608658 L69.96673,41.63453 L71.466606,42.881424 L67.8761,44.291973 L69.96673,41.63453 L66.66382,43.198505 L67.8761,44.291973 L64.65281,45.17307 L66.66382,43.198505 L63.638515,44.790707 L64.65281,45.17307 L61.687046,46.149887 L63.638515,44.790707 L60.87034,46.30725 L61.687046,46.149887 L58.953327,47.256664 L60.87034,46.30725 L58.37429,46.91745 L58.953327,47.256664 L56.45977,47.836628 L58.37429,46.91745 L56.113964,45.97878 L56.45977,47.836628 L54.177647,47.278526 L56.113964,45.97878 L54.011196,43.44076 L54.177647,47.278526 L52.045967,45.352196 L54.011196,43.44076 L51.98828,39.80692 L52.045967,45.352196 L50.000004,42.276386 L51.98828,39.80692 L50.000004,35.885498 L50.000004,42.276386 L47.99777,38.639103 L50.000004,35.885498 L48.04214,32.42707 L47.99777,38.639103 L46.032593,35.161865 L48.04214,32.42707 L46.1325,29.665028 L46.032593,35.161865 L44.12012,32.241028 L46.1325,29.665028 L44.27015,26.99638 L44.12012,32.241028 L42.255066,29.43885 L44.27015,26.99638 L42.43968,24.069817 L42.255066,29.43885 L40.416676,26.366928 L42.43968,24.069817 L40.650177,21.268303 L40.416676,26.366928 L38.61888,23.41774 L40.650177,21.268303 L38.93888,19.210144 L38.61888,23.41774 L36.909447,21.257019 L38.93888,19.210144 L37.3551,18.393631 L36.909447,21.257019 L35.343052,20.365822 L37.3551,18.393631 L35.927208,18.851898 L35.343052,20.365822 L33.947086,20.75814 L35.927208,18.851898 L34.641525,20.125969 L33.947086,20.75814 L32.698475,21.932762 L34.641525,20.125969 L32.698475,21.932762 L34.641525,20.125969 L36.668312,20.265625 L34.641525,20.125969 L35.927208,18.851898 L37.94194,18.373535 L36.668312,20.265625 L35.927208,18.851898 L37.3551,18.393631 L39.358944,17.318146 L37.94194,18.373535 L37.3551,18.393631 L38.93888,19.210144 L40.934273,17.694283 L39.358944,17.318146 L38.93888,19.210144 L40.650177,21.268303 L42.64025,19.573288 L40.934273,17.694283 L40.650177,21.268303 L42.43968,24.069817 L44.422318,22.329361 L42.64025,19.573288 L42.43968,24.069817 L44.27015,26.99638 L46.24451,25.257645 L44.422318,22.329361 L44.27015,26.99638 L46.1325,29.665028 L48.099945,27.92408 L46.24451,25.257645 L46.1325,29.665028 L48.04214,32.42707 L50.000004,30.588982 L48.099945,27.92408 L48.04214,32.42707 L50.000004,35.885498 L51.94115,33.910007 L50.000004,30.588982 L50.000004,35.885498 L51.98828,39.80692 L53.906548,37.784386 L51.94115,33.910007 L51.98828,39.80692 L54.011196,43.44076 L55.902145,41.55424 L53.906548,37.784386 L54.011196,43.44076 L56.113964,45.97878 L57.97617,44.37779 L55.902145,41.55424 L56.113964,45.97878 L58.37429,46.91745 L60.21774,45.541874 L57.97617,44.37779 L58.37429,46.91745 L60.87034,46.30725 L62.725643,44.83676 L60.21774,45.541874 L60.87034,46.30725 L63.638515,44.790707 L65.54534,42.87563 L62.725643,44.83676 L63.638515,44.790707 L66.66382,43.198505 L68.64116,40.742054 L65.54534,42.87563 L66.66382,43.198505 L69.96673,41.63453 L72.019035,38.68166 L68.64116,40.742054 L69.96673,41.63453 L73.648865,39.608658 L75.749626,36.421436 L72.019035,38.68166 L73.648865,39.608658 L77.70428,37.583977 L79.714264,34.943054 L75.749626,36.421436 L77.70428,37.583977 L81.97066,36.67809 L83.63942,35.58563 L79.714264,34.943054 L81.97066,36.67809 L83.63942,35.58563 L84.90982,35.95199 L81.45685,33.361507 L83.63942,35.58563 L79.714264,34.943054 L81.45685,33.361507 L77.69741,33.797264 L79.714264,34.943054 L75.749626,36.421436 L77.69741,33.797264 L73.97858,35.937393 L75.749626,36.421436 L72.019035,38.68166 L73.97858,35.937393 L70.55905,38.203445 L72.019035,38.68166 L68.64116,40.742054 L70.55905,38.203445 L67.409,40.641464 L68.64116,40.742054 L65.54534,42.87563 L67.409,40.641464 L64.54724,42.821465 L65.54534,42.87563 L62.725643,44.83676 L64.54724,42.821465 L62.02442,43.564533 L62.725643,44.83676 L60.21774,45.541874 L62.02442,43.564533 L59.78146,42.481506 L60.21774,45.541874 L57.97617,44.37779 L59.78146,42.481506 L57.709713,40.010967 L57.97617,44.37779 L55.902145,41.55424 L57.709713,40.010967 L55.724525,36.834282 L55.902145,41.55424 L53.906548,37.784386 L55.724525,36.834282 L53.782463,33.544754 L53.906548,37.784386 L51.94115,33.910007 L53.782463,33.544754 L51.872276,30.529228 L51.94115,33.910007 L50.000004,30.588982 L51.872276,30.529228 L50.000004,27.785767 L50.000004,30.588982 L48.099945,27.92408 L50.000004,27.785767 L48.165695,24.792084 L48.099945,27.92408 L46.24451,25.257645 L48.165695,24.792084 L46.358982,21.54245 L46.24451,25.257645 L44.422318,22.329361 L46.358982,21.54245 L44.58844,18.65969 L44.422318,22.329361 L42.64025,19.573288 L44.58844,18.65969 L42.893715,16.992233 L42.64025,19.573288 L40.934273,17.694283 L42.893715,16.992233 L41.33892,17.323471 L40.934273,17.694283 L39.358944,17.318146 L41.33892,17.323471 L39.944874,19.218208 L39.358944,17.318146 L37.94194,18.373535 L39.944874,19.218208 L38.681858,21.696861 L37.94194,18.373535 L36.668312,20.265625 L38.681858,21.696861 L36.668312,20.265625 L38.681858,21.696861 L40.58712,23.202362 L38.681858,21.696861 L39.944874,19.218208 L41.864,20.51963 L40.58712,23.202362 L39.944874,19.218208 L41.33892,17.323471 L43.251934,17.973572 L41.864,20.51963 L41.33892,17.323471 L42.893715,16.992233 L44.796234,17.06488 L43.251934,17.973572 L42.893715,16.992233 L44.58844,18.65969 L46.479042,18.704796 L44.796234,17.06488 L44.58844,18.65969 L46.358982,21.54245 L48.22794,21.962234 L46.479042,18.704796 L46.358982,21.54245 L48.165695,24.792084 L50.000004,25.879738 L48.22794,21.962234 L48.165695,24.792084 L50.000004,27.785767 L51.78944,29.227066 L50.000004,25.879738 L50.000004,27.785767 L51.872276,30.529228 L53.62175,31.697392 L51.78944,29.227066 L51.872276,30.529228 L53.782463,33.544754 L55.509354,33.888344 L53.62175,31.697392 L53.782463,33.544754 L55.724525,36.834282 L57.450222,36.16055 L55.509354,33.888344 L55.724525,36.834282 L57.709713,40.010967 L59.4511,38.42681 L57.450222,36.16055 L57.709713,40.010967 L59.78146,42.481506 L61.548203,40.24599 L59.4511,38.42681 L59.78146,42.481506 L62.02442,43.564533 L63.816494,41.018658 L61.548203,40.24599 L62.02442,43.564533 L64.54724,42.821465 L66.35535,40.29271 L63.816494,41.018658 L64.54724,42.821465 L67.409,40.641464 L69.221985,38.296585 L66.35535,40.29271 L67.409,40.641464 L70.55905,38.203445 L72.37039,36.010548 L69.221985,38.296585 L70.55905,38.203445 L73.97858,35.937393 L75.77635,33.870056 L72.37039,36.010548 L73.97858,35.937393 L77.69741,33.797264 L79.44746,31.95707 L75.77635,33.870056 L77.69741,33.797264 L81.45685,33.361507 L83.03192,32.22557 L79.44746,31.95707 L81.45685,33.361507 L84.90982,35.95199 L86.149155,35.9523 L83.03192,32.22557 L84.90982,35.95199 L86.149155,35.9523 L87.524536,34.913254 L84.49021,31.273582 L86.149155,35.9523 L83.03192,32.22557 L84.49021,31.273582 L80.96383,31.038628 L83.03192,32.22557 L79.44746,31.95707 L80.96383,31.038628 L77.370445,32.678276 L79.44746,31.95707 L75.77635,33.870056 L77.370445,32.678276 L74.05177,34.309887 L75.77635,33.870056 L72.37039,36.010548 L74.05177,34.309887 L70.985504,35.902924 L72.37039,36.010548 L69.221985,38.296585 L70.985504,35.902924 L68.14153,37.511284 L69.221985,38.296585 L66.35535,40.29271 L68.14153,37.511284 L65.57761,38.307373 L66.35535,40.29271 L63.816494,41.018658 L65.57761,38.307373 L63.280006,37.812653 L63.816494,41.018658 L61.548203,40.24599 L63.280006,37.812653 L61.16384,36.335228 L61.548203,40.24599 L59.4511,38.42681 L61.16384,36.335228 L59.145313,34.580936 L59.4511,38.42681 L57.450222,36.16055 L59.145313,34.580936 L57.180397,33.216568 L57.450222,36.16055 L55.509354,33.888344 L57.180397,33.216568 L55.27399,32.334335 L55.509354,33.888344 L53.62175,31.697392 L55.27399,32.334335 L53.45323,31.060596 L53.62175,31.697392 L51.78944,29.227066 L53.45323,31.060596 L51.71284,28.11613 L51.78944,29.227066 L50.000004,25.879738 L51.71284,28.11613 L50.000004,23.589493 L50.000004,25.879738 L48.22794,21.962234 L50.000004,23.589493 L48.28906,19.641327 L48.22794,21.962234 L46.479042,18.704796 L48.28906,19.641327 L46.621243,17.710098 L46.479042,18.704796 L44.796234,17.06488 L46.621243,17.710098 L45.07054,18.700394 L44.796234,17.06488 L43.251934,17.973572 L45.07054,18.700394 L43.667862,21.544495 L43.251934,17.973572 L41.864,20.51963 L43.667862,21.544495 L42.366024,24.231216 L41.864,20.51963 L40.58712,23.202362 L42.366024,24.231216 L40.58712,23.202362 L42.366024,24.231216 L44.03778,24.77031 L42.366024,24.231216 L43.667862,21.544495 L45.36313,21.98867 L44.03778,24.77031 L43.667862,21.544495 L45.07054,18.700394 L46.794144,19.225426 L45.36313,21.98867 L45.07054,18.700394 L46.621243,17.710098 L48.357292,18.750854 L46.794144,19.225426 L46.621243,17.710098 L48.28906,19.641327 L50.000004,21.217194 L48.357292,18.750854 L48.28906,19.641327 L50.000004,23.589493 L51.652435,26.01754 L50.000004,21.217194 L50.000004,23.589493 L51.71284,28.11613 L53.30286,30.311676 L51.652435,26.01754 L51.71284,28.11613 L53.45323,31.060596 L55.035477,31.684944 L53.30286,30.311676 L53.45323,31.060596 L55.27399,32.334335 L56.900948,31.199974 L55.035477,31.684944 L55.27399,32.334335 L57.180397,33.216568 L58.8542,31.06511 L56.900948,31.199974 L57.180397,33.216568 L59.145313,34.580936 L60.832973,32.21533 L58.8542,31.06511 L59.145313,34.580936 L61.16384,36.335228 L62.83837,34.113045 L60.832973,32.21533 L61.16384,36.335228 L63.280006,37.812653 L64.93906,35.72014 L62.83837,34.113045 L63.280006,37.812653 L65.57761,38.307373 L67.24362,36.14397 L64.93906,35.72014 L65.57761,38.307373 L68.14153,37.511284 L69.841805,35.121136 L67.24362,36.14397 L68.14153,37.511284 L70.985504,35.902924 L72.68567,33.613632 L69.841805,35.121136 L70.985504,35.902924 L74.05177,34.309887 L75.631805,32.867413 L72.68567,33.613632 L74.05177,34.309887 L77.370445,32.678276 L78.772156,32.211 L75.631805,32.867413 L77.370445,32.678276 L80.96383,31.038628 L82.23219,31.049213 L78.772156,32.211 L80.96383,31.038628 L84.49021,31.273582 L85.74757,30.94028 L82.23219,31.049213 L84.49021,31.273582 L87.524536,34.913254 L88.89344,33.597153 L85.74757,30.94028 L87.524536,34.913254 L88.89344,33.597153 L90.01103,33.114166 L86.75118,31.455956 L88.89344,33.597153 L85.74757,30.94028 L86.75118,31.455956 L83.32202,31.564823 L85.74757,30.94028 L82.23219,31.049213 L83.32202,31.564823 L80.072235,31.891647 L82.23219,31.049213 L78.772156,32.211 L80.072235,31.891647 L77.14815,31.440586 L78.772156,32.211 L75.631805,32.867413 L77.14815,31.440586 L74.253204,31.94011 L75.631805,32.867413 L72.68567,33.613632 L74.253204,31.94011 L71.35995,33.850677 L72.68567,33.613632 L69.841805,35.121136 L71.35995,33.850677 L68.740906,35.108147 L69.841805,35.121136 L67.24362,36.14397 L68.740906,35.108147 L66.45944,34.602997 L67.24362,36.14397 L64.93906,35.72014 L66.45944,34.602997 L64.4066,32.66507 L64.93906,35.72014 L62.83837,34.113045 L64.4066,32.66507 L62.44921,30.312061 L62.83837,34.113045 L60.832973,32.21533 L62.44921,30.312061 L60.495903,28.759228 L60.832973,32.21533 L58.8542,31.06511 L60.495903,28.759228 L58.52671,28.89513 L58.8542,31.06511 L56.900948,31.199974 L58.52671,28.89513 L56.599274,30.4832 L56.900948,31.199974 L55.035477,31.684944 L56.599274,30.4832 L54.816074,31.147118 L55.035477,31.684944 L53.30286,30.311676 L54.816074,31.147118 L53.188538,28.315617 L53.30286,30.311676 L51.652435,26.01754 L53.188538,28.315617 L51.603626,23.2089 L51.652435,26.01754 L50.000004,21.217194 L51.603626,23.2089 L50.000004,19.882553 L50.000004,21.217194 L48.357292,18.750854 L50.000004,19.882553 L48.434208,19.585785 L48.357292,18.750854 L46.794144,19.225426 L48.434208,19.585785 L46.970142,21.80545 L46.794144,19.225426 L45.36313,21.98867 L46.970142,21.80545 L45.619015,24.74614 L45.36313,21.98867 L44.03778,24.77031 L45.619015,24.74614 L44.03778,24.77031 L45.619015,24.74614 L47.125595,23.975685 L45.619015,24.74614 L46.970142,21.80545 L48.51128,21.220444 L47.125595,23.975685 L46.970142,21.80545 L48.434208,19.585785 L50.000004,19.87085 L48.51128,21.220444 L48.434208,19.585785 L50.000004,19.882553 L51.553932,20.999748 L50.000004,19.87085 L50.000004,19.882553 L51.603626,23.2089 L53.102882,25.227676 L51.553932,20.999748 L51.603626,23.2089 L53.188538,28.315617 L54.64525,29.504261 L53.102882,25.227676 L53.188538,28.315617 L54.816074,31.147118 L56.304966,30.325394 L54.64525,29.504261 L54.816074,31.147118 L56.599274,30.4832 L58.14831,28.498688 L56.304966,30.325394 L56.599274,30.4832 L58.52671,28.89513 L60.089077,27.109802 L58.14831,28.498688 L58.52671,28.89513 L60.495903,28.759228 L62.0405,27.364723 L60.089077,27.109802 L60.495903,28.759228 L62.44921,30.312061 L63.95244,29.29261 L62.0405,27.364723 L62.44921,30.312061 L64.4066,32.66507 L65.85144,32.01072 L63.95244,29.29261 L64.4066,32.66507 L66.45944,34.602997 L67.83099,34.37199 L65.85144,32.01072 L66.45944,34.602997 L68.740906,35.108147 L70.05296,35.149696 L67.83099,34.37199 L68.740906,35.108147 L71.35995,33.850677 L72.65546,33.843327 L70.05296,35.149696 L71.35995,33.850677 L74.253204,31.94011 L75.60377,31.393223 L72.65546,33.843327 L74.253204,31.94011 L77.14815,31.440586 L78.56956,30.252895 L75.60377,31.393223 L77.14815,31.440586 L80.072235,31.891647 L81.385056,31.10455 L78.56956,30.252895 L80.072235,31.891647 L83.32202,31.564823 L84.36179,31.924446 L81.385056,31.10455 L83.32202,31.564823 L86.75118,31.455956 L87.63995,32.14243 L84.36179,31.924446 L86.75118,31.455956 L90.01103,33.114166 L90.871735,33.455166 L87.63995,32.14243 L90.01103,33.114166 L90.871735,33.455166 L91.69037,33.704586 L88.535324,32.472687 L90.871735,33.455166 L87.63995,32.14243 L88.535324,32.472687 L85.5177,31.360508 L87.63995,32.14243 L84.36179,31.924446 L85.5177,31.360508 L82.72757,29.840157 L84.36179,31.924446 L81.385056,31.10455 L82.72757,29.840157 L79.841324,29.62812 L81.385056,31.10455 L78.56956,30.252895 L79.841324,29.62812 L76.7447,31.80157 L78.56956,30.252895 L75.60377,31.393223 L76.7447,31.80157 L73.78417,34.53506 L75.60377,31.393223 L72.65546,33.843327 L73.78417,34.53506 L71.251724,35.53929 L72.65546,33.843327 L70.05296,35.149696 L71.251724,35.53929 L69.13237,34.181526 L70.05296,35.149696 L67.83099,34.37199 L69.13237,34.181526 L67.208336,31.646343 L67.83099,34.37199 L65.85144,32.01072 L67.208336,31.646343 L65.33258,29.073982 L65.85144,32.01072 L63.95244,29.29261 L65.33258,29.073982 L63.4617,26.982147 L63.95244,29.29261 L62.0405,27.364723 L63.4617,26.982147 L61.557625,26.163788 L62.0405,27.364723 L60.089077,27.109802 L61.557625,26.163788 L59.631355,27.09364 L60.089077,27.109802 L58.14831,28.498688 L59.631355,27.09364 L57.7729,28.801262 L58.14831,28.498688 L56.304966,30.325394 L57.7729,28.801262 L56.06143,29.433884 L56.304966,30.325394 L54.64525,29.504261 L56.06143,29.433884 L54.51569,26.800087 L54.64525,29.504261 L53.102882,25.227676 L54.51569,26.800087 L53.018078,22.522392 L53.102882,25.227676 L51.553932,20.999748 L53.018078,22.522392 L51.496994,20.194504 L51.553932,20.999748 L50.000004,19.87085 L51.496994,20.194504 L50.000004,20.75882 L50.000004,19.87085 L48.51128,21.220444 L50.000004,20.75882 L48.582268,22.849472 L48.51128,21.220444 L47.125595,23.975685 L48.582268,22.849472 L47.125595,23.975685 L48.582268,22.849472 L50.000004,22.240135 L48.582268,22.849472 L50.000004,20.75882 L51.433697,20.787773 L50.000004,22.240135 L50.000004,20.75882 L51.496994,20.194504 L52.916977,21.279442 L51.433697,20.787773 L51.496994,20.194504 L53.018078,22.522392 L54.39553,24.1445 L52.916977,21.279442 L53.018078,22.522392 L54.51569,26.800087 L55.873825,27.45863 L54.39553,24.1445 L54.51569,26.800087 L56.06143,29.433884 L57.45288,28.545311 L55.873825,27.45863 L56.06143,29.433884 L57.7729,28.801262 L59.185837,27.61356 L57.45288,28.545311 L57.7729,28.801262 L59.631355,27.09364 L61.028996,26.407494 L59.185837,27.61356 L59.631355,27.09364 L61.557625,26.163788 L62.905025,26.212418 L61.028996,26.407494 L61.557625,26.163788 L63.4617,26.982147 L64.76466,27.315742 L62.905025,26.212418 L63.4617,26.982147 L65.33258,29.073982 L66.64904,28.877502 L64.76466,27.315742 L65.33258,29.073982 L67.208336,31.646343 L68.56195,30.754017 L66.64904,28.877502 L67.208336,31.646343 L69.13237,34.181526 L70.46712,33.19114 L68.56195,30.754017 L69.13237,34.181526 L71.251724,35.53929 L72.45139,35.394726 L70.46712,33.19114 L71.251724,35.53929 L73.78417,34.53506 L74.80355,35.471325 L72.45139,35.394726 L73.78417,34.53506 L76.7447,31.80157 L77.68426,33.028717 L74.80355,35.471325 L76.7447,31.80157 L79.841324,29.62812 L80.85933,30.12548 L77.68426,33.028717 L79.841324,29.62812 L82.72757,29.840157 L83.93127,29.048454 L80.85933,30.12548 L82.72757,29.840157 L85.5177,31.360508 L86.7315,30.256683 L83.93127,29.048454 L85.5177,31.360508 L88.535324,32.472687 L89.49478,32.24727 L86.7315,30.256683 L88.535324,32.472687 L91.69037,33.704586 L92.41264,34.11232 L89.49478,32.24727 L91.69037,33.704586" fill="none" stroke="#000" stroke-width="0.35" style="mix-blend-mode: multiply;"/>
</g>
</svg>