<svg height="210mm" style="background:white" viewBox="0 0 297 210" width="297mm" xmlns="http://www.w3.org/2000/svg" xmlns:inkscape="http://www.inkscape.org/namespaces/inkscape">
<g inkscape:groupmode="layer" inkscape:label="turquoise">
<path d="M69.389824,176.85973 L69.389824,185.61017 L78.140274,185.61017 L78.140274,177.85973 L71.389824,177.85973 L71.389824,183.61017 L76.140274,183.61017 L76.140274,179.85973 L73.389824,179.85973 L73.389824,181.61017 L74.140274,181.61017 M73.057945,167.82202 L73.057945,166.69507 L71.93099,166.69507 L71.93099,166.82202 M71.93099,170.36319 L73.057945,170.36319 L73.057945,169.23624 L72.93099,169.23624 M69.389824,169.23624 L69.389824,170.36319 L70.51678,170.36319 L70.51678,170.23624 M78.140274,167.82202 L78.140274,166.69507 L77.01332,166.69507 L77.01332,166.82202 M77.01332,170.36319 L78.140274,170.36319 L78.140274,169.23624 L78.01332,169.23624 M74.47216,169.23624 L74.47216,170.36319 L75.599106,170.36319 L75.599106,170.23624 M75.599106,166.69507 L74.47216,166.69507 L74.47216,167.82202 L74.599106,167.82202 M77.01332,175.44551 L78.140274,175.44551 L78.140274,174.31856 L78.01332,174.31856 M74.47216,174.31856 L74.47216,175.44551 L75.599106,175.44551 L75.599106,175.31856 M75.599106,171.77739 L74.47216,171.77739 L74.47216,172.90434 L74.599106,172.90434 M78.140274,172.90434 L78.140274,171.77739 L77.01332,171.77739 L77.01332,171.90434 M69.389824,174.31856 L69.389824,175.44551 L70.51678,175.44551 L70.51678,175.31856 M70.51678,171.77739 L69.389824,171.77739 L69.389824,172.90434 L69.51678,172.90434 M73.057945,172.90434 L73.057945,171.77739 L71.93099,171.77739 L71.93099,171.90434 M71.93099,175.44551 L73.057945,175.44551 L73.057945,174.31856 L72.93099,174.31856 M88.30493,167.82202 L88.30493,166.69507 L87.17798,166.69507 L87.17798,166.82202 M87.17798,170.36319 L88.30493,170.36319 L88.30493,169.23624 L88.17798,169.23624 M84.63682,169.23624 L84.63682,170.36319 L85.76377,170.36319 L85.76377,170.23624 M85.76377,166.69507 L84.63682,166.69507 L84.63682,167.82202 L84.76377,167.82202 M87.17798,175.44551 L88.30493,175.44551 L88.30493,174.31856 L88.17798,174.31856 M84.63682,174.31856 L84.63682,175.44551 L85.76377,175.44551 L85.76377,175.31856 M85.76377,171.77739 L84.63682,171.77739 L84.63682,172.90434 L84.76377,172.90434 M88.30493,172.90434 L88.30493,171.77739 L87.17798,171.77739 L87.17798,171.90434 M79.55449,174.31856 L79.55449,175.44551 L80.681435,175.44551 L80.681435,175.31856 M80.681435,171.77739 L79.55449,171.77739 L79.55449,172.90434 L79.681435,172.90434 M83.2226,172.90434 L83.2226,171.77739 L82.09565,171.77739 L82.09565,171.90434 M82.09565,175.44551 L83.2226,175.44551 L83.2226,174.31856 L83.09565,174.31856 M80.681435,166.69507 L79.55449,166.69507 L79.55449,167.82202 L79.681435,167.82202 M83.2226,167.82202 L83.2226,166.69507 L82.09565,166.69507 L82.09565,166.82202 M79.55449,169.23624 L79.55449,170.36319 L80.681435,170.36319 L80.681435,170.23624 M85.76377,181.94206 L84.63682,181.94206 L84.63682,183.06902 L84.76377,183.06902 M88.30493,183.06902 L88.30493,181.94206 L87.17798,181.94206 L87.17798,182.06902 M80.681435,181.94206 L79.55449,181.94206 L79.55449,183.06902 L79.681435,183.06902 M83.2226,183.06902 L83.2226,181.94206 L82.09565,181.94206 L82.09565,182.06902 M82.09565,185.61017 L83.2226,185.61017 L83.2226,184.48322 L83.09565,184.48322 M80.681435,176.85973 L79.55449,176.85973 L79.55449,177.98668 L79.681435,177.98668 M83.2226,177.98668 L83.2226,176.85973 L82.09565,176.85973 L82.09565,176.98668 M82.09565,180.52785 L83.2226,180.52785 L83.2226,179.4009 L83.09565,179.4009 M79.55449,179.4009 L79.55449,180.52785 L80.681435,180.52785 L80.681435,180.4009 M88.30493,177.98668 L88.30493,176.85973 L87.17798,176.85973 L87.17798,176.98668 M87.17798,180.52785 L88.30493,180.52785 L88.30493,179.4009 L88.17798,179.4009 M84.63682,179.4009 L84.63682,180.52785 L85.76377,180.52785 L85.76377,180.4009 M85.76377,176.85973 L84.63682,176.85973 L84.63682,177.98668 L84.76377,177.98668 M70.51678,146.36575 L69.389824,146.36575 L69.389824,147.49269 L69.51678,147.49269 M73.057945,147.49269 L73.057945,146.36575 L71.93099,146.36575 L71.93099,146.49269 M71.93099,150.03386 L73.057945,150.03386 L73.057945,148.9069 L72.93099,148.9069 M69.389824,148.9069 L69.389824,150.03386 L70.51678,150.03386 L70.51678,149.9069 M78.140274,147.49269 L78.140274,146.36575 L77.01332,146.36575 L77.01332,146.49269 M77.01332,150.03386 L78.140274,150.03386 L78.140274,148.9069 L78.01332,148.9069 M74.47216,148.9069 L74.47216,150.03386 L75.599106,150.03386 L75.599106,149.9069 M75.599106,146.36575 L74.47216,146.36575 L74.47216,147.49269 L74.599106,147.49269 M77.01332,155.1162 L78.140274,155.1162 L78.140274,153.98924 L78.01332,153.98924 M75.599106,151.44807 L74.47216,151.44807 L74.47216,152.57503 L74.599106,152.57503 M78.140274,152.57503 L78.140274,151.44807 L77.01332,151.44807 L77.01332,151.57503 M69.389824,153.98924 L69.389824,155.1162 L70.51678,155.1162 L70.51678,154.98924 M70.51678,151.44807 L69.389824,151.44807 L69.389824,152.57503 L69.51678,152.57503 M73.057945,152.57503 L73.057945,151.44807 L71.93099,151.44807 L71.93099,151.57503 M71.93099,155.1162 L73.057945,155.1162 L73.057945,153.98924 L72.93099,153.98924 M88.30493,155.1162 L88.30493,146.36575 L79.55449,146.36575 L79.55449,154.1162 L86.30493,154.1162 L86.30493,148.36575 L81.55449,148.36575 L81.55449,152.1162 L84.30493,152.1162 L84.30493,150.36575 L83.55449,150.36575 M79.55449,165.28085 L88.30493,165.28085 L88.30493,156.53041 L80.55449,156.53041 L80.55449,163.28085 L86.30493,163.28085 L86.30493,158.53041 L82.55449,158.53041 L82.55449,161.28085 L84.30493,161.28085 L84.30493,160.53041 M69.389824,164.1539 L69.389824,165.28085 L70.51678,165.28085 L70.51678,165.1539 M70.51678,161.61273 L69.389824,161.61273 L69.389824,162.73969 L69.51678,162.73969 M73.057945,162.73969 L73.057945,161.61273 L71.93099,161.61273 L71.93099,161.73969 M71.93099,165.28085 L73.057945,165.28085 L73.057945,164.1539 L72.93099,164.1539 M70.51678,156.53041 L69.389824,156.53041 L69.389824,157.65736 L69.51678,157.65736 M73.057945,157.65736 L73.057945,156.53041 L71.93099,156.53041 L71.93099,156.65736 M71.93099,160.19852 L73.057945,160.19852 L73.057945,159.07158 L72.93099,159.07158 M69.389824,159.07158 L69.389824,160.19852 L70.51678,160.19852 L70.51678,160.07158 M78.140274,157.65736 L78.140274,156.53041 L77.01332,156.53041 L77.01332,156.65736 M77.01332,160.19852 L78.140274,160.19852 L78.140274,159.07158 L78.01332,159.07158 M74.47216,159.07158 L74.47216,160.19852 L75.599106,160.19852 L75.599106,160.07158 M75.599106,156.53041 L74.47216,156.53041 L74.47216,157.65736 L74.599106,157.65736 M74.47216,164.1539 L74.47216,165.28085 L75.599106,165.28085 L75.599106,165.1539 M75.599106,161.61273 L74.47216,161.61273 L74.47216,162.73969 L74.599106,162.73969 M78.140274,162.73969 L78.140274,161.61273 L77.01332,161.61273 L77.01332,161.73969 M108.634254,147.49269 L108.634254,146.36575 L107.5073,146.36575 L107.5073,146.49269 M107.5073,150.03386 L108.634254,150.03386 L108.634254,148.9069 L108.5073,148.9069 M104.96613,148.9069 L104.96613,150.03386 L106.09309,150.03386 L106.09309,149.9069 M106.09309,146.36575 L104.96613,146.36575 L104.96613,147.49269 L105.09309,147.49269 M107.5073,155.1162 L108.634254,155.1162 L108.634254,153.98924 L108.5073,153.98924 M104.96613,153.98924 L104.96613,155.1162 L106.09309,155.1162 L106.09309,154.98924 M106.09309,151.44807 L104.96613,151.44807 L104.96613,152.57503 L105.09309,152.57503 M108.634254,152.57503 L108.634254,151.44807 L107.5073,151.44807 L107.5073,151.57503 M99.883804,153.98924 L99.883804,155.1162 L101.01076,155.1162 L101.01076,154.98924 M101.01076,151.44807 L99.883804,151.44807 L99.883804,152.57503 L100.01076,152.57503 M103.551926,152.57503 L103.551926,151.44807 L102.42497,151.44807 L102.42497,151.57503 M102.42497,155.1162 L103.551926,155.1162 L103.551926,153.98924 L103.42497,153.98924 M101.01076,146.36575 L99.883804,146.36575 L99.883804,147.49269 L100.01076,147.49269 M103.551926,147.49269 L103.551926,146.36575 L102.42497,146.36575 L102.42497,146.49269 M102.42497,150.03386 L103.551926,150.03386 L103.551926,148.9069 L103.42497,148.9069 M99.883804,148.9069 L99.883804,150.03386 L101.01076,150.03386 L101.01076,149.9069 M99.883804,165.28085 L108.634254,165.28085 L108.634254,156.53041 L100.883804,156.53041 L100.883804,163.28085 L106.634254,163.28085 L106.634254,158.53041 L102.883804,158.53041 L102.883804,161.28085 L104.634254,161.28085 L104.634254,160.53041 M89.71915,164.1539 L89.71915,165.28085 L90.8461,165.28085 L90.8461,165.1539 M90.8461,161.61273 L89.71915,161.61273 L89.71915,162.73969 L89.8461,162.73969 M93.38726,162.73969 L93.38726,161.61273 L92.260315,161.61273 L92.260315,161.73969 M92.260315,165.28085 L93.38726,165.28085 L93.38726,164.1539 L93.260315,164.1539 M90.8461,156.53041 L89.71915,156.53041 L89.71915,157.65736 L89.8461,157.65736 M93.38726,157.65736 L93.38726,156.53041 L92.260315,156.53041 L92.260315,156.65736 M92.260315,160.19852 L93.38726,160.19852 L93.38726,159.07158 L93.260315,159.07158 M89.71915,159.07158 L89.71915,160.19852 L90.8461,160.19852 L90.8461,160.07158 M98.4696,157.65736 L98.4696,156.53041 L97.34264,156.53041 L97.34264,156.65736 M97.34264,160.19852 L98.4696,160.19852 L98.4696,159.07158 L98.34264,159.07158 M94.801476,159.07158 L94.801476,160.19852 L95.92843,160.19852 L95.92843,160.07158 M95.92843,156.53041 L94.801476,156.53041 L94.801476,157.65736 L94.92843,157.65736 M97.34264,165.28085 L98.4696,165.28085 L98.4696,164.1539 L98.34264,164.1539 M94.801476,164.1539 L94.801476,165.28085 L95.92843,165.28085 L95.92843,165.1539 M95.92843,161.61273 L94.801476,161.61273 L94.801476,162.73969 L94.92843,162.73969 M98.4696,162.73969 L98.4696,161.61273 L97.34264,161.61273 L97.34264,161.73969 M90.8461,146.36575 L89.71915,146.36575 L89.71915,147.49269 L89.8461,147.49269 M93.38726,147.49269 L93.38726,146.36575 L92.260315,146.36575 L92.260315,146.49269 M92.260315,150.03386 L93.38726,150.03386 L93.38726,148.9069 L93.260315,148.9069 M89.71915,148.9069 L89.71915,150.03386 L90.8461,150.03386 L90.8461,149.9069 M98.4696,147.49269 L98.4696,146.36575 L97.34264,146.36575 L97.34264,146.49269 M97.34264,150.03386 L98.4696,150.03386 L98.4696,148.9069 L98.34264,148.9069 M94.801476,148.9069 L94.801476,150.03386 L95.92843,150.03386 L95.92843,149.9069 M95.92843,146.36575 L94.801476,146.36575 L94.801476,147.49269 L94.92843,147.49269 M97.34264,155.1162 L98.4696,155.1162 L98.4696,153.98924 L98.34264,153.98924 M94.801476,153.98924 L94.801476,155.1162 L95.92843,155.1162 L95.92843,154.98924 M95.92843,151.44807 L94.801476,151.44807 L94.801476,152.57503 L94.92843,152.57503 M98.4696,152.57503 L98.4696,151.44807 L97.34264,151.44807 L97.34264,151.57503 M89.71915,153.98924 L89.71915,155.1162 L90.8461,155.1162 L90.8461,154.98924 M90.8461,151.44807 L89.71915,151.44807 L89.71915,152.57503 L89.8461,152.57503 M93.38726,152.57503 L93.38726,151.44807 L92.260315,151.44807 L92.260315,151.57503 M92.260315,155.1162 L93.38726,155.1162 L93.38726,153.98924 L93.260315,153.98924 M70.51678,105.70711 L69.389824,105.70711 L69.389824,106.83406 L69.51678,106.83406 M73.057945,106.83406 L73.057945,105.70711 L71.93099,105.70711 L71.93099,105.83406 M71.93099,109.37522 L73.057945,109.37522 L73.057945,108.24827 L72.93099,108.24827 M69.389824,108.24827 L69.389824,109.37522 L70.51678,109.37522 L70.51678,109.24827 M78.140274,106.83406 L78.140274,105.70711 L77.01332,105.70711 L77.01332,105.83406 M77.01332,109.37522 L78.140274,109.37522 L78.140274,108.24827 L78.01332,108.24827 M74.47216,108.24827 L74.47216,109.37522 L75.599106,109.37522 L75.599106,109.24827 M75.599106,105.70711 L74.47216,105.70711 L74.47216,106.83406 L74.599106,106.83406 M77.01332,114.45755 L78.140274,114.45755 L78.140274,113.330605 L78.01332,113.330605 M74.47216,113.330605 L74.47216,114.45755 L75.599106,114.45755 L75.599106,114.330605 M75.599106,110.78944 L74.47216,110.78944 L74.47216,111.91639 L74.599106,111.91639 M78.140274,111.91639 L78.140274,110.78944 L77.01332,110.78944 L77.01332,110.91639 M88.30493,106.83406 L88.30493,105.70711 L87.17798,105.70711 L87.17798,105.83406 M87.17798,109.37522 L88.30493,109.37522 L88.30493,108.24827 L88.17798,108.24827 M84.63682,108.24827 L84.63682,109.37522 L85.76377,109.37522 L85.76377,109.24827 M85.76377,105.70711 L84.63682,105.70711 L84.63682,106.83406 L84.76377,106.83406 M87.17798,114.45755 L88.30493,114.45755 L88.30493,113.330605 L88.17798,113.330605 M84.63682,113.330605 L84.63682,114.45755 L85.76377,114.45755 L85.76377,114.330605 M85.76377,110.78944 L84.63682,110.78944 L84.63682,111.91639 L84.76377,111.91639 M88.30493,111.91639 L88.30493,110.78944 L87.17798,110.78944 L87.17798,110.91639 M79.55449,113.330605 L79.55449,114.45755 L80.681435,114.45755 L80.681435,114.330605 M80.681435,110.78944 L79.55449,110.78944 L79.55449,111.91639 L79.681435,111.91639 M83.2226,111.91639 L83.2226,110.78944 L82.09565,110.78944 L82.09565,110.91639 M82.09565,114.45755 L83.2226,114.45755 L83.2226,113.330605 L83.09565,113.330605 M80.681435,105.70711 L79.55449,105.70711 L79.55449,106.83406 L79.681435,106.83406 M83.2226,106.83406 L83.2226,105.70711 L82.09565,105.70711 L82.09565,105.83406 M82.09565,109.37522 L83.2226,109.37522 L83.2226,108.24827 L83.09565,108.24827 M79.55449,108.24827 L79.55449,109.37522 L80.681435,109.37522 L80.681435,109.24827 M87.17798,124.622215 L88.30493,124.622215 L88.30493,123.49526 L88.17798,123.49526 M84.63682,123.49526 L84.63682,124.622215 L85.76377,124.622215 L85.76377,124.49526 M85.76377,120.954094 L84.63682,120.954094 L84.63682,122.08105 L84.76377,122.08105 M88.30493,122.08105 L88.30493,120.954094 L87.17798,120.954094 L87.17798,121.08105 M79.55449,123.49526 L79.55449,124.622215 L80.681435,124.622215 L80.681435,124.49526 M80.681435,120.954094 L79.55449,120.954094 L79.55449,122.08105 L79.681435,122.08105 M83.2226,122.08105 L83.2226,120.954094 L82.09565,120.954094 L82.09565,121.08105 M82.09565,124.622215 L83.2226,124.622215 L83.2226,123.49526 L83.09565,123.49526 M80.681435,115.871765 L79.55449,115.871765 L79.55449,116.99872 L79.681435,116.99872 M83.2226,116.99872 L83.2226,115.871765 L82.09565,115.871765 L82.09565,115.99872 M79.55449,118.41293 L79.55449,119.53989 L80.681435,119.53989 L80.681435,119.41293 M88.30493,116.99872 L88.30493,115.871765 L87.17798,115.871765 L87.17798,115.99872 M87.17798,119.53989 L88.30493,119.53989 L88.30493,118.41293 L88.17798,118.41293 M85.76377,115.871765 L84.63682,115.871765 L84.63682,116.99872 L84.76377,116.99872 M69.389824,115.871765 L69.389824,124.622215 L78.140274,124.622215 L78.140274,116.871765 L71.389824,116.871765 L71.389824,122.622215 L76.140274,122.622215 L76.140274,118.871765 L73.389824,118.871765 L73.389824,120.622215 L74.140274,120.622215 M99.883804,144.95154 L108.634254,144.95154 L108.634254,136.20108 L100.883804,136.20108 L100.883804,142.95154 L106.634254,142.95154 L106.634254,138.20108 L102.883804,138.20108 L102.883804,140.95154 L104.634254,140.95154 L104.634254,140.20108 M89.71915,143.82458 L89.71915,144.95154 L90.8461,144.95154 L90.8461,144.82458 M90.8461,141.28342 L89.71915,141.28342 L89.71915,142.41037 L89.8461,142.41037 M93.38726,142.41037 L93.38726,141.28342 L92.260315,141.28342 L92.260315,141.41037 M92.260315,144.95154 L93.38726,144.95154 L93.38726,143.82458 L93.260315,143.82458 M90.8461,136.20108 L89.71915,136.20108 L89.71915,137.32803 L89.8461,137.32803 M93.38726,137.32803 L93.38726,136.20108 L92.260315,136.20108 L92.260315,136.32803 M92.260315,139.8692 L93.38726,139.8692 L93.38726,138.74225 L93.260315,138.74225 M89.71915,138.74225 L89.71915,139.8692 L90.8461,139.8692 L90.8461,139.74225 M98.4696,137.32803 L98.4696,136.20108 L97.34264,136.20108 L97.34264,136.32803 M97.34264,139.8692 L98.4696,139.8692 L98.4696,138.74225 L98.34264,138.74225 M95.92843,136.20108 L94.801476,136.20108 L94.801476,137.32803 L94.92843,137.32803 M97.34264,144.95154 L98.4696,144.95154 L98.4696,143.82458 L98.34264,143.82458 M94.801476,143.82458 L94.801476,144.95154 L95.92843,144.95154 L95.92843,144.82458 M95.92843,141.28342 L94.801476,141.28342 L94.801476,142.41037 L94.92843,142.41037 M98.4696,142.41037 L98.4696,141.28342 L97.34264,141.28342 L97.34264,141.41037 M90.8461,126.03643 L89.71915,126.03643 L89.71915,127.163376 L89.8461,127.163376 M93.38726,127.163376 L93.38726,126.03643 L92.260315,126.03643 L92.260315,126.163376 M92.260315,129.70454 L93.38726,129.70454 L93.38726,128.57759 L93.260315,128.57759 M89.71915,128.57759 L89.71915,129.70454 L90.8461,129.70454 L90.8461,129.57759 M98.4696,127.163376 L98.4696,126.03643 L97.34264,126.03643 L97.34264,126.163376 M94.801476,128.57759 L94.801476,129.70454 L95.92843,129.70454 L95.92843,129.57759 M95.92843,126.03643 L94.801476,126.03643 L94.801476,127.163376 L94.92843,127.163376 M97.34264,134.78688 L98.4696,134.78688 L98.4696,133.65993 L98.34264,133.65993 M94.801476,133.65993 L94.801476,134.78688 L95.92843,134.78688 L95.92843,134.65993 M95.92843,131.11876 L94.801476,131.11876 L94.801476,132.24571 L94.92843,132.24571 M98.4696,132.24571 L98.4696,131.11876 L97.34264,131.11876 L97.34264,131.24571 M89.71915,133.65993 L89.71915,134.78688 L90.8461,134.78688 L90.8461,134.65993 M90.8461,131.11876 L89.71915,131.11876 L89.71915,132.24571 L89.8461,132.24571 M93.38726,132.24571 L93.38726,131.11876 L92.260315,131.11876 L92.260315,131.24571 M108.634254,127.163376 L108.634254,126.03643 L107.5073,126.03643 L107.5073,126.163376 M107.5073,129.70454 L108.634254,129.70454 L108.634254,128.57759 L108.5073,128.57759 M104.96613,128.57759 L104.96613,129.70454 L106.09309,129.70454 L106.09309,129.57759 M106.09309,126.03643 L104.96613,126.03643 L104.96613,127.163376 L105.09309,127.163376 M107.5073,134.78688 L108.634254,134.78688 L108.634254,133.65993 L108.5073,133.65993 M104.96613,133.65993 L104.96613,134.78688 L106.09309,134.78688 L106.09309,134.65993 M106.09309,131.11876 L104.96613,131.11876 L104.96613,132.24571 L105.09309,132.24571 M108.634254,132.24571 L108.634254,131.11876 L107.5073,131.11876 L107.5073,131.24571 M99.883804,133.65993 L99.883804,134.78688 L101.01076,134.78688 L101.01076,134.65993 M101.01076,131.11876 L99.883804,131.11876 L99.883804,132.24571 L100.01076,132.24571 M103.551926,132.24571 L103.551926,131.11876 L102.42497,131.11876 L102.42497,131.24571 M102.42497,134.78688 L103.551926,134.78688 L103.551926,133.65993 L103.42497,133.65993 M101.01076,126.03643 L99.883804,126.03643 L99.883804,127.163376 L100.01076,127.163376 M103.551926,127.163376 L103.551926,126.03643 L102.42497,126.03643 L102.42497,126.163376 M102.42497,129.70454 L103.551926,129.70454 L103.551926,128.57759 L103.42497,128.57759 M99.883804,128.57759 L99.883804,129.70454 L101.01076,129.70454 L101.01076,129.57759 M69.389824,143.82458 L69.389824,144.95154 L70.51678,144.95154 L70.51678,144.82458 M70.51678,141.28342 L69.389824,141.28342 L69.389824,142.41037 L69.51678,142.41037 M73.057945,142.41037 L73.057945,141.28342 L71.93099,141.28342 L71.93099,141.41037 M71.93099,144.95154 L73.057945,144.95154 L73.057945,143.82458 L72.93099,143.82458 M70.51678,136.20108 L69.389824,136.20108 L69.389824,137.32803 L69.51678,137.32803 M73.057945,137.32803 L73.057945,136.20108 L71.93099,136.20108 L71.93099,136.32803 M71.93099,139.8692 L73.057945,139.8692 L73.057945,138.74225 L72.93099,138.74225 M69.389824,138.74225 L69.389824,139.8692 L70.51678,139.8692 L70.51678,139.74225 M78.140274,137.32803 L78.140274,136.20108 L77.01332,136.20108 L77.01332,136.32803 M77.01332,139.8692 L78.140274,139.8692 L78.140274,138.74225 L78.01332,138.74225 M75.599106,136.20108 L74.47216,136.20108 L74.47216,137.32803 L74.599106,137.32803 M77.01332,144.95154 L78.140274,144.95154 L78.140274,143.82458 L78.01332,143.82458 M74.47216,143.82458 L74.47216,144.95154 L75.599106,144.95154 L75.599106,144.82458 M75.599106,141.28342 L74.47216,141.28342 L74.47216,142.41037 L74.599106,142.41037 M78.140274,142.41037 L78.140274,141.28342 L77.01332,141.28342 L77.01332,141.41037 M70.51678,126.03643 L69.389824,126.03643 L69.389824,127.163376 L69.51678,127.163376 M71.93099,129.70454 L73.057945,129.70454 L73.057945,128.57759 L72.93099,128.57759 M69.389824,128.57759 L69.389824,129.70454 L70.51678,129.70454 L70.51678,129.57759 M78.140274,127.163376 L78.140274,126.03643 L77.01332,126.03643 L77.01332,126.163376 M77.01332,129.70454 L78.140274,129.70454 L78.140274,128.57759 L78.01332,128.57759 M74.47216,128.57759 L74.47216,129.70454 L75.599106,129.70454 L75.599106,129.57759 M75.599106,126.03643 L74.47216,126.03643 L74.47216,127.163376 L74.599106,127.163376 M77.01332,134.78688 L78.140274,134.78688 L78.140274,133.65993 L78.01332,133.65993 M74.47216,133.65993 L74.47216,134.78688 L75.599106,134.78688 L75.599106,134.65993 M75.599106,131.11876 L74.47216,131.11876 L74.47216,132.24571 L74.599106,132.24571 M78.140274,132.24571 L78.140274,131.11876 L77.01332,131.11876 L77.01332,131.24571 M69.389824,133.65993 L69.389824,134.78688 L70.51678,134.78688 L70.51678,134.65993 M70.51678,131.11876 L69.389824,131.11876 L69.389824,132.24571 L69.51678,132.24571 M73.057945,132.24571 L73.057945,131.11876 L71.93099,131.11876 L71.93099,131.24571 M71.93099,134.78688 L73.057945,134.78688 L73.057945,133.65993 L72.93099,133.65993 M88.30493,127.163376 L88.30493,126.03643 L87.17798,126.03643 L87.17798,126.163376 M87.17798,129.70454 L88.30493,129.70454 L88.30493,128.57759 L88.17798,128.57759 M84.63682,128.57759 L84.63682,129.70454 L85.76377,129.70454 L85.76377,129.57759 M85.76377,126.03643 L84.63682,126.03643 L84.63682,127.163376 L84.76377,127.163376 M87.17798,134.78688 L88.30493,134.78688 L88.30493,133.65993 L88.17798,133.65993 M84.63682,133.65993 L84.63682,134.78688 L85.76377,134.78688 L85.76377,134.65993 M85.76377,131.11876 L84.63682,131.11876 L84.63682,132.24571 L84.76377,132.24571 M88.30493,132.24571 L88.30493,131.11876 L87.17798,131.11876 L87.17798,131.24571 M79.55449,133.65993 L79.55449,134.78688 L80.681435,134.78688 L80.681435,134.65993 M80.681435,131.11876 L79.55449,131.11876 L79.55449,132.24571 L79.681435,132.24571 M83.2226,132.24571 L83.2226,131.11876 L82.09565,131.11876 L82.09565,131.24571 M82.09565,134.78688 L83.2226,134.78688 L83.2226,133.65993 L83.09565,133.65993 M80.681435,126.03643 L79.55449,126.03643 L79.55449,127.163376 L79.681435,127.163376 M83.2226,127.163376 L83.2226,126.03643 L82.09565,126.03643 L82.09565,126.163376 M82.09565,129.70454 L83.2226,129.70454 L83.2226,128.57759 L83.09565,128.57759 M79.55449,128.57759 L79.55449,129.70454 L80.681435,129.70454 L80.681435,129.57759 M79.55449,144.95154 L88.30493,144.95154 L88.30493,136.20108 L80.55449,136.20108 L80.55449,142.95154 L86.30493,142.95154 L86.30493,138.20108 L82.55449,138.20108 L82.55449,140.95154 L84.30493,140.95154 L84.30493,140.20108 M149.2929,144.95154 L149.2929,105.70711 L110.04847,105.70711 L110.04847,143.95154 L147.2929,143.95154 L147.2929,107.70711 L112.04847,107.70711 L112.04847,141.95154 L145.2929,141.95154 L145.2929,109.70711 L114.04847,109.70711 L114.04847,139.95154 L143.2929,139.95154 L143.2929,111.70711 L116.04847,111.70711 L116.04847,137.95154 L141.2929,137.95154 L141.2929,113.70711 L118.04847,113.70711 L118.04847,135.95154 L139.2929,135.95154 L139.2929,115.70711 L120.04847,115.70711 L120.04847,133.95154 L137.2929,133.95154 L137.2929,117.70711 L122.04847,117.70711 L122.04847,131.95154 L135.2929,131.95154 L135.2929,119.70711 L124.04847,119.70711 L124.04847,129.95154 L133.2929,129.95154 L133.2929,121.70711 L126.04847,121.70711 L126.04847,127.95153 L131.2929,127.95153 L131.2929,123.70711 L128.04846,123.70711 L128.04846,125.95153 L129.2929,125.95153 L129.2929,125.70711 M148.16594,185.61017 L149.2929,185.61017 L149.2929,184.48322 L149.16594,184.48322 M145.62477,184.48322 L145.62477,185.61017 L146.75172,185.61017 L146.75172,185.48322 M146.75172,181.94206 L145.62477,181.94206 L145.62477,183.06902 L145.75172,183.06902 M149.2929,183.06902 L149.2929,181.94206 L148.16594,181.94206 L148.16594,182.06902 M141.6694,176.85973 L140.54245,176.85973 L140.54245,177.98668 L140.6694,177.98668 M144.21056,177.98668 L144.21056,176.85973 L143.08362,176.85973 L143.08362,176.98668 M143.08362,180.52785 L144.21056,180.52785 L144.21056,179.4009 L144.08362,179.4009 M140.54245,179.4009 L140.54245,180.52785 L141.6694,180.52785 L141.6694,180.4009 M149.2929,177.98668 L149.2929,176.85973 L148.16594,176.85973 L148.16594,176.98668 M148.16594,180.52785 L149.2929,180.52785 L149.2929,179.4009 L149.16594,179.4009 M145.62477,179.4009 L145.62477,180.52785 L146.75172,180.52785 L146.75172,180.4009 M146.75172,176.85973 L145.62477,176.85973 L145.62477,177.98668 L145.75172,177.98668 M131.50475,176.85973 L130.37779,176.85973 L130.37779,177.98668 L130.50475,177.98668 M134.0459,177.98668 L134.0459,176.85973 L132.91895,176.85973 L132.91895,176.98668 M132.91895,180.52785 L134.0459,180.52785 L134.0459,179.4009 L133.91895,179.4009 M130.37779,179.4009 L130.37779,180.52785 L131.50475,180.52785 L131.50475,180.4009 M139.12823,177.98668 L139.12823,176.85973 L138.00128,176.85973 L138.00128,176.98668 M138.00128,180.52785 L139.12823,180.52785 L139.12823,179.4009 L139.00128,179.4009 M135.46011,179.4009 L135.46011,180.52785 L136.58707,180.52785 L136.58707,180.4009 M136.58707,176.85973 L135.46011,176.85973 L135.46011,177.98668 L135.58707,177.98668 M131.50475,166.69507 L130.37779,166.69507 L130.37779,167.82202 L130.50475,167.82202 M134.0459,167.82202 L134.0459,166.69507 L132.91895,166.69507 L132.91895,166.82202 M132.91895,170.36319 L134.0459,170.36319 L134.0459,169.23624 L133.91895,169.23624 M130.37779,169.23624 L130.37779,170.36319 L131.50475,170.36319 L131.50475,170.23624 M139.12823,167.82202 L139.12823,166.69507 L138.00128,166.69507 L138.00128,166.82202 M138.00128,170.36319 L139.12823,170.36319 L139.12823,169.23624 L139.00128,169.23624 M135.46011,169.23624 L135.46011,170.36319 L136.58707,170.36319 L136.58707,170.23624 M136.58707,166.69507 L135.46011,166.69507 L135.46011,167.82202 L135.58707,167.82202 M135.46011,174.31856 L135.46011,175.44551 L136.58707,175.44551 L136.58707,175.31856 M136.58707,171.77739 L135.46011,171.77739 L135.46011,172.90434 L135.58707,172.90434 M139.12823,172.90434 L139.12823,171.77739 L138.00128,171.77739 L138.00128,171.90434 M130.37779,174.31856 L130.37779,175.44551 L131.50475,175.44551 L131.50475,175.31856 M131.50475,171.77739 L130.37779,171.77739 L130.37779,172.90434 L130.50475,172.90434 M134.0459,172.90434 L134.0459,171.77739 L132.91895,171.77739 L132.91895,171.90434 M132.91895,175.44551 L134.0459,175.44551 L134.0459,174.31856 L133.91895,174.31856 M149.2929,167.82202 L149.2929,166.69507 L148.16594,166.69507 L148.16594,166.82202 M148.16594,170.36319 L149.2929,170.36319 L149.2929,169.23624 L149.16594,169.23624 M145.62477,169.23624 L145.62477,170.36319 L146.75172,170.36319 L146.75172,170.23624 M146.75172,166.69507 L145.62477,166.69507 L145.62477,167.82202 L145.75172,167.82202 M148.16594,175.44551 L149.2929,175.44551 L149.2929,174.31856 L149.16594,174.31856 M145.62477,174.31856 L145.62477,175.44551 L146.75172,175.44551 L146.75172,175.31856 M146.75172,171.77739 L145.62477,171.77739 L145.62477,172.90434 L145.75172,172.90434 M149.2929,172.90434 L149.2929,171.77739 L148.16594,171.77739 L148.16594,171.90434 M140.54245,174.31856 L140.54245,175.44551 L141.6694,175.44551 L141.6694,175.31856 M141.6694,171.77739 L140.54245,171.77739 L140.54245,172.90434 L140.6694,172.90434 M144.21056,172.90434 L144.21056,171.77739 L143.08362,171.77739 L143.08362,171.90434 M143.08362,175.44551 L144.21056,175.44551 L144.21056,174.31856 L144.08362,174.31856 M141.6694,166.69507 L140.54245,166.69507 L140.54245,167.82202 L140.6694,167.82202 M144.21056,167.82202 L144.21056,166.69507 L143.08362,166.69507 L143.08362,166.82202 M143.08362,170.36319 L144.21056,170.36319 L144.21056,169.23624 L144.08362,169.23624 M140.54245,169.23624 L140.54245,170.36319 L141.6694,170.36319 L141.6694,170.23624 M113.71658,177.98668 L113.71658,176.85973 L112.58963,176.85973 L112.58963,176.98668 M112.58963,180.52785 L113.71658,180.52785 L113.71658,179.4009 L113.58963,179.4009 M110.04847,179.4009 L110.04847,180.52785 L111.175415,180.52785 L111.175415,180.4009 M118.79891,177.98668 L118.79891,176.85973 L117.67196,176.85973 L117.67196,176.98668 M117.67196,180.52785 L118.79891,180.52785 L118.79891,179.4009 L118.67196,179.4009 M115.1308,179.4009 L115.1308,180.52785 L116.25775,180.52785 L116.25775,180.4009 M116.25775,176.85973 L115.1308,176.85973 L115.1308,177.98668 L115.25775,177.98668 M111.175415,166.69507 L110.04847,166.69507 L110.04847,167.82202 L110.175415,167.82202 M113.71658,167.82202 L113.71658,166.69507 L112.58963,166.69507 L112.58963,166.82202 M112.58963,170.36319 L113.71658,170.36319 L113.71658,169.23624 L113.58963,169.23624 M110.04847,169.23624 L110.04847,170.36319 L111.175415,170.36319 L111.175415,170.23624 M118.79891,167.82202 L118.79891,166.69507 L117.67196,166.69507 L117.67196,166.82202 M117.67196,170.36319 L118.79891,170.36319 L118.79891,169.23624 L118.67196,169.23624 M115.1308,169.23624 L115.1308,170.36319 L116.25775,170.36319 L116.25775,170.23624 M116.25775,166.69507 L115.1308,166.69507 L115.1308,167.82202 L115.25775,167.82202 M117.67196,175.44551 L118.79891,175.44551 L118.79891,174.31856 L118.67196,174.31856 M116.25775,171.77739 L115.1308,171.77739 L115.1308,172.90434 L115.25775,172.90434 M118.79891,172.90434 L118.79891,171.77739 L117.67196,171.77739 L117.67196,171.90434 M110.04847,174.31856 L110.04847,175.44551 L111.175415,175.44551 L111.175415,175.31856 M111.175415,171.77739 L110.04847,171.77739 L110.04847,172.90434 L110.175415,172.90434 M113.71658,172.90434 L113.71658,171.77739 L112.58963,171.77739 L112.58963,171.90434 M112.58963,175.44551 L113.71658,175.44551 L113.71658,174.31856 L113.58963,174.31856 M128.96358,167.82202 L128.96358,166.69507 L127.836624,166.69507 L127.836624,166.82202 M127.836624,170.36319 L128.96358,170.36319 L128.96358,169.23624 L128.83662,169.23624 M125.295456,169.23624 L125.295456,170.36319 L126.42241,170.36319 L126.42241,170.23624 M126.42241,166.69507 L125.295456,166.69507 L125.295456,167.82202 L125.42241,167.82202 M127.836624,175.44551 L128.96358,175.44551 L128.96358,174.31856 L128.83662,174.31856 M125.295456,174.31856 L125.295456,175.44551 L126.42241,175.44551 L126.42241,175.31856 M126.42241,171.77739 L125.295456,171.77739 L125.295456,172.90434 L125.42241,172.90434 M128.96358,172.90434 L128.96358,171.77739 L127.836624,171.77739 L127.836624,171.90434 M120.21313,174.31856 L120.21313,175.44551 L121.34008,175.44551 L121.34008,175.31856 M121.34008,171.77739 L120.21313,171.77739 L120.21313,172.90434 L120.34008,172.90434 M123.88124,172.90434 L123.88124,171.77739 L122.754295,171.77739 L122.754295,171.90434 M122.754295,175.44551 L123.88124,175.44551 L123.88124,174.31856 L123.754295,174.31856 M121.34008,166.69507 L120.21313,166.69507 L120.21313,167.82202 L120.34008,167.82202 M123.88124,167.82202 L123.88124,166.69507 L122.754295,166.69507 L122.754295,166.82202 M122.754295,170.36319 L123.88124,170.36319 L123.88124,169.23624 L123.754295,169.23624 M120.21313,169.23624 L120.21313,170.36319 L121.34008,170.36319 L121.34008,170.23624 M121.34008,176.85973 L120.21313,176.85973 L120.21313,177.98668 L120.34008,177.98668 M123.88124,177.98668 L123.88124,176.85973 L122.754295,176.85973 L122.754295,176.98668 M122.754295,180.52785 L123.88124,180.52785 L123.88124,179.4009 L123.754295,179.4009 M120.21313,179.4009 L120.21313,180.52785 L121.34008,180.52785 L121.34008,180.4009 M128.96358,177.98668 L128.96358,176.85973 L127.836624,176.85973 L127.836624,176.98668 M127.836624,180.52785 L128.96358,180.52785 L128.96358,179.4009 L128.83662,179.4009 M125.295456,179.4009 L125.295456,180.52785 L126.42241,180.52785 L126.42241,180.4009 M126.42241,176.85973 L125.295456,176.85973 L125.295456,177.98668 L125.42241,177.98668 M108.634254,24.389828 L69.389824,24.389828 L69.389824,63.634254 L107.634254,63.634254 L107.634254,26.389828 L71.389824,26.389828 L71.389824,61.634254 L105.634254,61.634254 L105.634254,28.389828 L73.389824,28.389828 L73.389824,59.634254 L103.634254,59.634254 L103.634254,30.389828 L75.389824,30.389828 L75.389824,57.634254 L101.634254,57.634254 L101.634254,32.389828 L77.389824,32.389828 L77.389824,55.634254 L99.634254,55.634254 L99.634254,34.389828 L79.389824,34.389828 L79.389824,53.634254 L97.634254,53.634254 L97.634254,36.389828 L81.389824,36.389828 L81.389824,51.634254 L95.634254,51.634254 L95.634254,38.389828 L83.389824,38.389828 L83.389824,49.634254 L93.634254,49.634254 L93.634254,40.389828 L85.389824,40.389828 L85.389824,47.634254 L91.634254,47.634254 L91.634254,42.389828 L87.389824,42.389828 L87.389824,45.634254 L89.634254,45.634254 L89.634254,44.389828 L89.389824,44.389828 M140.54245,32.01332 L140.54245,33.140274 L141.6694,33.140274 L141.6694,33.01332 M141.6694,29.472157 L140.54245,29.472157 L140.54245,30.599108 L140.6694,30.599108 M144.21056,30.599108 L144.21056,29.472157 L143.08362,29.472157 L143.08362,29.599108 M143.08362,33.140274 L144.21056,33.140274 L144.21056,32.01332 L144.08362,32.01332 M141.6694,24.389828 L140.54245,24.389828 L140.54245,25.516779 L140.6694,25.516779 M144.21056,25.516779 L144.21056,24.389828 L143.08362,24.389828 L143.08362,24.516779 M143.08362,28.057943 L144.21056,28.057943 L144.21056,26.930992 L144.08362,26.930992 M140.54245,26.930992 L140.54245,28.057943 L141.6694,28.057943 L141.6694,27.930992 M130.37779,42.177982 L130.37779,43.30493 L131.50475,43.30493 L131.50475,43.177982 M134.0459,40.763767 L134.0459,39.636818 L132.91895,39.636818 L132.91895,39.763767 M132.91895,43.30493 L134.0459,43.30493 L134.0459,42.177982 L133.91895,42.177982 M131.50475,34.554485 L130.37779,34.554485 L130.37779,35.68144 L130.50475,35.68144 M134.0459,35.68144 L134.0459,34.554485 L132.91895,34.554485 L132.91895,34.68144 M132.91895,38.222603 L134.0459,38.222603 L134.0459,37.095654 L133.91895,37.095654 M130.37779,37.095654 L130.37779,38.222603 L131.50475,38.222603 L131.50475,38.095654 M139.12823,35.68144 L139.12823,34.554485 L138.00128,34.554485 L138.00128,34.68144 M138.00128,38.222603 L139.12823,38.222603 L139.12823,37.095654 L139.00128,37.095654 M135.46011,37.095654 L135.46011,38.222603 L136.58707,38.222603 L136.58707,38.095654 M136.58707,34.554485 L135.46011,34.554485 L135.46011,35.68144 L135.58707,35.68144 M138.00128,43.30493 L139.12823,43.30493 L139.12823,42.177982 L139.00128,42.177982 M135.46011,42.177982 L135.46011,43.30493 L136.58707,43.30493 L136.58707,43.177982 M136.58707,39.636818 L135.46011,39.636818 L135.46011,40.763767 L135.58707,40.763767 M139.12823,40.763767 L139.12823,39.636818 L138.00128,39.636818 L138.00128,39.763767 M131.50475,24.389828 L130.37779,24.389828 L130.37779,25.516779 L130.50475,25.516779 M134.0459,25.516779 L134.0459,24.389828 L132.91895,24.389828 L132.91895,24.516779 M132.91895,28.057943 L134.0459,28.057943 L134.0459,26.930992 L133.91895,26.930992 M130.37779,26.930992 L130.37779,28.057943 L131.50475,28.057943 L131.50475,27.930992 M139.12823,25.516779 L139.12823,24.389828 L138.00128,24.389828 L138.00128,24.516779 M138.00128,28.057943 L139.12823,28.057943 L139.12823,26.930992 L139.00128,26.930992 M135.46011,26.930992 L135.46011,28.057943 L136.58707,28.057943 L136.58707,27.930992 M136.58707,24.389828 L135.46011,24.389828 L135.46011,25.516779 L135.58707,25.516779 M138.00128,33.140274 L139.12823,33.140274 L139.12823,32.01332 L139.00128,32.01332 M135.46011,32.01332 L135.46011,33.140274 L136.58707,33.140274 L136.58707,33.01332 M136.58707,29.472157 L135.46011,29.472157 L135.46011,30.599108 L135.58707,30.599108 M139.12823,30.599108 L139.12823,29.472157 L138.00128,29.472157 L138.00128,29.599108 M130.37779,32.01332 L130.37779,33.140274 L131.50475,33.140274 L131.50475,33.01332 M134.0459,30.599108 L134.0459,29.472157 L132.91895,29.472157 L132.91895,29.599108 M132.91895,33.140274 L134.0459,33.140274 L134.0459,32.01332 L133.91895,32.01332 M148.16594,104.29289 L149.2929,104.29289 L149.2929,103.16594 L149.16594,103.16594 M145.62477,103.16594 L145.62477,104.29289 L146.75172,104.29289 L146.75172,104.16594 M146.75172,100.62478 L145.62477,100.62478 L145.62477,101.75173 L145.75172,101.75173 M149.2929,101.75173 L149.2929,100.62478 L148.16594,100.62478 L148.16594,100.75173 M141.6694,95.54245 L140.54245,95.54245 L140.54245,96.669395 L140.6694,96.669395 M144.21056,96.669395 L144.21056,95.54245 L143.08362,95.54245 L143.08362,95.669395 M143.08362,99.21056 L144.21056,99.21056 L144.21056,98.08361 L144.08362,98.08361 M149.2929,96.669395 L149.2929,95.54245 L148.16594,95.54245 L148.16594,95.669395 M148.16594,99.21056 L149.2929,99.21056 L149.2929,98.08361 L149.16594,98.08361 M145.62477,98.08361 L145.62477,99.21056 L146.75172,99.21056 L146.75172,99.08361 M146.75172,95.54245 L145.62477,95.54245 L145.62477,96.669395 L145.75172,96.669395 M130.37779,103.16594 L130.37779,104.29289 L131.50475,104.29289 L131.50475,104.16594 M131.50475,100.62478 L130.37779,100.62478 L130.37779,101.75173 L130.50475,101.75173 M134.0459,101.75173 L134.0459,100.62478 L132.91895,100.62478 L132.91895,100.75173 M132.91895,104.29289 L134.0459,104.29289 L134.0459,103.16594 L133.91895,103.16594 M134.0459,96.669395 L134.0459,95.54245 L132.91895,95.54245 L132.91895,95.669395 M132.91895,99.21056 L134.0459,99.21056 L134.0459,98.08361 L133.91895,98.08361 M130.37779,98.08361 L130.37779,99.21056 L131.50475,99.21056 L131.50475,99.08361 M139.12823,96.669395 L139.12823,95.54245 L138.00128,95.54245 L138.00128,95.669395 M138.00128,99.21056 L139.12823,99.21056 L139.12823,98.08361 L139.00128,98.08361 M135.46011,98.08361 L135.46011,99.21056 L136.58707,99.21056 L136.58707,99.08361 M136.58707,95.54245 L135.46011,95.54245 L135.46011,96.669395 L135.58707,96.669395 M131.50475,85.377785 L130.37779,85.377785 L130.37779,86.50474 L130.50475,86.50474 M134.0459,86.50474 L134.0459,85.377785 L132.91895,85.377785 L132.91895,85.50474 M132.91895,89.045906 L134.0459,89.045906 L134.0459,87.91895 L133.91895,87.91895 M130.37779,87.91895 L130.37779,89.045906 L131.50475,89.045906 L131.50475,88.91895 M139.12823,86.50474 L139.12823,85.377785 L138.00128,85.377785 L138.00128,85.50474 M138.00128,89.045906 L139.12823,89.045906 L139.12823,87.91895 L139.00128,87.91895 M135.46011,87.91895 L135.46011,89.045906 L136.58707,89.045906 L136.58707,88.91895 M136.58707,85.377785 L135.46011,85.377785 L135.46011,86.50474 L135.58707,86.50474 M138.00128,94.128235 L139.12823,94.128235 L139.12823,93.00128 L139.00128,93.00128 M135.46011,93.00128 L135.46011,94.128235 L136.58707,94.128235 L136.58707,94.00128 M136.58707,90.46011 L135.46011,90.46011 L135.46011,91.58707 L135.58707,91.58707 M139.12823,91.58707 L139.12823,90.46011 L138.00128,90.46011 L138.00128,90.58707 M130.37779,93.00128 L130.37779,94.128235 L131.50475,94.128235 L131.50475,94.00128 M131.50475,90.46011 L130.37779,90.46011 L130.37779,91.58707 L130.50475,91.58707 M134.0459,91.58707 L134.0459,90.46011 L132.91895,90.46011 L132.91895,90.58707 M149.2929,86.50474 L149.2929,85.377785 L148.16594,85.377785 L148.16594,85.50474 M148.16594,89.045906 L149.2929,89.045906 L149.2929,87.91895 L149.16594,87.91895 M145.62477,87.91895 L145.62477,89.045906 L146.75172,89.045906 L146.75172,88.91895 M146.75172,85.377785 L145.62477,85.377785 L145.62477,86.50474 L145.75172,86.50474 M148.16594,94.128235 L149.2929,94.128235 L149.2929,93.00128 L149.16594,93.00128 M145.62477,93.00128 L145.62477,94.128235 L146.75172,94.128235 L146.75172,94.00128 M146.75172,90.46011 L145.62477,90.46011 L145.62477,91.58707 L145.75172,91.58707 M149.2929,91.58707 L149.2929,90.46011 L148.16594,90.46011 L148.16594,90.58707 M140.54245,93.00128 L140.54245,94.128235 L141.6694,94.128235 L141.6694,94.00128 M141.6694,90.46011 L140.54245,90.46011 L140.54245,91.58707 L140.6694,91.58707 M144.21056,91.58707 L144.21056,90.46011 L143.08362,90.46011 L143.08362,90.58707 M143.08362,94.128235 L144.21056,94.128235 L144.21056,93.00128 L144.08362,93.00128 M144.21056,86.50474 L144.21056,85.377785 L143.08362,85.377785 L143.08362,85.50474 M143.08362,89.045906 L144.21056,89.045906 L144.21056,87.91895 L144.08362,87.91895 M140.54245,87.91895 L140.54245,89.045906 L141.6694,89.045906 L141.6694,88.91895 M149.2929,66.175415 L149.2929,65.04847 L148.16594,65.04847 L148.16594,65.175415 M148.16594,68.71658 L149.2929,68.71658 L149.2929,67.58963 L149.16594,67.58963 M145.62477,67.58963 L145.62477,68.71658 L146.75172,68.71658 L146.75172,68.58963 M146.75172,65.04847 L145.62477,65.04847 L145.62477,66.175415 L145.75172,66.175415 M148.16594,73.79891 L149.2929,73.79891 L149.2929,72.67196 L149.16594,72.67196 M145.62477,72.67196 L145.62477,73.79891 L146.75172,73.79891 L146.75172,73.67196 M146.75172,70.1308 L145.62477,70.1308 L145.62477,71.25775 L145.75172,71.25775 M149.2929,71.25775 L149.2929,70.1308 L148.16594,70.1308 L148.16594,70.25775 M140.54245,72.67196 L140.54245,73.79891 L141.6694,73.79891 L141.6694,73.67196 M141.6694,70.1308 L140.54245,70.1308 L140.54245,71.25775 L140.6694,71.25775 M144.21056,71.25775 L144.21056,70.1308 L143.08362,70.1308 L143.08362,70.25775 M143.08362,73.79891 L144.21056,73.79891 L144.21056,72.67196 L144.08362,72.67196 M141.6694,65.04847 L140.54245,65.04847 L140.54245,66.175415 L140.6694,66.175415 M144.21056,66.175415 L144.21056,65.04847 L143.08362,65.04847 L143.08362,65.175415 M143.08362,68.71658 L144.21056,68.71658 L144.21056,67.58963 L144.08362,67.58963 M140.54245,67.58963 L140.54245,68.71658 L141.6694,68.71658 L141.6694,68.58963 M148.16594,83.96357 L149.2929,83.96357 L149.2929,82.836624 L149.16594,82.836624 M145.62477,82.836624 L145.62477,83.96357 L146.75172,83.96357 L146.75172,83.836624 M146.75172,80.295456 L145.62477,80.295456 L145.62477,81.42241 L145.75172,81.42241 M149.2929,81.42241 L149.2929,80.295456 L148.16594,80.295456 L148.16594,80.42241 M140.54245,82.836624 L140.54245,83.96357 L141.6694,83.96357 L141.6694,83.836624 M141.6694,80.295456 L140.54245,80.295456 L140.54245,81.42241 L140.6694,81.42241 M144.21056,81.42241 L144.21056,80.295456 L143.08362,80.295456 L143.08362,80.42241 M143.08362,83.96357 L144.21056,83.96357 L144.21056,82.836624 L144.08362,82.836624 M141.6694,75.21313 L140.54245,75.21313 L140.54245,76.34008 L140.6694,76.34008 M144.21056,76.34008 L144.21056,75.21313 L143.08362,75.21313 L143.08362,75.34008 M143.08362,78.88124 L144.21056,78.88124 L144.21056,77.754295 L144.08362,77.754295 M149.2929,76.34008 L149.2929,75.21313 L148.16594,75.21313 L148.16594,75.34008 M145.62477,77.754295 L145.62477,78.88124 L146.75172,78.88124 L146.75172,78.754295 M146.75172,75.21313 L145.62477,75.21313 L145.62477,76.34008 L145.75172,76.34008 M130.37779,75.21313 L130.37779,83.96357 L139.12823,83.96357 L139.12823,76.21313 L132.37779,76.21313 L132.37779,81.96357 L137.12823,81.96357 L137.12823,78.21313 L134.37779,78.21313 L134.37779,79.96357 L135.12823,79.96357 M131.50475,65.04847 L130.37779,65.04847 L130.37779,66.175415 L130.50475,66.175415 M134.0459,66.175415 L134.0459,65.04847 L132.91895,65.04847 L132.91895,65.175415 M132.91895,68.71658 L134.0459,68.71658 L134.0459,67.58963 L133.91895,67.58963 M130.37779,67.58963 L130.37779,68.71658 L131.50475,68.71658 L131.50475,68.58963 M139.12823,66.175415 L139.12823,65.04847 L138.00128,65.04847 L138.00128,65.175415 M138.00128,68.71658 L139.12823,68.71658 L139.12823,67.58963 L139.00128,67.58963 M135.46011,67.58963 L135.46011,68.71658 L136.58707,68.71658 L136.58707,68.58963 M136.58707,65.04847 L135.46011,65.04847 L135.46011,66.175415 L135.58707,66.175415 M138.00128,73.79891 L139.12823,73.79891 L139.12823,72.67196 L139.00128,72.67196 M135.46011,72.67196 L135.46011,73.79891 L136.58707,73.79891 L136.58707,73.67196 M136.58707,70.1308 L135.46011,70.1308 L135.46011,71.25775 L135.58707,71.25775 M139.12823,71.25775 L139.12823,70.1308 L138.00128,70.1308 L138.00128,70.25775 M130.37779,72.67196 L130.37779,73.79891 L131.50475,73.79891 L131.50475,73.67196 M131.50475,70.1308 L130.37779,70.1308 L130.37779,71.25775 L130.50475,71.25775 M134.0459,71.25775 L134.0459,70.1308 L132.91895,70.1308 L132.91895,70.25775 M132.91895,73.79891 L134.0459,73.79891 L134.0459,72.67196 L133.91895,72.67196 M69.389824,65.04847 L69.389824,104.29289 L108.634254,104.29289 L108.634254,66.04847 L71.389824,66.04847 L71.389824,102.29289 L106.634254,102.29289 L106.634254,68.04847 L73.389824,68.04847 L73.389824,100.29289 L104.634254,100.29289 L104.634254,70.04847 L75.389824,70.04847 L75.389824,98.29289 L102.634254,98.29289 L102.634254,72.04847 L77.389824,72.04847 L77.389824,96.29289 L100.634254,96.29289 L100.634254,74.04847 L79.389824,74.04847 L79.389824,94.29289 L98.634254,94.29289 L98.634254,76.04847 L81.389824,76.04847 L81.389824,92.29289 L96.634254,92.29289 L96.634254,78.04847 L83.389824,78.04847 L83.389824,90.29289 L94.634254,90.29289 L94.634254,80.04847 L85.389824,80.04847 L85.389824,88.29289 L92.634254,88.29289 L92.634254,82.04847 L87.389824,82.04847 L87.389824,86.29289 L90.634254,86.29289 L90.634254,84.04847 L89.389824,84.04847 L89.389824,84.29289 M230.61017,25.516779 L230.61017,24.389828 L229.48322,24.389828 L229.48322,24.516779 M229.48322,28.057943 L230.61017,28.057943 L230.61017,26.930992 L230.48322,26.930992 M226.94206,26.930992 L226.94206,28.057943 L228.06902,28.057943 L228.06902,27.930992 M228.06902,24.389828 L226.94206,24.389828 L226.94206,25.516779 L227.06902,25.516779 M229.48322,33.140274 L230.61017,33.140274 L230.61017,32.01332 L230.48322,32.01332 M226.94206,32.01332 L226.94206,33.140274 L228.06902,33.140274 L228.06902,33.01332 M228.06902,29.472157 L226.94206,29.472157 L226.94206,30.599108 L227.06902,30.599108 M230.61017,30.599108 L230.61017,29.472157 L229.48322,29.472157 L229.48322,29.599108 M222.98668,29.472157 L221.85973,29.472157 L221.85973,30.599108 L221.98668,30.599108 M225.52785,30.599108 L225.52785,29.472157 L224.4009,29.472157 L224.4009,29.599108 M224.4009,33.140274 L225.52785,33.140274 L225.52785,32.01332 L225.4009,32.01332 M225.52785,25.516779 L225.52785,24.389828 L224.4009,24.389828 L224.4009,24.516779 M224.4009,28.057943 L225.52785,28.057943 L225.52785,26.930992 L225.4009,26.930992 M221.85973,26.930992 L221.85973,28.057943 L222.98668,28.057943 L222.98668,27.930992 M221.85973,43.30493 L230.61017,43.30493 L230.61017,34.554485 L222.85973,34.554485 L222.85973,41.30493 L228.61017,41.30493 L228.61017,36.554485 L224.85973,36.554485 L224.85973,39.30493 L226.61017,39.30493 L226.61017,38.554485 M211.69507,42.177982 L211.69507,43.30493 L212.82202,43.30493 L212.82202,43.177982 M212.82202,39.636818 L211.69507,39.636818 L211.69507,40.763767 L211.82202,40.763767 M215.36319,40.763767 L215.36319,39.636818 L214.23624,39.636818 L214.23624,39.763767 M214.23624,43.30493 L215.36319,43.30493 L215.36319,42.177982 L215.23624,42.177982 M212.82202,34.554485 L211.69507,34.554485 L211.69507,35.68144 L211.82202,35.68144 M215.36319,35.68144 L215.36319,34.554485 L214.23624,34.554485 L214.23624,34.68144 M214.23624,38.222603 L215.36319,38.222603 L215.36319,37.095654 L215.23624,37.095654 M211.69507,37.095654 L211.69507,38.222603 L212.82202,38.222603 L212.82202,38.095654 M220.44551,35.68144 L220.44551,34.554485 L219.31856,34.554485 L219.31856,34.68144 M219.31856,38.222603 L220.44551,38.222603 L220.44551,37.095654 L220.31856,37.095654 M216.77739,37.095654 L216.77739,38.222603 L217.90434,38.222603 L217.90434,38.095654 M217.90434,34.554485 L216.77739,34.554485 L216.77739,35.68144 L216.90434,35.68144 M219.31856,43.30493 L220.44551,43.30493 L220.44551,42.177982 L220.31856,42.177982 M216.77739,42.177982 L216.77739,43.30493 L217.90434,43.30493 L217.90434,43.177982 M217.90434,39.636818 L216.77739,39.636818 L216.77739,40.763767 L216.90434,40.763767 M220.44551,40.763767 L220.44551,39.636818 L219.31856,39.636818 L219.31856,39.763767 M212.82202,24.389828 L211.69507,24.389828 L211.69507,25.516779 L211.82202,25.516779 M215.36319,25.516779 L215.36319,24.389828 L214.23624,24.389828 L214.23624,24.516779 M214.23624,28.057943 L215.36319,28.057943 L215.36319,26.930992 L215.23624,26.930992 M211.69507,26.930992 L211.69507,28.057943 L212.82202,28.057943 L212.82202,27.930992 M220.44551,25.516779 L220.44551,24.389828 L219.31856,24.389828 L219.31856,24.516779 M219.31856,28.057943 L220.44551,28.057943 L220.44551,26.930992 L220.31856,26.930992 M217.90434,24.389828 L216.77739,24.389828 L216.77739,25.516779 L216.90434,25.516779 M219.31856,33.140274 L220.44551,33.140274 L220.44551,32.01332 L220.31856,32.01332 M216.77739,32.01332 L216.77739,33.140274 L217.90434,33.140274 L217.90434,33.01332 M217.90434,29.472157 L216.77739,29.472157 L216.77739,30.599108 L216.90434,30.599108 M220.44551,30.599108 L220.44551,29.472157 L219.31856,29.472157 L219.31856,29.599108 M212.82202,29.472157 L211.69507,29.472157 L211.69507,30.599108 L211.82202,30.599108 M215.36319,30.599108 L215.36319,29.472157 L214.23624,29.472157 L214.23624,29.599108 M214.23624,33.140274 L215.36319,33.140274 L215.36319,32.01332 L215.23624,32.01332 M191.36575,62.5073 L191.36575,63.634254 L192.49269,63.634254 L192.49269,63.5073 M192.49269,59.966137 L191.36575,59.966137 L191.36575,61.09309 L191.49269,61.09309 M195.03386,61.09309 L195.03386,59.966137 L193.9069,59.966137 L193.9069,60.09309 M193.9069,63.634254 L195.03386,63.634254 L195.03386,62.5073 L194.9069,62.5073 M192.49269,54.88381 L191.36575,54.88381 L191.36575,56.010757 L191.49269,56.010757 M195.03386,56.010757 L195.03386,54.88381 L193.9069,54.88381 L193.9069,55.010757 M193.9069,58.55192 L195.03386,58.55192 L195.03386,57.424973 L194.9069,57.424973 M191.36575,57.424973 L191.36575,58.55192 L192.49269,58.55192 L192.49269,58.424973 M200.1162,56.010757 L200.1162,54.88381 L198.98924,54.88381 L198.98924,55.010757 M198.98924,58.55192 L200.1162,58.55192 L200.1162,57.424973 L199.98924,57.424973 M196.44807,57.424973 L196.44807,58.55192 L197.57503,58.55192 L197.57503,58.424973 M197.57503,54.88381 L196.44807,54.88381 L196.44807,56.010757 L196.57503,56.010757 M198.98924,63.634254 L200.1162,63.634254 L200.1162,62.5073 L199.98924,62.5073 M197.57503,59.966137 L196.44807,59.966137 L196.44807,61.09309 L196.57503,61.09309 M200.1162,61.09309 L200.1162,59.966137 L198.98924,59.966137 L198.98924,60.09309 M198.98924,53.469593 L200.1162,53.469593 L200.1162,52.342644 L199.98924,52.342644 M196.44807,52.342644 L196.44807,53.469593 L197.57503,53.469593 L197.57503,53.342644 M197.57503,49.801476 L196.44807,49.801476 L196.44807,50.92843 L196.57503,50.92843 M200.1162,50.92843 L200.1162,49.801476 L198.98924,49.801476 L198.98924,49.92843 M191.36575,52.342644 L191.36575,53.469593 L192.49269,53.469593 L192.49269,53.342644 M192.49269,49.801476 L191.36575,49.801476 L191.36575,50.92843 L191.49269,50.92843 M195.03386,50.92843 L195.03386,49.801476 L193.9069,49.801476 L193.9069,49.92843 M193.9069,53.469593 L195.03386,53.469593 L195.03386,52.342644 L194.9069,52.342644 M209.1539,48.387264 L210.28085,48.387264 L210.28085,47.26031 L210.1539,47.26031 M206.61273,47.26031 L206.61273,48.387264 L207.73969,48.387264 L207.73969,48.26031 M207.73969,44.719147 L206.61273,44.719147 L206.61273,45.8461 L206.73969,45.8461 M201.53041,52.342644 L201.53041,53.469593 L202.65736,53.469593 L202.65736,53.342644 M202.65736,49.801476 L201.53041,49.801476 L201.53041,50.92843 L201.65736,50.92843 M205.19852,50.92843 L205.19852,49.801476 L204.07158,49.801476 L204.07158,49.92843 M202.65736,44.719147 L201.53041,44.719147 L201.53041,45.8461 L201.65736,45.8461 M205.19852,45.8461 L205.19852,44.719147 L204.07158,44.719147 L204.07158,44.8461 M204.07158,48.387264 L205.19852,48.387264 L205.19852,47.26031 L205.07158,47.26031 M201.53041,47.26031 L201.53041,48.387264 L202.65736,48.387264 L202.65736,48.26031 M192.49269,24.389828 L191.36575,24.389828 L191.36575,25.516779 L191.49269,25.516779 M195.03386,25.516779 L195.03386,24.389828 L193.9069,24.389828 L193.9069,24.516779 M193.9069,28.057943 L195.03386,28.057943 L195.03386,26.930992 L194.9069,26.930992 M191.36575,26.930992 L191.36575,28.057943 L192.49269,28.057943 L192.49269,27.930992 M200.1162,25.516779 L200.1162,24.389828 L198.98924,24.389828 L198.98924,24.516779 M198.98924,28.057943 L200.1162,28.057943 L200.1162,26.930992 L199.98924,26.930992 M196.44807,26.930992 L196.44807,28.057943 L197.57503,28.057943 L197.57503,27.930992 M197.57503,24.389828 L196.44807,24.389828 L196.44807,25.516779 L196.57503,25.516779 M198.98924,33.140274 L200.1162,33.140274 L200.1162,32.01332 L199.98924,32.01332 M196.44807,32.01332 L196.44807,33.140274 L197.57503,33.140274 L197.57503,33.01332 M197.57503,29.472157 L196.44807,29.472157 L196.44807,30.599108 L196.57503,30.599108 M200.1162,30.599108 L200.1162,29.472157 L198.98924,29.472157 L198.98924,29.599108 M191.36575,32.01332 L191.36575,33.140274 L192.49269,33.140274 L192.49269,33.01332 M192.49269,29.472157 L191.36575,29.472157 L191.36575,30.599108 L191.49269,30.599108 M195.03386,30.599108 L195.03386,29.472157 L193.9069,29.472157 L193.9069,29.599108 M193.9069,33.140274 L195.03386,33.140274 L195.03386,32.01332 L194.9069,32.01332 M210.28085,25.516779 L210.28085,24.389828 L209.1539,24.389828 L209.1539,24.516779 M209.1539,28.057943 L210.28085,28.057943 L210.28085,26.930992 L210.1539,26.930992 M206.61273,26.930992 L206.61273,28.057943 L207.73969,28.057943 L207.73969,27.930992 M207.73969,24.389828 L206.61273,24.389828 L206.61273,25.516779 L206.73969,25.516779 M209.1539,33.140274 L210.28085,33.140274 L210.28085,32.01332 L210.1539,32.01332 M206.61273,32.01332 L206.61273,33.140274 L207.73969,33.140274 L207.73969,33.01332 M207.73969,29.472157 L206.61273,29.472157 L206.61273,30.599108 L206.73969,30.599108 M210.28085,30.599108 L210.28085,29.472157 L209.1539,29.472157 L209.1539,29.599108 M201.53041,32.01332 L201.53041,33.140274 L202.65736,33.140274 L202.65736,33.01332 M202.65736,29.472157 L201.53041,29.472157 L201.53041,30.599108 L201.65736,30.599108 M205.19852,30.599108 L205.19852,29.472157 L204.07158,29.472157 L204.07158,29.599108 M204.07158,33.140274 L205.19852,33.140274 L205.19852,32.01332 L205.07158,32.01332 M202.65736,24.389828 L201.53041,24.389828 L201.53041,25.516779 L201.65736,25.516779 M205.19852,25.516779 L205.19852,24.389828 L204.07158,24.389828 L204.07158,24.516779 M204.07158,28.057943 L205.19852,28.057943 L205.19852,26.930992 L205.07158,26.930992 M201.53041,26.930992 L201.53041,28.057943 L202.65736,28.057943 L202.65736,27.930992 M209.1539,43.30493 L210.28085,43.30493 L210.28085,42.177982 L210.1539,42.177982 M206.61273,42.177982 L206.61273,43.30493 L207.73969,43.30493 L207.73969,43.177982 M207.73969,39.636818 L206.61273,39.636818 L206.61273,40.763767 L206.73969,40.763767 M210.28085,40.763767 L210.28085,39.636818 L209.1539,39.636818 L209.1539,39.763767 M201.53041,42.177982 L201.53041,43.30493 L202.65736,43.30493 L202.65736,43.177982 M202.65736,39.636818 L201.53041,39.636818 L201.53041,40.763767 L201.65736,40.763767 M205.19852,40.763767 L205.19852,39.636818 L204.07158,39.636818 L204.07158,39.763767 M204.07158,43.30493 L205.19852,43.30493 L205.19852,42.177982 L205.07158,42.177982 M202.65736,34.554485 L201.53041,34.554485 L201.53041,35.68144 L201.65736,35.68144 M205.19852,35.68144 L205.19852,34.554485 L204.07158,34.554485 L204.07158,34.68144 M204.07158,38.222603 L205.19852,38.222603 L205.19852,37.095654 L205.07158,37.095654 M201.53041,37.095654 L201.53041,38.222603 L202.65736,38.222603 L202.65736,38.095654 M210.28085,35.68144 L210.28085,34.554485 L209.1539,34.554485 L209.1539,34.68144 M209.1539,38.222603 L210.28085,38.222603 L210.28085,37.095654 L210.1539,37.095654 M206.61273,37.095654 L206.61273,38.222603 L207.73969,38.222603 L207.73969,38.095654 M207.73969,34.554485 L206.61273,34.554485 L206.61273,35.68144 L206.73969,35.68144 M191.36575,34.554485 L191.36575,43.30493 L200.1162,43.30493 L200.1162,35.554485 L193.36575,35.554485 L193.36575,41.30493 L198.1162,41.30493 L198.1162,37.554485 L195.36575,37.554485 L195.36575,39.30493 L196.1162,39.30493 M221.85973,104.29289 L230.61017,104.29289 L230.61017,95.54245 L222.85973,95.54245 L222.85973,102.29289 L228.61017,102.29289 L228.61017,97.54245 L224.85973,97.54245 L224.85973,100.29289 L226.61017,100.29289 L226.61017,99.54245 M211.69507,103.16594 L211.69507,104.29289 L212.82202,104.29289 L212.82202,104.16594 M212.82202,100.62478 L211.69507,100.62478 L211.69507,101.75173 L211.82202,101.75173 M215.36319,101.75173 L215.36319,100.62478 L214.23624,100.62478 L214.23624,100.75173 M214.23624,104.29289 L215.36319,104.29289 L215.36319,103.16594 L215.23624,103.16594 M212.82202,95.54245 L211.69507,95.54245 L211.69507,96.669395 L211.82202,96.669395 M215.36319,96.669395 L215.36319,95.54245 L214.23624,95.54245 L214.23624,95.669395 M214.23624,99.21056 L215.36319,99.21056 L215.36319,98.08361 L215.23624,98.08361 M211.69507,98.08361 L211.69507,99.21056 L212.82202,99.21056 L212.82202,99.08361 M220.44551,96.669395 L220.44551,95.54245 L219.31856,95.54245 L219.31856,95.669395 M219.31856,99.21056 L220.44551,99.21056 L220.44551,98.08361 L220.31856,98.08361 M216.77739,98.08361 L216.77739,99.21056 L217.90434,99.21056 L217.90434,99.08361 M217.90434,95.54245 L216.77739,95.54245 L216.77739,96.669395 L216.90434,96.669395 M219.31856,104.29289 L220.44551,104.29289 L220.44551,103.16594 L220.31856,103.16594 M216.77739,103.16594 L216.77739,104.29289 L217.90434,104.29289 L217.90434,104.16594 M217.90434,100.62478 L216.77739,100.62478 L216.77739,101.75173 L216.90434,101.75173 M220.44551,101.75173 L220.44551,100.62478 L219.31856,100.62478 L219.31856,100.75173 M212.82202,85.377785 L211.69507,85.377785 L211.69507,86.50474 L211.82202,86.50474 M215.36319,86.50474 L215.36319,85.377785 L214.23624,85.377785 L214.23624,85.50474 M214.23624,89.045906 L215.36319,89.045906 L215.36319,87.91895 L215.23624,87.91895 M211.69507,87.91895 L211.69507,89.045906 L212.82202,89.045906 L212.82202,88.91895 M220.44551,86.50474 L220.44551,85.377785 L219.31856,85.377785 L219.31856,85.50474 M219.31856,89.045906 L220.44551,89.045906 L220.44551,87.91895 L220.31856,87.91895 M216.77739,87.91895 L216.77739,89.045906 L217.90434,89.045906 L217.90434,88.91895 M217.90434,85.377785 L216.77739,85.377785 L216.77739,86.50474 L216.90434,86.50474 M219.31856,94.128235 L220.44551,94.128235 L220.44551,93.00128 L220.31856,93.00128 M216.77739,93.00128 L216.77739,94.128235 L217.90434,94.128235 L217.90434,94.00128 M217.90434,90.46011 L216.77739,90.46011 L216.77739,91.58707 L216.90434,91.58707 M220.44551,91.58707 L220.44551,90.46011 L219.31856,90.46011 L219.31856,90.58707 M211.69507,93.00128 L211.69507,94.128235 L212.82202,94.128235 L212.82202,94.00128 M212.82202,90.46011 L211.69507,90.46011 L211.69507,91.58707 L211.82202,91.58707 M215.36319,91.58707 L215.36319,90.46011 L214.23624,90.46011 L214.23624,90.58707 M214.23624,94.128235 L215.36319,94.128235 L215.36319,93.00128 L215.23624,93.00128 M230.61017,86.50474 L230.61017,85.377785 L229.48322,85.377785 L229.48322,85.50474 M229.48322,89.045906 L230.61017,89.045906 L230.61017,87.91895 L230.48322,87.91895 M226.94206,87.91895 L226.94206,89.045906 L228.06902,89.045906 L228.06902,88.91895 M228.06902,85.377785 L226.94206,85.377785 L226.94206,86.50474 L227.06902,86.50474 M221.85973,93.00128 L221.85973,94.128235 L222.98668,94.128235 L222.98668,94.00128 M222.98668,90.46011 L221.85973,90.46011 L221.85973,91.58707 L221.98668,91.58707 M225.52785,91.58707 L225.52785,90.46011 L224.4009,90.46011 L224.4009,90.58707 M224.4009,94.128235 L225.52785,94.128235 L225.52785,93.00128 L225.4009,93.00128 M222.98668,85.377785 L221.85973,85.377785 L221.85973,86.50474 L221.98668,86.50474 M225.52785,86.50474 L225.52785,85.377785 L224.4009,85.377785 L224.4009,85.50474 M224.4009,89.045906 L225.52785,89.045906 L225.52785,87.91895 L225.4009,87.91895 M221.85973,87.91895 L221.85973,89.045906 L222.98668,89.045906 L222.98668,88.91895 M200.1162,65.04847 L191.36575,65.04847 L191.36575,73.79891 L199.1162,73.79891 L199.1162,67.04847 L193.36575,67.04847 L193.36575,71.79891 L197.1162,71.79891 L197.1162,69.04847 L195.36575,69.04847 L195.36575,69.79891 M210.28085,73.79891 L210.28085,65.04847 L201.53041,65.04847 L201.53041,72.79891 L208.28085,72.79891 L208.28085,67.04847 L203.53041,67.04847 L203.53041,70.79891 L206.28085,70.79891 L206.28085,69.04847 L205.53041,69.04847 M209.1539,83.96357 L210.28085,83.96357 L210.28085,82.836624 L210.1539,82.836624 M206.61273,82.836624 L206.61273,83.96357 L207.73969,83.96357 L207.73969,83.836624 M207.73969,80.295456 L206.61273,80.295456 L206.61273,81.42241 L206.73969,81.42241 M210.28085,81.42241 L210.28085,80.295456 L209.1539,80.295456 L209.1539,80.42241 M201.53041,82.836624 L201.53041,83.96357 L202.65736,83.96357 L202.65736,83.836624 M202.65736,80.295456 L201.53041,80.295456 L201.53041,81.42241 L201.65736,81.42241 M205.19852,81.42241 L205.19852,80.295456 L204.07158,80.295456 L204.07158,80.42241 M204.07158,83.96357 L205.19852,83.96357 L205.19852,82.836624 L205.07158,82.836624 M202.65736,75.21313 L201.53041,75.21313 L201.53041,76.34008 L201.65736,76.34008 M205.19852,76.34008 L205.19852,75.21313 L204.07158,75.21313 L204.07158,75.34008 M204.07158,78.88124 L205.19852,78.88124 L205.19852,77.754295 L205.07158,77.754295 M201.53041,77.754295 L201.53041,78.88124 L202.65736,78.88124 L202.65736,78.754295 M210.28085,76.34008 L210.28085,75.21313 L209.1539,75.21313 L209.1539,75.34008 M209.1539,78.88124 L210.28085,78.88124 L210.28085,77.754295 L210.1539,77.754295 M206.61273,77.754295 L206.61273,78.88124 L207.73969,78.88124 L207.73969,78.754295 M207.73969,75.21313 L206.61273,75.21313 L206.61273,76.34008 L206.73969,76.34008 M191.36575,75.21313 L191.36575,83.96357 L200.1162,83.96357 L200.1162,76.21313 L193.36575,76.21313 L193.36575,81.96357 L198.1162,81.96357 L198.1162,78.21313 L195.36575,78.21313 L195.36575,79.96357 L196.1162,79.96357 M230.61017,66.175415 L230.61017,65.04847 L229.48322,65.04847 L229.48322,65.175415 M229.48322,68.71658 L230.61017,68.71658 L230.61017,67.58963 L230.48322,67.58963 M226.94206,67.58963 L226.94206,68.71658 L228.06902,68.71658 L228.06902,68.58963 M228.06902,65.04847 L226.94206,65.04847 L226.94206,66.175415 L227.06902,66.175415 M229.48322,73.79891 L230.61017,73.79891 L230.61017,72.67196 L230.48322,72.67196 M226.94206,72.67196 L226.94206,73.79891 L228.06902,73.79891 L228.06902,73.67196 M228.06902,70.1308 L226.94206,70.1308 L226.94206,71.25775 L227.06902,71.25775 M230.61017,71.25775 L230.61017,70.1308 L229.48322,70.1308 L229.48322,70.25775 M221.85973,72.67196 L221.85973,73.79891 L222.98668,73.79891 L222.98668,73.67196 M222.98668,70.1308 L221.85973,70.1308 L221.85973,71.25775 L221.98668,71.25775 M225.52785,71.25775 L225.52785,70.1308 L224.4009,70.1308 L224.4009,70.25775 M224.4009,73.79891 L225.52785,73.79891 L225.52785,72.67196 L225.4009,72.67196 M222.98668,65.04847 L221.85973,65.04847 L221.85973,66.175415 L221.98668,66.175415 M225.52785,66.175415 L225.52785,65.04847 L224.4009,65.04847 L224.4009,65.175415 M224.4009,68.71658 L225.52785,68.71658 L225.52785,67.58963 L225.4009,67.58963 M221.85973,67.58963 L221.85973,68.71658 L222.98668,68.71658 L222.98668,68.58963 M229.48322,83.96357 L230.61017,83.96357 L230.61017,82.836624 L230.48322,82.836624 M226.94206,82.836624 L226.94206,83.96357 L228.06902,83.96357 L228.06902,83.836624 M228.06902,80.295456 L226.94206,80.295456 L226.94206,81.42241 L227.06902,81.42241 M230.61017,81.42241 L230.61017,80.295456 L229.48322,80.295456 L229.48322,80.42241 M221.85973,82.836624 L221.85973,83.96357 L222.98668,83.96357 L222.98668,83.836624 M222.98668,80.295456 L221.85973,80.295456 L221.85973,81.42241 L221.98668,81.42241 M225.52785,81.42241 L225.52785,80.295456 L224.4009,80.295456 L224.4009,80.42241 M224.4009,83.96357 L225.52785,83.96357 L225.52785,82.836624 L225.4009,82.836624 M222.98668,75.21313 L221.85973,75.21313 L221.85973,76.34008 L221.98668,76.34008 M225.52785,76.34008 L225.52785,75.21313 L224.4009,75.21313 L224.4009,75.34008 M221.85973,77.754295 L221.85973,78.88124 L222.98668,78.88124 L222.98668,78.754295 M230.61017,76.34008 L230.61017,75.21313 L229.48322,75.21313 L229.48322,75.34008 M229.48322,78.88124 L230.61017,78.88124 L230.61017,77.754295 L230.48322,77.754295 M226.94206,77.754295 L226.94206,78.88124 L228.06902,78.88124 L228.06902,78.754295 M228.06902,75.21313 L226.94206,75.21313 L226.94206,76.34008 L227.06902,76.34008 M211.69507,75.21313 L211.69507,83.96357 L220.44551,83.96357 L220.44551,76.21313 L213.69507,76.21313 L213.69507,81.96357 L218.44551,81.96357 L218.44551,78.21313 L215.69507,78.21313 L215.69507,79.96357 L216.44551,79.96357 M212.82202,65.04847 L211.69507,65.04847 L211.69507,66.175415 L211.82202,66.175415 M215.36319,66.175415 L215.36319,65.04847 L214.23624,65.04847 L214.23624,65.175415 M211.69507,67.58963 L211.69507,68.71658 L212.82202,68.71658 L212.82202,68.58963 M220.44551,66.175415 L220.44551,65.04847 L219.31856,65.04847 L219.31856,65.175415 M219.31856,68.71658 L220.44551,68.71658 L220.44551,67.58963 L220.31856,67.58963 M216.77739,67.58963 L216.77739,68.71658 L217.90434,68.71658 L217.90434,68.58963 M217.90434,65.04847 L216.77739,65.04847 L216.77739,66.175415 L216.90434,66.175415 M219.31856,73.79891 L220.44551,73.79891 L220.44551,72.67196 L220.31856,72.67196 M216.77739,72.67196 L216.77739,73.79891 L217.90434,73.79891 L217.90434,73.67196 M217.90434,70.1308 L216.77739,70.1308 L216.77739,71.25775 L216.90434,71.25775 M220.44551,71.25775 L220.44551,70.1308 L219.31856,70.1308 L219.31856,70.25775 M211.69507,72.67196 L211.69507,73.79891 L212.82202,73.79891 L212.82202,73.67196 M212.82202,70.1308 L211.69507,70.1308 L211.69507,71.25775 L211.82202,71.25775 M215.36319,71.25775 L215.36319,70.1308 L214.23624,70.1308 L214.23624,70.25775 M214.23624,73.79891 L215.36319,73.79891 L215.36319,72.67196 L215.23624,72.67196 M151.83406,65.04847 L150.7071,65.04847 L150.7071,66.175415 L150.83406,66.175415 M154.37523,66.175415 L154.37523,65.04847 L153.24828,65.04847 L153.24828,65.175415 M153.24828,68.71658 L154.37523,68.71658 L154.37523,67.58963 L154.24828,67.58963 M150.7071,67.58963 L150.7071,68.71658 L151.83406,68.71658 L151.83406,68.58963 M159.45755,66.175415 L159.45755,65.04847 L158.3306,65.04847 L158.3306,65.175415 M158.3306,68.71658 L159.45755,68.71658 L159.45755,67.58963 L159.3306,67.58963 M155.78944,67.58963 L155.78944,68.71658 L156.91638,68.71658 L156.91638,68.58963 M156.91638,65.04847 L155.78944,65.04847 L155.78944,66.175415 L155.91638,66.175415 M158.3306,73.79891 L159.45755,73.79891 L159.45755,72.67196 L159.3306,72.67196 M155.78944,72.67196 L155.78944,73.79891 L156.91638,73.79891 L156.91638,73.67196 M156.91638,70.1308 L155.78944,70.1308 L155.78944,71.25775 L155.91638,71.25775 M159.45755,71.25775 L159.45755,70.1308 L158.3306,70.1308 L158.3306,70.25775 M150.7071,72.67196 L150.7071,73.79891 L151.83406,73.79891 L151.83406,73.67196 M154.37523,71.25775 L154.37523,70.1308 L153.24828,70.1308 L153.24828,70.25775 M153.24828,73.79891 L154.37523,73.79891 L154.37523,72.67196 L154.24828,72.67196 M169.62221,73.79891 L169.62221,65.04847 L160.87177,65.04847 L160.87177,72.79891 L167.62221,72.79891 L167.62221,67.04847 L162.87177,67.04847 L162.87177,70.79891 L165.62221,70.79891 L165.62221,69.04847 L164.87177,69.04847 M160.87177,83.96357 L169.62221,83.96357 L169.62221,75.21313 L161.87177,75.21313 L161.87177,81.96357 L167.62221,81.96357 L167.62221,77.21313 L163.87177,77.21313 L163.87177,79.96357 L165.62221,79.96357 L165.62221,79.21313 M150.7071,82.836624 L150.7071,83.96357 L151.83406,83.96357 L151.83406,83.836624 M151.83406,80.295456 L150.7071,80.295456 L150.7071,81.42241 L150.83406,81.42241 M154.37523,81.42241 L154.37523,80.295456 L153.24828,80.295456 L153.24828,80.42241 M153.24828,83.96357 L154.37523,83.96357 L154.37523,82.836624 L154.24828,82.836624 M151.83406,75.21313 L150.7071,75.21313 L150.7071,76.34008 L150.83406,76.34008 M154.37523,76.34008 L154.37523,75.21313 L153.24828,75.21313 L153.24828,75.34008 M153.24828,78.88124 L154.37523,78.88124 L154.37523,77.754295 L154.24828,77.754295 M150.7071,77.754295 L150.7071,78.88124 L151.83406,78.88124 L151.83406,78.754295 M159.45755,76.34008 L159.45755,75.21313 L158.3306,75.21313 L158.3306,75.34008 M158.3306,78.88124 L159.45755,78.88124 L159.45755,77.754295 L159.3306,77.754295 M155.78944,77.754295 L155.78944,78.88124 L156.91638,78.88124 L156.91638,78.754295 M156.91638,75.21313 L155.78944,75.21313 L155.78944,76.34008 L155.91638,76.34008 M158.3306,83.96357 L159.45755,83.96357 L159.45755,82.836624 L159.3306,82.836624 M155.78944,82.836624 L155.78944,83.96357 L156.91638,83.96357 L156.91638,83.836624 M156.91638,80.295456 L155.78944,80.295456 L155.78944,81.42241 L155.91638,81.42241 M159.45755,81.42241 L159.45755,80.295456 L158.3306,80.295456 L158.3306,80.42241 M181.20108,104.29289 L189.95154,104.29289 L189.95154,95.54245 L182.20108,95.54245 L182.20108,102.29289 L187.95154,102.29289 L187.95154,97.54245 L184.20108,97.54245 L184.20108,100.29289 L185.95154,100.29289 L185.95154,99.54245 M171.03642,103.16594 L171.03642,104.29289 L172.16338,104.29289 L172.16338,104.16594 M174.70454,101.75173 L174.70454,100.62478 L173.57759,100.62478 L173.57759,100.75173 M173.57759,104.29289 L174.70454,104.29289 L174.70454,103.16594 L174.57759,103.16594 M172.16338,95.54245 L171.03642,95.54245 L171.03642,96.669395 L171.16338,96.669395 M174.70454,96.669395 L174.70454,95.54245 L173.57759,95.54245 L173.57759,95.669395 M173.57759,99.21056 L174.70454,99.21056 L174.70454,98.08361 L174.57759,98.08361 M171.03642,98.08361 L171.03642,99.21056 L172.16338,99.21056 L172.16338,99.08361 M179.78688,96.669395 L179.78688,95.54245 L178.65993,95.54245 L178.65993,95.669395 M178.65993,99.21056 L179.78688,99.21056 L179.78688,98.08361 L179.65993,98.08361 M176.11876,98.08361 L176.11876,99.21056 L177.24571,99.21056 L177.24571,99.08361 M177.24571,95.54245 L176.11876,95.54245 L176.11876,96.669395 L176.24571,96.669395 M178.65993,104.29289 L179.78688,104.29289 L179.78688,103.16594 L179.65993,103.16594 M176.11876,103.16594 L176.11876,104.29289 L177.24571,104.29289 L177.24571,104.16594 M177.24571,100.62478 L176.11876,100.62478 L176.11876,101.75173 L176.24571,101.75173 M179.78688,101.75173 L179.78688,100.62478 L178.65993,100.62478 L178.65993,100.75173 M172.16338,85.377785 L171.03642,85.377785 L171.03642,86.50474 L171.16338,86.50474 M174.70454,86.50474 L174.70454,85.377785 L173.57759,85.377785 L173.57759,85.50474 M173.57759,89.045906 L174.70454,89.045906 L174.70454,87.91895 L174.57759,87.91895 M171.03642,87.91895 L171.03642,89.045906 L172.16338,89.045906 L172.16338,88.91895 M179.78688,86.50474 L179.78688,85.377785 L178.65993,85.377785 L178.65993,85.50474 M178.65993,89.045906 L179.78688,89.045906 L179.78688,87.91895 L179.65993,87.91895 M176.11876,87.91895 L176.11876,89.045906 L177.24571,89.045906 L177.24571,88.91895 M177.24571,85.377785 L176.11876,85.377785 L176.11876,86.50474 L176.24571,86.50474 M178.65993,94.128235 L179.78688,94.128235 L179.78688,93.00128 L179.65993,93.00128 M176.11876,93.00128 L176.11876,94.128235 L177.24571,94.128235 L177.24571,94.00128 M177.24571,90.46011 L176.11876,90.46011 L176.11876,91.58707 L176.24571,91.58707 M179.78688,91.58707 L179.78688,90.46011 L178.65993,90.46011 L178.65993,90.58707 M171.03642,93.00128 L171.03642,94.128235 L172.16338,94.128235 L172.16338,94.00128 M172.16338,90.46011 L171.03642,90.46011 L171.03642,91.58707 L171.16338,91.58707 M174.70454,91.58707 L174.70454,90.46011 L173.57759,90.46011 L173.57759,90.58707 M173.57759,94.128235 L174.70454,94.128235 L174.70454,93.00128 L174.57759,93.00128 M189.95154,94.128235 L189.95154,85.377785 L181.20108,85.377785 L181.20108,93.128235 L187.95154,93.128235 L187.95154,87.377785 L183.20108,87.377785 L183.20108,91.128235 L185.95154,91.128235 L185.95154,89.377785 L185.20108,89.377785 M151.83406,24.389828 L150.7071,24.389828 L150.7071,25.516779 L150.83406,25.516779 M154.37523,25.516779 L154.37523,24.389828 L153.24828,24.389828 L153.24828,24.516779 M153.24828,28.057943 L154.37523,28.057943 L154.37523,26.930992 L154.24828,26.930992 M150.7071,26.930992 L150.7071,28.057943 L151.83406,28.057943 L151.83406,27.930992 M159.45755,25.516779 L159.45755,24.389828 L158.3306,24.389828 L158.3306,24.516779 M158.3306,28.057943 L159.45755,28.057943 L159.45755,26.930992 L159.3306,26.930992 M155.78944,26.930992 L155.78944,28.057943 L156.91638,28.057943 L156.91638,27.930992 M156.91638,24.389828 L155.78944,24.389828 L155.78944,25.516779 L155.91638,25.516779 M158.3306,33.140274 L159.45755,33.140274 L159.45755,32.01332 L159.3306,32.01332 M155.78944,32.01332 L155.78944,33.140274 L156.91638,33.140274 L156.91638,33.01332 M156.91638,29.472157 L155.78944,29.472157 L155.78944,30.599108 L155.91638,30.599108 M159.45755,30.599108 L159.45755,29.472157 L158.3306,29.472157 L158.3306,29.599108 M168.49525,28.057943 L169.62221,28.057943 L169.62221,26.930992 L169.49525,26.930992 M165.9541,26.930992 L165.9541,28.057943 L167.08105,28.057943 L167.08105,27.930992 M167.08105,24.389828 L165.9541,24.389828 L165.9541,25.516779 L166.08105,25.516779 M168.49525,33.140274 L169.62221,33.140274 L169.62221,32.01332 L169.49525,32.01332 M165.9541,32.01332 L165.9541,33.140274 L167.08105,33.140274 L167.08105,33.01332 M167.08105,29.472157 L165.9541,29.472157 L165.9541,30.599108 L166.08105,30.599108 M169.62221,30.599108 L169.62221,29.472157 L168.49525,29.472157 L168.49525,29.599108 M160.87177,32.01332 L160.87177,33.140274 L161.99872,33.140274 L161.99872,33.01332 M161.99872,29.472157 L160.87177,29.472157 L160.87177,30.599108 L160.99872,30.599108 M164.53989,30.599108 L164.53989,29.472157 L163.41293,29.472157 L163.41293,29.599108 M163.41293,33.140274 L164.53989,33.140274 L164.53989,32.01332 L164.41293,32.01332 M164.53989,25.516779 L164.53989,24.389828 L163.41293,24.389828 L163.41293,24.516779 M163.41293,28.057943 L164.53989,28.057943 L164.53989,26.930992 L164.41293,26.930992 M160.87177,26.930992 L160.87177,28.057943 L161.99872,28.057943 L161.99872,27.930992 M168.49525,43.30493 L169.62221,43.30493 L169.62221,42.177982 L169.49525,42.177982 M165.9541,42.177982 L165.9541,43.30493 L167.08105,43.30493 L167.08105,43.177982 M167.08105,39.636818 L165.9541,39.636818 L165.9541,40.763767 L166.08105,40.763767 M169.62221,40.763767 L169.62221,39.636818 L168.49525,39.636818 L168.49525,39.763767 M160.87177,42.177982 L160.87177,43.30493 L161.99872,43.30493 L161.99872,43.177982 M161.99872,39.636818 L160.87177,39.636818 L160.87177,40.763767 L160.99872,40.763767 M164.53989,40.763767 L164.53989,39.636818 L163.41293,39.636818 L163.41293,39.763767 M161.99872,34.554485 L160.87177,34.554485 L160.87177,35.68144 L160.99872,35.68144 M164.53989,35.68144 L164.53989,34.554485 L163.41293,34.554485 L163.41293,34.68144 M163.41293,38.222603 L164.53989,38.222603 L164.53989,37.095654 L164.41293,37.095654 M160.87177,37.095654 L160.87177,38.222603 L161.99872,38.222603 L161.99872,38.095654 M169.62221,35.68144 L169.62221,34.554485 L168.49525,34.554485 L168.49525,34.68144 M168.49525,38.222603 L169.62221,38.222603 L169.62221,37.095654 L169.49525,37.095654 M165.9541,37.095654 L165.9541,38.222603 L167.08105,38.222603 L167.08105,38.095654 M167.08105,34.554485 L165.9541,34.554485 L165.9541,35.68144 L166.08105,35.68144 M150.7071,34.554485 L150.7071,43.30493 L159.45755,43.30493 L159.45755,35.554485 L152.7071,35.554485 L152.7071,41.30493 L157.45755,41.30493 L157.45755,37.554485 L154.7071,37.554485 L154.7071,39.30493 L155.45755,39.30493 M188.82458,63.634254 L189.95154,63.634254 L189.95154,62.5073 L189.82458,62.5073 M186.28342,62.5073 L186.28342,63.634254 L187.41037,63.634254 L187.41037,63.5073 M187.41037,59.966137 L186.28342,59.966137 L186.28342,61.09309 L186.41037,61.09309 M181.20108,62.5073 L181.20108,63.634254 L182.32803,63.634254 L182.32803,63.5073 M182.32803,59.966137 L181.20108,59.966137 L181.20108,61.09309 L181.32803,61.09309 M184.8692,61.09309 L184.8692,59.966137 L183.74225,59.966137 L183.74225,60.09309 M183.74225,63.634254 L184.8692,63.634254 L184.8692,62.5073 L184.74225,62.5073 M182.32803,54.88381 L181.20108,54.88381 L181.20108,56.010757 L181.32803,56.010757 M184.8692,56.010757 L184.8692,54.88381 L183.74225,54.88381 L183.74225,55.010757 M183.74225,58.55192 L184.8692,58.55192 L184.8692,57.424973 L184.74225,57.424973 M181.20108,57.424973 L181.20108,58.55192 L182.32803,58.55192 L182.32803,58.424973 M189.95154,56.010757 L189.95154,54.88381 L188.82458,54.88381 L188.82458,55.010757 M188.82458,58.55192 L189.95154,58.55192 L189.95154,57.424973 L189.82458,57.424973 M186.28342,57.424973 L186.28342,58.55192 L187.41037,58.55192 L187.41037,58.424973 M187.41037,54.88381 L186.28342,54.88381 L186.28342,56.010757 L186.41037,56.010757 M171.03642,54.88381 L171.03642,63.634254 L179.78688,63.634254 L179.78688,55.88381 L173.03642,55.88381 L173.03642,61.634254 L177.78688,61.634254 L177.78688,57.88381 L175.03642,57.88381 L175.03642,59.634254 L175.78688,59.634254 M172.16338,44.719147 L171.03642,44.719147 L171.03642,45.8461 L171.16338,45.8461 M174.70454,45.8461 L174.70454,44.719147 L173.57759,44.719147 L173.57759,44.8461 M173.57759,48.387264 L174.70454,48.387264 L174.70454,47.26031 L174.57759,47.26031 M171.03642,47.26031 L171.03642,48.387264 L172.16338,48.387264 L172.16338,48.26031 M179.78688,45.8461 L179.78688,44.719147 L178.65993,44.719147 L178.65993,44.8461 M178.65993,48.387264 L179.78688,48.387264 L179.78688,47.26031 L179.65993,47.26031 M176.11876,47.26031 L176.11876,48.387264 L177.24571,48.387264 L177.24571,48.26031 M177.24571,44.719147 L176.11876,44.719147 L176.11876,45.8461 L176.24571,45.8461 M178.65993,53.469593 L179.78688,53.469593 L179.78688,52.342644 L179.65993,52.342644 M176.11876,52.342644 L176.11876,53.469593 L177.24571,53.469593 L177.24571,53.342644 M177.24571,49.801476 L176.11876,49.801476 L176.11876,50.92843 L176.24571,50.92843 M179.78688,50.92843 L179.78688,49.801476 L178.65993,49.801476 L178.65993,49.92843 M171.03642,52.342644 L171.03642,53.469593 L172.16338,53.469593 L172.16338,53.342644 M172.16338,49.801476 L171.03642,49.801476 L171.03642,50.92843 L171.16338,50.92843 M174.70454,50.92843 L174.70454,49.801476 L173.57759,49.801476 L173.57759,49.92843 M189.95154,45.8461 L189.95154,44.719147 L188.82458,44.719147 L188.82458,44.8461 M188.82458,48.387264 L189.95154,48.387264 L189.95154,47.26031 L189.82458,47.26031 M187.41037,44.719147 L186.28342,44.719147 L186.28342,45.8461 L186.41037,45.8461 M188.82458,53.469593 L189.95154,53.469593 L189.95154,52.342644 L189.82458,52.342644 M186.28342,52.342644 L186.28342,53.469593 L187.41037,53.469593 L187.41037,53.342644 M189.95154,50.92843 L189.95154,49.801476 L188.82458,49.801476 L188.82458,49.92843 M181.20108,52.342644 L181.20108,53.469593 L182.32803,53.469593 L182.32803,53.342644 M182.32803,49.801476 L181.20108,49.801476 L181.20108,50.92843 L181.32803,50.92843 M184.8692,50.92843 L184.8692,49.801476 L183.74225,49.801476 L183.74225,49.92843 M183.74225,53.469593 L184.8692,53.469593 L184.8692,52.342644 L184.74225,52.342644 M182.32803,44.719147 L181.20108,44.719147 L181.20108,45.8461 L181.32803,45.8461 M184.8692,45.8461 L184.8692,44.719147 L183.74225,44.719147 L183.74225,44.8461 M183.74225,48.387264 L184.8692,48.387264 L184.8692,47.26031 L184.74225,47.26031 M181.20108,47.26031 L181.20108,48.387264 L182.32803,48.387264 L182.32803,48.26031 M150.7071,62.5073 L150.7071,63.634254 L151.83406,63.634254 L151.83406,63.5073 M154.37523,61.09309 L154.37523,59.966137 L153.24828,59.966137 L153.24828,60.09309 M153.24828,63.634254 L154.37523,63.634254 L154.37523,62.5073 L154.24828,62.5073 M151.83406,54.88381 L150.7071,54.88381 L150.7071,56.010757 L150.83406,56.010757 M154.37523,56.010757 L154.37523,54.88381 L153.24828,54.88381 L153.24828,55.010757 M153.24828,58.55192 L154.37523,58.55192 L154.37523,57.424973 L154.24828,57.424973 M150.7071,57.424973 L150.7071,58.55192 L151.83406,58.55192 L151.83406,58.424973 M159.45755,56.010757 L159.45755,54.88381 L158.3306,54.88381 L158.3306,55.010757 M158.3306,58.55192 L159.45755,58.55192 L159.45755,57.424973 L159.3306,57.424973 M155.78944,57.424973 L155.78944,58.55192 L156.91638,58.55192 L156.91638,58.424973 M156.91638,54.88381 L155.78944,54.88381 L155.78944,56.010757 L155.91638,56.010757 M158.3306,63.634254 L159.45755,63.634254 L159.45755,62.5073 L159.3306,62.5073 M155.78944,62.5073 L155.78944,63.634254 L156.91638,63.634254 L156.91638,63.5073 M156.91638,59.966137 L155.78944,59.966137 L155.78944,61.09309 L155.91638,61.09309 M159.45755,61.09309 L159.45755,59.966137 L158.3306,59.966137 L158.3306,60.09309 M159.45755,44.719147 L150.7071,44.719147 L150.7071,53.469593 L158.45755,53.469593 L158.45755,46.719147 L152.7071,46.719147 L152.7071,51.469593 L156.45755,51.469593 L156.45755,48.719147 L154.7071,48.719147 L154.7071,49.469593 M169.62221,45.8461 L169.62221,44.719147 L168.49525,44.719147 L168.49525,44.8461 M168.49525,48.387264 L169.62221,48.387264 L169.62221,47.26031 L169.49525,47.26031 M165.9541,47.26031 L165.9541,48.387264 L167.08105,48.387264 L167.08105,48.26031 M167.08105,44.719147 L165.9541,44.719147 L165.9541,45.8461 L166.08105,45.8461 M168.49525,53.469593 L169.62221,53.469593 L169.62221,52.342644 L169.49525,52.342644 M165.9541,52.342644 L165.9541,53.469593 L167.08105,53.469593 L167.08105,53.342644 M167.08105,49.801476 L165.9541,49.801476 L165.9541,50.92843 L166.08105,50.92843 M169.62221,50.92843 L169.62221,49.801476 L168.49525,49.801476 L168.49525,49.92843 M160.87177,52.342644 L160.87177,53.469593 L161.99872,53.469593 L161.99872,53.342644 M161.99872,49.801476 L160.87177,49.801476 L160.87177,50.92843 L160.99872,50.92843 M164.53989,50.92843 L164.53989,49.801476 L163.41293,49.801476 L163.41293,49.92843 M163.41293,53.469593 L164.53989,53.469593 L164.53989,52.342644 L164.41293,52.342644 M161.99872,44.719147 L160.87177,44.719147 L160.87177,45.8461 L160.99872,45.8461 M164.53989,45.8461 L164.53989,44.719147 L163.41293,44.719147 L163.41293,44.8461 M163.41293,48.387264 L164.53989,48.387264 L164.53989,47.26031 L164.41293,47.26031 M160.87177,47.26031 L160.87177,48.387264 L161.99872,48.387264 L161.99872,48.26031 M160.87177,63.634254 L169.62221,63.634254 L169.62221,54.88381 L161.87177,54.88381 L161.87177,61.634254 L167.62221,61.634254 L167.62221,56.88381 L163.87177,56.88381 L163.87177,59.634254 L165.62221,59.634254 L165.62221,58.88381 M234.85281,189.85281 L65.14719,189.85281 L65.14719,20.147186 L234.85281,20.147186 L234.85281,189.85281" fill="none" stroke="turquoise" stroke-width="0.4"/>
</g>
<g inkscape:groupmode="layer" inkscape:label="skyblue">
<path d="M150.7071,185.61017 L230.61017,185.61017 L230.61017,105.70711 L151.7071,105.70711 L151.7071,183.61017 L228.61017,183.61017 L228.61017,107.70711 L153.7071,107.70711 L153.7071,181.61017 L226.61017,181.61017 L226.61017,109.70711 L155.7071,109.70711 L155.7071,179.61017 L224.61017,179.61017 L224.61017,111.70711 L157.7071,111.70711 L157.7071,177.61017 L222.61017,177.61017 L222.61017,113.70711 L159.7071,113.70711 L159.7071,175.61017 L220.61017,175.61017 L220.61017,115.70711 L161.7071,115.70711 L161.7071,173.61017 L218.61017,173.61017 L218.61017,117.70711 L163.7071,117.70711 L163.7071,171.61017 L216.61017,171.61017 L216.61017,119.70711 L165.7071,119.70711 L165.7071,169.61017 L214.61017,169.61017 L214.61017,121.70711 L167.7071,121.70711 L167.7071,167.61017 L212.61017,167.61017 L212.61017,123.70711 L169.7071,123.70711 L169.7071,165.61017 L210.61017,165.61017 L210.61017,125.70711 L171.7071,125.70711 L171.7071,163.61017 L208.61017,163.61017 L208.61017,127.70711 L173.7071,127.70711 L173.7071,161.61017 L206.61017,161.61017 L206.61017,129.7071 L175.7071,129.7071 L175.7071,159.61017 L204.61017,159.61017 L204.61017,131.7071 L177.7071,131.7071 L177.7071,157.61017 L202.61017,157.61017 L202.61017,133.7071 L179.7071,133.7071 L179.7071,155.61017 L200.61017,155.61017 L200.61017,135.7071 L181.7071,135.7071 L181.7071,153.61017 L198.61017,153.61017 L198.61017,137.7071 L183.7071,137.7071 L183.7071,151.61017 L196.61017,151.61017 L196.61017,139.7071 L185.7071,139.7071 L185.7071,149.61017 L194.61017,149.61017 L194.61017,141.7071 L187.7071,141.7071 L187.7071,147.61017 L192.61017,147.61017 L192.61017,143.7071 L189.7071,143.7071 L189.7071,145.61017 L190.61017,145.61017 M89.71915,185.61017 L108.634254,185.61017 L108.634254,166.69507 L90.71915,166.69507 L90.71915,183.61017 L106.634254,183.61017 L106.634254,168.69507 L92.71915,168.69507 L92.71915,181.61017 L104.634254,181.61017 L104.634254,170.69507 L94.71915,170.69507 L94.71915,179.61017 L102.634254,179.61017 L102.634254,172.69507 L96.71915,172.69507 L96.71915,177.61017 L100.634254,177.61017 L100.634254,174.69507 L98.71915,174.69507 L98.71915,175.61017 M69.389824,110.78944 L69.389824,114.45755 L73.057945,114.45755 L73.057945,111.78944 L71.389824,111.78944 L71.389824,112.45755 M108.634254,124.622215 L108.634254,105.70711 L89.71915,105.70711 L89.71915,123.622215 L106.634254,123.622215 L106.634254,107.70711 L91.71915,107.70711 L91.71915,121.622215 L104.634254,121.622215 L104.634254,109.70711 L93.71915,109.70711 L93.71915,119.622215 L102.634254,119.622215 L102.634254,111.70711 L95.71915,111.70711 L95.71915,117.622215 L100.634254,117.622215 L100.634254,113.70711 L97.71915,113.70711 L97.71915,115.622215 L98.634254,115.622215 M140.54245,181.94206 L140.54245,185.61017 L144.21056,185.61017 L144.21056,182.94206 L142.54245,182.94206 L142.54245,183.61017 M130.37779,181.94206 L130.37779,185.61017 L134.0459,185.61017 L134.0459,182.94206 L132.37779,182.94206 L132.37779,183.61017 M135.46011,185.61017 L139.12823,185.61017 L139.12823,181.94206 L136.46011,181.94206 L136.46011,183.61017 L137.12823,183.61017 M110.04847,181.94206 L110.04847,185.61017 L113.71658,185.61017 L113.71658,182.94206 L112.04847,182.94206 L112.04847,183.61017 M115.1308,185.61017 L118.79891,185.61017 L118.79891,181.94206 L116.1308,181.94206 L116.1308,183.61017 L116.79891,183.61017 M125.295456,185.61017 L128.96358,185.61017 L128.96358,181.94206 L126.295456,181.94206 L126.295456,183.61017 L126.96357,183.61017 M120.21313,181.94206 L120.21313,185.61017 L123.88124,185.61017 L123.88124,182.94206 L122.21313,182.94206 L122.21313,183.61017 M128.96358,146.36575 L110.04847,146.36575 L110.04847,165.28085 L127.96357,165.28085 L127.96357,148.36575 L112.04847,148.36575 L112.04847,163.28085 L125.96357,163.28085 L125.96357,150.36575 L114.04847,150.36575 L114.04847,161.28085 L123.96357,161.28085 L123.96357,152.36575 L116.04847,152.36575 L116.04847,159.28085 L121.96357,159.28085 L121.96357,154.36575 L118.04847,154.36575 L118.04847,157.28085 L119.96357,157.28085 L119.96357,156.36575 M149.2929,165.28085 L149.2929,146.36575 L130.37779,146.36575 L130.37779,164.28085 L147.2929,164.28085 L147.2929,148.36575 L132.37779,148.36575 L132.37779,162.28085 L145.2929,162.28085 L145.2929,150.36575 L134.37779,150.36575 L134.37779,160.28085 L143.2929,160.28085 L143.2929,152.36575 L136.37779,152.36575 L136.37779,158.28085 L141.2929,158.28085 L141.2929,154.36575 L138.37779,154.36575 L138.37779,156.28085 L139.2929,156.28085 M149.2929,28.057943 L149.2929,24.389828 L145.62477,24.389828 L145.62477,27.057943 L147.2929,27.057943 L147.2929,26.389828 M145.62477,33.140274 L149.2929,33.140274 L149.2929,29.472157 L146.62477,29.472157 L146.62477,31.140274 L147.2929,31.140274 M130.37779,63.634254 L149.2929,63.634254 L149.2929,44.719147 L131.37779,44.719147 L131.37779,61.634254 L147.2929,61.634254 L147.2929,46.719147 L133.37779,46.719147 L133.37779,59.634254 L145.2929,59.634254 L145.2929,48.719147 L135.37779,48.719147 L135.37779,57.634254 L143.2929,57.634254 L143.2929,50.719147 L137.37779,50.719147 L137.37779,55.634254 L141.2929,55.634254 L141.2929,52.719147 L139.37779,52.719147 L139.37779,53.634254 M110.04847,44.719147 L110.04847,63.634254 L128.96358,63.634254 L128.96358,45.719147 L112.04847,45.719147 L112.04847,61.634254 L126.96357,61.634254 L126.96357,47.719147 L114.04847,47.719147 L114.04847,59.634254 L124.96357,59.634254 L124.96357,49.719147 L116.04847,49.719147 L116.04847,57.634254 L122.96357,57.634254 L122.96357,51.719147 L118.04847,51.719147 L118.04847,55.634254 L120.96357,55.634254 L120.96357,53.719147 L120.04847,53.719147 M128.96358,24.389828 L110.04847,24.389828 L110.04847,43.30493 L127.96357,43.30493 L127.96357,26.389828 L112.04847,26.389828 L112.04847,41.30493 L125.96357,41.30493 L125.96357,28.389828 L114.04847,28.389828 L114.04847,39.30493 L123.96357,39.30493 L123.96357,30.389828 L116.04847,30.389828 L116.04847,37.30493 L121.96357,37.30493 L121.96357,32.389828 L118.04847,32.389828 L118.04847,35.30493 L119.96357,35.30493 L119.96357,34.389828 M140.54245,100.62478 L140.54245,104.29289 L144.21056,104.29289 L144.21056,101.62478 L142.54245,101.62478 L142.54245,102.29289 M135.46011,104.29289 L139.12823,104.29289 L139.12823,100.62478 L136.46011,100.62478 L136.46011,102.29289 L137.12823,102.29289 M110.04847,85.377785 L110.04847,104.29289 L128.96358,104.29289 L128.96358,86.377785 L112.04847,86.377785 L112.04847,102.29289 L126.96357,102.29289 L126.96357,88.377785 L114.04847,88.377785 L114.04847,100.29289 L124.96357,100.29289 L124.96357,90.377785 L116.04847,90.377785 L116.04847,98.29289 L122.96357,98.29289 L122.96357,92.377785 L118.04847,92.377785 L118.04847,96.29289 L120.96357,96.29289 L120.96357,94.377785 L120.04847,94.377785 M128.96358,65.04847 L110.04847,65.04847 L110.04847,83.96357 L127.96357,83.96357 L127.96357,67.04847 L112.04847,67.04847 L112.04847,81.96357 L125.96357,81.96357 L125.96357,69.04847 L114.04847,69.04847 L114.04847,79.96357 L123.96357,79.96357 L123.96357,71.04847 L116.04847,71.04847 L116.04847,77.96357 L121.96357,77.96357 L121.96357,73.04847 L118.04847,73.04847 L118.04847,75.96357 L119.96357,75.96357 L119.96357,75.04847 M211.69507,63.634254 L230.61017,63.634254 L230.61017,44.719147 L212.69507,44.719147 L212.69507,61.634254 L228.61017,61.634254 L228.61017,46.719147 L214.69507,46.719147 L214.69507,59.634254 L226.61017,59.634254 L226.61017,48.719147 L216.69507,48.719147 L216.69507,57.634254 L224.61017,57.634254 L224.61017,50.719147 L218.69507,50.719147 L218.69507,55.634254 L222.61017,55.634254 L222.61017,52.719147 L220.69507,52.719147 L220.69507,53.634254 M195.03386,44.719147 L191.36575,44.719147 L191.36575,48.387264 L194.03386,48.387264 L194.03386,46.719147 L193.36575,46.719147 M200.1162,48.387264 L200.1162,44.719147 L196.44807,44.719147 L196.44807,47.387264 L198.1162,47.387264 L198.1162,46.719147 M206.61273,53.469593 L210.28085,53.469593 L210.28085,49.801476 L207.61273,49.801476 L207.61273,51.469593 L208.28085,51.469593 M226.94206,94.128235 L230.61017,94.128235 L230.61017,90.46011 L227.94206,90.46011 L227.94206,92.128235 L228.61017,92.128235 M191.36575,85.377785 L191.36575,104.29289 L210.28085,104.29289 L210.28085,86.377785 L193.36575,86.377785 L193.36575,102.29289 L208.28085,102.29289 L208.28085,88.377785 L195.36575,88.377785 L195.36575,100.29289 L206.28085,100.29289 L206.28085,90.377785 L197.36575,90.377785 L197.36575,98.29289 L204.28085,98.29289 L204.28085,92.377785 L199.36575,92.377785 L199.36575,96.29289 L202.28085,96.29289 L202.28085,94.377785 L201.36575,94.377785 M150.7071,85.377785 L150.7071,104.29289 L169.62221,104.29289 L169.62221,86.377785 L152.7071,86.377785 L152.7071,102.29289 L167.62221,102.29289 L167.62221,88.377785 L154.7071,88.377785 L154.7071,100.29289 L165.62221,100.29289 L165.62221,90.377785 L156.7071,90.377785 L156.7071,98.29289 L163.62221,98.29289 L163.62221,92.377785 L158.7071,92.377785 L158.7071,96.29289 L161.62221,96.29289 L161.62221,94.377785 L160.7071,94.377785 M189.95154,83.96357 L189.95154,65.04847 L171.03642,65.04847 L171.03642,82.96357 L187.95154,82.96357 L187.95154,67.04847 L173.03642,67.04847 L173.03642,80.96357 L185.95154,80.96357 L185.95154,69.04847 L175.03642,69.04847 L175.03642,78.96357 L183.95154,78.96357 L183.95154,71.04847 L177.03642,71.04847 L177.03642,76.96357 L181.95154,76.96357 L181.95154,73.04847 L179.03642,73.04847 L179.03642,74.96357 L179.95154,74.96357 M150.7071,29.472157 L150.7071,33.140274 L154.37523,33.140274 L154.37523,30.472157 L152.7071,30.472157 L152.7071,31.140274 M189.95154,43.30493 L189.95154,24.389828 L171.03642,24.389828 L171.03642,42.30493 L187.95154,42.30493 L187.95154,26.389828 L173.03642,26.389828 L173.03642,40.30493 L185.95154,40.30493 L185.95154,28.389828 L175.03642,28.389828 L175.03642,38.30493 L183.95154,38.30493 L183.95154,30.389828 L177.03642,30.389828 L177.03642,36.30493 L181.95154,36.30493 L181.95154,32.389828 L179.03642,32.389828 L179.03642,34.30493 L179.95154,34.30493" fill="none" stroke="skyblue" stroke-width="0.4"/>
</g>
<g inkscape:groupmode="layer" inkscape:label="signature">
<path d="m 15.815664,12.893319 c -1.445284,-3.0999497 -5.555449,-0.3575 -5.08537,2.32203 1.697826,2.92736 4.504013,-3.54417 4.40859,-2.58178 -1.548999,2.22986 0.741131,6.08701 3.012419,3.25791 2.532153,-2.82358 0.259001,-7.8326797 -3.488671,-7.9011197 -3.217272,0.056 -5.8863857,2.4603197 -7.9308737,4.7238797 -2.354585,2.46752 0.0048,5.887 2.757763,6.62143 3.2195457,1.10867 6.8759417,1.30834 9.9459317,-0.36585 2.270396,-1.12373 5.025949,-2.62031 5.680576,-5.20027 -2.108811,-3.66096 -6.038415,1.28356 -3.842036,3.67822 1.07278,0.89979 4.586982,-2.27037 3.201668,-2.73503 0.03094,3.24357 1.226854,6.37852 1.337023,9.60311 -0.672198,3.54892 -7.469251,0.32096 -4.637082,-2.5164 2.158436,-2.4193 5.610472,-2.84094 8.202925,-4.57369 0.993877,-1.40371 0.353413,-5.25046 3.182464,-3.48957 2.142923,1.43516 -2.250898,5.7532 1.723416,5.02339 1.661189,-0.71663 6.494946,-1.40457 4.601401,-3.95236 -4.205319,-0.68052 -1.190571,5.86505 1.665411,3.46881 1.929752,-0.9247 2.778055,-4.05119 1.423645,-5.35034 0.479155,1.8589 3.849911,7.52574 4.880369,3.32696 0.21201,-1.28088 0.40468,-3.80204 1.01246,-1.23041 0.5858,2.6865 3.83412,4.91909 4.56937,1.07383 0.65272,-1.00894 -0.2696,-4.02739 0.99929,-1.35746 1.10974,2.31613 6.32001,1.46113 6.147,-1.13059 -1.98394,-2.13868 -5.3717,1.45205 -3.78252,3.73454 2.57741,0.96208 6.69797,-0.21041 7.06275,-3.33983 0.41287,-2.63769 0.26643,-5.3430297 -0.11178,-7.9756197 0.67418,3.94149 1.24889,7.9380497 2.39963,11.7713397 2.10586,1.67977 5.7434,1.65022 7.74596,-0.23639 3.03149,-1.85431 -0.26637,-4.76925 -2.71777,-4.54025 -2.11577,0.0793 -5.36257,2.40772 -5.16868,3.85604 2.08262,-2.38818 5.55759,-1.22628 8.30726,-1.6832 3.182,-0.26596 6.46546,-0.57372 9.54494,-1.18158 0.24171,0.4199 -0.27752,0.54338 -0.43067,0.17453" fill="none" stroke="skyblue" stroke-width="1" transform="translate(260,190) scale(0.3)"/>
</g>
</svg>