<svg height="210mm" style="background:black" viewBox="0 0 297 210" width="297mm" xmlns="http://www.w3.org/2000/svg" xmlns:inkscape="http://www.inkscape.org/namespaces/inkscape">
<g inkscape:groupmode="layer" inkscape:label="lightskyblue">
<path d="M183,160.1 Q183,160.1,182.5,159.15 Q182,158.2,181.5,158.2 Q181,158.2,181,158.675 Q181,159.15,180,159.625 Q179,160.1,179,159.625 Q179,159.15,177.5,158.675 Q176,158.2,176,160.1 Q176,162,178,163.425 Q180,164.85,180.5,165.8 Q181,166.75,182.5,164.85 Q184,162.95,185.5,162.95 Q187,162.95,187.5,162 Q188,161.05,187.5,159.625 Q187,158.2,187.5,157.725 Q188,157.25,188.5,158.675 Q189,160.1,189.5,161.05 Q190,162,191,162 Q192,162,193,161.525 Q194,161.05,193.5,161.525 Q193,162,192.5,162.95 Q192,163.9,192,164.85 Q192,165.8,193,166.75 Q194,167.7,193,168.175 Q192,168.65,192.5,169.125 Q193,169.6,192.5,170.55 Q192,171.5,191,172.45 Q190,173.4,189,172.925 Q188,172.45,188,171.975 Q188,171.5,188,170.55 Q188,169.6,186,170.075 Q184,170.55,184,170.075 Q184,169.6,180.5,168.65 Q177,167.7,178,168.175 Q179,168.65,179,169.6 Q179,170.55,178.5,171.025 Q178,171.5,180,172.925 Q182,174.35,181,180.525 Q180,186.7,184.5,183.85 Q189,181,192.5,179.575 Q196,178.15,195.5,176.25 Q195,174.35,195.5,173.4 Q196,172.45,196.5,172.925 Q197,173.4,198.5,171.975 Q200,170.55,202,170.55 Q204,170.55,203,169.125 Q202,167.7,201,167.225 Q200,166.75,199,166.275 Q198,165.8,198,164.375 Q198,162.95,200,162 Q202,161.05,203.5,162 Q205,162.95,205,163.425 Q205,163.9,206,166.75 Q207,169.6,207.5,169.6 Q208,169.6,212,167.225 Q216,164.85,215.5,164.375 Q215,163.9,213,163.9 Q211,163.9,209.5,162 Q208,160.1,206.5,160.575 Q205,161.05,205,160.575 Q205,160.1,205.5,159.15 Q206,158.2,204.5,158.2 Q203,158.2,202,158.675 Q201,159.15,200,158.675 Q199,158.2,198.5,159.15 Q198,160.1,197.5,160.575 Q197,161.05,196.5,160.1 Q196,159.15,195.5,158.2 Q195,157.25,195.5,156.3 Q196,155.35,197,155.35 Q198,155.35,199.5,155.35 Q201,155.35,202,154.4 Q203,153.45,203.5,152.5 Q204,151.55,205.5,153.45 Q207,155.35,207.5,155.35 Q208,155.35,209.5,154.4 Q211,153.45,212,153.45 Q213,153.45,214.5,153.925 Q216,154.4,216,154.875 Q216,155.35,217.5,156.3 Q219,157.25,219,158.675 Q219,160.1,223.5,161.05 Q228,162,225.5,158.2 Q223,154.4,222,153.925 Q221,153.45,220,152.975 Q219,152.5,218.5,152.5 Q218,152.5,217,152.5 Q216,152.5,216,151.55 Q216,150.6,216,149.65 Q216,148.7,214.5,149.65 Q213,150.6,212,150.125 Q211,149.65,210.5,149.65 Q210,149.65,209.5,150.6 Q209,151.55,208.5,150.6 Q208,149.65,207.5,148.7 Q207,147.75,207,148.7 Q207,149.65,206.5,150.125 Q206,150.6,205.5,150.6 Q205,150.6,205,149.175 Q205,147.75,205.5,147.275 Q206,146.8,207,146.325 Q208,145.85,207,145.85 Q206,145.85,205,145.375 Q204,144.9,203,144.425 Q202,143.95,201.5,144.425 Q201,144.9,201.5,145.85 Q202,146.8,202.5,147.75 Q203,148.7,202,148.7 Q201,148.7,201,149.175 Q201,149.65,200.5,150.125 Q200,150.6,199.5,151.55 Q199,152.5,198,152.5 Q197,152.5,196,153.45 Q195,154.4,195,152.975 Q195,151.55,195.5,150.125 Q196,148.7,195.5,148.7 Q195,148.7,194,149.175 Q193,149.65,192.5,150.125 Q192,150.6,191.5,152.5 Q191,154.4,189,153.925 Q187,153.45,186.5,153.925 Q186,154.4,185.5,154.4 Q185,154.4,185,153.925 Q185,153.45,184.5,152.975 Q184,152.5,183.5,152.975 Q183,153.45,183.5,155.35 Q184,157.25,183.5,158.675 Q183,160.1,183,160.1" fill="none" stroke="lightskyblue" stroke-width="0.5"/>
</g>
<g inkscape:groupmode="layer" inkscape:label="lightskyblue">
<path d="M216,61.3 Q216,61.3,217.5,61.775 Q219,62.25,219,64.15 Q219,66.05,219.5,65.1 Q220,64.15,221.5,62.725 Q223,61.3,225,60.825 Q227,60.35,223.5,59.4 Q220,58.45,220.5,54.65 Q221,50.85,221.5,48.95 Q222,47.05,219,43.725 Q216,40.4,215.5,41.825 Q215,43.25,215,44.2 Q215,45.15,214,45.15 Q213,45.15,213,45.625 Q213,46.1,213.5,47.05 Q214,48,214,48.475 Q214,48.95,214.5,49.425 Q215,49.9,215,51.8 Q215,53.7,215,54.175 Q215,54.65,214.5,55.6 Q214,56.55,213,56.55 Q212,56.55,209.5,57.025 Q207,57.5,207.5,57.5 Q208,57.5,209,57.025 Q210,56.55,209,55.125 Q208,53.7,206.5,52.75 Q205,51.8,206,51.8 Q207,51.8,208,50.375 Q209,48.95,208.5,48.475 Q208,48,208.5,47.525 Q209,47.05,208,46.575 Q207,46.1,207.5,45.625 Q208,45.15,207,44.2 Q206,43.25,204.5,44.2 Q203,45.15,203,45.625 Q203,46.1,202.5,48 Q202,49.9,201,50.85 Q200,51.8,201,52.275 Q202,52.75,200.5,54.65 Q199,56.55,198,58.45 Q197,60.35,196.5,60.825 Q196,61.3,196.5,59.875 Q197,58.45,197,57.975 Q197,57.5,196.5,56.55 Q196,55.6,196.5,54.65 Q197,53.7,197,51.325 Q197,48.95,196,48.95 Q195,48.95,194.5,48 Q194,47.05,193.5,47.05 Q193,47.05,192.5,48 Q192,48.95,191.5,48.95 Q191,48.95,189.5,47.05 Q188,45.15,188,44.2 Q188,43.25,189.5,43.25 Q191,43.25,195,43.725 Q199,44.2,198,43.25 Q197,42.3,196.5,41.825 Q196,41.35,196.5,39.45 Q197,37.55,198,37.075 Q199,36.6,199.5,36.125 Q200,35.65,197.5,34.7 Q195,33.75,194,35.65 Q193,37.55,192,37.55 Q191,37.55,189.5,35.175 Q188,32.8,188,36.125 Q188,39.45,188.5,39.925 Q189,40.4,189,40.875 Q189,41.35,187.5,40.875 Q186,40.4,185.5,42.3 Q185,44.2,184.5,46.575 Q184,48.95,184.5,50.375 Q185,51.8,184.5,51.8 Q184,51.8,183.5,52.75 Q183,53.7,182.5,55.6 Q182,57.5,183,58.925 Q184,60.35,185.5,60.35 Q187,60.35,186,59.4 Q185,58.45,185.5,56.55 Q186,54.65,186,53.225 Q186,51.8,187.5,52.275 Q189,52.75,189.5,52.275 Q190,51.8,192.5,52.275 Q195,52.75,195,53.7 Q195,54.65,193,54.65 Q191,54.65,191,55.125 Q191,55.6,190.5,56.55 Q190,57.5,189,57.975 Q188,58.45,189.5,58.45 Q191,58.45,191.5,58.45 Q192,58.45,193.5,59.4 Q195,60.35,194.5,60.825 Q194,61.3,193,61.3 Q192,61.3,191.5,60.825 Q191,60.35,190.5,61.3 Q190,62.25,190.5,62.725 Q191,63.2,191.5,62.725 Q192,62.25,192.5,63.2 Q193,64.15,194.5,63.675 Q196,63.2,197.5,63.2 Q199,63.2,199,64.15 Q199,65.1,199,65.575 Q199,66.05,199,66.525 Q199,67,200,67 Q201,67,201,66.05 Q201,65.1,200.5,64.625 Q200,64.15,200,63.675 Q200,63.2,200,61.775 Q200,60.35,201,59.4 Q202,58.45,202.5,57.975 Q203,57.5,203.5,57.975 Q204,58.45,204,58.925 Q204,59.4,205,59.4 Q206,59.4,206.5,59.875 Q207,60.35,207.5,60.35 Q208,60.35,209.5,59.875 Q211,59.4,211.5,59.875 Q212,60.35,213,60.825 Q214,61.3,214,62.25 Q214,63.2,211,64.625 Q208,66.05,207.5,65.575 Q207,65.1,206.5,64.15 Q206,63.2,206,65.1 Q206,67,204.5,67 Q203,67,203,68.425 Q203,69.85,204,70.325 Q205,70.8,205.5,70.8 Q206,70.8,206,70.325 Q206,69.85,206,68.9 Q206,67.95,206.5,68.425 Q207,68.9,208,69.375 Q209,69.85,209,69.375 Q209,68.9,210,67.95 Q211,67,211.5,67 Q212,67,212.5,66.525 Q213,66.05,213.5,65.575 Q214,65.1,215,63.2 Q216,61.3,216,61.3" fill="none" stroke="lightskyblue" stroke-width="0.5"/>
</g>
<g inkscape:groupmode="layer" inkscape:label="lightskyblue">
<path d="M210,108.8 Q210,108.8,209.5,108.325 Q209,107.85,208.5,107.375 Q208,106.9,207,107.375 Q206,107.85,206.5,108.325 Q207,108.8,207.5,109.275 Q208,109.75,208.5,109.75 Q209,109.75,208.5,110.225 Q208,110.7,208,111.175 Q208,111.65,207.5,112.125 Q207,112.6,207,113.55 Q207,114.5,206.5,114.975 Q206,115.45,204,114.975 Q202,114.5,202,112.6 Q202,110.7,201.5,110.225 Q201,109.75,199.5,109.275 Q198,108.8,196.5,108.8 Q195,108.8,195.5,107.85 Q196,106.9,197,106.425 Q198,105.95,198.5,105.475 Q199,105,199.5,104.525 Q200,104.05,198.5,104.05 Q197,104.05,197,103.1 Q197,102.15,197,101.675 Q197,101.2,196.5,101.2 Q196,101.2,196,100.725 Q196,100.25,197,99.775 Q198,99.3,198,98.825 Q198,98.35,196,98.35 Q194,98.35,194,99.775 Q194,101.2,193.5,101.675 Q193,102.15,191.5,102.15 Q190,102.15,189.5,103.1 Q189,104.05,188,104.525 Q187,105,188,105.95 Q189,106.9,189.5,107.85 Q190,108.8,190.5,108.325 Q191,107.85,191.5,108.8 Q192,109.75,194.5,112.125 Q197,114.5,197.5,114.5 Q198,114.5,198.5,114.5 Q199,114.5,199.5,115.925 Q200,117.35,200.5,117.35 Q201,117.35,202,117.35 Q203,117.35,202.5,117.825 Q202,118.3,202,118.775 Q202,119.25,200.5,119.725 Q199,120.2,198.5,118.775 Q198,117.35,196.5,116.875 Q195,116.4,195,116.875 Q195,117.35,194.5,117.825 Q194,118.3,193.5,118.3 Q193,118.3,192,114.975 Q191,111.65,189.5,111.175 Q188,110.7,187,110.225 Q186,109.75,186.5,109.275 Q187,108.8,186.5,110.7 Q186,112.6,186.5,112.6 Q187,112.6,187,113.075 Q187,113.55,186,114.975 Q185,116.4,184,116.4 Q183,116.4,183,115.925 Q183,115.45,183,114.975 Q183,114.5,180.5,111.65 Q178,108.8,180,108.325 Q182,107.85,182.5,106.425 Q183,105,181.5,103.1 Q180,101.2,180.5,99.3 Q181,97.4,182.5,96.45 Q184,95.5,184.5,95.5 Q185,95.5,184.5,97.875 Q184,100.25,186,101.2 Q188,102.15,189,101.2 Q190,100.25,190.5,100.25 Q191,100.25,189.5,97.875 Q188,95.5,188,94.55 Q188,93.6,189,93.6 Q190,93.6,190.5,94.075 Q191,94.55,191.5,94.075 Q192,93.6,193.5,93.125 Q195,92.65,195.5,93.125 Q196,93.6,196.5,94.55 Q197,95.5,197.5,95.975 Q198,96.45,198,95.025 Q198,93.6,198.5,94.075 Q199,94.55,199.5,95.5 Q200,96.45,200,95.5 Q200,94.55,201,94.075 Q202,93.6,202.5,93.6 Q203,93.6,202.5,92.175 Q202,90.75,202.5,90.275 Q203,89.8,203.5,91.225 Q204,92.65,205.5,94.075 Q207,95.5,208,96.45 Q209,97.4,208,98.35 Q207,99.3,205.5,99.775 Q204,100.25,203.5,99.775 Q203,99.3,203.5,98.825 Q204,98.35,204.5,98.35 Q205,98.35,203.5,97.4 Q202,96.45,202.5,96.45 Q203,96.45,202.5,97.4 Q202,98.35,201,98.35 Q200,98.35,201,99.3 Q202,100.25,201.5,101.2 Q201,102.15,201,102.625 Q201,103.1,201.5,103.1 Q202,103.1,202,104.525 Q202,105.95,201,106.425 Q200,106.9,202.5,107.85 Q205,108.8,205,106.9 Q205,105,205,104.525 Q205,104.05,204.5,103.1 Q204,102.15,205.5,102.625 Q207,103.1,207,101.675 Q207,100.25,208,100.25 Q209,100.25,210,101.2 Q211,102.15,210.5,102.15 Q210,102.15,212,103.1 Q214,104.05,213,103.575 Q212,103.1,212,103.575 Q212,104.05,211,104.525 Q210,105,210.5,105.95 Q211,106.9,211.5,108.325 Q212,109.75,212.5,108.8 Q213,107.85,213.5,107.85 Q214,107.85,214,107.375 Q214,106.9,215,105.95 Q216,105,216.5,104.525 Q217,104.05,217.5,104.525 Q218,105,216.5,105.95 Q215,106.9,215,108.325 Q215,109.75,214,110.7 Q213,111.65,212,112.125 Q211,112.6,210.5,111.175 Q210,109.75,210,109.275 Q210,108.8,210,108.8" fill="none" stroke="lightskyblue" stroke-width="0.5"/>
</g>
<g inkscape:groupmode="layer" inkscape:label="lightskyblue">
<path d="M233,113.55 Q233,113.55,234,113.55 Q235,113.55,236.5,113.075 Q238,112.6,237.5,114.5 Q237,116.4,233.5,116.875 Q230,117.35,230,117.825 Q230,118.3,229.5,119.725 Q229,121.15,230,123.525 Q231,125.9,233.5,126.375 Q236,126.85,236.5,127.8 Q237,128.75,233,130.175 Q229,131.6,229,132.55 Q229,133.5,229,134.925 Q229,136.35,230.5,136.35 Q232,136.35,232,137.3 Q232,138.25,234,137.775 Q236,137.3,234.5,139.675 Q233,142.05,231,147.75 Q229,153.45,229.5,147.75 Q230,142.05,229,141.575 Q228,141.1,227.5,140.15 Q227,139.2,225.5,139.2 Q224,139.2,223.5,140.15 Q223,141.1,223,141.575 Q223,142.05,222,141.1 Q221,140.15,221,139.675 Q221,139.2,224,137.775 Q227,136.35,224.5,134.45 Q222,132.55,221.5,131.6 Q221,130.65,221,130.175 Q221,129.7,221.5,129.7 Q222,129.7,223.5,129.225 Q225,128.75,225.5,124.475 Q226,120.2,223.5,121.625 Q221,123.05,221,122.1 Q221,121.15,219.5,120.2 Q218,119.25,218,117.825 Q218,116.4,217.5,116.875 Q217,117.35,216.5,118.3 Q216,119.25,215.5,118.775 Q215,118.3,214.5,118.775 Q214,119.25,213.5,119.25 Q213,119.25,214,120.2 Q215,121.15,216.5,122.575 Q218,124,219,125.9 Q220,127.8,219,128.275 Q218,128.75,218.5,129.7 Q219,130.65,218.5,132.075 Q218,133.5,218,133.975 Q218,134.45,216.5,134.925 Q215,135.4,215.5,135.875 Q216,136.35,216,137.3 Q216,138.25,216,139.675 Q216,141.1,216,141.575 Q216,142.05,217,143 Q218,143.95,219.5,145.85 Q221,147.75,220,147.75 Q219,147.75,218,147.275 Q217,146.8,215.5,145.85 Q214,144.9,213.5,144.425 Q213,143.95,212,143 Q211,142.05,211,141.575 Q211,141.1,210,140.15 Q209,139.2,210,138.725 Q211,138.25,211,135.875 Q211,133.5,209.5,133.975 Q208,134.45,208,136.35 Q208,138.25,208,138.725 Q208,139.2,207.5,139.675 Q207,140.15,206,139.675 Q205,139.2,205.5,138.25 Q206,137.3,205.5,136.825 Q205,136.35,205,135.875 Q205,135.4,204,134.45 Q203,133.5,202.5,133.025 Q202,132.55,203,132.55 Q204,132.55,204,132.075 Q204,131.6,205,131.125 Q206,130.65,206.5,130.65 Q207,130.65,207.5,131.125 Q208,131.6,208,132.075 Q208,132.55,208.5,132.075 Q209,131.6,209.5,130.65 Q210,129.7,212,129.225 Q214,128.75,214,129.7 Q214,130.65,214.5,130.175 Q215,129.7,215.5,129.7 Q216,129.7,216,129.225 Q216,128.75,215.5,128.275 Q215,127.8,215.5,126.375 Q216,124.95,214.5,122.575 Q213,120.2,213.5,123.05 Q214,125.9,212.5,126.375 Q211,126.85,211,127.325 Q211,127.8,210,127.8 Q209,127.8,208,126.85 Q207,125.9,207,125.425 Q207,124.95,204.5,124 Q202,123.05,201.5,124 Q201,124.95,200.5,124.95 Q200,124.95,201.5,125.9 Q203,126.85,203,127.8 Q203,128.75,203.5,129.225 Q204,129.7,204,129.225 Q204,128.75,204,128.275 Q204,127.8,204,127.325 Q204,126.85,204,126.375 Q204,125.9,204,125.425 Q204,124.95,207,123.525 Q210,122.1,209.5,121.15 Q209,120.2,207.5,120.675 Q206,121.15,206,120.675 Q206,120.2,206.5,119.725 Q207,119.25,206.5,118.775 Q206,118.3,207,117.825 Q208,117.35,208.5,117.35 Q209,117.35,210,116.4 Q211,115.45,211.5,115.925 Q212,116.4,212,116.875 Q212,117.35,213.5,115.925 Q215,114.5,216,112.6 Q217,110.7,217,110.225 Q217,109.75,216.5,110.225 Q216,110.7,215.5,111.65 Q215,112.6,215,113.075 Q215,113.55,215.5,113.55 Q216,113.55,217,114.025 Q218,114.5,219.5,114.025 Q221,113.55,221.5,115.45 Q222,117.35,223,116.4 Q224,115.45,224,114.5 Q224,113.55,224,113.075 Q224,112.6,224,112.125 Q224,111.65,223,112.125 Q222,112.6,222,112.125 Q222,111.65,222,110.7 Q222,109.75,222,109.275 Q222,108.8,222,108.325 Q222,107.85,222.5,107.85 Q223,107.85,223.5,107.85 Q224,107.85,225,109.75 Q226,111.65,226.5,111.65 Q227,111.65,227.5,110.7 Q228,109.75,229.5,109.275 Q231,108.8,231.5,108.8 Q232,108.8,232.5,111.175 Q233,113.55,233,113.55" fill="none" stroke="lightskyblue" stroke-width="0.5"/>
</g>
<g inkscape:groupmode="layer" inkscape:label="lightskyblue">
<path d="M150,163.9 Q150,163.9,149,163.9 Q148,163.9,147.5,165.325 Q147,166.75,147,168.65 Q147,170.55,142.5,175.3 Q138,180.05,135,177.675 Q132,175.3,133,173.4 Q134,171.5,132.5,170.55 Q131,169.6,130,171.975 Q129,174.35,126,171.975 Q123,169.6,117,169.125 Q111,168.65,110.5,166.275 Q110,163.9,113.5,157.25 Q117,150.6,115,146.8 Q113,143,109,137.775 Q105,132.55,109.5,133.975 Q114,135.4,114.5,134.925 Q115,134.45,116.5,135.875 Q118,137.3,120,139.2 Q122,141.1,126,136.825 Q130,132.55,128.5,127.8 Q127,123.05,128,123.05 Q129,123.05,133,126.375 Q137,129.7,141.5,132.55 Q146,135.4,146.5,134.925 Q147,134.45,148.5,134.925 Q150,135.4,152,133.975 Q154,132.55,155.5,136.825 Q157,141.1,156.5,141.575 Q156,142.05,155.5,143.95 Q155,145.85,157.5,144.9 Q160,143.95,160.5,143.475 Q161,143,162,143.95 Q163,144.9,162.5,145.85 Q162,146.8,163,147.75 Q164,148.7,163.5,150.125 Q163,151.55,165,150.6 Q167,149.65,167,150.6 Q167,151.55,169,151.55 Q171,151.55,171.5,153.925 Q172,156.3,173,157.725 Q174,159.15,172.5,160.1 Q171,161.05,170.5,162.95 Q170,164.85,168.5,164.85 Q167,164.85,166,165.325 Q165,165.8,164.5,166.275 Q164,166.75,161.5,168.175 Q159,169.6,157,169.6 Q155,169.6,155,170.55 Q155,171.5,153.5,172.45 Q152,173.4,151.5,173.4 Q151,173.4,147,181.475 Q143,189.55,148.5,186.225 Q154,182.9,157.5,184.325 Q161,185.75,163,187.175 Q165,188.6,168.5,186.225 Q172,183.85,172,181.95 Q172,180.05,172,178.625 Q172,177.2,172,176.725 Q172,176.25,171.5,175.3 Q171,174.35,171,175.775 Q171,177.2,169.5,177.2 Q168,177.2,167,179.575 Q166,181.95,163,181.95 Q160,181.95,161.5,179.1 Q163,176.25,164.5,172.925 Q166,169.6,166,169.125 Q166,168.65,168.5,170.075 Q171,171.5,172.5,171.975 Q174,172.45,173,170.55 Q172,168.65,172,166.275 Q172,163.9,173,163.9 Q174,163.9,172.5,161.525 Q171,159.15,170.5,159.15 Q170,159.15,169.5,158.675 Q169,158.2,169,156.775 Q169,155.35,168,156.3 Q167,157.25,166,156.775 Q165,156.3,165.5,157.25 Q166,158.2,165.5,158.675 Q165,159.15,164.5,161.05 Q164,162.95,162.5,160.1 Q161,157.25,161.5,156.3 Q162,155.35,159,153.925 Q156,152.5,156.5,155.35 Q157,158.2,158,157.725 Q159,157.25,159,158.2 Q159,159.15,157.5,161.05 Q156,162.95,155,160.575 Q154,158.2,153,156.3 Q152,154.4,151,152.5 Q150,150.6,151.5,150.125 Q153,149.65,154.5,149.175 Q156,148.7,153.5,146.8 Q151,144.9,149,146.325 Q147,147.75,146,147.275 Q145,146.8,142,149.65 Q139,152.5,138.5,149.65 Q138,146.8,137.5,145.85 Q137,144.9,132.5,146.325 Q128,147.75,127.5,150.125 Q127,152.5,127.5,156.775 Q128,161.05,130.5,163.9 Q133,166.75,133,162.95 Q133,159.15,135,160.1 Q137,161.05,139.5,160.575 Q142,160.1,139.5,158.675 Q137,157.25,137.5,156.775 Q138,156.3,139,155.825 Q140,155.35,143.5,154.4 Q147,153.45,146.5,155.35 Q146,157.25,148,157.25 Q150,157.25,149,159.15 Q148,161.05,149.5,161.05 Q151,161.05,151.5,162 Q152,162.95,151,163.425 Q150,163.9,150,163.9" fill="none" stroke="lightskyblue" stroke-width="0.5"/>
</g>
<g inkscape:groupmode="layer" inkscape:label="lightskyblue">
<path d="M125,98.35 Q125,98.35,122,100.25 Q119,102.15,120,106.425 Q121,110.7,116,114.025 Q111,117.35,108,117.825 Q105,118.3,107,115.925 Q109,113.55,111,109.75 Q113,105.95,110,104.525 Q107,103.1,107.5,101.2 Q108,99.3,110,95.025 Q112,90.75,109,88.85 Q106,86.95,108.5,82.675 Q111,78.4,112,74.6 Q113,70.8,116,71.275 Q119,71.75,122,73.65 Q125,75.55,126,75.55 Q127,75.55,125,73.175 Q123,70.8,122,67.95 Q121,65.1,119.5,63.2 Q118,61.3,118,60.825 Q118,60.35,115.5,59.875 Q113,59.4,116,56.55 Q119,53.7,121,56.075 Q123,58.45,122.5,58.925 Q122,59.4,123,60.825 Q124,62.25,124,62.725 Q124,63.2,125.5,64.15 Q127,65.1,128,63.675 Q129,62.25,129,60.825 Q129,59.4,128,57.5 Q127,55.6,131.5,56.075 Q136,56.55,137,57.025 Q138,57.5,138.5,56.55 Q139,55.6,140,57.025 Q141,58.45,139,60.825 Q137,63.2,138,63.2 Q139,63.2,140.5,64.625 Q142,66.05,142.5,67.95 Q143,69.85,146,70.325 Q149,70.8,149.5,70.8 Q150,70.8,151,73.175 Q152,75.55,149.5,74.6 Q147,73.65,146.5,74.6 Q146,75.55,143,75.075 Q140,74.6,136.5,76.5 Q133,78.4,129.5,81.25 Q126,84.1,126,86.475 Q126,88.85,125.5,93.6 Q125,98.35,125,98.35" fill="none" stroke="lightskyblue" stroke-width="0.5"/>
</g>
<g inkscape:groupmode="layer" inkscape:label="lightskyblue">
<path d="M204,80.3 Q204,80.3,204,79.825 Q204,79.35,203,78.875 Q202,78.4,202,77.925 Q202,77.45,201.5,77.925 Q201,78.4,201.5,76.975 Q202,75.55,202,74.6 Q202,73.65,201.5,73.175 Q201,72.7,200.5,73.175 Q200,73.65,200,74.125 Q200,74.6,200,75.075 Q200,75.55,199,75.55 Q198,75.55,198.5,74.125 Q199,72.7,199,71.275 Q199,69.85,198.5,68.9 Q198,67.95,196,67.95 Q194,67.95,193,67.95 Q192,67.95,191.5,67 Q191,66.05,189,65.1 Q187,64.15,187,63.2 Q187,62.25,186.5,62.725 Q186,63.2,184,62.725 Q182,62.25,182,61.775 Q182,61.3,180.5,61.775 Q179,62.25,179.5,63.2 Q180,64.15,180,65.1 Q180,66.05,180,66.525 Q180,67,180,67.95 Q180,68.9,180,69.375 Q180,69.85,180.5,67.95 Q181,66.05,181.5,66.05 Q182,66.05,183.5,67.95 Q185,69.85,186.5,70.8 Q188,71.75,188.5,72.225 Q189,72.7,189,72.225 Q189,71.75,189.5,70.8 Q190,69.85,190,69.375 Q190,68.9,191,70.325 Q192,71.75,193.5,71.275 Q195,70.8,195.5,71.275 Q196,71.75,194.5,73.175 Q193,74.6,192.5,74.6 Q192,74.6,190.5,74.125 Q189,73.65,189,74.125 Q189,74.6,189,75.075 Q189,75.55,188,76.5 Q187,77.45,186.5,77.45 Q186,77.45,185.5,76.025 Q185,74.6,184.5,76.025 Q184,77.45,183,77.925 Q182,78.4,183.5,78.4 Q185,78.4,185,78.875 Q185,79.35,185,79.825 Q185,80.3,185,81.25 Q185,82.2,184,82.675 Q183,83.15,181.5,82.2 Q180,81.25,179.5,80.3 Q179,79.35,179.5,76.975 Q180,74.6,180.5,74.125 Q181,73.65,179.5,72.7 Q178,71.75,177.5,71.75 Q177,71.75,177,70.325 Q177,68.9,173.5,68.9 Q170,68.9,172.5,71.275 Q175,73.65,175,74.125 Q175,74.6,174.5,75.55 Q174,76.5,172.5,76.975 Q171,77.45,170.5,75.55 Q170,73.65,169.5,73.175 Q169,72.7,167.5,73.65 Q166,74.6,165,76.025 Q164,77.45,162,78.875 Q160,80.3,166,82.675 Q172,85.05,173,84.1 Q174,83.15,174,83.625 Q174,84.1,175,85.05 Q176,86,176,87.425 Q176,88.85,179.5,91.225 Q183,93.6,184.5,93.125 Q186,92.65,188.5,91.7 Q191,90.75,190,89.325 Q189,87.9,188.5,87.425 Q188,86.95,188,86 Q188,85.05,187.5,84.575 Q187,84.1,188,81.725 Q189,79.35,189.5,80.3 Q190,81.25,190.5,81.25 Q191,81.25,191.5,81.25 Q192,81.25,192.5,80.3 Q193,79.35,193,78.4 Q193,77.45,194,77.925 Q195,78.4,195,78.875 Q195,79.35,195,79.825 Q195,80.3,196.5,79.35 Q198,78.4,198.5,78.4 Q199,78.4,199,79.35 Q199,80.3,197.5,81.25 Q196,82.2,195,82.2 Q194,82.2,193.5,83.15 Q193,84.1,193.5,84.1 Q194,84.1,194,85.05 Q194,86,193.5,86.475 Q193,86.95,194,87.9 Q195,88.85,196.5,88.375 Q198,87.9,198,87.425 Q198,86.95,197.5,86.475 Q197,86,197.5,86 Q198,86,199,86 Q200,86,201,86 Q202,86,201.5,85.525 Q201,85.05,201,84.575 Q201,84.1,199.5,84.1 Q198,84.1,198.5,83.625 Q199,83.15,200,82.675 Q201,82.2,202,81.725 Q203,81.25,203.5,80.775 Q204,80.3,204,80.3" fill="none" stroke="lightskyblue" stroke-width="0.5"/>
</g>
<g inkscape:groupmode="layer" inkscape:label="lightskyblue">
<path d="M233,103.1 Q233,103.1,230.5,103.1 Q228,103.1,227,102.625 Q226,102.15,226,101.675 Q226,101.2,226.5,100.725 Q227,100.25,224.5,99.775 Q222,99.3,222,98.35 Q222,97.4,223,97.4 Q224,97.4,224.5,97.875 Q225,98.35,226.5,97.875 Q228,97.4,230.5,97.4 Q233,97.4,234.5,95.975 Q236,94.55,236.5,92.175 Q237,89.8,238.5,90.275 Q240,90.75,240,85.525 Q240,80.3,239.5,78.4 Q239,76.5,238.5,76.975 Q238,77.45,236.5,81.25 Q235,85.05,234.5,86 Q234,86.95,234,89.325 Q234,91.7,232,92.65 Q230,93.6,229.5,93.125 Q229,92.65,228,92.65 Q227,92.65,226,90.75 Q225,88.85,225,89.325 Q225,89.8,225,90.275 Q225,90.75,225,93.125 Q225,95.5,224,94.55 Q223,93.6,222,92.175 Q221,90.75,221,89.325 Q221,87.9,221.5,87.425 Q222,86.95,224.5,86.475 Q227,86,227.5,86.475 Q228,86.95,228.5,86.95 Q229,86.95,228,84.575 Q227,82.2,226.5,82.2 Q226,82.2,225,83.15 Q224,84.1,223.5,84.1 Q223,84.1,222,84.1 Q221,84.1,220.5,83.15 Q220,82.2,219.5,82.675 Q219,83.15,219,83.625 Q219,84.1,219,86.475 Q219,88.85,218,89.325 Q217,89.8,216.5,89.8 Q216,89.8,217,90.275 Q218,90.75,218,91.7 Q218,92.65,218,94.075 Q218,95.5,219,96.925 Q220,98.35,219.5,97.875 Q219,97.4,218,96.925 Q217,96.45,216,95.975 Q215,95.5,214,95.025 Q213,94.55,213.5,94.075 Q214,93.6,213,92.175 Q212,90.75,212.5,90.275 Q213,89.8,213,89.325 Q213,88.85,214,87.425 Q215,86,216.5,85.525 Q218,85.05,217,84.1 Q216,83.15,215.5,82.2 Q215,81.25,215.5,81.25 Q216,81.25,217,80.775 Q218,80.3,219.5,80.3 Q221,80.3,221,79.825 Q221,79.35,222.5,79.35 Q224,79.35,225.5,77.925 Q227,76.5,228,76.025 Q229,75.55,228,73.65 Q227,71.75,228.5,70.325 Q230,68.9,230,65.575 Q230,62.25,227,66.05 Q224,69.85,223.5,69.85 Q223,69.85,221.5,68.425 Q220,67,218.5,67.95 Q217,68.9,216.5,69.85 Q216,70.8,215.5,70.8 Q215,70.8,215,70.325 Q215,69.85,214.5,69.85 Q214,69.85,212.5,70.8 Q211,71.75,212.5,73.175 Q214,74.6,214.5,74.125 Q215,73.65,215.5,73.65 Q216,73.65,217.5,74.125 Q219,74.6,219,75.075 Q219,75.55,216.5,75.55 Q214,75.55,214.5,77.45 Q215,79.35,214,79.35 Q213,79.35,213,79.825 Q213,80.3,211.5,80.3 Q210,80.3,209.5,79.825 Q209,79.35,210,79.35 Q211,79.35,211,78.4 Q211,77.45,211.5,76.975 Q212,76.5,210,74.6 Q208,72.7,207.5,75.075 Q207,77.45,206.5,78.875 Q206,80.3,205.5,81.25 Q205,82.2,205.5,82.2 Q206,82.2,207,82.2 Q208,82.2,209,82.675 Q210,83.15,210.5,83.15 Q211,83.15,211.5,83.625 Q212,84.1,213,84.1 Q214,84.1,214.5,84.1 Q215,84.1,213.5,84.575 Q212,85.05,211.5,85.525 Q211,86,210,86 Q209,86,207.5,85.525 Q206,85.05,205,86.475 Q204,87.9,204.5,89.325 Q205,90.75,205.5,90.275 Q206,89.8,207.5,89.325 Q209,88.85,209,89.325 Q209,89.8,209,90.275 Q209,90.75,210,91.225 Q211,91.7,210,91.7 Q209,91.7,208.5,92.175 Q208,92.65,208.5,93.125 Q209,93.6,210,95.025 Q211,96.45,211.5,97.4 Q212,98.35,212.5,98.825 Q213,99.3,214,99.775 Q215,100.25,215.5,100.25 Q216,100.25,216,99.775 Q216,99.3,216.5,99.775 Q217,100.25,217.5,102.15 Q218,104.05,220,105 Q222,105.95,223,106.425 Q224,106.9,225,106.425 Q226,105.95,227,105 Q228,104.05,231,105 Q234,105.95,235,105.475 Q236,105,237,104.525 Q238,104.05,237.5,103.1 Q237,102.15,235,102.625 Q233,103.1,233,103.1" fill="none" stroke="lightskyblue" stroke-width="0.5"/>
</g>
<g inkscape:groupmode="layer" inkscape:label="lightskyblue">
<path d="M193,129.7 Q193,129.7,192,129.7 Q191,129.7,191,130.175 Q191,130.65,190,130.65 Q189,130.65,189.5,131.125 Q190,131.6,190,133.025 Q190,134.45,189.5,136.825 Q189,139.2,190.5,139.2 Q192,139.2,192.5,140.15 Q193,141.1,193.5,140.15 Q194,139.2,195,140.15 Q196,141.1,196.5,140.625 Q197,140.15,197,139.675 Q197,139.2,195.5,138.725 Q194,138.25,194,137.775 Q194,137.3,194.5,137.3 Q195,137.3,194.5,135.875 Q194,134.45,193.5,133.975 Q193,133.5,193.5,133.025 Q194,132.55,194,131.6 Q194,130.65,194.5,130.65 Q195,130.65,195.5,131.125 Q196,131.6,196.5,132.55 Q197,133.5,197.5,133.5 Q198,133.5,199,133.975 Q200,134.45,200.5,134.925 Q201,135.4,199.5,136.35 Q198,137.3,200,137.775 Q202,138.25,201.5,139.675 Q201,141.1,200.5,141.575 Q200,142.05,199.5,141.575 Q199,141.1,198.5,141.575 Q198,142.05,197.5,142.05 Q197,142.05,197.5,143 Q198,143.95,197,143.475 Q196,143,195.5,143 Q195,143,195,143.475 Q195,143.95,194.5,143.95 Q194,143.95,193.5,143.475 Q193,143,193,142.525 Q193,142.05,192.5,142.05 Q192,142.05,191.5,142.05 Q191,142.05,190.5,143 Q190,143.95,190.5,144.425 Q191,144.9,190.5,144.9 Q190,144.9,189.5,145.375 Q189,145.85,188.5,144.9 Q188,143.95,186.5,143.95 Q185,143.95,183,144.425 Q181,144.9,182.5,145.375 Q184,145.85,184,146.325 Q184,146.8,185.5,146.8 Q187,146.8,188.5,147.75 Q190,148.7,188,148.225 Q186,147.75,186,148.225 Q186,148.7,185,148.7 Q184,148.7,183.5,150.125 Q183,151.55,183,152.025 Q183,152.5,182.5,152.025 Q182,151.55,182,151.075 Q182,150.6,179.5,152.025 Q177,153.45,176,154.4 Q175,155.35,175.5,152.975 Q176,150.6,176,150.125 Q176,149.65,175.5,149.65 Q175,149.65,174,150.125 Q173,150.6,173,149.175 Q173,147.75,171.5,147.75 Q170,147.75,171,147.275 Q172,146.8,172,146.325 Q172,145.85,173.5,145.375 Q175,144.9,174.5,144.425 Q174,143.95,173.5,143.475 Q173,143,172,143 Q171,143,171,142.05 Q171,141.1,169.5,140.15 Q168,139.2,166.5,140.15 Q165,141.1,165,140.15 Q165,139.2,163.5,136.825 Q162,134.45,164,133.975 Q166,133.5,167,133.975 Q168,134.45,169,134.925 Q170,135.4,169.5,136.35 Q169,137.3,171.5,138.725 Q174,140.15,173.5,138.725 Q173,137.3,173.5,136.825 Q174,136.35,175.5,134.45 Q177,132.55,178.5,132.55 Q180,132.55,180.5,133.5 Q181,134.45,181,135.4 Q181,136.35,179,137.775 Q177,139.2,178.5,138.725 Q180,138.25,180.5,139.2 Q181,140.15,183.5,140.625 Q186,141.1,186.5,140.15 Q187,139.2,187.5,137.775 Q188,136.35,187,135.875 Q186,135.4,185,134.45 Q184,133.5,184.5,132.075 Q185,130.65,184.5,131.125 Q184,131.6,182.5,130.175 Q181,128.75,180.5,128.75 Q180,128.75,179,129.225 Q178,129.7,178.5,127.325 Q179,124.95,179,124 Q179,123.05,177,122.575 Q175,122.1,176,119.725 Q177,117.35,178.5,118.3 Q180,119.25,183,119.25 Q186,119.25,188,119.725 Q190,120.2,190,121.625 Q190,123.05,188.5,122.575 Q187,122.1,185,123.05 Q183,124,184.5,125.425 Q186,126.85,185.5,126.85 Q185,126.85,186,127.8 Q187,128.75,187,128.275 Q187,127.8,189,126.375 Q191,124.95,192,124 Q193,123.05,194,122.575 Q195,122.1,195.5,122.575 Q196,123.05,196.5,123.525 Q197,124,198,125.9 Q199,127.8,199.5,128.275 Q200,128.75,198,129.225 Q196,129.7,195,128.75 Q194,127.8,194,128.275 Q194,128.75,193.5,129.225 Q193,129.7,193,129.7" fill="none" stroke="lightskyblue" stroke-width="0.5"/>
</g>
<g inkscape:groupmode="layer" inkscape:label="lightskyblue">
<path d="M156,76.5 Q156,76.5,158.5,73.175 Q161,69.85,161.5,69.375 Q162,68.9,162,67.95 Q162,67,162.5,67 Q163,67,165.5,66.525 Q168,66.05,169,66.05 Q170,66.05,169.5,65.1 Q169,64.15,169,62.725 Q169,61.3,168,61.3 Q167,61.3,166.5,60.825 Q166,60.35,166,58.925 Q166,57.5,168,57.975 Q170,58.45,171.5,59.875 Q173,61.3,173,61.775 Q173,62.25,174,61.775 Q175,61.3,176,61.775 Q177,62.25,176.5,61.775 Q176,61.3,175.5,59.4 Q175,57.5,176.5,57.5 Q178,57.5,180,56.55 Q182,55.6,181.5,54.65 Q181,53.7,179.5,54.175 Q178,54.65,177.5,55.6 Q177,56.55,176.5,56.075 Q176,55.6,175,55.6 Q174,55.6,173.5,55.125 Q173,54.65,171,55.125 Q169,55.6,168.5,55.6 Q168,55.6,166.5,54.65 Q165,53.7,164.5,54.175 Q164,54.65,163.5,53.7 Q163,52.75,162,54.175 Q161,55.6,158,55.6 Q155,55.6,154.5,54.175 Q154,52.75,154,51.8 Q154,50.85,154.5,50.375 Q155,49.9,154.5,49.9 Q154,49.9,153.5,49.425 Q153,48.95,153,48.475 Q153,48,153,47.525 Q153,47.05,153.5,47.05 Q154,47.05,155,47.05 Q156,47.05,158,48 Q160,48.95,161.5,48.475 Q163,48,164.5,48 Q166,48,166.5,47.525 Q167,47.05,163.5,44.2 Q160,41.35,163,40.4 Q166,39.45,166.5,39.45 Q167,39.45,169,37.55 Q171,35.65,171.5,37.075 Q172,38.5,174,38.975 Q176,39.45,176.5,40.4 Q177,41.35,177.5,41.825 Q178,42.3,178,42.775 Q178,43.25,178,43.725 Q178,44.2,178,44.675 Q178,45.15,177.5,45.625 Q177,46.1,176.5,45.15 Q176,44.2,175.5,43.25 Q175,42.3,174,42.3 Q173,42.3,171.5,44.675 Q170,47.05,169,48.475 Q168,49.9,168.5,50.375 Q169,50.85,169.5,50.85 Q170,50.85,170,49.9 Q170,48.95,170.5,48.475 Q171,48,173,49.425 Q175,50.85,175.5,51.8 Q176,52.75,176.5,52.275 Q177,51.8,177.5,51.8 Q178,51.8,178.5,51.8 Q179,51.8,179,50.85 Q179,49.9,178.5,48.95 Q178,48,178.5,48 Q179,48,180.5,47.525 Q182,47.05,181.5,46.1 Q181,45.15,182,43.25 Q183,41.35,182,40.4 Q181,39.45,183,38.5 Q185,37.55,183,35.65 Q181,33.75,180.5,31.85 Q180,29.95,178.5,26.625 Q177,23.3,176,27.1 Q175,30.9,174.5,31.375 Q174,31.85,169.5,29.95 Q165,28.05,162.5,23.775 Q160,19.5,158,25.2 Q156,30.9,156.5,33.275 Q157,35.65,156.5,37.55 Q156,39.45,155.5,38.975 Q155,38.5,154,37.075 Q153,35.65,151,34.7 Q149,33.75,147.5,32.325 Q146,30.9,137.5,27.575 Q129,24.25,133.5,29.95 Q138,35.65,137.5,37.075 Q137,38.5,136,40.4 Q135,42.3,138,42.3 Q141,42.3,140.5,41.35 Q140,40.4,140.5,38.975 Q141,37.55,144.5,38.5 Q148,39.45,147.5,40.875 Q147,42.3,149,43.725 Q151,45.15,149,47.05 Q147,48.95,145,48.475 Q143,48,140.5,50.375 Q138,52.75,142,54.175 Q146,55.6,147,58.45 Q148,61.3,151,60.35 Q154,59.4,155.5,61.3 Q157,63.2,158.5,63.2 Q160,63.2,161,63.2 Q162,63.2,159.5,64.15 Q157,65.1,156,64.625 Q155,64.15,153.5,65.575 Q152,67,153.5,67.475 Q155,67.95,156,67.475 Q157,67,156,67.95 Q155,68.9,155.5,72.7 Q156,76.5,156,76.5" fill="none" stroke="lightskyblue" stroke-width="0.5"/>
</g>
<g inkscape:groupmode="layer" inkscape:label="gold">
<path d="M162,152.5 Q162,152.5,161,150.125 Q160,147.75,159,146.8 Q158,145.85,158,144.9 Q158,143.95,156.5,143 Q155,142.05,157.5,142.525 Q160,143,161.5,142.525 Q163,142.05,165.5,143 Q168,143.95,167,145.85 Q166,147.75,165,147.75 Q164,147.75,164.5,148.7 Q165,149.65,164.5,150.6 Q164,151.55,164,152.5 Q164,153.45,163.5,154.4 Q163,155.35,162.5,155.825 Q162,156.3,162,158.2 Q162,160.1,163,160.575 Q164,161.05,164.5,161.05 Q165,161.05,164.5,160.1 Q164,159.15,165,159.15 Q166,159.15,165.5,158.2 Q165,157.25,164.5,156.775 Q164,156.3,165.5,155.825 Q167,155.35,167,154.875 Q167,154.4,167.5,154.4 Q168,154.4,169,152.5 Q170,150.6,169.5,150.125 Q169,149.65,169.5,149.65 Q170,149.65,170.5,150.125 Q171,150.6,172,148.7 Q173,146.8,174,145.375 Q175,143.95,174.5,143.475 Q174,143,174,142.525 Q174,142.05,173.5,141.575 Q173,141.1,173,138.725 Q173,136.35,172.5,134.925 Q172,133.5,171.5,134.45 Q171,135.4,171,136.825 Q171,138.25,171,139.2 Q171,140.15,170,141.1 Q169,142.05,168.5,142.05 Q168,142.05,166,139.2 Q164,136.35,162.5,137.775 Q161,139.2,159,137.775 Q157,136.35,157,135.4 Q157,134.45,153.5,136.35 Q150,138.25,148.5,136.35 Q147,134.45,146.5,134.45 Q146,134.45,145,132.075 Q144,129.7,143,133.5 Q142,137.3,140.5,137.3 Q139,137.3,138,136.825 Q137,136.35,136,139.675 Q135,143,135.5,143 Q136,143,138,144.425 Q140,145.85,140.5,146.325 Q141,146.8,141.5,146.8 Q142,146.8,142,147.275 Q142,147.75,143,147.275 Q144,146.8,144.5,146.325 Q145,145.85,144,145.375 Q143,144.9,143.5,144.425 Q144,143.95,144.5,141.1 Q145,138.25,145.5,138.725 Q146,139.2,147.5,142.05 Q149,144.9,149,146.325 Q149,147.75,150,148.7 Q151,149.65,149,150.6 Q147,151.55,146,151.55 Q145,151.55,144.5,151.55 Q144,151.55,143,151.075 Q142,150.6,141.5,150.125 Q141,149.65,140.5,149.65 Q140,149.65,139,149.65 Q138,149.65,137.5,149.175 Q137,148.7,136.5,149.65 Q136,150.6,137,153.45 Q138,156.3,138,155.35 Q138,154.4,138,153.45 Q138,152.5,139,152.975 Q140,153.45,140.5,153.45 Q141,153.45,141,154.4 Q141,155.35,142.5,156.775 Q144,158.2,144.5,158.2 Q145,158.2,145.5,157.725 Q146,157.25,148,157.725 Q150,158.2,149.5,157.25 Q149,156.3,149,155.825 Q149,155.35,150,154.875 Q151,154.4,151.5,153.45 Q152,152.5,151.5,151.55 Q151,150.6,152.5,150.6 Q154,150.6,154.5,150.6 Q155,150.6,154,149.65 Q153,148.7,154.5,148.225 Q156,147.75,155.5,149.65 Q155,151.55,155.5,151.55 Q156,151.55,155.5,152.025 Q155,152.5,154.5,153.45 Q154,154.4,155.5,154.4 Q157,154.4,157,154.875 Q157,155.35,156.5,155.825 Q156,156.3,155,156.775 Q154,157.25,154.5,157.725 Q155,158.2,154.5,158.675 Q154,159.15,155,159.625 Q156,160.1,156.5,160.575 Q157,161.05,157,159.625 Q157,158.2,157.5,157.725 Q158,157.25,159,156.775 Q160,156.3,160.5,156.3 Q161,156.3,160.5,155.35 Q160,154.4,160,153.925 Q160,153.45,160.5,153.45 Q161,153.45,161.5,152.975 Q162,152.5,162,152.5" fill="none" stroke="gold" stroke-width="0.5"/>
</g>
<g inkscape:groupmode="layer" inkscape:label="gold">
<path d="M199,122.1 Q199,122.1,200,121.15 Q201,120.2,199,120.2 Q197,120.2,196.5,120.2 Q196,120.2,197.5,117.825 Q199,115.45,201,114.975 Q203,114.5,203.5,114.5 Q204,114.5,205,113.55 Q206,112.6,209,112.125 Q212,111.65,214,114.025 Q216,116.4,211.5,115.925 Q207,115.45,206,115.925 Q205,116.4,206.5,118.775 Q208,121.15,209,122.1 Q210,123.05,206.5,124.95 Q203,126.85,201.5,127.8 Q200,128.75,197,129.225 Q194,129.7,192.5,127.8 Q191,125.9,191,127.325 Q191,128.75,190.5,128.75 Q190,128.75,189.5,129.225 Q189,129.7,186.5,130.65 Q184,131.6,184,131.125 Q184,130.65,182.5,130.175 Q181,129.7,180,130.175 Q179,130.65,180.5,132.075 Q182,133.5,179,134.45 Q176,135.4,176,132.55 Q176,129.7,174,129.7 Q172,129.7,171,127.8 Q170,125.9,168,122.575 Q166,119.25,170.5,114.975 Q175,110.7,175.5,108.325 Q176,105.95,180,107.375 Q184,108.8,183.5,104.525 Q183,100.25,184,97.875 Q185,95.5,186,93.6 Q187,91.7,179.5,85.05 Q172,78.4,186,83.625 Q200,88.85,201,90.75 Q202,92.65,199.5,95.5 Q197,98.35,196.5,102.15 Q196,105.95,195,107.85 Q194,109.75,193.5,110.225 Q193,110.7,191,111.175 Q189,111.65,187.5,112.6 Q186,113.55,184.5,113.55 Q183,113.55,183.5,114.975 Q184,116.4,183.5,117.35 Q183,118.3,181,119.25 Q179,120.2,178.5,122.1 Q178,124,178.5,125.425 Q179,126.85,182,126.375 Q185,125.9,188,123.525 Q191,121.15,191,120.2 Q191,119.25,191.5,120.2 Q192,121.15,193.5,123.05 Q195,124.95,195,124.475 Q195,124,195.5,123.525 Q196,123.05,196.5,123.05 Q197,123.05,198,122.575 Q199,122.1,199,122.1" fill="none" stroke="gold" stroke-width="0.5"/>
</g>
<g inkscape:groupmode="layer" inkscape:label="gold">
<path d="M107,140.15 Q107,140.15,107.5,139.675 Q108,139.2,106.5,138.725 Q105,138.25,105,137.775 Q105,137.3,104.5,137.3 Q104,137.3,104,135.875 Q104,134.45,104.5,135.4 Q105,136.35,106,135.4 Q107,134.45,106,133.025 Q105,131.6,105.5,132.075 Q106,132.55,106,131.6 Q106,130.65,107,130.65 Q108,130.65,107,129.225 Q106,127.8,106.5,125.9 Q107,124,107.5,123.05 Q108,122.1,108.5,121.15 Q109,120.2,110.5,121.15 Q112,122.1,113,122.1 Q114,122.1,112.5,122.575 Q111,123.05,110.5,123.05 Q110,123.05,110.5,124 Q111,124.95,110,126.85 Q109,128.75,109.5,129.7 Q110,130.65,111.5,132.075 Q113,133.5,114,133.025 Q115,132.55,116,132.55 Q117,132.55,117.5,132.55 Q118,132.55,117.5,133.5 Q117,134.45,117,133.975 Q117,133.5,117.5,134.45 Q118,135.4,120,135.875 Q122,136.35,122.5,136.825 Q123,137.3,124,137.775 Q125,138.25,123,137.775 Q121,137.3,121,137.775 Q121,138.25,119.5,139.675 Q118,141.1,118,140.15 Q118,139.2,117.5,138.725 Q117,138.25,116.5,138.725 Q116,139.2,114.5,139.675 Q113,140.15,113.5,139.2 Q114,138.25,113,138.25 Q112,138.25,112,137.775 Q112,137.3,111.5,135.875 Q111,134.45,110.5,135.875 Q110,137.3,111,138.725 Q112,140.15,112,140.625 Q112,141.1,112.5,142.05 Q113,143,114,142.525 Q115,142.05,115,142.525 Q115,143,114.5,143.475 Q114,143.95,114.5,144.425 Q115,144.9,116.5,144.425 Q118,143.95,118.5,143.95 Q119,143.95,119,143.475 Q119,143,120,142.525 Q121,142.05,122,142.05 Q123,142.05,123.5,141.575 Q124,141.1,125,141.575 Q126,142.05,127.5,141.575 Q129,141.1,129.5,140.15 Q130,139.2,128,139.2 Q126,139.2,126.5,138.725 Q127,138.25,127.5,137.775 Q128,137.3,127,135.875 Q126,134.45,126.5,133.975 Q127,133.5,130,133.975 Q133,134.45,133.5,134.925 Q134,135.4,134.5,133.975 Q135,132.55,135,131.125 Q135,129.7,133,125.9 Q131,122.1,129.5,121.625 Q128,121.15,128,124.475 Q128,127.8,128.5,129.225 Q129,130.65,127,129.225 Q125,127.8,124,128.275 Q123,128.75,123,129.7 Q123,130.65,121.5,131.6 Q120,132.55,121,131.6 Q122,130.65,120,129.225 Q118,127.8,116,126.85 Q114,125.9,114,125.425 Q114,124.95,114.5,124.95 Q115,124.95,116.5,122.575 Q118,120.2,116.5,119.25 Q115,118.3,113.5,118.775 Q112,119.25,114.5,115.925 Q117,112.6,118,110.225 Q119,107.85,118,108.325 Q117,108.8,115.5,109.275 Q114,109.75,114,108.8 Q114,107.85,112.5,107.375 Q111,106.9,111.5,106.425 Q112,105.95,111,107.375 Q110,108.8,109.5,109.75 Q109,110.7,108,110.7 Q107,110.7,109,114.025 Q111,117.35,109,116.875 Q107,116.4,107,116.875 Q107,117.35,106.5,118.3 Q106,119.25,105.5,119.725 Q105,120.2,104,120.675 Q103,121.15,103,122.1 Q103,123.05,102,122.575 Q101,122.1,101.5,121.15 Q102,120.2,101.5,119.25 Q101,118.3,101.5,117.825 Q102,117.35,101.5,117.35 Q101,117.35,100,117.35 Q99,117.35,98.5,117.825 Q98,118.3,97,120.2 Q96,122.1,95.5,123.05 Q95,124,95.5,124.475 Q96,124.95,97.5,124 Q99,123.05,98.5,124.475 Q98,125.9,96.5,126.375 Q95,126.85,96.5,127.8 Q98,128.75,99,127.8 Q100,126.85,101.5,125.9 Q103,124.95,103.5,124 Q104,123.05,104,124 Q104,124.95,104.5,125.9 Q105,126.85,104.5,127.325 Q104,127.8,103.5,129.225 Q103,130.65,102,131.125 Q101,131.6,100,131.125 Q99,130.65,98.5,131.6 Q98,132.55,98.5,133.5 Q99,134.45,100,134.45 Q101,134.45,101,134.925 Q101,135.4,102,136.35 Q103,137.3,103,137.775 Q103,138.25,103,138.725 Q103,139.2,103.5,139.675 Q104,140.15,105.5,140.625 Q107,141.1,107,142.05 Q107,143,106.5,144.425 Q106,145.85,106.5,145.85 Q107,145.85,107.5,144.9 Q108,143.95,109.5,144.425 Q111,144.9,111,143.95 Q111,143,111,142.525 Q111,142.05,109.5,142.05 Q108,142.05,107.5,141.1 Q107,140.15,107,140.15" fill="none" stroke="gold" stroke-width="0.5"/>
</g>
<g inkscape:groupmode="layer" inkscape:label="gold">
<path d="M182,146.8 Q182,146.8,180.5,146.325 Q179,145.85,178.5,145.375 Q178,144.9,178.5,142.525 Q179,140.15,180,138.725 Q181,137.3,181.5,136.35 Q182,135.4,182.5,135.4 Q183,135.4,188,134.45 Q193,133.5,193.5,133.975 Q194,134.45,194,133.5 Q194,132.55,195.5,131.6 Q197,130.65,199,131.125 Q201,131.6,201.5,130.175 Q202,128.75,203.5,129.7 Q205,130.65,207.5,133.025 Q210,135.4,212,136.825 Q214,138.25,215,139.2 Q216,140.15,215.5,141.575 Q215,143,212,142.05 Q209,141.1,208,140.625 Q207,140.15,206.5,143 Q206,145.85,205,145.375 Q204,144.9,202,144.9 Q200,144.9,200.5,143.475 Q201,142.05,202,142.525 Q203,143,204,142.05 Q205,141.1,204,140.15 Q203,139.2,203.5,138.25 Q204,137.3,203,136.35 Q202,135.4,201,135.4 Q200,135.4,198,135.4 Q196,135.4,197,137.3 Q198,139.2,198.5,139.675 Q199,140.15,197.5,140.625 Q196,141.1,195,142.05 Q194,143,194.5,143 Q195,143,196,143.475 Q197,143.95,196.5,144.425 Q196,144.9,195.5,145.375 Q195,145.85,194.5,146.8 Q194,147.75,194,148.225 Q194,148.7,194.5,149.65 Q195,150.6,198.5,152.025 Q202,153.45,203.5,153.925 Q205,154.4,205,153.45 Q205,152.5,208,150.125 Q211,147.75,212.5,150.125 Q214,152.5,214.5,150.125 Q215,147.75,219,146.8 Q223,145.85,223.5,143.475 Q224,141.1,224,139.675 Q224,138.25,222,135.4 Q220,132.55,224.5,134.925 Q229,137.3,230,139.2 Q231,141.1,225.5,146.325 Q220,151.55,218.5,152.975 Q217,154.4,215,162 Q213,169.6,208,166.75 Q203,163.9,204,161.525 Q205,159.15,204.5,159.15 Q204,159.15,202,158.2 Q200,157.25,199,157.725 Q198,158.2,197,156.3 Q196,154.4,194,154.875 Q192,155.35,191.5,153.45 Q191,151.55,191,150.125 Q191,148.7,191.5,148.225 Q192,147.75,192,147.275 Q192,146.8,191,145.375 Q190,143.95,191,142.05 Q192,140.15,193,139.2 Q194,138.25,192,137.775 Q190,137.3,190,138.725 Q190,140.15,189.5,141.575 Q189,143,188.5,143.475 Q188,143.95,187.5,145.85 Q187,147.75,186,147.275 Q185,146.8,185,145.85 Q185,144.9,184.5,142.525 Q184,140.15,183.5,140.625 Q183,141.1,182.5,143.95 Q182,146.8,182,146.8" fill="none" stroke="gold" stroke-width="0.5"/>
</g>
<g inkscape:groupmode="layer" inkscape:label="gold">
<path d="M110,69.85 Q110,69.85,109,70.325 Q108,70.8,107.5,73.65 Q107,76.5,105,76.975 Q103,77.45,103.5,79.35 Q104,81.25,102.5,79.35 Q101,77.45,99.5,76.5 Q98,75.55,97.5,77.925 Q97,80.3,98.5,82.2 Q100,84.1,99,85.525 Q98,86.95,96.5,85.525 Q95,84.1,94.5,83.625 Q94,83.15,94,82.675 Q94,82.2,91.5,81.25 Q89,80.3,88.5,80.3 Q88,80.3,86.5,77.925 Q85,75.55,84.5,74.125 Q84,72.7,85,68.9 Q86,65.1,87.5,63.2 Q89,61.3,90.5,62.725 Q92,64.15,92,64.625 Q92,65.1,95.5,66.05 Q99,67,100.5,63.2 Q102,59.4,100,59.875 Q98,60.35,95.5,57.975 Q93,55.6,96,53.225 Q99,50.85,98,49.9 Q97,48.95,99.5,46.575 Q102,44.2,111,42.3 Q120,40.4,117.5,48.475 Q115,56.55,115.5,57.025 Q116,57.5,115.5,59.4 Q115,61.3,112.5,62.25 Q110,63.2,111,64.625 Q112,66.05,114,67 Q116,67.95,119.5,66.05 Q123,64.15,123,67.95 Q123,71.75,125.5,72.7 Q128,73.65,130,71.75 Q132,69.85,135,67.475 Q138,65.1,141,60.825 Q144,56.55,145,59.875 Q146,63.2,145,65.1 Q144,67,142.5,67.475 Q141,67.95,144,68.9 Q147,69.85,150.5,72.7 Q154,75.55,142.5,80.3 Q131,85.05,130.5,86 Q130,86.95,128.5,86.475 Q127,86,127,82.675 Q127,79.35,122.5,83.15 Q118,86.95,118,89.325 Q118,91.7,120.5,93.6 Q123,95.5,120.5,98.825 Q118,102.15,117,101.2 Q116,100.25,115,100.25 Q114,100.25,114.5,97.875 Q115,95.5,114,94.55 Q113,93.6,111,93.6 Q109,93.6,108.5,93.6 Q108,93.6,108.5,93.125 Q109,92.65,110,90.75 Q111,88.85,110,87.425 Q109,86,109.5,83.15 Q110,80.3,111,80.775 Q112,81.25,113,79.35 Q114,77.45,112.5,76.975 Q111,76.5,111.5,75.075 Q112,73.65,112,72.225 Q112,70.8,111,70.325 Q110,69.85,110,69.85" fill="none" stroke="gold" stroke-width="0.5"/>
</g>
<g inkscape:groupmode="layer" inkscape:label="gold">
<path d="M95,159.15 Q95,159.15,95,157.725 Q95,156.3,93.5,156.3 Q92,156.3,90,155.35 Q88,154.4,88,152.975 Q88,151.55,89,151.55 Q90,151.55,90.5,151.55 Q91,151.55,91,152.5 Q91,153.45,91,152.025 Q91,150.6,91.5,150.125 Q92,149.65,92.5,149.65 Q93,149.65,93,150.125 Q93,150.6,93.5,150.125 Q94,149.65,95,149.175 Q96,148.7,96,147.275 Q96,145.85,96,145.375 Q96,144.9,96.5,144.425 Q97,143.95,97.5,143.95 Q98,143.95,98.5,143.475 Q99,143,99.5,143.475 Q100,143.95,99,144.9 Q98,145.85,98,147.75 Q98,149.65,98.5,151.55 Q99,153.45,99,153.925 Q99,154.4,99,155.825 Q99,157.25,98,156.775 Q97,156.3,96.5,156.3 Q96,156.3,96.5,155.825 Q97,155.35,97,154.875 Q97,154.4,97,153.45 Q97,152.5,99.5,151.55 Q102,150.6,102,149.175 Q102,147.75,103,146.8 Q104,145.85,104,145.375 Q104,144.9,103,144.9 Q102,144.9,102,143.475 Q102,142.05,101.5,142.05 Q101,142.05,100,141.575 Q99,141.1,100,140.15 Q101,139.2,100,138.725 Q99,138.25,98,136.35 Q97,134.45,97.5,133.975 Q98,133.5,97.5,133.025 Q97,132.55,96.5,132.075 Q96,131.6,94.5,132.075 Q93,132.55,92,131.125 Q91,129.7,91,129.225 Q91,128.75,91,128.275 Q91,127.8,91,127.325 Q91,126.85,90.5,127.8 Q90,128.75,89.5,129.7 Q89,130.65,88,129.7 Q87,128.75,87.5,127.8 Q88,126.85,89.5,125.9 Q91,124.95,91,124.475 Q91,124,89.5,124.95 Q88,125.9,87.5,125.425 Q87,124.95,87,125.425 Q87,125.9,86.5,126.375 Q86,126.85,85.5,126.375 Q85,125.9,84.5,125.425 Q84,124.95,83.5,124.95 Q83,124.95,82.5,125.9 Q82,126.85,80.5,126.375 Q79,125.9,78.5,125.9 Q78,125.9,76.5,126.375 Q75,126.85,74.5,127.325 Q74,127.8,72.5,127.325 Q71,126.85,72.5,128.275 Q74,129.7,74.5,130.175 Q75,130.65,76,131.6 Q77,132.55,76,133.5 Q75,134.45,75,135.875 Q75,137.3,73.5,138.25 Q72,139.2,72.5,138.25 Q73,137.3,73,136.825 Q73,136.35,71,133.5 Q69,130.65,68,131.125 Q67,131.6,63.5,128.75 Q60,125.9,63.5,133.025 Q67,140.15,68,140.15 Q69,140.15,71,141.1 Q73,142.05,73,142.525 Q73,143,73.5,142.525 Q74,142.05,75,143.475 Q76,144.9,77,143.475 Q78,142.05,78.5,141.1 Q79,140.15,80.5,140.625 Q82,141.1,82,140.15 Q82,139.2,81.5,139.2 Q81,139.2,80.5,137.3 Q80,135.4,78.5,134.925 Q77,134.45,78,132.55 Q79,130.65,79,130.175 Q79,129.7,80,129.7 Q81,129.7,82,129.225 Q83,128.75,83.5,129.225 Q84,129.7,85,131.6 Q86,133.5,85.5,133.975 Q85,134.45,85.5,136.35 Q86,138.25,85.5,138.25 Q85,138.25,86.5,138.725 Q88,139.2,88.5,138.725 Q89,138.25,88,138.25 Q87,138.25,87.5,137.775 Q88,137.3,88.5,136.825 Q89,136.35,88.5,135.875 Q88,135.4,88.5,134.45 Q89,133.5,89,134.45 Q89,135.4,90,135.875 Q91,136.35,91.5,136.825 Q92,137.3,92.5,138.25 Q93,139.2,93,138.725 Q93,138.25,93.5,137.3 Q94,136.35,94,134.925 Q94,133.5,94.5,133.975 Q95,134.45,96,135.875 Q97,137.3,96,138.725 Q95,140.15,95,141.1 Q95,142.05,93.5,143 Q92,143.95,92,144.425 Q92,144.9,91.5,145.375 Q91,145.85,90.5,146.325 Q90,146.8,89.5,145.85 Q89,144.9,90,143.95 Q91,143,90,142.525 Q89,142.05,88.5,142.05 Q88,142.05,88,141.575 Q88,141.1,87.5,141.1 Q87,141.1,86.5,141.575 Q86,142.05,86,143 Q86,143.95,86.5,145.375 Q87,146.8,86,145.85 Q85,144.9,83.5,145.85 Q82,146.8,81,145.85 Q80,144.9,76.5,148.225 Q73,151.55,72,151.55 Q71,151.55,73,153.45 Q75,155.35,76,153.925 Q77,152.5,78.5,152.025 Q80,151.55,82.5,150.6 Q85,149.65,86,149.65 Q87,149.65,86.5,151.55 Q86,153.45,86,153.925 Q86,154.4,84,154.4 Q82,154.4,83,155.825 Q84,157.25,85,157.725 Q86,158.2,86,159.625 Q86,161.05,83.5,162.95 Q81,164.85,82.5,166.75 Q84,168.65,85,166.275 Q86,163.9,87.5,163.9 Q89,163.9,90,164.375 Q91,164.85,92.5,164.85 Q94,164.85,92.5,163.425 Q91,162,91.5,161.525 Q92,161.05,92,160.575 Q92,160.1,93.5,159.625 Q95,159.15,95,159.15" fill="none" stroke="gold" stroke-width="0.5"/>
</g>
<g inkscape:groupmode="layer" inkscape:label="gold">
<path d="M199,166.75 Q199,166.75,199.5,167.7 Q200,168.65,198,168.175 Q196,167.7,195.5,168.65 Q195,169.6,194,170.075 Q193,170.55,193.5,169.125 Q194,167.7,193.5,165.8 Q193,163.9,194.5,162.95 Q196,162,193,161.525 Q190,161.05,189.5,161.525 Q189,162,188.5,162 Q188,162,188,160.575 Q188,159.15,187,160.1 Q186,161.05,186,163.425 Q186,165.8,185.5,166.275 Q185,166.75,184,166.275 Q183,165.8,182,166.275 Q181,166.75,179.5,168.175 Q178,169.6,178,167.7 Q178,165.8,178,164.375 Q178,162.95,176,162.95 Q174,162.95,173.5,162.95 Q173,162.95,172,163.425 Q171,163.9,171.5,162.95 Q172,162,172.5,161.525 Q173,161.05,173.5,161.525 Q174,162,174.5,160.1 Q175,158.2,176,156.775 Q177,155.35,177,156.775 Q177,158.2,177.5,158.675 Q178,159.15,178,160.1 Q178,161.05,179,160.1 Q180,159.15,179.5,157.725 Q179,156.3,180,155.825 Q181,155.35,181.5,155.35 Q182,155.35,183,153.45 Q184,151.55,183.5,151.075 Q183,150.6,183,151.075 Q183,151.55,182.5,152.5 Q182,153.45,181.5,153.45 Q181,153.45,180.5,153.45 Q180,153.45,180.5,152.975 Q181,152.5,180.5,152.025 Q180,151.55,179.5,150.125 Q179,148.7,179,148.225 Q179,147.75,178.5,147.75 Q178,147.75,177,147.275 Q176,146.8,176.5,147.75 Q177,148.7,177.5,148.7 Q178,148.7,177.5,149.65 Q177,150.6,176,151.55 Q175,152.5,174.5,152.025 Q174,151.55,173.5,152.5 Q173,153.45,173.5,153.925 Q174,154.4,172.5,155.825 Q171,157.25,169.5,159.625 Q168,162,168,162.475 Q168,162.95,167,163.9 Q166,164.85,165.5,165.325 Q165,165.8,165,166.275 Q165,166.75,165.5,166.75 Q166,166.75,167,166.75 Q168,166.75,169.5,166.75 Q171,166.75,172,167.225 Q173,167.7,173.5,168.65 Q174,169.6,173.5,170.075 Q173,170.55,172.5,171.5 Q172,172.45,172,172.925 Q172,173.4,171.5,174.825 Q171,176.25,170.5,174.825 Q170,173.4,168.5,172.45 Q167,171.5,167.5,172.925 Q168,174.35,168,175.775 Q168,177.2,168.5,177.675 Q169,178.15,171,177.675 Q173,177.2,172.5,177.675 Q172,178.15,171.5,179.1 Q171,180.05,170.5,182.425 Q170,184.8,173.5,187.175 Q177,189.55,177.5,187.175 Q178,184.8,179.5,185.75 Q181,186.7,183.5,185.75 Q186,184.8,186.5,181.475 Q187,178.15,186,178.625 Q185,179.1,183.5,179.1 Q182,179.1,181,177.675 Q180,176.25,179.5,176.725 Q179,177.2,177.5,175.775 Q176,174.35,177.5,173.875 Q179,173.4,180,172.45 Q181,171.5,182.5,171.5 Q184,171.5,184.5,171.975 Q185,172.45,185.5,172.925 Q186,173.4,186,170.55 Q186,167.7,187,168.175 Q188,168.65,189,170.075 Q190,171.5,189.5,172.45 Q189,173.4,189.5,174.35 Q190,175.3,193,177.675 Q196,180.05,197.5,177.675 Q199,175.3,202,171.975 Q205,168.65,203.5,168.175 Q202,167.7,201.5,167.225 Q201,166.75,201.5,166.275 Q202,165.8,200.5,165.325 Q199,164.85,199,165.8 Q199,166.75,199,166.75" fill="none" stroke="gold" stroke-width="0.5"/>
</g>
<g inkscape:groupmode="layer" inkscape:label="gold">
<path d="M86,110.7 Q86,110.7,87,111.175 Q88,111.65,88,111.175 Q88,110.7,88.5,110.225 Q89,109.75,89,109.275 Q89,108.8,89.5,109.275 Q90,109.75,90,110.225 Q90,110.7,90,111.65 Q90,112.6,90.5,112.6 Q91,112.6,91,114.025 Q91,115.45,90.5,115.925 Q90,116.4,90.5,116.875 Q91,117.35,92,116.4 Q93,115.45,93,114.025 Q93,112.6,93,111.65 Q93,110.7,94,112.125 Q95,113.55,96,113.55 Q97,113.55,97,114.5 Q97,115.45,97.5,115.925 Q98,116.4,96,117.35 Q94,118.3,92,118.775 Q90,119.25,90.5,120.675 Q91,122.1,90,121.625 Q89,121.15,88.5,119.725 Q88,118.3,87.5,117.825 Q87,117.35,86.5,117.825 Q86,118.3,85.5,117.825 Q85,117.35,84.5,117.35 Q84,117.35,84.5,117.825 Q85,118.3,85,119.25 Q85,120.2,84.5,120.2 Q84,120.2,83,121.15 Q82,122.1,82,121.625 Q82,121.15,80,120.675 Q78,120.2,77.5,120.2 Q77,120.2,76.5,119.25 Q76,118.3,77,120.675 Q78,123.05,77,123.05 Q76,123.05,74,123.05 Q72,123.05,70.5,123.05 Q69,123.05,69,118.775 Q69,114.5,66.5,115.45 Q64,116.4,62.5,114.025 Q61,111.65,63,111.65 Q65,111.65,66.5,111.65 Q68,111.65,69,111.65 Q70,111.65,72,111.175 Q74,110.7,73.5,109.75 Q73,108.8,72,108.8 Q71,108.8,69,105.95 Q67,103.1,67,102.15 Q67,101.2,68,100.725 Q69,100.25,69.5,98.825 Q70,97.4,70.5,99.775 Q71,102.15,72.5,103.575 Q74,105,75.5,103.575 Q77,102.15,77,103.1 Q77,104.05,76.5,102.625 Q76,101.2,77.5,99.775 Q79,98.35,79,97.4 Q79,96.45,80.5,95.5 Q82,94.55,80,93.6 Q78,92.65,76.5,94.55 Q75,96.45,73,95.975 Q71,95.5,72,94.075 Q73,92.65,71.5,92.175 Q70,91.7,66,92.65 Q62,93.6,58,87.9 Q54,82.2,59,83.625 Q64,85.05,66,83.15 Q68,81.25,66,74.6 Q64,67.95,68.5,69.375 Q73,70.8,73.5,72.7 Q74,74.6,73,76.975 Q72,79.35,72.5,79.825 Q73,80.3,72.5,81.725 Q72,83.15,73,84.1 Q74,85.05,76,85.05 Q78,85.05,78.5,84.575 Q79,84.1,80,84.575 Q81,85.05,82,83.625 Q83,82.2,83.5,83.625 Q84,85.05,83.5,85.05 Q83,85.05,80,86.95 Q77,88.85,79.5,88.85 Q82,88.85,83,88.375 Q84,87.9,86.5,87.9 Q89,87.9,91,87.9 Q93,87.9,93.5,87.425 Q94,86.95,94.5,87.9 Q95,88.85,94.5,89.325 Q94,89.8,94,91.225 Q94,92.65,93,93.6 Q92,94.55,91.5,94.075 Q91,93.6,91,92.175 Q91,90.75,89.5,91.7 Q88,92.65,86.5,94.55 Q85,96.45,83.5,96.925 Q82,97.4,82,97.875 Q82,98.35,82,98.825 Q82,99.3,81,98.825 Q80,98.35,79.5,100.25 Q79,102.15,80,102.15 Q81,102.15,81.5,102.15 Q82,102.15,83,102.625 Q84,103.1,85,101.2 Q86,99.3,87,98.35 Q88,97.4,89.5,96.925 Q91,96.45,91,97.875 Q91,99.3,91.5,99.3 Q92,99.3,93.5,99.3 Q95,99.3,96.5,102.15 Q98,105,99,104.525 Q100,104.05,99.5,103.1 Q99,102.15,98.5,100.725 Q98,99.3,99,98.35 Q100,97.4,99.5,96.925 Q99,96.45,98,95.975 Q97,95.5,97.5,95.5 Q98,95.5,99,95.025 Q100,94.55,100,94.075 Q100,93.6,99.5,93.125 Q99,92.65,100.5,92.65 Q102,92.65,102,93.6 Q102,94.55,102,95.5 Q102,96.45,103,96.45 Q104,96.45,104,98.35 Q104,100.25,103.5,102.625 Q103,105,105,103.1 Q107,101.2,107.5,101.675 Q108,102.15,108.5,102.15 Q109,102.15,109.5,102.15 Q110,102.15,110.5,102.15 Q111,102.15,110,104.525 Q109,106.9,106.5,107.375 Q104,107.85,102.5,110.7 Q101,113.55,99.5,113.55 Q98,113.55,97.5,113.075 Q97,112.6,97.5,111.175 Q98,109.75,97.5,109.75 Q97,109.75,97,109.275 Q97,108.8,96,106.9 Q95,105,94.5,105.475 Q94,105.95,94,106.425 Q94,106.9,93,106.425 Q92,105.95,92,105.475 Q92,105,92.5,104.525 Q93,104.05,92,103.575 Q91,103.1,90.5,103.1 Q90,103.1,89.5,101.675 Q89,100.25,88.5,102.15 Q88,104.05,86.5,105 Q85,105.95,84,105.95 Q83,105.95,82.5,106.9 Q82,107.85,81,107.375 Q80,106.9,80,109.275 Q80,111.65,79,110.7 Q78,109.75,76.5,110.225 Q75,110.7,74,112.125 Q73,113.55,74,114.025 Q75,114.5,76,115.45 Q77,116.4,77.5,116.4 Q78,116.4,79,117.35 Q80,118.3,81,117.825 Q82,117.35,82.5,116.875 Q83,116.4,83.5,115.45 Q84,114.5,84.5,113.55 Q85,112.6,84,112.125 Q83,111.65,83.5,110.7 Q84,109.75,83.5,109.75 Q83,109.75,84.5,110.225 Q86,110.7,86,110.7" fill="none" stroke="gold" stroke-width="0.5"/>
</g>
<g inkscape:groupmode="layer" inkscape:label="gold">
<path d="M131,171.5 Q131,171.5,130.5,172.925 Q130,174.35,128.5,175.3 Q127,176.25,126.5,176.725 Q126,177.2,125.5,181.475 Q125,185.75,123,182.9 Q121,180.05,121,177.675 Q121,175.3,120.5,174.825 Q120,174.35,117.5,174.825 Q115,175.3,115,177.2 Q115,179.1,114.5,179.575 Q114,180.05,113.5,183.375 Q113,186.7,110,183.375 Q107,180.05,105.5,178.15 Q104,176.25,103,173.4 Q102,170.55,103,169.125 Q104,167.7,104.5,167.225 Q105,166.75,103.5,167.7 Q102,168.65,98,171.5 Q94,174.35,94,174.825 Q94,175.3,93.5,176.25 Q93,177.2,92.5,173.4 Q92,169.6,94,167.7 Q96,165.8,97,166.275 Q98,166.75,98.5,164.85 Q99,162.95,102,161.525 Q105,160.1,105.5,161.525 Q106,162.95,106.5,163.425 Q107,163.9,107,162.475 Q107,161.05,107,160.575 Q107,160.1,108,161.05 Q109,162,112,162.475 Q115,162.95,113.5,163.9 Q112,164.85,111,164.375 Q110,163.9,110,165.8 Q110,167.7,110.5,167.7 Q111,167.7,111.5,167.7 Q112,167.7,114,167.225 Q116,166.75,116.5,164.85 Q117,162.95,118,163.9 Q119,164.85,120.5,164.85 Q122,164.85,123.5,164.375 Q125,163.9,124.5,163.425 Q124,162.95,124.5,161.525 Q125,160.1,125.5,160.1 Q126,160.1,126,159.625 Q126,159.15,127,158.675 Q128,158.2,128,157.725 Q128,157.25,127,156.3 Q126,155.35,125.5,155.35 Q125,155.35,124.5,155.35 Q124,155.35,125,156.3 Q126,157.25,125,157.25 Q124,157.25,123.5,157.25 Q123,157.25,121,159.15 Q119,161.05,118,161.05 Q117,161.05,116,159.625 Q115,158.2,114,158.2 Q113,158.2,112.5,156.3 Q112,154.4,112.5,154.875 Q113,155.35,113.5,155.825 Q114,156.3,113.5,155.35 Q113,154.4,113,153.925 Q113,153.45,113.5,152.5 Q114,151.55,114.5,150.6 Q115,149.65,116,150.6 Q117,151.55,119,150.6 Q121,149.65,121,149.175 Q121,148.7,120,148.7 Q119,148.7,120,148.225 Q121,147.75,123,147.275 Q125,146.8,124,145.375 Q123,143.95,122.5,143.95 Q122,143.95,120.5,144.9 Q119,145.85,117.5,146.325 Q116,146.8,115.5,146.325 Q115,145.85,115.5,147.275 Q116,148.7,115.5,148.7 Q115,148.7,114.5,148.7 Q114,148.7,112.5,149.175 Q111,149.65,111,150.125 Q111,150.6,111,151.075 Q111,151.55,110.5,151.55 Q110,151.55,109,151.55 Q108,151.55,107.5,151.55 Q107,151.55,107,152.5 Q107,153.45,107,154.4 Q107,155.35,106,155.35 Q105,155.35,104.5,154.4 Q104,153.45,103.5,152.5 Q103,151.55,104,150.125 Q105,148.7,105.5,149.175 Q106,149.65,106,148.7 Q106,147.75,106.5,147.75 Q107,147.75,108.5,147.75 Q110,147.75,110,148.7 Q110,149.65,108.5,149.65 Q107,149.65,107.5,150.125 Q108,150.6,109,152.5 Q110,154.4,109,154.4 Q108,154.4,107.5,155.35 Q107,156.3,107.5,156.3 Q108,156.3,109,155.825 Q110,155.35,110,155.825 Q110,156.3,109.5,156.775 Q109,157.25,109.5,157.25 Q110,157.25,111,157.725 Q112,158.2,114,157.725 Q116,157.25,117,155.825 Q118,154.4,118,154.875 Q118,155.35,118.5,155.825 Q119,156.3,119,155.825 Q119,155.35,119.5,154.4 Q120,153.45,121.5,152.5 Q123,151.55,123,152.5 Q123,153.45,124,152.025 Q125,150.6,126,150.125 Q127,149.65,127.5,149.65 Q128,149.65,128,150.125 Q128,150.6,128,151.075 Q128,151.55,128.5,152.975 Q129,154.4,129,155.35 Q129,156.3,129,157.25 Q129,158.2,129,159.15 Q129,160.1,129,160.575 Q129,161.05,129.5,160.1 Q130,159.15,131,159.15 Q132,159.15,132,158.2 Q132,157.25,131.5,155.825 Q131,154.4,131,153.925 Q131,153.45,131.5,152.5 Q132,151.55,131,151.075 Q130,150.6,129.5,149.65 Q129,148.7,129,148.225 Q129,147.75,128.5,147.275 Q128,146.8,128,147.275 Q128,147.75,126.5,146.325 Q125,144.9,125.5,144.425 Q126,143.95,127,143.475 Q128,143,128.5,143.475 Q129,143.95,130,143.95 Q131,143.95,131.5,143.95 Q132,143.95,131.5,144.9 Q131,145.85,132.5,146.8 Q134,147.75,134.5,148.7 Q135,149.65,135.5,150.6 Q136,151.55,136.5,153.45 Q137,155.35,136.5,155.35 Q136,155.35,134.5,155.825 Q133,156.3,134.5,157.25 Q136,158.2,136.5,158.2 Q137,158.2,137,159.15 Q137,160.1,136,159.625 Q135,159.15,134.5,159.625 Q134,160.1,133.5,160.575 Q133,161.05,133,161.525 Q133,162,133,162.475 Q133,162.95,130,162.95 Q127,162.95,128,164.375 Q129,165.8,129,166.275 Q129,166.75,130,166.75 Q131,166.75,131,168.175 Q131,169.6,130.5,169.6 Q130,169.6,129.5,169.6 Q129,169.6,128.5,168.175 Q128,166.75,125.5,166.75 Q123,166.75,122,166.75 Q121,166.75,119,166.75 Q117,166.75,116.5,167.225 Q116,167.7,115.5,168.175 Q115,168.65,113.5,169.125 Q112,169.6,111,171.025 Q110,172.45,111,173.4 Q112,174.35,112.5,173.875 Q113,173.4,116,172.925 Q119,172.45,119.5,171.025 Q120,169.6,120,168.65 Q120,167.7,121,168.175 Q122,168.65,123,168.65 Q124,168.65,122.5,169.6 Q121,170.55,121,171.025 Q121,171.5,120.5,172.45 Q120,173.4,121.5,173.875 Q123,174.35,123.5,174.35 Q124,174.35,125,173.875 Q126,173.4,126,172.45 Q126,171.5,127.5,171.5 Q129,171.5,130,171.5 Q131,171.5,131,171.5" fill="none" stroke="gold" stroke-width="0.5"/>
</g>
<g inkscape:groupmode="layer" inkscape:label="gold">
<path d="M156,165.8 Q156,165.8,156.5,166.275 Q157,166.75,157.5,166.275 Q158,165.8,158.5,165.8 Q159,165.8,159.5,164.85 Q160,163.9,160.5,163.425 Q161,162.95,162,163.425 Q163,163.9,162.5,164.85 Q162,165.8,161.5,166.275 Q161,166.75,159.5,167.7 Q158,168.65,159,168.65 Q160,168.65,160.5,168.65 Q161,168.65,161,168.175 Q161,167.7,161.5,167.7 Q162,167.7,162,168.175 Q162,168.65,162.5,169.6 Q163,170.55,163,171.025 Q163,171.5,163,172.45 Q163,173.4,164.5,173.4 Q166,173.4,166,174.35 Q166,175.3,165,174.825 Q164,174.35,163.5,174.825 Q163,175.3,161,174.35 Q159,173.4,158.5,172.925 Q158,172.45,158,172.925 Q158,173.4,157.5,173.875 Q157,174.35,156,175.3 Q155,176.25,156,177.2 Q157,178.15,156.5,176.25 Q156,174.35,156,173.875 Q156,173.4,156.5,171.5 Q157,169.6,155,170.55 Q153,171.5,153.5,171.5 Q154,171.5,153,171.025 Q152,170.55,151.5,170.55 Q151,170.55,150,170.55 Q149,170.55,148,170.075 Q147,169.6,146.5,169.6 Q146,169.6,145.5,170.075 Q145,170.55,144.5,170.075 Q144,169.6,144,168.65 Q144,167.7,143.5,167.7 Q143,167.7,143,169.125 Q143,170.55,141.5,171.025 Q140,171.5,139,171.025 Q138,170.55,138.5,171.5 Q139,172.45,139,173.4 Q139,174.35,139.5,173.875 Q140,173.4,141.5,173.4 Q143,173.4,142.5,173.875 Q142,174.35,141.5,174.825 Q141,175.3,141,178.15 Q141,181,142,180.525 Q143,180.05,144,180.525 Q145,181,145,180.05 Q145,179.1,146,177.675 Q147,176.25,149,175.775 Q151,175.3,151.5,177.2 Q152,179.1,151.5,180.05 Q151,181,152,181.475 Q153,181.95,154.5,181.95 Q156,181.95,158.5,180.05 Q161,178.15,163,178.625 Q165,179.1,165.5,179.1 Q166,179.1,166.5,180.525 Q167,181.95,166.5,181.95 Q166,181.95,165,181.95 Q164,181.95,163.5,181.475 Q163,181,163,183.375 Q163,185.75,163.5,186.225 Q164,186.7,164,187.65 Q164,188.6,161,187.65 Q158,186.7,157.5,188.6 Q157,190.5,157,190.975 Q157,191.45,153.5,190.975 Q150,190.5,147.5,192.4 Q145,194.3,141.5,195.25 Q138,196.2,135.5,195.25 Q133,194.3,130.5,190.025 Q128,185.75,129.5,183.375 Q131,181,132.5,182.425 Q134,183.85,134,182.425 Q134,181,133,179.1 Q132,177.2,133.5,174.35 Q135,171.5,136,171.025 Q137,170.55,136.5,170.075 Q136,169.6,136.5,169.125 Q137,168.65,137.5,168.65 Q138,168.65,137,167.7 Q136,166.75,135.5,166.275 Q135,165.8,135.5,165.8 Q136,165.8,138.5,166.275 Q141,166.75,142,165.325 Q143,163.9,143,163.425 Q143,162.95,142.5,162.95 Q142,162.95,140,162 Q138,161.05,138.5,160.575 Q139,160.1,140,159.625 Q141,159.15,142,159.625 Q143,160.1,142.5,160.1 Q142,160.1,142,160.575 Q142,161.05,142,161.525 Q142,162,143,162 Q144,162,145,162 Q146,162,146,161.05 Q146,160.1,146.5,160.575 Q147,161.05,147,162.95 Q147,164.85,147,165.325 Q147,165.8,147,167.225 Q147,168.65,149,167.7 Q151,166.75,152,167.225 Q153,167.7,153,167.225 Q153,166.75,152.5,164.85 Q152,162.95,154,162.95 Q156,162.95,156,163.9 Q156,164.85,156,165.325 Q156,165.8,156,165.8" fill="none" stroke="gold" stroke-width="0.5"/>
</g>
<g inkscape:groupmode="layer" inkscape:label="aquamarine">
<path d="M71,76.5 Q71,76.5,71,77.45 Q71,78.4,71.5,80.3 Q72,82.2,72,82.675 Q72,83.15,68.5,84.575 Q65,86,65,86.475 Q65,86.95,65.5,87.9 Q66,88.85,66.5,88.85 Q67,88.85,67,89.8 Q67,90.75,67.5,90.275 Q68,89.8,69.5,88.85 Q71,87.9,72.5,89.325 Q74,90.75,76,90.75 Q78,90.75,78,88.85 Q78,86.95,77,84.575 Q76,82.2,76,81.725 Q76,81.25,75,80.775 Q74,80.3,76,79.825 Q78,79.35,79.5,80.3 Q81,81.25,80.5,80.3 Q80,79.35,80,77.925 Q80,76.5,79,76.025 Q78,75.55,77.5,72.7 Q77,69.85,75.5,67.95 Q74,66.05,73.5,67 Q73,67.95,73,68.9 Q73,69.85,70.5,69.375 Q68,68.9,67.5,69.85 Q67,70.8,66.5,69.375 Q66,67.95,66,66.525 Q66,65.1,68,65.1 Q70,65.1,69.5,62.725 Q69,60.35,69.5,60.825 Q70,61.3,70.5,61.775 Q71,62.25,72.5,61.775 Q74,61.3,74.5,58.45 Q75,55.6,76.5,56.075 Q78,56.55,81.5,58.925 Q85,61.3,83.5,62.25 Q82,63.2,82,63.675 Q82,64.15,79.5,64.15 Q77,64.15,77.5,65.575 Q78,67,78.5,66.525 Q79,66.05,80,67 Q81,67.95,82.5,66.525 Q84,65.1,84.5,66.05 Q85,67,85.5,67.475 Q86,67.95,86,66.525 Q86,65.1,87.5,66.05 Q89,67,89.5,67.475 Q90,67.95,89.5,68.9 Q89,69.85,89,70.8 Q89,71.75,88.5,71.75 Q88,71.75,87.5,71.75 Q87,71.75,87,72.7 Q87,73.65,86.5,73.65 Q86,73.65,85,72.7 Q84,71.75,83.5,71.75 Q83,71.75,82.5,70.8 Q82,69.85,81.5,70.8 Q81,71.75,81,72.225 Q81,72.7,83,73.65 Q85,74.6,85.5,74.6 Q86,74.6,86,75.075 Q86,75.55,87.5,75.55 Q89,75.55,89.5,75.075 Q90,74.6,91,73.65 Q92,72.7,93,71.75 Q94,70.8,94.5,73.65 Q95,76.5,93.5,76.025 Q92,75.55,90,76.025 Q88,76.5,87.5,77.45 Q87,78.4,86,79.35 Q85,80.3,84,80.3 Q83,80.3,82.5,80.775 Q82,81.25,82,81.725 Q82,82.2,83.5,83.625 Q85,85.05,85.5,85.525 Q86,86,87,85.05 Q88,84.1,88.5,84.575 Q89,85.05,89,84.575 Q89,84.1,88,83.15 Q87,82.2,87,80.775 Q87,79.35,88.5,79.35 Q90,79.35,91,80.3 Q92,81.25,91.5,82.2 Q91,83.15,91.5,83.15 Q92,83.15,92,83.625 Q92,84.1,92,85.05 Q92,86,91.5,85.525 Q91,85.05,90.5,85.525 Q90,86,89.5,87.425 Q89,88.85,89.5,90.275 Q90,91.7,89.5,91.225 Q89,90.75,88.5,90.75 Q88,90.75,88,89.8 Q88,88.85,88,88.375 Q88,87.9,86.5,88.375 Q85,88.85,84.5,89.325 Q84,89.8,82.5,89.325 Q81,88.85,80.5,89.325 Q80,89.8,82.5,91.225 Q85,92.65,85.5,92.65 Q86,92.65,87,93.6 Q88,94.55,87,95.025 Q86,95.5,85.5,95.025 Q85,94.55,85,95.025 Q85,95.5,84.5,95.5 Q84,95.5,83,95.975 Q82,96.45,81,94.075 Q80,91.7,79.5,92.65 Q79,93.6,78.5,94.075 Q78,94.55,77,94.075 Q76,93.6,76,94.55 Q76,95.5,75,96.45 Q74,97.4,74,96.45 Q74,95.5,74,95.025 Q74,94.55,71,94.075 Q68,93.6,67,95.5 Q66,97.4,64.5,96.45 Q63,95.5,62.5,94.55 Q62,93.6,59.5,91.225 Q57,88.85,58,82.675 Q59,76.5,61.5,76.975 Q64,77.45,64.5,76.5 Q65,75.55,66.5,75.55 Q68,75.55,69,76.025 Q70,76.5,70.5,76.5 Q71,76.5,71,76.5" fill="none" stroke="aquamarine" stroke-width="0.5"/>
</g>
<g inkscape:groupmode="layer" inkscape:label="aquamarine">
<path d="M95,82.2 Q95,82.2,95,83.15 Q95,84.1,94.5,85.05 Q94,86,94,86.475 Q94,86.95,94.5,87.425 Q95,87.9,94,88.85 Q93,89.8,92.5,89.8 Q92,89.8,92.5,90.75 Q93,91.7,92,92.175 Q91,92.65,91,93.125 Q91,93.6,90.5,94.075 Q90,94.55,90,95.5 Q90,96.45,90.5,95.975 Q91,95.5,91.5,95.975 Q92,96.45,93,96.45 Q94,96.45,95,96.45 Q96,96.45,96.5,97.875 Q97,99.3,99,100.25 Q101,101.2,101,100.25 Q101,99.3,100.5,97.875 Q100,96.45,101,95.975 Q102,95.5,103,94.55 Q104,93.6,105.5,94.075 Q107,94.55,107.5,95.5 Q108,96.45,110,96.925 Q112,97.4,110.5,97.875 Q109,98.35,109,99.775 Q109,101.2,107.5,100.725 Q106,100.25,104.5,100.725 Q103,101.2,104.5,104.525 Q106,107.85,108,108.8 Q110,109.75,111.5,107.375 Q113,105,112.5,103.575 Q112,102.15,113,100.725 Q114,99.3,115,100.25 Q116,101.2,117,100.725 Q118,100.25,118.5,101.675 Q119,103.1,120.5,102.15 Q122,101.2,121,99.3 Q120,97.4,119,98.35 Q118,99.3,118,98.35 Q118,97.4,118.5,95.975 Q119,94.55,121.5,93.125 Q124,91.7,127.5,90.75 Q131,89.8,126.5,88.85 Q122,87.9,121.5,87.425 Q121,86.95,120,86.475 Q119,86,121.5,85.525 Q124,85.05,123,82.675 Q122,80.3,121.5,79.825 Q121,79.35,121,78.4 Q121,77.45,119,76.975 Q117,76.5,117,75.55 Q117,74.6,116,75.55 Q115,76.5,114,75.075 Q113,73.65,112.5,75.55 Q112,77.45,110.5,77.45 Q109,77.45,110.5,78.4 Q112,79.35,112.5,79.35 Q113,79.35,114,78.875 Q115,78.4,116,78.4 Q117,78.4,116,79.35 Q115,80.3,115.5,81.725 Q116,83.15,115.5,83.15 Q115,83.15,115,84.1 Q115,85.05,114.5,85.525 Q114,86,114,86.475 Q114,86.95,114.5,87.425 Q115,87.9,114.5,88.85 Q114,89.8,114.5,92.65 Q115,95.5,113.5,94.075 Q112,92.65,112,92.175 Q112,91.7,112.5,91.225 Q113,90.75,112.5,89.8 Q112,88.85,111.5,87.9 Q111,86.95,110.5,86.475 Q110,86,110,85.525 Q110,85.05,109,85.525 Q108,86,108,85.525 Q108,85.05,107.5,85.05 Q107,85.05,107,85.525 Q107,86,108,87.425 Q109,88.85,108,88.85 Q107,88.85,105.5,89.325 Q104,89.8,104,90.275 Q104,90.75,102.5,91.7 Q101,92.65,100,92.65 Q99,92.65,98.5,91.225 Q98,89.8,99.5,90.275 Q101,90.75,99.5,89.325 Q98,87.9,98.5,87.425 Q99,86.95,99,85.525 Q99,84.1,99.5,83.625 Q100,83.15,100,82.675 Q100,82.2,100,81.725 Q100,81.25,100,80.775 Q100,80.3,100,79.825 Q100,79.35,100,78.4 Q100,77.45,100,76.975 Q100,76.5,99,75.55 Q98,74.6,97.5,74.125 Q97,73.65,99,73.65 Q101,73.65,101.5,74.125 Q102,74.6,103.5,74.6 Q105,74.6,105.5,75.075 Q106,75.55,106.5,76.975 Q107,78.4,107.5,79.35 Q108,80.3,107.5,81.25 Q107,82.2,106,81.725 Q105,81.25,104.5,82.675 Q104,84.1,103.5,83.15 Q103,82.2,103.5,81.725 Q104,81.25,104.5,80.775 Q105,80.3,104.5,79.825 Q104,79.35,103.5,78.875 Q103,78.4,103.5,77.45 Q104,76.5,103,76.975 Q102,77.45,101.5,76.975 Q101,76.5,101,78.4 Q101,80.3,99,80.775 Q97,81.25,97,80.775 Q97,80.3,97.5,79.825 Q98,79.35,98,78.875 Q98,78.4,97,78.4 Q96,78.4,95,79.825 Q94,81.25,94.5,81.725 Q95,82.2,95,82.2" fill="none" stroke="aquamarine" stroke-width="0.5"/>
</g>
<g inkscape:groupmode="layer" inkscape:label="aquamarine">
<path d="M197,50.85 Q197,50.85,198.5,52.275 Q200,53.7,201.5,51.8 Q203,49.9,205.5,51.8 Q208,53.7,209.5,53.7 Q211,53.7,212.5,54.175 Q214,54.65,214.5,55.6 Q215,56.55,214,57.5 Q213,58.45,211.5,57.975 Q210,57.5,210,59.875 Q210,62.25,208.5,63.2 Q207,64.15,205.5,64.15 Q204,64.15,202.5,65.575 Q201,67,201.5,65.575 Q202,64.15,202,63.675 Q202,63.2,201.5,63.2 Q201,63.2,200.5,60.825 Q200,58.45,199,58.45 Q198,58.45,198,60.35 Q198,62.25,197.5,63.2 Q197,64.15,197,64.625 Q197,65.1,197.5,65.575 Q198,66.05,197,67 Q196,67.95,195.5,67.95 Q195,67.95,194,68.425 Q193,68.9,191.5,68.425 Q190,67.95,191,66.05 Q192,64.15,191,63.2 Q190,62.25,189.5,61.775 Q189,61.3,188,61.3 Q187,61.3,187,61.775 Q187,62.25,186,62.25 Q185,62.25,184,62.25 Q183,62.25,184,62.725 Q185,63.2,185,64.15 Q185,65.1,185,65.575 Q185,66.05,186,67.475 Q187,68.9,186,68.425 Q185,67.95,183.5,68.425 Q182,68.9,180.5,68.425 Q179,67.95,178.5,67 Q178,66.05,179,64.625 Q180,63.2,179,62.25 Q178,61.3,177.5,60.35 Q177,59.4,176.5,59.875 Q176,60.35,175.5,61.3 Q175,62.25,175,60.825 Q175,59.4,174.5,59.875 Q174,60.35,173,59.875 Q172,59.4,171.5,60.35 Q171,61.3,171.5,62.25 Q172,63.2,171.5,63.675 Q171,64.15,170.5,64.15 Q170,64.15,171.5,65.1 Q173,66.05,172,66.525 Q171,67,171,67.95 Q171,68.9,170.5,70.8 Q170,72.7,170,73.65 Q170,74.6,170.5,74.125 Q171,73.65,172,73.65 Q173,73.65,172.5,74.125 Q172,74.6,171.5,76.5 Q171,78.4,175,78.4 Q179,78.4,179.5,76.5 Q180,74.6,182,73.175 Q184,71.75,185.5,71.75 Q187,71.75,188.5,72.225 Q190,72.7,190,75.075 Q190,77.45,192,76.975 Q194,76.5,193,74.6 Q192,72.7,194,73.175 Q196,73.65,195.5,73.175 Q195,72.7,195,71.75 Q195,70.8,197,69.85 Q199,68.9,200,72.225 Q201,75.55,201.5,74.6 Q202,73.65,204,73.175 Q206,72.7,206.5,71.75 Q207,70.8,208,73.65 Q209,76.5,210.5,73.175 Q212,69.85,213,69.85 Q214,69.85,215,67.475 Q216,65.1,218,63.675 Q220,62.25,222.5,60.825 Q225,59.4,227,59.4 Q229,59.4,224.5,50.85 Q220,42.3,215.5,46.1 Q211,49.9,210,49.9 Q209,49.9,206.5,48.95 Q204,48,203,48 Q202,48,202,46.575 Q202,45.15,201,45.625 Q200,46.1,199.5,46.1 Q199,46.1,196.5,46.575 Q194,47.05,194,46.1 Q194,45.15,195,44.2 Q196,43.25,196.5,43.25 Q197,43.25,196,40.4 Q195,37.55,199,34.7 Q203,31.85,197.5,32.8 Q192,33.75,191,33.275 Q190,32.8,190.5,34.7 Q191,36.6,192,37.55 Q193,38.5,193,38.975 Q193,39.45,191,39.45 Q189,39.45,188,39.925 Q187,40.4,186,39.45 Q185,38.5,184.5,38.975 Q184,39.45,183.5,38.975 Q183,38.5,182.5,39.45 Q182,40.4,182,40.875 Q182,41.35,182.5,42.3 Q183,43.25,183,43.725 Q183,44.2,182.5,46.1 Q182,48,180.5,48.475 Q179,48.95,178,48 Q177,47.05,176,48 Q175,48.95,174,50.375 Q173,51.8,173,52.275 Q173,52.75,172,53.7 Q171,54.65,171.5,55.125 Q172,55.6,172.5,55.6 Q173,55.6,175,56.55 Q177,57.5,177,57.025 Q177,56.55,178.5,56.075 Q180,55.6,179,55.125 Q178,54.65,176.5,53.225 Q175,51.8,175,51.325 Q175,50.85,176.5,50.85 Q178,50.85,178.5,50.85 Q179,50.85,179.5,50.85 Q180,50.85,180.5,51.8 Q181,52.75,181.5,53.225 Q182,53.7,182,54.175 Q182,54.65,181.5,55.125 Q181,55.6,181,56.55 Q181,57.5,181.5,57.025 Q182,56.55,184,57.5 Q186,58.45,187.5,58.45 Q189,58.45,189.5,56.075 Q190,53.7,187,52.75 Q184,51.8,184,50.375 Q184,48.95,185,48 Q186,47.05,187,45.625 Q188,44.2,188.5,46.1 Q189,48,189,49.425 Q189,50.85,190,51.325 Q191,51.8,192,54.175 Q193,56.55,193.5,55.125 Q194,53.7,194.5,52.275 Q195,50.85,195.5,51.325 Q196,51.8,196.5,51.325 Q197,50.85,197,50.85" fill="none" stroke="aquamarine" stroke-width="0.5"/>
</g>
<g inkscape:groupmode="layer" inkscape:label="aquamarine">
<path d="M157,53.7 Q157,53.7,157,54.175 Q157,54.65,156.5,55.125 Q156,55.6,155.5,55.6 Q155,55.6,156,56.55 Q157,57.5,157,57.025 Q157,56.55,157.5,56.075 Q158,55.6,159,55.6 Q160,55.6,160,54.65 Q160,53.7,160,53.225 Q160,52.75,160.5,53.225 Q161,53.7,161.5,54.65 Q162,55.6,161.5,56.075 Q161,56.55,160,57.975 Q159,59.4,160,59.4 Q161,59.4,161,59.875 Q161,60.35,161.5,60.35 Q162,60.35,162.5,59.4 Q163,58.45,164.5,58.925 Q166,59.4,166,58.925 Q166,58.45,167,58.45 Q168,58.45,167,59.4 Q166,60.35,166,61.775 Q166,63.2,167,66.525 Q168,69.85,167.5,69.85 Q167,69.85,165.5,69.85 Q164,69.85,162,69.85 Q160,69.85,159.5,70.325 Q159,70.8,159.5,72.225 Q160,73.65,162,76.975 Q164,80.3,159.5,80.3 Q155,80.3,156.5,78.875 Q158,77.45,158.5,76.5 Q159,75.55,158,75.075 Q157,74.6,156,72.225 Q155,69.85,155,67.95 Q155,66.05,155.5,64.15 Q156,62.25,158,62.725 Q160,63.2,159,62.25 Q158,61.3,157,60.825 Q156,60.35,155.5,61.3 Q155,62.25,152,59.875 Q149,57.5,148,58.45 Q147,59.4,146.5,59.875 Q146,60.35,145.5,59.875 Q145,59.4,144.5,60.825 Q144,62.25,144,62.725 Q144,63.2,143,62.25 Q142,61.3,140.5,60.825 Q139,60.35,140,61.3 Q141,62.25,141,63.2 Q141,64.15,140.5,64.15 Q140,64.15,138.5,66.525 Q137,68.9,136.5,69.85 Q136,70.8,138,69.375 Q140,67.95,142,68.425 Q144,68.9,145,67 Q146,65.1,147,66.05 Q148,67,149.5,66.05 Q151,65.1,151,66.05 Q151,67,150.5,70.325 Q150,73.65,147,75.075 Q144,76.5,144.5,76.975 Q145,77.45,144,78.875 Q143,80.3,137.5,80.3 Q132,80.3,130.5,77.925 Q129,75.55,128.5,73.175 Q128,70.8,130,68.9 Q132,67,132,66.525 Q132,66.05,132,65.575 Q132,65.1,131,65.1 Q130,65.1,129.5,65.1 Q129,65.1,129,63.2 Q129,61.3,129.5,61.3 Q130,61.3,131,62.25 Q132,63.2,132,62.25 Q132,61.3,132,60.825 Q132,60.35,133.5,60.35 Q135,60.35,134,59.4 Q133,58.45,133.5,57.975 Q134,57.5,134,57.025 Q134,56.55,134.5,56.55 Q135,56.55,135.5,56.55 Q136,56.55,135.5,55.125 Q135,53.7,135.5,52.75 Q136,51.8,136.5,52.275 Q137,52.75,137,53.225 Q137,53.7,138,54.175 Q139,54.65,139,53.7 Q139,52.75,138.5,52.75 Q138,52.75,138.5,51.325 Q139,49.9,139.5,50.85 Q140,51.8,140.5,52.275 Q141,52.75,141,53.7 Q141,54.65,141,56.075 Q141,57.5,141.5,57.975 Q142,58.45,142,57.025 Q142,55.6,143,55.125 Q144,54.65,144,55.125 Q144,55.6,144.5,56.075 Q145,56.55,145.5,56.075 Q146,55.6,145.5,54.65 Q145,53.7,144.5,53.225 Q144,52.75,144,51.325 Q144,49.9,144,49.425 Q144,48.95,143,49.425 Q142,49.9,141.5,49.425 Q141,48.95,141.5,48.95 Q142,48.95,142.5,48 Q143,47.05,143,46.1 Q143,45.15,144.5,45.625 Q146,46.1,146.5,46.1 Q147,46.1,146,46.575 Q145,47.05,145,47.525 Q145,48,145.5,48.95 Q146,49.9,148,50.85 Q150,51.8,150.5,51.8 Q151,51.8,151.5,51.8 Q152,51.8,151.5,51.325 Q151,50.85,150,49.9 Q149,48.95,149,48.475 Q149,48,150,48 Q151,48,152.5,48.95 Q154,49.9,154.5,50.85 Q155,51.8,156,52.75 Q157,53.7,157,53.7" fill="none" stroke="aquamarine" stroke-width="0.5"/>
</g>
<g inkscape:groupmode="layer" inkscape:label="aquamarine">
<path d="M149,143 Q149,143,150,137.775 Q151,132.55,148,133.5 Q145,134.45,144.5,131.6 Q144,128.75,141,129.225 Q138,129.7,138.5,131.125 Q139,132.55,137.5,132.55 Q136,132.55,133,132.55 Q130,132.55,128.5,130.65 Q127,128.75,126.5,133.025 Q126,137.3,127,139.2 Q128,141.1,125.5,142.05 Q123,143,121.5,138.725 Q120,134.45,119,133.5 Q118,132.55,118.5,131.125 Q119,129.7,116,128.275 Q113,126.85,112,127.325 Q111,127.8,111.5,126.375 Q112,124.95,119,124.475 Q126,124,123,119.25 Q120,114.5,116,114.5 Q112,114.5,111.5,113.55 Q111,112.6,110.5,113.075 Q110,113.55,110.5,115.45 Q111,117.35,112.5,119.25 Q114,121.15,112.5,120.2 Q111,119.25,109,118.775 Q107,118.3,106.5,121.15 Q106,124,108,124.475 Q110,124.95,109.5,125.425 Q109,125.9,107,127.8 Q105,129.7,104,129.7 Q103,129.7,102,130.175 Q101,130.65,99.5,131.6 Q98,132.55,99.5,132.075 Q101,131.6,102,132.075 Q103,132.55,102.5,134.925 Q102,137.3,101,137.775 Q100,138.25,97,139.675 Q94,141.1,97.5,142.525 Q101,143.95,103.5,143 Q106,142.05,107,139.675 Q108,137.3,108.5,137.775 Q109,138.25,110,140.15 Q111,142.05,111.5,142.525 Q112,143,113,142.525 Q114,142.05,114.5,143.95 Q115,145.85,115,146.325 Q115,146.8,108.5,149.65 Q102,152.5,106,153.45 Q110,154.4,114,152.5 Q118,150.6,119,152.5 Q120,154.4,122,153.925 Q124,153.45,125.5,153.925 Q127,154.4,128.5,150.125 Q130,145.85,132.5,148.225 Q135,150.6,136.5,150.6 Q138,150.6,138.5,149.175 Q139,147.75,140.5,146.325 Q142,144.9,144,150.125 Q146,155.35,151.5,151.55 Q157,147.75,153,145.375 Q149,143,149,143" fill="none" stroke="aquamarine" stroke-width="0.5"/>
</g>
<g inkscape:groupmode="layer" inkscape:label="aquamarine">
<path d="M164,29.95 Q164,29.95,165.5,28.525 Q167,27.1,165.5,26.15 Q164,25.2,163,22.35 Q162,19.5,160.5,19.025 Q159,18.55,161,18.075 Q163,17.6,165.5,20.925 Q168,24.25,169.5,24.25 Q171,24.25,174,24.725 Q177,25.2,178.5,25.675 Q180,26.15,181.5,28.05 Q183,29.95,183,30.425 Q183,30.9,183.5,31.375 Q184,31.85,183,34.225 Q182,36.6,181.5,35.65 Q181,34.7,180.5,33.275 Q180,31.85,178,31.85 Q176,31.85,176.5,32.8 Q177,33.75,177,35.175 Q177,36.6,177,38.025 Q177,39.45,177.5,41.35 Q178,43.25,175,41.35 Q172,39.45,172,38.975 Q172,38.5,171.5,37.55 Q171,36.6,171,36.125 Q171,35.65,171.5,35.65 Q172,35.65,172,35.175 Q172,34.7,170,31.85 Q168,29,167.5,29.475 Q167,29.95,165.5,30.9 Q164,31.85,162.5,32.8 Q161,33.75,160,33.275 Q159,32.8,157.5,33.275 Q156,33.75,155,33.75 Q154,33.75,153.5,34.7 Q153,35.65,154,36.6 Q155,37.55,156,39.925 Q157,42.3,158.5,40.875 Q160,39.45,159,38.5 Q158,37.55,157.5,36.6 Q157,35.65,157.5,35.175 Q158,34.7,159,35.175 Q160,35.65,160.5,36.125 Q161,36.6,162,37.075 Q163,37.55,162.5,38.025 Q162,38.5,162,39.45 Q162,40.4,162,41.35 Q162,42.3,160.5,42.775 Q159,43.25,159.5,43.725 Q160,44.2,160.5,45.15 Q161,46.1,161.5,46.575 Q162,47.05,162.5,45.625 Q163,44.2,164.5,42.775 Q166,41.35,166,42.775 Q166,44.2,165,45.15 Q164,46.1,164,46.575 Q164,47.05,164.5,48 Q165,48.95,165.5,48.475 Q166,48,166,47.525 Q166,47.05,166.5,46.575 Q167,46.1,167.5,45.625 Q168,45.15,168.5,44.675 Q169,44.2,170,45.15 Q171,46.1,172.5,46.1 Q174,46.1,175,46.1 Q176,46.1,175,47.525 Q174,48.95,173,48 Q172,47.05,170.5,46.575 Q169,46.1,168,46.575 Q167,47.05,167.5,47.525 Q168,48,167.5,48.95 Q167,49.9,168.5,49.9 Q170,49.9,170.5,50.85 Q171,51.8,170.5,52.75 Q170,53.7,169.5,53.7 Q169,53.7,168,53.7 Q167,53.7,167,54.65 Q167,55.6,166,55.125 Q165,54.65,164.5,54.175 Q164,53.7,164.5,52.75 Q165,51.8,164,50.85 Q163,49.9,162.5,50.375 Q162,50.85,161.5,50.85 Q161,50.85,160,51.325 Q159,51.8,157.5,50.375 Q156,48.95,156.5,48.475 Q157,48,157,47.525 Q157,47.05,156,46.575 Q155,46.1,155,45.625 Q155,45.15,154.5,45.625 Q154,46.1,153.5,46.575 Q153,47.05,152.5,46.575 Q152,46.1,153,45.625 Q154,45.15,154,43.725 Q154,42.3,152.5,41.35 Q151,40.4,150,40.4 Q149,40.4,150,38.5 Q151,36.6,149.5,37.075 Q148,37.55,147,38.025 Q146,38.5,146.5,38.975 Q147,39.45,147,39.925 Q147,40.4,147,40.875 Q147,41.35,148,41.35 Q149,41.35,148.5,41.825 Q148,42.3,147,43.25 Q146,44.2,145.5,42.775 Q145,41.35,144.5,40.875 Q144,40.4,144.5,39.925 Q145,39.45,144.5,38.975 Q144,38.5,144,38.025 Q144,37.55,144.5,37.55 Q145,37.55,145,36.125 Q145,34.7,146.5,35.175 Q148,35.65,150,35.175 Q152,34.7,153,33.75 Q154,32.8,152,30.9 Q150,29,149.5,29 Q149,29,148.5,27.1 Q148,25.2,147,25.675 Q146,26.15,145,25.675 Q144,25.2,143.5,25.2 Q143,25.2,143,22.35 Q143,19.5,145.5,18.55 Q148,17.6,148.5,17.6 Q149,17.6,150.5,22.35 Q152,27.1,154,28.05 Q156,29,156,29.475 Q156,29.95,157.5,29.95 Q159,29.95,161.5,29.95 Q164,29.95,164,29.95" fill="none" stroke="aquamarine" stroke-width="0.5"/>
</g>
<g inkscape:groupmode="layer" inkscape:label="aquamarine">
<path d="M100,49.9 Q100,49.9,100.5,49.425 Q101,48.95,98.5,48 Q96,47.05,96.5,44.675 Q97,42.3,97.5,41.825 Q98,41.35,96.5,39.45 Q95,37.55,94.5,36.125 Q94,34.7,97,33.75 Q100,32.8,102.5,37.075 Q105,41.35,106.5,41.35 Q108,41.35,108.5,42.3 Q109,43.25,108.5,44.675 Q108,46.1,108.5,46.1 Q109,46.1,109.5,46.575 Q110,47.05,110,47.525 Q110,48,109,48 Q108,48,107.5,48 Q107,48,105.5,47.05 Q104,46.1,103,44.2 Q102,42.3,101.5,41.35 Q101,40.4,101,40.875 Q101,41.35,100,42.775 Q99,44.2,101.5,45.625 Q104,47.05,104,48.475 Q104,49.9,104,50.375 Q104,50.85,104.5,50.375 Q105,49.9,105,50.85 Q105,51.8,104.5,52.275 Q104,52.75,103.5,52.75 Q103,52.75,102,52.75 Q101,52.75,101.5,55.125 Q102,57.5,102.5,58.925 Q103,60.35,103.5,60.35 Q104,60.35,104,61.3 Q104,62.25,104,63.675 Q104,65.1,105,64.625 Q106,64.15,106.5,64.15 Q107,64.15,108,64.625 Q109,65.1,109,64.625 Q109,64.15,109,63.675 Q109,63.2,108.5,62.725 Q108,62.25,108,61.775 Q108,61.3,107.5,61.3 Q107,61.3,106.5,61.3 Q106,61.3,106.5,60.825 Q107,60.35,107,59.875 Q107,59.4,105.5,59.4 Q104,59.4,103.5,58.45 Q103,57.5,103.5,57.025 Q104,56.55,103.5,55.6 Q103,54.65,104,54.65 Q105,54.65,106,56.075 Q107,57.5,108,58.45 Q109,59.4,110.5,59.4 Q112,59.4,112,59.875 Q112,60.35,112,60.825 Q112,61.3,113,60.825 Q114,60.35,116,59.4 Q118,58.45,118,59.4 Q118,60.35,118.5,61.3 Q119,62.25,119.5,63.2 Q120,64.15,120.5,63.675 Q121,63.2,121.5,63.675 Q122,64.15,122.5,64.625 Q123,65.1,121.5,65.575 Q120,66.05,119.5,67 Q119,67.95,118,69.375 Q117,70.8,116.5,71.275 Q116,71.75,117.5,71.75 Q119,71.75,120.5,71.75 Q122,71.75,122.5,71.75 Q123,71.75,123.5,70.8 Q124,69.85,124,67.475 Q124,65.1,124.5,64.625 Q125,64.15,124,63.675 Q123,63.2,122.5,62.725 Q122,62.25,123,61.775 Q124,61.3,124,60.825 Q124,60.35,122.5,59.4 Q121,58.45,120.5,57.025 Q120,55.6,120,55.125 Q120,54.65,118.5,54.65 Q117,54.65,116,55.125 Q115,55.6,115,55.125 Q115,54.65,115,54.175 Q115,53.7,114.5,50.85 Q114,48,113.5,50.375 Q113,52.75,112,54.65 Q111,56.55,111.5,56.55 Q112,56.55,113,57.5 Q114,58.45,115,59.875 Q116,61.3,116,61.775 Q116,62.25,116,63.2 Q116,64.15,115.5,65.575 Q115,67,113.5,66.05 Q112,65.1,113,64.15 Q114,63.2,113.5,62.725 Q113,62.25,112.5,62.25 Q112,62.25,111.5,62.725 Q111,63.2,111,63.675 Q111,64.15,111.5,65.1 Q112,66.05,112,67 Q112,67.95,111.5,69.85 Q111,71.75,110.5,71.275 Q110,70.8,109,70.8 Q108,70.8,108.5,69.375 Q109,67.95,109,67 Q109,66.05,109.5,66.525 Q110,67,107.5,67.95 Q105,68.9,105,69.85 Q105,70.8,104,70.8 Q103,70.8,103,69.85 Q103,68.9,101.5,69.85 Q100,70.8,99.5,71.75 Q99,72.7,99,70.8 Q99,68.9,99,67.475 Q99,66.05,100.5,65.1 Q102,64.15,99.5,62.725 Q97,61.3,97.5,62.25 Q98,63.2,98,64.15 Q98,65.1,98,65.575 Q98,66.05,98,66.525 Q98,67,96.5,66.05 Q95,65.1,95.5,66.05 Q96,67,95.5,67 Q95,67,93.5,67 Q92,67,90,65.1 Q88,63.2,87,61.775 Q86,60.35,87.5,59.4 Q89,58.45,88.5,56.55 Q88,54.65,88,54.175 Q88,53.7,85.5,53.225 Q83,52.75,81,51.8 Q79,50.85,83,48.95 Q87,47.05,89.5,45.625 Q92,44.2,92.5,46.1 Q93,48,93,48.475 Q93,48.95,93.5,51.325 Q94,53.7,95,54.175 Q96,54.65,96,55.125 Q96,55.6,96.5,55.6 Q97,55.6,98,55.6 Q99,55.6,97.5,56.55 Q96,57.5,95.5,57.5 Q95,57.5,94.5,57.025 Q94,56.55,93.5,56.075 Q93,55.6,92,55.125 Q91,54.65,91.5,53.7 Q92,52.75,93,51.8 Q94,50.85,95,50.85 Q96,50.85,96.5,50.85 Q97,50.85,98.5,50.375 Q100,49.9,100,49.9" fill="none" stroke="aquamarine" stroke-width="0.5"/>
</g>
<g inkscape:groupmode="layer" inkscape:label="aquamarine">
<path d="M101,105.95 Q101,105.95,102,106.425 Q103,106.9,101.5,109.275 Q100,111.65,100.5,112.125 Q101,112.6,101.5,113.075 Q102,113.55,103.5,113.075 Q105,112.6,105.5,113.55 Q106,114.5,103.5,116.4 Q101,118.3,99,118.3 Q97,118.3,96,116.875 Q95,115.45,95,116.4 Q95,117.35,94,118.775 Q93,120.2,90.5,120.2 Q88,120.2,86.5,118.775 Q85,117.35,83.5,116.875 Q82,116.4,82.5,114.975 Q83,113.55,83,112.125 Q83,110.7,82.5,110.7 Q82,110.7,81.5,111.175 Q81,111.65,80,110.7 Q79,109.75,79,111.65 Q79,113.55,78.5,113.55 Q78,113.55,77,113.55 Q76,113.55,76,114.5 Q76,115.45,75,116.4 Q74,117.35,75,118.3 Q76,119.25,78,119.725 Q80,120.2,82.5,121.15 Q85,122.1,85,124.475 Q85,126.85,86,127.8 Q87,128.75,88.5,127.325 Q90,125.9,90,125.425 Q90,124.95,90,124.475 Q90,124,91,124.475 Q92,124.95,92,123.525 Q92,122.1,92.5,122.1 Q93,122.1,94,123.525 Q95,124.95,95,125.425 Q95,125.9,95.5,126.375 Q96,126.85,96,127.325 Q96,127.8,94.5,127.8 Q93,127.8,92.5,128.75 Q92,129.7,93.5,131.6 Q95,133.5,91.5,132.55 Q88,131.6,86.5,131.6 Q85,131.6,84,130.65 Q83,129.7,82.5,130.65 Q82,131.6,82.5,133.5 Q83,135.4,85.5,136.825 Q88,138.25,89,139.675 Q90,141.1,89,141.575 Q88,142.05,86,142.525 Q84,143,82.5,142.525 Q81,142.05,75.5,143 Q70,143.95,71,140.625 Q72,137.3,71.5,135.4 Q71,133.5,73,134.45 Q75,135.4,77,133.5 Q79,131.6,79.5,130.65 Q80,129.7,79.5,129.225 Q79,128.75,78.5,129.225 Q78,129.7,78,129.225 Q78,128.75,78,127.8 Q78,126.85,75.5,124.95 Q73,123.05,72,120.675 Q71,118.3,70,120.675 Q69,123.05,64,122.1 Q59,121.15,62.5,116.875 Q66,112.6,66,112.125 Q66,111.65,65.5,111.175 Q65,110.7,63.5,109.75 Q62,108.8,62,108.325 Q62,107.85,62,107.375 Q62,106.9,64,105.95 Q66,105,66.5,104.05 Q67,103.1,68.5,101.2 Q70,99.3,71,99.775 Q72,100.25,72.5,101.2 Q73,102.15,75,101.2 Q77,100.25,77.5,101.675 Q78,103.1,77,103.575 Q76,104.05,75.5,104.05 Q75,104.05,72,105 Q69,105.95,72.5,106.9 Q76,107.85,77,106.425 Q78,105,80,105.475 Q82,105.95,82.5,105.95 Q83,105.95,83.5,105.475 Q84,105,85,103.1 Q86,101.2,86,100.725 Q86,100.25,85,100.725 Q84,101.2,82.5,100.725 Q81,100.25,80.5,100.725 Q80,101.2,80,99.775 Q80,98.35,81.5,97.875 Q83,97.4,84,97.4 Q85,97.4,86,97.4 Q87,97.4,89,98.35 Q91,99.3,91,99.775 Q91,100.25,91.5,100.25 Q92,100.25,92,100.725 Q92,101.2,92.5,102.15 Q93,103.1,92,103.1 Q91,103.1,91,102.625 Q91,102.15,90,101.675 Q89,101.2,88.5,101.675 Q88,102.15,87.5,102.625 Q87,103.1,87.5,104.05 Q88,105,88.5,104.525 Q89,104.05,89.5,105 Q90,105.95,89,108.325 Q88,110.7,86.5,111.175 Q85,111.65,85,112.6 Q85,113.55,85.5,113.55 Q86,113.55,88,114.025 Q90,114.5,90.5,113.55 Q91,112.6,92,112.6 Q93,112.6,94,112.6 Q95,112.6,95.5,112.125 Q96,111.65,97,112.125 Q98,112.6,97.5,111.175 Q97,109.75,95.5,109.275 Q94,108.8,94.5,107.85 Q95,106.9,95.5,104.525 Q96,102.15,97,104.05 Q98,105.95,98.5,105.475 Q99,105,100,105.475 Q101,105.95,101,105.95" fill="none" stroke="aquamarine" stroke-width="0.5"/>
</g>
<g inkscape:groupmode="layer" inkscape:label="aquamarine">
<path d="M116,39.45 Q116,39.45,115.5,38.975 Q115,38.5,114,38.5 Q113,38.5,113,37.55 Q113,36.6,114,35.65 Q115,34.7,112.5,33.75 Q110,32.8,109,30.9 Q108,29,107.5,31.375 Q107,33.75,107,34.225 Q107,34.7,108,36.6 Q109,38.5,110,39.925 Q111,41.35,111,41.825 Q111,42.3,112,43.25 Q113,44.2,113,44.675 Q113,45.15,114.5,46.1 Q116,47.05,116.5,47.05 Q117,47.05,117,46.1 Q117,45.15,117.5,43.725 Q118,42.3,117.5,41.825 Q117,41.35,119,41.825 Q121,42.3,121.5,43.25 Q122,44.2,121.5,44.675 Q121,45.15,120.5,45.15 Q120,45.15,120.5,46.1 Q121,47.05,121,48.475 Q121,49.9,120,48.95 Q119,48,119,47.525 Q119,47.05,118.5,48 Q118,48.95,119,49.9 Q120,50.85,120,51.325 Q120,51.8,120,52.275 Q120,52.75,120.5,53.225 Q121,53.7,122.5,54.65 Q124,55.6,124.5,56.075 Q125,56.55,125,56.075 Q125,55.6,125.5,54.65 Q126,53.7,126.5,54.175 Q127,54.65,127,55.6 Q127,56.55,128.5,56.55 Q130,56.55,130.5,56.55 Q131,56.55,131.5,55.6 Q132,54.65,133,52.75 Q134,50.85,135,50.375 Q136,49.9,135,48.95 Q134,48,134.5,47.525 Q135,47.05,135,46.575 Q135,46.1,135,45.625 Q135,45.15,136.5,46.1 Q138,47.05,138,46.575 Q138,46.1,140,45.15 Q142,44.2,142.5,44.2 Q143,44.2,142,43.25 Q141,42.3,139.5,42.775 Q138,43.25,137.5,43.725 Q137,44.2,135.5,43.725 Q134,43.25,134,42.3 Q134,41.35,134,40.4 Q134,39.45,134.5,39.925 Q135,40.4,135.5,39.925 Q136,39.45,136.5,38.975 Q137,38.5,137.5,38.975 Q138,39.45,138.5,38.975 Q139,38.5,139.5,38.025 Q140,37.55,141.5,36.125 Q143,34.7,143,33.275 Q143,31.85,142,30.9 Q141,29.95,141.5,28.05 Q142,26.15,139.5,26.625 Q137,27.1,137.5,22.825 Q138,18.55,133,19.975 Q128,21.4,130,23.775 Q132,26.15,131,26.625 Q130,27.1,129.5,28.05 Q129,29,128.5,29.95 Q128,30.9,129.5,30.9 Q131,30.9,131.5,31.375 Q132,31.85,131.5,33.275 Q131,34.7,131,33.75 Q131,32.8,132.5,33.275 Q134,33.75,136.5,33.275 Q139,32.8,138.5,32.8 Q138,32.8,138.5,33.75 Q139,34.7,135,35.175 Q131,35.65,130.5,35.65 Q130,35.65,129.5,36.6 Q129,37.55,130,37.55 Q131,37.55,131.5,38.5 Q132,39.45,131.5,39.925 Q131,40.4,130.5,39.925 Q130,39.45,129,40.4 Q128,41.35,127,40.4 Q126,39.45,126.5,40.4 Q127,41.35,127,42.3 Q127,43.25,127.5,43.25 Q128,43.25,128.5,43.25 Q129,43.25,130,43.725 Q131,44.2,130.5,44.675 Q130,45.15,130.5,45.625 Q131,46.1,130,47.05 Q129,48,130,48 Q131,48,131.5,48.475 Q132,48.95,132,49.425 Q132,49.9,131.5,50.375 Q131,50.85,130.5,50.375 Q130,49.9,130,49.425 Q130,48.95,129.5,48.95 Q129,48.95,129,49.425 Q129,49.9,129,50.85 Q129,51.8,128,52.75 Q127,53.7,126.5,52.75 Q126,51.8,126,51.325 Q126,50.85,127,50.375 Q128,49.9,127,48.475 Q126,47.05,125.5,48.475 Q125,49.9,124.5,49.425 Q124,48.95,124,48.475 Q124,48,123.5,47.05 Q123,46.1,123.5,46.1 Q124,46.1,124,45.625 Q124,45.15,124.5,44.675 Q125,44.2,125,43.725 Q125,43.25,124.5,42.3 Q124,41.35,123.5,41.35 Q123,41.35,123,39.45 Q123,37.55,122.5,37.075 Q122,36.6,123,36.6 Q124,36.6,124.5,36.125 Q125,35.65,125,35.175 Q125,34.7,126,35.175 Q127,35.65,127,35.175 Q127,34.7,128,34.7 Q129,34.7,128,33.75 Q127,32.8,126,32.8 Q125,32.8,124.5,32.325 Q124,31.85,123.5,29 Q123,26.15,122.5,26.625 Q122,27.1,121.5,27.575 Q121,28.05,120.5,27.575 Q120,27.1,119,26.625 Q118,26.15,119,29 Q120,31.85,121,32.8 Q122,33.75,122.5,33.75 Q123,33.75,120.5,35.65 Q118,37.55,117.5,37.55 Q117,37.55,117.5,38.025 Q118,38.5,117,38.975 Q116,39.45,116,39.45" fill="none" stroke="aquamarine" stroke-width="0.5"/>
</g>
<g inkscape:groupmode="layer" inkscape:label="aquamarine">
<path d="M208,105.95 Q208,105.95,211,108.325 Q214,110.7,213,115.925 Q212,121.15,208.5,114.975 Q205,108.8,201,105.475 Q197,102.15,195,104.05 Q193,105.95,192,106.9 Q191,107.85,193,108.325 Q195,108.8,194,110.225 Q193,111.65,192.5,111.65 Q192,111.65,193,116.4 Q194,121.15,191,122.575 Q188,124,188.5,126.85 Q189,129.7,186,129.7 Q183,129.7,181,136.35 Q179,143,175,139.675 Q171,136.35,172,129.7 Q173,123.05,176.5,117.825 Q180,112.6,182.5,114.025 Q185,115.45,185.5,112.6 Q186,109.75,185.5,107.85 Q185,105.95,184.5,106.425 Q184,106.9,182,105.95 Q180,105,177,103.575 Q174,102.15,177.5,100.725 Q181,99.3,184,99.775 Q187,100.25,186,98.825 Q185,97.4,185.5,95.975 Q186,94.55,184.5,92.175 Q183,89.8,179.5,85.525 Q176,81.25,179,81.725 Q182,82.2,183,82.2 Q184,82.2,185,81.25 Q186,80.3,186,81.25 Q186,82.2,187,83.625 Q188,85.05,188.5,83.15 Q189,81.25,191,81.25 Q193,81.25,193.5,82.675 Q194,84.1,194.5,84.575 Q195,85.05,193.5,85.525 Q192,86,191.5,87.425 Q191,88.85,190,88.85 Q189,88.85,188.5,88.375 Q188,87.9,189,91.7 Q190,95.5,193.5,96.925 Q197,98.35,198.5,98.35 Q200,98.35,199.5,95.975 Q199,93.6,199,88.375 Q199,83.15,200.5,80.775 Q202,78.4,202,80.3 Q202,82.2,202,84.1 Q202,86,204,85.525 Q206,85.05,206,86.475 Q206,87.9,206,88.375 Q206,88.85,205.5,91.225 Q205,93.6,210.5,93.125 Q216,92.65,220,92.175 Q224,91.7,224,92.175 Q224,92.65,221,94.075 Q218,95.5,215,97.4 Q212,99.3,209.5,101.2 Q207,103.1,207,104.05 Q207,105,207.5,105.475 Q208,105.95,208,105.95" fill="none" stroke="aquamarine" stroke-width="0.5"/>
</g>
<g inkscape:groupmode="layer" inkscape:label="signature">
<path d="m 15.815664,12.893319 c -1.445284,-3.0999497 -5.555449,-0.3575 -5.08537,2.32203 1.697826,2.92736 4.504013,-3.54417 4.40859,-2.58178 -1.548999,2.22986 0.741131,6.08701 3.012419,3.25791 2.532153,-2.82358 0.259001,-7.8326797 -3.488671,-7.9011197 -3.217272,0.056 -5.8863857,2.4603197 -7.9308737,4.7238797 -2.354585,2.46752 0.0048,5.887 2.757763,6.62143 3.2195457,1.10867 6.8759417,1.30834 9.9459317,-0.36585 2.270396,-1.12373 5.025949,-2.62031 5.680576,-5.20027 -2.108811,-3.66096 -6.038415,1.28356 -3.842036,3.67822 1.07278,0.89979 4.586982,-2.27037 3.201668,-2.73503 0.03094,3.24357 1.226854,6.37852 1.337023,9.60311 -0.672198,3.54892 -7.469251,0.32096 -4.637082,-2.5164 2.158436,-2.4193 5.610472,-2.84094 8.202925,-4.57369 0.993877,-1.40371 0.353413,-5.25046 3.182464,-3.48957 2.142923,1.43516 -2.250898,5.7532 1.723416,5.02339 1.661189,-0.71663 6.494946,-1.40457 4.601401,-3.95236 -4.205319,-0.68052 -1.190571,5.86505 1.665411,3.46881 1.929752,-0.9247 2.778055,-4.05119 1.423645,-5.35034 0.479155,1.8589 3.849911,7.52574 4.880369,3.32696 0.21201,-1.28088 0.40468,-3.80204 1.01246,-1.23041 0.5858,2.6865 3.83412,4.91909 4.56937,1.07383 0.65272,-1.00894 -0.2696,-4.02739 0.99929,-1.35746 1.10974,2.31613 6.32001,1.46113 6.147,-1.13059 -1.98394,-2.13868 -5.3717,1.45205 -3.78252,3.73454 2.57741,0.96208 6.69797,-0.21041 7.06275,-3.33983 0.41287,-2.63769 0.26643,-5.3430297 -0.11178,-7.9756197 0.67418,3.94149 1.24889,7.9380497 2.39963,11.7713397 2.10586,1.67977 5.7434,1.65022 7.74596,-0.23639 3.03149,-1.85431 -0.26637,-4.76925 -2.71777,-4.54025 -2.11577,0.0793 -5.36257,2.40772 -5.16868,3.85604 2.08262,-2.38818 5.55759,-1.22628 8.30726,-1.6832 3.182,-0.26596 6.46546,-0.57372 9.54494,-1.18158 0.24171,0.4199 -0.27752,0.54338 -0.43067,0.17453" fill="none" stroke="white" stroke-width="1" transform="translate(220,170) scale(0.3)"/>
</g>
</svg>