<svg height="210mm" style="background:white" viewBox="0 0 297 210" width="297mm" xmlns="http://www.w3.org/2000/svg" xmlns:inkscape="http://www.inkscape.org/namespaces/inkscape">
<g inkscape:groupmode="layer" inkscape:label="darkblue">
<path d="M9.2,9.2 L30.8,30.8 M30.8,9.2 L9.2,30.8 M15.960054,10.605887 L34.74828,29.394112 M34.74828,10.605887 L15.960054,29.394112 M24.708334,14 L36.708332,26 M36.708332,14 L24.708334,26 M33.45661,17.394112 L38.66839,22.605888 M38.66839,17.394112 L33.45661,22.605888 M40.216667,18.8 L42.616665,21.2 M42.616665,18.8 L40.216667,21.2 M44.164948,17.394112 L49.37672,22.605888 M49.37672,17.394112 L44.164948,22.605888 M46.125,14 L58.125,26 M58.125,14 L46.125,26 M48.085052,10.605887 L66.873276,29.394112 M66.873276,10.605887 L48.085052,29.394112 M52.033333,9.2 L73.63333,30.8 M73.63333,9.2 L52.033333,30.8 M58.79339,10.605887 L77.58161,29.394112 M77.58161,10.605887 L58.79339,29.394112 M67.541664,14 L79.541664,26 M79.541664,14 L67.541664,26 M76.28995,17.394112 L81.501724,22.605888 M81.501724,17.394112 L76.28995,22.605888 M83.05,18.8 L85.45,21.2 M85.45,18.8 L83.05,21.2 M86.998276,17.394112 L92.21005,22.605888 M92.21005,17.394112 L86.998276,22.605888 M88.958336,14 L100.958336,26 M100.958336,14 L88.958336,26 M90.91839,10.605887 L109.70661,29.394112 M109.70661,10.605887 L90.91839,29.394112 M94.86667,9.2 L116.46667,30.8 M116.46667,9.2 L94.86667,30.8 M101.626724,10.605887 L120.41495,29.394112 M120.41495,10.605887 L101.626724,29.394112 M110.375,14 L122.375,26 M122.375,14 L110.375,26 M119.123276,17.394112 L124.33505,22.605888 M124.33505,17.394112 L119.123276,22.605888 M125.88333,18.8 L128.28334,21.2 M128.28334,18.8 L125.88333,21.2 M129.83162,17.394112 L135.04338,22.605888 M135.04338,17.394112 L129.83162,22.605888 M131.79167,14 L143.79167,26 M143.79167,14 L131.79167,26 M133.75172,10.605887 L152.53995,29.394112 M152.53995,10.605887 L133.75172,29.394112 M137.7,9.2 L159.3,30.8 M159.3,9.2 L137.7,30.8 M144.46005,10.605887 L163.24828,29.394112 M163.24828,10.605887 L144.46005,29.394112 M153.20833,14 L165.20833,26 M165.20833,14 L153.20833,26 M161.95662,17.394112 L167.16838,22.605888 M167.16838,17.394112 L161.95662,22.605888 M168.71666,18.8 L171.11667,21.2 M171.11667,18.8 L168.71666,21.2 M172.66495,17.394112 L177.87672,22.605888 M177.87672,17.394112 L172.66495,22.605888 M174.625,14 L186.625,26 M186.625,14 L174.625,26 M176.58505,10.605887 L195.37328,29.394112 M195.37328,10.605887 L176.58505,29.394112 M180.53334,9.2 L202.13333,30.8 M202.13333,9.2 L180.53334,30.8 M187.29338,10.605887 L206.08162,29.394112 M206.08162,10.605887 L187.29338,29.394112 M196.04167,14 L208.04167,26 M208.04167,14 L196.04167,26 M204.78995,17.394112 L210.00172,22.605888 M210.00172,17.394112 L204.78995,22.605888 M211.55,18.8 L213.95,21.2 M213.95,18.8 L211.55,21.2 M215.49828,17.394112 L220.71005,22.605888 M220.71005,17.394112 L215.49828,22.605888 M217.45833,14 L229.45833,26 M229.45833,14 L217.45833,26 M219.41838,10.605887 L238.20662,29.394112 M238.20662,10.605887 L219.41838,29.394112 M223.36667,9.2 L244.96666,30.8 M244.96666,9.2 L223.36667,30.8 M230.12672,10.605887 L248.91495,29.394112 M248.91495,10.605887 L230.12672,29.394112 M238.875,14 L250.875,26 M250.875,14 L238.875,26 M247.62328,17.394112 L252.83505,22.605888 M252.83505,17.394112 L247.62328,22.605888 M254.38333,18.8 L256.78333,21.2 M256.78333,18.8 L254.38333,21.2 M258.3316,17.394112 L263.5434,22.605888 M263.5434,17.394112 L258.3316,22.605888 M260.29166,14 L272.29166,26 M272.29166,14 L260.29166,26 M262.2517,10.605887 L281.03995,29.394112 M281.03995,10.605887 L262.2517,29.394112 M14,35.25 L26,47.25 M26,35.25 L14,47.25 M22.74828,38.64411 L27.960054,43.85589 M27.960054,38.64411 L22.74828,43.85589 M29.508333,40.05 L31.908333,42.45 M31.908333,40.05 L29.508333,42.45 M33.45661,38.64411 L38.66839,43.85589 M38.66839,38.64411 L33.45661,43.85589 M35.416668,35.25 L47.416668,47.25 M47.416668,35.25 L35.416668,47.25 M37.37672,31.855888 L56.164948,50.64411 M56.164948,31.855888 L37.37672,50.64411 M41.325,30.45 L62.925,52.05 M62.925,30.45 L41.325,52.05 M48.085052,31.855888 L66.873276,50.64411 M66.873276,31.855888 L48.085052,50.64411 M56.833332,35.25 L68.833336,47.25 M68.833336,35.25 L56.833332,47.25 M65.58161,38.64411 L70.79339,43.85589 M70.79339,38.64411 L65.58161,43.85589 M72.34167,40.05 L74.74167,42.45 M74.74167,40.05 L72.34167,42.45 M76.28995,38.64411 L81.501724,43.85589 M81.501724,38.64411 L76.28995,43.85589 M78.25,35.25 L90.25,47.25 M90.25,35.25 L78.25,47.25 M80.21005,31.855888 L98.998276,50.64411 M98.998276,31.855888 L80.21005,50.64411 M84.15833,30.45 L105.75833,52.05 M105.75833,30.45 L84.15833,52.05 M90.91839,31.855888 L109.70661,50.64411 M109.70661,31.855888 L90.91839,50.64411 M99.666664,35.25 L111.666664,47.25 M111.666664,35.25 L99.666664,47.25 M108.41495,38.64411 L113.626724,43.85589 M113.626724,38.64411 L108.41495,43.85589 M115.175,40.05 L117.575,42.45 M117.575,40.05 L115.175,42.45 M119.123276,38.64411 L124.33505,43.85589 M124.33505,38.64411 L119.123276,43.85589 M121.083336,35.25 L133.08333,47.25 M133.08333,35.25 L121.083336,47.25 M123.04339,31.855888 L141.83162,50.64411 M141.83162,31.855888 L123.04339,50.64411 M126.99167,30.45 L148.59166,52.05 M148.59166,30.45 L126.99167,52.05 M133.75172,31.855888 L152.53995,50.64411 M152.53995,31.855888 L133.75172,50.64411 M142.5,35.25 L154.5,47.25 M154.5,35.25 L142.5,47.25 M151.24828,38.64411 L156.46005,43.85589 M156.46005,38.64411 L151.24828,43.85589 M158.00833,40.05 L160.40834,42.45 M160.40834,40.05 L158.00833,42.45 M161.95662,38.64411 L167.16838,43.85589 M167.16838,38.64411 L161.95662,43.85589 M163.91667,35.25 L175.91667,47.25 M175.91667,35.25 L163.91667,47.25 M165.87672,31.855888 L184.66495,50.64411 M184.66495,31.855888 L165.87672,50.64411 M169.825,30.45 L191.425,52.05 M191.425,30.45 L169.825,52.05 M176.58505,31.855888 L195.37328,50.64411 M195.37328,31.855888 L176.58505,50.64411 M185.33333,35.25 L197.33333,47.25 M197.33333,35.25 L185.33333,47.25 M194.08162,38.64411 L199.29338,43.85589 M199.29338,38.64411 L194.08162,43.85589 M200.84166,40.05 L203.24167,42.45 M203.24167,40.05 L200.84166,42.45 M204.78995,38.64411 L210.00172,43.85589 M210.00172,38.64411 L204.78995,43.85589 M206.75,35.25 L218.75,47.25 M218.75,35.25 L206.75,47.25 M208.71005,31.855888 L227.49828,50.64411 M227.49828,31.855888 L208.71005,50.64411 M212.65834,30.45 L234.25833,52.05 M234.25833,30.45 L212.65834,52.05 M219.41838,31.855888 L238.20662,50.64411 M238.20662,31.855888 L219.41838,50.64411 M228.16667,35.25 L240.16667,47.25 M240.16667,35.25 L228.16667,47.25 M236.91495,38.64411 L242.12672,43.85589 M242.12672,38.64411 L236.91495,43.85589 M243.675,40.05 L246.075,42.45 M246.075,40.05 L243.675,42.45 M247.62328,38.64411 L252.83505,43.85589 M252.83505,38.64411 L247.62328,43.85589 M249.58333,35.25 L261.58334,47.25 M261.58334,35.25 L249.58333,47.25 M251.54338,31.855888 L270.3316,50.64411 M270.3316,31.855888 L251.54338,50.64411 M255.49167,30.45 L277.09167,52.05 M277.09167,30.45 L255.49167,52.05 M262.2517,31.855888 L281.03995,50.64411 M281.03995,31.855888 L262.2517,50.64411 M18.8,61.3 L21.2,63.7 M21.2,61.3 L18.8,63.7 M22.74828,59.89411 L27.960054,65.10589 M27.960054,59.89411 L22.74828,65.10589 M24.708334,56.5 L36.708332,68.5 M36.708332,56.5 L24.708334,68.5 M26.668388,53.10589 L45.45661,71.89411 M45.45661,53.10589 L26.668388,71.89411 M30.616667,51.7 L52.216667,73.3 M52.216667,51.7 L30.616667,73.3 M37.37672,53.10589 L56.164948,71.89411 M56.164948,53.10589 L37.37672,71.89411 M46.125,56.5 L58.125,68.5 M58.125,56.5 L46.125,68.5 M54.87328,59.89411 L60.085052,65.10589 M60.085052,59.89411 L54.87328,65.10589 M61.633335,61.3 L64.03333,63.7 M64.03333,61.3 L61.633335,63.7 M65.58161,59.89411 L70.79339,65.10589 M70.79339,59.89411 L65.58161,65.10589 M67.541664,56.5 L79.541664,68.5 M79.541664,56.5 L67.541664,68.5 M69.501724,53.10589 L88.28995,71.89411 M88.28995,53.10589 L69.501724,71.89411 M73.45,51.7 L95.05,73.3 M95.05,51.7 L73.45,73.3 M80.21005,53.10589 L98.998276,71.89411 M98.998276,53.10589 L80.21005,71.89411 M88.958336,56.5 L100.958336,68.5 M100.958336,56.5 L88.958336,68.5 M97.70661,59.89411 L102.91839,65.10589 M102.91839,59.89411 L97.70661,65.10589 M104.46667,61.3 L106.86667,63.7 M106.86667,61.3 L104.46667,63.7 M108.41495,59.89411 L113.626724,65.10589 M113.626724,59.89411 L108.41495,65.10589 M110.375,56.5 L122.375,68.5 M122.375,56.5 L110.375,68.5 M112.33505,53.10589 L131.12328,71.89411 M131.12328,53.10589 L112.33505,71.89411 M116.28333,51.7 L137.88333,73.3 M137.88333,51.7 L116.28333,73.3 M123.04339,53.10589 L141.83162,71.89411 M141.83162,53.10589 L123.04339,71.89411 M131.79167,56.5 L143.79167,68.5 M143.79167,56.5 L131.79167,68.5 M140.53995,59.89411 L145.75172,65.10589 M145.75172,59.89411 L140.53995,65.10589 M147.3,61.3 L149.7,63.7 M149.7,61.3 L147.3,63.7 M151.24828,59.89411 L156.46005,65.10589 M156.46005,59.89411 L151.24828,65.10589 M153.20833,56.5 L165.20833,68.5 M165.20833,56.5 L153.20833,68.5 M155.16838,53.10589 L173.95662,71.89411 M173.95662,53.10589 L155.16838,71.89411 M159.11667,51.7 L180.71666,73.3 M180.71666,51.7 L159.11667,73.3 M165.87672,53.10589 L184.66495,71.89411 M184.66495,53.10589 L165.87672,71.89411 M174.625,56.5 L186.625,68.5 M186.625,56.5 L174.625,68.5 M183.37328,59.89411 L188.58505,65.10589 M188.58505,59.89411 L183.37328,65.10589 M190.13333,61.3 L192.53334,63.7 M192.53334,61.3 L190.13333,63.7 M194.08162,59.89411 L199.29338,65.10589 M199.29338,59.89411 L194.08162,65.10589 M196.04167,56.5 L208.04167,68.5 M208.04167,56.5 L196.04167,68.5 M198.00172,53.10589 L216.78995,71.89411 M216.78995,53.10589 L198.00172,71.89411 M201.95,51.7 L223.55,73.3 M223.55,51.7 L201.95,73.3 M208.71005,53.10589 L227.49828,71.89411 M227.49828,53.10589 L208.71005,71.89411 M217.45833,56.5 L229.45833,68.5 M229.45833,56.5 L217.45833,68.5 M226.20662,59.89411 L231.41838,65.10589 M231.41838,59.89411 L226.20662,65.10589 M232.96666,61.3 L235.36667,63.7 M235.36667,61.3 L232.96666,63.7 M236.91495,59.89411 L242.12672,65.10589 M242.12672,59.89411 L236.91495,65.10589 M238.875,56.5 L250.875,68.5 M250.875,56.5 L238.875,68.5 M240.83505,53.10589 L259.6233,71.89411 M259.6233,53.10589 L240.83505,71.89411 M244.78334,51.7 L266.38333,73.3 M266.38333,51.7 L244.78334,73.3 M251.54338,53.10589 L270.3316,71.89411 M270.3316,53.10589 L251.54338,71.89411 M260.29166,56.5 L272.29166,68.5 M272.29166,56.5 L260.29166,68.5 M269.03995,59.89411 L274.2517,65.10589 M274.2517,59.89411 L269.03995,65.10589 M14,77.75 L26,89.75 M26,77.75 L14,89.75 M15.960054,74.35589 L34.74828,93.14411 M34.74828,74.35589 L15.960054,93.14411 M19.908333,72.95 L41.508335,94.55 M41.508335,72.95 L19.908333,94.55 M26.668388,74.35589 L45.45661,93.14411 M45.45661,74.35589 L26.668388,93.14411 M35.416668,77.75 L47.416668,89.75 M47.416668,77.75 L35.416668,89.75 M44.164948,81.14411 L49.37672,86.35589 M49.37672,81.14411 L44.164948,86.35589 M50.925,82.55 L53.325,84.95 M53.325,82.55 L50.925,84.95 M54.87328,81.14411 L60.085052,86.35589 M60.085052,81.14411 L54.87328,86.35589 M56.833332,77.75 L68.833336,89.75 M68.833336,77.75 L56.833332,89.75 M58.79339,74.35589 L77.58161,93.14411 M77.58161,74.35589 L58.79339,93.14411 M62.741665,72.95 L84.34167,94.55 M84.34167,72.95 L62.741665,94.55 M69.501724,74.35589 L88.28995,93.14411 M88.28995,74.35589 L69.501724,93.14411 M78.25,77.75 L90.25,89.75 M90.25,77.75 L78.25,89.75 M86.998276,81.14411 L92.21005,86.35589 M92.21005,81.14411 L86.998276,86.35589 M93.75833,82.55 L96.15833,84.95 M96.15833,82.55 L93.75833,84.95 M97.70661,81.14411 L102.91839,86.35589 M102.91839,81.14411 L97.70661,86.35589 M99.666664,77.75 L111.666664,89.75 M111.666664,77.75 L99.666664,89.75 M101.626724,74.35589 L120.41495,93.14411 M120.41495,74.35589 L101.626724,93.14411 M105.575,72.95 L127.175,94.55 M127.175,72.95 L105.575,94.55 M112.33505,74.35589 L131.12328,93.14411 M131.12328,74.35589 L112.33505,93.14411 M121.083336,77.75 L133.08333,89.75 M133.08333,77.75 L121.083336,89.75 M129.83162,81.14411 L135.04338,86.35589 M135.04338,81.14411 L129.83162,86.35589 M136.59166,82.55 L138.99167,84.95 M138.99167,82.55 L136.59166,84.95 M140.53995,81.14411 L145.75172,86.35589 M145.75172,81.14411 L140.53995,86.35589 M142.5,77.75 L154.5,89.75 M154.5,77.75 L142.5,89.75 M144.46005,74.35589 L163.24828,93.14411 M163.24828,74.35589 L144.46005,93.14411 M148.40834,72.95 L170.00833,94.55 M170.00833,72.95 L148.40834,94.55 M155.16838,74.35589 L173.95662,93.14411 M173.95662,74.35589 L155.16838,93.14411 M163.91667,77.75 L175.91667,89.75 M175.91667,77.75 L163.91667,89.75 M172.66495,81.14411 L177.87672,86.35589 M177.87672,81.14411 L172.66495,86.35589 M179.425,82.55 L181.825,84.95 M181.825,82.55 L179.425,84.95 M183.37328,81.14411 L188.58505,86.35589 M188.58505,81.14411 L183.37328,86.35589 M185.33333,77.75 L197.33333,89.75 M197.33333,77.75 L185.33333,89.75 M187.29338,74.35589 L206.08162,93.14411 M206.08162,74.35589 L187.29338,93.14411 M191.24167,72.95 L212.84166,94.55 M212.84166,72.95 L191.24167,94.55 M198.00172,74.35589 L216.78995,93.14411 M216.78995,74.35589 L198.00172,93.14411 M206.75,77.75 L218.75,89.75 M218.75,77.75 L206.75,89.75 M215.49828,81.14411 L220.71005,86.35589 M220.71005,81.14411 L215.49828,86.35589 M222.25833,82.55 L224.65834,84.95 M224.65834,82.55 L222.25833,84.95 M226.20662,81.14411 L231.41838,86.35589 M231.41838,81.14411 L226.20662,86.35589 M228.16667,77.75 L240.16667,89.75 M240.16667,77.75 L228.16667,89.75 M230.12672,74.35589 L248.91495,93.14411 M248.91495,74.35589 L230.12672,93.14411 M234.075,72.95 L255.675,94.55 M255.675,72.95 L234.075,94.55 M240.83505,74.35589 L259.6233,93.14411 M259.6233,74.35589 L240.83505,93.14411 M249.58333,77.75 L261.58334,89.75 M261.58334,77.75 L249.58333,89.75 M258.3316,81.14411 L263.5434,86.35589 M263.5434,81.14411 L258.3316,86.35589 M265.09167,82.55 L267.49167,84.95 M267.49167,82.55 L265.09167,84.95 M269.03995,81.14411 L274.2517,86.35589 M274.2517,81.14411 L269.03995,86.35589 M9.2,94.2 L30.8,115.8 M30.8,94.2 L9.2,115.8 M15.960054,95.60589 L34.74828,114.39411 M34.74828,95.60589 L15.960054,114.39411 M24.708334,99 L36.708332,111 M36.708332,99 L24.708334,111 M33.45661,102.39411 L38.66839,107.60589 M38.66839,102.39411 L33.45661,107.60589 M40.216667,103.8 L42.616665,106.2 M42.616665,103.8 L40.216667,106.2 M44.164948,102.39411 L49.37672,107.60589 M49.37672,102.39411 L44.164948,107.60589 M46.125,99 L58.125,111 M58.125,99 L46.125,111 M48.085052,95.60589 L66.873276,114.39411 M66.873276,95.60589 L48.085052,114.39411 M52.033333,94.2 L73.63333,115.8 M73.63333,94.2 L52.033333,115.8 M58.79339,95.60589 L77.58161,114.39411 M77.58161,95.60589 L58.79339,114.39411 M67.541664,99 L79.541664,111 M79.541664,99 L67.541664,111 M76.28995,102.39411 L81.501724,107.60589 M81.501724,102.39411 L76.28995,107.60589 M83.05,103.8 L85.45,106.2 M85.45,103.8 L83.05,106.2 M86.998276,102.39411 L92.21005,107.60589 M92.21005,102.39411 L86.998276,107.60589 M88.958336,99 L100.958336,111 M100.958336,99 L88.958336,111 M90.91839,95.60589 L109.70661,114.39411 M109.70661,95.60589 L90.91839,114.39411 M94.86667,94.2 L116.46667,115.8 M116.46667,94.2 L94.86667,115.8 M101.626724,95.60589 L120.41495,114.39411 M120.41495,95.60589 L101.626724,114.39411 M110.375,99 L122.375,111 M122.375,99 L110.375,111 M119.123276,102.39411 L124.33505,107.60589 M124.33505,102.39411 L119.123276,107.60589 M125.88333,103.8 L128.28334,106.2 M128.28334,103.8 L125.88333,106.2 M129.83162,102.39411 L135.04338,107.60589 M135.04338,102.39411 L129.83162,107.60589 M131.79167,99 L143.79167,111 M143.79167,99 L131.79167,111 M133.75172,95.60589 L152.53995,114.39411 M152.53995,95.60589 L133.75172,114.39411 M137.7,94.2 L159.3,115.8 M159.3,94.2 L137.7,115.8 M144.46005,95.60589 L163.24828,114.39411 M163.24828,95.60589 L144.46005,114.39411 M153.20833,99 L165.20833,111 M165.20833,99 L153.20833,111 M161.95662,102.39411 L167.16838,107.60589 M167.16838,102.39411 L161.95662,107.60589 M168.71666,103.8 L171.11667,106.2 M171.11667,103.8 L168.71666,106.2 M172.66495,102.39411 L177.87672,107.60589 M177.87672,102.39411 L172.66495,107.60589 M174.625,99 L186.625,111 M186.625,99 L174.625,111 M176.58505,95.60589 L195.37328,114.39411 M195.37328,95.60589 L176.58505,114.39411 M180.53334,94.2 L202.13333,115.8 M202.13333,94.2 L180.53334,115.8 M187.29338,95.60589 L206.08162,114.39411 M206.08162,95.60589 L187.29338,114.39411 M196.04167,99 L208.04167,111 M208.04167,99 L196.04167,111 M204.78995,102.39411 L210.00172,107.60589 M210.00172,102.39411 L204.78995,107.60589 M211.55,103.8 L213.95,106.2 M213.95,103.8 L211.55,106.2 M215.49828,102.39411 L220.71005,107.60589 M220.71005,102.39411 L215.49828,107.60589 M217.45833,99 L229.45833,111 M229.45833,99 L217.45833,111 M219.41838,95.60589 L238.20662,114.39411 M238.20662,95.60589 L219.41838,114.39411 M223.36667,94.2 L244.96666,115.8 M244.96666,94.2 L223.36667,115.8 M230.12672,95.60589 L248.91495,114.39411 M248.91495,95.60589 L230.12672,114.39411 M238.875,99 L250.875,111 M250.875,99 L238.875,111 M247.62328,102.39411 L252.83505,107.60589 M252.83505,102.39411 L247.62328,107.60589 M254.38333,103.8 L256.78333,106.2 M256.78333,103.8 L254.38333,106.2 M258.3316,102.39411 L263.5434,107.60589 M263.5434,102.39411 L258.3316,107.60589 M260.29166,99 L272.29166,111 M272.29166,99 L260.29166,111 M262.2517,95.60589 L281.03995,114.39411 M281.03995,95.60589 L262.2517,114.39411 M14,120.25 L26,132.25 M26,120.25 L14,132.25 M22.74828,123.64411 L27.960054,128.85588 M27.960054,123.64411 L22.74828,128.85588 M29.508333,125.05 L31.908333,127.45 M31.908333,125.05 L29.508333,127.45 M33.45661,123.64411 L38.66839,128.85588 M38.66839,123.64411 L33.45661,128.85588 M35.416668,120.25 L47.416668,132.25 M47.416668,120.25 L35.416668,132.25 M37.37672,116.85589 L56.164948,135.64412 M56.164948,116.85589 L37.37672,135.64412 M41.325,115.45 L62.925,137.05 M62.925,115.45 L41.325,137.05 M48.085052,116.85589 L66.873276,135.64412 M66.873276,116.85589 L48.085052,135.64412 M56.833332,120.25 L68.833336,132.25 M68.833336,120.25 L56.833332,132.25 M65.58161,123.64411 L70.79339,128.85588 M70.79339,123.64411 L65.58161,128.85588 M72.34167,125.05 L74.74167,127.45 M74.74167,125.05 L72.34167,127.45 M76.28995,123.64411 L81.501724,128.85588 M81.501724,123.64411 L76.28995,128.85588 M78.25,120.25 L90.25,132.25 M90.25,120.25 L78.25,132.25 M80.21005,116.85589 L98.998276,135.64412 M98.998276,116.85589 L80.21005,135.64412 M84.15833,115.45 L105.75833,137.05 M105.75833,115.45 L84.15833,137.05 M90.91839,116.85589 L109.70661,135.64412 M109.70661,116.85589 L90.91839,135.64412 M99.666664,120.25 L111.666664,132.25 M111.666664,120.25 L99.666664,132.25 M108.41495,123.64411 L113.626724,128.85588 M113.626724,123.64411 L108.41495,128.85588 M115.175,125.05 L117.575,127.45 M117.575,125.05 L115.175,127.45 M119.123276,123.64411 L124.33505,128.85588 M124.33505,123.64411 L119.123276,128.85588 M121.083336,120.25 L133.08333,132.25 M133.08333,120.25 L121.083336,132.25 M123.04339,116.85589 L141.83162,135.64412 M141.83162,116.85589 L123.04339,135.64412 M126.99167,115.45 L148.59166,137.05 M148.59166,115.45 L126.99167,137.05 M133.75172,116.85589 L152.53995,135.64412 M152.53995,116.85589 L133.75172,135.64412 M142.5,120.25 L154.5,132.25 M154.5,120.25 L142.5,132.25 M151.24828,123.64411 L156.46005,128.85588 M156.46005,123.64411 L151.24828,128.85588 M158.00833,125.05 L160.40834,127.45 M160.40834,125.05 L158.00833,127.45 M161.95662,123.64411 L167.16838,128.85588 M167.16838,123.64411 L161.95662,128.85588 M163.91667,120.25 L175.91667,132.25 M175.91667,120.25 L163.91667,132.25 M165.87672,116.85589 L184.66495,135.64412 M184.66495,116.85589 L165.87672,135.64412 M169.825,115.45 L191.425,137.05 M191.425,115.45 L169.825,137.05 M176.58505,116.85589 L195.37328,135.64412 M195.37328,116.85589 L176.58505,135.64412 M185.33333,120.25 L197.33333,132.25 M197.33333,120.25 L185.33333,132.25 M194.08162,123.64411 L199.29338,128.85588 M199.29338,123.64411 L194.08162,128.85588 M200.84166,125.05 L203.24167,127.45 M203.24167,125.05 L200.84166,127.45 M204.78995,123.64411 L210.00172,128.85588 M210.00172,123.64411 L204.78995,128.85588 M206.75,120.25 L218.75,132.25 M218.75,120.25 L206.75,132.25 M208.71005,116.85589 L227.49828,135.64412 M227.49828,116.85589 L208.71005,135.64412 M212.65834,115.45 L234.25833,137.05 M234.25833,115.45 L212.65834,137.05 M219.41838,116.85589 L238.20662,135.64412 M238.20662,116.85589 L219.41838,135.64412 M228.16667,120.25 L240.16667,132.25 M240.16667,120.25 L228.16667,132.25 M236.91495,123.64411 L242.12672,128.85588 M242.12672,123.64411 L236.91495,128.85588 M243.675,125.05 L246.075,127.45 M246.075,125.05 L243.675,127.45 M247.62328,123.64411 L252.83505,128.85588 M252.83505,123.64411 L247.62328,128.85588 M249.58333,120.25 L261.58334,132.25 M261.58334,120.25 L249.58333,132.25 M251.54338,116.85589 L270.3316,135.64412 M270.3316,116.85589 L251.54338,135.64412 M255.49167,115.45 L277.09167,137.05 M277.09167,115.45 L255.49167,137.05 M262.2517,116.85589 L281.03995,135.64412 M281.03995,116.85589 L262.2517,135.64412 M18.8,146.3 L21.2,148.7 M21.2,146.3 L18.8,148.7 M22.74828,144.89412 L27.960054,150.10588 M27.960054,144.89412 L22.74828,150.10588 M24.708334,141.5 L36.708332,153.5 M36.708332,141.5 L24.708334,153.5 M26.668388,138.10588 L45.45661,156.89412 M45.45661,138.10588 L26.668388,156.89412 M30.616667,136.7 L52.216667,158.3 M52.216667,136.7 L30.616667,158.3 M37.37672,138.10588 L56.164948,156.89412 M56.164948,138.10588 L37.37672,156.89412 M46.125,141.5 L58.125,153.5 M58.125,141.5 L46.125,153.5 M54.87328,144.89412 L60.085052,150.10588 M60.085052,144.89412 L54.87328,150.10588 M61.633335,146.3 L64.03333,148.7 M64.03333,146.3 L61.633335,148.7 M65.58161,144.89412 L70.79339,150.10588 M70.79339,144.89412 L65.58161,150.10588 M67.541664,141.5 L79.541664,153.5 M79.541664,141.5 L67.541664,153.5 M69.501724,138.10588 L88.28995,156.89412 M88.28995,138.10588 L69.501724,156.89412 M73.45,136.7 L95.05,158.3 M95.05,136.7 L73.45,158.3 M80.21005,138.10588 L98.998276,156.89412 M98.998276,138.10588 L80.21005,156.89412 M88.958336,141.5 L100.958336,153.5 M100.958336,141.5 L88.958336,153.5 M97.70661,144.89412 L102.91839,150.10588 M102.91839,144.89412 L97.70661,150.10588 M104.46667,146.3 L106.86667,148.7 M106.86667,146.3 L104.46667,148.7 M108.41495,144.89412 L113.626724,150.10588 M113.626724,144.89412 L108.41495,150.10588 M110.375,141.5 L122.375,153.5 M122.375,141.5 L110.375,153.5 M112.33505,138.10588 L131.12328,156.89412 M131.12328,138.10588 L112.33505,156.89412 M116.28333,136.7 L137.88333,158.3 M137.88333,136.7 L116.28333,158.3 M123.04339,138.10588 L141.83162,156.89412 M141.83162,138.10588 L123.04339,156.89412 M131.79167,141.5 L143.79167,153.5 M143.79167,141.5 L131.79167,153.5 M140.53995,144.89412 L145.75172,150.10588 M145.75172,144.89412 L140.53995,150.10588 M147.3,146.3 L149.7,148.7 M149.7,146.3 L147.3,148.7 M151.24828,144.89412 L156.46005,150.10588 M156.46005,144.89412 L151.24828,150.10588 M153.20833,141.5 L165.20833,153.5 M165.20833,141.5 L153.20833,153.5 M155.16838,138.10588 L173.95662,156.89412 M173.95662,138.10588 L155.16838,156.89412 M159.11667,136.7 L180.71666,158.3 M180.71666,136.7 L159.11667,158.3 M165.87672,138.10588 L184.66495,156.89412 M184.66495,138.10588 L165.87672,156.89412 M174.625,141.5 L186.625,153.5 M186.625,141.5 L174.625,153.5 M183.37328,144.89412 L188.58505,150.10588 M188.58505,144.89412 L183.37328,150.10588 M190.13333,146.3 L192.53334,148.7 M192.53334,146.3 L190.13333,148.7 M194.08162,144.89412 L199.29338,150.10588 M199.29338,144.89412 L194.08162,150.10588 M196.04167,141.5 L208.04167,153.5 M208.04167,141.5 L196.04167,153.5 M198.00172,138.10588 L216.78995,156.89412 M216.78995,138.10588 L198.00172,156.89412 M201.95,136.7 L223.55,158.3 M223.55,136.7 L201.95,158.3 M208.71005,138.10588 L227.49828,156.89412 M227.49828,138.10588 L208.71005,156.89412 M217.45833,141.5 L229.45833,153.5 M229.45833,141.5 L217.45833,153.5 M226.20662,144.89412 L231.41838,150.10588 M231.41838,144.89412 L226.20662,150.10588 M232.96666,146.3 L235.36667,148.7 M235.36667,146.3 L232.96666,148.7 M236.91495,144.89412 L242.12672,150.10588 M242.12672,144.89412 L236.91495,150.10588 M238.875,141.5 L250.875,153.5 M250.875,141.5 L238.875,153.5 M240.83505,138.10588 L259.6233,156.89412 M259.6233,138.10588 L240.83505,156.89412 M244.78334,136.7 L266.38333,158.3 M266.38333,136.7 L244.78334,158.3 M251.54338,138.10588 L270.3316,156.89412 M270.3316,138.10588 L251.54338,156.89412 M260.29166,141.5 L272.29166,153.5 M272.29166,141.5 L260.29166,153.5 M269.03995,144.89412 L274.2517,150.10588 M274.2517,144.89412 L269.03995,150.10588 M14,162.75 L26,174.75 M26,162.75 L14,174.75 M15.960054,159.35588 L34.74828,178.14412 M34.74828,159.35588 L15.960054,178.14412 M19.908333,157.95 L41.508335,179.55 M41.508335,157.95 L19.908333,179.55 M26.668388,159.35588 L45.45661,178.14412 M45.45661,159.35588 L26.668388,178.14412 M35.416668,162.75 L47.416668,174.75 M47.416668,162.75 L35.416668,174.75 M44.164948,166.14412 L49.37672,171.35588 M49.37672,166.14412 L44.164948,171.35588 M50.925,167.55 L53.325,169.95 M53.325,167.55 L50.925,169.95 M54.87328,166.14412 L60.085052,171.35588 M60.085052,166.14412 L54.87328,171.35588 M56.833332,162.75 L68.833336,174.75 M68.833336,162.75 L56.833332,174.75 M58.79339,159.35588 L77.58161,178.14412 M77.58161,159.35588 L58.79339,178.14412 M62.741665,157.95 L84.34167,179.55 M84.34167,157.95 L62.741665,179.55 M69.501724,159.35588 L88.28995,178.14412 M88.28995,159.35588 L69.501724,178.14412 M78.25,162.75 L90.25,174.75 M90.25,162.75 L78.25,174.75 M86.998276,166.14412 L92.21005,171.35588 M92.21005,166.14412 L86.998276,171.35588 M93.75833,167.55 L96.15833,169.95 M96.15833,167.55 L93.75833,169.95 M97.70661,166.14412 L102.91839,171.35588 M102.91839,166.14412 L97.70661,171.35588 M99.666664,162.75 L111.666664,174.75 M111.666664,162.75 L99.666664,174.75 M101.626724,159.35588 L120.41495,178.14412 M120.41495,159.35588 L101.626724,178.14412 M105.575,157.95 L127.175,179.55 M127.175,157.95 L105.575,179.55 M112.33505,159.35588 L131.12328,178.14412 M131.12328,159.35588 L112.33505,178.14412 M121.083336,162.75 L133.08333,174.75 M133.08333,162.75 L121.083336,174.75 M129.83162,166.14412 L135.04338,171.35588 M135.04338,166.14412 L129.83162,171.35588 M136.59166,167.55 L138.99167,169.95 M138.99167,167.55 L136.59166,169.95 M140.53995,166.14412 L145.75172,171.35588 M145.75172,166.14412 L140.53995,171.35588 M142.5,162.75 L154.5,174.75 M154.5,162.75 L142.5,174.75 M144.46005,159.35588 L163.24828,178.14412 M163.24828,159.35588 L144.46005,178.14412 M148.40834,157.95 L170.00833,179.55 M170.00833,157.95 L148.40834,179.55 M155.16838,159.35588 L173.95662,178.14412 M173.95662,159.35588 L155.16838,178.14412 M163.91667,162.75 L175.91667,174.75 M175.91667,162.75 L163.91667,174.75 M172.66495,166.14412 L177.87672,171.35588 M177.87672,166.14412 L172.66495,171.35588 M179.425,167.55 L181.825,169.95 M181.825,167.55 L179.425,169.95 M183.37328,166.14412 L188.58505,171.35588 M188.58505,166.14412 L183.37328,171.35588 M185.33333,162.75 L197.33333,174.75 M197.33333,162.75 L185.33333,174.75 M187.29338,159.35588 L206.08162,178.14412 M206.08162,159.35588 L187.29338,178.14412 M191.24167,157.95 L212.84166,179.55 M212.84166,157.95 L191.24167,179.55 M198.00172,159.35588 L216.78995,178.14412 M216.78995,159.35588 L198.00172,178.14412 M206.75,162.75 L218.75,174.75 M218.75,162.75 L206.75,174.75 M215.49828,166.14412 L220.71005,171.35588 M220.71005,166.14412 L215.49828,171.35588 M222.25833,167.55 L224.65834,169.95 M224.65834,167.55 L222.25833,169.95 M226.20662,166.14412 L231.41838,171.35588 M231.41838,166.14412 L226.20662,171.35588 M228.16667,162.75 L240.16667,174.75 M240.16667,162.75 L228.16667,174.75 M230.12672,159.35588 L248.91495,178.14412 M248.91495,159.35588 L230.12672,178.14412 M234.075,157.95 L255.675,179.55 M255.675,157.95 L234.075,179.55 M240.83505,159.35588 L259.6233,178.14412 M259.6233,159.35588 L240.83505,178.14412 M249.58333,162.75 L261.58334,174.75 M261.58334,162.75 L249.58333,174.75 M258.3316,166.14412 L263.5434,171.35588 M263.5434,166.14412 L258.3316,171.35588 M265.09167,167.55 L267.49167,169.95 M267.49167,167.55 L265.09167,169.95 M269.03995,166.14412 L274.2517,171.35588 M274.2517,166.14412 L269.03995,171.35588" fill="none" stroke="darkblue" stroke-width="0.5" style="mix-blend-mode: multiply;"/>
</g>
<g inkscape:groupmode="layer" inkscape:label="firebrick">
<path d="M17.394112,28.019112 L22.605888,33.23089 M22.605888,28.019112 L17.394112,33.23089 M19.354166,24.625 L31.354166,36.625 M31.354166,24.625 L19.354166,36.625 M21.31422,21.230888 L40.102448,40.01911 M40.102448,21.230888 L21.31422,40.01911 M25.2625,19.825 L46.8625,41.425 M46.8625,19.825 L25.2625,41.425 M32.022552,21.230888 L50.81078,40.01911 M50.81078,21.230888 L32.022552,40.01911 M40.770832,24.625 L52.770832,36.625 M52.770832,24.625 L40.770832,36.625 M49.51911,28.019112 L54.73089,33.23089 M54.73089,28.019112 L49.51911,33.23089 M56.279167,29.425 L58.679165,31.825 M58.679165,29.425 L56.279167,31.825 M60.227448,28.019112 L65.439224,33.23089 M65.439224,28.019112 L60.227448,33.23089 M62.1875,24.625 L74.1875,36.625 M74.1875,24.625 L62.1875,36.625 M64.14755,21.230888 L82.935776,40.01911 M82.935776,21.230888 L64.14755,40.01911 M68.09583,19.825 L89.69583,41.425 M89.69583,19.825 L68.09583,41.425 M74.85589,21.230888 L93.64411,40.01911 M93.64411,21.230888 L74.85589,40.01911 M83.604164,24.625 L95.604164,36.625 M95.604164,24.625 L83.604164,36.625 M92.35245,28.019112 L97.564224,33.23089 M97.564224,28.019112 L92.35245,33.23089 M99.1125,29.425 L101.5125,31.825 M101.5125,29.425 L99.1125,31.825 M103.060776,28.019112 L108.27255,33.23089 M108.27255,28.019112 L103.060776,33.23089 M105.020836,24.625 L117.020836,36.625 M117.020836,24.625 L105.020836,36.625 M106.98089,21.230888 L125.76911,40.01911 M125.76911,21.230888 L106.98089,40.01911 M110.92917,19.825 L132.52916,41.425 M132.52916,19.825 L110.92917,41.425 M117.689224,21.230888 L136.47745,40.01911 M136.47745,21.230888 L117.689224,40.01911 M126.4375,24.625 L138.4375,36.625 M138.4375,24.625 L126.4375,36.625 M135.18578,28.019112 L140.39755,33.23089 M140.39755,28.019112 L135.18578,33.23089 M141.94583,29.425 L144.34584,31.825 M144.34584,29.425 L141.94583,31.825 M145.89412,28.019112 L151.10588,33.23089 M151.10588,28.019112 L145.89412,33.23089 M147.85417,24.625 L159.85417,36.625 M159.85417,24.625 L147.85417,36.625 M149.81422,21.230888 L168.60245,40.01911 M168.60245,21.230888 L149.81422,40.01911 M153.7625,19.825 L175.3625,41.425 M175.3625,19.825 L153.7625,41.425 M160.52255,21.230888 L179.31078,40.01911 M179.31078,21.230888 L160.52255,40.01911 M169.27083,24.625 L181.27083,36.625 M181.27083,24.625 L169.27083,36.625 M178.01912,28.019112 L183.23088,33.23089 M183.23088,28.019112 L178.01912,33.23089 M184.77916,29.425 L187.17917,31.825 M187.17917,29.425 L184.77916,31.825 M188.72745,28.019112 L193.93922,33.23089 M193.93922,28.019112 L188.72745,33.23089 M190.6875,24.625 L202.6875,36.625 M202.6875,24.625 L190.6875,36.625 M192.64755,21.230888 L211.43578,40.01911 M211.43578,21.230888 L192.64755,40.01911 M196.59584,19.825 L218.19583,41.425 M218.19583,19.825 L196.59584,41.425 M203.35588,21.230888 L222.14412,40.01911 M222.14412,21.230888 L203.35588,40.01911 M212.10417,24.625 L224.10417,36.625 M224.10417,24.625 L212.10417,36.625 M220.85245,28.019112 L226.06422,33.23089 M226.06422,28.019112 L220.85245,33.23089 M227.6125,29.425 L230.0125,31.825 M230.0125,29.425 L227.6125,31.825 M231.56078,28.019112 L236.77255,33.23089 M236.77255,28.019112 L231.56078,33.23089 M233.52083,24.625 L245.52083,36.625 M245.52083,24.625 L233.52083,36.625 M235.48088,21.230888 L254.26912,40.01911 M254.26912,21.230888 L235.48088,40.01911 M239.42917,19.825 L261.02917,41.425 M261.02917,19.825 L239.42917,41.425 M246.18922,21.230888 L264.97745,40.01911 M264.97745,21.230888 L246.18922,40.01911 M254.9375,24.625 L266.9375,36.625 M266.9375,24.625 L254.9375,36.625 M263.6858,28.019112 L268.89755,33.23089 M268.89755,28.019112 L263.6858,33.23089 M270.44583,29.425 L272.84583,31.825 M272.84583,29.425 L270.44583,31.825 M10.605887,42.48089 L29.394112,61.26911 M29.394112,42.48089 L10.605887,61.26911 M14.554167,41.075 L36.154167,62.675 M36.154167,41.075 L14.554167,62.675 M21.31422,42.48089 L40.102448,61.26911 M40.102448,42.48089 L21.31422,61.26911 M30.0625,45.875 L42.0625,57.875 M42.0625,45.875 L30.0625,57.875 M38.81078,49.26911 L44.022552,54.48089 M44.022552,49.26911 L38.81078,54.48089 M45.570835,50.675 L47.970833,53.075 M47.970833,50.675 L45.570835,53.075 M49.51911,49.26911 L54.73089,54.48089 M54.73089,49.26911 L49.51911,54.48089 M51.479168,45.875 L63.479168,57.875 M63.479168,45.875 L51.479168,57.875 M53.43922,42.48089 L72.22745,61.26911 M72.22745,42.48089 L53.43922,61.26911 M57.3875,41.075 L78.9875,62.675 M78.9875,41.075 L57.3875,62.675 M64.14755,42.48089 L82.935776,61.26911 M82.935776,42.48089 L64.14755,61.26911 M72.895836,45.875 L84.895836,57.875 M84.895836,45.875 L72.895836,57.875 M81.64411,49.26911 L86.85589,54.48089 M86.85589,49.26911 L81.64411,54.48089 M88.40417,50.675 L90.80417,53.075 M90.80417,50.675 L88.40417,53.075 M92.35245,49.26911 L97.564224,54.48089 M97.564224,49.26911 L92.35245,54.48089 M94.3125,45.875 L106.3125,57.875 M106.3125,45.875 L94.3125,57.875 M96.27255,42.48089 L115.060776,61.26911 M115.060776,42.48089 L96.27255,61.26911 M100.22083,41.075 L121.82083,62.675 M121.82083,41.075 L100.22083,62.675 M106.98089,42.48089 L125.76911,61.26911 M125.76911,42.48089 L106.98089,61.26911 M115.729164,45.875 L127.729164,57.875 M127.729164,45.875 L115.729164,57.875 M124.47745,49.26911 L129.68922,54.48089 M129.68922,49.26911 L124.47745,54.48089 M131.2375,50.675 L133.6375,53.075 M133.6375,50.675 L131.2375,53.075 M135.18578,49.26911 L140.39755,54.48089 M140.39755,49.26911 L135.18578,54.48089 M137.14583,45.875 L149.14583,57.875 M149.14583,45.875 L137.14583,57.875 M139.10588,42.48089 L157.89412,61.26911 M157.89412,42.48089 L139.10588,61.26911 M143.05417,41.075 L164.65416,62.675 M164.65416,41.075 L143.05417,62.675 M149.81422,42.48089 L168.60245,61.26911 M168.60245,42.48089 L149.81422,61.26911 M158.5625,45.875 L170.5625,57.875 M170.5625,45.875 L158.5625,57.875 M167.31078,49.26911 L172.52255,54.48089 M172.52255,49.26911 L167.31078,54.48089 M174.07083,50.675 L176.47084,53.075 M176.47084,50.675 L174.07083,53.075 M178.01912,49.26911 L183.23088,54.48089 M183.23088,49.26911 L178.01912,54.48089 M179.97917,45.875 L191.97917,57.875 M191.97917,45.875 L179.97917,57.875 M181.93922,42.48089 L200.72745,61.26911 M200.72745,42.48089 L181.93922,61.26911 M185.8875,41.075 L207.4875,62.675 M207.4875,41.075 L185.8875,62.675 M192.64755,42.48089 L211.43578,61.26911 M211.43578,42.48089 L192.64755,61.26911 M201.39583,45.875 L213.39583,57.875 M213.39583,45.875 L201.39583,57.875 M210.14412,49.26911 L215.35588,54.48089 M215.35588,49.26911 L210.14412,54.48089 M216.90416,50.675 L219.30417,53.075 M219.30417,50.675 L216.90416,53.075 M220.85245,49.26911 L226.06422,54.48089 M226.06422,49.26911 L220.85245,54.48089 M222.8125,45.875 L234.8125,57.875 M234.8125,45.875 L222.8125,57.875 M224.77255,42.48089 L243.56078,61.26911 M243.56078,42.48089 L224.77255,61.26911 M228.72084,41.075 L250.32083,62.675 M250.32083,41.075 L228.72084,62.675 M235.48088,42.48089 L254.26912,61.26911 M254.26912,42.48089 L235.48088,61.26911 M244.22917,45.875 L256.22916,57.875 M256.22916,45.875 L244.22917,57.875 M252.97745,49.26911 L258.1892,54.48089 M258.1892,49.26911 L252.97745,54.48089 M259.7375,50.675 L262.1375,53.075 M262.1375,50.675 L259.7375,53.075 M263.6858,49.26911 L268.89755,54.48089 M268.89755,49.26911 L263.6858,54.48089 M265.64584,45.875 L277.64584,57.875 M277.64584,45.875 L265.64584,57.875 M10.605887,63.73089 L29.394112,82.51911 M29.394112,63.73089 L10.605887,82.51911 M19.354166,67.125 L31.354166,79.125 M31.354166,67.125 L19.354166,79.125 M28.102446,70.51911 L33.31422,75.73089 M33.31422,70.51911 L28.102446,75.73089 M34.8625,71.925 L37.2625,74.325 M37.2625,71.925 L34.8625,74.325 M38.81078,70.51911 L44.022552,75.73089 M44.022552,70.51911 L38.81078,75.73089 M40.770832,67.125 L52.770832,79.125 M52.770832,67.125 L40.770832,79.125 M42.73089,63.73089 L61.51911,82.51911 M61.51911,63.73089 L42.73089,82.51911 M46.679165,62.325 L68.27917,83.925 M68.27917,62.325 L46.679165,83.925 M53.43922,63.73089 L72.22745,82.51911 M72.22745,63.73089 L53.43922,82.51911 M62.1875,67.125 L74.1875,79.125 M74.1875,67.125 L62.1875,79.125 M70.935776,70.51911 L76.14755,75.73089 M76.14755,70.51911 L70.935776,75.73089 M77.69583,71.925 L80.09583,74.325 M80.09583,71.925 L77.69583,74.325 M81.64411,70.51911 L86.85589,75.73089 M86.85589,70.51911 L81.64411,75.73089 M83.604164,67.125 L95.604164,79.125 M95.604164,67.125 L83.604164,79.125 M85.564224,63.73089 L104.35245,82.51911 M104.35245,63.73089 L85.564224,82.51911 M89.5125,62.325 L111.1125,83.925 M111.1125,62.325 L89.5125,83.925 M96.27255,63.73089 L115.060776,82.51911 M115.060776,63.73089 L96.27255,82.51911 M105.020836,67.125 L117.020836,79.125 M117.020836,67.125 L105.020836,79.125 M113.76911,70.51911 L118.98089,75.73089 M118.98089,70.51911 L113.76911,75.73089 M120.52917,71.925 L122.92917,74.325 M122.92917,71.925 L120.52917,74.325 M124.47745,70.51911 L129.68922,75.73089 M129.68922,70.51911 L124.47745,75.73089 M126.4375,67.125 L138.4375,79.125 M138.4375,67.125 L126.4375,79.125 M128.39755,63.73089 L147.18578,82.51911 M147.18578,63.73089 L128.39755,82.51911 M132.34584,62.325 L153.94583,83.925 M153.94583,62.325 L132.34584,83.925 M139.10588,63.73089 L157.89412,82.51911 M157.89412,63.73089 L139.10588,82.51911 M147.85417,67.125 L159.85417,79.125 M159.85417,67.125 L147.85417,79.125 M156.60245,70.51911 L161.81422,75.73089 M161.81422,70.51911 L156.60245,75.73089 M163.3625,71.925 L165.7625,74.325 M165.7625,71.925 L163.3625,74.325 M167.31078,70.51911 L172.52255,75.73089 M172.52255,70.51911 L167.31078,75.73089 M169.27083,67.125 L181.27083,79.125 M181.27083,67.125 L169.27083,79.125 M171.23088,63.73089 L190.01912,82.51911 M190.01912,63.73089 L171.23088,82.51911 M175.17917,62.325 L196.77916,83.925 M196.77916,62.325 L175.17917,83.925 M181.93922,63.73089 L200.72745,82.51911 M200.72745,63.73089 L181.93922,82.51911 M190.6875,67.125 L202.6875,79.125 M202.6875,67.125 L190.6875,79.125 M199.43578,70.51911 L204.64755,75.73089 M204.64755,70.51911 L199.43578,75.73089 M206.19583,71.925 L208.59584,74.325 M208.59584,71.925 L206.19583,74.325 M210.14412,70.51911 L215.35588,75.73089 M215.35588,70.51911 L210.14412,75.73089 M212.10417,67.125 L224.10417,79.125 M224.10417,67.125 L212.10417,79.125 M214.06422,63.73089 L232.85245,82.51911 M232.85245,63.73089 L214.06422,82.51911 M218.0125,62.325 L239.6125,83.925 M239.6125,62.325 L218.0125,83.925 M224.77255,63.73089 L243.56078,82.51911 M243.56078,63.73089 L224.77255,82.51911 M233.52083,67.125 L245.52083,79.125 M245.52083,67.125 L233.52083,79.125 M242.26912,70.51911 L247.48088,75.73089 M247.48088,70.51911 L242.26912,75.73089 M249.02916,71.925 L251.42917,74.325 M251.42917,71.925 L249.02916,74.325 M252.97745,70.51911 L258.1892,75.73089 M258.1892,70.51911 L252.97745,75.73089 M254.9375,67.125 L266.9375,79.125 M266.9375,67.125 L254.9375,79.125 M256.89755,63.73089 L275.6858,82.51911 M275.6858,63.73089 L256.89755,82.51911 M260.84583,62.325 L282.44583,83.925 M282.44583,62.325 L260.84583,83.925 M17.394112,91.76911 L22.605888,96.98089 M22.605888,91.76911 L17.394112,96.98089 M24.154167,93.175 L26.554167,95.575 M26.554167,93.175 L24.154167,95.575 M28.102446,91.76911 L33.31422,96.98089 M33.31422,91.76911 L28.102446,96.98089 M30.0625,88.375 L42.0625,100.375 M42.0625,88.375 L30.0625,100.375 M32.022552,84.98089 L50.81078,103.76911 M50.81078,84.98089 L32.022552,103.76911 M35.970833,83.575 L57.570835,105.175 M57.570835,83.575 L35.970833,105.175 M42.73089,84.98089 L61.51911,103.76911 M61.51911,84.98089 L42.73089,103.76911 M51.479168,88.375 L63.479168,100.375 M63.479168,88.375 L51.479168,100.375 M60.227448,91.76911 L65.439224,96.98089 M65.439224,91.76911 L60.227448,96.98089 M66.9875,93.175 L69.3875,95.575 M69.3875,93.175 L66.9875,95.575 M70.935776,91.76911 L76.14755,96.98089 M76.14755,91.76911 L70.935776,96.98089 M72.895836,88.375 L84.895836,100.375 M84.895836,88.375 L72.895836,100.375 M74.85589,84.98089 L93.64411,103.76911 M93.64411,84.98089 L74.85589,103.76911 M78.80417,83.575 L100.40417,105.175 M100.40417,83.575 L78.80417,105.175 M85.564224,84.98089 L104.35245,103.76911 M104.35245,84.98089 L85.564224,103.76911 M94.3125,88.375 L106.3125,100.375 M106.3125,88.375 L94.3125,100.375 M103.060776,91.76911 L108.27255,96.98089 M108.27255,91.76911 L103.060776,96.98089 M109.82083,93.175 L112.22083,95.575 M112.22083,93.175 L109.82083,95.575 M113.76911,91.76911 L118.98089,96.98089 M118.98089,91.76911 L113.76911,96.98089 M115.729164,88.375 L127.729164,100.375 M127.729164,88.375 L115.729164,100.375 M117.689224,84.98089 L136.47745,103.76911 M136.47745,84.98089 L117.689224,103.76911 M121.6375,83.575 L143.2375,105.175 M143.2375,83.575 L121.6375,105.175 M128.39755,84.98089 L147.18578,103.76911 M147.18578,84.98089 L128.39755,103.76911 M137.14583,88.375 L149.14583,100.375 M149.14583,88.375 L137.14583,100.375 M145.89412,91.76911 L151.10588,96.98089 M151.10588,91.76911 L145.89412,96.98089 M152.65416,93.175 L155.05417,95.575 M155.05417,93.175 L152.65416,95.575 M156.60245,91.76911 L161.81422,96.98089 M161.81422,91.76911 L156.60245,96.98089 M158.5625,88.375 L170.5625,100.375 M170.5625,88.375 L158.5625,100.375 M160.52255,84.98089 L179.31078,103.76911 M179.31078,84.98089 L160.52255,103.76911 M164.47084,83.575 L186.07083,105.175 M186.07083,83.575 L164.47084,105.175 M171.23088,84.98089 L190.01912,103.76911 M190.01912,84.98089 L171.23088,103.76911 M179.97917,88.375 L191.97917,100.375 M191.97917,88.375 L179.97917,100.375 M188.72745,91.76911 L193.93922,96.98089 M193.93922,91.76911 L188.72745,96.98089 M195.4875,93.175 L197.8875,95.575 M197.8875,93.175 L195.4875,95.575 M199.43578,91.76911 L204.64755,96.98089 M204.64755,91.76911 L199.43578,96.98089 M201.39583,88.375 L213.39583,100.375 M213.39583,88.375 L201.39583,100.375 M203.35588,84.98089 L222.14412,103.76911 M222.14412,84.98089 L203.35588,103.76911 M207.30417,83.575 L228.90416,105.175 M228.90416,83.575 L207.30417,105.175 M214.06422,84.98089 L232.85245,103.76911 M232.85245,84.98089 L214.06422,103.76911 M222.8125,88.375 L234.8125,100.375 M234.8125,88.375 L222.8125,100.375 M231.56078,91.76911 L236.77255,96.98089 M236.77255,91.76911 L231.56078,96.98089 M238.32083,93.175 L240.72084,95.575 M240.72084,93.175 L238.32083,95.575 M242.26912,91.76911 L247.48088,96.98089 M247.48088,91.76911 L242.26912,96.98089 M244.22917,88.375 L256.22916,100.375 M256.22916,88.375 L244.22917,100.375 M246.18922,84.98089 L264.97745,103.76911 M264.97745,84.98089 L246.18922,103.76911 M250.1375,83.575 L271.7375,105.175 M271.7375,83.575 L250.1375,105.175 M256.89755,84.98089 L275.6858,103.76911 M275.6858,84.98089 L256.89755,103.76911 M265.64584,88.375 L277.64584,100.375 M277.64584,88.375 L265.64584,100.375 M17.394112,113.01911 L22.605888,118.23089 M22.605888,113.01911 L17.394112,118.23089 M19.354166,109.625 L31.354166,121.625 M31.354166,109.625 L19.354166,121.625 M21.31422,106.23089 L40.102448,125.01911 M40.102448,106.23089 L21.31422,125.01911 M25.2625,104.825 L46.8625,126.425 M46.8625,104.825 L25.2625,126.425 M32.022552,106.23089 L50.81078,125.01911 M50.81078,106.23089 L32.022552,125.01911 M40.770832,109.625 L52.770832,121.625 M52.770832,109.625 L40.770832,121.625 M49.51911,113.01911 L54.73089,118.23089 M54.73089,113.01911 L49.51911,118.23089 M56.279167,114.425 L58.679165,116.825 M58.679165,114.425 L56.279167,116.825 M60.227448,113.01911 L65.439224,118.23089 M65.439224,113.01911 L60.227448,118.23089 M62.1875,109.625 L74.1875,121.625 M74.1875,109.625 L62.1875,121.625 M64.14755,106.23089 L82.935776,125.01911 M82.935776,106.23089 L64.14755,125.01911 M68.09583,104.825 L89.69583,126.425 M89.69583,104.825 L68.09583,126.425 M74.85589,106.23089 L93.64411,125.01911 M93.64411,106.23089 L74.85589,125.01911 M83.604164,109.625 L95.604164,121.625 M95.604164,109.625 L83.604164,121.625 M92.35245,113.01911 L97.564224,118.23089 M97.564224,113.01911 L92.35245,118.23089 M99.1125,114.425 L101.5125,116.825 M101.5125,114.425 L99.1125,116.825 M103.060776,113.01911 L108.27255,118.23089 M108.27255,113.01911 L103.060776,118.23089 M105.020836,109.625 L117.020836,121.625 M117.020836,109.625 L105.020836,121.625 M106.98089,106.23089 L125.76911,125.01911 M125.76911,106.23089 L106.98089,125.01911 M110.92917,104.825 L132.52916,126.425 M132.52916,104.825 L110.92917,126.425 M117.689224,106.23089 L136.47745,125.01911 M136.47745,106.23089 L117.689224,125.01911 M126.4375,109.625 L138.4375,121.625 M138.4375,109.625 L126.4375,121.625 M135.18578,113.01911 L140.39755,118.23089 M140.39755,113.01911 L135.18578,118.23089 M141.94583,114.425 L144.34584,116.825 M144.34584,114.425 L141.94583,116.825 M145.89412,113.01911 L151.10588,118.23089 M151.10588,113.01911 L145.89412,118.23089 M147.85417,109.625 L159.85417,121.625 M159.85417,109.625 L147.85417,121.625 M149.81422,106.23089 L168.60245,125.01911 M168.60245,106.23089 L149.81422,125.01911 M153.7625,104.825 L175.3625,126.425 M175.3625,104.825 L153.7625,126.425 M160.52255,106.23089 L179.31078,125.01911 M179.31078,106.23089 L160.52255,125.01911 M169.27083,109.625 L181.27083,121.625 M181.27083,109.625 L169.27083,121.625 M178.01912,113.01911 L183.23088,118.23089 M183.23088,113.01911 L178.01912,118.23089 M184.77916,114.425 L187.17917,116.825 M187.17917,114.425 L184.77916,116.825 M188.72745,113.01911 L193.93922,118.23089 M193.93922,113.01911 L188.72745,118.23089 M190.6875,109.625 L202.6875,121.625 M202.6875,109.625 L190.6875,121.625 M192.64755,106.23089 L211.43578,125.01911 M211.43578,106.23089 L192.64755,125.01911 M196.59584,104.825 L218.19583,126.425 M218.19583,104.825 L196.59584,126.425 M203.35588,106.23089 L222.14412,125.01911 M222.14412,106.23089 L203.35588,125.01911 M212.10417,109.625 L224.10417,121.625 M224.10417,109.625 L212.10417,121.625 M220.85245,113.01911 L226.06422,118.23089 M226.06422,113.01911 L220.85245,118.23089 M227.6125,114.425 L230.0125,116.825 M230.0125,114.425 L227.6125,116.825 M231.56078,113.01911 L236.77255,118.23089 M236.77255,113.01911 L231.56078,118.23089 M233.52083,109.625 L245.52083,121.625 M245.52083,109.625 L233.52083,121.625 M235.48088,106.23089 L254.26912,125.01911 M254.26912,106.23089 L235.48088,125.01911 M239.42917,104.825 L261.02917,126.425 M261.02917,104.825 L239.42917,126.425 M246.18922,106.23089 L264.97745,125.01911 M264.97745,106.23089 L246.18922,125.01911 M254.9375,109.625 L266.9375,121.625 M266.9375,109.625 L254.9375,121.625 M263.6858,113.01911 L268.89755,118.23089 M268.89755,113.01911 L263.6858,118.23089 M270.44583,114.425 L272.84583,116.825 M272.84583,114.425 L270.44583,116.825 M10.605887,127.48089 L29.394112,146.26912 M29.394112,127.48089 L10.605887,146.26912 M14.554167,126.075 L36.154167,147.675 M36.154167,126.075 L14.554167,147.675 M21.31422,127.48089 L40.102448,146.26912 M40.102448,127.48089 L21.31422,146.26912 M30.0625,130.875 L42.0625,142.875 M42.0625,130.875 L30.0625,142.875 M38.81078,134.26912 L44.022552,139.48088 M44.022552,134.26912 L38.81078,139.48088 M45.570835,135.675 L47.970833,138.075 M47.970833,135.675 L45.570835,138.075 M49.51911,134.26912 L54.73089,139.48088 M54.73089,134.26912 L49.51911,139.48088 M51.479168,130.875 L63.479168,142.875 M63.479168,130.875 L51.479168,142.875 M53.43922,127.48089 L72.22745,146.26912 M72.22745,127.48089 L53.43922,146.26912 M57.3875,126.075 L78.9875,147.675 M78.9875,126.075 L57.3875,147.675 M64.14755,127.48089 L82.935776,146.26912 M82.935776,127.48089 L64.14755,146.26912 M72.895836,130.875 L84.895836,142.875 M84.895836,130.875 L72.895836,142.875 M81.64411,134.26912 L86.85589,139.48088 M86.85589,134.26912 L81.64411,139.48088 M88.40417,135.675 L90.80417,138.075 M90.80417,135.675 L88.40417,138.075 M92.35245,134.26912 L97.564224,139.48088 M97.564224,134.26912 L92.35245,139.48088 M94.3125,130.875 L106.3125,142.875 M106.3125,130.875 L94.3125,142.875 M96.27255,127.48089 L115.060776,146.26912 M115.060776,127.48089 L96.27255,146.26912 M100.22083,126.075 L121.82083,147.675 M121.82083,126.075 L100.22083,147.675 M106.98089,127.48089 L125.76911,146.26912 M125.76911,127.48089 L106.98089,146.26912 M115.729164,130.875 L127.729164,142.875 M127.729164,130.875 L115.729164,142.875 M124.47745,134.26912 L129.68922,139.48088 M129.68922,134.26912 L124.47745,139.48088 M131.2375,135.675 L133.6375,138.075 M133.6375,135.675 L131.2375,138.075 M135.18578,134.26912 L140.39755,139.48088 M140.39755,134.26912 L135.18578,139.48088 M137.14583,130.875 L149.14583,142.875 M149.14583,130.875 L137.14583,142.875 M139.10588,127.48089 L157.89412,146.26912 M157.89412,127.48089 L139.10588,146.26912 M143.05417,126.075 L164.65416,147.675 M164.65416,126.075 L143.05417,147.675 M149.81422,127.48089 L168.60245,146.26912 M168.60245,127.48089 L149.81422,146.26912 M158.5625,130.875 L170.5625,142.875 M170.5625,130.875 L158.5625,142.875 M167.31078,134.26912 L172.52255,139.48088 M172.52255,134.26912 L167.31078,139.48088 M174.07083,135.675 L176.47084,138.075 M176.47084,135.675 L174.07083,138.075 M178.01912,134.26912 L183.23088,139.48088 M183.23088,134.26912 L178.01912,139.48088 M179.97917,130.875 L191.97917,142.875 M191.97917,130.875 L179.97917,142.875 M181.93922,127.48089 L200.72745,146.26912 M200.72745,127.48089 L181.93922,146.26912 M185.8875,126.075 L207.4875,147.675 M207.4875,126.075 L185.8875,147.675 M192.64755,127.48089 L211.43578,146.26912 M211.43578,127.48089 L192.64755,146.26912 M201.39583,130.875 L213.39583,142.875 M213.39583,130.875 L201.39583,142.875 M210.14412,134.26912 L215.35588,139.48088 M215.35588,134.26912 L210.14412,139.48088 M216.90416,135.675 L219.30417,138.075 M219.30417,135.675 L216.90416,138.075 M220.85245,134.26912 L226.06422,139.48088 M226.06422,134.26912 L220.85245,139.48088 M222.8125,130.875 L234.8125,142.875 M234.8125,130.875 L222.8125,142.875 M224.77255,127.48089 L243.56078,146.26912 M243.56078,127.48089 L224.77255,146.26912 M228.72084,126.075 L250.32083,147.675 M250.32083,126.075 L228.72084,147.675 M235.48088,127.48089 L254.26912,146.26912 M254.26912,127.48089 L235.48088,146.26912 M244.22917,130.875 L256.22916,142.875 M256.22916,130.875 L244.22917,142.875 M252.97745,134.26912 L258.1892,139.48088 M258.1892,134.26912 L252.97745,139.48088 M259.7375,135.675 L262.1375,138.075 M262.1375,135.675 L259.7375,138.075 M263.6858,134.26912 L268.89755,139.48088 M268.89755,134.26912 L263.6858,139.48088 M265.64584,130.875 L277.64584,142.875 M277.64584,130.875 L265.64584,142.875 M10.605887,148.73088 L29.394112,167.51912 M29.394112,148.73088 L10.605887,167.51912 M19.354166,152.125 L31.354166,164.125 M31.354166,152.125 L19.354166,164.125 M28.102446,155.51912 L33.31422,160.73088 M33.31422,155.51912 L28.102446,160.73088 M34.8625,156.925 L37.2625,159.325 M37.2625,156.925 L34.8625,159.325 M38.81078,155.51912 L44.022552,160.73088 M44.022552,155.51912 L38.81078,160.73088 M40.770832,152.125 L52.770832,164.125 M52.770832,152.125 L40.770832,164.125 M42.73089,148.73088 L61.51911,167.51912 M61.51911,148.73088 L42.73089,167.51912 M46.679165,147.325 L68.27917,168.925 M68.27917,147.325 L46.679165,168.925 M53.43922,148.73088 L72.22745,167.51912 M72.22745,148.73088 L53.43922,167.51912 M62.1875,152.125 L74.1875,164.125 M74.1875,152.125 L62.1875,164.125 M70.935776,155.51912 L76.14755,160.73088 M76.14755,155.51912 L70.935776,160.73088 M77.69583,156.925 L80.09583,159.325 M80.09583,156.925 L77.69583,159.325 M81.64411,155.51912 L86.85589,160.73088 M86.85589,155.51912 L81.64411,160.73088 M83.604164,152.125 L95.604164,164.125 M95.604164,152.125 L83.604164,164.125 M85.564224,148.73088 L104.35245,167.51912 M104.35245,148.73088 L85.564224,167.51912 M89.5125,147.325 L111.1125,168.925 M111.1125,147.325 L89.5125,168.925 M96.27255,148.73088 L115.060776,167.51912 M115.060776,148.73088 L96.27255,167.51912 M105.020836,152.125 L117.020836,164.125 M117.020836,152.125 L105.020836,164.125 M113.76911,155.51912 L118.98089,160.73088 M118.98089,155.51912 L113.76911,160.73088 M120.52917,156.925 L122.92917,159.325 M122.92917,156.925 L120.52917,159.325 M124.47745,155.51912 L129.68922,160.73088 M129.68922,155.51912 L124.47745,160.73088 M126.4375,152.125 L138.4375,164.125 M138.4375,152.125 L126.4375,164.125 M128.39755,148.73088 L147.18578,167.51912 M147.18578,148.73088 L128.39755,167.51912 M132.34584,147.325 L153.94583,168.925 M153.94583,147.325 L132.34584,168.925 M139.10588,148.73088 L157.89412,167.51912 M157.89412,148.73088 L139.10588,167.51912 M147.85417,152.125 L159.85417,164.125 M159.85417,152.125 L147.85417,164.125 M156.60245,155.51912 L161.81422,160.73088 M161.81422,155.51912 L156.60245,160.73088 M163.3625,156.925 L165.7625,159.325 M165.7625,156.925 L163.3625,159.325 M167.31078,155.51912 L172.52255,160.73088 M172.52255,155.51912 L167.31078,160.73088 M169.27083,152.125 L181.27083,164.125 M181.27083,152.125 L169.27083,164.125 M171.23088,148.73088 L190.01912,167.51912 M190.01912,148.73088 L171.23088,167.51912 M175.17917,147.325 L196.77916,168.925 M196.77916,147.325 L175.17917,168.925 M181.93922,148.73088 L200.72745,167.51912 M200.72745,148.73088 L181.93922,167.51912 M190.6875,152.125 L202.6875,164.125 M202.6875,152.125 L190.6875,164.125 M199.43578,155.51912 L204.64755,160.73088 M204.64755,155.51912 L199.43578,160.73088 M206.19583,156.925 L208.59584,159.325 M208.59584,156.925 L206.19583,159.325 M210.14412,155.51912 L215.35588,160.73088 M215.35588,155.51912 L210.14412,160.73088 M212.10417,152.125 L224.10417,164.125 M224.10417,152.125 L212.10417,164.125 M214.06422,148.73088 L232.85245,167.51912 M232.85245,148.73088 L214.06422,167.51912 M218.0125,147.325 L239.6125,168.925 M239.6125,147.325 L218.0125,168.925 M224.77255,148.73088 L243.56078,167.51912 M243.56078,148.73088 L224.77255,167.51912 M233.52083,152.125 L245.52083,164.125 M245.52083,152.125 L233.52083,164.125 M242.26912,155.51912 L247.48088,160.73088 M247.48088,155.51912 L242.26912,160.73088 M249.02916,156.925 L251.42917,159.325 M251.42917,156.925 L249.02916,159.325 M252.97745,155.51912 L258.1892,160.73088 M258.1892,155.51912 L252.97745,160.73088 M254.9375,152.125 L266.9375,164.125 M266.9375,152.125 L254.9375,164.125 M256.89755,148.73088 L275.6858,167.51912 M275.6858,148.73088 L256.89755,167.51912 M260.84583,147.325 L282.44583,168.925 M282.44583,147.325 L260.84583,168.925 M17.394112,176.76912 L22.605888,181.98088 M22.605888,176.76912 L17.394112,181.98088 M24.154167,178.175 L26.554167,180.575 M26.554167,178.175 L24.154167,180.575 M28.102446,176.76912 L33.31422,181.98088 M33.31422,176.76912 L28.102446,181.98088 M30.0625,173.375 L42.0625,185.375 M42.0625,173.375 L30.0625,185.375 M32.022552,169.98088 L50.81078,188.76912 M50.81078,169.98088 L32.022552,188.76912 M35.970833,168.575 L57.570835,190.175 M57.570835,168.575 L35.970833,190.175 M42.73089,169.98088 L61.51911,188.76912 M61.51911,169.98088 L42.73089,188.76912 M51.479168,173.375 L63.479168,185.375 M63.479168,173.375 L51.479168,185.375 M60.227448,176.76912 L65.439224,181.98088 M65.439224,176.76912 L60.227448,181.98088 M66.9875,178.175 L69.3875,180.575 M69.3875,178.175 L66.9875,180.575 M70.935776,176.76912 L76.14755,181.98088 M76.14755,176.76912 L70.935776,181.98088 M72.895836,173.375 L84.895836,185.375 M84.895836,173.375 L72.895836,185.375 M74.85589,169.98088 L93.64411,188.76912 M93.64411,169.98088 L74.85589,188.76912 M78.80417,168.575 L100.40417,190.175 M100.40417,168.575 L78.80417,190.175 M85.564224,169.98088 L104.35245,188.76912 M104.35245,169.98088 L85.564224,188.76912 M94.3125,173.375 L106.3125,185.375 M106.3125,173.375 L94.3125,185.375 M103.060776,176.76912 L108.27255,181.98088 M108.27255,176.76912 L103.060776,181.98088 M109.82083,178.175 L112.22083,180.575 M112.22083,178.175 L109.82083,180.575 M113.76911,176.76912 L118.98089,181.98088 M118.98089,176.76912 L113.76911,181.98088 M115.729164,173.375 L127.729164,185.375 M127.729164,173.375 L115.729164,185.375 M117.689224,169.98088 L136.47745,188.76912 M136.47745,169.98088 L117.689224,188.76912 M121.6375,168.575 L143.2375,190.175 M143.2375,168.575 L121.6375,190.175 M128.39755,169.98088 L147.18578,188.76912 M147.18578,169.98088 L128.39755,188.76912 M137.14583,173.375 L149.14583,185.375 M149.14583,173.375 L137.14583,185.375 M145.89412,176.76912 L151.10588,181.98088 M151.10588,176.76912 L145.89412,181.98088 M152.65416,178.175 L155.05417,180.575 M155.05417,178.175 L152.65416,180.575 M156.60245,176.76912 L161.81422,181.98088 M161.81422,176.76912 L156.60245,181.98088 M158.5625,173.375 L170.5625,185.375 M170.5625,173.375 L158.5625,185.375 M160.52255,169.98088 L179.31078,188.76912 M179.31078,169.98088 L160.52255,188.76912 M164.47084,168.575 L186.07083,190.175 M186.07083,168.575 L164.47084,190.175 M171.23088,169.98088 L190.01912,188.76912 M190.01912,169.98088 L171.23088,188.76912 M179.97917,173.375 L191.97917,185.375 M191.97917,173.375 L179.97917,185.375 M188.72745,176.76912 L193.93922,181.98088 M193.93922,176.76912 L188.72745,181.98088 M195.4875,178.175 L197.8875,180.575 M197.8875,178.175 L195.4875,180.575 M199.43578,176.76912 L204.64755,181.98088 M204.64755,176.76912 L199.43578,181.98088 M201.39583,173.375 L213.39583,185.375 M213.39583,173.375 L201.39583,185.375 M203.35588,169.98088 L222.14412,188.76912 M222.14412,169.98088 L203.35588,188.76912 M207.30417,168.575 L228.90416,190.175 M228.90416,168.575 L207.30417,190.175 M214.06422,169.98088 L232.85245,188.76912 M232.85245,169.98088 L214.06422,188.76912 M222.8125,173.375 L234.8125,185.375 M234.8125,173.375 L222.8125,185.375 M231.56078,176.76912 L236.77255,181.98088 M236.77255,176.76912 L231.56078,181.98088 M238.32083,178.175 L240.72084,180.575 M240.72084,178.175 L238.32083,180.575 M242.26912,176.76912 L247.48088,181.98088 M247.48088,176.76912 L242.26912,181.98088 M244.22917,173.375 L256.22916,185.375 M256.22916,173.375 L244.22917,185.375 M246.18922,169.98088 L264.97745,188.76912 M264.97745,169.98088 L246.18922,188.76912 M250.1375,168.575 L271.7375,190.175 M271.7375,168.575 L250.1375,190.175 M256.89755,169.98088 L275.6858,188.76912 M275.6858,169.98088 L256.89755,188.76912 M265.64584,173.375 L277.64584,185.375 M277.64584,173.375 L265.64584,185.375" fill="none" stroke="firebrick" stroke-width="0.5" style="mix-blend-mode: multiply;"/>
<g inkscape:groupmode="layer" inkscape:label="signature">
<path d="m 15.815664,12.893319 c -1.445284,-3.0999497 -5.555449,-0.3575 -5.08537,2.32203 1.697826,2.92736 4.504013,-3.54417 4.40859,-2.58178 -1.548999,2.22986 0.741131,6.08701 3.012419,3.25791 2.532153,-2.82358 0.259001,-7.8326797 -3.488671,-7.9011197 -3.217272,0.056 -5.8863857,2.4603197 -7.9308737,4.7238797 -2.354585,2.46752 0.0048,5.887 2.757763,6.62143 3.2195457,1.10867 6.8759417,1.30834 9.9459317,-0.36585 2.270396,-1.12373 5.025949,-2.62031 5.680576,-5.20027 -2.108811,-3.66096 -6.038415,1.28356 -3.842036,3.67822 1.07278,0.89979 4.586982,-2.27037 3.201668,-2.73503 0.03094,3.24357 1.226854,6.37852 1.337023,9.60311 -0.672198,3.54892 -7.469251,0.32096 -4.637082,-2.5164 2.158436,-2.4193 5.610472,-2.84094 8.202925,-4.57369 0.993877,-1.40371 0.353413,-5.25046 3.182464,-3.48957 2.142923,1.43516 -2.250898,5.7532 1.723416,5.02339 1.661189,-0.71663 6.494946,-1.40457 4.601401,-3.95236 -4.205319,-0.68052 -1.190571,5.86505 1.665411,3.46881 1.929752,-0.9247 2.778055,-4.05119 1.423645,-5.35034 0.479155,1.8589 3.849911,7.52574 4.880369,3.32696 0.21201,-1.28088 0.40468,-3.80204 1.01246,-1.23041 0.5858,2.6865 3.83412,4.91909 4.56937,1.07383 0.65272,-1.00894 -0.2696,-4.02739 0.99929,-1.35746 1.10974,2.31613 6.32001,1.46113 6.147,-1.13059 -1.98394,-2.13868 -5.3717,1.45205 -3.78252,3.73454 2.57741,0.96208 6.69797,-0.21041 7.06275,-3.33983 0.41287,-2.63769 0.26643,-5.3430297 -0.11178,-7.9756197 0.67418,3.94149 1.24889,7.9380497 2.39963,11.7713397 2.10586,1.67977 5.7434,1.65022 7.74596,-0.23639 3.03149,-1.85431 -0.26637,-4.76925 -2.71777,-4.54025 -2.11577,0.0793 -5.36257,2.40772 -5.16868,3.85604 2.08262,-2.38818 5.55759,-1.22628 8.30726,-1.6832 3.182,-0.26596 6.46546,-0.57372 9.54494,-1.18158 0.24171,0.4199 -0.27752,0.54338 -0.43067,0.17453" fill="none" stroke="firebrick" stroke-width="1" transform="translate(233,186) scale(0.44999999999999996)"/>
</g>
</g>
</svg>