<svg height="210mm" viewBox="0 0 297 210" width="297mm" xmlns="http://www.w3.org/2000/svg" xmlns:inkscape="http://www.inkscape.org/namespaces/inkscape">
<path d="M126.354164,177.65094 L135.54517,181.93527 L126.80274,169.79404 L126.354164,177.65094 L117.25305,166.1207 L126.80274,169.79404 L118.896126,153.7927 L117.25305,166.1207 L109.01285,155.68118 L118.896126,153.7927 L111.38352,135.53609 L109.01285,155.68118 L101.51692,146.18457 L111.38352,135.53609 L104.13385,120.185455 L101.51692,146.18457 L94.6688,137.50867 L104.13385,120.185455 L97.377464,110.73119 L94.6688,137.50867 L88.38797,129.55147 L97.377464,110.73119 L91.23001,104.73306 L88.38797,129.55147 L82.60675,122.227234 L91.23001,104.73306 L85.88846,103.902016 L82.60675,122.227234 L77.267815,115.46332 L85.88846,103.902016 L81.31523,106.10899 L77.267815,115.46332 L72.322266,109.19781 L81.31523,106.10899 L77.10138,106.57376 L72.322266,109.19781 L67.72819,103.37754 L77.10138,106.57376 L72.88919,103.07506 L67.72819,103.37754 L63.449387,97.95671 L72.88919,103.07506 L68.94072,99.4641 L63.449387,97.95671 L59.760235,95.140945 L68.94072,99.4641 L65.26526,96.134514 L59.760235,95.140945 L56.999405,97.04656 L65.26526,96.134514 L61.19399,88.10703 L56.999405,97.04656 L54.090515,96.093124 L61.19399,88.10703 L56.564926,75.16516 L54.090515,96.093124 L50.260742,88.00903 L56.564926,75.16516 L51.948742,62.06891 L50.260742,88.00903 L45.814987,75.61566 L51.948742,62.06891 L47.363033,48.980362 L45.814987,75.61566 L41.067287,61.25699 L47.363033,48.980362 L43.20481,38.44838 L41.067287,61.25699 L36.39028,47.247055 L43.20481,38.44838 L40.95131,39.312057 L36.39028,47.247055 L33.74615,44.362503 L40.95131,39.312057 L40.23826,48.360992 L33.74615,44.362503 L33.16405,51.917007 L40.23826,48.360992 L39.328743,54.932602 L33.16405,51.917007 L32.685738,58.982162 L39.328743,54.932602 L32.685738,58.982162 L39.328743,54.932602 L45.158123,46.992218 L39.328743,54.932602 L40.23826,48.360992 L47.03805,44.64267 L45.158123,46.992218 L40.23826,48.360992 L40.95131,39.312057 L48.51439,38.28479 L47.03805,44.64267 L40.95131,39.312057 L43.20481,38.44838 L50.642773,34.890656 L48.51439,38.28479 L43.20481,38.44838 L47.363033,48.980362 L54.049065,39.455063 L50.642773,34.890656 L47.363033,48.980362 L51.948742,62.06891 L58.179775,48.680603 L54.049065,39.455063 L51.948742,62.06891 L56.564926,75.16516 L62.74667,60.86885 L58.179775,48.680603 L56.564926,75.16516 L61.19399,88.10703 L67.92935,78.234604 L62.74667,60.86885 L61.19399,88.10703 L65.26526,96.134514 L72.81854,93.008575 L67.92935,78.234604 L65.26526,96.134514 L68.94072,99.4641 L77.05307,100.42896 L72.81854,93.008575 L68.94072,99.4641 L72.88919,103.07506 L81.07413,103.100044 L77.05307,100.42896 L72.88919,103.07506 L77.10138,106.57376 L85.18933,102.77753 L81.07413,103.100044 L77.10138,106.57376 L81.31523,106.10899 L89.30595,94.99054 L85.18933,102.77753 L81.31523,106.10899 L85.88846,103.902016 L94.05259,85.692764 L89.30595,94.99054 L85.88846,103.902016 L91.23001,104.73306 L99.86251,84.18406 L94.05259,85.692764 L91.23001,104.73306 L97.377464,110.73119 L106.496925,92.018364 L99.86251,84.18406 L97.377464,110.73119 L104.13385,120.185455 L113.58591,105.4976 L106.496925,92.018364 L104.13385,120.185455 L111.38352,135.53609 L120.7307,128.62366 L113.58591,105.4976 L111.38352,135.53609 L118.896126,153.7927 L127.70532,153.98544 L120.7307,128.62366 L118.896126,153.7927 L126.80274,169.79404 L135.03027,173.16394 L127.70532,153.98544 L126.80274,169.79404 L135.54517,181.93527 L143.39128,185.28145 L135.03027,173.16394 L135.54517,181.93527 L143.39128,185.28145 L151.71783,177.42505 L143.23666,166.79202 L143.39128,185.28145 L135.03027,173.16394 L143.23666,166.79202 L135.8628,150.99744 L135.03027,173.16394 L127.70532,153.98544 L135.8628,150.99744 L129.1701,128.32959 L127.70532,153.98544 L120.7307,128.62366 L129.1701,128.32959 L122.446045,104.497665 L120.7307,128.62366 L113.58591,105.4976 L122.446045,104.497665 L115.51612,87.47614 L113.58591,105.4976 L106.496925,92.018364 L115.51612,87.47614 L108.75318,74.55214 L106.496925,92.018364 L99.86251,84.18406 L108.75318,74.55214 L102.421555,70.416595 L99.86251,84.18406 L94.05259,85.692764 L102.421555,70.416595 L97.00586,79.208374 L94.05259,85.692764 L89.30595,94.99054 L97.00586,79.208374 L92.49205,91.13965 L89.30595,94.99054 L85.18933,102.77753 L92.49205,91.13965 L88.274605,95.70024 L85.18933,102.77753 L81.07413,103.100044 L88.274605,95.70024 L84.2218,95.80367 L81.07413,103.100044 L77.05307,100.42896 L84.2218,95.80367 L79.91322,88.612076 L77.05307,100.42896 L72.81854,93.008575 L79.91322,88.612076 L74.984825,72.76994 L72.81854,93.008575 L67.92935,78.234604 L74.984825,72.76994 L69.91702,55.637344 L67.92935,78.234604 L62.74667,60.86885 L69.91702,55.637344 L65.655945,46.4059 L62.74667,60.86885 L58.179775,48.680603 L65.655945,46.4059 L62.040874,42.07257 L58.179775,48.680603 L54.049065,39.455063 L62.040874,42.07257 L59.192207,42.86029 L54.049065,39.455063 L50.642773,34.890656 L59.192207,42.86029 L56.818207,45.80008 L50.642773,34.890656 L48.51439,38.28479 L56.818207,45.80008 L54.28138,45.95352 L48.51439,38.28479 L47.03805,44.64267 L54.28138,45.95352 L51.288727,41.69487 L47.03805,44.64267 L45.158123,46.992218 L51.288727,41.69487 L45.158123,46.992218 L51.288727,41.69487 L58.13026,43.3385 L51.288727,41.69487 L54.28138,45.95352 L61.73775,52.25946 L58.13026,43.3385 L54.28138,45.95352 L56.818207,45.80008 L64.94153,57.11354 L61.73775,52.25946 L56.818207,45.80008 L59.192207,42.86029 L67.63958,56.063705 L64.94153,57.11354 L59.192207,42.86029 L62.040874,42.07257 L70.36865,53.210144 L67.63958,56.063705 L62.040874,42.07257 L65.655945,46.4059 L73.73866,54.71466 L70.36865,53.210144 L65.655945,46.4059 L69.91702,55.637344 L77.7024,61.020996 L73.73866,54.71466 L69.91702,55.637344 L74.984825,72.76994 L82.27993,73.92171 L77.7024,61.020996 L74.984825,72.76994 L79.91322,88.612076 L86.79846,85.317955 L82.27993,73.92171 L79.91322,88.612076 L84.2218,95.80367 L90.983284,88.764595 L86.79846,85.317955 L84.2218,95.80367 L88.274605,95.70024 L95.1722,85.66992 L90.983284,88.764595 L88.274605,95.70024 L92.49205,91.13965 L99.71326,78.59067 L95.1722,85.66992 L92.49205,91.13965 L97.00586,79.208374 L104.83608,67.73888 L99.71326,78.59067 L97.00586,79.208374 L102.421555,70.416595 L110.776276,66.29927 L104.83608,67.73888 L102.421555,70.416595 L108.75318,74.55214 L117.10167,79.35713 L110.776276,66.29927 L108.75318,74.55214 L115.51612,87.47614 L123.510765,96.34103 L117.10167,79.35713 L115.51612,87.47614 L122.446045,104.497665 L130.01328,113.56157 L123.510765,96.34103 L122.446045,104.497665 L129.1701,128.32959 L136.62386,130.8742 L130.01328,113.56157 L129.1701,128.32959 L135.8628,150.99744 L143.90279,143.1172 L136.62386,130.8742 L135.8628,150.99744 L143.23666,166.79202 L152.28574,150.56027 L143.90279,143.1172 L143.23666,166.79202 L151.71783,177.42505 L161.45573,158.55045 L152.28574,150.56027 L151.71783,177.42505 L161.45573,158.55045 L171.37903,139.10294 L161.45161,133.54745 L161.45573,158.55045 L152.28574,150.56027 L161.45161,133.54745 L151.81284,133.56541 L152.28574,150.56027 L143.90279,143.1172 L151.81284,133.56541 L143.58417,130.60123 L143.90279,143.1172 L136.62386,130.8742 L143.58417,130.60123 L136.74971,119.88182 L136.62386,130.8742 L130.01328,113.56157 L136.74971,119.88182 L130.53325,104.45406 L130.01328,113.56157 L123.510765,96.34103 L130.53325,104.45406 L124.52325,86.85077 L123.510765,96.34103 L117.10167,79.35713 L124.52325,86.85077 L118.53622,69.670395 L117.10167,79.35713 L110.776276,66.29927 L118.53622,69.670395 L112.50875,65.402466 L110.776276,66.29927 L104.83608,67.73888 L112.50875,65.402466 L106.97257,73.17207 L104.83608,67.73888 L99.71326,78.59067 L106.97257,73.17207 L102.08288,80.32001 L99.71326,78.59067 L95.1722,85.66992 L102.08288,80.32001 L97.66924,84.68189 L95.1722,85.66992 L90.983284,88.764595 L97.66924,84.68189 L93.49235,84.343475 L90.983284,88.764595 L86.79846,85.317955 L93.49235,84.343475 L89.24632,77.1767 L86.79846,85.317955 L82.27993,73.92171 L89.24632,77.1767 L84.99014,67.683105 L82.27993,73.92171 L77.7024,61.020996 L84.99014,67.683105 L81.12882,62.545 L77.7024,61.020996 L73.73866,54.71466 L81.12882,62.545 L77.7355,61.4339 L73.73866,54.71466 L70.36865,53.210144 L77.7355,61.4339 L74.87861,64.22763 L70.36865,53.210144 L67.63958,56.063705 L74.87861,64.22763 L72.01497,64.51001 L67.63958,56.063705 L64.94153,57.11354 L72.01497,64.51001 L68.69618,58.585754 L64.94153,57.11354 L61.73775,52.25946 L68.69618,58.585754 L65.05321,48.908295 L61.73775,52.25946 L58.13026,43.3385 L65.05321,48.908295 L58.13026,43.3385 L65.05321,48.908295 L71.34711,52.40164 L65.05321,48.908295 L68.69618,58.585754 L74.88234,61.412933 L71.34711,52.40164 L68.69618,58.585754 L72.01497,64.51001 L78.19439,67.16098 L74.88234,61.412933 L72.01497,64.51001 L74.87861,64.22763 L81.21218,67.60353 L78.19439,67.16098 L74.87861,64.22763 L77.7355,61.4339 L84.28357,66.017456 L81.21218,67.60353 L77.7355,61.4339 L81.12882,62.545 L87.78562,67.87381 L84.28357,66.017456 L81.12882,62.545 L84.99014,67.683105 L91.63695,72.92401 L87.78562,67.87381 L84.99014,67.683105 L89.24632,77.1767 L95.74031,80.49959 L91.63695,72.92401 L89.24632,77.1767 L93.49235,84.343475 L99.88431,85.00099 L95.74031,80.49959 L93.49235,84.343475 L97.66924,84.68189 L104.14452,83.65732 L99.88431,85.00099 L97.66924,84.68189 L102.08288,80.32001 L108.76858,79.3643 L104.14452,83.65732 L102.08288,80.32001 L106.97257,73.17207 L113.905334,73.55548 L108.76858,79.3643 L106.97257,73.17207 L112.50875,65.402466 L119.60981,69.299255 L113.905334,73.55548 L112.50875,65.402466 L118.53622,69.670395 L125.47136,77.09706 L119.60981,69.299255 L118.53622,69.670395 L124.52325,86.85077 L131.06418,95.15485 L125.47136,77.09706 L124.52325,86.85077 L130.53325,104.45406 L136.75443,111.641335 L131.06418,95.15485 L130.53325,104.45406 L136.74971,119.88182 L142.81163,124.74682 L136.75443,111.641335 L136.74971,119.88182 L143.58417,130.60123 L150.00296,130.0747 L142.81163,124.74682 L143.58417,130.60123 L151.81284,133.56541 L159.25198,125.65308 L150.00296,130.0747 L151.81284,133.56541 L161.45161,133.54745 L170.16837,119.253624 L159.25198,125.65308 L161.45161,133.54745 L171.37903,139.10294 L180.87756,122.122765 L170.16837,119.253624 L171.37903,139.10294 L180.87756,122.122765 L188.95122,111.47133 L177.40376,112.319046 L180.87756,122.122765 L170.16837,119.253624 L177.40376,112.319046 L165.67412,122.388855 L170.16837,119.253624 L159.25198,125.65308 L165.67412,122.388855 L155.84673,130.1395 L159.25198,125.65308 L150.00296,130.0747 L155.84673,130.1395 L148.39883,127.89678 L150.00296,130.0747 L142.81163,124.74682 L148.39883,127.89678 L142.32861,117.78952 L142.81163,124.74682 L136.75443,111.641335 L142.32861,117.78952 L136.73727,104.701996 L136.75443,111.641335 L131.06418,95.15485 L136.73727,104.701996 L131.38725,89.49628 L131.06418,95.15485 L125.47136,77.09706 L131.38725,89.49628 L125.82073,80.4639 L125.47136,77.09706 L119.60981,69.299255 L125.82073,80.4639 L120.23135,80.2988 L119.60981,69.299255 L113.905334,73.55548 L120.23135,80.2988 L115.03555,82.69833 L113.905334,73.55548 L108.76858,79.3643 L115.03555,82.69833 L110.28345,85.04285 L108.76858,79.3643 L104.14452,83.65732 L110.28345,85.04285 L105.91416,86.29132 L104.14452,83.65732 L99.88431,85.00099 L105.91416,86.29132 L101.770744,82.7073 L99.88431,85.00099 L95.74031,80.49959 L101.770744,82.7073 L97.70757,75.33769 L95.74031,80.49959 L91.63695,72.92401 L97.70757,75.33769 L93.78981,68.84538 L91.63695,72.92401 L87.78562,67.87381 L93.78981,68.84538 L90.087685,64.38159 L87.78562,67.87381 L84.28357,66.017456 L90.087685,64.38159 L86.667656,62.40396 L84.28357,66.017456 L81.21218,67.60353 L86.667656,62.40396 L83.396385,60.192184 L81.21218,67.60353 L78.19439,67.16098 L83.396385,60.192184 L80.081665,55.383408 L78.19439,67.16098 L74.88234,61.412933 L80.081665,55.383408 L76.692444,48.416748 L74.88234,61.412933 L71.34711,52.40164 L76.692444,48.416748 L71.34711,52.40164 L76.692444,48.416748 L81.65222,40.618668 L76.692444,48.416748 L80.081665,55.383408 L84.90859,44.45175 L81.65222,40.618668 L80.081665,55.383408 L83.396385,60.192184 L88.20018,46.725296 L84.90859,44.45175 L83.396385,60.192184 L86.667656,62.40396 L91.6793,49.800568 L88.20018,46.725296 L86.667656,62.40396 L90.087685,64.38159 L95.4079,55.59384 L91.6793,49.800568 L90.087685,64.38159 L93.78981,68.84538 L99.3079,63.3994 L95.4079,55.59384 L93.78981,68.84538 L97.70757,75.33769 L103.3136,72.09691 L99.3079,63.3994 L97.70757,75.33769 L101.770744,82.7073 L107.39587,80.096664 L103.3136,72.09691 L101.770744,82.7073 L105.91416,86.29132 L111.60246,83.54399 L107.39587,80.096664 L105.91416,86.29132 L110.28345,85.04285 L116.095825,83.05938 L111.60246,83.54399 L110.28345,85.04285 L115.03555,82.69833 L120.91852,83.25043 L116.095825,83.05938 L115.03555,82.69833 L120.23135,80.2988 L126.06945,84.45174 L120.91852,83.25043 L120.23135,80.2988 L125.82073,80.4639 L131.50015,87.518974 L126.06945,84.45174 L125.82073,80.4639 L131.38725,89.49628 L136.99014,94.911095 L131.50015,87.518974 L131.38725,89.49628 L136.73727,104.701996 L142.51701,104.92758 L136.99014,94.911095 L136.73727,104.701996 L142.32861,117.78952 L148.39336,113.69434 L142.51701,104.92758 L142.32861,117.78952 L148.39883,127.89678 L154.69733,121.448715 L148.39336,113.69434 L148.39883,127.89678 L155.84673,130.1395 L161.98872,125.29182 L154.69733,121.448715 L155.84673,130.1395 L165.67412,122.388855 L171.2486,121.75822 L161.98872,125.29182 L165.67412,122.388855 L177.40376,112.319046 L182.48718,114.35668 L171.2486,121.75822 L177.40376,112.319046 L188.95122,111.47133 L194.39096,111.01082 L182.48718,114.35668 L188.95122,111.47133 L194.39096,111.01082 L198.52376,113.927124 L186.76967,117.690056 L194.39096,111.01082 L182.48718,114.35668 L186.76967,117.690056 L176.75755,119.34956 L182.48718,114.35668 L171.2486,121.75822 L176.75755,119.34956 L168.79825,114.95062 L171.2486,121.75822 L161.98872,125.29182 L168.79825,114.95062 L162.0417,106.483215 L161.98872,125.29182 L154.69733,121.448715 L162.0417,106.483215 L155.42953,99.74063 L154.69733,121.448715 L148.39336,113.69434 L155.42953,99.74063 L149.05588,94.329834 L148.39336,113.69434 L142.51701,104.92758 L149.05588,94.329834 L143.0699,88.823265 L142.51701,104.92758 L136.99014,94.911095 L143.0699,88.823265 L137.36859,83.96536 L136.99014,94.911095 L131.50015,87.518974 L137.36859,83.96536 L131.92169,80.1358 L131.50015,87.518974 L126.06945,84.45174 L131.92169,80.1358 L126.75547,76.92055 L126.06945,84.45174 L120.91852,83.25043 L126.75547,76.92055 L121.83059,75.32556 L120.91852,83.25043 L116.095825,83.05938 L121.83059,75.32556 L117.16208,76.08426 L116.095825,83.05938 L111.60246,83.54399 L117.16208,76.08426 L112.83966,73.65398 L111.60246,83.54399 L107.39587,80.096664 L112.83966,73.65398 L108.72517,65.80235 L107.39587,80.096664 L103.3136,72.09691 L108.72517,65.80235 L104.67878,55.66472 L103.3136,72.09691 L99.3079,63.3994 L104.67878,55.66472 L100.68439,45.75865 L99.3079,63.3994 L95.4079,55.59384 L100.68439,45.75865 L96.822586,38.6223 L95.4079,55.59384 L91.6793,49.800568 L96.822586,38.6223 L93.264946,36.994553 L91.6793,49.800568 L88.20018,46.725296 L93.264946,36.994553 L90.00005,38.05487 L88.20018,46.725296 L84.90859,44.45175 L90.00005,38.05487 L86.80357,36.825882 L84.90859,44.45175 L81.65222,40.618668 L86.80357,36.825882 L81.65222,40.618668 L86.80357,36.825882 L92.146965,40.475784 L86.80357,36.825882 L90.00005,38.05487 L95.346725,40.85681 L92.146965,40.475784 L90.00005,38.05487 L93.264946,36.994553 L98.61782,37.53827 L95.346725,40.85681 L93.264946,36.994553 L96.822586,38.6223 L102.17599,36.43048 L98.61782,37.53827 L96.822586,38.6223 L100.68439,45.75865 L106.02607,42.0065 L102.17599,36.43048 L100.68439,45.75865 L104.67878,55.66472 L109.99999,51.858963 L106.02607,42.0065 L104.67878,55.66472 L108.72517,65.80235 L114.02256,61.83203 L109.99999,51.858963 L108.72517,65.80235 L112.83966,73.65398 L118.17613,67.98183 L114.02256,61.83203 L112.83966,73.65398 L117.16208,76.08426 L122.67601,67.80751 L118.17613,67.98183 L117.16208,76.08426 L121.83059,75.32556 L127.60092,65.074295 L122.67601,67.80751 L121.83059,75.32556 L126.75547,76.92055 L132.70941,66.33858 L127.60092,65.074295 L126.75547,76.92055 L131.92169,80.1358 L138.01332,69.72038 L132.70941,66.33858 L131.92169,80.1358 L137.36859,83.96536 L143.62239,73.29675 L138.01332,69.72038 L137.36859,83.96536 L143.0699,88.823265 L149.56372,77.08496 L143.62239,73.29675 L143.0699,88.823265 L149.05588,94.329834 L155.86774,81.10445 L149.56372,77.08496 L149.05588,94.329834 L155.42953,99.74063 L162.56874,85.377014 L155.86774,81.10445 L155.42953,99.74063 L162.0417,106.483215 L169.35146,92.14543 L162.56874,85.377014 L162.0417,106.483215 L168.79825,114.95062 L175.65811,103.90912 L169.35146,92.14543 L168.79825,114.95062 L176.75755,119.34956 L182.73405,113.165535 L175.65811,103.90912 L176.75755,119.34956 L186.76967,117.690056 L191.99696,114.92712 L182.73405,113.165535 L186.76967,117.690056 L198.52376,113.927124 L203.58545,111.52945 L191.99696,114.92712 L198.52376,113.927124 L203.58545,111.52945 L209.62085,104.53426 L198.294,106.6916 L203.58545,111.52945 L191.99696,114.92712 L198.294,106.6916 L189.50075,102.54539 L191.99696,114.92712 L182.73405,113.165535 L189.50075,102.54539 L182.88254,90.73801 L182.73405,113.165535 L175.65811,103.90912 L182.88254,90.73801 L176.74704,77.55698 L175.65811,103.90912 L169.35146,92.14543 L176.74704,77.55698 L169.7836,70.86113 L169.35146,92.14543 L162.56874,85.377014 L169.7836,70.86113 L162.80962,67.14134 L162.56874,85.377014 L155.86774,81.10445 L162.80962,67.14134 L156.18416,64.258255 L155.86774,81.10445 L149.56372,77.08496 L156.18416,64.258255 L149.90323,62.1633 L149.56372,77.08496 L143.62239,73.29675 L149.90323,62.1633 L144.01288,60.193863 L143.62239,73.29675 L138.01332,69.72038 L144.01288,60.193863 L138.51596,57.79239 L138.01332,69.72038 L132.70941,66.33858 L138.51596,57.79239 L133.2079,57.607452 L132.70941,66.33858 L127.60092,65.074295 L133.2079,57.607452 L128.01428,62.43283 L127.60092,65.074295 L122.67601,67.80751 L128.01428,62.43283 L123.31688,65.04372 L122.67601,67.80751 L118.17613,67.98183 L123.31688,65.04372 L119.11132,60.76062 L118.17613,67.98183 L114.02256,61.83203 L119.11132,60.76062 L115.13134,51.730392 L114.02256,61.83203 L109.99999,51.858963 L115.13134,51.730392 L111.21208,42.94258 L109.99999,51.858963 L106.02607,42.0065 L111.21208,42.94258 L107.3867,39.55246 L106.02607,42.0065 L102.17599,36.43048 L107.3867,39.55246 L103.808304,42.89705 L102.17599,36.43048 L98.61782,37.53827 L103.808304,42.89705 L100.50054,47.352325 L98.61782,37.53827 L95.346725,40.85681 L100.50054,47.352325 L97.29298,47.106155 L95.346725,40.85681 L92.146965,40.475784 L97.29298,47.106155 L92.146965,40.475784 L97.29298,47.106155 L102.08809,53.09404 L97.29298,47.106155 L100.50054,47.352325 L105.30823,53.717407 L102.08809,53.09404 L100.50054,47.352325 L103.808304,42.89705 L108.6752,50.19185 L105.30823,53.717407 L103.808304,42.89705 L107.3867,39.55246 L112.28622,46.885986 L108.6752,50.19185 L107.3867,39.55246 L111.21208,42.94258 L116.084404,48.676407 L112.28622,46.885986 L111.21208,42.94258 L115.13134,51.730392 L119.95218,55.233612 L116.084404,48.676407 L115.13134,51.730392 L119.11132,60.76062 L123.89979,62.4955 L119.95218,55.233612 L119.11132,60.76062 L123.31688,65.04372 L128.0961,66.455826 L123.89979,62.4955 L123.31688,65.04372 L128.01428,62.43283 L132.8183,64.43132 L128.0961,66.455826 L128.01428,62.43283 L133.2079,57.607452 L138.08704,59.5757 L132.8183,64.43132 L133.2079,57.607452 L138.51596,57.79239 L143.53983,58.05867 L138.08704,59.5757 L138.51596,57.79239 L144.01288,60.193863 L149.30974,57.541336 L143.53983,58.05867 L144.01288,60.193863 L149.90323,62.1633 L155.73723,54.974167 L149.30974,57.541336 L149.90323,62.1633 L156.18416,64.258255 L162.65749,52.79991 L155.73723,54.974167 L156.18416,64.258255 L162.80962,67.14134 L169.76025,53.444214 L162.65749,52.79991 L162.80962,67.14134 L169.7836,70.86113 L177.02457,56.49942 L169.76025,53.444214 L169.7836,70.86113 L176.74704,77.55698 L184.39229,61.859665 L177.02457,56.49942 L176.74704,77.55698 L182.88254,90.73801 L191.2097,72.27208 L184.39229,61.859665 L182.88254,90.73801 L189.50075,102.54539 L198.18785,83.36852 L191.2097,72.27208 L189.50075,102.54539 L198.294,106.6916 L206.58005,90.26468 L198.18785,83.36852 L198.294,106.6916 L209.62085,104.53426 L216.8884,92.67843 L206.58005,90.26468 L209.62085,104.53426 L216.8884,92.67843 L223.06157,84.32525 L214.53477,75.28728 L216.8884,92.67843 L206.58005,90.26468 L214.53477,75.28728 L206.41202,66.644196 L206.58005,90.26468 L198.18785,83.36852 L206.41202,66.644196 L198.18242,60.572052 L198.18785,83.36852 L191.2097,72.27208 L198.18242,60.572052 L189.96597,57.042984 L191.2097,72.27208 L184.39229,61.859665 L189.96597,57.042984 L182.24239,53.871643 L184.39229,61.859665 L177.02457,56.49942 L182.24239,53.871643 L175.04,50.605667 L177.02457,56.49942 L169.76025,53.444214 L175.04,50.605667 L167.96796,49.609024 L169.76025,53.444214 L162.65749,52.79991 L167.96796,49.609024 L160.79811,53.23842 L162.65749,52.79991 L155.73723,54.974167 L160.79811,53.23842 L153.96507,58.977585 L155.73723,54.974167 L149.30974,57.541336 L153.96507,58.977585 L147.89966,62.619797 L149.30974,57.541336 L143.53983,58.05867 L147.89966,62.619797 L142.33607,65.745316 L143.53983,58.05867 L138.08704,59.5757 L142.33607,65.745316 L137.1969,68.58243 L138.08704,59.5757 L132.8183,64.43132 L137.1969,68.58243 L132.66156,67.17677 L132.8183,64.43132 L128.0961,66.455826 L132.66156,67.17677 L128.54813,61.756912 L128.0961,66.455826 L123.89979,62.4955 L128.54813,61.756912 L124.568115,56.34053 L123.89979,62.4955 L119.95218,55.233612 L124.568115,56.34053 L120.67736,52.21115 L119.95218,55.233612 L116.084404,48.676407 L120.67736,52.21115 L116.87938,50.722443 L116.084404,48.676407 L112.28622,46.885986 L116.87938,50.722443 L113.23389,51.783813 L112.28622,46.885986 L108.6752,50.19185 L113.23389,51.783813 L109.79037,52.767776 L108.6752,50.19185 L105.30823,53.717407 L109.79037,52.767776 L106.51346,51.481445 L105.30823,53.717407 L102.08809,53.09404 L106.51346,51.481445 L102.08809,53.09404 L106.51346,51.481445 L110.822685,42.5244 L106.51346,51.481445 L109.79037,52.767776 L114.19791,44.29776 L110.822685,42.5244 L109.79037,52.767776 L113.23389,51.783813 L117.72413,45.634995 L114.19791,44.29776 L113.23389,51.783813 L116.87938,50.722443 L121.41187,46.986923 L117.72413,45.634995 L116.87938,50.722443 L120.67736,52.21115 L125.253044,48.91765 L121.41187,46.986923 L120.67736,52.21115 L124.568115,56.34053 L129.24213,51.48694 L125.253044,48.91765 L124.568115,56.34053 L128.54813,61.756912 L133.31393,55.750397 L129.24213,51.48694 L128.54813,61.756912 L132.66156,67.17677 L137.3439,62.941208 L133.31393,55.750397 L132.66156,67.17677 L137.1969,68.58243 L141.67207,67.69154 L137.3439,62.941208 L137.1969,68.58243 L142.33607,65.745316 L146.68892,66.8656 L141.67207,67.69154 L142.33607,65.745316 L147.89966,62.619797 L152.39137,62.750885 L146.68892,66.8656 L147.89966,62.619797 L153.96507,58.977585 L158.68465,57.58371 L152.39137,62.750885 L153.96507,58.977585 L160.79811,53.23842 L165.4597,52.879745 L158.68465,57.58371 L160.79811,53.23842 L167.96796,49.609024 L172.06851,53.163376 L165.4597,52.879745 L167.96796,49.609024 L175.04,50.605667 L178.38295,58.036667 L172.06851,53.163376 L175.04,50.605667 L182.24239,53.871643 L185.15514,62.396866 L178.38295,58.036667 L182.24239,53.871643 L189.96597,57.042984 L192.9011,64.111374 L185.15514,62.396866 L189.96597,57.042984 L198.18242,60.572052 L202.1026,62.063583 L192.9011,64.111374 L198.18242,60.572052 L206.41202,66.644196 L211.40448,62.975708 L202.1026,62.063583 L206.41202,66.644196 L214.53477,75.28728 L219.34889,71.66701 L211.40448,62.975708 L214.53477,75.28728 L223.06157,84.32525 L226.33487,85.06018 L219.34889,71.66701 L223.06157,84.32525 L226.33487,85.06018 L227.76534,90.82786 L221.37814,77.077515 L226.33487,85.06018 L219.34889,71.66701 L221.37814,77.077515 L213.72379,68.77934 L219.34889,71.66701 L211.40448,62.975708 L213.72379,68.77934 L204.44229,68.956985 L211.40448,62.975708 L202.1026,62.063583 L204.44229,68.956985 L195.27342,71.920456 L202.1026,62.063583 L192.9011,64.111374 L195.27342,71.920456 L187.74252,70.38608 L192.9011,64.111374 L185.15514,62.396866 L187.74252,70.38608 L181.40941,64.96643 L185.15514,62.396866 L178.38295,58.036667 L181.40941,64.96643 L176.04152,55.533142 L178.38295,58.036667 L172.06851,53.163376 L176.04152,55.533142 L170.40213,49.03354 L172.06851,53.163376 L165.4597,52.879745 L170.40213,49.03354 L164.0248,49.94519 L165.4597,52.879745 L158.68465,57.58371 L164.0248,49.94519 L157.5845,54.982773 L158.68465,57.58371 L152.39137,62.750885 L157.5845,54.982773 L151.67563,59.604675 L152.39137,62.750885 L146.68892,66.8656 L151.67563,59.604675 L146.57616,60.09224 L146.68892,66.8656 L141.67207,67.69154 L146.57616,60.09224 L142.25383,54.52562 L141.67207,67.69154 L137.3439,62.941208 L142.25383,54.52562 L138.21364,46.86554 L137.3439,62.941208 L133.31393,55.750397 L138.21364,46.86554 L134.04422,42.959503 L133.31393,55.750397 L129.24213,51.48694 L134.04422,42.959503 L129.94272,40.86464 L129.24213,51.48694 L125.253044,48.91765 L129.94272,40.86464 L126.01367,38.85788 L125.253044,48.91765 L121.41187,46.986923 L126.01367,38.85788 L122.24638,36.933716 L121.41187,46.986923 L117.72413,45.634995 L122.24638,36.933716 L118.631096,35.087204 L117.72413,45.634995 L114.19791,44.29776 L118.631096,35.087204 L115.15879,33.313705 L114.19791,44.29776 L110.822685,42.5244 L115.15879,33.313705 L110.822685,42.5244 L115.15879,33.313705 L119.52373,24.04181 L115.15879,33.313705 L118.631096,35.087204 L123.098976,25.539307 L119.52373,24.04181 L118.631096,35.087204 L122.24638,36.933716 L126.831375,26.896759 L123.098976,25.539307 L122.24638,36.933716 L126.01367,38.85788 L130.72055,28.44342 L126.831375,26.896759 L126.01367,38.85788 L129.94272,40.86464 L134.76031,30.416992 L130.72055,28.44342 L129.94272,40.86464 L134.04422,42.959503 L138.95949,32.702118 L134.76031,30.416992 L134.04422,42.959503 L138.21364,46.86554 L143.21031,36.747253 L138.95949,32.702118 L138.21364,46.86554 L142.25383,54.52562 L147.32292,44.202713 L143.21031,36.747253 L142.25383,54.52562 L146.57616,60.09224 L151.7748,49.267563 L147.32292,44.202713 L146.57616,60.09224 L151.67563,59.604675 L157.07681,48.300186 L151.7748,49.267563 L151.67563,59.604675 L157.5845,54.982773 L163.20561,43.50589 L157.07681,48.300186 L157.5845,54.982773 L164.0248,49.94519 L169.67836,39.70099 L163.20561,43.50589 L164.0248,49.94519 L170.40213,49.03354 L175.32599,44.41243 L169.67836,39.70099 L170.40213,49.03354 L176.04152,55.533142 L179.70752,58.11432 L175.32599,44.41243 L176.04152,55.533142 L181.40941,64.96643 L184.09752,71.76076 L179.70752,58.11432 L181.40941,64.96643 L187.74252,70.38608 L190.09505,77.65007 L184.09752,71.76076 L187.74252,70.38608 L195.27342,71.920456 L197.48059,78.775894 L190.09505,77.65007 L195.27342,71.920456 L204.44229,68.956985 L206.54288,75.34546 L197.48059,78.775894 L204.44229,68.956985 L213.72379,68.77934 L215.77931,74.299225 L206.54288,75.34546 L213.72379,68.77934 L221.37814,77.077515 L223.41646,81.36896 L215.77931,74.299225 L221.37814,77.077515 L227.76534,90.82786 L229.74606,93.93662 L223.41646,81.36896 L227.76534,90.82786 L229.74606,93.93662 L234.56155,87.755806 L227.52687,77.95041 L229.74606,93.93662 L223.41646,81.36896 L227.52687,77.95041 L219.20424,73.83383 L223.41646,81.36896 L215.77931,74.299225 L219.20424,73.83383 L209.38966,77.57127 L215.77931,74.299225 L206.54288,75.34546 L209.38966,77.57127 L199.93059,83.19395 L206.54288,75.34546 L197.48059,78.775894 L199.93059,83.19395 L192.29361,84.05093 L197.48059,78.775894 L190.09505,77.65007 L192.29361,84.05093 L186.24397,79.60622 L190.09505,77.65007 L184.09752,71.76076 L186.24397,79.60622 L182.48051,64.21843 L184.09752,71.76076 L179.70752,58.11432 L182.48051,64.21843 L179.43277,44.043854 L179.70752,58.11432 L175.32599,44.41243 L179.43277,44.043854 L174.98474,31.7751 L175.32599,44.41243 L169.67836,39.70099 L174.98474,31.7751 L168.83868,32.189148 L169.67836,39.70099 L163.20561,43.50589 L168.83868,32.189148 L162.64204,35.972824 L163.20561,43.50589 L157.07681,48.300186 L162.64204,35.972824 L157.06398,37.935333 L157.07681,48.300186 L151.7748,49.267563 L157.06398,37.935333 L152.33995,34.68512 L151.7748,49.267563 L147.32292,44.202713 L152.33995,34.68512 L148.11972,27.913025 L147.32292,44.202713 L143.21031,36.747253 L148.11972,27.913025 L143.8933,22.601257 L143.21031,36.747253 L138.95949,32.702118 L143.8933,22.601257 L139.70335,18.652359 L138.95949,32.702118 L134.76031,30.416992 L139.70335,18.652359 L135.57878,16.081512 L134.76031,30.416992 L130.72055,28.44342 L135.57878,16.081512 L131.51387,15.577591 L130.72055,28.44342 L126.831375,26.896759 L131.51387,15.577591 L127.6039,15.802414 L126.831375,26.896759 L123.098976,25.539307 L127.6039,15.802414 L123.91118,14.921036 L123.098976,25.539307 L119.52373,24.04181 L123.91118,14.921036 L119.52373,24.04181 L123.91118,14.921036 L127.99855,13.882889 L123.91118,14.921036 L127.6039,15.802414 L131.75069,14.125641 L127.99855,13.882889 L127.6039,15.802414 L131.51387,15.577591 L135.81583,11.929642 L131.75069,14.125641 L131.51387,15.577591 L135.57878,16.081512 L140.01476,11.203278 L135.81583,11.929642 L135.57878,16.081512 L139.70335,18.652359 L144.10222,14.844147 L140.01476,11.203278 L139.70335,18.652359 L143.8933,22.601257 L148.09393,21.323166 L144.10222,14.844147 L143.8933,22.601257 L148.11972,27.913025 L152.11786,28.498993 L148.09393,21.323166 L148.11972,27.913025 L152.33995,34.68512 L156.38075,34.31218 L152.11786,28.498993 L152.33995,34.68512 L157.06398,37.935333 L161.369,35.169586 L156.38075,34.31218 L157.06398,37.935333 L162.64204,35.972824 L167.12128,32.270157 L161.369,35.169586 L162.64204,35.972824 L168.83868,32.189148 L173.08798,30.577194 L167.12128,32.270157 L168.83868,32.189148 L174.98474,31.7751 L178.66295,33.791153 L173.08798,30.577194 L174.98474,31.7751 L179.43277,44.043854 L182.39932,49.154633 L178.66295,33.791153 L179.43277,44.043854 L182.48051,64.21843 L185.29247,68.54201 L182.39932,49.154633 L182.48051,64.21843 L186.24397,79.60622 L189.54672,80.29561 L185.29247,68.54201 L186.24397,79.60622 L192.29361,84.05093 L196.23509,81.38945 L189.54672,80.29561 L192.29361,84.05093 L199.93059,83.19395 L204.47017,77.99292 L196.23509,81.38945 L199.93059,83.19395 L209.38966,77.57127 L214.27203,71.26967 L204.47017,77.99292 L209.38966,77.57127 L219.20424,73.83383 L224.19965,67.273254 L214.27203,71.26967 L219.20424,73.83383 L227.52687,77.95041 L232.86853,70.15639 L224.19965,67.273254 L227.52687,77.95041 L234.56155,87.755806 L240.88393,76.85898 L232.86853,70.15639 L234.56155,87.755806 L240.88393,76.85898 L245.42964,71.068695 L237.03383,65.86305 L240.88393,76.85898 L232.86853,70.15639 L237.03383,65.86305 L229.1956,60.45192 L232.86853,70.15639 L224.19965,67.273254 L229.1956,60.45192 L220.40306,60.123352 L224.19965,67.273254 L214.27203,71.26967 L220.40306,60.123352 L210.90332,64.958206 L214.27203,71.26967 L204.47017,77.99292 L210.90332,64.958206 L202.08954,70.00658 L204.47017,77.99292 L196.23509,81.38945 L202.08954,70.00658 L194.48299,72.576706 L196.23509,81.38945 L189.54672,80.29561 L194.48299,72.576706 L188.88918,67.67764 L189.54672,80.29561 L185.29247,68.54201 L188.88918,67.67764 L184.91725,55.25418 L185.29247,68.54201 L182.39932,49.154633 L184.91725,55.25418 L180.93585,42.877594 L182.39932,49.154633 L178.66295,33.791153 L180.93585,42.877594 L175.75723,38.253006 L178.66295,33.791153 L173.08798,30.577194 L175.75723,38.253006 L170.13312,38.233368 L173.08798,30.577194 L167.12128,32.270157 L170.13312,38.233368 L164.40111,41.40851 L167.12128,32.270157 L161.369,35.169586 L164.40111,41.40851 L159.32983,41.96768 L161.369,35.169586 L156.38075,34.31218 L159.32983,41.96768 L155.12964,36.826126 L156.38075,34.31218 L152.11786,28.498993 L155.12964,36.826126 L151.35724,28.517807 L152.11786,28.498993 L148.09393,21.323166 L151.35724,28.517807 L147.6216,20.407013 L148.09393,21.323166 L144.10222,14.844147 L147.6216,20.407013 L143.662,15.989273 L144.10222,14.844147 L140.01476,11.203278 L143.662,15.989273 L139.44035,17.337646 L140.01476,11.203278 L135.81583,11.929642 L139.44035,17.337646 L135.32065,20.602905 L135.81583,11.929642 L131.75069,14.125641 L135.32065,20.602905 L131.58813,20.630219 L131.75069,14.125641 L127.99855,13.882889 L131.58813,20.630219 L127.99855,13.882889 L131.58813,20.630219 L134.94656,27.155075 L131.58813,20.630219 L135.32065,20.602905 L138.64017,27.18518 L134.94656,27.155075 L135.32065,20.602905 L139.44035,17.337646 L142.7456,23.940506 L138.64017,27.18518 L139.44035,17.337646 L143.662,15.989273 L146.92883,22.6418 L142.7456,23.940506 L143.662,15.989273 L147.6216,20.407013 L150.78755,27.177155 L146.92883,22.6418 L147.6216,20.407013 L151.35724,28.517807 L154.37863,35.43315 L150.78755,27.177155 L151.35724,28.517807 L155.12964,36.826126 L158.00685,43.774567 L154.37863,35.43315 L155.12964,36.826126 L159.32983,41.96768 L162.11101,48.709717 L158.00685,43.774567 L159.32983,41.96768 L164.40111,41.40851 L167.12027,48.021057 L162.11101,48.709717 L164.40111,41.40851 L170.13312,38.233368 L172.75365,45.062836 L167.12027,48.021057 L170.13312,38.233368 L175.75723,38.253006 L178.18918,45.57646 L172.75365,45.062836 L175.75723,38.253006 L180.93585,42.877594 L183.29997,49.638306 L178.18918,45.57646 L180.93585,42.877594 L184.91725,55.25418 L187.9005,57.5374 L183.29997,49.638306 L184.91725,55.25418 L188.88918,67.67764 L193.06764,63.307816 L187.9005,57.5374 L188.88918,67.67764 L194.48299,72.576706 L199.82382,62.910538 L193.06764,63.307816 L194.48299,72.576706 L202.08954,70.00658 L208.04593,58.295456 L199.82382,62.910538 L202.08954,70.00658 L210.90332,64.958206 L217.03091,53.252213 L208.04593,58.295456 L210.90332,64.958206 L220.40306,60.123352 L225.56673,52.43228 L217.03091,53.252213 L220.40306,60.123352 L229.1956,60.45192 L232.43686,59.213287 L225.56673,52.43228 L229.1956,60.45192 L237.03383,65.86305 L238.67432,69.010544 L232.43686,59.213287 L237.03383,65.86305 L245.42964,71.068695 L246.58676,74.71388 L238.67432,69.010544 L245.42964,71.068695" fill="none" stroke="black" stroke-width="0.4"/>
</svg>