<svg height="210mm" style="background:black" viewBox="0 0 297 210" width="297mm" xmlns="http://www.w3.org/2000/svg" xmlns:inkscape="http://www.inkscape.org/namespaces/inkscape">
<g inkscape:groupmode="layer" inkscape:label="deepskyblue">
<path d="M236.60254,170 L63.39746,170 L150,20 L236.60254,170 M66.5,165 L228.5,165 L150,29.034012 L74,160.66988 L221,160.66988 L150,37.694267 L81.5,156.33975 L213.5,156.33975 L150,46.35452 L89,152.00961 L206,152.00961 L150,55.014774 L96.5,147.67949 L198.5,147.67949 L150,63.675026 L104,143.34937 L191,143.34937 L150,72.33528 L111.5,139.01924 L183.5,139.01924 L150,80.99554 L119,134.68912 L176,134.68912 L150,89.65579 L126.5,130.35898 L168.5,130.35898 L150,98.31605 L134,126.028854 L161,126.028854 L150,106.976295 L141.5,121.69873 L153.5,121.69873 L150,115.63655 L149,117.36861" fill="none" stroke="deepskyblue" stroke-width="0.5"/>
</g>
<g inkscape:groupmode="layer" inkscape:label="aquamarine">
<path d="M65.25,167.25 L232.25,167.25 L150,24.78882 L70.25,162.91988 L224.75,162.91988 L150,33.449074 L77.75,158.58975 L217.25,158.58975 L150,42.10933 L85.25,154.25961 L209.75,154.25961 L150,50.769585 L92.75,149.92949 L202.25,149.92949 L150,59.429836 L100.25,145.59937 L194.75,145.59937 L150,68.09009 L107.75,141.26924 L187.25,141.26924 L150,76.75034 L115.25,136.93912 L179.75,136.93912 L150,85.4106 L122.75,132.60898 L172.25,132.60898 L150,94.070854 L130.25,128.27885 L164.75,128.27885 L150,102.73111 L137.75,123.94873 L157.25,123.94873 L150,111.391365 L145.25,119.61861 L149.75,119.61861" fill="none" stroke="aquamarine" stroke-width="0.5"/>
</g>
<g inkscape:groupmode="layer" inkscape:label="signature">
<path d="m 15.815664,12.893319 c -1.445284,-3.0999497 -5.555449,-0.3575 -5.08537,2.32203 1.697826,2.92736 4.504013,-3.54417 4.40859,-2.58178 -1.548999,2.22986 0.741131,6.08701 3.012419,3.25791 2.532153,-2.82358 0.259001,-7.8326797 -3.488671,-7.9011197 -3.217272,0.056 -5.8863857,2.4603197 -7.9308737,4.7238797 -2.354585,2.46752 0.0048,5.887 2.757763,6.62143 3.2195457,1.10867 6.8759417,1.30834 9.9459317,-0.36585 2.270396,-1.12373 5.025949,-2.62031 5.680576,-5.20027 -2.108811,-3.66096 -6.038415,1.28356 -3.842036,3.67822 1.07278,0.89979 4.586982,-2.27037 3.201668,-2.73503 0.03094,3.24357 1.226854,6.37852 1.337023,9.60311 -0.672198,3.54892 -7.469251,0.32096 -4.637082,-2.5164 2.158436,-2.4193 5.610472,-2.84094 8.202925,-4.57369 0.993877,-1.40371 0.353413,-5.25046 3.182464,-3.48957 2.142923,1.43516 -2.250898,5.7532 1.723416,5.02339 1.661189,-0.71663 6.494946,-1.40457 4.601401,-3.95236 -4.205319,-0.68052 -1.190571,5.86505 1.665411,3.46881 1.929752,-0.9247 2.778055,-4.05119 1.423645,-5.35034 0.479155,1.8589 3.849911,7.52574 4.880369,3.32696 0.21201,-1.28088 0.40468,-3.80204 1.01246,-1.23041 0.5858,2.6865 3.83412,4.91909 4.56937,1.07383 0.65272,-1.00894 -0.2696,-4.02739 0.99929,-1.35746 1.10974,2.31613 6.32001,1.46113 6.147,-1.13059 -1.98394,-2.13868 -5.3717,1.45205 -3.78252,3.73454 2.57741,0.96208 6.69797,-0.21041 7.06275,-3.33983 0.41287,-2.63769 0.26643,-5.3430297 -0.11178,-7.9756197 0.67418,3.94149 1.24889,7.9380497 2.39963,11.7713397 2.10586,1.67977 5.7434,1.65022 7.74596,-0.23639 3.03149,-1.85431 -0.26637,-4.76925 -2.71777,-4.54025 -2.11577,0.0793 -5.36257,2.40772 -5.16868,3.85604 2.08262,-2.38818 5.55759,-1.22628 8.30726,-1.6832 3.182,-0.26596 6.46546,-0.57372 9.54494,-1.18158 0.24171,0.4199 -0.27752,0.54338 -0.43067,0.17453" fill="none" stroke="white" stroke-width="1" transform="translate(260,190) scale(0.3)"/>
</g>
</svg>